<svg id="Layer_1" height="512" viewBox="0 0 128 128" width="512" xmlns="http://www.w3.org/2000/svg" data-name="Layer 1"><path d="m108.9 50.383a11.289 11.289 0 0 0 -5.156-7.487 10.32 10.32 0 0 0 -2-.9 55.822 55.822 0 0 0 -11.806-2.49s-7.606-.1-16.579 6.878a78.73 78.73 0 0 0 -25.4 15.486s-21.359 2.671-26.305 26.343a13.475 13.475 0 0 0 .286 6.651c1.387 4.644 4.6 12.534 10.448 12.859 8.294.462 7.783-.492 9.18 1.21s.364 3.513 1.623 7.241 9.485 5.372 13 6.927c3.5 1.535 7.832 3.109 9.544.521.816-1.239 1.259-2.873.236-3.955-.423-.433-1.781-.4-2.362-.807-2.9-2.036-8.756-3.876-9.809-4.762-1.771-1.5-1.938-5.529-1.938-5.529l-.846-7.517-.905-8.126s11.334-1.161 31.769-15.457c0 0 7.428 3.562 11.285 6.651.2.147.374.3.551.452a57.794 57.794 0 0 0 7.546 5.491s1.112 5.745 3.572 7.615 8.52 1.79 8.166-.709-4.369-4.978-4.92-7.861 1.594-1.584-4.122-6.346a74 74 0 0 1 -6.749-6.424c-1.745-1.88-2.739-3.138-2.739-3.138l2.49-4.5 3.187-3.168s.207 0 .571-.01c3.2-.069 18.753-.689 19.992-6.149a3.283 3.283 0 0 0 .089-.532c.639-5.723-11.899-8.458-11.899-8.458z" fill="#f5d8af"/><path d="m91.142 67.39c-3.827-.02-4.8-2.436-8.242-.832-5.106 2.381-9.642 5.815-14.522 8.638-3.837 2.224-7.89 4.064-11.649 6.425-7.615 4.8-14.148 11.8-22.855 14.118a40.516 40.516 0 0 0 17.139 5.313l-.905-8.126s11.334-1.161 31.769-15.457c0 0 1.944.933 4.358 2.256a4.6 4.6 0 0 1 .477-.574 5.122 5.122 0 0 1 1.894-1.166 35.508 35.508 0 0 1 5.864-4.785l2.49-4.5 3.187-3.168s.207 0 .571-.01c-1.21-1.837-7.441 1.887-9.576 1.868z" fill="#f2f2f2"/><path d="m21.842 94.548c-.816 1.991-1.628 2.694-4 1.882s-3.52-3.039-4.593-5.3c-2.1-4.436-1.653-9.581.384-14.047a3.051 3.051 0 0 0 .42-2.433c-.462-1.02-1.928-1.087-2.954-.639a6.717 6.717 0 0 0 -3.564 4.855 17.212 17.212 0 0 0 -.422 6c.553 4.185 1.287 8.434 3.258 12.16s5.381 6.917 9.538 7.632c4 .689 8.053-.966 11.491-3.129z" fill="#f5d8af"/><path d="m120.8 58.846c-.236.2-.916 2.174-1.211 2.274-3.185 1.181-8.558-1.687-11.114-3.924a5.28 5.28 0 0 1 -1.694-2.495 9.456 9.456 0 0 1 -.118-2.368 15.8 15.8 0 0 0 -1.805-7.25c-.273-.549-.734-1.347-1.107-2.192a11.316 11.316 0 0 1 5.15 7.492s12.542 2.739 11.899 8.463z" fill="#f2f2f2"/><path d="m62.763 126c-2.465 0-5.291-1.244-6.985-1.99-.841-.371-2.02-.768-3.269-1.188-4.085-1.373-9.168-3.081-10.266-6.337a15.913 15.913 0 0 1 -.8-4.429 3.884 3.884 0 0 0 -.651-2.487c-.593-.724-.6-.725-2.385-.709-1.226.012-3.077.027-6.078-.14-2.532-.135-4.833-1.51-6.837-4.086a1 1 0 0 1 1.579-1.229c1.632 2.1 3.437 3.215 5.366 3.318 2.938.164 4.752.149 5.952.137 2.317-.022 2.788.021 3.95 1.442a5.725 5.725 0 0 1 1.1 3.624 13.986 13.986 0 0 0 .7 3.921c.78 2.315 5.535 3.913 9.007 5.08 1.293.434 2.516.844 3.439 1.253 3.208 1.413 7.053 2.79 8.306.886.2-.3 1.162-1.852.344-2.706-.056-.02-.447-.1-.681-.152a4.138 4.138 0 0 1 -1.509-.524 37.372 37.372 0 0 0 -6.314-3.092 17.2 17.2 0 0 1 -3.577-1.731c-2.049-1.739-2.273-5.8-2.292-6.257l-1.75-15.572a1 1 0 0 1 .888-1.103c.109-.012 11.385-1.349 31.291-15.281a1 1 0 0 1 1-.083c.34.164 8.359 4.019 12.061 7.259a57.043 57.043 0 0 0 7.406 5.371 1 1 0 0 1 .474.672c.29 1.5 1.428 5.673 3.191 7.01 1.564 1.183 5.025 1.4 6.281.66.328-.192.309-.321.3-.416-.135-.933-1.132-2.091-2.1-3.21-1.222-1.418-2.486-2.885-2.818-4.609a6.008 6.008 0 0 1 -.084-1.9c.049-.511.07-.722-3.689-3.859a72.811 72.811 0 0 1 -9.64-9.725 1 1 0 0 1 -.09-1.1l2.486-4.5a1.017 1.017 0 0 1 .171-.227l3.193-3.169a1.008 1.008 0 0 1 .7-.29c7.11-.022 18.718-1.5 19.6-5.381a2.972 2.972 0 0 0 -.45-2.346c-1.894-2.979-8.293-4.941-10.6-5.446a1 1 0 0 1 -.775-.831 9.932 9.932 0 0 0 -6.476-7.579 55.285 55.285 0 0 0 -11.574-2.437c-.006 0-7.343.024-15.892 6.667a1.019 1.019 0 0 1 -.3.16 78.341 78.341 0 0 0 -25.037 15.28 1 1 0 0 1 -.548.252c-.857.109-21.045 2.934-25.57 26.115a11.228 11.228 0 0 0 .269 5.227 1.03 1.03 0 0 1 -.665 1.267.974.974 0 0 1 -1.233-.635 13.336 13.336 0 0 1 -.335-6.24c4.488-22.993 24.17-27.187 26.959-27.666a79.3 79.3 0 0 1 25.375-15.445c9.082-7 16.764-6.984 17.075-6.98a55.92 55.92 0 0 1 12.112 2.536 11.817 11.817 0 0 1 7.686 8.508c2.126.539 8.89 2.5 11.223 6.172a4.943 4.943 0 0 1 .713 3.862c-1.44 6.358-17.77 6.893-21.128 6.936l-2.8 2.782-2.092 3.777a73.968 73.968 0 0 0 8.934 8.918c4.1 3.421 4.551 4 4.4 5.587a3.992 3.992 0 0 0 .057 1.328c.232 1.2 1.319 2.466 2.37 3.685 1.2 1.4 2.342 2.718 2.561 4.233a2.365 2.365 0 0 1 -1.262 2.424c-2.078 1.221-6.369.824-8.5-.79-2.357-1.788-3.522-6.282-3.855-7.784a58.528 58.528 0 0 1 -7.324-5.357c-2.978-2.606-9.244-5.794-11.088-6.706-16.963 11.781-27.573 14.535-30.757 15.137l1.649 14.693c.046 1 .423 3.891 1.589 4.882a22.535 22.535 0 0 0 3.058 1.412 38.811 38.811 0 0 1 6.683 3.294 4.041 4.041 0 0 0 .781.211 3.153 3.153 0 0 1 1.718.73c1.209 1.263 1.162 3.252-.126 5.19a4.244 4.244 0 0 1 -3.795 1.826z" fill="#4d4d4d"/><path d="m80.678 64.535s8.864 7.819 10.779 11.871c1.663 3.519 5.18 10.864 6.376 14.5.182.552 1.21 1.648 1.27 2 .455 2.684-6.448 4.521-8.6-.431a119.22 119.22 0 0 0 -6.2-11.6s-11.617-3.54-13.641-7.339l-3.238-6.079" fill="#f5d8af"/><path d="m95.237 96.579a5.97 5.97 0 0 1 -5.65-3.708 114.911 114.911 0 0 0 -5.944-11.155c-2.268-.716-11.851-3.933-13.864-7.711l-3.237-6.079a1 1 0 1 1 1.764-.94l3.239 6.079c1.5 2.814 9.928 5.9 13.049 6.852a1.007 1.007 0 0 1 .563.437 118.235 118.235 0 0 1 6.265 11.72 4.186 4.186 0 0 0 5.161 2.313c.9-.268 1.537-.786 1.541-1.236-.082-.132-.262-.375-.388-.544a5.568 5.568 0 0 1 -.852-1.392c-1.092-3.316-4.251-9.988-5.948-13.574l-.383-.808c-1.8-3.819-10.449-11.471-10.537-11.548a1 1 0 0 1 1.323-1.5c.369.325 9.042 8 11.023 12.194l.381.806c1.837 3.879 4.91 10.371 6.04 13.805a6.52 6.52 0 0 0 .559.825 3.317 3.317 0 0 1 .747 1.322c.26 1.534-.92 2.968-2.937 3.567a6.788 6.788 0 0 1 -1.915.275z" fill="#4d4d4d"/><path d="m97.912 47.579c-1.384 2.272-3.261 4.446-3.431 7.1-.116 1.807.594 3.561.759 5.363s-.5 3.96-2.235 4.482c-1.842.555-4.079.841-5.765-2.188-2.851-5.121-5.885-9.6-5.688-14.151s.99-7.195 5.074-9.218c1.381-.684 7.178-.086 8.688.216 4.81.963 4.616 5.083 2.598 8.396z" fill="#f5d8af"/><g fill="#4d4d4d"><path d="m91.006 65.882c-1.48 0-3.268-.594-4.64-3.06-.41-.736-.824-1.46-1.231-2.172-2.45-4.28-4.763-8.323-4.582-12.507.209-4.829 1.168-7.864 5.63-10.073 1.918-.947 8.663 0 9.328.133 2.7.54 3.84 1.961 4.321 3.058.824 1.88.436 4.373-1.066 6.839-.306.5-.634 1-.964 1.5-1.135 1.714-2.207 3.333-2.323 5.147a10.939 10.939 0 0 0 .368 2.947 19.034 19.034 0 0 1 .389 2.261c.2 2.177-.638 4.836-2.943 5.53a7.763 7.763 0 0 1 -2.287.397zm-1.9-26.235a6.069 6.069 0 0 0 -2.037.215c-3.635 1.8-4.333 4.036-4.52 8.367-.156 3.607 1.918 7.231 4.32 11.428.411.719.829 1.449 1.242 2.193 1.237 2.222 2.625 2.31 4.6 1.716 1.163-.35 1.655-2.03 1.527-3.433a17.1 17.1 0 0 0 -.353-2.023 12.658 12.658 0 0 1 -.409-3.494c.151-2.347 1.423-4.267 2.653-6.125.315-.476.631-.952.923-1.432 1.14-1.872 1.492-3.74.942-4.995a3.651 3.651 0 0 0 -2.882-1.9 38.175 38.175 0 0 0 -6.004-.517z"/><path d="m120.454 57.773c-.876 1.079-1.624.335-2.762-.588s-2.918-2.56-2.042-3.639 3.193-.323 4.331.6a2.588 2.588 0 0 1 .473 3.627z"/><path d="m119.549 59.307a3.806 3.806 0 0 1 -2.266-1.165l-.221-.181c-2.513-2.041-3.249-3.739-2.188-5.045 1.325-1.633 4.233-.766 5.737.455a3.707 3.707 0 0 1 1.353 2.4 3.425 3.425 0 0 1 -.734 2.631 2.213 2.213 0 0 1 -1.489.893 1.79 1.79 0 0 1 -.192.012zm-2.591-5.292a.7.7 0 0 0 -.537.162c-.011.017-.067.636 1.9 2.231l.229.188a4.956 4.956 0 0 0 .988.705c.006-.017.06-.062.138-.157a1.453 1.453 0 0 0 .3-1.113 1.714 1.714 0 0 0 -.63-1.107 4.309 4.309 0 0 0 -2.383-.909z"/><path d="m101.24 50.678a2.933 2.933 0 0 1 2.727.022"/><path d="m103.967 51.7a.987.987 0 0 1 -.424-.1 2 2 0 0 0 -1.785-.072 1.013 1.013 0 0 1 -1.363-.345.989.989 0 0 1 .309-1.354 3.965 3.965 0 0 1 3.688-.039 1 1 0 0 1 -.425 1.905z"/><path d="m21.773 105.814a11.979 11.979 0 0 1 -2.033-.17c-4.1-.705-7.929-3.751-10.253-8.151a30.964 30.964 0 0 1 -3.366-12.54 17.03 17.03 0 0 1 .456-6.361c.544-1.924 1.7-4.44 4.126-5.5 1.538-.674 3.554-.428 4.265 1.14a3.833 3.833 0 0 1 -.4 3.218c-2.092 4.586-2.234 9.4-.41 13.247 1.093 2.307 2.082 4.123 4.013 4.784 1.756.6 2.089.29 2.747-1.313a1 1 0 1 1 1.85.758c-.916 2.236-2.159 3.505-5.246 2.448-2.881-.987-4.2-3.78-5.171-5.819-2.078-4.384-1.94-9.811.378-14.891.28-.614.575-1.26.418-1.606s-.976-.425-1.642-.134c-1.709.747-2.576 2.7-3 4.211a15.193 15.193 0 0 0 -.387 5.648 28.719 28.719 0 0 0 3.137 11.777c2.037 3.853 5.335 6.513 8.824 7.113 3.148.542 6.775-.465 10.788-2.991a1 1 0 0 1 1.066 1.693c-3.633 2.287-7.044 3.439-10.16 3.439z"/></g><path d="m51.871 81.233c3 3.765 5.933 9.861 1.641 16.7l2.024 3.8s9.229.9 14.69 1.854c1.713.3 3.625-.586 4.235-.1 2.557 2.052.988 4.95-.912 5.962s-5.749 1.111-9.028.907c-2.362-.147-9.835-.862-13.83-1.25a4.827 4.827 0 0 1 -3.8-2.539l-2.425-4.552s-9.244 3.7-14.407-2.324" fill="#f5d8af"/><path d="m67.254 111.452c-.972 0-1.925-.038-2.8-.092-2.214-.138-8.762-.757-13.865-1.253a5.818 5.818 0 0 1 -4.581-3.063l-2.023-3.8c-2.526.8-10.015 2.554-14.687-2.9a1 1 0 0 1 1.52-1.3c4.627 5.4 13.19 2.079 13.276 2.046a1 1 0 0 1 1.254.459l2.425 4.552a3.826 3.826 0 0 0 3.01 2.013c4.164.4 11.5 1.1 13.8 1.247 3.99.249 7.085-.04 8.5-.792a3.263 3.263 0 0 0 1.709-2.376 2.124 2.124 0 0 0 -.869-1.854 6.461 6.461 0 0 0 -1.016.117 8.627 8.627 0 0 1 -2.85.115c-5.36-.94-14.522-1.835-14.614-1.844a1 1 0 0 1 -.785-.525l-2.024-3.8a1 1 0 0 1 .035-1c3.94-6.282 1.318-11.923-1.576-15.548a1 1 0 0 1 1.563-1.248c3.222 4.037 6.134 10.287 2.01 17.359l1.505 2.825c2.055.208 9.552.99 14.232 1.811a6.8 6.8 0 0 0 2.188-.12 3.066 3.066 0 0 1 2.5.228 4.153 4.153 0 0 1 1.692 3.672 5.292 5.292 0 0 1 -2.76 3.954c-1.623.865-4.257 1.117-6.769 1.117z" fill="#4d4d4d"/><path d="m82.587 7.681c-3.273-3.6-8.264-4.56-11.941-2.556a10.888 10.888 0 0 0 -6.729-2.125c-5.589.1-10.048 4.21-9.993 9.183a10.947 10.947 0 0 0 -5.524 2.641c-4.2 3.713-4.928 9.762-1.618 13.5a8.68 8.68 0 0 0 7.308 2.795c.855 4.3 5.1 7.529 10.167 7.428a10.339 10.339 0 0 0 8.953-5.121 9.317 9.317 0 0 0 7.014-1.406c4.073-2.666 5.452-7.749 3.144-11.39 3.025-3.453 2.758-9.051-.781-12.949z" fill="#f2f2f2"/><path d="m64.022 39.552c-5.071 0-9.415-3.036-10.707-7.4h-.024a9.37 9.37 0 0 1 -9.509-10.708 11.745 11.745 0 0 1 3.956-7.372 11.959 11.959 0 0 1 5.216-2.716c.416-5.127 5.146-9.25 10.946-9.356a12.091 12.091 0 0 1 6.834 1.962c4.057-1.858 9.255-.633 12.594 3.045 3.678 4.051 4.161 9.818 1.248 13.721 2.071 4.035.464 9.337-3.8 12.129a10.471 10.471 0 0 1 -7.054 1.672 11.419 11.419 0 0 1 -9.443 5.019c-.088.004-.173.004-.257.004zm-9.931-9.43a1 1 0 0 1 .98.8c.78 3.927 4.627 6.728 9.166 6.623a9.321 9.321 0 0 0 8.1-4.6 1 1 0 0 1 1.085-.5 8.326 8.326 0 0 0 6.257-1.263c3.586-2.348 4.863-6.841 2.848-10.02a1 1 0 0 1 .093-1.193c2.737-3.128 2.406-8.124-.769-11.622-2.889-3.171-7.398-4.158-10.727-2.347a1 1 0 0 1 -1.077-.077 9.969 9.969 0 0 0 -6.112-1.923c-5.018.09-9.06 3.757-9.011 8.173a1 1 0 0 1 -.841 1 9.942 9.942 0 0 0 -5.019 2.4 9.75 9.75 0 0 0 -3.3 6.113 7.527 7.527 0 0 0 1.763 5.981 7.667 7.667 0 0 0 6.479 2.46q.045-.005.085-.005z" fill="#4d4d4d"/><circle cx="92.345" cy="28.727" fill="#f2f2f2" r="4.467"/><path d="m92.345 34.194a5.467 5.467 0 1 1 5.467-5.466 5.473 5.473 0 0 1 -5.467 5.466zm0-8.934a3.467 3.467 0 1 0 3.467 3.468 3.471 3.471 0 0 0 -3.467-3.468z" fill="#4d4d4d"/><circle cx="101.955" cy="34.086" fill="#f2f2f2" r="2.7"/><path d="m101.955 37.786a3.7 3.7 0 1 1 3.7-3.7 3.7 3.7 0 0 1 -3.7 3.7zm0-5.4a1.7 1.7 0 1 0 1.7 1.7 1.7 1.7 0 0 0 -1.7-1.699z" fill="#4d4d4d"/><path d="m65.158 25.042 7.994-7.994c.053.064 2.153 1.825 3.856.188a2.607 2.607 0 0 0 -2.745-4.292 2.606 2.606 0 0 0 -.6-2.745 2.637 2.637 0 0 0 -3.693 0c-1.94 1.838.124 3.8.187 3.855l-7.994 7.994a2.609 2.609 0 1 0 -3.855 3.506 2.606 2.606 0 0 0 2.745.6 2.607 2.607 0 0 0 4.293 2.746c1.818-1.761-.124-3.8-.188-3.858z" fill="#f5d8af"/><path d="m63.487 30.664a3.6 3.6 0 0 1 -3.587-3.364 3.6 3.6 0 0 1 -2.3-1.042 3.691 3.691 0 0 1 -1.076-2.692 3.379 3.379 0 0 1 1.114-2.452 3.439 3.439 0 0 1 4.472-.43l6.7-6.7a3.808 3.808 0 0 1 -.67-1.956 3.3 3.3 0 0 1 1.139-2.554 3.6 3.6 0 0 1 6.131 2.32 3.606 3.606 0 0 1 2.3 1.042 3.657 3.657 0 0 1 1.065 2.605 3.505 3.505 0 0 1 -1.075 2.516 3.314 3.314 0 0 1 -2.543.968 4.463 4.463 0 0 1 -1.885-.584l-6.791 6.792a4.092 4.092 0 0 1 .637 1.961 3.3 3.3 0 0 1 -1.077 2.522 3.672 3.672 0 0 1 -2.554 1.048zm-2.433-5.512a1 1 0 0 1 .939 1.344 1.608 1.608 0 0 0 2.658 1.683 1.34 1.34 0 0 0 .47-.95 2.452 2.452 0 0 0 -.661-1.471.926.926 0 0 1 -.329-.7.97.97 0 0 1 .321-.726l7.993-7.994a1 1 0 0 1 1.4-.015c.136.115 1.448 1.173 2.471.19a1.525 1.525 0 0 0 .465-1.094 1.649 1.649 0 0 0 -.481-1.169 1.611 1.611 0 0 0 -1.7-.366 1 1 0 0 1 -1.276-1.284 1.617 1.617 0 0 0 -.367-1.7 1.638 1.638 0 0 0 -2.3.019 1.386 1.386 0 0 0 -.517 1 2.279 2.279 0 0 0 .687 1.385 1.024 1.024 0 0 1 .321.72 1.006 1.006 0 0 1 -.285.729l-7.993 7.993a.986.986 0 0 1 -.753.292 1 1 0 0 1 -.723-.36 1.958 1.958 0 0 0 -1.174-.628 1.724 1.724 0 0 0 -1.243.545 1.4 1.4 0 0 0 -.454 1.017 1.684 1.684 0 0 0 .491 1.226 1.61 1.61 0 0 0 1.694.366 1 1 0 0 1 .346-.052z" fill="#4d4d4d"/></svg>