<svg id="Capa_1" enable-background="new 0 0 512 512" viewBox="0 0 512 512" xmlns="http://www.w3.org/2000/svg"><g><g><g><path d="m312.081 478.009-54.352-42.555 82.054-145.572c-1.914.29-3.873.442-5.867.442h-185.999c-1.88 0-3.798-.061-5.724-.189l81.911 145.319-54.352 42.555c-2.421 1.896-3.835 4.799-3.835 7.874v13.617c0 2.761 2.239 5 5 5h140c2.761 0 5-2.239 5-5v-13.618c-.001-3.074-1.415-5.978-3.836-7.873z" fill="#dff6fd"/><g><path d="m147.917 290.324c-1.88 0-3.798-.061-5.724-.189l.107.189z" fill="#dff6fd"/><path d="m312.081 478.009-54.352-42.555 82.054-145.572c-1.914.29-3.873.442-5.867.442h-25.573l-81.805 145.13 31.524 24.682c7.484 5.86 3.341 17.874-6.165 17.874h-82.146c-2.421 1.896-3.835 4.799-3.835 7.874v13.616c0 2.761 2.239 5 5 5h140c2.761 0 5-2.239 5-5v-13.618c0-3.074-1.414-5.978-3.835-7.873z" fill="#c8effe"/></g><path d="m257.729 435.453 45.563-80.833c-3.366-2.574-7.56-4.121-12.125-4.121-5.132 0-9.806 1.936-13.344 5.116-1.953 1.755-4.86 1.755-6.813 0-3.538-3.179-8.212-5.116-13.344-5.116s-9.806 1.936-13.344 5.116c-1.953 1.755-4.86 1.755-6.813 0-3.538-3.179-8.212-5.116-13.344-5.116s-9.806 1.936-13.344 5.116c-1.953 1.755-4.86 1.755-6.813 0-3.538-3.179-8.212-5.116-13.344-5.116-4.565 0-8.759 1.546-12.125 4.121l45.563 80.833z" fill="#c8effe"/><path d="m277.823 355.615c-1.835 1.649-4.503 1.728-6.439.278l-44.845 79.56h31.191l45.563-80.833c-3.366-2.574-7.56-4.121-12.125-4.121-5.133.001-9.808 1.938-13.345 5.116z" fill="#99e6fc"/><path d="m161.477 131.21c12.998-10.811 28.179-18.948 44.326-23.699l1.511-.445-1.045-1.178c-5.579-6.291-8.652-14.696-8.652-23.669 0-1.577.103-3.126.289-4.645-5.523-4.337-12.48-6.93-20.047-6.93-17.949 0-32.5 14.551-32.5 32.5-.002 11.974 6.478 22.428 16.118 28.066z" fill="#6e61b6"/><path d="m161.487 131.202c12.996-10.806 28.173-18.941 44.315-23.69l1.511-.445-1.045-1.178c-5.579-6.291-8.652-14.696-8.652-23.669 0-1.578.103-3.129.289-4.649-4.701-3.69-10.44-6.117-16.71-6.757 1.166 3.348 1.807 6.941 1.807 10.686 0 17.949-14.551 32.5-32.5 32.5-1.127 0-2.24-.058-3.337-.17 2.56 7.357 7.699 13.496 14.322 17.372z" fill="#6354b1"/><g><g><path d="m401.586 51.343-17.321-10c-2.391-1.381-5.449-.561-6.83 1.83l-52.919 91.658c.554.505 1.108 1.01 1.655 1.526 5.859 5.533 6.325 14.894 1.038 20.867l-.562.635.534.658c3.711 4.569 7.017 9.425 9.935 14.49l66.299-114.833c1.382-2.392.563-5.45-1.829-6.831z" fill="#bb5d4c"/></g></g><g><path d="m240.917 102.472c11.861 0 23.505 1.673 34.645 4.899 5.934-6.243 9.655-15.199 9.655-25.152 0-18.866-13.362-34.159-29.844-34.159-5.246 0-10.173 1.554-14.456 4.274-4.283-2.72-9.21-4.274-14.456-4.274-16.483 0-29.844 15.294-29.844 34.159 0 9.953 3.721 18.908 9.655 25.152 11.139-3.226 22.783-4.899 34.645-4.899z" fill="#fe646f"/><path d="m240.917 102.472c11.861 0 23.505 1.673 34.645 4.899 5.934-6.243 9.655-15.199 9.655-25.152 0-13.574-6.918-25.299-16.938-30.808.108 1.18.165 2.376.165 3.589 0 18.866-13.362 34.159-29.844 34.159h-41.365c1.287 7.139 4.524 13.459 9.041 18.211 11.137-3.225 22.78-4.898 34.641-4.898z" fill="#fd4755"/></g><path d="m327.323 157.102c-1.167 1.347-2.585 2.49-4.224 3.359-5.192 2.75-11.063 4.204-16.98 4.204-10.02 0-19.354-3.993-26.28-11.245-1.674-1.753-3.919-2.719-6.32-2.719s-4.646.966-6.321 2.719c-6.928 7.251-16.261 11.245-26.28 11.245-10.021 0-19.354-3.993-26.281-11.245-1.674-1.753-3.919-2.719-6.32-2.719s-4.646.966-6.321 2.719c-6.927 7.251-16.261 11.245-26.28 11.245-5.917 0-11.788-1.454-16.98-4.204-1.639-.868-3.056-2.012-4.224-3.359-16.039 19.389-25.678 44.266-25.678 71.395 0 4.915.319 9.755.932 14.502h222.306c.613-4.748.932-9.588.932-14.502-.002-27.128-9.642-52.005-25.681-71.395z" fill="#fe99a0"/><path d="m327.315 157.113c-1.166 1.342-2.58 2.481-4.215 3.348-5.192 2.75-11.063 4.204-16.98 4.204-4.442 0-8.748-.789-12.771-2.294-16.853 31.801-50.271 53.474-88.768 53.474h-75.034c-.467 4.154-.715 8.375-.715 12.653 0 4.915.319 9.755.932 14.502h222.306c.613-4.748.932-9.588.932-14.502 0-27.129-9.648-51.997-25.687-71.385z" fill="#fd8087"/><path d="m323.567 161.345c9.617-5.093 11.203-18.244 3.291-25.715-22.425-21.174-52.665-34.158-85.942-34.158s-63.517 12.984-85.942 34.158c-7.912 7.471-6.326 20.622 3.291 25.715 5.207 2.758 11.144 4.32 17.448 4.32 10.622 0 20.204-4.436 27.003-11.554 3.069-3.213 8.127-3.213 11.196 0 6.8 7.118 16.382 11.554 27.003 11.554s20.204-4.436 27.003-11.554c3.069-3.213 8.128-3.213 11.196 0 6.799 7.118 16.382 11.554 27.003 11.554 6.306 0 12.243-1.562 17.45-4.32z" fill="#fff3de"/><path d="m323.567 161.345c9.617-5.093 11.203-18.244 3.291-25.715-22.425-21.174-52.665-34.158-85.942-34.158s-63.517 12.984-85.942 34.158c-7.912 7.471-6.326 20.622 3.291 25.715 5.207 2.758 11.144 4.32 17.448 4.32 10.622 0 20.204-4.436 27.003-11.554 3.069-3.213 8.127-3.213 11.196 0 6.8 7.118 16.382 11.554 27.003 11.554s20.204-4.436 27.003-11.554c3.069-3.213 8.128-3.213 11.196 0 6.799 7.118 16.382 11.554 27.003 11.554 6.306 0 12.243-1.562 17.45-4.32z" fill="#fff3de"/><path d="m326.858 135.63c-6.66-6.289-14.015-11.848-21.929-16.567-.569 15.96-4.855 30.973-12.03 44.193 4.109 1.557 8.565 2.409 13.22 2.409 6.303 0 12.241-1.562 17.448-4.32 9.617-5.094 11.203-18.244 3.291-25.715z" fill="#ffe5c2"/><path d="m333.916 291.324h-186c-22.091 0-40-7.909-40-30v-14.324c0-2.761 2.239-5 5-5h256c2.761 0 5 2.239 5 5v4.324c0 22.091-17.908 40-40 40z" fill="#dff6fd"/><path d="m368.916 242h-38.651c-4.997 16.394-20.235 28.324-38.264 28.324h-182.914c4.305 15.28 20.052 21 38.83 21h186c22.091 0 40-17.909 40-40v-4.324c-.001-2.761-2.239-5-5.001-5z" fill="#c8effe"/></g></g><g><path d="m204.831 328.5c4.143 0 7.5-3.358 7.5-7.5v-3c0-4.142-3.357-7.5-7.5-7.5s-7.5 3.358-7.5 7.5v3c0 4.142 3.357 7.5 7.5 7.5z"/><path d="m240.917 328.5c4.143 0 7.5-3.358 7.5-7.5v-3c0-4.142-3.357-7.5-7.5-7.5s-7.5 3.358-7.5 7.5v3c0 4.142 3.357 7.5 7.5 7.5z"/><path d="m277.002 328.5c4.143 0 7.5-3.358 7.5-7.5v-3c0-4.142-3.357-7.5-7.5-7.5s-7.5 3.358-7.5 7.5v3c0 4.142 3.357 7.5 7.5 7.5z"/><path d="m405.337 44.848-17.321-10c-5.968-3.447-13.628-1.394-17.075 4.575l-47.921 83.003c-10.683-8.43-22.494-15.106-35.046-19.864 3.09-6.147 4.743-13.104 4.743-20.343 0-22.971-16.752-41.66-37.344-41.66-1.743 0-3.479.144-5.195.413 4.784-15.046 18.799-25.972 35.305-25.972 4.143 0 7.5-3.358 7.5-7.5s-3.357-7.5-7.5-7.5c-25.034 0-45.992 17.852-50.95 41.555-2.641-.651-5.347-.995-8.072-.995-15.361 0-28.581 10.402-34.308 25.22-4.522-1.734-9.344-2.636-14.295-2.636-6.122 0-12.004 1.352-17.481 4.018-3.725 1.812-5.274 6.301-3.462 10.026 1.813 3.723 6.302 5.275 10.026 3.461 3.415-1.662 7.088-2.505 10.917-2.505 3.973 0 7.812.924 11.29 2.694-.014.459-.031.918-.031 1.381 0 7.238 1.654 14.195 4.744 20.343-11.896 4.508-23.126 10.739-33.362 18.553-4.714-4.549-7.495-10.792-7.622-17.491-.078-4.141-3.528-7.464-7.641-7.357-4.142.078-7.436 3.499-7.357 7.64.194 10.246 4.263 19.831 11.206 27.012-5.018 5.182-7.425 12.437-6.45 19.628.335 2.466 1.039 4.802 2.061 6.957-15.099 20.465-23.365 45.461-23.365 70.994 0 1.984.063 3.99.166 6.002h-8.58c-6.893 0-12.5 5.607-12.5 12.5v14.324c0 21.136 13.628 34.269 37.767 36.971l76.223 135.226-4.651 3.642c-3.262 2.553-3.836 7.268-1.282 10.529 2.554 3.262 7.269 3.835 10.528 1.282l7.69-6.021h28.452l52.316 40.961c.609.477.959 1.194.959 1.968v11.118h-135v-11.118c0-.774.35-1.492.958-1.969l16.793-13.147c3.262-2.553 3.836-7.267 1.282-10.529-2.555-3.262-7.269-3.834-10.528-1.282l-16.794 13.147c-4.265 3.339-6.711 8.362-6.711 13.779v13.619c0 6.893 5.607 12.5 12.5 12.5h140c6.893 0 12.5-5.607 12.5-12.5v-13.618c0-5.417-2.447-10.44-6.712-13.779l-49.277-38.582 76.532-135.776c21.383-4.623 37.457-23.676 37.457-46.422v-4.323c0-6.893-5.607-12.5-12.5-12.5h-8.58c.103-2.013.166-4.018.166-6.002 0-19.746-4.964-39.162-14.188-56.42l63.599-110.157c3.44-5.967 1.388-13.626-4.579-17.073zm-178.876 10.712c3.679 0 7.19 1.045 10.436 3.106 2.455 1.558 5.588 1.558 8.041 0 3.245-2.061 6.756-3.105 10.436-3.105 12.32 0 22.344 11.959 22.344 26.66 0 5.765-1.526 11.217-4.347 15.76-10.506-2.639-21.39-4.007-32.452-4.007-11.063 0-21.948 1.369-32.453 4.007-2.822-4.544-4.348-9.995-4.348-15.76-.002-14.702 10.021-26.661 22.343-26.661zm-71.038 112.74c6.249 3.175 13.243 4.865 20.291 4.865 12.365 0 23.882-4.927 32.426-13.873.124-.129.226-.131.35-.001 3.308 3.463 7.145 6.368 11.405 8.635 3.659 1.945 8.2.557 10.144-3.099 1.945-3.657.559-8.199-3.099-10.144-2.845-1.513-5.402-3.448-7.603-5.752-2.913-3.049-6.827-4.729-11.021-4.729h-.001c-4.194 0-8.108 1.679-11.022 4.729-5.688 5.955-13.351 9.234-21.579 9.234-4.929 0-9.618-1.16-13.938-3.448-2.354-1.246-3.912-3.501-4.276-6.186-.38-2.8.576-5.515 2.624-7.448 21.93-20.707 50.623-32.111 80.793-32.111s58.862 11.404 80.792 32.111c2.048 1.933 3.004 4.648 2.624 7.448-.364 2.685-1.923 4.939-4.276 6.186-4.319 2.288-9.009 3.448-13.937 3.448-8.228 0-15.893-3.279-21.58-9.233-2.912-3.05-6.826-4.729-11.021-4.73h-.001c-4.194 0-8.108 1.679-11.022 4.729-2.2 2.304-4.758 4.24-7.602 5.752-3.657 1.945-5.044 6.487-3.099 10.144 1.945 3.656 6.485 5.044 10.144 3.099 4.259-2.266 8.096-5.171 11.403-8.634.122-.129.225-.132.351 0 8.546 8.946 20.062 13.873 32.427 13.873 7.047 0 14.041-1.69 20.29-4.865 12.343 17.535 19.092 38.642 19.092 60.197 0 1.981-.059 3.987-.177 6.002h-208.817c-.118-2.016-.177-4.021-.177-6.002 0-21.555 6.749-42.661 19.092-60.197zm97.925 259.654h-24.862l-39.37-69.847c.512-.064 1.028-.107 1.551-.107 3.08 0 6.038 1.134 8.331 3.195 4.799 4.311 12.038 4.311 16.839-.001 2.291-2.06 5.25-3.194 8.33-3.194s6.038 1.134 8.331 3.195c4.799 4.311 12.038 4.311 16.839-.001 2.291-2.06 5.25-3.194 8.33-3.194s6.038 1.134 8.331 3.195c2.399 2.155 5.408 3.233 8.418 3.233s6.021-1.078 8.421-3.234c2.291-2.06 5.25-3.194 8.33-3.194.523 0 1.039.043 1.551.107zm46.99-83.368c-2.917-1.039-6.001-1.586-9.172-1.586-6.09 0-11.962 2.011-16.751 5.7-4.789-3.689-10.661-5.7-16.749-5.7-6.09 0-11.962 2.011-16.751 5.7-4.789-3.689-10.661-5.7-16.749-5.7-6.09 0-11.962 2.011-16.751 5.7-4.789-3.689-10.661-5.7-16.749-5.7-3.17 0-6.255.547-9.172 1.586l-25.794-45.762h170.433zm66.078-95.086v1.824c0 17.92-14.579 32.5-32.5 32.5h-185.999c-10.329 0-18.689-1.898-24.177-5.491-5.601-3.667-8.323-9.23-8.323-17.009v-11.824zm-25.441-98.174-1.995.535c.083-.434.157-.871.217-1.313.761-5.614-.537-11.268-3.53-15.945l17.701-4.743zm23-39.838-20.491 5.49 12.393-21.466 20.491-5.49zm23-39.837-20.491 5.49 16.196-28.053 12.991 7.5z"/></g></g><g/><g/><g/><g/><g/><g/><g/><g/><g/><g/><g/><g/><g/><g/><g/></svg>