<svg height="512" width="512" xmlns="http://www.w3.org/2000/svg"><path d="m218.658 366.302-16.381 17.408h-53.672c6.406-12.034 31.319-42.659 52.082-52.156z" fill="#a63c30"/><path d="M202.277 385.683h-53.672a1.972 1.972 0 0 1-1.742-2.901c6.056-11.378 31.395-43.14 53.004-53.023a1.972 1.972 0 0 1 2.574.888l17.971 34.748a1.973 1.973 0 0 1-.316 2.259l-16.381 17.408a1.975 1.975 0 0 1-1.438.621zm-50.24-3.947h49.387l14.839-15.769-16.448-31.802c-18.796 9.521-40.057 35.181-47.778 47.571z" fill="#7d271d"/><path d="M354.717 383.71H310.67l-9.818-12.293v-34.032c22.473 8.571 47.499 28.308 53.865 46.325z" fill="#a63c30"/><path d="M354.717 385.683h-44.046c-.6 0-1.168-.273-1.543-.742l-9.818-12.294a1.976 1.976 0 0 1-.431-1.232v-34.031a1.975 1.975 0 0 1 2.677-1.845c21.721 8.286 48.241 28.322 55.022 47.512.214.604.12 1.274-.25 1.797-.37.524-.97.835-1.611.835zm-43.097-3.947h40.178c-7.442-16.527-29.671-33.358-48.971-41.436v30.425z" fill="#7d271d"/><path d="M324.289 383.71H184.554c2.898-10.444 6.197-21.051 9.507-31.449.462-1.46.93-2.91 1.393-4.359 1.776-5.549 3.542-11.013 5.233-16.348.067-.214.135-.423.203-.637l91.973-8.436c.332.626.665 1.252 1.004 1.878 3.587 6.727 7.348 13.663 11.098 20.695 1.675 3.147 3.349 6.316 5.007 9.491 5.086 9.738 10.009 19.556 14.317 29.165z" fill="#e36254"/><path d="M310.169 354.387c-34.849 28.649-95.864 10.714-115.036-6.767 2.313-7.262 3.565-9.777 5.755-16.705l91.976-8.433c3.892 7.31 13.208 24.216 17.305 31.905z" fill="#a63c30"/><path d="M324.289 385.683H184.553a1.972 1.972 0 0 1-1.901-2.501c3.025-10.903 6.515-22.052 9.529-31.52.297-.938.597-1.874.896-2.809l.497-1.551c.612-1.914 1.223-3.816 1.83-5.706 1.154-3.593 2.294-7.143 3.402-10.638l.202-.636c.24-.757.91-1.297 1.702-1.37l91.973-8.436a1.981 1.981 0 0 1 1.923 1.039l.05.095c.314.59.628 1.181.947 1.772 1.794 3.365 3.626 6.773 5.479 10.218 1.862 3.462 3.744 6.961 5.623 10.485 1.831 3.441 3.471 6.549 5.016 9.506 6.003 11.494 10.568 20.795 14.368 29.272a1.972 1.972 0 0 1-1.8 2.78zm-137.133-3.947h134.071c-3.512-7.662-7.69-16.102-13.005-26.278a1385.983 1385.983 0 0 0-5-9.477 3301.424 3301.424 0 0 0-5.616-10.472c-1.855-3.45-3.69-6.862-5.482-10.222l-.387-.721-89.363 8.196c-1.05 3.305-2.125 6.653-3.212 10.039-.606 1.889-1.217 3.79-1.829 5.701l-.497 1.555c-.299.93-.597 1.862-.893 2.798-2.774 8.713-5.948 18.847-8.787 28.881z" fill="#7d271d"/><g><path d="M241.87 123.075c-8.276-16.7-13.765-24.597-24.016-40.471-5.624-8.71-12.348-18.783-23.103-22.633-4.532-1.623-9.395.858-6.795 5.95 1.063 2.082 3.104 3.619 5.069 5.069-3.36-1.262-5.673-1.781-9.207-1.908-3.533-.127-7.099.631-9.79 2.544-1.421 1.011-2.645 2.589-2.202 4.292.348 1.338 1.669 2.378 3.077 2.863s2.908.514 4.373.538c-21.212 23.163-35.787 76.188-27.717 95.552z" fill="#ffe8db"/><path d="M151.56 176.843a1.974 1.974 0 0 1-1.822-1.215c-8.258-19.814 5.669-70.195 25.544-94.693a9.81 9.81 0 0 1-1.02-.289c-2.199-.758-3.864-2.38-4.345-4.233-.588-2.265.521-4.656 2.969-6.396 2.853-2.028 6.755-3.062 11.005-2.908.916.033 1.759.09 2.566.179a9.292 9.292 0 0 1-.257-.47c-1.376-2.694-1.236-5.295.383-7.136 1.893-2.152 5.442-2.784 8.835-1.568 11.67 4.178 18.852 15.3 24.096 23.421a2812.75 2812.75 0 0 0 3.62 5.589c7.955 12.257 13.209 20.354 20.505 35.077a1.973 1.973 0 1 1-3.536 1.752c-7.195-14.518-12.12-22.107-20.28-34.68-1.144-1.763-2.348-3.618-3.626-5.597-4.938-7.646-11.7-18.119-22.11-21.846-2.044-.731-3.864-.309-4.541.459-.642.731-.263 1.89.169 2.735.877 1.718 2.792 3.131 4.483 4.378a1.973 1.973 0 0 1-1.866 3.436c-3.285-1.234-5.37-1.667-8.583-1.783-3.38-.121-6.427.653-8.575 2.18-.78.555-1.624 1.46-1.436 2.187.144.554.905 1.181 1.81 1.493 1.126.388 2.465.409 3.762.43a1.974 1.974 0 0 1 1.424 3.306c-9.646 10.535-18.767 28.631-24.397 48.408-5.44 19.109-6.571 36.372-2.954 45.052a1.973 1.973 0 0 1-1.823 2.732z" fill="#e0a58f"/><path d="M195.383 90.915c12.29-2.619 26.398 36.067 27.566 42.986 1.167 6.919-44.068 26.716-50.306 21.136-6.238-5.581 11.887-61.809 22.74-64.122z" fill="#a63c30"/><path d="M176.59 157.954c-2.303 0-4.133-.436-5.264-1.447-2.9-2.595-2.527-10.847 1.112-24.525 4.163-15.654 13.963-41.168 22.534-42.997 2.365-.506 4.839.105 7.351 1.811 11.521 7.829 21.689 37.543 22.573 42.776.342 2.027-.566 5.472-12.343 11.969-9.27 5.113-26.548 12.413-35.963 12.413zm20.009-65.193a3.86 3.86 0 0 0-.805.084c-4.848 1.033-13.856 19.336-19.277 39.168-3.945 14.435-3.428 20.754-2.559 21.553 1.138 1.02 7.8.781 20.823-4.192 6.556-2.505 13.188-5.647 18.195-8.622 6.31-3.75 7.916-5.987 8.018-6.571-1.037-5.971-11.144-33.497-20.891-40.12-1.28-.871-2.435-1.3-3.504-1.3zm-1.216-1.846h.006z" fill="#7d271d"/><path d="M317.699 141.46c15.006-11.055 23.502-15.561 39.885-24.978 8.989-5.167 19.579-11.042 30.904-9.539 4.772.633 7.958 5.065 3.316 8.401-1.899 1.364-4.417 1.795-6.828 2.184 3.565.417 5.859 1.015 9.058 2.521 3.199 1.505 6.022 3.812 7.538 6.745.801 1.55 1.165 3.513-.008 4.824-.922 1.03-2.572 1.35-4.046 1.135-1.474-.214-2.821-.875-4.134-1.525 8.248 30.306-3.08 84.118-19.123 97.636z" fill="#ffe8db"/><path d="M374.26 230.838a1.974 1.974 0 0 1-1.273-3.483c7.19-6.059 14.09-21.923 18.007-41.402 4.054-20.16 4.234-40.423.484-54.206a1.974 1.974 0 0 1 2.779-2.287c1.161.575 2.362 1.169 3.542 1.34.944.138 1.909-.072 2.291-.498.501-.559.165-1.751-.274-2.602-1.21-2.342-3.563-4.425-6.625-5.865-2.91-1.369-4.962-1.939-8.447-2.346a1.974 1.974 0 0 1-.085-3.909c2.074-.335 4.424-.714 5.99-1.839.77-.554 1.639-1.411 1.403-2.355-.249-.992-1.674-2.201-3.826-2.487-10.965-1.457-21.329 4.505-29.66 9.293-2.041 1.174-3.961 2.271-5.785 3.314-13.013 7.44-20.867 11.931-33.913 21.542a1.974 1.974 0 0 1-2.341-3.178c13.229-9.747 21.609-14.538 34.295-21.791 1.822-1.042 3.739-2.137 5.777-3.309 8.381-4.818 19.86-11.417 32.147-9.785 3.572.475 6.439 2.661 7.136 5.441.596 2.378-.471 4.754-2.929 6.52-.145.104-.293.204-.443.3.757.29 1.533.625 2.362 1.016 3.843 1.808 6.844 4.516 8.451 7.625 1.379 2.668 1.27 5.302-.291 7.046-1.277 1.427-3.501 2.105-5.8 1.773a9.863 9.863 0 0 1-1.04-.21c6.448 30.88-4.246 82.045-20.662 95.877a1.957 1.957 0 0 1-1.27.465z" fill="#e0a58f"/><path d="M373.752 134.162c-9.725-7.957-39.985 19.972-44.192 25.587-4.207 5.616 26.939 43.933 35.04 41.829s17.741-60.389 9.152-67.416z" fill="#a63c30"/><path d="M363.995 203.622c-7.913.002-23.525-18.331-30.525-28.764-7.494-11.169-6.722-14.647-5.49-16.292 3.182-4.248 25.831-26.005 39.657-27.688 3.012-.368 5.491.224 7.363 1.756 6.783 5.549 3.808 32.722.339 48.546-3.031 13.824-6.477 21.33-10.244 22.308a4.317 4.317 0 0 1-1.1.134zm-32.826-42.728c-.177.566.226 3.289 4.117 9.513 3.088 4.937 7.544 10.768 12.225 15.997 9.301 10.388 15.119 13.654 16.592 13.264 1.138-.312 4.492-5.691 7.595-20.325 4.266-20.115 4.641-40.514.804-43.654-1.022-.835-2.458-1.128-4.387-.893-11.697 1.424-33.29 21.265-36.946 26.098z" fill="#7d271d"/><path d="M316.098 344.139c-33.042 4.441-69.393 1.946-88.129-3.752-19.348-3.531-53.011-18.069-80.412-37.275-3.79-2.654-7.458-5.4-10.958-8.221-17.994-14.5-31.378-30.928-32.723-46.99-.37-4.314.137-8.606 1.658-12.822 6.073-16.863 79.564-100.639 94.792-110.577 15.227-9.938 45.501-7.338 79.752.966 34.252 8.305 66.354 20.829 75.339 36.637s31.94 122.969 29.616 140.741c-3.178 24.308-34.237 36.628-68.935 41.293z" fill="#e36254"/><path d="M317.134 340.346a70.292 70.292 0 0 1-1.036 3.793c-33.042 4.441-69.393 1.946-88.129-3.752-19.348-3.531-53.011-18.069-80.412-37.275.224-1.234.487-2.464.785-3.691 9.87-40.707 55.658-64.548 102.268-53.247 46.609 11.301 76.393 53.465 66.524 94.172z" fill="#ffe8db"/><circle cx="300.854" cy="241.615" fill="#fff" transform="rotate(-74.4 300.996 241.662)" r="24.895"/><path d="M300.903 268.495c-2.125 0-4.263-.254-6.38-.767-14.398-3.491-23.272-18.046-19.781-32.444 1.691-6.975 5.997-12.874 12.125-16.61 6.127-3.735 13.344-4.861 20.318-3.171 14.398 3.491 23.272 18.045 19.781 32.444-1.691 6.974-5.997 12.873-12.124 16.61-4.268 2.601-9.065 3.938-13.939 3.938zm-.091-49.81c-4.159 0-8.25 1.14-11.891 3.36a22.767 22.767 0 0 0-10.343 14.17c-2.978 12.283 4.592 24.699 16.875 27.677a22.77 22.77 0 0 0 17.333-2.706 22.772 22.772 0 0 0 10.344-14.17v-.001c2.978-12.283-4.592-24.698-16.875-27.677a23.124 23.124 0 0 0-5.443-.653z"/><path d="M311.183 245.303c-1.941 8.004-10.005 12.921-18.009 10.98s-12.921-10.005-10.98-18.009c1.942-8.009 10.006-12.926 18.01-10.985a14.852 14.852 0 0 1 8.463 5.612c-.239.064-.481.137-.721.22-4.294 1.458-7.035 4.83-6.123 7.536.918 2.702 5.149 3.713 9.447 2.256.101-.034.202-.068.299-.108-.055.83-.184 1.666-.386 2.498z"/><circle cx="207.293" cy="218.931" fill="#fff" transform="rotate(-31.9 207.144 218.975)" r="24.895"/><path d="M207.293 245.803a26.83 26.83 0 0 1-6.331-.76c-6.975-1.691-12.874-5.997-16.61-12.125s-4.863-13.344-3.171-20.319c3.491-14.398 18.046-23.274 32.443-19.781 14.398 3.491 23.272 18.045 19.781 32.443-2.977 12.28-14.001 20.542-26.112 20.542zm0-49.797c-10.333 0-19.736 7.047-22.276 17.523a22.769 22.769 0 0 0 2.706 17.334 22.764 22.764 0 0 0 14.17 10.343c12.279 2.977 24.698-4.592 27.677-16.875 2.978-12.283-4.592-24.699-16.875-27.677a22.97 22.97 0 0 0-5.402-.648z"/><path d="M196.422 217.478c-1.941 8.004 2.976 16.068 10.98 18.009s16.069-2.976 18.009-10.98c.202-.833.331-1.668.386-2.497-.101.034-.203.073-.304.107-4.294 1.458-8.524.446-9.442-2.255-.912-2.705 1.825-6.079 6.123-7.536.239-.083.481-.156.721-.22a14.847 14.847 0 0 0-8.463-5.612c-8.004-1.941-16.068 2.976-18.01 10.984zM237.4 248.729l22.379 5.426c2.723.66 3.436 4.2 1.18 5.862l-13.679 10.079a4.34 4.34 0 0 1-6.499-1.64l-7.14-15.111c-1.186-2.507 1.063-5.269 3.759-4.616z"/><g><path d="M247.394 170.606c0 4.303-6.518 7.791-14.557 7.791-8.04 0-14.557-3.489-14.557-7.792s6.518-7.791 14.557-7.791c8.04.001 14.557 3.489 14.557 7.792z" fill="#ffe8db"/><path d="M232.837 180.371c-4.208-.001-8.194-.894-11.225-2.516-3.421-1.832-5.306-4.406-5.305-7.249 0-5.475 7.261-9.764 16.531-9.764 4.208.001 8.194.894 11.225 2.516 3.421 1.831 5.305 4.406 5.305 7.249 0 5.475-7.262 9.764-16.531 9.764zm0-15.583c-7.202 0-12.583 3.071-12.583 5.817 0 1.3 1.174 2.674 3.221 3.769 2.432 1.302 5.844 2.049 9.362 2.049 7.203 0 12.584-3.071 12.584-5.817 0-1.3-1.174-2.674-3.221-3.77-2.433-1.301-5.845-2.048-9.363-2.048z" fill="#e0a58f"/></g><g><path d="M309.766 197.774c-2.508 3.497-9.837 2.533-16.37-2.152s-9.797-11.318-7.289-14.815 9.837-2.533 16.37 2.152c6.533 4.686 9.796 11.319 7.289 14.815z" fill="#ffe8db"/><path d="M304.685 201.827c-3.702 0-8.207-1.565-12.44-4.6-7.532-5.403-10.933-13.12-7.742-17.57 1.657-2.31 4.691-3.301 8.536-2.799 3.409.448 7.169 2.045 10.588 4.497s6.138 5.501 7.656 8.585c1.714 3.483 1.745 6.673.087 8.984-1.399 1.95-3.798 2.903-6.685 2.903zm-13.53-21.15c-1.623 0-2.846.445-3.444 1.28-1.601 2.231.982 7.864 6.835 12.061 5.852 4.196 12.014 4.837 13.616 2.605.757-1.056.604-2.857-.422-4.94-1.217-2.475-3.556-5.071-6.414-7.12-2.858-2.05-6.066-3.432-8.802-3.792a10.756 10.756 0 0 0-1.369-.094zm18.611 17.098h.005z" fill="#e0a58f"/></g><path d="M159.58 233.085c-12.307 18.45-20.233 39.796-22.981 61.806-17.994-14.5-31.378-30.928-32.723-46.99a161.786 161.786 0 0 1 32.504-24.978c5.988-3.492 12.798-6.691 19.613-5.411 2.802.529 5.667 2.041 6.731 4.69 1.475 3.654-.957 7.607-3.144 10.883zM337.802 276.297c2.49 22.038-.241 44.643-7.878 65.468 22.637-4.648 42.058-13.123 50.61-26.785a161.742 161.742 0 0 0-17.454-37.091c-3.724-5.846-8.312-11.81-14.957-13.792-2.733-.813-5.973-.781-8.132 1.086-2.984 2.571-2.633 7.2-2.189 11.114z" fill="#ffe8db"/><g><path d="M280.832 348.392c-21.928 0-41.57-2.529-53.329-6.083-18.531-3.413-52.284-17.397-81.079-37.581a205.142 205.142 0 0 1-11.063-8.301c-20.626-16.62-32.193-33.344-33.451-48.362-.403-4.692.193-9.288 1.769-13.657 6.199-17.213 79.86-101.307 95.569-111.559 14.093-9.198 41.445-8.962 81.296.701 23.923 5.8 65.686 18.396 76.59 37.58 9.566 16.831 32.168 124.306 29.856 141.972-2.875 21.986-27.958 37.254-70.629 42.992h-.001c-11.932 1.605-24.044 2.298-35.528 2.298zm-51.7-228.376c-12.187 0-21.456 2.046-27.727 6.138-14.902 9.725-88.175 93.383-94.013 109.593-1.382 3.829-1.903 7.861-1.549 11.985 1.165 13.92 12.229 29.695 31.994 45.622a201.363 201.363 0 0 0 10.851 8.141c28.39 19.899 61.55 33.651 79.634 36.951.074.014.148.031.22.053 17.468 5.312 53.066 8.283 87.291 3.684 23.594-3.173 63.703-12.534 67.241-39.592 2.182-16.68-20.329-123.595-29.374-139.509-7.537-13.262-33.849-25.938-74.088-35.694-20.261-4.914-37.124-7.372-50.48-7.372zm86.966 224.123h.005z" fill="#a63c30"/></g><g><path d="M239.563 310.819c3.21 1.694 6.731 2.74 10.354 2.847 8.659.257 16.807-4.832 22.226-11.59 1.373-1.713 2.566-3.615 3.627-5.633-13.529-3.184-28.664 2.488-36.207 14.376z" fill="#f22a4e"/><path d="M250.527 315.648c-.224 0-.446-.003-.669-.01-3.79-.112-7.563-1.147-11.216-3.074a1.972 1.972 0 0 1-.745-2.803c7.885-12.427 23.644-18.693 38.325-15.24a1.971 1.971 0 0 1 1.295 2.839c-1.199 2.281-2.453 4.227-3.834 5.949-6.226 7.765-14.836 12.339-23.156 12.339zm-8.022-5.62c2.468 1.032 4.973 1.59 7.47 1.665 7.318.207 15.006-3.841 20.628-10.852a29.656 29.656 0 0 0 2.089-2.978c-11.525-1.697-23.373 3.064-30.187 12.165z"/></g><g><path d="M282.902 277.405c-17.114 12.148-39.716 16.217-59.993 10.802 2.2 6.248 4.797 12.516 9.448 17.232a29.566 29.566 0 0 0 7.206 5.381c7.543-11.888 22.677-17.559 36.206-14.376 3.127-5.945 5.104-12.899 7.133-19.039z" fill="#821629"/><path d="M239.562 312.792a1.96 1.96 0 0 1-.919-.228 31.362 31.362 0 0 1-7.691-5.74c-5.136-5.208-7.805-12.003-9.904-17.962a1.975 1.975 0 0 1 2.371-2.563c19.81 5.293 41.62 1.366 58.34-10.504a1.973 1.973 0 0 1 3.017 2.229c-.353 1.07-.705 2.165-1.062 3.275-1.74 5.412-3.539 11.008-6.197 16.063a1.978 1.978 0 0 1-2.199 1.003c-13.069-3.077-27.087 2.48-34.087 13.512a1.979 1.979 0 0 1-1.669.915zm-13.526-21.81c2.058 5.298 4.328 9.623 7.727 13.07a27.763 27.763 0 0 0 5.19 4.146c7.881-10.971 22.142-16.569 35.74-14.001 1.848-3.802 3.276-7.971 4.615-12.097-15.865 9.467-35.185 12.709-53.272 8.882z"/></g></g><g><path d="M464.284 385.683H52.464a1.974 1.974 0 0 1 0-3.948h411.82a1.974 1.974 0 0 1 0 3.948z" fill="#7d271d"/></g><g><path d="M380.428 373.944c3.34 3.473 4.35 9.845 4.747 13.162.396 3.316.081 6.805-1.495 9.75-1.577 2.944-4.557 5.249-7.89 5.454s-6.816-2.042-7.503-5.31c-1.091 3.486-4.084 6.364-7.661 7.104s-7.575-.806-9.55-3.879c-1.974-3.073-1.649-7.496.902-10.111-2.524 1.388-5.89.836-8.02-1.103-2.129-1.939-3.088-5.081-2.465-7.892 1.895-8.541 7.756-12.5 12.035-13.847 9.257-2.916 21.611 1.172 26.9 6.672z" fill="#a63c30"/><path d="M358.801 406.262c-3.74.001-7.393-1.871-9.385-4.971-1.625-2.529-1.992-5.678-1.193-8.466-2.032-.143-4.049-.948-5.594-2.355-2.644-2.407-3.846-6.246-3.062-9.779 2.455-11.067 10.854-14.511 13.369-15.303 10.101-3.18 23.107 1.149 28.914 7.188 2.747 2.856 4.475 7.532 5.284 14.296.493 4.124-.1 7.899-1.715 10.915-2.018 3.768-5.661 6.255-9.509 6.492-2.931.187-5.734-1.043-7.571-3.062-1.778 2.443-4.395 4.215-7.314 4.819a11 11 0 0 1-2.224.226zm-6.824-18.123a1.972 1.972 0 0 1 1.413 3.352c-1.886 1.933-2.173 5.3-.654 7.666 1.5 2.334 4.651 3.603 7.489 3.013 2.798-.579 5.28-2.894 6.178-5.761a1.975 1.975 0 0 1 3.815.184c.459 2.184 2.958 3.881 5.45 3.746 2.454-.151 4.916-1.884 6.272-4.415 1.555-2.904 1.551-6.271 1.275-8.584-.693-5.798-2.109-9.844-4.209-12.028-4.876-5.071-16.552-8.782-24.885-6.158-2.005.631-8.704 3.391-10.701 12.392-.476 2.143.274 4.557 1.866 6.006 1.557 1.418 4.026 1.776 5.74.833.302-.166.628-.246.951-.246z" fill="#7d271d"/></g><g><path d="M148.738 367.035c7.203 2.294 8.732 6.294 10.75 8.955 2.019 2.66 3.511 5.83 3.64 9.167.128 3.337-1.277 6.832-4.05 8.695-2.772 1.862-6.913 1.684-9.158-.788.821 3.559-.306 7.556-3.017 10.003-2.712 2.447-6.943 3.135-10.2 1.482s-5.213-5.634-4.334-9.179c-1.475 2.473-4.659 3.7-7.477 3.104s-5.233-2.822-6.117-5.563c-2.684-8.327.371-14.706 3.381-18.032 6.512-7.194 19.311-10.159 26.582-7.844z" fill="#a63c30"/><path d="M140.604 407.428c-1.661 0-3.311-.366-4.795-1.119-2.68-1.36-4.589-3.891-5.31-6.701-1.824.904-3.97 1.232-6.016.797-3.499-.74-6.477-3.444-7.587-6.888-3.478-10.789 2.027-18.007 3.797-19.962 7.255-8.015 20.918-10.861 28.644-8.4 6.64 2.115 9.031 5.681 10.777 8.284.329.49.639.953.946 1.358 2.511 3.31 3.908 6.866 4.039 10.285.165 4.271-1.722 8.26-4.922 10.409a9.543 9.543 0 0 1-8.08 1.187c-.298 3.007-1.66 5.858-3.874 7.855-2.099 1.897-4.874 2.895-7.619 2.895zm-8.235-14.031a1.974 1.974 0 0 1 1.916 2.449c-.65 2.622.805 5.672 3.311 6.944 2.473 1.256 5.832.757 7.985-1.187 2.121-1.914 3.091-5.167 2.416-8.094a1.972 1.972 0 0 1 3.384-1.771c1.5 1.651 4.521 1.87 6.596.476 2.041-1.371 3.289-4.111 3.179-6.98-.127-3.291-1.832-6.195-3.24-8.05-.377-.496-.718-1.006-1.08-1.545-1.58-2.355-3.37-5.025-8.698-6.722-6.435-2.049-18.546.688-24.519 7.288-1.411 1.559-5.794 7.327-2.966 16.103.674 2.089 2.541 3.792 4.647 4.238 2.06.435 4.37-.504 5.373-2.185a1.974 1.974 0 0 1 1.696-.964z" fill="#7d271d"/></g></svg>