<svg id="Layer_1" height="512" viewBox="0 0 128 128" width="512" xmlns="http://www.w3.org/2000/svg" data-name="Layer 1"><path d="m43.572 27.751c-2.323-3.4-2.454-7.252-1.021-11.11a13.145 13.145 0 0 1 8.795-7.99c2.544-.676 5.766-.274 7.026 2.036a5.436 5.436 0 0 0 -1.852-5.887 9.2 9.2 0 0 0 -6.2-1.787c-6.966.263-13 5.879-15.126 12.517s-2.017 11.122.815 17.493" fill="#f5d8af"/><path d="m36.01 34.02a1 1 0 0 1 -.914-.6c-2.87-6.456-3.093-11.22-.853-18.2 2.41-7.512 9.006-12.945 16.041-13.21a10.187 10.187 0 0 1 6.87 2.013 6.376 6.376 0 0 1 2.153 7.019 1 1 0 0 1 -1.813.124c-.973-1.786-3.7-2.131-5.891-1.549a12.1 12.1 0 0 0 -8.115 7.372c-1.416 3.813-1.111 7.244.909 10.2a1 1 0 1 1 -1.651 1.128c-2.373-3.47-2.765-7.628-1.133-12.023a14.13 14.13 0 0 1 9.476-8.607 8.4 8.4 0 0 1 6.5.74 4.866 4.866 0 0 0 -1.7-2.856 8.194 8.194 0 0 0 -5.526-1.56c-6.111.23-12.088 5.2-14.212 11.823-2.094 6.529-1.9 10.764.776 16.781a1 1 0 0 1 -.913 1.407z" fill="#4d4d4d"/><path d="m93.742 52.348-29.058-23.455c-3.89-2.511-7.169-4.195-8.991-4.195a30.324 30.324 0 0 0 -12.121 3.053 26.017 26.017 0 0 0 -7.562 5.268 16.218 16.218 0 0 0 -4.254 7.306c-2.738 10.6 3.7 12.427.216 24.834a31.4 31.4 0 0 0 -1.191 8.951s5.514 17.832 7.267 19.6c.935.935 2.491.876 3.88.108a5.528 5.528 0 0 0 2.717-6.479 42.115 42.115 0 0 0 -2.117-4.008 19.554 19.554 0 0 1 -2.412-7.05c-.709-7.543 3.515-14.386 3.515-14.386l5.081 4.667c-.128 1.142-.207 2.226-.256 3.259-.423 8.38 1.369 13.1 3.072 15.657a10.909 10.909 0 0 0 1.1 1.408 12.43 12.43 0 0 1 3.119 5.857 17.566 17.566 0 0 1 .415 4.285c-.177 4.382-2.846 10.3-2.156 11.954 1.4 3.348 8.605 6.025 9.344-4.244.108-1.5 2.154-5.435 2.107-6.764a57.227 57.227 0 0 0 -1.959-13l10.319 1.112s-1.608 7.875-3.281 16.455a54.876 54.876 0 0 0 -.7 18.364 5 5 0 0 0 2.954 3.791c1.842.679 3.988.039 5.209-.1 2.511-.285 2.511-2.511 1.674-10.88s7.827-26.796 13.684-37.952c4.904-9.345 1.606-20.147.385-23.416z" fill="#f5d8af"/><path d="m81.246 72.672c-1.152-.463-2.432.039-3.653.305a9.731 9.731 0 0 1 -5.771-.5c-1.87-.778-3.456-2.117-5.258-3.043s-4.057-1.408-5.809-.384c-1.733 1.015-2.423 3.161-2.679 5.15a25.99 25.99 0 0 0 1.733 12.191 64.027 64.027 0 0 0 5.643 11.255c-.266-8.183-1.95-12.673-1.95-12.673l10.319 1.112s-1.647 7.868-3.281 16.455c0 0 3.754-8.055 5.595-11.433 1.3-2.392 2.974-4.549 4.382-6.873a15.709 15.709 0 0 0 2.639-7.621c.044-1.558-.463-3.36-1.91-3.941z" fill="#f2f2f2"/><path d="m47.875 102.252c-4.234 1.221-5.672.748-5.82-4.175-.039-1.132-.1-2.619-.128-4.264a5.527 5.527 0 0 0 2.718-6.479 42.115 42.115 0 0 0 -2.117-4.008c.414-2.117 1.073-3.86 2.127-4.785 1.772-1.576 3.23-5.219 3.8-8.725-.423 8.38 1.369 13.1 3.072 15.657a46.3 46.3 0 0 0 -2.087 7.818c-.54 4.914 2.679 7.73-1.565 8.961z" fill="#f5d8af"/><path d="m44.84 103.823a3.408 3.408 0 0 1 -2.09-.611c-1.1-.8-1.611-2.332-1.694-5.106l-.02-.574c-.038-1.046-.083-2.318-.109-3.7a1 1 0 0 1 .525-.9 4.534 4.534 0 0 0 2.232-5.326 14.614 14.614 0 0 0 -1-1.937c-.318-.56-.675-1.192-1.037-1.877a1 1 0 0 1 -.1-.66c.507-2.594 1.308-4.343 2.449-5.344 1.477-1.313 2.907-4.66 3.473-8.134a1 1 0 0 1 1.986.211c-.415 8.207 1.351 12.716 2.906 15.052a1 1 0 0 1 .116.872 44.408 44.408 0 0 0 -2.043 7.611 13.235 13.235 0 0 0 .361 4.306c.431 2.1.919 4.471-2.642 5.5a12.505 12.505 0 0 1 -3.313.617zm-1.901-9.453c.025 1.147.063 2.2.095 3.09l.021.582c.06 2.009.346 3.17.873 3.555.655.477 2.3.089 3.67-.306 1.785-.518 1.691-.977 1.238-3.179a15.113 15.113 0 0 1 -.39-4.93 43.181 43.181 0 0 1 1.983-7.572 22.148 22.148 0 0 1 -2.854-9.534 10.249 10.249 0 0 1 -2.255 3.213 7.242 7.242 0 0 0 -1.74 3.884c.3.547.583 1.054.842 1.514a13.259 13.259 0 0 1 1.184 2.371 6.469 6.469 0 0 1 -2.667 7.312z" fill="#4d4d4d"/><path d="m74.7 126a6.458 6.458 0 0 1 -2.252-.37 5.646 5.646 0 0 1 -3.587-4.529 62.78 62.78 0 0 1 1.093-19.583c1.294-6.3 2.314-12.226 2.705-14.555l-7.8-.841c.309 1.22.749 3.188 1.158 5.835.256 1.667.444 5.876.444 6.011a14.19 14.19 0 0 1 -1.214 4.218 20.533 20.533 0 0 0 -.907 2.71c-.835 5-2.576 7.746-5.177 8.166-2.62.425-5.107-1.86-6.037-3.618-.6-1.13-.142-2.929.714-6.012a31.081 31.081 0 0 0 1.327-6.45 16.5 16.5 0 0 0 -.394-4.036 11.458 11.458 0 0 0 -2.873-5.383 12.051 12.051 0 0 1 -1.2-1.536c-1.722-2.587-3.681-7.508-3.238-16.261.046-.979.114-1.905.206-2.813l-3.768-3.462c-1.1 2.16-3.3 7.279-2.789 12.691a18.73 18.73 0 0 0 2.3 6.676c.353.667.7 1.283 1.01 1.829a13.259 13.259 0 0 1 1.184 2.371 6.5 6.5 0 0 1 -3.2 7.635c-1.866 1.033-3.856.925-5.062-.28-1.836-1.847-6.583-16.991-7.516-20.008a.993.993 0 0 1 -.044-.281 32.529 32.529 0 0 1 1.228-9.235 21.869 21.869 0 0 0 .04-13.078 20.848 20.848 0 0 1 -.261-11.736 17.218 17.218 0 0 1 4.506-7.755 26.771 26.771 0 0 1 7.849-5.472 31.171 31.171 0 0 1 12.55-3.15c1.9 0 4.931 1.384 9.533 4.355a1 1 0 1 1 -1.085 1.68c-5.167-3.333-7.443-4.033-8.45-4.033a29.546 29.546 0 0 0 -11.693 2.954 24.767 24.767 0 0 0 -7.271 5.059 15.229 15.229 0 0 0 -4 6.861 18.925 18.925 0 0 0 .264 10.748 23.589 23.589 0 0 1 -.054 14.107 30.536 30.536 0 0 0 -1.156 8.524c2.668 8.613 6 18.058 6.978 19.047.556.557 1.613.532 2.686-.062a4.535 4.535 0 0 0 2.241-5.33 14.614 14.614 0 0 0 -1-1.937c-.318-.56-.675-1.192-1.037-1.877a20.575 20.575 0 0 1 -2.525-7.425c-.732-7.786 3.48-14.714 3.66-15.005a1 1 0 0 1 1.527-.211l5.081 4.668a1 1 0 0 1 .318.847c-.116 1.029-.2 2.075-.251 3.2-.415 8.211 1.351 12.719 2.906 15.055a10 10 0 0 0 1 1.281 13.466 13.466 0 0 1 3.365 6.329 18.541 18.541 0 0 1 .437 4.532 32.46 32.46 0 0 1 -1.4 6.907c-.471 1.694-1.116 4.014-.873 4.544.64 1.211 2.428 2.824 3.948 2.577 1.614-.261 2.866-2.577 3.525-6.521a19.9 19.9 0 0 1 1.007-3.087 17.145 17.145 0 0 0 1.086-3.485c-.006-.238-.193-4.251-.422-5.737a50.92 50.92 0 0 0 -1.49-6.985 1 1 0 0 1 1.059-1.3l10.32 1.112a1 1 0 0 1 .88 1.154c-.013.075-1.227 7.564-2.893 15.678a61.843 61.843 0 0 0 -1.093 18.78 3.7 3.7 0 0 0 2.272 3.037 7.614 7.614 0 0 0 3.848.01c.353-.061.675-.116.951-.147 1.4-.159 1.637-1.328.791-9.788-.895-8.964 8.254-27.979 13.787-38.514 4.756-9.062 1.457-19.59.333-22.6a1 1 0 1 1 1.874-.7c1.2 3.207 4.7 14.433-.436 24.23-4.371 8.323-14.443 28.626-13.568 37.385.793 7.932 1.156 11.553-2.556 11.974-.243.027-.525.077-.835.13a14.942 14.942 0 0 1 -2.584.281z" fill="#4d4d4d"/><path d="m86.353 30.715c-3.793-2.878-10.076-2.878-10.076-2.878h-5.17s-6.283 0-10.077 2.878-5.69 12.885-4.149 18.395 5.431 9.226 7.091 11.979c.536.89.492 2.423.513 4.091h18.415c.021-1.668-.024-3.2.512-4.091 1.66-2.753 5.55-6.473 7.092-11.979s-.357-15.517-4.151-18.395z" fill="#f1d7ad"/><path d="m83.411 62.089a1 1 0 0 1 -.856-1.516 33.07 33.07 0 0 1 1.937-2.723c1.782-2.349 4-5.271 5.048-9.01 1.527-5.459-.527-14.852-3.791-17.329-3.474-2.635-9.413-2.674-9.473-2.674h-5.17c-.059 0-6 .039-9.471 2.675-3.264 2.476-5.319 11.869-3.791 17.328 1.046 3.739 3.265 6.661 5.048 9.009a33.245 33.245 0 0 1 1.937 2.724 1 1 0 1 1 -1.713 1.032c-.45-.746-1.084-1.58-1.817-2.546a28.671 28.671 0 0 1 -5.381-9.68c-1.618-5.779.282-16.252 4.508-19.461 4.015-3.046 10.41-3.081 10.68-3.081h5.171c.27 0 6.665.035 10.681 3.081 4.229 3.209 6.125 13.684 4.507 19.461a28.678 28.678 0 0 1 -5.38 9.68c-.733.966-1.367 1.8-1.817 2.546a1 1 0 0 1 -.857.484z" fill="#4d4d4d"/><path d="m83.478 31.923a1.8 1.8 0 0 1 2.5-2.217 23.6 23.6 0 0 1 6.831 4.82c4.81 4.955 5.772 11.66 2.473 15.137s-.687 7.63-3.435 9.773-4.947-7.252-4.673-13.068c.179-3.789-2.092-10.34-3.696-14.445z" fill="#f5d8af"/><path d="m91.047 60.75a2.135 2.135 0 0 1 -.987-.25c-2.919-1.512-4.081-10.035-3.885-14.179a21.729 21.729 0 0 0 -.985-6.221 1 1 0 1 1 1.93-.525 23.592 23.592 0 0 1 1.053 6.838c-.241 5.115 1.441 11.6 2.807 12.308.056.028.091.048.252-.077.915-.714 1.016-1.721 1.116-3.439.107-1.852.24-4.157 2.209-6.232 2.965-3.128 1.86-9.3-2.466-13.754a22.381 22.381 0 0 0 -6.541-4.609 2.3 2.3 0 0 0 -1.068-.166 1.035 1.035 0 0 1 -1.253-.645.964.964 0 0 1 .558-1.23 3.911 3.911 0 0 1 2.618.232 24.371 24.371 0 0 1 7.121 5.029c5.148 5.3 6.239 12.56 2.482 16.522-1.466 1.545-1.562 3.209-1.664 4.971s-.208 3.595-1.883 4.9a2.291 2.291 0 0 1 -1.414.527z" fill="#4d4d4d"/><path d="m63.906 31.923a1.8 1.8 0 0 0 -2.5-2.217 23.583 23.583 0 0 0 -6.831 4.82c-4.81 4.955-5.772 11.66-2.474 15.137s.687 7.63 3.436 9.773 4.947-7.252 4.672-13.068c-.179-3.789 2.091-10.34 3.697-14.445z" fill="#f5d8af"/><g fill="#4d4d4d"><path d="m56.336 60.75a2.293 2.293 0 0 1 -1.414-.526c-1.675-1.306-1.78-3.133-1.883-4.9s-.2-3.426-1.664-4.971c-3.756-3.962-2.666-11.219 2.482-16.522a24.363 24.363 0 0 1 7.122-5.031 3.744 3.744 0 0 1 2.551-.271 1 1 0 0 1 -.694 1.876 2.19 2.19 0 0 0 -1 .2 22.394 22.394 0 0 0 -6.541 4.612c-4.325 4.456-5.431 10.626-2.465 13.754 1.969 2.075 2.1 4.38 2.209 6.232.1 1.718.2 2.725 1.115 3.439.161.125.2.105.252.077 1.367-.708 3.049-7.193 2.807-12.308a23.546 23.546 0 0 1 1.054-6.838 1 1 0 1 1 1.929.525 21.751 21.751 0 0 0 -.985 6.218c.2 4.145-.966 12.667-3.885 14.179a2.135 2.135 0 0 1 -.99.255z"/><path d="m81.589 45.39a1 1 0 0 1 -.162-.013 9.285 9.285 0 0 0 -3.053-.154 1.01 1.01 0 0 1 -1.2-.729.992.992 0 0 1 .7-1.206 9.993 9.993 0 0 1 3.882.115 1 1 0 0 1 -.161 1.987z"/><path d="m65.794 45.39a1 1 0 0 1 -.16-1.987 9.992 9.992 0 0 1 3.882-.115 1 1 0 0 1 -.508 1.935 9.4 9.4 0 0 0 -3.052.154 1 1 0 0 1 -.162.013z"/></g><path d="m81.329 56.107c-.528-1.454-2.014-2.285-3.12-3.367a8.2 8.2 0 0 1 -2.223-4.35c-.1-.609.183-1.846-.077-2.359-.284-.561-1.063-.554-1.7-.579-.123 0-1.338 0-1.618.019-.52.031-1.038.124-1.259.56-.259.513.022 1.75-.076 2.359a8.209 8.209 0 0 1 -2.223 4.35c-1.106 1.082-2.592 1.913-3.12 3.367a4.24 4.24 0 0 0 1.222 4.255 12.472 12.472 0 0 0 3.982 2.389c.458.2 3.1 1.07 5.011 0a16.627 16.627 0 0 0 3.981-2.389 4.243 4.243 0 0 0 1.22-4.255z" fill="#f2f2f2"/><path d="m66.281 59.011c.824.945 3.49 4.184 3.582 6.651.11 2.917.62 4.952 3.829 4.952s3.719-2.035 3.828-4.952c.093-2.467 2.759-5.706 3.582-6.651-2.202 2.405-12.614 2.405-14.821 0z" fill="#f8c7c1"/><path d="m73.692 71.614c-4.606 0-4.751-3.848-4.828-5.915-.064-1.699-1.764-4.229-3.336-6.031a1 1 0 0 1 1.49-1.333c.8.872 3.544 1.48 6.673 1.48s5.875-.608 6.674-1.48a1 1 0 0 1 1.491 1.333c-1.571 1.803-3.273 4.332-3.336 6.032-.078 2.066-.22 5.914-4.828 5.914zm-4.392-10.208a9.333 9.333 0 0 1 1.56 4.218c.117 3.132.725 3.99 2.829 3.99s2.711-.858 2.829-3.99a9.312 9.312 0 0 1 1.561-4.218 23.759 23.759 0 0 1 -8.779 0z" fill="#4d4d4d"/><path d="m74.452 53.563h-1.52c-1.937 0-3.052 1.772-1.909 3.031l.76.836a2.725 2.725 0 0 0 3.817 0l.76-.836c1.14-1.259.028-3.031-1.908-3.031z" fill="#4d4d4d"/><path d="m73.691 59.21a3.564 3.564 0 0 1 -2.648-1.11l-.76-.837a2.573 2.573 0 0 1 -.5-2.836 3.364 3.364 0 0 1 3.145-1.867h1.52a3.367 3.367 0 0 1 3.152 1.869 2.577 2.577 0 0 1 -.5 2.837l-.761.837a3.563 3.563 0 0 1 -2.648 1.107zm-.759-4.647a1.394 1.394 0 0 0 -1.317.676.591.591 0 0 0 .149.682l.759.837a1.819 1.819 0 0 0 2.337 0l.76-.837a.591.591 0 0 0 .148-.682 1.393 1.393 0 0 0 -1.316-.676z" fill="#4d4d4d"/></svg>