<svg height="512" viewBox="0 0 333.832 333.832" width="512" xmlns="http://www.w3.org/2000/svg"><circle cx="169.046" cy="170.517" fill="#d0df92" r="134.02"/><g fill="#740806"><path d="M209.116 305.591c11.7-2.4 29.8-4 32.8-4 .9 0 1.8.1 2.6.5 1.4-3.5 4.9-6 8.9-6 1 0 2 .1 2.9.5 2.4-3.6 6.4-6 11.1-6 7.3 0 13.2 5.9 13.2 13.2 0 .7-.1 1.4-.1 2h-71.4zM78.016 323.191c11.7-2.4 29.8-4 32.8-4 .9 0 1.8.1 2.6.5 1.4-3.5 4.9-6 8.9-6 1 0 2 .1 2.9.5 2.4-3.6 6.4-6 11.1-6 7.3 0 13.2 5.9 13.2 13.2 0 .7-.1 1.4-.1 2h-71.4z"/></g><path d="M162.816 250.091c-14.1 31.1-27.1 1-41.2 5.9l-20 40c14.8 9.7 30.8-4.7 30.8-4.7 7.1 10.2 15.6 14.1 24.4 14.1 25.4-.1 88.3-53.1 76.5-68.2-12.8-16.5-54-23.5-70.5 12.9z" fill="#f28a1c"/><path d="M201.716 223.791c13.1 0 25.5 5.7 31.6 13.5 11.8 15.1-51.1 68.1-76.5 68.2-8.8 0-17.3-4-24.3-14.1 0 0-9 8-19.7 8-3.6 0-7.4-.9-11.2-3.3l20-40c1.1-.4 2.2-.6 3.3-.6 7.9 0 15.6 8.9 23.3 8.9 4.8 0 9.6-3.4 14.5-14.3 8.8-19.2 24.4-26.3 39-26.3m0-3c-18.4 0-33.6 10.2-41.7 28.1-5.7 12.5-10.3 12.5-11.8 12.5-3 0-6.4-1.9-10-4-4.2-2.4-8.5-4.9-13.3-4.9-1.5 0-2.9.2-4.3.7l-1.1.4-.5 1.1-20 40-1.2 2.4 2.2 1.5c3.9 2.5 8.2 3.8 12.8 3.8 8.3 0 15.4-4.2 19.1-6.8 6.8 8.5 15.1 12.9 24.9 12.9h.1c10.1 0 26.3-7.8 43.5-20.6 16.5-12.4 29.9-26.6 35-37 3.1-6.5 3.3-11.7.3-15.4-6.9-9-20.3-14.7-34-14.7z" fill="#740806"/><path d="M156.428 242.581c1.275 3.974 1.288 8.106.417 11.923-.651 2.872-1.782 5.596-3.259 8.134-2.221 3.808-5.218 7.217-8.768 10.106a41.302 41.302 0 0 1-12.189 6.856c-4.513 1.602-9.442 2.439-14.541 2.174a35.312 35.312 0 0 1-11.542-2.583c-5.729-2.332-11.198-6.312-15.962-11.981-4.772-5.674-8.873-13.012-12.146-22.23-2.481-6.993-4.489-15.077-5.938-24.406-.644-4.146-1.557-7.735-2.646-10.807-1.47-4.143-3.259-7.338-5.144-9.751-2.843-3.62-5.843-5.509-8.719-6.398-2.88-.875-5.727-.751-8.352.174a13.91 13.91 0 0 0-6.1 4.316c-1.646 2.019-2.833 4.56-3.275 7.663a7 7 0 1 1-13.863-1.955c.785-5.592 3.043-10.595 6.304-14.573a27.908 27.908 0 0 1 12.253-8.645 27.204 27.204 0 0 1 11.299-1.484c5.84.459 11.75 2.889 16.767 7.278 5.032 4.386 9.169 10.64 12.024 18.693 1.415 3.988 2.522 8.425 3.286 13.34 1.335 8.601 3.158 15.846 5.298 21.872 2.508 7.069 5.446 12.453 8.51 16.459 2.299 3.006 4.662 5.242 7.011 6.895 3.527 2.47 7.02 3.671 10.504 4.051 3.479.372 6.981-.12 10.291-1.294a27.316 27.316 0 0 0 7.246-3.906c3.246-2.431 5.736-5.491 7.045-8.346.662-1.427 1.037-2.788 1.162-4.005.123-1.223.015-2.292-.307-3.305a7 7 0 0 1 13.334-4.265z" fill="#fbb807"/><path d="M24.401 203.815c.785-5.592 3.043-10.595 6.304-14.573a27.908 27.908 0 0 1 12.253-8.645 27.204 27.204 0 0 1 11.299-1.484c5.84.459 11.75 2.889 16.767 7.278l.084.078c-3.503 3.077-6.655 6.545-9.454 10.337-1.889-1.61-3.802-2.615-5.662-3.19-2.88-.875-5.727-.751-8.352.174a13.91 13.91 0 0 0-6.1 4.316c-1.646 2.019-2.833 4.56-3.275 7.663a7 7 0 0 1-13.864-1.954z" fill="#fffcc8"/><path d="M52.07 179.025c.727 0 1.455.029 2.187.088 5.84.459 11.75 2.889 16.767 7.278 5.032 4.386 9.169 10.64 12.024 18.693 1.415 3.988 2.522 8.425 3.286 13.34 1.335 8.601 3.158 15.846 5.298 21.872 2.508 7.069 5.446 12.453 8.51 16.459 2.299 3.006 4.663 5.242 7.011 6.895 3.527 2.47 7.02 3.671 10.504 4.051.767.082 1.534.122 2.3.122 2.713 0 5.41-.501 7.991-1.416a27.316 27.316 0 0 0 7.246-3.906c3.246-2.431 5.736-5.491 7.045-8.346.662-1.427 1.037-2.788 1.162-4.005.123-1.223.015-2.292-.307-3.305a7 7 0 0 1 13.334-4.265c1.275 3.974 1.288 8.106.417 11.923-.651 2.872-1.782 5.596-3.259 8.134-2.221 3.808-5.218 7.217-8.768 10.106a41.302 41.302 0 0 1-12.189 6.856c-3.959 1.405-8.239 2.223-12.673 2.223a35.312 35.312 0 0 1-13.41-2.632c-5.729-2.332-11.198-6.312-15.962-11.981-4.772-5.674-8.873-13.012-12.146-22.23-2.481-6.993-4.489-15.077-5.938-24.406-.644-4.146-1.557-7.735-2.646-10.807-1.47-4.143-3.259-7.338-5.144-9.751-2.843-3.62-5.843-5.509-8.719-6.398a13.438 13.438 0 0 0-3.924-.593c-1.521 0-3.007.266-4.428.767a13.91 13.91 0 0 0-6.1 4.316c-1.646 2.019-2.833 4.56-3.275 7.663a7 7 0 0 1-13.863-1.955c.785-5.592 3.043-10.595 6.304-14.573a27.908 27.908 0 0 1 12.253-8.645 27.239 27.239 0 0 1 9.112-1.572m-10.116-1.255a30.9 30.9 0 0 0-13.569 9.57c-3.71 4.527-6.115 10.08-6.954 16.056-.77 5.46 3.046 10.528 8.506 11.299a10.2 10.2 0 0 0 1.405.099c4.949 0 9.202-3.699 9.894-8.601.339-2.383 1.224-4.466 2.627-6.187a10.898 10.898 0 0 1 4.774-3.386 10.295 10.295 0 0 1 3.431-.596c1.014 0 2.041.156 3.038.459 2.681.829 5.051 2.59 7.24 5.379 1.848 2.365 3.423 5.362 4.681 8.908 1.08 3.044 1.925 6.497 2.509 10.264 1.436 9.237 3.479 17.632 6.076 24.949 3.295 9.284 7.561 17.075 12.676 23.157 4.963 5.907 10.726 10.224 17.124 12.829a38.288 38.288 0 0 0 14.545 2.855c4.598 0 9.198-.806 13.677-2.396a44.131 44.131 0 0 0 13.079-7.357c3.911-3.183 7.096-6.857 9.467-10.924 1.691-2.907 2.899-5.928 3.591-8.976 1.047-4.586.879-9.257-.484-13.503a9.965 9.965 0 0 0-9.523-6.956c-1.032 0-2.057.16-3.047.477-5.252 1.68-8.158 7.318-6.481 12.564.204.641.262 1.307.183 2.092-.096.933-.407 1.987-.904 3.061-1.16 2.529-3.39 5.152-6.123 7.199a24.433 24.433 0 0 1-6.444 3.476c-2.326.825-4.678 1.243-6.988 1.243-.663 0-1.33-.035-1.974-.104-3.247-.354-6.227-1.508-9.104-3.522-2.246-1.58-4.384-3.688-6.354-6.264-3.116-4.074-5.829-9.335-8.065-15.639-2.182-6.146-3.918-13.321-5.16-21.33-.776-4.997-1.929-9.668-3.424-13.882-2.971-8.379-7.305-15.092-12.876-19.949-5.386-4.712-11.785-7.482-18.5-8.011a30.156 30.156 0 0 0-12.549 1.647z" fill="#740806"/><path d="M252.716 234.691c-2.4-11.2-8-18-15.3-21.6-1.2-11.9-3.8-21.5-7.2-29.3 2.1-.1 4.1-.2 6.1-.4 36.8-3.1 44.9-33.1 44.9-33.1-.2-.3 14.8-13.5 1.2-31.5-8.1-10.8-32.8-6.1-36.2-1.4-3.4 4.6-1.3 12.8-1.3 12.8-8.8 13.4-3.6 13.2-1.5 14.8 2.1 1.5-32.4-.7-32.4-.7-4.3 1.4-58.8 11.7-58.8 11.7-95.5-2.1-82.3 67-62.5 74.7 6.5 2.5 19.5 4 26-8.3 1.8-3.5-1-6-1-6s5-5.8-5.4-11l23.6-5.3 2.9 37.7c.4 3.5 1.6 6.6 3.5 9.5 4.9 15.4 11.6 19.2 24.6 21.3 23 3.7 38.6-7.5 59.3-15 6.4-2.3 5.7.4 5.7.4 7.4 4.1 11.1 16.9 20.3 17.4l33.9-29.2c-10.1-14.6-30.4-7.5-30.4-7.5z" fill="#fbb807"/><g fill="#f28a1c"><path d="M91.516 226.091s-9.9-12.4-9-24.2c3.1-39.3 47.9-38.1 64.9-42.7.2-1.1.5-2.2.9-3.2-91.2-.2-78.1 67.2-58.5 74.7 5.5 2.1 15.5 3.5 22.4-3.4-2.9 1-20.7-1.2-20.7-1.2zM282.416 118.891c-1.8-2.3-4.3-3.9-7.3-5 15.5 17.8-4 29.3-4 29.3-4.2 32.9-36.8 31.8-36.8 31.8-8.9-11.9-18.6-13.1-18.6-13.1s10 11 15.7 22c1.7-.1 3.3-.2 4.9-.3 36.8-3.1 44.9-33.1 44.9-33.1-.2-.5 14.8-13.7 1.2-31.6zM245.116 233.991s-59.9 35.2-86.2 22.3c-10.8-5.3-15.3-29.9-15.3-29.9s-5.6-35.6-6.4-45.1c-4.2 9.5-4.2 18.7-4.2 18.7l2.8 37.8c.4 3.5 1.6 6.6 3.5 9.5 4.9 15.4 11.6 19.2 24.6 21.3 23 3.7 38.6-7.5 59.3-15 6.4-2.3 5.7.4 5.7.4 7.4 4.1 11.1 16.9 20.3 17.4l10.3-8.9-21.5-20.9z"/></g><path d="M182.316 152.391c-13.5 1.5-25.4 7-22.7 30.4l3.9 40.6c17.5-7.6 40.7-13.2 57.4-13.3-4-36.1-22.8-59.4-38.6-57.7z" fill="#fffcc8"/><path d="M263.816 229.991c-3.6 0-6.7.5-8.9 1-2.6-9.1-7.5-15.8-14.7-19.8-.8-7.3-2.2-14-4.1-20.1-.4-1.4-.9-2.9-1.4-4.2 0-.1-.1-.2-.1-.2.7 0 1.4-.1 2-.1 20-1.7 31.9-11.1 38.3-18.8 6-7.2 8.5-14 9.1-16v-.1c9.2-10.9 9.4-23.1.8-34.6-3.8-5-10.9-7.7-19.9-7.7-8.1 0-18.1 2.4-21.1 6.3-3.4 4.5-2.6 11.1-2.1 14-3.8 6-5.2 9.9-4.6 12.8-9.3-.1-25.7-1.2-25.9-1.2h-.6l-.6.2c-3 1-36.3 7.4-58.1 11.5h-4c-23.2 0-41.6 4.3-54.7 12.8-13.7 9-18.4 20.6-20 28.8-3.4 18.1 5.4 35 15.4 38.8 1.9.7 5.7 1.9 10.3 1.9 8.5 0 15.4-4.1 19.4-11.6 1.6-3 1-5.8-.1-7.6.5-1.2.9-2.9.5-4.9-.3-1.6-1.1-3.1-2.3-4.4l13.8-3.1 2.5 34.3v.2c.5 3.6 1.7 7.1 3.7 10.4 5.4 16.6 13.3 20.8 26.8 23 3.2.5 6.4.8 9.5.8 13.7 0 25-4.9 36.9-10 4.6-2 9.4-4 14.4-5.9.8-.3 1.4-.5 1.8-.6l1.4.8c2.5 1.4 4.6 4.2 6.9 7.2 3.7 4.8 7.8 10.2 14.7 10.6l1.2.1.9-.8 33.9-29.2 2-1.8-1.5-2.2c-4.5-7-12-10.6-21.5-10.6zm-14.6 41.5c-9.2-.5-12.9-13.3-20.3-17.4 0 0 .3-1.3-1.7-1.3-.9 0-2.1.2-4 .9-17.9 6.5-32 15.7-50.3 15.7-2.9 0-5.9-.2-9.1-.7-13-2.1-19.6-5.9-24.6-21.3-1.8-2.9-3-6-3.5-9.5l-2.1-27.7h.2c-1.2-16.9 3.5-29.7 3.5-29.7-4.1 6.4-6.1 13.1-6.6 20.1l-17.4 3.9c.3-6.4-.7-12.8-3.5-19.2 0 0 1.7 8.3.6 19.9l-1 .2c10.4 5.1 5.4 11 5.4 11s2.8 2.6 1 6c-4.1 7.7-10.7 10-16.7 10-3.5 0-6.8-.8-9.2-1.7-19.6-7.5-32.7-74.7 58.2-74.7h4.3s54.5-10.3 58.8-11.7c0 0 19.2 1.2 28.1 1.2 3 0 4.9-.1 4.3-.5-2.1-1.5-7-1.3.8-13.7l.1.3c.2-.1 4.4-1.8 8.9-1.8 1.7 0 3.4.2 5 .8s3 1.5 4.3 3.1c1.4 1.7 1.8 3 1.8 3.9 0 .8-.3 1.4-.8 2.1-.7.9-2 1.8-3 2.3-.5.3-1 .5-1.4.6-.2.1-.3.1-.4.1h-.1s2.7 2.4 4.6 1.2c1-.6 1.9-1.4 2.7-2.4 0-.1.1-.1.1-.2 1.1.4 2.9.8 5 .8 1.1 0 2.3-.1 3.4-.5 1.7-.6 3.5-1.8 4.6-3.8.3-.5.6-1.1.8-1.7.2.4.4.7.7 1 .2.2.4.4.7.6s.6.3 1 .4l.4-2.6.2-.3s-.2-.2-.3-.5c-.3-.5-.5-1.2-.8-2.1-.3-1.3-.6-2.7-.7-3.8-.1-.6-.1-1-.2-1.4v-.5l-3 .2c.1.8.1 1.6.1 2.3 0 2.2-.3 3.9-.7 5.2-.6 1.9-1.6 3-2.6 3.6-1.1.6-2.3.9-3.6.9s-2.6-.3-3.5-.5c-.1 0-.2-.1-.3-.1 0-.3.1-.6.1-.9 0-1.8-.8-3.8-2.5-5.8-1.5-1.8-3.2-3-5.1-3.8l-1-9.3c-5.8.4-2.1 8.4-2.1 8.4-1.1-.2-2.3-.3-3.4-.3-3.7 0-7 .9-8.7 1.5-.4-2.7-.8-7.7 1.6-11 1.9-2.6 10.2-5.1 18.7-5.1 6.9 0 13.9 1.7 17.5 6.6 13.6 17.9-1.4 31.1-1.2 31.5 0 0-8.1 30.1-44.9 33.1-1 .1-2 .2-3 .2-3-6.4-7.3-12-13.5-16.4 0 0 6.8 7.7 11.9 20.3 2.4 6.5 4.3 14.1 5.4 23.1-5-1.3-10.3-1.9-15.9-1.9-13.6 0-32.8 4.5-44 7.8s-15 8.6-15 8.6 10.7-4 21.5-7.1c10.9-3.1 24.7-6.2 37.4-6.2 7.1 0 13.8.9 19.5 3.3 5.7 3.9 10 10.2 12 19.6 0 0 4.9-1.7 11.1-1.7 6.4 0 14.1 1.8 19.2 9.2z" fill="#740806"/><g><path d="M103.142 97.178c-31.12-17.999-19.42-47.75-19.42-47.75l38.021 9.72c18.706-14.364 37.256-16.316 51.241-14.617l27.253-29.04s25.938 18.885 9.165 50.884c11.248 13.331 25.935 31.672 25.654 36.241-.214 3.485-2.338 4.684-5.072 3.891 1.58 3.459 2.339 7.031 1.078 10.003-1.226 2.888-3.288 3.519-5.372 2.415-6.591 19.243-42.88 43.83-42.88 43.83s-47.337 3.366-65.404-11.586c-1.218 1.283-3.024 1.438-5.182-.047-2.66-1.83-3.938-5.25-4.462-9.018-1.882 2.138-4.317 2.268-6.368-.558-1.931-2.658-.06-26.059 1.748-44.368z" fill="#fbb807"/><path d="M116.117 116.225c-4.752-37.152 8.455-54.008 8.455-54.008s2.753-2.134 6.249-4.895l21.059 9.749s-5.587-12.243-12.822-16.353a2.86 2.86 0 0 0 .057-.047c-5.383 2.266-10.905 5.406-16.457 9.666l-.579.444-37.377-9.556a34.38 34.38 0 0 0-.596 2.24 40.885 40.885 0 0 0-1.039 9.122c.001 4.923.917 10.749 3.957 16.579 3.043 5.829 8.206 11.697 16.87 16.713l.837.484-.095.962c-1.136 11.496-2.292 25.013-2.515 34.039 1.779-4.565 5.73-10.048 13.996-15.139z" fill="#f28a1c"/><path d="M177.432 97.126s-8.032-22.905-18.185-19.948c-10.152 2.956-4.175 26.419-4.175 26.419-18.521 2.993-30.823 7.62-38.956 12.629-17.495 10.775-15.672 23.312-14.812 25.159.031.067.062.125.09.163 2.051 2.825 4.486 2.695 6.368.558.523 3.768 1.802 7.188 4.462 9.018 2.157 1.485 3.964 1.33 5.182.047 21.987 18.662 65.404 11.586 65.404 11.586s29.196-11.288 42.88-43.83c2.084 1.104 4.146.473 5.372-2.415 1.261-2.972.502-6.544-1.078-10.003 2.734.793 4.858-.405 5.072-3.891.454-7.389-20.249-21.204-57.624-5.492z" fill="#fffcc8"/><path d="M113.727 117.788s-4.484 5.881-3.873 10.528c.86 6.538 7.157 1.628 7.157 1.628-3.878 17.279 7.023 13.918 7.023 13.918 24.387 19.998 57.139 14.543 57.139 14.543s23.257-9.372 43.829-37.932c-13.944 31.34-42.191 42.281-42.191 42.281s-43.417 7.076-65.404-11.586c-1.218 1.283-3.024 1.438-5.182-.047-2.66-1.83-3.938-5.25-4.462-9.018-1.882 2.138-4.317 2.268-6.368-.558-.755-1.038-3.171-12.968 12.332-23.757z" fill="#e5ba97"/><g fill="#740806"><path d="M143.596 74.206c-7.317-3.401-16.298-1.622-21.289 5.99a24.565 24.565 0 0 0-2.613 5.281c-.313.888-1.498.57-1.489-.399.056-5.717 1.448-14.406 8.853-17.915 6.788-3.218 13.363 1.575 17.308 5.573.656.667.043 1.848-.77 1.47zM190.331 63.259a20.649 20.649 0 0 0-4.436-2.281c-7.151-2.622-13.655 1.002-16.364 7.351-.302.706-1.311.212-1.26-.612.305-4.938 1.813-11.858 7.729-13.286 6.452-1.558 11.952 3.77 15.039 7.742.524.672-.041 1.538-.708 1.086zM153.491 147.348s6.449 9.29 23.322 4.375c16.873-4.914 19.665-13.42 19.665-13.42l-3.646-.619-1.995-11.651 3.25-2.138c2.176-1.622 4.01-3.361 5.38-5.196 1.319-1.771 2.233-3.652 2.507-5.617a8.031 8.031 0 0 0-.229-3.385 8.172 8.172 0 0 0-1.062-2.233c3.217-1.133 5.904-2.821 5.002-3.631-5.828 2.096-10.21 2.331-12.21 2.299-1.068-.018-1.472 1.41-.537 1.929.834.462 2.198.629 3.736.418l.085-.015.086.114c.734.736 1.14 1.445 1.352 2.152.169.58.21 1.184.121 1.845-.092.655-.324 1.377-.704 2.142-.76 1.529-2.14 3.221-4.031 4.855-2.063 1.799-4.592 3.844-7.778 5.042-8.278 3.111-10.546-1.223-10.546-1.223s-3.227-7.698-3.977-7.542c-.737.153.187 8.718.187 8.718s1.277 4.272-7.6 5.743c-4.085.677-8.057.282-11.284-.209-2.154-.327-3.992-.845-5.352-1.506-.771-.379-2.632-2.19-2.794-2.72-.171-.611-.183-1.358.141-2.382.038-.117.062-.235.076-.354 1.391-.706 2.436-1.602 2.905-2.466.577-1.061-.674-2.177-1.683-1.512-.773.511-1.966 1.223-3.565 1.99-.173.05-.334.132-.486.229-2.248 1.039-5.234 2.152-8.981 2.997-.396 1.417 3.766 1.29 7.8.222a6.922 6.922 0 0 0 .247 2.307c.354 1.218 1.057 2.283 1.962 3.142.897.861 1.992 1.537 3.223 2.082 1.291.571 2.738 1.008 4.311 1.331z"/><path d="M125.17 102.472c-2.761-10.642 1.562-20.974 9.66-23.071 8.095-2.101 16.894 4.824 19.657 15.465.368 1.417.606 2.828.73 4.215a24.238 24.238 0 0 0-.396-1.81c-2.544-9.796-10.643-16.169-18.093-14.236-7.454 1.933-11.433 11.442-8.892 21.236 1.694 6.533 5.869 11.527 10.67 13.566-3.316-.921-6.452-3.153-8.932-6.32-1.954-2.498-3.502-5.572-4.404-9.045z"/></g><path d="M127.837 104.27c-2.541-9.794 1.438-19.304 8.892-21.236 7.45-1.933 15.549 4.44 18.093 14.236.157.604.288 1.208.396 1.81.861 4.805.175 9.425-1.685 12.994-1.674 3.211-4.294 5.571-7.605 6.432-2.479.642-5.026.348-7.421-.669-4.801-2.039-8.976-7.033-10.67-13.567z" fill="#fff"/><path d="M133.187 103.879c-1.838-7.005.602-13.691 5.45-14.933 4.847-1.242 10.265 3.43 12.104 10.435.113.433.21.864.291 1.293.649 3.43.281 6.7-.874 9.203-1.039 2.253-2.715 3.883-4.868 4.437-1.613.412-3.287.158-4.874-.606-3.181-1.534-6.004-5.156-7.229-9.829z" fill="#bccf00"/><path d="M136.265 103.09c-1.193-4.548.391-8.89 3.539-9.695 3.146-.807 6.665 2.227 7.859 6.774.073.281.136.562.188.84.422 2.227.183 4.351-.567 5.976-.675 1.463-1.763 2.521-3.161 2.881-1.047.268-2.134.103-3.164-.395-2.065-.996-3.898-3.347-4.694-6.381z" fill="#740806"/><path d="M139.534 93.449c.172.308.32.633.41.992a4.103 4.103 0 0 1-2.979 4.98c-.36.091-.719.113-1.073.107a4.105 4.105 0 0 1-3.213-1.629 4.102 4.102 0 0 1 2.261-6.431l.024-.009c1.84-.46 3.687.409 4.57 1.99zM188.977 106.361a8.808 8.808 0 0 0 1.297-.227c1.404-.353 2.661-1.044 3.764-1.982 4.316-3.672 6.164-11.34 4.156-19.338-2.523-10.041-10.162-16.778-17.056-15.046-6.538 1.643-10.055 10.307-8.256 19.758.099.52.204 1.04.336 1.563 2.366 9.417 9.227 15.926 15.759 15.272z" fill="#fff"/><path d="M198.193 84.814c-2.523-10.041-10.162-16.778-17.056-15.046-6.538 1.643-10.055 10.307-8.256 19.758l-.059-.204c-2.704-10.766 1.097-21 8.489-22.858 7.396-1.858 15.581 5.366 18.287 16.131 1.431 5.694 1.027 11.226-.751 15.462-1.104 2.63-2.738 4.752-4.812 6.095 4.319-3.672 6.166-11.34 4.158-19.338z" fill="#740806"/><path d="M175.11 91.924c-1.923-7.331.63-14.33 5.705-15.629 5.072-1.301 10.744 3.589 12.669 10.921.119.453.22.904.305 1.354.68 3.589.294 7.013-.915 9.633-1.088 2.357-2.841 4.064-5.096 4.643-1.688.433-3.44.166-5.101-.635-3.328-1.606-6.283-5.397-7.567-10.287z" fill="#bccf00"/><path d="M178.333 91.098c-1.249-4.76.408-9.304 3.703-10.147 3.294-.844 6.977 2.331 8.227 7.091.077.294.143.588.198.879.44 2.331.19 4.554-.595 6.255-.706 1.53-1.845 2.639-3.309 3.015-1.096.28-2.233.107-3.312-.412-2.161-1.044-4.079-3.506-4.912-6.681z" fill="#740806"/><path d="M181.755 81.007c.18.323.335.663.43 1.039a4.295 4.295 0 0 1-3.119 5.213 4.226 4.226 0 0 1-1.123.112 4.29 4.29 0 0 1-3.362-1.704 4.294 4.294 0 0 1 2.365-6.731l.025-.009c1.925-.485 3.86.425 4.784 2.08z" fill="#fff"/><path d="M193.904 101.929c-.498-1.711 3.182-4.287 8.218-5.754 5.038-1.468 9.525-1.27 10.024.441.498 1.71-3.182 4.286-8.22 5.754-5.036 1.467-9.524 1.269-10.022-.441zM121.696 122.96c-.498-1.711 3.182-4.287 8.219-5.755 5.038-1.467 9.525-1.27 10.023.441s-3.182 4.287-8.219 5.755c-5.036 1.467-9.524 1.269-10.023-.441zM168.144 105.035c28.956-8.434 10.791 10.206 3.584 12.305s-32.54-3.871-3.584-12.305z" fill="#e93e8f"/><path d="M172.929 106.986c.58-.509 1.447-.972 2.467-1.269 1.316-.384 2.563-.396 3.365-.102.449.164.76.424.86.771.282.968-1.153 2.236-3.205 2.834s-3.944.298-4.226-.669c-.141-.487.152-1.049.739-1.565z" fill="#fff"/><path d="M161.709 147.955c4.557 2.316 17.738 4.528 24.469-5.993 0 0-12.735-4.08-23.483.727-5.364 2.399-.986 5.266-.986 5.266z" fill="#e93e8f"/><path d="M104.935 92.697s1.916-13.181 8.107-23.151L86.384 57.933s-4.1 23.913 18.551 34.764zM202.884 25.409c3.063 4.439 13.534 19.887 2.169 38.127 0 0-5.723-7.151-11.501-11.681z" fill="#fffcc8"/><path d="M162.328 63.75s7.243-12.412 3.879-20.033l-8.559.142c2.697 5.433 4.68 19.891 4.68 19.891z" fill="#f28a1c"/><path d="m233.54 102.273-.001-.01a2.136 2.136 0 0 0-.042-.22l-.002-.009-.002-.007c-.115-.522-.425-1.335-.912-2.308-.487-.977-1.145-2.125-1.941-3.395-1.592-2.542-3.732-5.574-6.167-8.824-4.871-6.503-10.924-13.886-16.216-20.157l-.65-.771.468-.893c3.997-7.63 5.473-14.41 5.475-20.326 0-8.998-3.433-16.069-6.951-20.97-2.424-3.378-4.883-5.7-6.221-6.849l-26.819 28.578-.755-.092a68.345 68.345 0 0 0-8.234-.502 65.202 65.202 0 0 0-25.456 5.153l-.057.047c7.236 4.111 12.822 16.353 12.822 16.353l-21.059-9.749c-3.496 2.761-6.249 4.895-6.249 4.895s-13.206 16.856-8.455 54.008c-8.266 5.091-12.217 10.574-13.997 15.138a115.755 115.755 0 0 0-.041 2.902c0 1.324.029 2.499.09 3.483.06.982.155 1.78.267 2.311.07.346.158.577.182.619.442.607.868.994 1.23 1.216.368.224.658.294.937.296.255-.001.522-.064.836-.231.312-.167.662-.443 1.016-.846l2.161-2.455.45 3.24c.246 1.781.671 3.442 1.306 4.813.636 1.376 1.462 2.447 2.521 3.175.885.61 1.575.8 2.041.797.246-.001.443-.046.633-.131a1.83 1.83 0 0 0 .569-.417l1.023-1.078 1.088 1.013c5.418 5.057 12.904 8.218 20.898 10.081 7.989 1.866 16.457 2.438 23.757 2.437 10.045.001 17.859-1.076 19.252-1.281a97.144 97.144 0 0 0 3.049-1.716 134.26 134.26 0 0 0 8.221-5.24c6.569-4.525 14.749-11.023 21.153-18.81 4.272-5.19 7.746-10.944 9.488-17.032l.509-1.778 1.635.866c.462.245.855.337 1.171.336.362-.006.65-.096 1.008-.376.351-.282.755-.797 1.11-1.635.35-.826.513-1.724.514-2.706.005-1.835-.598-3.957-1.575-6.088l-1.359-2.975 3.141.911c.421.122.797.175 1.112.175.324 0 .581-.054.791-.139a1.46 1.46 0 0 0 .542-.381c.319-.347.639-1.021.712-2.194l.001-.02c0-.037-.005-.122-.02-.232z" fill="none"/><path d="M236.515 101.891a5.02 5.02 0 0 0-.096-.522h.001l-.002-.008-.001-.008h-.001c-.209-.907-.605-1.874-1.15-2.972-.96-1.924-2.394-4.226-4.16-6.805-5.133-7.489-13.078-17.28-19.916-25.408 3.854-7.652 5.362-14.638 5.36-20.816 0-9.938-3.862-17.716-7.693-22.969-3.836-5.26-7.651-8.043-7.735-8.106l-1.071-.779-27.65 29.462a71.062 71.062 0 0 0-7.831-.442c-12.715-.007-27.916 3.51-43.143 15.001L82.81 47.646l-.485 1.232c-.041.112-2.256 5.749-2.26 13.709-.001 5.29.989 11.622 4.296 17.966 3.2 6.146 8.589 12.266 17.194 17.423-1.237 12.649-2.476 27.44-2.478 36.289 0 1.945.059 3.605.199 4.935.071.666.161 1.25.289 1.769.135.521.276.977.615 1.459.624.859 1.316 1.54 2.093 2.02.773.48 1.643.744 2.511.742a4.675 4.675 0 0 0 1.959-.449c.271 1.122.618 2.211 1.087 3.227.799 1.733 1.942 3.288 3.544 4.389 1.23.846 2.486 1.324 3.742 1.326a4.511 4.511 0 0 0 1.862-.394c.128-.058.241-.141.362-.21 5.863 5.062 13.424 8.151 21.304 9.994 8.311 1.939 16.983 2.515 24.439 2.516 11.365-.001 19.908-1.346 19.96-1.353l.24-.038.216-.112c.054-.029 9.023-4.667 18.952-12.54 4.965-3.938 10.172-8.686 14.625-14.097 4.111-4.998 7.568-10.573 9.571-16.612.302.058.606.098.916.099a4.56 4.56 0 0 0 2.893-1.043c.838-.679 1.49-1.627 1.987-2.797.528-1.244.753-2.56.752-3.877-.003-1.688-.364-3.381-.933-5.044a4.813 4.813 0 0 0 1.178-.296c.921-.37 1.714-1.07 2.234-1.97.525-.901.805-1.977.881-3.201v-.007l.005-.194a4.812 4.812 0 0 0-.045-.616zm-2.956.636c-.073 1.173-.393 1.847-.712 2.194a1.46 1.46 0 0 1-.542.381c-.21.086-.467.139-.791.139-.315 0-.69-.053-1.112-.175l-3.141-.911 1.359 2.975c.977 2.131 1.58 4.253 1.575 6.088-.001.982-.164 1.88-.514 2.706-.355.838-.759 1.353-1.11 1.635-.358.28-.646.37-1.008.376-.316 0-.709-.092-1.171-.336l-1.635-.866-.509 1.778c-1.742 6.088-5.216 11.842-9.488 17.032-6.404 7.787-14.584 14.285-21.153 18.81a134.08 134.08 0 0 1-8.221 5.24 101 101 0 0 1-3.049 1.716c-1.393.205-9.207 1.281-19.252 1.281-7.3.001-15.768-.572-23.757-2.437-7.994-1.862-15.48-5.024-20.898-10.081l-1.088-1.013-1.023 1.078a1.803 1.803 0 0 1-.569.417c-.19.084-.387.13-.633.131-.466.002-1.156-.188-2.041-.797-1.059-.729-1.885-1.799-2.521-3.175-.634-1.372-1.06-3.033-1.306-4.813l-.45-3.24-2.161 2.455c-.354.402-.704.679-1.016.846-.314.167-.581.23-.836.231-.278-.002-.569-.072-.937-.296-.362-.222-.788-.61-1.23-1.216-.025-.041-.113-.273-.182-.619-.112-.531-.207-1.328-.267-2.311a57.71 57.71 0 0 1-.09-3.483c0-.898.016-1.879.041-2.902.223-9.026 1.378-22.543 2.515-34.039l.095-.962-.837-.484c-8.664-5.016-13.827-10.884-16.87-16.713-3.039-5.83-3.956-11.656-3.957-16.579 0-3.699.52-6.88 1.039-9.122.212-.916.421-1.666.596-2.24l37.377 9.556.579-.444c5.552-4.26 11.074-7.4 16.457-9.666a65.187 65.187 0 0 1 25.456-5.153c2.884 0 5.638.187 8.234.502l.755.092 26.819-28.578c1.338 1.149 3.797 3.471 6.221 6.849 3.517 4.902 6.95 11.973 6.951 20.97-.002 5.916-1.478 12.696-5.475 20.326l-.468.893.65.771c5.292 6.272 11.345 13.654 16.216 20.157 2.435 3.25 4.575 6.282 6.167 8.824.796 1.27 1.454 2.418 1.941 3.395.487.973.798 1.787.912 2.308l.002.007.002.009c.022.094.036.168.042.22l.001.01v.002c.015.109.02.195.02.232z" fill="#740806"/><path d="M236.515 101.885v.006l.001.006z" fill="#740806"/><path d="M159.438 47.554s2.095-.512 3.592.384c1.339.801 2.994 4.43-1.031 6.011-5.159 2.026-16.844-.746-17.267-6.069.478-.514 14.869-18.248 19.695-12.282 1.682 2.08 1.371 5.113.074 7.264-1.762 2.921-5.063 4.692-5.063 4.692z" fill="#fbb807"/><path d="M151.037 53.493c3.451 1.164 7.566 1.477 10.312.677.227-.066.443-.14.649-.221 4.025-1.581 2.37-5.21 1.031-6.011-1.498-.896-3.592-.384-3.592-.384s3.302-1.771 5.063-4.692c1.297-2.15 1.607-5.183-.074-7.264-1.03-1.272-2.494-1.466-4.166-.979-6.167 1.796-15.052 13.589-15.429 13.994 0 0-2.75.566-2.836-.515l-.096-1.202.821-.884.155-.185c4.625-5.454 11.262-12.283 16.616-13.843 3.9-1.136 6.102.696 7.067 1.889 2.599 3.213 2.018 7.542.289 10.406a13.518 13.518 0 0 1-1.5 2.016c1.168 1.141 2.075 3.003 1.906 5.036-.189 2.3-1.741 4.185-4.254 5.172-.281.11-.58.211-.887.301-3.565 1.04-11.242-2.38-11.075-3.311z" fill="#740806"/></g><g><g fill="#fffcc8"><path d="m291.2 20.64.3 1.8c.1.6.3 1.2.5 1.6.2.5.4.9.5 1.3.2.3.4.5.7.5.4 0 .8-.4 1-1 .3-.7.5-1.5.5-2.4.1-.9.2-1.8.2-2.7s.1-1.6.1-2-.1-.8-.1-1.3c-.1-.5-.2-.9-.4-1.4-.2-.4-.4-.8-.7-1-.3-.3-.7-.4-1.2-.4s-.8.2-1 .5-.4.7-.5 1.2-.2.9-.2 1.5v1.2c-.1.3 0 .6.1 1.1s.2 1 .2 1.5zM250.7 47.34c-.4-.2-.9-.3-1.3-.3-.5-.1-1-.1-1.5-.1-1.3.1-2.8.2-4.3.7-1.5.4-2.9.8-4.1 1.3l-.1-1.6c-.1-2.2-.1-4.4 0-6.6s.1-4.3 0-6.6c0-.4 0-.9-.1-1.5 0-.6-.1-1.3-.1-2-.1-.7-.2-1.5-.3-2.2s-.4-1.5-.6-2c-.3-.6-.6-1.1-1-1.5s-.9-.5-1.5-.5c-.9 0-1.5.4-2 1.2-.3.5-.5 1.2-.9 2-.2.9-.5 1.8-.6 2.9-.1 1-.3 2.2-.4 3.3-.1 1.2-.2 2.4-.2 3.5s-.1 2.2-.1 3.2v2.6c0 .4.1 1 .1 1.8s.1 1.6.2 2.5.2 1.8.3 2.8c.1.9.3 1.8.5 2.6.2.9.4 1.5.5 2.1.2.6.4 1 .6 1.1.4.3.9.5 1.5.6s1.2.1 1.7.1 1.3-.1 2.3-.3 2-.4 3.1-.7 2.2-.7 3.3-1c1.2-.4 2.1-.9 3-1.5.9-.5 1.6-1.1 2.2-1.8.5-.7.9-1.3.9-2 0-.8-.1-1.3-.4-1.6 0-.1-.3-.4-.7-.5zM308.3 41.34c-.4-.4-.7-.7-1.2-1-.4-.3-.9-.6-1.2-.9-.4-.3-.7-.6-.9-1-.3-.4-.4-.8-.4-1.3-.1-1 .2-1.7.8-2.2.5-.5 1.2-.9 1.8-1.3.7-.4 1.3-.7 1.8-1.2.5-.4.8-1 .8-1.8 0-.5-.1-1-.4-1.3-.2-.4-.5-.7-.9-.9-.3-.2-.7-.3-1.2-.4s-.9-.1-1.3-.1c-1.2.1-2.3.3-3.3.7-1 .5-2 1.1-2.8 1.9-.9.8-1.5 1.7-1.9 2.7-.5 1-.7 2.2-.7 3.3.1 1 .3 1.9.8 2.7.5.9 1 1.6 1.6 2.2.6.7 1.1 1.4 1.6 2 .5.7.7 1.3.7 1.8 0 .6-.1 1.1-.4 1.5s-.7.7-1.2.9-1 .4-1.5.5-1 .4-1.5.7-.9.7-1.2 1c-.3.5-.5 1-.4 1.8 0 .5.1 1 .4 1.4s.6.6 1 .8.9.3 1.3.4c.5.1 1 .1 1.5.1 1.2-.1 2.3-.3 3.5-.9 1.2-.5 2.2-1.3 3.2-2.2s1.6-1.9 2.2-3.1.9-2.4.9-3.5c0-.9-.1-1.5-.4-2.1-.4-.3-.8-.8-1.1-1.2zM279.2 55.44c1.1.5 2.7.7 4.7.7.6 0 1.2-.1 1.9-.3.7-.1 1.3-.4 1.8-.7s1-.7 1.3-1.1c.3-.5.5-1 .5-1.6 0-.8-.2-1.5-.5-1.9-.3-.5-.9-.7-1.6-.7-.4 0-.9.1-1.3.1-.4.1-.9.1-1.3.1-.7 0-1.2-.1-1.5-.5-.4-.3-.7-.7-.9-1.2s-.3-.9-.3-1.5c-.1-.5-.1-.9-.1-1.3 0-.5 0-1 .1-1.5s.1-1 .1-1.5c.1-1 .1-2 .1-3 .1-1 .1-2 .3-3.2.6-.1 1.3-.2 2-.4s1.3-.4 2-.7c.6-.3 1.1-.7 1.5-1 .4-.4.6-.9.6-1.4s-.2-.9-.5-1.2-.7-.5-1.1-.7c-.5-.2-.9-.3-1.5-.4-.5-.1-1-.1-1.5-.1-.1 0-.3 0-.5.1-.2 0-.5.1-1 .1.2-.9.3-1.6.4-2.2s.1-1.2.1-1.8c0-.5-.1-1-.2-1.5s-.3-1-.5-1.4-.5-.7-.9-1-.8-.4-1.2-.4c-.8 0-1.5.3-1.9.9-.5.6-.9 1.3-1.2 2.1s-.5 1.8-.5 2.7c-.1 1-.1 1.8-.1 2.6-.6.1-1.3.2-2 .4s-1.3.4-1.9.7-1 .7-1.5 1c-.1.1-.2.3-.3.5-.1-.2-.1-.3-.2-.5-.4-.9-1-1.5-1.6-2.1-.7-.5-1.5-1-2.3-1.3-.9-.3-1.8-.5-2.8-.4-1.7.1-3.2.5-4.3 1.5s-2.2 2.1-3 3.5-1.3 2.9-1.7 4.5-.5 3.2-.5 4.6c.1 1.3.3 2.7.7 4.1.5 1.4 1 2.6 1.9 3.8s1.8 2.1 3 2.8 2.6 1 4 1c.9 0 1.8-.3 2.9-.7 1-.5 2-1 2.9-1.8.9-.7 1.6-1.6 2.2-2.6.6-.9.9-1.9.9-2.9 0-.6-.2-1-.7-1.5-.5-.4-1-.5-1.5-.5s-1 .2-1.5.5-1 .7-1.5 1c-.5.4-1 .7-1.5 1s-1 .5-1.6.5c-.8 0-1.5-.1-2-.5s-.9-.9-1-1.8c1.3-.1 2.5-.4 3.7-1 1.2-.5 2.2-1.3 3.2-2.1s1.6-1.9 2.2-3c.5-1.2.8-2.4.7-3.6.1.1.2.2.4.3.7.4 1.5.5 2.4.5.1 0 .3 0 .5-.1.2 0 .5-.1.9-.1-.1 1.5-.2 3-.3 4.3s-.1 2.7-.1 4c.1 1.6.1 3.2.3 4.5.1 1.3.5 2.5 1 3.5.8 1.6 1.6 2.3 2.7 2.8zm-13.8-17c-.3.4-.7.7-1.3.9-.5.2-1 .5-1.6.6-.5.1-1 .3-1.5.4 0-.5.1-1 .2-1.6.1-.5.4-1.1.6-1.6.3-.5.6-.9 1-1.3s.9-.5 1.6-.5c.4 0 .7.2 1 .5.2.4.3.8.3 1.2.2.5 0 1-.3 1.4zM272.4 71.04c-.1-.7-.2-1.5-.4-2.1-.1-.7-.4-1.2-.7-1.6s-.6-.6-1-.6c-.7 0-1.3.3-1.8.9s-.9 1.2-1.3 1.8c-.1-1.1-.7-2-1.5-2.6-.9-.6-1.8-.9-2.9-.9s-2.1.3-3 .8-1.8 1.2-2.5 2c-.7.9-1.4 1.8-1.9 2.9-.5 1-1 2.2-1.4 3.3s-.7 2.2-.9 3.3-.3 2.1-.3 3c0 1.5.1 2.7.5 3.9.3 1.2.8 2.2 1.5 3.2.7.9 1.5 1.6 2.6 2.2 1.1.5 2.3.8 3.8.8.9 0 1.6-.1 2.4-.4s1.4-.7 2-1.3c-.1.9-.2 1.8-.5 2.7-.2 1-.5 1.8-1 2.6-.5.9-1 1.5-1.7 2s-1.6.8-2.6.8c-.4 0-.8-.1-1.2-.2s-.8-.3-1.2-.5-.9-.4-1.3-.5-.9-.2-1.3-.2c-.7 0-1.3.3-1.8.9-.5.5-.7 1.2-.7 1.8 0 .9.3 1.6.9 2.3.5.7 1.3 1.2 2.1 1.6.9.5 1.7.8 2.7 1s1.8.4 2.6.4c1.6 0 3-.3 4.3-.9 1.2-.5 2.2-1.4 3-2.4.9-1 1.5-2.1 2-3.4s.9-2.6 1.3-4 .5-2.8.7-4.2c.1-1.5.3-2.7.3-3.9.1-1.5.2-2.9.2-4.3.1-1.5.1-2.9.1-4.3v-1.3c0-.6 0-1.3-.1-2 .1-1.1 0-1.8 0-2.6zm-6.6 10.2c-.2.7-.5 1.3-.9 1.8s-.9 1-1.5 1.4c-.5.4-1.3.5-2 .5-.5 0-.9-.2-1.3-.7-.3-.4-.5-.9-.7-1.5s-.3-1.2-.4-1.8-.1-1.1-.1-1.5c0-.5.1-1.1.3-1.8s.5-1.4.8-2 .7-1.2 1.3-1.6c.5-.5 1-.7 1.7-.7.5 0 1 .2 1.3.7s.7 1 .9 1.6.4 1.3.5 1.9c.1.7.2 1.3.2 1.6.2.8.1 1.4-.1 2.1zM292.6 70.94c-.7-1.3-1.6-2.4-2.7-3.2s-2.4-1.3-4.1-1.3-3 .4-4.3 1.3c-1.2.9-2.2 1.9-2.9 3.2-.8 1.3-1.3 2.8-1.7 4.4s-.5 3.2-.5 4.7.2 2.9.5 4.3c.4 1.5.9 2.8 1.6 3.9s1.6 2.2 2.7 2.9c1 .8 2.4 1.2 3.8 1.2 1.6 0 2.9-.4 4-1.2s2.1-1.8 2.8-3 1.3-2.6 1.6-4.1c.4-1.5.6-3 .7-4.5.1-1.3 0-2.8-.3-4.3-.1-1.6-.6-3-1.2-4.3zm-4.6 10.7c-.1.8-.2 1.5-.4 2.1-.2.7-.5 1.2-.8 1.6s-.7.7-1.2.7c-.4 0-.8-.2-1.1-.7-.3-.4-.6-1-.9-1.6-.2-.7-.4-1.4-.5-2.2s-.2-1.5-.2-2.2c0-.5.1-1.2.2-1.9s.3-1.4.5-2.1.5-1.2.8-1.6.7-.7 1.1-.7.8.2 1.1.7c.3.4.6 1 .8 1.6.2.7.4 1.3.5 2.1.1.7.2 1.5.2 2.1s0 1.3-.1 2.1z"/></g><g fill="#740806"><path d="M288.1 19.44c.1.5.1 1 .2 1.5v.2c.1.3.1.5.1.8.1.4.1.7.2 1.1.2.8.4 1.5.6 2.2.2.6.4 1.1.6 1.5l.1.1.1.1c.7 1.2 1.9 1.9 3.2 1.9 1.7 0 3.1-1.1 3.8-2.9.4-.9.7-2 .8-3.2.1-.8.2-1.7.2-2.5v-.3c.1-1 .1-1.8.1-2.2 0-.5-.1-1-.1-1.5v-.2c-.1-.7-.3-1.3-.5-2.1v-.2c-.4-.9-.9-1.6-1.5-2.1-.8-.8-1.9-1.2-3.2-1.2-1.4 0-2.5.6-3.4 1.6-.6.7-.9 1.6-1.1 2.5-.2.7-.2 1.3-.2 2v.9c-.1.6 0 1.1.1 1.5zm2.9-1.4v-1.2c0-.5.1-1 .2-1.5s.2-.9.5-1.2.5-.5 1-.5.9.1 1.2.4c.3.2.5.6.7 1 .2.5.3.9.4 1.4s.1.9.1 1.3 0 1.2-.1 2-.1 1.8-.2 2.7-.2 1.7-.5 2.4c-.2.7-.6 1-1 1-.2 0-.5-.2-.7-.5-.2-.4-.4-.8-.5-1.3-.2-.4-.4-1-.5-1.6l-.3-1.8c-.1-.5-.1-1.1-.2-1.6s-.2-.7-.1-1zM253.5 53.54c.3-.3.6-.7.8-1.2.1.2.2.3.3.5 1.1 1.5 2.3 2.6 3.8 3.6 1.6 1 3.5 1.5 5.6 1.5 1.2 0 2.4-.3 4-1h.2c1-.5 2.3-1.2 3.6-2.3.6-.5 1.1-1 1.5-1.5.2.5.4.9.6 1.4 1 1.7 2.3 2.9 4 3.6 1.4.6 3.3.9 5.9.9 1 0 1.9-.2 2.6-.4.9-.2 1.8-.5 2.6-1h.2c.9-.6 1.6-1.2 2.1-1.9l.1-.1v-.1c.6-1 .9-2.1.9-3.2 0-1.4-.4-2.7-1.1-3.7-.5-.8-1.7-2-4.1-2-.6 0-1.2.1-1.7.2h-.2l-.2.1h-.1v-1c0-.2 0-.4-.1-.6v-.9c0-.3.1-.6.1-.9v-.7c.1-1 .1-2.1.1-3.1v-.8c.8-.2 1.5-.5 2.2-.7l.2-.1.2-.1c.7-.4 1.4-.8 2.1-1.4l.1-.1.1-.1c1-1 1.5-2.2 1.5-3.5 0-1.2-.5-2.4-1.4-3.3-.6-.6-1.3-1-2-1.4h-.2c-.7-.3-1.3-.4-2-.5v-.9c0-.6-.1-1.1-.1-1.5 0-.1 0-.2-.1-.4v-.4c-.2-.8-.5-1.5-.9-2.2-.4-.8-1-1.3-1.3-1.7l-.1-.1-.1-.1c-1.3-1.1-2.7-1.1-3.1-1.1-1.6 0-3.1.7-4.2 1.9l-.1.1v.1c-.7.9-1.2 1.8-1.6 3-.4 1.1-.6 2.3-.7 3.5v.4c-.8.2-1.5.5-2.1.8l-.6-.6c-1-.8-2.1-1.4-3.2-1.8s-2.3-.6-3.4-.6h-.5c-2.3.1-4.4.8-6 2.1-1.5 1.2-2.8 2.7-3.7 4.3s-1.6 3.4-2 5.3c-.4 1.7-.6 3.4-.6 5.2v.2c0 .3 0 .7.1 1-.6-.2-1.3-.4-2-.4-.6-.1-1.2-.1-1.7-.1h-.2c-1.8.1-3.4.3-4.9.8-.2 0-.3.1-.5.1v-4.1c.1-2.2.1-4.4 0-6.7 0-.4 0-.9-.1-1.6 0-.6-.1-1.2-.1-1.9v-.4c-.1-.3-.1-.6-.1-1-.1-.4-.1-.8-.2-1.2-.2-1.2-.6-2.2-.8-2.7v-.2c-.5-1-1-1.7-1.5-2.2l-.1-.1-.1-.1c-1-.9-2.1-1.3-3.4-1.3-1.2 0-3 .4-4.5 2.5v.2c-.5.8-.8 1.7-1.1 2.6v.2c-.2.9-.5 2-.7 3.3 0 .4-.1.8-.2 1.3l-.3 2.1c-.1 1.3-.2 2.6-.3 3.7v.3c-.1 1-.1 2-.1 3.1v2.6c0 .4 0 .9.1 1.5v.6c.1.8.1 1.7.3 2.5.1.9.2 1.7.3 2.6v.2c.1.9.3 1.9.5 2.9.2.8.4 1.5.6 2.3.2.6.6 2 1.9 2.8.9.6 1.7.9 2.7 1 .8.2 1.6.2 2.2.2.7 0 1.5-.1 2.9-.4.8-.2 1.6-.3 2.5-.5l.7-.2c.9-.2 1.8-.5 2.6-.8.3-.1.7-.2 1-.3 1.3-.4 2.6-1 3.7-1.8 1.3-.4 2.1-1.2 2.9-2.1zm1.4-14.9c.4-1.6.9-3.1 1.7-4.5s1.8-2.6 3-3.5 2.6-1.4 4.3-1.5h.4c.8 0 1.7.2 2.4.4.9.3 1.6.8 2.3 1.3s1.2 1.2 1.6 2.1c.1.2.2.3.2.5.1-.2.2-.4.3-.5.4-.4.9-.7 1.5-1 .5-.3 1.2-.5 1.9-.7s1.4-.2 2-.4c0-.8 0-1.6.1-2.6s.2-1.9.5-2.7.7-1.5 1.2-2.1c.5-.5 1.2-.9 1.9-.9.4 0 .9.1 1.2.4s.6.6.9 1c.2.4.4.9.5 1.4s.2 1 .2 1.5c0 .6 0 1.2-.1 1.8-.1.5-.2 1.3-.4 2.2.5-.1.8-.1 1-.1.2-.1.4-.1.5-.1.5 0 1 0 1.5.1s1 .2 1.5.4c.4.2.8.4 1.1.7s.5.7.5 1.2-.2 1-.6 1.4-.9.7-1.5 1c-.7.2-1.3.5-2 .7s-1.4.2-2 .4c-.2 1.2-.2 2.2-.3 3.2 0 1-.1 2-.1 3-.1.5-.1 1-.1 1.5-.1.5-.1 1-.1 1.5.1.4.1.8.1 1.3s.1 1 .3 1.5.5.9.9 1.2c.4.4.9.5 1.5.5.4 0 .9 0 1.3-.1s.9-.1 1.3-.1c.8 0 1.3.2 1.6.7.4.5.5 1.2.5 1.9 0 .6-.2 1.1-.5 1.6-.3.4-.8.8-1.3 1.1s-1.2.5-1.8.7c-.7.2-1.3.3-1.9.3-2 0-3.6-.2-4.7-.7s-1.9-1.2-2.7-2.4c-.5-1-.9-2.1-1-3.5-.2-1.3-.2-2.9-.3-4.5 0-1.3 0-2.7.1-4s.2-2.8.3-4.3c-.4 0-.7.1-.9.1-.2.1-.4.1-.5.1-.9 0-1.7-.2-2.4-.5-.2-.1-.3-.2-.4-.3.1 1.2-.2 2.4-.7 3.6s-1.3 2.2-2.2 3-1.9 1.6-3.2 2.1c-1.2.5-2.4.9-3.7 1 .1.9.5 1.4 1 1.8s1.2.5 2 .5c.6 0 1.2-.2 1.6-.5.5-.4 1-.7 1.5-1s1-.7 1.5-1c.4-.3 1-.5 1.5-.5s1 .1 1.5.5c.4.4.7.9.7 1.5 0 1-.2 1.9-.9 2.9-.5 1-1.3 1.8-2.2 2.6s-1.9 1.3-2.9 1.8c-1 .4-2 .7-2.9.7-1.5 0-2.8-.3-4-1s-2.1-1.6-3-2.8-1.4-2.4-1.9-3.8c-.4-1.4-.7-2.7-.7-4.1 0-1.8.1-3.3.5-5zm-9 16.3c-1.2.4-2.2.8-3.3 1s-2.1.5-3.1.7-1.8.3-2.3.3-1.1 0-1.7-.1-1.1-.3-1.5-.6c-.2-.1-.4-.5-.6-1.1s-.4-1.3-.5-2.1c-.2-.8-.4-1.7-.5-2.6-.1-1-.2-1.9-.3-2.8s-.2-1.7-.2-2.5-.1-1.4-.1-1.8v-2.6c0-1 .1-2.1.1-3.2s.1-2.3.2-3.5.3-2.3.4-3.3.4-2 .6-2.9c.3-.9.5-1.5.9-2 .5-.8 1.2-1.2 2-1.2.6 0 1 .2 1.5.5.4.4.7.9 1 1.5.2.5.5 1.3.6 2s.2 1.5.3 2.2.1 1.4.1 2c.1.6.1 1.1.1 1.5.1 2.2.1 4.4 0 6.6s-.1 4.4 0 6.6l.1 1.6c1.3-.5 2.7-.9 4.1-1.3 1.5-.4 2.9-.6 4.3-.7.5 0 1 0 1.5.1.5 0 1 .1 1.3.3.4.2.7.4 1 .8.2.3.4.8.4 1.6 0 .7-.3 1.3-.9 2-.5.7-1.3 1.2-2.2 1.8-1.2.3-2.1.8-3.3 1.2z"/><path d="m310.5 39.44-.2-.2c-.4-.4-.9-.9-1.7-1.4-.4-.3-.7-.5-1.1-.8l-.1-.1c.3-.2.6-.4 1-.6.6-.3 1.4-.8 2.2-1.4.9-.7 1.9-2 1.9-4.2 0-1.1-.3-2.1-.9-3-.4-.6-1-1.3-1.9-1.8-.6-.4-1.3-.6-1.9-.7-.8-.2-1.5-.2-2.1-.2h-.2c-1.6.1-3 .4-4.3 1h-.2c-1.5.7-2.6 1.5-3.6 2.4-1.1 1-1.9 2.2-2.6 3.6-.6 1.3-1 2.9-1 4.6v.2c.1 1.5.5 2.9 1.2 4 .6 1 1.2 1.9 2 2.7.2.3.5.6.7.9.2.2.4.5.6.7-.1.1-.3.1-.5.1-1.1.2-1.9.7-2.5 1.1-.7.4-1.3 1-1.9 1.7l-.1.2-.1.2c-.7 1.1-1 2.2-.9 3.5 0 1.6.6 2.6 1.1 3.2.6.7 1.2 1.2 1.9 1.6.8.4 1.6.6 2.2.7.5.1 1.2.1 1.8.1h.2c1.6-.1 3.1-.4 4.6-1.1 1.4-.7 2.7-1.6 3.9-2.7 1.4-1.3 2.3-2.8 2.9-3.9.8-1.5 1.2-3.2 1.2-4.9 0-1.4-.2-2.5-.8-3.5.2-.9-.3-1.5-.8-2zm-1.6 9c-.6 1.2-1.3 2.2-2.2 3.1-1 .9-2 1.6-3.2 2.2-1.2.5-2.4.8-3.5.9-.5 0-1-.1-1.5-.1-.4-.1-.9-.2-1.3-.4s-.7-.4-1-.8-.4-.9-.4-1.4c-.1-.8.1-1.3.4-1.8.3-.4.7-.7 1.2-1s1-.5 1.5-.7c.5-.1 1-.3 1.5-.5s.9-.5 1.2-.9.4-.9.4-1.5c0-.5-.2-1.2-.7-1.8s-1-1.3-1.6-2-1.2-1.4-1.6-2.2c-.5-.8-.7-1.7-.8-2.7 0-1.2.2-2.3.7-3.3s1.1-1.9 1.9-2.7 1.8-1.4 2.8-1.9c1-.4 2.1-.7 3.3-.7.5 0 .9 0 1.3.1.5.1.9.2 1.2.4.4.2.6.5.9.9.2.4.4.8.4 1.3 0 .8-.2 1.4-.8 1.8-.5.4-1.2.8-1.8 1.2-.7.4-1.3.8-1.8 1.3s-.9 1.2-.8 2.2c.1.5.1.9.4 1.3.2.4.5.7.9 1 .4.2.8.5 1.2.9.5.3.9.7 1.2 1 .4.4.7.9 1 1.5.3.5.4 1.2.4 2.1 0 .8-.2 2-.8 3.2zM264.1 39.34c.5-.2 1-.5 1.3-.9.4-.4.5-.9.4-1.4 0-.4-.1-.8-.3-1.2s-.5-.5-1-.5c-.7 0-1.2.1-1.6.5s-.7.8-1 1.3c-.2.5-.5 1.1-.6 1.6s-.2 1.1-.2 1.6c.4-.1.9-.2 1.5-.4.4-.1 1-.4 1.5-.6zM265.8 77.64c-.1-.7-.3-1.3-.5-1.9-.2-.7-.6-1.2-.9-1.6s-.8-.7-1.3-.7c-.7 0-1.2.2-1.7.7-.5.4-1 1-1.3 1.6s-.6 1.3-.8 2-.3 1.3-.3 1.8c0 .4.1.9.1 1.5.1.6.2 1.2.4 1.8s.4 1.1.7 1.5c.4.4.8.7 1.3.7.7 0 1.5-.2 2-.5.6-.4 1.1-.9 1.5-1.4s.7-1.2.9-1.8c.2-.7.3-1.3.2-1.9-.1-.5-.1-1.1-.3-1.8zm-2.9 2.8c-.1.3-.2.6-.5.9l-.2.2c-.1-.3-.1-.6-.2-.9v-.4c0-.3-.1-.6-.1-.8 0-.1 0-.3.2-1.1.1-.4.3-.8.4-1.1.1.3.2.6.2.9.1.6.1 1 .1 1.1v.6c.3 0 .3.1.1.6zM287.5 75.44c-.2-.7-.5-1.2-.8-1.6s-.7-.7-1.1-.7-.8.2-1.1.7c-.3.4-.5 1-.8 1.6-.2.7-.4 1.3-.5 2.1-.1.7-.2 1.3-.2 1.9 0 .7.1 1.4.2 2.2s.2 1.5.5 2.2c.2.7.5 1.2.9 1.6.3.4.7.7 1.1.7.5 0 .9-.2 1.2-.7.3-.4.6-1 .8-1.6.2-.7.3-1.3.4-2.1s.1-1.5.1-2.1-.1-1.3-.2-2.1c-.2-.8-.3-1.4-.5-2.1z"/><path d="M295.2 69.54c-.9-1.7-2-3.1-3.5-4.2-1.6-1.3-3.6-1.9-5.9-1.9-2.2 0-4.2.6-6 1.8-1.6 1.1-2.9 2.5-3.8 4.2-.2.4-.5.8-.7 1.3v-.2c0-.2-.1-.4-.1-.6-.1-.5-.2-1.1-.3-1.7-.2-1-.6-1.8-1.1-2.6-1.1-1.5-2.5-1.9-3.5-1.9-.9 0-1.8.2-2.6.7l-.1-.1c-1.3-1-2.9-1.5-4.6-1.5-1.5 0-3.1.4-4.5 1.1-1.3.7-2.4 1.6-3.4 2.7-1 1.2-1.7 2.3-2.3 3.4-.6 1.2-1.2 2.5-1.6 3.8s-.8 2.6-.9 3.8c-.2 1.4-.3 2.5-.3 3.5 0 1.9.2 3.4.6 4.7.4 1.6 1 2.9 1.9 4.1 1 1.4 2.2 2.4 3.6 3.1.2.1.5.2.7.3-.5-.1-1.1-.3-1.9-.3-1.6 0-3 .7-4.1 1.9-.9 1.1-1.4 2.3-1.4 3.8s.5 3 1.5 4.2c.8 1 1.8 1.8 3 2.4 1 .6 2.1 1 3.4 1.3 1.2.3 2.3.5 3.3.5 2 0 3.8-.4 5.5-1.1 1.5-.7 2.8-1.7 4.1-3.1 1.1-1.2 1.9-2.7 2.6-4.3.5-1.4 1-2.8 1.4-4.3.4-1.4.6-2.8.8-4.7 0-.4.1-.9.1-1.3v-.4c.3.7.6 1.3 1 1.9 1 1.6 2.2 2.8 3.5 3.8 1.5 1.1 3.4 1.7 5.5 1.7 2.2 0 4.2-.6 5.8-1.7 1.5-1.1 2.7-2.4 3.6-3.9s1.5-3.1 2-5c.4-1.8.7-3.5.7-5 .1-1.5 0-3.2-.3-5-.2-1.8-.8-3.5-1.7-5.2zm-22.7 7.2c0 1.5 0 2.9-.1 4.3-.1 1.5-.1 2.9-.2 4.3 0 1.2-.2 2.5-.3 3.9s-.3 2.8-.7 4.2-.8 2.7-1.3 4-1.2 2.4-2 3.4-1.8 1.8-3 2.4c-1.2.5-2.6.9-4.3.9-.8 0-1.6-.1-2.6-.4s-1.8-.5-2.7-1c-.9-.4-1.6-1-2.1-1.6-.5-.7-.9-1.5-.9-2.3 0-.7.2-1.3.7-1.8s1.1-.9 1.8-.9c.4 0 .9.1 1.3.2s.9.3 1.3.5.9.4 1.2.5c.4.1.7.2 1.2.2 1 0 1.9-.3 2.6-.8s1.2-1.2 1.7-2 .7-1.6 1-2.6c.2-.9.4-1.8.5-2.7-.6.7-1.3 1.1-2 1.3s-1.5.4-2.4.4c-1.5 0-2.7-.2-3.8-.8-1.1-.5-1.9-1.3-2.6-2.2s-1.2-1.9-1.5-3.2c-.4-1.2-.5-2.5-.5-3.9 0-.9.1-1.9.3-3s.5-2.2.9-3.3c.4-1.2.9-2.3 1.4-3.3.5-1.1 1.2-2 1.9-2.9s1.6-1.5 2.5-2 1.9-.8 3-.8c1 0 2 .3 2.9.9.8.6 1.3 1.5 1.5 2.6.4-.6.8-1.2 1.3-1.8.5-.5 1.1-.9 1.8-.9.4 0 .7.2 1 .6s.5.9.7 1.6c.2.6.2 1.3.4 2.1 0 .8.1 1.5.1 2.5.1.7.1 1.4.1 2-.1.7-.1 1.1-.1 1.4zM258 93.84c.9.2 1.8.4 2.9.4l-.2.2c-.1.1-.4.2-.7.2l-.3-.1c-.3-.1-.6-.3-1-.4-.3-.1-.5-.2-.7-.3zm36.2-14.3c-.1 1.5-.3 3-.7 4.5s-.9 2.9-1.6 4.1-1.7 2.2-2.8 3-2.4 1.2-4 1.2c-1.4 0-2.7-.4-3.8-1.2-1.1-.7-2-1.8-2.7-2.9-.7-1.2-1.3-2.5-1.6-3.9-.4-1.5-.5-2.9-.5-4.3 0-1.5.2-3 .5-4.7.4-1.6.9-3.1 1.7-4.4.7-1.3 1.7-2.4 2.9-3.2 1.2-.9 2.6-1.3 4.3-1.3 1.6 0 3 .4 4.1 1.3s2 1.9 2.7 3.2 1.2 2.7 1.3 4.3c.2 1.5.3 3 .2 4.3z"/></g></g></svg>