<svg height="512" viewBox="0 0 318.149 318.149" width="512" xmlns="http://www.w3.org/2000/svg"><circle cx="159.074" cy="159.074" fill="#d0df92" r="134.02"/><path d="M147.653 236.913c-1.275 3.973-1.288 8.106-.417 11.923.651 2.871 1.782 5.595 3.259 8.134 2.221 3.808 5.218 7.217 8.768 10.105a41.304 41.304 0 0 0 12.189 6.857c4.513 1.602 9.442 2.438 14.541 2.173a35.286 35.286 0 0 0 11.542-2.583c5.729-2.332 11.198-6.312 15.962-11.981 4.772-5.674 8.873-13.011 12.146-22.23 2.481-6.992 4.489-15.077 5.938-24.406.644-4.146 1.557-7.735 2.646-10.807 1.47-4.142 3.259-7.338 5.144-9.751 2.843-3.62 5.843-5.51 8.719-6.398a13.215 13.215 0 0 1 8.352.174 13.917 13.917 0 0 1 6.1 4.315c1.646 2.02 2.833 4.561 3.275 7.663a7.001 7.001 0 0 0 13.863-1.955c-.785-5.592-3.043-10.595-6.304-14.573a27.916 27.916 0 0 0-12.253-8.645 27.187 27.187 0 0 0-11.299-1.483c-5.84.459-11.75 2.889-16.767 7.278-5.032 4.386-9.169 10.64-12.024 18.693-1.415 3.987-2.522 8.425-3.286 13.34-1.335 8.601-3.158 15.846-5.298 21.873-2.508 7.068-5.446 12.453-8.51 16.458-2.299 3.006-4.663 5.243-7.011 6.895-3.527 2.47-7.02 3.671-10.504 4.052-3.479.371-6.981-.121-10.291-1.295a27.316 27.316 0 0 1-7.246-3.906c-3.246-2.431-5.736-5.491-7.045-8.346-.662-1.426-1.037-2.787-1.162-4.005-.123-1.222-.015-2.292.307-3.305a6.999 6.999 0 0 0-4.535-8.799 6.998 6.998 0 0 0-8.799 4.535z" fill="#fbb807"/><path d="M279.68 198.145c-.785-5.592-3.043-10.595-6.304-14.573a27.908 27.908 0 0 0-12.253-8.645 27.187 27.187 0 0 0-11.299-1.483c-5.84.459-11.75 2.889-16.767 7.278l-.084.078c3.503 3.077 6.655 6.545 9.454 10.338 1.889-1.611 3.802-2.615 5.662-3.19a13.215 13.215 0 0 1 8.352.174 13.917 13.917 0 0 1 6.1 4.315c1.646 2.02 2.833 4.56 3.275 7.663a7 7 0 0 0 7.909 5.954 7 7 0 0 0 5.955-7.909z" fill="#fffcc8"/><path d="M252.011 173.355c3.141 0 6.223.546 9.112 1.572a27.908 27.908 0 0 1 12.253 8.645c3.261 3.979 5.519 8.981 6.304 14.573a7.001 7.001 0 0 1-13.863 1.955c-.442-3.104-1.63-5.644-3.275-7.663a13.897 13.897 0 0 0-6.1-4.315 13.272 13.272 0 0 0-4.428-.767c-1.289 0-2.603.191-3.924.593-2.876.889-5.877 2.778-8.719 6.398-1.885 2.413-3.674 5.609-5.144 9.751-1.09 3.071-2.003 6.66-2.646 10.807-1.449 9.329-3.457 17.414-5.938 24.406-3.272 9.22-7.373 16.557-12.146 22.23-4.764 5.67-10.233 9.649-15.962 11.981a35.286 35.286 0 0 1-13.41 2.632c-4.434 0-8.714-.817-12.673-2.222a41.302 41.302 0 0 1-12.189-6.857c-3.55-2.889-6.547-6.298-8.768-10.105-1.477-2.539-2.607-5.263-3.259-8.134-.871-3.816-.858-7.95.417-11.923a7 7 0 0 1 6.665-4.87 6.96 6.96 0 0 1 2.134.335 6.998 6.998 0 0 1 4.535 8.799c-.321 1.013-.43 2.083-.307 3.305.125 1.218.5 2.579 1.162 4.005 1.309 2.854 3.799 5.915 7.045 8.346a27.316 27.316 0 0 0 7.246 3.906c2.581.915 5.278 1.416 7.991 1.416.766 0 1.533-.04 2.3-.121 3.484-.381 6.977-1.582 10.504-4.052 2.348-1.651 4.712-3.889 7.011-6.895 3.063-4.005 6.002-9.39 8.51-16.458 2.14-6.027 3.963-13.272 5.298-21.873.764-4.915 1.871-9.353 3.286-13.34 2.855-8.054 6.992-14.308 12.024-18.693 5.017-4.39 10.927-6.819 16.767-7.278.732-.059 1.46-.089 2.187-.089m0-3c-.808 0-1.624.033-2.429.099-6.715.528-13.114 3.299-18.5 8.011-5.571 4.856-9.905 11.569-12.876 19.948-1.495 4.215-2.647 8.886-3.424 13.883-1.242 8.008-2.979 15.184-5.16 21.329-2.236 6.304-4.95 11.565-8.065 15.64-1.97 2.576-4.107 4.683-6.354 6.263-2.878 2.016-5.857 3.169-9.104 3.523-.644.068-1.311.104-1.974.104-2.311 0-4.662-.418-6.988-1.243a24.414 24.414 0 0 1-6.444-3.475c-2.733-2.048-4.963-4.67-6.123-7.2-.497-1.073-.809-2.128-.904-3.061-.079-.784-.021-1.451.183-2.092a9.933 9.933 0 0 0-.639-7.621 9.934 9.934 0 0 0-5.843-4.943 10.008 10.008 0 0 0-3.047-.477 9.966 9.966 0 0 0-9.523 6.956c-1.363 4.246-1.531 8.917-.484 13.504.691 3.047 1.899 6.068 3.591 8.975 2.371 4.067 5.556 7.741 9.467 10.925a44.166 44.166 0 0 0 13.079 7.357c4.479 1.589 9.079 2.395 13.677 2.395a38.262 38.262 0 0 0 14.545-2.855c6.398-2.604 12.161-6.922 17.124-12.828 5.115-6.082 9.381-13.874 12.676-23.157 2.597-7.318 4.641-15.713 6.076-24.949.584-3.767 1.429-7.22 2.509-10.264 1.258-3.546 2.833-6.543 4.681-8.908 2.189-2.789 4.56-4.55 7.24-5.379a10.437 10.437 0 0 1 3.038-.459c1.153 0 2.308.2 3.431.596a10.892 10.892 0 0 1 4.774 3.386c1.403 1.721 2.288 3.804 2.627 6.187.691 4.901 4.944 8.601 9.894 8.601.467 0 .939-.033 1.405-.099 5.459-.771 9.275-5.839 8.506-11.299-.839-5.977-3.244-11.529-6.954-16.056a30.9 30.9 0 0 0-13.569-9.57 30.157 30.157 0 0 0-10.119-1.747z" fill="#740806"/><path d="m211.474 276.178-13.501-50.451c1.244-11.269 6.54-82.129-57.553-78.061 0 0-29.291.528-39.735 6.759-13.23 7.894-39.427 18.804-8.554 53.465-.013.002 3.337 22.728 4.732 26.461 2.99 17.094 7.324 42.043 7.324 42.043-33.501 1.85-25.648 27.253-25.607 27.873l55.856-.113-.048-43.838c11.105 1.421 22.956.218 33.375-3.088l23.758 46.81 47.811-.097c0 .001 5.65-26.049-27.858-27.763z" fill="#fbb807"/><path d="M239.683 300.41c.005-.203.008-.411.008-.627l-.001-.113c-.001-.2-.004-.404-.01-.614l-.003-.111c-.007-.23-.018-.466-.033-.707l-.01-.162a26.43 26.43 0 0 0-.059-.753l-.001-.013a25.994 25.994 0 0 0-.233-1.764l-.023-.129a24.468 24.468 0 0 0-.143-.748l-.032-.158a23.412 23.412 0 0 0-.196-.838c-.015-.061-.032-.121-.048-.182a21.9 21.9 0 0 0-.235-.834l-.016-.056a22.29 22.29 0 0 0-.702-1.95l-.055-.126a20.096 20.096 0 0 0-.36-.8l-.082-.174c-.141-.29-.291-.58-.449-.868-.034-.063-.07-.125-.105-.188a21.09 21.09 0 0 0-.484-.818c-.018-.029-.035-.059-.054-.088a19.756 19.756 0 0 0-.724-1.06 19.392 19.392 0 0 0-.652-.849c-.027-.033-.057-.066-.084-.1a19.56 19.56 0 0 0-.668-.766l-.156-.171c-.253-.27-.517-.537-.793-.801l-.173-.161a20.55 20.55 0 0 0-.813-.722c-.038-.032-.074-.065-.113-.097a21.423 21.423 0 0 0-1.192-.918 23.474 23.474 0 0 0-1.062-.725l-.094-.057a24.454 24.454 0 0 0-1.336-.786 27.165 27.165 0 0 0-1.23-.633l-.245-.115a28.87 28.87 0 0 0-1.224-.541c-.066-.027-.13-.056-.197-.083a30.684 30.684 0 0 0-1.435-.539c-.11-.039-.222-.076-.333-.114a34.838 34.838 0 0 0-1.567-.493l-.079-.021a37.912 37.912 0 0 0-1.615-.417c-.123-.029-.245-.059-.37-.087a42.45 42.45 0 0 0-1.757-.362c-.107-.02-.217-.037-.326-.056a49.426 49.426 0 0 0-1.715-.271c-.104-.015-.205-.031-.31-.045a53.892 53.892 0 0 0-1.994-.225l-.457-.041a59.192 59.192 0 0 0-2.172-.154l-13.501-50.451a87.492 87.492 0 0 0 .182-1.838l.013-.145c.03-.341.06-.705.09-1.09l.011-.142c.031-.408.062-.835.091-1.288l.003-.042c.093-1.448.173-3.118.217-4.965v-.006c.16-6.706-.161-15.753-2.09-25.082l.016.159c-2.525-12.289-7.828-25.078-18.508-33.636 0 0-17.145 15.487 4.489 38.299l7.694 2.241c-3.564 3.564-2.851 10.693-2.851 10.693s-11.553 14.817-4.183 24.703c2.936 2.921-4.371 17.891-33.585 21.368-12.465 1.483-26.088 1.049-36.848-4.703l3.236 8.609s-3.268 30.257-5.361 45.342l23.851-.048-.048-43.838c11.105 1.421 22.956.218 33.375-3.088l.373.736c1.649-1.102 23.201-8.964 23.201-8.964s6.882 19.631 10.097 27.875c0 0-4.06 2.792-3.8 3.254 38.139 1.069 23.759 23.85 23.759 23.85l17.938-.036s.234-1.079.324-2.813v-.004a24.723 24.723 0 0 0 .027-.719z" fill="#f28a1c"/><path d="M159.55 171.276c-2.548-23.387-15.451-26.155-28.895-24.553-16.42 1.958-29.914 31.084-24.149 69.404 3.232 21.485 16.112 32.779 34.932 30.057s26.239-16.768 23.675-32.257z" fill="#fffcc8"/><path d="M237.741 284.33c-4.867-6.361-12.909-10.057-23.924-10.999l-12.803-47.841c.86-8.354 3.232-43.935-15.618-64.979-9.517-10.625-22.902-16.013-39.783-16.013-1.727 0-3.516.057-5.317.17-1.98.039-30.303.71-41.149 7.182a196.87 196.87 0 0 1-3.007 1.744c-8.136 4.657-19.277 11.037-21.184 22.729-1.53 9.387 3.158 20.148 14.33 32.881.208 1.799.732 4.986 1.722 11.012 1.835 11.17 2.621 13.97 2.943 14.908 2.331 13.33 5.456 31.296 6.716 38.549-10.078 1.1-17.354 4.562-21.658 10.312-4.061 5.427-5.273 12.769-3.416 20.674l.006.023.172 2.592 2.813-.005 55.856-.113 2.997-.007-.003-2.997-.044-40.505c2.105.172 4.247.258 6.4.258 7.543 0 15.244-1.062 22.431-3.084l22.623 44.576.836 1.646 1.846-.004 47.811-.097 2.414-.005.512-2.359c.1-.456 2.345-11.272-4.522-20.248zm1.591 19.612-47.811.097-23.758-46.811c-7.518 2.386-15.781 3.676-23.972 3.676a73.96 73.96 0 0 1-9.404-.588v.011c-18.958-2.948-23.987-14.605-23.987-14.605 4.259 12.096 15.182 16.212 23.99 17.492l.045 40.941-55.856.113c-.042-.62-7.895-26.022 25.607-27.873 0 0-4.335-24.949-7.325-42.043-1.396-3.733-4.746-26.46-4.732-26.462-30.872-34.661-4.676-45.571 8.554-53.465 10.444-6.231 39.735-6.76 39.735-6.76a82.199 82.199 0 0 1 5.194-.168c58.597 0 53.568 67.274 52.359 78.229l13.501 50.45c33.511 1.716 27.86 27.766 27.86 27.766z" fill="#740806"/><path d="M230.115 164.045c-18.04-13.35-43.048-19.093-44.992-19.213-4.83-.298-20.502.275-23.476 7.157-2.993 6.925 6.745 20.183 12.659 27.322 11.791 14.234 31.718 14.981 31.718 14.981-2.609.178-12.409.361-12.002 16.414 0 0-6.114 5.824-5.644 11.563s18.926 22.713 31.527 17.834c20.962-8.116 19.642-24.443 20.023-24.595l.067-.028c.385-.162 19.815-29.459-9.88-51.435z" fill="#fbb807"/><path d="M230.115 164.045c-18.04-13.35-43.048-19.093-44.992-19.214-3.134-.194-10.828-.018-16.66 2.007 10.224 1.452 95.089 25.918 62.677 63.548 5.221 3.693 3.941 9.083.98 14.703-4.497 8.535-16.307 10.069-16.307 10.069s-20.695-8.176-26.02-12.743c-.512-.439-.459-3.473-.858-3.991-.422 1.241-.664 2.542-.558 3.843.47 5.739 18.926 22.713 31.527 17.834 20.962-8.116 19.642-24.443 20.023-24.594l.067-.028c.386-.161 19.816-29.458-9.879-51.434z" fill="#f28a1c"/><path d="M231.9 161.634c-18.962-14.033-44.76-19.683-46.592-19.796a9.011 9.011 0 0 0-.616-.018c-2.444.005-4.979.957-7.359 2.634 1.181.367 2.228.901 3.149 1.563 1.41-.758 2.84-1.194 4.216-1.197.142 0 .285.004.425.012 1.944.12 26.953 5.863 44.992 19.214 29.695 21.976 10.265 51.272 9.881 51.434l-.067.028c-.381.151.939 16.478-20.023 24.594-1.542.597-3.17.867-4.844.87-12.003.024-26.271-13.667-26.684-18.704-.47-5.739 5.645-11.563 5.645-11.563-.407-16.052 9.393-16.235 12.002-16.414 0 0-19.927-.748-31.718-14.981a.347.347 0 0 1-.015-.02c-.601 3.763 3.188 7.543 6.198 9.565 5.118 3.438 10.522 5.478 15.028 6.688-3.451 3.619-4.47 8.993-4.506 13.958-1.967 2.147-6.085 7.365-5.624 13.011.597 7.294 16.832 21.485 29.68 21.459 2.102-.004 4.094-.365 5.921-1.073 9.167-3.55 20.362-10.967 21.8-26.163.676-.931 1.566-2.462 2.726-5.016 1.359-2.993 3.12-7.742 3.794-13.37 1.194-9.987-.855-24.465-17.409-36.715z" fill="#740806"/><g><path d="M197.218 82.232c28.718-21.627 13.509-49.747 13.509-49.747l-36.569 14.243c-20.304-11.999-38.954-11.695-52.632-8.319L90.964 12.875s-23.466 21.88-2.95 51.619c-9.555 14.592-21.918 34.573-21.088 39.075.633 3.433 2.886 4.366 5.505 3.249-1.151 3.625-1.473 7.262.138 10.061 1.565 2.718 3.689 3.095 5.625 1.747 8.867 18.306 47.861 38.328 47.861 38.328s47.397-2.377 63.526-19.403c1.363 1.127 3.176 1.062 5.138-.672 2.419-2.139 3.275-5.688 3.34-9.491 2.126 1.894 4.559 1.729 6.254-1.323 1.596-2.873-3.088-25.876-7.095-43.833z" fill="#fbb807"/><path d="M204.383 125.892c1.367-3.473-3.224-26-7.165-43.66 28.718-21.627 13.509-49.747 13.509-49.747l-36.569 14.243c-7.676-4.536-15.114-7.311-22.138-8.83 6.075 4.081 19.702 12.219 19.702 12.219s15.146 15.137 14.917 52.59c18.667 8.582 18.375 21.246 17.744 23.185z" fill="#f28a1c"/><path d="M186.639 102.708c-8.678-3.989-21.449-7.096-40.196-7.83 0 0 3.099-24.013-7.336-25.722s-15.641 21.999-15.641 21.999c-38.999-11.081-57.881 5.135-56.539 12.413.633 3.433 2.886 4.366 5.505 3.249-1.151 3.625-1.473 7.262.138 10.061 1.565 2.718 3.689 3.095 5.625 1.747 17.515 30.65 47.861 38.328 47.861 38.328s43.954 1.779 63.526-19.403c1.363 1.127 3.176 1.062 5.138-.672 2.419-2.139 3.275-5.688 3.34-9.491 2.126 1.894 4.559 1.729 6.254-1.323a1.03 1.03 0 0 0 .069-.173c.631-1.938.923-14.602-17.744-23.183z" fill="#fffcc8"/><path d="M189.201 103.97s5.161 5.296 5.116 9.984c-.064 6.593-6.908 2.48-6.908 2.48 5.937 16.683-5.291 14.665-5.291 14.665-21.792 22.798-54.963 21.339-54.963 21.339s-24.22-6.494-48.092-32.359c17.629 29.426 46.991 36.874 46.991 36.874s43.954 1.779 63.526-19.403c1.363 1.127 3.176 1.062 5.138-.672 2.419-2.139 3.275-5.688 3.34-9.491 2.126 1.894 4.559 1.729 6.254-1.323.625-1.122 1.582-13.257-15.111-22.094z" fill="#e5ba97"/><path d="M158.819 122.118c1.155-.69 2.16-1.493 2.947-2.456.795-.961 1.363-2.104 1.568-3.355a6.909 6.909 0 0 0-.033-2.32c4.133.574 8.28.197 7.715-1.162-3.821-.386-6.92-1.13-9.277-1.89a1.838 1.838 0 0 0-.511-.169 30.553 30.553 0 0 1-3.779-1.545c-1.082-.538-2.188.721-1.487 1.704.57.801 1.716 1.564 3.181 2.097.029.116.066.23.118.341.445.977.523 1.72.427 2.347-.096.545-1.725 2.569-2.445 3.037-1.27.821-3.031 1.557-5.13 2.142-3.144.877-7.039 1.749-11.176 1.57-8.989-.387-8.237-4.783-8.237-4.783s-.118-8.614-.868-8.677c-.763-.065-3.036 7.968-3.036 7.968s-1.727 4.576-10.321 2.488c-3.307-.804-6.065-2.529-8.33-4.066-2.075-1.394-3.65-2.906-4.589-4.333-.469-.713-.787-1.401-.957-2.041a4.394 4.394 0 0 1-.103-1.845c.125-.728.441-1.481 1.081-2.3l.072-.124.086.004c1.552.024 2.886-.306 3.658-.866.866-.628.292-1.996-.766-1.85-1.981.274-6.359.569-12.398-.807-.799.913 2.073 2.264 5.404 3a8.14 8.14 0 0 0-.784 2.346 8.04 8.04 0 0 0 .182 3.387c.509 1.917 1.532 3.792 3.167 5.273 7.72 6.997 14.152 9.085 18.756 9.363 0 0-2.849 8.041 5.593 9.423s8.896-7.086 8.896-7.086c9.937 2.985 20.39-4.228 21.376-4.815z" fill="#740806"/><path d="M107.694 97.914c.288-1.758-3.676-3.872-8.853-4.72-5.179-.848-9.609-.109-9.897 1.649s3.676 3.871 8.854 4.719 9.608.11 9.896-1.648zM181.914 110.067c.288-1.758-3.676-3.872-8.853-4.72-5.179-.848-9.609-.109-9.897 1.649s3.676 3.871 8.854 4.719c5.177.849 9.608.11 9.896-1.648zM133.641 97.885c-29.762-4.873-9.479 11.434-2.071 12.647s31.834-7.773 2.071-12.647z" fill="#e93e8f"/><path d="M129.127 100.4c-.638-.435-1.554-.79-2.602-.962-1.352-.221-2.592-.083-3.353.306-.425.217-.702.513-.761.869-.163.994 1.415 2.08 3.524 2.426 2.11.345 3.952-.181 4.115-1.175.082-.5-.278-1.023-.923-1.464z" fill="#fff"/><path d="M194.897 78.001s-3.494-12.852-10.845-22.002l25.059-14.748c.001 0 6.96 23.241-14.214 36.75zM89.536 23.04c-2.505 4.777-11.033 21.376 2.453 38.11 0 0 4.817-7.79 10.006-12.985z" fill="#fffcc8"/><path d="M145.2 58.235s4.486-14.164 11.784-18.477c10.353.01 10.926 4.408 10.926 4.408zM134.427 56.2s-8.69-11.446-6.272-19.417l8.514-.894c-2.02 5.719-2.242 20.311-2.242 20.311z" fill="#f28a1c"/><g fill="#740806"><path d="M206.106 122.683c-.185-3.971-1.218-10.418-2.615-17.788-1.34-7.058-3.015-14.919-4.604-22.068 5.305-4.128 9.139-8.505 11.81-12.901 2.802-4.609 4.341-9.231 5.05-13.569 1.117-6.832.196-12.951-.997-17.367-1.194-4.418-2.664-7.144-2.704-7.219l-.63-1.165-37.143 14.467c-8.831-5.116-17.382-7.988-25.355-9.293-10.129-1.659-19.315-.817-27.006.996L90.91 10.875l-.968.903c-.062.058-2.324 2.174-4.864 5.979-2.538 3.805-5.363 9.31-6.483 16.141-.715 4.358-.727 9.255.476 14.545 1.144 5.037 3.405 10.428 7.151 16.054-4.285 6.563-9.06 14.1-12.953 20.837-2.028 3.51-3.816 6.799-5.174 9.634a50.53 50.53 0 0 0-1.694 3.896c-.442 1.176-.758 2.213-.913 3.149a7.47 7.47 0 0 0-.061.461h-.001v.007l-.002.014h.001c-.017.15-.03.322-.031.514h-.002v.022l-.001.01h.001c-.002.245.006.504.06.8.241 1.304.699 2.41 1.42 3.269a4.542 4.542 0 0 0 2.772 1.589c.245.04.492.053.739.056-.065.309-.14.618-.191.927-.225 1.375-.299 2.75-.147 4.092.152 1.34.536 2.653 1.226 3.851.505.876 1.087 1.597 1.764 2.146.674.549 1.455.918 2.272 1.051a4.616 4.616 0 0 0 2.171-.18c2.718 5.751 6.822 10.867 11.506 15.331 7.611 7.248 16.725 12.819 23.949 16.603 7.223 3.781 12.558 5.767 12.601 5.783l.228.085.243.009c.061.001 11.598.407 25.427-1.841 6.916-1.126 14.407-2.915 21.34-5.779 6.522-2.698 12.549-6.368 17.103-11.379.317.132.645.237.989.293.817.135 1.676.034 2.491-.271.818-.305 1.601-.803 2.359-1.472 1.037-.916 1.819-2.038 2.391-3.26.572-1.224.94-2.55 1.166-3.926.051-.309.078-.625.114-.938.235.075.472.142.718.183a4.547 4.547 0 0 0 3.134-.622c.958-.585 1.745-1.488 2.39-2.647.229-.423.32-.81.392-1.229.126-.801.137-1.738.087-2.882zm-3.101 2.634-.011.033c-.459.823-.931 1.294-1.318 1.527-.396.232-.698.28-1.089.224-.412-.065-.946-.313-1.529-.834l-2.441-2.175-.056 3.269a20.654 20.654 0 0 1-.251 2.971c-.19 1.163-.495 2.226-.922 3.138-.429.914-.973 1.675-1.661 2.284-.54.478-1.024.763-1.418.908-.397.146-.696.164-.96.122-.268-.046-.525-.158-.811-.392l-1.146-.947-.957 1.138c-4.203 5-10.17 8.733-16.809 11.475-9.953 4.117-21.367 5.986-30.267 6.801-4.451.409-8.275.557-10.98.603-1.352.023-2.425.021-3.157.012-.366-.004-.647-.01-.835-.014l-.033-.001c-1.461-.561-10.573-4.173-20.574-10.433-5.142-3.217-10.511-7.132-15.18-11.663-4.672-4.531-8.634-9.673-11.022-15.324l-.72-1.704-1.518 1.057c-.642.44-1.132.534-1.547.469-.262-.045-.539-.157-.868-.421-.326-.263-.693-.687-1.053-1.312-.458-.796-.731-1.691-.845-2.694-.114-1.001-.064-2.105.127-3.268.153-.938.397-1.912.71-2.897l.99-3.116-3.007 1.282c-.719.307-1.305.372-1.716.302-.389-.071-.66-.214-.961-.56-.294-.347-.594-.948-.765-1.883l-.001-.003a1.537 1.537 0 0 1-.01-.24v-.032c0-.041.003-.11.015-.207l.001-.011.001-.01c.009-.088.022-.187.04-.295.101-.624.358-1.516.759-2.575 1.403-3.73 4.505-9.493 8.205-15.729 3.701-6.244 8.007-13 11.857-18.88l.552-.844-.573-.83c-3.899-5.654-6.141-10.967-7.253-15.863s-1.097-9.383-.441-13.396c1.028-6.283 3.648-11.411 6.018-14.96a38.941 38.941 0 0 1 3.118-4.078c.142-.161.261-.29.383-.424l30.074 25.127.738-.182c7.519-1.855 16.553-2.76 26.548-1.124 7.81 1.28 16.212 4.108 24.962 9.278l.628.371 35.949-14.002a38.047 38.047 0 0 1 1.934 5.578c1.088 4.104 1.894 9.72.88 15.905-.655 3.994-2.062 8.23-4.654 12.496-2.593 4.265-6.375 8.566-11.817 12.665l-.772.581.21.943c1.879 8.42 3.906 17.951 5.36 25.968.727 4.007 1.31 7.636 1.658 10.541.174 1.451.29 2.721.337 3.753.049 1.027.02 1.832-.053 2.26-.02.114-.039.196-.053.242zM65.452 103.844v-.002l-.001-.002z"/></g><path d="M135.339 39.773s-2.141-.255-3.519.816c-1.232.957-2.436 4.759 1.75 5.842 5.367 1.388 16.63-2.775 16.407-8.11-.537-.453-16.965-16.318-21.035-9.813-1.419 2.268-.744 5.241.803 7.219 2.103 2.687 5.594 4.046 5.594 4.046z" fill="#fbb807"/><path d="M144.395 44.653c-3.285 1.572-7.332 2.38-10.153 1.918a7.376 7.376 0 0 1-.672-.141c-4.187-1.083-2.982-4.885-1.75-5.842 1.379-1.071 3.519-.816 3.519-.816s-3.491-1.36-5.593-4.046c-1.547-1.978-2.222-4.951-.804-7.219.868-1.387 2.299-1.757 4.017-1.476 6.338 1.038 16.583 11.671 17.006 12.028 0 0 2.799.229 2.754-.854L152.668 37l-.922-.778-.177-.165c-5.25-4.856-12.663-10.833-18.167-11.734-4.009-.656-5.972 1.428-6.787 2.729-2.192 3.503-1.092 7.73.97 10.365.532.68 1.124 1.286 1.733 1.82-1.021 1.274-1.697 3.232-1.284 5.229.466 2.26 2.234 3.944 4.848 4.621.292.076.601.14.916.191 3.668.602 10.876-3.72 10.597-4.625z" fill="#740806"/><path d="M128.072 81.446c.068-.535.109-1.064.145-1.592.643-9.599-3.894-17.775-10.583-18.615-7.053-.887-13.821 6.723-15.113 16.996-1.027 8.182 1.734 15.571 6.461 18.695 1.208.798 2.54 1.333 3.976 1.513.44.055.878.077 1.314.068 6.565-.141 12.589-7.432 13.8-17.065z" fill="#fff"/><path d="M107.884 54.9a20.658 20.658 0 0 1 4.127-2.8c6.783-3.467 13.676-.655 17.133 5.32.384.664 1.326.052 1.176-.761-.899-4.864-3.232-11.552-9.277-12.254-6.593-.767-11.409 5.186-13.993 9.502-.439.731.226 1.523.834.993z" fill="#740806"/><path d="M172.923 75.33c-1.701.479-3.62.605-5.744.257-4.699-.769-7.725-3.385-9.277-6.677-5.731 2.066-10.445 8.414-11.52 16.45a26.197 26.197 0 0 0-.183 1.93c-.288 5.101 1.01 9.815 3.394 13.287 2.144 3.125 5.166 5.245 8.715 5.721 2.657.354 5.267-.274 7.626-1.633 4.73-2.725 8.436-8.442 9.371-15.445.692-5.197-.269-10.115-2.382-13.89z" fill="#fff"/><g fill="#740806"><path d="M102.522 78.234c1.292-10.272 8.06-17.883 15.113-16.996 6.688.841 11.226 9.016 10.583 18.615l.033-.209c1.384-11.014-3.626-20.714-11.189-21.665-7.565-.951-14.819 7.208-16.203 18.222-.733 5.825.336 11.268 2.613 15.258 1.413 2.477 3.292 4.386 5.512 5.469-4.729-3.123-7.489-10.512-6.462-18.694zM180.512 70.106c-6.853 4.26-15.983 3.579-21.857-3.374a24.623 24.623 0 0 1-3.232-4.927c-.418-.843-1.556-.384-1.43.576.191 1.451.495 3.085.968 4.756-4.337 3.251-7.631 8.907-8.537 15.682a27.13 27.13 0 0 0-.225 4.471 25.15 25.15 0 0 1 .183-1.93c.946-7.071 4.712-12.828 9.506-15.52 1.601 3.956 4.342 7.686 9.057 9.256 3.384 1.127 6.497.457 9.206-1.022 1.215 3.285 1.689 7.124 1.153 11.146-.935 7.003-4.641 12.719-9.371 15.445 3.33-1.376 6.306-4.091 8.481-7.696 1.715-2.842 2.935-6.232 3.433-9.955.518-3.879.167-7.601-.837-10.888 1.746-1.434 3.25-3.108 4.443-4.654.573-.742-.179-1.839-.941-1.366z"/><path d="M167.664 91.639c.581-.927-.409-2.001-1.43-1.608-3.339 1.363-9.236 2.707-13.341-2.241-.712-.859-2.072-.373-2.018.742.191 2.79 1.962 6.417 7.111 7.505 5.235 1.135 9.116-3.404 9.678-4.398zM124.213 84.667c.581-.927-.409-2.001-1.43-1.608-3.339 1.364-9.236 2.707-13.341-2.241-.712-.859-2.072-.373-2.018.742.191 2.79 1.962 6.417 7.111 7.505 5.235 1.135 9.115-3.404 9.678-4.398zM138.887 135.325s-7.69 6.808-16.528.395c.334 7.474 13.383 10.455 16.528-.395z"/></g></g><g><path d="m71.995 141.232 1.707-16.311.004-.019c5.445-15.455 21.763-11.472 25.112-11.254 0 0-2.512-18.599 8.252-19.022s8.941 12.573 2.395 24.282c0 0 6.814 6.905 3.514 15.053-.53 1.309-2.019 2.721-3.777 3.54l-19.664 67.54s-33.488 14.268-44.407-10.848c-10.918-25.113 26.864-52.961 26.864-52.961z" fill="#fbb807"/><path d="M107.071 94.626a8.348 8.348 0 0 0-.904.086c5.657 1.437 5.142 4.536 5.033 7.942-.169 5.254-2.798 11.012-6.3 16.418 0 0 6.875 10.623 3.983 13.879-2.056 2.315-6.683 10.693-6.683 10.693l-16.235-3.094 12.225 6.035s-13.187 42.236-20.317 51.683c-2.498 3.31-13.455 11.317-29.667 1.285 13.058 17.533 41.333 5.49 41.333 5.49l19.664-67.54c1.758-.819 3.247-2.231 3.777-3.54 3.3-8.148-3.514-15.053-3.514-15.053 6.546-11.711 8.369-24.707-2.395-24.284z" fill="#f28a1c"/><path d="M116.244 96.09c-1.197-2.042-3.673-4.475-8.668-4.475-.203 0-.412.004-.623.013-3.048.12-5.667 1.384-7.575 3.655-3.465 4.125-3.927 10.757-3.816 14.964a39.968 39.968 0 0 0-4.04-.217c-10.309 0-17.448 4.798-20.646 13.875l-.008.024-.008.024-.042.126-.032.137-.007.028-.009.041c-.035.163-.035.163-.813 7.603l-.81 7.744c-6.391 4.982-37.549 30.954-26.766 55.758 4.746 10.917 14.143 16.688 27.173 16.688 10.998 0 20.751-4.102 21.161-4.275l1.307-.558.397-1.364 19.315-66.346c1.863-1.157 3.351-2.782 4.025-4.446 2.949-7.284-.541-13.596-2.705-16.537 2.602-5.099 7.102-15.793 3.19-22.462zm-3.265 37.872c-.53 1.309-2.019 2.721-3.777 3.54l-19.664 67.54s-9.474 4.036-19.985 4.036c-9.253 0-19.31-3.126-24.421-14.884-10.919-25.114 26.863-52.962 26.863-52.962l1.707-16.311.004-.019c3.532-10.025 11.64-11.872 17.815-11.872 1.761 0 3.365.15 4.661.304.509.06 3.86 4.682 4.265 4.735.521.067-1.942-4.441-1.629-4.421 0 0-2.512-18.599 8.252-19.022.171-.007.34-.01.504-.01 9.802 0 8.458 11.785 2.625 22.93-1.264.03-4.582.187-7.949 1.087-2.013.545-4.057 1.346-5.711 2.671-.824.664-1.549 1.47-2.066 2.443a7.003 7.003 0 0 0-.811 3.327c0 .542.056 1.102.168 1.678.323 1.655.841 3.021 1.509 4.135.046.078.103.138.151.213-1.828 1.009-3.406 1.396-4.695 1.396-1.676-.007-2.91-.616-3.789-1.519a4.87 4.87 0 0 1-1.358-3.353c.001-.553.107-1.1.309-1.624.305-.547.46-.937.48-.985l-2.673-1.334c-.206.334-.377.68-.525 1.031a6.673 6.673 0 0 1-.613.88c-.317.385-.694.738-1.092.975a2.454 2.454 0 0 1-1.291.373c-.191 0-2.793-.955-3.024-1.008-.807-.186-.594 3.624 3.024 4.008.974.103 1.854-.276 2.588-.672a7.867 7.867 0 0 0 2.014 3.792c1.414 1.478 3.503 2.444 5.95 2.437 2.038 0 4.298-.649 6.685-2.073.034-.02.062-.047.094-.07.474.352.959.658 1.448.877 1.34.602 2.649.805 3.687.76 3.322-.147 3.559-3.533 3.559-3.533s-1.262.146-2.059.369h-.001c-.079.021-.69.164-1.499.164-.984 0-2.212-.206-3.278-.966-.538-.383-1.055-.908-1.519-1.679-.463-.771-.87-1.796-1.137-3.166a5.774 5.774 0 0 1-.113-1.103c.002-.759.168-1.365.46-1.918.505-.96 1.479-1.795 2.79-2.465 1.953-1.009 4.563-1.58 6.717-1.858a34.02 34.02 0 0 1 4.068-.294h.019c.023 0 .045-.005.068-.006 1.796 2.507 4.534 7.652 2.195 13.426z" fill="#740806"/></g><g><path d="M210.125 68.829a17.787 17.787 0 0 1 5.104.113c1.802.304 3.298.948 4.49 1.935.949.784 1.526 1.741 1.732 2.871.206 1.128-.093 2.182-.9 3.157a3.15 3.15 0 0 1-1.933 1.137 6.485 6.485 0 0 1-2.344-.021 62.585 62.585 0 0 0-2.293-.288 12.537 12.537 0 0 0-2.362-.04 7.089 7.089 0 0 0-2.217.528c-.696.291-1.314.761-1.852 1.412a3.891 3.891 0 0 0-.872 1.88c-.11.685-.153 1.413-.13 2.185s.075 1.592.157 2.458c.081.866.078 1.752-.01 2.659-.09.908-.302 1.84-.636 2.795-.334.954-.904 1.921-1.71 2.897-.56.677-1.335 1.325-2.327 1.943a19.388 19.388 0 0 1-3.291 1.623 23.157 23.157 0 0 1-3.812 1.091c-.585.116-1.165.207-1.737.276-.735.088-1.459.138-2.174.15a14.27 14.27 0 0 1-3.614-.39c-1.136-.28-2.085-.734-2.843-1.361-.84-.695-1.394-1.54-1.663-2.539s-.023-1.958.74-2.879a4.45 4.45 0 0 1 1.875-1.356 11.42 11.42 0 0 1 2.358-.617c.208-.032.417-.061.629-.087a21.15 21.15 0 0 1 1.99-.141 26.36 26.36 0 0 0 2.494-.177l.092-.011a10.9 10.9 0 0 0 2.29-.535 4.007 4.007 0 0 0 1.774-1.235c.65-.786 1.037-1.822 1.166-3.108.128-1.284.217-2.649.269-4.088.05-1.44.177-2.852.385-4.231.207-1.382.702-2.545 1.487-3.493.963-1.164 2.288-2.134 3.978-2.905a19.182 19.182 0 0 1 5.321-1.552c.13-.023.26-.041.389-.056m11.959 19.961c.252-.03.507-.052.763-.065a11.832 11.832 0 0 1 4.17.543 11.099 11.099 0 0 1 3.773 2.058 8.83 8.83 0 0 1 1.179 1.181c.352.429.607.88.765 1.351.156.473.196.962.119 1.469s-.329 1.019-.755 1.532c-.531.642-1.125 1.001-1.784 1.081a2.354 2.354 0 0 1-.453.011 18.68 18.68 0 0 1-2.659-.386 11.749 11.749 0 0 0-2.759-.262l-.256.019c-.811.098-1.562.563-2.251 1.396-.404.489-.635 1.004-.695 1.546a5.546 5.546 0 0 0 .064 1.661c.103.564.233 1.163.393 1.797.16.635.251 1.281.278 1.941.024.66-.072 1.356-.29 2.088s-.651 1.491-1.301 2.277c-.941 1.138-2.156 2.013-3.646 2.629a14.533 14.533 0 0 1-4.656 1.077 14.463 14.463 0 0 1-4.765-.487c-1.564-.426-2.901-1.099-4.011-2.018-.461-.382-.893-.795-1.298-1.244s-.711-.92-.92-1.411-.295-1.008-.259-1.548c.037-.539.28-1.082.727-1.623.627-.758 1.263-1.223 1.91-1.398a4.234 4.234 0 0 1 1.962-.054 8.787 8.787 0 0 1 1.954.658c.641.301 1.273.541 1.903.72a4.407 4.407 0 0 0 1.733.156l.06-.007c.567-.079 1.097-.416 1.589-1.013.471-.568.735-1.342.792-2.322.058-.979.101-2.038.131-3.178.028-1.139.145-2.286.349-3.441.203-1.155.695-2.206 1.48-3.154.964-1.164 2.091-2.046 3.384-2.642a10.782 10.782 0 0 1 3.28-.938m26.065 8.867c.898-.108 1.713.139 2.446.746.433.358.711.807.838 1.344.126.538.133 1.092.027 1.664a6.494 6.494 0 0 1-.605 1.725 8.602 8.602 0 0 1-1.014 1.556 15.374 15.374 0 0 1-1.501 1.565c-.551.502-1.283 1.084-2.194 1.742.506.328.844.553 1.018.673.175.121.329.235.464.348.46.381.907.819 1.341 1.315s.781 1.013 1.046 1.549c.263.537.4 1.074.414 1.609a2.147 2.147 0 0 1-.518 1.453c-.377.455-.887.722-1.529.799l-.136.013c-.706.055-1.471-.031-2.289-.251a12.541 12.541 0 0 1-2.431-.949c-.8-.411-1.521-.838-2.161-1.276-1.083.977-2.044 1.905-2.884 2.783s-1.694 1.758-2.559 2.639c-.436.415-.869.844-1.302 1.285-.434.44-.851.905-1.255 1.393-.292.352-.62.775-.984 1.272a5.985 5.985 0 0 0-.844 1.596 3.619 3.619 0 0 0-.151 1.757c.094.603.452 1.161 1.076 1.677.378.314.8.606 1.263.873.462.268.896.57 1.303.906.704.583 1.01 1.246.918 1.993-.092.745-.452 1.499-1.078 2.256-.471.57-1.049.923-1.735 1.063a4.77 4.77 0 0 1-.374.06 5.085 5.085 0 0 1-1.746-.103c-.727-.169-1.465-.449-2.214-.84s-1.408-.822-1.977-1.292c-1.924-1.592-3.212-3.079-3.868-4.466s-.866-2.757-.632-4.116c.233-1.358.833-2.733 1.801-4.122a68.062 68.062 0 0 1 3.433-4.481 80.225 80.225 0 0 1 3.298-3.739 114.3 114.3 0 0 1 3.777-3.821c-.379-.314-.683-.553-.91-.719s-.41-.305-.545-.417c-.867-.719-1.462-1.528-1.783-2.434-.322-.905-.161-1.751.49-2.537.398-.482.931-.764 1.599-.844l.026-.003c.68-.078 1.415-.016 2.209.183.794.201 1.588.492 2.388.879a16.63 16.63 0 0 1 2.158 1.238 28.013 28.013 0 0 1 2.247-2.384 15.287 15.287 0 0 1 2.723-2.094c.946-.563 1.886-.914 2.822-1.052zm18.933 15.662c.896-.108 1.712.14 2.444.746.432.357.712.807.839 1.345a4.03 4.03 0 0 1 .026 1.664 6.42 6.42 0 0 1-.604 1.725 8.646 8.646 0 0 1-1.014 1.557 15.359 15.359 0 0 1-1.5 1.564c-.553.503-1.286 1.084-2.196 1.742.505.328.844.552 1.019.672.173.122.327.237.464.349.46.382.907.819 1.341 1.316a7.129 7.129 0 0 1 1.045 1.549 3.85 3.85 0 0 1 .414 1.609 2.157 2.157 0 0 1-.517 1.454c-.377.457-.888.722-1.531.799l-.134.013c-.707.055-1.471-.031-2.29-.251a12.305 12.305 0 0 1-2.43-.951 19.587 19.587 0 0 1-2.163-1.275 55.17 55.17 0 0 0-2.883 2.783c-.84.879-1.694 1.758-2.56 2.639-.436.415-.869.844-1.302 1.285-.432.441-.85.905-1.254 1.393-.292.352-.621.775-.985 1.272a5.909 5.909 0 0 0-.841 1.597 3.583 3.583 0 0 0-.153 1.757c.094.603.452 1.161 1.076 1.678.379.314.8.606 1.263.873.462.268.897.571 1.303.906.704.583 1.011 1.246.92 1.992-.093.745-.452 1.498-1.079 2.256-.47.569-1.048.924-1.735 1.063-.124.025-.25.045-.375.06a5.055 5.055 0 0 1-1.745-.104 9.369 9.369 0 0 1-2.214-.84 11.409 11.409 0 0 1-1.977-1.292c-1.924-1.592-3.212-3.079-3.869-4.466-.655-1.387-.865-2.757-.632-4.116.234-1.358.833-2.733 1.801-4.122a67.673 67.673 0 0 1 3.434-4.481c1.053-1.273 2.153-2.519 3.298-3.739s2.405-2.494 3.777-3.821c-.38-.315-.683-.553-.91-.72a11.4 11.4 0 0 1-.546-.416c-.867-.719-1.462-1.529-1.783-2.434-.322-.905-.16-1.751.491-2.536.398-.482.931-.764 1.599-.844l.024-.003c.681-.077 1.416-.015 2.209.183.793.2 1.588.492 2.387.88.798.387 1.517.799 2.158 1.238.628-.759 1.377-1.552 2.247-2.384s1.778-1.529 2.724-2.094c.945-.563 1.886-.914 2.822-1.052zm16.412 12.725c.171-.021.342-.033.512-.036.834-.017 1.616.278 2.348.884.651.537.955 1.257.916 2.16-.04.903-.296 1.901-.766 2.994-.471 1.093-1.094 2.232-1.867 3.417a57.865 57.865 0 0 1-2.395 3.391 70.59 70.59 0 0 1-2.363 2.938 194.44 194.44 0 0 0-1.769 2.096 32.988 32.988 0 0 1-1.543 1.701c-.671.7-1.414 1.432-2.226 2.196a34.288 34.288 0 0 1-2.62 2.215 24.464 24.464 0 0 1-2.693 1.809c-.865.494-1.672.806-2.421.941l-.185.028c-.668.08-1.223-.063-1.67-.433-.595-.492-.863-1.204-.801-2.134.061-.93.326-1.967.792-3.109a25.652 25.652 0 0 1 1.833-3.582 63.376 63.376 0 0 1 4.652-6.656c.736-.92 1.307-1.622 1.71-2.109l1.53-1.849c.616-.745 1.305-1.509 2.067-2.293s1.56-1.525 2.393-2.229a12.883 12.883 0 0 1 2.535-1.701 6.094 6.094 0 0 1 2.031-.639m13.406 11.089c.171-.021.34-.033.51-.036.835-.017 1.618.279 2.349.884.65.538.955 1.257.915 2.161-.039.903-.295 1.901-.766 2.994-.469 1.094-1.094 2.232-1.867 3.417a57.065 57.065 0 0 1-2.395 3.391 69.997 69.997 0 0 1-2.363 2.939c-.754.882-1.343 1.582-1.768 2.096a33.462 33.462 0 0 1-1.542 1.7c-.672.7-1.415 1.433-2.227 2.196a34.043 34.043 0 0 1-2.619 2.215 24.518 24.518 0 0 1-2.694 1.809c-.865.494-1.672.807-2.421.941l-.189.028c-.664.08-1.219-.064-1.665-.433-.596-.492-.864-1.205-.802-2.135.061-.93.325-1.966.792-3.109s1.078-2.336 1.835-3.581a64.032 64.032 0 0 1 4.651-6.657c.736-.92 1.307-1.622 1.71-2.109l1.53-1.849a38.917 38.917 0 0 1 2.068-2.294 32.704 32.704 0 0 1 2.392-2.229 12.987 12.987 0 0 1 2.535-1.701 6.13 6.13 0 0 1 2.031-.638m-37.087 16.351c.302-.036.611-.04.926-.014a5.7 5.7 0 0 1 1.629.389c.531.212.986.475 1.367.788a4.21 4.21 0 0 1 1.32 1.879c.257.737.094 1.46-.488 2.164-.382.46-.82.769-1.318.929-.218.07-.44.119-.667.146-.29.035-.588.035-.892.001a5.112 5.112 0 0 1-1.559-.432 6.067 6.067 0 0 1-1.352-.846 4.392 4.392 0 0 1-1.321-1.879c-.285-.76-.145-1.477.415-2.155a2.519 2.519 0 0 1 1.27-.833 4.35 4.35 0 0 1 .67-.137m13.405 11.091c.302-.036.61-.041.926-.015a5.76 5.76 0 0 1 1.629.389c.531.212.986.475 1.367.789a4.205 4.205 0 0 1 1.321 1.879c.256.736.093 1.459-.489 2.163-.381.46-.82.77-1.316.93a3.665 3.665 0 0 1-1.56.148 5.167 5.167 0 0 1-1.558-.434 6.004 6.004 0 0 1-1.352-.846 4.386 4.386 0 0 1-1.321-1.879c-.284-.76-.146-1.478.415-2.155a2.532 2.532 0 0 1 1.27-.833c.217-.064.441-.109.668-.136M209.767 65.85a22.334 22.334 0 0 0-6.599 1.853c-2.095.957-3.792 2.208-5.042 3.721-1.134 1.369-1.855 3.039-2.142 4.962a39.948 39.948 0 0 0-.417 4.57 63.695 63.695 0 0 1-.255 3.897c-.068.675-.234 1.179-.493 1.492a1.026 1.026 0 0 1-.474.323 7.887 7.887 0 0 1-1.654.382l-.074.009c-.702.084-1.446.137-2.212.156-.785.021-1.548.075-2.273.162-.246.03-.49.063-.731.101a14.571 14.571 0 0 0-2.972.78 7.448 7.448 0 0 0-3.114 2.246c-1.373 1.662-1.843 3.64-1.323 5.571.432 1.605 1.323 2.974 2.648 4.071 1.105.915 2.464 1.574 4.038 1.962 1.383.338 2.854.498 4.375.476a24.225 24.225 0 0 0 2.489-.171 26.031 26.031 0 0 0 1.96-.312 26.034 26.034 0 0 0 4.306-1.233 22.4 22.4 0 0 0 3.803-1.878c1.26-.786 2.286-1.651 3.05-2.575 1.029-1.244 1.779-2.528 2.232-3.818a15.14 15.14 0 0 0 .79-3.489c.107-1.096.111-2.183.013-3.236a34.948 34.948 0 0 1-.146-2.268 8.674 8.674 0 0 1 .093-1.619c.016-.1.056-.245.221-.443.226-.274.453-.454.697-.556a4.093 4.093 0 0 1 1.104-.287l.194-.019a9.526 9.526 0 0 1 1.799.031 63.75 63.75 0 0 1 2.134.267 9.488 9.488 0 0 0 3.351.015 6.163 6.163 0 0 0 3.725-2.18c1.374-1.661 1.906-3.6 1.539-5.609-.33-1.812-1.289-3.418-2.772-4.644-1.596-1.321-3.582-2.189-5.903-2.58a21.077 21.077 0 0 0-5.965-.13zm11.959 19.962a13.89 13.89 0 0 0-4.184 1.192c-1.692.78-3.186 1.942-4.435 3.452-1.116 1.348-1.831 2.878-2.125 4.548a26.168 26.168 0 0 0-.393 3.884 94.967 94.967 0 0 1-.125 3.076 1.99 1.99 0 0 1-.09.535 1.996 1.996 0 0 1-.274-.059 9.608 9.608 0 0 1-1.444-.547c-.853-.4-1.733-.697-2.62-.881a7.25 7.25 0 0 0-3.345.092c-1.261.34-2.419 1.141-3.447 2.385-.854 1.033-1.328 2.154-1.409 3.331a6.316 6.316 0 0 0 .493 2.93 8.122 8.122 0 0 0 1.45 2.242c.5.554 1.043 1.073 1.614 1.547 1.434 1.188 3.162 2.063 5.135 2.601a17.471 17.471 0 0 0 6.746.494 17.63 17.63 0 0 0 4.609-1.206c1.944-.803 3.563-1.978 4.815-3.491.903-1.092 1.531-2.214 1.865-3.332.31-1.04.448-2.067.412-3.053a12.601 12.601 0 0 0-.366-2.564 24.067 24.067 0 0 1-.351-1.601 2.634 2.634 0 0 1-.042-.714l.034-.044c.171-.208.289-.297.34-.33a8.812 8.812 0 0 1 1.988.2c.777.167 1.545.294 2.292.375-.73 1.369-.842 2.9-.302 4.417.35.988.9 1.902 1.641 2.727-.534.545-1.048 1.079-1.539 1.602a82.076 82.076 0 0 0-3.424 3.883 71.41 71.41 0 0 0-3.585 4.68c-1.216 1.747-1.989 3.54-2.295 5.33-.34 1.969-.045 3.957.877 5.905.852 1.804 2.379 3.602 4.667 5.495.725.6 1.566 1.152 2.499 1.641.978.51 1.962.881 2.929 1.104a8.085 8.085 0 0 0 2.779.16c.206-.025.41-.058.614-.099 1.354-.277 2.545-.999 3.449-2.09.995-1.203 1.582-2.479 1.745-3.799.219-1.775-.485-3.434-1.982-4.673a12.844 12.844 0 0 0-1.708-1.19 6.095 6.095 0 0 1-.855-.588l-.033-.027.031-.128c.094-.273.232-.534.418-.784.333-.454.627-.835.879-1.138.355-.429.717-.832 1.083-1.203.412-.42.819-.824 1.23-1.215l.038-.036.037-.037c.874-.89 1.736-1.779 2.585-2.667.344-.36.715-.734 1.112-1.119.13.07.263.139.397.208.979.503 1.995.899 3.015 1.176.682.184 1.35.3 1.999.348a5.574 5.574 0 0 0 .329 2.196 8.186 8.186 0 0 0 1.643 2.731 95.828 95.828 0 0 0-1.54 1.604 83.74 83.74 0 0 0-3.423 3.881 70.99 70.99 0 0 0-3.586 4.682c-1.214 1.74-1.987 3.535-2.295 5.326-.339 1.972-.043 3.959.876 5.906.855 1.807 2.381 3.604 4.668 5.496a14.468 14.468 0 0 0 2.5 1.641c.976.509 1.961.88 2.929 1.104a8.08 8.08 0 0 0 2.778.16c.206-.025.41-.058.614-.099 1.352-.275 2.545-.997 3.449-2.09.994-1.201 1.581-2.479 1.745-3.798.218-1.775-.487-3.434-1.983-4.673a12.53 12.53 0 0 0-1.711-1.191 6.17 6.17 0 0 1-.855-.589l-.029-.025.029-.119c.098-.286.235-.545.419-.793.328-.448.623-.827.88-1.138a18.82 18.82 0 0 1 1.084-1.206c.409-.417.819-.821 1.231-1.214l.036-.035.035-.035c.875-.891 1.738-1.78 2.588-2.668.345-.36.716-.734 1.113-1.12.131.07.265.14.399.208.972.501 1.988.898 3.012 1.176 1.151.311 2.262.427 3.305.347l.263-.025a5.379 5.379 0 0 0 2.416-.889c-.334.411-.735.906-1.2 1.487a66.21 66.21 0 0 0-2.42 3.227 64.8 64.8 0 0 0-2.454 3.747 28.677 28.677 0 0 0-2.046 4.005c-.588 1.438-.927 2.8-1.009 4.046a6.67 6.67 0 0 0-.015.466 7.453 7.453 0 0 0-1.487.029c-.39.047-.778.125-1.152.235a5.547 5.547 0 0 0-2.742 1.802c-1.237 1.493-1.57 3.359-.912 5.117a7.366 7.366 0 0 0 2.219 3.139 9.056 9.056 0 0 0 2.012 1.26 8.07 8.07 0 0 0 2.476.687 6.639 6.639 0 0 0 2.809-.27c1.052-.339 1.962-.968 2.712-1.871 1.26-1.524 1.618-3.321 1.013-5.064l-.004-.011c.857-.234 1.738-.609 2.63-1.118a27.534 27.534 0 0 0 3.031-2.033 36.956 36.956 0 0 0 2.848-2.408 63.837 63.837 0 0 0 2.34-2.306 35.472 35.472 0 0 0 1.69-1.866c.416-.501.995-1.19 1.738-2.058a75.306 75.306 0 0 0 2.465-3.064 60.79 60.79 0 0 0 2.522-3.57c.867-1.33 1.578-2.633 2.113-3.873.613-1.426.952-2.787 1.008-4.047.078-1.841-.633-3.475-2.003-4.607-1.278-1.057-2.772-1.6-4.318-1.569-.27.005-.542.025-.81.057a9.174 9.174 0 0 0-3.018.932 15.872 15.872 0 0 0-3.128 2.092 36.7 36.7 0 0 0-2.606 2.428 42.48 42.48 0 0 0-2.228 2.473l-.173.209-.049.061a5.107 5.107 0 0 0 .425-2.172 6.868 6.868 0 0 0-.718-2.858 10.244 10.244 0 0 0-1.482-2.207 18.166 18.166 0 0 0-.344-.381c.455-.446.88-.905 1.267-1.374.515-.624.977-1.33 1.372-2.103a9.46 9.46 0 0 0 .884-2.537 7.029 7.029 0 0 0-.052-2.902 5.454 5.454 0 0 0-1.847-2.974c-1.367-1.131-2.997-1.62-4.716-1.413l-.178.023c-1.319.195-2.637.68-3.917 1.441a18.277 18.277 0 0 0-3.264 2.505c-.261.25-.514.498-.757.745l-.264-.131a15.455 15.455 0 0 0-2.964-1.088 10.015 10.015 0 0 0-1.949-.297l-.001-.108a6.88 6.88 0 0 0-.718-2.863 10.24 10.24 0 0 0-1.485-2.21 12.39 12.39 0 0 0-.342-.378 18.27 18.27 0 0 0 1.267-1.374c.514-.622.975-1.327 1.372-2.099a9.423 9.423 0 0 0 .883-2.535 6.99 6.99 0 0 0-.053-2.912 5.455 5.455 0 0 0-1.848-2.971c-1.364-1.129-2.994-1.618-4.713-1.411l-.179.023c-1.318.195-2.634.68-3.915 1.441a18.352 18.352 0 0 0-3.264 2.506c-.261.249-.515.498-.758.744l-.263-.129a15.502 15.502 0 0 0-2.961-1.088 10.218 10.218 0 0 0-1.429-.257 5.745 5.745 0 0 0 .796-2.137 6.07 6.07 0 0 0-.238-2.866 7.283 7.283 0 0 0-1.293-2.309 12.002 12.002 0 0 0-1.579-1.585 14.14 14.14 0 0 0-4.795-2.615 14.877 14.877 0 0 0-5.219-.677 9.473 9.473 0 0 0-.976.073zm74.815 48.343a9.199 9.199 0 0 0-3.016.931 16 16 0 0 0-3.128 2.091 36.206 36.206 0 0 0-2.608 2.431 41.79 41.79 0 0 0-2.227 2.471l-.254.307-1.277 1.543c-.409.494-.991 1.21-1.739 2.145a67.326 67.326 0 0 0-2.419 3.226 64.05 64.05 0 0 0-2.455 3.752 28.598 28.598 0 0 0-2.046 4.002c-.596 1.459-.925 2.783-1.009 4.046-.01.157-.015.313-.015.466a7.447 7.447 0 0 0-2.632.261 5.58 5.58 0 0 0-2.751 1.804c-1.234 1.492-1.569 3.356-.912 5.114a7.346 7.346 0 0 0 2.22 3.142c.602.499 1.28.924 2.012 1.26.779.358 1.608.59 2.465.688a6.748 6.748 0 0 0 2.819-.269c1.052-.338 1.963-.967 2.713-1.872 1.259-1.523 1.619-3.319 1.014-5.06l-.005-.014c.852-.232 1.734-.607 2.629-1.118a27.594 27.594 0 0 0 3.03-2.031 36.719 36.719 0 0 0 2.85-2.412 64.38 64.38 0 0 0 2.337-2.303 36.098 36.098 0 0 0 1.691-1.867c.417-.504.996-1.192 1.736-2.058a74.425 74.425 0 0 0 2.467-3.067 61.162 61.162 0 0 0 2.521-3.569c.871-1.336 1.582-2.638 2.114-3.875.613-1.423.952-2.785 1.008-4.048.08-1.835-.631-3.47-2.001-4.602-1.279-1.058-2.773-1.601-4.32-1.571a7.566 7.566 0 0 0-.812.056z" fill="#740806"/><path d="M278.46 167.617a4.19 4.19 0 0 0-1.321-1.879 5.09 5.09 0 0 0-1.367-.788 5.7 5.7 0 0 0-1.629-.389 4.357 4.357 0 0 0-1.596.151 2.532 2.532 0 0 0-1.27.833c-.56.677-.698 1.395-.415 2.155a4.392 4.392 0 0 0 1.321 1.879c.406.337.857.618 1.353.846a5.138 5.138 0 0 0 1.558.434 3.742 3.742 0 0 0 1.56-.148c.496-.159.935-.469 1.316-.93.584-.705.745-1.428.49-2.164zm14.825-14.735a70.653 70.653 0 0 0 2.363-2.939 57.056 57.056 0 0 0 2.394-3.391c.773-1.185 1.398-2.323 1.867-3.417.471-1.093.727-2.091.766-2.994s-.266-1.622-.915-2.16c-.731-.605-1.514-.9-2.349-.884-.835.017-1.681.24-2.54.671-.859.432-1.704.999-2.535 1.701a33.36 33.36 0 0 0-2.392 2.229 38.56 38.56 0 0 0-2.068 2.293l-1.53 1.849c-.404.488-.975 1.19-1.71 2.109a64.552 64.552 0 0 0-2.311 3.083 61.074 61.074 0 0 0-2.339 3.574 25.559 25.559 0 0 0-1.835 3.581c-.467 1.143-.731 2.179-.793 3.109s.206 1.642.802 2.135c.488.404 1.105.538 1.854.405.748-.133 1.556-.447 2.421-.941a24.377 24.377 0 0 0 2.694-1.809 33.826 33.826 0 0 0 2.618-2.214 59.454 59.454 0 0 0 2.228-2.196c.669-.7 1.183-1.266 1.542-1.7.425-.513 1.013-1.212 1.768-2.094zm-28.231 3.646a4.195 4.195 0 0 0-1.32-1.879 5.09 5.09 0 0 0-1.367-.788 5.7 5.7 0 0 0-1.629-.389 4.31 4.31 0 0 0-1.596.151 2.53 2.53 0 0 0-1.27.833c-.56.677-.7 1.394-.415 2.155a4.398 4.398 0 0 0 1.321 1.879 6.06 6.06 0 0 0 1.353.846c.497.228 1.017.371 1.559.432s1.062.013 1.559-.146c.497-.161.936-.469 1.318-.929.582-.706.744-1.429.487-2.165zm14.826-14.736a71.418 71.418 0 0 0 2.363-2.938 57.522 57.522 0 0 0 2.394-3.391c.773-1.185 1.397-2.323 1.867-3.417s.727-2.091.766-2.994c.038-.903-.266-1.622-.916-2.16-.731-.605-1.514-.9-2.348-.884-.835.017-1.682.241-2.54.671-.859.43-1.704.998-2.535 1.701a33.373 33.373 0 0 0-2.393 2.23 39.2 39.2 0 0 0-2.067 2.293l-1.53 1.849c-.403.488-.975 1.19-1.71 2.109a62.75 62.75 0 0 0-2.311 3.083 61.391 61.391 0 0 0-2.34 3.573c-.757 1.246-1.368 2.44-1.833 3.582-.467 1.143-.731 2.179-.793 3.109s.206 1.642.802 2.135c.488.404 1.105.537 1.855.405.749-.134 1.556-.447 2.421-.941a24.464 24.464 0 0 0 2.693-1.809 33.414 33.414 0 0 0 2.619-2.215 58.64 58.64 0 0 0 2.227-2.196c.67-.7 1.184-1.267 1.543-1.701.423-.512 1.012-1.211 1.766-2.094zm-32.15 7.762c.748.39 1.487.671 2.214.84a4.968 4.968 0 0 0 2.12.043c.686-.139 1.264-.493 1.736-1.063.627-.758.986-1.51 1.078-2.256.092-.745-.215-1.409-.919-1.992a9.568 9.568 0 0 0-1.302-.906 9.187 9.187 0 0 1-1.263-.872c-.623-.515-.982-1.074-1.076-1.678a3.596 3.596 0 0 1 .153-1.757 5.924 5.924 0 0 1 .841-1.597c.364-.496.693-.919.985-1.272a21.56 21.56 0 0 1 1.254-1.393c.432-.441.866-.869 1.302-1.285.866-.881 1.719-1.761 2.56-2.64a55.569 55.569 0 0 1 2.883-2.783c.64.439 1.361.865 2.163 1.275.798.412 1.61.729 2.43.951.819.221 1.584.306 2.289.251.706-.055 1.262-.325 1.665-.813.358-.433.529-.919.517-1.454a3.85 3.85 0 0 0-.414-1.609 7.165 7.165 0 0 0-1.045-1.549 11.74 11.74 0 0 0-1.342-1.315 6.505 6.505 0 0 0-.464-.349c-.175-.12-.514-.344-1.019-.672.91-.658 1.643-1.241 2.196-1.743a15.468 15.468 0 0 0 1.5-1.564 8.52 8.52 0 0 0 1.013-1.557c.295-.577.497-1.152.604-1.724s.1-1.127-.026-1.664a2.432 2.432 0 0 0-.839-1.345c-.758-.628-1.607-.871-2.543-.733-.936.139-1.876.489-2.823 1.052a15.24 15.24 0 0 0-2.723 2.094 28.468 28.468 0 0 0-2.246 2.384 16.747 16.747 0 0 0-2.158-1.238 12.398 12.398 0 0 0-2.387-.879c-.793-.2-1.529-.261-2.209-.184-.679.077-1.219.358-1.623.847-.651.785-.813 1.632-.491 2.536.321.906.916 1.716 1.783 2.435.136.112.316.251.546.416.228.167.53.405.911.72a113.34 113.34 0 0 0-3.777 3.821 79.511 79.511 0 0 0-3.298 3.739 67.854 67.854 0 0 0-3.434 4.481c-.969 1.39-1.568 2.764-1.802 4.123-.233 1.359-.023 2.729.632 4.116.656 1.387 1.945 2.874 3.869 4.466.572.473 1.23.905 1.979 1.296zm-18.932-15.662a9.43 9.43 0 0 0 2.214.84 4.952 4.952 0 0 0 2.12.043c.685-.14 1.263-.494 1.735-1.063.627-.758.986-1.51 1.078-2.256.092-.745-.214-1.409-.918-1.993a9.694 9.694 0 0 0-1.302-.906 9.276 9.276 0 0 1-1.263-.872c-.624-.516-.982-1.074-1.076-1.678a3.62 3.62 0 0 1 .151-1.757 5.928 5.928 0 0 1 .844-1.596c.364-.496.692-.92.984-1.272.404-.489.821-.953 1.255-1.393a49.12 49.12 0 0 1 1.302-1.285c.865-.881 1.718-1.761 2.559-2.639a55.569 55.569 0 0 1 2.883-2.783c.64.439 1.361.865 2.162 1.276.799.411 1.61.728 2.431.95.819.221 1.584.306 2.289.251.707-.055 1.262-.325 1.665-.813a2.15 2.15 0 0 0 .518-1.453 3.865 3.865 0 0 0-.414-1.609 7.134 7.134 0 0 0-1.046-1.549 11.659 11.659 0 0 0-1.342-1.315c-.136-.114-.289-.227-.464-.348s-.513-.345-1.019-.673c.911-.658 1.644-1.24 2.195-1.742a15.479 15.479 0 0 0 1.501-1.565c.381-.46.718-.981 1.014-1.556a6.413 6.413 0 0 0 .604-1.724 3.98 3.98 0 0 0-.027-1.664 2.427 2.427 0 0 0-.839-1.345c-.758-.628-1.606-.872-2.542-.733-.935.139-1.875.489-2.822 1.052a15.251 15.251 0 0 0-2.723 2.094 28.304 28.304 0 0 0-2.246 2.384 16.747 16.747 0 0 0-2.158-1.238c-.8-.387-1.594-.678-2.388-.879-.793-.2-1.529-.261-2.209-.184-.68.076-1.22.358-1.624.847-.651.785-.813 1.632-.49 2.537.322.907.916 1.716 1.783 2.434.135.112.316.251.545.417.227.166.531.405.91.719a115.262 115.262 0 0 0-3.777 3.821 79.511 79.511 0 0 0-3.298 3.739 68.2 68.2 0 0 0-3.434 4.481c-.968 1.39-1.568 2.764-1.801 4.122-.235 1.358-.024 2.729.632 4.116.655 1.387 1.944 2.874 3.868 4.466.572.472 1.231.903 1.98 1.294zm4.054-38.565a3.12 3.12 0 0 0-.119-1.468 4.283 4.283 0 0 0-.765-1.351 8.882 8.882 0 0 0-1.178-1.181 11.073 11.073 0 0 0-3.773-2.058 11.815 11.815 0 0 0-4.171-.543 10.85 10.85 0 0 0-4.044 1.001c-1.293.597-2.42 1.477-3.384 2.642-.785.949-1.277 2-1.48 3.154a23.161 23.161 0 0 0-.349 3.441 94.518 94.518 0 0 1-.131 3.177c-.057.98-.322 1.754-.792 2.322-.493.596-1.022.934-1.589 1.013a4.373 4.373 0 0 1-1.793-.149 12.442 12.442 0 0 1-1.904-.72 8.69 8.69 0 0 0-1.953-.657 4.182 4.182 0 0 0-1.962.054c-.647.174-1.283.64-1.91 1.398-.449.541-.691 1.084-.727 1.623-.036.541.05 1.058.26 1.548.209.492.516.962.92 1.411.404.448.837.862 1.298 1.244 1.111.92 2.447 1.591 4.012 2.019a14.49 14.49 0 0 0 4.765.487 14.555 14.555 0 0 0 4.655-1.076c1.49-.615 2.705-1.492 3.646-2.629.65-.785 1.083-1.544 1.301-2.277a6.477 6.477 0 0 0 .29-2.088 9.446 9.446 0 0 0-.278-1.941 26.886 26.886 0 0 1-.393-1.797 5.579 5.579 0 0 1-.064-1.661c.061-.543.292-1.058.695-1.546.762-.92 1.597-1.393 2.508-1.416.909-.024 1.829.063 2.759.262.93.2 1.816.329 2.659.386.841.058 1.587-.306 2.237-1.092.426-.514.677-1.025.754-1.532zm-11.401-21.58c-.206-1.129-.784-2.086-1.732-2.871-1.192-.987-2.688-1.631-4.49-1.935a17.858 17.858 0 0 0-5.493-.062 19.25 19.25 0 0 0-5.321 1.552c-1.69.771-3.015 1.74-3.978 2.905-.785.949-1.28 2.112-1.487 3.493a36.966 36.966 0 0 0-.386 4.231 65.723 65.723 0 0 1-.269 4.088c-.129 1.286-.516 2.322-1.166 3.107a4.02 4.02 0 0 1-1.774 1.236c-.715.254-1.477.432-2.291.534a26.46 26.46 0 0 1-2.586.188c-.909.024-1.783.099-2.618.228-.837.13-1.623.335-2.358.617a4.486 4.486 0 0 0-1.875 1.355c-.762.922-1.009 1.881-.74 2.879.269.999.824 1.846 1.663 2.54.758.627 1.706 1.081 2.844 1.361 1.138.278 2.341.407 3.614.389a22.028 22.028 0 0 0 3.911-.427 23.019 23.019 0 0 0 3.812-1.091 19.348 19.348 0 0 0 3.291-1.622c.991-.618 1.766-1.266 2.327-1.943.806-.975 1.376-1.941 1.71-2.897.334-.955.546-1.887.636-2.795.088-.907.091-1.794.011-2.659a37.533 37.533 0 0 1-.158-2.458c-.022-.772.02-1.5.13-2.185.111-.683.401-1.31.872-1.88.537-.651 1.154-1.121 1.852-1.412a7.172 7.172 0 0 1 2.217-.528 12.548 12.548 0 0 1 2.363.039c.795.087 1.559.184 2.293.288.789.15 1.57.158 2.344.021a3.141 3.141 0 0 0 1.933-1.137c.806-.967 1.106-2.02.899-3.149z" fill="#fffcc8"/></g></svg>