<svg id="Layer_1" height="512" viewBox="0 0 128 128" width="512" xmlns="http://www.w3.org/2000/svg" data-name="Layer 1"><path d="m67.03 88.16s-1.59 19.08-2.62 24.32c1.08.14 2.07.16 2.48.26 1.12.25 4.48-1.21 5.5-5.41.52-2.11 1.21-8.35 1.76-14.05v-.01a12.4 12.4 0 0 1 -7.12-5.11z" fill="#f5d8af"/><path d="m67.135 113.764a2.145 2.145 0 0 1 -.463-.048 9.274 9.274 0 0 0 -.931-.1c-.431-.034-.935-.075-1.459-.142a1 1 0 0 1 .257-1.985c.489.064.96.1 1.362.134a8.448 8.448 0 0 1 1.227.147c.585.109 3.412-1.059 4.29-4.675.419-1.7 1.035-6.636 1.736-13.909a1.019 1.019 0 0 1 1.044-.909 1 1 0 0 1 .952.994v.106c-.5 5.212-1.221 11.905-1.785 14.193-1.047 4.295-4.39 6.194-6.23 6.194z" fill="#4d4d4d"/><path d="m124.938 86.963c-.566 3.429 1.721 30.864-15.437 27.435 0 0-3.408-1.089-1.35-3.321s2.406-1.546 2.406-1.546q.147-.669.261-1.339a71.35 71.35 0 0 0 1.282-22.013s-3.179 1.372-8.416-3.691c0 0-2.232 8.416-12.368 7.643 0 0-1.872 10.255-3.984 18.638-1.274 5.063-2.635 9.439-3.734 10.474-2.918 2.743-9.4.849-9.5-1.895s2.635-2.231 2.635-2.231l.422-21.117s-7.642-1.039-10.125-5.84c0 0-1.72 20.686-2.754 24.9s-4.377 5.661-5.5 5.411-6.347 0-6.521-2.842 4.126-3.941 4.126-3.941.686-18.976-4.812-25.595c-.916-1.1-1.68-2.055-2.316-2.879a46.408 46.408 0 0 0 -8.322-8.394c-2.709-2.093-5.723-5.007-6.966-8.3 0 0-6.609-.338-7.817-1.8 0 0-7.98 8.219-13.043 6.085a19.941 19.941 0 0 1 -4.649-2.787c-2.756-2.218-4.592-4.952-4.363-7.075.141-1.394 1.513-2.961 3.005-4.29a8.861 8.861 0 0 0 3-7.708 26.857 26.857 0 0 1 .022-7.12 20.966 20.966 0 0 1 1.437-5.269 14.648 14.648 0 0 1 11.628-9.047s12.574-8.285 28.012 0c0 0 16.581-9.145 35.437-5.716s29.159 17.147 31.166 31.148c0 0 7.141 8.579 7.141 17.724s-3.146 10-3.146 10 3.72 2.868 3.143 6.298z" fill="#f5d8af"/><path d="m15.1 53.714c-.337 1.807-1.567 3.331-2.112 5.095-.707 2.33-.206 5.052-1.567 7.066a5.849 5.849 0 0 1 -2.962 2.144c-2.759-2.219-4.595-4.953-4.366-7.076.141-1.394 1.513-2.961 3.005-4.29a8.861 8.861 0 0 0 3-7.708 26.857 26.857 0 0 1 .022-7.12 17.577 17.577 0 0 1 2.28 3.615c1.35 2.493 3.266 5.28 2.7 8.274z" fill="#f2f2f2"/><path d="m117.949 87.627c-.7 3.669-.588 7.447-1.252 11.105s-2.341 7.425-5.563 9.3a2.846 2.846 0 0 1 -.316.163 71.35 71.35 0 0 0 1.282-22.016s-3.179 1.372-8.416-3.691c0 0-2.232 8.416-12.368 7.643 0 0-1.872 10.255-3.984 18.638-.534-2.025-.2-4.18-.131-6.271a24.767 24.767 0 0 0 -1.165-9.362c-1.35-3.7-6.524-5.616-7.134-9.513-.414-2.635 2.725-6.742 4.227-8.952a10.853 10.853 0 0 1 6.467-4.42c2.047-.468 4.333-.37 6.032-1.589 1.219-.882 1.916-2.276 2.863-3.419a9.582 9.582 0 0 1 10.822-2.634c2.014.849 3.679 2.4 5.737 3.135a20.8 20.8 0 0 1 2.842.98c2.035 1.078 2.983 3.5 3.157 5.8.416 5.152-2.12 10.029-3.1 15.103z" fill="#f2f2f2"/><path d="m79.725 121.579a9.42 9.42 0 0 1 -3.481-.671c-1.941-.791-3.089-2.073-3.149-3.516a3.066 3.066 0 0 1 .964-2.588 3.1 3.1 0 0 1 1.689-.7l.392-19.274c-1.755-.357-5.708-1.408-8.34-3.993-.5 5.724-1.725 19.083-2.551 22.457-1.154 4.709-5.02 6.534-6.692 6.145-.147-.034-.537-.066-.915-.1-2.01-.164-6.193-.506-6.383-3.651-.171-2.8 2.731-4.222 4.136-4.741.053-3.438.019-18.668-4.594-24.217-.861-1.036-1.643-2.009-2.325-2.893a45.572 45.572 0 0 0 -8.176-8.237c-3.47-2.683-5.829-5.41-7.022-8.118-1.769-.123-5.215-.479-7.029-1.458-2.06 1.953-8.73 7.728-13.537 5.7-4.964-2.095-10.055-6.855-9.618-10.894.161-1.487 1.3-3.137 3.468-5.045a7.711 7.711 0 0 0 2.538-6.774 25.446 25.446 0 0 1 1.532-12.844 15.572 15.572 0 0 1 12.223-9.629 29.637 29.637 0 0 1 28.339-.16c2.927-1.506 18.191-8.737 35.621-5.569 20.591 3.743 29.977 18.785 31.926 31.72 1.159 1.456 7.195 9.455 7.195 18.138 0 6.184-1.435 8.9-2.568 10.087 1.2 1.22 3.018 3.59 2.555 6.369-.071.427-.1 1.476-.123 2.69-.137 6.009-.424 18.515-6.819 23.636-2.561 2.051-5.816 2.7-9.675 1.929a3.907 3.907 0 0 1 -2.614-2.146 2.9 2.9 0 0 1 .665-2.76 4.959 4.959 0 0 1 2.35-1.784 72.172 72.172 0 0 0 1.512-21.334c-1.406.079-3.878-.366-7.143-3.156-1.184 2.464-4.441 7.188-11.931 6.977-1.1 5.932-5.022 26.114-7.867 28.792a6.558 6.558 0 0 1 -4.553 1.612zm-3.493-5.5a1.378 1.378 0 0 0 -.868.241 1.224 1.224 0 0 0 -.271.989c.025.6.773 1.287 1.906 1.748 1.849.753 4.473.807 5.912-.546 1.952-1.837 5.593-18.491 7.429-28.559a1.01 1.01 0 0 1 1.06-.817c9.148.7 11.238-6.594 11.323-6.905a1 1 0 0 1 1.661-.458c4.59 4.439 7.318 3.494 7.345 3.484a1.02 1.02 0 0 1 .883.078 1.006 1.006 0 0 1 .484.731c.823 6.979.313 14.723-1.559 23.677a1.018 1.018 0 0 1 -1.011.8c.008 0-.728.051-1.581 1.156-.17.222-.442.634-.35.913.126.381.845.734 1.184.831 3.221.64 5.849.14 7.956-1.548 5.667-4.538 5.939-16.413 6.07-22.12a26.784 26.784 0 0 1 .149-2.973c.464-2.788-2.737-5.308-2.769-5.333a1 1 0 0 1 .348-1.756c-.012 0 2.407-1.076 2.407-9.039 0-8.667-6.844-17-6.914-17.081a1 1 0 0 1 -.221-.5c-1.758-12.307-10.653-26.733-30.343-30.313-18.277-3.32-34.618 5.519-34.78 5.61a1.007 1.007 0 0 1 -.956 0 27.566 27.566 0 0 0 -26.988-.045 1.009 1.009 0 0 1 -.471.161 13.543 13.543 0 0 0 -10.787 8.433 23.457 23.457 0 0 0 -1.392 11.823 9.711 9.711 0 0 1 -3.206 8.527c-2.3 2.021-2.742 3.221-2.8 3.757-.282 2.647 3.723 6.855 8.41 8.835 3.631 1.531 9.855-3.711 11.946-5.861a1 1 0 0 1 1.489.061c.542.659 4.174 1.288 7.093 1.44a1 1 0 0 1 .884.646c.949 2.519 3.239 5.232 6.622 7.849a47.549 47.549 0 0 1 8.533 8.605c.628.813 1.379 1.753 2.28 2.837 5.674 6.826 5.067 25.472 5.039 26.262a1 1 0 0 1 -.746.931c-.035.009-3.495.978-3.377 2.922.086 1.413 3.1 1.659 4.549 1.778a9.574 9.574 0 0 1 1.2.141c.612.126 3.413-1.054 4.3-4.673 1-4.083 2.7-24.539 2.722-24.745a1 1 0 0 1 1.885-.377c2.217 4.283 9.306 5.3 9.378 5.308a1 1 0 0 1 .865 1.012l-.429 21.122a1 1 0 0 1 -1.185.962 1.973 1.973 0 0 0 -.308-.022z" fill="#4d4d4d"/><path d="m85.154 86.59s2.6 3.1 6.17 3.541" fill="#f5d8af"/><path d="m91.326 91.131a.847.847 0 0 1 -.123-.008c-3.917-.478-6.7-3.752-6.816-3.891a1 1 0 0 1 1.532-1.286c.024.029 2.406 2.811 5.527 3.193a1 1 0 0 1 -.12 1.992z" fill="#4d4d4d"/><path d="m67.025 88.156c-6.312-10.575 1.384-21.588 1.384-21.588" fill="#f5d8af"/><path d="m67.026 89.156a1 1 0 0 1 -.859-.487c-6.568-11 1.093-22.2 1.422-22.674a1 1 0 0 1 1.64 1.146c-.073.1-7.241 10.624-1.345 20.5a1 1 0 0 1 -.858 1.512z" fill="#4d4d4d"/><path d="m89.986 57.63c5.236-3.261 11.485-18.366 13.327-24.252s.908-12.754-3.073-17.465c-1.917-2.269-4.6-4.274-4.941-7.225 3.318-2.344 8.179-1.219 11.152 1.55s6.732 6.876 7.842 10.785c2.794 9.838.729 13.522-.537 20.293s-2.842 10.393-5.683 14.562" fill="#f5d8af"/><path d="m89.987 58.63a1 1 0 0 1 -.529-1.849c4.753-2.96 10.843-17.128 12.9-23.7 1.819-5.811.687-12.3-2.882-16.52-.446-.528-.935-1.04-1.424-1.554-1.695-1.781-3.448-3.624-3.747-6.2a1 1 0 0 1 .416-.932c3.935-2.781 9.331-1.233 12.41 1.635 3.058 2.847 6.949 7.108 8.123 11.242 2.322 8.179 1.367 12.329.261 17.134-.264 1.143-.536 2.325-.777 3.617-1.212 6.483-2.74 10.393-5.84 14.941a1 1 0 1 1 -1.652-1.127c2.569-3.77 4.211-7.147 5.526-14.181.249-1.333.526-2.536.793-3.7 1.088-4.724 1.947-8.456-.235-16.139-1.048-3.691-4.69-7.652-7.562-10.326-2.39-2.226-6.429-3.415-9.365-1.8.422 1.639 1.726 3.011 3.1 4.452.517.543 1.032 1.085 1.5 1.642 4 4.734 5.282 11.961 3.263 18.409-1.685 5.385-8.076 21.266-13.752 24.8a1 1 0 0 1 -.527.156z" fill="#4d4d4d"/><path d="m28.054 38.4c1.752 3.26 4.177 6.305 4.272 10.308.065 2.724-.983 5.479-1.3 8.235s.477 5.939 2.789 6.5c2.459.594 5.463.729 7.892-4.092 4.11-8.151 8.432-15.345 8.393-22.225s-.972-10.78-6.382-13.3c-1.829-.852-9.409-2.036-11.463-1.375-6.537 2.105-6.755 11.196-4.201 15.949z" fill="#f5d8af"/><g fill="#4d4d4d"><path d="m35.966 64.732a10.126 10.126 0 0 1 -2.382-.319c-2.948-.712-3.905-4.43-3.547-7.583a33.35 33.35 0 0 1 .625-3.4 20.065 20.065 0 0 0 .664-4.7c-.068-2.876-1.459-5.231-2.932-7.725-.418-.708-.836-1.415-1.221-2.132a15.283 15.283 0 0 1 -.71-12.108 8.719 8.719 0 0 1 5.488-5.265c2.4-.771 10.326.551 12.192 1.42 5.835 2.718 6.922 6.915 6.96 14.2.032 6.132-3.25 12.487-6.726 19.216-.586 1.137-1.177 2.29-1.777 3.464-1.971 3.919-4.391 4.932-6.634 4.932zm-7.031-26.8c.372.693.776 1.377 1.181 2.062 1.538 2.6 3.129 5.3 3.209 8.7a21.8 21.8 0 0 1 -.71 5.174 31.766 31.766 0 0 0 -.591 3.2c-.264 2.322.358 5.008 2.03 5.413 2.142.516 4.607.711 6.764-3.572.594-1.178 1.193-2.337 1.782-3.479 3.5-6.786 6.532-12.647 6.5-18.288-.035-6.721-.882-10.106-5.8-12.4-1.636-.761-8.965-1.9-10.735-1.328a6.69 6.69 0 0 0 -4.245 4.112 13.362 13.362 0 0 0 .617 10.413z"/><path d="m3.819 57.483a2.675 2.675 0 0 1 2.574-.749 2.675 2.675 0 0 1 1.885 1.905 3.7 3.7 0 0 1 -.262 2.261c-.484 1.182-2.325 4.856-3.757 2.883-1.159-1.592-1.922-4.712-.44-6.3z"/><path d="m5.182 65.358a2.106 2.106 0 0 1 -1.732-.983c-1.363-1.875-2.25-5.554-.363-7.575a3.621 3.621 0 0 1 6.161 1.6 4.616 4.616 0 0 1 -.308 2.884c-.367.9-1.707 3.841-3.537 4.062a1.844 1.844 0 0 1 -.221.012zm-.632-7.194c-1.076 1.155-.412 3.754.518 5.035a.6.6 0 0 0 .16.17 6.7 6.7 0 0 0 1.862-2.844 2.782 2.782 0 0 0 .217-1.644 1.687 1.687 0 0 0 -1.166-1.181 1.694 1.694 0 0 0 -1.591.463z"/></g><path d="m100.676 72.376a2.514 2.514 0 0 1 3.148-.807" fill="#f5d8af"/><g fill="#4d4d4d"><path d="m100.675 73.368a1 1 0 0 1 -.831-1.547 3.493 3.493 0 0 1 4.383-1.167 1 1 0 0 1 -.806 1.83 1.477 1.477 0 0 0 -1.92.457 1.009 1.009 0 0 1 -.826.427z"/><path d="m21.173 44.692h-1.782a1 1 0 0 1 0-2h1.782a1 1 0 0 1 0 2z"/></g></svg>