<svg id="Layer_3" enable-background="new 0 0 1000 1000" height="1000" viewBox="0 0 1000 1000" width="1000" xmlns="http://www.w3.org/2000/svg"><g><path d="m873.2 723.8c-8.2 6.8-11.4 25.4-14.5 31.3-3.2 5.9-18.2 5.4-18.2 5.4s-70.4 121.2-195.7 83.1c0 0-20-20 31.8-59.9 51.8-40 21.7-91.9 15.9-101.3 0 0 2.7-11.8 4.6-29.3-6.8 39.9-24.7 63.8-24.7 63.8-31.8 92.6-244.8 79.8-343.4 25.9-39.3-21.5-102.7-110.7-27.5-235 2.2-10 24.6-111 56.6-131.1 0 0 11.6-5.8 46.5 55.5-27.3.4-52.3 18.1-70.9 36.4 44.1-38.3 104.2-45.4 154.1-42.7-12.3-1.3-25-2.3-37.4-2.6 263.3-248.8 402.3-58.8 428.6 2.8s18.1 87 18.1 87c61.9 128.1-15.8 203.9-23.9 210.7z" fill="#fec55a"/><path d="m361.7 759.3c-15.4 11.2-104.2 76.8-164.7 89.6-59.4 12.5-77.4-5.5-77.4-5.5-24.1-28.9 44.9-53.9 59.4-61 14.4-7.1 100.5-96.9 100.5-96.9 38.7 70.6 82.2 73.8 82.2 73.8zm400-730.6c-27.8 50.4-66.2 67.4-93.1 88-144.5 118.8-36.3 189.7-36.3 189.7l24.9-6.2c-56.5-88.6-18.8-125 101.2-180.9 120.1-55.9 34.5-147.4 3.3-90.6zm-495.2 616.7 2.9-58.6s-38.7 14-40.6 39 37.7 19.6 37.7 19.6z" fill="#fea142"/><path d="m654.4 418.3-25 2.7c-46.3-50.4-139.8-27.7-139.8-27.7l40.9-33.1c73-8.2 123.9 58.1 123.9 58.1zm2.8-118.2-32.4 12.8s165.7 19.1 171.2 161.6c0 0-3.2 24.7 5.9 25.9 9.1 1.1 4.1 5.2 4.3 9.5s9.3 7.5 10.2-11.8c.9-19.2-12-162.2-159.2-198zm158.1 47 .2.2c-.1-.1-.2-.2-.2-.2zm37.2 37.6-37.1-37.4c2.4 2.5 30.8 32.3 28.1 76.9-2.9 46.5-2.6 50.7 2.6 53 5.1 2.2 13.2.3 16.4-32.4 3.2-32.8-10-60.1-10-60.1zm-143.8 107.5s13.2 9.3 17 31.8c3.9 22.5 7.7 25.7 13.5 24.7s8-28.9-25.7-77.7zm-288.9-52.6s-33.7 47.2-36.6 101.4c-2.3 42.7 3.9 60.3 10.9 61.3 7.1 1 8.2-4.8 8.7-43.3.6-44.9 32.4-99.4 36.3-110.4 2.7-7.7-7.3-21.7-19.3-9zm76.4 5.3c-5.8 3.3-47 94.9-55.9 153.6-2.8 18.5-5.1 55.1 2.5 61.7 5.1 4.4 12.7 3.2 18.4-44s39.4-143.6 53.6-163.8c7-10-13.4-14.2-18.6-7.5zm51.7 30.3c-4.6 10.3-5.4 45.2-22.8 84.1-15.6 34.9-18.6 39.8-13.2 45.6 5.5 5.8 19.3-.6 36-51.7 16.7-51 24.4-92.1 0-78z" fill="#dc8b4a"/><path d="m672.4 525.6c-1.9-10.9-66.8-58.4-66.8-58.4 55.9-39.2 77.4-26.3 77.4-26.3 6.4 27.6-10.6 84.7-10.6 84.7z" fill="#f9eba5"/><path d="m212 980.8c-122.1 39-140.3-71.7-130.7-63.1 9.5 8.6 47.7 10.9 47.7 10.9 36.3-40.6 59.5-34.8 66.3-16.7l1.4-1c7.3-5 31.3-12.7 39 24.5 7.6 37.3-23.7 45.4-23.7 45.4z" fill="#afc4c8"/><path d="m353.2 686.8c-.5 2.8-2.9 4.8-5.7 4.8-.3 0-.7 0-1-.1-13.1-2.4-55.6-40.2-68.4-51.8-2.4-2.1-2.5-5.8-.4-8.1 2.1-2.4 5.8-2.5 8.1-.4 24.9 22.6 55.9 47.8 62.6 49 3.3.5 5.4 3.5 4.8 6.6zm305.9-34.4c-.4.2-38.3 22.5-74.2 51.2-2.5 2-2.9 5.6-.9 8.1 1.1 1.4 2.8 2.2 4.5 2.2 1.3 0 2.5-.4 3.6-1.3 35.2-28.1 72.5-50 72.8-50.2 2.7-1.6 3.7-5.1 2.1-7.9s-5.2-3.7-7.9-2.1zm-5 38.9c-1.2.6-2.1 1.2-2.9 1.8-2.8 2-9.4 6.8-56.3 20.1-3.1.9-4.8 4.1-4 7.1.5 1.9 1.9 3.3 3.6 3.9-1.3.6-2.3 1.7-2.9 3.2-1.1 3 .4 6.3 3.4 7.4.5.2 7.8 2.7 21.2 2.7 7 0 15.7-.7 26-2.8 3.1-.6 5.1-3.7 4.5-6.8s-3.7-5.1-6.8-4.5c-24.9 5.2-39.1 1.1-40.7.6 47.8-13.6 54.9-18.7 58.8-21.5.5-.3.7-.5.9-.6 2.9-1.3 4.2-4.7 2.9-7.6-1.3-3-4.8-4.3-7.7-3zm-249.7 8.9c2.5 0 4.9-1.7 5.6-4.3.8-3.1-1-6.2-4-7.1-15.8-4.3-42.5-36.1-51.5-48-1.9-2.5-5.5-3-8.1-1.1-2.5 1.9-3.1 5.5-1.1 8.1 3.5 4.7 35.2 46.1 57.7 52.2.4.2.9.2 1.4.2zm56.5-6.4h.6c2.9 0 5.4-2.2 5.7-5.2.3-2.9 3.2-5.9 4.3-6.7 2.5-2 2.9-5.6 1-8.1-2-2.5-5.6-3-8.1-1-.8.6-7.7 6.2-8.6 14.5-.4 3.3 1.9 6.2 5.1 6.5zm-22.9 32.4c.5.1 1 .1 1.5.1 5.5 0 21.1-4.4 25.1-11.3 1.5-2.6 1.5-5.6 0-8.1-2.2-3.6-6.8-5.7-24.2-5.7-9.6 0-18.9.7-19.3.7-1.7.1-3.2.9-4.2 2.3-1 1.3-1.4 3-1.1 4.6 1.5 7.9 15.8 16.5 22.2 17.4zm98.8-7.3c-3.2 0-5.8 2.6-5.8 5.8 0 1.3-.3 3.2-2.9 5.5-7.5 6.7-26.1 8.8-30.6 8.3-46.6-5.6-83.7-9.7-101.6-6.3-5.2 1-6.7-.8-7.2-1.4-2.6-3-2.3-9.4-1.7-11.4 1.4-2.4.9-5.6-1.4-7.4-2.5-2-6.1-1.6-8.1.9-2.9 3.7-3.8 15.5.8 23 2.3 3.8 7.9 9.8 19.8 7.6 16.3-3.1 54.1 1.1 98.1 6.4.8.1 1.8.1 3 .1 8.8 0 27-2.7 36.6-11.2 4.4-3.9 6.8-8.8 6.8-14.2-.1-3.1-2.6-5.7-5.8-5.7zm-49.3-17.4c.6 0 1.1-.1 1.7-.3 8.6-2.7 84.8-26.3 98.1-36.2 2.5-1.9 3.1-5.5 1.2-8.1-1.9-2.5-5.5-3.1-8.1-1.2-8.8 6.6-61.4 24.2-94.5 34.4-3 .9-4.8 4.2-3.8 7.2.7 2.6 3 4.2 5.4 4.2zm190.5-174.2c-.7 2.5-3 4.1-5.5 4.1-.1 0-.2 0-.3 0-2.6-.2-4.8-2-5.3-4.6-2.5-6.6-35.4-33.6-64.5-54.9-1.5-1.1-2.4-2.9-2.4-4.7 0-1.9.9-3.6 2.5-4.7 34.6-24.3 57.1-29.4 69.8-29.4 8.7 0 13.1 2.4 13.9 2.8 1.3.8 2.3 2.1 2.7 3.6 6.4 28.8-10.2 85.4-10.9 87.8zm0-82.1c-1.3-.3-3.3-.6-5.9-.6-8.4 0-26.6 3.1-56.5 22.8 6.3 4.7 16.3 12.3 26.3 20.4 14.3 11.5 22.9 19.3 28.1 24.6 4.2-16.8 11-48.1 8-67.2zm238.9 220.7c-14.5 40.8-39.7 62.2-40 62.4-4.3 3.6-7.3 13.1-9.5 20-1.3 3.9-2.3 7.3-3.6 9.6 0 .1-.1.1-.1.2-.2.4-.4.7-.6 1-.1.2-.3.4-.4.5-.2.2-.3.4-.5.6s-.4.4-.6.6c-.1.1-.3.3-.4.4-.2.2-.5.4-.8.6-.1.1-.2.2-.3.2-4.7 3.3-11.6 4.1-16.2 4.3-.7 1.1-1.6 2.5-2.7 4.1-4.6 8.1-10.3 16.2-17.2 24.1-23.7 27.2-53.6 46.6-86.5 56.1-14.7 4.2-29.5 6.3-43.8 6.3-5.9 0-11.7-.4-17.3-1.1-10.9-1.1-22-3.4-33.1-6.8-.9-.3-1.7-.8-2.4-1.4-.5-.5-3.5-3.7-4.8-9.5-.8-1.6-1.3-3.2-1.6-4.6-2.5-13 9.5-27.1 16.1-33.8 5.6-6.4 12.7-12.9 21.3-19.6 16.2-17.2 25-35.3 26.5-53.9.8-10.1-.9-19-3.1-25.9-1.1-2.7-2.2-5.2-3.4-7.4-6.1 14.8-12.3 24.1-14.2 26.8-16.1 45.2-74.8 71.1-161.2 71.1-51.8 0-107.6-9.8-152.2-26l-.2.1c-68 49.6-126.9 81.5-165.7 89.7-15.8 3.3-28.9 4.6-39.6 4.6-30.3 0-41.5-10.1-43-11.6-.1-.1-.2-.3-.4-.4-6.9-8.3-7-16.1-5.8-21.2 5-21.3 40.9-37.1 60.1-45.5 2.9-1.3 5.4-2.4 7-3.1 9.6-4.7 63.4-58.8 96.6-93.4-2.8-6.7-5.2-13.8-7.2-21.3-.9-3.5-1.7-7.1-2.4-11-1.6.1-3.5.2-5.8.2-8.6 0-20.8-1.4-28.3-8.5-4.8-4.5-7-10.7-6.4-17.9 1.9-24.6 32.5-39.1 41.8-43 4.8-23 14.4-48.8 31.2-76.8 3.3-15 25.7-112.9 59-133.8.2-.1.3-.2.5-.3.1 0 .1-.1.2-.1.1-.1.3-.1.4-.2 5.1-2 13.5.7 27.3 18 .1.1.1.2.2.3.5.6.9 1.2 1.4 1.8.2.2.3.4.5.7.3.4.6.8 1 1.3.3.4.6.8.9 1.2s.5.7.8 1.1.5.7.8 1.1c.2.3.5.6.7 1 .5.6.9 1.3 1.4 1.9.2.3.4.6.6.8.3.4.6.9.9 1.3.2.4.5.7.7 1.1.4.7.9 1.3 1.3 2 .2.4.5.7.7 1.1.3.4.5.8.8 1.3.4.7.9 1.4 1.4 2.1.2.4.5.7.7 1.1.3.5.7 1.1 1 1.6.2.3.4.7.6 1 .5.8 1.1 1.7 1.6 2.6.2.3.3.5.5.8.5.7.9 1.5 1.4 2.3.1.2.3.5.4.7.6 1 1.2 2 1.8 3 .1.1.1.2.2.3.6 1 1.1 1.9 1.7 2.9.1.2.2.4.3.6 0 0 0 .1.1.1 11.9-2.7 24.4-4.6 37.6-5.6.1-.1.2-.3.3-.4 0-.1.1-.1.1-.2.2-.3.4-.6.7-.8 61.1-57.7 119.6-95.8 174.9-113.9-11.5-10-31.9-32.3-33.7-65.6-2.2-40.6 23.8-83.4 77.1-127.3.1 0 .1-.1.2-.1 6-4.6 12.4-8.9 19.2-13.4 24-16.1 51.3-34.4 72.4-72.7 8.6-15.6 22.4-23.2 37.1-20.3 16.6 3.2 29.9 18.6 32.2 37.5 1.8 14.5-1 51.5-65 81.3-67.7 31.5-111.7 57.8-121.5 91.4-6.1 21 .8 46.4 21.7 79.6 11.2-1.8 22.3-2.6 33.2-2.6 42.6 0 81.8 13.3 116.6 39.4 37 27.7 61.2 64.1 72.5 89 .1.2.2.4.3.7.1.1.1.3.2.4.2.5.4 1 .6 1.5 18.4 43.1 20.3 69.4 19.6 82-.2 2.9-.5 5.1-.8 6.6 6.2 13.1 11.2 26.1 14.9 38.9 4.7 16.1 7.4 31.9 8.2 47.4 1 22.9-2.2 45.4-9.7 66.7zm-12.1-.6c.4-1.1.8-2.2 1.2-3.4 11.5-32.5 12.3-67.3 2.2-103.9-3.8-13.9-9.2-28-16.1-42.4-.3-.7-.5-1.4-.6-2.1 0-.7 0-1.5.3-2.2 0-.1.8-3 .9-9.2.1-11.9-2.5-35.6-18.8-73.8-.2-.5-.4-1-.7-1.5 0-.1-.1-.2-.1-.3-.2-.4-.3-.8-.5-1.1-.1-.3-.3-.6-.4-.9s-.3-.6-.4-.9c-.2-.4-.4-.9-.6-1.3-.1-.2-.2-.4-.3-.5-21.4-44.1-81.3-117.5-176.6-117.5-65.4 0-137.2 33.5-213.9 99.7-.2.2-.5.4-.7.6-2.3 2-4.6 4-6.9 6.1-.5.4-.9.8-1.4 1.2-1.9 1.7-3.8 3.4-5.7 5.2-.4.3-.7.6-1.1 1 8 .5 16.1 1.2 24 2 45.5 2.5 82.2 12.9 92 15.9 43.3-25.1 111.4-30.3 125.3-31.1 1.2-.1 2-.1 2.3-.1h.1.1.3c.2 0 .5 0 .7.1.1 0 .2 0 .3.1.2.1.5.1.7.2.9.3 1.7.9 2.3 1.6.2.2.3.4.5.7 0 0 .1.1.1.1.1.2.2.4.3.7 0 .1.1.1.1.2.1.2.2.5.2.7 0 .1 0 .1.1.2 0 .1 0 .2.1.3v.1c12.6 58.7-14.2 133.8-19.5 147.8 4.7 11.9 7.4 24.8 8.8 37.7 3.1 21.7 2.2 41-.4 57.2-1.4 13.2-3.3 23.5-4.3 28.3 2.1 3.4 5.4 9.5 7.9 17.7 2.4 6.6 4.5 14.3 5.2 22.7 2.4 26.1-8.6 49.3-31.7 67.2-.2.1-.3.3-.5.4-5.2 5.5-11.1 10.9-17.6 16.1-1 .9-2 1.8-3.1 2.9-8.7 10.1-11.5 17.6-12 22.9-.1 1.3-.1 2.5 0 3.5 1.5 2 4.2 3.8 8.1 5.2 7.3 2.5 15.3 4.4 23.8 5.3 4.7.4 9.3.7 13.9.7 75.7 0 124-60.4 138.3-80.9 31.1-55.3 8.1-113-10.2-144.7-1.6-2.8-.6-6.3 2.1-7.9 2.8-1.6 6.3-.6 7.9 2.1 17.9 31 40 85.4 18 140.2 2.6-.5 4.3-1.2 4.7-1.8.7-1.3 1.7-4.4 2.7-7.6 2.8-8.7 6.3-19.6 13.2-25.3.1-.1 4.4-3.7 10.3-10.8 7.1-8.6 15.8-21.5 22.8-37.8.1-.2.1-.3.2-.5.3-.7.6-1.4.8-2 .3-.7.6-1.4.8-2.1.3-.5.4-.7.5-1zm-269.9-364.2c4.7-1.3 9.4-2.4 14-3.4-20.9-34.4-27.5-61.6-20.6-85.1 11.1-37.9 55.2-64.9 127.7-98.6 57.2-26.6 59.9-57.5 58.4-69.5-1.7-13.8-11.3-25.4-22.9-27.6-9.8-1.9-18.6 3.3-24.8 14.6-22.4 40.7-52.2 60.7-76 76.7-6.6 4.4-12.9 8.6-18.5 13-50.3 41.4-74.8 80.9-72.9 117.6 1.9 36.8 31 59 35.6 62.3zm-306.2 164.4c17.3-17.3 40.5-34.5 66.4-38.3-1.2-2.1-2.4-4-3.6-5.9-.1-.2-.3-.5-.4-.7-.4-.7-.9-1.4-1.3-2.1-.2-.3-.4-.7-.6-1-.4-.6-.8-1.2-1.2-1.8-.2-.4-.5-.7-.7-1.1-.4-.6-.7-1.1-1.1-1.7-.2-.4-.5-.7-.7-1.1-.3-.5-.7-1-1-1.5-.2-.4-.5-.7-.7-1.1-.3-.5-.6-.9-1-1.4-.2-.4-.5-.7-.7-1-.3-.4-.6-.9-.9-1.3-.2-.3-.5-.7-.7-1-.3-.4-.6-.8-.9-1.2-.2-.3-.5-.6-.7-.9-.3-.4-.6-.8-.8-1.1s-.4-.6-.7-.9c-.3-.4-.5-.7-.8-1-.2-.3-.4-.6-.6-.8-.2-.3-.5-.6-.7-1-.2-.3-.4-.5-.6-.8s-.5-.6-.7-.9-.4-.5-.6-.8-.4-.5-.6-.8-.4-.5-.6-.7-.4-.5-.6-.7c-.2-.3-.5-.5-.7-.8-.2-.2-.4-.4-.5-.6-.3-.4-.6-.7-1-1-.1-.1-.3-.3-.4-.4-.2-.2-.4-.5-.7-.7-.1-.1-.3-.3-.4-.4-.2-.2-.4-.4-.6-.6-.1-.1-.2-.2-.4-.4s-.4-.4-.5-.5-.2-.2-.3-.3c-.2-.2-.4-.3-.5-.5-.1-.1-.2-.2-.3-.3-.2-.2-.3-.3-.5-.4-.1-.1-.2-.2-.3-.2-.2-.1-.3-.3-.5-.4-.1-.1-.2-.1-.2-.2-.2-.1-.3-.3-.5-.4-.1 0-.1-.1-.2-.1-.2-.1-.3-.2-.5-.3 0 0-.1-.1-.1-.1-.2-.1-.3-.2-.5-.3 0 0-.1 0-.1-.1-.2-.1-.3-.2-.5-.3-.7-.4-1.2-.7-1.6-.8-.1.1-.3.2-.4.3-.4.3-.7.5-1.1.8-.2.2-.4.4-.7.6-.4.3-.8.7-1.1 1-.3.2-.5.5-.8.8s-.7.7-1 1c-.2.2-.4.5-.7.7-.4.4-.8.9-1.2 1.4-.2.3-.5.6-.7.8-.3.4-.6.7-.9 1.1-.2.3-.4.6-.7.8-.4.6-.9 1.1-1.3 1.7-.2.3-.4.6-.6.9-.3.4-.6.8-.9 1.2-.2.3-.4.6-.6 1-.4.6-.8 1.3-1.2 1.9-.2.3-.4.7-.6 1-.3.4-.5.9-.8 1.4-.2.4-.4.7-.6 1.1-.4.7-.8 1.4-1.2 2.1-.2.4-.4.8-.6 1.2-.3.5-.5.9-.8 1.4-.2.4-.4.8-.6 1.2-.4.7-.8 1.5-1.2 2.3-.2.4-.4.9-.7 1.3-.2.5-.5 1-.7 1.5-.3.5-.5 1.1-.8 1.7-.3.7-.6 1.3-.9 2-.2.5-.4 1-.7 1.5-.2.5-.4 1-.6 1.4-.3.7-.7 1.5-1 2.2-.2.5-.5 1.1-.7 1.6s-.5 1.1-.7 1.6-.4.9-.6 1.4c-.4.9-.7 1.8-1.1 2.7-.2.4-.3.9-.5 1.3-.2.6-.5 1.2-.7 1.8-.2.4-.3.8-.5 1.2-.4 1-.8 2.1-1.2 3.1-.1.3-.3.7-.4 1-.2.7-.5 1.3-.7 2-.1.3-.2.5-.3.8-.4 1.2-.9 2.5-1.3 3.7-.1.3-.2.5-.3.8-.3.7-.5 1.4-.8 2.2v.1c-.5 1.5-1 3-1.5 4.5 0 .1-.1.3-.1.4-3.2 9.7-6.1 19.4-8.5 28.3 4.6-5.7 9.4-10.6 14.5-15.1zm-66.9 174.5c-1.5-12.9-1.6-27.6.6-43.8-11.5 5.9-26.9 16.7-27.9 30.1-.3 3.8.6 6.5 2.8 8.6 5.5 5 17.4 5.5 24.5 5.1zm89.5 119.7c-9-3.7-17.4-7.7-25-11.9-15-8.2-34.2-26.1-47.9-52.8-20.1 20.9-83.5 86.1-96.8 92.6-1.8.9-4.3 2-7.4 3.3-14.9 6.6-49.8 21.9-53.5 37.6-.5 2.3-.8 5.9 3.2 10.8 1.9 1.5 20.2 14.8 72 3.8 36.1-7.5 91.2-37.1 155.4-83.4zm336-89.1c1.5-5.4 3-11.4 4.1-18.1 1.8-16 2.8-36.8.4-57.2-1.7-11.3-4.5-23.2-8.8-35.7-.1-.2-.1-.4-.2-.6 0-.1 0-.1 0-.2-.1-.3-.1-.6-.1-.9v-.1c0-.3 0-.7.1-1 0 0 0 0 0-.1.1-.4.2-.7.3-1.1 0 0 .1-.2.2-.5 2.5-6.6 27.5-75.7 20.2-138.4-18.1 1.4-78.9 7.8-119.3 30.7-.1 0-.1.1-.2.1-.1.1-.3.1-.4.2-.1 0-.2.1-.2.1-.1.1-.3.1-.4.1s-.1 0-.2.1c-.2 0-.4.1-.6.1h-.1c-.7.1-1.4 0-2.2-.1-2.2-.6-45.1-11.2-92.5-16.3-5.9-.3-11.9-.5-17.9-.5-55.2 0-98.9 13.7-130.6 40.8-19.2 18.7-31.7 38.4-32.4 39.6-.1.1-.2.3-.3.4s-.2.2-.2.3c-.1.1-.2.2-.3.3s-.2.2-.3.3c-37.9 63.8-36.3 114.8-28 146.7 1 3.7 2 7.3 3.2 10.7 25.4 10.4 53.5 21.2 57.8 21.6 3.2.3 5.5 3.1 5.2 6.2-.3 3-2.8 5.3-5.7 5.3-.2 0-.3 0-.5 0-6-.5-32.9-11-50.7-18.2 5.4 11.5 12.1 21.5 19.1 29.9 7.7-.7 31-2.6 38.9-2 3.2.2 5.6 3 5.3 6.2-.2 3.2-3 5.6-6.2 5.3-4.8-.3-17.6.5-27.9 1.3 5.5 5 10.9 9 16.1 11.9 46 25.2 118.4 41.4 184.5 41.4 38 0 71.6-5.3 97.2-15.4 28.2-11.1 46.1-27.5 53.4-48.6.2-.6.5-1.1.8-1.6 0-.3 11.7-16.2 19.4-43zm-375.4 264c-11.8 33.7-62.4 36.5-76.8 36.6-1.4 1.9-2.9 3.6-4.3 5-7.3 7.2-15.7 9.7-17.1 10.1-19.2 6.1-35.8 8.6-50.2 8.6-50.4 0-73.3-31-81.8-47.1-4.1-7.7-13-29.1-5.3-35 2.2-1.7 5.7-2.2 8.8.6 5.2 4.7 26.4 8.1 41.4 9.2 31.2-33.9 51.1-32.3 60.3-28.2 4.4 2 8 5.2 10.7 9.3 5.7-2.6 14.3-4.5 22.8-1.1 10.4 4.2 17.5 14.8 20.9 31.5 2.1 10.2 1.5 18.5-.4 25.2 16.9-.9 52.1-5.5 60.2-28.7 1.5-4.3 3.4-12-1.2-15.7-3.6-2.9-10.6-2.9-15.4 0-3 1.8-4.3 4.2-3.7 7 .6 3.1-1.4 6.2-4.5 6.8s-6.2-1.4-6.8-4.5c-1.5-7.6 1.9-14.8 9.1-19.1 9-5.4 21.3-5 28.6 1 4.2 3.5 10.5 11.9 4.7 28.5zm-88.9 33c1.1-1.1 2-2.2 2.9-3.5.3-1.3 1-2.4 2-3.3 3.4-6.6 4.1-14.7 2.1-24.3-2.6-12.5-7.4-20.5-13.9-23.2-4.9-2-10.4-.7-14 1 1.1 4.7 1.4 9.8.8 15.3-.9 8.1-4.6 14.5-10.8 18.7-15.3 10.4-41.3 3.4-42.4 3.1-3.1-.8-4.9-4-4-7.1.8-3.1 4-4.9 7.1-4 6.1 1.7 23.8 4.6 32.8-1.5 3.3-2.3 5.2-5.7 5.7-10.4 1.2-11.2-2.4-20.4-9.2-23.4-10.9-4.9-29.1 5.4-48.9 27.5-1.2 1.3-2.9 2-4.6 1.9-5.4-.3-28.5-2-42.8-7.6 2.2 9 8.5 24.5 23 37.4 23.6 21 58.7 24.8 101.5 11.1.1 0 .2-.1.3-.1 0 0 6.7-1.9 12.4-7.6z" fill="#89191a"/></g></svg>