<svg id="Layer_3" enable-background="new 0 0 1000 1000" height="1000" viewBox="0 0 1000 1000" width="1000" xmlns="http://www.w3.org/2000/svg"><g><path d="m580.2 910.1c-45.8 84.6-131.5 93.9-177.4 64 0 0-51.8-32.2 47.5-60.1 106.2-29.8 148.7-94 46-249.4l38.6-15.6s120.6 114.6 45.3 261.1z" fill="#fea142"/><path d="m562.7 332.3c15 37.5 51.7 17.1 51.7 17.1-15.7-35.7 17.3-32.5 24.1-30.4s43 19.4 19.4 72.9-95.1 38.2-95.1 38.2l3.7 16.4c98.7-1.1 95.5 69.3 87.1 120.2s-66.6 64.5-66.6 64.5l2.5-4.3c-9.5 10.7-22.1 17.1-34-3l-20.6 25.1-38.6 15.6-65.9-4.3s17.6 5.5 28.6 21.3c11 15.7 40.9 144.3 40.9 144.3-6.3 37.3-39.4 16.8-45.1 11.5-5.8-5.3-30.6-59.3-30.6-59.3s-7.4-34.1-33.5-40.4c-26-6.3-45.2-7.1-81.6-46.4-35-37.9-1.2-155.2 1.3-163.9-4.2-18.6-5.5-40.1-5-62.3-.1-2.4-.2-4.9-.3-7.2-.3-9 1.3-23.7 3.7-40.4 6.6-58.1 20.2-108.9 20.3-109.3-5.5-6-9.9-13.7-13.3-22.5-10.5-26-12.6-60.9-10.8-93.4.5-11.6 1.5-22.7 2.7-32.6 2.7-21.3 27.7-53.7 53.9-82.5 23.4-27 47.7-50 58-58.2.5-.4.9-.7 1.4-1 2.4-2.2 3.8-3.4 3.8-3.4 2.1-.3 4-.6 5.9-.7 16.2-3.8 37.2 3.6 36.1 24l38.5-27.7c20.8 8.5 36.9 79.2 36.9 79.2 39.5 6.8 82.9 48.1 82.9 48.1 66.8-.7 82.4 22.3 82.4 22.3-6.7 43.8-60.1 71.6-60.1 71.6-10.1 91-84.7 100.9-84.7 100.9z" fill="#ffc363"/><path d="m521.5 285c-12.6 2.9-16.6-5.6-33.8-9.7-21.2-5-21.6-12.7 1.8-49.6 23.1-36.3 56.8-22.5 61.9-13.6 3.9 6.7 15.1 13.4 19.5 18.8 3.9 7.8-36.6 51.2-49.4 54.1z" fill="#f45175"/><path d="m553.8 127.9c-3.7 2.6-11.8.3-11.3-10.2s9.4-23.1 9.4-23.1 12.1-3.9 13.9 6c1.9 10-8.4 24.6-12 27.3zm43.6-15.4-13.5-4.1s-.5 26-12.9 40.9c-12.3 15-8.3 16.5-6.6 19.4 2.9 4.9 26.8-2.2 31-29.7 4.1-26.5 2-26.5 2-26.5zm16.4 18.3s3.5 9.7 1.3 19.9-.9 12.9 4.1 14.8c5 2 9.2-11.8 9.2-15.1 0-3.2-8.3-20.4-14.6-19.6z" fill="#dc8b4a"/><path d="m565 541.9c2.1 13.6-9.4 81.9-9.4 81.9l-20.7 25.2-38.6 15.6-48.3 1.2-32.5-12.1-41.5-39.3c-52.5-113.4-25.7-186.8-25.7-186.8 109.7-231.4 220.4 38.3 220.4 38.3l-9.4 21c0-.1 3.6 41.4 5.7 55z" fill="#f9eba2"/><path d="m575.1 227.5c-2.2-2.7-5.4-5.3-8.7-8.1-4-3.3-8.5-7-10.3-10.1-1-1.6-2.4-3.3-4.4-4.8 1.1.3 2.2.4 3.4.4 4.6 0 14.2-2.5 15.3-8.4.5-2.8-1-5.6-3.8-6.8-1.9-1-8.4-7.5-13.3-12.9-1.3-1.4-3.2-2.1-5.1-1.7s-3.4 1.7-4.1 3.4c-.4.9-3.4 9.5-.3 19 .4 1.2.9 2.2 1.6 3.1-5.1-2.5-11.5-4.1-18.5-4.1-9.5 0-27.7 3.4-42.2 26.3-14.6 23-21.3 36.4-17.4 45.9 2.9 7.2 10.8 10 18.9 11.9 6.5 1.6 11 3.8 15 5.8 4.8 2.4 9.3 4.7 15.3 4.7 2 0 3.9-.2 6.1-.7 13.7-3.1 45.3-37.1 52.1-51.3 1.3-2.8 2.8-6.9 1-10.5-.1-.5-.3-.8-.6-1.1zm-20.3-33.5c-.3 0-.5 0-.6-.1-.1-.2-.1-.5-.2-.7.3.3.6.6.8.8zm-8.2 64.2c-12.2 12.9-22.7 20.8-26.3 21.6-1.3.3-2.5.4-3.7.4-3.4 0-6.2-1.4-10.4-3.5-4.3-2.1-9.6-4.8-17.3-6.7-6.8-1.6-10.5-3.4-11.4-5.4-2.2-5.4 7.1-21.2 16.5-36 11.2-17.5 24.1-21.2 33-21.2 10.9 0 18.3 5.2 19.6 7.4 2.8 4.8 7.8 8.9 12.7 13 2.3 1.9 4.5 3.7 6 5.3-1 3.5-7.2 12.9-18.7 25.1zm-25 46.8c1.6 2.5.9 5.9-1.7 7.5-7.1 4.5-14.9 6-22.1 6-12.6 0-23.2-4.6-23.9-4.9-2.7-1.2-4-4.4-2.8-7.2 1.2-2.7 4.4-4 7.2-2.8.2.1 21 9 35.7-.4 2.6-1.4 6-.7 7.6 1.8zm-91.2-162c-.3-3 1.9-5.7 4.9-5.9 36.3-3.6 66.5 25.9 67.8 27.1 2.1 2.1 2.2 5.6 0 7.7-1.1 1.1-2.5 1.6-3.9 1.6s-2.8-.5-3.8-1.6c-.3-.3-28-27.1-59.1-24.1-3 .4-5.6-1.8-5.9-4.8zm-11.8 29.3c-.7-2.9 1.2-5.8 4.1-6.5 40.5-9.3 67.7 8.9 68.9 9.7 2.5 1.7 3.1 5.1 1.4 7.6-1.1 1.5-2.8 2.4-4.5 2.4-1.1 0-2.1-.3-3.1-.9-.3-.2-24.7-16.3-60.3-8.1-2.9.5-5.8-1.3-6.5-4.2zm66.9 26.4c-10.8 0-46.8 2-55.7 5.9-.7.3-1.4.4-2.1.4-2.1 0-4.1-1.2-5-3.3-1.2-2.8.1-6 2.9-7.1 11.6-5 51-6.7 60-6.7 3 0 5.4 2.4 5.4 5.4s-2.5 5.4-5.5 5.4zm6.4-70.3c-2.3-2-2.5-5.4-.5-7.7s5.4-2.5 7.7-.5c6.1 5.4 36.8 33.2 38.9 47.1.4 3-1.6 5.7-4.6 6.2-.3 0-.5.1-.8.1-2.7 0-5-1.9-5.4-4.7-1-7.4-21.3-28.2-35.3-40.5zm138.6 89.3c1.5 2.6.6 5.9-2 7.4-.9.5-1.8.7-2.7.7-1.9 0-3.7-1-4.7-2.7-2.6-3.3-21.5-9.4-41.3-13.4-2.9-.6-4.9-3.5-4.3-6.4s3.5-4.9 6.4-4.3c.4.1 10.4 2.1 21.2 5.2 20.7 5.9 25.5 10.1 27.4 13.5zm82.6-61.2c-1.2-5.8-7.7-12.2-46.6-18.8-17.1-2.9-34.2-4.8-39.2-5.3-21.2-27.6-67.4-43.2-80.2-47.1-5-23.5-13.4-42.1-19.7-53.8-2.1-3.9-12.9-23.5-20.2-26-3.5-1.2-7.6-.9-26.6 14.1-3.4 2.7-6.8 5.5-9.6 7.8-1.3-3.9-3.3-6.8-5.3-9.1-11.4-12.8-35.4-14.4-49.3-3.3-21.8 17.4-109.4 103.5-114.8 154-4.1 37.8-6.5 105.5 21.7 140.7-2.5 9.7-10.9 44-16.9 84.9-8.1 55.3-8.6 99.7-1.6 132.4-2.5 6.6-10.2 28.1-14.8 55.5-7.2 43.3-2.9 80.5 12.4 107.4 16.7 29.2 46.1 47.1 87.4 53.2.7.1.7.2 1.3.1 2.1.4 19.3 5.3 42.7 66.3 13.9 36.1 30.4 43.2 41.2 43.2 3.2 0 5.8-.6 7.8-1.3 15.4-5.2 26.1-25.3 21.7-40.7-1.2-4.1-3-10.7-5.2-19-18.7-68.7-32.1-113-40.9-121-.3-.3-.7-.6-1.1-.9 3.8.3 7.9.4 12.1.4 3.2 0 6.6-.1 10-.3 4.4-.3 8.7-.7 12.8-1.4 50 75.8 67 132.2 52.1 172.3-11.5 30.8-42.8 53-95.6 67.9-41.2 11.6-62.4 25.3-64.8 42-2.3 16.1 14.5 27.1 15.8 27.9 16.5 10.7 37.2 16.4 58.8 16.4 10.4 0 20.9-1.3 31.3-3.9 39.3-10 73-37.8 95-78.4 0 0 0-.1.1-.1 17.6-34.2 26.1-69.6 25.3-105.2-.7-28.4-7.2-57-19.6-85-17.4-39.4-41-65.9-49.2-74.4 5.3-4.3 10-9.2 14.1-14.7 5.1 6 10.7 9 16.9 9 4.9 0 9.8-1.9 14.7-5.8h.6c.8-.1 20.7-3.3 40-18.6 17.8-14.1 38.3-41.7 35.5-92.5-1.7-30.5-11.8-53.4-30.1-68-22.8-18.1-51.3-17.9-62.6-16.9l-1-3.6c4.6.7 10.8 1.3 18 1.3 14.7 0 33.4-2.7 49.6-13.5 18.1-12.1 29.4-31.6 33.4-58.2.2-1.3 1.8-11-1.2-22-3-10.9-11.1-25.1-32.7-30.8-15.6-4.1-23.6.6-27.5 5.3-5.4 6.5-6.1 16.8-1.9 27.3-5.3 1.7-14.5 3.7-23.2.6-5.5-2-10.1-5.8-13.7-11.5 13.9-2.8 31.3-9.3 46.6-23.8 18.6-17.5 30-42.6 34.3-75 4.5-1.3 12.3-5.9 26.3-21.3 10.3-11.2 38.4-45.8 35.6-58.8zm-244.2-100.6c.3-.5.6-.9.7-1.1 2.2-2.9 17.9-14.6 25.7-14.6.6 0 1 .1 1 .1 3.4 1.9 10 17.6 15.3 35.6-2-.2-4.2-.3-6.4-.3-17.8 0-37.8 6-46.9 9-.9-4.7.6-13.4 10.6-28.7zm112.1 671.3c26.7 60.6 24.8 121.3-5.6 180.4-20.5 37.9-51.8 63.8-88.1 73-29.2 7.4-59.7 3.3-81.6-11 0 0-.1 0-.1-.1-.1-.1-12.2-7.9-10.8-17.2.9-6.6 9.6-19.8 56.9-33.1 56.5-15.9 90.1-40.2 102.9-74.6 16-42.9-.6-101.3-50.8-178.4 10.6-2.7 20.2-6.6 28.7-11.9 6.3 6.4 31 33.1 48.5 72.9zm-19.6-104.3c2.8-11.2 13.8-59.5 7.4-102-5.2-34.6.1-45.1 2.6-48.1 1.3-1.5 2.7-2.1 4.6-2.1 3 0 9.9 1.7 22.8 13.1 33.1 29.5 7 106.8-2.6 123.9-8.5 15.1-17.1 23.8-23.6 23.8-3.7 0-7.4-2.9-11.2-8.6zm118.2-426.7c-11.7 14.7-21.2 23.6-26.8 27.6.7-9.9.8-20.4.3-31.5-.1-3-2.7-5.3-5.7-5.2s-5.3 2.7-5.2 5.7c1 23.4-.7 43.9-5.2 61.4-7.3-8.8-20-22.3-33.3-28.2-2.8-1.2-6 0-7.2 2.8s0 6 2.8 7.2c14.6 6.4 29.3 24.8 33.8 30.8-1 2.6-2 5.1-3.1 7.6-5.4-9.5-15-25.2-22.3-30.9-2.4-1.8-5.8-1.4-7.6 1s-1.4 5.8 1 7.6c7.6 5.8 21 30 22.9 33.8-2.1 3.4-4.4 6.6-6.8 9.6-2.7-11.4-8.1-29.8-15.2-37.1-2.1-2.2-5.5-2.2-7.7-.1s-2.2 5.5-.1 7.7c5.6 5.7 11.3 26.2 13.9 39-27.5 24.6-62.4 21.4-62.7 21.4-3-.3-5.7 1.9-6 4.8-.3 3 1.9 5.7 4.8 6 .4 0 2.5.2 6 .2 2.3 0 5.3-.1 8.7-.4 5.1 10 12.4 16.8 21.6 20.1 4.6 1.6 9.2 2.2 13.5 2.2 7.7 0 14.5-1.9 18.6-3.4 5.3 7.3 13.4 13.5 23.6 13.5h.2c3 0 5.4-2.5 5.4-5.5s-2.5-5.4-5.4-5.4c-.1 0-.1 0-.1 0-8.2 0-14.8-7.6-17.9-14.2-3.4-7.3-3.7-14.9-.7-18.5 3.6-4.3 11.8-2.9 16.3-1.7 31.5 8.3 26.2 39.1 26 40.4v.2c-3.5 23.4-13.2 40.5-28.6 50.8-24.2 16.1-56.2 11.3-64.8 9.7l-1.9-7c-.8-2.9-3.8-4.6-6.7-3.8s-4.6 3.8-3.8 6.7l7.3 26.8c.7 2.7 3.4 4.4 6.2 3.9.3-.1 34.4-5.5 59 14.2 15.7 12.6 24.4 32.7 26 60 2.1 36.9-8.4 64.8-31 83.1-7.3 5.9-14.7 9.8-20.9 12.3 1.7-2.5 3.4-5.3 5.1-8.3 6.8-12 42.1-100.1.4-137.4-12-10.7-21.8-15.9-30-15.9-5.1 0-9.5 2-12.8 5.9-7.7 9-9.4 28.1-5.1 56.8 6.4 42.1-5.8 92.3-7.5 99.1-14.3 22.7-38.3 35.3-71.4 37.4-25.6 1.6-47.2-4-47.4-4-.3-.1-.7-.1-1-.2-17.2-9.1-37.6-21.8-52.2-43.5-1.7-2.5-5.1-3.2-7.5-1.5-2.5 1.7-3.2 5.1-1.5 7.5 18.8 28 46.7 42.3 65.2 51.8 7.3 3.7 13.5 6.9 16.4 9.6 1.2 1.1 6 7.6 17.8 45.7 7.3 23.7 14.6 50.5 20 70.1 2.3 8.3 4.1 14.9 5.3 19.1 2.6 8.9-4.1 23.8-14.7 27.4-12.2 4.1-25.1-8.9-35.3-35.5-26.1-67.8-46.9-73.3-53-73.3h-.1c-37.6-5.7-64.2-21.7-79.1-47.8-25.8-45.2-10.9-109.9-1.7-139.6 1 1.2 2.5 1.9 4.1 1.9.6 0 1.2-.1 1.8-.3 2.8-1 4.4-4.1 3.4-6.9-1.3-3.9-2.5-8-3.4-12.2.1-1.1-.2-2.3-.7-3.2-16.7-79.5 18.7-213 19.1-214.4.5-1.8 0-3.6-1.2-5-28.5-32.6-24.1-105-20.9-134.6 4.8-44.6 85.7-126.7 110.8-146.6 9.3-7.4 27-6.3 34.5 2.1 2.6 2.9 3.9 6.5 3.9 10.8-.5 1.1-.5 2.3-.2 3.5-1.6 11.4-10.9 26.3-27.2 42.8-34.8 35.1-43.5 71.1-44.6 95.1-1.2 26.2 5.9 43.9 6.2 44.6 1.1 2.8 4.3 4.1 7.1 3s4.1-4.3 3-7.1c-.1-.2-6.6-16.6-5.4-40.5 1.5-29.9 13.8-57.5 36.6-82.3-.1 1.3-.1 2.5.1 3.5.4 2.7 2.8 4.6 5.4 4.6.3 0 .6 0 .9-.1 3-.5 5-3.3 4.5-6.3-.1-.9.3-3.3 1-6.2.6 1.3 1.3 2.6 2.1 3.7 1 1.4 2.7 2.2 4.4 2.2.7 0 1.3-.1 1.9-.4.3-.1 26.5-10 47.8-10 4.8 0 9 .5 12.5 1.5.5.2 1 .2 1.6.2 3 0 5.4-2.4 5.4-5.4 0-.6-.1-1.3-.3-1.8-.6-2.3-3.2-12-6.8-22.3-7.8-22.3-13.2-26.9-17.1-28.4-1.5-.6-3.2-.9-5.1-.9-4.5 0-9.9 2-15.1 4.7 10-8.3 20-15.8 24.1-17.7 6 5.7 25.2 34.6 32.9 74.3.4 2 1.9 3.7 3.9 4.2.7.2 73.8 20.6 84.9 57.7.7 2.4 2.9 3.9 5.2 3.9.5 0 1-.1 1.6-.2 2.9-.9 4.5-3.9 3.7-6.8-.5-1.8-1.2-3.6-2-5.3 7.1.8 17.4 2.2 27.9 3.9 32 5.3 38.8 9.9 40.2 11.1-1.1 4.1-8.9 18.6-23.6 37z" fill="#89191a"/></g></svg>