<svg height="512" width="512" xmlns="http://www.w3.org/2000/svg"><path d="M64.785 236.137c-7.553-11.54-7.087-27.768 1.116-38.855 7.423 11.665 7.184 27.796-1.116 38.855z" fill="#3f9e53"/><path d="m64.785 237.444-.042-.001a1.307 1.307 0 0 1-1.052-.591c-3.798-5.802-5.774-13.03-5.563-20.351s2.598-14.423 6.722-19.998a1.306 1.306 0 0 1 2.154.076c7.863 12.355 7.381 28.944-1.174 40.342-.247.33-.635.523-1.045.523zm1.034-37.739c-6.39 9.988-6.777 23.712-.957 34.043 6.462-9.914 6.842-23.391.957-34.043z" fill="#30753e"/><path d="M97.038 266.783c-7.574-6.278-12.563-15.584-13.599-25.367s1.893-19.928 7.984-27.652c11.043 14.849 13.812 36.429 5.615 53.019z" fill="#3f9e53"/><path d="M97.038 268.091c-.302 0-.597-.105-.834-.301-7.863-6.518-12.989-16.08-14.065-26.236-1.075-10.156 1.934-20.58 8.258-28.6a1.31 1.31 0 0 1 2.076.029c5.542 7.452 9.19 16.86 10.273 26.491 1.121 9.972-.448 19.615-4.535 27.888a1.309 1.309 0 0 1-1.173.729zm-5.64-52.114c-5.183 7.279-7.602 16.401-6.659 25.302.944 8.919 5.234 17.347 11.849 23.381 6.634-14.981 4.554-34.503-5.19-48.683z" fill="#30753e"/><path d="M59.361 244.873c-4.603-6.127-11.139-10.78-18.435-13.125s-15.318-2.371-22.63-.074c4.407 6.348 9.732 11.204 17.012 13.797 7.28 2.591 16.626 1.535 24.053-.598z" fill="#3f9e53"/><path d="M45.137 248.298c-3.411 0-6.969-.422-10.268-1.597-7.007-2.495-12.614-7.034-17.647-14.283a1.307 1.307 0 0 1 .682-1.993c7.56-2.376 15.878-2.348 23.422.077s14.32 7.249 19.079 13.584a1.306 1.306 0 0 1-.684 2.042c-2.826.813-8.469 2.17-14.584 2.17zm-24.692-15.879c4.424 5.914 9.323 9.69 15.302 11.819 7.406 2.637 16.404 1.113 21.348-.113-4.34-5.151-10.157-9.072-16.569-11.133-6.454-2.075-13.516-2.267-20.081-.573z" fill="#30753e"/><g><path d="M78.893 263.407c-4.452-3.55-10.088-5.588-15.781-5.705s-11.408 1.686-16.002 5.05c9.606 6.555 21.802 6.624 31.783.655z" fill="#3f9e53"/><path d="M63.35 269.092c-5.956 0-11.845-1.758-16.977-5.26a1.306 1.306 0 0 1-.035-2.135 27.662 27.662 0 0 1 16.802-5.302 27.638 27.638 0 0 1 16.569 5.99 1.307 1.307 0 0 1-.144 2.144c-5.094 3.045-10.683 4.563-16.215 4.563zm-13.85-6.374c8.226 4.809 18.251 5.008 26.974.536a25.022 25.022 0 0 0-13.389-4.245 25.14 25.14 0 0 0-13.585 3.709z" fill="#30753e"/></g><g><path d="M47.461 221.971c-8.219-.92-15.945-5.583-20.589-12.425-4.645-6.843-6.125-15.744-3.946-23.722 7.039 2.687 14.304 6.926 18.427 13.233 4.122 6.307 6.471 15.388 6.108 22.914z" fill="#3f9e53"/><path d="M47.461 223.279c-.049 0-.097-.003-.146-.008-8.612-.964-16.659-5.82-21.525-12.99-4.867-7.17-6.409-16.441-4.126-24.801a1.305 1.305 0 0 1 1.727-.877c6.124 2.338 14.401 6.619 19.055 13.739 4.222 6.459 6.703 15.759 6.32 23.693a1.304 1.304 0 0 1-1.305 1.244zM23.84 187.593c-1.552 7.247-.055 15.078 4.113 21.219 4.176 6.152 10.915 10.438 18.238 11.663.02-7.083-2.244-15.059-5.933-20.702-3.938-6.025-10.848-9.89-16.418-12.18z" fill="#30753e"/></g><g><path d="M130.431 285.958c-19.487-6.248-49.371-29.782-65.433-48.086-8.611-9.813-12.711-13.442-15.049-14.774-1.68-.957-3.561.905-2.61 2.588 14.448 25.571 41.301 46.303 65.473 62.988 7.731-1.942 9.721-1.63 17.619-2.716z" fill="#cf7648"/><path d="M112.812 289.983a1.31 1.31 0 0 1-.743-.231C87.721 272.944 60.855 252.266 46.2 226.33a3.176 3.176 0 0 1 .53-3.849 3.187 3.187 0 0 1 3.865-.518c1.871 1.066 5.502 3.785 15.385 15.048 15.87 18.084 45.715 41.568 64.849 47.703a1.307 1.307 0 0 1-.221 2.54c-2.535.348-4.462.553-6.164.735-3.562.379-6.135.653-11.314 1.955a1.324 1.324 0 0 1-.318.039zm-63.82-65.838a.597.597 0 0 0-.416.188c-.12.119-.292.37-.099.711 14.298 25.303 40.619 45.643 64.593 62.22 4.977-1.224 7.565-1.5 11.099-1.876l.804-.086c-8.383-3.563-18.58-9.745-29.328-17.821-11.947-8.977-23.475-19.454-31.63-28.747-7.224-8.233-12.037-12.976-14.714-14.5a.625.625 0 0 0-.309-.089z" fill="#9c4f27"/></g><g><path d="M447.668 263.194c-10.825 1.811-17.313 10.064-20.138 20.897-41.687 2.1-83.298 13.658-125.319 16.39-44.077 2.863-88.116-4.027-132.168-7.211-38.936-2.815-79.363-2.488-115.899 9.48.797-8.564 4.404-16.967 9.514-24.469 3.127-4.594 8.982-7.188 15.045-6.595 122.738 11.991 247.264 9.128 368.965-8.492z" fill="#e38e62"/><path d="M54.145 304.058a1.307 1.307 0 0 1-1.302-1.428c.761-8.177 4.127-16.85 9.735-25.084 3.393-4.984 9.769-7.794 16.253-7.16 122.841 12.001 246.873 9.146 368.65-8.486a1.308 1.308 0 0 1 .403 2.583c-12.004 2.009-17.006 11.951-19.089 19.938a1.308 1.308 0 0 1-1.199.976c-21.421 1.079-43.243 4.735-64.346 8.27-19.929 3.339-40.536 6.791-60.954 8.118-32.044 2.081-64.551-1.021-95.988-4.022-11.919-1.138-24.244-2.314-36.359-3.19-33.048-2.389-76.029-3.478-115.397 9.419a1.299 1.299 0 0 1-.407.066zm22.859-31.147c-4.978 0-9.674 2.3-12.264 6.106-4.903 7.198-8.009 14.714-9.054 21.865 39.262-12.376 81.709-11.284 114.453-8.916 12.145.878 24.486 2.055 36.419 3.194 31.334 2.991 63.734 6.084 95.57 4.015 20.286-1.319 40.827-4.76 60.691-8.088 20.866-3.496 42.434-7.109 63.699-8.254 2.135-7.529 5.919-13.273 11.02-16.889-118.666 16.352-239.381 18.724-358.961 7.042a16.656 16.656 0 0 0-1.573-.075z" fill="#9c4f27"/><path d="M427.53 284.091c-.838 3.197-1.353 6.621-1.569 10.17-9.222.195-18.527 1.622-27.435 3.719-19.626 4.62-38.296 12.279-57.946 16.81-49.58 11.43-101.609 2.324-152.121-4.835-44.564-6.313-91.611-10.798-134.172 1.302a48.36 48.36 0 0 1-.247-2.815 37.544 37.544 0 0 1 .104-5.691c36.535-11.968 76.963-12.295 115.899-9.48 44.053 3.184 88.091 10.074 132.168 7.211 42.022-2.733 83.632-14.291 125.319-16.391z" fill="#cf7648"/><path d="M288.944 321.508c-29.56 0-59.442-4.316-88.7-8.542-3.997-.577-7.987-1.154-11.968-1.718-41.715-5.909-89.883-11.172-133.631 1.265a1.306 1.306 0 0 1-1.655-1.104 48.968 48.968 0 0 1-.254-2.892 38.973 38.973 0 0 1 .108-5.89c.049-.518.4-.958.895-1.121 39.803-13.039 83.114-11.949 116.4-9.542 12.145.878 24.486 2.055 36.419 3.194 31.334 2.991 63.735 6.084 95.57 4.015 20.286-1.319 40.827-4.76 60.691-8.088 21.177-3.548 43.074-7.216 64.647-8.303a1.306 1.306 0 0 1 1.331 1.637c-.8 3.049-1.314 6.385-1.529 9.918a1.308 1.308 0 0 1-1.277 1.228c-8.393.178-17.532 1.418-27.164 3.685-9.623 2.265-19.195 5.323-28.453 8.279-9.577 3.059-19.48 6.222-29.499 8.532-17.066 3.936-34.444 5.447-51.931 5.447zm-173.993-19.165c1.879 0 3.776.017 5.694.051 23.901.42 47.785 3.404 67.998 6.267 3.983.565 7.975 1.141 11.975 1.719 46.33 6.691 94.237 13.61 139.669 3.136 9.914-2.285 19.764-5.432 29.29-8.474 9.306-2.972 18.928-6.046 28.65-8.334 9.356-2.202 18.269-3.453 26.514-3.721a54.76 54.76 0 0 1 1.107-7.495c-20.859 1.184-42.068 4.737-62.597 8.176-19.929 3.339-40.536 6.791-60.954 8.118-32.044 2.081-64.551-1.021-95.988-4.022-11.919-1.138-24.244-2.314-36.359-3.19-32.818-2.373-75.428-3.463-114.573 9.151a36.142 36.142 0 0 0-.031 4.64c.024.41.053.815.086 1.214 17.689-4.859 37.227-7.236 59.519-7.236z" fill="#9c4f27"/><path d="M436.213 335.696c-19.96-3.094-40.48-3.777-60.753-3.341-33.676.728-67.237 4.418-100.924 4.636-40.139.26-80.111-4.408-120.209-6.162-30.33-1.327-61.143-.92-90.832 4.434-5.02-7.284-8.216-15.546-9.208-24.007 42.56-12.1 89.608-7.615 134.172-1.302 50.512 7.159 102.541 16.264 152.121 4.835 19.651-4.53 38.32-12.19 57.946-16.81 8.908-2.097 18.214-3.523 27.435-3.719-.838 13.867 2.93 29.654 10.252 41.436z" fill="#e38e62"/><path d="M271.341 338.309c-24.225 0-48.708-1.734-72.42-3.414-14.632-1.036-29.761-2.108-44.651-2.759-36.271-1.588-65.04-.185-90.543 4.415a1.307 1.307 0 0 1-1.308-.545c-5.161-7.489-8.422-15.995-9.43-24.597a1.309 1.309 0 0 1 .941-1.41c19.565-5.562 41.386-8.051 66.715-7.605 23.901.42 47.785 3.404 67.998 6.267 3.983.565 7.975 1.141 11.975 1.719 46.33 6.691 94.237 13.61 139.669 3.136 9.914-2.285 19.764-5.432 29.29-8.474 9.306-2.972 18.928-6.046 28.65-8.334 9.809-2.309 19.131-3.572 27.707-3.754a1.307 1.307 0 0 1 1.333 1.386c-.832 13.764 3.021 29.346 10.057 40.666a1.306 1.306 0 0 1-1.311 1.982c-17.64-2.734-37.439-3.822-60.525-3.326-15.479.335-31.204 1.313-46.413 2.259-17.855 1.111-36.318 2.259-54.531 2.377-1.067.008-2.135.011-3.203.011zm-144.211-9.416c8.618 0 17.677.211 27.255.631 14.925.653 30.072 1.726 44.721 2.764 24.708 1.75 50.253 3.562 75.422 3.397 18.14-.117 36.566-1.264 54.384-2.372 15.234-.948 30.987-1.928 46.519-2.263 22.068-.475 41.164.491 58.266 2.95-6.182-11.091-9.599-25.425-9.111-38.391-8.005.279-16.663 1.504-25.761 3.645-9.623 2.265-19.195 5.323-28.453 8.279-9.577 3.059-19.48 6.222-29.499 8.532-45.911 10.584-94.063 3.629-140.631-3.097-3.997-.577-7.987-1.154-11.968-1.718-41.371-5.861-89.09-11.086-132.547.961 1.062 7.539 3.941 14.974 8.372 21.617 18.724-3.317 39.19-4.935 63.031-4.935z" fill="#9c4f27"/><path d="M456.503 352.544c-125.795-10.449-250.658-13.033-376.816-7.881-5.329.218-10.415-1.985-13.518-5.819a56.738 56.738 0 0 1-2.675-3.581c29.689-5.354 60.503-5.761 90.832-4.434 40.097 1.754 80.069 6.422 120.209 6.162 33.686-.218 67.248-3.908 100.924-4.636 20.273-.436 40.793.247 60.753 3.341 5.135 8.262 12.02 14.556 20.291 16.848z" fill="#cf7648"/><path d="M456.504 353.852c-.036 0-.073-.002-.109-.005-126.321-10.492-249.526-13.069-376.654-7.877-5.748.235-11.203-2.121-14.587-6.303a58.28 58.28 0 0 1-2.736-3.663 1.309 1.309 0 0 1 .845-2.027c25.698-4.634 54.652-6.049 91.122-4.454 14.925.653 30.072 1.726 44.721 2.764 24.708 1.75 50.253 3.562 75.422 3.397 18.14-.117 36.566-1.264 54.384-2.372 15.234-.948 30.987-1.928 46.519-2.263 23.245-.501 43.189.598 60.982 3.356.376.059.709.278.91.602 5.336 8.587 12.089 14.216 19.529 16.278a1.308 1.308 0 0 1-.348 2.567zm-250.765-13.094c81.056 0 161.438 3.268 243.076 9.845-5.01-3.037-9.552-7.67-13.391-13.706-17.492-2.668-37.105-3.726-59.936-3.235-15.479.335-31.204 1.313-46.413 2.259-17.855 1.111-36.318 2.259-54.531 2.377-25.254.164-50.866-1.65-75.624-3.404-14.632-1.036-29.761-2.108-44.651-2.759-35.306-1.546-63.508-.257-88.505 4.055.461.621.936 1.233 1.421 1.831 2.867 3.543 7.535 5.538 12.448 5.336 42.38-1.73 84.338-2.599 126.106-2.599z" fill="#9c4f27"/><path d="M466.108 353.355c-3.374.33-6.581.026-9.604-.811-8.272-2.292-15.156-8.586-20.29-16.848-7.323-11.782-11.09-27.569-10.251-41.436.216-3.549.73-6.973 1.569-10.17 2.825-10.833 9.312-19.086 20.138-20.897 41.737-6.986 59.047 86.19 18.438 90.162z" fill="#cf7648"/><path d="M463.463 354.793c-2.484 0-4.932-.331-7.309-.988-8.084-2.24-15.363-8.263-21.052-17.418-7.306-11.756-11.309-27.928-10.446-42.204.225-3.703.766-7.209 1.609-10.422 3.219-12.346 10.743-20.108 21.187-21.855 10.877-1.82 20.908 2.652 28.999 12.936 6.407 8.143 11.031 19.302 13.021 31.422 2.001 12.186 1.057 23.692-2.657 32.397-4.074 9.547-11.192 15.079-20.581 15.998a29.3 29.3 0 0 1-2.771.134zm-11.349-90.668c-1.361 0-2.77.114-4.23.358-12.004 2.009-17.006 11.951-19.089 19.938-.8 3.05-1.314 6.387-1.529 9.919-.832 13.763 3.022 29.346 10.057 40.666 5.336 8.588 12.089 14.217 19.529 16.278a24.982 24.982 0 0 0 9.128.77c10.589-1.036 15.867-8.414 18.431-14.422 7.266-17.027 2.68-45.042-10.014-61.175-4.596-5.842-12.016-12.332-22.283-12.332z" fill="#9c4f27"/><g><path d="M475.393 292.626c-5.095-8.631-21.095-20.5-31.438-11.269-4.098 3.657-4.661 9.472-4.552 14.728a99.82 99.82 0 0 0 3.282 23.36c1.26 4.777 2.923 9.566 6.033 13.56s7.877 7.129 13.198 7.474c7.159.464 13.839-4.3 16.921-10.274s3.168-12.894 2.313-19.462c-.818-6.286-2.475-12.556-5.757-18.117z" fill="#ba6336"/><path d="M462.837 341.815c-.335 0-.67-.011-1.005-.032-5.232-.339-10.52-3.32-14.145-7.975-3.419-4.392-5.086-9.556-6.266-14.03a101.119 101.119 0 0 1-3.325-23.666c-.107-5.155.363-11.602 4.989-15.73 3.366-3.004 7.643-4.203 12.377-3.466 8.393 1.307 17.298 8.677 21.057 15.047 3.026 5.126 4.965 11.214 5.929 18.612 1.099 8.436.321 14.864-2.447 20.23-3.406 6.599-10.353 11.01-17.164 11.01zm-10.077-62.5c-3.025 0-5.686 1.01-7.935 3.018-3.829 3.417-4.21 9.13-4.115 13.725a98.583 98.583 0 0 0 3.24 23.053c1.112 4.217 2.671 9.071 5.801 13.09 3.173 4.075 7.753 6.681 12.251 6.973 6.117.393 12.563-3.539 15.675-9.569 2.513-4.87 3.205-10.81 2.178-18.693-.917-7.04-2.745-12.804-5.587-17.62-3.451-5.847-11.58-12.604-19.208-13.792a14.932 14.932 0 0 0-2.3-.185z" fill="#9c4f27"/></g><g><path d="M449.659 288.084c-2.865 2.898-3.352 7.151-3.246 11.071.128 4.693.898 9.349 1.668 13.99.759 4.581 1.572 9.3 4.201 13.25s7.569 6.973 12.52 6.165c3.74-.611 6.796-3.299 8.462-6.445 1.666-3.147 2.127-6.715 2.275-10.213.223-5.271-.238-10.676-2.501-15.521-2.82-6.036-15.554-20.212-23.379-12.297z" fill="#cf7648"/><path d="M463.133 334.002c-5.066 0-9.547-3.287-11.941-6.883-2.825-4.244-3.663-9.3-4.402-13.76-.764-4.612-1.554-9.381-1.685-14.168-.095-3.493.177-8.54 3.623-12.026 2.198-2.222 4.994-3.113 8.086-2.578 7.452 1.29 15.176 10.465 17.405 15.239 2.04 4.366 2.898 9.643 2.623 16.13-.133 3.132-.529 7.186-2.426 10.77-2.028 3.83-5.545 6.493-9.407 7.124-.631.103-1.258.152-1.876.152zm-12.545-44.999c-2.088 2.111-2.999 5.326-2.868 10.116.125 4.608.901 9.287 1.65 13.812.696 4.201 1.485 8.962 3.999 12.739 2.148 3.228 6.579 6.358 11.22 5.599 3.06-.5 5.87-2.656 7.518-5.767 1.652-3.12 2.003-6.8 2.124-9.657.26-6.142-.496-10.88-2.38-14.913-1.913-4.095-9.111-12.666-15.482-13.769-2.277-.394-4.168.208-5.781 1.84z" fill="#9c4f27"/></g><g><path d="M454.557 311.374c-.664 4.348.091 9.069 3.088 12.482 1.625 1.85 4.221 3.303 6.715 2.685 2.147-.532 3.557-2.412 4.49-4.272 2.137-4.258 2.764-9.146 1.763-13.746-.569-2.616-1.714-5.22-3.836-7.035-8.065-6.895-11.35 4.189-12.22 9.886z" fill="#ba6336"/><path d="M463.14 327.998c-2.62 0-4.993-1.588-6.478-3.279-2.96-3.37-4.198-8.306-3.398-13.542.501-3.279 2.174-11.096 6.88-12.845 2.289-.85 4.806-.123 7.482 2.164 2.101 1.797 3.536 4.405 4.264 7.75 1.065 4.895.4 10.083-1.872 14.61-1.38 2.751-3.178 4.418-5.344 4.955a6.36 6.36 0 0 1-1.534.187zm-1.105-27.388c-.342 0-.669.057-.979.173-2.784 1.035-4.545 6.459-5.206 10.789-.683 4.471.329 8.634 2.778 11.422 1.205 1.372 3.346 2.792 5.419 2.279 1.391-.344 2.614-1.552 3.636-3.589 2.005-3.994 2.592-8.569 1.654-12.881-.604-2.776-1.751-4.902-3.409-6.319-1.458-1.247-2.762-1.874-3.893-1.874zm-7.478 10.764h.004z" fill="#9c4f27"/></g><g><path d="M461.953 320.836c1.187.607 2.758.015 3.577-.983s1.07-2.285 1.287-3.52c.255-1.454.495-2.95.151-4.389-.811-3.394-4.492-4.306-7.007-1.689-2.055 2.14-.788 9.159 1.992 10.581z" fill="#cf7648"/><path d="M463.016 322.395a3.616 3.616 0 0 1-1.659-.396c-2.018-1.033-3.151-3.865-3.538-6.171-.468-2.788-.02-5.21 1.199-6.479 1.546-1.61 3.611-2.261 5.522-1.741 1.832.498 3.215 2.005 3.7 4.032.42 1.758.112 3.51-.135 4.919-.209 1.19-.496 2.821-1.564 4.123-.794.967-2.138 1.713-3.525 1.713zm-.468-2.723c.581.297 1.519-.098 1.971-.648.586-.715.796-1.702 1.01-2.917.262-1.489.44-2.719.167-3.859-.262-1.098-.934-1.87-1.842-2.117-.974-.264-2.077.121-2.95 1.03-.499.52-.871 2.066-.507 4.234.344 2.046 1.228 3.804 2.151 4.277z" fill="#9c4f27"/></g></g><g><path d="M442.22 295.25c7.687-1.971 15.399-1.455 22.432 1.038 1.304 5.193 1.902 10.631 1.148 15.891-.126-.057-.252-.117-.378-.172-9.645-4.37-24.782-6.759-32.751 1.176a56.144 56.144 0 0 1-.96-4.703c-.309-1.902-.548-3.815-.781-5.729 2.561-3.716 6.825-5.988 11.29-7.501zM428.255 288.528a46.482 46.482 0 0 0-4.231-9.324c2.382-4.889 6.926-8.749 11.903-11.41 3.513-1.725 7.374-2.242 11.181-1.865a66.047 66.047 0 0 1 9.901 12.402c-10.537-1.899-22.1 1.877-28.754 10.197zM417.108 270.155a48.684 48.684 0 0 0-7.751-6.5c.406-5.464 2.605-10.848 6.244-14.598a65.318 65.318 0 0 1 12.947 4.208c-6.001 3.481-10.323 9.948-11.44 16.89z" fill="#e36254"/><g fill="#a63c30"><path d="M409.357 263.655c-3.57-2.405-7.458-4.329-11.565-5.645-2.871-.92-6.39-1.823-8.604-3.87-.693-.64-1.339-1.387-1.589-2.297s.166-2.681 1.089-2.877c8.844-1.874 18.073-1.798 26.912.09-3.639 3.751-5.838 9.135-6.243 14.599zM442.22 295.25c-4.466 1.513-8.729 3.786-11.29 7.501-.44-3.605-.863-7.211-1.697-10.743a43.88 43.88 0 0 0-.978-3.48c6.655-8.32 18.217-12.096 28.753-10.197 3.217 5.202 5.714 10.847 7.329 16.748.11.401.214.804.316 1.209-7.034-2.494-14.746-3.01-22.433-1.038zM424.023 279.204a48.853 48.853 0 0 0-6.915-9.049c1.117-6.942 5.439-13.409 11.439-16.89a62.832 62.832 0 0 1 7.123 3.734 63.679 63.679 0 0 1 11.436 8.93c-3.807-.378-7.668.14-11.181 1.865-4.976 2.661-9.52 6.521-11.902 11.41zM465.422 312.007c.126.055.252.115.378.172a29.381 29.381 0 0 1-.695 3.437c-1.792 6.696-6.272 13.91-13.128 14.931-5.494.818-11.043-2.242-14.434-6.642-2.419-3.138-3.898-6.858-4.872-10.722 7.969-7.935 23.107-5.546 32.751-1.176z"/></g><path d="M449.87 331.956c-.373 0-.745-.016-1.116-.048-10.447-.916-17.134-12.406-18.342-23.283-.151-1.125-.298-2.285-.446-3.448-1.106-8.728-2.249-17.753-7.046-25.269l-.023-.037c-5.78-9.752-15.076-17.266-25.506-20.616-.351-.113-.712-.225-1.08-.339-2.744-.854-5.855-1.821-8.012-3.815a1.3 1.3 0 0 1-.053-.052c-2.071-2.145-2.673-4.054-1.791-5.674 3.374-6.189 29.138-1.651 29.396-1.6 4.273.844 8.724 2.29 13.226 4.297 17.675 7.806 31.324 23.745 36.511 42.638 3.49 11.051 2.697 30.115-10.084 35.996a13.513 13.513 0 0 1-5.634 1.25zm-24.733-53.437c5.103 8.007 6.283 17.322 7.425 26.329.146 1.156.293 2.31.447 3.458 1.094 9.849 6.93 20.204 15.975 20.996 1.823.161 3.7-.177 5.431-.973 10.868-4.999 12.021-22.293 8.676-32.855a.9.9 0 0 1-.014-.049c-4.977-18.154-18.082-33.467-35.057-40.964-4.328-1.929-8.591-3.315-12.673-4.122-2.738-.541-9.038-1.402-15.167-1.557-9.789-.245-11.235 1.492-11.426 1.843-.256.469.248 1.432 1.35 2.579 1.725 1.577 4.52 2.447 6.986 3.214.375.117.743.231 1.102.346 11.023 3.541 20.843 11.47 26.945 21.755z" fill="#7d271d"/><path d="M409.358 264.962a1.308 1.308 0 0 1-1.305-1.405c.44-5.919 2.849-11.536 6.609-15.411a1.308 1.308 0 0 1 1.877 1.821c-3.34 3.443-5.483 8.467-5.878 13.784a1.31 1.31 0 0 1-1.303 1.211zM430.929 304.058a1.308 1.308 0 0 1-1.076-2.05c2.391-3.467 6.298-6.083 11.947-7.997.031-.011.063-.02.095-.028 7.656-1.964 15.677-1.592 23.194 1.073a1.308 1.308 0 0 1-.874 2.464c-7.01-2.486-14.488-2.837-21.623-1.016-5.071 1.725-8.534 4.012-10.587 6.989a1.301 1.301 0 0 1-1.076.565zM428.254 289.836a1.305 1.305 0 0 1-1.02-2.124c6.828-8.536 18.606-12.723 30.006-10.667a1.308 1.308 0 1 1-.464 2.574c-10.307-1.858-21.359 2.05-27.5 9.727-.258.322-.638.49-1.022.49zM417.11 271.462a1.308 1.308 0 0 1-1.292-1.516c1.183-7.354 5.81-14.179 12.074-17.813a1.307 1.307 0 1 1 1.312 2.262c-5.603 3.25-9.743 9.368-10.805 15.967a1.307 1.307 0 0 1-1.289 1.1zM424.022 280.512a1.308 1.308 0 0 1-1.175-1.88c2.902-5.955 8.379-9.807 12.462-11.99l.04-.021c3.515-1.726 7.625-2.415 11.886-1.992a1.307 1.307 0 1 1-.258 2.602c-3.821-.379-7.338.202-10.455 1.727-5.281 2.827-9.302 6.669-11.324 10.819a1.309 1.309 0 0 1-1.176.735zM432.671 314.49a1.309 1.309 0 0 1-.923-2.234c3.848-3.832 9.623-5.762 16.703-5.583 5.633.143 12.015 1.652 17.51 4.142a1.307 1.307 0 1 1-1.079 2.381c-10.054-4.555-24.134-6.213-31.289.911a1.294 1.294 0 0 1-.922.383z" fill="#7d271d"/><g><path d="M349.564 183.788c20.815 3.665 46.024 17.477 49.901 48.02 3.055 24.07-11.04 30.871-29.278 41.552-15.514 9.091-54.083 11.945-82.181 5.603-4.925-1.112-3.5 3.012-8.198 1.962l-10.819-60.219c4.602-2.986 9.366-6.131 14.206-9.274 23.638-15.352 49.093-30.689 66.369-27.644z" fill="#e36254"/><path d="M321.597 283.702c-11.624 0-23.475-1.116-33.879-3.464-1.832-.414-2.292-.001-3.054.683-.913.821-2.163 1.946-5.142 1.28a1.308 1.308 0 0 1-1.002-1.044l-10.819-60.22a1.308 1.308 0 0 1 .575-1.328c2.328-1.51 4.697-3.061 7.096-4.632 2.345-1.535 4.717-3.089 7.109-4.642 24.327-15.799 49.559-30.964 67.309-27.836 12.014 2.115 23.346 7.161 31.906 14.209 10.841 8.924 17.255 20.678 19.064 34.934 3.008 23.696-10.3 31.435-27.148 41.233-.91.529-1.833 1.066-2.766 1.612-10.15 5.95-29.367 9.215-49.249 9.215zm-35.116-6.236a8.21 8.21 0 0 1 1.813.222c13.191 2.977 29.75 4.054 45.43 2.957 15.479-1.084 28.528-4.15 35.802-8.413.936-.548 1.861-1.086 2.773-1.617 16.637-9.675 28.658-16.666 25.869-38.643-4.614-36.35-38.542-45.086-48.83-46.897-16.809-2.962-42.587 12.618-65.431 27.454-2.389 1.552-4.759 3.104-7.101 4.636-2.152 1.409-4.28 2.802-6.376 4.164l10.503 58.456c.992.08 1.382-.266 1.985-.808.733-.66 1.679-1.511 3.563-1.511z" fill="#7d271d"/></g><path d="M302.574 274.48s-1.731-9.276-10.646-12.887c-10.502-4.255-20.732 3.922-20.732 3.922-4.3 8.586-13.819 37.688-13.819 37.688-1.965 1.017-4.433 2.555-6.152 3.948s-3.179 3.196-3.789 5.323-.257 4.597 1.232 6.233c1.49 1.636 4.181 2.175 6.016.939-1.09 2.16-.996 4.909.362 6.912s3.972 3.113 6.328 2.564 4.243-2.801 4.238-5.221c.559 1.824 2.413 3.116 4.32 3.177s3.812-.989 4.814-2.613c3.042-4.933 1.194-9.209.672-12.135 3.931-6.336 22.3-29.258 27.156-37.85z" fill="#a63c30"/><g><path d="M260.139 330.57c-2.392 0-4.785-1.227-6.175-3.278-1.109-1.635-1.535-3.684-1.252-5.665a6.325 6.325 0 0 1-5.011-2.039c-1.719-1.888-2.303-4.752-1.522-7.474.625-2.179 2.085-4.246 4.223-5.978 1.533-1.242 3.801-2.717 5.898-3.842 1.324-4.026 9.693-29.31 13.728-37.364a1.306 1.306 0 1 1 2.337 1.171c-4.208 8.402-13.65 37.219-13.745 37.509a1.306 1.306 0 0 1-.642.755c-2.079 1.075-4.406 2.568-5.93 3.803-1.199.971-2.754 2.57-3.355 4.667-.524 1.828-.154 3.788.942 4.992 1.115 1.224 3.093 1.561 4.32.735a1.308 1.308 0 0 1 1.897 1.674c-.897 1.776-.786 4.022.277 5.588 1.078 1.59 3.159 2.442 4.949 2.025 1.813-.423 3.231-2.155 3.227-3.944a1.308 1.308 0 0 1 2.558-.386c.379 1.24 1.717 2.208 3.112 2.253 1.433.045 2.896-.754 3.659-1.992 2.252-3.653 1.509-6.801.854-9.579-.135-.575-.263-1.117-.356-1.639a1.307 1.307 0 0 1 .176-.919c1.677-2.704 5.788-8.177 10.549-14.515 6.468-8.611 13.799-18.371 16.58-23.29a1.308 1.308 0 0 1 2.277 1.286c-2.864 5.067-10.25 14.899-16.766 23.574-4.292 5.713-8.358 11.126-10.145 13.893.068.319.148.658.231 1.01.695 2.945 1.646 6.979-1.174 11.552-1.259 2.041-3.611 3.309-5.969 3.233-1.383-.044-2.713-.593-3.744-1.462-.907 1.694-2.536 3.021-4.475 3.472a6.782 6.782 0 0 1-1.533.174z" fill="#7d271d"/></g><g><path d="M190.795 150.056c-8.651-8.809-13.734-12.65-23.458-20.533-5.335-4.325-11.644-9.282-19.208-9.49-3.188-.088-5.738 2.475-3.052 5.146 1.098 1.092 2.7 1.639 4.236 2.147-2.375-.103-3.939.048-6.189.696-2.251.648-4.34 1.86-5.639 3.619-.687.929-1.132 2.175-.502 3.156.494.771 1.54 1.153 2.527 1.168.986.015 1.937-.275 2.864-.562-8.583 18.953-6.836 55.339 2.235 65.868z" fill="#ffe8db"/><path d="M144.608 202.578c-.367 0-.732-.154-.991-.454-9.281-10.774-10.892-45.362-3.426-64.88-.23.021-.465.032-.702.028-1.54-.024-2.922-.702-3.607-1.769-.838-1.306-.631-3.04.552-4.639 1.377-1.864 3.625-3.32 6.329-4.098a22.975 22.975 0 0 1 1.652-.416 6.541 6.541 0 0 1-.259-.243c-1.421-1.413-1.869-3.079-1.229-4.572.748-1.745 2.835-2.878 5.239-2.807 8.207.226 15.02 5.749 19.995 9.781 1.21.981 2.348 1.899 3.43 2.772 7.533 6.078 12.51 10.093 20.137 17.86a1.308 1.308 0 0 1-1.866 1.832c-7.521-7.658-12.185-11.422-19.913-17.657a2228.31 2228.31 0 0 1-3.435-2.776c-4.945-4.008-11.1-8.997-18.421-9.199-1.437-.04-2.497.601-2.764 1.224-.254.592.224 1.244.669 1.688.906.9 2.403 1.396 3.725 1.832.62.205.993.835.876 1.477a1.296 1.296 0 0 1-1.342 1.07c-2.323-.099-3.725.057-5.771.646-2.154.62-3.912 1.735-4.95 3.139-.377.51-.722 1.254-.453 1.673.204.318.813.557 1.446.567.789.005 1.638-.25 2.457-.504a1.307 1.307 0 0 1 1.578 1.788c-3.903 8.619-5.917 21.891-5.387 35.503.512 13.152 3.356 24.253 7.421 28.973a1.308 1.308 0 0 1-.99 2.161z" fill="#e0a58f"/><path d="M293.594 265.112c-6.242 4.314-13.829 8.076-21.913 11.225a171.492 171.492 0 0 1-14.886 4.994 190.652 190.652 0 0 1-8.181 2.148c-13.395 3.198-26.018 4.673-34.254 4.199-13.007.747-36.948-3.358-57.586-11.446a134.772 134.772 0 0 1-8.338-3.582c-5.099-2.406-9.836-5.073-13.956-7.99-3.803-2.697-7.079-5.607-9.623-8.715-2.189-2.667-3.836-5.484-4.822-8.439a19.792 19.792 0 0 1-.934-8.513c.347-3.198 3.108-10.325 7.12-19.193 10.796-23.881 30.627-60.392 36.645-66.791 8.252-8.775 28.147-11.827 51.494-11.827s45.969 3.052 54.221 11.827 39.757 74.179 41.034 85.984c1.096 10.105-5.576 18.894-16.021 26.119z" fill="#e36254"/><path d="M248.615 283.479c-13.395 3.198-26.018 4.673-34.254 4.199-13.007.747-36.948-3.358-57.586-11.446a134.772 134.772 0 0 1-8.338-3.582c-5.099-2.406-9.836-5.073-13.956-7.99 4.89-23.418 28.367-41.169 56.589-41.169 31.77 0 57.527 22.495 57.527 50.242 0 .662.026 6.534.018 9.746z" fill="#ffe8db"/><circle cx="222.705" cy="212.713" fill="#fff" r="16.491"/><path d="M222.705 230.512c-9.814 0-17.799-7.985-17.799-17.799s7.985-17.799 17.799-17.799 17.799 7.985 17.799 17.799c0 9.815-7.985 17.799-17.799 17.799zm0-32.983c-8.373 0-15.184 6.811-15.184 15.184 0 8.372 6.811 15.184 15.184 15.184 8.372 0 15.184-6.811 15.184-15.184 0-8.372-6.811-15.184-15.184-15.184z"/><path d="M232.545 213.475c0 5.456-4.424 9.88-9.88 9.88s-9.88-4.424-9.88-9.88c0-5.459 4.424-9.883 9.88-9.883 2.405 0 4.612.862 6.324 2.292a6.81 6.81 0 0 0-.43.254c-2.537 1.609-3.775 4.208-2.766 5.807 1.013 1.596 3.894 1.587 6.434-.022.06-.038.119-.075.176-.116.095.543.142 1.101.142 1.668z"/><ellipse cx="160.367" cy="212.713" fill="#fff" rx="15.056" ry="16.491"/><path d="M160.367 230.512c-9.023 0-16.364-7.985-16.364-17.799s7.341-17.799 16.364-17.799 16.364 7.985 16.364 17.799c0 9.815-7.341 17.799-16.364 17.799zm0-32.983c-7.581 0-13.749 6.811-13.749 15.184 0 8.372 6.168 15.184 13.749 15.184s13.749-6.811 13.749-15.184c0-8.372-6.168-15.184-13.749-15.184z"/><path d="M154.321 213.475c0 5.456 4.424 9.88 9.88 9.88s9.88-4.424 9.88-9.88c0-.568-.047-1.126-.141-1.668l-.179.116c-2.537 1.608-5.418 1.618-6.431.022-1.01-1.599.226-4.198 2.765-5.807.141-.091.285-.176.43-.254a9.836 9.836 0 0 0-6.324-2.292c-5.456 0-9.88 4.424-9.88 9.883zM182.965 227.198h15.254c1.856 0 2.867 2.168 1.674 3.59l-7.233 8.623a2.875 2.875 0 0 1-4.44-.041l-6.956-8.613c-1.153-1.43-.136-3.559 1.701-3.559z"/><path d="M177.205 175.344c.672 2.77-2.98 6.033-8.156 7.288s-9.916.026-10.588-2.744c-.671-2.77 2.98-6.033 8.156-7.288s9.917-.026 10.588 2.744z" fill="#ffe8db"/><path d="M165.077 184.431c-1.187 0-2.317-.132-3.339-.397-2.489-.645-4.104-2.008-4.547-3.839-.444-1.83.367-3.782 2.284-5.495 1.698-1.517 4.125-2.715 6.834-3.371 5.967-1.446 11.311.181 12.166 3.706.444 1.831-.367 3.782-2.285 5.495-1.698 1.517-4.125 2.715-6.834 3.371-1.452.353-2.904.53-4.279.53zm5.47-11.009c-1.115 0-2.342.138-3.621.448-2.264.549-4.345 1.562-5.708 2.78-1.147 1.025-1.688 2.092-1.485 2.929s1.173 1.538 2.662 1.924c1.769.459 4.083.407 6.347-.142s4.345-1.562 5.707-2.78c1.147-1.025 1.689-2.093 1.486-2.929-.311-1.28-2.464-2.23-5.388-2.23z" fill="#e0a58f"/><path d="M221.599 183.098c-1.068 2.643-5.937 3.166-10.875 1.17-4.937-1.997-8.074-5.757-7.005-8.4s5.937-3.166 10.875-1.17c4.937 1.997 8.074 5.758 7.005 8.4z" fill="#ffe8db"/><path d="M216.495 186.788c-1.964 0-4.141-.451-6.261-1.308-5.693-2.302-9.087-6.739-7.727-10.102.706-1.746 2.503-2.859 5.059-3.134 2.265-.244 4.935.198 7.519 1.243s4.81 2.583 6.268 4.332c1.647 1.974 2.165 4.023 1.458 5.77-.706 1.746-2.503 2.859-5.058 3.134-.407.044-.828.065-1.258.065zm-7.687-11.994c-.332 0-.654.016-.962.05-1.53.164-2.592.717-2.914 1.515-.682 1.686 1.86 4.909 6.283 6.698 2.16.874 4.439 1.262 6.258 1.067 1.529-.165 2.591-.717 2.914-1.515.323-.798-.057-1.933-1.042-3.114-1.171-1.404-3.081-2.71-5.241-3.583-1.793-.726-3.671-1.118-5.296-1.118z" fill="#e0a58f"/><g><path d="M203.665 257.48c-3.617 0-7.331-1.507-9.965-4.2a15.258 15.258 0 0 1-3.14-4.781 15.258 15.258 0 0 1-3.14 4.781c-3.504 3.581-8.917 5.066-13.472 3.695-4.862-1.463-8.474-6.24-8.401-11.112a1.308 1.308 0 0 1 1.307-1.288h.02a1.308 1.308 0 0 1 1.288 1.327c-.057 3.746 2.755 7.43 6.54 8.569 3.646 1.097 8.007-.116 10.849-3.02 2.322-2.373 3.647-5.752 3.702-9.295a14.857 14.857 0 0 0-.087-1.848 1.308 1.308 0 0 1 1.3-1.45h.188a1.308 1.308 0 0 1 1.3 1.45c-.05.46-.079.921-.086 1.378.002.157.002.313 0 .469.055 3.544 1.38 6.923 3.702 9.296 2.841 2.904 7.202 4.117 10.848 3.02 3.785-1.139 6.596-4.823 6.54-8.569a1.308 1.308 0 0 1 1.288-1.327c.724-.027 1.316.566 1.327 1.288.073 4.872-3.539 9.649-8.401 11.112-1.13.341-2.314.505-3.507.505z"/></g><path d="M130.424 229.274a95.04 95.04 0 0 0-5.566 26.671c-2.189-2.667-3.836-5.484-4.822-8.439a19.792 19.792 0 0 1-.934-8.513c.347-3.198 3.108-10.325 7.12-19.193 1.73.019 3.53.579 4.528 1.976 1.52 2.122.571 5.047-.326 7.498zM293.594 265.112c-6.242 4.314-13.829 8.076-21.913 11.225a171.492 171.492 0 0 1-14.886 4.994c2.413-17.224-.063-38.853-4.89-52.058-.896-2.451-1.845-5.375-.325-7.497 1.098-1.539 3.179-2.066 5.065-1.969 4.587.239 8.472 3.362 11.782 6.545 6.307 6.059 19.844 20.665 25.167 38.76z" fill="#ffe8db"/><g><path d="M211.231 289.069c-13.061 0-34.941-3.786-54.934-11.62a136.416 136.416 0 0 1-8.418-3.617c-15.873-7.48-25.93-16.441-29.084-25.913a21.137 21.137 0 0 1-.993-9.068c1.304-12.049 35.599-77.685 44.112-86.738 7.637-8.121 25.282-12.238 52.446-12.238 16.307 0 45.16 1.59 55.173 12.238 8.785 9.342 40.112 75.004 41.382 86.739 1.582 14.603-12.183 28.348-38.759 38.702-21.621 8.422-45.414 12.124-57.796 11.432-.974.056-2.02.083-3.129.083zm3.13-146.578c-26.414 0-43.418 3.84-50.541 11.415-8.075 8.587-42.19 73.882-43.418 85.229-.292 2.68.003 5.357.874 7.957 2.924 8.779 12.508 17.208 27.719 24.376a133.034 133.034 0 0 0 8.257 3.547c21.383 8.379 44.876 12.054 57.035 11.358.049-.003.099-.003.15 0 12.079.693 35.456-2.95 56.772-11.254 14.694-5.725 39.055-18.013 37.109-35.985-1.199-11.08-32.38-76.395-40.687-85.229-6.924-7.361-25.842-11.414-53.27-11.414zm57.321 133.846h.004z" fill="#a63c30"/></g><g><path d="M287.396 197.903c8.218-11.207 7.111-47.618-2.929-65.841.947.214 1.917.429 2.899.336.982-.092 1.995-.556 2.428-1.363.551-1.027.009-2.234-.748-3.107-1.434-1.652-3.611-2.696-5.905-3.166s-3.865-.497-6.225-.209c1.491-.627 3.045-1.297 4.055-2.472 2.468-2.872-.275-5.228-3.446-4.891-7.525.8-13.426 6.235-18.406 10.965-9.077 8.62-13.843 12.846-21.778 22.306-7.235 14.57 39.832 54.539 50.055 47.442z" fill="#ffe8db"/><path d="M284.233 200.056c-7.207 0-18.709-7.609-27.5-15.202-12.245-10.577-24.978-26.083-20.563-34.973.046-.093.103-.18.169-.259 6.996-8.34 11.643-12.732 18.677-19.382 1.01-.955 2.073-1.959 3.203-3.032 4.644-4.41 11.004-10.449 19.168-11.317 2.373-.251 4.561.708 5.443 2.389.755 1.438.439 3.134-.868 4.654-.077.09-.157.177-.239.262.533.069 1.084.164 1.68.285 2.756.564 5.111 1.839 6.63 3.59 1.304 1.502 1.645 3.215.913 4.581-.6 1.118-1.925 1.903-3.458 2.047a6.403 6.403 0 0 1-.702.027c8.971 18.874 10.073 53.482 1.664 64.949a1.3 1.3 0 0 1-.309.301c-1.069.744-2.394 1.08-3.908 1.08zm3.163-2.153h.004zm-48.948-46.727c-2.808 6.08 5.376 19.072 19.994 31.698 12.093 10.445 24.043 16.422 28.037 14.064 3.595-5.114 5.506-16.286 4.993-29.274-.537-13.611-3.584-26.685-8.15-34.972a1.31 1.31 0 0 1 1.433-1.907c.837.189 1.702.385 2.489.31.631-.059 1.218-.345 1.398-.679.235-.438-.167-1.153-.583-1.632-1.144-1.319-2.984-2.293-5.18-2.742-2.087-.427-3.498-.473-5.804-.192a1.307 1.307 0 0 1-.665-2.503c1.283-.539 2.738-1.151 3.57-2.119.41-.477.835-1.164.536-1.735-.315-.6-1.422-1.157-2.852-1.004-7.283.774-13.028 6.229-17.644 10.613a1673.36 1673.36 0 0 1-3.207 3.036c-7.18 6.789-11.528 10.899-18.365 19.038z" fill="#e0a58f"/></g><g><path d="M268.552 137.014c-7.503-3.604-22.046 15.526-23.878 19.798s23.503 30.262 28.39 27.643 2.114-44.258-4.512-47.441z" fill="#a63c30"/><path d="M272.288 185.928c-2.758 0-7.296-2.88-13.53-8.594-4.056-3.718-8.066-7.994-11.003-11.732-4.743-6.038-4.78-8.144-4.283-9.304 1.418-3.307 11.435-17.25 19.84-20.404 2.206-.828 4.16-.847 5.805-.057 5.794 2.783 7.528 24.423 7.706 32.526.225 10.205-.832 16.007-3.143 17.246-.397.212-.862.319-1.392.319zm-26.4-28.627c-.082.589.953 3.476 6.685 9.993 4.421 5.027 9.759 10.039 13.931 13.079 4.703 3.427 5.931 2.935 5.943 2.93 1.025-.638 2.25-7.033 1.615-18.731-.808-14.879-3.783-25.277-6.076-26.379-.978-.469-2.241-.419-3.754.148-7.104 2.665-16.812 15.436-18.344 18.96z" fill="#7d271d"/></g></g><path d="M350.154 271.232c16.247 14.447 40.382 37.613 40.382 37.613s-6.643 16.659-1.391 18.299 24.321-12.803 24.125-19.514-16.749-51.64-16.749-51.64-14.651-10.461-29.137-5.23c-13.446 4.856-17.23 20.472-17.23 20.472z" fill="#a63c30"/><g><path d="M390.098 328.579c-.48 0-.93-.059-1.342-.188-1.012-.316-1.807-1.029-2.299-2.063-2.019-4.24 1.382-14.053 2.546-17.142-3.906-3.739-25.128-24.005-39.718-36.977a1.307 1.307 0 1 1 1.738-1.954c16.079 14.298 40.177 37.415 40.419 37.647.384.368.506.933.309 1.427-1.848 4.638-4.278 13.05-2.933 15.876.231.486.505.624.717.691 1.535.479 6.309-1.392 12.132-5.806 6.043-4.581 10.374-9.805 10.297-12.422-.155-5.316-13.29-39.432-18.338-52.129a1.307 1.307 0 1 1 2.43-.966c.748 1.882 18.321 46.156 18.522 53.018.126 4.323-5.771 10.367-11.331 14.582-2.121 1.607-8.819 6.406-13.149 6.406z" fill="#7d271d"/></g></g></svg>