<svg height="512" viewBox="0 0 309.594 309.594" width="512" xmlns="http://www.w3.org/2000/svg"><circle cx="154.797" cy="158.028" fill="#d0df92" r="134"/><path d="M154.785 217.192c-.543 4.138.186 8.206 1.726 11.805 1.155 2.709 2.755 5.186 4.663 7.419 2.866 3.348 6.426 6.165 10.436 8.372a41.33 41.33 0 0 0 13.221 4.563c4.726.768 9.727.709 14.694-.466a35.336 35.336 0 0 0 10.894-4.608c5.218-3.32 9.887-8.215 13.558-14.646 3.679-6.437 6.399-14.39 7.968-24.047 1.188-7.323 1.716-15.637 1.472-25.074-.109-4.195.146-7.89.668-11.106.704-4.338 1.892-7.803 3.313-10.515 2.148-4.07 4.762-6.467 7.432-7.856 2.677-1.377 5.5-1.765 8.248-1.324a13.914 13.914 0 0 1 6.773 3.153c1.981 1.691 3.604 3.979 4.596 6.952a7 7 0 1 0 13.288-4.407c-1.773-5.36-4.891-9.878-8.812-13.209a27.9 27.9 0 0 0-13.603-6.31 27.225 27.225 0 0 0-11.382.563c-5.663 1.498-11.043 4.947-15.192 10.164-4.165 5.216-7.114 12.109-8.481 20.544-.678 4.177-.974 8.741-.844 13.714.227 8.7-.27 16.154-1.295 22.467-1.201 7.404-3.129 13.228-5.425 17.717-1.724 3.369-3.648 5.993-5.662 8.038-3.028 3.063-6.249 4.869-9.609 5.867-3.356.989-6.891 1.132-10.355.57a27.329 27.329 0 0 1-7.83-2.545c-3.628-1.811-6.626-4.376-8.425-6.949-.906-1.285-1.52-2.558-1.86-3.732-.34-1.181-.425-2.253-.29-3.307a7.002 7.002 0 0 0-13.885-1.807z" fill="#fbb807"/><path d="M277.734 155.406c-1.773-5.36-4.891-9.878-8.812-13.209a27.9 27.9 0 0 0-13.603-6.31 27.225 27.225 0 0 0-11.382.563c-5.663 1.498-11.043 4.947-15.192 10.164l-.068.092c3.997 2.399 7.72 5.247 11.153 8.477 1.569-1.923 3.271-3.253 4.998-4.152 2.677-1.377 5.5-1.765 8.248-1.324a13.914 13.914 0 0 1 6.773 3.153c1.981 1.691 3.604 3.979 4.596 6.952a6.999 6.999 0 0 0 8.847 4.441 6.999 6.999 0 0 0 4.442-8.847z" fill="#fffcc8"/><path d="M250.941 135.534c1.473 0 2.938.119 4.379.354a27.9 27.9 0 0 1 13.603 6.31c3.921 3.331 7.038 7.849 8.812 13.209a7 7 0 1 1-13.288 4.406c-.991-2.974-2.614-5.261-4.596-6.952a13.896 13.896 0 0 0-6.773-3.153 13.596 13.596 0 0 0-2.148-.173c-2.054 0-4.116.478-6.1 1.497-2.67 1.39-5.283 3.786-7.432 7.856-1.422 2.712-2.609 6.177-3.313 10.515-.522 3.217-.777 6.911-.668 11.106.244 9.438-.283 17.751-1.472 25.075-1.568 9.656-4.289 17.609-7.968 24.046-3.671 6.432-8.34 11.326-13.558 14.646a35.312 35.312 0 0 1-10.894 4.608 36.634 36.634 0 0 1-8.444.975c-2.118 0-4.21-.177-6.25-.509a41.314 41.314 0 0 1-13.221-4.563c-4.01-2.207-7.569-5.024-10.436-8.372-1.908-2.233-3.508-4.71-4.663-7.419-1.54-3.599-2.269-7.667-1.726-11.805a7.002 7.002 0 0 1 7.845-6.038 7 7 0 0 1 6.038 7.845c-.135 1.054-.05 2.126.29 3.307.341 1.175.954 2.447 1.86 3.732 1.799 2.573 4.797 5.139 8.425 6.949a27.329 27.329 0 0 0 7.83 2.545 25 25 0 0 0 4.007.327c2.146 0 4.281-.288 6.349-.897 3.36-.998 6.581-2.805 9.609-5.867 2.014-2.045 3.938-4.669 5.662-8.038 2.296-4.489 4.224-10.313 5.425-17.717 1.025-6.313 1.521-13.767 1.295-22.467-.13-4.973.166-9.537.844-13.714 1.367-8.435 4.316-15.328 8.481-20.544 4.149-5.217 9.529-8.666 15.192-10.164a27.223 27.223 0 0 1 7.004-.916m0-3c-2.627 0-5.243.343-7.776 1.019-6.512 1.723-12.313 5.594-16.767 11.194-4.612 5.775-7.673 13.156-9.095 21.933-.717 4.413-1.014 9.215-.882 14.271.211 8.102-.212 15.473-1.258 21.909-1.07 6.603-2.798 12.265-5.134 16.831-1.477 2.887-3.202 5.343-5.129 7.3-2.471 2.498-5.195 4.166-8.326 5.096a19.42 19.42 0 0 1-5.494.773c-1.158 0-2.345-.097-3.527-.289a24.404 24.404 0 0 1-6.962-2.264c-3.057-1.525-5.72-3.706-7.313-5.987-.682-.967-1.177-1.948-1.438-2.85-.219-.758-.281-1.423-.196-2.09.711-5.462-3.159-10.489-8.627-11.2a9.92 9.92 0 0 0-1.299-.085c-5.002 0-9.261 3.745-9.907 8.711-.58 4.421.091 9.046 1.941 13.371 1.227 2.875 2.956 5.63 5.141 8.188 3.062 3.576 6.853 6.621 11.271 9.052a44.124 44.124 0 0 0 14.185 4.896 42.18 42.18 0 0 0 6.732.547c3.1 0 6.173-.354 9.135-1.055a38.27 38.27 0 0 0 11.816-4.999c5.829-3.709 10.726-8.988 14.55-15.688 3.943-6.899 6.744-15.329 8.324-25.053 1.243-7.665 1.751-16.289 1.509-25.634-.1-3.811.112-7.359.63-10.547.603-3.714 1.615-6.944 3.01-9.603 1.654-3.136 3.671-5.293 6.16-6.589a10.22 10.22 0 0 1 6.389-1.023 10.885 10.885 0 0 1 5.303 2.476c1.688 1.442 2.933 3.333 3.693 5.616a9.983 9.983 0 0 0 9.489 6.851 9.967 9.967 0 0 0 3.148-.51c5.233-1.735 8.08-7.405 6.345-12.64-1.896-5.729-5.256-10.762-9.717-14.551a30.899 30.899 0 0 0-15.063-6.984 30.345 30.345 0 0 0-4.861-.393z" fill="#740806"/><path d="M275.794 223.781c-1.9.6-3.6.9-5.1.9-6.6 0-9.6-5.1-14.5-6.4-1.7-.4-3.4-.7-4.7-.7-2.1 0-3.5.7-3.1 2.8 1.1 5.7 2.8 10.1-2.6 13.7-1.7 1.2-3.4 1.6-4.9 1.6-3.2 0-5.5-1.8-5.5-1.8 2.4-9.1-1.7-13.1-1.6-13.8.7-4.4-22.4-15.7-32.7-20.6-.1 0-.5-.3-1.2-.7-.8-9.1-4-21.39-11.89-30.19.23.42 7.7 13.98 8.39 32.49.09 2.03.13 3.97.13 5.78 0 5.86-.4 10.41-.63 12.62l13.4 50.5c33.5 1.8 27.8 27.8 27.8 27.8h-47.8l-22.4-44.4c5.39-2.1 10.78-5.19 15.38-9.89-.38.25-6.7 4.29-16.58 7.39-3.15 1-6.42 1.8-9.76 2.39s-6.74.96-10.14 1.11c-.95.04-1.88.05-2.8.05-17.39 0-30.2-5.95-30.2-5.95 6.1 4.7 13 7 19.5 8.1v41.1h-55.9c0-.6-7.8-26 25.7-27.8 0 0-4.3-25-7.2-42.1-1.2-3.2-3.5-24.9-2.5-36.5 2.5-18.5 11.3-31.3 11.3-31.3-8.2 7.6-12.4 18.6-14.3 27.3-5.7 1.1-13.2 2.1-20.6 2.1-20.4 0-41.1-7.4-28.4-39.3 0 0 58.4-13 67.8-14.1 6.9-.8 13.8-1.1 20.6-1.1 32.5 0 61.6 7.6 62 8.1.2 0 .3.1.5.1 15.3 4.3 40.9 34.4 51 47.6.4.5.9.7 1.4.7 2.5 0 5.9-4.7 5.9-4.7l5.3-12.8s1.5-.7 3.4-.7c2 0 4.4.7 6 3.5 3.3 5.6-8.2 14.1-8.2 14.1s1 1.4 1.3 2c.1.1.2.2.4.2 2.5 0 14.7-8.3 14.7-8.3s6.8 1.3 7.5 10.3c.7 9.2-13.2 7.1-18.3 8.2v1.7c.4 3.2 19.5 6.1 19.5 6.1s5 9.3-5.4 12.8z" fill="#fbb807"/><path d="M97.697 171.783c.9-2.8 2-5.5 3.1-8.1-18.2 5.1-37.1 7.6-55.6 11.8-2.4.6-4.8.7-7.1.6 7.5 17.2 38.4 14.1 53.5 10.8 1.5-5.2 3.5-10.2 6.1-15.1zM251.997 210.983s-12.6-3.6-12.6 4.5l-33.7-19.7c2 0-10.3-28.6-21.4-32.3 1.7 6 2.7 12.3 3 18.5.7 15.9 2 43.2-9.6 53.7-27.3 24.7-63.8 9.5-68.4 8.4 3.3 8 11.9 14 11.9 14l-13.3 39.7h24.4v-43.8c11.1 1.4 23 .3 33.4-3 0 0 3.6 1.9 20.4-8.3l11.6 33.3s25.9.2 27.3 21.9h12.1s5.7-26-27.8-27.8l-13.4-50.5c.4-3.4 1.1-12.4.2-23.1 2.9 2 4.9 3.3 4.9 3.2 10.4 4.9 33.4 16.2 32.7 20.6-.1.8 3.9 4.7 1.6 13.8 0 0 5 3.9 10.4.2s3.7-8 2.6-13.7c-.6-3.4 3.3-3.2 7.8-2.1 6 1.5 9.3 8.9 19.6 5.4 1.1-.4 2-.8 2.7-1.2-2.8-1.3-26.4-11.7-26.4-11.7z" fill="#f28a1c"/><path d="M166.897 165.283c-1.9-23.4-14.7-26.6-28.2-25.3-16.5 1.5-30.7 30.3-26 68.7 2.7 21.6 15.2 33.2 34.1 31s26.7-16.1 24.5-31.6z" fill="#fffcc8"/><path d="m283.994 209.981-.7-1.4-1.5-.2c-4.4-.7-8.8-1.6-12.1-2.5 4.2-.3 8.7-1.1 11.4-4.1 1.6-1.8 2.3-4 2.1-6.7-.7-9-6.8-12.5-9.9-13.1l-1.2-.2-1 .7c-1.8 1.2-3.7 2.5-5.6 3.6 2.3-3.3 3.7-7.1 1.6-10.7-1.9-3.2-5-5-8.6-5-2.5 0-4.4.8-4.7.9l-1.1.5-.5 1.1-5.2 12.4c-.9 1.2-2.1 2.4-2.9 2.9-5.3-6.9-34.1-43-52.1-48-.1 0-.2-.1-.3-.1-.9-.4-2.4-.8-5.6-1.5-2.9-.7-7.6-1.7-13.8-2.8-10.3-1.8-26.3-3.9-43.5-3.9-7.3 0-14.4.4-20.9 1.1-9.5 1.1-65.8 13.6-68.2 14.2l-1.5.3-.6 1.5c-5.4 13.4-5.5 24-.4 31.5 5.3 7.8 16.2 11.9 31.6 11.9 8.2 0 15.7-1.1 20.7-2.1-1.2 11.9 1.1 33.7 2.5 38.2 2.3 13.3 5.4 31.3 6.6 38.6-10.1 1.1-17.4 4.5-21.7 10.3-4.1 5.4-5.3 12.8-3.5 20.7l.2 2.6h61.7v-43.5c2.2.2 4.4.3 6.6.3 4 0 8-.3 12-.9l.1.1c2.1-.3 4.4-.8 6.7-1.3l3.6-.9 22.5 44.6.8 1.6h52l.5-2.4c.1-.5 2.4-11.3-4.5-20.3-4.9-6.4-12.9-10.1-23.9-11l-12.7-47.9c.3-3.1.8-9.3.5-17.1.3.2.5.3.7.3 21.9 10.3 29.5 16 30.6 17.8 0 .9.4 1.6.7 2.2.8 1.5 2.5 4.7.9 10.7l-.5 1.9 1.5 1.2c.3.3 3.2 2.4 7.3 2.4 2.3 0 4.5-.7 6.6-2.1 6.4-4.4 5.3-9.9 4.2-14.9-.1-.4-.2-.8-.2-1.2.7 0 1.9.1 4 .6 1.5.4 2.8 1.3 4.4 2.4 2.7 1.8 6 4.1 10.8 4.1 1.9 0 3.9-.4 6.1-1.1 4.1-1.4 6.8-3.6 8-6.8 2.1-4.4-.3-9-.6-9.5zm-8.2 13.8c-1.9.6-3.6.9-5.1.9-6.6 0-9.6-5.1-14.5-6.4-1.7-.4-3.4-.7-4.7-.7-2.1 0-3.5.7-3.1 2.8 1.1 5.7 2.8 10.1-2.6 13.7-1.7 1.2-3.4 1.6-4.9 1.6-3.2 0-5.5-1.8-5.5-1.8 2.4-9.1-1.7-13.1-1.6-13.8.7-4.4-22.4-15.7-32.7-20.6-.1 0-.5-.3-1.2-.7-.8-9.1-4-21.39-11.89-30.19.23.42 7.7 13.98 8.39 32.49.09 2.03.13 3.97.13 5.78 0 5.86-.4 10.41-.63 12.62l13.4 50.5c33.5 1.8 27.8 27.8 27.8 27.8h-47.8l-22.4-44.4c5.39-2.1 10.78-5.19 15.38-9.89-.38.25-6.7 4.29-16.58 7.39-3.15 1-6.42 1.8-9.76 2.39s-6.74.96-10.14 1.11c-.95.04-1.88.05-2.8.05-17.39 0-30.2-5.95-30.2-5.95 6.1 4.7 13 7 19.5 8.1v41.1h-55.9c0-.6-7.8-26 25.7-27.8 0 0-4.3-25-7.2-42.1-1.2-3.2-3.5-24.9-2.5-36.5 2.5-18.5 11.3-31.3 11.3-31.3-8.2 7.6-12.4 18.6-14.3 27.3-5.7 1.1-13.2 2.1-20.6 2.1-20.4 0-41.1-7.4-28.4-39.3 0 0 58.4-13 67.8-14.1 6.9-.8 13.8-1.1 20.6-1.1 32.5 0 61.6 7.6 62 8.1.2 0 .3.1.5.1 15.3 4.3 40.9 34.4 51 47.6.4.5.9.7 1.4.7 2.5 0 5.9-4.7 5.9-4.7l5.3-12.8s1.5-.7 3.4-.7c2 0 4.4.7 6 3.5 3.3 5.6-8.2 14.1-8.2 14.1s1 1.4 1.3 2c.1.1.2.2.4.2 2.5 0 14.7-8.3 14.7-8.3s6.8 1.3 7.5 10.3c.7 9.2-13.2 7.1-18.3 8.2v1.7c.4 3.2 19.5 6.1 19.5 6.1s5 9.3-5.4 12.8z" fill="#740806"/><g><path d="M211.395 81.09c28.884-21.404 13.894-49.641 13.894-49.641l-36.679 13.96c-20.21-12.155-38.863-11.996-52.566-8.726l-30.363-25.77s-23.635 21.697-3.35 51.594c-9.667 14.518-22.185 34.403-21.389 38.911.606 3.438 2.853 4.388 5.48 3.291-1.179 3.616-1.529 7.251.061 10.062 1.543 2.73 3.665 3.123 5.611 1.791 8.726 18.375 47.563 38.697 47.563 38.697s47.414-2.01 63.674-18.911c1.354 1.138 3.167 1.088 5.143-.632 2.436-2.119 3.318-5.662 3.413-9.465 2.111 1.911 4.545 1.765 6.264-1.274 1.617-2.861-2.889-25.9-6.756-43.887z" fill="#fbb807"/><path d="M79.465 101.682v-.004z" fill="#740806"/><g fill="none"><path d="M176.591 149.61zM172.752 150.58l-.623.148c.208-.047.415-.1.623-.148zM173.306 140.423c28.029-15.802 27.347-38.161 27.347-38.161.743-38.026-14.505-53.483-14.505-53.483s-2.977-1.809-6.762-4.156l-19.822 12.069s4.167-12.796 10.891-17.699l-.039-.026c-6.513-1.91-12.707-2.678-18.448-2.68a67.05 67.05 0 0 0-15.574 1.855l-.739.176-29.88-25.359c-.224.242-.48.524-.765.855a40.183 40.183 0 0 0-3.833 5.271c-2.794 4.572-5.567 11.118-5.566 19.074.005 6.832 2.023 14.743 7.964 23.506l.566.834-.559.839C97.611 72.3 90.552 83.324 86.27 91.407c-1.426 2.689-2.542 5.056-3.195 6.852-.374 1.022-.591 1.866-.645 2.397l-.001.013-.001.01a1.83 1.83 0 0 0-.016.208V100.916l-.001.067c0 .1.007.165.009.172l.001.003c.187 1.064.539 1.69.868 2.018.336.324.651.454 1.18.466.369.001.838-.092 1.377-.317l3.017-1.259-1.014 3.108c-.587 1.797-.939 3.562-.937 5.132.001 1.42.277 2.665.877 3.726.409.726.83 1.179 1.189 1.433.364.253.652.332.964.336.352 0 .786-.125 1.304-.477l1.526-1.044.707 1.709c2.344 5.669 6.267 10.842 10.903 15.409 4.634 4.567 9.972 8.523 15.089 11.78a126.455 126.455 0 0 0 6.618 3.926c18.795 4.898 34.603.43 47.217-6.681z"/></g><path d="M224.249 63.97c2.563-5.328 3.427-10.54 3.428-15.18.006-7.229-2.121-13.044-3.158-15.443L188.462 47.07l-.625-.376c-5.992-3.602-11.824-6.086-17.422-7.728l.039.026c-6.724 4.903-10.891 17.699-10.891 17.699l19.822-12.069c3.785 2.347 6.762 4.156 6.762 4.156s15.029 15.254 14.511 52.705c8.779 4.118 13.33 9.114 15.616 13.445-.396-2.852-.933-6.132-1.567-9.665-1.354-7.547-3.125-16.165-4.779-23.858l-.203-.945.777-.575c6.913-5.125 11.181-10.588 13.747-15.915z" fill="#f28a1c"/><path d="M200.658 101.483c-8.647-4.056-21.394-7.262-40.134-8.141 0 0 3.285-23.988-7.137-25.777-10.422-1.79-15.812 21.877-15.812 21.877-38.912-11.382-57.919 4.687-56.634 11.976.606 3.438 2.853 4.388 5.48 3.291-1.179 3.616-1.529 7.251.061 10.062 1.543 2.73 3.665 3.123 5.611 1.791 17.277 30.785 47.563 38.697 47.563 38.697s43.938 2.119 63.674-18.911c1.354 1.138 3.167 1.088 5.143-.632 2.436-2.119 3.318-5.662 3.413-9.465 2.111 1.911 4.545 1.765 6.264-1.274.361-.638.859-4.868-1.876-10.048-2.286-4.332-6.837-9.327-15.616-13.446z" fill="#fffcc8"/><path d="M203.21 102.766s5.12 5.335 5.039 10.022c-.115 6.594-6.926 2.428-6.926 2.428 11.585 19.996-7.596 12.835-7.596 12.835-12.478 24.703-55.025 21.908-55.025 21.908s-22.078-5.888-45.749-31.936c17.401 29.561 46.705 37.235 46.705 37.235s43.938 2.119 63.674-18.911c1.354 1.138 3.167 1.088 5.143-.632 2.436-2.119 3.318-5.662 3.413-9.465 2.111 1.911 4.545 1.765 6.264-1.274.631-1.117 1.682-13.244-14.942-22.21z" fill="#e5ba97"/><path d="M209.106 76.841s-3.394-12.879-10.674-22.085l25.172-14.554c.001 0 6.78 23.295-14.498 36.639zM104.174 21.067c-2.542 4.757-11.198 21.29 2.158 38.128 0 0 4.877-7.753 10.106-12.907z" fill="#fffcc8"/><path d="M148.807 54.573s-8.602-11.513-6.121-19.465l8.521-.828c-2.065 5.704-2.4 20.293-2.4 20.293z" fill="#f28a1c"/><path d="M141.246 77.996a27.19 27.19 0 0 0 .148-1.591c.664-9.598-3.856-17.783-10.543-18.639-7.051-.902-13.835 6.694-15.149 16.964-1.044 8.18 1.7 15.574 6.421 18.708 1.207.801 2.537 1.338 3.973 1.521.44.057.878.079 1.314.071 6.564-.125 12.604-7.403 13.836-17.034z" fill="#fff"/><path d="M168.655 57.717c6.863-4.245 15.991-3.544 21.85 3.421a24.572 24.572 0 0 1 3.222 4.935c.416.844 1.556.388 1.431-.574-.734-5.67-3.147-14.132-10.916-16.738-7.122-2.39-13.083 3.15-16.524 7.588-.575.741.174 1.84.937 1.368zM121.115 51.408a20.663 20.663 0 0 1 4.133-2.792c6.79-3.452 13.677-.625 17.121 5.357.383.665 1.327.055 1.178-.758-.889-4.866-3.208-11.56-9.25-12.275-6.592-.781-11.42 5.162-14.014 9.472-.44.731.223 1.524.832.996z" fill="#740806"/><path d="M191.009 83.672c1.547-11.402-4.229-21.603-12.905-22.777-8.673-1.178-16.958 7.111-18.508 18.514a27.27 27.27 0 0 0-.235 4.471 25.74 25.74 0 0 1 .187-1.93c1.427-10.496 9.053-18.125 17.036-17.042 7.986 1.082 13.302 10.471 11.878 20.965-.95 7.001-4.668 12.709-9.404 15.424 3.333-1.368 6.314-4.077 8.497-7.677 1.721-2.839 2.948-6.226 3.454-9.948z" fill="#740806"/><path d="M188.461 85.872c1.424-10.494-3.892-19.883-11.878-20.965-7.983-1.083-15.608 6.546-17.036 17.042a26.224 26.224 0 0 0-.187 1.93c-.299 5.101.989 9.817 3.365 13.295 2.138 3.13 5.154 5.257 8.703 5.739 2.656.36 5.267-.263 7.629-1.617 4.736-2.715 8.453-8.423 9.404-15.424z" fill="#fff"/><g fill="#740806"><path d="M115.702 74.731c1.314-10.27 8.099-17.866 15.149-16.964 6.687.855 11.207 9.041 10.543 18.639l.033-.209c1.408-11.012-3.581-20.723-11.142-21.69-7.563-.967-14.834 7.177-16.243 18.188-.745 5.823.312 11.268 2.581 15.264 1.407 2.48 3.282 4.393 5.5 5.48-4.72-3.134-7.465-10.529-6.421-18.708zM161.78 81.893c-.695 1.046.409 2.308 1.592 1.889 3.874-1.464 10.681-2.828 15.243 2.975.792 1.008 2.366.49 2.338-.79-.135-3.208-2.058-7.424-7.934-8.827-5.973-1.463-10.564 3.629-11.239 4.753z"/><path d="M120.32 75.19c-.595 1.105.621 2.26 1.76 1.732 3.722-1.815 10.374-3.803 15.453 1.553.881.931 2.401.27 2.254-1.003-.43-3.182-2.735-7.202-8.716-8.056-6.082-.902-10.182 4.591-10.751 5.774zM173.065 115.528c1.156-.688 2.164-1.488 2.953-2.45.797-.959 1.367-2.101 1.575-3.352a6.933 6.933 0 0 0-.028-2.32c4.132.583 8.28.214 7.718-1.146-3.82-.395-6.917-1.146-9.273-1.91a1.845 1.845 0 0 0-.51-.17 30.296 30.296 0 0 1-3.776-1.554c-1.08-.54-2.189.717-1.491 1.701.568.803 1.712 1.568 3.177 2.104.028.115.066.229.118.341.442.979.519 1.721.422 2.349-.097.545-1.73 2.564-2.451 3.032-1.271.818-3.034 1.55-5.135 2.131-3.146.87-7.039 1.563-11.18 1.546-17.678-.069-10.844-10.201-13.184-10.403-2.2-.19-3.029 8.248-11.722 6.475-3.208-1.139-3.61-1.665-5.873-3.207-2.072-1.398-3.643-2.914-4.579-4.343-.468-.714-.784-1.403-.953-2.043a4.395 4.395 0 0 1-.099-1.846c.127-.727.445-1.479 1.086-2.297l.072-.124.086.004c1.552.027 2.887-.3 3.66-.858.867-.625.296-1.995-.762-1.851-1.982.269-6.36.555-12.396-.834-.801.911 2.068 2.269 5.397 3.012a8.14 8.14 0 0 0-.789 2.344 8.056 8.056 0 0 0 .174 3.387c.505 1.919 1.636 3.68 3.155 5.28 1.579 1.66-27.12 19.945 19.454 30.876s32.842-22.503 35.154-23.874z"/></g><path d="M119.96 90.396c.292-1.758-3.667-3.879-8.843-4.738-5.177-.858-9.609-.13-9.901 1.628s3.668 3.879 8.844 4.738c5.177.858 9.609.129 9.9-1.628zM196.967 103.175c.292-1.758-3.667-3.879-8.843-4.738-5.177-.858-9.609-.13-9.901 1.628s3.667 3.879 8.844 4.738c5.175.859 9.608.13 9.9-1.628zM130.47 123.221a7.952 7.952 0 0 1 1.091-1.219c3.284-3.015 11.457-3.352 18.778 2.208 1.33-.375 3.123-.471 5.055-.194 3.806.544 6.699 2.317 6.464 3.963-.209 1.469-2.847 2.334-6.119 2.115a18.02 18.02 0 0 1-.649-.056 19.284 19.284 0 0 1-.345-.041l-.203-.024-.142-.024-.051-.008a16.787 16.787 0 0 1-1.16-.222l-.057-.014c-1.58-.358-3.604-1.037-5.532-2.333-1.048.733-2.969 3.154-4.162 4.536-.29.335-.583.687-.879 1.068-4.677 4.867-17.077-2.764-12.089-9.755zM143.792 94.429c-29.724-5.104-9.567 11.36-2.168 12.631s31.892-7.528 2.168-12.631z" fill="#e93e8f"/><path d="M139.258 96.908c-.634-.44-1.547-.803-2.594-.982-1.351-.231-2.592-.103-3.355.28-.427.214-.706.507-.768.863-.17.993 1.399 2.092 3.505 2.453 2.107.361 3.953-.15 4.123-1.144.086-.498-.269-1.024-.911-1.47z" fill="#fff"/><path d="M226.952 65.271c2.785-5.784 3.726-11.471 3.725-16.481-.009-10.407-4.004-17.918-4.064-18.044l-.621-1.17-37.249 14.177c-13.191-7.783-25.788-10.469-36.777-10.466-5.64 0-10.851.705-15.522 1.768L105.642 8.913l-.975.896c-.071.067-3.055 2.813-6.051 7.712-2.992 4.896-6.005 11.972-6.006 20.638-.005 7.205 2.114 15.474 7.926 24.343-4.433 6.676-9.384 14.365-13.376 21.184-2.078 3.551-3.894 6.861-5.246 9.686-.676 1.414-1.237 2.706-1.657 3.861-.416 1.15-.7 2.153-.805 3.076h-.001l-.001.01a.059.059 0 0 1-.002.013h.001a4.618 4.618 0 0 0-.035.514h-.002v.028l-.001.108c0 .215.011.443.056.698.261 1.477.806 2.712 1.694 3.61.854.874 2.029 1.324 3.195 1.342-.27 1.228-.442 2.458-.443 3.675-.001 1.806.358 3.598 1.266 5.203.574 1.014 1.254 1.826 2.064 2.402.805.577 1.755.894 2.701.89a4.74 4.74 0 0 0 1.417-.231c2.673 5.774 6.738 10.922 11.389 15.423 7.555 7.307 16.626 12.948 23.82 16.787 7.194 3.837 12.513 5.864 12.555 5.881l.227.086.243.01c.019.001 1.188.051 3.217.051 5.395-.001 16.856-.348 28.939-2.925 6.042-1.29 12.242-3.137 17.927-5.803 5.286-2.481 10.122-5.685 13.942-9.825.545.23 1.133.366 1.742.363.708 0 1.421-.165 2.106-.468.686-.303 1.348-.741 1.994-1.303 1.467-1.276 2.426-2.95 3.024-4.762.35-1.062.571-2.18.714-3.324.48.158.982.248 1.493.248.946.004 1.897-.313 2.702-.89.81-.577 1.491-1.389 2.065-2.403.271-.495.361-.945.436-1.451.069-.504.096-1.06.096-1.689-.002-1.87-.246-4.406-.656-7.454-1.199-8.882-3.838-22.045-6.272-33.415 6.81-5.217 11.207-10.863 13.888-16.437zm-122.569 66.126c-4.636-4.567-8.559-9.74-10.903-15.409l-.707-1.709-1.526 1.044c-.518.353-.952.477-1.304.477-.312-.004-.6-.083-.964-.336-.359-.254-.78-.707-1.189-1.433-.6-1.061-.876-2.306-.877-3.726-.002-1.571.349-3.335.937-5.132l1.014-3.108-3.017 1.259c-.539.225-1.008.318-1.377.317-.529-.012-.844-.142-1.18-.466-.33-.328-.681-.955-.868-2.018l-.001-.003a1.056 1.056 0 0 1-.009-.172l.001-.067V100.886c0-.048.005-.117.016-.208l.001-.01.001-.013c.055-.531.271-1.375.645-2.397.653-1.797 1.769-4.163 3.195-6.852 4.282-8.082 11.341-19.107 17.31-28.068l.559-.839-.566-.834c-5.94-8.763-7.959-16.674-7.964-23.506-.001-7.956 2.772-14.502 5.566-19.074a40.114 40.114 0 0 1 3.833-5.271c.286-.331.541-.613.765-.855l29.88 25.359.739-.176a67.057 67.057 0 0 1 15.574-1.855c5.741.002 11.936.769 18.448 2.68 5.598 1.642 11.43 4.126 17.422 7.728l.625.376 36.057-13.723c1.037 2.399 3.164 8.214 3.158 15.443-.001 4.64-.865 9.852-3.428 15.18-2.566 5.327-6.835 10.79-13.747 15.915l-.777.575.203.945c1.654 7.693 3.425 16.311 4.779 23.858.677 3.773 1.25 7.279 1.652 10.258.403 2.976.631 5.441.629 7.053 0 .537-.026.977-.068 1.28a2.595 2.595 0 0 1-.065.336l-.019.061c-.407.717-.825 1.168-1.182 1.421-.365.254-.653.332-.965.336-.234 0-.494-.053-.798-.19a3.941 3.941 0 0 1-.998-.68l-2.425-2.195-.081 3.27c-.044 1.797-.278 3.496-.754 4.931-.476 1.439-1.176 2.597-2.145 3.44-.461.401-.88.665-1.237.822-.358.158-.649.212-.894.212-.38-.006-.689-.115-1.063-.42l-1.139-.956-.966 1.131c-3.571 4.181-8.381 7.455-13.79 9.991-3.733 1.752-7.748 3.135-11.81 4.245-.873.239-1.745.463-2.621.675-.406.099-.812.202-1.218.295-.208.048-.415.101-.623.148a118.39 118.39 0 0 1-9.653 1.728 147.76 147.76 0 0 1-19.668 1.352c-.99 0-1.767-.012-2.294-.024-.239-.005-.418-.011-.551-.015-1.123-.441-6.784-2.738-13.874-6.666a126.455 126.455 0 0 1-6.618-3.926c-5.114-3.257-10.452-7.213-15.086-11.78z" fill="#740806"/><g><path d="M149.846 38.154s-2.139-.271-3.526.789c-1.239.947-2.473 4.74 1.706 5.855 5.355 1.43 16.65-2.646 16.469-7.983-.533-.457-16.838-16.448-20.958-9.975-1.437 2.257-.784 5.235.748 7.225 2.08 2.702 5.561 4.089 5.561 4.089z" fill="#fbb807"/><path d="M158.864 43.104c-3.296 1.547-7.35 2.323-10.168 1.839a7.177 7.177 0 0 1-.67-.146c-4.178-1.115-2.944-4.909-1.705-5.855 1.387-1.06 3.525-.789 3.525-.789s-3.48-1.387-5.561-4.089c-1.532-1.99-2.184-4.968-.748-7.225.879-1.381 2.312-1.739 4.028-1.445 6.33 1.087 16.492 11.799 16.912 12.159 0 0 2.797.25 2.76-.833l-.042-1.206-.916-.785-.176-.167c-5.212-4.896-12.579-10.93-18.075-11.874-4.004-.688-5.983 1.382-6.808 2.676-2.219 3.486-1.151 7.722.89 10.372a13.506 13.506 0 0 0 1.718 1.833c-1.031 1.266-1.722 3.218-1.324 5.219.449 2.264 2.203 3.961 4.813 4.658.292.078.6.145.914.198 3.664.633 10.904-3.634 10.633-4.54z" fill="#740806"/></g></g><g><g fill="#fbb807"><path d="M84.116 147.612c1.593-6.477 2.126-11.353 2.249-12.666l-.068.037s-.391 5.227-2.181 12.629zM96.183 124.036c1.384-4.983-.193-9.693.22-12.016-.701 2.09 1.071 6.867-.22 12.016z"/><path d="M80.797 131.183c6.8-3.9 11.8-11.2 11.4-19.3-.1-2.3-.5-4.5-1.2-6.6 1.3.5 2.7.7 4.2.7 10.5 0 14.2-10.5 11.2-17.9 2.876.893 7.122 3.464 5.337 10.628.02-.077.044-.151.063-.228 2.6-10.7-7.6-11.3-7.6-11.3s-11.4 13.4-15 13.4c-.1 0-.3 0-.4-.1l-1.5-.9c1.8-4.9 10.8-15.6 2.7-19.9-2.4-1.3-4.5-1.7-6.2-1.7-4.2 0-6.6 2.6-6.6 2.6s.7 17.1-1.1 17.1h-.4c-.8 0-2 .1-2 .1s-1.2-14.2-7.7-14.4h-.2c-6.3 0-7.2 6.5-7.2 6.5s6 10.5 6.7 13.2c.6 2.1.5 5.8-1.1 5.8-.4 0-.9-.2-1.6-.8-1-1.1-1.7-2.1-1.7-2.3-2.1-2.4-3.7-6.3-7.4-6.3-.7 0-1.5.2-2.4.5-6.6 2.5-4.4 11.9-4.4 11.9s11.3 4.6 11.3 7.9v.1c-1.175 5.583-26.892 29.972-20.99 52.585 0 0 7.095 23.849 30.068 2.647 9.857-9.097 12.956-27.748 13.722-43.332v-.6z"/></g><path d="M71.097 176.583c7.089-9.452 10.949-20.554 13.019-28.971 1.79-7.402 2.181-12.629 2.181-12.629l.068-.037c.022-.23.032-.363.032-.363 6.167-3.102 8.771-6.896 9.786-10.547 1.292-5.149-.481-9.926.22-12.016.114-.639.374-1.104.894-1.337.694-.297 12.191-3.251 14.437-11.972 1.785-7.164-2.461-9.736-5.337-10.628 3 7.4-.7 17.9-11.2 17.9-1.5 0-2.9-.2-4.2-.7.7 2.1 1.1 4.3 1.2 6.6.4 8.1-4.6 15.4-11.4 19.3v.6c-.766 15.584-5.534 30.291-13.722 43.332a94.927 94.927 0 0 1-4.578 6.668c-1.5 1.9-3 3.9-4.5 5.8 2-.3 3.9-1.1 5.5-2.5 2.938-2.563 5.491-5.433 7.729-8.458-.057-.001-.104-.013-.129-.042z" fill="#f28a1c"/><path d="M89.197 136.483c11.7-6.7 10.8-16.1 10.2-21.3-.1-.6-.1-1.4-.2-2 10.8-3.7 14.3-9.6 15.4-14 1.1-3.8.6-7.3-1.4-10-3.1-4.1-8.3-4.6-8.8-4.6l-1.5-.1-1 1.1c-2.9 3.4-6 6.6-8.5 8.9 2-3.8 3.6-8 2.5-11.8-.7-2.3-2.2-4-4.6-5.3-2.5-1.3-5.1-2-7.5-2-5.4 0-8.4 3.2-8.8 3.5l-.8.9.1 1.2c.1 2.1.1 4.5.1 6.6-1.6-3.7-4.1-6.9-8.3-7h-.3c-7 0-9.7 6-10.2 9.1l-.1 1 .5.9c1.9 3.4 4 7.3 5.3 9.9-1.7-2.3-4-4.9-7.9-4.9-1.1 0-2.3.2-3.5.7-7.1 2.7-7.2 11.2-6.2 15.4l.4 1.5 1.4.6c3.9 1.6 8 4 9.2 5.2-.7 1.3-2.6 3.9-4.2 6.1-7.803 10.753-20.665 28.39-16.721 46.1.2.9.431 1.8.721 2.7 2.1 6.5 8.4 12.3 15.3 14.6-.3-1.1-.4-2.2-.4-3.4-5.5-2.3-10.4-7-12-12.2-.151-.47-.266-.943-.39-1.415-5.903-22.613 19.814-47.001 20.99-52.585v-.1c0-3.3-11.3-7.9-11.3-7.9s-2.2-9.4 4.4-11.9c.9-.3 1.7-.5 2.4-.5 3.7 0 5.3 3.9 7.4 6.3 0 .2.7 1.2 1.7 2.3.7.6 1.2.8 1.6.8 1.6 0 1.7-3.7 1.1-5.8-.7-2.7-6.7-13.2-6.7-13.2s.9-6.5 7.2-6.5h.2c6.5.2 7.7 14.4 7.7 14.4s1.2-.1 2-.1h.4c1.8 0 1.1-17.1 1.1-17.1s2.4-2.6 6.6-2.6c1.7 0 3.8.4 6.2 1.7 8.1 4.3-.9 15-2.7 19.9l1.5.9c.1.1.3.1.4.1 3.6 0 15-13.4 15-13.4s10.2.6 7.6 11.3c-.018.078-.043.151-.063.228-2.246 8.72-13.743 11.674-14.437 11.972-.521.233-.78.698-.894 1.337-.413 2.324 1.164 7.033-.22 12.016-1.014 3.651-3.618 7.445-9.786 10.547 0 0-.01.133-.032.363-.123 1.313-.656 6.189-2.249 12.666-2.07 8.417-5.93 19.519-13.019 28.971.025.029.072.041.129.042.274.009.904-.302 1.774-.989 3.969-3.134 12.956-14.171 16.197-39.153z" fill="#740806"/></g><g fill="#740806"><path d="M77.997 37.883c-1.2 1.5-2.1 2.9-2.7 4.3-.6 1.3-.9 2.6-.9 3.8 0 1.9.7 3.5 1.6 4.9 1.4 2 3.3 3.6 4.8 5.1.7.7 1.3 1.5 1.7 2.2s.6 1.3.6 2.1c0 .7-.2 1.6-.9 2.7s-1.8 2.5-3.4 4c-.6.6-.6 1.5-.1 2.1s1.5.6 2.1.1c1.8-1.7 3.1-3.3 4-4.7.9-1.5 1.3-2.9 1.3-4.3 0-1.8-.7-3.3-1.7-4.6-1.4-1.9-3.3-3.4-4.7-4.9-.7-.8-1.3-1.5-1.7-2.3s-.6-1.5-.6-2.4c0-.7.2-1.6.6-2.6s1.2-2.2 2.3-3.6c.5-.6.4-1.6-.2-2.1s-1.6-.4-2.1.2zM67.997 37.883c-1.2 1.5-2.1 2.9-2.7 4.3-.6 1.3-.9 2.6-.9 3.8 0 1.9.7 3.5 1.6 4.9 1.4 2 3.3 3.6 4.8 5.1.7.7 1.3 1.5 1.7 2.2s.6 1.3.6 2.1c0 .7-.2 1.6-.9 2.7s-1.8 2.5-3.4 4c-.6.6-.6 1.5-.1 2.1s1.5.6 2.1.1c1.8-1.7 3.1-3.3 4-4.7.9-1.5 1.3-2.9 1.3-4.3 0-1.8-.7-3.3-1.7-4.6-1.4-1.9-3.3-3.4-4.7-4.9-.7-.8-1.3-1.5-1.7-2.3s-.6-1.5-.6-2.4c0-.7.2-1.6.6-2.6s1.2-2.2 2.3-3.6c.5-.6.4-1.6-.2-2.1s-1.6-.4-2.1.2zM58.297 37.883c-1.2 1.5-2.1 2.9-2.7 4.3-.6 1.3-.9 2.6-.9 3.8 0 1.9.7 3.5 1.6 4.9 1.4 2 3.3 3.6 4.8 5.1.7.7 1.3 1.5 1.7 2.2s.6 1.3.6 2.1c0 .7-.2 1.6-.9 2.7s-1.8 2.5-3.4 4c-.6.6-.6 1.5-.1 2.1s1.5.6 2.1.1c1.8-1.7 3.1-3.3 4-4.7.9-1.5 1.3-2.9 1.3-4.3 0-1.8-.7-3.3-1.7-4.6-1.4-1.9-3.3-3.4-4.7-4.9-.7-.8-1.3-1.5-1.7-2.3s-.6-1.5-.6-2.4c0-.7.2-1.6.6-2.6s1.2-2.2 2.3-3.6c.5-.6.4-1.6-.2-2.1-.7-.5-1.6-.4-2.1.2z"/></g></svg>