<svg id="Layer_1" height="512" viewBox="0 0 128 128" width="512" xmlns="http://www.w3.org/2000/svg" data-name="Layer 1"><path d="m46.57 15.926-23.742 24.882v58.888h49.178v-51.8" fill="#eaba99"/><path d="m72.006 100.7h-49.178a1 1 0 0 1 -1-1v-58.892a1 1 0 0 1 .276-.691l23.743-24.882a1 1 0 0 1 1.447 1.381l-23.466 24.592v57.492h47.178v-50.8a1 1 0 0 1 2 0v51.8a1 1 0 0 1 -1 1z" fill="#4d4d4d"/><path d="m72.006 47.961h45.879v51.736h-45.879z" fill="#eaba99"/><path d="m117.885 100.7h-45.879a1 1 0 0 1 -1-1v-51.74a1 1 0 0 1 1-1h45.879a1 1 0 0 1 1 1v51.74a1 1 0 0 1 -1 1zm-44.879-2h43.879v-49.74h-43.879z" fill="#4d4d4d"/><path d="m125 47.961h-58.924l-19.506-32.035h63.408z" fill="#28b68d"/><path d="m125 48.96h-58.924a1 1 0 0 1 -.854-.48l-19.506-32.034a1 1 0 0 1 .854-1.52h63.409a1 1 0 0 1 .905.575l15.021 32.035a1 1 0 0 1 -.905 1.424zm-58.362-2h56.789l-14.084-30.034h-60.993z" fill="#4d4d4d"/><path d="m17.942 46.927a1 1 0 0 1 -.723-1.69l28.628-30a1 1 0 0 1 1.447 1.381l-28.628 30a1 1 0 0 1 -.724.309z" fill="#4d4d4d"/><path d="m59.67 58.6v41.1h-22.737v-41.1a11.273 11.273 0 0 1 1.615-5.818c0-.012 0-.023.011-.023a10.924 10.924 0 0 1 1.278-1.749 7.884 7.884 0 0 1 .684-.7 2.982 2.982 0 0 1 .28-.258 11.354 11.354 0 0 1 13.824-.9c.224.157.448.314.672.482a10.038 10.038 0 0 1 .9.785 11.349 11.349 0 0 1 1.903 2.416 1.685 1.685 0 0 1 .112.2 11.265 11.265 0 0 1 1.458 5.565z" fill="#666"/><path d="m59.67 100.7h-22.737a1 1 0 0 1 -1-1v-41.1a12.325 12.325 0 0 1 1.741-6.3c.008-.014.015-.029.024-.042a11.882 11.882 0 0 1 1.4-1.909 8.761 8.761 0 0 1 .757-.77 3.483 3.483 0 0 1 .335-.3 12.351 12.351 0 0 1 15-.937c.288.2.5.351.71.509a10.966 10.966 0 0 1 1.005.879 12.3 12.3 0 0 1 2.059 2.606 2.7 2.7 0 0 1 .138.246 12.328 12.328 0 0 1 1.568 6.018v41.1a1 1 0 0 1 -1 1zm-21.737-2h20.737v-40.1a10.334 10.334 0 0 0 -1.328-5.069c-.01-.014-.092-.167-.1-.182a10.3 10.3 0 0 0 -1.737-2.2 9.122 9.122 0 0 0 -.825-.724c-.175-.13-.37-.267-.566-.4a10.35 10.35 0 0 0 -12.651.784 2.674 2.674 0 0 0 -.234.215 7.165 7.165 0 0 0 -.633.641 10.038 10.038 0 0 0 -1.157 1.573c-.009.02-.021.04-.032.059a10.331 10.331 0 0 0 -1.474 5.303z" fill="#4d4d4d"/><rect fill="#eaba99" height="11.329" rx="1" width="112.135" x="10.454" y="99.696"/><path d="m121.589 112.025h-110.135a2 2 0 0 1 -2-2v-9.325a2 2 0 0 1 2-2h110.135a2 2 0 0 1 2 2v9.329a2 2 0 0 1 -2 1.996zm-110.135-11.325v9.329h110.136v-9.329z" fill="#4d4d4d"/><path d="m18.71 98.936c-.03.22-.04.34-.04.34a3.034 3.034 0 0 0 -.06.42 27.637 27.637 0 0 0 .86 9.06 2.1 2.1 0 0 1 .51.92 3.785 3.785 0 0 0 .14.61 2 2 0 0 0 .38.74 1.888 1.888 0 0 0 .2.2 1.591 1.591 0 0 0 .38.29 2.516 2.516 0 0 0 2.15.49h.01a1.543 1.543 0 0 0 .52-.14h.02l.25-.11c.9-.48 1.68.29 1.88-.63 0 0 .12-.05.25-.1a2.716 2.716 0 0 0 .34-.14 13.593 13.593 0 0 0 -.53-2.21l-.03-.06-.01-.01c-.21-.52-1.22-1.07-1.5-1.62-.63-1.28-.18-2.87.47-4.35a.01.01 0 0 1 .01-.01c.48-1.1 1.08-2.13 1.45-2.93a2.05 2.05 0 0 0 .33-1.36c-.72-1.89 1.22-5.66 1.42-6.05 0-.01.02-.02.03-.03l.19-.17.3-.27 5.25-4.72.67-1.65a.052.052 0 0 0 .02-.04l.83-1.97v-.02l.3-.72.85-2.03.2-.5a.12.12 0 0 1 .06.03.834.834 0 0 0 .12.04c.14.05.36.13.67.22.01.02.02.02.03.02a34.326 34.326 0 0 0 4.2 1.02c.09.02.18.03.28.05 1.1.19 2.37.38 3.84.55.67.08 1.37.15 2.12.21 2.04.16 4.37.27 7.02.28h.06c1.05.02 2.15-.01 3.29-.04v-23.946a11.271 11.271 0 0 0 -1.46-5.56.993.993 0 0 0 -.11-.2c-.49.06-.98.12-1.49.2-2.12.29-4.33.7-6.6 1.23a.119.119 0 0 0 -.05-.02c-.15-.05-.73-.27-1.61-.51-.34-.08-.72-.18-1.15-.28a31.3 31.3 0 0 0 -7.38-.75c-.41 0-.83.02-1.26.05-.23.01-.48.02-.72.05-.01-.02-.02-.02-.04 0a28.594 28.594 0 0 0 -13.74 4.83 30.911 30.911 0 0 0 -3.16 2.42c-.09.08-.19.17-.28.26a36.323 36.323 0 0 0 -3.42 3.47 12.315 12.315 0 0 0 -2.63 5.13.17.17 0 0 0 -.01.07 1.343 1.343 0 0 0 -.07.27 26.224 26.224 0 0 0 -.55 9.29v.01a7.75 7.75 0 0 0 3.25 5.66c6.04 3.79 4.87 3.16 4.99 4.69a.035.035 0 0 0 .01.02h-.01a1.921 1.921 0 0 0 .05.32 3.688 3.688 0 0 1 -.44 2.02c0 .01-.01.02-.01.04-.42.95-.6 2.05-1.06 3.19z" fill="#f5d8af"/><path d="m47.073 74.013c-.37.023-.751.045-1.121.079-.785.067-1.569.145-2.343.235-.505.067-1.009.123-1.5.2-2.142.28-4.272.628-6.4.908-1.025.131-2.049.248-3.072.338a5.24 5.24 0 0 1 -5.39 5.049 6.547 6.547 0 0 1 -.682-.036 40.1 40.1 0 0 0 6.965 6.064c.112.09.235.168.347.247l.673-1.648a.06.06 0 0 0 .023-.045l.829-1.973v-.011l.3-.729.841-2.029.2-.494a.171.171 0 0 1 .067.023c.179.045.773.2 1.7.4.011 0 .022.011.034.011.863.191 2.006.426 3.4.684h.011a.643.643 0 0 0 .146.034c1.132.213 2.433.448 3.845.673.673.1 1.379.213 2.119.314 3.05.426 6.581.807 10.371 1v-9.283c-3.784.034-7.573-.235-11.363-.011z" fill="#f2f2f2"/><path d="m13.317 68.964c-1.536 1.238-2.5 1.444-4.044-.257s-1.484-4-1.344-6.293a15.306 15.306 0 0 1 6.526-11.114c.627-.466 1.354-.991 1.415-1.77.08-1.023-1.069-1.726-2.091-1.82a6.159 6.159 0 0 0 -5.014 2.324 15.776 15.776 0 0 0 -3 4.639c-1.41 3.6-2.7 7.34-2.767 11.21s1.263 7.94 4.287 10.355c2.912 2.325 6.9 2.788 10.619 2.571z" fill="#f5d8af"/><g fill="#4d4d4d"><path d="m13.313 69.959a.98.98 0 0 1 -.478-.124.993.993 0 0 1 -.435-1.27q.014-.036.03-.072a29.965 29.965 0 0 1 6.263-8.9c.095-.095.215-.2.322-.3a26.756 26.756 0 0 1 17.52-7.5h.055c.333-.016.594-.023.882-.023a26.357 26.357 0 0 1 5.494.595 18.813 18.813 0 0 0 2.776.337c.457.021.9.031 1.353.022a46.034 46.034 0 0 0 4.731-.364c1.087-.121 2.21-.247 3.4-.329h.159 1.6a1 1 0 0 1 0 2h-1.6c-1.164.076-2.267.2-3.333.318a47.018 47.018 0 0 1 -4.921.376c-.482.012-.974 0-1.48-.023a20.944 20.944 0 0 1 -3.085-.376 24.267 24.267 0 0 0 -5.237-.553c-.218 0-.411.009-.611.018-.026 0-.049 0-.071 0h-.041a24.8 24.8 0 0 0 -16.239 6.978c-.105.094-.188.166-.261.24a27.957 27.957 0 0 0 -5.836 8.27 1.081 1.081 0 0 1 -.08.171 1.016 1.016 0 0 1 -.877.509z"/><path d="m24.933 112.874c-.262 0-1.18-.011-1.18-.011-1.583.126-4.777-1.687-5.191-2.984-.862-2.667-1.7-7.754-.874-10.792a30.7 30.7 0 0 1 1.932-8.165 1 1 0 0 1 1.939.346 1.052 1.052 0 0 1 -.066.356.872.872 0 0 1 -.043.106c-1.286 2.706-1.775 7.59-1.78 7.639a1.043 1.043 0 0 1 -.033.177c-.707 2.482.028 7.241.83 9.723a6.012 6.012 0 0 0 3.221 1.6l1.235.011c.646-.057.788-.223.8-.241a1.022 1.022 0 0 0 0-.644c-.04-.079-.1-.2-.175-.35-.409-.821-.663-1.341-.792-1.658a6.288 6.288 0 0 1 -.836-5.587.932.932 0 0 1 .036-.117c.14-.556.315-1.129.5-1.725a17.276 17.276 0 0 0 1-5.274 1.076 1.076 0 0 1 .019-.2 7.555 7.555 0 0 1 1.825-3.4 1.03 1.03 0 0 1 .092-.115c.154-.176.309-.353.487-.531.649-.705 1.425-1.426 2.176-2.124a31.926 31.926 0 0 0 2.7-2.711 10.188 10.188 0 0 0 .909-1.243c.014-.027.028-.054.044-.08a5.645 5.645 0 0 0 .7-1.627c0-.024.008-.046.013-.068a4.116 4.116 0 0 0 .108-.959 2.533 2.533 0 0 1 .275-1.144 3.1 3.1 0 0 1 1.244-1.3 2.246 2.246 0 0 1 1.415-.355l.277.036c.033 0 .065.011.1.019l.825.117c.029 0 .058.01.087.017q.81.114 1.6.231c.613.091 1.217.18 1.819.263.034 0 .067.01.1.017 1.29.188 2.556.366 3.812.533 3.546.475 6.342.759 9.066.924l3.349.19a1 1 0 0 1 .94 1.056 1.014 1.014 0 0 1 -1.055.94l-3.3-.19c-2.833-.168-5.674-.457-9.269-.938-1.269-.168-2.552-.348-3.857-.54-.023 0-.044-.006-.066-.011-.606-.084-1.215-.173-1.834-.265-.541-.079-1.09-.16-1.648-.238a.918.918 0 0 1 -.1-.02l-.826-.116a.915.915 0 0 1 -.091-.018l-.1-.013a.627.627 0 0 0 -.237.093 1.143 1.143 0 0 0 -.455.461.554.554 0 0 0 -.063.249 6.161 6.161 0 0 1 -.148 1.36c0 .02-.007.041-.011.06a7.53 7.53 0 0 1 -.93 2.237c-.013.027-.028.052-.043.078a11.834 11.834 0 0 1 -1.112 1.53 33.357 33.357 0 0 1 -2.865 2.888c-.757.7-1.472 1.366-2.1 2.044-.16.161-.28.3-.4.433a.755.755 0 0 1 -.06.077 5.879 5.879 0 0 0 -1.406 2.45 19.353 19.353 0 0 1 -1.094 5.753c-.183.6-.358 1.166-.493 1.719a1.082 1.082 0 0 1 -.037.118 4.222 4.222 0 0 0 .6 3.922.986.986 0 0 1 .151.287c.072.211.561 1.192.745 1.561a3.907 3.907 0 0 1 .3.71h.014a2.809 2.809 0 0 1 -.321 2.362 3.088 3.088 0 0 1 -2.327 1.061z"/><path d="m20.558 92.268a1 1 0 0 1 -.914-1.405 2.758 2.758 0 0 0 .369-1.427c-.023-.113-.038-.235-.051-.349a1.8 1.8 0 0 0 -.423-.685c-.711-.526-1.431-.988-2.127-1.436-2.815-1.809-5.474-3.518-5.712-8.373a1 1 0 1 1 2-.1c.187 3.827 2.12 5.069 4.795 6.789.746.479 1.517.975 2.3 1.562a.981.981 0 0 1 .109.094 3.813 3.813 0 0 1 .986 1.617c.007.021.016.044.023.066s.008.024.011.037a6.1 6.1 0 0 1 .171 1.7 1.009 1.009 0 0 1 -.14.511l-.537.906a1 1 0 0 1 -.86.493z"/><path d="m16.334 79.851c-4.061 0-7.308-.952-9.669-2.837-3-2.395-4.743-6.565-4.665-11.154.075-4.16 1.5-8.15 2.837-11.56a16.8 16.8 0 0 1 3.172-4.929 7.1 7.1 0 0 1 5.861-2.665c1.573.145 3.124 1.267 3 2.895a3.582 3.582 0 0 1 -1.78 2.467 14.364 14.364 0 0 0 -6.16 10.4c-.141 2.317-.151 4.2 1.086 5.56 1.113 1.225 1.451 1.14 2.676.151a1 1 0 1 1 1.256 1.556c-1.761 1.419-3.355 1.9-5.413-.363-1.9-2.094-1.728-4.944-1.6-7.026a16.319 16.319 0 0 1 6.927-11.86c.461-.343.991-.736 1.015-1.046s-.586-.691-1.185-.746a5.132 5.132 0 0 0 -4.167 1.983 14.978 14.978 0 0 0 -2.825 4.355c-1.27 3.245-2.631 7.029-2.7 10.868-.07 3.972 1.392 7.544 3.91 9.555 2.273 1.814 5.617 2.606 9.937 2.355a.989.989 0 0 1 1.056.939 1 1 0 0 1 -.939 1.057q-.835.045-1.63.045z"/></g><path d="m43.343 71.555c.748 4.355.4 10.55-6.074 14.149l-.056 3.949s-1.379 12.995 2.586 16.182c1.243 1 3.552 2.335 3.825 3 1.146 2.781-5.93 2.2-6.366 2.007a8.481 8.481 0 0 1 -5.219-4.981c-.828-2.008.391-10.039-2.648-12.119-1.226-.839-1.284-2.539-1.263-4.025l.066-4.731s-9.069-1.116-10.549-8.246" fill="#f5d8af"/><path d="m39.566 112.021a10.8 10.8 0 0 1 -2.71-.264 9.418 9.418 0 0 1 -5.742-5.517 13.384 13.384 0 0 1 -.455-3.952c-.1-2.8-.231-6.626-1.832-7.722-1.75-1.2-1.718-3.493-1.7-4.864l.055-3.877c-2.459-.5-9.181-2.445-10.518-8.882a1 1 0 0 1 1.959-.406c1.319 6.355 9.608 7.444 9.692 7.455a1 1 0 0 1 .879 1.008l-.066 4.731c-.019 1.313.031 2.641.829 3.187 2.435 1.667 2.582 5.9 2.7 9.3a14.325 14.325 0 0 0 .306 3.26 7.471 7.471 0 0 0 4.637 4.422c1.179.268 4.805.153 5.149-.5a.612.612 0 0 0 -.053-.188 15.833 15.833 0 0 0 -1.886-1.412c-.576-.4-1.17-.808-1.638-1.184-4.267-3.429-3.1-15.68-2.952-17.066l.049-3.858a1 1 0 0 1 .514-.86c5.905-3.28 6.29-8.937 5.574-13.106a1 1 0 1 1 1.971-.338c1.13 6.577-1.022 11.844-6.067 14.9l-.047 3.383c-.372 3.557-.689 13.058 2.211 15.389.411.33.975.719 1.521 1.1 1.477 1.021 2.326 1.631 2.6 2.3a2.1 2.1 0 0 1 -.429 2.414c-.925.9-2.891 1.147-4.551 1.147z" fill="#4d4d4d"/></svg>