<svg id="Layer_3" enable-background="new 0 0 1000 1000" height="1000" viewBox="0 0 1000 1000" width="1000" xmlns="http://www.w3.org/2000/svg"><g><path d="m528 314.3c-28.6-.6-70.9 22.9-70.9 22.9s-7.9-93.4 22.9-100.4c30.9-7.1 47.2 26.8 48 77.5zm-149.5 121.1s-67.6 102.8-68.2 104.9c-.6 2.2 27.4 12.8 73.5 8.7-19.3-33.9-5.3-113.6-5.3-113.6z" fill="#fea142"/><path d="m819.7 972.8c-53.6 21.2-388.5 7.6-388.5 7.6l16-8.5c-26.8 12.8-103.4 39.8-186.1-17.8-102.8-71.6-96.5-170.6-92.2-196.8 4.4-26.2 49.2-117.7 107.7-90.3 0 0 12.5 3.1 8.7 67.9-3.3 57.6-2.2 139.3 109.8 168.1-29.6-9.8-55.6-24.9-55.6-24.9.4-42.9 38.3-98 60.7-138.9s37.7-128.2 37.7-128.2c3.8.9 7.5 1.8 11.2 2.6-102.2-42.1-71.4-173.8-71.4-173.8 16.3-73.4 92.6-139.1 220.9-123.9 62.7 7.4 97.8 33 117.3 60.4 7.5-12.8 5.6-85 9.8-118.3 4.4-34.3 27.7-37.4 27.7-37.4 50.6-2.2 48.9 55.9 51.5 79.7s14.7 148.3 15.9 163.2-16.2 77.2-22.4 92.2c-6.2 14.9-28 229.2-28 229.2 82.7 48.2 39.2 140.7 39.2 140.7 43.7 34.1 10.1 47.2 10.1 47.2z" fill="#fec55a"/><path d="m425.8 485.8c-1.9-4-4.6-6.2 0-45.5 6.6-56.5 26.2-100 25.8-98.7l24.9-10c-25.2 11.5-37.4 149.5-38.9 152.9-1.5 3.6-9.9 5.4-11.8 1.3zm71.9 21.2c9.7 2.5 17.7-2.8 15.9-25.8-1.9-23-3.4-119.9 65.7-164.1l-22.7-2.2s-53 36.4-61.3 100c-8.2 61.8-7.2 89.6 2.4 92.1zm87.5-14c6.5 1.6 10.5-6.9 14.3-23.7 3.4-14.9 43.8-94.8 54.2-106.5 10.6-11.9-9.7-23.6-14.6-19.9-5.7 4.1-29 19.6-50.1 84.1-21.2 64.4-10.3 64.4-3.8 66zm17.8 174.1c-55.4 7.5-170-23.7-170-23.7l-1.9 19.3c62.5 47.6 226.8 29.9 225.4 9.3-.4-7 1.9-12.4-53.5-4.9zm-67.6 92.4c-57.6-5-124.9-42.7-124.9-42.7l-10.3 22.4c23.3 25.8 136.4 46.8 173.8 45.9 41.8-1.1 47.6-4.4 45.8-12.5-1.9-8.1-26.8-8.1-84.4-13.1zm-51.4 91.3c-62.9 6.2-125.2-28.6-125.2-28.6l-8.1 18.1c42.4 34.9 140.1 36.1 178.1 33.6s39.9-14.9 36.1-24.9c-3.6-10.1-18-4.5-80.9 1.8z" fill="#dc8b4a"/><path d="m838.1 954.2c-2.2-13.6-15.3-25.4-21.7-30.5 3.2-8.1 9.7-27.3 10.2-50.3.5-27.4-7.9-65.2-50.3-91.4 4.5-44.5 10.5-100.5 15.9-145.4 4.5-33.4 9.9-66.3 15.7-91.4 2.6-8.1 5.7-18.7 8.6-29.7 4.3-12 6.9-24 8.3-36 1.2-7 1.8-12.8 1.5-16.4-.1-.7-.1-1.7-.3-3 .5-24.3-2.9-48.9-6.4-74.3-.9-6.3-1.7-12.7-2.6-19.2-1.3-13.5-2.6-26.6-3.7-37.8-.1-2-.2-3.9-.3-5.9-1.7-38.8-5.3-62.2-11.9-78.2-1.3-3.2-2.8-6.1-4.4-8.7-.1-3.3-1.4-33.6-3.1-46.1-.2-1.8-.5-3.8-.8-6-2-14.7-5-36.8-8.1-50.4-2.8-12.2-4-92.9-4.3-123 0-3-2.5-5.4-5.4-5.4-3 0-5.4 2.5-5.4 5.5 0 4.5.9 109.5 4.5 125.3 3 13.1 6.1 35.8 7.9 49.4.3 2.3.6 4.3.8 6.1 1 7.2 1.8 21.2 2.4 31.7-6.3-4.6-13.9-7.2-23-7.9-1.7-.1-3.4-.2-5-.1-.8-2.7-1.7-7.1-1.9-13.2-.2-6.2-1.4-14-2.4-21.5-1.1-7.3-2.2-14.9-2-18.5.1-1.9.5-4.6.9-7.7 1.2-9.7 2.9-23 .8-34.9-2-11.5-2.8-67.8-3-96 0-3-2.4-5.4-5.4-5.4-3 0-5.4 2.5-5.4 5.5 0 3.4.5 82.5 3.2 97.8 1.8 10.2.2 22.6-.9 31.6-.4 3.4-.8 6.2-.9 8.5-.3 4.7.8 12.1 2.1 20.6 1.1 7.3 2.1 14.8 2.3 20.4.2 6.4 1.1 11.2 2 14.7-3.8 1.3-7.3 3.3-10.3 5.9-3.9-7.4-7.6-17-6.5-21.1 3-11 5.5-37.6 2.3-59-3-20.4-1.3-99.6-1.3-100.4.1-3-2.3-5.5-5.3-5.6h-.1c-2.9 0-5.4 2.4-5.4 5.3-.1 3.3-1.7 80.8 1.4 102.2s.1 46.5-2.1 54.6c-2.8 10.4 6.2 27.1 9.5 32.9-7.5 12.1-11 30.6-10.6 56-.3 7.1-.6 14.5-.9 21.9-.2 4.8-.4 10-.6 15.4-1.4 15.8-3.6 31.1-5.1 40.8-24.8-29.6-62.8-48.6-112.2-55.3-23-3.1-45.2-3.6-66-1.5-1.3-32.7-9.1-57-22.4-69.3 1.5-4.3 1.4-11.9 0-27.5-.2-1.8-.3-3.3-.4-4.3-.1-1.2-.2-2.5-.3-4-.7-7.1-1.7-17.9.7-32.6 3.1-18.9-1.1-105.4-1.3-109-.1-3-2.7-5.3-5.7-5.2s-5.3 2.7-5.2 5.7c1.5 30.7 3.8 92.6 1.4 106.7-2.7 16.1-1.5 28.2-.8 35.4.1 1.4.3 2.6.3 3.7.1 1.1.2 2.7.4 4.6.4 4 1.3 14.6 1 20.1-4.9-2.1-10.4-3-16.1-2.6-.6-6.8-1.6-21-.1-29.8 2.2-12.9-2.5-158.1-3-174.6-.1-3-2.6-5.4-5.6-5.3s-5.4 2.6-5.3 5.6c2.1 64.4 4.7 163.4 3.2 172.4-1.9 10.9-.5 27.7.1 34.2-3.2 1.5-6.2 3.9-8.7 7.1-5.8-16.3-4.3-40-3.7-49.7.1-2.1.2-3.4.2-4.3v-1.9c-.2-40 1.3-57.7 2.6-65.5 3.2-19.4-.7-65.9-.8-67.8-.2-3-2.9-5.2-5.9-5-3 .3-5.2 2.9-5 5.9 0 .5 3.9 47.1.9 65.2-1.9 11.9-2.9 34.5-2.7 67.3v1.8c0 .6-.1 2-.2 3.6-.8 11.9-2.8 43.5 8 62.1-3.8 9.4-6.2 21.8-7.4 37.3-1.5 19.2-.6 37.6-.1 45-2.7 1.6-5.4 3.2-8.1 4.9-34.9 22.5-59.3 55.5-69.4 93.2-68 103.4-68.6 105.4-68.9 106.4-.5 1.9-.1 3.8 1.2 5.4 3.8 4.6 25.6 11.2 57.1 11.2 5.7 0 11.7-.2 17.9-.7 3.1 7.1 6.9 14.1 11.5 20.8 10.2 15 23.4 27 39.5 36-1.4 7.5-8.2 43.8-18.5 78.1-6.9 20.6-16.2 42.8-28.5 63.1-9.4 15.6-17.2 30.2-23.7 43.6-13.2 24.6-24.3 49.7-26.9 72.7-43.8-34.5-46.1-85-44.6-120.9.2-4.5.4-8.8.7-12.9 3.4-58.2-5.9-71-12.2-73.3-.6-.3-1.1-.5-1.7-.7-.4-.2-.8-.4-1.2-.5-.8-.3-1.6-.6-2.4-.9-.2-.1-.4-.1-.5-.2-.9-.3-1.9-.6-2.8-.9-.1 0-.1 0-.2 0-8.2-2.4-16.5-2.8-24.8-1.2-.2 0-.3.1-.5.1-.6.1-1.2.2-1.7.4-.5.1-.9.2-1.3.3s-.8.2-1.3.3c-6.8 1.9-13.2 5.1-19.1 9 0 0 0 0-.1 0-1 .7-2 1.3-2.9 2.1-.2.1-.3.2-.5.4-.8.6-1.6 1.2-2.4 1.8-.5.4-1 .8-1.6 1.3-.1.1-.2.1-.2.2-17.1 14.2-30.4 34.9-39 52.7-.1.1-.1.2-.2.3-.2.5-.5 1-.7 1.5-5.3 11.3-8.9 21.7-10 28.5-3.4 20.4-14.8 126 94.4 202.2 1.2.9 2.5 1.7 3.8 2.6.1 0 .1.1.2.1 1.2.8 2.4 1.6 3.6 2.3.1 0 .1.1.2.1 32.4 20.7 67.1 31.2 103.1 31.2 6.5 0 12.8-.4 18.9-1 .5 0 .9-.1 1.4-.1.6-.1 1.2-.1 1.8-.2 1-.1 2-.2 3-.4.1 0 .3 0 .4-.1 1.5-.2 2.9-.4 4.4-.6 11.4-1.8 21.5-4.5 30.1-7.4.1 0 .1.1.2.1s.2.1.2.1h.1c10.2 4.1 88 5.8 158.1 5.8 14.9 0 29.4-.1 42.9-.2 20.4-.2 45.8-.7 71.6-1.5 43.2-1 75.5-3.1 96.9-6.3 29.8-3.7 32.9-7.8 34.7-10.2 4.2-5.7 5.8-12 4.6-18.8zm-78.4 21.7c-16.8 1.1-36.4 2.1-58.1 2.8-18.1.4-38.8.6-62.5.6-74.4 0-151.4-2.3-187.1-3.5 5.1-2.5 8-4.3 8.3-4.6 1.5-1 2.4-2.6 2.5-4.3 0 0 0 0 0-.1 0-.3 0-.6 0-.9v-.1c0-.3-.1-.6-.2-.8 0-.1 0-.1 0-.2-.1-.3-.2-.5-.3-.7 0-.1-.1-.1-.1-.2s0-.1-.1-.1c-.1-.2-.2-.3-.4-.5-.1-.1-.1-.2-.2-.3-.2-.2-.3-.3-.5-.5-.1-.1-.2-.2-.3-.3-.2-.1-.3-.2-.5-.3-.1-.1-.2-.1-.4-.2s-.3-.1-.5-.2-.3-.1-.5-.1-.3-.1-.5-.1-.3-.1-.5-.1-.3 0-.5 0-.4 0-.6 0-.3.1-.5.1-.4.1-.6.2c-.1 0-.3.1-.4.2s-.3.1-.4.2l-10 5.3c-.3.2-.7.3-1 .5 0 0 0 0-.1 0-1.5.7-3.2 1.5-5 2.2-.1.1-.3.1-.4.2-.4.2-.9.4-1.3.5-.2.1-.5.2-.7.3-.4.1-.7.3-1.1.4-.3.1-.6.2-.9.4-.3.1-.6.2-.9.3-.4.2-.8.3-1.2.5-.1 0-.2.1-.4.1-9.5 3.6-21.7 7.2-36 9.4-.8.1-1.6.3-2.5.4-.7.1-1.4.2-2.1.3-.4.1-.8.1-1.2.2-6.7.8-13.7 1.3-21.1 1.3-31.8 0-62.5-8.7-91.5-26-.3-.2-.5-.3-.8-.5-.6-.4-1.2-.7-1.7-1.1-.7-.4-1.4-.8-2.1-1.3-.4-.3-.9-.6-1.3-.8-.9-.6-1.8-1.2-2.7-1.8-.3-.2-.5-.3-.8-.5-1.2-.8-2.4-1.6-3.7-2.5-47.1-32.8-70.6-71.2-82-105.2-.2-.5-.3-1-.5-1.6s-.4-1.3-.6-1.9c-2.8-9-4.8-17.6-6.1-25.7 0-.3-.1-.6-.2-.9 0-.1 0-.3-.1-.4-4.3-27-1.8-47.9-.5-55.7 3-17.8 26.5-68.1 58.7-85h.1c1.7-.9 3.3-1.6 5-2.3.1 0 .2-.1.3-.1 8.5-3.4 17.1-4.2 25.6-2.3h.1c.7.2 1.5.3 2.2.5.2 0 .3.1.5.1.6.2 1.2.4 1.9.6.2.1.5.1.7.2.5.2 1.1.4 1.6.6.3.1.6.2.9.3.5.2 1.1.5 1.6.7.3.1.6.2.8.4 1 1.1 8.6 11.1 5.7 62.7-1.5 26.2-1.7 53.7 5.8 79.8.1.5.3.9.4 1.4.2.5.3 1.1.5 1.6.2.6.4 1.3.6 1.9.1.4.2.7.4 1.1.2.7.5 1.4.7 2.1.1.3.2.6.3.9.3.7.5 1.5.8 2.2.1.3.2.6.3.8.3.7.6 1.5.9 2.2.1.3.2.6.4.8.3.7.6 1.4.9 2.2 0 .1.1.1.1.2l.3.6c.4.8.7 1.7 1.1 2.5.1.3.3.6.4.9.4.8.8 1.6 1.2 2.3.1.3.3.5.4.8.4.8.9 1.6 1.3 2.5.1.2.2.3.3.5.4.7.7 1.3 1.1 2 .1.2.3.5.4.7.1.1.2.3.2.4 1.7 2.8 3.5 5.6 5.4 8.2.1.2.2.3.3.5.5.7 1 1.3 1.5 2 .3.4.6.8.9 1.2.4.5.8 1.1 1.3 1.6.5.6.9 1.2 1.4 1.7.3.4.6.7.9 1.1.7.9 1.5 1.7 2.3 2.6.1.1.1.2.2.2 4.2 4.6 8.8 8.9 13.8 12.8 1.7 1.3 3.4 2.6 5.2 3.9.2.1.3.2.5.4.9.6 1.7 1.2 2.6 1.8.5.3.9.6 1.4.9.6.4 1.1.7 1.7 1.1l2.4 1.5c.2.1.4.3.6.4 2.1 1.3 4.2 2.5 6.4 3.7 3.9 2.1 8.1 4.2 12.4 6.1.4.2.7.3 1.1.5.9.4 1.8.8 2.7 1.1.8.3 1.6.7 2.5 1 .6.3 1.3.5 1.9.7 1.3.5 2.6 1 4 1.5.2.1.5.2.7.2 6.6 2.4 13.5 4.5 20.8 6.4 19.1 6.3 35.6 9.1 49 8.3h.1c.3 0 .6-.1.9-.1h.1c.3-.1.6-.2.8-.3 0 0 .1 0 .1-.1.3-.1.5-.3.8-.4 0 0 .1 0 .1-.1.2-.2.5-.4.7-.6.8-.8 1.4-1.9 1.5-3.2 0-.1 0-.3 0-.4 0-.4 0-.7-.1-1-.1-.3-.1-.6-.3-1-.1-.3-.3-.6-.4-.9-.2-.3-.3-.5-.6-.8-.2-.2-.4-.4-.7-.6-.2-.2-.5-.4-.8-.5-.3-.1-.6-.3-.9-.4-.3-.1-.7-.2-1-.2-.1 0-.1 0-.2 0-1.8-.2-3.6-.4-5.3-.6-.4 0-.8-.1-1.2-.1-1.7-.2-3.4-.4-5-.6-.5-.1-1-.1-1.5-.2-1.3-.2-2.6-.4-3.9-.6-1-.1-1.9-.3-2.9-.5-.7-.1-1.5-.2-2.2-.4-8.8-1.5-17-3.2-24.6-5.2-22.7-7.6-43.4-18.4-50.8-22.5 1.3-11.3 8.7-37.9 26.1-73.8 6.3-11.7 13-23.2 19.5-34.4 5.1-8.8 10-17.1 14.3-25.1 7-12.8 13.3-29.8 18.6-47.3 11.7-34.3 17-64.5 18.9-77 1.6.4 3.3.7 4.9 1.1 12.3 5 25.9 8.6 40.8 10.7 28.5 4 54.8 6.1 78.7 6.1 36.7 0 68-4.7 93.4-14.2 22.6-8.4 41.1-20.7 55.3-36.7 13.5-14.4 19.5-28 22-35.2.3-.6.5-1.2.7-1.8l36.8-9.6c1.3-.3 2.5-1.2 3.2-2.3 3.4-5.3 4.9-15.4-13.4-47.7-7.8-13.7-16.2-26.2-19.3-30.6 3.8-38.8-16.8-70.8-23.9-80.5 3.2-7.9 4.6-23.4 5.7-50.6 1.1-12.4 1.9-25.2 1.6-36.3 0-.7 0-1.4 0-2.1.5-11.1 1.2-21.4 2.2-29.3 2.9-22.3 14.2-29.5 19.8-31.8 1.7-.5 3.5-.8 5.4-1 34.4.1 39.9 32.5 42.5 65.7.3 3.3.5 6.5.8 9.2.6 5.3 1.7 15.7 3 28.9.8 12.9 2.2 25.5 3.7 37.8 3.7 37.4 7.6 78.4 8.9 92.6-.1 6.3-.5 12.7-1.3 18.9-1.7 9.2-4.4 20.8-7.4 32.4-.3.8-.5 1.5-.8 2.3-2.8 7.5-5.6 17.3-8.4 29.4-1.4 4.4-2.7 8-3.8 10.5-2.6 6.1-7.3 41.1-12.2 82.1-1.6 11.7-3.2 24-4.7 37.1-3.8 31.1-6.7 59.7-8.5 78.2-1.1 11-1.8 19.3-2.3 24.4-.1 1.6-.3 3-.4 4.2-22.2-9.9-42.3-11.8-43.7-11.9-3-.3-5.6 2-5.9 5s2 5.6 5 5.9c.6 0 56.1 5.2 81.5 44.7 16.2 25.2 17 59 2.2 100.6v.1c-.1.2-.1.4-.2.6 0 .1 0 .2-.1.3 0 .2 0 .4-.1.6v.3.6.3c0 .2.1.4.1.5s.1.2.1.3c.1.2.1.3.2.5.1.1.1.2.2.3.1.2.2.3.3.4s.2.2.2.3c.1.1.2.2.3.4l.3.3.2.2c14 11 21.2 21 20.2 28.2-.9 6.6-8.8 9.8-8.8 9.8-3.7 1.5-9.6 3-18.9 4.5-9.5 1.2-22.1 2.4-39.2 3.6zm-278.4-733.8c8-1.8 14.8-.5 20.6 4.1 12.1 9.5 19.5 32.7 20.6 64.1-21.8 3.2-42.1 9.4-60.5 18.4-1.9-34.4 1.6-82.6 19.3-86.6zm-163.5 296.3c7.7-12.2 30.8-47.6 51.4-78.9-2.2 20.5-2.9 53.1 8 84.6-29.8 1.8-51-2.7-59.4-5.7zm84 31c-35.9-52.4-18.9-127.7-18.8-128.5 15.5-69.7 89.3-136.8 214.8-119.7 76.3 10.4 123.3 51.8 134.2 117.2-9.1-13.2-15.9-22.5-16.1-22.7-1.8-2.4-5.2-3-7.6-1.2s-3 5.2-1.2 7.6c.2.2 16.7 22.9 32.6 47.3 27.9 43.1 29.1 53.9 29 55.9-2.4 2-13.8 6.3-35.9 6.2-17.7-.1-45.8-3.1-79-16.7-2.8-1.1-6 .2-7.1 3s.2 6 3 7.1c28.8 11.9 56.3 16.8 78.6 17.5-.1.5-.5 1.7-1.1 3.5-4.5 10.6-10.2 20.1-17.1 28.5-2.3 2.7-4.9 5.4-7.9 8.1-28.7 26.6-74.7 40.7-132.9 40.7-34.9 0-74.7-5-118.6-14.8-20.6-8.6-37-21.7-48.9-39z" fill="#89191a"/></g></svg>