<svg xmlns="http://www.w3.org/2000/svg" xml:space="preserve" width="512" height="512"><path fill="#FDE7CF" d="m327.2 273.8 1.4 1.1c5.1 3.8 15.1 10.2 25.3 9.4l.2-.1.2.2c1 .9 2.3 1.5 3.9 1.7l.6.1-.2.5c-.7 1.3-1.4 4.2 1.2 7.7 1.1 1.5 3.1 2.3 6 2.4h.3l.1.3c1.7 4.2 5 5.3 7.2 5.6-1.4-.8-3.4-2.4-4.7-5.4l-.2-.5.7-.1c1-.1 2.1-.3 3-.5-3.8.2-8.8-.1-10.8-2.7-2.6-3.4-1.1-6.1-.3-7.1l.2-.1.9-.1c1.3-.1 3.9-1 6-1.9-.1 0-.3.1-.5.1-4.5.8-10.4 1.8-12.3-1.3-.9-1.5-.8-3.4.2-5.4 1.4-3 7.9-6.6 12.1-8.6-1.7.5-3.9 1.1-6 2l-1.1.5.6-1c.7-1.3 1.8-2.6 3.1-3.6 3.6-2.6 9-3.7 16.1-3.2 13.9 1.1 21 20.9 20.6 34.8-.2 7.9-7.1 27.8-22.6 37.8-10.56 6.947-35.357 4.621-35.357 4.621-.4-7.3-1.243-15.921-3.043-24.321-3.5-17.4-9.3-33.2-12.4-41.1l-.4-1.8z"/><path fill="#9D706B" d="M399.4 310.2s-18.639 1.972-27.498-6.376L362 298.9s-2.7-5.6-2.8-6.1c-.1-.6-2.8-5.7-2.8-5.7l.1-12.2s4-6.2 4.6-6.7 6.2-4.5 7.4-4.8c1.2-.3 9.9-1 10.5-.9s10.4 3.1 10.4 3.1 7.5 9.5 7.6 9.9c.2.3 5.456 14.542 5.456 14.542S400.6 308.7 399.4 310.2z"/><path fill="#E0BCA2" d="M342.4 281.2s12.9 71.6 45.3 46.1c0 0-5.9 24.1-73.4 8.9l10.5-64.2 17.6 9.2z"/><path fill="#2C2E39" d="m354.9 284.4-.2-2.6c-14 1.6-28.6-12.5-28.7-12.7l-2.3 1.8c.8.7 15.8 15.3 31.2 13.5z"/><path fill="#2C2E39" d="M364.633 264.074c-9.751 5.639-11.998 19.176-8.764 27.738 3.48 9.213 16.399 14.611 25.932 17.088-12.322-7.758-19.66-9.825-22.641-17.457-3.04-7.783-1.458-20.259 6.959-25.096 11.548-6.637 35.033-2.856 34.782 31.853-.181 7.043-5.824 23.788-18.255 34.334-16.668 14.141-60.196 4.105-61.045 3.866l-1.1 2.5c.1.028 45.274 10.771 63.517-4.216 13.588-11.162 19.591-28.836 19.683-36.684.631-29.899-20.541-44.64-39.068-33.926z"/><path fill="#FDE7CF" d="M242.2 365.8s.7 17.2.2 17.3c-.4.1-20 2.5-20 2.5s2-3.7 2.4-4.2c.6-.4 17.4-15.6 17.4-15.6z"/><path fill="#9D706B" d="M175.7 379c-.4-.4-.8-.9-1.3-1.2-2-1.4-4.3-1.8-7.1-1.2l.1.5-.1-.5c-3 .5-30.1 4.1-52.1-23.2-8.3-10.4-4.7-24.8-1.3-38.8l.1-.4c3.9-15.5 8.3-33-4.5-45.4-3.5-3.7-9.4-3.9-13.1-.5-3.3 3.2-3.9 8-1.4 11.8.9 1.4 1.9 2.9 2.4 4.7 3.4 10.4.7 20.6-2.2 31.4-5.3 20-10.7 40.7 22.6 65.2 16.6 12 33.1 14.2 43.3 14.2 6.2 0 10-.8 10.1-.9 4.8-1 6.2-4.2 6.6-5.5 1.2-3.4.3-7.6-2.1-10.2z"/><path fill="#2D2D39" d="M116.2 383.4c-34.8-25.6-28.9-48.1-23.6-68 2.7-10.4 5.4-20.2 2.2-29.9-.5-1.4-1.3-2.9-2.1-4.1-3.1-4.9-2.4-11.2 2-15.1 4.8-4.4 12.4-4.2 16.7.5 13.7 13.4 9.4 30.9 5.1 47.9-3.5 14-6.8 27.4.7 36.9 22 27.2 48.5 22.5 49.6 22.3 4.2-.9 8.1.3 10.8 3.3 3 3.4 4 8.5 2.6 12.7-1.3 3.8-4.4 6.5-8.6 7.4-1 .3-28.3 5.7-55.4-13.9zm51.2-6.3c-1.2.2-29.6 5.2-52.7-23.4-8.5-10.8-4.8-25.5-1.3-39.6 4-16.1 8.1-32.8-4.3-44.9-3.3-3.5-8.9-3.7-12.3-.5-3.1 2.9-3.7 7.5-1.4 11.1 1 1.5 1.9 3 2.5 4.8 3.4 10.5.7 20.8-2.1 31.7-5.2 19.8-10.7 40.3 22.4 64.6 25.9 18.7 51.8 13.6 53 13.3 4-.8 5.6-3.3 6.2-5.2 1.1-3.2.3-7.1-2-9.6-.4-.4-.8-.8-1.2-1.1-1.6-1.1-3.7-1.8-6.8-1.2z"/><path fill="#FDE7CF" d="m144.1 331.2-.2 1.3c-1.8 12.8-5.513 45.085 8.187 66.585 17.7 27.9 40.204 36.061 58.304 42.261 5.4 1.9 10.383 3.313 14.783 5.413 13.9 6.6 20.434 9.76 24.234 14.56l2.292.981 27.6 20.3s9.5 7.1 11 7.4c1.5.2 12.6-3.1 12.6-3.1s26.4-17.2 27.3-17.7c.8-.5 9.8-13.7 9.8-13.7l5.3-20.8c.2.2-2.4-5.3-8.1-10.5-4.6-4.3-19.9-.8-25.2.7-3.3-26.4-20.2-43.4-32.2-52.4 7.8 5.1 17.7 13.3 25.1 25.4l.2.4.4-.3c15.5-10.8 24.5-33.4 26.7-67.4 1.8-26.9-1.3-53.1-2.7-63.1v-.3l-143.4-23.8-.1.1c-17.2 11.3-43.4 38.8-45.8 61.9-.87 8.733 1.214 16.329 4.85 22.921l-.95 2.879z"/><path fill="#FDE7CF" d="m215.1 443.4-1.1.2c-41.2 9.7-60.7 5.8-69.8.9-8.1-4.4-10.1-11.1-10.3-15.9-.7 4.3-.2 10.4 5.6 15.2l.5.4-.7.4c-4.3 2.7-16.4 9.8-27.8 8.2-3.2-.4-6.3-1.6-9.2-3.7l-1.2-.9-.2-.2h.1l1.7.1c7.9.6 13.2-1.2 15.9-2.7-3.5.7-9.9 1.4-18.4.3-.4 0-.7-.1-1.1-.1-1.6-.2-3-.5-4.2-1-2.7-5.4-3.9-12.1-4.3-15.3.9-.6 1.9-1.2 3-1.8 3.9-2 8.8-4 12.7-5.4-3.6.7-8.2 1.9-12.1 3.3l-.4.2-.6.3.4-1c0-.1 0-.2.2-.3 2.6-7.5 14.6-16.5 23.9-19.9 8.2-3.1 11.8-1.8 16.3-.2 1.5.6 3.1 1 4.9 1.5 6 1.3 12.3-1.7 14.8-3.2l.4-.2.3.3c13.2 15.1 28.2 22.6 41.4 29.3 5.6 2.8 10.8 5.4 15.1 8.3 1.1.8 2.1 1.4 3.2 2.3l1 .6z"/><path fill="#FFFAF5" d="M255.2 254.9s-33.7 51.8-28.4 80.1l7.4 6.8 6.4 13.5s34.3 6.5 58.2 34.3l6.5 8.6s9.3-4.5 13.1-11.1c3.7-6.6 12.5-32.4 12.2-33-.3-.5 2-24.2 2-24.2s.4-16.2.4-17.6-3.3-49.3-3.3-49.3l-74.5-8.1z"/><path fill="#9D706B" d="m251.9 462.4 25.4 18.7-25.5-18.7zM279.5 482.8s4.8 3.6 8.1 5.8l-2.1.2-8.2-7.6 2.2 1.6zM345.5 433.9l-3.5 19.5-16.7 19.4-8.1 4.9c-2.1.9-5.3 2-8.9 2-5.3 0-11.7-2.2-17.3-10-6.5-9.2-17.634-21.656-32.934-31.956 10-13.2 26.334-28.544 49.134-31.444l6.4 17.7s17.3-4.1 24.9 1.2c7.3 5.2 7 8.7 7 8.7z"/><path fill="#E0BCA2" d="M151.7 276.1s18.1-20.2 18.3-20.6c.1-.3 23.4-18 23.4-18l79.9 32.7-86-9.3s-26.4 36.8-25.2 56.6c.5 9.1 12.9 22.8 27.9 34.4-1.8 4.2-2.9 9-2.7 14.6 0 0 20.6 19.9 35.4 14.8-1.2 1.3-4.1 2.5-10.3 1.1-10.7-2.5-27.2-15.2-27.2-15.2s-25.5-20-25.7-20.2c-11.491-11.492-35.326-28.197-7.8-70.9z"/><path fill="#8A5D58" d="m317.9 477-15.8 9.9-14.5 1.6c-3.3-2.2-8.1-5.8-8.1-5.8l-2.2-1.6-25.5-18.8-6-4.4s4.1-9.3 12.2-20.2c15.4 10.3 26.73 22.457 33.13 31.657 5.5 7.9 11.67 10.243 17.07 10.243 3.6.1 7.7-1.6 9.7-2.6z"/><path fill="#E0BCA2" d="M206.7 418.5c-43-5-52.2-40.1-42.2-48.8 9.2-8.2 28.2 4 30.9 5.8-4-2.5-7.7-5.5-11.7-8.7-3.6-3-7.7-6.2-12.4-9.6-8.1-5.9-19.3-13.8-26.4-24.9l-.7-1.1-.2 1.3c-1.8 12.7-4.4 44.6 9.2 66.2 17.7 28 40.2 35.5 58.2 41.7 5.4 1.9 10.5 3.6 15 5.7 9.253 4.425 15.259 8.624 19.334 12.358.835-1.907 5.033-11.101 12.332-20.714-13.9-9.3-31.066-16.944-51.366-19.244z"/><path fill="#8A5D58" d="M319.3 476.6c-7.5 4.9-16.2 10.4-16.2 10.4s-11.1 3.3-12.6 3.1c-.4-.1-1.5-.7-2.9-1.6l14.5-1.6 15-9.1c1.1-.5 1.9-1 2.2-1.2z"/><path fill="#E0BCA2" d="M178.7 422.7s-20.4 29.4-44.9 6.2c0 0-4.4 16.7 22.1 19.8 26.4 3.2 61.5-4.6 61.5-4.6l-38.7-21.4z"/><path fill="#2C2E39" d="M202.6 315.1c2-9.1 17.3-26.1 17.5-26.2 0 0-18.1 15-20.2 25l2.7 1.2zM314.6 425.7c-1 .2-2 .5-2.9.8-.1-.5-.1-1.1-.2-1.6-5.2-40.7-42.7-58.6-44.1-59.3 1.8.7 41 16.5 47 58.1-.1.5.1 1.2.2 2z"/><path fill="#9D706B" d="M140.3 405.9s-5.9 17.2-7.3 24.4l2.75 8.014 5.35 6.386s-8.1 5-8.3 5.2c-.3.2-16.8 5.5-16.8 5.5l-13.4-3.4s-8.8-10.2-8.7-10.8c.1-.6-2.272-15.006-2.172-15.506S103.4 411.1 103.4 411.1l14.5-8.7h13.4l9 3.5z"/><path fill="#2C2E39" d="m279.5 484.4 2.5-1.4c-.3-.7-35.5-27.6-55.5-37.1-4.5-2.1-9.6-3.8-15.1-5.7-17.9-6.2-40.3-13.7-57.9-41.5-16.8-26.5-8.6-69.5-8.5-70l-3-.5c-.3 1.8-8.6 44.5 8.9 72.2 18.1 28.6 41 36.4 59.4 42.7 5.4 1.9 10.3 3.5 14.7 5.6 19.4 8.9 54.5 35.5 54.5 35.7z"/><path fill="#2C2E39" d="M158.2 451.7c12 1.7 30.3.9 57.7-5.6.9-.2 1.8-.4 1.9-.5l-.3-1.5v-.8c-.6-.6.3-1.1-2.5-.5-41.9 10-61.5 6.2-70.7 1.3-13.3-7.2-9.7-20.4-9.5-21 0 0-7.7 15.3 8 23.8 3.6 2.1 8.5 3.8 15.4 4.8z"/><g><path fill="#2C2E39" d="M305.4 401.1c18.6-11.9 28.6-38.8 29.7-80 .8-30.5-3.8-57.9-4-58.1l-3 .5c.2 1.1 18 108-24.4 135.1l1.7 2.5z"/></g><path fill="#2C2E39" d="M101.084 415.582c4.715-4.324 10.96-8.255 16.616-10.382 8.1-3 11.6-1.8 16-.2 1.5.6 3.1 1 5 1.5 7.9 1.8 16.1-3.7 16.4-4.1l-1.8-2.7c-.1 0-7.4 4.9-13.9 3.6-1.7-.4-3.2-.9-4.7-1.4-4.6-1.6-9-3.2-18.2.3-5.612 2.027-12.463 6.132-17.75 10.984-18.001 16.518-4.041 40.51 12.35 42.716 15.1 2.1 31.5-9.9 31.7-10.1l-2-2.6c-.226.151-15.412 11.382-29.212 9.424-14.438-2.048-26.262-22.59-10.504-37.042z"/><g><path fill="#2D2D39" d="M347.2 435.7c-2.243-19.817-30.17-16.829-41.3-6.9 10.182-4.427 36.186-9.849 37.8 7.1.9 9.4-5.9 23.9-15.4 32.3-9.454 8.325-18.212 14.705-27.608 17.81-12.267 4.055-15.171 1.182-16.879-.806-3.322-3.866-5.862-11.309-5.414-20.405-.044.131-3.341 13.867 2.426 21.785 4.185 5.746 10.523 6.075 20.695 2.738 9.956-3.266 19.073-9.982 28.979-18.624C339.6 462.7 348.3 447.3 347.2 435.7z"/><g fill="#8A5D58"><path d="M305 453.2c-5.7 4.6-9.2 11.5-7.8 15.4 1.4 3.8 7.3 3.2 13.1-1.5 5.7-4.6 9.2-11.5 7.8-15.4-1.6-3.9-7.4-3.2-13.1 1.5zM324.4 455.7c-2.9 2-4.8 5.3-4.3 7.4s3.3 2.2 6.2.2c2.9-2 4.8-5.3 4.3-7.4-.6-2.1-3.4-2.2-6.2-.2zM331.6 442.2c-2.7 2.3-4.5 5.6-3.7 7.6.8 1.9 3.6 1.6 6.4-.7 2.7-2.3 4.5-5.6 3.7-7.6-.7-1.9-3.5-1.6-6.4.7zM315.3 436.6c-2.6 2.6-4 6-2.9 7.7 1 1.6 4 .9 6.6-1.8s4-6 2.9-7.7c-1.1-1.6-3.9-.9-6.6 1.8zM327.8 433.6c-2.7 2.3-4.5 5.6-3.7 7.6.8 1.9 3.6 1.6 6.4-.7s4.5-5.6 3.7-7.6c-.8-1.8-3.7-1.5-6.4.7z"/></g></g><path fill="#9D706B" d="M220.1 326.7s-34.1 9.9-33.5 39.8c0 0 22.8 21.5 37.6 14.3 0 0 6.8-3 9.5-6 2.6-3.1 5.4-5.1 5.4-5.1l.3-5.7s3.3-22.3-19.3-37.3z"/><path fill="#2C2E39" d="M241.2 358.6c-2.2-33.9-53.9-50.3-53.9-50.3.7.3 60.5 29 50.6 58.8-2.4 6.8-12.8 12.7-12.8 12.7s-6.7 5.4-.4 3.4c3.1-.9 7.1-4.4 10.2-7.6 4.4-4.5 6.7-10.7 6.3-17z"/><g><path fill="#2C2E39" d="M217.7 384.5c5.7 0 8.9-2.1 9.1-2.3l-1.8-2.4c-.2.2-6.3 4.2-17.7-.5-8.2-3.3-14.3-8.1-22-14.3-3.6-2.9-7.8-6.2-12.5-9.6-13-9.3-34.8-25-32.3-49.7 2.5-25.1 33.3-54.9 49.2-63.8l-1.4-2.6c-16.3 9.2-48.1 40-50.7 66.1-2.6 26.5 20 42.8 33.5 52.5 4.7 3.4 8.8 6.6 12.4 9.5 7.6 6 14.2 11.2 22.8 14.7 4.4 1.8 8.3 2.4 11.4 2.4z"/></g><g><path fill="#FDE7CF" d="M356 125.5v-.1c12.232-42.81 9.309-56.92-6.2-86v-.1c-6.184-11.258-10.5-16.397-10.5-16.5l-.1.1-4.8 5s-1.1.8-3 2.3c-23.009 18.827-30.681 32.671-38.1 43.8-2-.286 1.989.244-31.9-4.2l-30.5 4-1.4.2c-3.778-5.667-6.56-10.841-14.2-20.3-7.5-9.2-14.8-16-19.9-20.3-1.6-1.3-2.9-2.4-4-3.2-1.9-1.5-3-2.3-3-2.3l-4.8-5-.1-.1c-.457.458-14.179 18.835-21.7 42-2.5 7.8-2.9 16.9-2.2 25.7 1.292 17.438 7.228 35.081 7.522 35.439-10.255 32.475-26.369 69.838-17.222 102.361 3.2 11.6 9.8 21.8 21.5 28.5 20.1 11.5 39.5 18 55.1 21.6 19.4 4.5 32.9 4.7 34.9 4.7s15.6-.2 34.9-4.7c15.6-3.6 35-10.1 55.1-21.6 11.7-6.7 18.3-16.9 21.5-28.5 8.813-31.335-5.419-66.444-16.9-102.8z"/><path fill="#9D706B" d="M318.5 135.1c-14.1-6.1-30.3-5.2-41.9-3-5 .9-10.1 1.4-15.2 1.4s-10.2-.5-15.2-1.4c-11.6-2.1-27.8-3.1-41.9 3-25.4 11-44.5 59.9-16.2 91.1 20 22.3 43.3 24.5 58.9 23.7 4.8-.2 9.6-.3 14.5-.3 4.8 0 9.6.1 14.5.3 15.6.8 38.9-1.4 58.9-23.7 28.1-31.2 9-80.1-16.4-91.1z"/><path fill="#E0BCA2" d="m293.2 74.5 11.8 4.1C314.6 47 331.7 33 331.7 33h.7c-10-5-39.2 41.5-39.2 41.5z"/><path fill="#F6B0A6" d="M351.3 41.9 339.1 24l-3.6 4.5-13.2 18.9s-7.1 17.3-7.2 17.8c-.1.4 0 11.4 0 11.4l5.3 2.5 9-5.6 5.1 1.1-.1 16s3.5 4.7 3.8 4.9c.4.3 4.822-4.501 4.822-4.501-.7 19.6 17.178 19.401 17.178 19.401l3-17.6-1-21.8-10.9-29.1z"/><ellipse transform="rotate(-22.351 319.588 196.613)" fill="#F6B0A6" cx="319.564" cy="196.607" rx="16.799" ry="9.999"/><path fill="#2D2D39" d="M296.8 156.3c-5.8-.5-11.2 6.1-12 14.8s3.2 16.3 9 16.9c5.8.5 11.2-6.1 12-14.8.9-8.9-3.2-16.3-9-16.9z"/><path fill="#2D2D39" d="m304 164.9-4.5 5.5c5.6 3.5 14 2.4 16.1-4.4-3.4 4-9 3.2-11.6-1.1z"/><path fill="#F9FCF8" d="M295.1 159.8c-2.2-.7-4.9 1.7-6 5.2s-.1 7 2.1 7.6c2.2.7 4.9-1.7 6-5.2 1.1-3.5.1-6.9-2.1-7.6z"/><path fill="#2D2D39" d="M356.6 127.2c25.8-57.4-15.5-104.7-16-105.2l-1.1-1.4-1.3 1c-34.9 26.7-46 51.7-46.4 52.8l3.4 1.5c.1-.2 10.9-24.5 43.8-50.2 6.1 7.7 35.3 48.2 15.6 96.7-.038 1.623.53 2.988 2 4.8z"/><path fill="#2D2D39" d="M337.019 91.999c-.537-2.11-.419-5.807-.419-8.499.1-5.5.2-10.3-3.1-11.2-2.1-.6-4.5.6-7.2 2-4.3 2.1-7.2 3.3-9 1.1-3.5-4.6 5-28.5 23.4-51.2l-3.33-1.4c-17.9 22-28.67 47.5-23.07 54.8 3.7 4.7 9.4 2 13.5 0 1.6-.8 3.6-1.8 4.6-1.7.6 1 .5 5.1.4 7.5-.052 2.769-.104 5.483.228 7.772.908 6.248 4.355 5.832 5.601 5.41 4.693-1.589 7.259-12.205 7.371-12.682-2.378 4.459-5.274 7.847-6.975 9.082-.677.491-1.461 1.161-2.006-.983zM413.2 165.7c-20.2 1-41.1 7.3-60.4 18.2 0 0 14.6-4.6 30.3-9.2 11.1-3.2 30.1-9 30.1-9zM423.4 186.1c-20.1-2.2-41.7.7-62.6 8.4 0 0 15.1-2.3 31.4-4.3 11.6-1.4 31.2-4.1 31.2-4.1zM419.2 213.5c-18.9-7.1-40.6-9.7-62.7-7.5 0 0 15.2 1.6 31.4 3.7 11.6 1.5 31.3 3.8 31.3 3.8z"/><path fill="#FFFAF5" d="M227.1 75.1c-6.133 2.044-17.838 7-17.6 7 25.921-5.312 57.5-9.467 103.7 0-9.014-3.004-27.537-12.517-51.547-12.979-10.569-.203-22.201 1.347-34.553 5.979z"/><path fill="#E0BCA2" d="M190.2 33h.7s17.2 14 26.7 45.6l11.8-4.1c.1 0-29.1-46.5-39.2-41.5zM261.3 265.7c-49.266.599-89.176-20.582-111.6-37.4l-.1-.1c3.2 11.6 9.8 21.9 21.6 28.7 20.4 11.7 40.1 18.2 55.8 21.8h.1c18.9 4.3 32.1 4.5 34.1 4.5s15.2-.2 34.1-4.5h.1c15.7-3.6 35.4-10.1 55.8-21.8 11.9-6.8 18.6-17.1 21.7-28.6-22.459 16.845-62.162 37.851-111.6 37.4z"/><path fill="#F6B0A6" d="m160.4 71-1.1 21.8 3 17.6s18.093.451 17.493-19.149c0 0 4.107 4.549 4.507 4.249.3-.3 3.8-4.9 3.8-4.9l-.1-16 5.1-1.1 9 5.6 5.3-2.5V65.2c-.1-.5-7.2-17.8-7.2-17.8L187 28.5l-3.6-4.5-12.2 17.8L160.4 71z"/><ellipse transform="rotate(-67.649 202.962 196.655)" fill="#F6B0A6" cx="202.979" cy="196.663" rx="9.999" ry="16.799"/><path fill="#2D2D39" d="M216.9 173.2c.8 8.7 6.2 15.4 12 14.8 5.8-.5 9.8-8.1 9-16.9s-6.2-15.4-12-14.8c-5.9.6-10 8-9 16.9z"/><path fill="#2D2D39" d="M207 166c2.1 6.9 10.5 8 16.1 4.4l-4.5-5.5c-2.6 4.3-8.2 5.1-11.6 1.1z"/><path fill="#F9FCF8" d="M225.4 167.3c1.1 3.5 3.8 5.8 6 5.2s3.2-4.1 2.1-7.6-3.8-5.8-6-5.2c-2.2.8-3.2 4.2-2.1 7.6z"/><path fill="#2D2D39" d="M168.124 122.715C148.424 74.315 177.5 33.4 183.6 25.7c32.9 25.6 43.7 50 43.8 50.2l3.4-1.5c-.5-1.1-11.6-26.1-46.4-52.8l-1.3-1L182 22c-.4.5-41.75 47.992-15.95 105.392.2.4 2.374-3.977 2.074-4.677z"/><path fill="#2D2D39" d="M176.7 83.9c.128.548 4.18 16.425 10.8 12.2 2.5-2.3 2.4-7.4 2.4-12.7-.1-2.4-.1-6.5.4-7.5.9-.1 3 1 4.6 1.7 4.1 2 9.8 4.7 13.5 0 5.6-7.2-4.859-32.591-22.759-54.591L182 24.2c18.4 22.6 26.9 46.6 23.4 51.2-1.7 2.2-4.6 1-9-1.1-2.7-1.4-5.1-2.6-7.2-2-3.3.9-3.2 5.7-3.1 11.2.145 5.065-.117 7.941-.625 9.209-.388.968-.815 1.038-2.017.146-2.026-1.504-4.888-5.296-6.758-8.955zM261.3 230.1c-4.4-.1-8.9-1.4-13-3.8 5.5 9.6 20.5 9.6 26 0-4.1 2.4-8.5 3.7-13 3.8zM261.422 68.02c-8.156 0-28.323.537-52.023 14.08h.1c31.185-8.505 38.279-10.403 51.914-10.403 13.616 0 20.036 1.744 51.786 10.403-9.512-5.096-27.356-14.08-51.777-14.08zM109.5 165.7c20.2 1 41.1 7.3 60.4 18.2 0 0-14.6-4.6-30.3-9.2-11.2-3.2-30.1-9-30.1-9zM99.2 186.1c20.1-2.2 41.7.7 62.6 8.4 0 0-15.1-2.3-31.4-4.3-11.5-1.4-31.2-4.1-31.2-4.1zM103.4 213.5c18.9-7.1 40.6-9.7 62.7-7.5 0 0-15.2 1.6-31.4 3.7-11.6 1.5-31.3 3.8-31.3 3.8z"/><path fill="#2D2D39" d="M356.6 127c-3.366-7.695-3.713-8.727-7.8-16.9.303 1.06 5.234 15.037 5.9 17.7 3.2 10 7.4 23.2 11.4 37 4.8 17 8.3 35.8 7.1 52.6-1.089 15.244-9.173 26.679-19.831 35.169-.82.653-36.544 28.304-91.153 27.858-26.753-.218-52.875-7.044-73.246-16.167-18.987-8.503-37.769-22.95-39.47-46.86-1.2-16.8 2.3-35.6 7.1-52.6 4-13.8 8.1-27.1 11.4-37 .656-2.623 5.596-16.636 5.9-17.7-1.798 3.237-6.544 13.761-7.8 16.9-9.1 21.4-22.5 59-20.3 90.7 1.9 25.7 21.9 41 41.8 50 20.748 9.959 47.549 16.8 74.9 16.8 53.884 0 89.723-26.195 93.99-29.683 10.943-8.947 19.241-20.985 20.41-37.117 2.3-31.7-11.2-69.3-20.3-90.7z"/><g><g fill="#2D2D39"><path d="M245.6 194.7c-3.3 5.3 13.3 12.8 15.6 13.7v.1h.1c.1 0 .1.1.1.1v-.1c2.2-1 18.9-8.5 15.6-13.7-3.2-5.4-28.1-5.4-31.4-.1z"/><path d="M270.9 215.2c-.9-1.1-1.8-2.1-2.7-3.2-1.9-2-3.8-4-5.8-5.8l-1.2-1.1-1 1.2c-1.6 2-3.3 4.1-4.8 6.2-.8 1.1-1.5 2.2-2.2 3.3s-1.4 2.2-2 3.4c1.1-.8 2.1-1.6 3.1-2.4 1-.9 2-1.8 3-2.6 1.5-1.4 3-3 4.4-4.5 1.6 1.5 3.3 3 5.1 4.4 1.1.9 2.2 1.6 3.3 2.4 1.2.8 2.3 1.5 3.6 2.2-1.2-1.3-2-2.4-2.8-3.5z"/></g><path fill="#3D3D44" d="M261.5 192.7c-6.8 0-12.4.8-12.4 1.6 0 .9 5.5 1.6 12.4 1.6 6.8 0 12.4-.8 12.4-1.6s-5.5-1.6-12.4-1.6z"/></g></g></svg>