<svg id="Layer_1" height="512" viewBox="0 0 128 128" width="512" xmlns="http://www.w3.org/2000/svg" data-name="Layer 1"><path d="m10.637 86.512a28.079 28.079 0 0 0 -3.14 2.74c-2.315 2.541-4.233 5.662-4.477 9.09s1.811 7.21 5.181 7.884c3.114.623 6.6-1.752 8.086-4.556" fill="#f5d8af"/><path d="m9.232 107.327a6.292 6.292 0 0 1 -1.227-.12c-4.031-.806-6.244-5.266-5.983-8.936.23-3.236 1.824-6.5 4.735-9.692a16.144 16.144 0 0 1 2.081-1.889c.329-.263.7-.564 1.156-.944a1 1 0 1 1 1.286 1.532c-.466.391-.851.7-1.189.972a14.13 14.13 0 0 0 -1.855 1.675c-2.6 2.856-4.021 5.711-4.219 8.488-.2 2.825 1.417 6.24 4.38 6.833 2.711.538 5.75-1.678 7.007-4.046a1 1 0 1 1 1.767.939c-1.447 2.725-4.671 5.188-7.939 5.188z" fill="#4d4d4d"/><path d="m79.359 10.888c.707-4.3 6.268-6.474 10.576-7.13a27.888 27.888 0 0 1 13.817 1.512c7.51 3.125 12.144 7.662 16.7 14.4a25.28 25.28 0 0 1 4.148 18.636 1.42 1.42 0 0 1 -2.755.1c-1.431-5.065-3.134-10.742-5.751-14.584-3.424-5.025-11.313-9.357-17.387-9.63a7.424 7.424 0 0 0 -4.538 1.3" fill="#f5d8af"/><path d="m123.205 40.434a2.384 2.384 0 0 1 -2.328-1.761c-1.477-5.231-3.127-10.643-5.615-14.293-3.218-4.723-10.822-8.934-16.605-9.194a6.447 6.447 0 0 0 -3.937 1.129 1 1 0 0 1 -1.112-1.663 8.449 8.449 0 0 1 5.139-1.464c6.434.29 14.584 4.806 18.169 10.066 2.655 3.9 4.364 9.486 5.886 14.875a.388.388 0 0 0 .427.3.375.375 0 0 0 .386-.323 24.316 24.316 0 0 0 -3.993-17.88c-4.922-7.282-9.479-11.218-16.254-14.037a26.7 26.7 0 0 0 -13.283-1.442c-4.117.627-9.139 2.653-9.739 6.3a1 1 0 0 1 -1.974-.325c.774-4.7 6.4-7.194 11.413-7.956a28.865 28.865 0 0 1 14.352 1.577c7.079 2.946 12.046 7.223 17.142 14.763a26.355 26.355 0 0 1 4.3 19.39 2.372 2.372 0 0 1 -2.269 1.932z" fill="#4d4d4d"/><path d="m25.347 65.666s7.592-14.253 21.422-15.608l2.169-6.508s-10.3-5.153-5.423-12.745 14.914-7.593 14.914-7.593 3.8-13.016 20.608-12.2 21.423 11.115 21.423 11.115 15.185.543 16.541 13.83-5.7 20.066-13.287 20.609c0 0-4.61 10.846-10.034 12.473a98.2 98.2 0 0 0 11.661 12.745c7.321 6.779 0 14.643-1.627 15.728s-10.034 11.117-10.034 11.117 8.407 2.441 9.22 8.407-7.05 8.948-11.931 6.779-11.389-13.015-11.389-17.897a18.038 18.038 0 0 1 2.983-9.138h-13.83" fill="#f5d8af"/><path d="m94.506 125.515a9.762 9.762 0 0 1 -3.944-.787c-5.288-2.35-11.982-13.686-11.982-18.81a17.971 17.971 0 0 1 2.22-8.138h-12.067a1 1 0 0 1 0-2h13.829a1 1 0 0 1 .82 1.573 17.15 17.15 0 0 0 -2.8 8.565c0 4.412 6.24 14.958 10.8 16.982a9.011 9.011 0 0 0 8.452-1.054 4.848 4.848 0 0 0 2.082-4.675c-.715-5.245-8.43-7.559-8.508-7.582a1 1 0 0 1 -.487-1.6c.87-1.038 8.547-10.176 10.245-11.307.871-.581 4.049-3.845 4.355-7.684a7.8 7.8 0 0 0 -2.852-6.478 98.193 98.193 0 0 1 -11.79-12.891 1 1 0 0 1 .522-1.546c4.08-1.224 8.168-9.01 9.4-11.907a1 1 0 0 1 .849-.606 12.527 12.527 0 0 0 8.762-4.484c3-3.563 4.241-8.76 3.6-15.025-.522-5.111-3.261-8.833-8.142-11.064a22.188 22.188 0 0 0 -7.441-1.868 1 1 0 0 1 -.876-.591c-.044-.1-4.624-9.756-20.558-10.527-15.8-.781-19.452 10.985-19.6 11.485a1 1 0 0 1 -.958.718c-.095 0-9.555.1-14.074 7.134a5.936 5.936 0 0 0 -.96 4.959c1.046 3.827 5.941 6.326 5.99 6.351a1 1 0 0 1 .5 1.21l-2.17 6.508a1 1 0 0 1 -.851.679c-13.15 1.287-20.572 14.945-20.643 15.081a1 1 0 1 1 -1.765-.941c.315-.591 7.773-14.31 21.558-16.06l1.706-5.116c-1.606-.957-5.243-3.479-6.258-7.179a7.923 7.923 0 0 1 1.2-6.576c4.406-6.853 12.583-7.874 15.048-8.026 1.119-2.785 6.264-12.946 21.365-12.227 15.188.735 20.764 8.93 22.007 11.163 2.928.287 15.634 2.248 16.9 14.681.879 8.612-1.723 13.735-4.06 16.517a14.508 14.508 0 0 1 -9.545 5.135c-.962 2.111-4.592 9.523-9.131 11.95a103.381 103.381 0 0 0 10.766 11.593 9.708 9.708 0 0 1 3.488 8.105c-.366 4.59-3.969 8.342-5.24 9.189-1 .665-5.643 5.983-8.893 9.826 2.583 1.033 7.833 3.724 8.516 8.73a6.8 6.8 0 0 1 -2.863 6.546 11.061 11.061 0 0 1 -6.522 2.069z" fill="#4d4d4d"/><path d="m82.563 96.78s3.64-7.719 10.058-7.987" fill="#f5d8af"/><path d="m82.562 97.78a1 1 0 0 1 -.9-1.426c.159-.338 3.978-8.271 10.922-8.56a.99.99 0 0 1 1.04.957 1 1 0 0 1 -.957 1.041c-5.747.24-9.162 7.343-9.2 7.415a1 1 0 0 1 -.905.573z" fill="#4d4d4d"/><path d="m103.714 56.566s.674-8.69-3.605-12.969" fill="#f5d8af"/><path d="m103.714 57.565h-.077a1 1 0 0 1 -.921-1.073c.007-.083.584-8.287-3.314-12.185a1 1 0 0 1 1.414-1.414c4.553 4.552 3.923 13.38 3.894 13.753a1 1 0 0 1 -.996.919z" fill="#4d4d4d"/><path d="m48.938 43.55s1.121-9.124 13.306-8.56" fill="#f5d8af"/><path d="m48.939 44.55a1.016 1.016 0 0 1 -.123-.008 1 1 0 0 1 -.871-1.114c.013-.1 1.37-10.032 14.346-9.437a1 1 0 0 1 .952 1.046.99.99 0 0 1 -1.045.952c-4.72-.217-8.219 1.028-10.4 3.7a8.7 8.7 0 0 0 -1.865 3.981 1 1 0 0 1 -.994.88z" fill="#4d4d4d"/><path d="m46.769 50.058a20.137 20.137 0 0 1 11.174.023" fill="#f5d8af"/><path d="m57.943 51.082a1 1 0 0 1 -.3-.046 19.291 19.291 0 0 0 -10.563-.029 1 1 0 0 1 -.628-1.9 20.991 20.991 0 0 1 11.787.019 1 1 0 0 1 -.3 1.955z" fill="#4d4d4d"/><path d="m65.611 46.271c1.872 0 16.58.268 20.859 14.174" fill="#f5d8af"/><path d="m86.47 61.446a1 1 0 0 1 -.955-.707c-3.945-12.818-17.273-13.468-19.905-13.468a1 1 0 0 1 0-2c2.879 0 17.458.718 21.816 14.88a1 1 0 0 1 -.956 1.295z" fill="#4d4d4d"/><path d="m66.948 85.851a18.881 18.881 0 0 1 1.785 10.929" fill="#f5d8af"/><path d="m68.735 97.78a1 1 0 0 1 -1-1.106 18.138 18.138 0 0 0 -1.649-10.314 1 1 0 0 1 1.721-1.02c.11.184 2.663 4.574 1.921 11.546a1 1 0 0 1 -.993.894z" fill="#4d4d4d"/><path d="m63.878 66.4c-5.58-4.234-14.823-4.234-14.823-4.234h-7.606s-9.243 0-14.823 4.234-8.371 18.96-6.1 27.06 8.076 11.6 10.517 15.649c2.5 11.411 17.485 24.98 28.512 1.974 2.441-4.05 8.164-9.524 10.431-17.623s-.527-22.831-6.108-27.06z" fill="#f1d7ad"/><path d="m32.766 114.306a1 1 0 0 1 -.96-.721l-1.187-4.073a25.075 25.075 0 0 0 -3.325-3.863c-2.75-2.824-6.172-6.339-7.735-11.924-2.762-9.867 1.3-24.21 6.462-28.127 5.783-4.387 15.037-4.437 15.428-4.437h7.606c.391 0 9.646.05 15.428 4.437 5.163 3.918 9.224 18.26 6.462 28.127-1.352 4.831-4.678 8.843-7.612 12.382-.91 1.1-1.77 2.134-2.516 3.13a9.217 9.217 0 0 0 -1.129 2.574 9.356 9.356 0 0 1 -.749 1.87 1 1 0 0 1 -1.712-1.032 8.323 8.323 0 0 0 .559-1.457 10.646 10.646 0 0 1 1.431-3.154c.776-1.036 1.65-2.09 2.575-3.207 2.808-3.386 5.989-7.224 7.227-11.645 2.089-7.463-.416-21.952-5.745-25.994-5.252-3.985-14.13-4.031-14.219-4.031h-7.606c-.089 0-8.978.055-14.219 4.031-5.33 4.042-7.83 18.531-5.745 25.994 1.426 5.094 4.516 8.268 7.243 11.068a25.766 25.766 0 0 1 3.67 4.334.975.975 0 0 1 .1.236l1.224 4.2a1 1 0 0 1 -.68 1.24 1.009 1.009 0 0 1 -.276.042z" fill="#4d4d4d"/><path d="m59.648 68.172a2.644 2.644 0 0 1 3.677-3.262 34.707 34.707 0 0 1 10.05 7.09c7.076 7.289 8.491 17.152 3.639 22.268s-1.014 11.225-5.054 14.377-7.278-10.668-6.874-19.223c.263-5.575-3.078-15.211-5.438-21.25z" fill="#f5d8af"/><path d="m70.779 110.1a2.662 2.662 0 0 1 -1.231-.312c-3.771-1.953-5.784-13.582-5.461-20.417a32.461 32.461 0 0 0 -1.465-9.294 1 1 0 1 1 1.93-.524 34.272 34.272 0 0 1 1.533 9.912c-.351 7.425 1.984 17.305 4.383 18.548.195.1.439.179.877-.161 1.58-1.232 1.687-3.073 1.822-5.4.153-2.647.343-5.942 3.121-8.87 4.535-4.782 2.906-14.151-3.631-20.882a33.392 33.392 0 0 0 -9.757-6.886 3.556 3.556 0 0 0 -1.921-.265 1 1 0 1 1 -.706-1.871 5.257 5.257 0 0 1 3.482.328 35.379 35.379 0 0 1 10.34 7.3c7.4 7.619 9 18.009 3.646 23.653-2.275 2.4-2.427 5.047-2.576 7.61-.144 2.5-.293 5.076-2.589 6.866a2.917 2.917 0 0 1 -1.797.665z" fill="#4d4d4d"/><path d="m30.856 68.172a2.644 2.644 0 0 0 -3.677-3.262 34.707 34.707 0 0 0 -10.05 7.09c-7.076 7.29-8.491 17.153-3.639 22.269s1.011 11.224 5.054 14.376 7.279-10.668 6.874-19.223c-.263-5.575 3.082-15.211 5.438-21.25z" fill="#f5d8af"/><path d="m19.725 110.1a2.917 2.917 0 0 1 -1.8-.67c-2.3-1.79-2.445-4.371-2.589-6.866-.149-2.563-.3-5.212-2.576-7.61-5.347-5.64-3.745-16.03 3.652-23.654a35.371 35.371 0 0 1 10.339-7.3 5.03 5.03 0 0 1 3.386-.385 1 1 0 0 1 -.706 1.871 3.367 3.367 0 0 0 -1.825.322 33.392 33.392 0 0 0 -9.759 6.892c-6.537 6.734-8.166 16.1-3.631 20.885 2.778 2.928 2.968 6.223 3.121 8.87.135 2.331.242 4.172 1.822 5.4.437.341.682.261.877.16 2.4-1.243 4.735-11.123 4.383-18.547a34.24 34.24 0 0 1 1.534-9.912 1 1 0 1 1 1.929.524 32.421 32.421 0 0 0 -1.465 9.294c.323 6.834-1.69 18.464-5.461 20.417a2.659 2.659 0 0 1 -1.231.309z" fill="#4d4d4d"/><path d="m56.868 87.512a1 1 0 0 1 -.52-.147c-2.46-1.5-3.842-.359-3.9-.309a1.007 1.007 0 0 1 -1.406-.086.992.992 0 0 1 .06-1.393c.1-.094 2.49-2.242 6.288.082a1 1 0 0 1 -.523 1.853z" fill="#4d4d4d"/><path d="m33.636 87.512a1 1 0 0 1 -.475-1.881 7.126 7.126 0 0 1 5.978-.229 1 1 0 0 1 -.83 1.819 5.083 5.083 0 0 0 -4.2.171 1 1 0 0 1 -.473.12z" fill="#4d4d4d"/><path d="m56.5 108.373c-.8-2.548-2.323-4.063-4-5.959a15.249 15.249 0 0 1 -3.384-7.614c-.149-1.066.278-3.233-.116-4.131-.432-.983-1.615-.97-2.586-1.014-.188-.008-2.033 0-2.458.033-.79.055-1.577.218-1.912.981-.394.9.033 3.065-.116 4.131a15.249 15.249 0 0 1 -3.377 7.617c-1.68 1.9-3.936 3.35-4.738 5.9-.807 2.564.4 8.57 2.065 10.509s2.833 3.244 5.143 3.993a15.557 15.557 0 0 0 8.5.174 17.255 17.255 0 0 0 5.96-4.741c1.578-2.018 1.819-7.315 1.019-9.879z" fill="#f2f2f2"/><path d="m46.37 108.637h-2.236c-2.849 0-4.49 2.607-2.807 4.458l1.118 1.23a4.008 4.008 0 0 0 5.615 0l1.118-1.23c1.682-1.851.041-4.458-2.808-4.458z" fill="#4d4d4d"/><path d="m45.252 116.473a4.769 4.769 0 0 1 -3.552-1.473l-1.118-1.23a3.331 3.331 0 0 1 -.648-3.666 4.484 4.484 0 0 1 4.2-2.465h2.236a4.481 4.481 0 0 1 4.2 2.465 3.331 3.331 0 0 1 -.648 3.666l-1.122 1.23a4.765 4.765 0 0 1 -3.548 1.473zm-1.118-6.836a2.474 2.474 0 0 0 -2.367 1.275 1.322 1.322 0 0 0 .3 1.511l1.118 1.23a3.015 3.015 0 0 0 4.134 0l1.119-1.231a1.321 1.321 0 0 0 .3-1.51 2.472 2.472 0 0 0 -2.367-1.275z" fill="#4d4d4d"/><path d="m5.345 99.427a5.072 5.072 0 0 0 -1.48 3.173" fill="#f5d8af"/><path d="m3.866 103.6c-.03 0-.059 0-.089 0a1 1 0 0 1 -.908-1.084 6.1 6.1 0 0 1 1.815-3.836 1 1 0 0 1 1.327 1.5 4.057 4.057 0 0 0 -1.15 2.515 1 1 0 0 1 -.995.905z" fill="#4d4d4d"/><path d="m8.683 102.078a6.445 6.445 0 0 0 -1.054 4" fill="#f5d8af"/><path d="m7.628 107.076a1 1 0 0 1 -.984-.825 7.431 7.431 0 0 1 1.208-4.729 1 1 0 0 1 1.663 1.11 5.366 5.366 0 0 0 -.9 3.269 1 1 0 0 1 -.81 1.16 1.055 1.055 0 0 1 -.177.015z" fill="#4d4d4d"/><path d="m94.456 119.774s3.519 1.78 3.595 3.834" fill="#f5d8af"/><path d="m98.05 124.608a1 1 0 0 1 -1-.962c-.037-1-1.8-2.348-3.047-2.981a1 1 0 0 1 .9-1.784c.414.21 4.047 2.121 4.142 4.69a1 1 0 0 1 -.962 1.037z" fill="#4d4d4d"/><path d="m98.739 116.638a6.981 6.981 0 0 1 4.053 2.6" fill="#f5d8af"/><g fill="#4d4d4d"><path d="m102.793 120.238a1 1 0 0 1 -.8-.4 6.058 6.058 0 0 0 -3.422-2.218 1 1 0 0 1 .324-1.974 7.986 7.986 0 0 1 4.69 2.983 1 1 0 0 1 -.795 1.605z"/><path d="m8.565 63.161a1 1 0 0 1 -.831-1.561l7.193-10.747h-8.597a1 1 0 1 1 0-2h10.47a1 1 0 0 1 .831 1.556l-7.161 10.7 8.472-.209a.959.959 0 0 1 1.024.975 1 1 0 0 1 -.974 1.024l-10.4.257z"/><path d="m20.564 46.131a1 1 0 0 1 -.831-1.556l4.846-7.242h-5.613a1 1 0 0 1 0-2h7.486a1 1 0 0 1 .831 1.556l-4.815 7.194 5.508-.136a.966.966 0 0 1 1.024.975 1 1 0 0 1 -.974 1.024l-7.437.184z"/><path d="m10.282 32.854a1 1 0 0 1 -.831-1.554l2.983-4.458h-3.245a1 1 0 1 1 0-2h5.117a1 1 0 0 1 .831 1.556l-2.951 4.411 3.154-.078a.967.967 0 0 1 1.025.975 1 1 0 0 1 -.975 1.024l-5.083.126z"/><path d="m45.057 124.655a12.752 12.752 0 0 1 -6.2-1.469 17.546 17.546 0 0 1 -7.052-9.638 1 1 0 0 1 1.941-.482 15.725 15.725 0 0 0 6.145 8.41c3.5 1.954 8.132.943 8.709.723 5.937-1.887 8.52-9.28 8.545-9.354a1 1 0 0 1 1.893.645c-.117.343-2.944 8.426-9.777 10.6a14.158 14.158 0 0 1 -4.204.565z"/></g></svg>