<svg id="Layer_1" height="512" viewBox="0 0 150 150" width="512" xmlns="http://www.w3.org/2000/svg" data-name="Layer 1"><path d="m110.813 98.453c-2.413-4.962-21.313-25.531-21.313-25.531l-14.734 9.058-10.096 40.12 16.292 1.67 14.781.47 9.122-6.232.736-.5s8.232-12.856 5.212-19.055z" fill="#f5d8af"/><path d="m95.743 125.237h-.032l-14.781-.471-16.362-1.673a1 1 0 0 1 -.868-1.239l10.1-40.118a1 1 0 0 1 .446-.607l14.735-9.059a1 1 0 0 1 1.259.175c.776.844 19.02 20.736 21.473 25.77 3.227 6.627-4.921 19.482-5.269 20.026a1 1 0 0 1 -.279.287l-9.857 6.734a1 1 0 0 1 -.565.175zm-29.821-4.017 15.142 1.551 14.384.456 9.42-6.435c2.261-3.592 7.283-13.31 5.046-17.9-2.1-4.3-17.456-21.248-20.591-24.683l-13.687 8.41z" fill="#4d4d4d"/><path d="m105.644 126.548-.191-40.758c5.614-7.661 1.434-18.693 1.434-18.693 3.984-12.258-2.848-24.281-2.848-24.281l-5.153-2.234-29.691 2.612s1.838 4.9 0 8.887-11.645 20.685-9.806 38.383c0 0-6.129 13.1 1.532 26.584l.252 6.315a1.84 1.84 0 0 0 1.4 1.72c2.068.5 6.041 1.16 8.455-.374v-13.177l-3.059-21.068 23.174-3.564s3.793 41.18 6.857 44.857 10.383 1.839 10.383 1.839c.883-5.516-2.739-7.048-2.739-7.048z" fill="#f5d8af"/><path d="m99.283 65.749c-.594-1.5-1.94-2.981-3.534-2.745a5.912 5.912 0 0 0 -2.7 1.716 10.489 10.489 0 0 1 -12.658.319c-1.677-1.261-3.266-3.15-5.359-2.963-2.944.263-3.362 3.543-3.91 5.807-.127.54-.285 1.1-.355 1.633-.421 11.261 1.741 10.433 4.478 18.545s5.757 24.1 5.757 24.1 1.698-12.97 1.798-15.989 1.6-3.395 5.373-4.338 5.165 15.383 5.165 15.383 1.438-13.5 3.933-18.59 2.715-16.827 2.715-16.827a14.082 14.082 0 0 0 -.703-6.051z" fill="#f2f2f2"/><path d="m57.067 106.058s-12.9 1.442-17.708 5.129-7.052 8.014-4.488 12.021 19.715 10.258 23.883 10.1 4.488-4.167.8-6.892-12.566-2.822-14.009-7.632 7.277-3.748 10.483-1.665a38.412 38.412 0 0 1 5.048 3.831" fill="#f5d8af"/><path d="m58.623 134.308c-4.485 0-21.721-6.072-24.594-10.561-2.656-4.15-.935-9.017 4.722-13.354 4.972-3.811 17.667-5.269 18.205-5.33a1 1 0 0 1 .223 1.988c-.127.014-12.679 1.455-17.211 4.93-2.78 2.131-7.029 6.353-4.254 10.688 2.276 3.556 18.607 9.64 22.85 9.641h.151c.731-.028 2-.231 2.327-1.273.284-.924-.248-2.462-2.081-3.817a19.454 19.454 0 0 0 -5.4-2.2c-3.714-1.142-7.924-2.437-8.977-5.948a3.172 3.172 0 0 1 1.019-3.734c2.523-1.89 8.392-.731 10.967.942a39.18 39.18 0 0 1 5.191 3.944 1 1 0 0 1 -1.376 1.451 38.106 38.106 0 0 0 -4.905-3.717c-2.221-1.445-7.084-2.214-8.678-1.02-.188.141-.629.471-.3 1.56.746 2.487 4.255 3.567 7.649 4.611a20.535 20.535 0 0 1 6 2.5c2.3 1.7 3.4 4.062 2.8 6.013-.5 1.623-2.017 2.6-4.161 2.682-.052.003-.109.004-.167.004z" fill="#4d4d4d"/><path d="m104.305 135.059c-2.553 0-5.336-.578-7.073-2.661-3.172-3.808-6.693-41.157-7.084-45.398a1 1 0 0 1 .9-1.088.988.988 0 0 1 1.088.9c1.455 15.8 4.541 41.8 6.629 44.306 1.778 2.136 5.477 2.058 7.52 1.823a1.388 1.388 0 0 0 1.22-1.465 4.5 4.5 0 0 0 -2.265-4.011 1.017 1.017 0 0 1 -.6-.912l-.187-40.753a1 1 0 0 1 .194-.6c5.219-7.123 1.345-17.644 1.3-17.749a1 1 0 0 1 -.015-.662c3.465-10.663-1.65-21.33-2.616-23.194l-4.6-1.995-28.211 2.484c.463 1.82 1.024 5.327-.4 8.417-.211.457-.525 1.078-.913 1.846-2.847 5.635-10.408 20.6-8.807 36.013a1 1 0 0 1 -.088.526c-.059.127-5.808 12.816 1.495 25.667a1.009 1.009 0 0 1 .13.454l.252 6.316a.845.845 0 0 0 .637.788c1.481.357 4.993 1.03 7.219 0v-12.511l-3.049-21a1 1 0 0 1 1.98-.287l3.059 21.068a1 1 0 0 1 .01.144v13.177a1 1 0 0 1 -.464.843c-2.712 1.725-6.945 1.055-9.225.5a2.85 2.85 0 0 1 -2.165-2.651l-.243-6.075a31.607 31.607 0 0 1 -1.566-27.019c-1.549-15.9 6.133-31.108 9.033-36.854.375-.742.679-1.342.882-1.783 1.637-3.546-.011-8.073-.028-8.118a1 1 0 0 1 .849-1.346l29.697-2.613a.94.94 0 0 1 .485.079l5.154 2.234a.989.989 0 0 1 .471.423c.286.5 6.887 12.343 3.035 24.757.671 1.961 3.619 11.722-1.488 19.03l.186 39.858a6.672 6.672 0 0 1 2.864 5.387 3.387 3.387 0 0 1 -2.986 3.572 19.431 19.431 0 0 1 -2.216.133z" fill="#4d4d4d"/><path d="m81.025 128.509-.118-9.008c.265-11.657 0-13.065 0-13.065l.1 2.479-3.9-6.811-3.375-13.293-6.659-1.492 1.736 8.931 2.219 28.459s.076 9.1 2.2 10.423 9.272 3.444 10.067 0-2.27-6.623-2.27-6.623z" fill="#f5d8af"/><path d="m79.974 138a16.038 16.038 0 0 1 -7.28-2.021c-2.4-1.5-2.647-9-2.666-11.262l-2.211-28.333-1.725-8.875a1 1 0 1 1 1.963-.38l1.736 8.93a1.074 1.074 0 0 1 .015.112l2.219 28.459c.039 4.2.741 9.036 1.729 9.654 1.588.993 5.869 2.268 7.792 1.471a1.151 1.151 0 0 0 .771-.848c.661-2.862-1.988-5.679-2.014-5.706a1 1 0 0 1 -.278-.68l-.119-9.008c.263-11.541 0-31.976 0-32.181a1 1 0 0 1 .988-1.013h.012a1 1 0 0 1 1 .987c0 .2.263 20.676 0 32.217l.114 8.6c.8.948 3.009 3.928 2.246 7.232a3.139 3.139 0 0 1 -1.954 2.248 6.182 6.182 0 0 1 -2.338.397z" fill="#4d4d4d"/><path d="m104.66 17.515c-4.152-3.608-11.395-4.09-11.395-4.09l-2.938-.2-.083-.005-2.938-.2s-7.243-.481-11.836 2.546-7.547 14.434-6.192 20.894 5.553 11.052 7.256 14.352c.834 1.618.015 4.841.281 7.8h21.058c.327-2.5.19-5.046 1.068-6.3 2.124-3.047 6.894-7.037 9.092-13.266s.779-17.923-3.373-21.531z" fill="#f1d7ad"/><path d="m105.57 45.753-1.629-1.161a23.588 23.588 0 0 0 3.152-5.886c2.194-6.219.519-17.3-3.09-20.441a11.084 11.084 0 0 0 -2.147-1.445 24.64 24.64 0 0 0 -8.657-2.4l-5.957-.395a24.727 24.727 0 0 0 -8.849 1.21 11.209 11.209 0 0 0 -2.365 1.167c-4 2.634-7.124 13.392-5.771 19.849a23.112 23.112 0 0 0 2.343 6.235l.378.708-.61.521-.642-.749h-.01l-.105 1-.707-.579-.069.036a25.132 25.132 0 0 1 -2.535-6.76c-1.411-6.737 1.548-18.58 6.626-21.926a13.17 13.17 0 0 1 2.774-1.376 26.416 26.416 0 0 1 9.673-1.329l5.957.395a26.376 26.376 0 0 1 9.457 2.624 13.038 13.038 0 0 1 2.527 1.706c4.587 3.995 5.952 16.125 3.664 22.613a25.584 25.584 0 0 1 -3.408 6.383z" fill="#4d4d4d"/><path d="m101.252 18.687a2.077 2.077 0 0 1 3.052-2.364 27.264 27.264 0 0 1 7.5 6.079c5.165 6.081 5.76 13.883 1.691 17.639s-1.376 8.742-4.709 11-5.147-8.738-4.384-15.421c.498-4.353-1.615-12.078-3.15-16.933z" fill="#f5d8af"/><path d="m107.921 52.344a2.284 2.284 0 0 1 -1.19-.345c-2.924-1.77-3.934-11.1-3.318-16.492a25.2 25.2 0 0 0 -.662-7.291 1 1 0 0 1 1.961-.4 27.077 27.077 0 0 1 .688 7.914c-.7 6.089.791 13.6 2.366 14.554.094.056.186.115.464-.074 1.163-.789 1.372-2.029 1.616-3.988.263-2.1.589-4.717 2.975-6.92 3.72-3.433 2.923-10.725-1.774-16.256a26.034 26.034 0 0 0 -7.229-5.853 2.642 2.642 0 0 0 -1.329-.289 1.02 1.02 0 0 1 -1.228-.7.981.981 0 0 1 .65-1.217 4.374 4.374 0 0 1 2.879.456 28.009 28.009 0 0 1 7.781 6.306c5.474 6.445 6.18 14.8 1.608 19.02-1.85 1.708-2.1 3.736-2.348 5.7-.249 2-.507 4.06-2.478 5.4a2.552 2.552 0 0 1 -1.432.475z" fill="#4d4d4d"/><path d="m78.692 17.187a2.076 2.076 0 0 0 -2.711-2.747c-2.436.959-5.026 1.087-7.8 3.593-5.924 5.343-6.537 14.031-3 18.293s-1.242 9.253 1.762 11.933 6.259-7.979 6.387-14.7c.078-4.386 3.198-11.759 5.362-16.372z" fill="#f5d8af"/><path d="m67.913 49.684a2.451 2.451 0 0 1 -1.642-.679c-1.841-1.642-1.443-3.84-1.059-5.965.389-2.156.756-4.191-.807-6.076-4.584-5.525-2.143-14.944 3.1-19.673a14.288 14.288 0 0 1 6.153-3.143c.683-.2 1.327-.392 1.954-.639a4.191 4.191 0 0 1 2.841-.121 1 1 0 0 1 -.826 1.823 2.622 2.622 0 0 0 -1.282.16c-.708.278-1.427.49-2.121.695a12.277 12.277 0 0 0 -5.379 2.709c-5.544 5-6.1 13.053-2.9 16.912 2.157 2.6 1.646 5.433 1.235 7.708-.372 2.058-.535 3.263.423 4.118.248.222.352.178.45.135 1.687-.736 4.154-7.985 4.271-14.112a27.143 27.143 0 0 1 1.73-7.753 1 1 0 0 1 1.891.652 25.306 25.306 0 0 0 -1.621 7.14c-.1 5.427-2.339 14.539-5.471 15.906a2.343 2.343 0 0 1 -.94.203z" fill="#4d4d4d"/><path d="m96.922 46.4c-.5-1.718-2.146-2.789-3.338-4.121a9.484 9.484 0 0 1 -2.229-5.185c-.067-.709.352-2.114.092-2.725-.284-.668-1.183-.72-1.918-.8-.142-.015-1.543-.1-1.866-.1-.6 0-1.207.064-1.495.549-.338.571-.109 2.02-.268 2.713a9.485 9.485 0 0 1 -2.9 4.844c-1.358 1.163-3.134 2.007-3.854 3.643a4.9 4.9 0 0 0 1.083 5 14.406 14.406 0 0 0 4.406 3.059 4.816 4.816 0 0 0 1.614.61 1.791 1.791 0 0 0 1.267-.3 1.79 1.79 0 0 0 1.215.47 4.821 4.821 0 0 0 1.681-.391 14.409 14.409 0 0 0 4.772-2.448 4.9 4.9 0 0 0 1.738-4.818z" fill="#f2f2f2"/><path d="m89.19 42.94-1.752-.116c-2.232-.149-3.654 1.808-2.432 3.346l.812 1.023a3.15 3.15 0 0 0 4.4.292l.94-.906c1.415-1.363.264-3.491-1.968-3.639z" fill="#4d4d4d"/><path d="m88.189 49.246c-.1 0-.2 0-.3-.011a3.958 3.958 0 0 1 -2.858-1.42l-.811-1.022a2.826 2.826 0 0 1 -.339-3.14 3.727 3.727 0 0 1 3.62-1.827l1.753.116a3.734 3.734 0 0 1 3.346 2.291 2.826 2.826 0 0 1 -.753 3.066l-.939.906a3.911 3.911 0 0 1 -2.719 1.041zm-.989-5.43a1.705 1.705 0 0 0 -1.545.767.832.832 0 0 0 .134.965l.812 1.023a1.989 1.989 0 0 0 1.424.669 1.959 1.959 0 0 0 1.5-.476l.938-.9a.837.837 0 0 0 .262-.941 1.76 1.76 0 0 0 -1.6-.981l-1.753-.116c-.058-.008-.116-.01-.172-.01z" fill="#4d4d4d"/><path d="m87.875 48.227-.356 5.353" fill="#f8c7c1"/><g fill="#4d4d4d"><path d="m87.52 54.58h-.068a1 1 0 0 1 -.931-1.065l.356-5.352a1 1 0 1 1 2 .133l-.356 5.352a1 1 0 0 1 -1.001.932z"/><path d="m88.338 54.8a12.794 12.794 0 0 1 -6.828-2.1 1 1 0 1 1 1.059-1.7 10.052 10.052 0 0 0 10.331.7 1 1 0 1 1 .865 1.8 12.456 12.456 0 0 1 -5.427 1.3z"/><path d="m101.757 54.938a1 1 0 0 1 -.611-1.792 7.3 7.3 0 0 0 3.082-5.755 1 1 0 0 1 .935-1.06 1.01 1.01 0 0 1 1.061.935 9.262 9.262 0 0 1 -3.858 7.464.993.993 0 0 1 -.609.208z"/><path d="m73.466 53.058a.991.991 0 0 1 -.71-.3 9.26 9.26 0 0 1 -2.834-7.909 1 1 0 0 1 1.962.384 7.287 7.287 0 0 0 2.292 6.117 1 1 0 0 1 -.71 1.7z"/><path d="m97.193 32.315c-.237.682-.9.275-1.584.037s-1.123-.214-.886-.9a1.308 1.308 0 1 1 2.47.859z"/><path d="m96.719 33.692a3.185 3.185 0 0 1 -1.147-.286c-.095-.037-.193-.075-.292-.11s-.2-.064-.285-.09a1.756 1.756 0 0 1 -1.195-.816 1.594 1.594 0 0 1 -.025-1.263 2.307 2.307 0 1 1 4.358 1.516 1.5 1.5 0 0 1 -.791.912 1.468 1.468 0 0 1 -.623.137z"/><path d="m83.849 30.344c.138.709-.641.691-1.349.829s-1.079.38-1.217-.329a1.307 1.307 0 0 1 2.566-.5z"/><path d="m81.7 32.326a1.345 1.345 0 0 1 -.744-.211 1.6 1.6 0 0 1 -.658-1.078 2.308 2.308 0 1 1 4.53-.885 1.5 1.5 0 0 1 -.224 1.186 2.2 2.2 0 0 1 -1.604.762c-.1.017-.2.032-.306.052s-.2.044-.293.065a2.984 2.984 0 0 1 -.701.109z"/></g></svg>