<svg id="Capa_1" enable-background="new 0 0 512 512" viewBox="0 0 512 512" xmlns="http://www.w3.org/2000/svg"><g><g><path d="m70.288 61.074c0-4.628.607-9.115 1.735-13.394h-43.178c-7.397 0-13.394 5.997-13.394 13.394s5.997 13.393 13.394 13.393h43.177c-1.128-4.278-1.734-8.765-1.734-13.393z" fill="#f6a96c"/><path d="m483.155 47.681h-124.979c1.128 4.278 1.735 8.766 1.735 13.394s-.607 9.115-1.735 13.393h124.978c7.397 0 13.394-5.997 13.394-13.393 0-7.398-5.996-13.394-13.393-13.394z" fill="#f6a96c"/><g><path d="m164.782 75.468c-1.305-4.578-2.019-9.402-2.019-14.394 0-9.466 2.528-18.348 6.924-26.029-9.151-16.427-26.686-27.545-46.825-27.545-29.588 0-53.574 23.986-53.574 53.574 0 4.989.696 9.812 1.972 14.394z" fill="#fe99a0"/></g><g><path d="m131.777 75.468h33.005c-1.305-4.578-2.019-9.402-2.019-14.394 0-9.465 2.527-18.346 6.922-26.026-6.752-12.113-18.06-21.338-31.615-25.345 5.344 8.334 8.455 18.236 8.455 28.871 0 14.303-5.615 27.286-14.748 36.894z" fill="#fd8087"/></g><g><path d="m256.782 75.468c-1.305-4.578-2.019-9.402-2.019-14.394 0-9.636 2.618-18.668 7.162-26.442-9.215-16.199-26.619-27.132-46.588-27.132-29.588 0-53.574 23.986-53.574 53.574 0 4.989.696 9.812 1.972 14.394z" fill="#ffe5c2"/></g><g><path d="m224.251 75.468h32.531c-1.305-4.578-2.019-9.402-2.019-14.394 0-9.637 2.618-18.669 7.163-26.444-6.777-11.907-17.982-20.967-31.381-24.927 5.343 8.334 8.455 18.236 8.455 28.871 0 14.303-5.616 27.286-14.749 36.894z" fill="#fed2a4"/></g><g><path d="m358.939 75.468c1.276-4.582 1.972-9.405 1.972-14.394 0-29.588-23.986-53.574-53.574-53.574s-53.574 23.986-53.574 53.574c0 4.989.696 9.812 1.972 14.394z" fill="#80d261"/></g><g><path d="m316.251 75.468h42.688c1.276-4.582 1.972-9.405 1.972-14.394 0-24.304-16.188-44.815-38.366-51.371 5.343 8.334 8.455 18.236 8.455 28.871 0 14.303-5.616 27.286-14.749 36.894z" fill="#68ca44"/></g><g><path d="m61.116 106.452 54.784 389.169c.717 5.092 5.074 8.879 10.217 8.879h177.966c5.143 0 9.5-3.787 10.217-8.879l54.784-389.169z" fill="#ffbd86"/><path d="m320.559 106.452-50.466 358.494c-.736 5.229-5.21 9.117-10.491 9.117h-146.737l3.035 21.557c.717 5.092 5.074 8.879 10.217 8.879h177.966c5.143 0 9.5-3.787 10.217-8.879l54.784-389.169h-48.525z" fill="#f6a96c"/><path d="m61.116 106.452 9.111 64.721c4.071-1.506 7.937-3.434 11.529-5.756 5.654-3.656 12.94-3.656 18.594 0 9.235 5.971 20.236 9.44 32.052 9.44 11.815 0 22.817-3.469 32.052-9.44 5.654-3.656 12.939-3.656 18.594 0 9.235 5.971 20.236 9.44 32.052 9.44s22.817-3.469 32.052-9.44c5.654-3.656 12.94-3.656 18.594 0 9.235 5.971 20.236 9.44 32.052 9.44s22.817-3.469 32.052-9.44c5.654-3.656 12.939-3.656 18.594 0 3.592 2.322 7.458 4.25 11.529 5.756l9.111-64.721z" fill="#ffe5c2"/><path d="m320.413 107.484-9.27 65.852c6.75-1.559 13.059-4.268 18.706-7.919 5.654-3.656 12.939-3.656 18.594 0 3.592 2.322 7.458 4.25 11.529 5.756l8.966-63.689z" fill="#fed2a4"/><path d="m314.299 495.621 7.021-49.875h-212.441l7.021 49.875c.717 5.092 5.074 8.879 10.217 8.879h177.966c5.142 0 9.499-3.787 10.216-8.879z" fill="#f6a96c"/><path d="m270.093 464.946c-.736 5.229-5.21 9.117-10.491 9.117h-146.737l3.035 21.557c.717 5.092 5.074 8.879 10.217 8.879h177.966c5.142 0 9.5-3.787 10.217-8.879l7.021-49.875h-48.524z" fill="#ea9b58"/><path d="m41.909 82.722v16.508c0 4.559 3.695 8.254 8.254 8.254h329.873c4.559 0 8.254-3.695 8.254-8.254v-16.508c0-4.559-3.695-8.254-8.254-8.254h-329.873c-4.559 0-8.254 3.695-8.254 8.254z" fill="#fff3de"/><path d="m380.036 74.468h-54.418l-5.205 33.016h59.622c4.559 0 8.254-3.695 8.254-8.254v-16.508c.001-4.559-3.695-8.254-8.253-8.254z" fill="#ffe5c2"/><path d="m215.099 399.777c-37.355 0-67.918-30.563-67.918-67.918v-46.763c0-37.355 30.563-67.918 67.918-67.918 37.355 0 67.918 30.563 67.918 67.918v46.763c0 37.355-30.563 67.918-67.918 67.918z" fill="#fff"/><path d="m240.355 222.096v88.097c0 37.355-30.563 67.918-67.918 67.918-2.475 0-4.918-.143-7.326-.405 12.438 13.544 30.264 22.071 49.989 22.071 37.355 0 67.918-30.563 67.918-67.918v-46.763c-.001-28.439-17.724-52.924-42.663-63z" fill="#f2fbff"/></g></g><g><path d="m290.517 331.86v-46.764c0-41.585-33.832-75.417-75.417-75.417s-75.418 33.832-75.418 75.417v2.221c0 4.142 3.358 7.5 7.5 7.5s7.5-3.358 7.5-7.5v-2.221c0-33.314 27.104-60.417 60.418-60.417s60.417 27.103 60.417 60.417v46.764c0 33.314-27.103 60.417-60.417 60.417s-60.418-27.103-60.418-60.417v-8.432c0-4.142-3.358-7.5-7.5-7.5s-7.5 3.358-7.5 7.5v8.432c0 41.585 33.833 75.417 75.418 75.417s75.417-33.832 75.417-75.417z"/><path d="m245.298 275.462c0-4.142-3.358-7.5-7.5-7.5h-45.397c-4.142 0-7.5 3.358-7.5 7.5s3.358 7.5 7.5 7.5h45.397c4.142 0 7.5-3.358 7.5-7.5z"/><path d="m191.369 348.994h47.46c4.142 0 7.5-3.358 7.5-7.5s-3.358-7.5-7.5-7.5h-47.46c-4.142 0-7.5 3.358-7.5 7.5s3.358 7.5 7.5 7.5z"/><path d="m204.965 299.946c-4.142 0-7.5 3.358-7.5 7.5s3.358 7.5 7.5 7.5h20.268c4.142 0 7.5-3.358 7.5-7.5s-3.358-7.5-7.5-7.5z"/><path d="m483.154 40.181h-36.154c-4.142 0-7.5 3.358-7.5 7.5s3.358 7.5 7.5 7.5h36.154c3.25 0 5.894 2.644 5.894 5.894s-2.644 5.894-5.894 5.894h-115.026c.188-1.955.284-3.922.284-5.894 0-1.989-.103-3.953-.29-5.894h43.878c4.142 0 7.5-3.358 7.5-7.5s-3.358-7.5-7.5-7.5h-47.272c-8.552-23.418-31.05-40.181-57.391-40.181-18.328 0-34.784 8.127-45.988 20.953-11.498-13.121-28.317-20.953-46.012-20.953-18.459 0-35.019 8.243-46.227 21.229-11.497-13.296-28.397-21.229-46.248-21.229-26.341 0-48.838 16.763-57.39 40.181h-36.626c-11.521 0-20.894 9.373-20.894 20.894s9.373 20.894 20.894 20.894h5.602c-.012.252-.038.499-.038.754v16.507c0 8.687 7.067 15.754 15.754 15.754h4.58l53.73 381.682c1.23 8.742 8.815 15.334 17.644 15.334h177.965c8.828 0 16.413-6.592 17.644-15.334l53.73-381.682h4.58c8.687 0 15.754-7.067 15.754-15.754v-16.508c0-.254-.026-.502-.038-.754h87.402c11.521 0 20.894-9.373 20.894-20.894s-9.374-20.893-20.895-20.893zm-175.817-25.181c25.405 0 46.074 20.669 46.074 46.074 0 1.976-.125 3.945-.374 5.894h-91.402c-.248-1.948-.373-3.917-.373-5.894.001-25.405 20.67-46.074 46.075-46.074zm-92 0c14.968 0 28.607 7.046 37.267 19.016-4.051 8.161-6.341 17.346-6.341 27.058 0 1.972.096 3.939.283 5.894h-76.908c-.248-1.948-.375-3.917-.375-5.894 0-25.405 20.669-46.074 46.074-46.074zm-92.475 0c14.916 0 28.943 7.356 37.537 19.415-3.928 8.061-6.137 17.106-6.137 26.66 0 1.972.096 3.939.283 5.894h-77.381c-.248-1.948-.375-3.917-.375-5.894-.001-25.406 20.668-46.075 46.073-46.075zm-94.016 51.968c-3.25 0-5.894-2.644-5.894-5.894s2.644-5.894 5.894-5.894h33.232c-.187 1.94-.29 3.905-.29 5.894 0 1.972.096 3.939.284 5.894zm275.236 430.032h-177.965c-1.396 0-2.595-1.042-2.79-2.425l-5.818-41.33h106.693c4.142 0 7.5-3.358 7.5-7.5s-3.358-7.5-7.5-7.5h-108.805l-36.944-262.438c2.552-1.218 5.025-2.573 7.375-4.093 3.174-2.052 7.275-2.052 10.449 0 10.768 6.961 23.259 10.641 36.125 10.641s25.357-3.68 36.124-10.642c3.174-2.052 7.275-2.052 10.449 0 10.768 6.961 23.259 10.641 36.125 10.641s25.357-3.68 36.124-10.642c3.174-2.052 7.275-2.052 10.449 0 10.768 6.961 23.259 10.641 36.125 10.641s25.357-3.68 36.124-10.642c3.174-2.052 7.275-2.052 10.449 0 2.349 1.519 4.823 2.874 7.375 4.092l-36.944 262.438h-54.489c-4.142 0-7.5 3.358-7.5 7.5s3.358 7.5 7.5 7.5h52.377l-5.818 41.33c-.195 1.387-1.394 2.429-2.79 2.429zm49.888-336.992c-.488-.291-.978-.581-1.454-.889-8.122-5.252-18.618-5.252-26.739 0-8.335 5.389-18.01 8.238-27.979 8.238s-19.645-2.849-27.98-8.237c-8.121-5.252-18.617-5.252-26.738 0-8.335 5.389-18.01 8.238-27.979 8.238s-19.645-2.849-27.98-8.237c-8.122-5.252-18.618-5.252-26.738 0-8.335 5.389-18.01 8.238-27.979 8.238s-19.645-2.849-27.98-8.237c-8.121-5.252-18.617-5.252-26.738 0-.476.308-.966.598-1.454.889l-6.338-45.023h290.417zm26.82-60.779c0 .415-.339.754-.754.754h-329.873c-.416 0-.754-.338-.754-.754v-17.261h331.381z"/></g></g><g/><g/><g/><g/><g/><g/><g/><g/><g/><g/><g/><g/><g/><g/><g/></svg>