<svg id="Layer_3" enable-background="new 0 0 1000 1000" height="1000" viewBox="0 0 1000 1000" width="1000" xmlns="http://www.w3.org/2000/svg"><g><path d="m779.4 420 4.4-53.1s51.9 106.5 159.5-55c18-25.5 38.7-36.5 45.8 9.2 8.7 56.2-105.2 210.3-209.7 98.9zm-638.8 216.1s-77.7 80.4-93.9 83.9-28.9-1.9-35.4 11.1 25.9 41.3 59.4 30 121.7-48.6 144.6-75.8c-35.7-3.1-74.7-49.2-74.7-49.2z" fill="#fea142"/><path d="m185.1 457.2s43.7-91.8 56.4-92c12.7-.3 35.4 63.2 35.4 63.2-53.8-3.9-91.8 28.8-91.8 28.8zm501.8 167.4c-9.8 48.7-106.3 68-74.9 19 38.2-59.5 38.2-106.5 38.2-106.5-.8-66.4-59.5-9.2-71.8 2.3-12.2 11.4-163.7 185.2-205.3 225.1s-54.8 42.4-69.4 45.6-62.3 1.6-63.2-28.3c-.8-30 27.8-20.2 44.8-23.5s56.1-73.7 56.1-73.7 56-5.8 85.2-59c-20.3 35.3-62.1 65.2-145.4 63.9-32.1-1.7-164.6 10.3-152.7-130.6 2.1-19.9 24.9-111.7 121.4-129 43.3-.2 74.4 2.4 95.5 5.4l-15.1-3.3c27.3 1.9 60.3-94.9 127.6-165.5 65-68.1 159.1-110.9 244.9-45.7 175.1 132.9 13.1 351.8-15.9 403.8zm-229-202.8s-.3 0-.8 0c.5.4.9.8 1.2 1.4-.1-.4-.2-.9-.4-1.4zm-23.6 1.9c-14.8 2.3-34.9 7.3-55.7 18.4 2.4.7 3.5 1.1 3.5 1.1s29.8-13.4 52.2-19.5z" fill="#ffc360"/><path d="m434.4 496.9c-7.4-18.9-37.8-38.2-37.8-38.2s43.9-24.2 47.5-19.5-2.9 43.6-9.7 57.7z" fill="#f9eba5"/><path d="m547.3 458.5c.5 7.9-16.5 24-23.1-10.1-22.1-113.9-132.7-84.9-132.7-84.9l14-25.4c93.4-21.7 125 51.1 133 66.1 6.3 11.8 8.1 42.7 8.8 54.3zm-14.4-248.8c69.8 55.6 98.4 92.8 83.7 187.8-1.3 8.4 12.4 5.1 16.7-1.1 3.3-4.8 43.6-92.3-59.9-198.6zm191.3 33.2s3 27.7 3.6 57.8c.4 20.2.2 40.6-6.8 55.4-16.7 35.5-16.9 41-12 44.4 10 7.1 48.5-26.3 53.1-113.7zm-355.9 197.9s-25.1 21.6-38.3 59.6c-13.2 38.1 4.9 31.6 6.7 26.4 1.9-5.1 6.5-27.5 20.2-48.3 10.1-15.3 27-30 27-35.9 0-5.8-15.6-1.8-15.6-1.8zm-117.7 65.1c-10 49.3 2.5 45 6.9 43.3s10.5-56 29.8-83c16.8-23.6 26.5-32.8 26.5-32.8l-21.6-.4s-31.2 21.4-41.6 72.9zm-18.7-70.1s-25.2 28.1-30.7 47.7c-5.5 19.7-3.3 22.4.4 22.9 4.8.7 4.7.6 18.7-29.9 13.3-28.8 41-44 41-44z" fill="#dc8b4a"/><path d="m994.5 320.3c-3.3-21.5-9.9-33-20.2-35.4-10.5-2.5-22.5 5.6-35.5 24 0 0-.1.1-.1.1-39.2 58.8-76.2 88.9-106.9 86.9-28.3-1.9-43-30.8-43.3-31.3-.1-.3-.3-.6-.5-.8-3.4-59.1-30.7-108.4-81.8-147.2-21.2-16.1-44-26.5-67.6-30.9-21.8-4.1-44.4-3.1-67.3 2.9-50.9 13.3-91.8 47.8-117.2 74.3-32.6 34.2-57.4 74.6-77.4 107.1-18.3 29.8-35.6 57.9-46.5 57.9-.1 0-.3 0-.4 0-.3 0-.6 0-.8 0-13.2-1.3-29-2.5-47.6-3-1.6-4.5-6.5-17.4-12.5-30.5-13.9-30.3-21.6-34.6-27.3-34.6-.1 0-.2 0-.2 0-5.4.1-13.1 4-37.6 48.9-12.4 22.8-23.5 45.9-23.6 46.2-.2.5-.4 1-.5 1.5-11.5 9.5-21.7 21-30.3 34.1-17.9 27.4-24.9 55.6-26.2 67.9v.1c-2.5 30.1 1.3 55.6 11.3 76-31.8 32.8-79.3 78.2-89.1 80.3-4.7 1-9.2 1.2-13.4 1.4-9.7.4-19.8.9-25.6 12.5-3.1 6.2-1.1 14.1 5.6 21.8 9.1 10.5 25.3 18.7 42.9 18.7 5.8 0 11.7-.9 17.5-2.9 30-10.2 118.6-46.5 145.5-75.7 20.5 3.8 39.8 4.1 52.8 4.2 4.1.1 7.7.1 10.4.2h.2 5.5c16 0 30.8-1.2 44.6-3.5-4 6.7-9.7 16.3-16 25.8-21.4 32.4-29.5 35.4-30.9 35.7-3.7.7-8.2.7-13.1.7-10.4 0-22.3.1-29.7 7.7-4.6 4.7-6.7 11.5-6.5 20.5.2 9.2 4.3 17.1 11.8 23 11.5 9 29.4 11.9 43.2 11.9 6 0 11.2-.5 14.8-1.3l.7-.2c15-3.3 29.3-6.5 71.2-46.8 26.5-25.4 96.8-104.3 148.1-161.8 28.3-31.8 52.8-59.2 57.1-63.3l1.1-1c32.1-30.2 46.5-33.3 52.9-30.6 6.9 2.9 8.5 15.5 8.6 25.4 0 .5-.5 46.3-37.3 103.5-7.8 12.1-9.2 21.8-4.4 28.8 5 7.3 16.2 9.8 30.8 6.9 24.7-5 52.4-23.7 58.2-49.8 2.7-4.9 6.7-11.3 11.2-18.7 22.3-36.3 63.8-103.9 79.2-176.6 0-.1.1-.3.1-.4 18.7 17.8 38.7 28.7 59.5 32.5 5.6 1 11.1 1.5 16.7 1.5 15.3 0 30.7-3.8 46-11.2 25.7-12.5 49.7-34.9 67.7-63.1 16.6-26 24.9-52.3 22.1-70.3zm-782.4 95.8c19.9-36.7 27.6-43.9 29.6-45.3 1.6 1 7.2 5.9 18 29.7 4.2 9.3 7.8 18.4 9.9 24.1-6.2-.1-12.7-.1-19.6-.1-.3 0-.6 0-.9.1-18.7 3.4-35.9 9.7-51.3 18.9 4-7.8 9-17.5 14.3-27.4zm-143.2 339.8c-21.4 7.2-40.8-3.6-48.7-12.6-3.9-4.5-4.8-8.2-4-9.7 2.9-5.7 6.8-6.1 16.4-6.5 4.5-.2 9.6-.4 15.3-1.6 3.2-.7 11.6-2.5 55.6-44.7 15.4-14.7 29.9-29.4 36.8-36.4 2.7 4.1 5.6 7.9 8.9 11.5 15.4 17 35.8 26.5 56.2 31.8-28.7 25.3-106.1 57.9-136.5 68.2zm212.7-71.8c-2.9-.2-6.6-.2-10.8-.3-28.8-.4-82.5-1-113.7-35.4-.2-.2-.3-.3-.4-.5 8.7-4.8 18.3-8.7 21.6-8 2.9.6 5.8-1.2 6.5-4.2.6-2.9-1.2-5.8-4.2-6.5-8.3-1.8-22.6 5.4-30.6 10-3.6-5.3-6.6-11.2-9-17.5 19.2-4.2 37.7-5.7 40.9-3 2.3 1.9 5.7 1.6 7.7-.7 1.9-2.3 1.6-5.7-.7-7.7-3.2-2.6-10-5.7-32.9-2.4-7.3 1-14.1 2.4-18.3 3.4-2.1-7.8-3.4-16.3-3.9-25.4 18.5.7 45.6 3.9 52.9 10.8 1.1 1 2.4 1.5 3.7 1.5 1.4 0 2.9-.6 4-1.7 2.1-2.2 1.9-5.6-.2-7.7-11.7-11-47.3-13.3-60.6-13.8 0-5.1.3-10.3.7-15.7 1.1-10.6 7.7-37.3 24.5-63 21.8-33.4 52.8-53.9 92.1-61.1 93.1-.5 129.3 12.7 129.7 12.9 1.4.5 2.9.5 4.2-.1 13.7-6.1 52.3-22.1 67.1-22.1 1.1 0 1.8.1 2.2.2.8 1.7 2.9 10.4-5.8 46.5-2.3 9.6-4.9 19-7 26.4-.3-.6-.6-1.2-.8-1.8 3.6-8.5 6.7-21.7 8.4-31.8 4-24 1-28-.1-29.5-3.6-4.8-11.1-2.2-15.1-.8-4.3 1.5-9.9 3.9-16.7 7.1-11.4 5.5-22.2 11.4-22.7 11.7-1.9 1-3 3-2.8 5.2.2 2.1 1.5 4 3.5 4.7 27.8 10.4 40.8 50.3 41.8 53.3.8 3.9 14.4 72-23.7 119.5-8.7 10.9-19.5 19.9-32.2 27.1-5.2-1.8-25-12.2-42.3-21.8-2.6-1.5-5.9-.5-7.4 2.1s-.5 5.9 2.1 7.4c8.1 4.5 23.7 13.1 34.9 18.5-22.1 9.5-49.2 14.2-81.1 14.2-2 .1-3.7 0-5.5 0zm151.5-199.6c-6-9.5-14.2-19.3-24.7-26 12.6-6.6 25.5-12.5 31.3-14.1.3 7.6-2.6 26.6-6.6 40.1zm260.9 117.7c-4.8 7.8-9 14.6-11.9 19.8-.3.5-.5 1-.6 1.6-4.4 21.7-29 37.9-49.9 42.1-10.9 2.2-17.7.4-19.6-2.3-2-2.9-.3-9.2 4.6-16.8 38.6-60.2 39-107.4 39-109.5-.2-19.5-5.2-31.1-15.2-35.3-18.5-7.9-45.7 14.9-64.6 32.7l-1.1 1c-4.7 4.4-26.9 29.4-57.8 63.9-51.2 57.4-121.4 136.1-147.5 161.2-39.8 38.2-52.5 41.1-66.1 44.1l-.7.2c-8.7 1.9-35.1 2.2-48.9-8.5-5-3.9-7.5-8.7-7.6-14.7-.2-6 1-10.1 3.4-12.7 4.2-4.4 13.2-4.4 21.9-4.4 5.1 0 10.4 0 15.1-.9 5.5-1.1 15.5-6.4 38-40.4 10-15.2 18.6-30.2 21.2-34.7 32.5-7.9 57.9-23 75.7-45.3 17.5-21.9 27.5-51.2 28.9-84.6.9-21.4-1.9-37.9-2.9-42.8 1.6-5.2 7.5-24.6 12-44.2 10.3-44.3 5.6-52.9-1.1-55.5-1.8-.7-4-1.1-6.7-1.1-18.1 0-59.9 17.9-69.6 22.2-4.3-1.4-15.1-4.4-34.1-7.2 11.2-10.4 23.1-29.8 38.3-54.5 19.7-32 44.2-71.9 76-105.3 29.3-30.7 132.9-124.7 237.7-45.1 65.8 50 90.1 118.6 72 203.8-15.1 71-56 137.5-77.9 173.2zm206-158.3c-28 13.7-70.6 20.1-115-25.9 1.9-11.8 3.1-23.3 3.4-34.5 8.4 10 22.5 21.9 42.7 23.3 35.3 2.4 74.5-28.5 116.7-91.6 11.3-16 19.8-20.6 24-19.6 2.4.6 8.4 4.3 11.9 26.5 4.6 29.6-31 96.1-83.7 121.8zm-522.8 158.4c33.3-9 41.9-8.7 45.9-7.2 2.8 1 4.3 4.2 3.2 7-1 2.8-4.2 4.3-7 3.2-6-1.7-43 7.8-73.9 17.6-.5.2-1.1.3-1.6.3-2.3 0-4.4-1.5-5.2-3.8-.9-2.9.7-5.9 3.5-6.8.2-.1 17.1-5.4 35.1-10.3zm34.2 34c-.9 2.1-2.9 3.3-5 3.3-.7 0-1.4-.1-2.1-.4-4.2-1.6-33.6-3.2-59.5-3.9-3-.1-5.4-2.6-5.3-5.6s2.5-5.4 5.6-5.3c13 .3 56.1 1.6 63.5 4.7 2.7 1.3 3.9 4.5 2.8 7.2zm-238.3-76c-2.7-1.4-3.7-4.7-2.3-7.3 1.4-2.7 4.7-3.7 7.3-2.3 4.8 2.5 47 24.5 57.2 38.3 1.8 2.4 1.3 5.8-1.2 7.6-1 .7-2.1 1.1-3.2 1.1-1.7 0-3.3-.8-4.4-2.2-7.3-10.1-41-28.9-53.4-35.2zm116.3 41.8c-1.5-2.6-.6-5.9 2-7.4 17.6-10.2 78.6-29.9 81.2-30.7 2.9-.9 5.9.7 6.8 3.5.9 2.9-.7 5.9-3.5 6.8-.6.2-62.5 20.2-79.1 29.8-.9.5-1.8.7-2.7.7-1.9.1-3.7-.9-4.7-2.7zm-54-4.3c1.3-1.3 3.2-1.8 5-1.4 10.3 2.5 21.9 5.2 23.6 5.4 3 .3 5.2 2.8 5.1 5.8 0 1.2-.2 4.3-7 7.7-2.6 1.3-6.7 2.9-11.4 2.9-.8 0-1.6 0-2.3-.1-9.4-1.1-13.6-10.2-14.6-15.3-.3-1.9.3-3.7 1.6-5zm66.2 32.3c1.7 2.5 1 5.9-1.5 7.6-7.8 5.3-13.8 6.6-18.8 6.6-2.8 0-5.3-.4-7.5-.8l-.6-.1c-2.7-.5-5.3-2.1-8.6-4.3-7.5-4.8-17.8-11.5-32-6.2-10.4 3.8-17.7 3.7-22.2-.5-5.4-5-3.5-12.7-3.3-13.6.8-2.9 3.8-4.6 6.7-3.8s4.6 3.7 3.8 6.6c-.3 1.1-.2 2.6.1 2.8 0 0 2.3 1.5 11.1-1.7 19.3-7.1 33.8 2.3 41.7 7.3 1.6 1.1 3.9 2.5 4.7 2.7l.5.1c5.6 1 9.7 1.7 18.4-4.1 2.4-1.7 5.8-1.1 7.5 1.4z" fill="#89191a"/></g></svg>