<svg height="512" viewBox="0 0 313 313" width="512" xmlns="http://www.w3.org/2000/svg"><path d="m95.673 143.936.001-.002z" fill="#14437e"/><circle cx="156.5" cy="156.5" fill="#d0df92" r="134.02"/><g fill="#fbb807"><path d="M232.848 106.678v.001zM239.932 72.75l.001-.001zM268.088 108.518l.015-.005zM268.103 108.513v-.001h.001zM283.943 149.708l.029.019.002.002zM301.3 147.965v.001z"/></g><g fill="#fffcc8"><path d="M227.92 108.207h.1c1 .2 1.9 0 2.6-.5.6-.5 1-.9 1.2-1.4.1-.5.2-1 .1-1.5-.1-.6-.3-1.1-.6-1.6-.2-.5-.6-1-.9-1.5-.9-1.4-2.1-2.7-3.5-3.9s-2.7-2.3-4-3.3l1.6-1.2c2.2-1.5 4.4-3 6.6-4.4s4.4-2.8 6.6-4.4c.4-.2.9-.6 1.5-1 .7-.4 1.3-.9 2-1.5.7-.5 1.3-1.2 2-1.8.6-.7 1.2-1.3 1.6-2s.7-1.3.8-2c.1-.6 0-1.2-.4-1.8-.4-.7-1.1-1.1-1.9-1.2-.1-.1-.4-.1-.6 0-.7 0-1.6.2-2.6.5s-2.1.7-3.3 1.3-2.4 1.2-3.7 1.9-2.5 1.4-3.7 2.1-2.3 1.4-3.3 2.1c-1 .6-1.9 1.2-2.6 1.7-.4.3-1 .7-1.7 1.3-.8.6-1.5 1.2-2.4 1.9s-1.7 1.4-2.6 2.2-1.7 1.6-2.4 2.3c-.7.8-1.3 1.4-1.8 2s-.7 1.1-.7 1.4c-.1.7.1 1.3.4 2 .4.7.7 1.3 1.1 1.8s1 1.2 1.8 2.1 1.8 1.8 2.8 2.7 2.1 1.8 3.3 2.6 2.3 1.5 3.5 2.1c1.1.5 2.1.9 3.1 1zM256.72 147.661c.4-.5.9-1.1 1.3-1.7l1.2-1.8c.4-.6.7-1.2 1-1.8.8-1.6 1.7-3.3 2.5-4.9s1.6-3.3 2.4-5h.2c.4.1.9.2 1.3.2.2.1.4.1.6.1.7.1 1.4.1 2.1.1 1.6 0 3.1-.1 4.7-.3s3.1-.5 4.5-1 2.7-1.1 3.8-1.9c.7-.6 1.2-1.2 1.4-1.9s0-1.5-.6-2.3c-.5-.8-1.4-1.3-2.5-1.5h-.2c-.1-.1-.3-.1-.4-.1-.3-.1-.5-.1-.7-.1-.2-.1-.4-.1-.6-.1h-1.8c-1.2.1-2.5.2-3.8.4s-2.3.3-3.1.3c-1.3 0-2.7 0-4.1-.2-.3 0-.6-.1-.9-.1-.2 0-.5-.1-.8-.1-.2 0-.3-.1-.5-.1-.6-.1-1.1-.2-1.7-.4 1.8-1.1 3.6-2.4 5.4-3.6.6-.4 1.4-1 2.3-1.6s1.7-1.3 2.5-2.1 1.3-1.6 1.6-2.5.1-1.7-.5-2.6c-.4-.5-.9-1-1.4-1.2-.2-.2-.5-.2-.7-.3h-.2c-.1-.1-.2-.1-.3-.1-.1-.1-.3-.1-.1.1-.2-.1-.5 0-.7 0-.3 0-.7.1-1 .2-.6.2-1.2.5-1.7.8-2.3 1.5-4.6 2.9-6.9 4.4s-4.5 3-6.8 4.5c-1.7 1.1-3.5 2.2-5.3 3.2s-3.5 2.1-5.2 3.3l-.3.2c-.5.4-1 .8-1.5 1.3-.4.5-.8 1-1 1.6s-.3 1.2-.3 1.8.2 1.3.7 1.9c.5.7 1.1 1.2 1.8 1.4.2 0 .4.1.6.1h1c.3 0 .5-.1.8-.1.8-.1 1.5-.4 2.3-.7.7-.3 1.4-.7 2-1 .8-.5 1.7-1 2.6-1.5s1.7-1 2.5-1.6l3.3 1.4-2.4 4.2c-.8 1.4-1.5 2.8-2.3 4.2-.3.6-.7 1.3-1.1 2.1s-.8 1.6-1 2.5c-.3.8-.4 1.7-.4 2.5s.2 1.6.7 2.2c.1.2.3.3.4.5l.1.1.3.3.2.1c.1 0 .2.1.3.1l.2.1c.1.1.2.1.3.1h.1c.7 0 1.5-.2 2.3-.8.5-.3 1.1-.8 1.5-1.3zM237.22 120.461l.6-.3.1-.1c.2-.1.5-.2.7-.3l.1-.1.6-.3h.1c.2-.1.4-.3.6-.4l.1-.1c.2-.1.4-.3.6-.4.1-.1.3-.3.5-.4l.1-.1c.2-.2.3-.3.5-.4l.1-.1c.1-.1.3-.2.4-.3l.1-.1.3-.3.1-.1.2-.2.2-.1c2.2-1.5 4.4-3 6.6-4.4s4.4-2.9 6.6-4.4c.4-.2.9-.6 1.5-1 .7-.4 1.3-.9 2-1.5.7-.5 1.3-1.2 2-1.8.6-.7 1.2-1.3 1.6-2s.7-1.3.8-2c.1-.6 0-1.2-.4-1.8-.1-.2-.2-.4-.4-.5l-.2-.1c-.1 0-.3-.1-.4-.2l-.2-.1c-.1 0-.2-.1-.4-.1l-.2-.1h-.1c-.129-.064-.206-.086-.198-.094-.686.017-1.546.207-2.502.494-1 .3-2.1.7-3.3 1.3s-2.4 1.2-3.7 1.9-2.5 1.4-3.7 2.1-2.3 1.4-3.3 2.1c-1 .6-1.9 1.2-2.6 1.7-.4.3-1 .7-1.7 1.3-.8.6-1.6 1.2-2.4 1.9-.9.7-1.7 1.4-2.6 2.2s-1.7 1.6-2.4 2.3c-.3.3-.6.5-.8.8-.4.4-.7.7-1 1.1-.4.6-.7 1.1-.7 1.4-.1.7 0 1.3.4 2 .1.2.2.4.3.5l.1.1.2.3.1.1.2.2.1.1.2.2.2.1.2.1.2.1c.1 0 .2.1.3.1h.1c.1 0 .3.1.4.1H234.92c.2 0 .5-.1.7-.1s.5 0 .7-.1h.1c.2 0 .5-.1.7-.2zM300.32 148.161c-.1-.5-.3-1-.6-1.4s-.7-.9-1.3-1.5c-.6-.7-1.2-1.4-2-2.1-.8-.8-1.6-1.5-2.5-2.3-.8-.8-1.7-1.5-2.5-2.1s-1.6-1.1-2.3-1.5c-.2-.2-.5-.3-.7-.4h-.1c-.2-.1-.4-.2-.6-.2h-.1c-1.4 0-2.8.2-4.2 1.1-1.5.5-3 1.1-4.5 1.9-1.6.8-3 1.6-4.4 2.5s-2.7 1.7-3.7 2.4c-.2.2-.7.5-1.3 1s-1.3 1-2.1 1.6c-.7.6-1.6 1.2-2.4 1.9-.9.7-1.7 1.4-2.4 2-.8.6-1.4 1.2-1.9 1.7-.6.5-.9.8-1 1.1-.2.4-.4 1-.4 1.7s0 1.4.1 2.1.2 1.4.4 2.1.4 1.2.7 1.6c.4.6 1.3 1.3 2.5 2.2 1.3.9 2.6 1.7 4.1 2.6s2.9 1.6 4.3 2.2l.9.3.2.1c.2.1.4.1.6.2h.1c.2 0 .3.1.5.1h.7c.7-.1 1.4-.3 1.9-.7.4-.3.7-.7 1-1.1s.5-.8.6-1.3c.2-.4.2-.9.1-1.4s-.3-1-.6-1.4-.8-.9-1.5-1.5-1.5-1.3-2.3-1.9l-2.4-1.8c-.8-.5-1.4-.9-1.7-1.2.4-.3.7-.7 1.1-1 .3-.3.7-.6 1.1-.9.2-.2.5-.4.8-.5.4-.2.6-.3.9-.4 1 .7 2.1 1.5 3.1 2.2s2.1 1.3 3.2 1.9c.5.2.9.5 1.4.7s1 .4 1.5.5h1.4c.5-.1 1-.3 1.5-.6 1.9-1.4 2.2-3.1.8-5.1-.7-1-1.6-1.9-2.8-2.7-1.1-.9-2.2-1.5-3.3-2.1.7-.4 1.4-.8 2.2-1.1.7-.3 1.5-.7 2.2-1 .5.2 1.2.7 2.3 1.4s2.3 1.4 3.5 2.1c1.3.7 2.5 1.4 3.6 1.9.2.1.5.2.7.3l.2.1c.1.1.3.2.4.2l.2.1c.1 0 .2.1.3.1H296.42c.5-.1.9-.1 1.2-.2s.6-.2 1-.5.7-.7 1-1.1c.3-.5.5-.9.6-1.4.2-.5.2-1 .1-1.5z"/></g><g fill="#740806"><path d="M243.057 73.132c.112 0 .213.025.263.075.8.1 1.5.5 1.899 1.2.4.6.5 1.2.4 1.8-.1.7-.4 1.3-.8 2s-1 1.3-1.601 2c-.699.6-1.3 1.3-2 1.8-.699.6-1.3 1.1-2 1.5-.6.4-1.1.8-1.5 1-2.199 1.6-4.399 3-6.6 4.4s-4.4 2.9-6.6 4.4l-1.601 1.2c1.3 1 2.601 2.1 4 3.3 1.4 1.2 2.601 2.5 3.5 3.9.3.5.7 1 .9 1.5.3.5.5 1 .6 1.6.101.5 0 1-.1 1.5-.2.5-.601.9-1.2 1.4a3.138 3.138 0 0 1-1.847.577c-.243 0-.495-.025-.753-.077h-.101c-1-.1-2-.5-3.1-1-1.2-.6-2.3-1.3-3.5-2.1s-2.3-1.7-3.3-2.6-2-1.8-2.801-2.7c-.8-.9-1.399-1.6-1.8-2.1-.399-.5-.7-1.1-1.1-1.8-.3-.7-.5-1.3-.4-2 0-.3.2-.8.7-1.4s1.1-1.2 1.8-2c.7-.7 1.5-1.5 2.4-2.3.899-.8 1.7-1.5 2.6-2.2s1.601-1.3 2.4-1.9c.7-.6 1.3-1 1.7-1.3.699-.5 1.6-1.1 2.6-1.7 1-.7 2.1-1.4 3.3-2.1s2.4-1.4 3.7-2.1 2.5-1.3 3.7-1.9 2.3-1 3.3-1.3 1.9-.5 2.6-.5a.821.821 0 0 1 .342-.075m0-3c-.282 0-.563.031-.837.093-.826.057-1.783.255-2.963.608a23.322 23.322 0 0 0-3.779 1.49c-1.199.6-2.439 1.22-3.78 1.942-1.346.724-2.588 1.449-3.79 2.15a51.354 51.354 0 0 0-3.422 2.173 42.536 42.536 0 0 0-2.71 1.777l-.057.042c-.09.067-.19.14-.302.22-.379.273-.891.643-1.475 1.137-.454.343-.881.687-1.328 1.048-.325.262-.663.535-1.037.826-.996.774-1.87 1.542-2.751 2.326a56.906 56.906 0 0 0-2.528 2.421l-.137.146c-.302.345-.583.649-.846.934-.351.379-.682.738-1.001 1.121-.839 1.006-1.313 2.057-1.386 3.056-.156 1.361.21 2.46.633 3.446.045.105.096.208.152.307.083.145.162.286.237.422.323.58.657 1.179 1.125 1.764a61.465 61.465 0 0 0 1.9 2.219c.911 1.024 1.99 1.996 3.035 2.936 1.263 1.137 2.454 2.075 3.644 2.867 1.354.902 2.521 1.637 3.822 2.287l.101.048c1.159.527 2.523 1.102 4.042 1.254l.1.008c.353.055.705.083 1.053.083a6.143 6.143 0 0 0 3.591-1.135l.177-.137c.801-.667 1.605-1.444 2.064-2.59a3 3 0 0 0 .156-.526c.125-.622.312-1.557.11-2.624a7.396 7.396 0 0 0-.869-2.42c-.235-.516-.525-.951-.765-1.309-.084-.126-.17-.252-.246-.379l-.049-.079c-1.013-1.576-2.382-3.108-4.071-4.556-.332-.285-.671-.575-1.014-.866 1.62-1.1 3.262-2.201 4.872-3.226 2.15-1.368 4.37-2.781 6.591-4.386.363-.206.703-.447 1.033-.681.144-.102.296-.21.456-.318.841-.494 1.533-1.06 2.272-1.691.551-.409 1.012-.856 1.423-1.254.235-.228.457-.443.667-.623.116-.1.225-.208.325-.325.13-.151.26-.298.387-.441.506-.571 1.08-1.217 1.54-2.023.465-.813.976-1.785 1.16-3.03a5.405 5.405 0 0 0-.813-3.839c-.776-1.297-2.061-2.193-3.585-2.514a3.571 3.571 0 0 0-1.127-.179zM270.58 109.396l.14.065c.101 0 .2 0 .301.1h.199c.2.1.5.1.7.3.5.2 1 .7 1.4 1.2.6.9.8 1.7.5 2.6s-.8 1.7-1.601 2.5c-.8.8-1.6 1.5-2.5 2.1-.899.6-1.699 1.2-2.3 1.6-1.8 1.2-3.6 2.5-5.399 3.6.6.2 1.1.3 1.699.4.2 0 .301.1.5.1.301 0 .601.1.801.1.3 0 .6.1.899.1 1.4.2 2.8.2 4.101.2.8 0 1.8-.1 3.1-.3s2.6-.3 3.8-.4h1.8c.2 0 .4 0 .601.1.2 0 .399 0 .7.1.1 0 .3 0 .399.1h.2c1.1.2 2 .7 2.5 1.5.6.8.8 1.6.6 2.3-.199.7-.699 1.3-1.399 1.9-1.101.8-2.4 1.4-3.8 1.9s-2.9.8-4.5 1c-1.601.2-3.101.3-4.7.3-.7 0-1.4 0-2.101-.1-.199 0-.399 0-.6-.1-.4 0-.9-.1-1.3-.2h-.2c-.8 1.7-1.6 3.4-2.4 5s-1.699 3.3-2.5 4.9c-.3.6-.6 1.2-1 1.8l-1.199 1.8c-.4.6-.9 1.2-1.301 1.7-.399.5-1 1-1.5 1.3-.8.6-1.6.8-2.3.8h-.1c-.101 0-.2 0-.3-.1l-.2-.1c-.101 0-.2-.1-.3-.1l-.2-.1-.3-.3-.101-.1c-.1-.2-.3-.3-.399-.5-.5-.6-.7-1.4-.7-2.2s.1-1.7.399-2.5c.2-.9.601-1.7 1-2.5.4-.8.801-1.5 1.101-2.1.8-1.4 1.5-2.8 2.3-4.2l2.4-4.2-3.301-1.4c-.8.6-1.6 1.1-2.5 1.6-.899.5-1.8 1-2.6 1.5-.6.3-1.3.7-2 1-.8.3-1.5.6-2.3.7-.3 0-.5.1-.8.1H243.019c-.2 0-.4-.1-.601-.1-.7-.2-1.3-.7-1.8-1.4-.5-.6-.7-1.3-.7-1.9s.101-1.2.3-1.8c.2-.6.601-1.1 1-1.6.5-.5 1-.9 1.5-1.3l.301-.2c1.699-1.2 3.399-2.3 5.199-3.3 1.801-1 3.601-2.1 5.301-3.2 2.3-1.5 4.5-3 6.8-4.5s4.6-2.9 6.899-4.4c.5-.3 1.101-.6 1.7-.8.3-.1.7-.2 1-.2.134 0 .312-.044.475-.044l.226.044c-.117-.117-.096-.165-.039-.165m0-3c-.353 0-.697.063-1.022.181a6.876 6.876 0 0 0-1.586.339c-.94.313-1.768.757-2.295 1.074l-.096.06a252.36 252.36 0 0 1-3.411 2.175 270.707 270.707 0 0 0-3.488 2.225 407.772 407.772 0 0 0-3.426 2.267 359.602 359.602 0 0 1-3.375 2.233 89.386 89.386 0 0 1-5.117 3.09c-1.744.969-3.524 2.097-5.44 3.448l-.268.178-.21.153c-.53.424-1.13.904-1.747 1.521l-.222.248c-.479.598-1.134 1.417-1.503 2.525a8.693 8.693 0 0 0-.454 2.749 5.98 5.98 0 0 0 1.32 3.728c.921 1.257 2.049 2.083 3.355 2.457.156.044.314.076.476.095.222.053.553.121.949.121h1c.434 0 .778-.066.972-.105l.2-.018c1.049-.131 1.91-.46 2.671-.75l.311-.118.128-.051c.584-.25 1.127-.536 1.606-.788.192-.101.378-.198.554-.286l.248-.139c.438-.273.912-.549 1.412-.833-.274.498-.539.991-.797 1.472a84.577 84.577 0 0 1-1.109 2.028l-.079.146c-.127.255-.275.53-.433.825-.212.395-.439.82-.667 1.275-.428.856-.91 1.82-1.198 2.989-.345.997-.519 2.124-.519 3.353 0 1.506.427 2.856 1.238 3.923.158.238.318.419.436.541.092.126.194.246.305.357l.101.1.149.15.149.149c.229.229.492.418.78.563l.2.1c.129.064.261.119.396.164l.02.008a3.415 3.415 0 0 0 1.726.445h.1c1.412 0 2.783-.452 3.976-1.309a9.104 9.104 0 0 0 2.167-1.917l.195-.243c.378-.469.849-1.052 1.259-1.667l.866-1.3.334-.5c.503-.756.866-1.482 1.187-2.123.395-.789.814-1.603 1.233-2.417.431-.836.861-1.672 1.267-2.483.494-.987.989-2.016 1.479-3.048l.126.004c.832.102 1.614.102 2.312.102 1.696 0 3.309-.103 5.072-.323 2.007-.251 3.64-.617 5.137-1.152 1.844-.658 3.334-1.41 4.556-2.299l.188-.148c.781-.669 1.873-1.746 2.332-3.354.455-1.591.095-3.301-1.014-4.829-.938-1.423-2.507-2.397-4.435-2.747l-.063-.011a3.776 3.776 0 0 0-.564-.108 4.643 4.643 0 0 0-.679-.11c-.487-.119-.894-.119-1.131-.119h-1.8l-.249.01-.274.023c-1.138.094-2.428.201-3.732.402-.871.134-1.575.216-2.134.249.271-.19.557-.389.854-.587.986-.658 1.927-1.445 2.957-2.475 1.11-1.111 1.871-2.312 2.324-3.672.581-1.742.295-3.496-.85-5.213l-.153-.21c-.704-.88-1.423-1.507-2.185-1.906a4.037 4.037 0 0 0-1.179-.519 3.039 3.039 0 0 0-.539-.152l-.171-.047a3.12 3.12 0 0 0-1.009-.169zM261.822 96.267c-.008.008.069.03.198.094h.1l.2.1c.2 0 .3.1.399.1l.2.1c.101.1.3.2.4.2l.2.1c.199.1.3.3.399.5.4.6.5 1.2.4 1.8-.101.7-.4 1.3-.8 2s-1 1.3-1.601 2c-.7.6-1.3 1.3-2 1.8-.7.6-1.3 1.1-2 1.5-.6.4-1.1.8-1.5 1-2.2 1.5-4.399 3-6.6 4.4s-4.4 2.9-6.601 4.4l-.199.1-.2.2-.101.1-.3.3-.1.1c-.101.1-.3.2-.4.3l-.1.1c-.2.1-.3.2-.5.4l-.101.1c-.199.1-.399.3-.5.4-.199.1-.399.3-.6.4l-.1.1c-.2.1-.4.3-.601.4h-.1l-.601.3-.1.1c-.2.1-.5.2-.7.3l-.1.1-.601.3h-.1c-.2.1-.5.2-.7.2h-.1c-.2.1-.5.1-.7.1s-.5.1-.7.1H234.112c-.1 0-.3-.1-.4-.1h-.1c-.1 0-.2-.1-.3-.1l-.2-.1-.2-.1-.2-.1-.199-.2-.101-.1-.2-.2-.1-.1-.2-.3-.1-.1c-.101-.1-.2-.3-.3-.5-.4-.7-.5-1.3-.4-2 0-.3.3-.8.7-1.4.3-.4.6-.7 1-1.1.2-.3.5-.5.8-.8.7-.7 1.5-1.5 2.4-2.3.899-.8 1.699-1.5 2.6-2.2.8-.7 1.6-1.3 2.4-1.9.699-.6 1.3-1 1.699-1.3.7-.5 1.601-1.1 2.601-1.7 1-.7 2.1-1.4 3.3-2.1s2.4-1.4 3.7-2.1 2.5-1.3 3.7-1.9c1.199-.6 2.3-1 3.3-1.3.964-.287 1.823-.477 2.51-.494m0-3-.073.001c-.91.022-1.956.219-3.291.62a23.322 23.322 0 0 0-3.779 1.49c-1.2.6-2.44 1.22-3.781 1.942-1.345.724-2.587 1.449-3.789 2.15a51.097 51.097 0 0 0-3.422 2.173 42.242 42.242 0 0 0-2.71 1.777l-.057.041c-.089.067-.19.14-.302.22-.378.272-.89.642-1.473 1.136-.787.59-1.599 1.202-2.435 1.929-.967.756-1.821 1.507-2.684 2.273-.966.859-1.796 1.689-2.528 2.421l-.174.158c-.206.182-.496.438-.779.795-.382.383-.748.765-1.126 1.268l-.096.136c-.583.875-1.111 1.748-1.193 2.785-.157 1.3.085 2.508.739 3.687.155.31.363.705.706 1.084l.048.072c.109.164.235.317.375.457l.1.1.2.2.101.101.199.199c.228.228.491.418.779.563l.2.1.2.101.2.1c.128.064.261.119.396.164.204.085.496.184.854.229.228.063.531.125.891.125H234.918c.377 0 .689-.059.904-.102a4.756 4.756 0 0 0 1.036-.125 4.744 4.744 0 0 0 1.052-.254c.225-.053.442-.132.65-.236l.599-.299c.113-.057.223-.12.327-.19.171-.069.336-.141.474-.21.134-.067.263-.144.385-.23a3.04 3.04 0 0 0 .415-.17c.342-.171.603-.367.759-.483l.012-.009c.151-.088.296-.19.43-.304.104-.072.191-.137.258-.187l.012-.009c.22-.127.422-.283.603-.462.183-.117.353-.253.507-.407l.093-.093c.159-.102.308-.218.445-.347.159-.11.36-.259.563-.461l.1-.1.2-.2.093-.092.076-.05c2.146-1.463 4.361-2.974 6.521-4.348 2.194-1.396 4.405-2.901 6.546-4.361.38-.211.733-.462 1.077-.706.145-.102.296-.21.457-.318.841-.494 1.533-1.06 2.271-1.691.551-.409 1.013-.856 1.424-1.254.235-.228.457-.443.666-.623.117-.1.226-.209.326-.326.13-.151.26-.298.387-.441.506-.571 1.08-1.217 1.54-2.022.465-.814.976-1.786 1.16-3.031a5.397 5.397 0 0 0-.757-3.747c-.228-.437-.694-1.207-1.666-1.693l-.201-.1-.203-.092-.196-.108-.2-.1a3.094 3.094 0 0 0-.529-.205 3.374 3.374 0 0 0-.266-.084 2.966 2.966 0 0 0-.396-.132 2.911 2.911 0 0 0-1.05-.195zm0 6h.005z"/><path d="M287.719 136.661c.2 0 .4.1.601.2h.1c.2.1.5.2.7.4.7.4 1.5.9 2.3 1.5s1.7 1.3 2.5 2.1c.9.8 1.7 1.5 2.5 2.3.8.7 1.4 1.4 2 2.1.601.6 1 1.1 1.3 1.5.301.4.5.9.601 1.4.1.5.1 1-.101 1.5-.1.5-.3.9-.6 1.4-.3.4-.6.8-1 1.1s-.7.4-1 .5-.7.1-1.2.2h-.599c-.101 0-.2-.1-.3-.1l-.2-.1c-.101 0-.3-.1-.4-.2l-.2-.1c-.199-.1-.5-.2-.699-.3-1.101-.5-2.301-1.2-3.601-1.9-1.2-.7-2.399-1.4-3.5-2.1-1.1-.7-1.8-1.2-2.3-1.4-.7.3-1.5.7-2.2 1-.8.3-1.5.7-2.2 1.1 1.101.6 2.2 1.2 3.301 2.1 1.199.8 2.1 1.7 2.8 2.7 1.399 2 1.1 3.7-.8 5.1-.5.301-1 .5-1.5.601h-1.4c-.5-.101-1-.3-1.5-.5s-.9-.5-1.4-.7c-1.1-.6-2.199-1.2-3.199-1.9s-2.101-1.5-3.101-2.2c-.3.1-.5.2-.899.4-.301.1-.601.3-.801.5-.399.3-.8.6-1.1.9-.4.3-.7.7-1.1 1 .3.3.899.7 1.699 1.2.801.6 1.601 1.199 2.4 1.8.8.6 1.6 1.3 2.3 1.899.7.601 1.2 1.101 1.5 1.5.3.4.5.9.601 1.4.1.5.1 1-.101 1.4-.1.5-.3.899-.6 1.3-.3.399-.601.8-1 1.1-.5.4-1.2.601-1.9.7h-.701c-.199 0-.3-.1-.5-.1h-.1c-.2-.101-.4-.101-.6-.2l-.2-.101c-.3-.1-.601-.199-.9-.3-1.399-.6-2.8-1.3-4.3-2.2-1.5-.899-2.8-1.699-4.1-2.6-1.2-.9-2.101-1.6-2.5-2.2-.301-.399-.5-.899-.7-1.6s-.3-1.4-.4-2.1-.1-1.4-.1-2.1.2-1.3.399-1.7c.101-.3.4-.6 1-1.1.5-.5 1.101-1.1 1.9-1.7.7-.6 1.5-1.3 2.4-2 .8-.7 1.699-1.3 2.399-1.9.8-.6 1.5-1.1 2.101-1.6.6-.5 1.1-.8 1.3-1 1-.7 2.3-1.5 3.7-2.4 1.399-.9 2.8-1.7 4.399-2.5 1.5-.8 3-1.4 4.5-1.9 1.4-.9 2.8-1.1 4.2-1.1h.101m0-2.999h-.1c-1.371 0-3.399.146-5.479 1.366-1.694.581-3.201 1.226-4.598 1.968a48.5 48.5 0 0 0-4.646 2.643c-.396.255-.785.501-1.16.74-.961.611-1.869 1.188-2.638 1.726a3.077 3.077 0 0 0-.309.248l-.196.143c-.254.183-.602.434-.995.762-.38.316-.837.655-1.366 1.048l-.613.457-.152.122c-.255.219-.583.466-.93.729-.44.334-.938.71-1.426 1.132a57.713 57.713 0 0 0-2.147 1.783l-.229.196c-.873.665-1.541 1.32-2.044 1.822-.706.595-1.36 1.219-1.729 2.127a6.82 6.82 0 0 0-.643 2.888c0 .756 0 1.613.13 2.524.107.751.229 1.603.485 2.5.222.775.529 1.676 1.136 2.51.669.971 1.687 1.77 3.148 2.866l.093.066c1.326.918 2.664 1.746 4.264 2.706a38.48 38.48 0 0 0 4.662 2.385l.233.089.449.149.248.083.009.004c.353.177.659.263.851.312.254.1.521.163.792.19.246.064.543.115.899.115h.701c.142 0 .284-.01.424-.03 1.366-.194 2.45-.62 3.313-1.298.723-.551 1.207-1.197 1.563-1.672a6.174 6.174 0 0 0 1.063-2.165c.333-.873.394-1.854.18-2.923a6.532 6.532 0 0 0-1.029-2.456l.073.029c.589.235 1.255.502 2.025.656.194.039.392.059.589.059h1.4c.197 0 .395-.02.588-.059a7.712 7.712 0 0 0 2.455-.969l.236-.157c2.832-2.087 3.617-5.063 2.207-7.998l.518.284c.94.518 1.83 1.006 2.72 1.413.152.073.331.148.512.22l.103.041c.243.163.551.331.914.452.099.045.2.085.303.119.273.114.708.252 1.245.252h.599c.198 0 .395-.019.589-.058.138-.027.264-.041.378-.055.325-.04.729-.09 1.183-.241.396-.132 1.062-.354 1.852-.946.742-.557 1.237-1.217 1.599-1.7l.173-.256c.354-.589.705-1.25.913-2.099.31-.917.362-1.902.156-2.933a6.48 6.48 0 0 0-1.142-2.612 16.582 16.582 0 0 0-1.494-1.736c-.594-.692-1.266-1.467-2.153-2.254-.758-.753-1.503-1.415-2.29-2.113l-.207-.184c-.908-.898-1.9-1.672-2.756-2.313a24.991 24.991 0 0 0-2.375-1.568 4.956 4.956 0 0 0-1.044-.598l-.058-.026a2.831 2.831 0 0 0-.557-.211 3.942 3.942 0 0 0-1.468-.294z"/></g><g><path d="M131.334 241.125c-1.275 3.974-1.287 8.106-.417 11.923.651 2.872 1.782 5.596 3.259 8.134 2.22 3.808 5.218 7.217 8.768 10.106a41.302 41.302 0 0 0 12.189 6.856c4.512 1.602 9.442 2.439 14.541 2.174a35.312 35.312 0 0 0 11.542-2.583c5.729-2.332 11.199-6.312 15.961-11.981 4.773-5.674 8.874-13.012 12.146-22.23 2.481-6.993 4.489-15.077 5.938-24.406.644-4.146 1.556-7.735 2.646-10.807 1.47-4.143 3.258-7.338 5.144-9.752 2.842-3.619 5.843-5.509 8.718-6.398 2.88-.875 5.727-.751 8.352.175a13.9 13.9 0 0 1 6.099 4.315c1.646 2.02 2.834 4.56 3.276 7.663a7 7 0 0 0 13.863-1.955c-.785-5.592-3.042-10.595-6.303-14.573a27.908 27.908 0 0 0-12.253-8.645 27.206 27.206 0 0 0-11.299-1.484c-5.84.46-11.75 2.89-16.767 7.279-5.032 4.386-9.168 10.639-12.024 18.693-1.415 3.987-2.523 8.425-3.287 13.34-1.335 8.601-3.158 15.846-5.297 21.872-2.508 7.069-5.447 12.453-8.51 16.459-2.299 3.006-4.663 5.242-7.01 6.895-3.527 2.47-7.02 3.671-10.504 4.051-3.479.372-6.981-.12-10.291-1.294a27.322 27.322 0 0 1-7.247-3.906c-3.245-2.431-5.736-5.491-7.044-8.346-.662-1.427-1.037-2.788-1.162-4.005-.124-1.223-.015-2.292.307-3.305a7 7 0 0 0-13.334-4.265z" fill="#fbb807"/><path d="M263.361 202.359c-.785-5.592-3.042-10.595-6.303-14.573a27.908 27.908 0 0 0-12.253-8.645 27.206 27.206 0 0 0-11.299-1.484c-5.84.46-11.75 2.89-16.767 7.278l-.083.079c3.502 3.076 6.655 6.545 9.454 10.337 1.889-1.61 3.801-2.614 5.662-3.19 2.88-.875 5.727-.751 8.352.175a13.9 13.9 0 0 1 6.099 4.315c1.646 2.019 2.834 4.56 3.276 7.663a7 7 0 0 0 13.862-1.955z" fill="#fffcc8"/><path d="M235.692 177.569c3.141 0 6.222.546 9.113 1.572a27.9 27.9 0 0 1 12.253 8.645c3.261 3.979 5.518 8.981 6.303 14.573a7 7 0 0 1-13.863 1.955c-.442-3.104-1.629-5.644-3.276-7.663a13.892 13.892 0 0 0-6.099-4.315 13.278 13.278 0 0 0-4.428-.768c-1.289 0-2.603.191-3.924.593-2.875.89-5.876 2.779-8.718 6.398-1.886 2.414-3.674 5.609-5.144 9.752-1.09 3.071-2.002 6.66-2.646 10.807-1.45 9.329-3.458 17.413-5.938 24.406-3.272 9.219-7.374 16.557-12.146 22.23-4.763 5.67-10.233 9.649-15.961 11.981a35.312 35.312 0 0 1-13.41 2.632c-4.433 0-8.714-.817-12.672-2.223a41.299 41.299 0 0 1-12.189-6.856c-3.55-2.89-6.547-6.299-8.768-10.106-1.477-2.538-2.608-5.262-3.259-8.134-.871-3.816-.858-7.949.417-11.923a7 7 0 1 1 13.335 4.265c-.321 1.013-.43 2.082-.307 3.305.125 1.217.5 2.578 1.162 4.005 1.309 2.854 3.799 5.915 7.044 8.346a27.322 27.322 0 0 0 7.247 3.906c2.581.915 5.278 1.416 7.991 1.416.766 0 1.533-.04 2.299-.122 3.485-.38 6.977-1.581 10.504-4.051 2.348-1.652 4.711-3.889 7.01-6.895 3.063-4.006 6.002-9.39 8.51-16.459 2.139-6.026 3.962-13.271 5.297-21.872.764-4.915 1.872-9.353 3.287-13.34 2.855-8.055 6.992-14.308 12.024-18.693 5.017-4.39 10.927-6.819 16.767-7.279a27.087 27.087 0 0 1 2.185-.088m0-3c-.807 0-1.624.033-2.428.098-6.715.529-13.115 3.299-18.5 8.012-5.571 4.855-9.905 11.569-12.876 19.948-1.495 4.214-2.647 8.885-3.423 13.883-1.243 8.008-2.979 15.184-5.16 21.329-2.236 6.304-4.95 11.565-8.066 15.639-1.97 2.576-4.108 4.684-6.354 6.264-2.877 2.015-5.857 3.169-9.104 3.522-.644.069-1.311.104-1.974.104-2.311 0-4.662-.418-6.988-1.243a24.407 24.407 0 0 1-6.445-3.476c-2.733-2.047-4.963-4.67-6.123-7.199-.498-1.073-.809-2.128-.904-3.061-.079-.785-.021-1.451.182-2.092.812-2.538.586-5.247-.638-7.621s-3.299-4.13-5.843-4.943a9.999 9.999 0 0 0-3.047-.477 9.966 9.966 0 0 0-9.523 6.956c-1.363 4.246-1.531 8.917-.484 13.504.691 3.047 1.899 6.067 3.591 8.975 2.372 4.066 5.556 7.741 9.467 10.925a44.148 44.148 0 0 0 13.078 7.356c4.479 1.59 9.08 2.396 13.677 2.396a38.288 38.288 0 0 0 14.545-2.855c6.399-2.605 12.162-6.922 17.124-12.829 5.116-6.082 9.381-13.873 12.676-23.157 2.597-7.318 4.641-15.712 6.076-24.949.584-3.767 1.429-7.22 2.509-10.264 1.258-3.545 2.833-6.542 4.681-8.907 2.19-2.789 4.56-4.551 7.241-5.38a10.47 10.47 0 0 1 3.038-.459 10.3 10.3 0 0 1 3.431.597 10.89 10.89 0 0 1 4.774 3.386c1.403 1.721 2.288 3.804 2.627 6.187.691 4.901 4.944 8.601 9.893 8.601.467 0 .94-.033 1.405-.099 5.459-.771 9.275-5.839 8.505-11.299-.838-5.977-3.243-11.529-6.954-16.057a30.9 30.9 0 0 0-13.569-9.569 30.132 30.132 0 0 0-10.117-1.746z" fill="#740806"/><g><g fill="#fbb807"><path d="M176.965 137.056h.005zM17.805 149.64l-.001-.001zM235.831 171.804c-2.589-5.205-6.818-10.416-13.318-15.252-9.123-6.789-19.95-11.616-28.76-14.776a139.456 139.456 0 0 0-11.239-3.515 79.518 79.518 0 0 0-3.621-.876 30.84 30.84 0 0 0-1.171-.23 6.953 6.953 0 0 0-.755-.099 11.436 11.436 0 0 0-.619-.016c-1.997.002-4.289.485-6.564 1.447-2.265.961-4.164 5.212-6.597 6.315-6.69-3.188-15.995-5.217-25.818-5.216-1.676 0-3.404.056-5.183.169-.149.001-1.123.022-2.778.289l-68.647-9.638c.389-2.399 1.004-5.916 1.005-9.521-.001-2.007-.19-4.051-.736-5.969-.493-1.733-1.309-3.358-2.529-4.728.984-4.733 3.548-10.49 5.916-15.074a128.78 128.78 0 0 1 4.267-7.612l.281-.458.097-.155.218-.346-.087-.4c-.017-.064-.623-2.881-2.419-5.778-.9-1.447-2.105-2.919-3.715-4.047-1.607-1.128-3.635-1.891-6.053-1.887-2.571 0-5.549.844-8.995 2.86-1.931 1.132-3.359 2.915-4.434 4.959-1.611 3.072-2.461 6.776-2.933 10.145a60.53 60.53 0 0 0-.549 8.091l.001.139a38.628 38.628 0 0 0-6.74-.608c-2.21 0-4.67.208-7.1.842-2.428.634-4.832 1.7-6.884 3.432-3.283 2.771-5.563 6.146-7.01 9.804-1.448 3.659-2.069 7.6-2.069 11.542.009 9.012 3.22 18.044 7.513 24.004 8.377 11.625 20.005 19.898 32.479 25.453 12.076 5.377 24.947 8.209 36.516 9.074-1.335 6.257-2.122 13.39-2.122 21.513 0 1.95.045 3.956.138 6.021h.005c.004.112.039.262.098.434.012.99.098 1.844.096 2.72v.033l.002.032c.303 4.655 1.211 8.914 2.525 12.679a5586.894 5586.894 0 0 1 4.712 27.387 12223.827 12223.827 0 0 1 2.292 13.55c-5.276.376-9.55 1.341-12.988 2.734-5.52 2.23-8.908 5.574-10.853 9.129-1.95 3.555-2.477 7.279-2.478 10.327 0 1.894.204 3.534.408 4.729.102.597.204 1.083.28 1.427l.089.4.011.053v.92h57.9V254.57c2.844.315 5.73.479 8.627.479 7.938 0 15.931-1.172 23.256-3.4l23.602 46.705h49.219l.172-.786c.011-.052.39-1.794.391-4.421-.001-3.852-.817-9.659-4.936-14.714-2.057-2.523-4.935-4.835-8.88-6.586-3.79-1.684-8.574-2.847-14.568-3.239l-9.881-37.213c.535.298 1.077.586 1.643.849v.001l.033.016.002.001c3.559 1.807 7.422 3.024 11.151 3.027 1.76 0 3.492-.275 5.125-.901l.002-.001c10.721-4.125 15.887-10.453 18.324-15.778a25.766 25.766 0 0 0 2.048-6.812c.136-.873.203-1.586.247-2.07l.025-.271.048-.054c.137-.173.313-.427.558-.812.845-1.332 2.394-4.102 3.745-7.863 1.349-3.759 2.496-8.507 2.497-13.768.003-4.763-.944-9.951-3.535-15.155z"/></g><path d="M90.316 171.954h-.3c2.7-5.7 6.1-11 10.1-15.4-1.3-.2-13.5 4.3-17.7 15.3-3.4-.6-30.7-5.5-44.9-16.8-9.5-7.5-17.5-17.4-18-30.2-.4-8.9 3.4-17.2 9.3-23.4-3 .5-6.1 1.6-8.7 3.7-13.5 11.4-9.2 33.2-1.4 44 15.8 21.9 43.4 31.9 66.4 34 1.4-3.9 3.4-7.6 5.2-11.2zM157.716 241.654c-8.2 3.8-17.2 6-26 6-10.5 0-20.3-2.8-29.1-7.7 0 0 3.9 5.7 2.8 4.8 1.6 6.1 9.7 14.2 9.7 14.2s-6.3 30.8-11.2 38.3h22.2v-43.8c11.1 1.4 23 .3 33.4-3l23.7 46.9h3.6c-11.2-17.8-21.6-36.2-29.1-55.7z" fill="#f28a1c"/><path d="M159.816 168.354c.2-23.5-12.2-27.8-25.8-27.8-16.5 0-33.4 27.3-32.2 66.1.7 21.7 12.1 34.5 31.1 34s28-13.5 27.3-29.2z" fill="#fffcc8"/><path d="M235.831 171.804c-2.589-5.205-6.818-10.416-13.318-15.252-9.123-6.789-19.95-11.616-28.76-14.776a139.456 139.456 0 0 0-11.239-3.515 79.518 79.518 0 0 0-3.621-.876 30.84 30.84 0 0 0-1.171-.23 6.953 6.953 0 0 0-.755-.099 11.436 11.436 0 0 0-.619-.016c-1.997.002-4.289.485-6.564 1.447-.32.136-.638.298-.955.457a20.688 20.688 0 0 1-3.74 4.46c.744.256 1.482.531 2.193.863.523.243 28.222 5.288 47.049 19.723 23.856 18.289 11.35 40.456 11.35 40.456s0 28.04-22.812 19.96c-19.706-6.979-19.069-16.405-18.53-18.844.843-1.003 1.476-1.607 1.476-1.607-.2-6.7 1.5-10.7 3.6-13-.2-1.6-.5-3.3-.8-5-5.4-1.4-12.3-4.1-18.1-9.1-.1 1.1-.1 2.1-.2 3.2l5.8 23.1c-14.7 16.5 6.4 31.3 6.4 31.3l10.9 35.5-6.1 4.3c42.4-2.9 43.7 23.1 43.7 23.1s5.7-26-27.8-27.8l-10.329-38.902c.372.299.734.61 1.083.936l-.051-.193c.535.298 1.077.586 1.643.849v.001l.033.016.002.001c3.559 1.807 7.422 3.024 11.151 3.027 1.76 0 3.492-.275 5.125-.901l.002-.001c10.721-4.125 15.887-10.453 18.324-15.778a25.766 25.766 0 0 0 2.048-6.812c.136-.873.203-1.586.247-2.07l.025-.271.048-.054c.137-.173.313-.427.558-.812.845-1.332 2.394-4.102 3.745-7.863 1.349-3.759 2.496-8.507 2.497-13.768.003-4.764-.944-9.952-3.535-15.156z" fill="#f28a1c"/><path d="M223.716 154.954c-18.9-14.1-44.7-19.8-46.6-19.9h-.6c-4.1 0-8.5 2.7-12 7.1 0 0-.4.6-.9 1.3-7.5-3.8-16.3-5.7-26.4-5.7-1.7 0-3.4.1-5.2.2-.5 0-3.3.1-7.3 1.1l-63.4-8.9c.4-2.4.9-5.7.9-9.1 0-2-.2-4.1-.8-6.1-.5-1.7-1.3-3.3-2.5-4.7 1-4.6 3.5-10.2 5.8-14.7 1.2-2.4 2.4-4.4 3.2-5.9.4-.7.8-1.3 1-1.7.1-.2.2-.4.3-.5s.1-.2.1-.2l.3-.5-.1-.6c0-.1-.6-3-2.5-5.9-.9-1.5-2.2-3-3.8-4.2-1.7-1.2-3.8-2-6.3-2-2.7 0-5.7.9-9.2 2.9-2.1 1.2-3.6 3.1-4.7 5.3-1.7 3.2-2.5 7.1-3 10.5-.4 3-.5 5.7-.5 7.4-1.5-.2-3.7-.5-6.3-.5-2.2 0-4.7.2-7.2.9-2.5.6-4.9 1.7-7.1 3.5-3.4 2.8-5.7 6.3-7.2 10s-2.1 7.7-2.1 11.7c0 9.1 3.3 18.2 7.6 24.3 9.2 12.8 22.3 21.6 36.2 27.1 10.4 4.2 21.1 6.5 31.1 7.5-1.5 7.4-2.2 15.6-2 24.5l.1 3.3c0 .9.1 1.8.1 2.7.3 4.7 1.2 9.1 2.6 13.1 2.3 13.3 5.4 31.3 6.6 38.5-10.1 1.1-17.4 4.5-21.7 10.3-4.1 5.4-5.3 12.8-3.5 20.7l.2 2.6h61.7v-43.5c2.2.2 4.4.3 6.6.3 7.5 0 15.1-1 22.3-3l22.5 44.6.8 1.6h52.1l.5-2.4c.1-.5 2.4-11.3-4.5-20.3-4.9-6.4-12.9-10.1-23.9-11l-8.4-31.6c3.2 1.4 6.6 2.2 9.7 2.2 2.1 0 4.1-.4 5.9-1.1 9.2-3.5 20.4-10.9 21.9-26.1.7-.9 1.6-2.5 2.7-5 1.4-3 3.1-7.7 3.8-13.4 1.7-9.9-.3-24.4-16.9-36.7zm8 53.9c-.4.2.8 16.5-20.1 24.6-1.5.6-3.2.9-4.8.9-3.5 0-7.3-1.2-10.8-3-1.2-.6-2.3-1.3-3.4-2-6.9-4.4-12.2-10.7-12.5-13.8-.5-5.7 5.7-11.6 5.7-11.6-.4-16.1 9.4-16.2 12-16.4 0 0-19.9-.8-31.7-15-.6 3.8 3.2 7.5 6.2 9.6 5.1 3.4 10.5 5.5 15 6.7-3.5 3.6-4.5 9-4.5 13.9-2 2.1-6.1 7.4-5.6 13 .4 4.9 7.7 12.8 16.4 17.6l9.6 36.2c33.5 1.8 27.8 27.8 27.8 27.8h-47.8l-23.7-46.9c-7.5 2.4-15.7 3.6-23.8 3.6-3.2 0-6.4-.2-9.6-.6-19-3-24-14.7-24-14.7 4.2 12.1 15.1 16.2 24 17.5v40.9h-55.9c0-.6-7.8-26 25.7-27.8 0 0-4.3-25-7.2-42.1-1.4-3.7-2.3-7.9-2.5-12.5-.1-1-.1-1.9-.1-2.9 0-.2 0-.3-.1-.3-.4-10.4.3-19.3 1.9-26.9.2-1 .4-2 .7-3 3-12.2 8.1-20.7 13.9-26.8-6.6 2.4-11.7 10.7-14.4 18.1-1 2.7-1.8 5.5-2.5 8.4-9.8-.9-20.4-3.2-30.6-7.3-13.5-5.4-26.1-13.9-34.9-26.1-4-5.5-7.1-14.2-7-22.6 0-3.7.6-7.3 1.9-10.6s3.4-6.3 6.3-8.8c1.7-1.4 3.7-2.4 5.9-2.9 2.1-.6 4.4-.8 6.4-.8 2.1 0 4 .2 5.3.4h.2c.1 0 1.7.4 3.5 1.4.9.5 1.8 1.1 2.5 2 .8.8 1.4 1.8 1.8 3 .2.6.4 1.7.6 3 .1 1.2.2 2.7.2 4.3-.4-.3-1-.6-1.6-.9-2.3-1.2-5.7-2.4-10.4-2.4-2.7 0-5.9.4-9.4 1.4-.8.2-1.3 1.1-1 1.9 0 0 8-.3 10.4-.3 4.1 0 7.1 1 9 2 .9.5 1.6 1 2.1 1.3.2.2.4.3.5.4l.1.1s.1.1.2.1c-.3 2.9-.9 5.9-2 8.2-.8 1.7-1.8 3-3 4-1.2.9-2.7 1.5-4.6 1.5-1.6 0-3.6-.4-5.9-1.4-.7-.3-1.5 0-1.9.6-.4.7-.2 1.5.4 1.9s.9.7 1.6 1.6c.4.5.7 1 1 1.6s.4 1.1.4 1.7c0 .7-.2 1.4-.8 2.3 0 0 5.1-.1 3.1-5.3 0-.1-.1-.2-.1-.2.8.1 1.5.2 2.2.2 2.5 0 4.7-.8 6.4-2.1 2.6-2 4.1-5 5-8.2s1.2-6.7 1.2-9.9c0-1.8-.1-3.4-.3-4.8s-.4-2.6-.7-3.5c-.5-1.7-1.5-3.1-2.5-4.3-1.4-1.5-3-2.4-4.3-3v-.4c0-2 .1-6.6 1.1-11 .5-2.2 1.2-4.4 2.1-6.2s2.1-3.2 3.5-4c3.2-1.8 5.7-2.5 7.7-2.5 1.9 0 3.4.6 4.6 1.4 1.9 1.3 3.2 3.4 4 5.1.4.9.7 1.7.9 2.3 0 .1.1.2.1.3-.7 1.2-2.5 4.1-4.4 7.9-2.5 4.8-5.2 10.9-6.2 16.2l-.1.8.6.6c1.1 1.1 1.8 2.5 2.3 4.1s.6 3.4.6 5.3c0 3.8-.8 7.7-1.2 10.2l-.2 1.5s-1 5.6-2.2 9.1c2.4-.8 4.1-5.5 5-8.7l57.4 8h-.1c1.8.4 3.5.9 5.2 1.4.6-.2 1.2-.3 1.8-.5 1.8-.5 3.4-.7 4.6-.9h.1c.6-.1 1.1-.1 1.5-.2.7-.1 1.1-.1 1.1-.1 1.7-.1 3.4-.2 5-.2 10.1 0 18.3 2 24.9 5.3-.1.2-.1.3 0 .3.6.2 5.4-3.1 5.4-3.1 2.7-3.1 6-5.1 9-5.1h.4c1.9.1 26.9 5.9 45 19.3 29.3 22.4 9.8 51.6 9.4 51.8z" fill="#740806"/></g><g><path d="M192.568 65.887c24.846-25.983 5.293-51.276 5.293-51.276l-33.787 19.965c-21.976-8.56-40.332-5.247-53.284.295l-34.286-20.26s-19.622 25.384 5.429 51.417c-7.071 15.944-16.043 37.661-14.496 41.969 1.179 3.286 3.554 3.842 5.958 2.316-.55 3.764-.28 7.405 1.762 9.906 1.984 2.43 4.141 2.458 5.833.816 11.709 16.633 53.426 30.091 53.426 30.091s46.39-10.005 59.555-29.413c1.527.892 3.306.536 4.962-1.493 2.042-2.501 2.313-6.142 1.762-9.906 2.404 1.526 4.779.969 5.958-2.316 1.11-3.094-7.23-25.038-14.085-42.111z" fill="#fbb807"/><path d="M76.736 24.873c-1.7 5.119-7.433 22.878 8.579 37.213 0 0 3.494-8.466 7.776-14.431z" fill="#fffcc8"/><path d="M126.395 50.344s-10.426-9.891-9.327-18.149l8.257-2.257c-1.068 5.97 1.07 20.406 1.07 20.406zM137.356 50.611l17.494-15.249c4.128 1.673 7.368 2.952 7.368 2.952s17.393 12.491 23.22 49.489c9.362 2.577 14.688 6.737 17.673 10.622a231.524 231.524 0 0 0-2.449-7.219c-2.73-7.676-6.271-16.754-9.486-24.76l-.36-.897.668-.699c4.708-4.925 7.745-9.78 9.615-14.408 1.868-4.629 2.572-9.036 2.573-13.083.001-6.268-1.702-11.679-3.439-15.554a38.128 38.128 0 0 0-2.81-5.192l-33.214 19.626-.68-.265c-6.505-2.533-12.661-3.983-18.449-4.655a.163.163 0 0 1 .013.006c-5.796 5.969-7.737 19.286-7.737 19.286z" fill="#f28a1c"/><path d="M185.437 87.803c-9.208-2.535-22.314-3.537-40.933-1.231 0 0-.822-24.198-11.396-24.198s-11.881 24.238-11.881 24.238c-40.277-4.634-56.291 14.42-53.791 21.386 1.179 3.286 3.554 3.842 5.958 2.316-.55 3.764-.28 7.405 1.762 9.906 1.984 2.43 4.141 2.458 5.833.816 22.237 27.417 53.426 30.091 53.426 30.091s43.663-5.346 59.555-29.413c1.527.892 3.306.536 4.962-1.493 2.042-2.501 2.313-6.142 1.762-9.906 2.404 1.526 4.779.969 5.958-2.316.016-.045.029-.108.041-.182.31-2.017-1.448-14.562-21.256-20.014z" fill="#fffcc8"/><path d="M188.169 88.635s5.949 4.392 6.662 9.025c1.003 6.517-6.416 3.564-6.416 3.564 8.554 15.505-2.851 15.327-2.851 15.327-17.822 26.02-50.792 29.941-50.792 29.941s-24.951-2.495-52.688-24.162c22.152 26.19 52.332 28.795 52.332 28.795s43.663-5.346 59.555-29.413c1.527.892 3.306.536 4.962-1.493 2.042-2.501 2.313-6.142 1.762-9.906 2.404 1.526 4.779.969 5.958-2.316.434-1.209-.583-13.339-18.484-19.362z" fill="#e5ba97"/><path d="M161.119 111.453c1.028-.868 1.891-1.822 2.512-2.9.629-1.077 1.005-2.296 1.005-3.564 0-.766-.145-1.532-.407-2.285 4.172-.102 8.203-1.144 7.426-2.394-3.833.237-7.012.003-9.461-.366a1.846 1.846 0 0 0-.531-.084c-1.75-.29-3.094-.64-3.979-.914-1.154-.356-2.043 1.065-1.192 1.922.692.699 1.946 1.266 3.479 1.555.047.109.103.216.172.317.597.893.794 1.613.801 2.248-.007.554-1.287 2.813-1.922 3.393-1.12 1.016-2.739 2.026-4.717 2.943-2.961 1.374-6.664 2.864-10.775 3.356-8.934 1.07-8.902-3.389-8.902-3.389s-1.508-8.482-2.259-8.423c-.763.06-1.709 8.353-1.709 8.353s-.965 4.795-9.783 4.123c-3.394-.259-6.394-1.515-8.878-2.666-2.273-1.041-4.071-2.279-5.229-3.535-.578-.627-1.003-1.256-1.274-1.859a4.371 4.371 0 0 1-.399-1.804c.006-.738.196-1.533.695-2.444l.051-.134.086-.01c1.535-.227 2.799-.769 3.47-1.445.753-.759-.034-2.017-1.055-1.702-1.911.59-6.184 1.589-12.365 1.207-.641 1.03 2.412 1.899 5.817 2.087a8.133 8.133 0 0 0-.395 2.441c0 1.151.259 2.278.727 3.313.813 1.81 2.124 3.494 3.978 4.692 18.253 11.804 27.52 3.427 27.52 3.427 12.828 8.556 26.413-4.55 27.493-5.459z" fill="#740806"/><g fill="#e93e8f"><path d="M106.755 95.829c0-1.782-4.253-3.227-9.499-3.227-5.247 0-9.501 1.445-9.501 3.227 0 1.781 4.253 3.226 9.501 3.226 5.246 0 9.499-1.445 9.499-3.226zM181.963 95.829c0-1.782-4.253-3.227-9.499-3.227-5.247 0-9.501 1.445-9.501 3.227 0 1.781 4.253 3.226 9.501 3.226 5.245 0 9.499-1.445 9.499-3.226z"/></g><path d="M132.356 91.608c-30.159 0-7.507 12.816 0 12.816s30.159-12.816 0-12.816z" fill="#e93e8f"/><path d="M128.307 94.819c-.699-.327-1.661-.529-2.723-.529-1.37 0-2.572.337-3.26.844-.385.283-.61.619-.61.981 0 1.008 1.733 1.824 3.87 1.824s3.87-.817 3.87-1.824c0-.507-.439-.965-1.147-1.296z" fill="#fff"/><path d="M189.593 62.086s-5.525-12.119-14.257-19.96l22.346-18.604s10.624 21.812-8.089 38.564z" fill="#fffcc8"/><path d="M204.001 101.34c-.261-.903-.562-1.883-.891-2.915-2.985-3.885-8.312-8.046-17.673-10.622-5.827-36.998-23.22-49.489-23.22-49.489s-3.24-1.279-7.368-2.952l-17.494 15.249s1.941-13.317 7.738-19.287l-.013-.006a66.85 66.85 0 0 0-7.685-.467c-10.127 0-18.897 2.353-26.017 5.399l-.699.299L76.94 16.613c-.099.151-.196.298-.31.48a38.804 38.804 0 0 0-2.418 4.528c-1.765 3.886-3.522 9.369-3.521 15.736.001 4.067.711 8.496 2.599 13.149 1.889 4.652 4.96 9.533 9.721 14.482l.699.727-.409.922c-2.85 6.425-6.007 13.787-8.651 20.547-2.643 6.751-4.774 12.94-5.555 16.848-.224 1.11-.335 2.032-.333 2.664 0 .109.003.209.009.298l.001.011v.01c.005.097.012.166.019.206l.003.015.002.016c.019.136.045.229.049.235l.001.003c.32.895.713 1.44 1.06 1.735.353.293.644.39 1.039.397.417.002.984-.156 1.644-.576l2.761-1.753-.473 3.236a20.616 20.616 0 0 0-.233 2.973c0 1.178.129 2.277.403 3.246.275.971.689 1.81 1.269 2.521.456.559.887.917 1.251 1.125.367.208.658.274.925.275.42-.002.888-.175 1.451-.712l1.327-1.288.986 1.565c3.269 5.191 8.011 9.625 13.354 13.342 5.34 3.717 11.271 6.713 16.865 9.057 10.881 4.562 20.457 6.654 21.989 6.971l.033-.005a112.708 112.708 0 0 0 3.94-.643 149.783 149.783 0 0 0 10.738-2.369c8.652-2.242 19.614-5.93 28.771-11.602 6.108-3.778 11.394-8.427 14.734-14.041l.761-1.277 1.284.75c.32.185.591.254.864.256.267-.002.559-.068.927-.276.365-.208.796-.566 1.253-1.126.58-.711.994-1.55 1.269-2.522.275-.969.404-2.068.403-3.246 0-.95-.083-1.951-.233-2.973l-.473-3.237 2.762 1.753c.659.419 1.227.578 1.643.576.395-.008.686-.105 1.039-.398.345-.293.735-.835 1.054-1.721l.006-.034c.006-.048.013-.132.012-.243.003-.434-.099-1.232-.313-2.238a51.276 51.276 0 0 0-.937-3.648z" fill="none"/><path d="m66.026 108.507-.001-.002v-.001z" fill="#740806"/><path d="M124.204 76.284a27.598 27.598 0 0 0-.114-1.594c-.917-9.577-6.715-16.911-13.452-16.661-7.103.264-12.553 8.868-12.168 19.215.309 8.241 4.227 15.086 9.397 17.404 1.321.593 2.722.905 4.169.851a9.151 9.151 0 0 0 1.308-.145c6.454-1.198 11.221-9.367 10.86-19.07z" fill="#fff"/><path d="M99.991 53.351a20.668 20.668 0 0 1 3.62-3.431c6.133-4.517 13.391-2.856 17.767 2.481.487.593 1.318-.163 1.038-.941-1.673-4.655-5.057-10.878-11.135-10.595-6.63.308-10.421 6.962-12.274 11.638-.314.794.47 1.468.984.848z" fill="#740806"/><path d="M167.476 63.001c-1.602.748-3.474 1.181-5.627 1.181-4.761 0-8.171-2.092-10.235-5.09-5.322 2.965-8.948 9.991-8.71 18.095.02.654.064 1.299.132 1.935.54 5.081 2.583 9.522 5.496 12.564 2.621 2.737 5.945 4.342 9.524 4.237 2.68-.08 5.153-1.122 7.262-2.844 4.228-3.454 6.961-9.694 6.752-16.756-.155-5.239-1.899-9.938-4.594-13.322z" fill="#fff"/><g fill="#740806"><path d="M98.47 77.244c-.385-10.346 5.064-18.95 12.168-19.215 6.736-.251 12.535 7.084 13.452 16.661l-.001-.212c-.414-11.093-6.926-19.856-14.543-19.573-7.619.284-13.459 9.509-13.046 20.601.218 5.867 2.152 11.065 5.045 14.635 1.795 2.216 3.957 3.797 6.323 4.506-5.171-2.317-9.089-9.162-9.398-17.403zM174.122 56.62c-6.075 5.311-15.195 6.115-22.115.202a24.608 24.608 0 0 1-3.986-4.34c-.549-.765-1.598-.128-1.318.8a33.767 33.767 0 0 0 1.724 4.537c-3.755 3.909-6.091 10.023-5.891 16.855.045 1.531.219 3.019.5 4.449a26.068 26.068 0 0 1-.132-1.935c-.209-7.131 2.577-13.421 6.874-16.852 2.219 3.645 5.527 6.883 10.434 7.671 3.521.566 6.485-.599 8.92-2.496 1.73 3.046 2.818 6.758 2.938 10.814.209 7.062-2.524 13.302-6.752 16.756 3.063-1.896 5.562-5.057 7.126-8.965 1.233-3.082 1.89-6.624 1.779-10.379-.116-3.911-1.063-7.528-2.586-10.61 1.491-1.697 2.705-3.592 3.633-5.311.446-.825-.473-1.787-1.148-1.196z"/><path d="M164.922 79.946c.424-1.008-.727-1.908-1.671-1.356-3.075 1.885-8.677 4.164-13.528-.056-.842-.733-2.105-.034-1.871 1.058.639 2.723 2.973 6.016 8.23 6.257 5.35.275 8.446-4.831 8.84-5.903zM120.916 80.087c.424-1.008-.727-1.908-1.671-1.356-3.075 1.885-8.677 4.164-13.528-.056-.842-.733-2.105-.034-1.871 1.058.639 2.723 2.973 6.016 8.23 6.257 5.349.275 8.445-4.831 8.84-5.903z"/></g><path d="M123.286 137.052s6.416-8.02 16.218-3.208c-1.604-7.307-14.97-8.02-16.218 3.208z" fill="#740806"/><path d="M207.875 104.37c-.824-3.889-2.886-10.084-5.455-17.132-2.463-6.749-5.387-14.236-8.11-21.034 4.568-4.931 7.644-9.869 9.57-14.639 2.02-5.001 2.792-9.811 2.791-14.207-.001-6.922-1.899-12.812-3.79-16.977-1.893-4.167-3.783-6.62-3.835-6.687l-.81-1.048-34.316 20.278c-9.542-3.622-18.445-5.074-26.524-5.073-10.264 0-19.193 2.315-26.49 5.347l-34.78-20.552-.81 1.048c-.052.068-1.942 2.52-3.834 6.687-1.89 4.165-3.788 10.054-3.789 16.976-.001 4.417.778 9.251 2.82 14.277 1.943 4.786 5.045 9.741 9.651 14.688-3.168 7.169-6.662 15.378-9.415 22.656-1.434 3.792-2.667 7.327-3.549 10.344-.441 1.509-.795 2.889-1.042 4.119-.246 1.232-.39 2.306-.392 3.256 0 .158.005.312.014.465h-.001l.001.007v.013h.001c.008.151.022.323.053.513h-.002l.004.022.001.009h.001c.038.242.087.496.188.78.449 1.247 1.079 2.265 1.929 2.997a4.55 4.55 0 0 0 2.992 1.121c.249 0 .494-.028.738-.064-.015.315-.039.632-.039.945 0 1.394.149 2.762.516 4.062.366 1.298.958 2.531 1.833 3.602.639.783 1.331 1.4 2.088 1.833.754.433 1.584.671 2.412.67a4.615 4.615 0 0 0 2.113-.529c3.612 5.237 8.488 9.621 13.832 13.27 8.683 5.923 18.577 9.948 26.317 12.514 7.739 2.564 13.325 3.662 13.37 3.671l.238.047.241-.031c.06-.009 11.512-1.472 24.795-5.925 6.643-2.229 13.746-5.204 20.126-9.152 6.001-3.716 11.355-8.312 15.04-13.993.334.079.676.13 1.024.129.828.002 1.659-.237 2.414-.67.758-.433 1.45-1.051 2.09-1.835.875-1.071 1.466-2.304 1.832-3.603.367-1.3.516-2.669.516-4.063 0-.313-.024-.629-.039-.944.244.036.489.064.738.064a4.54 4.54 0 0 0 2.992-1.121c.851-.732 1.482-1.75 1.93-2.999.158-.454.185-.851.188-1.276-.002-.809-.143-1.735-.377-2.856zm-2.634 3.1-.006.034c-.32.886-.71 1.427-1.054 1.721-.353.293-.644.39-1.039.398-.417.002-.984-.156-1.643-.576l-2.762-1.753.473 3.237a20.76 20.76 0 0 1 .233 2.973c0 1.179-.129 2.277-.403 3.246-.275.971-.689 1.81-1.269 2.522-.456.56-.888.919-1.253 1.126-.368.208-.66.274-.927.276-.272-.002-.544-.071-.864-.256l-1.284-.75-.761 1.277c-3.339 5.613-8.625 10.262-14.734 14.041-9.157 5.672-20.119 9.36-28.771 11.602a149.115 149.115 0 0 1-10.738 2.369 112.708 112.708 0 0 1-3.94.643l-.033.005c-1.532-.318-11.108-2.409-21.989-6.971-5.594-2.344-11.525-5.34-16.865-9.057-5.342-3.716-10.084-8.151-13.354-13.342l-.986-1.565-1.327 1.288c-.563.538-1.031.71-1.451.712-.266-.002-.557-.068-.925-.275-.364-.207-.795-.565-1.251-1.125-.58-.711-.994-1.55-1.269-2.521-.275-.969-.404-2.068-.403-3.246 0-.95.083-1.951.233-2.973l.473-3.236-2.761 1.753c-.66.42-1.227.578-1.644.576-.395-.008-.686-.105-1.039-.397-.346-.295-.739-.84-1.06-1.735l-.001-.003a1.62 1.62 0 0 1-.049-.235l-.002-.016-.003-.015a1.892 1.892 0 0 1-.019-.206v-.01l-.001-.011a4.479 4.479 0 0 1-.009-.298c-.002-.632.109-1.554.333-2.664.781-3.908 2.912-10.097 5.555-16.848 2.644-6.76 5.801-14.122 8.651-20.547l.409-.922-.699-.727c-4.762-4.949-7.832-9.831-9.721-14.482-1.888-4.652-2.599-9.082-2.599-13.149-.001-6.367 1.756-11.851 3.521-15.736a38.957 38.957 0 0 1 2.418-4.528c.114-.182.211-.329.31-.48l33.738 19.935.699-.299c7.12-3.046 15.89-5.399 26.017-5.399 2.478 0 5.047.161 7.685.467 5.788.672 11.943 2.122 18.449 4.655l.68.265 33.214-19.626a38.078 38.078 0 0 1 2.81 5.192c1.737 3.874 3.44 9.286 3.439 15.554-.001 4.048-.705 8.455-2.573 13.083-1.87 4.628-4.907 9.484-9.615 14.408l-.668.699.36.897c3.215 8.006 6.756 17.085 9.486 24.76.926 2.604 1.755 5.04 2.449 7.219.329 1.032.629 2.012.891 2.915.407 1.404.726 2.639.939 3.649.215 1.006.316 1.804.313 2.238a2.48 2.48 0 0 1-.014.244z" fill="#740806"/><path d="M124.641 33.985s-2.154.094-3.341 1.374c-1.061 1.143-1.635 5.09 2.672 5.482 5.52.503 15.963-5.426 14.881-10.655-.603-.36-19.379-13.362-22.344-6.284-1.034 2.468.113 5.292 1.96 6.994 2.507 2.312 6.172 3.089 6.172 3.089z" fill="#fbb807"/><path d="M134.367 37.338c-2.987 2.083-6.851 3.534-9.71 3.534-.236 0-.465-.01-.686-.03-4.307-.392-3.732-4.339-2.671-5.482 1.188-1.279 3.341-1.374 3.341-1.374s-3.665-.778-6.173-3.089c-1.847-1.702-2.993-4.527-1.96-6.995.633-1.509 1.984-2.105 3.726-2.105 6.423 0 18.251 8.838 18.726 9.121 0 0 2.799-.226 2.58-1.287l-.245-1.181-1.035-.619-.201-.134c-5.966-3.943-14.247-8.644-19.824-8.644-4.063 0-5.663 2.375-6.257 3.79-1.597 3.812.172 7.805 2.632 10.072a13.537 13.537 0 0 0 2.004 1.516c-.802 1.422-1.152 3.463-.422 5.368.825 2.155 2.842 3.531 5.531 3.776.301.027.615.041.935.041 3.715-.001 10.129-5.431 9.709-6.278z" fill="#740806"/></g></g></svg>