<svg id="Layer_3" enable-background="new 0 0 1000 1000" height="1000" viewBox="0 0 1000 1000" width="1000" xmlns="http://www.w3.org/2000/svg"><g><path d="m788.2 528.4s67.3 366-14.1 417.6c-81.3 51.6-278.4 51.6-336.3 29.7 0 0-281.6 70.4-323.8-158-23.7-128 88.8-219.2 198-237.4-16.1 1.2-26.6 2.8-26.6 2.8 8.8-43.1 75.7-101.7 75.7-101.7s-187.7-408.2 287.8-392.6c0 0 125.1-101.7 150.2-73.5 25 28.2 39.1 133 21.9 158 0 0 173.6 233.1-32.8 355.1z" fill="#ffc363"/><path d="m668.6 649c-19.4 4.4-90.1-72.4-181.9-79.6s-181.3.3-194.1 11.4c-12.7 11.1-1.7-25.8.5-25.8 14.2-12 19.1-15.7 32-29.1 0 0 165.4-35.2 266.1 32.4 76.8 51.6 96.8 86.3 77.4 90.7zm-94 53.7c-45.3-43.8-83-33.2-83-33.2l10.5 39.3c38.2-1.7 90.7 59.7 100.1 53.6s3.9-29.2-27.6-59.7zm-133.7 86.9c-95.4-45.4-194-35.2-194-35.2l-16.4 46.1c28.2-23.5 187.8 18 258.9 41.5 34.7 11.4 54.7 14.9 53.2 3.1-1.6-11.7-6.3-10.1-101.7-55.5zm15.1-574.2c11.9 1.1 18.3-24.9 20.7-32.1 13.7-39.8 53.1-81.9 53.1-81.9l-28.2 1.7s-38 38.4-50.3 74.1c-11 31.8-6.4 37.2 4.7 38.2zm114.7-57.5c6.6 4.5 17.2-3.6 25.2-17.1 9.8-16.7 33.5-48.4 33.5-48.4l-31.5.6s-14.4 13.7-24.9 32.9c-10.6 19.2-8.5 27.8-2.3 32z" fill="#dc8b4a"/><path d="m439.1 122s-106.1 43.4-113.9 176.4c0 0-45.9-94-38.7-184.7-1.6-8.3 4.3-30.7 152.6 8.3z" fill="#fea142"/><path d="m866.7 243.5c-15.8-35.9-33.2-62-39.2-70.5 10.6-20.9 5.7-64.7 3.8-78.2-4-29.4-13.5-66.6-28.1-83-12.6-14.2-42.5-5.9-91.5 25.2-29.9 19-57.8 40.9-64.6 46.4-85.9-2.6-155.4 8.5-208 33-88.9-23.4-139.2-28.1-153.7-14.6-3.5 3.2-5 7.5-4.4 12.1-6.6 85.6 32.4 172.2 38.5 185.3-1.3 25.4.7 52.7 5.8 81.4 8.8 49.2 24.2 87.7 29.2 99.5-13.4 12.2-66.4 62.5-74.5 102.1-37 10.7-72.2 29.2-100.6 53-27.4 23-47.7 49.7-60.2 79.4-13.8 32.8-17.4 67.9-10.7 104.3 11.2 60.3 39.8 105.7 85.1 134.8 51.5 33.1 115.5 38.8 160.2 37.8 42.9-1 75.9-8.1 83.5-9.9 23.7 8.5 68 13.6 118.1 13.6 78.5 0 171.3-12.5 221.5-44.4 35.5-22.6 49-101 40.1-233.1-5.8-86.1-19.7-168.2-22.9-186.4 53.6-32.6 86.2-75.8 96.8-128.4 11.9-59.2-6.6-119.4-24.2-159.4zm-574.9-130.8c-.2-1.2 0-2.1 1-3 3.9-3.6 24.8-12.9 131.6 14.1-29.7 16.3-53.3 37.6-70.7 63.7-16.8 25.3-27.6 55.1-32.1 88.9-12.7-32.1-34.8-98.4-29.7-162.2 0-.6 0-1-.1-1.5zm588.5 287.9c-10.2 50.5-42.1 91.9-94.9 123.1-2 1.2-3 3.4-2.6 5.7.2.9 16.8 92.3 23.4 188.9 8.6 126.1-3.6 203.2-35 223.2-35 22.2-98.5 37.4-174.3 41.6-63.9 3.6-128.5-1.5-157.1-12.4-.6-.2-1.3-.4-1.9-.4-.4 0-.9.1-1.3.2s-35.9 8.8-82.8 10c-43.1 1-104.8-4.4-154-36-42.7-27.4-69.7-70.4-80.3-127.6-12.1-65.4 11.7-127 67.1-173.3 64.8-54.3 160.1-75.5 226.5-50.5 43.1 16.2 69.8 49.9 77.2 97.3.1.7.3 1.8.5 3.2 5.7 37.7 2.2 61.3-10.4 70.1-10.8 7.5-30 4.1-55.6-9.9-35.7-19.6-72.5-39.9-105.3-43-36-3.4-64.5 13.3-89.5 52.5-.1.1-.1.2-.2.3-.8 1.4-18.9 35.2-2.3 74.7 16.3 38.9 59.7 68.5 129.1 88.1 2.9.8 5.9-.9 6.7-3.8s-.9-5.9-3.8-6.7c-65.9-18.6-106.9-46.1-121.9-81.7-14.1-33.5.6-63.2 1.7-65.3 22.6-35.3 47.7-50.4 79.2-47.4 30.5 2.9 66.4 22.6 101.1 41.7 29.9 16.4 52.4 19.6 67.1 9.3 24.6-17.2 17.3-64.9 14.9-80.6-.2-1.3-.3-2.3-.4-2.9 0-.1 0-.1 0-.2-8-51.6-37.1-88.2-84.2-105.9-34.2-12.9-76.9-14.6-120.3-4.9-1.5.3-3 .7-4.5 1 12.5-40.3 72-92.8 72.6-93.4 1.8-1.6 2.4-4.2 1.4-6.4-.2-.4-19.9-43.7-30-100.5-4.1-23.1-7-50.7-5.5-79.2.1-.5.1-1 .1-1.5 2-35.4 10.8-72.3 32.2-104.5 46.8-70.5 143.1-103.9 286-99.2 1.3 0 2.6-.4 3.6-1.2.3-.3 31.5-25.5 65.3-47 19.6-12.5 36.2-21.3 49.4-26 14.1-5.2 24.1-5.5 28.1-1.1 10.7 12 20.7 42.4 25.5 77.3 4.7 34 3.1 63.8-4 74-1.3 1.9-1.3 4.5.1 6.3.2.3 21.6 29.2 40.1 71.3 16.6 38.6 34.5 96.4 23.2 152.7z" fill="#89191a"/></g></svg>