<svg id="Capa_1" enable-background="new 0 0 511.999 511.999" height="512" viewBox="0 0 511.999 511.999" width="512" xmlns="http://www.w3.org/2000/svg"><g><g><path d="m256 504.499c-85.98 0-155.681-69.701-155.681-155.68v-185.639c0-85.98 69.701-155.68 155.68-155.68 85.98 0 155.68 69.701 155.68 155.68v185.638c.001 85.981-69.699 155.681-155.679 155.681z" fill="#b1e4f9"/><path d="m295.329 499.488c-12.56 3.27-25.74 5.01-39.33 5.01-85.98 0-155.68-69.7-155.68-155.68v-185.64c0-85.98 69.7-155.68 155.68-155.68 13.59 0 26.77 1.74 39.33 5.01-66.94 17.42-116.35 78.28-116.35 150.67v185.64c0 72.39 49.41 133.25 116.35 150.67z" fill="#90d8f9"/><ellipse cx="256" cy="163.18" fill="#ffddce" rx="105.68" ry="105.681" transform="matrix(.383 -.924 .924 .383 7.274 337.247)"/><path d="m284.829 264.86c-9.17 2.61-18.84 4-28.83 4-58.28 0-105.68-47.41-105.68-105.68s47.4-105.68 105.68-105.68c9.99 0 19.66 1.39 28.83 4-44.31 12.58-76.86 53.4-76.86 101.68s32.55 89.1 76.86 101.68z" fill="#ffcbbe"/><path d="m248.245 97.22h11.666 11.382 10.798c12.249 0 22.18-9.93 22.18-22.18 0-12.249-9.93-22.18-22.18-22.18h-10.798v-3.895c0-9.776-7.925-17.701-17.701-17.701-9.776 0-17.701 7.925-17.701 17.701 0-10.059-8.391-18.159-18.556-17.68-9.52.448-16.845 8.649-16.845 18.18.001 26.374 21.381 47.755 47.755 47.755z" fill="#524798"/><path d="m273.639 97.227h-25.385c-13.198 0-25.126-5.342-33.773-13.989-8.648-8.635-13.989-20.588-13.989-33.773 0-9.529 7.325-17.723 16.854-18.177 5.355-.259 10.229 1.88 13.626 5.432-3.163 3.319-5.095 7.857-5.095 12.745 0 13.185 5.342 25.139 13.989 33.773 8.647 8.648 20.574 13.989 33.773 13.989z" fill="#453d81"/></g><g><path d="m256 0c-89.979 0-163.181 73.202-163.181 163.18v185.638c0 89.978 73.203 163.181 163.181 163.181s163.18-73.203 163.18-163.181v-185.638c0-89.978-73.202-163.18-163.18-163.18zm0 15c81.707 0 148.181 66.473 148.181 148.18v5.65c-24.316 58.547-65.747 107.31-119.907 141.075-9.098 5.672-18.423 10.822-27.936 15.464-67.492-32.807-120.149-88.734-148.478-157.864l-.04.016v-4.342c-.001-81.706 66.472-148.179 148.18-148.179zm-148.181 333.818v-146.263c29.621 55.415 75.017 100.827 130.955 130.705-41.274 16.997-85.653 24.598-130.799 22.2-.098-2.203-.156-4.416-.156-6.642zm148.181 148.181c-25.481 0-49.479-6.466-70.443-17.842 44.931-11.875 87.176-33.651 123.096-63.598 3.182-2.653 3.61-7.382.958-10.563-2.653-3.182-7.382-3.61-10.563-.958-37.882 31.583-83.138 53.632-131.072 63.906-30.952-22.931-52.69-57.618-58.56-97.405 4.96.229 9.911.357 14.853.357 59.355 0 116.983-16.495 167.941-48.263 47.591-29.669 85.811-70.385 111.972-118.925v16.288c-10.272 62.588-39.197 119.407-83.681 164.346-2.914 2.944-2.89 7.692.054 10.606 1.462 1.448 3.369 2.17 5.276 2.17 1.932 0 3.864-.742 5.331-2.224 32.755-33.09 57.462-72.321 73.021-115.466v69.389c-.003 81.708-66.476 148.182-148.183 148.182z"/><path d="m256 276.359c62.408 0 113.18-50.772 113.18-113.18 0-42.002-22.83-79.941-59.777-99.751-4.529-10.611-15.065-18.067-27.312-18.067h-3.555c-1.754-12.194-12.272-21.596-24.944-21.596-6.888 0-13.139 2.778-17.692 7.271-.104-.103-.209-.205-.315-.306-5.032-4.801-11.649-7.272-18.602-6.937-13.454.633-23.992 11.91-23.992 25.672 0 6.233 1.053 12.222 2.964 17.816-10.918 6.84-20.52 15.422-28.598 25.594-2.576 3.244-2.035 7.961 1.208 10.538 1.379 1.096 3.025 1.627 4.66 1.627 2.209 0 4.397-.972 5.878-2.836 6.717-8.457 14.661-15.63 23.643-21.438 9.976 14.456 26.646 23.954 45.5 23.954h33.846c14.016 0 25.786-9.769 28.878-22.854 26.927 18.153 43.21 48.286 43.21 81.313 0 54.136-44.043 98.18-98.18 98.18s-98.18-44.043-98.18-98.18c0-12.84 2.446-25.317 7.27-37.085 1.571-3.833-.262-8.213-4.095-9.784-3.834-1.571-8.214.263-9.784 4.095-5.568 13.583-8.391 27.975-8.391 42.775-.001 62.407 50.772 113.179 113.18 113.179zm26.091-186.639h-33.846c-22.197 0-40.255-18.058-40.255-40.255 0-5.642 4.35-10.437 9.697-10.688.167-.008.334-.012.5-.012 2.642 0 5.126.99 7.042 2.818 2.039 1.945 3.161 4.566 3.161 7.382 0 4.142 3.358 7.5 7.5 7.5s7.5-3.358 7.5-7.5c0-5.625 4.576-10.201 10.201-10.201s10.201 4.576 10.201 10.201v3.896c0 4.142 3.358 7.5 7.5 7.5h10.798c8.094 0 14.68 6.585 14.68 14.68s-6.584 14.679-14.679 14.679z"/><path d="m215.295 188.393c11.222 11.222 25.963 16.833 40.705 16.833s29.482-5.611 40.705-16.833c2.929-2.929 2.929-7.678 0-10.606-2.929-2.929-7.678-2.929-10.606 0-8.04 8.04-18.729 12.467-30.098 12.467s-22.059-4.428-30.098-12.467c-2.929-2.929-7.678-2.929-10.606 0-2.931 2.928-2.931 7.677-.002 10.606z"/><path d="m232.658 147.823v-19.216c0-4.142-3.358-7.5-7.5-7.5s-7.5 3.358-7.5 7.5v19.216c0 4.142 3.358 7.5 7.5 7.5s7.5-3.358 7.5-7.5z"/><path d="m294.341 147.823v-19.216c0-4.142-3.358-7.5-7.5-7.5s-7.5 3.358-7.5 7.5v19.216c0 4.142 3.358 7.5 7.5 7.5s7.5-3.358 7.5-7.5z"/></g></g></svg>