<svg height="512" width="512" xmlns="http://www.w3.org/2000/svg"><path d="M376.213 337.748c8.44 5.53 17.931 8.076 27.419 7.964 3.702-5.713 6.655-12.011 7.909-18.65-.175.017-.351.037-.526.052-13.4 1.297-32.596-2.047-38.925-14.867a71.382 71.382 0 0 0-3.087 5.265c-1.153 2.161-2.226 4.366-3.294 6.573 1.555 5.522 5.752 10.007 10.504 13.663zM356.648 340.099a59.072 59.072 0 0 1-8.921 9.482c.858 6.861 4.74 13.372 9.636 18.618 3.518 3.518 7.952 5.727 12.687 6.836a83.977 83.977 0 0 0 17.007-10.856c-13.457-2.042-25.819-11.336-30.409-24.08zM335.689 357.629a61.873 61.873 0 0 1-11.997 4.638c-1.756 6.741-1.321 14.123 1.517 20.13a83.028 83.028 0 0 0 17.307.254c-5.791-6.654-8.334-16.211-6.827-25.022z" fill="#e36254"/><g fill="#a63c30"><path d="M323.691 362.267c-5.283 1.428-10.752 2.145-16.234 2.042-3.832-.072-8.438-.431-11.942 1.122-1.096.486-2.181 1.119-2.855 2.111s-.901 3.294.129 3.909c9.872 5.887 21.008 9.586 32.42 10.946-2.839-6.008-3.273-13.39-1.518-20.13zM376.213 337.748c-4.752-3.655-8.949-8.141-10.504-13.663-2.011 4.157-4 8.323-6.454 12.229a55.55 55.55 0 0 1-2.607 3.785c4.59 12.744 16.952 22.038 30.409 24.08 6.007-4.939 11.33-10.705 15.698-17.143.297-.438.588-.88.876-1.324-9.487.112-18.978-2.435-27.418-7.964zM347.726 349.581a62.115 62.115 0 0 1-12.038 8.048c-1.507 8.812 1.037 18.369 6.827 25.022a79.9 79.9 0 0 0 10.105-1.568c6.02-1.336 11.871-3.385 17.429-6.048-4.736-1.109-9.169-3.318-12.687-6.836-4.896-5.246-8.778-11.757-9.636-18.618zM411.015 327.114c.174-.015.35-.035.526-.052.275-1.458.475-2.932.576-4.421.594-8.793-1.833-19.313-9.664-23.358-6.275-3.241-14.209-1.838-20.096 2.063-4.199 2.782-7.507 6.651-10.267 10.9 6.328 12.821 25.525 16.165 38.925 14.868z"/></g><path d="M334.739 384.703a73.29 73.29 0 0 1-9.757-.629c-.331-.045-33.219-5.171-34.739-14.024-.399-2.326 1.115-4.387 4.501-6.124.029-.015.057-.028.086-.041 3.42-1.517 7.564-1.402 11.221-1.303.489.013.97.027 1.439.035 13.921.248 28.183-4.967 39.138-14.323l.043-.036c8.853-7.069 13.935-17.456 18.848-27.5a595.9 595.9 0 0 1 1.97-4.001c5.909-12.568 18.692-23.656 31.651-20.464 2.823.696 5.467 2.158 7.644 4.228 12.979 12.337 6.098 35.619-2.647 47.492-14.007 20.611-36.985 34.188-61.474 36.322-2.7.245-5.346.368-7.924.368zm-38.495-17.745c-1.757.909-2.778 1.871-2.667 2.518.053.305.862 3.093 12.972 6.888 7.436 2.331 15.368 3.882 18.885 4.355 5.242.706 10.937.789 16.929.246 23.501-2.048 45.553-15.087 58.993-34.88l.038-.054c8.357-11.327 14.07-32.592 3.059-43.058-1.752-1.666-3.869-2.84-6.123-3.395-11.195-2.755-22.456 7.296-27.796 18.653a586.904 586.904 0 0 0-1.975 4.014c-5.074 10.372-10.321 21.098-19.755 28.64-11.572 9.875-26.641 15.377-41.377 15.115-.48-.009-.97-.022-1.469-.036-3.28-.09-6.996-.192-9.714.994z" fill="#7d271d"/><path d="M325.21 384.089a1.692 1.692 0 0 1-1.531-.97c-2.936-6.214-3.528-13.97-1.624-21.279a1.693 1.693 0 0 1 3.275.853c-1.707 6.554-1.194 13.472 1.409 18.981a1.691 1.691 0 0 1-1.529 2.415zM403.038 347.407c-9.928 0-19.511-2.845-27.752-8.244a1.299 1.299 0 0 1-.104-.074c-6.017-4.628-9.648-9.386-11.101-14.546a1.692 1.692 0 0 1 3.256-.918c1.245 4.419 4.469 8.587 9.857 12.742 7.834 5.118 16.961 7.754 26.418 7.653h.02a1.691 1.691 0 0 1 .019 3.384c-.203.002-.409.003-.613.003zM387.059 365.871c-.085 0-.17-.006-.256-.019-14.573-2.211-27.034-12.094-31.747-25.179a1.692 1.692 0 1 1 3.183-1.147c4.232 11.749 15.915 20.984 29.071 22.98a1.692 1.692 0 0 1-.251 3.365zM342.517 384.342a1.69 1.69 0 0 1-1.277-.581c-6.051-6.952-8.817-17.075-7.218-26.418a1.692 1.692 0 0 1 3.335.57c-1.431 8.368 1.035 17.421 6.436 23.626a1.693 1.693 0 0 1-1.276 2.803zM370.051 376.727c-.128 0-.257-.015-.387-.045-5.306-1.242-9.973-3.762-13.498-7.287l-.04-.042c-4.02-4.307-9.032-11.197-10.078-19.563a1.693 1.693 0 0 1 1.469-1.889 1.696 1.696 0 0 1 1.888 1.469c.727 5.818 3.985 12.086 9.174 17.652 3.12 3.112 7.109 5.253 11.857 6.365a1.692 1.692 0 0 1-.385 3.34zM405.515 329.066c-5.93 0-11.944-.856-17.12-2.477-8.599-2.694-14.762-7.395-17.822-13.593a1.691 1.691 0 1 1 3.034-1.498c5.677 11.499 23.287 15.283 37.245 13.932a1.693 1.693 0 0 1 .326 3.368c-1.859.18-3.757.268-5.663.268z" fill="#7d271d"/><g><path d="M142.334 337.409c-2.83.435-6.492 1.301-9.175 2.299s-5.219 2.605-6.846 4.961c-1.626 2.356-2.215 5.531-1.064 8.152s4.228 4.395 6.989 3.638c-2.23 2.198-3.25 5.608-2.412 8.624.838 3.017 3.584 5.458 6.7 5.759 3.116.3 6.361-1.682 7.353-4.651-.069 2.468 1.672 4.818 3.984 5.681 2.313.863 5.084.362 6.982-1.215 5.768-4.793 5.27-10.799 5.838-14.602 7.439-6.147 47.253-48.638 54.692-54.785l-18.851-21.751c-7.479 9.922-54.19 57.89-54.19 57.89z" fill="#a63c30"/><path d="M150.247 373.986a8.502 8.502 0 0 1-2.975-.529c-1.678-.626-3.082-1.848-3.987-3.341-1.812 1.702-4.358 2.658-6.921 2.41-3.767-.363-7.126-3.238-8.168-6.99-.684-2.462-.359-5.151.806-7.464a8.178 8.178 0 0 1-5.302-4.571c-1.328-3.026-.86-6.778 1.221-9.793 1.666-2.413 4.311-4.345 7.648-5.586 2.426-.902 5.877-1.785 8.943-2.295 4.527-4.656 46.691-48.08 53.662-57.326a1.69 1.69 0 0 1 2.629-.089l18.851 21.751a1.692 1.692 0 0 1-.201 2.413c-3.648 3.015-15.626 15.344-27.21 27.267-11.675 12.017-22.729 23.395-26.967 27.081-.05.425-.092.882-.137 1.356-.365 3.898-.866 9.238-6.212 13.68-1.594 1.324-3.641 2.026-5.68 2.026zm-6.368-9.486a1.691 1.691 0 0 1 1.692 1.739c-.047 1.677 1.194 3.418 2.885 4.049 1.728.645 3.862.271 5.31-.932 4.27-3.548 4.661-7.716 5.006-11.393.071-.76.138-1.479.24-2.157.062-.413.274-.788.596-1.054 3.648-3.015 15.626-15.344 27.21-27.267 11.011-11.333 21.469-22.098 26.178-26.378l-16.413-18.938c-10.301 12.513-51.215 54.551-53.036 56.421a1.695 1.695 0 0 1-.955.492c-2.992.46-6.463 1.328-8.842 2.213-1.871.696-4.439 2.013-6.043 4.337-1.398 2.025-1.755 4.581-.908 6.511.862 1.962 3.148 3.193 4.993 2.686a1.69 1.69 0 0 1 1.635 2.837c-1.833 1.808-2.625 4.607-1.97 6.967.665 2.395 2.866 4.299 5.233 4.527 2.397.231 4.852-1.308 5.587-3.503a1.688 1.688 0 0 1 1.602-1.157zm-1.545-27.091h.005z" fill="#7d271d"/></g><g><path d="M343.62 259.631c1.084-2.649 2.783-6.007 4.381-8.383s3.754-4.465 6.425-5.495 5.896-.86 8.175.872c2.28 1.732 3.284 5.139 1.902 7.646 2.659-1.654 6.213-1.848 8.95-.328s4.469 4.761 4.032 7.861-3.123 5.791-6.242 6.062c2.415.51 4.293 2.752 4.592 5.202.298 2.451-.837 5.027-2.815 6.504-6.009 4.487-11.732 2.598-15.562 2.26-7.717 5.795-55.095 32.01-62.811 37.804l-17.401-34.802c11.395-4.95 66.374-25.203 66.374-25.203z" fill="#a63c30"/><path d="M294.646 321.33a1.693 1.693 0 0 1-1.513-.935l-17.401-34.802a1.688 1.688 0 0 1 .839-2.308c10.752-4.673 59.1-22.526 65.773-24.987 1.207-2.818 2.836-5.887 4.253-7.994 1.987-2.955 4.483-5.074 7.22-6.13 3.418-1.319 7.176-.895 9.807 1.103a8.174 8.174 0 0 1 3.204 6.224c2.522-.593 5.211-.279 7.445.962 3.405 1.891 5.414 5.829 4.886 9.576-.36 2.551-1.883 4.802-3.962 6.166 1.24 1.229 2.099 2.88 2.315 4.658.371 3.043-.996 6.209-3.482 8.064-5.57 4.159-10.879 3.397-14.754 2.84a58.161 58.161 0 0 0-1.35-.184c-4.521 3.215-17.412 10.704-31.026 18.614-13.501 7.844-27.461 15.955-31.24 18.792a1.672 1.672 0 0 1-1.014.341zm-15.082-35.638 15.717 31.434c5.279-3.537 17.288-10.514 29.921-17.854 13.501-7.844 27.461-15.955 31.24-18.792.333-.25.746-.372 1.164-.332.683.06 1.397.163 2.153.271 3.656.525 7.799 1.12 12.249-2.202 1.508-1.126 2.371-3.113 2.148-4.945-.219-1.792-1.621-3.405-3.262-3.752a1.692 1.692 0 0 1 .203-3.341c2.306-.2 4.377-2.226 4.713-4.612.332-2.354-1.005-4.939-3.178-6.146-2.141-1.189-5.049-1.074-7.235.286a1.692 1.692 0 0 1-2.375-2.253c.923-1.676.262-4.186-1.444-5.482-1.678-1.275-4.247-1.527-6.543-.641-2.635 1.016-4.516 3.204-5.63 4.861-1.417 2.106-3.073 5.277-4.219 8.079-.18.439-.536.783-.981.947-.526.194-50.56 18.634-64.641 24.474zm64.056-26.061h.005z" fill="#7d271d"/><path d="M352.379 270.238c2.582 3.459 7.008 4.522 9.884 2.374s3.115-6.693.532-10.151c-2.583-3.459-7.008-4.522-9.884-2.374-2.876 2.147-3.115 6.692-.532 10.151z" fill="#e36254"/></g><g><path d="M172.631 375.796c4.589 27.755 10.019 70.701 10.019 70.701s-20.239 11.354-16.29 17.277c3.949 5.924 34.886 6.911 40.15 0s17.112-66.147 17.112-66.147z" fill="#a63c30"/><path d="M186.978 470.287c-.806 0-1.602-.013-2.387-.037-3.821-.12-16.532-.875-19.639-5.536-.761-1.141-.98-2.506-.634-3.946 1.419-5.908 12.827-13.013 16.511-15.174-.887-6.94-5.747-44.598-9.868-69.521a1.691 1.691 0 0 1 2.335-1.831l50.991 21.831a1.691 1.691 0 0 1 .993 1.887c-1.22 6.102-12.078 59.822-17.425 66.841-3.095 4.063-12.411 5.485-20.877 5.486zm-12.181-91.723c4.431 27.476 9.479 67.307 9.532 67.721.086.683-.25 1.35-.85 1.688-5.634 3.163-14.924 9.647-15.87 13.586-.162.677 0 1.038.16 1.278 1.155 1.732 7.481 3.733 16.93 4.031 9.804.308 18.414-1.423 20.467-4.118 3.619-4.751 11.754-40.421 16.528-64.108z" fill="#7d271d"/></g><g><path d="M310.597 372.807c-4.589 27.755-10.264 73.69-10.264 73.69s20.239 11.354 16.29 17.277c-3.949 5.924-34.886 6.911-40.15 0s-17.112-66.147-17.112-66.147z" fill="#a63c30"/><path d="M296.005 470.287c-8.466 0-17.782-1.422-20.878-5.487-5.346-7.019-16.204-60.738-17.425-66.841a1.692 1.692 0 0 1 .921-1.854l51.236-24.82a1.693 1.693 0 0 1 2.406 1.798c-4.135 25.012-9.216 65.315-10.115 72.508 3.681 2.159 15.094 9.267 16.514 15.176.346 1.44.127 2.805-.634 3.946-3.107 4.661-15.818 5.416-19.639 5.536-.783.025-1.581.038-2.386.038zm-34.727-71.709c4.773 23.687 12.918 59.415 16.541 64.171 2.053 2.695 10.66 4.427 20.467 4.118 9.449-.298 15.776-2.299 16.93-4.031.16-.24.322-.601.159-1.278-.945-3.938-10.236-10.423-15.87-13.586a1.692 1.692 0 0 1-.851-1.683c.055-.442 5.307-42.86 9.749-70.541z" fill="#7d271d"/></g><g><path d="M310.923 372.973c-7.047 26.425-46.583 36.991-65.721 38.745-19.138 1.755-58.305-1.595-70.039-26.298-9.989-21.014 1.16-59.401 12.47-94.914 1.982-6.225 3.973-12.358 5.851-18.296l78.838-7.228c3.336 6.266 6.858 12.758 10.37 19.348 17.152 32.184 34.083 66.711 28.231 88.643z" fill="#e36254"/><path d="M282.691 284.329c-29.871 24.557-75.244 19.271-95.059 6.177 1.982-6.225 3.973-12.358 5.851-18.296l78.838-7.228c3.336 6.265 6.858 12.757 10.37 19.347z" fill="#a63c30"/><path d="M236.098 413.801c-20.892 0-51.986-5.6-62.464-27.655-10.077-21.199.594-59.125 12.386-96.153.85-2.669 1.701-5.321 2.545-7.948 1.124-3.499 2.233-6.954 3.305-10.346a1.69 1.69 0 0 1 1.458-1.175l78.838-7.228a1.696 1.696 0 0 1 1.648.89c1.684 3.163 3.415 6.383 5.169 9.644 1.721 3.2 3.462 6.44 5.201 9.703 17.653 33.123 34.385 67.347 28.373 89.876-3.194 11.976-13.306 22.253-29.244 29.72-13.294 6.228-28.324 9.391-37.958 10.274-2.725.25-5.858.398-9.257.398zm-41.341-140.01c-.968 3.051-1.963 6.152-2.97 9.288-.843 2.625-1.693 5.274-2.542 7.94-11.588 36.385-22.102 73.588-12.554 93.674 6.178 13.004 20.354 19.23 31.159 22.164 16.827 4.568 32.726 3.585 37.198 3.176 22.35-2.049 57.902-13.726 64.241-37.496 5.694-21.339-11.514-56.309-28.09-87.412-1.737-3.26-3.477-6.496-5.195-9.692a2774.937 2774.937 0 0 1-4.646-8.664z" fill="#7d271d"/></g><g><path d="M171.783 105.164c-12.478-9.976-19.603-14.123-33.316-22.742-7.524-4.729-16.396-10.12-26.146-9.215-4.108.381-6.988 4.069-3.124 7.083 1.58 1.233 3.722 1.687 5.774 2.102-3.068.236-5.053.672-7.844 1.853s-5.287 3.062-6.684 5.522c-.738 1.3-1.117 2.969-.156 4.132.755.913 2.158 1.243 3.427 1.109 1.27-.133 2.446-.654 3.592-1.166-8.089 25.677-.207 72.15 13.076 84.271z" fill="#ffe8db"/><path d="M120.382 179.803c-.407 0-.815-.146-1.14-.442-13.592-12.402-21.021-56.586-14.453-82.816a8.646 8.646 0 0 1-.897.145c-1.983.208-3.863-.449-4.908-1.715-1.278-1.547-1.282-3.806-.01-6.045 1.481-2.608 4.143-4.826 7.496-6.245a29.872 29.872 0 0 1 2.058-.79 7.474 7.474 0 0 1-.37-.272c-2.045-1.595-2.878-3.666-2.287-5.683.691-2.358 3.221-4.133 6.295-4.418 10.583-.984 20.187 5.058 27.203 9.467 1.705 1.072 3.308 2.074 4.832 3.028 10.621 6.642 17.637 11.029 28.639 19.826a1.691 1.691 0 1 1-2.113 2.643c-10.849-8.674-17.425-12.786-28.32-19.6-1.526-.955-3.132-1.959-4.839-3.032-6.605-4.152-15.65-9.835-25.089-8.963-1.853.172-3.114 1.159-3.361 2.001-.234.8.48 1.564 1.121 2.064 1.303 1.017 3.304 1.421 5.068 1.777a1.692 1.692 0 0 1-.205 3.345c-2.999.231-4.776.65-7.314 1.724-2.671 1.13-4.756 2.835-5.872 4.8-.405.714-.733 1.723-.323 2.219.312.378 1.13.59 1.946.504 1.017-.107 2.065-.575 3.078-1.028a1.69 1.69 0 0 1 2.304 2.053c-3.679 11.677-4.21 29.039-1.42 46.443 2.695 16.816 8.069 30.637 14.022 36.069a1.692 1.692 0 0 1-1.141 2.941z" fill="#e0a58f"/><path d="M124.021 97.017c8.599-6.486 33.571 18.458 36.984 23.41s-24.559 36.717-31.426 34.641-13.152-52.323-5.558-58.051z" fill="#a63c30"/><path d="M130.207 156.843c-.397 0-.77-.05-1.117-.156-3.193-.965-5.891-7.51-8.02-19.452-2.436-13.671-4.065-37.045 1.932-41.569 1.656-1.249 3.797-1.671 6.366-1.255 11.786 1.909 30.448 21.31 33.029 25.056 1 1.451 1.543 4.457-5.254 13.77-6.291 8.621-20.094 23.606-26.936 23.606zm-5.167-58.475c-3.393 2.559-3.762 20.045-.788 37.419 2.163 12.637 4.853 17.356 5.817 17.662 1.257.379 6.342-2.217 14.658-10.798 4.187-4.32 8.201-9.164 11.013-13.288 3.544-5.199 3.981-7.518 3.849-8.009-2.968-4.263-20.79-21.987-30.761-23.602-1.646-.267-2.885-.066-3.788.616z" fill="#7d271d"/><path d="M237.351 91.982c7.653-14.024 12.622-20.601 21.938-33.851 5.112-7.27 11.211-15.67 20.553-18.604 3.937-1.236 8.017 1.052 5.619 5.326-.981 1.748-2.781 2.994-4.513 4.17 2.92-.968 4.919-1.333 7.95-1.323 3.031.011 6.059.781 8.299 2.51 1.183.914 2.177 2.307 1.741 3.75-.343 1.134-1.51 1.98-2.732 2.348s-2.508.342-3.764.313c17.384 20.556 28.074 66.465 20.507 82.777z" fill="#ffe8db"/><path d="M312.948 141.09a1.692 1.692 0 0 1-1.534-2.405c3.392-7.311 3.006-22.135-1.006-38.686-4.153-17.13-11.352-32.938-19.258-42.286-.43-.509-.522-1.222-.234-1.823s.912-.971 1.566-.961c1.11.026 2.258.053 3.237-.241.785-.236 1.458-.748 1.6-1.217.186-.616-.506-1.42-1.156-1.922-1.788-1.381-4.37-2.147-7.271-2.157-2.736-.012-4.557.291-7.412 1.237a1.691 1.691 0 0 1-1.481-3.006c1.49-1.011 3.179-2.157 3.988-3.598.398-.709.762-1.69.236-2.337-.553-.681-2.097-1.104-3.873-.546-9.042 2.84-15.189 11.58-19.676 17.962a1987.425 1987.425 0 0 1-3.294 4.669c-7.414 10.493-11.89 16.827-18.543 29.019a1.691 1.691 0 0 1-2.97-1.621c6.747-12.363 11.522-19.121 18.75-29.35 1.038-1.469 2.13-3.014 3.289-4.663 4.766-6.778 11.294-16.061 21.43-19.245 2.947-.925 5.966-.265 7.514 1.642 1.324 1.632 1.356 3.865.087 6.125a8.202 8.202 0 0 1-.236.394c.694-.049 1.418-.07 2.203-.066 3.641.013 6.953 1.029 9.327 2.863 2.037 1.573 2.907 3.659 2.326 5.579-.475 1.572-1.956 2.905-3.864 3.478-.296.089-.59.159-.884.213 16.194 21.655 26.418 65.276 18.675 81.968a1.693 1.693 0 0 1-1.536.981z" fill="#e0a58f"/><path d="M278.254 66.01c-10.437-2.659-23.829 29.998-25.064 35.884-1.234 5.886 36.84 24.373 42.372 19.804 5.531-4.567-8.09-53.34-17.308-55.688z" fill="#a63c30"/><path d="M292.653 124.076c-7.93 0-22.997-7.054-30.952-11.86-9.867-5.962-10.528-8.944-10.166-10.669.933-4.452 10.647-29.558 20.78-35.874 2.208-1.377 4.348-1.816 6.357-1.303 7.28 1.854 14.81 24.042 17.846 37.591 2.653 11.837 2.694 18.917.122 21.041-.904.747-2.281 1.074-3.987 1.074zm-37.798-21.875c.068.504 1.367 2.474 6.645 5.9 4.188 2.717 9.762 5.633 15.293 8 10.984 4.7 16.682 5.129 17.691 4.294.771-.655 1.428-6.048-1.461-18.54-3.971-17.172-11.068-33.156-15.187-34.205-1.097-.28-2.318.014-3.732.896-8.571 5.342-18.159 28.576-19.249 33.655z" fill="#7d271d"/><path d="M309.517 250.018c-24.061 15.417-53.205 26.646-69.823 29.005-16.31 4.265-47.727 5.163-75.971.167a174.153 174.153 0 0 1-11.49-2.418c-19.231-4.747-35.578-12.662-42.441-24.653-1.85-3.217-3.011-6.736-3.356-10.561-1.39-15.3 25.36-107.002 33.59-120.237s32.69-22.181 62.307-28.135 59.093-7.852 71.799 1.175 69.352 83.962 73.983 98.611c6.335 20.033-13.331 40.854-38.598 57.046z" fill="#e36254"/><path d="M308.948 246.696c.223 1.109.411 2.215.569 3.322-24.061 15.417-53.205 26.646-69.823 29.005-16.31 4.265-47.727 5.163-75.971.167a55.213 55.213 0 0 1-.727-3.152c-7.076-35.199 19.86-70.304 60.163-78.407 40.302-8.102 78.713 13.866 85.789 49.065z" fill="#ffe8db"/><circle cx="260.541" cy="175.891" fill="#fff" transform="rotate(-46.6 260.386 175.762)" r="21.339"/><path d="M260.534 198.924c-10.74 0-20.375-7.569-22.572-18.494-1.213-6.031-.004-12.173 3.403-17.295s8.605-8.611 14.636-9.823a22.874 22.874 0 0 1 17.295 3.404 22.88 22.88 0 0 1 9.823 14.636c2.503 12.45-5.59 24.615-18.04 27.118a23 23 0 0 1-4.545.454zm.048-42.687c-1.3 0-2.609.13-3.913.392-5.145 1.034-9.58 4.011-12.486 8.38s-3.938 9.609-2.903 14.754c2.135 10.621 12.514 17.523 23.134 15.39 10.621-2.135 17.523-12.514 15.39-23.134a19.52 19.52 0 0 0-8.38-12.486 19.509 19.509 0 0 0-10.842-3.296z"/><path d="M269.901 175.015c1.391 6.921-3.093 13.662-10.014 15.053s-13.662-3.093-15.053-10.014c-1.392-6.925 3.092-13.666 10.013-15.057a12.731 12.731 0 0 1 8.607 1.295 8.39 8.39 0 0 0-.48.432c-2.808 2.687-3.716 6.301-2.027 8.072 1.692 1.766 5.345 1.02 8.156-1.669.066-.063.132-.126.193-.192.258.664.46 1.36.605 2.08z"/><circle cx="179.64" cy="192.155" fill="#fff" transform="rotate(-6.95 179.743 192.25)" r="21.339"/><path d="M179.633 215.189c-10.741 0-20.376-7.569-22.572-18.494-1.213-6.031-.004-12.173 3.403-17.295s8.605-8.611 14.636-9.823a22.873 22.873 0 0 1 17.295 3.404 22.877 22.877 0 0 1 9.823 14.636c2.503 12.45-5.59 24.615-18.04 27.118a23.083 23.083 0 0 1-4.545.454zm.048-42.687c-1.3 0-2.609.13-3.913.392a19.521 19.521 0 0 0-12.486 8.38 19.523 19.523 0 0 0-2.904 14.754c2.135 10.621 12.515 17.524 23.134 15.39 10.621-2.135 17.525-12.513 15.39-23.134a19.52 19.52 0 0 0-8.38-12.486 19.495 19.495 0 0 0-10.841-3.296z"/><path d="M170.669 194.965c1.391 6.921 8.132 11.405 15.053 10.014s11.405-8.132 10.014-15.053a12.718 12.718 0 0 0-.604-2.08c-.066.063-.131.13-.197.193-2.808 2.687-6.461 3.434-8.152 1.668-1.689-1.771-.784-5.384 2.027-8.072.156-.151.317-.296.48-.432a12.732 12.732 0 0 0-8.607-1.295c-6.922 1.391-11.407 8.132-10.014 15.057zM213.822 204.401l19.351-3.89c2.355-.473 4.19 2.019 3.04 4.127l-6.977 12.784a3.72 3.72 0 0 1-5.643 1.08l-11.02-9.153c-1.829-1.519-1.081-4.48 1.249-4.948z"/><g><path d="M193.291 140.089c1.558 3.343-2.242 8.413-8.487 11.325-6.246 2.912-12.573 2.562-14.131-.781s2.242-8.413 8.487-11.325c6.246-2.911 12.572-2.562 14.131.781z" fill="#ffe8db"/><path d="M176.689 155.08c-.271 0-.539-.007-.803-.022-3.321-.184-5.718-1.501-6.748-3.71s-.498-4.892 1.497-7.554c1.767-2.358 4.54-4.496 7.809-6.02 7.202-3.356 14.396-2.654 16.379 1.599 1.03 2.209.498 4.892-1.497 7.553-1.767 2.358-4.54 4.496-7.809 6.02-2.974 1.388-6.076 2.134-8.828 2.134zm10.579-16.038c-2.103 0-4.713.551-7.394 1.8-2.732 1.274-5.113 3.09-6.531 4.982-1.193 1.593-1.608 3.085-1.137 4.095s1.88 1.652 3.867 1.762c2.361.131 5.282-.525 8.015-1.8 2.733-1.274 5.113-3.09 6.531-4.982 1.194-1.593 1.608-3.085 1.138-4.095-.518-1.111-2.203-1.762-4.489-1.762z" fill="#e0a58f"/></g><g><path d="M251.585 138.605c-.682 3.625-6.724 5.531-13.497 4.257-6.772-1.273-11.71-5.244-11.029-8.869.682-3.625 6.724-5.531 13.497-4.257 6.773 1.273 11.711 5.244 11.029 8.869z" fill="#ffe8db"/><path d="M242.228 144.949c-1.443 0-2.943-.141-4.452-.425-7.809-1.468-13.246-6.232-12.379-10.845.868-4.612 7.664-7.074 15.472-5.607 7.809 1.469 13.246 6.232 12.379 10.844-.451 2.395-2.446 4.266-5.618 5.266-1.614.51-3.456.767-5.402.767zm-5.753-13.911c-4.263 0-7.413 1.456-7.753 3.267-.435 2.313 3.612 5.753 9.679 6.894 2.962.557 5.955.469 8.211-.242 1.898-.599 3.105-1.57 3.311-2.665.435-2.313-3.612-5.753-9.679-6.894a20.44 20.44 0 0 0-3.769-.36z" fill="#e0a58f"/></g><path d="M147.7 220.433c-2.878 18.791-1.304 38.245 4.533 56.339-19.231-4.747-35.578-12.662-42.441-24.653a138.652 138.652 0 0 1 16.204-31.178c3.387-4.881 7.519-9.834 13.277-11.307 2.368-.604 5.142-.467 6.928 1.206 2.469 2.304 2.011 6.256 1.499 9.593zM301.807 189.452c9.916 16.219 15.983 34.769 17.592 53.713 15.902-11.81 27.921-25.428 29.616-39.139a138.65 138.65 0 0 0-26.994-22.493c-5.01-3.193-10.735-6.164-16.615-5.298-2.418.358-4.923 1.557-5.924 3.789-1.387 3.079.562 6.548 2.325 9.428z" fill="#ffe8db"/><g><path d="M203.688 284.285c-12.643 0-26.62-1.016-40.26-3.429a176.537 176.537 0 0 1-11.602-2.442c-22.043-5.441-37.087-14.244-43.503-25.455-2.013-3.501-3.215-7.287-3.573-11.25-1.418-15.618 25.348-107.628 33.839-121.283 7.617-12.249 28.951-21.973 63.41-28.9 20.686-4.159 57.693-9.5 73.112 1.454 13.527 9.61 70.013 84.918 74.617 99.48 5.73 18.122-8.226 39.069-39.298 58.982-25.28 16.199-54.521 26.961-70.402 29.242-8.449 2.195-21.471 3.601-36.34 3.601zm41.765-194.466c-11.682 0-26.113 1.673-42.786 5.024-33.508 6.736-54.1 15.945-61.204 27.37-8.054 12.953-34.678 104.483-33.342 119.191.313 3.474 1.369 6.794 3.138 9.871 5.948 10.392 20.256 18.64 41.38 23.854 3.63.897 7.458 1.703 11.379 2.395 29.262 5.176 60.004 3.849 75.249-.138.063-.016.126-.029.19-.038 15.496-2.2 44.224-12.784 69.149-28.755 17.18-11.01 44.949-32.812 37.898-55.113-4.347-13.75-60.559-88.654-73.35-97.742-5.553-3.943-15.004-5.919-27.701-5.919zm64.064 160.199h.005z" fill="#a63c30"/></g><g><path d="M237.992 251.853c3.107.153 6.221-.309 9.074-1.538 6.82-2.937 11.307-9.841 13.068-17.054.446-1.828.684-3.738.778-5.69-11.663 2.426-21.366 12.314-22.92 24.282z" fill="#f22a4e"/><path d="M239.153 253.573c-.412 0-.827-.01-1.245-.031a1.689 1.689 0 0 1-1.594-1.908c1.625-12.511 11.598-23.087 24.254-25.721a1.69 1.69 0 0 1 2.034 1.738c-.106 2.208-.376 4.174-.824 6.01-2.078 8.509-7.328 15.315-14.043 18.207-2.631 1.133-5.513 1.705-8.582 1.705zm19.883-23.785c-9.57 2.856-17.048 10.846-19.045 20.385 2.292-.092 4.439-.565 6.406-1.412 5.745-2.474 10.266-8.419 12.094-15.902.237-.97.417-1.986.545-3.071z"/></g><g><path d="M259.557 210.197c-8.895 15.636-24.98 26.984-42.694 30.121 3.972 4.057 8.259 7.986 13.581 9.965a25.358 25.358 0 0 0 7.547 1.57c1.554-11.967 11.257-21.855 22.921-24.282.276-5.75-.706-11.869-1.355-17.374z" fill="#821629"/><path d="m237.993 253.544-.085-.002a26.893 26.893 0 0 1-8.054-1.674c-5.876-2.186-10.411-6.497-14.2-10.367a1.69 1.69 0 0 1 .914-2.849c17.307-3.065 32.828-14.015 41.519-29.291a1.69 1.69 0 0 1 3.15.638c.113.959.236 1.937.361 2.928.609 4.835 1.238 9.834 1.003 14.724a1.692 1.692 0 0 1-1.345 1.575c-11.268 2.345-20.145 11.738-21.588 22.844a1.69 1.69 0 0 1-1.675 1.474zm-17.696-12.202c3.518 3.371 6.848 5.909 10.737 7.355a23.765 23.765 0 0 0 5.534 1.341c2.15-11.378 11.197-20.892 22.695-23.822.059-3.623-.342-7.379-.796-11.069-8.896 13.1-22.73 22.616-38.17 26.195z"/></g></g><g fill="#e0a58f"><path d="M372.892 73.64a3.625 3.625 0 0 0-3.542 3.707l.537 23.469c-.141-.003-.28-.016-.425-.002l-14.311 1.386c-.163.016-.317.058-.472.094-.313-8.2-.502-16.405-.558-24.557a3.626 3.626 0 0 0-3.625-3.601h-.026a3.625 3.625 0 0 0-3.6 3.65 797.452 797.452 0 0 0 1.824 48.569 3.624 3.624 0 1 0 7.233-.494 782.462 782.462 0 0 1-.928-16.476c.164.023.328.047.497.047.117 0 .235-.005.354-.017l14.202-1.375.347 15.181a3.625 3.625 0 0 0 3.623 3.542l.084-.001a3.626 3.626 0 0 0 3.542-3.707L376.6 77.181a3.626 3.626 0 0 0-3.708-3.541zM393.079 97.81c-2.001-.067-3.671 1.516-3.73 3.517l-.608 20.71a3.625 3.625 0 0 0 7.247.213l.608-20.711a3.624 3.624 0 0 0-3.517-3.729zM393.975 81.04a3.626 3.626 0 0 0-3.625 3.626v4.932a3.625 3.625 0 0 0 7.25 0v-4.932a3.626 3.626 0 0 0-3.625-3.626z"/></g><g><path d="M231.834 314.733c-.949 8.172-1.74 17.318.815 25.274.604 1.88 3.099 1.398 3.293-.446.869-8.23.102-16.564 1.012-24.829.361-3.277-4.745-3.233-5.12.001zM223.1 311.929c-2.321 6.16-4.604 14.081-2.843 20.659.428 1.599 2.851 1.626 3.266 0 .806-3.158.85-6.571 1.379-9.795.541-3.3 1.293-6.544 2.316-9.729.853-2.652-3.165-3.664-4.118-1.135zM241.113 312.07a106.988 106.988 0 0 1 2.235 11c.546 3.617.81 7.37 1.616 10.934.318 1.407 2.465 1.367 2.807 0 .916-3.649.871-7.887.527-11.604-.368-3.979-1.109-7.859-2.117-11.728-.851-3.27-5.923-1.884-5.068 1.398zM223.366 342.505c.071 4.487.39 9.113 2.165 13.293.597 1.406 2.577.54 2.649-.718.238-4.163-.355-8.405-.442-12.576-.057-2.808-4.416-2.82-4.372.001zM241.484 344.357c.171 3.69-.26 7.539.483 11.17.264 1.289 2.416 1.672 2.971.388 1.562-3.61 1.462-7.692 1.326-11.558-.108-3.072-4.922-3.076-4.78 0zM233.338 356.574c-.182 3.096-.393 7.075 1.414 9.772.765 1.143 2.837 1.139 3.158-.413.62-3-.171-6.301-.062-9.36.102-2.912-4.341-2.879-4.51.001z" fill="#f0857a"/></g></svg>