<svg id="Layer_1" height="512" viewBox="0 0 128 128" width="512" xmlns="http://www.w3.org/2000/svg" data-name="Layer 1"><path d="m52.425 91.99a42.187 42.187 0 0 1 -2.133 7.875c-1.671 4.934 6.694 5.317 10.55 1.9 3.031-2.68 1.283-7.719.386-9.775z" fill="#f5d8af"/><path d="m54.5 105.006a6.929 6.929 0 0 1 -3.8-.973 3.635 3.635 0 0 1 -1.354-4.49l.038-.111a40.635 40.635 0 0 0 2.051-7.578 1 1 0 0 1 .991-.864h8.8a1 1 0 0 1 .917.6c.98 2.248 2.88 7.81-.64 10.924a11.005 11.005 0 0 1 -7.003 2.492zm-1.22-12.016a46.468 46.468 0 0 1 -2 7.086l-.037.111c-.447 1.32.109 1.876.567 2.18 1.725 1.148 6.014.738 8.373-1.35 2.295-2.03 1.206-5.933.382-8.027z" fill="#4d4d4d"/><path d="m91.556 29.035a23.61 23.61 0 0 0 -20.869-26.181 8.457 8.457 0 0 0 -5.759.989l-.049.034a2.544 2.544 0 0 0 1.721 4.561 13.7 13.7 0 0 1 15.05 14.817" fill="#f5d8af"/><path d="m91.558 30.035a.914.914 0 0 1 -.116-.007 1 1 0 0 1 -.879-1.108 22.61 22.61 0 0 0 -19.985-25.072c-2.264-.248-3.925.018-5.081.818a1.453 1.453 0 0 0 -.526 1.763 1.474 1.474 0 0 0 1.54 1.013 14.7 14.7 0 0 1 16.139 15.9 1 1 0 1 1 -1.992-.172 12.7 12.7 0 0 0 -13.958-13.736 3.485 3.485 0 0 1 -3.6-2.307 3.449 3.449 0 0 1 1.2-4.064c1.631-1.127 3.739-1.5 6.5-1.2a24.61 24.61 0 0 1 21.75 27.287 1 1 0 0 1 -.992.885z" fill="#4d4d4d"/><path d="m93.056 57.422c.339 1.231-.809 6.27-.843 11.76-1.413 16.483-8.874 25.736-8.874 25.736h-1.283l-36.889-32.48 5.611-24.212s6.272-20.119 26.768-18.219 24.54 23.1 24.54 31.067-.7 16.373-.7 16.373 6.014 6.217 5.179 18.361c-.035.5-.075.969-.1 1.4a3.711 3.711 0 0 0 .187.5s3.912 7.277.047 10.694-12.222 3.034-10.55-1.9 3.3-9.553 1.632-16.011c-.869-3.327-3.114-7.284-5.572-11.309" fill="#f5d8af"/><path d="m100.359 101.643a6.926 6.926 0 0 1 -3.8-.973 3.633 3.633 0 0 1 -1.354-4.489l.066-.2c1.6-4.71 3.12-9.16 1.545-15.244a37.185 37.185 0 0 0 -3.94-8.5c-1.99 14.763-8.466 22.946-8.758 23.308a1 1 0 0 1 -.779.373h-1.283a1 1 0 0 1 -.66-.249l-36.889-32.481a1 1 0 0 1 -.314-.976l5.607-24.212c.084-.281 6.788-20.943 27.835-18.989a25.458 25.458 0 0 1 20.742 13.771 40.532 40.532 0 0 1 4.709 18.292c0 6.9-.529 14.207-.67 16.028 1.277 1.511 5.9 7.8 5.146 18.774l-.035.488c-.019.249-.036.489-.049.717.041.107.093.225.095.229.138.251 4.2 7.944-.207 11.84a11 11 0 0 1 -7.007 2.493zm-7.143-32.738c2.716 4.463 4.7 8.108 5.537 11.332 1.725 6.666.116 11.391-1.587 16.394l-.066.193c-.448 1.32.108 1.876.566 2.18 1.727 1.146 6.014.739 8.374-1.351 3.223-2.85-.23-9.407-.266-9.472a2.189 2.189 0 0 1 -.3-1.019c.014-.3.038-.614.062-.946l.035-.477c.792-11.507-4.845-17.539-4.9-17.6a1.007 1.007 0 0 1 -.276-.777c.007-.084.7-8.458.7-16.29 0-.279-.27-27.914-23.631-30.072-19.43-1.8-25.475 16.733-25.723 17.522l-5.465 23.56 36.158 31.836h.4c1.351-1.868 7.166-10.665 8.382-24.81v-.008a69.048 69.048 0 0 1 .609-7.886 19.711 19.711 0 0 0 .266-3.522 1 1 0 0 1 1.928-.531c.2.735.075 1.911-.208 4.29a70.24 70.24 0 0 0 -.595 7.454z" fill="#4d4d4d"/><path d="m79.434 48.338c2.952 3.875 5.483 9.793 7.18 16.755a65.616 65.616 0 0 1 .9 26.525l12.94 24.956a3.073 3.073 0 0 0 1.937 1.524c.443.12 3.409 1.21 2.419 3.545a5.449 5.449 0 0 1 -3.042 2.365c-1.479.519-7.144 3.27-8.757-1.644-1.085-3.308-2.328-6.564-4.626-9.177-5.7-6.459-10.416-12.377-12.444-17.694-.037-.113-.082-.218-.12-.33a40.639 40.639 0 0 1 -27.118 0c-.038.105-.083.217-.121.323-2.05 5.384-6.856 11.385-12.646 17.941a17.351 17.351 0 0 0 -4.356 8.629c-.12.706-.895 1.213-1.826 2.076-.826.774-5.519.395-7-.124a5.3 5.3 0 0 1 -3.042-2.365 2.87 2.87 0 0 1 2.426-3.545 2.92 2.92 0 0 0 1.93-1.524l12.94-24.956s-5.025-10.927.15-26.525c2.253-6.8 4.979-12.88 7.93-16.755" fill="#f5d8af"/><path d="m76.04 95.163c-.03.112-.06.217-.1.33-.037-.113-.082-.218-.12-.33a39.738 39.738 0 0 1 -27.118 0 .115.115 0 0 1 -.218 0c-4.874-17.258 2.358-25.97 2.358-25.97l11.423 2.6 11.415-2.6s7.234 8.712 2.36 25.97z" fill="#f2f2f2"/><path d="m96.741 126.175a5.408 5.408 0 0 1 -2.665-.616 4.2 4.2 0 0 1 -2.044-3 18.973 18.973 0 0 0 -4.4-8.715c-5.1-5.778-10.11-11.874-12.4-17.433-4.782 1.53-15.1 3.841-25.953.025-2.323 5.6-7.412 11.784-12.593 17.65a16.382 16.382 0 0 0 -4.118 8.125 4.2 4.2 0 0 1 -2.01 2.614c-1.928 1.175-4.653 1.22-8.1.135a6.034 6.034 0 0 1 -3.672-2.956 3.255 3.255 0 0 1 .174-2.6 4.563 4.563 0 0 1 2.9-2.272 2.142 2.142 0 0 0 1.327-1.031l12.72-24.527c-.912-2.287-4.4-12.61.3-26.8 2.466-7.444 5.261-13.338 8.085-17.046a1 1 0 1 1 1.591 1.212c-2.691 3.534-5.381 9.227-7.777 16.463-4.976 15-.238 25.689-.19 25.8a1 1 0 0 1 -.022.876l-12.94 24.955a4.123 4.123 0 0 1 -2.534 2.024 2.6 2.6 0 0 0 -1.671 1.237 1.28 1.28 0 0 0 -.105.987 4.346 4.346 0 0 0 2.41 1.774c3.513 1.108 5.413.67 6.387.108a2.389 2.389 0 0 0 1.152-1.282 18.345 18.345 0 0 1 4.591-9.117c5.246-5.939 10.387-12.187 12.461-17.634l.114-.306a1 1 0 0 1 .524-.57 1.006 1.006 0 0 1 .775-.025c11.336 4.344 22.261 1.441 26.432-.01a1 1 0 0 1 1.277.627l.12.33c2.048 5.372 7.1 11.515 12.245 17.348a20.988 20.988 0 0 1 4.856 9.64 2.263 2.263 0 0 0 1.064 1.65c1.685.951 4.883-.209 6.087-.643l.3-.107a4.6 4.6 0 0 0 2.452-1.814 1.087 1.087 0 0 0 .042-.971 3.2 3.2 0 0 0 -1.8-1.217 4.088 4.088 0 0 1 -2.561-2.024l-12.945-24.961a1.006 1.006 0 0 1 -.09-.669 65.238 65.238 0 0 0 -.894-26.079c-1.663-6.82-4.15-12.639-7-16.386a1 1 0 1 1 1.591-1.212c3.017 3.962 5.629 10.043 7.355 17.124a66.639 66.639 0 0 1 .979 26.614l12.778 24.643a2.055 2.055 0 0 0 1.31 1.019 5.131 5.131 0 0 1 3.081 2.275 3.076 3.076 0 0 1 0 2.628 6.409 6.409 0 0 1 -3.637 2.92l-.27.1a15.662 15.662 0 0 1 -5.089 1.12z" fill="#4d4d4d"/><path d="m77.056 34.254c-4.556-3.454-12.104-3.454-12.104-3.454h-6.21s-7.546 0-12.1 3.457-6.835 15.482-4.984 22.1 6.524 11.082 8.518 14.389-2.7 14.018 8.97 14.018h5.408c11.672 0 6.978-10.711 8.971-14.018s6.666-7.776 8.517-14.389-.43-18.646-4.986-22.103z" fill="#f1d7ad"/><path d="m64.562 85.823h-5.407c-9.268 0-9.324-6.432-9.362-10.689-.014-1.586-.027-3.084-.466-3.812-.546-.906-1.31-1.912-2.2-3.078-2.254-2.969-5.059-6.664-6.428-11.558-1.927-6.882.318-19.349 5.342-23.161 4.769-3.619 12.386-3.66 12.707-3.66h6.21c.322 0 7.938.041 12.708 3.66 5.034 3.812 7.274 16.275 5.348 23.161-1.37 4.9-4.176 8.59-6.43 11.559-.885 1.165-1.648 2.172-2.194 3.077-.439.728-.452 2.226-.466 3.812-.037 4.257-.094 10.689-9.362 10.689zm-5.809-53.958c-.071 0-7.27.045-11.5 3.254-3.971 3.012-6.478 14.41-4.626 21.028 1.267 4.527 3.945 8.054 6.1 10.888a39.174 39.174 0 0 1 2.314 3.254c.721 1.2.736 2.879.753 4.827.04 4.478.077 8.707 7.362 8.707h5.407c7.286 0 7.323-4.229 7.362-8.707.017-1.948.032-3.631.753-4.827a39.173 39.173 0 0 1 2.314-3.253c2.152-2.834 4.829-6.361 6.1-10.889 1.852-6.618-.655-18.016-4.626-21.028-4.228-3.209-11.427-3.254-11.5-3.254z" fill="#4d4d4d"/><path d="m73.613 35.773a2.159 2.159 0 0 1 3-2.663 28.324 28.324 0 0 1 8.2 5.789c5.787 5.952 6.941 14.001 2.979 18.182s-.825 9.164-4.127 11.738-5.942-8.71-5.612-15.7c.215-4.547-2.513-12.419-4.44-17.346z" fill="#f5d8af"/><path d="m82.7 70.195a2.352 2.352 0 0 1 -1.091-.276c-3.139-1.628-4.821-11.219-4.555-16.843a26.273 26.273 0 0 0 -1.19-7.531 1 1 0 1 1 1.929-.525 28.109 28.109 0 0 1 1.259 8.151c-.279 5.887 1.608 14 3.48 14.972.105.055.225.117.519-.113 1.165-.908 1.3-2.218 1.417-4.278.126-2.191.284-4.918 2.6-7.358 3.632-3.834 2.305-11.37-2.968-16.794a27.065 27.065 0 0 0 -7.915-5.581 2.817 2.817 0 0 0 -1.427-.21 1.017 1.017 0 0 1 -1.277-.607.986.986 0 0 1 .572-1.265 4.492 4.492 0 0 1 2.987.273 29.09 29.09 0 0 1 8.495 6c6.109 6.294 7.418 14.889 2.98 19.568-1.811 1.909-1.935 4.039-2.054 6.1-.12 2.078-.244 4.228-2.184 5.74a2.556 2.556 0 0 1 -1.577.577z" fill="#4d4d4d"/><path d="m50.1 35.773a2.158 2.158 0 0 0 -3-2.663 28.314 28.314 0 0 0 -8.2 5.79c-5.777 5.952-6.933 14.005-2.971 18.182s.825 9.164 4.127 11.738 5.942-8.71 5.612-15.7c-.219-4.548 2.509-12.42 4.432-17.347z" fill="#f5d8af"/><g fill="#4d4d4d"><path d="m41.014 70.195a2.558 2.558 0 0 1 -1.577-.587c-1.94-1.512-2.064-3.662-2.184-5.74-.119-2.059-.242-4.189-2.053-6.1-4.438-4.677-3.13-13.268 2.979-19.568a29.088 29.088 0 0 1 8.495-6 4.29 4.29 0 0 1 2.908-.32 1 1 0 0 1 -.7 1.872 2.729 2.729 0 0 0 -1.348.257 27.049 27.049 0 0 0 -7.92 5.591c-5.27 5.428-6.6 12.964-2.963 16.8 2.314 2.44 2.472 5.167 2.6 7.358.119 2.06.251 3.37 1.417 4.278.294.231.412.167.518.113 1.872-.97 3.758-9.085 3.48-14.972a28.125 28.125 0 0 1 1.258-8.15 1 1 0 0 1 1.93.524 26.313 26.313 0 0 0 -1.19 7.531c.266 5.628-1.416 15.215-4.558 16.843a2.352 2.352 0 0 1 -1.092.27z"/><path d="m71.345 51.748a.994.994 0 0 1 -.162-.014 11.132 11.132 0 0 0 -3.746-.182 1.01 1.01 0 0 1 -1.208-.724 1 1 0 0 1 .7-1.21 11.928 11.928 0 0 1 4.578.143 1 1 0 0 1 -.16 1.987z"/><path d="m52.373 51.748a1 1 0 0 1 -.161-1.987 11.927 11.927 0 0 1 4.578-.143 1 1 0 0 1 -.511 1.934 11.277 11.277 0 0 0 -3.744.182 1 1 0 0 1 -.162.014z"/></g><path d="m70.745 68.255c-2.65 2.89-15.14 2.94-17.79.05a4.623 4.623 0 0 1 -.44-3.48c.64-1.75 2.42-2.75 3.74-4.05a9.786 9.786 0 0 0 2.67-5.22c.12-.73-.22-2.22.1-2.84.26-.52.88-.63 1.51-.67.33-.02 1.79-.03 1.94-.02.77.03 1.71.02 2.05.69.31.62-.03 2.11.09 2.84a9.786 9.786 0 0 0 2.67 5.22c1.33 1.3 3.15 2.28 3.75 4.05a4.056 4.056 0 0 1 -.29 3.43z" fill="#f2f2f2"/><path d="m70.745 68.255c-.99 1.13-4.18 5.08-4.29 8.04-.13 3.51-.74 5.95-4.6 5.95s-4.46-2.44-4.59-5.95c-.12-2.96-3.32-6.85-4.31-7.99 2.65 2.89 15.145 2.84 17.79-.05z" fill="#f8c7c1"/><path d="m61.854 83.245c-4.921 0-5.465-3.568-5.589-6.913-.084-2.081-2.155-5.172-4.065-7.37a1 1 0 0 1 1.491-1.332c.982 1.07 4.3 1.818 8.06 1.818 3.852 0 7.246-.769 8.254-1.869a1 1 0 0 1 1.49 1.335c-1.461 1.669-3.957 5.109-4.043 7.418-.122 3.345-.667 6.913-5.598 6.913zm-5.7-12.369a11.693 11.693 0 0 1 2.114 5.378c.145 3.919.917 4.991 3.59 4.991s3.457-1.072 3.6-4.987a11.909 11.909 0 0 1 2.115-5.43 25.914 25.914 0 0 1 -5.817.62 26.782 26.782 0 0 1 -5.606-.572z" fill="#4d4d4d"/><path d="m62.771 61.766h-1.825c-2.326 0-3.666 2.128-2.293 3.64l.913 1a3.274 3.274 0 0 0 4.585 0l.913-1c1.374-1.512.036-3.64-2.293-3.64z" fill="#4d4d4d"/><path d="m61.858 68.347a4.077 4.077 0 0 1 -3.032-1.264l-.913-1a2.9 2.9 0 0 1 -.561-3.19 3.842 3.842 0 0 1 3.594-2.122h1.825a3.842 3.842 0 0 1 3.594 2.122 2.9 2.9 0 0 1 -.561 3.19l-.913 1a4.077 4.077 0 0 1 -3.033 1.264zm-.912-5.581a1.869 1.869 0 0 0 -1.765.931.9.9 0 0 0 .213 1.036l.913 1a2.39 2.39 0 0 0 3.1 0l.913-1a.9.9 0 0 0 .213-1.036 1.871 1.871 0 0 0 -1.766-.931z" fill="#4d4d4d"/></svg>