<svg xmlns="http://www.w3.org/2000/svg" xml:space="preserve" width="512" height="512"><path fill="#FFC76A" d="m409.3 95.7 29.5 242.7h14.4L423.8 95.7zM307.7 338.4h14.5l29.4-242.7h-14.5z"/><path fill="#F29743" d="m451.9 446.9-5-7.1-41.7-341.4 4.1-2.7zM309 446.9l5.2-7.1 41.6-341.4-4.2-2.7z"/><path fill="#F9BA5D" d="M373.8 338.1h13.8v107.3h-13.8zM306.1 351.8l1.6-13.4h14.5l-1.6 13.4-11.6 95.1h-14.5zM453.2 338.4l1.7 13.4 11.5 95.1h-14.5l-11.5-95.1-1.6-13.4z"/><g fill="#2D2D39"><path d="M425.1 94.6v-.2H409l-5.2 3.3.1.9 41.6 341.8 5.7 7.9H468L425.1 94.6zm-2.4 2.5L452 338.6l13 106.9h-12.2l-4.5-6.2L406.8 99l3.1-1.9h12.8zM372.3 447h16.6V336.5h-16.6V447zm14-107.3v104.1h-11.2V339.7h11.2zM357.3 97.7l-5.2-3.3H336l-42.8 353.9v.2h17.3l5.1-7.9 41.7-342.9zm-61.1 347.8 42.2-348.4h12.8l3.1 1.9-41.4 340.3-4.5 6.2h-12.2z"/></g><path fill="#CFF0FF" d="M290 330.6h180.9l-17.6-223.2H307.7z"/><path fill="#B8E9FF" d="M307.1 115.5c12.6 85 49.9 199.1 160.8 176.6l3 38.5H290l17.1-215.1z"/><path fill="#2D2D39" d="m472.3 330.5-17.7-224.3v-.2H306.5l-17.8 225.8v.2h183.8l-.2-1.5zM452 108.8l17.3 220.4H291.6L309 108.8h143z"/><path fill="#FFC76A" d="M280 328.4h200.9v10H280z"/><path fill="#2D2D39" d="M278.7 327.1v12.8h203.7v-12.8H278.7zm2.6 9.9v-7.2h198.2v7.2H281.3z"/><path fill="#FDE7CF" d="m252 251.9-14.4-10.1-33.7 1.3 7.6 39.9 1.4 8.2 23.9 11.6 25.7 4.5 16.6-1.8 14.3-7.6 6.4-7.7.2-8.3-10.7-6-13.3-5.2c.1-.2-20.1-13.9-24-18.8z"/><path fill="#2D2D39" d="M194.6 272.8c-1.4-3-1.8-5.2-2.3-8.4l2.1-1.2c1.2 9.5 7.7 18.5 18.9 26.3 19.6 13.5 47.5 18.9 61.3 15.5 13.7-3.3 24.5-11.3 24.6-18.3.1-5.1-5.9-8-10.9-9.5-23.3-6.9-43.2-29.8-43.5-30.3l2.1-1.5c.1.1 19.7 22.7 42.2 29.4 10.7 3.2 12.8 8.3 12.8 12-.2 8.2-11.7 17.1-26.6 20.8-14.4 3.5-43.2-2.1-63.4-15.9-8.3-5.7-14-12.1-17.3-18.9zM134.6 361.3c-.9-3.2-3.8-5.9-7.3-6.7-3.1-.7-6.1.3-8.3 2.8-1.5 1.5-15 14.2-38.5 7.9-8.2-2.3-11.8-11.3-15.6-20.7l-.2-.6c-4.9-12-9.9-24.4-24-26.5-2.3-.5-4.7 0-6.8 1.3-2.1 1.4-3.5 3.5-4 6-.9 4.4 1.5 8.8 5.7 10.4 1.1.4 2.1.8 2.9 1.4 6 4.4 8.7 11.5 11.3 18.4 5.4 14.2 11.6 30.4 43.6 30.6 25 0 39.1-15.6 39.2-15.7 2.3-2.6 3-5.6 2-8.6zm-4.5 6.4c-.1.1-13.2 14.6-36.7 14.6-29.7-.2-35.2-14.5-40.5-28.4l-.1-.2c-3-7.7-5.8-15-12.4-19.7-.9-.7-1.9-1.1-2.8-1.5-.3-.1-.5-.2-.8-.4-2.6-1.1-4.1-3.8-3.6-6.6.3-1.5 1.2-2.8 2.5-3.7 1-.7 2.1-1 3.3-1 .4 0 .7 0 1.1.1 12.2 1.9 16.8 13.2 21.3 24.1l.1.4c3.8 9.5 8.1 20.4 18.2 23.3 26.9 7.3 41.7-8.7 41.8-8.8 1.4-1.5 2.9-2.1 4.6-1.9.2 0 .4.1.6.1 2.2.5 4.1 2.3 4.8 4.4.3 1.4.4 3.3-1.4 5.2z"/><path fill="#9D706B" d="M126.7 357.4c-.3-.1-.8-.1-1.3-.1-1.3 0-2.9.4-4.4 2.1-.6.6-15.2 15.8-41.3 8.7-9.7-2.8-13.7-13.1-17.8-23-4.5-11.3-9.2-23-21.9-24.8-3.4-.6-6.9 1.6-7.5 5-.6 3 1.1 6 4 7.2 1.2.4 2.4 1 3.5 1.8 6.5 4.7 9.3 12 12.3 19.7 5.4 14.1 10.9 28.5 41 28.7 23.5 0 36.6-14.2 37.1-14.8 2-2.1 1.9-4.3 1.5-5.8-.6-2.1-2.9-4.2-5.2-4.7z"/><path fill="#FDE7CF" d="m225.879 261.49-116.7-11.8c-.674.041-30.15 26.062-29.779 49.71.1 5.7 1.6 10.8 4.9 15.6 4.1 5.8 10 9.8 16.7 11.8 2.6.8 5.8 1.5 9.3 2.3-.5 4.7-4.2 35.8-5.8 64.5v7.2c.1.3-2.7 27.5-.9 34.3 1.8 6.9 3.8 11.4 15.4 13.4 3.8.6 9.2.9 15.2.9 7.3 0 14.7-.1 20.1-.4 3.4-.2 6.4-2.8 6.3-6.2-.1-4.7-2.3-12.3-13.2-15l6.5-15.3c4.7.9 9.2 1.4 13.4 1.4 4 0 7.9-.5 11.5-1.2 1 0 3.1 17.1 4.7 22.6 1.8 6.9 3.8 11.6 15.4 13.5 3.8.6 9.3 1 15.4 1 7.3 0 14.9-.3 20.3-.5 3.4-.2 6.2-3 6.1-6.4-.1-3.5-1.3-8.8-6.5-12.2-1.7-1.1-3.9-1.6-5.9-1.9l4.7-55.4c3.6-6.8 6.1-13.9 7.3-21.1 1.2-7.5-.4-16.9-1.3-25.7.6-.6-12-64.2-13.121-65.11z"/><path fill="#9D706B" d="m227.902 428.401 1.141-10.696.322-2.62c-7.439-1.984-13.693-2.773-19.266-2.885-.046-.001-.139.041-.184.04-4.4 14.7-6.116 30.96 14.184 35.96 7.1-.3 12.7-.9 12.7-.9s5.1-3.4 2-10.2c-2.999-6.6-10.897-8.699-10.897-8.699z"/><path fill="#FDE7CF" d="M223 384.8s-.5.8-1.4 2.3c.4-.8.9-1.5 1.4-2.3z"/><path fill="#E0BCA2" d="M224.1 448.3c-7.6.4-16.8.6-22.4-.2-7.7-1.2-13.3-.6-16.9-10.8-1.4-3.9-1.5-9.4-2.8-17.1 0 0 8.8-8.5 28.1-8 3.2-10.8 8.9-20.8 11.5-25.1-13.2 19.6-45.3 25.2-45.3 25.2s0 .1.2.8c.9-.1 2.3-.4 3.1-.5.8 3.9 1.7 8.8 2.5 12.9s1.4 7.6 1.9 9.5c1.8 6.9 3.8 11.6 15.4 13.6 3.8.6 9.4.9 15.4.9 4.3 0 8.6.1 12.7 0-1-.3-2-.6-3.3-1 .1-.2 0-.2-.1-.2z"/><path fill="#8A5D58" d="M210.1 412.2c-19.4-.4-28.2 7.9-28.2 7.9 1.3 7.5 1.4 13.2 2.8 17.1 3.6 10.2 9.2 9.8 16.9 10.8 5.6.9 14.8.6 22.4.2-18.2-5.1-18.3-21.3-13.9-36z"/><path fill="#9D706B" d="M159.4 293.3c-16.7 1.8-24.2 2.7-24.2 2.7s-.8 8.9-2.8 17.6c9.4 1.5 21.5 1.7 36.7-.2 0 0-.9 2.5-4.4 5.1 5.1-3.2 8.7-7.5 8.8-13.1-.1 0 2.5-14-14.1-12.1zM146.9 427.1l3.5-9.5 1.1-2.112c-10.1-2.8-19.5-3.588-26.2-3.088 2.1 15.9 5.8 29 12.9 36.1 9.7-.3 19.3-1.2 19.3-1.2s5.1-3.4 2-10.2c-3.1-6.6-12.6-10-12.6-10z"/><path fill="#8A5D58" d="M103.4 419.5v6.4c.6 4.7 1 8.4 1.9 11.3 3.6 10.2 9.2 9.8 16.9 10.8 4.1.6 10.2.6 16.2.4-7.1-7.2-10.9-20.2-13.1-36-12.4.9-19.7 5.3-21.9 7.1z"/><path fill="#E0BCA2" d="M126 330.6c-5.7.1-10.6-.5-14.9-1.4v.1c-.5 4.7-4.774 30.568-6.274 59.068L103.9 399c.1.2-.5 10.7-.5 20.6 2.3-1.7 9.3-6.3 21.9-7.2-3.2-24.6-1.7-55.7.7-81.8z"/><path fill="#FFFAF5" d="M193.7 315.3c-19.8-4.2-40.9 15.7-45.2 35.9-4.3 20.4 8.4 40.2 28.3 44.4 20 4.2 39.5-8.9 43.8-29.3 4.3-20.3-6.9-46.9-26.9-51z"/><path fill="#2D2D39" d="M234.9 430.1c-4.5-2.9-12.8-2.1-12.9-1.6h.2c13.7 1 16.8 7.9 17.1 13.8.1 2.4-1.7 4.4-4.1 4.5-7.8.4-27 1.2-35.4-.2-10.5-1.8-12.3-5.8-14.1-12.3-1.1-4.1-2.9-14.2-4.4-21.9-.1-.9-.3-1.2-.4-2.1-.6.1-1.4.3-2.1.4.1.9.3 1.2.4 2.1 1.4 7.8 3.3 18.1 4.4 22.1 1.8 6.9 4.1 11.8 15.8 13.8 3.8.6 9.4.9 15.4.9 7.3 0 15-.3 20.4-.5 3.4-.2 6.2-3.1 6.1-6.7 0-3.7-1.1-8.9-6.4-12.3z"/><g><path fill="#2D2D39" d="m226 428.5 2.9.8 4.7-56.9-2.6-.2z"/></g><g><path fill="#2D2D39" d="m145.291 427.398 2.209.902 7.4-16.8-2.7-.1z"/></g><path fill="#2D2D39" d="M142.2 426.5c8.162 3.003 16.693 6.281 17 15.8.1 2.4-1.7 4.4-4.1 4.5-7.8.4-26.962 1.208-35.339-.323-14.83-2.71-14.852-14.658-14.542-29.782.16-7.822.579-17.396 1.144-27.195 1.708-29.632 5.059-60.531 5.238-60.799l-2.4-.2c-.09.27-3.832 31.294-5.596 61.129-.377 6.37-.899 17.312-1.006 27-.213 19.305.191 29.148 16.703 31.971 3.8.6 9.4.9 15.4.9 7.3 0 15-.3 20.4-.5 3.4-.2 6.2-3.1 6.1-6.7-.538-14.478-16.133-15.801-19.002-15.801z"/><g><path fill="#2D2D39" d="m119.8 296.9 1.7-1.5c-2-2.4-6.9-8.8-6.9-8.8.1.3 3 7.6 5.2 10.3z"/></g><path fill="#8A5D58" d="M132.4 313.6c-1.5 6.3-5.2 12.6-8.3 14.9 0 0 26.6-1.4 40.5-10 3.5-2.7 4.7-5.4 4.7-5.4-15.2 1.9-27.5 2-36.9.5z"/><path fill="#E0BCA2" d="M132.4 313.6c-44.9-7.4-24.791-59.754-24.791-59.754l-5.739 4.13c-27.502 28.264-25.754 50.462-10.761 62.225 15.477 12.142 45.046 13.199 69.791.598 1.5-.8 2.7-1.5 3.6-2.3-13.8 8.6-39.8 9.9-39.8 9.9 3.2-2.299 6.2-8.399 7.7-14.799z"/><path fill="#2D2D39" d="M166.8 291.8c-3.2-.6-14.5.6-25.3 2-7.5.9-14.6 1.8-17.2 1.7-5.9-.1-15.1-4.4-15.1-4.4 1.7 2.5 8.6 6.4 15 6.7 2.8.1 9.5-.8 17.5-1.7 9.8-1.2 21.8-2.7 24.6-2 1.8.4 4.9 2.9 5.8 7.1 1.3 5.9-1.5 14.1-10.5 18.1-23.814 11.097-43.418 9.601-55.294 6.626-21.347-5.346-24.72-19.46-24.806-26.726-.4-23.2 28.6-47.3 29-47.5l-1.6-2c-1.3 1-30.4 25.2-29.9 49.7.1 5.7 1.8 10.9 5.1 15.8 6.509 9.207 15.615 11.6 21.677 13.19 11.696 3.068 30.177 5.707 57.323-6.99 4.995-2.22 13.456-9.631 11.4-20.5-1.3-5.2-4.9-8.5-7.7-9.1z"/><g><path fill="#D6966A" d="M303.7 256.6c0-.1-1-.9-1.2-.9l-5-2.2-5-2.2c-.2 0-.4-.1-.5.1-24.5 54-25.6 69.3-25.5 72.6 0 .3.5.4.7.3 2.5-2.2 13.9-12.9 36.5-67.7z"/><path fill="#2D2D39" d="m292.6 251.3 5 2.2 5 2.2c.2 0 .3.3.2.4-22.7 54.8-33.1 66.1-35.5 68.2-.1.1-.2.1-.4 0-.1 0-.3-.2-.3-.3-.2-3.2 1-18.4 25.5-72.6.1-.2.3-.2.5-.1zm.9-2.2c-1.4-.6-2.9-.1-3.5 1.3-24.5 54.1-25.9 69.9-25.7 73.6 0 1 .7 1.9 1.7 2.3s2 .2 2.8-.4c2.7-2.4 13.5-14.2 36.1-69.1.5-1.3 0-2.9-1.5-3.4l-5-2.2-4.9-2.1z"/><path fill="#93452C" d="M304 258.8c-.9 2.1-4.9 2.5-8.9.7s-6.5-4.9-5.6-7 4.9-2.5 8.9-.7c4 1.6 6.5 4.8 5.6 7z"/><path fill="#AF593A" d="M298.4 251.7c-3.6-1.5-7.2-1.4-8.6.1-.2 2 2.2 4.7 5.8 6.3 3.6 1.5 7.2 1.4 8.6-.1.2-2.1-2.2-4.8-5.8-6.3z"/><path fill="#2D2D39" d="M298.4 251.7c4 1.7 6.5 4.9 5.6 7s-4.9 2.5-8.9.7c-4-1.7-6.5-4.9-5.6-7 .8-2.1 4.8-2.5 8.9-.7zm.9-2.1c-5.3-2.3-10.5-1.5-12 1.9s1.4 7.8 6.8 10.1c5.3 2.3 10.5 1.5 12-1.9s-1.4-7.8-6.8-10.1z"/><path fill="#FFC76A" d="M310.3 205.8s-5 14.2-11.1 18.8c-10.7 8.1-15.8 17.7-6.5 28.9 8.5 10.1 28.4-.8 27.3-23-.8-17.6-9.7-24.7-9.7-24.7z"/><path fill="#F4405F" d="M320 230.3c-.8-17.4-9.7-24.6-9.7-24.6s-5 14.2-11.1 18.8c-1.8 1.4-3.4 2.8-5 4.3-1 1.1.3 2.7 1.6 1.9l.1-.1c1-.7 2.3.4 1.7 1.6-.8 1.9-1.9 4.4-2.7 6.8-.4 1.3 1.4 2.2 2.2 1 2.1-3.2 5.2-7.1 9.3-9.3 1.1-.5 2.3.6 1.6 1.7-.3.6-.7 1.3-1.1 2.1-.6 1.3 1.1 2.4 2 1.3 1.4-1.6 2.9-3.2 4.1-4.2.7-.5 1.5-.3 1.9.4.6 1.3 1.5 3.6 1.7 6.7.1 1.5 2.1 1.5 2.4.2.9-2.6 1.1-5.5 1-8.6z"/><g><path fill="#2D2D39" d="M310.3 205.8s8.8 7.2 9.7 24.6c.9 19.4-13.9 30.2-23.4 26-1.4-.6-2.7-1.6-3.9-2.9-9.3-11.2-4.2-20.8 6.5-28.9 6.2-4.8 11.1-18.8 11.1-18.8zm-1-4-1.1 3.2c-1.4 3.8-5.8 14.2-10.4 17.8-7.5 5.6-11.5 11.4-12.2 17.4-.6 4.9 1.2 9.9 5.3 14.8 1.3 1.6 2.9 2.8 4.7 3.6 4.6 2 10.3 1.1 15.3-2.3 7.6-5.3 11.9-15 11.4-26-.8-18.2-10-25.9-10.5-26.3l-2.5-2.2z"/></g></g><path fill="#2D2D39" d="m225.4 261.4-2.5.9c.42.84 20.334 57.015 15.2 89.1-2.9 18.5-16 37.7-33.4 48.8-18.104 11.574-32.2 12.581-57.9 10.7.673.189 30.067 10.524 59.3-8.5 18.2-11.7 31.5-31 34.5-50.5 3.595-22.47-4.656-61.502-15.2-90.5z"/><path fill="#9D706B" d="M302.4 283.7c.5-3.3-1-6.6-3.9-8.2-2.1-1.1-4.8-1.5-8.1 1.2-7 5.9-13.1 22.2-11.3 25.7 1.7 3.4 7.7 11.1 15.2-.5 5.5-8.1 7.5-14 8.1-18.2z"/><path fill="#2D2D39" d="M281.5 307.5c-2-1.6-3.2-3.9-3.5-4.5-2.2-4.2 4.5-21.2 11.6-27.2 3.9-3.3 7.4-2.6 9.5-1.4 3.2 1.8 5.1 5.6 4.5 9.5-.7 5.2-3.4 11.5-8.2 18.8-3.1 4.6-6.3 6.9-9.6 6.7-1.6-.2-3.1-.9-4.3-1.9zm17.3-30.3c-.3-.3-.6-.4-.9-.6-2.2-1.2-4.3-.8-6.6 1.1-6.7 5.6-12.4 21.5-11 24.1 1.1 2.2 3.3 4.8 5.7 5 2.3.2 4.8-1.8 7.2-5.6 4.5-6.8 7.1-12.8 7.8-17.6.5-2.5-.4-4.9-2.2-6.4z"/><g><path fill="#F4405F" d="M215.6 103.3c.3 13-17.9 24-40.4 24.5-22.6.5-41.1-9.6-41.4-22.6s17.9-24 40.4-24.5 41.1 9.6 41.4 22.6z"/><path fill="#DD264E" d="M175.2 127.9c22.6-.5 40.7-11.5 40.4-24.5-.1-2.7-.9-5.4-2.5-7.8-34.7 13.2-63.5 4.6-73.9-2.6-3.5 3.6-5.6 7.9-5.5 12.2.4 13 18.9 23.2 41.5 22.7z"/><path fill="#2D2D39" d="M145.5 122.8c-8.3-4.5-12.9-10.7-13-17.5s4.2-13.2 12.2-18.1c7.8-4.8 18.3-7.5 29.5-7.8 11.1-.3 21.8 2 29.8 6.4 8.3 4.5 12.9 10.7 13 17.5.2 13.7-18.4 25.3-41.7 25.9-1.9 0-3.7 0-5.6-.1-9.1-.5-17.5-2.7-24.2-6.3zM174.2 82c-10.6.3-20.7 2.8-28.1 7.4-7.2 4.4-11 10-11 15.7.2 5.8 4.2 11.2 11.7 15.2 7.7 4.1 17.7 6.3 28.5 6.1 21.8-.6 39.4-10.9 39.1-23.1-.2-5.8-4.2-11.2-11.7-15.2-6.4-3.4-14.4-5.6-23-6.1-1.9 0-3.7-.1-5.5 0z"/><path fill="#F96282" d="M202.4 93.2c-.6 1.7-4.8 1.8-9.3.2-4.6-1.6-7.8-4.3-7.2-6s4.8-1.8 9.3-.2c4.5 1.7 7.8 4.3 7.2 6z"/><g><path fill="#F4405F" d="M173 84.4c-6.9 5.7-3.5-1-3.5-1s.2-.4.7-1c2-3 5.3-9.3 2.7-17.5v-.1c0-.4 1.4-.9 3.2-.9 1.7-.1 3.2.1 3.2.5 0 1.9 0 14.8-6.3 20z"/><path fill="#F4405F" d="M179.4 64.4c0 .4-1.5.7-3.2.9-1.6.1-3-.1-3.2-.5v-.1c0-.4 1.4-.9 3.2-.9 1.7-.1 3.2.2 3.2.6z"/><path fill="#2D2D39" d="M172.7 86.5c7.884-8.204 8-21.856 8-22.3-.1-1.4-1.6-2-4.7-1.7-2.183.141-3.473.579-4.046 1.28-.56.686-.292 1.265-.15 1.766.492 1.735 1.238 4.357.496 8.954-.9 6-3.1 10.1-3.1 10.1s6.2-5.3 5.3-19.3c1.347-.263 2.15-.267 3.4-.2-.1 1.6-.2 7-1.2 10.9-1 4-4 10.5-4 10.5z"/></g><g><path fill="#FDE7CF" d="M260.9 215.5c-.1-3.2-.3-6.4-.7-9.6-.1-.6-.1-1.2-.2-1.7-.4-3.2-1-6.3-1.7-9.3-.2-.7-.3-1.5-.5-2.2-3-12.6-7-21.9-7-21.9l-4.2-14-.4-1.4v-.1c.2-.6 1.7-5.1 3.1-11.4.2-.8.4-1.6.5-2.5.4-2 .8-4.2 1.1-6.4v-.1c.3-1.9.5-3.9.7-5.9.5-6.6.2-13.5-1.7-19.4-1.9-5.8-4.3-11.1-6.6-15.7-.6-1.2-1.2-2.4-1.8-3.4-3-5.4-5.7-9.4-7-11.2-.3-.5-.6-.8-.7-1l-.2-.2v.1L230 82s-.8.6-2.3 1.7c-.8.6-1.8 1.5-3 2.5-3.9 3.3-9.4 8.4-15 15.3-3.2 3.9-6.5 8.4-9.5 13.5-.1.2-.2.4-.4.6l-.4.6-.1.1-.5.7-1-.1-23-3.1-23 3.1-1 .1-.5-.7s0-.1-.1-.1l-.4-.6c-.1-.2-.2-.4-.4-.6-3-5-6.3-9.5-9.5-13.5-5.6-6.9-11.2-12.1-15-15.3-1.2-1-2.2-1.8-3-2.5-1.5-1.1-2.3-1.7-2.3-1.7l-3.6-3.8v-.1l-.2.2c-.1.2-.4.5-.7 1-1.3 1.9-4 5.9-7 11.2-.6 1.1-1.2 2.2-1.8 3.4-2.4 4.6-4.7 9.9-6.6 15.7-1.9 5.9-2.2 12.7-1.7 19.4.2 2 .4 4 .7 5.9v.1c.3 2.2.7 4.4 1.1 6.4.2.9.4 1.7.5 2.5 1.4 6.3 2.9 10.8 3.1 11.4v.1l-.4 1.4-4.2 14s-4.1 9.3-7 21.9c-.2.7-.3 1.5-.5 2.2-.7 3-1.2 6.1-1.7 9.3-.1.6-.2 1.1-.2 1.7-.4 3.2-.6 6.4-.7 9.6v2.2c0 5.2.6 10.3 2 15.2 2.4 8.7 7.4 16.5 16.2 21.5 15.2 8.7 29.8 13.6 41.6 16.4 14.6 3.4 24.8 3.5 26.4 3.6 1.5 0 11.8-.1 26.4-3.6 11.8-2.8 26.4-7.6 41.6-16.4 8.9-5.1 13.8-12.8 16.2-21.5 1.4-4.8 1.9-10 2-15.2-.2-.8-.2-1.5-.2-2.2z"/><path fill="#9D706B" d="M217.9 162.4c-10.7-4.6-22.9-3.9-31.7-2.3-3.8.7-7.7 1.1-11.5 1.1-3.9 0-7.7-.4-11.5-1.1-8.8-1.6-21-2.3-31.7 2.3-19.2 8.3-33.6 45.3-12.3 68.8 15.1 16.8 32.7 18.5 44.5 17.9a198.28 198.28 0 0 1 21.8 0c11.8.6 29.4-1.1 44.5-17.9 21.5-23.5 7.1-60.4-12.1-68.8z"/><path fill="#E0BCA2" d="m198.8 116.7 8.9 3.1c7.2-23.9 20.2-34.4 20.2-34.4h.6c-7.7-3.8-29.7 31.3-29.7 31.3z"/><path fill="#F6B0A6" d="m242.7 92-9.2-13.5-2.7 3.4-10 14.3s-5.3 13.1-5.4 13.5c-.1.3 0 8.6 0 8.6l4 1.9 6.8-4.2 3.8.8v12.1s2.6 3.5 2.9 3.7c.3.2 3.654-3.071 3.654-3.071-.5 14.8 12.946 14.271 12.946 14.271l2.3-13.3-.8-16.5-8.3-22z"/><ellipse transform="rotate(-22.351 218.692 208.915)" fill="#F6B0A6" cx="218.674" cy="208.906" rx="12.699" ry="7.6"/><path fill="#2D2D39" d="M201.5 178.5c-4.4-.4-8.4 4.6-9.1 11.2-.6 6.6 2.4 12.3 6.8 12.7 4.4.4 8.4-4.6 9.1-11.2.7-6.7-2.4-12.3-6.8-12.7z"/><path fill="#2D2D39" d="m206.9 185-3.4 4.2c4.2 2.7 10.6 1.8 12.2-3.3-2.5 2.9-6.8 2.3-8.8-.9z"/><path fill="#F9FCF8" d="M200.2 181.1c-1.7-.5-3.7 1.3-4.5 3.9-.8 2.6-.1 5.3 1.6 5.7 1.7.5 3.7-1.3 4.5-3.9.8-2.6.1-5.2-1.6-5.7z"/><path fill="#2D2D39" d="m233.7 75.9-1 .8c-26.3 20.1-34.7 39-35.1 39.8l2.6 1.1c.1-.1 8.2-18.5 33.1-37.9 4.6 5.8 26.7 36.4 11.8 73-.2.5-.5 1.1-.7 1.7.3.8.5 1.6.8 2.5l.9.5c.1-.4.4-.7.5-1 19.5-43.3-11.7-79.1-12.1-79.5l-.8-1z"/><path fill="#2D2D39" d="M232.02 130.405c-.59-1.451-.505-4.611-.42-6.905.1-4.2.1-7.8-2.4-8.4-1.6-.4-3.4.5-5.5 1.5-3.3 1.6-5.5 2.5-6.8.8-2.7-3.4 3.8-21.6 17.7-38.6l-2.2-1.8c-13.5 16.6-22 36.7-17.8 42.1 2.8 3.5 7.1 1.5 10.2 0 1.2-.6 2.8-1.4 3.5-1.3.4.8.4 3.9.3 5.7 0 4-.1 7.9 1.8 9.6 4.551 3.793 7.61-6.283 8.3-9.2-2.397 4.261-4.565 6.261-5.622 6.913-.439.271-.694.488-1.058-.408zM289.4 185.6c-15.2.8-31 5.5-45.6 13.8 0 0 11-3.5 22.9-7 8.4-2.5 22.7-6.8 22.7-6.8zM297.1 201c-15.2-1.6-31.5.6-47.2 6.4 0 0 11.4-1.7 23.7-3.2 8.7-1.2 23.5-3.2 23.5-3.2zM294 221.7c-14.3-5.4-30.6-7.4-47.3-5.7 0 0 11.5 1.2 23.7 2.8 8.7 1.1 23.6 2.9 23.6 2.9z"/><path fill="#FFFAF5" d="M135.5 122.4c30.978-6.398 51.332-5.239 78.4 0-41.709-20.861-72.726-1.892-78.4 0z"/><path fill="#E0BCA2" d="M121 85.3h.6s13 10.5 20.2 34.4l8.9-3.1c-.1.1-22.1-35-29.7-31.3zM258.9 232.8c-6.712 4.474-32.181 23.966-70.338 27.619-8.124.778-19.865.798-28.342-.075-40.854-4.205-69.186-26.932-69.92-27.544l-.1-.1c8.116 29.757 61.208 41.6 84.3 41.6 20.317 0 76.582-11.927 84.4-41.5.1 0 .1 0 0 0z"/><path fill="#F6B0A6" d="m98.5 114-.8 16.5 2.3 13.3s13.424.316 12.924-14.584c0 0 3.376 3.584 3.676 3.384.2-.2 2.9-3.7 2.9-3.7v-12.1l3.8-.8 6.8 4.2 4-1.9v-8.6c-.1-.4-5.4-13.5-5.4-13.5l-10-14.3-2.7-3.4-9.3 13.5-8.2 22z"/><ellipse transform="rotate(-67.649 130.644 208.887)" fill="#F6B0A6" cx="130.656" cy="208.898" rx="7.6" ry="12.699"/><path fill="#2D2D39" d="M141.2 191.2c.6 6.6 4.7 11.6 9.1 11.2 4.4-.4 7.4-6.1 6.8-12.7-.6-6.6-4.7-11.6-9.1-11.2-4.5.4-7.6 6-6.8 12.7z"/><path fill="#2D2D39" d="M133.7 185.8c1.6 5.2 8 6 12.2 3.3l-3.4-4.2c-2 3.3-6.3 3.9-8.8.9z"/><path fill="#F9FCF8" d="M147.6 186.8c.8 2.6 2.9 4.4 4.5 3.9 1.7-.4 2.4-3.1 1.6-5.7-.8-2.6-2.9-4.4-4.5-3.9-1.7.5-2.4 3.1-1.6 5.7z"/><path fill="#2D2D39" d="M114.8 77c-.3.4-31.5 36.1-12.1 79.5.1.3.3.7.5 1l.9-.5c.2-.9.5-1.7.8-2.5-.2-.6-.4-1.2-.7-1.7-14.9-36.6 7.2-67.2 11.8-73 24.9 19.4 33 37.7 33.1 37.9l2.6-1.1c-.4-.8-8.7-19.7-35.1-39.8l-1-.8-.8 1z"/><path fill="#2D2D39" d="M110.8 123.8c.676 2.857 3.759 12.984 8.3 9.2 1.9-1.7 1.8-5.6 1.8-9.6-.1-1.8-.1-4.9.3-5.7.7 0 2.3.7 3.5 1.3 3.1 1.5 7.4 3.6 10.2 0 4.2-5.4-3.764-24.608-17.264-41.208l-2.736.908c13.9 17.1 20.3 35.2 17.7 38.6-1.3 1.6-3.5.7-6.8-.8-2.1-1.1-3.9-2-5.5-1.5-2.5.7-2.4 4.3-2.4 8.4.087 2.352.174 5.614-.466 7.011-.226.492-.35.649-1.104.283-1.788-.868-4.203-4.318-5.53-6.894zM198.6 212.7l-.3 1.8v.2l-.1.5c-.3 1.9-2.3 11.3-10.9 11.4-4.2 0-8.3-2.2-10.6-5.9-.2-.3-.3-.6-.5-.9 4.4-2.1 9.6-5.1 10.5-7.9.2-.7.1-1.3-.2-1.9-1.4-2.2-7.2-3-11.7-3.1-4.5 0-10.3.8-11.7 3.1-.4.6-.4 1.2-.2 1.9.9 2.9 6.8 6.2 10.5 7.9-.2.3-.3.6-.5.8-2.4 3.7-6.4 5.9-10.6 5.9-8.6-.1-10.6-9.5-10.9-11.4l-.1-.5v-.2l-.3-1.8-6.6 3.5 4.6-.1c.7 3.4 3.5 13.1 13.3 13.1h.1c5 0 9.8-2.7 12.5-7 2.8 4.3 7.6 6.9 12.5 7h.1c9.7 0 12.5-9.8 13.2-13.1l4.6.1-6.7-3.4zM174.7 238.6c-3.4-.1-6.7-1.1-9.8-2.8 4.2 7.2 15.5 7.2 19.7 0-3.2 1.8-6.5 2.8-9.9 2.8zM213.9 122.4c-17.73-10.131-32.933-10.071-39.052-10.105-18.418-.102-32.058 6.287-39.348 10.105 19.363-4.841 25.86-7.38 39.125-7.38 14.997 0 23.087 3.783 39.275 7.38zM60 185.6c15.2.8 31 5.5 45.6 13.8 0 0-11-3.5-22.9-7-8.4-2.5-22.7-6.8-22.7-6.8zM52.3 201c15.2-1.6 31.5.6 47.2 6.4 0 0-11.4-1.7-23.7-3.2-8.7-1.2-23.5-3.2-23.5-3.2zM55.4 221.7c14.3-5.4 30.6-7.4 47.3-5.7 0 0-11.5 1.2-23.7 2.8-8.7 1.1-23.6 2.9-23.6 2.9z"/><path fill="#3D3D44" d="M183.6 210.1c0-.5-2.3-.9-5.5-1.1-1-.1-2.2-.1-3.4-.1-1.2 0-2.3.1-3.4.1-3.2.2-5.5.6-5.5 1.1 0 .7 3.9 1.2 8.9 1.2s9-.5 8.9-1.2z"/><path fill="#2D2D39" d="M246.7 156.3c-.5-1.2-1-2.4-1.5-3.5-2.3-5.2-4-8.6-4.4-9.3.2.5 1.6 4.6 3.7 10.9.3.8.5 1.6.8 2.5 2.5 7.5 5.6 17.5 8.6 28 3.6 12.8 6.3 27 5.4 39.7-1.5 20.1-19 31.4-34.8 37.4-5.6 2.1-10.9 4.1-15.3 5.7-22.2 6.2-42.6 4.8-57 2.1-8-1.5-14.9-3.5-20.6-5.4-2.1-.8-4.3-1.6-6.5-2.5-15.8-6-33.4-17.3-34.8-37.4-.9-12.7 1.7-26.9 5.4-39.7 3-10.4 6.1-20.4 8.6-28 .2-.9.5-1.7.8-2.5 2.1-6.3 3.6-10.4 3.7-10.9-.4.7-2.1 4.1-4.4 9.3-.5 1.1-1 2.3-1.5 3.5-6.9 16.1-17 44.5-15.3 68.5 1.4 19.4 16.5 31 31.6 37.8 5.6 2.7 17.1 7.6 32.4 10.4 6.9 1.3 15.1 2.3 24.2 2.3 16 0 34.6-3 54-12.3 15.3-6.7 31-18.4 32.4-38.1 1.5-23.9-8.7-52.3-15.5-68.5z"/></g></g></svg>