<svg id="Capa_1" enable-background="new 0 0 512 512" viewBox="0 0 512 512" xmlns="http://www.w3.org/2000/svg"><g><g><g><g><circle cx="256" cy="256" fill="#dff6fd" r="248.5"/></g><g><path d="m438.36 87.213c22.619 37.449 35.64 81.346 35.64 128.287 0 137.243-111.257 248.5-248.5 248.5-72.074 0-136.969-30.695-182.36-79.713 43.512 72.043 122.558 120.213 212.86 120.213 137.243 0 248.5-111.257 248.5-248.5 0-65.169-25.098-124.467-66.14-168.787z" fill="#c8effe"/></g><g><circle cx="256" cy="256" fill="#fff" r="169"/></g><g><g><path d="m438.611 172.314-22.797-13.162c-1.868-1.079-2.037-3.708-.319-5.014 7.359-5.594 13.586-12.972 17.953-21.973 13.408-27.632 3.825-61.389-22.08-77.89-29.469-18.771-68.315-9.042-85.6 20.896-4.173 7.228-6.685 14.956-7.674 22.748-.271 2.134-2.637 3.293-4.5 2.217l-22.134-12.779c-21.581-12.46-49.47-6.432-63.184 14.374-14.9 22.606-7.451 53.042 15.671 66.391l.662.382c1.803 1.041 2.421 3.346 1.38 5.149l-8.738 15.134c-.5.866-1.323 1.497-2.289 1.756l-39.837 10.674c-17.898 4.796-30.633 19.494-33.897 36.629l7.302 1.957c4.207 1.127 7.172 4.509 7.741 8.827.568 4.317-1.421 8.352-5.193 10.529l-6.362 3.673c-1.071.618-1.636 1.764-1.475 2.99.162 1.226 1.003 2.186 2.198 2.506l57.361 15.37c3.044.816 5.5 2.695 7.026 5.227l36.174-9.691c8.062-2.16 16.349 2.624 18.51 10.687l2.411 8.999 26.791-7.179c2.709-.725 5.189-2.157 7.173-4.141l20.808-20.808c2.645-2.644 6.16-4.101 9.9-4.101 3.739 0 7.255 1.457 9.899 4.101l18.888 18.888-3.544-13.226c-.259-.966-.123-1.995.377-2.86l8.738-15.134c1.041-1.803 3.346-2.421 5.149-1.38 21.581 12.459 49.47 6.432 63.184-14.374 14.898-22.606 7.449-53.042-15.673-66.392z" fill="#c96e59"/></g><g><path d="m438.611 172.314-22.797-13.162c-1.868-1.079-2.037-3.708-.319-5.014 7.359-5.594 13.586-12.972 17.953-21.973 12.711-26.196 4.748-57.885-18.184-75.169.478 5.439.736 10.941.736 16.504 0 103.001-83.499 186.5-186.5 186.5-18.545 0-36.452-2.72-53.359-7.76-.596 2.869-2.373 5.367-5.061 6.919l-6.362 3.673c-1.071.618-1.636 1.764-1.475 2.99.162 1.226 1.003 2.186 2.198 2.506l57.361 15.37c3.044.816 5.5 2.695 7.026 5.227l36.172-9.691c8.062-2.16 16.349 2.624 18.51 10.687l2.411 8.999 26.791-7.179c2.709-.725 5.189-2.157 7.173-4.141l20.808-20.808c2.645-2.644 6.16-4.101 9.9-4.101 3.739 0 7.255 1.457 9.899 4.101l18.888 18.888-3.544-13.226c-.259-.966-.123-1.995.377-2.86l8.738-15.134c1.041-1.803 3.346-2.421 5.149-1.38 21.581 12.459 49.47 6.432 63.184-14.374 14.898-22.606 7.449-53.042-15.673-66.392z" fill="#bb5d4c"/></g></g><g><g><path d="m279.662 328.277-58.064-15.558c-1.721-.461-2.025-2.773-.482-3.664l5.029-2.903c9.863-5.695 7.918-20.471-3.083-23.419l-57.362-15.37c-1.721-.461-2.025-2.773-.482-3.664l6.362-3.673c8.924-5.152 7.164-18.522-2.79-21.189l-67.991-18.218c-6.17-1.653-12.512 2.008-14.166 8.179l-18.218 67.991c-2.667 9.953 8.031 18.162 16.955 13.01l6.362-3.673c1.543-.891 3.393.529 2.932 2.25l-15.37 57.362c-2.948 11.001 8.877 20.074 18.74 14.38l5.029-2.903c1.543-.891 3.393.529 2.932 2.25l-15.558 58.064c-4.422 16.502 13.315 30.112 28.11 21.57l51.969-30.004c2.391-1.381 5.449-.561 6.83 1.83l13.955 24.17c3.53 6.114 11.349 8.209 17.463 4.679l30.999-17.897c6.114-3.53 8.209-11.349 4.679-17.463l-13.955-24.17c-1.381-2.391-.561-5.449 1.83-6.83l51.969-30.004c14.796-8.546 11.877-30.711-4.624-35.133z" fill="#eb9c8d"/></g><g><g><path d="m188.487 379.515 13.955 24.17c3.53 6.114 1.435 13.933-4.679 17.463l-19.544 11.284 13.083 22.66c3.53 6.114 11.349 8.209 17.463 4.679l30.999-17.897c6.114-3.53 8.209-11.349 4.679-17.463l-13.955-24.17c-1.381-2.391-.561-5.449 1.83-6.83l51.969-30.005c14.795-8.542 11.877-30.707-4.625-35.129l-10.659-2.856-78.685 47.264c-2.392 1.381-3.211 4.439-1.831 6.83z" fill="#d78878"/></g></g></g><g><g><path d="m168.174 179.375 20.057-5.374c5.335-1.429 8.5-6.913 7.071-12.247l-5.374-20.057c-.454-1.696-.454-3.481 0-5.176l5.374-20.056c1.429-5.335-1.736-10.818-7.071-12.247l-20.056-5.374c-1.696-.454-3.242-1.347-4.483-2.588l-14.682-14.682c-3.905-3.905-10.237-3.905-14.142 0l-14.682 14.682c-1.241 1.241-2.787 2.134-4.483 2.588l-20.056 5.374c-5.335 1.429-8.5 6.913-7.071 12.247l5.374 20.056c.454 1.696.454 3.481 0 5.176l-5.374 20.056c-1.429 5.335 1.736 10.818 7.071 12.247l20.057 5.374c1.696.454 3.242 1.347 4.483 2.588l14.682 14.682c3.905 3.905 10.237 3.905 14.142 0l14.682-14.682c1.239-1.24 2.785-2.133 4.481-2.587z" fill="#ffbd86"/></g><g><path d="m195.301 161.753-5.374-20.057c-.454-1.696-.454-3.481 0-5.176l5.374-20.056c1.429-5.335-1.736-10.818-7.071-12.247l-20.056-5.374c-.453-.122-.894-.279-1.323-.462 1.393 5.139 2.149 10.539 2.149 16.119 0 33.966-27.534 61.5-61.5 61.5-1.786 0-3.55-.093-5.298-.242l13.5 3.617c1.696.454 3.242 1.347 4.483 2.588l14.682 14.682c3.905 3.905 10.237 3.905 14.142 0l14.682-14.682c1.241-1.241 2.787-2.134 4.483-2.588l20.057-5.374c5.334-1.43 8.5-6.913 7.07-12.248z" fill="#f6a96c"/></g></g><g><g><path d="m389.73 407.362 28.424-7.616c8.002-2.144 12.751-10.369 10.607-18.371l-7.616-28.425c-.681-2.543-.681-5.221 0-7.765l7.616-28.423c2.144-8.002-2.605-16.227-10.607-18.371l-28.424-7.616c-2.543-.681-4.862-2.02-6.724-3.882l-20.808-20.808c-5.858-5.858-15.355-5.858-21.213 0l-20.808 20.808c-1.862 1.862-4.181 3.201-6.724 3.882l-28.424 7.616c-8.002 2.144-12.751 10.369-10.607 18.371l7.616 28.424c.681 2.543.681 5.221 0 7.765l-7.616 28.424c-2.144 8.002 2.605 16.227 10.607 18.371l28.424 7.616c2.543.681 4.862 2.02 6.724 3.882l20.807 20.807c5.858 5.858 15.355 5.858 21.213 0l20.807-20.807c1.863-1.862 4.182-3.201 6.726-3.882z" fill="#ffbd86"/></g><g><path d="m428.761 381.374-7.616-28.425c-.681-2.543-.681-5.221 0-7.765l7.616-28.423c2.144-8.002-2.605-16.227-10.607-18.371l-28.424-7.616c-1.979-.53-3.818-1.463-5.416-2.725 2.394 7.726 3.686 15.938 3.686 24.451 0 45.563-36.936 82.5-82.5 82.5-11.019 0-21.525-2.177-31.135-6.098 1.285 5.105 5.217 9.384 10.664 10.843l28.424 7.616c2.543.681 4.862 2.02 6.724 3.882l20.807 20.807c5.858 5.858 15.355 5.858 21.213 0l20.807-20.807c1.862-1.862 4.181-3.201 6.724-3.882l28.424-7.616c8.004-2.144 12.753-10.369 10.609-18.371z" fill="#f6a96c"/></g><g><path d="m337.476 393.187c-4.713-4.712-10.602-8.111-17.035-9.834l-14.453-3.873c-2.667-.715-4.25-3.456-3.535-6.124l3.873-14.454c1.723-6.434 1.723-13.234 0-19.667l-3.873-14.455c-.715-2.667.868-5.409 3.536-6.124l14.453-3.873c6.433-1.723 12.323-5.124 17.034-9.834l10.581-10.581c1.953-1.953 5.118-1.953 7.071 0l10.581 10.581c4.706 4.707 10.595 8.108 17.03 9.833l14.457 3.874c2.667.715 4.25 3.456 3.536 6.124l-6.161 22.993c-.227.848-.227 1.74 0 2.588l6.161 22.994c.715 2.667-.868 5.409-3.535 6.124l-14.455 3.873c-6.433 1.723-12.323 5.124-17.033 9.834l-10.58 10.581c-1.953 1.953-5.118 1.953-7.071 0z" fill="#f6a96c"/></g><g><path d="m400.731 373.355-6.161-22.994c-.227-.848-.227-1.74 0-2.588l6.161-22.993c.715-2.667-.868-5.409-3.536-6.124l-9.287-2.489c-1.489 34.006-23.552 62.671-54.06 73.832 1.272.983 2.486 2.044 3.629 3.187l10.58 10.58c1.953 1.953 5.119 1.953 7.071 0l10.58-10.581c4.71-4.71 10.601-8.111 17.033-9.834l14.455-3.873c2.666-.714 4.249-3.455 3.535-6.123z" fill="#ea9b58"/></g></g></g></g><g><path d="m442.185 80.327c-5.148-12.937-14.256-24.395-26.787-32.377-7.713-4.913-16.113-8.164-24.8-9.72-40.384-25.011-86.886-38.23-134.598-38.23-51.898 0-101.884 15.459-144.555 44.707-3.417 2.342-4.288 7.01-1.946 10.427 1.454 2.121 3.803 3.261 6.193 3.26 1.461 0 2.938-.426 4.233-1.314 40.164-27.529 87.218-42.08 136.075-42.08 36.818 0 72.867 8.363 105.604 24.341-18.007 4.6-33.024 15.962-42.33 32.081-3.458 5.988-5.958 12.364-7.468 19.022l-16.595-9.582c-17.347-10.016-37.953-9.677-54.274-.713-20.009 1.691-39.369 6.727-57.618 14.988l-13.203-3.538c-.424-.114-.812-.337-1.122-.647l-14.682-14.682c-6.824-6.824-17.926-6.823-24.749 0l-14.682 14.682c-.31.31-.698.534-1.121.647l-20.057 5.375c-9.321 2.498-14.872 12.113-12.374 21.433l5.374 20.055c.113.424.113.872 0 1.295l-5.374 20.056c-1.21 4.515-.589 9.231 1.748 13.279s6.111 6.944 10.626 8.154l2.115.567c-5.579 12.025-9.769 24.631-12.506 37.609-1.822 2.132-3.177 4.647-3.925 7.435l-18.218 67.991c-2.003 7.476.67 15.35 6.81 20.061 4.716 3.619 10.705 4.779 16.266 3.369l-1.312 4.897c-1.072 4.001 1.303 8.113 5.304 9.186 4.003 1.069 8.113-1.302 9.186-5.304l4.485-16.739c.999-3.725-.333-7.649-3.393-9.997s-7.195-2.618-10.533-.69l-6.363 3.673c-2.124 1.227-3.86.201-4.508-.295-.648-.497-2.087-1.91-1.452-4.278l18.218-67.991c.281-1.049.954-1.926 1.894-2.469.94-.542 2.036-.688 3.085-.406l67.991 18.218c2.369.634 2.873 2.586 2.979 3.396.107.81.125 2.826-1.999 4.052l-6.36 3.672c-2.586 1.492-4.252 4.059-4.647 6.915-.041.296-.069.591-.082.885-.007.16-.01.32-.009.481.002.313.02.625.053.933.009.085.003.168.014.253s.038.164.052.249c.045.283.104.562.174.838.056.221.12.438.191.653.068.206.143.41.225.611.107.262.226.516.355.767.079.154.161.306.249.456.151.257.314.503.487.743.1.139.202.277.311.411.16.198.326.387.502.571.152.16.309.316.473.466.146.133.294.263.448.387.217.175.443.339.677.496.161.108.326.209.495.307.029.017.056.036.085.053.061.035.127.058.189.091.643.346 1.319.643 2.047.839l57.362 15.37c3.078.825 3.732 3.361 3.871 4.414.139 1.052.163 3.672-2.596 5.266l-5.028 2.903c-3.34 1.928-5.172 5.644-4.669 9.468.503 3.823 3.235 6.938 6.959 7.936l51.561 13.816 3.577 13.347c.34 1.27.34 2.612 0 3.882l-2.922 10.904-43.305 25.002c-2.892 1.669-4.96 4.365-5.824 7.59s-.42 6.594 1.249 9.485l13.882 24.044c.037.072.073.144.113.215.666 1.203.844 2.589.488 3.921-.365 1.363-1.239 2.502-2.462 3.208l-30.999 17.897c-1.223.706-2.647.893-4.01.528s-2.502-1.239-3.208-2.462l-13.955-24.169c-1.669-2.892-4.365-4.961-7.59-5.825s-6.594-.421-9.485 1.249l-51.969 30.004c-4.23 2.442-9.07 2.125-12.945-.849s-5.435-7.566-4.17-12.285l15.558-58.063c.999-3.725-.333-7.648-3.392-9.996-3.06-2.348-7.194-2.62-10.534-.691l-5.029 2.903c-2.759 1.592-5.016.262-5.858-.384s-2.712-2.481-1.887-5.56l1.825-6.812c1.072-4.001-1.303-8.113-5.304-9.186-4-1.071-8.113 1.303-9.186 5.304l-1.825 6.812c-2.164 8.075.612 16.252 7.245 21.342 4.841 3.715 10.742 5.02 16.389 3.827l-10.036 37.454c-20.545-20.497-37.052-44.211-49.106-70.687-14.293-31.396-21.541-64.95-21.541-99.73 0-34.418 7.103-67.653 21.111-98.781 13.535-30.076 32.788-56.666 57.225-79.033 3.055-2.796 3.265-7.541.468-10.596-2.797-3.056-7.541-3.265-10.596-.468-25.95 23.752-46.398 51.995-60.775 83.942-14.886 33.076-22.433 68.381-22.433 104.936 0 36.939 7.702 72.585 22.891 105.946 14.194 31.176 34.179 58.756 59.396 82.054.372 7.632 4.029 14.738 10.433 19.652 4.84 3.714 10.484 5.596 16.177 5.596 1.597 0 3.197-.157 4.785-.455 42.181 28.274 91.308 43.207 142.318 43.207 68.38 0 132.667-26.629 181.019-74.98 48.353-48.353 74.981-112.64 74.981-181.02 0-65.667-24.787-127.976-69.815-175.673zm-207.646 25.531c11.434-17.345 34.789-22.619 53.171-12.006l22.134 12.779c3.06 1.767 6.776 1.884 9.94.314 3.157-1.566 5.307-4.587 5.751-8.082.894-7.047 3.158-13.757 6.729-19.942 7.36-12.749 19.291-21.697 33.595-25.198 14.293-3.499 29.026-1.056 41.481 6.877 22.862 14.563 31.186 43.921 19.361 68.291-3.728 7.683-9.025 14.168-15.744 19.276-2.81 2.136-4.354 5.513-4.132 9.034.223 3.523 2.181 6.68 5.239 8.446l22.796 13.162c9.442 5.452 16.037 14.35 18.569 25.055 2.526 10.681.604 21.588-5.41 30.713-11.432 17.345-34.787 22.619-53.171 12.006-5.382-3.106-12.288-1.256-15.395 4.125l-8.062 13.963-3.891-3.891c-4.25-4.25-9.9-6.59-15.91-6.59s-11.66 2.34-15.91 6.59l-20.808 20.808c-.93.93-2.092 1.601-3.363 1.941l-19.546 5.238-.211-.788c-1.563-5.834-5.305-10.711-10.536-13.731s-11.326-3.822-17.159-2.259l-15.016 4.024 3.578-6.197c.995-1.723 1.264-3.77.75-5.691-.515-1.921-1.772-3.56-3.495-4.554l-11.472-6.623 6.623-11.472c2.071-3.587.842-8.174-2.745-10.245l-11.472-6.623 6.623-11.472c2.071-3.587.842-8.174-2.745-10.245l-5.335-3.08 7.552-2.023c2.908-.779 5.337-2.644 6.843-5.25l8.737-15.134c1.506-2.607 1.906-5.644 1.126-8.551-.779-2.908-2.644-5.338-5.25-6.843l-.663-.382c-9.442-5.452-16.037-14.35-18.569-25.055-2.523-10.681-.603-21.589 5.412-30.715zm54.744 237.386-7.616-28.423c-.519-1.935-.252-3.957.749-5.691s2.619-2.976 4.554-3.494l28.423-7.616c3.81-1.02 7.298-3.034 10.088-5.824l20.808-20.808c1.417-1.417 3.3-2.197 5.303-2.197s3.887.78 5.304 2.197l20.808 20.808c2.789 2.789 6.276 4.803 10.086 5.824l28.424 7.616c3.994 1.07 6.373 5.191 5.303 9.186l-7.615 28.422c-1.021 3.81-1.021 7.838 0 11.647l7.616 28.425c.519 1.935.252 3.957-.749 5.691s-2.619 2.976-4.554 3.494l-28.424 7.616c-3.81 1.021-7.298 3.035-10.086 5.823l-20.807 20.808c-1.417 1.417-3.3 2.197-5.304 2.197-2.003 0-3.887-.78-5.303-2.197l-20.807-20.807c-2.789-2.789-6.276-4.802-10.087-5.824l-28.424-7.616c-3.994-1.07-6.373-5.191-5.303-9.186l7.616-28.424c1.018-3.809 1.018-7.837-.003-11.647zm95.197-71.24 6.161-10.671c7.843 3.861 16.228 5.717 24.508 5.716.658 0 1.312-.036 1.968-.059-.51 7.596-1.559 15.125-3.117 22.523l-22.329-5.983c-1.27-.34-2.433-1.012-3.362-1.941l-1.723-1.723zm-286.894-105.247c-1.332-.357-2.125-1.73-1.768-3.062l5.374-20.057c.793-2.962.793-6.094 0-9.058l-5.375-20.057c-.356-1.332.437-2.705 1.768-3.062l20.056-5.374c2.963-.793 5.676-2.36 7.846-4.53l14.682-14.682c.487-.487 1.127-.731 1.768-.731.64 0 1.28.244 1.768.731l14.682 14.682c2.169 2.169 4.881 3.735 7.845 4.53l20.056 5.374c.87.233 1.325.83 1.518 1.165s.483 1.027.25 1.897l-5.374 20.057c-.793 2.962-.793 6.095 0 9.058l5.375 20.058c.233.87-.057 1.562-.25 1.896s-.647.932-1.518 1.165l-20.057 5.375c-2.963.794-5.675 2.36-7.845 4.529l-14.682 14.682c-.975.975-2.562.975-3.536 0l-14.682-14.682c-2.169-2.169-4.881-3.735-7.845-4.53zm58.705 60.967-53.551-14.349c-.8-.214-1.607-.357-2.415-.466 2.578-9.333 5.995-18.416 10.222-27.15l3.213.861c.424.114.812.337 1.122.647l14.682 14.682c3.412 3.412 7.893 5.118 12.375 5.118 4.481 0 8.962-1.706 12.374-5.118l14.682-14.682c.31-.31.697-.533 1.12-.646h.001l20.056-5.375c4.515-1.21 8.289-4.105 10.626-8.154 2.337-4.048 2.958-8.764 1.749-13.279l-5.374-20.057c-.113-.424-.113-.872 0-1.294l5.374-20.056c1.209-4.515.588-9.231-1.749-13.279-.147-.255-.317-.492-.476-.738 6.97-2.563 14.089-4.646 21.338-6.215-8.023 12.495-10.562 27.327-7.127 41.852 3.212 13.583 11.576 25.473 23.139 33.038l-6.141 10.636-38.346 10.274c-17.255 4.623-30.837 17.235-36.894 33.75zm68.711 47.764-45.519-12.196c4.002-4.111 5.992-9.878 5.216-15.771-1.003-7.62-6.421-13.835-13.819-15.882 4.608-11.337 14.156-19.953 26.186-23.177l11.795-3.161 11.83 6.83-6.623 11.472c-2.071 3.587-.842 8.174 2.745 10.245l11.472 6.623-6.623 11.472c-2.071 3.587-.842 8.174 2.745 10.245l11.472 6.623-5.256 9.103c-1.698-1.056-3.583-1.88-5.621-2.426zm44.424 26.141c-2.725 4.72-3.615 10.145-2.601 15.444l-31.843-8.532c3.53-3.932 5.347-9.092 5.02-14.576l27.939-7.487c1.963-.525 4.016-.256 5.777.761s3.021 2.658 3.547 4.623l.413 1.541c-3.394 1.949-6.243 4.746-8.252 8.226zm-31.194 97.027 28.398-16.396c-.67 4.914.275 9.882 2.795 14.247 3.005 5.205 7.857 8.928 13.662 10.483l16.75 4.488c-14.185 4-28.862 6.022-43.838 6.022-2.265 0-4.613-.07-6.989-.175zm188.181 27.757c-45.519 45.519-106.039 70.587-170.413 70.587-44.945 0-88.341-12.308-126.267-35.702l42.368-24.461 12.705 22.004c2.709 4.692 7.083 8.049 12.316 9.451 5.234 1.402 10.7.683 15.392-2.026l30.999-17.897c4.692-2.709 8.049-7.083 9.451-12.316.317-1.183.51-2.379.612-3.574.813.012 1.625.021 2.424.021 21.796 0 43.02-3.924 63.169-11.658l16.513 16.513c4.25 4.25 9.9 6.59 15.91 6.59s11.661-2.34 15.91-6.59l20.807-20.808c.93-.929 2.092-1.601 3.363-1.941l28.424-7.616c5.805-1.556 10.657-5.279 13.662-10.483 3.005-5.205 3.803-11.268 2.248-17.073l-7.617-28.426c-.34-1.269-.34-2.611 0-3.882l7.616-28.423c1.555-5.805.757-11.868-2.248-17.073-1.468-2.543-3.383-4.726-5.629-6.481 2.283-10.091 3.678-20.422 4.161-30.84 11.254-3.673 21.33-10.969 28.255-21.475 8.312-12.611 10.969-27.677 7.482-42.42-3.442-14.555-12.797-27.164-25.666-34.593l-17.255-9.962c6.241-5.768 11.303-12.612 15.09-20.417 4.13-8.51 6.328-17.495 6.767-26.442 32.415 41.985 50.038 93.295 50.038 147 0 64.374-25.068 124.894-70.587 170.413z"/><path d="m337.78 176.277c1.182.682 2.471 1.007 3.744 1.007 2.591 0 5.112-1.345 6.501-3.75l.504-.873c2.072-3.587.843-8.174-2.744-10.246-3.588-2.071-8.174-.843-10.246 2.744l-.504.873c-2.07 3.587-.842 8.174 2.745 10.245z"/><path d="m322.667 202.453c1.182.682 2.471 1.007 3.744 1.007 2.591 0 5.112-1.345 6.501-3.75l.504-.873c2.072-3.587.843-8.174-2.744-10.246-3.586-2.071-8.174-.843-10.246 2.744l-.504.873c-2.07 3.587-.841 8.174 2.745 10.245z"/><path d="m307.554 228.63c1.182.682 2.471 1.007 3.744 1.007 2.591 0 5.112-1.345 6.501-3.75l.504-.873c2.072-3.587.843-8.174-2.744-10.246-3.586-2.071-8.174-.843-10.246 2.744l-.504.873c-2.07 3.587-.842 8.174 2.745 10.245z"/><path d="m362.075 94.904c1.182.682 2.471 1.007 3.744 1.007 2.591 0 5.112-1.345 6.501-3.75l.504-.873c2.072-3.587.843-8.174-2.744-10.246-3.586-2.071-8.174-.843-10.246 2.744l-.504.873c-2.071 3.587-.842 8.174 2.745 10.245z"/><path d="m396.104 114.551c1.182.682 2.471 1.007 3.744 1.007 2.591 0 5.112-1.345 6.501-3.75l.504-.873c2.072-3.587.843-8.174-2.744-10.246-3.587-2.071-8.174-.843-10.246 2.744l-.504.873c-2.07 3.587-.842 8.173 2.745 10.245z"/><path d="m361.726 134.804c5.115 2.953 10.791 4.461 16.542 4.461 2.882 0 5.785-.379 8.644-1.145 4.001-1.072 6.375-5.185 5.304-9.186-1.072-4.001-5.187-6.372-9.186-5.304-4.694 1.257-9.596.611-13.805-1.817-4.208-2.43-7.219-6.353-8.476-11.046-1.072-4.001-5.188-6.374-9.186-5.304-4.001 1.072-6.375 5.185-5.304 9.186 2.297 8.564 7.789 15.722 15.467 20.155z"/><path d="m253.345 154.868 2.617 1.511c1.182.682 2.471 1.006 3.744 1.006 2.591 0 5.113-1.345 6.502-3.751 2.071-3.587.842-8.174-2.745-10.246l-2.617-1.511c-3.587-2.07-8.174-.843-10.246 2.745-2.071 3.588-.842 8.175 2.745 10.246z"/><path d="m264.932 134.799 2.618 1.511c1.181.682 2.471 1.006 3.743 1.006 2.592 0 5.113-1.346 6.502-3.751 2.071-3.587.842-8.174-2.745-10.245l-2.618-1.511c-3.587-2.072-8.175-.842-10.245 2.745-2.071 3.588-.842 8.175 2.745 10.245z"/><path d="m276.518 114.73 2.618 1.512c1.182.682 2.471 1.007 3.744 1.007 2.591 0 5.112-1.345 6.501-3.75 2.072-3.587.843-8.174-2.744-10.246l-2.618-1.512c-3.587-2.071-8.174-.843-10.246 2.744-2.071 3.587-.842 8.174 2.745 10.245z"/><path d="m406.04 225.706-2.618-1.511c-3.587-2.072-8.175-.842-10.245 2.745-2.071 3.587-.842 8.174 2.745 10.245l2.618 1.511c1.181.682 2.471 1.006 3.743 1.006 2.592 0 5.113-1.346 6.502-3.751 2.071-3.587.842-8.174-2.745-10.245z"/><path d="m404.764 206.871c-2.071 3.587-.842 8.174 2.745 10.245l2.618 1.511c1.181.682 2.471 1.006 3.743 1.006 2.592 0 5.113-1.346 6.502-3.751 2.071-3.587.842-8.174-2.745-10.245l-2.618-1.511c-3.587-2.072-8.175-.842-10.245 2.745z"/><path d="m419.096 197.048 2.618 1.511c1.181.682 2.471 1.006 3.743 1.006 2.592 0 5.113-1.346 6.502-3.751 2.071-3.587.842-8.174-2.745-10.245l-2.618-1.511c-3.587-2.072-8.175-.842-10.245 2.745-2.072 3.587-.842 8.174 2.745 10.245z"/><path d="m133.047 367.775c1.273 0 2.563-.325 3.745-1.007 3.586-2.072 4.814-6.659 2.742-10.246l-.544-.942c-2.072-3.586-6.659-4.814-10.246-2.742-3.586 2.072-4.814 6.659-2.742 10.246l.544.942c1.39 2.405 3.91 3.749 6.501 3.749z"/><path d="m162.256 350.912c1.272 0 2.563-.325 3.744-1.007 3.587-2.071 4.816-6.658 2.744-10.246l-.544-.941c-2.071-3.587-6.66-4.815-10.245-2.744-3.587 2.071-4.816 6.658-2.744 10.245l.544.942c1.389 2.406 3.909 3.751 6.501 3.751z"/><path d="m197.409 321.855c-2.071-3.587-6.657-4.818-10.245-2.746-3.587 2.071-4.817 6.657-2.746 10.245l.544.942c1.389 2.406 3.91 3.752 6.502 3.752 1.272 0 2.562-.324 3.743-1.006 3.587-2.071 4.817-6.657 2.746-10.245z"/><path d="m111.906 283.414c-3.587 2.071-4.816 6.658-2.744 10.245l.544.942c1.389 2.406 3.91 3.75 6.501 3.75 1.272 0 2.563-.325 3.744-1.007 3.587-2.071 4.816-6.658 2.744-10.246l-.544-.941c-2.071-3.587-6.66-4.815-10.245-2.743z"/><path d="m139.762 284.752c1.272 0 2.563-.325 3.744-1.007 3.587-2.071 4.816-6.658 2.744-10.246l-.544-.941c-2.071-3.587-6.659-4.816-10.245-2.744-3.587 2.071-4.816 6.658-2.744 10.245l.544.942c1.389 2.407 3.909 3.751 6.501 3.751z"/><path d="m120.243 256.987c-2.072-3.586-6.66-4.814-10.246-2.742s-4.814 6.659-2.742 10.246l.544.942c1.39 2.405 3.91 3.75 6.501 3.75 1.273 0 2.563-.325 3.745-1.007 3.586-2.072 4.814-6.659 2.742-10.246z"/><path d="m117.842 420.714c-1.072 4.001 1.302 8.114 5.303 9.186.65.174 1.303.257 1.946.257 3.311 0 6.342-2.21 7.24-5.561l4.629-17.278 17.278 4.629c3.999 1.073 8.113-1.302 9.186-5.303l4.629-17.278 17.278 4.629c4 1.074 8.113-1.302 9.186-5.303l4.629-17.278 17.277 4.63c1.922.515 3.969.246 5.691-.75 1.723-.995 2.979-2.633 3.495-4.554l4.629-17.278 17.278 4.63c3.996 1.068 8.114-1.302 9.186-5.304 1.072-4.001-1.303-8.113-5.303-9.186l-24.523-6.571c-3.997-1.071-8.113 1.302-9.186 5.304l-4.629 17.278-17.277-4.63c-4-1.068-8.113 1.302-9.186 5.303l-4.629 17.278-17.278-4.629c-3.999-1.072-8.113 1.302-9.186 5.303l-4.629 17.278-17.278-4.629c-3.998-1.073-8.113 1.302-9.186 5.303z"/><path d="m108.44 350.031c.65.174 1.303.257 1.946.257 3.311 0 6.342-2.21 7.24-5.561l3.501-13.067 13.067 3.501c3.996 1.068 8.114-1.302 9.186-5.304l3.501-13.066 13.067 3.501c4 1.072 8.114-1.302 9.186-5.304l3.501-13.066 13.067 3.501c3.997 1.07 8.113-1.302 9.186-5.304 1.072-4.001-1.303-8.113-5.304-9.186l-20.312-5.442c-3.995-1.068-8.113 1.302-9.186 5.303l-3.501 13.067-13.067-3.501c-3.998-1.073-8.113 1.302-9.186 5.303l-3.501 13.067-13.067-3.501c-1.919-.514-3.968-.245-5.691.75s-2.979 2.633-3.495 4.554l-5.442 20.312c-1.071 4.002 1.303 8.114 5.304 9.186z"/><path d="m141.938 115.58c4.142 0 7.5-3.358 7.5-7.5v-1.052c0-4.142-3.358-7.5-7.5-7.5s-7.5 3.358-7.5 7.5v1.052c0 4.142 3.358 7.5 7.5 7.5z"/><path d="m141.938 178.689c4.142 0 7.5-3.358 7.5-7.5v-1.052c0-4.142-3.358-7.5-7.5-7.5s-7.5 3.358-7.5 7.5v1.052c0 4.143 3.358 7.5 7.5 7.5z"/><path d="m110.405 129.563.911.526c1.181.683 2.471 1.007 3.744 1.007 2.591 0 5.112-1.345 6.501-3.751 2.072-3.587.843-8.174-2.744-10.245l-.911-.526c-3.586-2.072-8.173-.844-10.245 2.744-2.072 3.587-.843 8.174 2.744 10.245z"/><path d="m165.059 161.118.911.526c1.181.683 2.471 1.007 3.744 1.007 2.591 0 5.112-1.345 6.501-3.751 2.072-3.587.843-8.174-2.744-10.245l-.911-.526c-3.586-2.072-8.173-.843-10.245 2.744-2.072 3.586-.843 8.173 2.744 10.245z"/><path d="m168.816 131.096c1.272 0 2.562-.325 3.744-1.007l.911-.526c3.587-2.071 4.816-6.658 2.744-10.245s-6.658-4.815-10.245-2.744l-.911.526c-3.587 2.071-4.816 6.658-2.744 10.245 1.389 2.405 3.91 3.751 6.501 3.751z"/><path d="m114.162 162.65c1.272 0 2.562-.325 3.744-1.007l.911-.526c3.587-2.071 4.816-6.658 2.744-10.245s-6.658-4.815-10.245-2.744l-.911.526c-3.587 2.071-4.816 6.658-2.744 10.245 1.389 2.406 3.909 3.751 6.501 3.751z"/><path d="m360.43 409.07 10.58-10.58c3.781-3.781 8.508-6.51 13.671-7.893l14.456-3.874c3.225-.864 5.92-2.933 7.589-5.824 1.669-2.892 2.113-6.261 1.249-9.485l-5.988-22.347 5.987-22.346c.865-3.225.421-6.594-1.249-9.486-1.669-2.891-4.365-4.959-7.59-5.824l-14.456-3.873c-5.165-1.385-9.892-4.113-13.669-7.892l-10.581-10.582c-4.873-4.872-12.803-4.872-17.677.001l-10.581 10.581c-3.78 3.78-8.508 6.509-13.671 7.893l-14.454 3.873c-6.657 1.784-10.622 8.652-8.838 15.309l1.934 7.22c1.072 4.001 5.187 6.374 9.186 5.304 4.001-1.072 6.375-5.184 5.304-9.186l-1.288-4.806 12.038-3.225c7.704-2.063 14.757-6.135 20.396-11.775l8.813-8.813 8.812 8.812c5.636 5.638 12.687 9.709 20.393 11.775l12.042 3.227-5.514 20.579c-.567 2.116-.567 4.353 0 6.469l5.514 20.58-12.039 3.226c-7.703 2.063-14.755 6.135-20.396 11.775l-8.812 8.813-8.813-8.813c-5.641-5.64-12.694-9.712-20.396-11.775l-12.038-3.226 1.056-3.941c1.072-4.001-1.302-8.114-5.303-9.186-3.997-1.068-8.114 1.302-9.186 5.303l-1.703 6.355c-.865 3.225-.421 6.594 1.248 9.486 1.669 2.891 4.365 4.959 7.59 5.824l14.454 3.873c5.163 1.383 9.891 4.112 13.672 7.893l10.581 10.581c2.437 2.436 5.638 3.654 8.838 3.654 3.201.001 6.403-1.217 8.839-3.654z"/></g></g><g/><g/><g/><g/><g/><g/><g/><g/><g/><g/><g/><g/><g/><g/><g/></svg>