<svg id="Layer_3" enable-background="new 0 0 1000 1000" height="1000" viewBox="0 0 1000 1000" width="1000" xmlns="http://www.w3.org/2000/svg"><g><path d="m433.1 781.6c-87.8-2.8-135.6-33.5-161.4-69.2 6.7 11.9 11.8 18.7 11.8 18.7 11.9 43.8 25.9 41.1 25.9 41.1 36.7-.5 35.7 37.3 31.3 48.6-4.3 11.3-63.7 9.2-75.6 9.2s-25.9-12.4-71.8-42.7-72.3-74.1-72.3-74.1-38.6-1.1-69.1-1.5c-30.6-.4-5.3-36.4-5.3-36.4-83.9-78.3 24.1-173.7 23.5-172.7 48.8-134.6 126.6-167.7 195.1-175.2 112.6-12.3 213.8 87.4 213.4 102 8.6-19.6 18.6-42 18.6-42 52 29 79.5 123 79.5 123 42.8 27.5 49.7 101.6 53.5 110.8 3.8 9.1 20.6 167.3-197.1 160.4z" fill="#ffc363"/><path d="m902.9 794.6c-10.4 57.7-64.1 99.6-115.7 91.9-51.1-7.6-90.8-51.1-90.8-102.7s47.4-97.9 99-100.6c55.2-2.8 118.2 51.8 107.5 111.4z" fill="#f8a2ac"/><path d="m288.7 520.7-43.2 56.2s-30.6-66.5-32.5-95.1c0 0 69.2 28.6 75.7 38.9z" fill="#f9eba5"/><path d="m838 683.1-21.4 3.8s-45.1-7.6-61.5 5-31.3 20.2-31.3 20.2l-97.8-36.7s12.6-43.2-3.8-86.3c-16.4-43.2-28.6-64.2-28.6-64.2s179.2 118 185.7 117.7c6.3-.4 93.1-32.9 58.7 40.5zm-591.3-561.9c-43.8 30.8 14 73.5 51.3 120.5s7 85.4 7 85.4l46.5 7c35.7-21.2 44.5-73.9 37.8-122.6-8.7-64.6-98.8-121.1-142.6-90.3z" fill="#fea142"/><path d="m170.2 437.1c-5.9 15.2-10.9 16.2-18.3 14.1-5.9-1.7-5.2-9.5-5.4-9.5 15.4-80.7 123-116.1 123-116.1l52.7 10.7c-63.3-7.7-146.1 85.8-152 100.8zm277 21.2c-19.4-10.8-44.8-.5-44.8-.5s49.7 41.9 56.2 88.9c6.3 45.5 9.2 55.9 17.3 58.6s17.8-7 13-36.7c-5-29.8-22.3-99.5-41.7-110.3zm-105.9 14s49.7 54.6 54.6 70.8 11.9 17.3 18.4 16.7c6.5-.5 19.4-13.5-38.4-96.2zm169.3-.1-37.8-9.2s42 39.1 52.7 56.2c8.3 13.2 13 18.3 18.7 17.6 5.7-.8 5.4-26-33.6-64.6zm-80.7-58.5s15.4 5.9 18.6 1.6-.3-7-.3-7-133.7-67-211 13.5c0 0-5.7 6.5-3 12.7s15.4 3.2 24.8-3.5c9.6-6.7 83.1-48.3 170.9-17.3z" fill="#dc8b4a"/><path d="m561.8 688.4c.3 1.3 2.6 13-4 19.8-2.5 2.6-7.1 5.3-15.3 3.9-13.8-2.4-36.4-.6-41.3.5-.5.3-1.2.5-1.9.6-1 .3-9.1 2.6-37.8 17.8-9.7 5.1-18.5 7.7-26.1 7.7-3.4 0-6.6-.5-9.5-1.5-9.4-3.2-12.8-10.3-13.1-11.1l9.9-4.5v-.1c.1.2 1.9 3.8 7 5.4 6.6 2.1 15.8.2 26.7-5.6 26.6-14.1 36.6-17.7 39.8-18.6 2.3-1 7.2-1.9 18.5-2.5 6.7-.4 19.5-.7 29.6 1.1 1.9.3 4.4.5 5.6-.7 1.8-1.9 1.8-7.1 1.2-10s1.3-5.8 4.2-6.4c3-.6 5.8 1.3 6.5 4.2zm-78.9 9.3c4.8 0 9.9-1.3 14.1-3.5 2.5-1.3 6.8-4.1 10.4-6.7 5.8-4.2 9.2-7.1 8.1-11.3-.6-2.6-3-4.3-5.8-4.3-1.2 0-2.5.3-4.3.9-2 .7-20.4 5.3-36.6 9.3-1.9.5-3.4 1.9-4 3.9-.5 1.9 0 3.9 1.5 5.3 4.4 4.1 10.1 6.4 16.6 6.4zm-51-24.9c1.8 0 3.6-.9 4.6-2.6 1.6-2.6.8-5.9-1.8-7.5-12.3-7.6-88.5-14.1-103.6-15.3-3-.2-5.6 2-5.9 5-.2 3 2 5.6 5 5.9 34.1 2.8 91 8.9 98.8 13.7 1 .6 1.9.8 2.9.8zm88.8-15.9c.8.4 1.7.6 2.5.6 2 0 3.8-1.1 4.8-2.9 4.2-8 39-29.9 62.4-42.9 2.6-1.5 3.6-4.8 2.1-7.4s-4.8-3.6-7.4-2.1c-9.9 5.5-59.5 33.6-66.7 47.3-1.4 2.7-.4 6 2.3 7.4zm472 81.9c-2.5 1.7-5.8 1.2-7.6-1.3-2.7-3.8-10.2-11.3-15.5-9.9-2.8.7-12.2 6.4-16.3 47.8-3.3 33.7-14 57-31.6 69.4-10.9 7.6-22 9.3-29.7 9.3-5.7 0-9.5-.9-9.8-1-.4-.1-.8-.3-1.2-.5-20.8 24.5-50.6 40.2-81.6 40.2-4.4 0-8.8-.3-13.1-1-54.3-8-95.3-54.4-95.3-108 0-24.1 9.8-47.4 25.7-66-25.1-6.5-71.7-27-86-33.4-1.4 4.5-3.1 9-5.2 13.6-.2.8-.5 1.4-.9 2-2.8 6-6.1 12.1-10.1 18.1-13.8 20.6-33.2 36.9-57.9 48.4-29.4 13.7-66.4 20.7-109.9 20.7-4.5 0-9.1-.1-13.7-.2-37.2-1.2-69.4-7.4-96.4-18.4-.9-.1-1.8-.5-2.6-1.1-15.4-6.6-29.1-14.8-41.1-24.7 7.9 21.8 15.3 23.7 16 23.8h.4c17.7-.2 27 7.7 31.7 14.4 9.2 13.2 8.4 32.3 4.8 41.6-3.5 9.2-21 12.8-63.5 12.8-3.8 0-7.8 0-12-.1-2.2 0-4-.1-5.2-.1-10.5 0-20.5-6.9-44.9-23.5-8-5.4-18-12.2-29.9-20.1-40.6-26.7-65.9-63.3-72.4-73.2-9.5-.3-40.8-1.1-66.2-1.4-9.3-.1-15.6-3.2-18.7-9.1-5.2-10.2 2-24.6 6.4-31.9-24.1-23.8-35.7-49.6-34.4-77 2.3-50.4 48.2-90.1 60.4-99.8 22.4-61.2 53.2-107 91.5-136.2 30.1-23 65.3-36.4 107.6-41 12.7-1.4 25.3-1.4 37.6-.3 5.2-8 21.5-39-8.4-76.6-7.8-9.8-16.6-19.6-25.1-29-23.4-25.9-45.4-50.3-42.9-72.8 1.1-10.1 7.1-19 17.8-26.5 17.8-12.6 44-12.8 71.8-.7 34 14.8 73.4 50.8 79.3 94.6 3.6 26.8 2.5 52.3-3.2 73.8-5.9 22.2-16.8 39.5-31.7 50.5 58.6 21.5 103.8 62 118.1 81.4.1.1.1.2.2.3 6-13.7 11.9-26.8 14-31.5.6-1.4 1.8-2.5 3.3-2.9 1.4-.5 3-.3 4.4.4 49.7 27.8 77.1 110.2 81.4 124.3 5.5 3.8 10.4 8.3 14.8 13.2.1.1.2.1.3.2 64.7 42.7 169.9 110.9 183 116.6 1-.2 2.7-.7 4.2-1.1 15.9-4.3 49.1-13.1 62.6 3 8 9.5 6.9 24.7-3.3 46.5-.3.7-.8 1.2-1.3 1.7 16.7 7.4 32.2 18.9 44.4 33.5 19 22.7 26.9 49.3 22.3 75v.1c-3.1 17.3-10.1 33.4-19.8 47.3 5.5.5 16.5.3 27.2-7.3 14.8-10.5 23.8-31.2 26.8-61.4 3.5-35.1 11.5-53.9 24.3-57.3 14-3.7 25.8 12.3 27.1 14.1 2 2.6 1.5 5.9-1 7.7zm-671.8-435.8c-1.6 8.5-4.5 15.4-7 20.1 11.4 1.7 22.6 4.3 33.4 7.6.4-.5.9-1 1.5-1.3 34.9-20.7 41.1-74.1 35.2-117.2-5.4-39.7-41.6-72.4-72.9-86.1-24.2-10.6-46.6-10.7-61.2-.4-8.1 5.7-12.5 11.9-13.2 18.8-2 17.7 18.5 40.3 40.2 64.3 8.6 9.5 17.5 19.4 25.5 29.5 20.5 25.9 21.4 49.4 18.5 64.7zm-42.7 429.5c-.3-1.1-.2-2.3.2-3.3-1.8-2-3.6-4-5.3-6.1-23.9-28.9-32.2-62.1-34.8-84.9-2.3-19.3-1.1-34.3-.4-40.3-38.6-40.5-38.6-128.9-38.6-132.7 0-.8.2-1.6.5-2.3.7-1.5 2.1-2.6 3.8-3 3.3-.7 7.5-1.1 13-1.1 31.7 0 94 12.1 105.8 14.4 31.1-15.7 64.2-23.6 98.3-23.6 14.8 0 26.8 1.5 34.8 2.5 3 .4 5.5.7 7.3.8 1.9-4.9 5.9-14.1 10.4-24.3-2.7-7.1-25.9-33.3-63.5-57-33.6-21.2-85.9-45.2-143.6-38.9-57.3 6.3-139.5 30.9-190.6 171.6-.4 1-1 1.8-1.8 2.4-9.5 7.3-55.5 45.3-57.7 92.9-1.1 24.6 9.8 48.2 32.5 70 8.5-.7 27.2-1.3 34.7 5.1 2.3 1.9 2.6 5.4.7 7.7-1.1 1.3-2.6 1.9-4.2 1.9-1.2 0-2.5-.4-3.5-1.3-3-2.6-15.7-3.3-26.6-2.6-4.5 7.2-9.2 18-6.8 22.6 1.3 2.6 5.7 3.2 9.1 3.2 22.5.3 49.6 1 62.2 1.3-11.8-55.9 7.8-89.6 26.8-108.3 21.4-20.9 46.1-27.5 47.1-27.7 2.9-.8 5.9 1 6.6 3.9.8 2.9-1 5.9-3.9 6.6-.3.1-23.3 6.3-42.5 25.3-25.4 25.1-32.9 60-22.1 103.7 3.5 5.5 28.9 44.5 70.2 71.6 12 7.9 22 14.7 30.1 20.2 21.8 14.8 31.7 21.6 38.8 21.6 1.3 0 3.1 0 5.3.1 9.1.1 24.4.3 38.5-.6 22.1-1.4 26.3-4.8 26.8-5.3 2.2-5.9 3.3-21.4-3.7-31.3-4.5-6.5-11.9-9.7-21.9-9.7-.1 0-.3 0-.4 0-4.4.4-19.7-1.3-31.6-45.1zm325.5-17.8c3.1-4.4 5.8-8.9 8.1-13.3-7.5-.7-15.7-1.1-18.5-.1s-5.9-.6-6.9-3.4.6-5.9 3.4-6.9c6.1-2 19.5-.9 26.8 0 3.4-8.2 5.7-16.4 7.2-24-12.7 2-25.5 4.7-27.9 6.4-1 .7-2.1 1.1-3.2 1.1-1.7 0-3.3-.8-4.4-2.2-1.8-2.4-1.2-5.8 1.2-7.6 5.5-4.1 25.9-7.4 36.2-8.9 1.4-12.1 1-22 .3-27.7-18.4 12.9-37.1 26.4-39.9 29.2-1 1.5-2.7 2.3-4.5 2.3-.7 0-1.4-.1-2.1-.4-2.8-1.2-4-4.4-2.9-7.1.7-1.6 1.7-4.1 46.7-35.3-.3-1.5-.7-3.3-1.1-5.4-4.6-22.5-15.5-75-48.4-96.2-1.1-.7-1.9-1.8-2.3-3-.3-.9-25.6-85.9-71.8-116.7-4.9 11-10.7 24.1-15.7 35.5-.1.5-.3 1.1-.5 1.6s-.5.9-.8 1.3c-3.9 8.9-7.2 16.6-9.1 21.2 15 3 44.2 9.5 52 16.4 2.3 2 2.5 5.4.5 7.7-1.1 1.2-2.6 1.8-4.1 1.8-1.3 0-2.6-.4-3.6-1.4-5.4-4.7-35-11.8-54.3-15.3-.2 0-.5-.1-.7-.2-2.3-.1-5.3-.4-9.3-.9-7.7-.9-19.4-2.4-33.5-2.4-33 0-65 7.8-95 23.3-1.1.6-2.4.7-3.6.5-.7-.1-72.2-14.6-105.5-14.6-2.4 0-4.5.1-6.3.2 0 1.9.1 4.2.3 7 1.4-.8 3.2-.9 4.7-.3.2.1 17.6 7.3 35.6 15.7 37.6 17.6 41.1 23 42.6 25.4 1.2 1.9 1.1 4.4-.3 6.2l-43.2 56.2c-1 1.3-2.6 2.1-4.3 2.1-.2 0-.4 0-.6 0-1.9-.2-3.5-1.4-4.3-3.1-.9-2-17.6-38.5-26.9-69.1 4.2 28 13.5 62.4 33.6 82.1 1.3 1.2 1.8 3 1.6 4.7-.1.6-7.6 51.9 18.7 99.1 20-2.1 91.7-8.9 108.3.7 2.6 1.5 3.5 4.8 2 7.4s-4.8 3.5-7.4 2c-10.3-6-61.6-3.3-96.5.2 2.3 3.4 4.8 6.7 7.5 10 4.2 5 8.7 9.7 13.5 14.1 14.2-5.8 57.7-22.7 73.7-18 2.9.8 4.5 3.9 3.7 6.7-.8 2.9-3.9 4.5-6.7 3.7-9.4-2.7-39.3 6.9-61.1 15.5 9.4 7.1 20 13.2 31.6 18.4 11-10.7 22.3-22.2 24.2-24.8 1-2.3 3.6-3.6 6.1-3 2.9.6 4.8 3.5 4.1 6.5-.4 1.7-.8 3.7-23.4 25.9 24.4 9 53.2 14 86 15.1 4.5.1 9 .2 13.4.2 75.3-.4 128.1-21.2 157-62.1zm-356.9-148.4 34.7-45.1c-8.7-6.5-35.6-19.5-61.7-30.7 4.6 23.2 19.9 59.6 27 75.8zm386.8 107.5c12.9 5.8 71 31.6 91.8 34.8 3-2.8 6.1-5.5 9.4-8 .4-.4.8-.7 1.2-.9 10.1-7.5 21.5-13.5 33.6-17.3.2-.8.5-1.6 1-2.3.7-.9 17.5-22 36.1-18.8 16.1 2.8 23.8 13.8 26.2 19.6v-.1c8-17.1 9.7-29.1 4.8-34.9-9-10.7-40.9-2.2-51.4.6-4 1.1-5.7 1.5-7 1.6-2.9.2-5.8.3-98.5-59.5-25.9-16.8-51.8-33.6-69.2-45 12.5 24 18 50.9 21.1 65.6.9 4.4 1.8 8.9 2.3 10.1 1.6 3.1 5.3 26.1-1.4 54.5zm171.4-1.8c-5.8-1-12.1 2.4-17.2 6.4 2.4-.3 4.9-.5 7.3-.7 1.5-.1 3-.1 4.4-.1 6.6 0 13.3.7 20 2.2-2.7-3.1-7.3-6.6-14.5-7.8zm-103.2 111.8c0 17.8 5.1 34.8 14 49.5 83.4-41.2 116.4-122 121.6-136-12.4-5.6-25.5-8.7-37.9-8.7-1.3 0-2.6 0-3.9.1-18 .9-35.2 7.3-49.8 17.3 8.9 14.6 29.1 42.5 47.1 46.3 2.9.6 4.8 3.5 4.2 6.5-.5 2.6-2.8 4.3-5.3 4.3-.4 0-.8 0-1.1-.1-23.4-5-45.4-37.3-53.5-50.3-11.6 9.8-21 22-27.2 35.4 7.6 11.9 29.8 40.9 48.8 43.2 3 .3 5.1 3 4.8 6-.3 2.8-2.7 4.8-5.4 4.8-.2 0-.4 0-.6 0-21.8-2.5-42.9-28.4-52.3-41.5-2.3 7.4-3.5 15.2-3.5 23.2zm188.3 34.2c-5.6 5.7-12.4 12.2-20.4 18.6-30.9 24.8-65 37.9-98.9 37.9-.8 0-1.6 0-2.5 0-3-.1-5.4-2.5-5.3-5.5s2.5-5.4 5.5-5.3c73.1 1.4 122.9-62.6 129.2-71.2 3.1-19.2-1.9-39.1-14.2-57.1-14.2 21.6-70.4 103.5-119.2 119.4-.6.2-1.1.3-1.7.3-2.3 0-4.4-1.5-5.2-3.8-.9-2.9.6-5.9 3.5-6.9 47.6-15.5 106.6-104.5 115.5-118.2-8.3-9.6-18.4-17.8-29.4-24.1-3 8-11.4 28.1-27.3 51.9-18.1 27.1-49.5 63.9-97.9 88.2 15.6 20.3 39 34.8 66 38.8 3.8.6 7.6.8 11.5.8 38.4.2 74.5-26.5 90.8-63.8z" fill="#89191a"/></g></svg>