<svg id="Capa_1" enable-background="new 0 0 512 512" viewBox="0 0 512 512" xmlns="http://www.w3.org/2000/svg"><g><g><g><path d="m170.505 7.5c-90.019 0-162.993 72.975-162.993 162.993s72.974 162.993 162.993 162.993c8.845 0 17.522-.715 25.985-2.071-12.176-14.065-15.844-34.199-8.431-52.097 7.803-18.838 26.022-31.01 46.416-31.01 3.409 0 6.83.353 10.169 1.048.275.057.554.086.831.086 1.2 0 2.325-.538 3.088-1.476.759-.934 1.053-2.149.806-3.335-4.906-23.563 7.694-47.36 29.962-56.584 6.144-2.545 12.602-3.835 19.194-3.835 12.296 0 23.897 4.449 32.903 12.269 1.356-8.464 2.071-17.142 2.071-25.988-.001-90.018-72.975-162.993-162.994-162.993zm0 213.899c-28.114 0-50.906-22.791-50.906-50.906 0-28.114 22.791-50.906 50.906-50.906s50.906 22.791 50.906 50.906c0 28.114-22.792 50.906-50.906 50.906z" fill="#ffbd86"/><path d="m250.845 28.653c13.46 23.712 21.153 51.126 21.153 80.34 0 90.019-72.974 162.993-162.993 162.993-29.214 0-56.628-7.693-80.34-21.153 28.015 49.353 81.036 82.653 141.84 82.653 8.845 0 17.522-.715 25.985-2.071-12.176-14.065-15.844-34.199-8.431-52.097 7.803-18.838 26.022-31.01 46.416-31.01 3.409 0 6.83.353 10.169 1.048.275.057.554.086.831.086 1.2 0 2.325-.538 3.088-1.476.759-.934 1.053-2.149.806-3.335-4.906-23.563 7.694-47.36 29.962-56.584 6.144-2.545 12.602-3.835 19.194-3.835 12.296 0 23.897 4.449 32.903 12.269 1.356-8.464 2.071-17.142 2.071-25.988-.001-60.805-33.3-113.826-82.654-141.84z" fill="#f6a96c"/><path d="m291.414 166.1-4.826-6.188c-7.108-9.113-9.801-20.912-7.351-32.207v-.001c6.086-28.061-15.111-54.642-43.823-54.952h-.001c-11.557-.125-22.461-5.376-29.764-14.334-18.144-22.254-52.142-22.254-70.287 0-7.303 8.957-18.207 14.209-29.764 14.334h-.001c-28.712.31-49.91 26.892-43.823 54.953 2.45 11.295-.243 23.094-7.351 32.208v.001c-17.659 22.641-10.094 55.787 15.64 68.525 10.358 5.127 17.904 14.589 20.597 25.828 6.692 27.923 37.323 42.674 63.326 30.496h.001c10.217-4.785 21.989-4.885 32.281-.328.504-1.72 1.093-3.428 1.791-5.115 7.803-18.838 26.022-31.01 46.416-31.01 3.409 0 6.83.353 10.169 1.048.275.057.554.086.831.086 1.489 0 2.863-.829 3.572-2.222.42-.826.487-1.786.3-2.694-4.847-23.529 7.749-47.27 29.983-56.48 6.144-2.545 12.602-3.835 19.194-3.835.235 0 .468.019.703.022-.953-6.368-3.508-12.615-7.813-18.135zm-120.909 55.299c-28.114 0-50.906-22.791-50.906-50.906 0-28.114 22.791-50.906 50.906-50.906s50.906 22.791 50.906 50.906c0 28.114-22.792 50.906-50.906 50.906z" fill="#bb5d4c"/><path d="m291.414 166.1-4.826-6.188c-7.108-9.113-9.801-20.912-7.351-32.207v-.001c2.968-13.683-.564-27.004-8.278-37.109.679 6.04 1.04 12.177 1.04 18.398 0 90.019-72.974 162.993-162.993 162.993-3.34 0-6.654-.113-9.944-.311 12.535 15.974 35.073 22.385 54.926 13.087h.001c10.217-4.785 21.989-4.885 32.281-.328.504-1.72 1.093-3.428 1.791-5.115 7.803-18.838 26.022-31.01 46.416-31.01 3.409 0 6.83.353 10.169 1.048.275.057.554.086.831.086 1.489 0 2.863-.829 3.572-2.222.42-.826.487-1.786.3-2.694-4.847-23.529 7.749-47.27 29.983-56.48 6.144-2.545 12.602-3.835 19.194-3.835.235 0 .468.019.703.022-.955-6.367-3.51-12.614-7.815-18.134z" fill="#a44f3e"/></g><path d="m500.6 278.935c-9.57-23.105-34.095-35.475-57.712-30.558-2.119.441-3.983-1.423-3.542-3.542 4.917-23.617-7.453-48.141-30.558-57.712-23.105-9.57-49.194-.976-62.416 19.201-1.187 1.811-3.823 1.811-5.009 0-13.222-20.177-39.311-28.771-62.416-19.201s-35.475 34.095-30.558 57.712c.441 2.119-1.423 3.983-3.542 3.542-23.617-4.917-48.141 7.453-57.712 30.558-9.57 23.105-.976 49.194 19.201 62.416 1.811 1.187 1.811 3.823 0 5.009-20.177 13.222-28.771 39.311-19.201 62.416s34.095 35.475 57.712 30.558c2.119-.441 3.984 1.423 3.542 3.542-4.917 23.617 7.453 48.141 30.558 57.712 23.105 9.57 49.194.976 62.416-19.201 1.187-1.811 3.823-1.811 5.009 0 13.222 20.177 39.311 28.771 62.416 19.201s35.475-34.095 30.558-57.712c-.441-2.119 1.423-3.983 3.542-3.542 23.617 4.917 48.141-7.453 57.712-30.558 9.57-23.105.976-49.194-19.201-62.416-1.811-1.187-1.811-3.823 0-5.009 20.178-13.222 28.772-39.311 19.201-62.416zm-154.133 146.052c-1.238 1.875-3.96 1.875-5.198 0-5.439-8.236-13.31-14.991-23.115-19.053s-20.147-4.85-29.817-2.872c-2.202.45-4.126-1.474-3.676-3.676 1.977-9.669 1.189-20.012-2.872-29.817s-10.817-17.675-19.053-23.114c-1.875-1.238-1.875-3.96 0-5.198 8.236-5.439 14.991-13.31 19.053-23.114 4.061-9.805 4.85-20.147 2.872-29.817-.45-2.202 1.474-4.126 3.676-3.676 9.669 1.977 20.012 1.189 29.817-2.872s17.675-10.817 23.114-19.053c1.238-1.875 3.96-1.875 5.198 0 5.439 8.236 13.31 14.991 23.115 19.053s20.147 4.85 29.817 2.872c2.202-.45 4.126 1.474 3.676 3.676-1.977 9.669-1.189 20.012 2.872 29.817s10.817 17.675 19.053 23.114c1.875 1.238 1.875 3.96 0 5.198-8.236 5.439-14.991 13.31-19.053 23.115-4.061 9.805-4.85 20.147-2.872 29.817.45 2.202-1.474 4.126-3.676 3.676-9.669-1.977-20.012-1.189-29.817 2.872-9.804 4.061-17.675 10.816-23.114 19.052z" fill="#fd8087"/><g><path d="m481.4 346.361c-1.811-1.187-1.811-3.823 0-5.009 20.177-13.222 28.771-39.311 19.201-62.416-8.393-20.262-28.285-32.265-48.981-31.597 4.802 15.37 7.393 31.717 7.393 48.669 0 90.019-72.974 162.993-162.993 162.993-16.952 0-33.299-2.59-48.669-7.393-.668 20.696 11.336 40.588 31.597 48.981 23.105 9.57 49.194.976 62.416-19.201 1.187-1.811 3.823-1.811 5.009 0 13.222 20.177 39.311 28.771 62.416 19.201s35.475-34.095 30.558-57.712c-.441-2.119 1.423-3.984 3.542-3.542 23.617 4.917 48.141-7.453 57.712-30.558 9.57-23.105.976-49.194-19.201-62.416z" fill="#fe646f"/></g></g><g><path d="m170.499 228.898h.006c32.205 0 58.406-26.201 58.406-58.405 0-32.205-26.201-58.406-58.406-58.406-.002 0-.004 0-.006 0s-.004 0-.006 0c-32.205 0-58.406 26.201-58.406 58.406s26.201 58.405 58.406 58.405zm43.4-58.405c0 23.932-19.468 43.402-43.4 43.405-23.931-.003-43.4-19.474-43.4-43.405 0-23.932 19.468-43.402 43.4-43.406 23.932.004 43.4 19.474 43.4 43.406z"/><path d="m171.516 93.486h3.054c4.142 0 7.5-3.358 7.5-7.5s-3.358-7.5-7.5-7.5h-3.054c-4.142 0-7.5 3.358-7.5 7.5s3.358 7.5 7.5 7.5z"/><path d="m227.833 118.916c1.464 1.464 3.384 2.196 5.303 2.196s3.839-.732 5.304-2.197c2.929-2.929 2.928-7.678-.001-10.606l-2.16-2.16c-2.928-2.929-7.677-2.928-10.606.001s-2.928 7.678.001 10.606z"/><path d="m255.012 182.059c4.142 0 7.5-3.358 7.5-7.5v-3.054c0-4.142-3.358-7.5-7.5-7.5s-7.5 3.358-7.5 7.5v3.054c0 4.142 3.358 7.5 7.5 7.5z"/><path d="m169.494 247.5h-3.054c-4.142 0-7.5 3.358-7.5 7.5s3.358 7.5 7.5 7.5h3.054c4.142 0 7.5-3.358 7.5-7.5s-3.358-7.5-7.5-7.5z"/><path d="m113.178 222.07c-2.929-2.929-7.678-2.929-10.606 0-2.929 2.929-2.929 7.678 0 10.606l2.16 2.16c1.464 1.464 3.384 2.197 5.303 2.197s3.839-.732 5.303-2.197c2.929-2.929 2.929-7.678 0-10.606z"/><path d="m85.998 158.928c-4.142 0-7.5 3.358-7.5 7.5v3.054c0 4.142 3.358 7.5 7.5 7.5s7.5-3.358 7.5-7.5v-3.054c0-4.142-3.358-7.5-7.5-7.5z"/><path d="m111.465 117.523c1.919 0 3.839-.732 5.304-2.197l2.16-2.16c2.929-2.929 2.928-7.678-.001-10.606-2.929-2.929-7.678-2.929-10.606.001l-2.16 2.16c-2.929 2.929-2.928 7.678.001 10.606 1.463 1.464 3.382 2.196 5.302 2.196z"/><path d="m490.634 343.867c19.711-16.216 26.859-43.736 16.896-67.791-9.966-24.06-34.483-38.46-59.893-35.988 1.473-15.58-3.416-31.478-13.612-43.555-2.671-3.165-7.403-3.563-10.569-.892-3.165 2.672-3.564 7.404-.892 10.569 8.623 10.213 12.152 24.084 9.441 37.106-.725 3.479.341 7.055 2.85 9.564s6.085 3.576 9.564 2.85c20.511-4.269 41.224 6.7 49.253 26.086 8.03 19.385 1.14 41.79-16.382 53.272-2.973 1.948-4.747 5.229-4.747 8.778s1.774 6.83 4.747 8.778c17.522 11.483 24.412 33.887 16.382 53.273-8.029 19.385-28.742 30.354-49.253 26.085-3.477-.724-7.054.341-9.564 2.85-2.509 2.509-3.574 6.085-2.85 9.564 4.271 20.51-6.7 41.224-26.085 49.253-19.386 8.028-41.79 1.14-53.273-16.382-1.948-2.972-5.229-4.747-8.777-4.747 0 0 0 0-.001 0-3.547 0-6.829 1.774-8.778 4.747-11.482 17.522-33.886 24.412-53.272 16.382s-30.356-28.744-26.086-49.253c.725-3.479-.341-7.055-2.85-9.564-2.51-2.509-6.086-3.577-9.564-2.85-14.022 2.918-28.612-1.257-39.028-11.171-3-2.856-7.748-2.738-10.604.262-2.855 3-2.738 7.748.262 10.604 12.435 11.835 29.305 17.575 46.141 15.947-2.474 25.407 11.933 49.92 35.989 59.884 24.057 9.964 51.575 2.818 67.791-16.896 11.295 13.733 28.076 21.368 45.351 21.368 7.522 0 15.141-1.448 22.438-4.471 24.054-9.963 38.459-34.477 35.988-59.882 1.892.184 3.776.275 5.652.274 23.32-.001 45.008-14 54.23-36.263 9.964-24.054 2.817-51.574-16.895-67.791z"/><path d="m397.895 277.314c-8.549 1.748-17.348.899-25.443-2.454-8.096-3.354-14.917-8.975-19.726-16.256-1.974-2.99-5.285-4.774-8.858-4.774s-6.884 1.785-8.857 4.773c-4.809 7.282-11.63 12.903-19.727 16.257-8.096 3.354-16.893 4.203-25.444 2.453-3.509-.717-7.112.362-9.638 2.888s-3.605 6.129-2.888 9.639c1.748 8.549.9 17.347-2.454 25.444-3.354 8.096-8.975 14.917-16.257 19.726-2.989 1.974-4.773 5.285-4.773 8.857s1.784 6.884 4.773 8.857c7.282 4.809 12.903 11.631 16.257 19.727s4.202 16.895 2.453 25.444c-.717 3.509.362 7.112 2.888 9.638 2.527 2.526 6.13 3.607 9.639 2.888 8.549-1.748 17.347-.9 25.444 2.454 8.096 3.354 14.917 8.975 19.726 16.256 1.974 2.99 5.285 4.774 8.858 4.774s6.884-1.785 8.857-4.773c4.81-7.282 11.631-12.903 19.727-16.257s16.893-4.202 25.444-2.453c3.506.714 7.112-.363 9.638-2.888 2.526-2.526 3.605-6.129 2.888-9.639-1.748-8.549-.9-17.347 2.454-25.443 3.353-8.096 8.975-14.917 16.256-19.726 2.99-1.974 4.774-5.285 4.774-8.858s-1.785-6.884-4.773-8.857c-7.282-4.809-12.903-11.63-16.257-19.727-3.353-8.095-4.202-16.894-2.453-25.444.717-3.509-.362-7.112-2.888-9.638-2.527-2.527-6.131-3.608-9.64-2.888zm18.014 66.553c-7.397 6.085-13.181 13.885-16.892 22.844s-5.136 18.564-4.208 28.097c-9.534-.928-19.139.498-28.097 4.208-8.958 3.711-16.758 9.494-22.844 16.892-6.085-7.398-13.884-13.181-22.843-16.892-7.189-2.978-14.791-4.483-22.439-4.483-1.885 0-3.773.091-5.658.275.928-9.533-.498-19.138-4.208-28.097-3.711-8.959-9.495-16.758-16.892-22.844 7.397-6.084 13.181-13.884 16.892-22.843s5.136-18.564 4.208-28.097c9.529.928 19.137-.498 28.097-4.208 8.959-3.711 16.758-9.494 22.844-16.892 6.085 7.397 13.885 13.181 22.844 16.892 8.96 3.711 18.563 5.136 28.097 4.208-.928 9.534.498 19.138 4.208 28.097s9.493 16.758 16.891 22.843z"/><path d="m210.447 352.645c2.973-1.948 4.747-5.229 4.747-8.778s-1.774-6.83-4.747-8.778c-17.522-11.483-24.412-33.887-16.382-53.272 8.03-19.386 28.746-30.355 49.253-26.086 3.48.726 7.055-.341 9.563-2.85 2.509-2.509 3.575-6.084 2.85-9.564-4.271-20.51 6.7-41.224 26.086-49.253 19.385-8.03 41.79-1.141 53.273 16.384 1.948 2.972 5.23 4.746 8.778 4.746s6.829-1.775 8.777-4.747c9.552-14.577 26.818-22.068 43.991-19.08 4.08.71 7.964-2.023 8.674-6.104.709-4.081-2.023-7.964-6.104-8.674-20.964-3.646-42.036 4.329-55.34 20.512-1.356-1.648-2.798-3.201-4.303-4.671.94-7.294 1.422-14.655 1.422-21.937.001-94.01-76.482-170.493-170.492-170.493-46.148 0-89.37 18.151-121.705 51.11-2.9 2.957-2.855 7.706.102 10.606 2.958 2.901 7.706 2.855 10.606-.102 29.49-30.059 68.91-46.614 110.997-46.614 85.739 0 155.493 69.754 155.493 155.493 0 3.921-.152 7.868-.452 11.813-6.399-3.303-13.363-5.403-20.526-6.2-1.647-5.274-4.213-10.174-7.68-14.619l-4.826-6.188c-5.756-7.379-7.919-16.858-5.936-26.005 3.381-15.587-.383-31.678-10.328-44.148-9.944-12.47-24.795-19.721-40.745-19.894-9.358-.101-18.118-4.32-24.033-11.574-10.079-12.361-25.006-19.451-40.956-19.452-.001 0 0 0 0 0-15.949 0-30.878 7.091-40.957 19.452-5.914 7.254-14.673 11.472-24.033 11.573-15.949.172-30.799 7.423-40.744 19.894-9.944 12.47-13.708 28.562-10.327 44.148 1.984 9.146-.18 18.625-5.936 26.006-9.809 12.577-13.399 28.708-9.85 44.257 3.549 15.55 13.783 28.526 28.078 35.602 8.388 4.152 14.45 11.753 16.631 20.855 3.717 15.511 14.09 28.375 28.46 35.295 7.274 3.503 15.097 5.256 22.926 5.255 7.638 0 15.282-1.669 22.415-5.01 6.046-2.831 12.834-3.621 19.324-2.359-2.023 12.536.107 25.281 5.815 36.338-3.946.301-7.892.452-11.813.452-85.739.002-155.493-69.752-155.493-155.491 0-29.323 8.212-57.89 23.749-82.612 2.204-3.507 1.147-8.137-2.359-10.341-3.509-2.204-8.138-1.147-10.341 2.359-17.042 27.117-26.049 58.443-26.049 90.594 0 94.01 76.483 170.493 170.493 170.493 7.282 0 14.643-.482 21.938-1.422 1.473 1.508 3.028 2.952 4.679 4.31-15.091 12.487-23.23 32.204-21.007 51.882.433 3.83 3.678 6.659 7.443 6.659.281 0 .565-.016.851-.048 4.116-.465 7.076-4.178 6.611-8.294-1.832-16.227 5.798-32.488 19.439-41.428zm-59.641-74.674c-10.344 4.845-22.179 4.78-32.47-.176s-17.72-14.169-20.382-25.277c-3.222-13.443-12.175-24.67-24.564-30.802-10.237-5.067-17.566-14.36-20.107-25.496-2.542-11.136.029-22.688 7.055-31.696 8.501-10.9 11.697-24.9 8.767-38.41-2.421-11.163.274-22.686 7.396-31.616 7.122-8.931 17.757-14.124 29.18-14.247 13.823-.149 26.761-6.38 35.496-17.094 7.218-8.853 17.908-13.93 29.331-13.93 11.422 0 22.113 5.078 29.331 13.931 8.735 10.714 21.673 16.944 35.497 17.094 11.421.124 22.056 5.316 29.178 14.246s9.818 20.455 7.396 31.618c-2.93 13.51.265 27.509 8.767 38.409l4.826 6.188c1.422 1.823 2.609 3.764 3.581 5.799-4.388.717-8.75 1.933-13.004 3.694-24.054 9.964-38.46 34.477-35.989 59.882-24.945-2.432-49.014 11.421-59.312 34.688-10.011-2.27-20.594-1.199-29.973 3.195z"/></g></g><g/><g/><g/><g/><g/><g/><g/><g/><g/><g/><g/><g/><g/><g/><g/></svg>