<svg height="512" width="512" xmlns="http://www.w3.org/2000/svg"><g fill="#e36254"><path d="M368.679 375.677c-8.675-5.454-15.756-13.561-18.76-22.867-2.694 4.01-5.475 7.887-8.439 11.513a86.71 86.71 0 0 1-3.103 3.625c1.887 8.805 7.808 15.446 14.884 20.839 4.022-2.278 7.747-5.124 11.038-8.306a54.909 54.909 0 0 0 4.38-4.804zM384.164 353.857c3.036-3.699 6.465-7.002 10.749-9.514-3.635-5.004-6.171-10.967-7.88-17.15-2.095-8.16-1.509-16.584.687-24.358-7.924 6.317-14.368 14.292-20.248 22.818-.051 10.809 7.291 21.281 16.692 28.204zM410.664 331.84a40.724 40.724 0 0 0 2.766 8.113c7.764.473 15.32 3.063 22.868 3.506a38.872 38.872 0 0 1-3.812-8.232c-4.691-13.964-2.853-31.597 8.172-41.509-6.313-2.913-13.329-4.096-20.29-3.798-9.605 11.214-13.261 26.653-9.704 41.92z"/></g><path d="M387.033 327.193c1.709 6.182 4.245 12.146 7.88 17.15a33.84 33.84 0 0 1 8.124-3.422c3.517-.977 6.975-1.177 10.394-.969a40.702 40.702 0 0 1-2.766-8.113c-3.557-15.266.098-30.705 9.705-41.92a50.482 50.482 0 0 0-14.175 2.684c-7.032 2.415-13.093 5.943-18.474 10.232-2.197 7.774-2.783 16.198-.688 24.358z" fill="#a63c30"/><path d="M394.914 346.223a1.881 1.881 0 0 1-1.523-.775c-3.496-4.812-6.245-10.785-8.171-17.754l-.009-.033c-2.012-7.836-1.77-16.597.699-25.336.107-.379.33-.714.638-.96 5.938-4.732 12.164-8.18 19.035-10.54a52.134 52.134 0 0 1 14.706-2.785 1.895 1.895 0 0 1 1.771 1.057 1.882 1.882 0 0 1-.263 2.046c-9.335 10.898-12.726 25.576-9.302 40.27a39.07 39.07 0 0 0 2.642 7.753c.277.601.218 1.303-.156 1.849s-.99.865-1.667.815c-3.597-.219-6.796.076-9.775.904a31.797 31.797 0 0 0-7.676 3.232 1.874 1.874 0 0 1-.949.257zm-6.064-19.514c1.626 5.875 3.856 10.969 6.64 15.167a36.232 36.232 0 0 1 7.044-2.766c2.531-.703 5.182-1.07 8.037-1.108a42.07 42.07 0 0 1-1.741-5.749c-3.345-14.355-.643-28.727 7.406-40.088a48.536 48.536 0 0 0-9.431 2.218c-6.275 2.155-11.984 5.28-17.436 9.548-2.136 7.898-2.317 15.761-.519 22.778z" fill="#7d271d"/><path d="M368.679 375.677c5.711-7.004 9.944-15.072 15.485-21.82-9.401-6.923-16.743-17.394-16.692-28.203-6.118 8.87-11.626 18.336-17.552 27.157 3.003 9.305 10.084 17.412 18.759 22.866z" fill="#a63c30"/><path d="M368.678 377.558c-.344 0-.69-.094-1-.289-9.441-5.936-16.566-14.64-19.548-23.881a1.884 1.884 0 0 1 .229-1.627c2.685-3.996 5.34-8.216 7.908-12.296 3.099-4.926 6.304-10.019 9.657-14.879a1.88 1.88 0 0 1 3.428 1.077c-.043 9.19 6.059 19.413 15.927 26.68a1.882 1.882 0 0 1 .339 2.707c-2.707 3.297-5.064 6.87-7.56 10.652-2.46 3.73-5.005 7.586-7.921 11.163-.369.453-.91.693-1.459.693zm-16.68-24.472c2.71 7.64 8.559 14.849 16.275 20.081 2.377-3.064 4.543-6.348 6.646-9.535 2.085-3.161 4.231-6.413 6.579-9.446-8.255-6.549-13.72-14.845-15.376-23.158-2.28 3.463-4.502 6.993-6.672 10.441-2.418 3.842-4.914 7.808-7.452 11.617z" fill="#7d271d"/><path d="M326.836 375.933c-6.752 1.897-13.857-.553-20.461-3.5-3.039-1.356-5.995 1.992-4.163 4.76l.045.067c6.498 9.522 17.32 16.305 28.784 17.067 7.822.519 15.444-1.702 22.221-5.54-7.076-5.392-12.997-12.033-14.884-20.839-3.244 3.553-6.933 6.69-11.542 7.985z" fill="#a63c30"/><path d="M333.264 396.281c-.786 0-1.568-.026-2.347-.078-11.636-.773-23.213-7.625-30.213-17.883a1.835 1.835 0 0 1-.031-.046c-1.321-1.996-1.183-4.403.321-6.178 1.516-1.789 3.987-2.343 6.148-1.38 6.284 2.803 12.958 5.155 19.187 3.407 3.596-1.01 6.884-3.306 10.661-7.443a1.878 1.878 0 0 1 3.227.874c1.539 7.179 6.179 13.635 14.185 19.737a1.883 1.883 0 0 1-.213 3.133c-6.804 3.852-13.989 5.857-20.925 5.857zm-28.31-22.28c-.587 0-.966.379-1.09.527-.196.231-.595.852-.082 1.628 6.394 9.37 16.876 15.597 27.385 16.295 6.09.404 12.498-.97 18.676-3.986-6.258-5.23-10.348-10.788-12.404-16.858-2.551 2.424-5.93 4.968-10.093 6.138-7.399 2.079-15.14-.65-21.736-3.593a1.6 1.6 0 0 0-.656-.151zm21.882 1.932h.005z" fill="#7d271d"/><path d="M444.109 295.523a38.126 38.126 0 0 0-3.45-1.806c-11.025 9.912-12.863 27.546-8.172 41.509a38.895 38.895 0 0 0 3.812 8.232c5.016.294 10.029-.358 15.097-3.216 19.19-10.823 8.245-35.529-7.287-44.719z" fill="#a63c30"/><path d="M438.428 345.403a38.86 38.86 0 0 1-2.24-.067 1.88 1.88 0 0 1-1.494-.896 40.987 40.987 0 0 1-3.995-8.628c-2.484-7.394-3.151-15.629-1.874-23.172 1.412-8.342 5.069-15.369 10.577-20.32a1.879 1.879 0 0 1 2.044-.31 40.459 40.459 0 0 1 3.62 1.895h.001c10.794 6.387 18.545 18.949 18.432 29.87-.056 5.415-2.042 12.952-11.179 18.105-4.229 2.385-8.691 3.523-13.892 3.523zm-1.032-3.778c4.988.15 9.165-.816 13.076-3.022 5.995-3.381 9.2-8.523 9.266-14.868.099-9.507-7.032-20.94-16.586-26.594a35.63 35.63 0 0 0-2.145-1.17c-10.163 10.05-10.68 26.923-6.739 38.656a37.277 37.277 0 0 0 3.128 6.998z" fill="#7d271d"/><g><path d="M333.243 396.28c-.779 0-1.554-.025-2.326-.077-11.636-.773-23.213-7.625-30.213-17.883a.1.1 0 0 1-.011-.017l1.565-1.043-1.584 1.014c-1.311-1.98-1.162-4.385.35-6.17 1.516-1.788 3.963-2.351 6.091-1.401 6.296 2.811 12.979 5.17 19.214 3.419 5.647-1.587 9.863-6.3 13.697-10.99 5.86-7.169 11.135-15.555 16.237-23.664 12.507-19.883 25.441-40.443 49.322-48.643 13.582-4.664 28.342-3.512 39.484 3.079 10.794 6.387 18.545 18.949 18.432 29.87-.056 5.415-2.042 12.952-11.179 18.105-9.478 5.345-18.746 3.486-27.711 1.688-7.19-1.443-13.98-2.805-21.069-.835-12.661 3.518-18.889 12.965-25.482 22.967-3.658 5.55-7.441 11.289-12.451 16.132-9.586 9.267-21.256 14.449-32.366 14.449zM303.81 376.2c6.364 9.326 16.846 15.552 27.355 16.25 10.743.705 22.334-4.144 31.827-13.322 4.711-4.555 8.379-10.118 11.925-15.498 6.684-10.14 13.596-20.626 27.616-24.521 7.955-2.211 15.51-.695 22.816.771 8.671 1.739 16.862 3.383 25.123-1.277 5.996-3.381 9.2-8.523 9.266-14.868.099-9.507-7.032-20.94-16.586-26.595-10.206-6.038-23.793-7.069-36.347-2.759-22.627 7.769-35.2 27.758-47.361 47.088-5.162 8.207-10.501 16.693-16.508 24.042-4.029 4.93-8.89 10.347-15.591 12.231-7.389 2.076-14.826-.507-21.765-3.605-.91-.407-1.522.203-1.689.398-.2.236-.61.865-.111 1.619l-1.524 1.104z" fill="#7d271d"/></g><g><path d="M219.645 287.064c-12.736-15.357-31.348 2.846-49.811 12.692-9.239-2.855-20.874-5.596-24.565-6.819-1.939-3.394-3.679-9.268-10.908-11.684-2.38-.795-5.189-.249-7.063 1.42s-2.656 4.537-1.682 6.849c-2.034-2.447-5.838-3.13-8.679-1.698-2.842 1.432-4.544 4.757-4.227 7.923.317 3.167 2.54 6.021 5.462 7.283-2.894.299-5.157 3.113-5.282 6.02s1.602 5.698 4.011 7.331c2.408 1.633 5.403 2.222 8.313 2.179s6.698-.571 9.539-1.201c0 0 14.51 11.371 29.808 18.277 13.259 5.985 46.649-17.347 50.642-20.988 8.612-7.852 12.962-17.31 4.442-27.584z" fill="#a63c30"/><path d="M169.696 338.478c-2.186.001-4.182-.347-5.91-1.126-13.609-6.143-26.38-15.598-29.494-17.971-3.035.614-6.498 1.024-9.052 1.062-3.647.06-6.901-.812-9.396-2.504-3.127-2.12-4.98-5.557-4.834-8.968a8.481 8.481 0 0 1 3.25-6.288c-1.905-1.777-3.165-4.186-3.422-6.746-.401-4.005 1.759-8.031 5.252-9.791 2.32-1.169 5.049-1.23 7.396-.342.343-1.713 1.225-3.344 2.561-4.534 2.369-2.111 5.866-2.817 8.91-1.8 6.765 2.261 9.222 7.17 11.017 10.753.2.401.395.789.583 1.149 1.699.516 4.497 1.254 7.672 2.09 4.627 1.219 10.332 2.722 15.405 4.266 3.722-2.026 7.502-4.409 11.164-6.717 14.387-9.069 29.265-18.446 40.294-5.147 5.592 6.743 9.33 17.452-4.624 30.176-2.475 2.257-30.104 22.438-46.772 22.438zm-34.944-22.998c.417 0 .826.138 1.16.4.144.112 14.518 11.315 29.422 18.043 1.251.565 2.743.82 4.412.82 13.706.001 39.484-17.194 44.189-21.483 9.576-8.732 10.971-16.908 4.263-24.995-8.92-10.758-21.188-3.025-35.393 5.928-3.944 2.486-8.022 5.057-12.085 7.223a1.871 1.871 0 0 1-1.44.137c-5.181-1.601-11.184-3.183-16.008-4.454-3.872-1.021-6.93-1.827-8.593-2.377a1.885 1.885 0 0 1-1.042-.852c-.348-.609-.677-1.267-1.026-1.963-1.667-3.329-3.556-7.102-8.846-8.87-1.762-.589-3.857-.171-5.215 1.04-1.321 1.177-1.837 3.204-1.201 4.716a1.88 1.88 0 0 1-3.18 1.932c-1.435-1.725-4.299-2.273-6.387-1.221-2.101 1.058-3.447 3.606-3.202 6.057.243 2.42 1.985 4.728 4.336 5.743a1.88 1.88 0 0 1-.553 3.597c-1.859.192-3.506 2.129-3.596 4.23-.089 2.086 1.162 4.32 3.187 5.694 2.341 1.587 5.221 1.893 7.23 1.855 2.568-.038 6.164-.492 9.16-1.156.136-.029.272-.044.408-.044z" fill="#7d271d"/></g><g><path d="M196.433 358.687c-27.94-1.075-65.278 6.406-61.79 33.85 3.417 26.885 16.815 44.842 16.815 44.842S128.959 450 133.349 456.585s38.78 7.682 44.632 0c3.678-4.828 1.795-32.346.183-52.227 11.283-3.761 28.477-2.687 28.477-2.687z" fill="#a63c30"/><path d="M156.268 463.823c-.896 0-1.782-.014-2.655-.042-4.248-.134-18.376-.973-21.829-6.154-.846-1.268-1.089-2.785-.705-4.386 1.498-6.236 13.008-13.672 17.671-16.464-3.428-5.16-13.1-21.388-15.974-44.004-1.001-7.873 1.086-14.697 6.201-20.283 11.671-12.746 37.365-16.462 57.527-15.683a1.879 1.879 0 0 1 1.757 1.445l10.209 42.984a1.88 1.88 0 0 1-1.946 2.311c-.162-.01-15.575-.923-26.365 2.161 2.621 32.841 2.417 47.946-.683 52.015-3.441 4.519-13.797 6.1-23.208 6.1zm35.024-103.354c-18.345 0-39.662 3.775-49.54 14.562-4.334 4.733-6.099 10.544-5.244 17.269 3.309 26.038 16.326 43.779 16.458 43.956a1.882 1.882 0 0 1-.588 2.763c-6.263 3.516-16.59 10.724-17.641 15.102-.18.753 0 1.154.177 1.421 1.283 1.925 8.315 4.15 18.818 4.481 10.897.347 20.471-1.582 22.753-4.578 3.556-4.668.733-39.491-.195-50.935a1.88 1.88 0 0 1 1.28-1.936c9.014-3.005 21.397-3.035 26.668-2.885l-9.303-39.17c-1.199-.033-2.414-.05-3.643-.05z" fill="#7d271d"/></g><g><path d="M318.429 378.165c-6.276 29.231-43.561 40.366-61.66 42.025s-55.244-2.651-66.731-30.254c-9.777-23.481.202-65.931 10.379-105.189 1.784-6.881 3.577-13.66 5.265-20.225l74.558-6.836c3.254 7.007 6.688 14.268 10.113 21.637 16.732 35.992 33.288 74.58 28.076 98.842z" fill="#e36254"/><path d="M290.405 283.08c-27.92 26.813-70.972 20.26-89.936 5.424 1.784-6.881 3.577-13.66 5.265-20.225l74.558-6.836c3.254 7.007 6.688 14.267 10.113 21.637z" fill="#a63c30"/><path d="M249.603 422.38c-19.859 0-50.765-6.403-61.301-31.721-9.829-23.604-.304-65.497 10.295-106.383.762-2.942 1.526-5.866 2.284-8.762 1.014-3.876 2.014-7.703 2.98-11.46a1.88 1.88 0 0 1 1.65-1.404l74.558-6.836a1.876 1.876 0 0 1 1.878 1.08c1.647 3.548 3.341 7.16 5.056 10.819 1.672 3.568 3.366 7.18 5.057 10.818 17.199 36.998 33.543 75.198 28.208 100.03-2.845 13.253-12.301 24.531-27.344 32.614-12.56 6.748-26.822 10.049-35.982 10.889-2.195.2-4.669.316-7.339.316zm-42.43-156.106c-.865 3.348-1.754 6.75-2.653 10.191-.756 2.894-1.52 5.814-2.282 8.754-10.438 40.268-19.844 81.466-10.463 103.995 11.112 26.705 47.262 30.71 64.823 29.104 14.551-1.334 53.696-11.219 59.992-40.547v-.001c5.09-23.693-11.754-62.83-27.942-97.654-1.689-3.635-3.381-7.243-5.052-10.807-1.524-3.251-3.03-6.465-4.503-9.63z" fill="#7d271d"/></g><g><path d="M228.607 308.563c-3.765 8.335-7.692 17.754-7.672 27.043.005 2.195 2.81 2.527 3.639.64 3.699-8.422 5.701-17.508 9.456-25.954 1.489-3.349-3.933-5.027-5.423-1.729zM220.304 302.645c-4.538 5.74-9.631 13.358-9.988 20.919-.087 1.838 2.47 2.685 3.459 1.103 1.921-3.072 3.12-6.672 4.768-9.908 1.688-3.312 3.58-6.494 5.738-9.521 1.8-2.522-2.113-4.95-3.977-2.593zM239.334 308.877c-.223 4.15-.691 8.303-1.348 12.405-.643 4.015-1.632 8.079-1.981 12.126-.138 1.598 2.149 2.28 2.973.948 2.202-3.556 3.586-8.058 4.477-12.112.954-4.339 1.48-8.698 1.718-13.135.203-3.752-5.636-3.996-5.839-.232zM210.26 335.117c-1.44 4.776-2.664 9.783-2.196 14.81.157 1.691 2.547 1.442 3.048.135 1.658-4.329 2.463-9.022 3.779-13.468.887-2.995-3.725-4.479-4.631-1.477zM228.823 343.197c-1.065 3.966-2.822 7.897-3.261 11.993-.156 1.455 1.994 2.586 3.016 1.415 2.873-3.296 4.146-7.652 5.308-11.793.923-3.29-4.175-4.921-5.063-1.615zM216.07 353.385c-1.238 3.217-2.805 7.36-1.803 10.827.424 1.468 2.62 2.164 3.484.629 1.67-2.967 1.947-6.73 3.095-9.934 1.092-3.05-3.624-4.516-4.776-1.522z" fill="#f0857a"/></g><g><path d="M265.75 309.382c1.668 19.881 27.346 15.588 48.122 18.068 5.948 7.625 13.925 16.526 16.254 19.64-.35 3.893-2.281 9.706 2.269 15.823 1.498 2.013 4.115 3.172 6.606 2.873s4.773-2.204 5.297-4.658c.27 3.171 3 5.906 6.15 6.356s6.448-1.304 7.998-4.084c1.55-2.779 1.359-6.392-.317-9.098 2.546 1.409 6.011.395 7.775-1.919 1.765-2.314 1.944-5.591.901-8.308-1.042-2.717-3.162-4.912-5.574-6.541-2.412-1.628-5.822-3.362-8.513-4.469 0 0-5.402-17.626-14.005-32.038-7.456-12.491-48.19-12.441-53.547-11.737-11.555 1.519-20.532 6.791-19.416 20.092z" fill="#a63c30"/><path d="M351.443 369.434a8.89 8.89 0 0 1-1.261-.089c-2.571-.367-4.846-1.877-6.263-3.947-1.261 1.209-2.917 2.042-4.694 2.255-3.15.378-6.423-1.043-8.339-3.618-4.257-5.723-3.467-11.155-2.89-15.122.065-.444.127-.873.178-1.276-1.099-1.395-2.975-3.602-5.102-6.105-3.098-3.645-6.918-8.138-10.196-12.304-4.212-.466-8.676-.673-13.001-.873-16.988-.787-34.554-1.603-36-18.816-.733-8.73 2.324-19.653 21.047-22.113 3.758-.494 47.026-1.404 55.407 12.637 7.653 12.821 12.724 27.88 13.922 31.608 2.841 1.231 5.916 2.874 8.033 4.304 3.028 2.044 5.198 4.612 6.277 7.426 1.354 3.528.909 7.407-1.162 10.122a8.48 8.48 0 0 1-6.261 3.301c.547 2.547.204 5.244-1.05 7.492-1.747 3.133-5.177 5.117-8.645 5.118zm-7.145-10.187a1.881 1.881 0 0 1 1.875 1.722c.19 2.235 2.227 4.322 4.541 4.653 2.331.334 4.891-.986 6.09-3.138 1.185-2.124 1.076-5.014-.273-7.191a1.88 1.88 0 0 1 2.51-2.636c1.634.906 4.094.258 5.369-1.414 1.266-1.66 1.518-4.209.641-6.494-1.013-2.64-3.208-4.534-4.87-5.656-2.129-1.437-5.338-3.121-8.176-4.288a1.882 1.882 0 0 1-1.082-1.187c-.053-.174-5.44-17.585-13.821-31.626-6.482-10.858-44.607-11.765-51.688-10.836-12.849 1.689-18.668 7.599-17.789 18.07 1.168 13.926 15.654 14.597 32.427 15.374 4.657.216 9.473.439 14.045.984.498.059.951.315 1.26.711 3.333 4.274 7.354 9.003 10.583 12.803 2.595 3.053 4.645 5.464 5.694 6.867.278.372.409.833.367 1.295-.063.699-.169 1.426-.281 2.197-.536 3.684-1.144 7.86 2.185 12.335 1.108 1.49 3.069 2.35 4.874 2.128 1.756-.21 3.339-1.578 3.681-3.182a1.88 1.88 0 0 1 1.838-1.491z" fill="#7d271d"/></g><g><path d="M236.616 83.907c-10.417-14.384-16.823-20.936-28.964-34.231-6.662-7.295-14.572-15.697-25.286-17.614-4.515-.808-8.692 2.291-5.444 6.665 1.328 1.788 3.489 2.91 5.565 3.961-3.357-.655-5.612-.776-8.952-.337s-6.571 1.715-8.797 3.938c-1.176 1.174-2.076 2.851-1.391 4.381.538 1.202 1.944 1.97 3.344 2.203s2.814.023 4.194-.186c-16.269 25.118-21.582 77.246-10.937 94.165z" fill="#ffe8db"/><path d="M159.949 148.732a1.88 1.88 0 0 1-1.594-.879c-10.891-17.312-5.771-66.853 9.031-93.015a9.198 9.198 0 0 1-1.004-.111c-2.185-.364-4.006-1.625-4.751-3.29-.911-2.035-.246-4.458 1.778-6.479 2.36-2.357 5.868-3.945 9.881-4.473a32.488 32.488 0 0 1 2.439-.237 8.84 8.84 0 0 1-.316-.401c-1.718-2.314-1.999-4.781-.768-6.767 1.437-2.322 4.675-3.475 8.053-2.87 11.627 2.081 20.133 11.396 26.344 18.197 1.51 1.654 2.931 3.203 4.282 4.676 9.413 10.26 15.632 17.039 24.816 29.72a1.88 1.88 0 0 1-3.046 2.206c-9.056-12.505-14.885-18.858-24.541-29.383-1.353-1.475-2.777-3.026-4.289-4.682-5.848-6.404-13.857-15.175-24.228-17.031-2.035-.363-3.681.32-4.194 1.149-.488.788.052 1.818.59 2.543 1.096 1.475 3.119 2.5 4.905 3.405a1.88 1.88 0 0 1-1.21 3.523c-3.282-.64-5.31-.717-8.348-.319-3.197.421-5.936 1.63-7.713 3.405-.645.644-1.296 1.629-1.003 2.282.222.497 1.037.966 1.936 1.117 1.118.185 2.382-.005 3.603-.19a1.88 1.88 0 0 1 1.86 2.881c-7.398 11.423-13.107 29.869-15.27 49.342-2.09 18.816-.424 35.216 4.347 42.799a1.882 1.882 0 0 1-1.59 2.882z" fill="#e0a58f"/><path d="M358.175 269.583c-9.803 4.799-21.4 8.523-33.572 11.27-7.295 1.645-14.799 2.943-22.243 3.914-4.063.529-8.111.962-12.096 1.302-19.738 1.677-38.007 1.071-49.621-1.369-18.66-1.725-51.832-12.694-79.454-28.62-3.82-2.2-7.533-4.498-11.091-6.882-6.737-4.514-12.902-9.323-18.137-14.355-4.831-4.651-8.867-9.492-11.819-14.458-2.542-4.263-4.281-8.622-5.051-13.036-.714-4.063-.593-8.18.496-12.309 1.179-4.473 6.633-14.019 14.24-25.773 20.473-31.653 56.504-79.333 66.435-87.145 13.617-10.712 42.569-10.789 75.775-5.786 33.207 5.003 64.729 14.192 74.585 28.441s40.651 114.027 39.938 131.09c-.609 14.607-11.982 25.679-28.385 33.716z" fill="#e36254"/><path d="M290.263 286.069c-19.738 1.677-38.007 1.071-49.621-1.369-18.66-1.725-51.832-12.694-79.454-28.62-3.82-2.2-7.533-4.498-11.091-6.882-6.737-4.514-12.902-9.323-18.137-14.355 11.973-32.26 49.17-52.477 89.31-46.429 45.188 6.808 77.001 44.323 71.055 83.789-.141.94-1.363 9.298-2.062 13.866z" fill="#ffe8db"/><circle cx="268.576" cy="179.864" fill="#fff" transform="rotate(-82.6 268.47 179.802)" r="23.721"/><path d="M268.591 205.468c-1.265 0-2.542-.094-3.83-.288-13.959-2.103-23.604-15.171-21.502-29.131 2.103-13.959 15.167-23.608 29.131-21.502 13.959 2.103 23.604 15.171 21.502 29.131-1.909 12.672-12.856 21.79-25.301 21.79zm-.028-47.447c-10.618 0-19.955 7.778-21.584 18.588-1.794 11.908 6.435 23.057 18.343 24.851 11.909 1.793 23.055-6.436 24.851-18.343 1.794-11.908-6.435-23.057-18.343-24.851a22.108 22.108 0 0 0-3.267-.245zm23.47 25.377h.005z"/><path d="M282.408 183.056c-1.169 7.76-8.41 13.105-16.17 11.935-7.76-1.169-13.104-8.41-11.935-16.17 1.17-7.764 8.411-13.109 16.17-11.94a14.148 14.148 0 0 1 8.504 4.615 9.84 9.84 0 0 0-.665.269c-3.953 1.744-6.271 5.176-5.178 7.667 1.099 2.487 5.199 3.091 9.156 1.348.093-.041.186-.081.275-.127a13.96 13.96 0 0 1-.157 2.403z"/><ellipse cx="179.91" cy="166.505" fill="#fff" rx="23.721" ry="21.657" transform="rotate(-81.43 179.91 166.475)"/><path d="M179.341 192.064c-1.073 0-2.156-.079-3.245-.243-12.833-1.933-21.564-14.863-19.461-28.822 2.103-13.959 14.253-23.747 27.089-21.809 6.249.941 11.715 4.48 15.39 9.964 3.639 5.43 5.085 12.128 4.071 18.858-1.925 12.774-12.266 22.052-23.844 22.052zm-18.987-28.505c-1.794 11.908 5.519 22.919 16.302 24.543.9.136 1.799.202 2.686.202 9.748.001 18.479-7.938 20.123-18.852.874-5.8-.361-11.555-3.476-16.204-3.08-4.595-7.635-7.556-12.826-8.339-10.789-1.632-21.015 6.741-22.809 18.65z"/><path d="M171.148 166.293c-1.169 7.76 4.175 15.001 11.935 16.17s15.001-4.175 16.17-11.935a14.06 14.06 0 0 0 .157-2.403c-.093.041-.186.086-.279.127-3.953 1.744-8.053 1.14-9.152-1.347-1.093-2.491 1.221-5.923 5.178-7.667.22-.099.443-.189.665-.269a14.15 14.15 0 0 0-8.504-4.615c-7.759-1.17-15 4.175-16.17 11.939zM208.948 191.949l21.696 3.269c2.64.398 3.614 3.698 1.612 5.465l-12.136 10.715a4.136 4.136 0 0 1-6.306-1.01l-8.047-13.742c-1.335-2.28.568-5.09 3.181-4.697z"/><path d="M234.594 239.661c-6.057 0-12.245-3.155-15.966-8.313-1.603-2.221-2.759-4.766-3.442-7.473-1.451 2.385-3.306 4.477-5.491 6.128-5.751 4.342-13.768 5.295-19.953 2.37-6.603-3.123-10.716-10.692-9.568-17.606a1.88 1.88 0 0 1 3.71.616c-.883 5.316 2.327 11.159 7.466 13.59 4.952 2.343 11.414 1.551 16.078-1.971 3.811-2.878 6.419-7.399 7.258-12.428.03-.223.064-.447.101-.669.087-.652.146-1.312.172-1.978a1.88 1.88 0 0 1 2.16-1.783l.268.04a1.878 1.878 0 0 1 1.537 2.341 20.92 20.92 0 0 0-.418 1.941 29.96 29.96 0 0 1-.101.669c-.681 5.052.48 10.141 3.274 14.015 3.42 4.74 9.36 7.402 14.783 6.621 5.627-.809 10.416-5.446 11.138-10.786a1.88 1.88 0 1 1 3.727.505c-.94 6.945-7.101 12.966-14.33 14.005-.795.11-1.598.166-2.403.166z"/><path d="M133.773 183.642c-6.287 11.507-10.875 23.927-13.632 36.743-2.542-4.263-4.281-8.622-5.051-13.036-.714-4.063-.593-8.18.496-12.309 1.179-4.473 6.633-14.019 14.24-25.773 2.456.397 4.897 1.58 6.016 3.781 1.708 3.344-.268 7.301-2.069 10.594zM358.175 269.583c-9.803 4.799-21.4 8.523-33.572 11.27-7.295 1.645-14.799 2.943-22.243 3.914 7.123-23.982 8.236-55.275 4.201-75.091-.75-3.678-1.473-8.041 1.145-10.733 1.892-1.954 4.964-2.257 7.626-1.715 6.473 1.323 11.33 6.597 15.355 11.833 7.669 9.97 23.794 33.645 27.488 60.522z" fill="#ffe8db"/><path d="M268.774 288.885c-11.44 0-21.335-.849-28.412-2.322-17.875-1.682-51.087-12.118-80.113-28.853a196.608 196.608 0 0 1-11.198-6.948c-20.974-14.041-33.358-28.942-35.814-43.09-.777-4.421-.598-8.833.531-13.11 4.436-16.857 67.28-102.864 81.329-113.916 12.602-9.913 38.581-11.989 77.218-6.168 23.194 3.495 63.891 11.939 75.852 29.231 10.493 15.17 40.979 115.276 40.27 132.239-.88 21.11-23.404 37.709-63.422 46.741-19.36 4.367-39.46 6.196-56.241 6.196zM234.497 74.98c-17.36 0-29.773 2.878-37.074 8.621-13.326 10.483-75.84 96.043-80.018 111.918-.99 3.749-1.146 7.619-.463 11.505 2.276 13.115 14.103 27.156 34.201 40.612a192.595 192.595 0 0 0 10.983 6.814c28.617 16.5 61.247 26.765 78.689 28.377.071.007.143.017.213.032 17.027 3.575 51.06 3.403 83.16-3.84 22.127-4.994 59.408-17.251 60.492-43.229.669-16.016-29.683-115.597-39.606-129.942-8.268-11.953-34.306-21.773-73.319-27.651-14.234-2.146-26.666-3.217-37.258-3.217zm90.106 205.873h.005z" fill="#a63c30"/><path d="M363.762 172.662c14.09-14.178 20.319-66.205 9.944-94.275 1.301.507 2.635 1.021 4.052 1.1s2.957-.363 3.745-1.418c1.003-1.343.492-3.176-.398-4.579-1.685-2.657-4.558-4.609-7.721-5.769s-5.391-1.535-8.809-1.631c2.256-.572 4.609-1.192 6.297-2.647 4.126-3.556.729-7.495-3.853-7.695-10.874-.475-20.432 5.992-28.529 11.651-14.758 10.315-22.443 15.305-35.756 27.059-13.414 19.171 44.966 86.108 61.028 78.204z" fill="#ffe8db"/><path d="M360.701 175.195c-10.261 0-26.19-14.176-37.759-27.669-15.148-17.667-29.934-42.448-21.75-54.146.085-.122.185-.233.296-.332 11.736-10.362 19.287-15.614 30.717-23.563 1.642-1.142 3.37-2.344 5.207-3.628 7.549-5.277 17.894-12.508 29.688-11.989 3.43.15 6.335 1.984 7.23 4.565.766 2.207-.048 4.552-2.231 6.434-.13.111-.262.219-.396.322.743.213 1.507.465 2.328.766 3.799 1.393 6.876 3.711 8.662 6.527 1.533 2.416 1.651 4.925.317 6.712-1.093 1.462-3.148 2.297-5.357 2.17a9.359 9.359 0 0 1-1.005-.112c8.716 28.767 2.867 78.227-11.552 92.735-.146.148-.317.27-.504.362-1.172.577-2.478.846-3.891.846zm3.061-2.533h.005zm-59.608-76.95c-5.296 8.045 3.558 28.275 21.642 49.366 14.963 17.45 30.685 28.515 36.867 26.016 6.21-6.503 11.321-21.985 13.375-40.568 2.153-19.475.621-38.723-4.098-51.488a1.88 1.88 0 0 1 2.446-2.404c1.151.448 2.341.911 3.475.975.916.048 1.807-.23 2.134-.666.428-.573.008-1.675-.48-2.446-1.345-2.121-3.753-3.901-6.781-5.01-2.876-1.055-4.872-1.423-8.214-1.516a1.88 1.88 0 0 1-.41-3.703c1.941-.492 4.141-1.05 5.531-2.249.685-.59 1.437-1.477 1.133-2.352-.32-.921-1.774-1.949-3.841-2.039-10.53-.476-20.262 6.345-27.37 11.314a2084.549 2084.549 0 0 1-5.214 3.632c-11.662 8.112-18.726 13.026-30.195 23.138z" fill="#e0a58f"/><g><path d="M350.007 82.02c-9.899-6.734-34.684 17.359-38.204 23.043-3.521 5.684 26.944 48.078 34.456 45.401 7.511-2.678 12.491-62.497 3.748-68.444z" fill="#a63c30"/><path d="M345.59 152.45c-3.912 0-10.007-5.094-18.152-15.181-4.973-6.158-9.76-13.099-13.135-19.045-5.453-9.605-5.055-12.608-4.099-14.151 2.725-4.4 19.961-22.086 32.593-24.771 3.318-.705 6.098-.313 8.268 1.163 7.645 5.201 5.473 36.352 3.991 47.916-1.866 14.562-4.614 22.588-8.166 23.854a3.858 3.858 0 0 1-1.3.215zm-32.166-46.433c-.243.821.61 5.148 7.367 15.648 5.212 8.099 11.731 16.371 17.013 21.588 5.956 5.883 7.804 5.448 7.822 5.439 1.595-.687 4.708-9.521 6.311-26.296 2.039-21.335.037-36.763-2.989-38.822-1.29-.877-3.097-1.078-5.371-.593-10.674 2.268-27.218 18.352-30.153 23.036z" fill="#7d271d"/></g><g><path d="m382.163 145.586-.86 4.148-2.418 11.66-.86 4.153c-.785 3.783-4.551 6.206-8.409 5.405l-210.243-43.549c-4.906-1.016-7.286-6.539-4.599-10.666l1.01-1.553 6.958-10.671 3.912-6.001c1.59-2.429 4.54-3.643 7.436-3.041l202.495 41.813c3.864.796 6.363 4.514 5.578 8.302z" fill="#3f9e53"/><path d="M371.109 172.987c-.622 0-1.25-.064-1.874-.194l-210.242-43.549a9.044 9.044 0 0 1-6.535-5.364 8.773 8.773 0 0 1 .741-8.168l11.88-18.226c2.035-3.106 5.722-4.619 9.395-3.856l202.492 41.813a9.022 9.022 0 0 1 5.761 3.894 8.764 8.764 0 0 1 1.278 6.631l-4.137 19.961a8.756 8.756 0 0 1-3.877 5.622 9.011 9.011 0 0 1-4.882 1.436zM172.631 97.202c-1.756 0-3.438.868-4.403 2.341l-11.877 18.221a4.951 4.951 0 0 0-.422 4.67c.677 1.624 2.072 2.765 3.826 3.128l210.243 43.55a5.292 5.292 0 0 0 3.958-.725 5.025 5.025 0 0 0 2.228-3.222l4.137-19.96a5.018 5.018 0 0 0-.737-3.8 5.287 5.287 0 0 0-3.378-2.278L173.711 97.313a5.366 5.366 0 0 0-1.08-.111zm209.532 48.384h.005z" fill="#30753e"/></g><g><path d="m381.303 149.734-2.417 11.659-223.101-46.208 6.958-10.671z" fill="#fcd242"/><path d="M378.888 163.275a1.93 1.93 0 0 1-.383-.039l-223.1-46.208a1.883 1.883 0 0 1-1.194-2.869l6.958-10.671a1.884 1.884 0 0 1 1.956-.815l218.56 45.22a1.883 1.883 0 0 1 1.46 2.224l-2.418 11.66a1.882 1.882 0 0 1-1.839 1.498zm-220.021-49.372 218.559 45.268 1.654-7.977-215.462-44.579z" fill="#ff713e"/></g><g><path d="M216.797 126.581c-.248 4.092-6.647 7.035-14.294 6.572-7.646-.463-13.644-4.156-13.396-8.248s6.647-7.035 14.294-6.572c7.646.463 13.644 4.156 13.396 8.248z" fill="#ffe8db"/><path d="M204.085 135.082c-.557 0-1.122-.017-1.695-.052-8.816-.533-15.475-5.031-15.16-10.239s7.469-8.867 16.285-8.335c8.816.534 15.475 5.031 15.159 10.239-.294 4.869-6.568 8.387-14.589 8.387zm-2.232-14.916c-6.142 0-10.721 2.426-10.869 4.852-.158 2.611 4.784 5.843 11.634 6.258 6.839.412 12.144-2.196 12.303-4.809.158-2.612-4.783-5.842-11.633-6.257a24.165 24.165 0 0 0-1.435-.044zm14.945 6.415h.005z" fill="#e0a58f"/></g><g><path d="M274.631 139.96c-1.031 3.968-7.877 5.624-15.291 3.699-7.415-1.926-12.59-6.703-11.559-10.672 1.031-3.968 7.877-5.624 15.291-3.699s12.589 6.703 11.559 10.672z" fill="#ffe8db"/><path d="M265.381 146.343c-2.086 0-4.301-.29-6.514-.864-8.549-2.221-14.218-7.915-12.906-12.965.681-2.623 3.035-4.546 6.63-5.415 3.184-.77 7.074-.639 10.955.368 3.88 1.007 7.342 2.786 9.749 5.008 2.717 2.509 3.838 5.334 3.157 7.957s-3.035 4.546-6.63 5.415c-1.37.331-2.869.496-4.441.496zm-8.365-15.974c-1.274 0-2.475.128-3.542.386-2.15.52-3.562 1.506-3.874 2.704-.657 2.532 3.57 6.653 10.212 8.379 3.244.843 6.57.971 9.125.353 2.15-.52 3.562-1.506 3.874-2.704.311-1.198-.442-2.747-2.068-4.247-1.932-1.783-4.9-3.289-8.144-4.131-1.889-.491-3.806-.74-5.583-.74z" fill="#e0a58f"/></g></g><g><path d="M261.984 393.074c-.328 27.959 13.17 63.047 40.589 59.365 14.996-2.014 38.991-18.401 38.991-18.401s13.218 22.153 19.683 17.589 6.643-38.971-1.193-44.616c-4.925-3.547-26.997-.537-46.828 1.606-4.061-11.179-3.447-28.395-3.447-28.395s-9.647-12.401-28.452-7.565c-20.321 5.225-19.343 20.417-19.343 20.417z" fill="#a63c30"/><path d="M298.603 454.591c-7.121 0-13.594-2.543-19.295-7.588-13.562-12.004-19.418-35.746-19.205-53.951.012-1.039.871-1.891 1.903-1.858a1.88 1.88 0 0 1 1.858 1.903c-.203 17.348 5.264 39.873 17.937 51.09 5.952 5.269 12.856 7.419 20.521 6.389 14.379-1.93 37.944-17.928 38.181-18.09a1.88 1.88 0 0 1 2.676.59c3.681 6.166 11.164 16.298 15.568 17.232.76.161 1.154-.031 1.416-.215 1.89-1.334 3.926-8.423 3.976-18.933.052-10.906-2.128-20.42-5.184-22.621-3.759-2.707-23.005-.557-38.47 1.17-2.362.264-4.725.528-7.057.78a1.88 1.88 0 0 1-1.97-1.227c-4.138-11.392-3.584-28.387-3.558-29.105a1.88 1.88 0 0 1 3.759.134c-.006.162-.507 15.593 2.864 26.296 1.838-.201 3.691-.408 5.544-.615 22.493-2.512 36.483-3.799 41.086-.484 5.047 3.636 6.794 15.655 6.746 25.691-.021 4.25-.482 18.396-5.568 21.988-1.245.879-2.756 1.163-4.366.822-6.31-1.339-14.104-12.767-16.979-17.303-5.74 3.761-25.022 15.856-38.163 17.62-1.43.189-2.838.285-4.22.285z" fill="#7d271d"/></g></svg>