<svg id="Icons" height="512" viewBox="0 0 60 60" width="512" xmlns="http://www.w3.org/2000/svg"><path d="m29.275 57.458a.5.5 0 0 1 -.263-.925l3.119-1.933-4.719 2.723a.5.5 0 0 1 -.522-.851l15.631-10.154-18.508 10.682a.5.5 0 0 1 -.513-.858l5.7-3.513-7.074 4.084a.5.5 0 0 1 -.516-.857l13.18-8.245-14.936 8.625a.5.5 0 0 1 -.514-.857l13.76-8.566-15.34 8.856a.5.5 0 0 1 -.514-.857l13.726-8.5-15.088 8.709a.5.5 0 0 1 -.51-.859l6.636-4.043-7.51 4.338a.5.5 0 0 1 -.511-.859l10.367-6.34-11.3 6.522a.5.5 0 0 1 -.511-.859l10.484-6.4-11.313 6.529a.5.5 0 0 1 -.509-.861l5.473-3.314-6.055 3.495a.5.5 0 0 1 -.51-.859l10.425-6.349-11.069 6.391a.5.5 0 0 1 -.51-.86l11.468-6.986-12.057 6.96a.5.5 0 0 1 -.513-.858l18.233-11.23-18.954 10.943a.5.5 0 0 1 -.509-.86l8.4-5.086-8.729 5.039a.5.5 0 0 1 -.514-.857l22.4-13.91-23.043 13.302a.5.5 0 0 1 -.508-.86l4.223-2.547-4.329 2.5a.5.5 0 0 1 -.512-.858l20.324-12.548-20.661 11.929a.5.5 0 0 1 -.514-.858l21.357-13.222-21.588 12.463a.5.5 0 0 1 -.513-.858l19.012-11.716-19.069 11.009a.5.5 0 0 1 -.511-.858l17.188-10.565-17.102 9.873a.5.5 0 0 1 -.513-.857l20.373-12.638-20.216 11.672a.5.5 0 0 1 -.509-.86l2.625-1.585-2.263 1.306a.5.5 0 0 1 -.513-.857l18.1-11.21-17.719 10.227a.5.5 0 0 1 -.515-.856l19.491-12.176-18.981 10.962a.5.5 0 0 1 -.51-.862l8.86-5.417-8.277 4.781a.5.5 0 0 1 -.512-.858l10.074-6.189-9.413 5.434a.5.5 0 0 1 -.511-.859l8.41-5.166-7.675 4.431a.5.5 0 0 1 -.514-.857l11.543-7.173-10.653 6.15a.5.5 0 0 1 -.511-.859l1.512-.918-.647.373a.5.5 0 0 1 -.514-.857l7.907-4.917-6.836 3.941a.5.5 0 0 1 -.518-.855l11.523-7.341-10.083 5.821a.5.5 0 0 1 -.52-.854l9.526-6.122-7.8 4.5a.5.5 0 0 1 -.523-.851l7.6-4.962-5.425 3.135a.5.5 0 0 1 -.52-.854l1.968-1.266a.5.5 0 0 1 -.449-.225.5.5 0 0 1 .123-.677l4.63-3.4a.5.5 0 0 1 -.129-.918l6.464-3.736a.5.5 0 0 1 .546.836l-3.602 2.649 9-5.2a.5.5 0 0 1 .52.854l-1.045.672 3.221-1.856a.5.5 0 0 1 .523.852l-7.595 4.958 10.189-5.882a.5.5 0 0 1 .521.854l-9.53 6.128 11.722-6.772a.5.5 0 0 1 .519.855l-11.519 7.338 13.462-7.772a.5.5 0 0 1 .514.857l-7.912 4.92 9.217-5.321a.5.5 0 0 1 .511.859l-1.509.922 2.347-1.355a.5.5 0 0 1 .514.857l-11.54 7.172 12.763-7.369a.5.5 0 0 1 .512.858l-8.434 5.181 9.348-5.4a.5.5 0 0 1 .512.858l-10.058 6.183 10.94-6.316a.5.5 0 0 1 .51.86l-8.844 5.407 9.577-5.529a.5.5 0 0 1 .514.856l-19.5 12.176 20.632-11.909a.5.5 0 0 1 .514.857l-18.111 11.22 19.012-10.977a.5.5 0 0 1 .509.861l-2.624 1.584 2.962-1.71a.5.5 0 0 1 .514.857l-20.369 12.635 21.178-12.228a.5.5 0 0 1 .512.859l-17.187 10.563 17.761-10.254a.5.5 0 0 1 .513.859l-19.018 11.719 19.566-11.3a.5.5 0 0 1 .513.858l-21.351 13.223 21.887-12.636a.5.5 0 0 1 .512.858l-20.316 12.542 20.728-11.968a.5.5 0 0 1 .508.861l-4.245 2.559 4.286-2.475a.5.5 0 0 1 .514.857l-22.405 13.913 22.743-13.13a.5.5 0 0 1 .509.861l-8.361 5.063 8.353-4.822a.5.5 0 0 1 .512.858l-18.234 11.233 18.332-10.584a.5.5 0 0 1 .51.859l-11.464 6.986 11.391-6.577a.5.5 0 0 1 .509.86l-10.428 6.35 10.3-5.949a.5.5 0 0 1 .509.86l-5.49 3.327 5.282-3.048a.5.5 0 0 1 .511.859l-10.477 6.4 10.258-5.922a.5.5 0 0 1 .511.859l-10.372 6.341 10.1-5.832a.5.5 0 0 1 .51.859l-6.64 4.046 6.3-3.639a.5.5 0 0 1 .514.858l-13.727 8.5 13.361-7.713a.5.5 0 0 1 .514.857l-13.754 8.566 13.316-7.688a.5.5 0 0 1 .516.857l-13.169 8.238 12.639-7.3a.5.5 0 0 1 .513.859l-5.7 3.513 5.1-2.941a.5.5 0 0 1 .522.851l-15.635 10.152 14.746-8.514a.5.5 0 0 1 .514.858l-3.125 1.942 2.254-1.3a.5.5 0 0 1 .517.856l-5.549 3.511 4.467-2.579a.5.5 0 0 1 .527.849l-8.669 5.762 6.959-4.018a.5.5 0 0 1 .524.851l-2.891 1.902.991-.571a.5.5 0 0 1 .551.832l-4.023 3.032a.5.5 0 0 1 .18.928l-6.056 3.5a.5.5 0 0 1 -.551-.832l3.328-2.509-8.97 5.179a.5.5 0 0 1 -.525-.851l2.884-1.893-5.659 3.266a.5.5 0 0 1 -.526-.848l8.669-5.762-11.96 6.896a.5.5 0 0 1 -.518-.855l5.553-3.512-7.61 4.393a.494.494 0 0 1 -.25.065z" fill="#f4bc2f"/><path d="m19.775 41.032a.5.5 0 0 1 -.308-.893l2.688-2.11-3.647 2.106a.5.5 0 0 1 -.55-.833l.563-.422-.174.1a.5.5 0 0 1 -.633-.111.5.5 0 0 1 0-.642l.976-1.166-.079.044a.5.5 0 0 1 -.5-.865l2.525-1.457a.5.5 0 0 1 .634.754l-.977 1.163 4.971-2.87a.5.5 0 0 1 .549.833l-.563.422 2.506-1.446a.5.5 0 0 1 .558.826l-2.689 2.11 5.143-2.969a.5.5 0 0 1 .548.833l-1.9 1.421 3.7-2.137a.5.5 0 0 1 .585.8l-3.544 3.2 6.2-3.581a.5.5 0 0 1 .556.829l-1.8 1.389 3.091-1.784a.5.5 0 0 1 .593.8l-2.713 2.564 4.363-2.519a.5.5 0 0 1 .56.825l-.482.38.813-.469a.5.5 0 0 1 .578.81l-.608.53.4-.231a.5.5 0 0 1 .707.634l-.683 1.542a.5.5 0 0 1 .217.932l-.986.569a.5.5 0 0 1 -.707-.634l.624-1.411-3.55 2.049a.5.5 0 0 1 -.578-.809l.61-.533-2.328 1.344a.5.5 0 0 1 -.559-.825l.476-.376-2.086 1.2a.5.5 0 0 1 -.593-.8l2.72-2.561-5.825 3.362a.5.5 0 0 1 -.556-.828l1.8-1.389-3.844 2.219a.5.5 0 0 1 -.585-.8l3.544-3.2-6.943 4.009a.5.5 0 0 1 -.549-.833l1.9-1.424-3.913 2.259a.491.491 0 0 1 -.246.07z" fill="#fff"/><path d="m31.524 51.353a.5.5 0 0 1 -.309-.893l3.4-2.678-6.03 3.482a.5.5 0 0 1 -.531-.846l1.583-1.077-2.644 1.525a.5.5 0 0 1 -.535-.843l4.65-3.236-5.795 3.346a.5.5 0 0 1 -.539-.841l5.11-3.627-6.069 3.5a.5.5 0 0 1 -.534-.845l2.94-2.021-3.443 1.986a.5.5 0 0 1 -.528-.849l.138-.091-.335.193a.5.5 0 0 1 -.539-.841l2.476-1.754-2.757 1.591a.5.5 0 0 1 -.548-.833l2.658-1.984-2.883 1.666a.5.5 0 0 1 -.558-.827l1.856-1.448-1.923 1.11a.5.5 0 0 1 -.6-.793l1.609-1.549-1.614.932a.5.5 0 0 1 -.741-.529l.2-1a.5.5 0 0 1 -.434-.9l.884-.51a.5.5 0 0 1 .741.529l-.194 1 4.214-2.437a.5.5 0 0 1 .6.793l-1.615 1.546 4.591-2.65a.5.5 0 0 1 .557.827l-1.853 1.45 4.02-2.327a.5.5 0 0 1 .549.833l-2.649 1.987 4.711-2.72a.5.5 0 0 1 .539.841l-2.475 1.753 4.153-2.4a.5.5 0 0 1 .529.848l-.139.092 1.253-.723a.5.5 0 0 1 .533.845l-2.942 2.024 4.361-2.517a.5.5 0 0 1 .539.841l-5.107 3.624 6.814-3.934a.5.5 0 0 1 .535.843l-4.656 3.24 4.1-2.364a.5.5 0 0 1 .531.846l-1.579 1.075.321-.185a.5.5 0 0 1 .56.825l-3.398 2.676.868-.5a.5.5 0 1 1 .5.865l-6.877 3.971a.493.493 0 0 1 -.25.067z" fill="#845728"/><g fill="#ce2440"><path d="m22.884 30.464a.5.5 0 0 1 -.417-.776l.38-.576-1.2.691a.5.5 0 0 1 -.612-.778l.5-.521-1.183.683a.5.5 0 0 1 -.591-.8l.846-.791-4.1 2.368a.5.5 0 0 1 -.556-.828l4.313-3.325-6.374 3.679a.5.5 0 0 1 -.527-.848l.3-.2a.493.493 0 0 1 -.543-.207.5.5 0 0 1 .113-.674l5.648-4.292-4.842 2.794a.5.5 0 0 1 -.563-.822l4.02-3.233-3.846 2.22a.5.5 0 0 1 -.568-.819l3.525-2.909-4.138 2.389a.5.5 0 0 1 -.554-.83l2.485-1.9-2.855 1.649a.5.5 0 0 1 -.68-.688l.541-.911a.5.5 0 0 1 -.446-.893l1.6-.922a.493.493 0 0 1 .605.081.5.5 0 0 1 .074.606l-.537.9 7.918-4.57a.5.5 0 0 1 .554.83l-2.486 1.9 2.6-1.5a.5.5 0 0 1 .568.818l-3.526 2.912 4.285-2.471a.5.5 0 0 1 .564.823l-4.023 3.235 6.069-3.5a.5.5 0 0 1 .552.831l-5.646 4.291 6.562-3.788a.5.5 0 0 1 .527.849l-.749.5a.491.491 0 0 1 .448.221.5.5 0 0 1 -.109.673l-4.31 3.315 1.4-.81a.5.5 0 0 1 .591.8l-.848.792.393-.227a.5.5 0 0 1 .612.778l-.5.521.024-.014a.5.5 0 0 1 .667.708l-.488.74a.5.5 0 0 1 .212.931l-1.436.829a.49.49 0 0 1 -.243.066z"/><path d="m16.532 17.444a.5.5 0 0 1 -.375-.83l1.2-1.361a.517.517 0 0 1 -.122-.143.5.5 0 0 1 .183-.682l1.425-.823a.5.5 0 0 1 .625.763l-.546.621 1.113-.642a.5.5 0 1 1 .5.865l-3.751 2.165a.489.489 0 0 1 -.252.067z"/><path d="m44.884 30.464a.5.5 0 0 1 -.4-.8l.077-.1-.642.371a.5.5 0 0 1 -.619-.771l.456-.5-1.133.653a.5.5 0 0 1 -.6-.789l.98-.963-2.603 1.505a.5.5 0 0 1 -.568-.819l3.151-2.583-6.983 4.032a.5.5 0 0 1 -.55-.833l6.184-4.622-5.761 3.325a.5.5 0 0 1 -.56-.825l5.33-4.207-4.561 2.633a.5.5 0 0 1 -.553-.831l2.323-1.765-2.429 1.4a.5.5 0 0 1 -.576-.812l4.034-3.463-4.781 2.761a.5.5 0 0 1 -.545-.837l1.269-.925-1.424.822a.5.5 0 0 1 -.623-.1.5.5 0 0 1 -.031-.63l.405-.55a.5.5 0 0 1 -.374-.241.5.5 0 0 1 .183-.683l1.6-.922a.5.5 0 0 1 .653.728l-.253.344 7.507-4.333a.5.5 0 0 1 .545.837l-1.271.926 1.282-.741a.5.5 0 0 1 .577.812l-4.033 3.463 4.641-2.679a.5.5 0 0 1 .553.831l-2.323 1.764 3.684-2.126a.5.5 0 0 1 .56.825l-5.33 4.208 7.092-4.1a.5.5 0 0 1 .55.833l-6.182 4.623 4.962-2.865a.5.5 0 0 1 .568.819l-3.149 2.582.718-.415a.5.5 0 0 1 .6.79l-.981.962.537-.309a.5.5 0 0 1 .619.77l-.457.5a.5.5 0 0 1 .626.747l-.361.477a.492.492 0 0 1 .258.219.5.5 0 0 1 -.183.682l-1.436.829a.49.49 0 0 1 -.249.066z"/><path d="m38.231 18a.5.5 0 0 1 -.385-.818l1.562-1.889a.493.493 0 0 1 -.175-.179.5.5 0 0 1 .183-.682l1.425-.823a.5.5 0 0 1 .636.751l-1.091 1.319 1.808-1.043a.5.5 0 1 1 .5.865l-4.213 2.432a.489.489 0 0 1 -.25.067z"/></g><path d="m41.03 4.653c-24.144-10.515-50.36 18.425-37.544 41.311 10 14.521 33.755 14.518 47.513 5.683 16.538-12.287 7.907-40.469-9.969-46.994zm11.814 44.133c-24.518 20.472-66.423.523-46-32.752 21.931-31.779 67.675 3.015 46 32.752z" fill="#262626"/><path d="m41.582 35.715c-6.227-2.582-19.632-3.676-24.2 1.841-.594 9.58 10.44 17.678 18.9 11.805 3.689-2.42 8.783-9.656 5.3-13.646zm-22.4.713c3.99-2.785 23.608-4.429 22 3.514a43.692 43.692 0 0 0 -22.1.05c-.22-1.116-.649-2.563.104-3.564zm17.918 11.381c-6.263 6.6-16.275.9-17.814-6.981a41.616 41.616 0 0 1 21.647.128 15.526 15.526 0 0 1 -3.833 6.853z" fill="#262626"/><path d="m19.338 29.146c2.544 1.68 6.731 2.31 5.839-2.1-.094-.863-.482-2.143.053-2.913.932-1.441 3.341-2.726 2.262-4.712-.92-1.375-2.844-1.073-4.242-1.567-1.858-1.308-2.35-5.954-5.55-3.854-1.023.839-1.381 2.283-2.091 3.363-1.5 1.455-5.566.385-5.276 3.562.295 1.775 2.737 2.553 2.782 4.4-.783 3.076-.057 6.893 3.855 4.559.692-.334 1.575-1.024 2.368-.738zm-2.747-.24c-3.582 2.174-1.744-2.826-2.078-4.594-.488-1.448-2.31-2.223-2.726-3.688.091-2.246 3.563-.956 4.717-2.424 1.1-.707 1.6-4.983 3.217-3.012 1.556 5.69 6.231 2.594 6.566 5.686-.48 1.48-2.37 2.249-2.752 3.8 1.242 10.009-2.349.616-6.944 4.232z" fill="#262626"/><path d="m46.931 18.283c-3.607.319-3.229-6.607-7.209-4.187-1.391.907-1.352 3.261-2.888 3.927-3.128.224-6.5 2.124-3.052 5.04 1.728 1.254 1.32 3.156 1.043 4.985-.043 4.582 4.2 1.14 6.358.973 1.734.647 3.751 2.4 5.476.744 1.45-1.474-.129-3.621.362-5.344 1.754-2.346 5.119-5.406-.09-6.138zm.069 4.417c-2.571 1.636-.7 4.4-1.369 6.636-2.359.637-3.5-2.855-6.939-.351-3.633 2.218-1.9-2.85-2.175-4.669-.517-1.438-2.331-2.216-2.73-3.692.326-3.084 4.63.389 6.577-5.708 1.978-1.4 2.025 3.726 4.083 3.842 2.582.303 5.644 1.316 2.553 3.942z" fill="#262626"/></svg>