<svg height="512" width="512" xmlns="http://www.w3.org/2000/svg"><path d="M298.857 381.095c29.172 12.392 74.754 29.737 74.754 29.737s17.804-19.147 23.242-13.25c5.438 5.896-1.693 40.033-10.658 43.962-8.964 3.93-86.349-1.155-86.349-1.155z" fill="#a63c30"/><path d="M365.23 444.938c-24.25 0-59.959-2.282-65.509-2.647a1.906 1.906 0 0 1-1.781-1.87l-.989-59.294a1.905 1.905 0 0 1 2.651-1.786c26.195 11.128 66.138 26.444 73.502 29.258 3.342-3.458 14.138-14.05 20.984-14.05h.014c1.669.003 3.104.605 4.152 1.741 4.278 4.64 1.731 18.758.849 22.974-2.084 9.955-6.368 21.496-12.142 24.027-2.77 1.213-11.165 1.647-21.731 1.647zm-63.508-6.337c30.958 1.992 77.56 3.891 83.707 1.198 3.496-1.533 7.677-10.498 9.941-21.317 2.182-10.426 1.67-17.884.08-19.608-.22-.238-.573-.512-1.357-.514h-.008c-4.566 0-14.124 8.444-19.08 13.77a1.902 1.902 0 0 1-2.073.483c-.442-.169-43.204-16.454-72.122-28.623z" fill="#7d271d"/><path d="M231.129 381.095c-29.171 12.392-74.754 29.737-74.754 29.737s-17.804-19.147-23.242-13.25c-5.438 5.896 1.693 40.033 10.658 43.962 8.964 3.93 86.349-1.155 86.349-1.155z" fill="#a63c30"/><path d="M164.756 444.938c-10.568 0-18.96-.434-21.73-1.648-5.774-2.531-10.058-14.071-12.142-24.027-.883-4.216-3.43-18.333.849-22.973 1.048-1.136 2.483-1.738 4.152-1.741h.013c6.846 0 17.642 10.592 20.984 14.05 7.364-2.814 47.307-18.13 73.502-29.258a1.906 1.906 0 0 1 2.651 1.786l-.989 59.294a1.906 1.906 0 0 1-1.781 1.87c-5.549.364-41.259 2.647-65.509 2.647zM135.9 398.36h-.008c-.784.002-1.137.276-1.357.514-1.59 1.724-2.102 9.182.08 19.607 2.265 10.82 6.446 19.785 9.942 21.318 6.148 2.694 52.749.794 83.707-1.198l.911-54.61c-28.917 12.169-71.679 28.454-72.121 28.623a1.907 1.907 0 0 1-2.074-.483c-4.956-5.327-14.514-13.771-19.08-13.771z" fill="#7d271d"/><path d="M187.745 409.108c10.624 28.922 56.069 36.71 77.721 36.71s65.251-7.787 75.875-36.71c8.724-23.732-6.273-63.568-22.012-101.073-.583-1.383-1.16-2.761-1.743-4.133-2.865-6.78-5.729-13.456-8.446-19.926h-89.195c-2.603 6.192-5.337 12.574-8.076 19.055-.523 1.236-1.046 2.478-1.568 3.72-15.933 37.875-31.378 78.353-22.556 102.357z" fill="#e36254"/><path d="M211.87 303.031c50.838 33.617 92.819 27.082 110.245 11.834-.583-1.383-3.944-9.59-4.527-10.962-2.865-6.78-5.729-13.456-8.446-19.926h-89.195c-2.604 6.191-5.338 12.574-8.077 19.054z" fill="#a63c30"/><path d="M265.466 447.723c-10.899 0-28.088-2.002-43.644-7.622-18.648-6.737-31.051-17.228-35.867-30.336-9.062-24.656 6.19-64.776 22.588-103.754 1.614-3.838 3.234-7.648 4.834-11.413 1.633-3.842 3.245-7.636 4.81-11.36a1.907 1.907 0 0 1 1.757-1.168h89.196c.767 0 1.46.46 1.757 1.168 1.557 3.707 3.162 7.482 4.788 11.306 1.211 2.848 2.434 5.723 3.656 8.617 17.04 40.332 32.912 81.785 23.787 106.605-11.027 30.023-55.622 37.957-77.662 37.957zm-44.255-161.841c-1.412 3.353-2.86 6.761-4.325 10.207-1.598 3.76-3.216 7.567-4.829 11.4-15.398 36.602-31.107 77.607-22.524 100.961 9.557 26.017 50.646 35.461 75.932 35.461 5.06 0 22.999-.533 41.408-7.389 11.82-4.403 27.085-12.846 32.678-28.072 8.646-23.517-6.977-64.177-23.721-103.807a4463.794 4463.794 0 0 0-3.653-8.609 3144.703 3144.703 0 0 1-4.304-10.153h-86.662z" fill="#7d271d"/><g><path d="M256.423 94.356c-8.706-15.754-14.343-23.135-24.918-38.007-5.802-8.16-12.724-17.587-23.267-20.837-4.442-1.369-9.026 1.234-6.298 6.034 1.116 1.963 3.151 3.357 5.11 4.671-3.296-1.073-5.55-1.473-8.964-1.443s-6.822.915-9.335 2.877c-1.328 1.036-2.44 2.612-1.939 4.236.393 1.275 1.713 2.222 3.092 2.629s2.828.37 4.242.33c-19.463 23.263-31.234 75.049-22.612 93.381z" fill="#ffe8db"/><path d="M171.535 150.133a1.906 1.906 0 0 1-1.726-1.095c-8.823-18.759 2.436-67.965 20.552-92.459a9.581 9.581 0 0 1-.997-.235c-2.154-.635-3.83-2.128-4.374-3.896-.665-2.16.302-4.515 2.588-6.299 2.664-2.08 6.39-3.245 10.491-3.281a33.91 33.91 0 0 1 2.483.062 8.951 8.951 0 0 1-.268-.442c-1.443-2.54-1.421-5.056.062-6.902 1.733-2.158 5.131-2.92 8.456-1.895 11.439 3.526 18.848 13.946 24.258 21.554a3155.97 3155.97 0 0 0 3.733 5.234c8.204 11.481 13.624 19.067 21.299 32.956a1.906 1.906 0 0 1-3.336 1.844c-7.569-13.696-12.649-20.805-21.065-32.584-1.18-1.651-2.421-3.388-3.739-5.241-5.094-7.164-12.071-16.975-22.274-20.12-2.003-.618-3.741-.132-4.36.638-.588.732-.172 1.835.281 2.632.92 1.619 2.83 2.9 4.515 4.03a1.906 1.906 0 0 1-1.652 3.396c-3.223-1.049-5.252-1.375-8.358-1.349-3.268.029-6.172.907-8.179 2.474-.729.569-1.504 1.479-1.291 2.172.163.528.924 1.101 1.81 1.362 1.105.326 2.397.289 3.648.253a1.908 1.908 0 0 1 1.517 3.129c-8.852 10.58-16.869 28.432-21.445 47.756-4.422 18.671-4.768 35.374-.904 43.591a1.906 1.906 0 0 1-.913 2.536c-.264.121-.54.179-.812.179z" fill="#e0a58f"/><path d="M210.186 65.339c11.743-3.057 27.026 33.655 28.451 40.28 1.425 6.624-41.361 27.678-47.62 22.564-6.258-5.115 8.798-60.144 19.169-62.844z" fill="#a63c30"/><path d="M194.231 130.844c-1.887 0-3.41-.361-4.419-1.186-2.911-2.379-2.907-10.355.012-23.708 3.34-15.282 11.693-40.321 19.882-42.457 2.26-.588 4.673-.108 7.169 1.43 11.453 7.054 22.547 35.282 23.625 40.293.418 1.941-.309 5.304-11.391 12.081-8.958 5.479-25.965 13.546-34.878 13.547zm16.436-63.661c-4.634 1.206-12.535 19.258-16.907 38.629-3.18 14.09-2.408 20.161-1.536 20.894 1.143.934 7.558.417 19.906-4.943 6.218-2.699 12.48-6.018 17.182-9.104 5.927-3.891 7.379-6.118 7.452-6.687-1.258-5.715-12.199-31.835-21.887-37.803-1.599-.984-2.977-1.307-4.21-.986zm-.481-1.844h.005z" fill="#7d271d"/><path d="M330.374 108.818c13.999-11.314 22.001-16.028 37.4-25.821 8.449-5.373 18.412-11.499 29.402-10.538 4.631.405 7.897 4.543 3.562 7.962-1.773 1.398-4.184 1.923-6.493 2.402 3.457.248 5.696.727 8.848 2.041 3.151 1.314 5.975 3.418 7.563 6.182.839 1.46 1.276 3.339.201 4.654-.845 1.034-2.423 1.413-3.854 1.27s-2.759-.722-4.054-1.293c9.266 28.881.663 81.286-14.231 95.02z" fill="#ffe8db"/><path d="M388.717 192.604a1.905 1.905 0 0 1-1.293-3.307c6.676-6.156 12.647-21.76 15.584-40.721 3.039-19.624 2.338-39.182-1.876-52.316a1.908 1.908 0 0 1 2.583-2.327c1.145.505 2.328 1.026 3.475 1.14.919.093 1.84-.152 2.19-.58.458-.561.083-1.696-.378-2.498-1.269-2.207-3.628-4.115-6.644-5.373-2.866-1.195-4.871-1.656-8.25-1.899a1.907 1.907 0 0 1-.251-3.768c1.986-.412 4.238-.879 5.7-2.033.719-.567 1.52-1.432 1.251-2.332-.283-.947-1.71-2.051-3.798-2.234-10.637-.932-20.383 5.267-28.214 10.247-1.918 1.22-3.722 2.361-5.437 3.446-12.233 7.74-19.617 12.412-31.787 22.248a1.906 1.906 0 1 1-2.397-2.965c12.342-9.975 20.22-14.959 32.145-22.505 1.713-1.084 3.514-2.223 5.429-3.442 7.878-5.01 18.668-11.869 30.591-10.828 3.466.303 6.327 2.289 7.119 4.941.678 2.268-.249 4.607-2.543 6.416-.136.107-.274.21-.415.308.743.248 1.506.537 2.323.878 3.785 1.578 6.798 4.061 8.482 6.992 1.445 2.514 1.454 5.06.025 6.81-1.171 1.433-3.287 2.183-5.52 1.961a9.406 9.406 0 0 1-1.012-.158c7.555 29.513-.551 79.336-15.791 93.39a1.88 1.88 0 0 1-1.291.509z" fill="#e0a58f"/><path d="M384.136 99.355c-9.727-7.256-37.713 20.995-41.529 26.595s27.888 41.22 35.612 38.84c7.724-2.379 14.507-59.027 5.917-65.435z" fill="#a63c30"/><path d="M377.494 166.794c-7.718.002-23.328-16.769-30.46-26.434-7.714-10.452-7.12-13.842-6.002-15.483 2.886-4.236 23.796-26.205 37.063-28.425 2.891-.484 5.307-.021 7.18 1.376 6.784 5.06 5.087 31.403 2.424 46.818-2.326 13.469-5.327 20.86-8.92 21.966a4.334 4.334 0 0 1-1.285.182zm-33.285-39.81c-.146.555.36 3.165 4.384 9.001 3.193 4.631 7.744 10.064 12.487 14.906 9.42 9.618 15.169 12.508 16.577 12.078 1.084-.35 4.087-5.684 6.449-19.935 3.246-19.591 2.727-39.287-1.111-42.151-1.022-.762-2.419-.982-4.271-.672-11.222 1.879-31.197 21.953-34.515 26.773zm.007-.022z" fill="#7d271d"/><path d="M337.586 304.422c-31.686 5.712-66.863 4.875-85.184.188-18.819-2.57-51.923-15.142-79.188-32.487a195.529 195.529 0 0 1-10.927-7.458c-17.986-13.211-31.608-28.482-33.599-43.92-.543-4.146-.239-8.309 1.046-12.441 5.13-16.531 72.412-100.529 86.673-110.775 14.261-10.245 43.58-9.046 76.983-2.514s64.915 17.228 74.266 32.091 36.127 117.254 34.652 134.5c-2.016 23.589-31.448 36.816-64.722 42.816z" fill="#e36254"/><circle cx="227.207" cy="188.328" fill="#fff" transform="rotate(-3.62 227.585 187.972)" r="24.042"/><path d="M227.261 214.283c-1.672 0-3.356-.162-5.034-.49-6.802-1.33-12.679-5.23-16.548-10.98s-5.267-12.663-3.937-19.465 5.23-12.679 10.98-16.548 12.662-5.267 19.465-3.937c6.802 1.33 12.679 5.23 16.548 10.98s5.267 12.663 3.937 19.465-5.23 12.679-10.98 16.548c-4.332 2.915-9.323 4.427-14.431 4.427zm-.1-48.098c-4.357 0-8.615 1.29-12.311 3.777a21.99 21.99 0 0 0-9.367 14.117 21.987 21.987 0 0 0 3.359 16.605 21.99 21.99 0 0 0 14.117 9.367c5.803 1.136 11.7-.058 16.606-3.359s8.232-8.315 9.367-14.117a21.987 21.987 0 0 0-3.359-16.605 21.993 21.993 0 0 0-14.117-9.367 22.371 22.371 0 0 0-4.295-.418zm-23.549 17.529h.005z"/><path d="M216.656 187.396c-1.526 7.806 3.565 15.373 11.371 16.9 7.806 1.526 15.374-3.566 16.9-11.371.159-.812.248-1.624.265-2.426-.096.037-.192.079-.288.116-4.079 1.592-8.205.799-9.207-1.768-.997-2.57 1.498-5.944 5.581-7.534.227-.091.457-.171.686-.243a14.339 14.339 0 0 0-8.407-5.049c-7.806-1.527-15.373 3.565-16.901 11.375z"/><circle cx="312.705" cy="201.397" fill="#fff" transform="rotate(-7.13 312.727 201.413)" r="24.042"/><path d="M312.759 227.353c-1.672 0-3.356-.162-5.034-.49-6.802-1.33-12.679-5.23-16.548-10.98s-5.267-12.663-3.937-19.465 5.23-12.679 10.98-16.548 12.663-5.268 19.465-3.937c6.802 1.33 12.679 5.23 16.548 10.98s5.267 12.663 3.937 19.465-5.229 12.679-10.98 16.548c-4.332 2.914-9.323 4.427-14.431 4.427zm-.1-48.098c-4.357 0-8.615 1.29-12.311 3.777a21.993 21.993 0 0 0-9.367 14.117 21.987 21.987 0 0 0 3.359 16.605 21.993 21.993 0 0 0 14.117 9.367 21.987 21.987 0 0 0 16.605-3.359 21.993 21.993 0 0 0 9.367-14.117 21.987 21.987 0 0 0-3.359-16.605 21.993 21.993 0 0 0-14.117-9.367 22.354 22.354 0 0 0-4.294-.418zm-23.549 17.528h.005z"/><path d="M294.53 199.921c-1.526 7.806 3.566 15.374 11.371 16.9 7.806 1.526 15.373-3.566 16.9-11.371.159-.812.248-1.624.265-2.426-.096.037-.192.079-.288.116-4.079 1.592-8.205.799-9.207-1.768-.997-2.57 1.498-5.944 5.581-7.535.227-.091.457-.171.686-.243a14.339 14.339 0 0 0-8.407-5.049c-7.806-1.526-15.373 3.566-16.901 11.376z"/><g><path d="M250.892 146.003c.186 4.151-5.951 7.798-13.708 8.145-7.756.347-14.195-2.737-14.38-6.888-.186-4.151 5.951-7.798 13.708-8.145 7.756-.347 14.194 2.737 14.38 6.888z" fill="#ffe8db"/><path d="M235.992 156.081c-8.341 0-14.866-3.707-15.092-8.736-.236-5.283 6.584-9.734 15.527-10.134 8.94-.396 16.133 3.424 16.37 8.707.123 2.743-1.584 5.309-4.806 7.223-2.854 1.696-6.661 2.73-10.721 2.911-.43.02-.857.029-1.278.029zm1.686-15.086c-.355 0-.716.008-1.081.025-6.948.311-12.008 3.506-11.889 6.156.119 2.649 5.442 5.384 12.391 5.069 3.393-.152 6.653-1.02 8.943-2.38 1.928-1.145 3.001-2.521 2.945-3.775-.111-2.511-4.897-5.095-11.309-5.095z" fill="#e0a58f"/></g><g><path d="M328.066 165.664c-1.209 3.976-8.211 5.368-15.639 3.109-7.428-2.258-12.47-7.312-11.261-11.288s8.21-5.368 15.639-3.109c7.428 2.259 12.47 7.312 11.261 11.288z" fill="#ffe8db"/><path d="M319.345 171.762c-2.376 0-4.934-.394-7.472-1.165-3.888-1.182-7.32-3.127-9.664-5.477-2.647-2.653-3.665-5.561-2.866-8.189.799-2.627 3.263-4.477 6.939-5.207 3.256-.647 7.191-.353 11.078.829 3.888 1.182 7.32 3.127 9.665 5.478 2.647 2.653 3.664 5.561 2.866 8.188-.799 2.627-3.263 4.477-6.939 5.208a18.636 18.636 0 0 1-3.607.335zm-9.48-16.559c-1.009 0-1.967.085-2.841.259-2.199.437-3.67 1.377-4.035 2.577-.365 1.201.334 2.8 1.917 4.387 1.882 1.886 4.825 3.534 8.075 4.523 3.25.988 6.612 1.258 9.226.737 2.199-.437 3.67-1.377 4.035-2.577.365-1.201-.334-2.8-1.917-4.387-1.882-1.886-4.825-3.535-8.075-4.523-2.163-.657-4.376-.996-6.385-.996z" fill="#e0a58f"/></g><g fill="#ffe8db"><path d="M181.787 204.045c-11.076 18.332-17.8 39.268-19.501 60.62-17.986-13.211-31.608-28.482-33.599-43.92a156.205 156.205 0 0 1 30.279-25.502c5.626-3.628 12.058-7.009 18.688-6.067 2.726.389 5.556 1.725 6.696 4.234 1.582 3.46-.594 7.38-2.563 10.635zM355.594 238.033c3.354 21.153 1.697 43.08-4.771 63.501 21.638-5.462 40.008-14.477 47.669-28.028a156.22 156.22 0 0 0-18.442-35.03c-3.845-5.48-8.529-11.035-15.025-12.66-2.672-.667-5.796-.495-7.798 1.399-2.769 2.611-2.23 7.062-1.633 10.818zM338.421 300.718a68.658 68.658 0 0 1-.835 3.704c-31.686 5.712-66.863 4.875-85.184.188-18.819-2.57-51.923-15.142-79.188-32.487.163-1.2.364-2.398.598-3.595 7.763-39.699 50.907-64.677 96.362-55.788 45.454 8.888 76.011 48.279 68.247 87.978z"/></g><path d="m257.54 215.775 21.824 4.268c2.656.519 3.496 3.904 1.391 5.605l-12.762 10.314a4.192 4.192 0 0 1-6.341-1.301l-7.541-14.27c-1.251-2.368.8-5.13 3.429-4.616z"/><g><path d="M291.61 310.323c-16.187 0-30.327-1.489-39.575-3.839-18.025-2.492-51.192-14.525-79.845-32.753a198.426 198.426 0 0 1-11.032-7.53c-20.617-15.143-32.499-30.777-34.361-45.212-.591-4.51-.216-8.97 1.116-13.251 5.237-16.874 72.668-101.187 87.381-111.757 13.198-9.482 39.596-10.437 78.461-2.836 23.331 4.563 64.166 14.91 75.514 32.947 9.956 15.824 36.404 118.534 34.938 135.678-1.823 21.336-25.363 37.15-66.283 44.529-15.718 2.832-31.835 4.024-46.314 4.024zM249.205 91.844c-14.377 0-24.977 2.412-31.687 7.233-13.956 10.027-81.033 93.901-85.965 109.792-1.167 3.753-1.496 7.665-.976 11.628 1.726 13.38 13.081 28.12 32.838 42.632a194.137 194.137 0 0 0 10.821 7.385c28.249 17.971 60.835 29.806 78.424 32.208.072.01.144.024.215.042 17.083 4.37 51.551 5.699 84.373-.218 22.625-4.08 60.917-14.845 63.161-41.102 1.384-16.188-24.953-118.36-34.366-133.323-7.845-12.468-33.777-23.561-73.019-31.235-17.192-3.362-31.821-5.042-43.819-5.042zm88.381 212.578h.005z" fill="#a63c30"/></g><g><path d="M301.281 253.061c.727-2.684 1.336-5.394 1.874-8.071l-10.363 1.841-16.712 2.968c-14.564 2.589-29.134 5.175-43.698 7.763 4.222 7.437 8.11 15.275 14.94 20.425a39.051 39.051 0 0 0 5.913 3.673c7.186-18.253 28.548-29.333 48.046-28.599z" fill="#821629"/><path d="M253.234 283.566a1.9 1.9 0 0 1-.858-.204 41.094 41.094 0 0 1-6.201-3.853c-6.388-4.817-10.284-11.781-14.05-18.516-.466-.832-.931-1.664-1.4-2.491a1.908 1.908 0 0 1 1.324-2.818l70.774-12.572c.621-.113 1.256.093 1.697.544s.63 1.09.505 1.708c-.614 3.051-1.236 5.732-1.903 8.194a1.912 1.912 0 0 1-1.912 1.406c-19.894-.746-39.758 11.027-46.202 27.393a1.91 1.91 0 0 1-1.774 1.209zm-17.875-24.597.092.164c3.739 6.685 7.27 12.999 13.017 17.332 1.217.916 2.5 1.763 3.832 2.528 3.771-8.183 10.587-15.373 19.394-20.408 8.586-4.909 18.5-7.529 28.125-7.464.303-1.191.599-2.439.89-3.762z"/><path d="M253.234 281.66c5.603 2.825 11.89 4.251 18.074 3.433 9.021-1.196 16.974-7.046 22.238-14.467 3.688-5.193 6.039-11.306 7.735-17.566-19.498-.733-40.86 10.347-48.047 28.6z" fill="#f22a4e"/><path d="M267.789 287.229c-5.087 0-10.347-1.312-15.413-3.867a1.906 1.906 0 0 1-.915-2.4c3.542-8.995 10.728-16.942 20.235-22.377 9.044-5.17 19.574-7.807 29.658-7.429a1.906 1.906 0 0 1 1.768 2.403c-2.027 7.482-4.651 13.425-8.021 18.171-6.036 8.51-14.617 14.07-23.542 15.253a28.794 28.794 0 0 1-3.77.246zm-12.086-6.508c5.141 2.279 10.416 3.136 15.354 2.482 7.878-1.044 15.508-6.031 20.934-13.68 2.748-3.87 4.972-8.659 6.77-14.588-18.386.246-36.273 10.938-43.058 25.786z"/><g><path d="M290.357 254.97c-1.002 2.349-2.803 4.939-5.354 4.77-1.838-.115-3.229-1.657-4.342-3.126a71.333 71.333 0 0 1-4.581-6.815l16.712-2.968a38.232 38.232 0 0 1-2.435 8.139z" fill="#fff"/><path d="M285.253 261.654c-.125 0-.25-.004-.376-.013-2.586-.162-4.351-2.05-5.735-3.876a73.324 73.324 0 0 1-4.703-6.997 1.907 1.907 0 0 1 1.308-2.847l16.712-2.968a1.909 1.909 0 0 1 2.209 2.216 40.164 40.164 0 0 1-2.556 8.545l-.001.002c-1.641 3.846-4.065 5.938-6.858 5.938zm-6.075-10.47a69.864 69.864 0 0 0 3 4.277c.813 1.072 1.881 2.31 2.943 2.376 1.4.094 2.71-1.808 3.482-3.616a36.416 36.416 0 0 0 1.712-5.015zm11.179 3.786h.005z"/></g></g></g><g><path d="M399.226 355.634c-18.432 70.877-95.671 112.134-172.514 92.15s-124.197-93.642-105.765-164.519l20.286 5.275c-15.746 60.547 24.701 123.462 90.344 140.534 65.643 17.071 131.616-18.169 147.362-78.716z" fill="#3f9e53"/><path d="M265.94 454.754c-13.187 0-26.524-1.697-39.708-5.125-37.63-9.786-69.498-32.511-89.734-63.988-20.268-31.527-26.446-68.055-17.396-102.855a1.905 1.905 0 0 1 2.324-1.365l20.286 5.275a1.909 1.909 0 0 1 1.365 2.324c-7.48 28.762-2.362 58.97 14.41 85.06 16.804 26.139 43.286 45.014 74.569 53.15 31.283 8.137 63.607 4.553 91.015-10.088 27.357-14.614 46.543-38.501 54.023-67.263a1.909 1.909 0 0 1 2.324-1.366l20.286 5.276a1.906 1.906 0 0 1 1.365 2.324c-9.05 34.8-32.24 63.691-65.299 81.349-21.442 11.456-45.376 17.292-69.83 17.292zM122.327 285.593c-8.09 33.201-1.948 67.924 17.378 97.986 19.717 30.67 50.787 52.817 87.487 62.361 36.7 9.545 74.623 5.34 106.783-11.839 31.523-16.839 53.803-44.171 62.912-77.105l-16.598-4.317c-8.079 28.982-27.697 53.017-55.42 67.826-28.256 15.093-61.558 18.791-93.771 10.415-32.213-8.378-59.493-27.831-76.816-54.778-16.996-26.438-22.421-56.985-15.356-86.232z" fill="#30753e"/><path d="M378.94 350.358c-15.746 60.547-81.719 95.787-147.362 78.716s-106.09-79.987-90.344-140.534l54.654 14.213c-.802 5.79-.482 12.197 1.236 16.453 2.727 6.736 7.933 12.315 14.126 16.109 6.195 3.789 13.342 5.861 20.555 6.685 7.704.884 15.911.267 22.515-3.795 4.823-2.966 8.47-7.599 10.934-12.704a43.044 43.044 0 0 0 1.764-4.251z" fill="#f22a4e"/><path d="M265.09 435.307c-11.289 0-22.706-1.453-33.991-4.387-32.213-8.378-59.493-27.831-76.816-54.778-17.355-26.995-22.643-58.276-14.893-88.08a1.905 1.905 0 0 1 2.324-1.365l54.654 14.213a1.905 1.905 0 0 1 1.408 2.106c-.809 5.839-.382 11.77 1.115 15.478 2.436 6.016 7.179 11.414 13.354 15.197 5.547 3.392 12.201 5.551 19.776 6.416 8.706.999 15.873-.187 21.301-3.525 4.156-2.556 7.689-6.674 10.216-11.908a41.25 41.25 0 0 0 1.683-4.058 1.907 1.907 0 0 1 2.277-1.21l111.923 29.106a1.906 1.906 0 0 1 1.365 2.325c-7.751 29.804-27.609 54.546-55.916 69.666-18.358 9.807-38.847 14.804-59.78 14.804zM142.616 290.87c-6.792 28.204-1.54 57.68 14.873 83.211 16.804 26.139 43.286 45.014 74.569 53.15 31.283 8.137 63.607 4.553 91.015-10.088 26.771-14.3 45.717-37.483 53.526-65.423l-108.401-28.191a44.457 44.457 0 0 1-1.226 2.799c-2.847 5.897-6.876 10.564-11.654 13.503-6.172 3.796-14.156 5.164-23.731 4.065-8.13-.928-15.307-3.268-21.332-6.953-6.867-4.207-12.158-10.251-14.898-17.02-1.608-3.983-2.17-9.769-1.56-15.743z" fill="#911027"/><path d="M158.404 335.501a3.811 3.811 0 0 1-1.278-7.404l8.865-3.154a3.813 3.813 0 0 1 2.556 7.183l-8.865 3.154c-.422.15-.853.221-1.278.221zM185.022 375.162a3.813 3.813 0 0 1-3.138-5.972l6.027-8.772a3.812 3.812 0 1 1 6.283 4.318l-6.027 8.772a3.807 3.807 0 0 1-3.145 1.654zM225.746 365.418a3.811 3.811 0 0 1-3.413-5.505l3.025-6.109a3.812 3.812 0 0 1 6.832 3.383l-3.026 6.11a3.81 3.81 0 0 1-3.418 2.121zM249.564 408.914l-.081-.001a3.811 3.811 0 0 1-3.732-3.89l.124-6.001a3.812 3.812 0 1 1 7.623.158l-.124 6.001a3.812 3.812 0 0 1-3.81 3.733zM287.112 382.761a3.813 3.813 0 0 1-3.738-3.088l-1.985-10.259a3.813 3.813 0 0 1 7.486-1.449l1.985 10.259a3.812 3.812 0 0 1-3.748 4.537z"/><g><path d="M322.254 396.786a3.808 3.808 0 0 1-3.126-1.626l-5.657-8.08a3.812 3.812 0 0 1 6.246-4.373l5.656 8.08a3.812 3.812 0 0 1-3.119 5.999z"/></g><g><path d="M326.767 366.089a3.809 3.809 0 0 1-3.291-1.883l-5.576-9.495a3.812 3.812 0 1 1 6.574-3.861l5.576 9.496a3.812 3.812 0 0 1-3.283 5.743z"/></g></g><g><path d="M107.579 366.301c3.618 2.926 9.833 3.371 13.057 3.478s6.554-.485 9.257-2.245c2.702-1.761 4.673-4.819 4.594-8.043s-2.529-6.389-5.73-6.78c3.264-1.338 5.786-4.456 6.202-7.959s-1.403-7.222-4.523-8.867-7.349-.966-9.653 1.704c1.127-2.543.317-5.737-1.724-7.625-2.042-1.889-5.144-2.551-7.798-1.718-8.061 2.53-11.386 8.497-12.328 12.725-2.039 9.148 2.916 20.697 8.646 25.33z" fill="#a63c30"/><path d="M121.359 371.698c-.261 0-.523-.004-.787-.013-6.573-.218-11.215-1.494-14.191-3.901-6.292-5.088-11.533-17.242-9.309-27.227.554-2.486 3.173-10.852 13.617-14.13 3.334-1.046 7.127-.207 9.663 2.138 1.482 1.371 2.423 3.244 2.728 5.187 2.616-.999 5.677-.907 8.245.448 3.772 1.988 6.044 6.421 5.526 10.778-.34 2.859-1.827 5.523-4.031 7.435a9.212 9.212 0 0 1 3.573 7.032c.091 3.722-2.001 7.433-5.46 9.686-2.586 1.685-5.883 2.567-9.574 2.567zm-12.582-6.879c2.276 1.841 6.287 2.869 11.921 3.055 2.247.073 5.488-.2 8.153-1.937 2.324-1.513 3.788-4.025 3.73-6.399-.059-2.413-1.916-4.673-4.056-4.934a1.907 1.907 0 0 1-.492-3.656c2.684-1.1 4.706-3.681 5.032-6.42.331-2.782-1.149-5.707-3.519-6.957-2.401-1.266-5.617-.712-7.321 1.264a1.907 1.907 0 0 1-3.186-2.018c.766-1.728.217-4.073-1.276-5.454-1.527-1.411-3.911-1.934-5.933-1.299-8.495 2.666-10.596 9.339-11.038 11.321-1.834 8.234 2.703 19.163 7.985 23.434z" fill="#7d271d"/></g><g><path d="M358.193 324.193c-4.646-.262-9.951 3.006-12.63 4.801-2.679 1.796-5.038 4.221-6.203 7.229-1.166 3.007-.98 6.641.967 9.212 1.947 2.572 5.784 3.709 8.611 2.157-1.868 2.992-2.094 6.996-.387 10.082 1.708 3.086 5.356 5.044 8.85 4.557 3.493-.486 6.53-3.507 6.841-7.021.571 2.722 3.093 4.842 5.853 5.183s5.666-.933 7.333-3.159c5.066-6.762 4.28-13.546 2.576-17.529-3.687-8.616-14.454-15.097-21.811-15.512z" fill="#a63c30"/><path d="M356.325 364.211c-3.793 0-7.541-2.179-9.441-5.614-1.394-2.519-1.742-5.551-1.07-8.39a9.211 9.211 0 0 1-7.007-3.621c-2.247-2.969-2.716-7.203-1.224-11.052 1.194-3.081 3.587-5.89 6.919-8.123 5.465-3.662 9.977-5.335 13.798-5.121 8.078.456 19.431 7.261 23.456 16.665 1.002 2.341 3.762 10.661-2.803 19.422-2.095 2.797-5.666 4.332-9.093 3.908-2.002-.247-3.861-1.218-5.243-2.617-1.54 2.339-4.08 4.051-6.954 4.452a9.83 9.83 0 0 1-1.338.091zm-7.388-18.526a1.906 1.906 0 0 1 1.618 2.916c-1.536 2.461-1.671 5.736-.335 8.151 1.356 2.451 4.268 3.96 6.919 3.592 2.689-.374 4.976-2.703 5.205-5.301a1.906 1.906 0 0 1 3.764-.223c.388 1.85 2.202 3.433 4.221 3.682 2.064.255 4.305-.714 5.575-2.41 5.339-7.126 3.148-13.77 2.349-15.636-3.319-7.754-13.384-13.976-20.166-14.359-2.922-.168-6.777 1.343-11.462 4.482-1.868 1.252-4.337 3.367-5.487 6.334-1.003 2.586-.724 5.48.709 7.373 1.458 1.925 4.285 2.674 6.174 1.636.288-.159.604-.237.916-.237z" fill="#7d271d"/></g></svg>