<svg height="512" width="512" xmlns="http://www.w3.org/2000/svg"><path d="M360.113 381.806c-5.886-15.024-17.16-42.943-32.77-36.355s-17.479 20.484-10.333 27.546c5.997 5.926 38.084 12.864 38.084 12.864s-24.305-10.415-28.932-13.978c-6.624-5.101-2.103-19.166 5.609-17.337 7.713 1.829 25.924 34.496 25.924 34.496z" fill="#ff593e"/><path d="M357.696 390.804a1.76 1.76 0 0 1-1.538-.904c-.412-.739-.845-1.504-1.297-2.293a1.76 1.76 0 0 1-.139-.024c-3.336-.721-32.767-7.223-38.951-13.333-3.642-3.599-5.217-8.861-4.214-14.076 1.327-6.898 6.831-12.856 15.1-16.346 3.542-1.495 7.109-1.505 10.605-.031 11.801 4.976 20.056 26.046 24.49 37.366.15.384.161.809.03 1.201l-2.417 7.236a1.762 1.762 0 0 1-1.669 1.204zm-27.286-38.182a7.67 7.67 0 0 1 1.769.21c6.949 1.648 19.72 22.595 25.099 31.906l.963-2.884c-4.027-10.272-12.115-30.497-22.346-34.81-2.625-1.106-5.198-1.096-7.866.031-7.167 3.025-11.91 8.042-13.011 13.765-.792 4.118.385 8.092 3.231 10.905 2.366 2.338 9.768 5.035 17.608 7.364-4.759-2.281-9.028-4.489-10.769-5.83-4.563-3.514-4.683-10.327-2.479-14.953 1.731-3.637 4.62-5.704 7.801-5.704zm.011 3.525c-2.648 0-4.19 2.766-4.632 3.694-1.633 3.428-1.537 8.348 1.449 10.647 3.078 2.371 16.5 8.481 24.652 12.061-7.037-11.692-16.378-25.305-20.524-26.288a4.033 4.033 0 0 0-.945-.114z" fill="#d63c22"/><path d="M352.91 381.806c5.886-15.024 17.16-42.943 32.77-36.355s17.479 20.484 10.333 27.546c-5.997 5.926-38.084 12.864-38.084 12.864s24.305-10.415 28.932-13.978c6.624-5.101 2.104-19.166-5.609-17.337s-25.924 34.496-25.924 34.496z" fill="#ff593e"/><path d="M355.328 390.804a1.762 1.762 0 0 1-1.671-1.204l-2.417-7.236a1.764 1.764 0 0 1 .03-1.201c4.435-11.32 12.69-32.39 24.49-37.366 3.495-1.474 7.064-1.463 10.605.031 8.269 3.49 13.773 9.448 15.1 16.346 1.003 5.215-.572 10.477-4.214 14.076-6.183 6.11-35.614 12.611-38.95 13.333-.046.01-.092.018-.139.024-.452.788-.884 1.554-1.297 2.293a1.76 1.76 0 0 1-1.537.904zm-.544-8.95.963 2.884c5.378-9.311 18.15-30.258 25.099-31.906 3.854-.912 7.521 1.191 9.57 5.493 2.204 4.626 2.083 11.439-2.48 14.953-1.741 1.341-6.009 3.549-10.768 5.83 7.84-2.33 15.241-5.026 17.607-7.364 2.846-2.812 4.023-6.787 3.231-10.905-1.101-5.723-5.843-10.741-13.01-13.765-2.67-1.126-5.242-1.137-7.866-.031-10.231 4.314-18.319 24.539-22.346 34.811zm27.819-25.707c-.3 0-.615.036-.944.114-4.146.983-13.487 14.596-20.524 26.288 8.152-3.58 21.574-9.69 24.652-12.061 2.986-2.299 3.082-7.219 1.449-10.647-.443-.928-1.986-3.694-4.633-3.694z" fill="#d63c22"/><g><path d="M404.527 462.87h-93.66v-80.478h93.66z" fill="#fcd242"/><path d="M404.527 464.631h-93.66a1.761 1.761 0 0 1-1.762-1.761v-80.478c0-.973.789-1.761 1.762-1.761h93.66c.973 0 1.762.789 1.762 1.761v80.478a1.763 1.763 0 0 1-1.762 1.761zm-91.899-3.523h90.137v-76.955h-90.137z" fill="#ff713e"/></g><g><path d="M368.103 462.87H347.29v-80.478h20.813z" fill="#ff593e"/><path d="M368.103 464.631H347.29a1.761 1.761 0 0 1-1.762-1.761v-80.478c0-.973.789-1.761 1.762-1.761h20.813c.973 0 1.762.789 1.762 1.761v80.478a1.763 1.763 0 0 1-1.762 1.761zm-19.052-3.523h17.29v-76.955h-17.29z" fill="#d63c22"/></g><g><path d="M155.944 410.153c-3.828-9.77-11.159-27.926-21.311-23.642-10.151 4.284-11.367 13.32-6.72 17.913 3.9 3.854 24.767 8.366 24.767 8.366s-15.806-6.773-18.815-9.09c-4.308-3.317-1.368-12.464 3.648-11.274 5.016 1.189 16.859 22.433 16.859 22.433z" fill="#ff593e"/><path d="M154.371 416.621a1.76 1.76 0 0 1-1.538-.904c-.23-.412-.464-.827-.7-1.243-2.881-.629-21.407-4.794-25.457-8.797-2.515-2.485-3.604-6.114-2.913-9.708.902-4.691 4.615-8.73 10.185-11.081 2.462-1.039 4.943-1.046 7.375-.02 7.913 3.337 13.343 17.197 16.26 24.643.15.384.161.809.031 1.201l-1.572 4.706a1.762 1.762 0 0 1-1.671 1.203zm-17.758-26.065c.429 0 .866.051 1.307.156 4.459 1.058 11.982 12.942 16.028 19.856l.123-.367c-2.615-6.662-7.766-19.409-14.116-22.087-1.545-.651-3.062-.645-4.636.02-4.469 1.886-7.419 4.984-8.096 8.501-.476 2.472.228 4.855 1.929 6.537.679.671 2.113 1.418 4.002 2.187a9.135 9.135 0 0 1-.364-.263c-3.258-2.509-3.368-7.17-1.793-10.477 1.235-2.592 3.313-4.063 5.616-4.063zm.026 3.528c-1.328 0-2.15 1.397-2.46 2.05-.957 2.008-.933 4.866.762 6.171 1.749 1.347 8.857 4.639 14.114 6.977-4.771-7.735-9.883-14.652-11.948-15.142a2.058 2.058 0 0 0-.468-.056z" fill="#d63c22"/><path d="M151.26 410.153c3.828-9.77 11.159-27.926 21.311-23.642 10.151 4.284 11.367 13.32 6.72 17.913-3.9 3.854-24.767 8.366-24.767 8.366s15.806-6.773 18.815-9.09c4.308-3.317 1.368-12.464-3.648-11.274-5.016 1.189-16.859 22.433-16.859 22.433z" fill="#ff593e"/><path d="M152.832 416.621a1.762 1.762 0 0 1-1.671-1.204l-1.572-4.706a1.764 1.764 0 0 1 .03-1.201c2.917-7.446 8.347-21.306 16.26-24.642 2.432-1.025 4.913-1.019 7.376.02 5.57 2.351 9.282 6.39 10.184 11.081.691 3.593-.397 7.222-2.912 9.708-4.051 4.003-22.579 8.169-25.458 8.797-.236.415-.47.83-.7 1.242a1.759 1.759 0 0 1-1.537.905zm.301-6.42.123.367c4.046-6.914 11.569-18.798 16.028-19.856 2.807-.665 5.458.832 6.922 3.907 1.575 3.307 1.465 7.968-1.793 10.477-.108.083-.229.17-.363.262 1.889-.768 3.323-1.516 4.002-2.186 1.701-1.682 2.404-4.064 1.929-6.537-.676-3.517-3.627-6.615-8.095-8.501-1.575-.665-3.091-.671-4.637-.02-6.35 2.678-11.502 15.425-14.116 22.087zm17.432-16.117c-.149 0-.305.018-.468.056-2.065.49-7.178 7.407-11.948 15.142 5.257-2.338 12.366-5.63 14.115-6.977 1.695-1.305 1.719-4.163.762-6.171-.312-.653-1.133-2.05-2.461-2.05z" fill="#d63c22"/><g><path d="M184.826 462.87h-60.908v-52.335h60.908z" fill="#fcd242"/><path d="M184.826 464.631h-60.908a1.761 1.761 0 0 1-1.762-1.761v-52.335c0-.973.789-1.762 1.762-1.762h60.908c.973 0 1.762.789 1.762 1.762v52.335c0 .973-.789 1.761-1.762 1.761zm-59.146-3.523h57.385v-48.812H125.68z" fill="#ff713e"/></g><g><path d="M161.14 462.87h-13.535v-52.335h13.535z" fill="#ff593e"/><path d="M161.14 464.631h-13.535a1.761 1.761 0 0 1-1.762-1.761v-52.335c0-.973.789-1.762 1.762-1.762h13.535c.973 0 1.761.789 1.761 1.762v52.335c0 .973-.789 1.761-1.761 1.761zm-11.774-3.523h10.012v-48.812h-10.012z" fill="#d63c22"/></g></g><g><path d="M147.155 350.46c-7.125 7.421-15.975 12.118-25.429 14.173-4.983-4.832-9.355-10.417-12.116-16.728.178-.023.357-.043.534-.068 13.612-1.77 31.925-9.474 35.288-23.659a72.57 72.57 0 0 1 4.269 4.527c1.639 1.884 3.209 3.83 4.773 5.78-.285 5.842-3.432 11.257-7.319 15.975zM167.134 348.33a60.178 60.178 0 0 0 11.03 7.386c.714 7.014-1.658 14.37-5.326 20.701-2.693 4.299-6.594 7.506-11.048 9.689a85.597 85.597 0 0 1-19.379-6.906c12.908-5.1 23.071-17.157 24.723-30.87zM191.964 360.966a63.075 63.075 0 0 0 12.981 1.87c3.283 6.298 4.537 13.733 3.087 20.35a84.68 84.68 0 0 1-17.141 4.203c4.235-7.932 4.582-18.01 1.073-26.423z" fill="#e36254"/><g fill="#a63c30"><path d="M204.944 362.837c5.576.213 11.174-.322 16.598-1.676 3.792-.947 8.286-2.354 12.124-1.611 1.201.233 2.423.614 3.319 1.446.897.832 1.648 3.068.764 3.914-8.467 8.104-18.689 14.321-29.718 18.277 1.45-6.618.197-14.053-3.087-20.35zM147.155 350.46c3.888-4.717 7.035-10.132 7.32-15.975 2.947 3.672 5.875 7.358 9.205 10.679a57.094 57.094 0 0 0 3.454 3.167c-1.653 13.712-11.816 25.77-24.723 30.87-7.097-3.537-13.703-8.052-19.513-13.452a77.02 77.02 0 0 1-1.173-1.116c9.454-2.055 18.305-6.752 25.43-14.173zM178.164 355.716a63.322 63.322 0 0 0 13.799 5.25c3.509 8.413 3.163 18.49-1.073 26.424-3.445.47-6.92.723-10.399.749a82.599 82.599 0 0 1-18.7-2.032c4.453-2.183 8.355-5.39 11.048-9.689 3.667-6.331 6.039-13.688 5.325-20.702zM110.144 347.836c-.177.025-.356.045-.534.068a38.106 38.106 0 0 1-1.581-4.262c-2.597-8.602-2.586-19.611 4.271-25.417 5.496-4.653 13.7-5.07 20.442-2.537 4.808 1.806 8.978 4.896 12.691 8.489-3.364 14.185-21.677 21.889-35.289 23.659z"/></g><path d="M179.865 389.914c-21.212 0-42.313-8.164-58.139-22.852-11.409-9.81-23.568-31.398-13.478-46.638 1.695-2.56 3.993-4.62 6.645-5.959 12.169-6.14 27.419 1.968 36.194 13.152.934 1.135 1.888 2.314 2.845 3.495 7.174 8.857 14.592 18.016 24.996 23.017l.052.026c13.013 6.793 28.372 8.724 42.137 5.297.463-.116.938-.238 1.42-.363 3.614-.935 7.712-1.995 11.464-1.267.033.006.065.014.098.022 3.779.958 5.763 2.671 5.898 5.091.511 9.17-31.026 21.782-31.345 21.902-5.289 1.989-11.185 3.436-17.523 4.3a81.638 81.638 0 0 1-11.264.777zm-55.826-74.058c-2.608 0-5.162.544-7.559 1.754-2.107 1.063-3.938 2.709-5.296 4.759-8.541 12.897 1.981 32.703 12.861 42.042l.052.046c17.866 16.594 42.746 24.516 66.549 21.188 6.083-.829 11.722-2.211 16.765-4.107 3.386-1.273 10.911-4.623 17.767-8.636 11.149-6.525 11.318-9.459 11.301-9.772-.036-.651-1.26-1.362-3.197-1.86-2.96-.557-6.627.392-9.863 1.229-.493.128-.977.253-1.451.371-14.582 3.629-30.834 1.596-44.594-5.579-11.104-5.346-18.768-14.809-26.181-23.962-.951-1.174-1.9-2.346-2.854-3.506-6.102-7.778-15.509-13.967-24.3-13.967zm-14.323 5.541h.005z" fill="#7d271d"/><path d="M208.033 384.949a1.762 1.762 0 0 1-1.722-2.139c1.327-6.06.26-13.043-2.928-19.159a1.76 1.76 0 1 1 3.124-1.629c3.564 6.837 4.747 14.688 3.246 21.542a1.764 1.764 0 0 1-1.72 1.385zM121.724 366.394a1.762 1.762 0 0 1-.373-3.483c9.408-2.044 17.874-6.755 24.487-13.623 4.399-5.352 6.649-10.222 6.877-14.889a1.75 1.75 0 0 1 1.845-1.673 1.762 1.762 0 0 1 1.674 1.845c-.267 5.467-2.793 11.031-7.72 17.01-.029.034-.058.068-.089.099-7.106 7.401-16.209 12.476-26.326 14.674-.125.027-.251.04-.375.04zM142.412 380.962a1.762 1.762 0 0 1-.648-3.4c12.607-4.982 22.099-16.814 23.622-29.443a1.762 1.762 0 0 1 3.497.422c-1.699 14.092-11.835 26.769-25.824 32.297a1.737 1.737 0 0 1-.647.124zM190.889 389.152a1.761 1.761 0 0 1-1.553-2.591c3.946-7.39 4.329-16.937 1.001-24.916a1.761 1.761 0 0 1 3.252-1.357c3.725 8.93 3.286 19.633-1.145 27.932a1.76 1.76 0 0 1-1.555.932zM161.792 387.869a1.761 1.761 0 0 1-.777-3.343c4.458-2.186 7.928-5.219 10.314-9.017 3.882-6.71 5.686-13.674 5.082-19.613a1.763 1.763 0 0 1 3.505-.357c.871 8.561-2.54 16.56-5.554 21.762l-.031.052c-2.702 4.312-6.77 7.887-11.765 10.335a1.745 1.745 0 0 1-.774.181zM110.141 349.598a1.762 1.762 0 0 1-.224-3.509c14.168-1.842 30.789-9.612 33.802-22.319a1.761 1.761 0 1 1 3.427.813c-1.628 6.868-6.686 12.953-14.625 17.599-6.313 3.693-14.386 6.391-22.15 7.4a1.627 1.627 0 0 1-.23.016z" fill="#7d271d"/><g><path d="M370.87 262.56c1.503-2.574 3.742-5.79 5.734-8.007s4.519-4.059 7.422-4.733 6.203-.03 8.302 2.086c2.099 2.117 2.64 5.775.851 8.16 2.981-1.319 6.674-1.004 9.275.961s3.916 5.558 3.016 8.691c-.901 3.133-4.06 5.517-7.316 5.344 2.416.877 4.027 3.461 3.979 6.031s-1.592 5.062-3.846 6.298c-6.847 3.754-12.473.975-16.374.071-8.798 4.854-61.453 25.005-70.25 29.859l-12.889-38.408c12.469-3.453 72.096-16.353 72.096-16.353z" fill="#a63c30"/><path d="M311.663 319.081a1.766 1.766 0 0 1-1.67-1.201l-12.889-38.408a1.763 1.763 0 0 1 1.201-2.258c11.765-3.257 64.206-14.646 71.443-16.214 1.655-2.732 3.781-5.66 5.546-7.625 2.477-2.758 5.359-4.581 8.334-5.271 3.717-.863 7.529.118 9.952 2.561a8.515 8.515 0 0 1 2.4 6.883c2.683-.243 5.413.469 7.537 2.073 3.236 2.444 4.735 6.796 3.647 10.583-.741 2.578-2.639 4.677-4.98 5.782 1.099 1.447 1.746 3.274 1.711 5.139-.059 3.191-1.927 6.256-4.76 7.809-6.348 3.48-11.709 1.923-15.624.786a69.713 69.713 0 0 0-1.365-.386c-5.129 2.659-19.507 8.509-34.692 14.688-15.059 6.127-30.63 12.463-34.938 14.84a1.776 1.776 0 0 1-.853.219zm-10.622-38.951 11.642 34.692c5.956-2.88 19.351-8.331 33.441-14.064 15.059-6.127 30.631-12.464 34.939-14.841a1.76 1.76 0 0 1 1.248-.174c.696.161 1.417.371 2.181.592 3.692 1.072 7.878 2.287 12.948-.492 1.718-.942 2.896-2.865 2.932-4.786.035-1.88-1.177-3.746-2.819-4.342a1.762 1.762 0 0 1 .695-3.415c2.405.137 4.836-1.66 5.529-4.072.684-2.379-.319-5.238-2.385-6.798-2.035-1.537-5.048-1.84-7.501-.756a1.762 1.762 0 0 1-2.122-2.668c1.196-1.593.878-4.278-.692-5.862-1.545-1.558-4.158-2.19-6.653-1.61-2.864.665-5.121 2.648-6.51 4.194-1.765 1.964-3.933 4.994-5.524 7.718a1.758 1.758 0 0 1-1.149.833c-.569.125-54.833 11.874-70.2 15.851zm69.829-17.571h.005z" fill="#7d271d"/><path d="M378.361 274.768c2.161 3.941 6.569 5.68 9.846 3.883s4.183-6.448 2.022-10.389-6.569-5.68-9.846-3.883c-3.277 1.796-4.183 6.447-2.022 10.389z" fill="#e36254"/></g><g><path d="M142.916 268.599c-1.503-2.574-3.742-5.79-5.734-8.007s-4.519-4.059-7.422-4.733-6.203-.031-8.302 2.086c-2.099 2.116-2.64 5.775-.851 8.16-2.981-1.319-6.674-1.004-9.275.961s-3.916 5.558-3.016 8.691 4.06 5.517 7.316 5.344c-2.416.877-4.027 3.461-3.979 6.031s1.592 5.062 3.846 6.298c6.847 3.754 12.473.975 16.374.071 8.798 4.854 61.453 25.005 70.25 29.859l12.888-38.408c-12.469-3.453-72.095-16.353-72.095-16.353z" fill="#a63c30"/><path d="M202.122 325.12c-.294 0-.587-.074-.851-.219-4.307-2.377-19.877-8.712-34.936-14.839-15.186-6.179-29.565-12.03-34.694-14.689-.43.115-.889.248-1.365.386-3.915 1.137-9.278 2.694-15.625-.786-2.832-1.553-4.701-4.618-4.76-7.809-.035-1.865.611-3.692 1.711-5.139-2.341-1.104-4.239-3.204-4.98-5.782-1.089-3.787.411-8.139 3.647-10.583 2.123-1.604 4.849-2.318 7.537-2.073a8.512 8.512 0 0 1 2.4-6.883c2.422-2.443 6.235-3.424 9.952-2.561 2.974.691 5.857 2.514 8.334 5.272 1.766 1.966 3.893 4.895 5.546 7.625 7.238 1.568 59.679 12.957 71.443 16.214a1.763 1.763 0 0 1 1.201 2.258l-12.889 38.408a1.76 1.76 0 0 1-1.671 1.2zm-70.25-33.382c.295 0 .588.074.851.219 4.308 2.377 19.88 8.713 34.94 14.841 14.089 5.733 27.483 11.183 33.439 14.063l11.642-34.692c-15.366-3.977-69.63-15.725-70.201-15.849a1.76 1.76 0 0 1-1.149-.834c-1.589-2.722-3.757-5.752-5.523-7.718-1.389-1.546-3.646-3.529-6.511-4.194-2.496-.58-5.108.052-6.653 1.61-1.571 1.584-1.888 4.269-.693 5.863a1.76 1.76 0 0 1-2.122 2.667c-2.452-1.086-5.466-.782-7.5.756-2.066 1.56-3.069 4.42-2.385 6.799.693 2.411 3.124 4.198 5.529 4.071a1.762 1.762 0 0 1 .695 3.415c-1.643.596-2.854 2.463-2.819 4.342.036 1.921 1.215 3.844 2.932 4.786 5.07 2.78 9.256 1.564 12.949.492a41.154 41.154 0 0 1 2.18-.592c.133-.03.266-.045.399-.045z" fill="#7d271d"/><path d="M135.425 280.807c-2.161 3.941-6.569 5.68-9.846 3.883s-4.183-6.448-2.022-10.389c2.16-3.941 6.569-5.68 9.846-3.883 3.277 1.796 4.183 6.448 2.022 10.389z" fill="#e36254"/></g><g><path d="M190.62 371.114c4.778 28.899 10.432 73.616 10.432 73.616s-21.073 11.822-16.962 17.989c4.112 6.168 36.324 7.196 41.805 0s17.817-68.874 17.817-68.874z" fill="#a63c30"/><path d="M205.559 469.5c-.839 0-1.67-.014-2.486-.039-3.979-.125-17.213-.911-20.448-5.764-.792-1.188-1.02-2.609-.66-4.108 1.478-6.151 13.355-13.55 17.191-15.8-.924-7.226-5.984-46.437-10.274-72.387a1.763 1.763 0 0 1 2.432-1.906l53.093 22.731a1.762 1.762 0 0 1 1.034 1.965c-1.271 6.354-12.576 62.288-18.143 69.596-3.224 4.231-12.925 5.712-21.739 5.712zm-12.683-95.504c4.614 28.608 9.87 70.082 9.924 70.513a1.76 1.76 0 0 1-.886 1.757c-5.866 3.293-15.539 10.045-16.524 14.145-.169.705 0 1.082.166 1.331 1.202 1.803 7.789 3.887 17.627 4.197 10.213.321 19.174-1.482 21.312-4.288 3.768-4.947 12.238-42.086 17.209-66.75z" fill="#7d271d"/></g><g><path d="M334.273 368.002c-4.778 28.899-10.687 76.728-10.687 76.728s21.073 11.822 16.962 17.989c-4.112 6.168-36.324 7.196-41.805 0s-17.817-68.874-17.817-68.874z" fill="#a63c30"/><path d="M319.079 469.5c-8.815 0-18.515-1.481-21.738-5.713-5.567-7.308-16.873-63.242-18.143-69.596a1.761 1.761 0 0 1 .959-1.931l53.348-25.843a1.763 1.763 0 0 1 2.506 1.872c-4.306 26.043-9.597 68.007-10.532 75.497 3.832 2.248 15.717 9.648 17.194 15.802.36 1.499.132 2.92-.66 4.108-3.235 4.853-16.47 5.639-20.449 5.764-.816.026-1.647.04-2.485.04zm-36.158-74.664c4.969 24.664 13.451 61.865 17.223 66.816 2.137 2.806 11.104 4.608 21.309 4.288 9.84-.31 16.427-2.394 17.629-4.197.166-.249.335-.626.166-1.331-.984-4.1-10.658-10.853-16.524-14.145a1.76 1.76 0 0 1-.886-1.752c.057-.46 5.526-44.627 10.151-73.449z" fill="#7d271d"/></g><g><path d="M334.612 368.175c-7.338 27.514-48.504 38.515-68.43 40.342-19.927 1.827-60.708-1.661-72.926-27.382-10.401-21.88 1.208-61.849 12.984-98.827 2.064-6.481 4.137-12.867 6.092-19.051l82.088-7.526c3.474 6.525 7.141 13.284 10.798 20.145 17.859 33.513 35.488 69.462 29.394 92.299z" fill="#e36254"/><path d="M305.217 275.877c-31.102 25.569-78.345 20.065-98.977 6.432 2.064-6.481 4.137-12.867 6.092-19.051l82.088-7.526c3.473 6.524 7.14 13.283 10.797 20.145z" fill="#b0866b" opacity=".67"/><path d="M256.702 410.686c-21.753 0-54.129-5.831-65.038-28.795-10.493-22.073.618-61.562 12.896-100.117.878-2.757 1.757-5.496 2.629-8.211 1.177-3.666 2.339-7.285 3.462-10.836a1.759 1.759 0 0 1 1.519-1.223l82.088-7.526a1.765 1.765 0 0 1 1.716.926c1.76 3.306 3.569 6.672 5.402 10.08 1.785 3.319 3.591 6.679 5.395 10.065 18.38 34.489 35.802 70.124 29.543 93.581-3.325 12.47-13.854 23.171-30.449 30.945-13.842 6.485-29.492 9.778-39.523 10.698-2.839.258-6.1.413-9.64.413zm-43.045-145.781a2699.79 2699.79 0 0 1-3.113 9.735c-.87 2.711-1.749 5.449-2.626 8.203-12.065 37.884-23.013 76.622-13.072 97.536 6.432 13.54 21.193 20.023 32.443 23.078 17.52 4.756 34.075 3.733 38.731 3.306 23.271-2.134 60.289-14.292 66.889-39.042 5.928-22.218-11.989-58.63-29.248-91.016a3105.644 3105.644 0 0 0-5.389-10.053c-1.645-3.059-3.27-6.083-4.858-9.06z" fill="#7d271d"/></g><g><path d="m308.663 271.548 54.8-10.241 9.846 34.486-47.833 21.526z" fill="#f22a4e"/><path d="M325.476 319.081a1.762 1.762 0 0 1-1.654-1.155l-16.813-45.772a1.761 1.761 0 0 1 1.33-2.339l54.799-10.241a1.762 1.762 0 0 1 2.017 1.248l9.846 34.486a1.761 1.761 0 0 1-.971 2.09l-47.833 21.526a1.722 1.722 0 0 1-.721.157zm-14.441-46.184 15.442 42.041 44.719-20.125-8.987-31.479z" fill="#911027"/><path d="m208.488 275.284-59.737-8.418-8.744 34.2 56.367 23.654z" fill="#f22a4e"/><path d="M196.374 326.481a1.77 1.77 0 0 1-.682-.137l-56.367-23.654a1.763 1.763 0 0 1-1.025-2.061l8.743-34.2a1.763 1.763 0 0 1 1.952-1.308l59.737 8.418a1.761 1.761 0 0 1 1.465 2.164l-12.113 49.436a1.757 1.757 0 0 1-1.71 1.342zM142.09 300.03l53.064 22.268 11.158-45.541-56.247-7.927z" fill="#911027"/><path d="M211.32 259.626c-7.648 16.024-25.281 62.458-29.541 103.846 19.628 22.647 141.924 19.628 159.3-1.087-3.787-51.757-38.444-102.759-38.444-102.759z" fill="#f22a4e"/><path d="M257.373 380.987c-30.83 0-66.448-4.272-76.924-16.361a1.763 1.763 0 0 1-.421-1.334c4.52-43.911 23.434-91.289 29.704-104.425a1.76 1.76 0 0 1 1.59-1.003h91.315c.583 0 1.129.289 1.457.771.087.129 8.845 13.083 17.936 32.205 8.402 17.672 18.832 44.408 20.808 71.416.034.457-.113.909-.407 1.261-9.798 11.681-48.431 17.185-82.372 17.459-.892.008-1.787.011-2.686.011zm-73.759-18.12c8.906 9.184 38.683 14.895 76.414 14.587 38.452-.31 70.728-6.729 79.238-15.682-3.714-47.009-33.306-93.844-37.578-100.384h-89.251c-6.585 14.169-24.323 59.339-28.823 101.479z" fill="#911027"/><path d="M312.155 253.36c3.072 7.511 4.785 16.634 5.081 25.104-9.764 8.869-21.743 12.801-33.595 14.949-27.663 5.012-56.08-.362-82.297-12.727-.069-9.743 2.643-19.48 7.512-26.966 34.06-2.558 69.284-3.768 103.299-.36z" fill="#b51835"/><path d="M262.756 297.025c-20.319 0-41.458-4.979-62.165-14.746a1.763 1.763 0 0 1-1.01-1.581c-.071-10.027 2.771-20.21 7.797-27.939a1.76 1.76 0 0 1 1.345-.796c42.361-3.182 74.316-3.291 103.606-.356a1.76 1.76 0 0 1 1.455 1.086c3.041 7.437 4.892 16.568 5.211 25.71a1.763 1.763 0 0 1-.576 1.365c-8.57 7.784-19.521 12.67-34.466 15.378-6.924 1.255-14.01 1.879-21.197 1.879zm-59.647-17.457c27.044 12.538 54.756 16.726 80.217 12.113 13.91-2.52 24.143-6.969 32.116-13.975-.365-7.954-1.995-16.117-4.529-22.697-28.586-2.786-59.843-2.66-101.044.403-4.192 6.781-6.625 15.479-6.76 24.156z" fill="#911027"/><path d="M212.591 285.956a1.763 1.763 0 0 1-1.756-1.934c.941-9.624 3.367-19.209 7.014-27.72a1.76 1.76 0 1 1 3.238 1.388c-3.506 8.182-5.839 17.406-6.746 26.675a1.759 1.759 0 0 1-1.75 1.591zM223.163 290.551a1.762 1.762 0 0 1-1.745-2.016 467.288 467.288 0 0 1 6.076-33.247 1.763 1.763 0 0 1 3.441.76 463.585 463.585 0 0 0-6.029 32.995 1.764 1.764 0 0 1-1.743 1.508zM234.692 293.438l-.063-.001a1.761 1.761 0 0 1-1.698-1.823 187.189 187.189 0 0 1 4.138-33.096 1.76 1.76 0 1 1 3.442.75 183.732 183.732 0 0 0-4.059 32.472 1.761 1.761 0 0 1-1.76 1.698zM247.394 296.052h-.045a1.762 1.762 0 0 1-1.717-1.805 367.865 367.865 0 0 1 2.919-37.924 1.76 1.76 0 1 1 3.493.452 364.44 364.44 0 0 0-2.891 37.559 1.76 1.76 0 0 1-1.759 1.718zM261.862 296.932h-.034a1.761 1.761 0 0 1-1.727-1.795l.548-28.305c.019-.972.831-1.755 1.795-1.727a1.761 1.761 0 0 1 1.727 1.795l-.548 28.305a1.762 1.762 0 0 1-1.761 1.727zM273.86 296.711h-.014a1.762 1.762 0 0 1-1.748-1.775c.076-9.803-.37-19.705-1.327-29.431a1.76 1.76 0 0 1 1.581-1.925 1.757 1.757 0 0 1 1.926 1.581 283.43 283.43 0 0 1 1.343 29.803 1.762 1.762 0 0 1-1.761 1.747zM286.31 293.418a1.762 1.762 0 0 1-1.761-1.732 255.227 255.227 0 0 0-1.941-27.45 1.761 1.761 0 0 1 3.496-.439 258.657 258.657 0 0 1 1.968 27.83 1.76 1.76 0 0 1-1.731 1.79l-.031.001zM298.273 290.347h-.019a1.761 1.761 0 0 1-1.743-1.78 192.65 192.65 0 0 0-2.035-30.008 1.761 1.761 0 1 1 3.486-.513 196.27 196.27 0 0 1 2.072 30.558 1.762 1.762 0 0 1-1.761 1.743z" fill="#911027"/><g><path d="M309.435 284.639a1.761 1.761 0 0 1-1.759-1.697 176.803 176.803 0 0 0-3.347-28.428 1.76 1.76 0 1 1 3.453-.696 180.312 180.312 0 0 1 3.415 28.996 1.761 1.761 0 0 1-1.697 1.824l-.065.001z" fill="#911027"/></g><g><path d="M145.944 261.307c-3.746 6.642-14.492 36.236-10.969 40.262s13.807 8.345 16.105 5.536c4.53-5.536 12.582-32.21 12.582-41.772-.001-3.638-14.596-9.562-17.718-4.026z" fill="#b51835"/><path d="M148.524 309.765c-4.421 0-11.737-3.45-14.875-7.036-.822-.94-3.006-3.435 2.402-20.833 2.877-9.253 6.509-18.175 8.358-21.454 1.699-3.011 5.759-3.928 11.14-2.514 3.969 1.042 9.873 3.875 9.873 7.406 0 10.102-8.128 36.957-12.98 42.888-.815.996-2.087 1.515-3.782 1.543h-.136zm-1.046-47.593c-1.696 3.007-5.233 11.714-7.991 20.538-3.819 12.221-3.75 16.926-3.181 17.707 2.452 2.802 8.797 5.825 12.204 5.825l.092-.001c.755-.013 1.06-.186 1.114-.251 4.321-5.281 12.162-31.434 12.184-40.619-.292-1.005-4.421-3.786-9.277-4.445-1.241-.169-4.225-.385-5.145 1.246z" fill="#911027"/><path d="M154.162 303.125c-.17 0-.342-.025-.513-.077a117.778 117.778 0 0 1-19.605-7.946 1.76 1.76 0 1 1 1.612-3.132 114.213 114.213 0 0 0 19.017 7.708 1.762 1.762 0 0 1-.511 3.447zM156.614 292.762c-.233 0-.469-.046-.697-.145a1740.701 1740.701 0 0 0-9.176-3.922c-2.939-1.25-5.878-2.499-9.193-3.93a1.762 1.762 0 0 1 1.395-3.234c3.309 1.428 6.242 2.675 9.176 3.922 2.939 1.25 5.878 2.5 9.193 3.93a1.76 1.76 0 0 1-.698 3.379zM160.49 284.636c-.218 0-.439-.041-.654-.126l-19.141-7.659a1.761 1.761 0 1 1 1.309-3.271l19.141 7.659a1.761 1.761 0 0 1-.655 3.397z" fill="#911027"/><g><path d="M162.438 274.207c-.24 0-.485-.049-.718-.154a67.386 67.386 0 0 0-18.075-5.206 1.76 1.76 0 1 1 .494-3.488 70.926 70.926 0 0 1 19.02 5.478 1.762 1.762 0 0 1-.721 3.37z" fill="#911027"/></g></g><g><path d="M384.545 294.05c-1.178-7.534-11.093-37.417-16.353-38.392s-16.007 2.012-16.069 5.64c-.122 7.152 10.096 33.073 16.024 40.577 2.255 2.855 17.38-1.545 16.398-7.825z" fill="#b51835"/><path d="M371.085 304.529c-1.831 0-3.426-.429-4.321-1.561-6.263-7.926-16.534-34.037-16.403-41.699.022-1.286.698-2.482 2.011-3.555 3.412-2.789 11.407-4.665 16.14-3.787 1.228.228 4.489.832 11.031 17.836 3.48 9.044 6.16 18.296 6.742 22.016.534 3.416-2.084 6.652-7.183 8.879-2.224.971-5.367 1.871-8.017 1.871zm-1.58-3.776c.853.607 5.817.229 10.036-2.264 1.078-.637 3.553-2.318 3.264-4.167-.533-3.41-3.156-12.435-6.462-21.069-4.58-11.957-7.55-15.606-8.481-15.865-3.696-.685-10.64.912-13.259 3.053-.584.478-.717.803-.718.887-.117 6.823 9.943 32.205 15.62 39.425z" fill="#911027"/><path d="M353.264 269.477a1.761 1.761 0 0 1-.644-3.402 117.77 117.77 0 0 1 20.31-5.919 1.76 1.76 0 1 1 .677 3.457 114.228 114.228 0 0 0-19.701 5.742c-.21.082-.428.122-.642.122zM357.762 279.129a1.762 1.762 0 0 1-.455-3.464c3.473-.929 6.542-1.767 9.609-2.605a1790.69 1790.69 0 0 1 9.671-2.622 1.762 1.762 0 0 1 .911 3.404c-3.49.933-6.571 1.775-9.654 2.617-3.073.84-6.148 1.679-9.627 2.61a1.74 1.74 0 0 1-.455.06zM359.76 287.908a1.762 1.762 0 0 1-.5-3.451l19.767-5.857a1.763 1.763 0 0 1 1.001 3.378l-19.767 5.857a1.776 1.776 0 0 1-.501.073z" fill="#911027"/><g><path d="M364.696 297.299a1.761 1.761 0 0 1-.432-3.469 67.377 67.377 0 0 0 17.41-7.12 1.761 1.761 0 0 1 1.775 3.043 70.907 70.907 0 0 1-18.319 7.492 1.804 1.804 0 0 1-.434.054z" fill="#911027"/></g></g><g><path d="m236.291 351.718 13.621-14.193-7.027.014 13.617-14.194-6.392.013 11.323-15.476 11.386 15.43-6.392.013 13.676 14.137-7.027.015 13.679 14.137z" fill="#3f9e53"/><path d="M236.291 352.725a1.007 1.007 0 0 1-.727-1.704l11.982-12.485-4.659.01h-.002a1.008 1.008 0 0 1-.726-1.704l11.979-12.485-4.025.008h-.002a1.006 1.006 0 0 1-.813-1.601l11.323-15.477c.189-.258.49-.411.81-.412h.002c.319 0 .62.152.81.409l11.386 15.43a1.008 1.008 0 0 1-.808 1.604l-4.025.008 12.03 12.436a1.006 1.006 0 0 1-.722 1.707l-4.659.01 12.033 12.436a1.007 1.007 0 0 1-.721 1.707l-50.465.104-.001-.001zm13.621-16.207a1.007 1.007 0 0 1 .727 1.704l-11.982 12.485 45.73-.094-12.034-12.436a1.006 1.006 0 0 1 .722-1.707l4.66-.01-12.03-12.436a1.006 1.006 0 0 1 .722-1.707l4.404-.009-9.392-12.727-9.34 12.766 4.404-.009h.002a1.008 1.008 0 0 1 .726 1.704l-11.979 12.485 4.66-.01c-.002.001-.001.001 0 .001z" fill="#20522a"/></g><g><path d="m286.555 351.718 7.678-8.001-3.96.008 7.676-8.001-3.604.008 6.383-8.724 6.418 8.697-3.603.008 7.709 7.969-3.961.008 7.711 7.97z" fill="#3f9e53"/><path d="M286.555 352.725a1.007 1.007 0 0 1-.727-1.704l6.039-6.293-1.593.003h-.002a1.007 1.007 0 0 1-.727-1.704l6.037-6.293-1.237.003h-.002a1.007 1.007 0 0 1-.812-1.601l6.383-8.724c.189-.258.49-.411.811-.412h.002c.319 0 .62.152.81.409l6.418 8.698a1.008 1.008 0 0 1-.808 1.604l-1.236.003 6.063 6.268a1.006 1.006 0 0 1-.722 1.707l-1.593.004 6.064 6.268a1.006 1.006 0 0 1-.722 1.707l-28.447.059c.003-.002.002-.002.001-.002zm7.678-10.014a1.007 1.007 0 0 1 .727 1.703l-6.039 6.293 23.712-.049-6.064-6.268a1.007 1.007 0 0 1 .721-1.707l1.593-.004-6.063-6.268a1.006 1.006 0 0 1 .722-1.707l1.615-.003-4.424-5.995-4.4 6.013 1.615-.003h.002a1.007 1.007 0 0 1 .727 1.704l-6.037 6.293 1.594-.003-.001.001z" fill="#20522a"/></g><g><path d="m208.547 351.718 7.678-8.001-3.961.008 7.676-8.001-3.603.008 6.383-8.724 6.418 8.697-3.603.008 7.709 7.969-3.961.008 7.711 7.97z" fill="#3f9e53"/><path d="M208.547 352.725a1.008 1.008 0 0 1-.726-1.704l6.039-6.293-1.593.003h-.002a1.008 1.008 0 0 1-.726-1.704l6.037-6.293-1.237.003h-.002a1.007 1.007 0 0 1-.812-1.601l6.383-8.724c.189-.258.49-.411.81-.412h.002c.32 0 .62.152.81.409l6.418 8.698a1.006 1.006 0 0 1-.808 1.604l-1.236.003 6.063 6.268a1.006 1.006 0 0 1-.722 1.707l-1.593.004 6.064 6.268a1.007 1.007 0 0 1-.721 1.707l-28.447.059-.001-.002zm7.678-10.014a1.005 1.005 0 0 1 .726 1.703l-6.039 6.293 23.712-.049-6.064-6.268a1.007 1.007 0 0 1 .721-1.707l1.593-.004-6.063-6.268a1.006 1.006 0 0 1 .722-1.707l1.614-.003-4.424-5.995-4.4 6.013 1.615-.003a1.008 1.008 0 0 1 .728 1.704l-6.037 6.293 1.594-.003a.003.003 0 0 0 .002.001z" fill="#20522a"/></g></g><g><path d="M218.286 81.34c-11.676-11.849-18.533-17.011-31.652-27.609-7.198-5.815-15.709-12.478-25.901-12.741-4.295-.111-7.725 3.348-4.1 6.94 1.482 1.469 3.641 2.202 5.712 2.882-3.201-.133-5.306.073-8.337.951s-5.842 2.516-7.589 4.888c-.923 1.253-1.52 2.933-.67 4.253.668 1.037 2.078 1.55 3.407 1.568s2.609-.375 3.857-.764c-11.519 25.555-9.081 74.574 3.164 88.738z" fill="#ffe8db"/><path d="M156.178 152.209c-.494 0-.985-.206-1.333-.609-12.53-14.494-14.78-61.09-4.767-87.404-.31.029-.627.042-.946.039-2.074-.028-3.938-.938-4.864-2.376-1.131-1.756-.858-4.093.732-6.251 1.852-2.515 4.877-4.481 8.517-5.536a31.096 31.096 0 0 1 2.225-.564 8.916 8.916 0 0 1-.349-.326c-1.918-1.9-2.526-4.144-1.667-6.157 1.004-2.353 3.842-3.875 7.052-3.795 11.059.286 20.251 7.711 26.962 13.132 1.632 1.318 3.167 2.552 4.626 3.726 10.164 8.172 16.879 13.57 27.174 24.017a1.761 1.761 0 1 1-2.509 2.473c-10.151-10.301-16.445-15.361-26.871-23.744a2332.767 2332.767 0 0 1-4.633-3.731c-6.671-5.389-14.975-12.096-24.839-12.35-1.922-.053-3.363.815-3.721 1.655-.341.799.305 1.676.906 2.272 1.222 1.211 3.241 1.875 5.022 2.461a1.761 1.761 0 0 1-.623 3.433c-3.13-.13-5.018.085-7.775.883-2.9.841-5.266 2.347-6.661 4.241-.507.688-.97 1.692-.607 2.255.277.429 1.096.749 1.95.761 1.066.015 2.206-.341 3.31-.685a1.761 1.761 0 0 1 2.13 2.406c-5.239 11.622-7.921 29.508-7.175 47.845.721 17.718 4.578 32.668 10.066 39.017a1.763 1.763 0 0 1-.18 2.485 1.767 1.767 0 0 1-1.152.427z" fill="#e0a58f"/><path d="M169.905 67.047c9.688-5.649 32.442 23.21 35.363 28.75 2.92 5.54-29.905 34.945-36.75 31.955-6.846-2.991-7.169-55.716 1.387-60.705z" fill="#a63c30"/><path d="M169.593 129.7c-.663 0-1.26-.107-1.781-.335-3.183-1.391-5.168-8.489-5.901-21.099-.839-14.434.349-38.801 7.106-42.741 1.865-1.088 4.133-1.261 6.736-.515 11.95 3.421 28.863 25.775 31.071 29.965.856 1.623 1.048 4.798-7.124 13.591-7.343 7.903-22.74 21.134-30.107 21.134zm3.165-61.623c-.752 0-1.403.164-1.966.492-3.823 2.229-6.352 20.262-5.413 38.59.683 13.333 2.885 18.544 3.844 18.979 1.252.547 6.831-1.514 16.482-9.363 4.86-3.952 9.605-8.467 13.02-12.386 4.303-4.94 5.04-7.284 4.964-7.808-2.545-4.772-18.795-25.288-28.905-28.183-.746-.214-1.419-.321-2.026-.321zm-2.853-1.03h.005z" fill="#7d271d"/><path d="M287.701 75.769c9.636-13.559 15.582-19.75 26.843-32.304 6.178-6.888 13.518-14.824 23.537-16.709 4.222-.795 8.16 2.073 5.155 6.197-1.229 1.686-3.244 2.754-5.179 3.757 3.138-.641 5.25-.774 8.382-.39 3.132.383 6.169 1.552 8.272 3.615 1.111 1.09 1.968 2.653 1.339 4.092-.494 1.13-1.804 1.862-3.113 2.092s-2.635.046-3.93-.139c15.448 23.39 20.859 72.171 11.031 88.107z" fill="#ffe8db"/><path d="M360.036 135.846a1.76 1.76 0 0 1-1.498-2.686c4.405-7.143 5.828-22.517 3.713-40.123-2.189-18.221-7.689-35.45-14.715-46.088a1.761 1.761 0 0 1 1.719-2.714c1.144.163 2.326.332 3.377.148.84-.148 1.599-.594 1.803-1.062.268-.614-.349-1.53-.959-2.129-1.679-1.647-4.255-2.757-7.252-3.124-2.847-.348-4.748-.259-7.816.368a1.762 1.762 0 0 1-1.163-3.29c1.665-.862 3.553-1.84 4.566-3.23.498-.684.995-1.654.532-2.387-.488-.772-2.032-1.399-3.937-1.041-9.699 1.825-17.128 10.107-22.552 16.154-1.402 1.563-2.722 3.028-3.977 4.421-8.957 9.939-14.363 15.938-22.742 27.727a1.762 1.762 0 0 1-2.871-2.04c8.496-11.955 14.264-18.356 22.995-28.045 1.253-1.391 2.571-2.854 3.972-4.415 5.761-6.422 13.65-15.218 24.522-17.264 3.16-.595 6.201.459 7.567 2.621 1.169 1.85.927 4.162-.664 6.344a9.038 9.038 0 0 1-.292.378c.723.035 1.474.103 2.286.202 3.763.461 7.062 1.919 9.292 4.107 1.913 1.878 2.556 4.141 1.72 6.055-.685 1.566-2.379 2.762-4.422 3.121a8.78 8.78 0 0 1-.94.112c14.082 24.38 19.293 70.739 9.236 87.045a1.76 1.76 0 0 1-1.5.835z" fill="#e0a58f"/><path d="M333.183 53.942c-10.465-4.032-28.325 28.088-30.324 34.022-1.999 5.935 35.096 29.727 41.376 25.684 6.281-4.044-1.809-56.146-11.052-59.706z" fill="#a63c30"/><path d="M342.279 115.833c-7.833.001-23.819-9.864-31.89-16.152-9.468-7.377-9.785-10.541-9.199-12.28 1.512-4.489 14.64-29.252 25.893-34.538 2.453-1.152 4.718-1.342 6.733-.566 7.299 2.812 12.358 26.678 13.832 41.06 1.288 12.565.461 19.89-2.46 21.771-.752.485-1.74.705-2.909.705zm-37.736-27.348c.008.529 1.109 2.726 6.145 6.915 3.995 3.324 9.399 7.023 14.827 10.15 10.782 6.211 16.621 7.355 17.768 6.616.877-.582 2.22-6.078.767-19.351-1.996-18.242-7.369-35.64-11.498-37.23-1.1-.424-2.398-.271-3.969.467-9.522 4.472-22.29 27.316-24.04 32.433z" fill="#7d271d"/><path d="M342.895 248.037c-26.773 12.984-58.285 21.012-75.758 21.409-17.387 2.405-49.981-.527-78.57-9.164a181.25 181.25 0 0 1-11.583-3.912c-19.3-7.271-35.23-17.464-40.852-30.706-1.517-3.554-2.285-7.335-2.172-11.332.443-15.99 39.371-107.517 49.507-120.191s36.526-18.917 67.88-21.433c31.354-2.517 62.064-.857 74.092 10.038s61.388 95.335 64.376 111.05c4.087 21.494-18.806 40.604-46.92 54.241z" fill="#e36254"/><circle cx="301.366" cy="165.375" fill="#fff" r="22.219"/><path d="M301.327 189.357c-5.686 0-11.13-1.997-15.507-5.723a23.829 23.829 0 0 1-8.358-16.341c-.512-6.385 1.492-12.587 5.645-17.464s9.956-7.845 16.34-8.358c6.389-.513 12.588 1.493 17.464 5.644a23.825 23.825 0 0 1 8.357 16.34h.001c.512 6.385-1.492 12.587-5.645 17.464a23.822 23.822 0 0 1-16.34 8.358 23.8 23.8 0 0 1-1.957.08zm.073-44.44c-.555 0-1.111.022-1.67.067a20.32 20.32 0 0 0-13.94 7.13 20.322 20.322 0 0 0-4.815 14.898 20.324 20.324 0 0 0 7.129 13.94 20.329 20.329 0 0 0 14.898 4.815 20.32 20.32 0 0 0 13.94-7.13 20.317 20.317 0 0 0 4.815-14.898 20.326 20.326 0 0 0-7.129-13.94c-3.734-3.179-8.378-4.882-13.228-4.882z"/><path d="M311.151 165.62c.588 7.327-4.877 13.745-12.204 14.334-7.327.588-13.745-4.877-14.333-12.204-.588-7.331 4.876-13.75 12.203-14.338 3.23-.259 6.287.661 8.74 2.396-.185.121-.37.25-.549.387-3.233 2.434-4.616 6.058-3.088 8.097 1.532 2.034 5.401 1.711 8.638-.723.076-.057.152-.114.223-.175.186.719.309 1.464.37 2.226z"/><circle cx="215.72" cy="172.25" fill="#fff" transform="rotate(-30.41 215.807 172.324)" r="22.219"/><path d="M215.681 196.232c-5.686 0-11.13-1.996-15.507-5.723a23.83 23.83 0 0 1-8.358-16.34c-1.058-13.18 8.804-24.764 21.985-25.822 13.184-1.06 24.764 8.804 25.822 21.985 1.057 13.181-8.805 24.764-21.985 25.822-.654.052-1.308.078-1.957.078zm.054-44.44c-.547 0-1.097.022-1.651.066-11.244.903-19.657 10.785-18.754 22.029.437 5.447 2.969 10.397 7.129 13.939s9.45 5.252 14.898 4.815c11.244-.902 19.657-10.784 18.755-22.028-.858-10.689-9.833-18.821-20.377-18.821z"/><path d="M206.099 174.052c.588 7.327 7.007 12.792 14.334 12.204s12.792-7.007 12.204-14.334a13.114 13.114 0 0 0-.369-2.225c-.076.057-.152.118-.228.175-3.233 2.434-7.102 2.757-8.634.723-1.528-2.039-.149-5.663 3.088-8.097.18-.137.364-.267.549-.387a13.247 13.247 0 0 0-8.74-2.396c-7.328.587-12.792 7.006-12.204 14.337z"/><path d="M236.232 120.094c1.201 3.648-3.352 8.423-10.167 10.666-6.816 2.243-13.314 1.104-14.515-2.544-1.2-3.648 3.352-8.423 10.167-10.666 6.817-2.243 13.315-1.104 14.515 2.544z" fill="#ffe8db"/><path d="M219.348 133.665c-4.727 0-8.435-1.753-9.47-4.898-1.528-4.642 3.432-10.304 11.29-12.89 3.566-1.174 7.196-1.529 10.218-.999 3.412.598 5.727 2.255 6.52 4.665.794 2.411-.086 5.119-2.475 7.626-2.117 2.221-5.247 4.09-8.814 5.264-2.536.834-5.018 1.232-7.269 1.232zm9.166-15.501c-1.953 0-4.129.363-6.246 1.059-6.105 2.009-9.811 6.115-9.045 8.443.767 2.328 6.186 3.431 12.292 1.421 2.982-.981 5.666-2.566 7.365-4.348 1.43-1.5 2.042-2.992 1.679-4.094-.363-1.102-1.741-1.939-3.782-2.296a13.108 13.108 0 0 0-2.263-.185z" fill="#e0a58f"/><g><ellipse cx="284.293" cy="121.831" fill="#ffe8db" rx="6.953" ry="12.992" transform="rotate(-72.54 284.418 121.787)"/><path d="M288.701 131.28c-2.18 0-4.572-.365-7.018-1.133-3.583-1.124-6.739-2.951-8.886-5.142-2.424-2.474-3.34-5.17-2.58-7.591s3.053-4.11 6.456-4.755c3.015-.571 6.647-.266 10.23.858 7.893 2.478 12.93 8.071 11.467 12.734-1.011 3.217-4.815 5.029-9.669 5.029zm-8.892-15.377c-.879 0-1.714.072-2.481.217-2.036.386-3.403 1.242-3.75 2.348-.348 1.107.284 2.59 1.735 4.07 1.723 1.759 4.429 3.306 7.424 4.247 6.132 1.925 11.536.748 12.27-1.59.734-2.339-3.027-6.392-9.16-8.317-2.046-.643-4.143-.975-6.038-.975zm16.879 9.82h.005z" fill="#e0a58f"/></g><path d="M179.221 197.563c-5.285 19.075-6.048 39.383-2.237 58.808-19.3-7.271-35.23-17.464-40.852-30.706a144.36 144.36 0 0 1 20.585-30.245c4.102-4.631 8.982-9.244 15.117-10.059 2.523-.334 5.374.149 7.015 2.098 2.271 2.686 1.312 6.716.372 10.104zM342.366 184.468c8.26 17.988 12.253 37.914 11.589 57.699 17.893-10.257 31.993-22.86 35.431-36.829a144.39 144.39 0 0 0-25.146-26.574c-4.788-3.917-10.342-7.693-16.528-7.519-2.544.073-5.281 1.004-6.59 3.19-1.814 3.013-.224 6.838 1.244 10.033z" fill="#ffe8db"/><g><path d="M280.478 179.417a100.084 100.084 0 0 1 44.042-2.362l.384 12.493-27.173 7.327-17.416-10.051z" fill="#e36254"/><path d="M280.477 181.179a1.761 1.761 0 0 1-.48-3.457c14.483-4.112 29.982-4.944 44.821-2.404a1.76 1.76 0 1 1-.595 3.472c-14.322-2.452-29.284-1.649-43.264 2.32a1.682 1.682 0 0 1-.482.069z"/></g><g><path d="M194.66 183.332a100.084 100.084 0 0 1 44.042-2.362l.383 12.493-27.173 7.327-17.416-10.05z" fill="#e36254"/><path d="M194.659 185.094a1.763 1.763 0 0 1-.48-3.457c14.483-4.113 29.982-4.943 44.821-2.404a1.76 1.76 0 1 1-.595 3.472c-14.324-2.451-29.284-1.649-43.264 2.32a1.717 1.717 0 0 1-.482.069z"/></g><path d="M342.715 244.532c.094 1.174.153 2.341.18 3.505-26.773 12.984-58.285 21.012-75.758 21.409-17.387 2.405-49.981-.527-78.57-9.164a57.087 57.087 0 0 1-.365-3.348c-2.991-37.264 29.174-70.25 71.841-73.675 42.666-3.424 79.681 24.01 82.672 61.273z" fill="#ffe8db"/><path d="m249.558 189.111 20.486-1.644c2.493-.2 4.085 2.602 2.636 4.641l-8.785 12.361a3.874 3.874 0 0 1-5.967.423l-10.27-10.818c-1.704-1.795-.568-4.765 1.9-4.963z"/><g><path d="M253.444 272.005c-17.696 0-42.273-3.053-65.387-10.035a184.19 184.19 0 0 1-11.695-3.95c-22.123-8.335-36.595-19.285-41.852-31.665-1.651-3.867-2.429-7.929-2.311-12.071.453-16.323 39.435-108.167 49.892-121.241 9.38-11.729 32.634-19.161 69.114-22.089 21.901-1.757 60.819-2.733 75.415 10.488 12.806 11.599 61.954 96.404 64.924 112.026 3.698 19.441-13.306 39.384-47.881 56.154-28.13 13.642-59.686 21.176-76.385 21.583-3.842.525-8.53.8-13.834.8zm22.139-198.579c-7.383 0-15.435.343-24.095 1.039-35.473 2.847-57.896 9.838-66.645 20.778-9.919 12.402-48.695 103.768-49.121 119.14-.103 3.63.58 7.194 2.031 10.592 4.872 11.476 18.653 21.762 39.853 29.749a179.882 179.882 0 0 0 11.471 3.874c29.62 8.948 61.568 11.354 77.821 9.105a1.7 1.7 0 0 1 .201-.016c16.292-.371 47.296-7.783 75.029-21.233 19.117-9.273 50.508-28.401 45.957-52.326-2.805-14.75-51.72-99.106-63.828-110.073-7.72-6.993-24.654-10.629-48.674-10.629zm67.312 174.611h.005z" fill="#a63c30"/></g><g><path d="M293.098 224.352c3.251-5.911 4.333-11.152 4.717-12.03-3.654 1.699-7.776 3.138-12.182 4.324-3.44.931-7.048 1.705-10.742 2.326a140.878 140.878 0 0 1-23.488 1.901 114.61 114.61 0 0 1-10.968-.525c-5.306-.514-10.07-1.412-13.905-2.68 2.511 5.406 9.559 19.737 24.608 24.099 8.475-13.365 26.158-19.799 41.96-17.415z" fill="#821629"/><path d="M251.139 243.527a1.77 1.77 0 0 1-.491-.07c-10.795-3.129-19.446-11.556-25.715-25.049a1.76 1.76 0 0 1 2.15-2.414c3.659 1.21 8.209 2.085 13.522 2.599 3.428.337 7.061.511 10.8.517a139.39 139.39 0 0 0 23.194-1.876 111.067 111.067 0 0 0 10.573-2.289c4.447-1.196 8.45-2.616 11.9-4.221a1.763 1.763 0 0 1 2.357 2.303c-.048.118-.184.584-.304.996-.606 2.085-1.869 6.423-4.484 11.177a1.76 1.76 0 0 1-1.806.893c-15.939-2.406-32.479 4.427-40.209 16.615a1.761 1.761 0 0 1-1.487.819zm-21.257-23.089c5.357 9.989 12.244 16.452 20.521 19.25 8.519-12.308 25.323-19.263 41.717-17.248 1.357-2.644 2.274-5.113 2.892-7.005-2.737 1.076-5.723 2.051-8.921 2.912-3.416.925-7.087 1.72-10.908 2.362a142.37 142.37 0 0 1-23.787 1.925 116.186 116.186 0 0 1-11.132-.534c-3.838-.372-7.313-.929-10.382-1.662z"/><path d="M251.139 241.765c2.791.809 5.856 1.275 9.22 1.277 18.605.02 27.989-10.052 32.74-18.691-15.803-2.383-33.486 4.051-41.96 17.414z" fill="#f22a4e"/><path d="M260.413 244.804h-.057c-3.365-.002-6.632-.456-9.708-1.347a1.761 1.761 0 0 1-.997-2.635c8.455-13.33 26.43-20.816 43.71-18.212a1.762 1.762 0 0 1 1.28 2.591c-4.919 8.945-14.85 19.603-34.228 19.603zm-6.371-4.141a32.24 32.24 0 0 0 6.318.618h.054c13.234 0 23.242-5.212 29.793-15.501-14.184-1.247-28.432 4.62-36.165 14.883z"/><g><path d="M285.632 216.646a59.976 59.976 0 0 1-4.209 11.972c-.717 1.491-1.785 3.162-3.438 3.21-1.88.056-3.053-1.963-3.786-3.693-1.175-2.745-2.358-5.496-3.527-8.25 5.145-.865 10.17-1.942 14.96-3.239z" fill="#fff"/><path d="M277.902 233.59c-2.193 0-3.983-1.603-5.325-4.768l-1.009-2.356a1930.84 1930.84 0 0 1-2.517-5.893 1.762 1.762 0 0 1 1.33-2.426c5.184-.871 10.16-1.948 14.791-3.202a1.76 1.76 0 0 1 2.174 2.106 61.807 61.807 0 0 1-4.332 12.324c-.493 1.025-1.985 4.125-4.977 4.212a3.04 3.04 0 0 1-.135.003zm-4.738-12.352c.547 1.281 1.095 2.561 1.644 3.84l1.012 2.363c.709 1.673 1.471 2.626 2.096 2.626h.018c.318-.009.987-.309 1.903-2.213a57.855 57.855 0 0 0 3.326-8.749 160.966 160.966 0 0 1-9.999 2.133z"/></g><g><path d="M255.608 221.073c-.335 2.501-.67 5.008-.998 7.508-.245 1.853-.828 4.096-2.642 4.545-1.592.386-3.064-.917-4.148-2.157a59.619 59.619 0 0 1-7.384-10.622c4.786.47 9.891.717 15.172.726z" fill="#fff"/><path d="M251.384 234.957c-2.419 0-4.24-2.085-4.891-2.829a61.556 61.556 0 0 1-7.604-10.938 1.763 1.763 0 0 1 1.719-2.597c4.76.468 9.808.71 15.003.718a1.763 1.763 0 0 1 1.743 1.996c-.335 2.499-.669 5.005-.998 7.503-.171 1.291-.69 5.214-3.965 6.025a4.248 4.248 0 0 1-1.007.122zm-7.717-12.564a57.793 57.793 0 0 0 5.48 7.419c1.37 1.568 2.095 1.678 2.405 1.602.592-.146 1.072-1.264 1.311-3.064.242-1.84.486-3.686.733-5.53-3.39-.044-6.712-.187-9.929-.427z"/></g></g></g></g></svg>