<svg height="512" width="512" xmlns="http://www.w3.org/2000/svg"><path d="M405.238 328.846c9.309 6.41 19.873 9.506 30.502 9.625 4.293-6.303 7.763-13.28 9.337-20.683-.197.015-.394.033-.59.045-15.04 1.107-36.452-3.132-43.211-17.652a79.923 79.923 0 0 0-3.593 5.816c-1.347 2.391-2.605 4.832-3.858 7.277 1.601 6.225 6.186 11.356 11.413 15.572zM383.266 330.975a66.16 66.16 0 0 1-10.235 10.389c.784 7.706 4.964 15.098 10.312 21.099 3.849 4.031 8.758 6.619 14.033 7.982a94.02 94.02 0 0 0 19.327-11.72c-15.019-2.632-28.625-13.359-33.437-27.75zM359.342 350.068a69.32 69.32 0 0 1-13.555 4.885c-2.14 7.504-1.844 15.782 1.181 22.583a93.03 93.03 0 0 0 19.376.73c-6.314-7.6-8.917-18.369-7.002-28.198z" fill="#e36254"/><g fill="#a63c30"><path d="M345.786 354.953c-5.953 1.463-12.097 2.126-18.233 1.869-4.29-.18-9.439-.7-13.403.949-1.24.516-2.471 1.197-3.252 2.29-.781 1.094-1.094 3.667.043 4.381 10.905 6.847 23.281 11.277 36.026 13.093-3.024-6.8-3.32-15.078-1.181-22.582zM405.238 328.846c-5.228-4.216-9.812-9.347-11.412-15.572-2.359 4.603-4.694 9.218-7.543 13.53a62.269 62.269 0 0 1-3.017 4.172c4.812 14.391 18.418 25.117 33.436 27.751 6.855-5.376 12.965-11.697 18.022-18.794.344-.482.681-.97 1.016-1.461-10.628-.12-21.192-3.216-30.502-9.626zM373.031 341.365a69.505 69.505 0 0 1-13.689 8.703c-1.915 9.83.688 20.598 7.002 28.198a89.571 89.571 0 0 0 11.357-1.495c6.776-1.342 13.381-3.485 19.675-6.325-5.275-1.364-10.184-3.952-14.033-7.982-5.349-6.002-9.528-13.394-10.312-21.099zM444.487 317.833c.196-.012.393-.03.59-.045.346-1.626.608-3.271.759-4.936.892-9.832-1.556-21.676-10.221-26.408-6.944-3.792-15.866-2.424-22.56 1.793-4.774 3.008-8.579 7.255-11.779 11.943 6.759 14.521 28.171 18.76 43.211 17.653z"/></g><path d="M359.724 380.288c-4.548 0-8.914-.327-13.038-.979-.369-.059-36.996-6.63-38.461-16.516-.38-2.567 1.35-4.8 5.143-6.637.03-.015.062-.029.093-.042 3.848-1.602 8.473-1.369 12.554-1.162.548.027 1.088.055 1.614.077 15.597.639 31.739-4.844 44.268-15.055a.532.532 0 0 1 .047-.036c10.114-7.702 16.077-19.212 21.844-30.344.769-1.483 1.536-2.964 2.31-4.433 6.924-13.888 21.474-25.951 35.858-22.052 3.128.847 6.035 2.544 8.408 4.906 14.176 14.109 5.88 39.946-4.198 52.989-16.2 22.698-42.256 37.297-69.707 39.055-2.284.152-4.531.229-6.735.229zm-44.838-20.879c-2.064 1.007-3.226 2.074-3.11 2.857.085.57 1.177 3.642 14.417 8.129 8.274 2.804 17.124 4.746 21.054 5.368 5.858.926 12.241 1.167 18.976.712 26.402-1.691 51.462-15.741 67.04-37.586l.042-.057c9.674-12.499 16.629-36.229 4.526-48.275h-.001c-1.931-1.923-4.288-3.301-6.814-3.986-12.52-3.392-25.435 7.609-31.726 20.226a671.743 671.743 0 0 0-2.316 4.446c-5.945 11.475-12.091 23.341-22.833 31.531-13.195 10.745-30.191 16.523-46.661 15.84-.537-.022-1.087-.05-1.646-.078-3.683-.186-7.855-.395-10.948.873z" fill="#7d271d"/><path d="M346.968 379.331a1.794 1.794 0 0 1-1.641-1.066c-3.119-7.014-3.581-15.69-1.267-23.804a1.8 1.8 0 0 1 2.219-1.234 1.796 1.796 0 0 1 1.234 2.219c-2.087 7.318-1.688 15.104 1.095 21.361a1.795 1.795 0 0 1-1.64 2.524zM435.74 340.266h-.021c-11.345-.127-22.238-3.565-31.499-9.942a2.197 2.197 0 0 1-.109-.081c-6.601-5.324-10.535-10.729-12.024-16.523a1.795 1.795 0 0 1 3.477-.893c1.286 5.003 4.802 9.772 10.748 14.579 8.66 5.947 18.841 9.152 29.448 9.27a1.796 1.796 0 0 1-.02 3.59zM416.704 360.521c-.103 0-.207-.009-.312-.028-16.228-2.845-29.898-14.208-34.828-28.949a1.795 1.795 0 1 1 3.405-1.139c4.448 13.302 17.325 23.972 32.043 26.552a1.794 1.794 0 0 1-.308 3.564zM366.345 380.061a1.79 1.79 0 0 1-1.382-.648c-6.578-7.919-9.408-19.295-7.383-29.689a1.795 1.795 0 1 1 3.524.686c-1.824 9.363.713 19.597 6.621 26.709a1.795 1.795 0 0 1-1.38 2.942zM397.376 372.241c-.148 0-.299-.019-.45-.058-5.892-1.523-11.038-4.456-14.882-8.48l-.042-.045c-4.382-4.917-9.805-12.744-10.758-22.112a1.796 1.796 0 0 1 3.572-.364c.854 8.397 5.82 15.542 9.845 20.064 3.427 3.579 7.855 6.09 13.163 7.462a1.795 1.795 0 0 1-.448 3.533zM439.851 319.796c-7.136 0-14.45-1.128-20.651-3.228-9.535-3.23-16.295-8.634-19.551-15.629a1.793 1.793 0 1 1 3.254-1.514c6.083 13.067 25.751 17.778 41.452 16.619.976-.083 1.85.669 1.922 1.658a1.795 1.795 0 0 1-1.658 1.922c-1.57.114-3.165.172-4.768.172z" fill="#7d271d"/><path d="M358.698 278.336c2.867 14.296-18.281 49.271-32.822 48.208-14.355-1.05-25.129-51.797-25.129-51.797l35.899-10.77s20.759 7.909 22.052 14.359z" fill="#a63c30"/><path d="M326.547 328.363c-.267 0-.535-.01-.802-.03-6.827-.499-13.209-9.491-19.511-27.489-4.474-12.779-7.216-25.597-7.243-25.725a1.795 1.795 0 0 1 1.24-2.092l35.899-10.77a1.793 1.793 0 0 1 1.155.042c3.621 1.38 21.755 8.621 23.173 15.684 2.048 10.212-6.913 28.79-16.568 39.733-4.339 4.918-10.8 10.647-17.343 10.647zm-23.694-52.375c4.261 19.168 13.943 48.091 23.154 48.766 4.167.301 9.565-3.038 15.191-9.413 10.023-11.36 17.378-28.487 15.741-36.652-.74-3.69-12.16-9.619-20.365-12.817z" fill="#7d271d"/><g><path d="M159.108 244.872c.907-2.899 1.79-6.793 2.092-9.815s-.046-6.189-1.532-8.839c-1.486-2.649-4.236-4.692-7.271-4.819s-6.161 1.977-6.728 4.962c-1.054-3.15-3.826-5.715-7.092-6.324-3.265-.61-6.874.867-8.615 3.696s-1.367 6.846.999 9.177c-2.319-1.217-5.371-.656-7.273 1.145s-2.718 4.675-2.102 7.22c1.874 7.733 7.83 10.062 11.188 12.378 2.385 9.958 34.631 58.532 71.043 58.019 10.528-.148 18.614-36.363 8.206-37.951-30.257-4.616-52.915-28.849-52.915-28.849z" fill="#a63c30"/><path d="M203.237 313.47c-36.969.001-68.442-47.464-72.007-58.69-.389-.25-.812-.51-1.252-.779-3.544-2.168-8.398-5.137-10.135-12.305-.775-3.199.25-6.71 2.612-8.946 1.38-1.306 3.2-2.074 5.044-2.24-.776-2.521-.497-5.392.936-7.719 2.104-3.42 6.413-5.28 10.473-4.52 2.665.497 5.076 2.062 6.736 4.252a8.654 8.654 0 0 1 6.83-2.918c3.503.147 6.86 2.345 8.761 5.735 1.522 2.714 2.128 6.136 1.752 9.895-.26 2.601-.97 6.081-1.854 9.138 4.046 4.03 24.817 23.555 51.162 27.574 4.576.698 6.862 6.011 6.273 14.578-.752 10.938-6.428 26.825-14.724 26.942a61.41 61.41 0 0 1-.607.003zm-74.993-79.411c-1.19 0-2.429.455-3.321 1.299-1.422 1.346-2.061 3.553-1.591 5.493 1.388 5.725 5.177 8.043 8.52 10.088.691.423 1.344.822 1.943 1.235.365.252.624.629.726 1.059 2.146 8.96 33.435 56.644 68.722 56.646.184 0 .366-.001.55-.004 4.656-.066 10.409-12.196 11.193-23.599.425-6.186-.844-10.418-3.233-10.782-30.523-4.656-53.014-28.389-53.957-29.397a1.796 1.796 0 0 1-.402-1.762c.96-3.067 1.752-6.78 2.02-9.458.21-2.107.154-5.169-1.312-7.782-1.278-2.278-3.546-3.81-5.781-3.904-2.259-.106-4.51 1.509-4.889 3.503a1.795 1.795 0 0 1-3.466.234c-.867-2.591-3.165-4.653-5.719-5.13-2.594-.483-5.434.724-6.757 2.872-1.34 2.178-1.019 5.234.73 6.958a1.794 1.794 0 0 1-2.095 2.867 4.083 4.083 0 0 0-1.881-.436z" fill="#7d271d"/><ellipse cx="143.148" cy="240.911" fill="#e36254" rx="8.293" ry="6.896" transform="rotate(-13.59 143.106 240.394)"/></g><g><path d="M188.724 369.205c4.869 29.448 10.63 75.015 10.63 75.015s-21.474 12.046-17.284 18.331 37.015 7.333 42.6 0 18.156-70.184 18.156-70.184z" fill="#a63c30"/><path d="M203.946 469.461c-.854 0-1.7-.014-2.532-.04-4.055-.128-17.541-.929-20.838-5.874-.807-1.211-1.04-2.658-.673-4.186 1.506-6.268 13.609-13.807 17.518-16.1-.942-7.364-6.097-47.32-10.469-73.763a1.794 1.794 0 0 1 2.477-1.943l54.102 23.163a1.795 1.795 0 0 1 1.053 2.002c-1.295 6.475-12.815 63.472-18.488 70.919-3.283 4.313-13.168 5.822-22.15 5.822zm-12.924-97.32c4.702 29.152 10.057 71.414 10.113 71.854a1.794 1.794 0 0 1-.903 1.791c-5.978 3.355-15.835 10.236-16.838 14.414-.172.718 0 1.102.169 1.356 1.225 1.837 7.938 3.962 17.964 4.277 10.4.328 19.537-1.51 21.715-4.369 3.84-5.041 12.471-42.886 17.537-68.019z" fill="#7d271d"/></g><g><path d="M334.848 369.205c-4.869 29.448-10.63 75.015-10.63 75.015s21.474 12.046 17.284 18.331-37.015 7.333-42.6 0c-5.586-7.333-18.156-70.184-18.156-70.184z" fill="#a63c30"/><path d="M319.626 469.461c-8.983 0-18.867-1.509-22.152-5.822-5.673-7.447-17.193-64.444-18.488-70.919a1.794 1.794 0 0 1 1.053-2.002l54.102-23.163a1.794 1.794 0 0 1 2.477 1.943c-4.372 26.443-9.528 66.399-10.469 73.763 3.909 2.293 16.012 9.832 17.518 16.1.367 1.528.135 2.976-.673 4.186-3.297 4.945-16.781 5.746-20.835 5.874-.831.026-1.679.04-2.533.04zm-36.833-76.017c5.065 25.133 13.696 62.978 17.536 68.019 2.178 2.859 11.313 4.698 21.717 4.369 10.026-.316 16.737-2.44 17.962-4.277.169-.254.342-.637.169-1.356-1.003-4.178-10.86-11.059-16.838-14.414a1.795 1.795 0 0 1-.902-1.791c.056-.439 5.411-42.701 10.113-71.854z" fill="#7d271d"/></g><path d="M334.518 372.986c-10.006 27.237-52.803 34.571-73.194 34.571s-61.449-7.334-71.455-34.571c-8.518-23.17 6.98-62.649 22.37-99.077 2.698-6.385 5.395-12.672 7.954-18.765h83.999c2.918 6.944 6.01 14.144 9.082 21.447 15.008 35.669 29.552 73.789 21.244 96.395z" fill="#e36254"/><path d="M313.276 276.592c-33.94 23.052-81.368 13.072-101.036-2.682 2.698-6.385 5.395-12.672 7.954-18.765h83.999c2.919 6.943 6.011 14.144 9.083 21.447z" fill="#a63c30"/><g><path d="M261.325 409.353c-20.756 0-62.753-7.471-73.14-35.747-8.593-23.374 6.354-62.413 22.402-100.395a3442.17 3442.17 0 0 1 3.459-8.151c1.526-3.588 3.033-7.131 4.494-10.61.28-.666.932-1.1 1.655-1.1h83.999c.723 0 1.375.433 1.655 1.099 1.471 3.501 2.987 7.067 4.522 10.679 1.509 3.552 3.037 7.147 4.561 10.768 15.442 36.706 29.803 74.489 21.272 97.71-4.535 12.345-16.215 22.224-33.777 28.569-14.651 5.292-30.838 7.178-41.102 7.178zm-39.938-152.414c-1.318 3.13-2.671 6.309-4.038 9.525-1.144 2.691-2.3 5.408-3.456 8.143-15.768 37.321-30.481 75.612-22.339 97.759 5.267 14.339 19.643 22.291 30.775 26.437 17.337 6.457 34.231 6.959 38.995 6.959 23.813 0 62.508-8.894 71.509-33.395 8.083-21.995-6.711-60.611-21.212-95.079a2966.527 2966.527 0 0 0-4.556-10.756c-1.376-3.239-2.737-6.441-4.064-9.592h-81.614z" fill="#7d271d"/></g><g><path d="M230.174 82.46c-11.877-12.094-18.855-17.367-32.205-28.189-7.325-5.938-15.986-12.743-26.371-13.029-4.376-.121-7.878 3.399-4.191 7.064 1.508 1.499 3.707 2.25 5.815 2.947-3.261-.141-5.407.065-8.497.955-3.09.889-5.958 2.553-7.742 4.968-.943 1.276-1.554 2.986-.69 4.333.679 1.058 2.115 1.583 3.469 1.604s2.659-.378 3.932-.772c-11.783 26.02-9.385 75.976 3.068 90.431z" fill="#ffe8db"/><path d="M166.764 154.566a1.79 1.79 0 0 1-1.361-.624c-12.742-14.791-14.954-62.277-4.704-89.074a9.002 9.002 0 0 1-.963.039c-2.115-.032-4.013-.964-4.953-2.43-1.148-1.791-.866-4.171.757-6.368 1.892-2.56 4.978-4.558 8.689-5.626.802-.231 1.547-.42 2.269-.571a8.534 8.534 0 0 1-.355-.333c-1.951-1.94-2.566-4.228-1.688-6.277 1.028-2.395 3.928-3.933 7.193-3.854 11.269.311 20.622 7.892 27.451 13.429 1.661 1.347 3.224 2.607 4.709 3.806 10.343 8.345 17.175 13.857 27.646 24.52a1.794 1.794 0 1 1-2.561 2.515c-10.326-10.514-16.729-15.681-27.339-24.241-1.487-1.2-3.052-2.463-4.716-3.811-6.431-5.213-15.237-12.352-25.29-12.629-1.96-.069-3.428.825-3.795 1.68-.349.813.308 1.708.92 2.316 1.244 1.237 3.299 1.917 5.113 2.516a1.795 1.795 0 0 1 1.202 2.028 1.803 1.803 0 0 1-1.843 1.47c-3.188-.138-5.113.078-7.924.887-2.957.851-5.37 2.382-6.795 4.31-.517.7-.991 1.722-.622 2.297.281.438 1.116.765 1.985.778 1.077.015 2.249-.344 3.374-.692a1.795 1.795 0 0 1 2.166 2.455c-5.359 11.834-8.123 30.055-7.396 48.742.703 18.056 4.607 33.298 10.188 39.777a1.794 1.794 0 0 1-1.357 2.965z" fill="#e0a58f"/><path d="M371.308 240.419c-8.57 5.923-18.986 11.088-30.084 15.411-6.651 2.59-13.549 4.882-20.437 6.857a260.847 260.847 0 0 1-11.232 2.949c-18.391 4.39-35.72 6.416-47.028 5.764-17.857 1.026-50.726-4.611-79.061-15.714a184.363 184.363 0 0 1-11.447-4.918c-7-3.303-13.503-6.964-19.16-10.97-5.221-3.703-9.719-7.698-13.211-11.965-3.005-3.662-5.267-7.529-6.621-11.585-1.251-3.734-1.723-7.636-1.282-11.688.477-4.39 4.267-14.175 9.775-26.35 14.821-32.786 42.048-82.912 50.31-91.697 11.329-12.047 38.643-16.237 70.696-16.237s63.111 4.19 74.44 16.237 54.582 101.841 56.336 118.047c1.504 13.874-7.655 25.941-21.994 35.859z" fill="#e36254"/><path d="M309.556 265.636c-18.391 4.39-35.72 6.416-47.028 5.764-17.857 1.026-50.726-4.611-79.061-15.714a184.363 184.363 0 0 1-11.447-4.918c-7-3.303-13.503-6.964-19.16-10.97 6.713-32.15 38.945-56.521 77.691-56.521 43.618 0 78.978 30.884 78.978 68.978.001.909.037 8.971.027 13.381z" fill="#ffe8db"/><path d="M296.623 168.479c0 12.508-10.134 22.642-22.637 22.642-1.251 0-2.482-.102-3.682-.297-7.708-1.262-14.109-6.411-17.114-13.375a22.551 22.551 0 0 1-1.846-8.97c0-12.503 10.134-22.637 22.642-22.637 12.504 0 22.637 10.134 22.637 22.637z" fill="#fff"/><path d="M273.986 192.917a24.94 24.94 0 0 1-3.97-.32c-8.251-1.351-15.156-6.747-18.474-14.436a24.274 24.274 0 0 1-1.993-9.681c0-13.472 10.962-24.432 24.437-24.432 13.472 0 24.432 10.96 24.432 24.432.001 13.474-10.96 24.437-24.432 24.437zm0-45.28c-11.495 0-20.847 9.35-20.847 20.842 0 2.871.571 5.649 1.699 8.258 2.831 6.561 8.721 11.164 15.756 12.316a21.2 21.2 0 0 0 3.392.274c11.492 0 20.842-9.352 20.842-20.848.001-11.492-9.349-20.842-20.842-20.842z"/><path d="M280.315 177.731c0 6.262-4.246 11.534-10.011 13.093-7.708-1.262-14.109-6.411-17.114-13.375.149-7.365 6.159-13.283 13.56-13.283 3.303 0 6.334 1.185 8.682 3.144-.2.108-.395.226-.59.349-3.482 2.21-5.185 5.78-3.795 7.975 1.39 2.19 5.344 2.18 8.831-.031.082-.051.164-.103.241-.159.129.743.196 1.508.196 2.287z"/><path d="M209.07 168.479a24.44 24.44 0 0 1-1.226 7.693c-2.477 7.523-8.493 13.19-15.842 14.606a19.016 19.016 0 0 1-3.605.344c-11.416 0-20.668-10.134-20.668-22.642 0-12.503 9.252-22.637 20.668-22.637s20.673 10.133 20.673 22.636z" fill="#fff"/><path d="M188.397 192.917c-12.386 0-22.463-10.963-22.463-24.437 0-13.472 10.077-24.432 22.463-24.432 12.388 0 22.468 10.96 22.468 24.432 0 2.841-.443 5.619-1.317 8.257-2.708 8.224-9.301 14.281-17.206 15.804a21.02 21.02 0 0 1-3.945.376zm0-45.28c-10.406 0-18.873 9.35-18.873 20.842 0 11.495 8.467 20.848 18.873 20.848 1.091 0 2.191-.105 3.267-.312 6.626-1.277 12.173-6.413 14.475-13.405a22.625 22.625 0 0 0 1.135-7.131c.001-11.492-8.467-20.842-18.877-20.842z"/><path d="M207.844 176.172c-2.477 7.523-8.493 13.19-15.842 14.606-5.688-1.61-9.852-6.841-9.852-13.047 0-7.493 6.072-13.565 13.565-13.565 3.303 0 6.334 1.185 8.682 3.144-.2.108-.395.226-.59.349-3.487 2.21-5.185 5.78-3.795 7.975 1.258 1.984 4.622 2.164 7.832.538zM219.424 188.367h20.942c2.549 0 3.937 2.976 2.299 4.929l-9.931 11.839a3.948 3.948 0 0 1-6.096-.057l-9.549-11.826c-1.584-1.961-.187-4.885 2.335-4.885z"/><path d="M211.516 117.177c.922 3.803-4.091 8.283-11.197 10.005-7.106 1.723-13.614.036-14.536-3.767s4.091-8.283 11.197-10.005c7.106-1.723 13.614-.037 14.536 3.767z" fill="#ffe8db"/><path d="M194.91 129.65c-5.608.001-9.987-2.167-10.87-5.812-1.173-4.84 4.326-10.186 12.518-12.173 3.719-.902 7.434-.967 10.46-.182 3.417.885 5.634 2.758 6.243 5.271 1.174 4.84-4.326 10.186-12.519 12.173-2.023.49-3.994.723-5.832.723zm7.533-15.117c-1.611 0-3.335.208-5.039.621-6.366 1.543-10.464 5.411-9.875 7.838s6.003 3.989 12.368 2.446c6.366-1.544 10.464-5.411 9.875-7.839-.279-1.148-1.61-2.111-3.655-2.641-1.097-.284-2.347-.425-3.674-.425z" fill="#e0a58f"/><path d="M272.465 127.823c-1.467 3.628-8.151 4.347-14.93 1.606s-11.084-7.904-9.617-11.532 8.151-4.347 14.93-1.606 11.084 7.904 9.617 11.532z" fill="#ffe8db"/><path d="M265.458 132.889c-2.696 0-5.685-.62-8.596-1.796-3.547-1.435-6.604-3.547-8.606-5.948-2.261-2.711-2.972-5.524-2.002-7.921.969-2.397 3.436-3.925 6.945-4.303 3.111-.336 6.774.272 10.322 1.706 7.815 3.16 12.475 9.252 10.609 13.869-.97 2.398-3.436 3.926-6.945 4.303-.559.06-1.136.09-1.727.09zm-10.554-16.467c-.456 0-.898.022-1.321.068-2.099.226-3.558.984-4.001 2.079-.443 1.096.078 2.654 1.431 4.276 1.607 1.927 4.229 3.72 7.195 4.919 2.965 1.2 6.096 1.735 8.592 1.465 2.099-.225 3.558-.984 4.001-2.079.936-2.316-2.554-6.74-8.626-9.195-2.462-.995-5.039-1.533-7.271-1.533z" fill="#e0a58f"/><path d="M147.291 191.217c-4.298 11.755-6.862 24.13-7.641 36.617-3.005-3.662-5.267-7.529-6.621-11.585-1.251-3.734-1.723-7.636-1.282-11.688.477-4.39 4.267-14.175 9.775-26.35 2.374.026 4.846.795 6.216 2.713 2.086 2.913.784 6.929-.447 10.293zM371.308 240.419c-8.57 5.923-18.986 11.088-30.084 15.411-6.651 2.59-13.549 4.882-20.437 6.857 3.313-23.647-.087-53.341-6.713-71.47-1.231-3.364-2.533-7.38-.446-10.293 1.508-2.113 4.364-2.836 6.954-2.703 6.298.328 11.632 4.616 16.175 8.985 8.657 8.319 27.243 28.371 34.551 53.213z" fill="#ffe8db"/><g><path d="M258.231 273.311c-17.932 0-47.971-5.197-75.419-15.952a187.839 187.839 0 0 1-11.558-4.966c-21.792-10.27-35.599-22.572-39.928-35.576-1.362-4.062-1.821-8.251-1.364-12.449 1.79-16.543 48.874-106.654 60.562-119.082 10.485-11.149 34.71-16.802 72.004-16.802 22.388 0 61.999 2.183 75.747 16.802 12.061 12.825 55.07 102.972 56.813 119.083 2.171 20.049-16.727 38.919-53.212 53.135v.001c-29.686 11.564-62.352 16.642-79.348 15.695a79.171 79.171 0 0 1-4.297.111zm4.297-201.238c-36.263 0-59.609 5.273-69.389 15.671-11.086 11.789-57.922 101.432-59.608 117.011-.401 3.68.003 7.354 1.199 10.924 4.013 12.053 17.172 23.625 38.055 33.466a183.61 183.61 0 0 0 11.336 4.871c29.356 11.503 61.613 16.545 78.303 15.593.069-.005.137-.005.206 0 16.581.949 48.675-4.05 77.942-15.451 20.174-7.86 53.618-24.73 50.947-49.403-1.646-15.212-44.455-104.884-55.86-117.011-9.503-10.106-35.475-15.671-73.131-15.671zm78.696 183.758h.005z" fill="#a63c30"/></g><g><path d="M362.798 148.148c11.283-15.385 9.763-65.375-4.021-90.393 1.3.293 2.632.589 3.98.462s2.739-.763 3.333-1.871c.756-1.41.013-3.067-1.027-4.265-1.968-2.267-4.957-3.702-8.108-4.347-3.15-.645-5.306-.682-8.546-.287 2.048-.86 4.181-1.781 5.567-3.394 3.389-3.943-.377-7.178-4.731-6.715-10.331 1.098-18.432 8.561-25.27 15.054-12.462 11.834-19.005 17.637-29.899 30.624-9.932 20.002 54.687 74.876 68.722 65.132z" fill="#ffe8db"/><path d="M358.455 151.104c-9.894 0-25.687-10.448-37.757-20.873-16.81-14.521-34.29-35.808-28.229-48.012.063-.127.141-.246.232-.355 9.604-11.45 15.985-17.481 25.644-26.611 1.386-1.311 2.845-2.689 4.395-4.161 6.375-6.054 15.107-14.345 26.316-15.537 3.26-.344 6.261.972 7.473 3.28 1.036 1.974.602 4.303-1.191 6.39a7.997 7.997 0 0 1-.328.36 32.22 32.22 0 0 1 2.306.392c3.784.774 7.017 2.525 9.104 4.929 1.79 2.062 2.258 4.413 1.253 6.289-.823 1.535-2.642 2.612-4.747 2.81-.326.031-.647.04-.964.038 12.316 25.912 13.829 73.425 2.284 89.168-.117.16-.26.3-.424.413-1.469 1.018-3.288 1.48-5.367 1.48zm4.343-2.956h.005zm-67.201-64.151c-3.855 8.347 7.379 26.182 27.447 43.516 16.603 14.342 33.014 22.551 38.494 19.311 4.936-7.021 7.56-22.359 6.855-40.19-.737-18.687-4.92-36.635-11.189-48.013a1.796 1.796 0 0 1 1.966-2.618c1.149.258 2.334.527 3.418.426.866-.082 1.673-.473 1.919-.932.322-.601-.229-1.583-.8-2.24-1.572-1.811-4.097-3.148-7.112-3.765-2.865-.586-4.8-.65-7.969-.263-.885.099-1.722-.455-1.952-1.321s.214-1.768 1.04-2.116c1.761-.74 3.758-1.579 4.901-2.909.562-.654 1.146-1.598.735-2.381-.433-.823-1.954-1.587-3.915-1.378-9.999 1.063-18.221 8.87-24.223 14.57-1.552 1.474-3.013 2.854-4.401 4.167-9.857 9.317-15.827 14.96-25.214 26.136z" fill="#e0a58f"/></g><g><path d="M336.927 64.554c-10.301-4.948-30.267 21.316-32.782 27.181s32.267 41.546 38.976 37.951c6.71-3.596 2.903-60.762-6.194-65.132z" fill="#a63c30"/><path d="M342.056 131.707c-3.786 0-10.013-3.952-18.569-11.794-5.57-5.105-11.076-10.977-15.109-16.109-6.514-8.292-6.566-11.183-5.883-12.777 1.946-4.54 15.697-23.683 27.238-28.013 3.03-1.137 5.711-1.163 7.97-.079 7.955 3.822 10.335 33.53 10.58 44.655.309 14.011-1.142 21.977-4.315 23.677-.546.294-1.184.44-1.912.44zm-36.245-39.302c-.112.809 1.308 4.772 9.179 13.721 6.071 6.902 13.4 13.782 19.127 17.956 6.456 4.704 8.142 4.03 8.157 4.021 1.408-.876 3.09-9.656 2.218-25.716-1.109-20.427-5.193-34.703-8.342-36.215-1.342-.646-3.077-.577-5.154.203-9.754 3.66-23.081 21.192-25.185 26.03z" fill="#7d271d"/></g><g><path d="M246.503 216.9a80.142 80.142 0 0 0-5.134-1.92 82.465 82.465 0 0 0-24.704-4.272 79.64 79.64 0 0 0-11.057.554c-3.4.41-6.775 1.036-10.098 1.892 2.726 9.723 6.998 19.354 14.62 25.709 7.397-12.351 22.047-19.009 36.373-21.963z" fill="#821629"/><path d="M210.131 240.658c-.417 0-.824-.145-1.149-.416-6.798-5.668-11.769-14.37-15.199-26.603a1.797 1.797 0 0 1 1.281-2.223 79.915 79.915 0 0 1 10.33-1.936 81.122 81.122 0 0 1 11.307-.566 83.964 83.964 0 0 1 30.488 6.328 1.794 1.794 0 0 1-.323 3.416c-9.605 1.981-26.95 7.36-35.195 21.127a1.792 1.792 0 0 1-1.54.873zm-12.373-26.206c2.913 9.641 6.856 16.764 11.999 21.672 6.13-8.935 16.803-15.75 30.606-19.589a80.373 80.373 0 0 0-23.73-4.034 78.29 78.29 0 0 0-10.81.541 77.08 77.08 0 0 0-8.065 1.41z"/><path d="M251.298 219.066a79.903 79.903 0 0 0-4.795-2.167c-14.326 2.955-28.975 9.613-36.372 21.963a30.741 30.741 0 0 0 2.863 2.138c8.19 5.349 18.857 6.703 28.125 3.564 9.262-3.139 16.211-10.883 19.463-20.109a77.924 77.924 0 0 0-9.284-5.389z" fill="#f22a4e"/><path d="M230.911 248.006c-6.663.001-13.359-1.884-18.899-5.502a32.392 32.392 0 0 1-3.031-2.263 1.794 1.794 0 0 1-.39-2.3c6.633-11.076 19.968-19.173 37.55-22.799a1.8 1.8 0 0 1 1.048.099 81.421 81.421 0 0 1 4.902 2.215 79.541 79.541 0 0 1 9.498 5.516c.675.458.956 1.313.685 2.082-3.568 10.125-11.261 18.054-20.58 21.212-3.451 1.168-7.113 1.74-10.783 1.74zm-18.403-9.544c.497.377.984.72 1.468 1.037 7.69 5.022 17.87 6.312 26.566 3.366 7.883-2.671 14.476-9.236 17.856-17.703a76.324 76.324 0 0 0-7.893-4.485h-.001a78.318 78.318 0 0 0-4.178-1.906c-9.38 2-25.448 7.142-33.818 19.691z"/><g><path d="M251.298 219.066c-1.482 2.149-3.313 3.939-5.359 5.21-.933.58-2.062 1.056-2.99.462-1.098-.708-1.323-2.498-1.395-4.026a179.483 179.483 0 0 1-.185-5.734 80.372 80.372 0 0 1 9.929 4.088z" fill="#fff"/><path d="M243.882 226.81a3.446 3.446 0 0 1-1.901-.561c-1.794-1.156-2.128-3.521-2.22-5.452-.093-1.92-.155-3.869-.186-5.79a1.795 1.795 0 0 1 2.365-1.73 81.993 81.993 0 0 1 10.151 4.179 1.792 1.792 0 0 1 .685 2.629c-1.623 2.353-3.659 4.33-5.889 5.716-1.084.672-2.089 1.009-3.005 1.009zm-.658-9.271c.032 1.031.073 2.062.122 3.087.104 2.209.516 2.564.573 2.603-.003-.01.298.004 1.073-.477 1.263-.785 2.456-1.812 3.518-3.023a78.326 78.326 0 0 0-5.286-2.19z"/></g><g><path d="M216.665 210.707a27.374 27.374 0 0 1-1.739 5.846c-.39.923-.846 1.846-1.569 2.544-.723.697-1.759 1.138-2.739.918-1.41-.313-2.2-1.79-2.775-3.118a100.17 100.17 0 0 1-2.236-5.636 79.663 79.663 0 0 1 11.058-.554z" fill="#fff"/><path d="M211.144 221.868c-.309 0-.617-.034-.919-.101-2.467-.548-3.561-3.077-4.028-4.157a102.307 102.307 0 0 1-2.277-5.739 1.794 1.794 0 0 1 1.474-2.391 81.138 81.138 0 0 1 11.306-.566 1.795 1.795 0 0 1 1.732 2.111 29.192 29.192 0 0 1-1.853 6.23c-.433 1.025-1.006 2.2-1.976 3.135-.993.956-2.236 1.478-3.459 1.478zm-3.04-9.065c.435 1.117.899 2.249 1.388 3.384.205.475.833 1.925 1.516 2.076.301.069.753-.121 1.104-.458.501-.484.855-1.223 1.161-1.95.464-1.094.85-2.22 1.157-3.366-2.111.02-4.227.125-6.326.314z"/></g></g></g><g><path d="M139.634 243.897a1.794 1.794 0 0 1-.315-3.562 217.923 217.923 0 0 1 51.171-3.042 1.795 1.795 0 0 1-.212 3.584 214.417 214.417 0 0 0-50.327 2.992 1.886 1.886 0 0 1-.317.028zM316.478 267.671c-.357 0-.716-.106-1.03-.326a122.385 122.385 0 0 1-30.721-31.074 1.794 1.794 0 1 1 2.961-2.029 118.797 118.797 0 0 0 29.824 30.165 1.795 1.795 0 0 1-1.034 3.264zM150.774 209.717c-.369 0-.741-.113-1.061-.348-24.629-18.086-44.396-43.689-55.661-72.093a1.796 1.796 0 0 1 3.337-1.323c11.019 27.785 30.356 52.831 54.448 70.522a1.796 1.796 0 0 1-1.063 3.242z" fill="#1c5c2a"/><path d="M114.589 190.002a951.326 951.326 0 0 1-18.044-9.101c6.399 14.409 15.436 27.514 25.871 39.42a2944.75 2944.75 0 0 1 31.088 9.903c-14.648-11.714-27.903-25.11-38.915-40.222z" fill="#3b8a4c"/><path d="M153.504 232.019c-.184 0-.371-.028-.554-.088a2917.891 2917.891 0 0 0-31.069-9.896 1.8 1.8 0 0 1-.815-.53c-11.369-12.971-20.171-26.387-26.161-39.874a1.795 1.795 0 0 1 2.466-2.322 954.856 954.856 0 0 0 18.01 9.083c.261.129.488.318.659.554 10.454 14.346 23.436 27.762 38.585 39.877a1.794 1.794 0 0 1-1.121 3.196zm-30.07-13.26a2935.4 2935.4 0 0 1 21.783 6.903c-12.24-10.604-22.916-22.092-31.817-34.245a977.67 977.67 0 0 1-12.993-6.512c5.658 11.434 13.387 22.799 23.027 33.854z" fill="#1c5c2a"/><path d="M114.589 190.002c11.012 15.112 24.267 28.508 38.915 40.222a2944.253 2944.253 0 0 1 67.097 22.68c-10.752-10.238-21.92-20.356-33.31-30.853a963.301 963.301 0 0 1-72.702-32.049z" fill="#30753e"/><path d="M220.601 254.7a1.78 1.78 0 0 1-.594-.102 2950.104 2950.104 0 0 0-67.056-22.666 1.8 1.8 0 0 1-.567-.305c-15.399-12.314-28.602-25.963-39.245-40.567a1.796 1.796 0 0 1 2.243-2.668 965.94 965.94 0 0 0 72.566 31.99c.207.081.397.2.561.351 2.922 2.693 5.83 5.361 8.719 8.012 8.541 7.837 16.608 15.239 24.613 22.861.613.583.735 1.516.294 2.238a1.806 1.806 0 0 1-1.534.856zm-66.231-26.082a2955.114 2955.114 0 0 1 58.877 19.812c-5.997-5.617-12.091-11.208-18.448-17.041-2.81-2.579-5.637-5.173-8.478-7.79a971.509 971.509 0 0 1-65.749-28.691c9.533 12.031 20.873 23.345 33.798 33.71z" fill="#1c5c2a"/><path d="M187.291 222.052c11.391 10.496 22.558 20.615 33.31 30.853a2940.481 2940.481 0 0 1 38.634 13.879c-11.237-11.708-23.463-22.403-36.651-31.665a970.208 970.208 0 0 1-35.293-13.067z" fill="#3b8a4c"/><path d="M259.234 268.578a1.78 1.78 0 0 1-.618-.11 2980.427 2980.427 0 0 0-38.61-13.87 1.792 1.792 0 0 1-.643-.393c-7.981-7.6-16.036-14.991-24.564-22.816-2.891-2.653-5.801-5.323-8.725-8.017a1.796 1.796 0 0 1 1.873-2.991 973.966 973.966 0 0 0 35.228 13.043c.157.055.306.131.441.226 12.837 9.015 25.256 19.745 36.915 31.891a1.795 1.795 0 0 1-1.297 3.037zm-37.674-17.239a2979.567 2979.567 0 0 1 30.766 11.007c-9.776-9.601-20.032-18.197-30.57-25.615a983.377 983.377 0 0 1-26.271-9.584l1.74 1.597c8.442 7.745 16.422 15.067 24.335 22.595z" fill="#1c5c2a"/><path d="M222.584 235.118c13.188 9.263 25.414 19.957 36.651 31.665a2937.159 2937.159 0 0 1 77.206 29.592c-11.922-14.105-24.614-27.173-38.713-38.444a967.977 967.977 0 0 1-75.144-22.813z" fill="#30753e"/><path d="M336.44 298.17c-.223 0-.449-.042-.665-.128a2947.208 2947.208 0 0 0-77.159-29.574 1.804 1.804 0 0 1-.677-.442c-11.497-11.979-23.74-22.556-36.388-31.439a1.794 1.794 0 0 1 1.623-3.164 971.106 971.106 0 0 0 75.004 22.771c.244.064.472.178.67.335 12.994 10.388 25.74 23.042 38.963 38.687a1.796 1.796 0 0 1-1.371 2.954zm-76.198-32.929a2946.959 2946.959 0 0 1 70.06 26.76c-11.279-12.835-22.254-23.488-33.398-32.428a975.341 975.341 0 0 1-63.97-19.02c9.431 7.352 18.583 15.624 27.308 24.688z" fill="#1c5c2a"/><path d="M297.728 257.931c14.1 11.271 26.792 24.34 38.713 38.444a2984.754 2984.754 0 0 1 29.076 11.787c-13.075-15.988-27.682-30.746-43.28-44.206a962.103 962.103 0 0 1-24.509-6.025z" fill="#3b8a4c"/><path d="M365.516 309.957a1.8 1.8 0 0 1-.683-.135 3006.888 3006.888 0 0 0-29.058-11.78 1.801 1.801 0 0 1-.705-.508c-13.072-15.466-25.653-27.961-38.464-38.201a1.795 1.795 0 0 1 1.572-3.14 971.905 971.905 0 0 0 24.463 6.014c.283.066.547.199.767.39 16.151 13.936 30.785 28.884 43.497 44.428a1.795 1.795 0 0 1-1.389 2.932zm-27.994-15.082c7.409 2.96 14.767 5.934 21.961 8.873-11.37-13.289-24.153-26.095-38.084-38.143a979.775 979.775 0 0 1-16.385-3.961c10.787 9.279 21.484 20.217 32.508 33.231z" fill="#1c5c2a"/><path d="M399.474 278.58a957.717 957.717 0 0 1-77.238-14.623c15.599 13.46 30.205 28.218 43.28 44.206 3.028 1.246 6.055 2.498 9.079 3.755z" fill="#30753e"/><path d="M374.595 313.713c-.231 0-.465-.045-.689-.138a2661.071 2661.071 0 0 0-9.073-3.753 1.792 1.792 0 0 1-.706-.523c-12.581-15.385-27.07-30.183-43.063-43.984-.626-.539-.802-1.435-.428-2.172s1.203-1.124 2.006-.936a959.817 959.817 0 0 0 77.093 14.596 1.795 1.795 0 0 1 1.178 2.849l-24.879 33.339a1.796 1.796 0 0 1-1.439.722zm-7.977-7.038c2.46 1.012 4.918 2.028 7.375 3.049l22.246-29.81a963.686 963.686 0 0 1-67.501-12.633c13.932 12.476 26.651 25.701 37.88 39.394z" fill="#1c5c2a"/><path d="M96.545 180.902a948.087 948.087 0 0 1-16.104-8.53c-14.835 1.352-18.517 22.695-10.146 32.194a2930.48 2930.48 0 0 1 52.121 15.756c-10.435-11.906-19.471-25.011-25.871-39.42z" fill="#30753e"/><path d="M122.416 222.117c-.178 0-.359-.027-.535-.082a2949.22 2949.22 0 0 0-52.089-15.747 1.794 1.794 0 0 1-.843-.536c-5.071-5.755-6.336-15.496-3.076-23.689 2.668-6.704 7.918-10.888 14.405-11.479.354-.03.707.041 1.018.209a962.997 962.997 0 0 0 16.075 8.514c.362.188.65.493.815.865 5.844 13.157 14.45 26.267 25.58 38.966a1.796 1.796 0 0 1-1.35 2.979zm-51.1-19.123a2937.927 2937.927 0 0 1 45.731 13.777c-9.289-11.304-16.635-22.904-21.884-34.564a955.51 955.51 0 0 1-15.084-7.99c-6.606.852-9.639 6.08-10.87 9.174-2.664 6.693-1.766 14.835 2.107 19.603z" fill="#1c5c2a"/><path d="M399.474 278.58c-12.696-5.581-43.704 23.697-24.879 33.338 23.021 11.788 39.162-27.06 24.879-33.338z" fill="#3f9e53"/><path d="M383.202 315.946c-2.841 0-6.002-.678-9.425-2.431-6.867-3.517-8.715-9.932-5.07-17.599 2.621-5.515 7.882-11.193 14.071-15.188 6.705-4.328 13.053-5.71 17.419-3.792 3.681 1.618 5.947 5.165 6.381 9.987.812 9.02-4.722 20.249-12.598 25.564-2.668 1.799-6.333 3.459-10.778 3.459zm12.665-36.269c-7.475 0-19.533 8.553-23.918 17.779-2.813 5.918-1.647 10.245 3.465 12.863 7.217 3.696 12.988 1.601 16.557-.809 7.59-5.122 11.635-15.546 11.03-22.266-.22-2.449-1.136-5.654-4.25-7.023-.843-.369-1.817-.544-2.884-.544z" fill="#1c5c2a"/><path d="M111.191 165.859c-5.141-3.044-9.901-8.445-13.25-15.035-3.35-6.591-5.267-14.326-5.338-21.538 9.696 7.693 17.173 22.185 18.588 36.573z" fill="#3f9e53"/><path d="M111.191 167.654c-.316 0-.632-.083-.914-.25-5.464-3.235-10.413-8.835-13.936-15.767-3.494-6.874-5.459-14.805-5.533-22.334a1.795 1.795 0 0 1 2.91-1.424c10.24 8.124 17.8 22.963 19.26 37.804a1.798 1.798 0 0 1-1.787 1.971zM94.66 133.547c.625 5.636 2.333 11.45 4.881 16.464 2.444 4.808 5.723 9.007 9.302 11.984-1.934-10.791-7.257-21.449-14.183-28.448z" fill="#1c5c2a"/><g><path d="M123.539 181.305c-3.909-6.124-6.801-13.73-8.161-21.461s-1.181-15.55.505-22.062c7.335 13.099 10.312 29.772 7.656 43.523z" fill="#3f9e53"/><path d="M123.539 183.1a1.797 1.797 0 0 1-1.513-.829c-4.029-6.313-7.018-14.167-8.416-22.115-1.402-7.97-1.211-16.075.535-22.823a1.794 1.794 0 0 1 1.507-1.33 1.784 1.784 0 0 1 1.796.903c7.564 13.509 10.573 30.653 7.852 44.741a1.793 1.793 0 0 1-1.761 1.453zm-6.88-39.806c-.648 5.082-.49 10.686.487 16.24 1 5.684 2.857 11.308 5.345 16.278.921-10.539-1.184-22.292-5.832-32.518z" fill="#1c5c2a"/></g><g><path d="M130.547 188.875c-.546-7.12.487-15.032 2.922-22.381s6.261-14.102 10.822-19.101c.758 14.69-4.566 31.002-13.744 41.482z" fill="#3f9e53"/><path d="M130.546 190.67a1.795 1.795 0 0 1-1.789-1.658c-.562-7.335.506-15.532 3.008-23.083 2.507-7.565 6.484-14.577 11.2-19.746a1.796 1.796 0 0 1 3.119 1.117c.787 15.237-4.782 32.02-14.186 42.757a1.796 1.796 0 0 1-1.352.613zm11.977-38.234c-3.027 4.219-5.576 9.266-7.351 14.622-1.808 5.456-2.821 11.26-2.957 16.77 6.069-8.686 9.858-20.22 10.308-31.392z" fill="#1c5c2a"/></g><g><path d="M147.711 265.521c1.171-5.278 3.773-10.621 7.36-15.112 3.586-4.491 8.142-8.112 12.884-10.24-2.709 10.773-10.605 20.768-20.244 25.352z" fill="#3f9e53"/><path d="M147.712 267.316a1.796 1.796 0 0 1-1.753-2.184c1.227-5.526 3.965-11.153 7.709-15.843 3.753-4.699 8.566-8.52 13.552-10.757a1.796 1.796 0 0 1 2.476 2.075c-2.854 11.348-11.181 21.764-21.214 26.535a1.788 1.788 0 0 1-.77.174zm17.182-23.441c-3.09 1.986-5.993 4.614-8.42 7.654a37.205 37.205 0 0 0-5.791 10.248c6.229-4.124 11.399-10.635 14.211-17.902z" fill="#1c5c2a"/></g><g><path d="M274.67 215.755c5.986 3.892 11.643 9.521 16 15.92s7.395 13.542 8.594 20.202c-12.128-8.323-21.848-22.464-24.594-36.122z" fill="#3f9e53"/><path d="M299.264 253.673c-.355 0-.71-.105-1.016-.315-12.579-8.634-22.525-23.255-25.338-37.249a1.796 1.796 0 0 1 2.739-1.859c6.166 4.01 12.027 9.839 16.505 16.415 4.485 6.588 7.638 14.009 8.877 20.895a1.796 1.796 0 0 1-1.767 2.113zm-21.599-33.525c3.211 10.097 10.069 20.116 18.668 27.262-1.511-4.968-3.971-10.059-7.147-14.723-3.235-4.753-7.228-9.084-11.521-12.539z" fill="#1c5c2a"/></g><g><path d="M310.746 224.841c2.47 5.394 3.738 11.795 3.586 18.105s-1.723 12.501-4.444 17.512c-4.765-11.222-4.5-25.208.858-35.617z" fill="#3f9e53"/><path d="M309.888 262.253c-.029 0-.058 0-.087-.002a1.795 1.795 0 0 1-1.566-1.091c-4.999-11.773-4.64-26.351.914-37.14a1.795 1.795 0 0 1 3.228.074c2.575 5.624 3.906 12.334 3.748 18.895-.158 6.573-1.814 13.081-4.661 18.325a1.79 1.79 0 0 1-1.576.939zm.757-32.695c-2.919 8.028-3.127 17.608-.561 26.158 1.491-3.926 2.346-8.346 2.454-12.813.11-4.54-.554-9.15-1.893-13.345z" fill="#1c5c2a"/></g><g><path d="M110.935 244.418c6.331-3.302 14.013-5.464 21.727-6.115s15.428.211 21.818 2.439c-13.208 6.474-30.3 7.994-43.545 3.676z" fill="#3f9e53"/><path d="M127.305 248.647c-5.938 0-11.729-.828-16.927-2.523a1.795 1.795 0 0 1-.273-3.298c6.521-3.401 14.478-5.642 22.406-6.311 7.94-.673 15.953.228 22.56 2.533a1.793 1.793 0 0 1 .199 3.306c-8.453 4.143-18.398 6.293-27.965 6.293zm-11.074-4.68c10.372 2.163 22.468 1.112 32.917-2.868-5.07-1.124-10.711-1.482-16.335-1.008-5.729.484-11.463 1.834-16.582 3.876z" fill="#1c5c2a"/></g><g><path d="M121.726 181.447c-7.511-9.004-22.261-15.527-35.497-15.699 3.116 4.819 8.217 9.484 14.669 12.401s14.189 3.707 20.828 3.298z" fill="#3f9e53"/><path d="M118.478 183.341c-4.909 0-11.879-.645-18.319-3.556-6.371-2.88-11.853-7.519-15.437-13.062a1.796 1.796 0 0 1 1.507-2.77h.023c13.82.181 28.974 6.901 36.851 16.345a1.793 1.793 0 0 1-1.268 2.941c-.95.059-2.084.102-3.357.102zM89.97 167.766c3.088 3.627 7.19 6.724 11.668 8.747 5.508 2.49 11.506 3.16 15.98 3.232-6.831-6.293-17.499-10.926-27.648-11.979z" fill="#1c5c2a"/></g><g><path d="M128.761 189.539c-11.914-3.072-25.975-1.153-37.074 5.061 11.624 4.691 26.863 2.963 37.074-5.061z" fill="#3f9e53"/><path d="M105.427 198.955c-4.975 0-9.919-.877-14.411-2.69a1.795 1.795 0 0 1-.205-3.231c11.416-6.392 26.13-8.398 38.399-5.233a1.794 1.794 0 0 1 .661 3.149c-6.654 5.228-15.596 8.005-24.444 8.005zm-9.04-4.698c9.23 2.38 19.778.937 27.86-3.812-9.11-1.406-19.202-.025-27.86 3.812z" fill="#1c5c2a"/></g></g><g><path d="M359.724 265.515c1.539 4.103.088 9.789-.775 12.701s-2.382 5.713-4.759 7.604-5.695 2.743-8.553 1.714-4.957-4.16-4.354-7.137c-2.166 2.518-5.703 3.844-8.956 3.175-3.254-.67-6.036-3.401-6.579-6.678s1.322-6.854 4.394-8.119c-2.607.25-5.22-1.423-6.301-3.809-1.08-2.386-.75-5.355.783-7.479 4.658-6.451 10.978-7.647 15.037-7.231 8.78.899 17.626 8.761 20.063 15.259z" fill="#a63c30"/><path d="M348.25 289.773a9.49 9.49 0 0 1-3.221-.55 8.673 8.673 0 0 1-5.221-5.283c-2.364 1.4-5.189 1.937-7.843 1.39-4.048-.833-7.332-4.181-7.988-8.143-.446-2.696.381-5.459 2.052-7.5-1.645-.85-3.04-2.249-3.823-3.981-1.342-2.963-.964-6.601.963-9.269 6.035-8.359 14.29-8.212 16.675-7.966 9.582.981 18.884 9.279 21.56 16.414 1.265 3.373 1.025 7.901-.734 13.841-1.074 3.623-2.928 6.561-5.363 8.499-2.094 1.666-4.614 2.548-7.057 2.548zm-6.966-11.171a1.797 1.797 0 0 1 1.759 2.152c-.403 1.989 1.063 4.321 3.202 5.091 2.104.758 4.784.196 6.828-1.43 2.344-1.865 3.554-4.678 4.156-6.709 1.508-5.092 1.781-8.982.814-11.562-2.246-5.99-10.663-13.294-18.564-14.103-1.903-.195-8.49-.302-13.399 6.497-1.168 1.618-1.411 3.903-.603 5.687.79 1.745 2.726 2.936 4.494 2.762a1.795 1.795 0 0 1 .855 3.447c-2.271.935-3.724 3.643-3.306 6.166.412 2.489 2.586 4.681 5.17 5.213 2.541.522 5.452-.516 7.233-2.587.349-.406.85-.624 1.361-.624z" fill="#7d271d"/></g><g><path d="M258.862 301.97c-1.007 8.671-1.846 18.375.865 26.817.641 1.994 3.288 1.483 3.494-.473.922-8.732.108-17.574 1.074-26.344.383-3.477-5.034-3.431-5.433 0zM249.596 298.996c-2.463 6.536-4.885 14.94-3.016 21.92.454 1.697 3.025 1.725 3.465 0 .856-3.351.902-6.972 1.463-10.393.574-3.501 1.372-6.944 2.457-10.322.905-2.815-3.358-3.889-4.369-1.205zM268.708 299.145c1 3.838 1.78 7.751 2.371 11.671.579 3.838.859 7.82 1.715 11.602.338 1.493 2.615 1.45 2.979 0 .971-3.872.924-8.368.559-12.312-.391-4.222-1.177-8.339-2.246-12.443-.904-3.471-6.285-1.999-5.378 1.482zM249.879 331.438c.075 4.761.414 9.669 2.297 14.104.633 1.492 2.735.573 2.811-.761.253-4.418-.376-8.918-.469-13.343-.062-2.981-4.686-2.993-4.639 0zM269.102 333.402c.181 3.915-.276 7.999.513 11.851.28 1.368 2.563 1.774 3.153.412 1.657-3.83 1.552-8.161 1.407-12.263-.116-3.259-5.224-3.264-5.073 0zM260.459 346.365c-.193 3.285-.417 7.507 1.5 10.369.812 1.212 3.01 1.208 3.35-.438.658-3.183-.181-6.685-.066-9.931.109-3.091-4.605-3.056-4.784 0z" fill="#f0857a"/></g></svg>