<svg id="Layer_1" enable-background="new 0 0 512 512" height="512" viewBox="0 0 512 512" width="512" xmlns="http://www.w3.org/2000/svg"><path d="m291.348 349.264c.244 25.396-7.228 59.516-7.228 62.764 0 4.644-20.884-3.476-25.532 17.368s57.968 16.24 67.26 0c7.456-13.092 18.6-43.44 18.4-69.304-18.234 7.041-38.899 2.811-52.9-10.828z" fill="#f5d8af"/><path d="m284.128 447.38c-6.485.166-12.948-.82-19.088-2.912-8.124-3.136-11.888-8.944-10.336-15.932 3.788-17.032 17.328-18.092 23.836-18.6.556-.044 1.2-.096 1.792-.156.192-1.352.536-3.344 1.072-6.448 2.196-12.74 6.764-39.244 5.844-58.2-.108-2.206 1.593-4.083 3.799-4.191.067-.003.134-.005.201-.005h51.388c1.852.002 3.46 1.274 3.888 3.076 7.2 30.244-8.8 72.668-17.22 87.376-5.764 10.088-26.992 15.988-45.176 15.992zm11.232-98.444c-.483 18.721-2.515 37.37-6.076 55.756-.56 3.268-1.144 6.648-1.176 7.376 0 5.144-5.6 5.6-8.944 5.844-6.304.496-14.148 1.108-16.652 12.356-.28 1.284-.948 4.284 5.412 6.74 15.368 5.94 48.94.024 54.436-9.6 8.472-14.828 21.6-52.168 17.016-78.48z" fill="#4d4d4d"/><path d="m449.124 215.66c30.503-23.791 49.047-59.754 50.74-98.4 1.2-24.8-5.2-50.724-21.492-69.504s-43.32-28.968-67.048-21.6c-2.644.82-12.964 6.492-2.092 17.368 3.676 3.676 9.872 3.096 14.8 4.724 14.076 4.648 34.176 17.312 37.26 31.816 3.847 14.311 3.847 29.385 0 43.696-3.11 10.104-10.025 18.605-19.284 23.708-2.704 1.2-5.6 2.644-8.4 3.6" fill="#f5d8af"/><path d="m449.128 219.664c-2.209.003-4.003-1.785-4.006-3.994-.002-1.249.58-2.428 1.574-3.186 29.507-23.131 47.463-57.978 49.172-95.432 1.232-25.92-6.248-50.228-20.52-66.696-16.044-18.52-41.884-26.908-62.84-20.4-.872.272-3.572 1.716-4.068 3.736-.432 1.736.856 4.216 3.624 6.984 2.138 1.502 4.665 2.354 7.276 2.452 2.017.276 4.008.71 5.956 1.3 14.056 4.644 36.292 17.736 39.916 34.8 3.952 14.936 3.934 30.645-.052 45.572-2.132 7.86-10.212 21.2-21.5 26.304l-1.732.8c-2.294 1.101-4.642 2.085-7.036 2.948-2.109.656-4.351-.522-5.007-2.632-.631-2.028.433-4.195 2.423-4.936 2-.692 4.184-1.688 6.276-2.648l1.788-.8c8.154-4.623 14.252-12.166 17.064-21.108 4.164-15.352 3.2-26.54-.048-41.816-2.748-12.928-21.888-24.652-34.604-28.848-1.549-.455-3.131-.79-4.732-1.004-4.288-.262-8.375-1.909-11.648-4.692-4.964-4.964-6.892-9.86-5.732-14.56 1.429-4.504 4.959-8.031 9.464-9.456 24.268-7.548 52.908 1.6 71.26 22.8 15.832 18.272 23.812 43.956 22.464 72.312-1.843 39.797-20.942 76.813-52.308 101.376-.695.535-1.547.825-2.424.824z" fill="#4d4d4d"/><path d="m404.92 317.472c-7.56 27.732 8.832 29.004 17.62 59.24s-7.556 76.912-17.62 94.58-78.184 22.72-73.176 0 27.776-13.844 27.776-18.9 16.724-78.952 1.564-95.3c0 0-69.6 29.728-94.208-39.62 0 0-24.656 83.2-25.884 112.2s8.744 54.276-15.824 64.4-66.38.616-45.264-25.14c16.916-20.636 17.756-27.904 17.756-27.904s3.164-41.028 6.064-75.74c2.328-28.524 4.48-54.144 4.48-54.144-22.984 5.096-42.936 3.428-59.284-6.284 0 0 3.296 34 5.404 67.68 1.6 25.4 2.504 50.628.88 60.912-3.78 24-10.064 35.332-28.96 44.168s-44.172 0-29.008-24 17.624-10.064 20.172-55.464-18.94-105.916-18.94-105.916-31.512-11.336-35.292-56.736 21.448-148.02 21.448-148.02 37.796-82.684 177.776-72.64 189.156 160.72 186.652 205.2-36.576 69.652-44.132 97.428z" fill="#f5d8af"/><path d="m203.724 365.288c2.328-28.524 4.48-54.144 4.48-54.144-22.984 5.096-42.936 3.428-59.284-6.284 0 0 3.296 34 5.404 67.68-1.644-3.003-3.041-6.134-4.176-9.364-10.524-28.405-19.272-57.437-26.192-86.928-1.976-8.4-9.672-25.468-2.992-30.96 4.075-2.645 8.856-3.993 13.712-3.868 21.36-1.54 29.972 20.156 70.628 2.176 4.367-1.458 9.153-.929 13.096 1.448 6.376 3.296 8.528 11.296 9.1 18.4 2.724 34.908-16.264 67.784-23.776 101.844z" fill="#f2f2f2"/><path d="m203.484 502c-12.62 0-24.856-3.524-30.432-11.124-2.904-3.956-6.272-12.4 3.792-24.496 15.672-18.828 16.824-25.664 16.836-25.732l10.092-124.516c-16.78 3.671-34.281 2.144-50.172-4.376 2.228 24.4 8.864 101.6 5.6 122.332-3.6 22.8-9.648 37.048-31.264 47.14-13.048 6.088-28.224 4.612-35.308-3.424-3.344-3.8-7.632-12.264 1.232-26.296 3.085-4.937 6.587-9.601 10.468-13.94 5.804-6.656 7.364-8.448 9.096-39.632 2.22-39.972-14.776-92.764-18.128-102.716-7.2-3.316-32.628-17.884-36.088-59.4-3.792-45.524 20.504-145.076 21.54-149.292.059-.244.142-.481.248-.708.4-.884 10.212-21.864 37.708-41.668 25.132-18.1 70.488-38.568 144-33.296 140.8 10.116 193 162.4 190.336 209.396-1.6 28.288-15.308 48.836-27.404 66.972-7.248 10.864-14.096 21.136-16.864 31.28-4.18 15.324-.588 21.14 5.368 30.78 5.354 8.124 9.485 16.991 12.26 26.316 9.556 32.768-8.376 80.8-18.024 97.68-8.7 15.228-50.08 21.6-69.488 14.08-8.656-3.344-12.676-9.516-11.028-16.932 4.06-18.272 18.62-19.412 25.6-19.96.696-.052 1.54-.12 2.232-.2.204-1.46.584-3.684 1.2-7.288 2.888-16.732 11.388-65.92 2.756-81.076-8.8 3.12-35.248 10.748-59.796 0-14.322-6.548-25.782-18.07-32.252-32.428-6.652 23.44-21.656 78.4-22.612 100.4-.194 6.937-.036 13.879.472 20.8 1.14 19.784 2.216 38.476-18.772 47.08-7.397 2.868-15.271 4.308-23.204 4.244zm4.704-194.836c2.209-.007 4.006 1.778 4.013 3.987 0 .113-.004.225-.013.337l-10.524 129.856c-.052 1.732-1.572 9.628-18.656 30.152-5.02 6.032-6.192 10.96-3.488 14.648 6.112 8.336 28.8 10.5 44.128 4.22 15.012-6.156 15.064-17.68 13.824-39.224-.529-7.187-.689-14.397-.48-21.6 1.268-29.16 25.052-109.76 26.064-113.176.491-1.661 1.996-2.817 3.728-2.864 1.74-.073 3.32 1.01 3.88 2.66 6.764 19.044 17.676 31.972 32.436 38.44 26.228 11.48 56.144-1.044 56.44-1.172 1.555-.664 3.36-.278 4.508.964 12.108 13.104 7.2 52.84.768 90-.62 3.6-1.26 7.292-1.292 8.076 0 5.288-5.664 5.728-9.412 6.024-6.972.544-15.648 1.224-18.428 13.72-.3 1.356-1.096 4.948 6.104 7.736 16.8 6.496 53.624-.028 59.66-10.588 10.152-17.76 25.64-62.828 17.288-91.468-2.572-8.637-6.411-16.845-11.392-24.356-6.356-10.284-11.376-18.4-6.284-37.084 3.112-11.404 10.308-22.196 17.932-33.624 11.524-17.28 24.588-36.868 26.068-62.98 2.556-45.092-47.6-191.244-182.92-200.964-70.792-5.148-114.328 14.276-138.36 31.452-14.601 9.94-26.709 23.119-35.38 38.508-1.72 7.104-24.8 103.516-21.232 146.312 3.508 42.088 31.5 52.884 32.688 53.32 1.122.409 2.002 1.298 2.4 2.424.888 2.504 21.676 61.808 19.14 107.484-1.816 32.68-3.636 35.932-11.056 44.44-3.61 4.031-6.866 8.366-9.732 12.956-3.2 5.048-6.12 12.048-2 16.736 4.668 5.296 16.3 5.948 25.92 1.46 16.752-7.816 23.004-17.428 26.744-41.136 3.664-23.2-6.232-126.572-6.336-127.6-.212-2.199 1.4-4.153 3.599-4.365.847-.082 1.698.109 2.429.545 14.924 8.864 33.884 10.836 56.356 5.836.285-.068.576-.104.868-.108z" fill="#4d4d4d"/><path d="m266.872 321.472c-1.868-.003-3.485-1.298-3.896-3.12-.14-.6-13.088-60.76 36.92-80.516 2.038-.852 4.381.109 5.234 2.147s-.109 4.381-2.147 5.234c-.05.021-.1.041-.151.059-18.252 7.2-29.2 21.308-32.536 41.9-1.516 9.761-1.352 19.71.484 29.416.495 2.153-.849 4.3-3.002 4.795-.007.002-.015.003-.022.005-.291.058-.587.085-.884.08z" fill="#4d4d4d"/><path d="m266.872 321.472c-2.002-.002-3.694-1.484-3.96-3.468-1.916-14.829-6.382-29.216-13.2-42.524-1.037-1.951-.296-4.373 1.654-5.41 1.873-.996 4.198-.356 5.298 1.458 7.352 14.188 12.145 29.56 14.16 45.412.294 2.189-1.243 4.202-3.432 4.496-.172.023-.346.035-.52.036z" fill="#4d4d4d"/><path d="m181.744 41.252c-21.112-11.78-52.696-7.32-52.696-7.32l-12.8 1.808-.364.048-12.8 1.808s-31.6 4.46-48.616 21.62-19.492 68.832-7.84 95.416 11.6 41.256 21.916 53.916c4.448 5.468 26.724 18.728 29.272 30.024 1.413-.7 2.923-1.182 4.48-1.432 26.548-4.144 53.848-3.344 80.068-9.308 2.423-.568 4.92-.75 7.4-.54-.424-12.112-4.156-24.456-1.26-31.256 6.4-15.016 23.308-36.48 27.148-65.256s-12.796-77.752-33.908-89.528z" fill="#f1d7ad"/><path d="m63.568 184.42-3.44-1.644-.208.172-.372-.448-.02-.024c-6.739-7.917-12.317-16.754-16.564-26.244-12.096-27.6-10.072-80.984 8.636-99.832 3.208-3.209 6.784-6.028 10.652-8.4 12.408-7.252 26.06-12.123 40.256-14.364l26-3.668c14.338-1.777 28.883-.844 42.876 2.752 4.291 1.186 8.427 2.872 12.324 5.024 23.2 12.98 39.924 63.712 35.94 93.564-1.502 10.513-4.493 20.759-8.884 30.428l-7.328-3.2c4.087-8.982 6.875-18.5 8.28-28.268 3.852-28.848-13.448-75.2-31.912-85.528-3.363-1.861-6.935-3.317-10.64-4.34-12.919-3.26-26.328-4.114-39.556-2.52l-26 3.664c-13.072 2.133-25.647 6.625-37.112 13.256-3.339 2.03-6.427 4.447-9.2 7.2-14.896 15.02-18.692 64.356-7.004 91.024 4.032 8.983 9.342 17.336 15.764 24.8l2.032 2.432-1.9 2.536-3.156-2.368h-.036z" fill="#4d4d4d"/><path d="m168.144 49.364c-2.365-4.45-.675-9.974 3.774-12.339 2.224-1.182 4.838-1.392 7.222-.581 13.641 4.161 26.428 10.726 37.76 19.384 27.696 21.5 37.288 54.524 23.176 74.348s1.956 38.84-10.34 51.564-30-32.948-32.76-62.4c-1.776-19.156-17.852-50.476-28.832-69.976z" fill="#f5d8af"/><path d="m225.2 187.928c-1.139-.005-2.268-.204-3.34-.588-14.02-4.94-26.66-43.956-28.864-67.608-1.635-10.7-4.817-21.105-9.448-30.888-.872-2.03.068-4.382 2.098-5.254s4.382.068 5.254 2.098c4.97 10.547 8.36 21.769 10.06 33.304 2.316 24.868 15.088 57.824 23.556 60.8.512.18 1.152.4 2.344-.832 4.636-4.8 4.12-11.028 3.468-18.92-.76-9.2-1.708-20.672 6.492-32.184 13.02-18.292 2.984-49.2-22.372-68.864-10.94-8.387-23.303-14.732-36.496-18.728-2.05-.564-4.214-.57-6.268-.02-1.949 1.027-4.361.296-5.412-1.64-1.049-1.918-.348-4.323 1.568-5.376 3.97-1.631 8.38-1.844 12.488-.604 14.107 4.284 27.328 11.073 39.028 20.044 29.2 22.656 39.72 57.72 23.976 79.828-6.5 9.128-5.752 18.156-5.032 26.884s1.464 17.74-5.688 25.136c-1.891 2.116-4.575 3.352-7.412 3.412z" fill="#4d4d4d"/><path d="m69.752 63.248c1.046-4.929-2.103-9.773-7.032-10.819-2.471-.524-5.049 0-7.12 1.447-9.6 6.32-20.636 9.2-30.328 22.484-20.664 28.324-15.472 66.248 3.576 81.392s3 40.924 18.336 49.744 19.728-39.964 14.22-69.008c-3.576-18.92 3.196-53.464 8.348-75.24z" fill="#f5d8af"/><path d="m50.72 212.552c-1.949-.039-3.853-.591-5.52-1.6-9.2-5.284-9.476-14.984-9.736-24.364-.272-9.716-.528-18.892-9.092-25.704-24.528-19.496-22.508-61.952-4.316-86.884 6.164-8.142 14.232-14.647 23.496-18.944 2.764-1.484 5.372-2.892 7.864-4.528 3.459-2.359 7.636-3.431 11.804-3.028 2.156.482 3.514 2.62 3.032 4.776s-2.62 3.514-4.776 3.032c-2.021.132-3.974.788-5.664 1.904-2.8 1.832-5.676 3.384-8.472 4.888-8.214 3.724-15.371 9.436-20.824 16.62-19.464 26.676-14.56 62.076 2.832 75.904 11.484 9.128 11.832 21.668 12.112 31.744.26 9.324.652 14.74 5.728 17.66 1.496.86 2.044.468 2.484.152 7.316-5.2 10.468-40.4 5.816-64.944-1.561-11.559-1.409-23.285.452-34.8.238-2.196 2.211-3.784 4.407-3.547 2.196.238 3.784 2.211 3.547 4.407-.005.047-.011.093-.018.14-1.743 10.684-1.922 21.564-.532 32.3 4.428 23.336 3.08 64.336-9.036 72.952-1.619 1.195-3.575 1.848-5.588 1.864z" fill="#4d4d4d"/><path d="m174.5 172.468c-3.688-6.94-11.748-10.056-18.076-14.716-6.703-5.16-11.678-12.238-14.264-20.292-.924-2.988-.4-9.412-2.056-11.804-1.824-2.62-5.736-2.032-8.968-1.7-.628.064-6.728.956-8.124 1.24-2.592.528-5.132 1.364-5.932 3.712-.94 2.76 1.352 8.8 1.292 11.912-.258 8.454-3.08 16.631-8.092 23.444-4.8 6.228-11.672 11.456-13.296 19.144-1.04 8.019 2.499 15.945 9.164 20.524 6.598 4.399 13.963 7.52 21.712 9.2 2.405.838 4.942 1.234 7.488 1.168 1.973-.139 3.821-1.016 5.176-2.456 1.698 1.01 3.716 1.342 5.648.928 2.466-.643 4.796-1.727 6.876-3.2 6.982-3.754 13.198-8.785 18.324-14.832 5.143-6.247 6.351-14.85 3.128-22.272z" fill="#f2f2f2"/><path d="m138.12 164.556-7.64 1.08c-9.736 1.372-14.088 11.072-7.444 16.588l4.4 3.664c6.067 4.485 14.61 3.28 19.2-2.708l3.228-4.74c4.86-7.14-2.008-15.24-11.744-13.884z" fill="#4d4d4d"/><path d="m135.488 192.604c-3.846.058-7.592-1.228-10.592-3.636l-4.4-3.664c-3.868-3.018-5.515-8.084-4.16-12.8 2.002-5.977 7.327-10.221 13.6-10.84l7.644-1.08c6.199-1.141 12.49 1.463 16.068 6.652 2.602 4.155 2.42 9.473-.46 13.44l-3.228 4.744c-2.78 3.881-7.064 6.414-11.804 6.98-.883.131-1.775.199-2.668.204zm4.776-24.204c-.535-.002-1.07.036-1.6.112l-7.64 1.076c-3.131.207-5.864 2.196-7.024 5.112-.472 1.666.158 3.449 1.572 4.448l4.4 3.664c4.248 2.969 10.067 2.148 13.328-1.88l3.228-4.744c1.082-1.351 1.194-3.238.28-4.708-1.526-2.061-3.984-3.218-6.544-3.08z" fill="#4d4d4d"/><path d="m137.228 188.484 3.296 23.344" fill="none"/><g fill="#4d4d4d"><path d="m140.516 215.832c-1.991-.005-3.675-1.472-3.952-3.444l-3.296-23.344c-.347-2.182 1.14-4.232 3.322-4.579s4.232 1.14 4.579 3.322c.007.046.014.091.019.137l3.296 23.348c.309 2.187-1.213 4.21-3.4 4.52-.188.027-.378.04-.568.04z"/><path d="m134.852 217.016c-7.128-.073-14.188-1.406-20.852-3.936-2.074-.76-3.14-3.058-2.38-5.132s3.058-3.14 5.132-2.38c15.165 6.446 32.65 3.997 45.46-6.368 1.765-1.328 4.273-.974 5.601.792 1.311 1.742.985 4.214-.733 5.556-9.144 7.345-20.5 11.386-32.228 11.468z"/><path d="m202.084 204.54c-2.209 0-4-1.791-4-4 0-.954.34-1.876.96-2.6 6.981-7.492 10.006-17.844 8.156-27.916-.582-2.132.674-4.332 2.806-4.914s4.332.674 4.914 2.806c2.556 12.628-1.078 25.718-9.78 35.22-.763.894-1.881 1.408-3.056 1.404z"/><path d="m78.7 221.952c-.783.001-1.549-.23-2.2-.664-10.991-6.723-18.105-18.294-19.144-31.136-.027-2.209 1.742-4.021 3.951-4.048h.005.044c2.184 0 3.965 1.752 4 3.936 1.011 10.188 6.777 19.298 15.552 24.572 1.845 1.216 2.355 3.696 1.139 5.541-.741 1.125-2 1.801-3.347 1.799z"/><path d="m162.968 111.64c-.4 3.148-3.632 2-6.8 1.6s-5.024.088-4.62-3.06c.462-3.141 3.383-5.312 6.524-4.85 4.896.857 4.896 6.31 4.896 6.31z"/><path d="m160.36 117.768c-1.115-.028-2.225-.149-3.32-.36-.448-.076-.908-.152-1.364-.212s-.92-.096-1.328-.132c-2.11.086-4.154-.749-5.6-2.288-1.069-1.474-1.49-3.321-1.164-5.112.687-5.338 5.572-9.109 10.91-8.422s9.109 5.572 8.422 10.91c-.159 1.734-1.039 3.321-2.424 4.376-1.204.856-2.656 1.292-4.132 1.24z"/><path d="m103.796 115.2c1.232 2.924-2.136 3.552-5.06 4.8s-4.296 2.604-5.532-.32c-1.237-2.925.131-6.299 3.056-7.536s6.299.131 7.536 3.056z"/><path d="m95.024 125.404c-.659 0-1.313-.122-1.928-.36-1.668-.734-2.96-2.121-3.576-3.836-2.09-4.96.236-10.674 5.196-12.764s10.674.236 12.764 5.196c.735 1.577.773 3.39.104 4.996-1.283 2.277-3.457 3.915-6 4.52-.424.164-.86.328-1.288.504s-.844.4-1.2.552c-1.251.698-2.642 1.105-4.072 1.192z"/></g></svg>