<svg xmlns="http://www.w3.org/2000/svg" xml:space="preserve" width="512" height="512"><path fill="#FDE7CF" d="m156.787 235.682-31.961-7.64-22.383-10.546s-14.743-8.932-19.262-6.241c-4.52 2.69-7.102 10.115-7.102 10.115l3.336 19.478s6.026 13.021 6.241 13.559c.215.538 12.806 15.388 12.806 15.388l13.667 10.008L139.14 293.9l24.858 3.551 30.239-6.78-5.596-40.032-31.854-14.957z"/><path fill="#8A5D58" d="M78.553 227.934c.323 6.241 2.152 13.667 5.488 20.877 3.982 8.717 14.462 19.693 27.483 28.84 3.766-2.367 6.522-5.596 8.782-8.824-15.926-6.78-31.53-19.048-41.753-40.893z"/><path fill="#9D706B" d="M125.149 226.966c-12.375-.538-27.764-15.389-35.835-16.357-8.071-.969-11.608 7.137-11.608 7.137-.946 2.256.018 9.079 0 8.73 10.116 21.845 25.289 35.831 42.6 42.351 11.515-16.788 4.843-41.861 4.843-41.861z"/><path fill="#E0BCA2" d="M111.267 277.436c9.255 6.564 20.016 12.16 30.992 15.388 14.635 4.412 27.441 3.874 36.911-1.722h.108v-.108c.108-.43.108-.969.215-1.399.646-5.165 1.614-10.976 3.013-15.173 0 0-31.853 7.21-62.2-5.596-2.367 3.229-5.273 6.242-9.039 8.61z"/><path fill="#2D2D39" d="M170.561 297.451c3.659-.861 6.026-2.045 9.147-3.982l-.538-2.798c-9.362 5.811-22.276 6.457-37.126 1.937-26.15-7.856-51.116-29.055-58.003-43.906-6.78-14.635-7.318-30.131-1.291-35.297 4.52-3.766 11.407-.538 16.357 2.906 23.029 16.034 58.756 21.415 59.509 21.307l-.108-3.013c-.215 0-35.619-5.381-57.68-20.769-10.546-7.318-16.68-5.596-20.016-2.798-7.21 6.026-6.995 22.814.43 38.848 7.21 15.388 32.929 37.341 59.832 45.52 11.085 3.444 21.093 4.09 29.487 2.045z"/><path fill="#FDE7CF" d="m323.36 250.64-5.596 40.032 30.239 6.78 24.858-3.551 27.011-14.097 13.667-10.008s12.591-14.85 12.806-15.388 6.241-13.559 6.241-13.559l3.336-19.478s-2.583-7.425-7.102-10.115c-4.52-2.69-19.262 6.241-19.262 6.241l-22.383 10.546-31.961 7.64-31.854 14.957z"/><path fill="#8A5D58" d="M391.694 268.827c2.26 3.228 5.015 6.457 8.782 8.824 13.021-9.147 23.502-20.123 27.483-28.84 3.336-7.21 5.165-14.635 5.488-20.877-10.223 21.845-25.827 34.113-41.753 40.893z"/><path fill="#9D706B" d="M386.851 226.966c12.375-.538 27.764-15.389 35.835-16.357 8.071-.969 11.608 7.137 11.608 7.137.946 2.256-.018 9.079 0 8.73-10.116 21.845-25.289 35.831-42.6 42.351-11.515-16.788-4.843-41.861-4.843-41.861z"/><path fill="#E0BCA2" d="M391.694 268.827c-30.346 12.806-62.2 5.596-62.2 5.596 1.399 4.197 2.367 10.008 3.013 15.173.108.43.108.969.215 1.399v.108h.108c9.47 5.596 22.276 6.134 36.911 1.722 10.976-3.228 21.738-8.824 30.992-15.388-3.766-2.369-6.672-5.382-9.039-8.61z"/><path fill="#2D2D39" d="M370.925 295.407c26.903-8.178 52.622-30.131 59.832-45.52 7.425-16.034 7.64-32.822.43-38.848-3.336-2.798-9.47-4.52-20.016 2.798-22.06 15.388-57.465 20.769-57.68 20.769l-.108 3.013c.753.108 36.48-5.273 59.509-21.307 4.95-3.444 11.837-6.672 16.357-2.906 6.026 5.165 5.488 20.661-1.291 35.297-6.887 14.85-31.853 36.05-58.003 43.906-14.85 4.52-27.764 3.874-37.126-1.937l-.538 2.798c3.121 1.937 5.488 3.121 9.147 3.982 8.395 2.044 18.403 1.398 29.487-2.045z"/><path fill="#FDE7CF" d="M358.984 465.325c-4.779-4.146-11.567-5.813-18.509-6.242 1.483-9.849 5.181-32.416 6.489-47.188 3.561-36.907-1.979-77.107-6.432-113.799-1.993-16.421-10.633-41.756-17.059-49.179H188.527c-6.426 7.422-15.066 32.758-17.059 49.179-4.453 36.692-9.993 76.893-6.432 113.799 1.308 14.772 5.006 37.338 6.489 47.188-6.942.428-13.731 2.096-18.509 6.242-6.097 5.361-9.926 18.455 0 20.123 11.013.569 37.804 1.759 50.147-.323 14.958-2.583 17.648-8.394 20.123-17.648 2.585-9.335 15.018-41.035 19.478-52.407-11.994-.218-32.198-10.813-35.942-15.819 6.019 3.929 25.186 14.488 49.179 14.312 23.993.176 43.16-10.383 49.179-14.312-3.744 5.006-23.949 15.601-35.942 15.819 4.46 11.372 16.893 43.072 19.478 52.407 2.475 9.255 5.165 15.066 20.123 17.648 12.343 2.082 39.135.892 50.147.323 9.924-1.667 6.096-14.762-.002-20.123z"/><path fill="#9D706B" d="m164.32 411.951.323 3.874c1.291 12.375 4.824 34.227 5.9 40.684.108.753.018 1.392.126 2.038-19.585 1.291-24.105 12.16-24.428 20.447-.108 3.444 2.583 6.349 6.026 6.564 11.192.536 38.525 1.613 50.255-.324 15.066-2.583 17.648-8.394 20.123-17.648 2.045-7.425 13.091-34.675 17.934-47.05-29.701-11.084-69.157-9.123-76.259-8.585z"/><path fill="#8A5D58" d="M200.692 475.333c-13.774 4.627-51.236 6.285-50.268-8.565-2.475 3.336-4.076 8.673-4.184 12.224-.108 3.444 3.444 6.349 6.887 6.564 11.192.538 38.417 1.614 50.255-.323 15.066-2.583 17.648-8.394 20.123-17.648 2.367-8.824 11.514-29.808 14.312-37.018l5.165-15.388c.002-.001-27.762 55.312-42.29 60.154z"/><path fill="#2D2D39" d="M245.997 414.318c-.215.43-17.541 44.336-20.123 53.913-2.583 9.685-5.811 16.787-22.383 19.585-5.273.861-13.344 1.184-21.953 1.184-10.331 0-21.307-.43-28.84-.861-4.95-.215-8.824-4.412-8.609-9.362.215-7.748 4.089-20.661 26.257-22.383.215 0 .242-.008.458-.008.215 1.184.298 1.779.405 2.532-.108 0 .106.274-.002.274-19.478 1.291-23.89 11.299-24.213 19.585-.108 3.336 2.475 6.134 5.811 6.349 11.192.538 38.417 1.614 50.147-.323 14.958-2.583 17.541-8.286 20.016-17.433 2.583-9.685 19.478-52.407 20.231-54.236l2.798 1.184z"/><path fill="#2D2D39" d="M165.53 358.359c-3.415 31.677.851 71.538 6.323 103.092-18.696-59.774-10.886-122.946 2.045-176.268-4.077 21.493-6.538 48.704-8.368 73.176z"/><path fill="#9D706B" d="m341.543 458.716-.235-.039c2.042-12.215 5.344-34.439 6.371-46.728-7.102-.538-46.559-2.499-76.259 8.585 4.843 12.375 15.889 39.625 17.934 47.05 2.475 9.255 5.058 15.066 20.123 17.648 11.73 1.939 39.063.862 50.255.324 3.444-.215 6.134-3.121 6.026-6.564-.322-8.286-4.629-18.984-24.215-20.276z"/><path fill="#E0BCA2" d="M256 406.354c-30.669.108-53.16-10.654-53.268-10.761.746.798 2.548 2.446 4.218 3.734 10.569 8.336 22.783 12.392 36.136 14.086 21.098 2.556 45.008-.714 61.963-14.086 1.599-1.228 3.461-2.924 4.218-3.734-.107.108-22.598 10.869-53.267 10.761z"/><path fill="#8A5D58" d="m269.016 415.178 5.165 15.388c2.798 7.21 11.945 28.194 14.312 37.018 2.475 9.255 5.058 15.066 20.123 17.648 11.837 1.937 39.063.861 50.255.323 3.444-.215 6.995-3.121 6.887-6.564-.108-3.551-1.708-8.888-4.184-12.224.969 14.85-36.494 13.192-50.268 8.565-14.526-4.841-42.29-60.154-42.29-60.154z"/><path fill="#2D2D39" d="M268.801 413.134c.753 1.829 17.648 44.551 20.231 54.236 2.475 9.147 5.058 14.85 20.016 17.433 11.73 1.937 38.955.861 50.147.323 3.336-.215 5.919-3.013 5.811-6.349-.323-8.286-4.735-18.294-24.213-19.585-.108 0 .106-.274-.002-.274.108-.753.19-1.348.405-2.532.215 0 .242.008.458.008 22.168 1.722 26.042 14.635 26.257 22.383.215 4.95-3.659 9.147-8.609 9.362-7.533.43-18.509.861-28.84.861-8.609 0-16.68-.323-21.953-1.184-16.572-2.798-19.801-9.9-22.383-19.585-2.583-9.577-19.908-53.483-20.123-53.913l2.798-1.184z"/><path fill="#2D2D39" d="M256 413.241c-28.829.215-50.177-14.818-51.06-15.571.334.419 15.647 18.584 51.06 18.584 29.27 0 46.793-13.225 51.059-18.584-.881.753-22.23 15.787-51.059 15.571zM338.103 285.184c12.931 53.322 20.741 116.494 2.045 176.268 5.471-31.554 9.738-71.415 6.323-103.092-1.831-24.473-4.292-51.684-8.368-73.176z"/><path fill="#FFFAF5" d="M256 290.026c-31.638 0-57.357 31.315-57.357 58.864 0 27.441 25.612 49.824 57.357 49.824s57.357-22.383 57.357-49.824c0-27.549-25.719-58.864-57.357-58.864z"/><g><path fill="#FDE7CF" d="M147.791 198.053c.072-4.045.398-8.09.89-12.047.089-.723.177-1.446.285-2.159a149.742 149.742 0 0 1 2.121-11.665c.196-.938.412-1.866.628-2.775 3.766-15.856 8.868-27.538 8.868-27.538l5.253-17.603.539-1.788-.029-.078c-.234-.704-2.144-6.363-3.915-14.299a224.543 224.543 0 0 1-.671-3.147 146.343 146.343 0 0 1-1.39-8.072l-.01-.088c-.34-2.433-.621-4.935-.824-7.466-.618-8.316-.268-16.954 2.142-24.309 2.4-7.248 5.387-13.949 8.353-19.692.773-1.504 1.547-2.95 2.3-4.317l.029-.049c3.749-6.758 7.144-11.739 8.836-14.102.421-.586.724-1.006.91-1.25.147-.185.215-.283.215-.283l.059.068 4.5 4.724s1.055.724 2.881 2.143c1.035.812 2.304 1.839 3.779 3.081 4.833 4.108 11.746 10.593 18.822 19.276 4.012 4.938 8.091 10.59 11.857 16.925.01.02.02.029.029.039.146.254.302.518.459.782l.498.704v.01a.343.343 0 0 1 .068.098l.615.87v.01l1.31-.175 28.895-3.803v-.002l.006.001.006-.001v.002l28.888 3.855 1.309.177v-.01l.616-.869a.38.38 0 0 1 .068-.098v-.01l.499-.703c.157-.264.313-.527.46-.781.01-.01.02-.019.029-.039 3.777-6.328 7.867-11.973 11.887-16.904 7.092-8.671 14.016-15.143 18.857-19.243a141.302 141.302 0 0 1 3.784-3.075c1.829-1.415 2.885-2.137 2.885-2.137l4.509-4.716.059-.068s.068.098.215.284c.185.244.488.665.908 1.252 1.688 2.366 5.075 7.353 8.811 14.118l.029.049a169.822 169.822 0 0 1 2.292 4.321c2.956 5.748 5.93 12.454 8.317 19.707 2.397 7.36 2.731 15.998 2.099 24.313a127.913 127.913 0 0 1-.837 7.465l-.01.088c-.403 2.814-.894 5.53-1.405 8.07-.226 1.084-.451 2.13-.677 3.146-1.786 7.933-3.706 13.589-3.941 14.292-.02.049-.029.078-.029.078l.536 1.789 5.222 17.613s5.08 11.691 8.818 27.554c.214.909.428 1.837.623 2.776a149.578 149.578 0 0 1 2.1 11.669c.107.713.194 1.437.281 2.16.485 3.958.804 8.004.869 12.049.019.909.018 1.818.007 2.716-.064 6.517-.793 12.985-2.499 19.062-3.078 10.971-9.301 20.658-20.417 27.009-19.084 10.907-37.44 17.027-52.227 20.473-18.345 4.273-31.185 4.418-33.11 4.426h-.027c-1.925-.012-14.764-.179-33.102-4.485-14.781-3.472-33.126-9.625-52.19-20.567-11.104-6.371-17.31-16.07-20.369-27.046-1.695-6.079-2.412-12.549-2.465-19.066a91.384 91.384 0 0 1 .014-2.719z"/><path fill="#9D706B" d="M201.858 131.538c13.402-5.792 28.713-4.87 39.743-2.847a80.824 80.824 0 0 0 14.444 1.352 80.743 80.743 0 0 0 14.447-1.326c11.034-2.003 26.346-2.898 39.738 2.918 24.097 10.487 42.171 56.829 15.303 86.393-18.995 21.089-41.061 23.229-55.883 22.414-4.571-.229-9.132-.33-13.703-.335a279.68 279.68 0 0 0-13.703.31c-14.824.788-36.886-1.391-55.843-22.515-26.817-29.61-8.659-75.92 15.457-86.364z"/><path fill="#E0BCA2" d="m188.745 34.762.691-.016s16.267 13.244 25.314 43.24l11.15-3.834c0-.001-27.627-44.044-37.155-39.39z"/><path fill="#F6B0A6" d="m160.456 70.765-1.021 20.674 2.868 16.66s16.626 1.1 16.008-17.519c0 0 4.48 3.713 4.834 3.456.257-.241 3.584-4.657 3.584-4.657l-.042-15.148 4.788-.994 8.512 5.321 5.061-2.327s.053-10.41-.011-10.795c-.08-.482-6.772-16.902-6.772-16.902L185.775 30.6l-3.388-4.291-11.557 16.879-10.374 27.577z"/><ellipse transform="rotate(-67.592 200.76 189.91)" fill="#F6B0A6" cx="200.76" cy="189.912" rx="9.478" ry="15.927"/><path fill="#2D2D39" d="M180.975 24.365c-.418.466-39.618 45.315-15.225 99.703.16.37.433.819.61 1.285l1.189-.594c.306-1.14.627-2.184.965-3.132-.225-.755-.546-1.494-.85-2.137-18.63-45.935 9.065-84.316 14.884-91.623 31.186 24.335 41.36 47.407 41.489 47.584l3.23-1.428c-.465-1.012-10.945-24.727-43.977-50.043l-1.254-.98-1.061 1.365z"/><path fill="#2D2D39" d="M175.873 83.061s2.742 11.728 7.127 12.485c.305.048.514.113.707.081.884-.048 1.815-.401 2.506-1.011 2.411-2.184 2.3-7.019 2.254-12.063-.079-2.265-.126-6.12.405-7.1.884-.048 2.827.917 4.337 1.657 3.887 1.929 9.267 4.502 12.787.054 5.304-6.825-5.319-32.002-22.258-52.861l-2.796 2.248c17.436 21.469 25.474 44.204 22.131 48.523-1.639 2.055-4.402.93-8.497-1.064-2.602-1.351-4.866-2.46-6.859-1.931-3.133.818-3.071 5.364-2.993 10.601.063 3.357.189 8.289-1.016 9.381-.096.016-.08.112-.289.048-1.735-.307-5.364-4.854-7.546-9.048zM112.076 160.504c19.109.991 38.911 6.982 57.266 17.324 0 0-13.834-4.402-28.694-8.752-10.589-3.099-28.572-8.572-28.572-8.572zM102.372 179.832c19.026-2.043 39.526.74 59.286 8.05 0 0-14.356-2.159-29.717-4.104-10.947-1.386-29.569-3.946-29.569-3.946zM106.317 205.823c17.905-6.748 38.449-9.194 59.41-7.073 0 0-14.439 1.51-29.797 3.479-10.944 1.402-29.613 3.594-29.613 3.594z"/><path fill="#FFFAF5" d="M206.915 81.367c.313-.137 4.555-2.038 10.381-4.261 1.984-.76 4.154-1.55 6.412-2.33.704-.244 1.417-.478 2.141-.711.01-.01.02-.01.039-.02.401-.127.801-.263 1.212-.38 6.676-2.134 13.703-3.867 18.882-3.843 3.562-.016 6.987-.023 10.11-.02h.012c3.124.003 6.549.016 10.11.038 5.179-.015 12.203 1.731 18.875 3.877.41.118.811.255 1.211.382.02.01.029.01.039.02.723.235 1.436.47 2.139.715a206.05 206.05 0 0 1 6.408 2.341c5.822 2.233 10.061 4.142 10.373 4.279.01 0 .01.01.02.01 0 0-.02 0-.049-.01-11.557-2.356-22.217-3.841-31.919-4.69a245 245 0 0 0-10.748-.713 176.39 176.39 0 0 0-5.443-.181c-.35-.01-.69-.02-1.029-.02-.34 0-.68.009-1.029.019-1.769.028-3.586.085-5.443.171-3.44.143-7.026.375-10.749.694-9.704.832-20.366 2.298-31.927 4.632-.029.01-.049.01-.049.01.012 0 .012-.009.021-.009z"/><path fill="#E0BCA2" d="m286.29 74.206 11.143 3.854c9.101-29.979 25.392-43.194 25.392-43.194l.691.017c-9.52-4.672-37.226 39.323-37.226 39.323zM361.684 220.025c-15.937 11.518-53.682 35.951-105.746 35.287-23.626 0-62.48-4.144-105.694-35.477a.49.49 0 0 0-.089-.068c3.019 10.995 9.294 20.743 20.476 27.212 19.348 11.108 37.966 17.281 52.855 20.724.029 0 .049.01.068.02 17.929 4.128 30.452 4.287 32.356 4.299h.013c1.905-.008 14.428-.145 32.364-4.241a.137.137 0 0 1 .068-.02c14.895-3.417 33.525-9.556 52.892-20.629 11.194-6.448 17.486-16.185 20.525-27.175a.522.522 0 0 0-.088.068z"/><path fill="#F6B0A6" d="m341.416 43.341-11.527-16.899-3.395 4.285-12.522 17.911s-6.721 16.408-6.802 16.89c-.065.385-.031 10.795-.031 10.795l5.057 2.336 8.521-5.306 4.786 1.002-.069 15.148s3.319 4.422 3.576 4.663c.353.257 4.84-3.447 4.84-3.447-.652 18.617 15.976 17.548 15.976 17.548l2.898-16.655-.984-20.676-10.324-27.595z"/><ellipse transform="rotate(-22.301 311.232 190.002)" fill="#F6B0A6" cx="311.23" cy="190.009" rx="15.927" ry="9.478"/><path fill="#2D2D39" d="m330.246 23.133-1.254.978c-33.078 25.256-43.6 48.953-44.067 49.964l3.227 1.434c.129-.177 10.345-23.231 41.574-47.51 5.805 7.317 33.432 45.748 14.719 91.65-.306.642-.628 1.381-.854 2.135.336.948.656 1.993.96 3.134l1.188.596c.177-.466.451-.915.612-1.284 24.491-54.344-14.628-99.264-15.046-99.73l-1.059-1.367z"/><path fill="#2D2D39" d="M328.739 92.239c-.209.064-.193-.032-.289-.049-1.203-1.094-1.068-6.025-.999-9.383.087-5.237.158-9.783-2.974-10.606-1.991-.533-4.258.573-6.862 1.918-4.099 1.986-6.864 3.107-8.499 1.049-3.335-4.326 4.743-27.046 22.218-48.484l-2.792-2.253c-16.976 20.828-27.644 45.986-22.352 52.821 3.512 4.455 8.897 1.892 12.787-.031 1.511-.737 3.456-1.698 4.34-1.649.529.981.475 4.836.392 7.101-.055 5.044-.174 9.879 2.233 12.067.69.611 1.621.966 2.505 1.015.193.032.402-.032.707-.079 4.387-.749 7.149-12.472 7.149-12.472-2.192 4.191-5.829 8.732-7.564 9.035zM225.983 194.705l.379 2.304c0 .001.027.184.046.284l.118.677c.391 2.37 2.89 14.196 13.675 14.314 5.261.061 10.357-2.738 13.317-7.343.203-.344.405-.706.599-1.067-5.482-2.623-12.072-6.422-13.12-9.924-.261-.874-.166-1.692.285-2.434 1.762-2.813 9.022-3.817 14.717-3.822 5.682.015 12.941 1.032 14.699 3.852.448.74.542 1.557.279 2.432-1.105 3.67-8.56 7.718-13.138 9.9.193.361.393.721.589 1.056 2.959 4.621 8.036 7.414 13.313 7.378 10.782-.099 13.304-11.921 13.7-14.292l.119-.683c.019-.092.046-.275.047-.281l.383-2.296 8.241 4.37-5.788-.103c-.862 4.213-4.422 16.416-16.658 16.462l-.067-.008c-6.291-.065-12.321-3.433-15.742-8.759-3.467 5.337-9.487 8.678-15.731 8.729l-.134.011c-12.201-.07-15.738-12.28-16.592-16.494l-5.788.092 8.252-4.355zM255.953 231.901c4.209-.075 8.42-1.312 12.348-3.555-5.268 9.078-19.437 9.065-24.689-.022 3.924 2.25 8.132 3.494 12.341 3.577zM206.915 81.367c2.62-1.463 5.181-2.77 7.664-3.931a106.098 106.098 0 0 1 8.631-3.637 72.007 72.007 0 0 1 1.994-.721v-.01c.459-.156.919-.322 1.378-.468 16.47-5.545 29.524-4.849 29.524-4.849s13.043-.672 29.502 4.902c.459.147.918.314 1.377.47v.01a70.2 70.2 0 0 1 1.993.725 105.834 105.834 0 0 1 8.625 3.652 119.414 119.414 0 0 1 7.657 3.945c.01 0 .01.01.02.01 0 0-.02 0-.049-.01-1.055-.284-18.004-4.736-24.598-6.618-14.546-4.225-24.536-3.529-24.536-3.529s-9.989-.714-24.543 3.485c-6.597 1.87-23.555 6.291-24.61 6.574-.029.01-.049.01-.049.01.011-.001.011-.01.02-.01zM399.959 160.763c-19.111.957-38.924 6.912-57.298 17.221 0 0 13.842-4.378 28.71-8.7 10.595-3.081 28.588-8.521 28.588-8.521zM409.628 180.108c-19.022-2.077-39.527.669-59.3 7.943 0 0 14.36-2.133 29.725-4.05 10.949-1.367 29.575-3.893 29.575-3.893zM405.636 206.092c-17.893-6.781-38.432-9.263-59.397-7.18 0 0 14.436 1.536 29.791 3.532 10.941 1.423 29.606 3.648 29.606 3.648z"/><path fill="#3D3D44" d="M244.788 191.368c.04-.606 2.884-1.121 6.958-1.362h.029c1.296-.077 2.718-.124 4.209-.152h.012c1.49.031 2.913.081 4.208.16h.029c4.074.248 6.918.768 6.956 1.374.048.889-4.929 1.519-11.196 1.553h-.012c-6.266-.045-11.242-.684-11.193-1.573z"/><path fill="#2D2D39" d="M173.163 107.878c-.112.365-8.386 23.824-16.441 51.863-4.553 16.11-7.935 33.908-6.769 49.86.83 11.52 5.854 20.736 12.959 28.072 13.693 14.138 47.611 29.599 82.614 31.48 14.826.797 28.106-.589 38.792-2.582 18.55-3.458 43.027-11.267 58.082-22.887 10.469-8.08 18.498-19.072 19.593-33.892 1.194-15.95-2.155-33.754-6.679-49.872-7.992-28.015-16.272-51.65-16.347-51.894 5.034 9.731 13.866 29.847 19.829 50.935 4.633 16.384 7.926 34.545 6.731 51.028-1.183 15.979-9.774 27.729-20.897 36.32-15.297 11.815-39.952 20.425-59.444 24.076-14.696 2.753-28.036 3.227-39.579 2.54-42.173-2.51-74.683-21.759-85.742-33.422-7.358-7.761-12.565-17.508-13.446-29.712-1.171-16.572 2.197-34.832 6.899-51.276 6.019-21.05 14.835-40.985 19.845-50.637z"/><g><path fill="#2D2D39" d="m265.047 213.948-3.336-1.605-4.536-3.208-.666-1.603h-1.068l-.669 1.601-4.542 3.2-3.339 1.599-2.403.131.133.267c.293.654.799 1.803 1.572 3.072.213.334.427.668.667 1.015.267.374.547.761.867 1.136 1.76 2.178 4.295 4.129 7.699 4.132h1.068c3.404.003 5.942-1.944 7.706-4.118.321-.374.601-.76.869-1.134.241-.347.454-.68.668-1.014.775-1.267 1.284-2.415 1.578-3.069l.134-.267-2.402-.135z"/><path fill="#F9A9A0" d="M264.991 218.406c-.014 0-.014-.013-.027-.013-1.214-.495-4.431-1.632-8.996-1.623-4.566-.018-7.784 1.114-8.999 1.607-.014 0-.014.013-.027.013l.001.001.787 1.162 1.226 1.857 3.469 2.406 3.537.591 3.538-.584 3.473-2.4 1.23-1.854.789-1.161.001-.001-.002-.001z"/><path fill="#2D2D39" d="m265.502 211.963-2.703-1.356-3.988-2.872-.933-2.338-3.802-.003-.937 2.337-3.992 2.864-2.706 1.351-4.694.344.849 2.114c5.289 13.55 20.313 16.421 26.746.024l.853-2.112-4.693-.353zm-19.401 3.089 1.097-.064 3.504-1.677 5.027-3.428.246-.588.245.588 4.897 3.365 3.626 1.755 1.097.066c-5.556 11.235-15.376 8.921-19.739-.017z"/></g><g><path fill="#2D2D39" d="M286.382 166.62c6.369.705 12.642 2.282 18.572 4.778-8.533-.391-17.481-1.646-26.042-1.263 5.363-10.305 18.288-14.826 28.868-10.283-4.631-.086-9.268.257-13.495 1.892-2.952 1.142-5.646 2.75-7.903 4.876zM217.716 161.743c-4.228-1.635-8.865-1.977-13.495-1.892 10.581-4.543 23.505-.022 28.868 10.283-8.561-.383-17.509.872-26.042 1.263 5.93-2.495 12.203-4.072 18.572-4.778-2.258-2.125-4.952-3.733-7.903-4.876z"/></g></g></svg>