<svg xmlns="http://www.w3.org/2000/svg" xml:space="preserve" width="512" height="512"><path fill="#FDE7CF" d="M71.082 348.796c-.794-.595-1.687-1.488-2.878-2.58l-.099-.099h-.099c-1.588.595-6.747 2.778-7.74 5.954-.496 1.687 0 3.572 1.687 5.656 7.144 9.03 21.631 5.16 24.509 4.267h.099v-.099c.695-10.022 1.786-20.242 3.374-30.264-.893-4.664-6.251-9.724-8.533-11.709l-.099-.099-.099.099c-2.084 1.786-3.368 3.024-5.054 4.214 1.191-1.29 2.574-3.222 4.856-5.603 2.828-2.927 6.053-6.271 8.742-9.069 2.689-2.788 4.852-5.021 5.547-5.715v-.099c.397-1.588.695-2.977.992-4.167-.198 1.191-.397 2.679-.695 4.267-.099.595 28.361-36.578 28.262-35.983l-19.576-5.477c-1.671.594-51.102 17.388-54.925 36.895-2.282 11.808 6.45 27.982 14.189 39.393 3.174 4.662 6.052 8.333 7.54 10.218z"/><path fill="#E0BCA2" d="m97.475 294.917-23.218 30.76 21.532-20.738z"/><path fill="#9D706B" d="M56.396 330.837s16.372 3.671 30.065-6.152c0 0 4.564-1.389 4.267 10.617-.298 12.006-2.778 28.478-2.778 28.478l-9.228 1.29-11.212-2.084-6.35-4.664-2.481-6.549 8.335-6.946-10.618-13.99z"/><path fill="#8A5D58" d="M72.768 350.285s-7.541-.397-7.144 4.564c.397 5.061 6.747 8.93 6.747 8.93s-3.771.198-6.747-.595c-2.977-.893-5.16-6.747-5.16-6.747s-1.885-3.969-1.885-4.664 8.335-6.946 8.335-6.946l5.854 5.458z"/><path fill="#2D2D39" d="M94.201 308.71c-4.664 4.564-13.296 12.899-19.944 16.968.595-.595 18.853-19.547 21.036-21.83l-1.092 4.862z"/><path fill="#2D2D39" d="M47.069 298.886c2.481-21.631 56.162-38.599 56.757-38.797l.794 2.58c-.496.198-51.002 17.166-54.872 36.713-2.381 11.907 6.747 28.279 14.189 39.194 4.664 6.847 8.732 11.609 8.831 11.709-.099.099-29.172-21.532-25.699-51.399z"/><path fill="#2D2D39" d="M76.241 366.558c-5.557 0-11.808-1.488-16.075-6.946-2.183-2.778-2.878-5.457-2.084-7.938 1.488-4.961 8.434-7.144 8.732-7.243l1.786 2.084c-.099 0-6.847 2.381-7.938 5.954-.496 1.588.099 3.473 1.687 5.557 7.938 10.022 25.35 3.779 25.548 3.68l.35 2.77c-.496.197-5.755 2.082-12.006 2.082zM90.349 334.054l-.414-2.027c-1.191-5.656-9.129-12.304-9.228-12.304l1.687-2.084c.298.198 5.457 4.465 8.335 9.426l-.38 6.989z"/><path fill="#FDE7CF" d="m301.751 295.82 13.839-13.966 7.584-17.553.136-11.847-5.979-7.736-14.271 2.385-15.967 4.982s-28.705 2.351-35.965.761l-45.464-.058 31.381 58.501 7.419 6.369 30.511-7.079 26.776-14.759z"/><path fill="#2D2D39" d="M311.187 284.886c-10.115 13.332-39.781 29.026-67.636 31.118-15.926 1.22-28.529-2.306-36.753-10.099l-1.134 2.611c2.741 2.598 4.776 4.279 8.328 5.943 8.045 3.858 18.059 5.407 29.707 4.527 28.758-2.238 59.393-18.525 69.918-32.464 10.986-14.433 14.954-31.124 9.027-38.747-2.72-3.44-8.481-6.565-20.572-1.596-25.432 10.523-54.414 3.993-54.581 3.933l-.808 3.012c.781.189 29.984 6.893 56.493-3.996 5.678-2.382 13.306-4.151 17.059.607 4.999 6.53 1.007 21.986-9.048 35.151z"/><path fill="#FDE7CF" d="M239.747 439.07c.106-.422 3.813-23.474 5.027-36.217 1.507-15.191 1.632-31.638.377-49.089-2.003-28.834-6.693-55.468-6.906-57.376 3.137 14.125-7.734-38.06-11.927-35.404H109.935c0 .126-9.039 12.931-12.178 30.759-1.632 9.667-4.269 28.499-6.277 43.816-.628 6.026-1.255 12.178-1.632 18.079-3.755 47.446 5.5 85.899 5.525 86-2.664 0-20.273.914-20.841 16.823-.126 2.888 2.26 5.399 5.147 5.524 5.399.251 15.191.753 24.482.753 7.031 0 13.81-.251 18.204-1.004 12.806-2.134 15.066-7.156 17.2-14.94 2.009-7.533 14.061-38.292 16.572-44.318l.964-2.234c11.373 1.599 19.035.39 21.098.092l.788 2.268c2.385 6.152 14.438 36.911 16.447 44.318 2.134 7.91 4.394 12.806 17.2 14.94 10.044 1.758 33.145.753 42.686.251 2.888-.126 5.273-2.637 5.147-5.524-.568-15.909-18.056-17.517-20.72-17.517z"/><path fill="#9D706B" d="M245.543 399.667c-6.026-.377-39.941-2.213-65.176 7.203 4.143 10.546 12.614 33.954 14.372 40.232 2.134 7.909 4.629 13.17 17.435 15.304 10.044 1.758 33.481.951 43.022.449 2.888-.126 5.898-3.921 5.772-6.808-.251-7.031-4.524-15.847-21.221-16.977-.189 0 5.796-33.159 5.796-39.403zM94.891 439.107c-16.698 1.131-20.924 10.66-21.175 17.69-.126 2.888 2.669 6.068 5.556 6.193 9.542.502 32.804 1.497 42.848-.135 12.806-2.134 16.159-8.187 18.293-15.971 1.758-6.403 10.466-29.237 14.609-39.783-25.235-9.416-59.909-7.811-65.935-7.435 2.454 22.005 2.774 20.632 5.531 37.961l.273 1.48z"/><path fill="#E0BCA2" d="M167.436 394.943c-26.114.126-45.197-9.039-45.323-9.165 0 0 8.412 9.039 23.101 12.931 6.403 1.632 13.685 2.888 21.845 2.888h.754c8.035 0 15.442-1.255 21.845-2.888 14.689-3.892 23.101-12.931 23.101-12.931-.252.125-19.209 9.29-45.323 9.165z"/><path fill="#8A5D58" d="M122.543 462.667c12.806-2.134 15.866-7.542 18-15.326 2.009-7.533 9.065-25.657 11.45-31.808l4.394-13.057s-23.603 47.08-35.907 51.223c-11.676 3.892-43.984 5.548-43.23-7.132-2.134 2.888-3.408 7.217-3.534 10.23-.126 2.888 3.354 6.531 6.241 6.656 9.417.377 32.542.972 42.586-.786zM212.413 462.98c10.044 1.758 33.209.809 42.75.307 2.888-.126 5.934-3.602 5.808-6.489-.126-3.013-1.51-6.362-3.644-9.25.753 12.68-31.01 9.918-42.686 6.026-12.429-4.143-35.907-51.223-35.907-51.223l4.394 13.057c2.385 6.152 9.602 24.163 11.611 31.695 2.261 7.909 4.868 13.743 17.674 15.877z"/><path fill="#2D2D39" d="M238.998 441.897c.04-.1 3.574-10.256 5.524-21.72 6.277-33.27 3.515-68.172-.251-93.156-2.736-17.788-6.529-33.776-7.155-35.028.798 3.178 5.022 33.996 5.022 34.65 1.004 8.161 1.883 17.451 2.637 27.244 1.13 15.191 1.381 32.14-.377 49.089-1.434 13.602-5.4 38.381-5.4 38.921z"/><path fill="#2D2D39" d="M239.501 439.889c16.572 1.13 20.339 9.667 20.59 16.698.124 2.887-2.135 5.273-4.898 5.398-9.542.502-32.642 1.381-42.686-.251-12.68-2.134-14.94-7.031-16.949-14.815-2.26-8.286-16.572-44.569-17.2-46.076l-2.385.879c.126.377 14.94 37.664 17.075 45.825 2.26 8.286 4.896 14.312 18.958 16.698 4.52.753 11.425 1.004 18.707 1.004 8.788 0 18.079-.377 24.607-.753 4.143-.251 7.533-3.766 7.282-8.035-.251-6.529-3.515-17.577-22.347-19.083l-.754 2.511zM94.614 437.479c-18.832 1.507-22.218 12.579-22.47 19.107-.126 4.143 3.139 7.784 7.282 8.035 6.528.377 15.819.753 24.607.753 7.282 0 14.187-.251 18.707-1.004 14.061-2.385 16.823-8.412 18.958-16.698 2.26-8.161 16.949-45.448 17.075-45.825l-2.385-.879c-.628 1.507-14.94 37.79-17.2 46.076-2.134 7.784-4.269 12.68-16.949 14.815-10.044 1.758-33.145.753-42.686.251-2.762-.126-5.022-2.511-4.896-5.399.25-7.155 4.138-15.591 20.711-16.721l-.754-2.511z"/><path fill="#2D2D39" d="M167.436 400.844c-24.984.126-43.188-13.182-43.44-13.308 0 0 8.035 9.039 22.096 12.931 15.067 3.997 28.68 3.728 42.436 0 14.061-3.892 22.096-12.931 22.096-12.931 0 .125-18.204 13.433-43.188 13.308zM97.757 291.995c-.025.101-4.146 14.01-7.548 37.696-3.556 24.765-5.915 58.386.142 90.488 2.455 12.821 5.432 21.49 5.524 21.72 0-.402-4.008-25.716-5.399-38.92-1.758-16.949-1.507-33.772-.377-49.089.545-8.521 1.376-16.66 2.245-24.006 2.611-22.08 5.413-37.44 5.413-37.889z"/><path fill="#FFFAF5" d="M216.148 345.979c0-23.352-21.845-50.094-48.713-50.094s-48.713 26.616-48.713 50.094 21.845 42.31 48.713 42.31 48.713-18.958 48.713-42.31z"/><path fill="#2D2435" d="M367.037 229.614c-3.378-1.032-6.475-.563-9.102 1.783-2.815 2.44-2.252 6.1 1.22 7.507 3.378 1.408 6.663.751 9.478-1.501 1.408-1.22 2.064-2.721 1.689-4.598l-.563-3.378c-1.126-6.944-2.346-13.888-3.472-20.832-.094-.469-.188-.845.469-1.126 2.721-1.126 5.537-2.252 8.258-3.378 2.44-1.032 4.88-1.971 7.319-2.909 1.783-.751 3.566-1.408 5.443-2.158 1.314 7.695 2.534 15.296 3.754 22.803-.094 0-.094.094-.188.094-.282-.094-.469-.188-.751-.282-3.472-1.126-6.756-.563-9.384 1.971-2.44 2.346-1.877 5.537 1.126 7.132 3.097 1.595 7.507.938 10.041-1.501 1.314-1.314 1.877-2.721 1.501-4.598-.563-3.003-1.032-6.006-1.501-9.009-.563-3.191-1.126-6.381-1.595-9.572l-2.534-15.484c0-.094-.094-.188-.094-.375l-.845.282c-7.789 3.191-15.484 6.287-23.272 9.478-.845.375-1.032.751-.845 1.595 1.595 9.196 3.097 18.299 4.598 27.495.094.282.094.563.188.845-.094.094-.188.094-.188.094a2.755 2.755 0 0 0-.75-.378zM477.601 195.384l-.332-.362c-1.708-1.718-3.787-2.34-6.088-1.607-2.11.603-2.732 2.682-1.446 4.521 1.356 1.818 4.139 2.772 6.299 2.079 1.195-.342 1.899-1.075 2.25-2.24l1.778-5.756c.643-2.009 1.266-4.089 1.908-6.098a888.59 888.59 0 0 0 3.114-9.865c.05-.09.03-.161.01-.231-.231-.01-.392-.04-.553-.07-5.535-.472-10.98-.894-16.515-1.366-.623-.05-.794.151-1.025.673l-5.484 17.54c-.03.161-.131.342-.141.573-.07.02-.141.04-.161-.03l-.332-.362c-1.668-1.577-3.606-2.24-5.877-1.667-2.411.613-3.114 2.943-1.527 4.772 1.587 1.828 3.667 2.451 6.027 1.929 1.215-.271 1.989-1.025 2.32-2.26.171-.733.432-1.416.673-2.17 1.396-4.43 2.792-8.86 4.118-13.27.131-.342.141-.573.623-.482 1.959.201 3.898.331 5.836.462 1.708.12 3.436.311 5.214.412 1.246.1 2.562.181 3.827.351-1.557 4.932-3.084 9.704-4.59 14.546l.074-.022zM417.031 139.393c.882.176 1.675.353 2.557.705 2.645 1.058 4.144 2.909 4.232 5.819.793-1.94.882-3.791-.088-5.642-1.146-2.204-3.174-3.526-5.29-4.584-2.028-.97-4.232-1.763-6.259-2.733-3.35-1.499-6.7-3.174-9.786-5.378 4.496 9.786 8.904 19.572 13.401 29.358-.176 0-.264.088-.353.088-4.408-.617-7.758 1.058-10.05 4.849-.705 1.146-.882 2.557-.264 3.879.793 2.028 2.557 2.733 4.496 2.909 3.086.264 5.819-.882 7.935-3.174 1.587-1.587 2.469-3.967 1.146-6.788-2.909-6.171-5.731-12.431-8.552-18.602-.088-.176-.176-.441-.264-.705 2.378-.266 4.758-.442 7.139-.001zM446.186 242.496c.594 1.828.183 3.427-1.279 4.706 1.371-.366 2.376-1.142 2.924-2.422.685-1.508.548-3.153.183-4.706-.366-1.508-.868-2.97-1.234-4.478-.594-2.467-1.188-4.889-1.279-7.448-3.29 6.443-6.534 12.931-9.824 19.42a.642.642 0 0 1-.183-.137c-1.554-2.605-3.838-3.655-6.763-3.29-.914.091-1.691.594-2.193 1.462-.731 1.279-.366 2.513.366 3.61 1.188 1.782 2.879 2.696 4.981 2.879 1.508.137 3.107-.411 4.021-2.285 2.01-4.158 4.112-8.225 6.214-12.337.091-.137.183-.274.274-.457 1.234 1.142 2.285 2.376 3.061 3.793.274.502.503 1.05.731 1.69z"/><g><path fill="#A4E7FF" d="M411.466 279.351c-4.203-6.637-21.459-8.959-32.851-3.65-6.747 3.097-24.556 7.853-24.556 7.853h57.407v-4.203z"/><path fill="#CFF0FF" d="M444.317 275.7c-11.393-5.309-28.648-2.987-32.851 3.65v4.093h57.407c0 .111-17.809-4.535-24.556-7.743z"/><path fill="#2D2D39" d="M469.098 282.494c-.736-.165-17.713-5.468-24.467-7.719-20.314-6.948-30.041-.082-33.135 2.976-5.789-6.337-22.584-7.904-33.478-2.951-6.413 2.993-23.552 7.535-24.18 7.684h-.821l.715 2.624 1.164-.326c11.606-3.152 20.202-5.9 24.213-7.741 11.38-5.477 27.576-2.865 31.378 3.079l.884 1.545 1.158-1.389c.923-1.121 9.652-10.724 31.361-3.318 4.523 1.58 13.36 4.337 19.208 6.16 2.505.781 4.695 1.464 5.203 1.639l.649.656.636-2.12.356-.797h-.844v-.002z"/><path fill="#5E84C2" d="m349.745 283.554-34.01 67.687 1.49 4.432 33.737-68.027z"/><path fill="#64A7E2" d="M487.566 287.646H350.962l-33.737 68.027h136.162z"/><path fill="#7BBDEF" d="M487.566 283.554H349.745l1.217 4.092h136.604z"/><path fill="#2D2D39" d="M315.455 357.995h139.37l.664-1.327 34.179-68.026.221-.553v-7.079H348.307l-.664 1.327-33.958 67.583-.442.885.332.885 1.438 4.424.442 1.881zm34.29-74.441h137.821v4.093l-34.179 68.026H317.225l-1.438-4.424 33.958-67.695z"/><path fill="#5E84C2" d="M409.891 331.776c0-9.443-16.793-8.813-16.793 1.207l-.163 120.457 17.043.011-.087-121.675z"/><path fill="#2D2D39" d="M391.666 465.288h19.91V330.785c-.221-4.424-5.42-7.743-9.734-7.632-5.531 0-10.066 4.535-10.066 10.066-.11 5.862-.11 129.082-.11 132.069zm2.323-132.07c0-4.203 3.429-7.632 7.632-7.632 3.097 0 6.968 1.991 7.411 5.199v132.069h-15.043V333.218z"/><path fill="#64A7E2" d="M401.4 455.222c-23.339 0-42.143 3.429-42.143 7.632h84.396c.001-4.203-18.914-7.632-42.253-7.632z"/><path fill="#2D2D39" d="M445.976 465.288v-2.433c0-3.54-4.424-5.973-14.379-7.743-8.075-1.438-18.804-2.323-30.307-2.323-11.393 0-22.122.774-30.307 2.323-9.955 1.77-14.379 4.203-14.379 7.743v2.433H445.976zM401.4 455.222c23.339 0 42.143 3.429 42.143 7.632h-84.396c.11-4.203 19.025-7.632 42.253-7.632z"/></g><g><path fill="#FDE7CF" d="M65.094 212.538c.068-3.828.377-7.656.842-11.401.084-.684.168-1.368.27-2.043a141.631 141.631 0 0 1 2.007-11.039c.185-.888.39-1.766.594-2.626 3.564-15.005 8.392-26.061 8.392-26.061l4.971-16.659.51-1.692-.027-.074c-.221-.666-2.029-6.022-3.705-13.532-.212-.962-.424-1.951-.635-2.978a137.815 137.815 0 0 1-1.315-7.639l-.009-.083a120.75 120.75 0 0 1-.78-7.066c-.585-7.87-.254-16.045 2.027-23.005 2.271-6.859 5.098-13.201 7.905-18.636a160.903 160.903 0 0 1 2.177-4.085l.027-.046c3.548-6.395 6.761-11.109 8.362-13.346.398-.555.685-.952.861-1.183.139-.175.203-.268.203-.268l.056.064 4.259 4.471s.998.685 2.726 2.028c.979.768 2.18 1.74 3.576 2.916 4.574 3.888 11.116 10.025 17.812 18.242 3.797 4.673 7.657 10.022 11.221 16.017.009.019.019.027.027.037.138.24.286.49.434.74l.471.666v.009a.327.327 0 0 1 .064.093l.582.823v.009l1.24-.166 27.345-3.599v-.002l.006.001.006-.001v.002l27.338 3.648 1.239.168v-.009l.583-.822a.384.384 0 0 1 .064-.093v-.009l.472-.665c.149-.25.296-.499.435-.739.009-.009.019-.018.027-.037 3.574-5.989 7.445-11.331 11.249-15.997 6.712-8.206 13.264-14.331 17.845-18.211a134.636 134.636 0 0 1 3.581-2.91c1.731-1.339 2.73-2.022 2.73-2.022l4.267-4.463.056-.064s.064.093.203.269c.175.231.462.629.859 1.185 1.597 2.239 4.803 6.959 8.338 13.361l.027.046c.711 1.296 1.44 2.665 2.169 4.089 2.797 5.44 5.612 11.786 7.871 18.65 2.268 6.965 2.585 15.14 1.986 23.009a121.705 121.705 0 0 1-.792 7.065l-.009.083a137.238 137.238 0 0 1-1.33 7.637 225.873 225.873 0 0 1-.641 2.977c-1.69 7.507-3.507 12.86-3.73 13.525a.771.771 0 0 0-.027.074l.507 1.693 4.942 16.668s4.807 11.064 8.345 26.076c.203.86.405 1.738.59 2.627a141.462 141.462 0 0 1 1.987 11.043c.101.675.184 1.36.266 2.044.459 3.746.761 7.575.822 11.403.018.86.017 1.72.007 2.57-.061 6.167-.75 12.288-2.365 18.04-2.913 10.382-8.802 19.55-19.322 25.56-18.06 10.322-35.432 16.114-49.426 19.375-17.361 4.044-29.512 4.181-31.334 4.189h-.026c-1.822-.011-13.972-.169-31.326-4.244-13.988-3.286-31.349-9.109-49.39-19.464-10.508-6.029-16.381-15.208-19.276-25.595-1.604-5.753-2.283-11.876-2.333-18.043 0-.856.001-1.716.02-2.575z"/><path fill="#9D706B" d="M116.261 149.591c12.683-5.481 27.173-4.609 37.611-2.694a76.441 76.441 0 0 0 13.669 1.279 76.446 76.446 0 0 0 13.672-1.255c10.442-1.896 24.933-2.743 37.606 2.761 22.804 9.924 39.909 53.781 14.482 81.759-17.976 19.958-38.858 21.983-52.885 21.212a264.693 264.693 0 0 0-12.968-.317c-4.326-.004-8.642.085-12.968.293-14.029.746-34.907-1.316-52.848-21.307-25.378-28.021-8.194-71.847 14.629-81.731z"/><path fill="#E0BCA2" d="m103.851 58.006.654-.015s15.394 12.534 23.956 40.921l10.552-3.628c0-.002-26.145-41.682-35.162-37.278z"/><path fill="#F6B0A6" d="m77.079 92.078-.966 19.565 2.714 15.766s15.832.64 15.247-16.98c0 0 4.142 3.915 4.477 3.672.243-.228 3.392-4.407 3.392-4.407l-.04-14.335 4.531-.941 8.055 5.036 4.79-2.202s.05-9.852-.01-10.216c-.076-.456-6.409-15.995-6.409-15.995l-11.82-16.972-3.206-4.061L86.897 65.98l-9.818 26.098z"/><ellipse transform="rotate(-67.592 115.223 204.832)" fill="#F6B0A6" cx="115.222" cy="204.833" rx="8.97" ry="15.073"/><path fill="#2D2D39" d="M83.978 138.384C66.347 94.912 92.48 58.396 97.986 51.481c29.513 23.03 39.141 44.864 39.264 45.032l3.057-1.351c-.44-.958-10.358-23.401-41.618-47.359l-1.187-.927-1.004 1.291c-.396.441-37.493 42.884-14.408 94.355l1.888-4.138z"/><path fill="#2D2D39" d="M91.669 103.714c1.884 8.058 5.803 14.455 9.786 10.935 2.282-2.067 2.177-6.642 2.133-11.416-.075-2.144-.119-5.792.383-6.719.837-.045 2.675.868 4.104 1.568 3.678 1.826 8.77 4.261 12.101.051 5.019-6.459-4.805-29.86-20.835-49.601l-2.875 1.702c16.501 20.317 24.108 41.833 20.944 45.92-1.551 1.945-4.166.88-8.041-1.007-2.462-1.279-4.605-2.328-6.491-1.827-2.965.774-2.906 5.076-2.832 10.032.092 4.893-.197 7.125-.522 8.132-.272.843-.558 1.163-1.804.234-1.79-1.333-4.373-4.779-6.051-8.004zM31.295 177.003c18.084.938 36.824 6.607 54.194 16.395 0 0-13.092-4.166-27.155-8.283-10.021-2.932-27.039-8.112-27.039-8.112zM22.111 195.294c18.005-1.933 37.406.7 56.106 7.618 0 0-13.586-2.043-28.123-3.884-10.36-1.311-27.983-3.734-27.983-3.734zM25.844 219.891c16.945-6.386 36.387-8.701 56.223-6.694 0 0-13.664 1.429-28.199 3.292-10.356 1.328-28.024 3.402-28.024 3.402z"/><path fill="#FFFAF5" d="M214.116 102.193c-28.712-12.512-36.292-11.027-46.531-11.027-29.251-.03-43.594 9.89-46.556 10.954 0 0 .019 0 .046-.009 32.659-6.594 58.275-7.001 93.014.082.027.009.046.009.046.009-.01 0-.01-.009-.019-.009z"/><path fill="#E0BCA2" d="m196.164 95.334 10.545 3.647c8.613-28.371 24.03-40.877 24.03-40.877l.654.016c-9.01-4.421-35.229 37.214-35.229 37.214zM67.415 233.152c15.076 10.931 50.739 34.114 100.013 33.574h.012c49.272.629 84.988-22.493 100.074-33.394.027-.027.056-.046.083-.064-2.876 10.4-8.83 19.615-19.424 25.717-18.328 10.479-35.959 16.289-50.055 19.522a.124.124 0 0 0-.064.019c-16.974 3.876-28.825 4.006-30.628 4.014H167.413c-1.802-.011-13.653-.162-30.62-4.068-.018-.009-.037-.019-.064-.019-14.09-3.258-31.71-9.1-50.02-19.612-10.582-6.122-16.521-15.347-19.378-25.752a.361.361 0 0 1 .084.063z"/><path fill="#F6B0A6" d="m248.333 66.125-10.909-15.993-3.213 4.055-11.85 16.95s-6.36 15.528-6.437 15.984c-.062.364-.029 10.216-.029 10.216l4.786 2.211 8.064-5.021 4.529.948-.065 14.335s3.141 4.185 3.384 4.413c.334.243 4.464-3.696 4.464-3.696-.617 17.618 15.235 17.041 15.235 17.041l2.743-15.762-.931-19.567-9.771-26.114z"/><ellipse transform="rotate(-22.301 219.771 204.922)" fill="#F6B0A6" cx="219.768" cy="204.927" rx="15.073" ry="8.97"/><path fill="#2D2D39" d="M253.002 142.675c23.177-51.429-13.843-93.939-14.239-94.38l-1.001-1.294-1.187.926c-31.304 23.901-41.261 46.327-41.703 47.284l3.054 1.357c.122-.168 9.79-21.985 39.344-44.962 5.494 6.925 31.543 43.474 13.833 86.914l1.899 4.155z"/><path fill="#2D2D39" d="M235.577 111.449c-.302-1.077-.556-3.324-.459-7.975.082-4.956.15-9.258-2.814-10.037-1.884-.504-4.03.542-6.494 1.815-3.879 1.879-6.496 2.94-8.043.993-3.156-4.094 4.489-25.595 21.026-45.883l-2.744-1.92c-16.065 19.711-26.059 43.307-21.051 49.776 3.324 4.216 8.42 1.791 12.101-.029 1.43-.697 3.271-1.607 4.107-1.561.501.928.45 4.577.371 6.72-.052 4.773-.165 9.349 2.113 11.42 4.036 3.572 7.96-3.082 9.806-10.917-1.731 3.305-4.41 6.84-6.204 8.092-1.149.801-1.431.516-1.715-.494zM139.092 209.37l.359 2.18c0 .001.026.174.044.269l.112.641c.37 2.243 2.735 13.435 12.941 13.546 4.979.058 9.801-2.591 12.603-6.949a30.2 30.2 0 0 0 .567-1.01c-5.188-2.482-11.424-6.078-12.416-9.392-.247-.827-.157-1.601.27-2.303 1.667-2.662 8.538-3.612 13.928-3.617 5.377.014 12.247.977 13.911 3.645.424.7.513 1.473.264 2.302-1.046 3.473-8.101 7.304-12.433 9.369.183.342.372.682.557.999 2.8 4.373 7.605 7.016 12.599 6.982 10.204-.094 12.59-11.282 12.965-13.525l.113-.646c.018-.087.044-.26.044-.266l.362-2.173 7.799 4.136-5.478-.097c-.816 3.987-4.185 15.535-15.764 15.579l-.063-.008c-5.954-.062-11.66-3.249-14.898-8.289-3.281 5.051-8.978 8.212-14.887 8.261l-.127.01c-11.547-.066-14.894-11.621-15.702-15.609l-5.478.087 7.808-4.122zM167.454 244.57c3.983-.071 7.968-1.242 11.686-3.364-4.985 8.591-18.394 8.579-23.365-.021 3.713 2.129 7.696 3.307 11.679 3.385zM214.115 102.194c-23.372-13.111-41.573-12.68-46.558-12.68-4.968 0-23.207-.423-46.511 12.597-.008 0-.008.009-.02.008 0 0 .019 0 .046-.009 28.847-7.709 33.64-9.249 46.254-9.249 12.88 0 18.838 1.806 46.762 9.333.027.009.046.009.046.009-.01 0-.01-.009-.019-.009zM303.735 177.248c-18.086.906-36.836 6.541-54.225 16.297 0 0 13.1-4.143 27.17-8.233 10.028-2.916 27.055-8.064 27.055-8.064zM312.886 195.556c-18.002-1.966-37.407.633-56.119 7.517 0 0 13.59-2.019 28.131-3.833 10.361-1.294 27.988-3.684 27.988-3.684zM309.108 220.146c-16.933-6.417-36.37-8.766-56.211-6.795 0 0 13.662 1.454 28.193 3.343 10.354 1.346 28.018 3.452 28.018 3.452z"/><path fill="#3D3D44" d="M156.888 206.212c.038-.574 2.729-1.061 6.585-1.289h.027c1.226-.073 2.572-.117 3.983-.144h.012c1.41.029 2.757.077 3.982.151h.027c3.855.235 6.547.727 6.583 1.3.045.841-4.665 1.438-10.595 1.47h-.012c-5.929-.042-10.639-.647-10.592-1.488z"/><path fill="#2D2D39" d="M82.059 142.339c.609-1.414 1.217-2.827 1.842-4.15 2.724-6.171 4.778-10.169 5.204-10.989-.183.592-1.903 5.472-4.415 12.92-.32.897-.625 1.885-.913 2.964-2.923 8.922-6.668 20.794-10.231 33.197-4.309 15.246-7.509 32.089-6.406 47.185 2.765 38.369 58.78 51.696 71.17 54.038 21.779 4.116 41.428 2.591 55.987-.123 31.71-5.911 71.088-20.979 73.509-53.733 1.13-15.094-2.039-31.943-6.321-47.197-3.54-12.41-7.264-24.288-10.171-33.216a39.401 39.401 0 0 0-.908-2.966c-2.498-7.453-4.209-12.335-4.391-12.928.425.821 2.472 4.823 5.184 10.999.622 1.323 1.227 2.738 1.834 4.153 8.123 19.181 20.178 52.901 18.117 81.342-3.344 45.189-74.28 56.829-76.032 57.157a155.437 155.437 0 0 1-28.709 2.665 148.35 148.35 0 0 1-28.547-2.778c-19.059-3.753-71.272-18.501-74.068-57.231-2.008-28.444 10.109-62.142 18.265-81.309z"/><g><path fill="#2D2D39" d="M176.06 227.58c-3.943-1.897-2.258-.883-7.45-4.555l-.63-1.517h-1.01l-.633 1.515c-5.36 3.776-3.443 2.618-7.458 4.541l-2.274.124c2.244 4.506 4.992 9.103 10.351 9.106 6.298 0 8.566-3.488 11.377-9.087l-2.273-.127z"/><path fill="#F9A9A0" d="M167.467 230.251c-4.589-.018-7.439 1.087-8.534 1.542l.739 1.091 1.16 1.757 3.283 2.277 3.347.559 3.348-.553 3.287-2.271 1.164-1.755.741-1.09c-.552-.164-3.179-1.568-8.535-1.557z"/><path fill="#2D2D39" d="m176.491 225.702-2.558-1.283-3.774-2.718-.883-2.213-3.598-.003-.887 2.212-3.778 2.71-2.561 1.279-4.442.326.803 2.001c1.445 3.701 3.388 6.499 5.7 8.28 4.997 3.85 10.812 2.048 13.087.583 2.672-1.719 4.906-4.718 6.524-8.84l.807-1.999-4.44-.335zm-13.83 8.609c-2.765-1.869-4.24-5.088-4.531-5.685l1.038-.061 3.316-1.587 4.757-3.244.233-.556.232.556 4.634 3.185 3.432 1.661 1.038.062c-.623 1.261-2.134 4.107-4.671 5.761-2.339 1.525-6.433 1.966-9.478-.092z"/></g><g><path fill="#2D2D39" d="M196.251 182.791c6.027.667 11.964 2.16 17.576 4.522-8.075-.37-16.543-1.558-24.645-1.195 5.075-9.752 17.307-14.031 27.32-9.731-4.383-.081-8.771.243-12.771 1.791-2.795 1.079-5.344 2.601-7.48 4.613zM131.268 178.176c-4.001-1.547-8.389-1.871-12.771-1.79 10.013-4.299 22.244-.021 27.32 9.731-8.102-.362-16.57.825-24.645 1.195 5.612-2.361 11.548-3.854 17.576-4.522-2.138-2.011-4.687-3.533-7.48-4.614z"/></g></g><path fill="#2D2435" d="m318.449 302.473 20.722-159.506-27.498 158.48c-.383 1.882.993 3.644 2.875 4.027 1.881.257 3.643-1.119 3.901-3.001z"/><path fill="#9D706B" d="M330.824 269.279c2.15-11.231 1.814-18.669.602-23.44-.941-3.795-4.044-6.764-7.917-7.208-2.842-.342-5.998.631-8.287 4.903-4.946 9.486-4.318 30.08-.842 32.993 3.37 3.057 13.339 8.693 16.444-7.248z"/><g><path fill="#2D2D39" d="M319.125 281.158c1.725.507 3.785.711 5.717.045 3.74-1.313 6.208-5.231 7.421-11.628 1.961-9.934 2.154-18.085.635-24.079-1.175-4.522-4.83-7.79-9.236-8.409-2.967-.324-6.923.387-9.81 5.762-5.157 9.771-4.774 31.289-.549 34.98.713.529 2.888 2.366 5.822 3.329zm-2.514-36.813c1.566-3.15 3.779-4.492 6.746-4.168.391.069.906.12 1.315.314 2.525.77 4.63 2.997 5.3 5.817 1.464 5.622 1.197 13.275-.57 22.8-1.006 5.225-2.82 8.411-5.355 9.293-2.783.918-6.342-.841-8.535-2.802-2.763-2.384-3.653-22.177 1.099-31.254z"/></g><g><path fill="#F4405F" d="m186.888 293.121.314-23.635-19.683 12.154-19.426-12.491-.315 23.635 19.742-9.256z"/><path fill="#2D2D39" d="m189.625 265.321-22.077 13.538-18.231-11.647-3.698-2.408.021 4.334-.189 23.633-.102 3.85 22.14-10.342 18.445 9.069 3.42 1.767.102-3.849.189-23.649-.02-4.296zm-2.869 4.958-.177 22.146-19.055-9.385-19.175 9.056.177-22.145 18.756 12.058.233.151 19.241-11.881z"/></g></svg>