<svg height="512" width="512" xmlns="http://www.w3.org/2000/svg"><path d="M200.358 358.859c-.495 3.366-1.498 7.725-2.664 10.922-1.165 3.197-3.057 6.223-5.845 8.173s-6.557 2.674-9.681 1.326-5.255-4.992-4.376-8.279c-2.595 2.666-6.641 3.905-10.232 2.932s-6.514-4.219-6.894-7.92 1.951-7.572 5.472-8.774c-2.932.1-5.738-1.951-6.782-4.693-1.043-2.742-.469-6.039 1.392-8.307 5.653-6.891 12.795-6.344 17.31-7.047 7.25-8.887 42.501-45.184 49.751-54.071 0 0 13.4-3.418 23.196 14.375 8.316 15.106-.11 28.472-.11 28.472-11.733 8.963-50.537 32.891-50.537 32.891z" fill="#a63c30"/><path d="M185.646 381.985c-1.483 0-2.936-.283-4.274-.86a9.717 9.717 0 0 1-5.473-6.267c-2.74 1.403-5.934 1.808-8.864 1.014-4.467-1.21-7.909-5.18-8.368-9.655-.313-3.045.802-6.077 2.812-8.243-1.781-1.064-3.243-2.724-4.001-4.714-1.295-3.405-.621-7.447 1.717-10.298 5.239-6.387 11.581-7.021 16.211-7.485.56-.056 1.101-.11 1.604-.172 4.049-4.829 13.976-15.381 24.459-26.526 10.424-11.083 21.204-22.542 24.784-26.931a2.01 2.01 0 1 1 3.116 2.542c-3.67 4.499-14.017 15.499-24.971 27.145-10.423 11.081-21.2 22.538-24.78 26.927a2.01 2.01 0 0 1-1.248.715c-.806.126-1.66.211-2.563.302-4.367.437-9.318.932-13.503 6.034-1.418 1.729-1.847 4.268-1.067 6.317.763 2.005 2.837 3.473 4.834 3.398.996-.016 1.866.666 2.046 1.647s-.385 1.944-1.328 2.266c-2.604.889-4.415 3.817-4.122 6.666.289 2.811 2.568 5.413 5.42 6.185 2.81.762 6.131-.2 8.266-2.394a2.01 2.01 0 0 1 3.383 1.922c-.587 2.197.892 4.905 3.23 5.914 2.3.992 5.335.551 7.732-1.127 2.75-1.924 4.296-4.985 5.108-7.214 1.033-2.834 2.039-6.965 2.563-10.526a2.013 2.013 0 0 1 .934-1.419c.387-.238 38.852-23.978 50.373-32.779a2.01 2.01 0 1 1 2.441 3.195c-10.895 8.322-44.197 28.983-49.916 32.52-.59 3.583-1.59 7.566-2.619 10.386-1.449 3.975-3.725 7.133-6.581 9.131-2.244 1.571-4.841 2.384-7.355 2.384z" fill="#7d271d"/><g fill="#e36254"><path d="M419.899 381.251c-10.648-.817-21.102-4.93-28.364-12.208-.558 5.125-1.26 10.167-2.252 15.065a95.947 95.947 0 0 1-1.121 4.966c5.988 7.362 14.663 10.671 23.804 12.228 2.62-4.154 4.692-8.696 6.2-13.337a59.951 59.951 0 0 0 1.733-6.714zM423.696 352.952c1.024-5.002 2.601-9.827 5.351-14.332-5.772-2.906-10.991-7.265-15.551-12.242-5.87-6.65-9.388-14.886-11.105-23.312-4.281 9.909-6.393 20.643-7.72 31.615 5.163 10.219 16.998 16.431 29.025 18.271zM437.582 318.975a42.554 42.554 0 0 0 6.467 6.271c7.406-3.426 15.639-4.752 22.83-8.098a40.342 40.342 0 0 1-7.492-5.862c-11.067-10.828-17.868-28.373-12.453-43.218-7.241.402-14.296 2.785-20.587 6.538-3.475 15.366.588 31.747 11.235 44.369z"/></g><path d="M413.496 326.379c4.56 4.977 9.779 9.336 15.551 12.242a36.236 36.236 0 0 1 5.861-7.278c2.78-2.675 5.881-4.589 9.141-6.097a42.414 42.414 0 0 1-6.467-6.271c-10.647-12.622-14.71-29.003-11.235-44.37a53.296 53.296 0 0 0-11.81 9.6c-5.337 5.784-9.239 12.133-12.146 18.861 1.716 8.427 5.235 16.663 11.105 23.313z" fill="#a63c30"/><path d="M429.046 340.632a2.01 2.01 0 0 1-.903-.215c-5.558-2.798-10.986-7.065-16.13-12.68a.615.615 0 0 0-.025-.027c-5.638-6.388-9.638-14.77-11.568-24.241a2.013 2.013 0 0 1 .124-1.199c3.207-7.423 7.3-13.777 12.514-19.427a55.09 55.09 0 0 1 12.258-9.964 2.01 2.01 0 0 1 2.991 2.17c-3.379 14.942.561 30.48 10.81 42.63a40.685 40.685 0 0 0 6.173 5.986 2.01 2.01 0 0 1-.398 3.405c-3.43 1.587-6.241 3.458-8.592 5.721a34.043 34.043 0 0 0-5.538 6.877 2.006 2.006 0 0 1-1.716.964zm-14.055-15.598c4.311 4.704 8.801 8.378 13.37 10.944a38.826 38.826 0 0 1 5.152-6.084c2.005-1.93 4.286-3.601 6.918-5.066a43.974 43.974 0 0 1-4.396-4.569c-9.992-11.845-14.425-26.706-12.488-41.399a51.328 51.328 0 0 0-7.532 6.709c-4.765 5.164-8.539 10.964-11.524 17.715 1.832 8.52 5.455 16.029 10.5 21.75z" fill="#7d271d"/><path d="M419.899 381.251c1.904-9.453 1.928-19.171 3.797-28.298-12.028-1.84-23.862-8.053-29.025-18.27-1.38 11.415-1.909 23.089-3.136 34.361 7.262 7.277 17.716 11.39 28.364 12.207z" fill="#a63c30"/><path d="M419.901 383.261c-.052 0-.103-.002-.155-.006-11.609-.89-22.41-5.553-29.634-12.792a2.014 2.014 0 0 1-.576-1.638c.556-5.108.977-10.411 1.383-15.54.491-6.19.999-12.591 1.755-18.845a2.01 2.01 0 0 1 3.79-.665c4.45 8.807 14.743 15.233 27.535 17.19a2.012 2.012 0 0 1 1.666 2.391c-.914 4.461-1.371 9.007-1.854 13.819-.477 4.743-.969 9.647-1.942 14.473a2.007 2.007 0 0 1-1.968 1.613zm-26.263-14.976c6.166 5.832 15.011 9.701 24.626 10.791.72-4.075 1.14-8.249 1.547-12.303.404-4.02.82-8.156 1.529-12.186-10.73-2.057-19.738-7.115-25.285-14.069-.435 4.374-.784 8.781-1.126 13.086-.384 4.833-.78 9.821-1.291 14.681z" fill="#7d271d"/><path d="M381.341 402.359c-6.103 5.906-15.385 6.665-23.868 7.093-1.687 2.239-.68 5.081 1.785 6.416 10.597 5.739 23.871 6.738 34.835 1.739 7.481-3.411 13.457-9.307 17.871-16.306-9.14-1.556-17.815-4.866-23.804-12.228-1.284 4.969-3.182 9.766-6.819 13.286z" fill="#a63c30"/><path d="M378.815 422.818c-7.013 0-14.163-1.743-20.513-5.181-1.84-.997-3.129-2.644-3.538-4.521-.371-1.706.021-3.437 1.104-4.874a2.008 2.008 0 0 1 1.504-.798c8.797-.444 17.142-1.277 22.571-6.529 2.839-2.748 4.773-6.555 6.272-12.345a2.012 2.012 0 0 1 3.506-.765c4.873 5.991 12.26 9.757 22.582 11.515a2.009 2.009 0 0 1 1.362 3.055c-4.935 7.824-11.415 13.724-18.737 17.062-4.961 2.262-10.493 3.381-16.113 3.381zM358.709 411.4c-.074.279-.08.567-.016.861.156.72.726 1.408 1.524 1.839 10.353 5.607 23.014 6.25 33.044 1.677 5.825-2.656 11.085-7.148 15.343-13.08-8.262-1.806-14.696-4.984-19.516-9.646-1.19 3.541-3.084 7.594-6.348 10.753-6.177 5.978-14.856 7.09-24.031 7.596zm22.632-9.041h.006z" fill="#7d271d"/><path d="M450.994 268.05a38.711 38.711 0 0 0-4.06.017c-5.414 14.845 1.386 32.39 12.453 43.218a40.352 40.352 0 0 0 7.492 5.862c4.779-2.224 9.098-5.339 12.406-10.562 12.523-19.775-9.503-37.614-28.291-38.535z" fill="#a63c30"/><path d="M466.879 319.158a2.02 2.02 0 0 1-1.046-.293 42.601 42.601 0 0 1-7.864-6.153c-10.45-10.225-18.961-28.781-12.924-45.333a2.012 2.012 0 0 1 1.778-1.319 40.856 40.856 0 0 1 4.269-.018c12.866.63 26.034 8.468 31.31 18.636 2.699 5.201 4.643 13.41-1.419 22.983-3.148 4.972-7.36 8.566-13.256 11.309-.27.126-.559.188-.848.188zm-18.485-49.134c-4.551 14.557 3.102 30.727 12.4 39.825a38.498 38.498 0 0 0 6.213 5.005c4.657-2.337 8.036-5.327 10.58-9.344 3.989-6.3 4.421-12.863 1.246-18.979-4.584-8.835-16.594-15.916-27.937-16.472a35.737 35.737 0 0 0-2.502-.035z" fill="#7d271d"/><g><path d="M378.815 422.818c-7.013 0-14.163-1.743-20.513-5.181-1.84-.997-3.129-2.644-3.538-4.521-.371-1.705.021-3.437 1.104-4.874a2.008 2.008 0 0 1 1.504-.798c8.797-.444 17.142-1.277 22.571-6.529 4.458-4.315 6.085-10.866 7.369-17.206 1.962-9.685 2.797-20.225 3.604-30.418 1.978-24.98 4.023-50.811 22.143-70.449 10.317-11.181 24.544-17.463 38.034-16.8 12.866.63 26.034 8.468 31.31 18.636 2.698 5.201 4.643 13.41-1.419 22.983-6.188 9.772-15.661 12.643-24.822 15.42-7.335 2.223-14.262 4.323-19.861 9.71-10.013 9.635-11.217 21.656-12.491 34.383-.707 7.055-1.438 14.351-3.732 21.412-4.7 14.462-13.867 25.707-25.15 30.851-4.961 2.262-10.493 3.381-16.113 3.381zM358.709 411.4c-.074.279-.08.567-.016.861.156.72.726 1.408 1.524 1.839 10.353 5.607 23.014 6.25 33.044 1.677 10.26-4.678 18.641-15.042 22.993-28.435 2.161-6.649 2.87-13.725 3.555-20.57 1.292-12.889 2.627-26.218 13.705-36.879 6.295-6.057 14.016-8.398 21.482-10.661 8.846-2.682 17.202-5.215 22.59-13.724 3.989-6.3 4.421-12.863 1.246-18.979-4.584-8.835-16.594-15.916-27.937-16.472-12.323-.598-25.363 5.195-34.882 15.511-17.176 18.616-19.166 43.741-21.089 68.04-.817 10.312-1.661 20.975-3.671 30.899-1.348 6.654-3.229 14.181-8.514 19.296-6.176 5.979-14.855 7.09-24.03 7.597z" fill="#7d271d"/></g><g><path d="M241.614 374.056c-31.544 11.083-80.697 26.277-80.697 26.277s-17.455-21.354-23.576-15.513c-6.121 5.842-.91 42.258 8.263 46.998s90.981 4.592 90.981 4.592z" fill="#a63c30"/><path d="M234.76 438.424c-14.125 0-81.225-.243-90.079-4.818-5.908-3.053-9.642-15.489-11.166-26.109-.646-4.499-2.378-19.533 2.439-24.13 1.179-1.125 2.728-1.66 4.488-1.554 7.207.445 17.872 12.336 21.16 16.204 7.942-2.467 51.022-15.904 79.347-25.857a2.011 2.011 0 0 1 2.67 2.058l-5.029 62.355a2.01 2.01 0 0 1-2.001 1.849l-1.829.002zm-94.768-52.604c-.691 0-1.036.24-1.263.456-1.79 1.708-2.83 9.526-1.234 20.649 1.656 11.542 5.455 21.26 9.031 23.108 6.251 3.23 54.863 4.37 87.585 4.37h.618l4.632-57.43c-31.261 10.866-77.374 25.134-77.851 25.282a2.009 2.009 0 0 1-2.15-.648c-4.861-5.944-14.364-15.485-19.168-15.781a3.467 3.467 0 0 0-.2-.006z" fill="#7d271d"/></g><g><path d="M371.119 389.116c-4.908 32.131-50.251 49.727-72.635 54.275-22.383 4.548-69.09 5.656-86.148-22.011-14.004-22.701-6.867-67.032 1.524-109.109.312-1.552.619-3.098.933-4.639 1.537-7.61 3.096-15.114 4.546-22.373l92.207-18.736c3.992 5.854 8.158 11.878 12.351 18.002.8 1.168 1.602 2.342 2.403 3.516 24.428 35.805 48.897 74.406 44.819 101.075z" fill="#e36254"/><path d="M323.898 284.524c-33.82 27.917-81.729 34.879-110.038 27.746.312-1.552.619-3.098.933-4.639 1.537-7.61 3.096-15.114 4.546-22.373l92.207-18.736c3.992 5.854 8.159 11.878 12.352 18.002z" fill="#a63c30"/><path d="M272.375 447.88c-22.814 0-49.486-5.556-61.75-25.446-14.646-23.742-6.945-69.929 2.199-115.201.66-3.271 1.325-6.523 1.984-9.745.873-4.271 1.734-8.487 2.561-12.624a2.01 2.01 0 0 1 1.571-1.576l92.207-18.736a2.005 2.005 0 0 1 2.062.838c2.391 3.507 4.844 7.075 7.329 10.689 2.454 3.57 4.94 7.184 7.425 10.828 25.138 36.847 49.33 75.119 45.145 102.512-2.224 14.562-12.842 28.012-30.706 38.894-14.901 9.078-32.25 14.758-43.516 17.047-7.007 1.423-16.381 2.52-26.511 2.52zm-51.326-160.919c-.747 3.722-1.52 7.505-2.302 11.331a4104.52 4104.52 0 0 0-1.982 9.735c-8.984 44.485-16.595 89.799-2.717 112.294 8.98 14.565 26.534 20.088 39.679 22.156 20.471 3.221 39.128.003 44.358-1.059 26.141-5.312 66.633-23.705 71.048-52.608v-.001c3.967-25.947-20.885-65.037-44.492-99.639-2.482-3.64-4.964-7.25-7.417-10.816-2.227-3.24-4.43-6.443-6.584-9.598z" fill="#7d271d"/></g><g><path d="M225.207 85.038c-13.664-13.184-21.637-18.878-36.912-30.593-8.381-6.428-18.284-13.787-29.921-13.794-4.904-.003-8.718 4.043-4.479 8.037 1.734 1.633 4.218 2.408 6.6 3.125-3.656-.059-6.053.236-9.486 1.326-3.433 1.089-6.594 3.039-8.52 5.796-1.017 1.457-1.65 3.39-.642 4.872.792 1.164 2.416 1.709 3.933 1.691s2.966-.504 4.38-.983c-12.409 29.492-8.216 85.356 6.163 101.166z" fill="#ffe8db"/><path d="M156.324 167.693a2.008 2.008 0 0 1-1.488-.658c-14.714-16.178-18.623-69.283-7.954-99.597-.352.042-.712.068-1.078.072-2.39.025-4.52-.958-5.618-2.571-1.341-1.972-1.096-4.646.655-7.155 2.042-2.923 5.437-5.254 9.561-6.562.89-.283 1.718-.517 2.522-.708a9.306 9.306 0 0 1-.407-.362c-2.243-2.113-3.001-4.657-2.079-6.978 1.077-2.712 4.264-4.533 7.931-4.533h.007c12.627.008 23.33 8.216 31.144 14.209 1.899 1.456 3.685 2.819 5.383 4.116 11.834 9.033 19.653 15.001 31.701 26.626a2.01 2.01 0 0 1 .05 2.843 2.01 2.01 0 0 1-2.843.051c-11.88-11.463-19.208-17.056-31.348-26.323-1.7-1.298-3.489-2.663-5.391-4.121-7.358-5.643-17.435-13.372-28.699-13.378h-.004c-2.209 0-3.81 1.028-4.194 1.996-.366.921.395 1.904 1.099 2.567 1.429 1.346 3.752 2.046 5.802 2.663a2.01 2.01 0 0 1-.58 3.935h-.033c-3.581-.057-5.724.241-8.845 1.231-3.286 1.042-5.942 2.829-7.479 5.031-.558.8-1.058 1.958-.628 2.59.328.482 1.267.821 2.247.812 1.216-.014 2.508-.452 3.757-.877a2.012 2.012 0 0 1 2.5 2.684c-5.643 13.412-8.19 33.899-6.811 54.801 1.332 20.197 6.163 37.146 12.609 44.232a2.01 2.01 0 0 1-1.489 3.364z" fill="#e0a58f"/><path d="M388.005 257.655c-9.417 6.891-20.924 12.988-33.221 18.164-7.37 3.101-15.025 5.876-22.677 8.294a293.956 293.956 0 0 1-12.488 3.641c-20.46 5.47-39.803 8.262-52.485 7.873-19.965 1.687-56.939-3.632-89.001-15.21a206.817 206.817 0 0 1-12.966-5.162c-7.938-3.487-15.33-7.391-21.785-11.705-5.958-3.989-11.114-8.326-15.154-12.999-3.476-4.01-6.125-8.271-7.763-12.773-1.514-4.143-2.16-8.499-1.788-13.049.402-4.93 4.35-16.001 10.15-29.8 15.607-37.159 44.582-94.108 53.568-104.195 12.322-13.831 42.781-19.347 78.672-20.314s70.794 2.788 83.843 15.935c13.049 13.148 64.19 112.389 66.643 130.483 2.102 15.49-7.791 29.278-23.548 40.817z" fill="#e36254"/><path d="M319.62 287.754c-20.46 5.47-39.803 8.262-52.485 7.873-19.965 1.687-56.939-3.632-89.001-15.21a206.817 206.817 0 0 1-12.966-5.162c-7.938-3.487-15.33-7.391-21.785-11.705 6.547-36.203 41.904-64.464 85.289-65.633 48.84-1.316 89.367 32.199 90.516 74.855.027 1.017.31 10.043.432 14.982z" fill="#ffe8db"/><path d="m207.748 203.952 23.45-.632c2.854-.077 4.498 3.214 2.723 5.45l-10.762 13.556a4.421 4.421 0 0 1-6.827.12l-11.049-12.954c-1.835-2.149-.359-5.464 2.465-5.54z"/><path d="M205.362 124.475c1.147 4.231-4.331 9.398-12.236 11.541s-15.243.451-16.39-3.78 4.331-9.398 12.236-11.541 15.243-.451 16.39 3.78z" fill="#ffe8db"/><path d="M186.443 138.957c-1.588 0-3.105-.16-4.497-.48-3.853-.889-6.391-2.917-7.149-5.714-.758-2.796.408-5.829 3.284-8.542 2.548-2.403 6.229-4.344 10.366-5.465 9.111-2.471 17.397-.19 18.857 5.194.758 2.796-.408 5.83-3.284 8.542-2.547 2.403-6.229 4.344-10.366 5.466-2.45.663-4.907.999-7.211.999zm9.152-17.167c-1.858 0-3.932.259-6.097.846-3.458.938-6.614 2.581-8.659 4.51-1.721 1.623-2.509 3.287-2.163 4.565s1.867 2.316 4.172 2.847c2.738.632 6.293.456 9.751-.482 3.459-.938 6.615-2.581 8.659-4.51 1.721-1.623 2.509-3.287 2.163-4.565-.507-1.874-3.608-3.211-7.826-3.211z" fill="#e0a58f"/><path d="M273.931 134.558c-1.533 4.107-8.996 5.113-16.669 2.249-7.673-2.865-12.65-8.516-11.117-12.623s8.996-5.113 16.669-2.249c7.673 2.865 12.65 8.516 11.117 12.623z" fill="#ffe8db"/><path d="M265.694 140.449c-2.877 0-6.038-.602-9.137-1.759-8.846-3.303-14.248-9.984-12.297-15.209 1.951-5.226 10.409-6.732 19.257-3.429 4.015 1.499 7.501 3.772 9.816 6.4 2.613 2.967 3.494 6.095 2.481 8.809s-3.729 4.499-7.647 5.028c-.793.107-1.621.16-2.473.16zm-11.282-18.118c-3.346 0-5.8.992-6.384 2.556-.979 2.621 3.063 7.47 9.937 10.036 3.357 1.253 6.88 1.756 9.665 1.381 2.344-.316 3.954-1.209 4.417-2.449.464-1.24-.168-2.97-1.731-4.745-1.857-2.109-4.848-4.038-8.205-5.291-2.772-1.035-5.439-1.488-7.699-1.488z" fill="#e0a58f"/><path d="M135.68 209.319c-4.457 13.292-6.955 27.226-7.452 41.232-3.476-4.01-6.125-8.271-7.763-12.773-1.514-4.143-2.16-8.499-1.788-13.049.402-4.93 4.35-16.001 10.15-29.8 2.66-.043 5.451.744 7.042 2.85 2.426 3.2 1.088 7.736-.189 11.54zM388.005 257.655c-9.417 6.891-20.924 12.988-33.221 18.164-7.37 3.101-15.025 5.876-22.677 8.294 2.996-26.579-1.707-59.726-9.673-79.826-1.48-3.73-3.06-8.187-.81-11.512 1.625-2.411 4.801-3.307 7.705-3.236 7.062.178 13.163 4.817 18.383 9.573 9.945 9.054 31.361 30.946 40.293 58.543z" fill="#ffe8db"/><path d="M259.307 297.936c-20.337.001-52.332-4.966-81.857-15.628a208.965 208.965 0 0 1-13.091-5.212c-24.711-10.842-40.543-24.201-45.783-38.631-1.647-4.507-2.288-9.185-1.902-13.899 1.505-18.577 51.508-120.899 64.221-135.169 11.404-12.8 38.36-19.861 80.118-20.986 25.07-.679 69.489.573 85.325 16.529 13.892 13.997 64.77 113.641 67.209 131.629 3.035 22.384-17.556 44.084-57.982 61.103-32.89 13.844-69.32 20.517-88.375 19.968-2.368.196-5.012.295-7.883.296zm12.505-225.652c-3.464 0-7.029.049-10.69.147-40.606 1.094-66.588 7.702-77.225 19.641-12.059 13.535-61.798 115.326-63.216 132.82-.338 4.132.225 8.235 1.673 12.196 4.858 13.376 19.941 25.936 43.621 36.326a205.116 205.116 0 0 0 12.84 5.112c33.219 11.996 69.488 16.677 88.15 15.098a2.2 2.2 0 0 1 .23-.006c18.601.568 54.381-6.003 86.809-19.652 22.352-9.41 59.292-29.309 55.556-56.856-2.302-16.983-52.942-116.101-66.078-129.336-9.995-10.072-35.253-15.49-71.67-15.49zm82.972 203.535h.006z" fill="#a63c30"/><path d="M375.693 154.592c12.169-17.568 8.96-73.498-7.23-101.096 1.464.289 2.965.58 4.471.397s3.044-.937 3.675-2.195c.804-1.602-.078-3.435-1.278-4.745-2.272-2.48-5.663-3.996-9.21-4.623s-5.962-.604-9.578-.063c2.267-1.025 4.628-2.12 6.131-3.968 3.676-4.518-.639-8.026-5.5-7.376-11.535 1.541-20.381 10.142-27.841 17.618-13.597 13.627-20.749 20.322-32.556 35.193-10.517 22.696 63.494 82.192 78.916 70.858z" fill="#ffe8db"/><path d="M370.482 158.038c-11.111 0-28.82-11.076-42.469-22.238-19.262-15.752-39.478-39.061-33.059-52.911.067-.144.151-.28.25-.405 10.409-13.111 17.372-20.057 27.911-30.571 1.513-1.51 3.104-3.097 4.796-4.792 6.956-6.971 16.482-16.518 28.998-18.191 3.641-.487 7.04.899 8.467 3.447 1.22 2.18.804 4.801-1.141 7.191a9.417 9.417 0 0 1-.356.413c.822.084 1.673.207 2.593.369 4.261.754 7.934 2.616 10.342 5.244 2.067 2.256 2.662 4.875 1.593 7.005-.875 1.744-2.879 3.005-5.23 3.289-.364.044-.724.066-1.078.071 14.573 28.643 17.7 81.801 5.247 99.777a2.023 2.023 0 0 1-.462.475c-1.714 1.26-3.89 1.827-6.402 1.827zm5.211-3.446h.006zM298.51 84.786c-4.064 9.463 9.053 29.095 32.048 47.901 19.023 15.557 37.643 24.251 43.685 20.461 5.316-8.01 7.79-25.265 6.464-45.21-1.39-20.902-6.615-40.874-13.977-53.425a2.01 2.01 0 0 1 2.124-2.989c1.294.255 2.631.518 3.84.373.967-.117 1.859-.58 2.119-1.1.343-.684-.304-1.766-.963-2.486-1.814-1.979-4.683-3.4-8.077-4.001-3.225-.57-5.395-.583-8.931-.055a2.011 2.011 0 0 1-1.126-3.82c1.95-.882 4.16-1.882 5.4-3.405.61-.75 1.235-1.824.751-2.689-.509-.909-2.233-1.719-4.425-1.425-11.166 1.492-20.135 10.482-26.684 17.046a3550.902 3550.902 0 0 1-4.802 4.799c-10.757 10.729-17.271 17.228-27.446 30.025z" fill="#e0a58f"/><path d="M344.202 61.768c-11.684-5.23-33.248 24.781-35.887 31.425-2.639 6.643 37.385 45.547 44.788 41.319 7.405-4.228 1.418-68.125-8.901-72.744z" fill="#a63c30"/><path d="M351.803 136.81c-4.259.001-11.294-4.239-20.986-12.654-6.39-5.548-12.732-11.955-17.4-17.579-7.541-9.086-7.686-12.322-6.969-14.126 2.042-5.142 16.862-26.992 29.655-32.189 3.359-1.365 6.359-1.475 8.922-.328 9.023 4.039 12.584 37.233 13.194 49.683.769 15.679-.616 24.642-4.117 26.642-.646.367-1.413.551-2.299.551zm-41.602-42.917c-.102.909 1.608 5.304 10.69 15.086 7.005 7.545 15.419 15.028 21.959 19.529 7.374 5.075 9.238 4.267 9.257 4.258 1.549-1.023 3.168-10.906 1.707-28.863-1.858-22.839-6.862-38.701-10.433-40.3-1.521-.681-3.461-.553-5.765.383-10.812 4.393-25.206 24.426-27.415 29.907z" fill="#7d271d"/><g><path d="M269.671 248.759a17.56 17.56 0 0 0-3.889-.775c-13.316-1.838-29.924 3.303-38.11 14.827-8.427-6.457-14.419-16.229-16.349-26.655 8.468-3.211 17.717-4.688 26.695-3.866 4.096.373 8.134 1.229 12.018 2.614.764.276 1.528.569 2.292.896 6.543 2.757 12.828 7.266 17.343 12.959z" fill="#821629"/><path d="M227.672 264.821a2.01 2.01 0 0 1-1.223-.415c-8.843-6.776-15.077-16.939-17.103-27.885a2.01 2.01 0 0 1 1.264-2.246c9.051-3.432 18.595-4.811 27.591-3.988 4.345.396 8.554 1.312 12.51 2.722.917.331 1.68.63 2.409.942 7.137 3.007 13.578 7.824 18.126 13.558a2.01 2.01 0 0 1-2.182 3.166 15.38 15.38 0 0 0-3.445-.688 2.019 2.019 0 0 1-.112-.012c-11.879-1.64-28.128 2.642-36.196 14a2.011 2.011 0 0 1-1.639.846zm-14.028-27.371c1.994 8.689 6.884 16.725 13.684 22.5 8.877-10.83 24.601-15.238 36.843-14.17-3.606-3.349-7.946-6.157-12.624-8.128a39.337 39.337 0 0 0-2.193-.858c-3.631-1.294-7.509-2.137-11.518-2.503-7.865-.717-16.195.373-24.192 3.159z"/></g><g><path d="M227.672 262.809a39.292 39.292 0 0 0 6.765 4.189c7.237 3.505 15.484 4.791 23.46 3.883 6.758-.769 20.57-3.816 16.694-13.703-1.182-3.015-2.871-5.839-4.92-8.42a17.794 17.794 0 0 0-3.888-.775c-13.315-1.836-29.922 3.306-38.111 14.826z" fill="#f22a4e"/><path d="M252.993 273.169c-6.775 0-13.523-1.499-19.432-4.361a41.48 41.48 0 0 1-7.112-4.403 2.011 2.011 0 0 1-.416-2.761c8.987-12.642 26.893-17.441 39.97-15.66a19.89 19.89 0 0 1 4.273.857c.382.121.72.353.969.667 2.247 2.83 4.002 5.837 5.217 8.937 1.217 3.104 1.078 5.934-.414 8.412-3.364 5.588-12.674 7.425-17.925 8.023a45.559 45.559 0 0 1-5.13.289zm-22.471-10.774a36.761 36.761 0 0 0 4.791 2.794c6.727 3.258 14.664 4.57 22.356 3.695 2.836-.323 12.294-1.717 14.934-6.101.825-1.37.863-2.964.115-4.87-.999-2.55-2.424-5.04-4.237-7.41a15.604 15.604 0 0 0-2.866-.516 1.98 1.98 0 0 1-.108-.012c-11.309-1.56-26.582 2.249-34.985 12.42z"/></g><g><path d="M284.064 194.988a2.586 2.586 0 0 1-2.568-2.316c-.788-7.536-4.661-14.454-10.358-18.505-6.013-4.275-13.966-5.19-20.261-2.335-6.502 2.951-10.757 9.979-10.117 16.713a2.585 2.585 0 1 1-5.147.489c-.843-8.862 4.678-18.077 13.127-21.91 7.94-3.602 17.907-2.492 25.393 2.829 6.89 4.898 11.564 13.19 12.505 22.181a2.585 2.585 0 0 1-2.574 2.854z"/></g><g><path d="M159.509 194.988a2.585 2.585 0 0 1-2.578-2.817c.804-8.936 4.828-17.198 10.764-22.103 6.614-5.465 15.442-6.594 22.493-2.876 7.306 3.854 12.089 13.026 11.37 21.809a2.585 2.585 0 0 1-5.154-.422c.558-6.812-3.072-13.883-8.629-16.814-5.198-2.742-11.788-1.843-16.788 2.288-4.895 4.045-8.225 10.991-8.908 18.581a2.583 2.583 0 0 1-2.57 2.354z"/></g></g><g><path d="M142.063 425.765H86.505c-15.23 0-27.621-12.391-27.621-27.62V370.19c0-15.23 12.391-27.621 27.621-27.621h55.559c5.203 0 9.435 4.232 9.435 9.435v64.326c0 5.203-4.233 9.435-9.436 9.435zm-55.558-72.731c-9.46 0-17.156 7.696-17.156 17.156v27.955c0 9.46 7.696 17.156 17.156 17.156h54.529v-62.266H86.505z" fill="#d6d6d6"/><path d="M142.063 427.776H86.505c-16.339 0-29.631-13.293-29.631-29.632V370.19c0-16.339 13.293-29.631 29.631-29.631h55.558c6.311 0 11.446 5.134 11.446 11.445v64.325c0 6.312-5.135 11.447-11.446 11.447zM86.505 344.58c-14.122 0-25.61 11.489-25.61 25.61v27.955c0 14.121 11.489 25.61 25.61 25.61h55.558c4.094 0 7.425-3.331 7.425-7.425v-64.325c0-4.094-3.331-7.424-7.425-7.424H86.505zm54.529 72.731H86.505c-10.569 0-19.167-8.598-19.167-19.167V370.19c0-10.568 8.598-19.166 19.167-19.166h54.529c1.11 0 2.011.9 2.011 2.011V415.3a2.012 2.012 0 0 1-2.011 2.011zm-54.529-62.266c-8.351 0-15.145 6.794-15.145 15.145v27.955c0 8.351 6.794 15.145 15.145 15.145h52.518v-58.245z" fill="#9e9491"/><path d="M96.035 326.087v107.004c0 15.316 30.806 27.732 68.807 27.732s68.807-12.416 68.807-27.732V326.087z" fill="#d6d6d6"/><path d="M164.841 462.833c-39.71 0-70.817-13.065-70.817-29.743V326.087c0-1.111.9-2.011 2.011-2.011h137.613c1.11 0 2.011.9 2.011 2.011v107.004c0 16.678-31.107 29.742-70.818 29.742zM98.045 328.097V433.09c0 13.943 30.589 25.721 66.796 25.721s66.796-11.779 66.796-25.721V328.097z" fill="#9e9491"/><ellipse cx="164.841" cy="326.087" fill="#d6d6d6" rx="68.807" ry="19.795"/><path d="M164.841 347.893c-34.33 0-70.817-7.643-70.817-21.806s36.487-21.806 70.817-21.806 70.817 7.643 70.817 21.806c.001 14.164-36.486 21.806-70.817 21.806zm0-39.591c-39.364 0-66.796 9.373-66.796 17.785s27.432 17.785 66.796 17.785 66.796-9.373 66.796-17.785-27.432-17.785-66.796-17.785z" fill="#9e9491"/><path d="M223.185 326.088c0 2.355-3.28 4.55-8.944 6.409-10.329 3.381-28.591 5.632-49.398 5.632s-39.069-2.251-49.398-5.632c-5.664-1.859-8.944-4.054-8.944-6.409 0-6.649 26.121-12.041 58.343-12.041 32.22 0 58.341 5.392 58.341 12.041z" fill="#999"/><path d="M164.842 340.139c-20.357 0-39.058-2.142-50.023-5.732-6.951-2.281-10.33-5.002-10.33-8.32 0-11.115 39.478-14.051 60.353-14.051s60.354 2.937 60.354 14.051c0 3.318-3.378 6.039-10.329 8.319-10.966 3.591-29.666 5.733-50.025 5.733zm0-24.081c-15.451 0-29.958 1.238-40.848 3.485-12.702 2.621-15.484 5.613-15.484 6.545 0 .698 1.58 2.536 7.561 4.499 10.582 3.464 28.815 5.532 48.771 5.532s38.19-2.068 48.773-5.532c5.979-1.962 7.559-3.8 7.559-4.498 0-.932-2.782-3.923-15.484-6.545-10.889-2.248-25.396-3.486-40.848-3.486z" fill="#9e9491"/><path d="M214.241 332.497c-10.329 3.381-28.591 5.632-49.398 5.632s-39.069-2.251-49.398-5.632c10.329-3.381 28.591-5.632 49.398-5.632s39.069 2.251 49.398 5.632z" fill="#8c3e29"/><g><path d="M214.241 334.508c-.207 0-.418-.033-.626-.1-10.583-3.464-28.816-5.532-48.773-5.532-19.956 0-38.189 2.068-48.772 5.532a2.011 2.011 0 0 1-1.251-3.821c10.965-3.589 29.666-5.732 50.023-5.732 20.358 0 39.059 2.143 50.024 5.732a2.01 2.01 0 0 1-.625 3.921z" fill="#542619"/></g><g><path d="M164.842 340.139c-20.357 0-39.058-2.142-50.023-5.732-6.951-2.281-10.33-5.002-10.33-8.32 0-11.115 39.478-14.051 60.353-14.051s60.354 2.937 60.354 14.051c0 3.318-3.378 6.039-10.329 8.319-10.966 3.591-29.666 5.733-50.025 5.733zm0-24.081c-15.451 0-29.958 1.238-40.848 3.485-12.702 2.621-15.484 5.613-15.484 6.545 0 .698 1.58 2.536 7.561 4.499 10.582 3.464 28.815 5.532 48.771 5.532s38.19-2.068 48.773-5.532c5.979-1.962 7.559-3.8 7.559-4.498 0-.932-2.782-3.923-15.484-6.545-10.889-2.248-25.396-3.486-40.848-3.486z" fill="#9e9491"/></g></g><g><path d="M254.889 383.285c-.985 3.257-2.617 7.421-4.24 10.411-1.623 2.991-3.939 5.706-6.983 7.225s-6.879 1.681-9.771-.112c-2.892-1.792-4.464-5.71-3.111-8.832-2.959 2.256-7.143 2.886-10.552 1.396s-5.823-5.13-5.655-8.847 3.043-7.203 6.702-7.875c-2.915-.332-5.389-2.773-6.018-5.638-.629-2.866.424-6.042 2.598-8.013 6.604-5.985 13.588-4.394 18.158-4.427 8.477-7.725 48.681-38.447 57.159-46.171 0 0 13.757-1.411 20.831 17.628 6.006 16.164-4.293 28.147-4.293 28.147-12.925 7.143-54.825 25.108-54.825 25.108z" fill="#a63c30"/><path d="M238.703 404.127c-2.103 0-4.139-.537-5.866-1.608a9.715 9.715 0 0 1-4.491-7.003c-2.918.985-6.135.916-8.918-.3-4.241-1.855-7.061-6.288-6.858-10.781.138-3.058 1.686-5.893 3.993-7.741-1.605-1.314-2.807-3.171-3.264-5.25-.781-3.559.48-7.458 3.212-9.934 6.121-5.547 12.484-5.243 17.136-5.021.563.027 1.104.053 1.611.066 4.715-4.181 16.086-13.16 28.093-22.644 11.94-9.43 24.286-19.18 28.472-22.995a2.01 2.01 0 0 1 2.708 2.972c-4.291 3.911-16.142 13.27-28.688 23.178-11.939 9.429-24.284 19.179-28.47 22.993a2.015 2.015 0 0 1-1.34.525c-.816.01-1.672-.035-2.579-.078-4.383-.209-9.354-.448-14.243 3.984-1.657 1.502-2.454 3.949-1.984 6.092.46 2.095 2.301 3.846 4.282 4.072a2.011 2.011 0 0 1 .136 3.975c-2.706.497-4.927 3.126-5.057 5.988-.127 2.823 1.745 5.731 4.452 6.914 2.667 1.166 6.094.702 8.527-1.152a2.008 2.008 0 0 1 2.458.016c.72.564.969 1.543.606 2.383-.904 2.086.161 4.982 2.325 6.324 2.129 1.319 5.197 1.327 7.813.021 3.002-1.498 4.982-4.299 6.114-6.385 1.438-2.651 3.041-6.59 4.082-10.034a2.01 2.01 0 0 1 1.133-1.266c.418-.179 41.954-18.008 54.645-25.02a2.01 2.01 0 1 1 1.944 3.52c-12 6.631-47.977 22.173-54.153 24.831-1.11 3.456-2.684 7.249-4.116 9.888-2.019 3.72-4.734 6.509-7.853 8.065a13.197 13.197 0 0 1-5.862 1.405z" fill="#7d271d"/></g><g><path d="M297.149 383.494c-26.848 17.522-59.731 37.79-59.731 37.79s-22.238-16.315-26.705-9.129 9.679 41.145 19.745 43.442c8.602 1.963 67.676-12.786 84.675-17.117 5.345-1.362 10.444-3.593 14.979-6.732 8.355-5.785 17.959-16.277 13.161-32.366-1.527-5.12-4.193-9.141-7.386-12.296-10.343-10.223-26.559-11.54-38.738-3.592z" fill="#a63c30"/><path d="M232.437 457.76c-1.008 0-1.822-.065-2.425-.203-6.484-1.48-13.208-12.589-17.338-22.493-1.749-4.194-7.182-18.317-3.668-23.97.861-1.385 2.229-2.292 3.957-2.627 7.083-1.369 20.388 7.479 24.538 10.402 6.031-3.729 34.821-21.574 58.549-37.059a2.01 2.01 0 1 1 2.198 3.368c-26.563 17.335-59.446 37.615-59.775 37.818a2.013 2.013 0 0 1-2.245-.09c-6.192-4.54-17.785-11.397-22.503-10.49-.812.157-1.124.51-1.304.801-1.306 2.101-.361 9.93 3.964 20.3 4.488 10.762 10.595 19.224 14.52 20.12 5.318 1.212 38.187-5.501 83.732-17.106 4.928-1.256 16.026-5.635 20.397-8.661a2.01 2.01 0 1 1 2.289 3.307c-4.938 3.419-16.386 7.9-21.693 9.252-21.254 5.415-69.57 17.33-83.193 17.331z" fill="#7d271d"/></g><g><path d="M56.491 163.742c-9.262 0-18.534-.56-27.704-1.678a2.01 2.01 0 0 1-.672-3.787l33.595-17.164-30.688-2.197a2.01 2.01 0 0 1 .287-4.011l37.881 2.712a2.011 2.011 0 0 1 .771 3.796L35.96 158.786a225.456 225.456 0 0 0 33.8.543c1.115-.071 2.06.78 2.126 1.888s-.78 2.06-1.888 2.126c-4.489.266-8.998.399-13.507.399zM84.095 194.752c-5.979 0-11.967-.413-17.876-1.234a2.011 2.011 0 0 1-.907-3.617 211.779 211.779 0 0 1 15.904-10.504l-17.787-.058a2.012 2.012 0 0 1 .007-4.021h.007l25.284.083a2.012 2.012 0 0 1 .963 3.773 207.467 207.467 0 0 0-17.762 10.97 125.98 125.98 0 0 0 18.395.433c1.092-.053 2.053.799 2.108 1.908s-.799 2.053-1.909 2.108c-2.138.106-4.282.159-6.427.159zM94.196 223.476c-3.128 0-6.261-.216-9.353-.646a2.01 2.01 0 0 1-.906-3.617 109.914 109.914 0 0 1 5.37-3.667l-5.771-.019a2.012 2.012 0 0 1 .007-4.021h.007l13.04.043a2.012 2.012 0 0 1 .962 3.773 106.064 106.064 0 0 0-6.746 4.044c2.185.116 4.376.12 6.555.011a2.01 2.01 0 1 1 .199 4.016 68.535 68.535 0 0 1-3.364.083z" fill="#9e9491"/></g><g><path d="M252.328 235.799a32.225 32.225 0 0 1-1.919 4.843c-.867 1.758-2.281 3.665-4.24 3.585-1.654-.069-2.872-1.534-3.768-2.924a41.377 41.377 0 0 1-4.383-9.013c4.096.373 8.134 1.229 12.018 2.614.764.275 1.528.568 2.292.895z" fill="#fff"/><path d="M246.294 246.24c-.07 0-.139-.001-.206-.004-2.67-.111-4.347-2.247-5.376-3.844a43.368 43.368 0 0 1-4.594-9.447 2.01 2.01 0 0 1 2.083-2.658c4.346.396 8.555 1.312 12.511 2.722.917.331 1.68.63 2.409.942a2.012 2.012 0 0 1 1.132 2.434 34.228 34.228 0 0 1-2.039 5.146c-1.904 3.855-4.232 4.709-5.92 4.709zm-5.174-11.538a38.993 38.993 0 0 0 2.968 5.506c1.051 1.631 1.757 1.992 2.165 2.009.688.035 1.588-.916 2.353-2.466.449-.91.852-1.844 1.206-2.79a64.92 64.92 0 0 0-.458-.168 46.35 46.35 0 0 0-8.234-2.091z"/></g></svg>