<svg height="512" viewBox="0 0 321 321" width="512" xmlns="http://www.w3.org/2000/svg"><circle cx="160.5" cy="161.9" fill="#d0df92" r="150.2"/><path d="M140.833 248.94c-1.537 3.88-1.825 8.003-1.211 11.868.459 2.909 1.405 5.702 2.71 8.334 1.961 3.946 4.725 7.548 8.074 10.668a41.324 41.324 0 0 0 11.704 7.654c4.396 1.898 9.259 3.063 14.363 3.139a35.326 35.326 0 0 0 11.689-1.808c5.871-1.945 11.594-5.551 16.725-10.891 5.141-5.343 9.722-12.391 13.602-21.371 2.942-6.812 5.484-14.744 7.553-23.956.919-4.094 2.069-7.614 3.361-10.605 1.743-4.035 3.74-7.104 5.782-9.387 3.078-3.422 6.197-5.107 9.126-5.803a13.222 13.222 0 0 1 8.322.73 13.9 13.9 0 0 1 5.797 4.713c1.509 2.124 2.523 4.738 2.758 7.864a7 7 0 0 0 13.963-1.026c-.41-5.632-2.329-10.773-5.317-14.961a27.91 27.91 0 0 0-11.649-9.442 27.21 27.21 0 0 0-11.175-2.234c-5.857.069-11.917 2.1-17.215 6.145-5.313 4.04-9.857 10.004-13.244 17.85-1.678 3.885-3.079 8.238-4.169 13.092-1.905 8.492-4.208 15.6-6.744 21.47-2.974 6.887-6.266 12.063-9.589 15.854-2.494 2.847-5.002 4.92-7.454 6.411-3.685 2.229-7.249 3.195-10.752 3.342-3.496.14-6.958-.586-10.181-1.978a27.34 27.34 0 0 1-6.971-4.38c-3.076-2.643-5.356-5.862-6.473-8.798-.564-1.467-.848-2.851-.892-4.073-.041-1.228.139-2.288.526-3.277a7 7 0 0 0-13.019-5.144z" fill="#fbb807"/><path d="M275.151 219.064c-.41-5.632-2.329-10.773-5.317-14.961a27.91 27.91 0 0 0-11.649-9.442 27.21 27.21 0 0 0-11.175-2.234c-5.857.069-11.917 2.1-17.215 6.145l-.089.072c3.29 3.304 6.204 6.975 8.744 10.945 1.991-1.481 3.967-2.355 5.861-2.806a13.222 13.222 0 0 1 8.322.73 13.9 13.9 0 0 1 5.797 4.713c1.509 2.124 2.523 4.738 2.758 7.864a7 7 0 0 0 13.963-1.026z" fill="#fffcc8"/><path d="M247.389 192.424c3.772 0 7.441.787 10.796 2.236a27.91 27.91 0 0 1 11.649 9.442c2.988 4.188 4.907 9.329 5.317 14.961a7 7 0 0 1-6.99 7.514 7.001 7.001 0 0 1-6.974-6.487c-.234-3.126-1.249-5.74-2.758-7.864a13.907 13.907 0 0 0-5.797-4.713 13.212 13.212 0 0 0-8.322-.731c-2.929.695-6.048 2.381-9.126 5.803-2.042 2.282-4.039 5.352-5.782 9.387-1.292 2.991-2.442 6.512-3.361 10.605-2.068 9.212-4.61 17.145-7.553 23.956-3.88 8.98-8.461 16.028-13.602 21.371-5.131 5.34-10.854 8.945-16.725 10.891a35.335 35.335 0 0 1-11.689 1.808c-5.104-.075-9.968-1.24-14.363-3.139a41.31 41.31 0 0 1-11.704-7.654c-3.35-3.12-6.113-6.722-8.074-10.668-1.305-2.632-2.251-5.425-2.71-8.334-.614-3.865-.326-7.988 1.211-11.868a7.004 7.004 0 0 1 6.513-4.43 6.999 6.999 0 0 1 6.507 9.573c-.388.989-.567 2.05-.526 3.277.044 1.223.327 2.606.892 4.073 1.116 2.936 3.396 6.155 6.473 8.798a27.34 27.34 0 0 0 6.971 4.38c2.962 1.279 6.125 1.995 9.331 1.995.283 0 .566-.006.85-.018 3.503-.146 7.067-1.112 10.752-3.342 2.452-1.491 4.96-3.564 7.454-6.411 3.323-3.792 6.615-8.968 9.589-15.854 2.536-5.87 4.839-12.978 6.744-21.47 1.09-4.854 2.491-9.207 4.169-13.092 3.387-7.846 7.931-13.81 13.244-17.85 5.298-4.045 11.357-6.075 17.215-6.145h.379m0-3-.421.003c-6.735.079-13.306 2.416-18.993 6.759-5.883 4.474-10.655 10.883-14.178 19.046-1.773 4.104-3.234 8.688-4.342 13.623-1.774 7.907-3.985 14.951-6.571 20.938-2.651 6.141-5.71 11.209-9.091 15.066-2.138 2.438-4.411 4.399-6.758 5.826-3.005 1.818-6.055 2.771-9.317 2.907-.237.01-.481.015-.725.015-2.715 0-5.454-.589-8.142-1.749a24.42 24.42 0 0 1-6.199-3.896c-2.591-2.226-4.641-4.991-5.629-7.593-.425-1.104-.665-2.177-.698-3.114-.026-.788.075-1.449.321-2.075 2.023-5.122-.501-10.942-5.629-12.968a9.96 9.96 0 0 0-3.672-.701 9.947 9.947 0 0 0-9.303 6.328c-1.643 4.146-2.122 8.794-1.384 13.44.486 3.087 1.491 6.182 2.984 9.195 2.095 4.215 5.027 8.094 8.718 11.531a44.117 44.117 0 0 0 12.559 8.213c5.02 2.168 10.237 3.307 15.51 3.384a38.28 38.28 0 0 0 12.679-1.96c6.559-2.173 12.597-6.096 17.941-11.658 5.51-5.728 10.285-13.217 14.192-22.261 3.079-7.129 5.679-15.367 7.727-24.488.834-3.719 1.906-7.108 3.188-10.073 1.492-3.454 3.263-6.339 5.265-8.576 2.37-2.636 4.853-4.235 7.583-4.884a10.23 10.23 0 0 1 6.446.569 10.903 10.903 0 0 1 4.537 3.696c1.285 1.811 2.029 3.947 2.209 6.348.382 5.193 4.76 9.264 9.966 9.264.245 0 .492-.009.74-.027 5.499-.404 9.645-5.207 9.24-10.706-.438-6.02-2.467-11.72-5.867-16.484a30.901 30.901 0 0 0-12.901-10.453 29.998 29.998 0 0 0-11.985-2.485z" fill="#740806"/><g><g fill="#fbb807"><path d="m57.268 241.084-.002-.003-.002-.004zM216.412 187.456l-.002.001-.002.001z"/><path d="M251.146 123.988a85.26 85.26 0 0 0 .062-3.119c0-1.312-.036-2.046-.037-2.061l-.032-.634-.588-.241-.027-.011c-.318-.133-3.33-1.425-6.592-3.694-3.27-2.264-6.745-5.516-8.118-9.405l-.237-.664h-.69a4.014 4.014 0 0 1-.218-.04c-.123-.022-.267-.057-.497-.06-1.267.003-2.658.495-4 1.5a14.868 14.868 0 0 0-2.681 2.575l-.63.788.793.623c1.337 1.05 2.508 2.242 3.211 3.736.461 1.011.81 2.187.807 3.278 0 .978-.177 1.958-.54 2.958l-.004.01-.002.007c-1.031 2.989-2.761 4.872-4.648 5.955-1.473.829-3.033 1.283-4.469 1.372l-1.123.07.201 1.107c.213 1.149.516 2.331 1.122 3.324l-.002.001c.003.005.007.009.009.014l.006.012.001-.001c.385.656.846 1.268 1.438 1.786a6.284 6.284 0 0 0 2.171 1.224l-.001.002.018.006.004.002c2.562.918 4.645 1.349 6.316 1.352 1.767.002 3.155-.451 4.185-1.026l.035-.02.033-.022c.994-.657 1.849-1.505 2.43-2.667l.001.001.005-.011.004-.007h-.001c1.117-2.158 1.399-4.857 1.407-7.046a22.972 22.972 0 0 0-.177-2.85l-.022-.181-.002-.013v-.018l-.008-.063-.005-.08a.62.62 0 0 1 .121-.372l.216-.132.117-.007a.74.74 0 0 1 .417.115.4.4 0 0 1 .144.183l.003.069c.009.13.061.303.098.382l.102.214v.001a3 3 0 0 1 .097.286c.044.144.092.312.148.482l.013.039.017.039c.146.34.324.773.521 1.207.196.429.406.856.655 1.236l-.001.001.006.008.005.009.001-.001c.419.655.954 1.123 1.516 1.4.375.187.752.284 1.109.333-.02.018-.035.044-.056.06-.27.214-.564.36-1.108.367-.272 0-.612-.046-1.025-.167a.707.707 0 0 1-.132-.078c-.089-.061-.227-.172-.42-.301l-1.241-.825-.293 1.461c-.117.622-.126 1.14-.19 1.353l-.007.029-.005.03c-.277 1.479-.834 2.96-1.654 4.237-.511.766-1.326 1.589-2.217 2.214-1.21.774-2.81 1.233-4.746 1.233-1.828.001-4.02-.462-6.75-1.437-1.891-.725-3.288-1.956-4.176-3.549l-.011-.019-.012-.019c-.697-1.131-1.07-2.484-1.259-4l-.098-.782-.783-.088c-.9-.1-1.763-.199-2.469-.377l-1.533-.383.31 1.55c.11.503.218.855.208 1.017l-.008.091-.011.054-.005.055c-.041.321-.109.367-.208.453-.104.079-.326.149-.581.146a1.531 1.531 0 0 1-.273-.028 2.03 2.03 0 0 0 .059-.484c-.002-.467-.109-.887-.243-1.277a8.998 8.998 0 0 0-.463-1.07 5.15 5.15 0 0 0-.819-1.187.574.574 0 0 1-.115-.32c.004-.09.017-.106.045-.139l.07-.07.055-.082c.117-.158.19-.184.328-.193.063 0 .145.013.247.057l.188.081h.156c.081.029.192.063.331.083.271.094.765.276 1.376.387 1.238.309 2.825.63 4.642.63 1.908-.002 3.89-.312 5.614-1.343 1.664-.986 3.274-2.63 4.231-5.431l.004-.01c.33-.981.454-1.819.452-2.616.004-1.05-.248-1.924-.581-2.694-.401-.916-1.063-1.651-1.66-2.357l-.025-.03-.027-.027c-1.42-1.417-3.313-2.564-5.399-3.405v-.001l-.025-.01-.012-.005c-1.964-.874-3.971-1.483-5.547-1.89a46.016 46.016 0 0 0-2.611-.595c-.151-.03-.266-.055-.27-.056l-.244-.244-.555.146c-1.073.283-3.011 1.016-4.98 2.74-1.967 1.72-3.936 4.438-5.031 8.566a16.688 16.688 0 0 0-.581 4.444c.005 4.467 1.578 8.693 3.127 11.824a37.721 37.721 0 0 0 2.645 4.526c-1.051 1.15-3.711 3.871-7.586 6.518-4.816 3.293-11.477 6.453-19.241 6.45a28.835 28.835 0 0 1-9.961-1.741l-.211-.076-.223.021-1.579.148c-7.089.661-36.15 3.351-46.977 4.049-.332.009-5.54.177-12.506 2.694-.891-.008-1.836-.093-2.845-.094-15.184.005-30.83 4.854-42.757 12.078-5.963 3.615-10.997 7.826-14.571 12.366-3.569 4.537-5.693 9.432-5.695 14.38 0 .673.042 1.346.123 2.017v1.058c.001 4.488 1.249 8.728 2.996 12.427l.005.01c1.852 3.804 4.304 7.172 6.752 9.927l.005.006.007.008c.985 1.066 1.975 2.134 2.934 3.064-.867 1.403-2.526 4.681-2.531 9.265-.001 2.637.559 5.694 2.126 9.015 1.588 3.452 4.038 5.697 6.798 7.016 2.761 1.325 5.809 1.76 8.708 1.761 1.97 0 3.83-.208 5.574-.515l.936-.165-.118-.944c-.895-7.162-1.293-13.72-1.293-19.676.001-18.668 3.671-32.133 7.129-40.829 1.244-3.108 2.833-5.268 4.279-6.758a69.13 69.13 0 0 0-3.742 8.231l-.001.004c-3.238 8.6-6.565 21.627-6.564 39.253 0 9.05.859 19.325 3.003 30.8h-.086l.198 1.167a3747.757 3747.757 0 0 0 3.609 20.913c-5.272.377-9.543 1.341-12.979 2.733-5.52 2.23-8.908 5.573-10.853 9.129-1.95 3.555-2.477 7.279-2.478 10.327 0 1.895.204 3.535.408 4.729.102.597.204 1.083.28 1.427l.089.4.011.053v.92h57.9v-42.989l-.767-.183c-2.421-.582-4.821-1.469-7.211-2.887a53.083 53.083 0 0 0 12.175 2.754l.016.002.016.001c1.448.103 2.872.102 4.371.102 7.902 0 15.894-1.214 23.192-3.443l.019-.006.019-.006a50.511 50.511 0 0 0 7.274-3.2 24.928 24.928 0 0 1-5.814 3.643l-.953.429 23.148 45.882h49.02l.172-.786c.011-.052.39-1.793.391-4.42-.001-3.851-.817-9.659-4.936-14.714-2.057-2.523-4.935-4.835-8.88-6.586-3.79-1.684-8.574-2.847-14.568-3.239l-13.169-49.632c.262-2.359.662-6.938.662-12.782 0-5.612-.369-12.374-1.591-19.411l-.144-.829h-.138c-1.418-6.574-3.207-11.634-4.667-15.19l-.04-.095c2.193 3.395 3.695 7.032 4.645 10.268l.211.718h1.748c11.824-.004 24.342-2.211 34.138-7.001 8.224-3.988 14.527-9.57 19.331-15.828 7.208-9.389 11.062-20.284 13.128-29.721a103.306 103.306 0 0 0 2.223-16.691z"/><path d="m203.806 116.701.001-.004.001-.005z"/></g><path d="M249.972 126.258c0-.6.1-1.1.1-1.6.1-3.3.1-5.3.1-5.7v-.1s-1.3-.5-3.2-1.6c-.3-.1-.5-.3-.8-.5v.1c-3.1-.5-6.3-1.1-9.4-1.9.9 3.2 1.1 21.1-10.4 17.1-1.1-.4-2.2-.2-3.1-.6.7.9 1.5 1.6 2.7 2.1 2.5.9 4.5 1.3 6 1.3 1.6 0 2.8-.4 3.7-.9.9-.6 1.6-1.3 2.1-2.3 1-1.9 1.3-4.5 1.3-6.6 0-1.7-.2-2.9-.2-3-.1-.8.4-1.6 1.2-1.7s1.6.3 1.8 1.1v.1c0 .1 0 .1.1.3s.2.6.3.9c.3.7.7 1.7 1.1 2.3 1.4 2.2 3.8 1 3.8 1l-.1.1c-.2.3-.5 1.1-1.1 1.7-10 59.5-60.6 58.1-60.6 58.1s-10.7-19.1-23.7-13.3c5.9 7.4 10.1 16.8 10 26.9-.2 31.4-8.6 42.3-16.2 49.9-8 8-19.8 12.9-31 12.9-12.1 0-22.6-4.8-30.3-12.6.9 10 13 18.8 13 18.8l-8.6 41.7h18.5v-41.2c-4.6-1.1-9.2-3.3-13.7-8 0 0 7.5 4.7 19 5.9 1.4.1 2.8.1 4.3.1 7.8 0 15.7-1.2 22.9-3.4l2.2 2.3s14-2.4 22.6-9l13.3 26.9-6.7 3.3s28.8-2.3 28.8 23.2h12s5.7-26-27.8-27.8l-13.4-50.5c.5-4.4 1.6-17.7-.9-32.1h-.1c-3-14.5-7.9-21.7-7.4-22.2 4.8 4.7 7.6 10.8 9.1 15.9h1c11.7 0 24.1-2.2 33.7-6.9 27.9-13.7 33.1-45.9 34-60.5z" fill="#f28a1c"/><path d="M215.372 103.658c.8.2 2.1.4 3.6.9 2 .6 4.4 1.4 6.6 2.6 1-1.3 2.1-2.3 3.3-3.2 1.6-1.1 3.3-1.9 5.2-1.9h.1c-.5-9.5 14.2-20.6 14.2-20.6-.8-5-4.2-6.3-7.7-6.3-1.9 0-3.8.4-5.2.7-10.3 2.5-17.7 21-20.1 27.8z" fill="#fbb807"/><path d="M246.372 77.258c-17.6 10.2-18 25.1-18.6 27.7l1.2-.9c1.6-1.1 3.3-1.9 5.2-1.9h.1c-.5-9.5 14.2-20.6 14.2-20.6-.4-2-1.1-3.3-2.1-4.3z" fill="#f28a1c"/><path d="m253.172 118.758-.1-1.9-1.8-.7c-3.5-1.4-12.7-6.6-14-13.3-1.3-6.4 9.1-16 12.9-18.9l1.4-1.1-.3-1.8c-.9-5.6-4.7-8.8-10.6-8.8-2.3 0-4.4.5-5.9.8-12.5 3-20.5 24.3-22.6 30.7-2.9 1-8.3 4-10.6 12.4s2.2 17.2 4.6 21.1c-3.4 3.4-12.3 11.2-24 11.2-3.1 0-6.3-.5-9.3-1.6l-.6-.2-.7.1c-.4 0-36.2 3.4-48.5 4.2-.7 0-5.9.3-12.7 2.7h-2.5c-21.6 0-45.3 9.6-57.4 23.4-5.7 6.4-8.3 13.2-7.5 19.7V197.658c0 4.4 1.1 8.9 3.3 13.4 1.7 3.5 4.1 7 7.1 10.4.6.7 1.3 1.4 2 2.1-1.7 3.4-3.8 10.2.2 18.8 3 6.5 9 10 17.3 10 1.8 0 3.7-.2 5.6-.5 1.9 11.1 3.9 22.7 4.8 28.2-10.1 1.1-17.4 4.5-21.7 10.3-4.1 5.4-5.3 12.8-3.5 20.7l.2 2.6H119.972v-43.5c2.2.2 4.4.3 6.6.3 5.8 0 11.6-.6 17.2-1.8 1.6-.3 3.2-.7 4.8-1.2.1 0 .1 0 .2-.1l22.5 44.6.8 1.6H224.172l.5-2.4c.1-.5 2.4-11.3-4.5-20.3-4.9-6.4-12.9-10.1-23.9-11l-12.7-47.9c.5-4.8 1.5-17.9-1-32.1h.1c-.2-.9-.4-1.9-.6-3.1h.1c13.1 0 25.5-2.6 35-7.2 15.8-7.7 27.1-22.5 32.5-42.6 4.1-15.1 3.5-27.7 3.5-28.2zm-71 74.9h-1c-1.5-5.1-4.3-11.3-9.1-15.9-.5.5 4.5 7.7 7.4 22.2h.1c2.5 14.4 1.4 27.8.9 32.1l13.4 50.5c33.5 1.8 27.8 27.8 27.8 27.8h-47.8l-22.4-44.4c4-1.8 8-4.7 11.4-9.7 0 0-5 4.4-13.6 7.4-7.2 2.2-15.1 3.4-22.9 3.4-1.4 0-2.9 0-4.3-.1-11.4-1.1-19-5.9-19-5.9 4.5 4.7 9.1 6.9 13.7 8v41.2h-55.8c0-.6-7.8-26 25.7-27.8 0 0-1.7-10.2-3.8-22h.1c-2.3-11.9-3.2-22.5-3.2-31.8 0-17.6 3.3-30.4 6.5-38.9 1.6-4.2 3.2-7.4 4.4-9.4.6-1 1.1-1.8 1.4-2.3.2-.3.3-.4.4-.6l.1-.1s-5.5 2.2-8.7 10.2c-3.5 8.8-7.2 22.4-7.2 41.2 0 6.1.4 12.7 1.3 19.8-1.7.3-3.5.5-5.4.5-5.6 0-11.6-1.8-14.6-8.2-5-10.6.8-18 .8-18-1.1-1.1-2.3-2.3-3.5-3.6-2.4-2.8-4.8-6.1-6.6-9.7-1.8-3.7-2.9-7.7-2.9-12 0-.4.1-.8 0-1.1-2.4-19.2 30.9-39.8 61.9-39.8 1 0 2 0 3 .1 7.1-2.6 12.4-2.7 12.4-2.7 12.5-.8 48.6-4.2 48.6-4.2 3.6 1.3 7.1 1.8 10.3 1.8 16.7 0 27.8-13.9 27.8-13.9s-8.1-10.8-5.5-20.6c2.2-7.9 7.4-10 9.3-10.6.1 0 .2.1.3.1.4.1 4.5.8 8.3 2.5 1.9.9 3.8 1.9 5.1 3.2.6.6 1.2 1.3 1.5 2.1.3.7.5 1.5.5 2.3 0 .7-.1 1.5-.4 2.3-.9 2.6-2.3 4-3.8 4.9s-3.3 1.2-5.1 1.2c-1.7 0-3.3-.3-4.4-.6-.6-.1-1.1-.3-1.4-.4-.2-.1-.3-.1-.4-.1h-.1c-.6-.3-1.4-.1-1.8.5s-.4 1.3 0 1.8.4.4.7 1 .6 1.4.6 1.9c0 .3-.1.5-.2.7-.4.7 2.9 1.5 3.2-.7.1-.6-.1-1.1-.2-1.5.8.2 1.6.3 2.6.4.2 1.6.6 3.1 1.4 4.4 1 1.8 2.6 3.2 4.7 4 2.7 1 5 1.5 7.1 1.5s3.9-.5 5.3-1.4c1.1-.7 1.9-1.5 2.5-2.5 1-1.4 1.5-3 1.8-4.6.1-.5.2-1 .2-1.4.2.2.5.4.8.5 3.7 1.1 4.1-2.4 4.5-2.5 0 0-2.4 1.2-3.8-1-.4-.7-.8-1.6-1.1-2.3-.1-.4-.2-.7-.3-.9 0-.1-.1-.2-.1-.3v-.1c-.2-.8-1-1.3-1.8-1.1s-1.3.9-1.2 1.7c0 .1.2 1.3.2 3 0 2-.3 4.6-1.3 6.6-.5 1-1.2 1.7-2.1 2.3s-2 .9-3.7.9c-1.6 0-3.6-.4-6-1.3-1.4-.5-2.4-1.4-3.1-2.6-.5-.8-.8-1.9-1-3 1.6-.2 3.3-.6 4.9-1.5 2.1-1.2 4-3.4 5.1-6.5.4-1.1.6-2.2.6-3.3 0-1.4-.3-2.6-.9-3.7-.8-1.6-2.1-3-3.5-4.1.8-1 1.7-1.8 2.5-2.4 1.2-.9 2.4-1.3 3.4-1.3.2 0 .5 0 .7.1 3.1 8.6 15.3 13.7 15.3 13.7s2.5 49.9-34.2 67.9c-9.2 4.5-21.5 6.7-33.3 6.7zm58.5-118.4c3.4 0 6.9 1.2 7.7 6.3 0 0-14.6 11.1-14.2 20.6h-.1c-1.9 0-3.6.7-5.2 1.9-1.2.9-2.3 1.9-3.3 3.2-2.2-1.2-4.6-2.1-6.6-2.6-1.5-.4-2.8-.7-3.6-.9 2.4-6.9 9.8-25.3 20.1-27.7 1.4-.4 3.3-.8 5.2-.8z" fill="#740806"/><path d="M150.772 181.458c.2-23.5-12.2-27.8-25.8-27.8-16.5 0-33.4 27.3-32.2 66.1.7 21.7 12.1 34.5 31.1 34s28-13.5 27.3-29.2z" fill="#fffcc8"/><g><g fill="none"><path d="M229.762 28.941h.1c0 .1 0 0-.1 0zM231.262 29.041h.2-.2zM232.762 29.341c.1 0 .2 0 .3.1-.1-.1-.2-.1-.3-.1zM214.962 57.141v-.2zM214.962 56.941c0-.1 0-.2.1-.3-.1.1-.1.2-.1.3zM215.062 57.541c0-.1 0-.1-.1-.2 0 0 .1.1.1.2zM234.362 29.741c.1 0 .2.1.2.1 0-.1-.1-.1-.2-.1zM215.062 57.641s.1 0 0 0zM229.362 63.941c-.1 0 0 0 0 0z"/></g><path d="M229.062 64.041c.1 0 .1 0 .2-.1h.1c.1 0 .2-.1.3-.2 0 0 .1 0 .1-.1.1-.1.2-.2.2-.3 1.4-3 3.5-4.3 5.8-5.7 2.4-1 4.5-2.6 6.1-4.8l.1-.2.2-.3.6-.9c.2-.4.5-.9.7-1.3 2.4-5.2 1.5-11-1.7-15.3-1.5-1.9-3.4-3.5-5.8-4.6-.5-.2-.9-.4-1.4-.5-.1 0-.2-.1-.2-.1-.4-.1-.9-.3-1.3-.4-.1 0-.2 0-.3-.1-.5-.1-.9-.2-1.4-.2h-.2c-.4 0-.9-.1-1.3-.1h-1.2c-1 .1-1.9.2-2.9.5-.9.3-1.8.6-2.7 1-3 1.5-5.6 4-7.1 7.3-.4 1-.7 1.9-.9 2.7-.7 2.7-.5 5.5.3 8.1.5 2.6.9 5.1-.5 8.1 0 .1-.1.2-.1.3v.4c0 .1 0 .1.1.2v.2z" fill="#fbb807"/><path d="M244.162 33.141c-1.8-2.4-4.2-4.3-6.9-5.5-2.4-1.1-4.9-1.6-7.5-1.6h-1.3c-1.1.1-2.3.3-3.4.6s-2.2.7-3.2 1.2c-3.7 1.8-6.8 4.9-8.5 8.7-.5 1.1-.9 2.2-1.1 3.3-.8 3.1-.6 6.4.3 9.5.4 2.3.6 4.1-.3 6.1-.1.3-.3.8-.3 1.4-1.5 3.4-1.7 6.9.3 9.7-1 2.9-.4 5.7 3.5 7.4 3.9 1.8 6.4.4 7.9-2.2 3.1-.3 5.4-2.3 7-5.1 1-.5 1.6-1.3 1.8-1.9.9-2 2.4-3 4.5-4.2 2.8-1.3 5.3-3.2 7.1-5.6l.1-.1.1-.1.1-.1.2-.3c.2-.3.5-.7.7-1.1.3-.5.6-1 .8-1.6 2.9-6.2 2.1-13.2-1.9-18.5zm-.7 17.1c-.2.5-.4.9-.7 1.3l-.6.9-.2.3-.1.2c-1.6 2.1-3.7 3.8-6.1 4.8-2.3 1.3-4.5 2.7-5.8 5.7-.1.1-.1.2-.2.3 0 0-.1 0-.1.1-.1.1-.2.1-.3.2h-.1c-.1 0-.1 0-.2.1l-13.9-6.4v-.2c0-.1 0-.1-.1-.2v-.4c0-.1 0-.2.1-.3 1.3-2.9 1-5.5.5-8.1-.8-2.6-1-5.4-.3-8.1.2-.9.5-1.8.9-2.7 1.5-3.3 4.1-5.8 7.1-7.3.9-.4 1.8-.8 2.7-1s1.9-.4 2.9-.5H230.162c.4 0 .9 0 1.3.1h.2c.5.1.9.1 1.4.2.1 0 .2 0 .3.1.5.1.9.2 1.3.4.1 0 .2.1.2.1.5.2.9.3 1.4.5 2.4 1.1 4.3 2.7 5.8 4.6 2.9 4.3 3.8 10.1 1.4 15.3z" fill="#740806"/><path d="M230.562 35.941h.4c2.1 0 4.1.9 5.5 2.3s2.3 3.3 2.3 5.5c0 .5-.1 1.1-.2 1.6-.2.8.4 1.6 1.2 1.8s1.6-.4 1.8-1.2c.1-.7.2-1.4.2-2.2 0-5.9-4.8-10.8-10.8-10.8h-.5c-.8 0-1.5.7-1.4 1.6-.1.8.6 1.5 1.5 1.4z" fill="#fff"/><g fill="#740806"><path d="m214.562 9.341 4.8 13.1c.3.8 1.1 1.2 1.9.9s1.2-1.1.9-1.9l-4.8-13.1c-.3-.8-1.1-1.2-1.9-.9s-1.2 1.1-.9 1.9M264.662 30.041l-13.1 4.8c-.8.3-1.2 1.1-.9 1.9s1.1 1.2 1.9.9l13.1-4.8c.8-.3 1.2-1.1.9-1.9s-1.2-1.2-1.9-.9M243.862 9.341l-5.8 12.7c-.3.8 0 1.6.7 2 .8.3 1.6 0 2-.7l5.8-12.7c.3-.8 0-1.6-.7-2s-1.6-.1-2 .7"/></g></g><g><path d="M183.588 82.17c27.032-23.7 9.776-50.613 9.776-50.613l-35.41 16.92c-21.139-10.457-39.715-8.769-53.104-4.386L72.476 20.898s-21.776 23.563.892 51.695c-8.444 15.261-19.289 36.106-18.126 40.534.886 3.377 3.203 4.139 5.732 2.83-.878 3.701-.929 7.352.885 10.022 1.763 2.595 3.909 2.812 5.739 1.325 10.203 17.597 50.577 34.667 50.577 34.667s47.089-5.892 61.908-24.069c1.443 1.023 3.246.824 5.074-1.051 2.254-2.312 2.844-5.915 2.625-9.713 2.261 1.731 4.675 1.385 6.138-1.784 1.377-2.983-5.003-25.575-10.332-43.184z" fill="#fbb807"/><path d="M71.806 31.141c-2.143 4.95-9.414 22.137 5.277 37.823 0 0 4.224-8.126 9.013-13.692z" fill="#fffcc8"/><path d="M119.036 60.875s-9.517-10.768-7.697-18.898l8.423-1.523c-1.588 5.853-.726 20.421-.726 20.421zM129.931 62.104l18.766-13.654c3.965 2.029 7.08 3.588 7.08 3.588s16.229 13.97 18.784 51.337c9.099 3.389 14.04 8.001 16.672 12.133-.5-2.232-1.112-4.732-1.806-7.406-2.045-7.886-4.775-17.24-7.275-25.497l-.28-.925.727-.638c5.122-4.492 8.574-9.062 10.843-13.508 2.267-4.447 3.356-8.775 3.712-12.806.552-6.244-.67-11.783-2.06-15.796a38.082 38.082 0 0 0-2.343-5.419l-34.809 16.633-.654-.324c-6.257-3.095-12.262-5.08-17.969-6.257l.012.007c-6.297 5.437-9.4 18.532-9.4 18.532z" fill="#f28a1c"/><path d="M174.56 103.375c-8.95-3.334-21.917-5.483-40.667-4.821 0 0 1.306-24.177-9.227-25.105-10.533-.929-13.964 23.101-13.964 23.101-39.714-8.154-57.34 9.42-55.461 16.579.886 3.377 3.203 4.139 5.732 2.83-.878 3.701-.929 7.352.885 10.022 1.763 2.595 3.909 2.812 5.739 1.325 19.743 29.264 50.577 34.667 50.577 34.667s43.964-1.49 61.908-24.069c1.443 1.023 3.246.824 5.074-1.051 2.254-2.312 2.844-5.915 2.625-9.713 2.261 1.731 4.675 1.385 6.138-1.784a1.14 1.14 0 0 0 .057-.178c.486-1.982-.164-14.633-19.416-21.803z" fill="#fffcc8"/><path d="M177.208 104.444s5.54 4.898 5.844 9.575c.427 6.58-6.704 2.987-6.704 2.987 7.159 16.196-4.186 15.017-4.186 15.017-20.038 24.354-53.225 25.364-53.225 25.364S94.3 152.71 68.573 128.691c19.766 28.034 49.601 33.28 49.601 33.28s43.964-1.49 61.908-24.069c1.443 1.023 3.246.824 5.074-1.051 2.254-2.312 2.844-5.915 2.625-9.713 2.261 1.731 4.675 1.385 6.138-1.784.539-1.166.592-13.338-16.711-20.91z" fill="#e5ba97"/><path d="M148.258 124.798c1.1-.774 2.044-1.649 2.757-2.668.721-1.018 1.203-2.199 1.314-3.462a6.952 6.952 0 0 0-.205-2.312c4.165.265 8.272-.419 7.608-1.733-3.839-.101-6.985-.613-9.392-1.196a1.818 1.818 0 0 0-.522-.13c-1.718-.443-3.026-.909-3.883-1.26-1.118-.456-2.129.881-1.356 1.81.628.757 1.827 1.432 3.329 1.855.037.113.084.224.143.331.516.942.649 1.677.6 2.31-.056.551-1.529 2.689-2.213 3.211-1.205.914-2.906 1.778-4.957 2.517-3.07 1.109-6.89 2.268-11.028 2.397-8.993.281-8.57-4.158-8.57-4.158s-.757-8.582-1.51-8.589c-.765-.007-2.436 8.171-2.436 8.171s-1.382 4.692-10.107 3.248c-3.358-.556-6.236-2.071-8.61-3.435-2.173-1.237-3.855-2.628-4.898-3.981-.521-.675-.889-1.339-1.106-1.964a4.375 4.375 0 0 1-.239-1.832c.071-.735.33-1.51.907-2.374l.063-.129.087-.002c1.549-.091 2.856-.52 3.584-1.135.817-.69.143-2.012-.901-1.788-1.955.42-6.3 1.04-12.423.116-.729.97 2.236 2.104 5.611 2.59a8.124 8.124 0 0 0-.608 2.397 8.051 8.051 0 0 0 .433 3.364c.651 1.874 1.809 3.667 3.551 5.023 17.146 13.362 27.113 5.831 27.113 5.831 12.025 9.649 26.709-2.213 27.864-3.023z" fill="#740806"/><g fill="#e93e8f"><path d="M95.477 104.459c.157-1.775-3.953-3.588-9.179-4.049-5.227-.461-9.591.605-9.748 2.38-.156 1.774 3.953 3.587 9.181 4.048 5.226.461 9.589-.605 9.746-2.379zM170.394 111.065c.157-1.775-3.953-3.588-9.179-4.049-5.227-.461-9.591.605-9.748 2.38-.156 1.774 3.953 3.587 9.181 4.048 5.225.461 9.59-.605 9.746-2.379z"/></g><path d="M121.349 102.503c-30.042-2.649-8.604 12.107-1.126 12.766 7.479.66 31.169-10.117 1.126-12.766z" fill="#e93e8f"/><path d="M117.034 105.346c-.668-.387-1.608-.673-2.666-.766-1.365-.12-2.592.11-3.322.554-.408.248-.662.563-.694.924-.089 1.004 1.566 1.969 3.695 2.157s3.927-.474 4.015-1.477c.045-.505-.352-1-1.028-1.392z" fill="#fff"/><path d="M180.958 78.122s-4.439-12.557-12.449-21.135l23.894-16.569s8.667 22.661-11.445 37.704z" fill="#fffcc8"/><path d="M191.863 118.49c-.181-.922-.394-1.925-.632-2.982-2.632-4.132-7.573-8.745-16.672-12.133-2.555-37.367-18.784-51.337-18.784-51.337s-3.115-1.559-7.08-3.588L129.93 62.104s3.103-13.095 9.402-18.533l-.012-.007a66.609 66.609 0 0 0-7.614-1.14c-10.088-.889-19.031.684-26.391 3.093l-.723.236-31.858-22.822c-.112.142-.221.28-.351.451a38.802 38.802 0 0 0-2.806 4.298c-2.099 3.716-4.331 9.023-4.889 15.366-.356 4.051-.038 8.526 1.434 13.326 1.473 4.8 4.104 9.932 8.411 15.28l.632.786-.488.883c-3.403 6.15-7.195 13.206-10.422 19.708-3.226 6.493-5.892 12.471-7.013 16.295-.321 1.086-.512 1.995-.566 2.624-.01.109-.015.208-.017.298v.011l-.001.01c-.004.097-.003.166.001.207l.002.015.001.016c.007.137.025.232.028.238l.001.003c.24.92.584 1.497.904 1.821.326.323.607.445 1 .487.415.039.994-.069 1.688-.429l2.904-1.504-.755 3.182a20.588 20.588 0 0 0-.493 2.941c-.103 1.173-.071 2.28.116 3.269.189.991.527 1.864 1.043 2.623.405.597.803.991 1.147 1.231.347.239.631.331.897.355.419.035.9-.096 1.508-.582l1.435-1.166.845 1.646c2.8 5.458 7.135 10.291 12.131 14.463 4.993 4.172 10.638 7.677 16.004 10.503 10.438 5.5 19.794 8.425 21.292 8.875.014-.001.018 0 .033-.002a112.998 112.998 0 0 0 3.981-.294c2.694-.247 6.496-.679 10.905-1.417 8.815-1.473 20.059-4.184 29.679-9.03 6.416-3.227 12.09-7.394 15.91-12.693l.87-1.205 1.213.86c.303.212.566.305.838.331.266.021.563-.019.948-.194.382-.175.843-.494 1.347-1.012.64-.657 1.126-1.457 1.486-2.401.359-.941.584-2.025.687-3.198a20.63 20.63 0 0 0 .029-2.982l-.187-3.266 2.597 1.989c.62.475 1.172.684 1.586.718.394.027.693-.044 1.07-.305.369-.262.805-.767 1.201-1.622l.009-.033c.01-.047.025-.13.033-.241.041-.432.01-1.236-.115-2.257a52.167 52.167 0 0 0-.614-3.717z" fill="none"/><path d="m53.792 113.511-.001-.002v-.001z" fill="#740806"/><path d="M114.575 86.522c.027-.539.03-1.069.026-1.598-.072-9.621-5.204-17.435-11.937-17.778-7.099-.361-13.283 7.731-13.809 18.072-.416 8.236 2.886 15.399 7.832 18.162 1.264.707 2.632 1.141 4.078 1.214.443.022.881.011 1.316-.03 6.535-.626 12.001-8.344 12.494-18.042z" fill="#fff"/><path d="M92.47 61.551a20.697 20.697 0 0 1 3.907-3.1c6.506-3.961 13.59-1.669 17.48 4.032.433.633 1.327-.047 1.117-.846-1.258-4.784-4.082-11.28-10.161-11.532-6.631-.275-10.992 6.02-13.249 10.515-.383.764.339 1.504.906.931z" fill="#740806"/><path d="M158.846 77.091c-1.662.604-3.564.871-5.709.682-4.743-.418-7.956-2.802-9.748-5.969-5.562 2.486-9.791 9.166-10.266 17.26-.038.653-.05 1.3-.038 1.939.092 5.109 1.737 9.712 4.371 12.998 2.37 2.957 5.541 4.847 9.115 5.057 2.677.156 5.232-.665 7.484-2.195 4.515-3.069 7.786-9.045 8.198-16.098.305-5.232-1.019-10.066-3.407-13.674z" fill="#fff"/><g fill="#740806"><path d="M88.856 85.218c.525-10.34 6.709-18.432 13.809-18.072 6.732.342 11.864 8.158 11.937 17.778l.018-.211c.562-11.087-5.155-20.388-12.768-20.775-7.615-.386-14.242 8.29-14.805 19.376-.298 5.863 1.172 11.211 3.74 15.022 1.593 2.365 3.608 4.13 5.903 5.044-4.948-2.763-8.25-9.925-7.834-18.162zM166.027 71.319c-6.518 4.757-15.673 4.757-22.047-1.741a24.583 24.583 0 0 1-3.589-4.673c-.48-.81-1.581-.268-1.383.681a33.729 33.729 0 0 0 1.319 4.671c-4.084 3.564-6.948 9.449-7.349 16.272a27.222 27.222 0 0 0 .107 4.476c-.011-.639.001-1.286.038-1.939.418-7.122 3.746-13.143 8.328-16.183 1.89 3.826 4.901 7.342 9.72 8.558 3.458.873 6.513-.027 9.105-1.703 1.456 3.186 2.214 6.979 1.977 11.03-.412 7.053-3.683 13.029-8.198 16.098 3.218-1.62 5.985-4.549 7.886-8.304 1.499-2.962 2.464-6.432 2.684-10.183.228-3.906-.398-7.592-1.644-10.796 1.634-1.559 3.01-3.341 4.085-4.971.516-.784-.315-1.823-1.039-1.293z"/><path d="M154.814 93.746c.511-.967-.557-1.964-1.545-1.498-3.229 1.608-9.009 3.386-13.471-1.244-.774-.804-2.094-.219-1.957.89.397 2.769 2.433 6.254 7.649 6.956 5.305.744 8.837-4.07 9.324-5.104zM110.966 90.022c.511-.967-.557-1.964-1.545-1.498-3.229 1.608-9.009 3.386-13.471-1.244-.774-.804-2.094-.219-1.957.89.397 2.769 2.433 6.254 7.649 6.956 5.303.743 8.836-4.071 9.324-5.104z"/></g><path d="M108.323 146.975s7.096-7.426 16.437-1.771c-.956-7.42-14.207-9.304-16.437 1.771z" fill="#740806"/><path d="M195.456 121.849c-.479-3.946-1.989-10.299-3.929-17.545-1.861-6.939-4.116-14.654-6.231-21.665 4.983-4.511 8.481-9.16 10.819-13.742 2.451-4.804 3.643-9.528 4.028-13.907.607-6.895-.766-12.929-2.284-17.244-1.52-4.317-3.187-6.927-3.233-6.998l-.715-1.115-35.964 17.186c-9.187-4.446-17.928-6.674-25.976-7.383-10.224-.901-19.322.62-26.857 3L72.272 18.908l-.899.973c-.058.063-2.156 2.34-4.406 6.324-2.249 3.983-4.656 9.682-5.265 16.578-.389 4.4-.038 9.284 1.555 14.47 1.515 4.938 4.17 10.146 8.324 15.479-3.785 6.863-7.987 14.733-11.368 21.742-1.762 3.651-3.3 7.064-4.444 9.992-.572 1.464-1.046 2.808-1.4 4.012-.353 1.206-.591 2.263-.676 3.209a8.228 8.228 0 0 0-.027.464h-.001v.007l-.001.013h.001a4.82 4.82 0 0 0 .008.516h-.002l.002.022v.009h.001c.017.244.043.502.119.793.338 1.282.876 2.351 1.658 3.155a4.544 4.544 0 0 0 2.882 1.379c.248.022.495.015.741.001-.043.312-.094.626-.122.938-.122 1.389-.094 2.764.157 4.092.251 1.325.732 2.605 1.51 3.749.568.836 1.203 1.511 1.919 2.009.713.498 1.519.808 2.344.879a4.62 4.62 0 0 0 2.151-.341c3.138 5.534 7.61 10.329 12.613 14.434 8.129 6.663 17.631 11.541 25.116 14.777 7.484 3.234 12.952 4.818 12.996 4.831l.233.068.243-.01c.061-.004 11.597-.455 25.22-3.724 6.813-1.637 14.15-3.977 20.852-7.349 6.304-3.175 12.041-7.283 16.211-12.618.326.108.662.189 1.009.218.825.075 1.673-.09 2.464-.455.793-.365 1.537-.92 2.243-1.644.966-.99 1.663-2.166 2.141-3.428.48-1.263.748-2.613.871-4.002.027-.312.031-.629.044-.944.24.057.481.107.73.129a4.538 4.538 0 0 0 3.079-.854c.912-.654 1.63-1.613 2.186-2.818.197-.438.259-.831.299-1.255.067-.807.007-1.742-.127-2.879zm-2.896 2.856-.009.033c-.397.854-.833 1.359-1.201 1.622-.377.261-.676.332-1.07.305-.416-.035-.966-.242-1.586-.718l-2.597-1.989.187 3.266a20.774 20.774 0 0 1-.029 2.982c-.104 1.174-.328 2.257-.687 3.198-.359.943-.845 1.742-1.486 2.401-.503.518-.965.837-1.347 1.012-.385.175-.682.215-.948.194-.271-.026-.536-.118-.838-.331l-1.213-.86-.87 1.205c-3.819 5.298-9.493 9.465-15.91 12.693-9.62 4.846-20.863 7.557-29.679 9.03-4.408.738-8.211 1.17-10.905 1.417-1.347.123-2.417.201-3.148.246-.365.023-.646.038-.833.048l-.033.002c-1.498-.451-10.853-3.375-21.292-8.875-5.367-2.826-11.011-6.332-16.004-10.503-4.995-4.171-9.329-9.005-12.131-14.463l-.845-1.646-1.435 1.166c-.608.486-1.089.617-1.508.582-.265-.025-.549-.117-.897-.355-.344-.238-.742-.633-1.147-1.231-.515-.759-.854-1.631-1.043-2.623-.189-.989-.221-2.095-.116-3.269.083-.946.254-1.936.493-2.941l.755-3.182-2.904 1.504c-.694.36-1.273.468-1.688.429-.393-.043-.674-.165-1-.487-.319-.324-.662-.902-.904-1.821l-.001-.003a1.707 1.707 0 0 1-.028-.238l-.001-.016-.002-.015a2.18 2.18 0 0 1-.001-.207l.001-.01v-.011c.002-.089.008-.189.017-.298.054-.63.245-1.538.566-2.624 1.121-3.824 3.788-9.802 7.013-16.295 3.228-6.502 7.019-13.558 10.422-19.708l.488-.883-.632-.786c-4.309-5.348-6.938-10.481-8.411-15.28-1.472-4.8-1.791-9.275-1.434-13.326.558-6.342 2.79-11.651 4.889-15.366a38.947 38.947 0 0 1 2.806-4.298c.13-.171.239-.309.351-.451l31.857 22.821.723-.236c7.36-2.409 16.303-3.983 26.391-3.093 2.468.218 5.013.604 7.614 1.14 5.707 1.178 11.71 3.163 17.969 6.257l.654.324 34.809-16.633a38.018 38.018 0 0 1 2.343 5.419c1.39 4.012 2.611 9.552 2.06 15.796-.357 4.032-1.445 8.36-3.712 12.806-2.269 4.446-5.721 9.016-10.843 13.508l-.727.638.28.925c2.499 8.257 5.229 17.612 7.275 25.497a232.073 232.073 0 0 1 1.806 7.406c.237 1.057.45 2.059.632 2.982.282 1.434.491 2.693.615 3.717.126 1.021.156 1.825.115 2.257a2.816 2.816 0 0 1-.036.243z" fill="#740806"/><path d="M118.725 44.425s-2.154-.096-3.449 1.075c-1.157 1.045-2.076 4.927 2.18 5.695 5.454.986 16.378-4.003 15.759-9.307-.569-.412-18.131-15.012-21.706-8.222-1.247 2.368-.352 5.281 1.338 7.139 2.296 2.524 5.878 3.62 5.878 3.62z" fill="#fbb807"/><path d="M128.119 48.619c-3.158 1.813-7.135 2.919-9.983 2.668a7.89 7.89 0 0 1-.681-.09c-4.256-.769-3.336-4.65-2.179-5.695 1.296-1.17 3.449-1.075 3.449-1.075s-3.582-1.097-5.878-3.619c-1.69-1.858-2.584-4.772-1.338-7.14.763-1.448 2.161-1.923 3.896-1.77 6.398.564 17.404 10.407 17.853 10.73 0 0 2.808.021 2.683-1.055l-.14-1.198-.977-.708-.188-.151c-5.597-4.452-13.433-9.862-18.988-10.352-4.047-.357-5.85 1.868-6.566 3.226-1.926 3.657-.514 7.79 1.737 10.264a13.495 13.495 0 0 0 1.863 1.686c-.924 1.346-1.452 3.348-.892 5.31.633 2.219 2.521 3.767 5.178 4.247.297.053.609.095.928.123 3.701.326 10.567-4.52 10.223-5.401z" fill="#740806"/></g></g></svg>