<svg height="512" viewBox="0 0 321 321" width="512" xmlns="http://www.w3.org/2000/svg"><circle cx="160.5" cy="160.5" fill="#d0df92" r="150.2"/><g fill="#740806"><path d="M213.726 296.145c11.662-2.373 29.766-4 32.75-4 .949 0 1.831.136 2.644.475 1.424-3.526 4.882-6.035 8.882-6.035 1.017 0 1.966.136 2.916.475 2.373-3.594 6.441-6.035 11.052-6.035 7.255 0 13.154 5.899 13.154 13.154 0 .678-.068 1.356-.136 1.966zM82.669 313.766c11.662-2.373 29.766-4 32.75-4 .949 0 1.831.136 2.644.475 1.424-3.526 4.882-6.035 8.882-6.035 1.017 0 1.966.136 2.916.475 2.373-3.594 6.441-6.035 11.052-6.035 7.255 0 13.154 5.899 13.154 13.154 0 .678-.068 1.356-.136 1.966z"/></g><path d="M240.446 220.972c-7-8.4-20-13.8-33.2-13.8-19 0-34.3 10.6-42.2 29.1-5.4 12.8-10.1 12.8-11.6 12.8-3 0-6.4-1.8-9.9-3.8-4.1-2.3-8.4-4.6-13.1-4.6-1.6 0-3.1.3-4.6.8l-1.1.4-.5 1.1-19.2 40.6-1.1 2.4 2.3 1.4c3.8 2.3 7.9 3.5 12.3 3.5 8.5 0 15.8-4.5 19.5-7.2 6.8 8.1 15 12.3 24.4 12.3h.9c3.9-.1 8.5-1.3 13.9-3.6 14.7-6.2 34.1-20.5 48.3-35.5 8.9-9.4 22.6-26.5 14.9-35.9zm-17 33.8c-13.3 14.1-32.3 28.5-47.3 34.8-4.8 2-9.2 3.2-12.8 3.3h-.8c-8.6 0-16.8-3.8-23.9-13.5 0 0-9 8.5-20 8.5-3.5 0-7.1-.8-10.7-3.1l19.1-40.5c1.2-.4 2.4-.6 3.6-.6 7.8 0 15.5 8.4 23 8.4 4.8 0 9.7-3.4 14.4-14.6 8.2-19.9 24.2-27.3 39.2-27.3 12.7 0 24.7 5.3 30.9 12.7 5 6.1-2.5 18.9-14.7 31.9z" fill="#740806"/><path d="M223.446 254.772c-13.3 14.1-32.3 28.5-47.3 34.8-4.8 2-9.2 3.2-12.8 3.3h-.8c-8.6 0-16.8-3.8-23.9-13.5 0 0-9 8.5-20 8.5-3.5 0-7.1-.8-10.7-3.1l19.1-40.5c1.2-.4 2.4-.6 3.6-.6 7.8 0 15.5 8.4 23 8.4 4.8 0 9.7-3.4 14.4-14.6 8.2-19.9 24.2-27.3 39.2-27.3 12.7 0 24.7 5.3 30.9 12.7 5 6.1-2.5 18.9-14.7 31.9z" fill="#f28a1c"/><path d="M175.523 248.197c1.275 3.974 1.287 8.106.417 11.923-.651 2.872-1.782 5.595-3.26 8.134-2.22 3.808-5.218 7.217-8.768 10.106a41.324 41.324 0 0 1-12.189 6.856c-4.512 1.602-9.442 2.439-14.54 2.174a35.306 35.306 0 0 1-11.542-2.583c-5.729-2.332-11.199-6.312-15.962-11.981-4.772-5.674-8.874-13.012-12.146-22.231-2.48-6.992-4.489-15.077-5.938-24.406-.644-4.146-1.556-7.734-2.646-10.806-1.47-4.143-3.259-7.339-5.145-9.752-2.842-3.619-5.843-5.509-8.718-6.398-2.88-.875-5.727-.751-8.353.174a13.922 13.922 0 0 0-6.099 4.316c-1.646 2.019-2.834 4.56-3.275 7.663a7.001 7.001 0 0 1-13.863-1.955c.785-5.592 3.042-10.595 6.303-14.573a27.92 27.92 0 0 1 12.253-8.645 27.206 27.206 0 0 1 11.3-1.484c5.84.46 11.75 2.89 16.767 7.278 5.032 4.387 9.168 10.64 12.023 18.693 1.415 3.988 2.523 8.425 3.287 13.341 1.335 8.601 3.158 15.846 5.297 21.872 2.508 7.069 5.447 12.453 8.51 16.458 2.3 3.007 4.663 5.243 7.011 6.895 3.527 2.471 7.02 3.672 10.505 4.052 3.479.371 6.981-.121 10.29-1.294a27.306 27.306 0 0 0 7.247-3.906c3.245-2.431 5.736-5.491 7.045-8.346.661-1.427 1.036-2.788 1.161-4.005.123-1.223.015-2.292-.307-3.306a7 7 0 0 1 13.335-4.264z" fill="#fbb807"/><path d="M43.497 209.43c.785-5.592 3.042-10.595 6.303-14.573a27.92 27.92 0 0 1 12.253-8.645 27.206 27.206 0 0 1 11.3-1.484c5.84.46 11.75 2.89 16.767 7.278l.083.078c-3.502 3.077-6.655 6.546-9.454 10.338-1.889-1.61-3.801-2.615-5.661-3.19-2.88-.875-5.727-.751-8.353.174a13.922 13.922 0 0 0-6.099 4.316c-1.646 2.019-2.834 4.56-3.275 7.663a7.001 7.001 0 0 1-13.864-1.955z" fill="#fffcc8"/><path d="M71.166 184.64c.727 0 1.455.029 2.187.088 5.84.46 11.75 2.89 16.767 7.278 5.032 4.387 9.168 10.64 12.023 18.693 1.415 3.988 2.523 8.425 3.287 13.341 1.335 8.601 3.158 15.846 5.297 21.872 2.508 7.069 5.447 12.453 8.51 16.458 2.3 3.007 4.663 5.243 7.011 6.895 3.527 2.471 7.02 3.672 10.505 4.052.766.082 1.533.122 2.299.122 2.713 0 5.411-.501 7.991-1.416a27.306 27.306 0 0 0 7.247-3.906c3.245-2.431 5.736-5.491 7.045-8.346.661-1.427 1.036-2.788 1.161-4.005.123-1.223.015-2.292-.307-3.306a7 7 0 0 1 13.335-4.264c1.275 3.974 1.287 8.106.417 11.923-.651 2.872-1.782 5.595-3.26 8.134-2.22 3.808-5.218 7.217-8.768 10.106a41.324 41.324 0 0 1-12.189 6.856c-3.958 1.405-8.239 2.223-12.672 2.223a35.306 35.306 0 0 1-13.41-2.632c-5.729-2.332-11.199-6.312-15.962-11.981-4.772-5.674-8.874-13.012-12.146-22.231-2.48-6.992-4.489-15.077-5.938-24.406-.644-4.146-1.556-7.734-2.646-10.806-1.47-4.143-3.259-7.339-5.145-9.752-2.842-3.619-5.843-5.509-8.718-6.398a13.478 13.478 0 0 0-3.925-.593c-1.521 0-3.006.267-4.428.767a13.922 13.922 0 0 0-6.099 4.316c-1.646 2.019-2.834 4.56-3.275 7.663a7.002 7.002 0 0 1-7.909 5.954 7 7 0 0 1-5.954-7.909c.785-5.592 3.042-10.595 6.303-14.573a27.92 27.92 0 0 1 12.253-8.645 27.249 27.249 0 0 1 9.113-1.572m-10.116-1.255a30.91 30.91 0 0 0-13.57 9.569c-3.71 4.527-6.114 10.08-6.953 16.057-.77 5.46 3.046 10.528 8.506 11.298.465.066.938.1 1.405.1 4.948 0 9.202-3.699 9.893-8.601.34-2.383 1.225-4.466 2.628-6.187a10.895 10.895 0 0 1 4.773-3.386 10.297 10.297 0 0 1 3.431-.597c1.015 0 2.041.156 3.038.459 2.682.829 5.051 2.591 7.241 5.379 1.848 2.365 3.422 5.362 4.681 8.908 1.08 3.044 1.924 6.497 2.509 10.264 1.435 9.237 3.479 17.631 6.075 24.949 3.295 9.283 7.561 17.075 12.677 23.157 4.962 5.907 10.725 10.224 17.124 12.829a38.288 38.288 0 0 0 14.545 2.855c4.597 0 9.198-.807 13.677-2.396a44.138 44.138 0 0 0 13.078-7.357c3.911-3.183 7.096-6.857 9.468-10.924 1.691-2.907 2.899-5.928 3.591-8.976 1.046-4.587.878-9.257-.484-13.503a9.966 9.966 0 0 0-9.523-6.956c-1.032 0-2.058.16-3.047.477a9.934 9.934 0 0 0-5.843 4.943 9.926 9.926 0 0 0-.639 7.62c.203.642.261 1.308.182 2.093-.096.933-.406 1.986-.904 3.061-1.159 2.529-3.389 5.152-6.122 7.199a24.39 24.39 0 0 1-6.445 3.475c-2.326.825-4.678 1.244-6.988 1.244a18.66 18.66 0 0 1-1.974-.104c-3.247-.354-6.227-1.508-9.104-3.522-2.246-1.58-4.384-3.688-6.354-6.264-3.116-4.074-5.83-9.336-8.066-15.639-2.181-6.146-3.917-13.322-5.16-21.33-.776-4.997-1.928-9.668-3.423-13.882-2.972-8.38-7.305-15.093-12.877-19.949-5.385-4.712-11.784-7.482-18.5-8.011a30.174 30.174 0 0 0-12.546 1.648z" fill="#740806"/><path d="M220.246 155.772s11.1 9.2 18.6 25.2c3.6 8.3 6.2 18.5 5.8 31-3.2-2.1-7.7-3.7-13.4-4.8-6.3-1.3-13.9-1.9-22.4-1.9-12.5 0-25.8 1.4-37.5 3.9-3.7.8-13.4 3.1-14.8 7.4 4.5-1.7 9.8-3.3 15.5-4.5 11.5-2.5 24.7-3.9 36.9-3.9 8 0 15.5.6 21.8 1.9 5.1 1 9.4 2.5 12.4 4.5.5.3.9.6 1.4.9 1 .7 1.9 1.5 2.8 2.4 5.1 4.9 8.3 11.9 8.6 21.9 0 0 1.8-.3 4.5-.3 6.6 0 18.8 1.7 23.9 13.2l-38.6 22.6c-11.2-2.7-10.5-22.6-22.7-23.1h-.5c-3.3 0-7.6 1.4-13.2 4.8-.4.3-.9.6-1.4.9-8.5 5.5-16.8 7.7-24.5 7.7-12.3 0-23-5.8-30.6-13.5-6.4-6.6-10.5-14.7-11.1-21.9v-1.4l-.1.1c-1-4.7-3-16-2.4-28.7 3.8-1.8 11.5-5.9 13.7-11.7 0 0-8.7 6.9-17.1 9.5-1.5.4-2.9.7-4.2.9.9-3.6 1.8-12.2-6.2-18.1 0 0 5.5 9.4 2.3 18.3-1.05-.09-1.72-.18-1.87-.19.59.3 1.08.6 1.57.89v.1l.3.1c7.9 4.9 3.5 9.9 3.5 9.9s2.8 2.6 1 6c-4.1 7.7-10.7 10-16.7 10-3.5 0-6.8-.8-9.2-1.7-19.6-7.5-32.7-74.7 58.2-74.7h4.3c-.1.4-.2.7-.3 1.1 6.1-2.6 13.4-4.2 22.2-4.6 0 0 .6-.1 1.7-.1 1.3 0 3.3.1 5.8.4l.1-.1s23.5-3.9 42.7-23.2c1.7-1.7 3.2-4.1 3.4-6.5.4-3.6-1.8-7.1-3.8-9.9-1.3-1.8-2.7-3.5-4.3-5 0 0-.7-4.9 4.7-6 .4-.1.7-.1 1.1-.1 2.9 0 7.2 2.1 8.9 7.9 0 0 4.9-9.4 5.1-9.9 1.3-4.3 2.2-8.4 2.7-11.3.6-3 3.2-5.1 6.1-5.1.4 0 .9 0 1.3.1 8.08 1.67 2.18 18.29 2.01 18.79.21-.22 3.67-3.91 9.39-10.59 1.1-1.3 2.8-2.1 4.5-2.1 1 0 2.1.3 2.8 1.1 2.3 2.2 4.3 2.8 2.8 8.6-1.1 4.1-9.4 11.4-9.4 11.4h10c5.3.1 6.1 7.2 2.2 10.9-2.8 2.7-7.7 3.3-11.2 3.3-2.2 0-3.8-.2-4.1-.3-.1.1.3 7.4-10.5 12.3-.5.4-11 28.3-31.6 36-3.5-4.3-7.8-8.2-12.9-10.8z" fill="#fbb807"/><g fill="#f28a1c"><path d="M294.043 110.468c-2.9 2.6-6.7 4.2-10.6 4.2-4.6 0-8.6-2-11.4-5v.4c.4 8.5-7.5 15.8-15.8 15.8-1.5 0-2.9-.2-4.2-.6-.3 4.3 5.9 5.3 5.9 5.3s-12.2 17.5-23.8 24.9c-4.6 3-12-1.3-14.1-.2 2.2 1.7 4.4 3.5 6.5 5.5 5.4 4.9 9.7 10.8 13 17.1-1.7-3.6-3.6-6.8-5.3-9.5 12.3-4.8 23.4-17.4 31.7-35.8l.1-.2c7.6-3.7 10-8.6 10.7-11.7.7 0 1.5.1 2.4.1 3.9 0 9.3-.7 12.6-3.8 1.8-1.7 2.8-4.1 3-6.5-.3-.1-.5 0-.7 0zM135.343 161.668c4.5-.5 20.2-12 19.8-14-18.7 1-33.8 5.2-44.9 12.4-13.4 8.8-18 20.2-19.5 28.2-3.3 17.6 5.1 34 14.7 37.7 1.8.7 5.5 1.8 9.9 1.8 5.8 0 13.7-1.9 18.5-11 .4-.7.6-1.3.7-2-3.2 2.4-7.1 7.2-15.4 5.9-10.2-1.5-19.4-5.5-19.4-24.8.1-7.7 4.2-31.1 35.6-34.2z"/><path d="M247.643 255.768c-.1-1.1 0-2.2.2-3.3-5.4-7-12.2-13.7-18.7-13.7-13.3.1-22.5 13.5-44.4 14.1-14.9.4-29.4-10.5-34.2-24.5-1.6-4.7-2.2-29-2.2-29s4.8-5.1 4.2-10c0 0-7.1 5.2-7.1 5.1-3.2 2.5-7.2 4.2-11.3 4.5.1.4.2.9.2 1.3.9-.2 1.9-.5 2.9-.8-.8 16.5 2.6 30.5 3 32.1.8 6.3 4 11.9 9.3 16.6 11.5 14.8 34.2 25.2 58.4 9.6 1.9-1.2 3.6-2.2 5.2-3 2.3-.7 4.5-1.5 6.7-2.4 15.6-3 13.8 19.9 25.9 22.8l8.3-4.9c-3.8-3.6-6.2-8.8-6.4-14.5z"/></g><g><path d="M224.543 207.668c-.2-34.5-15.1-58.5-30.5-59-13.5-.4-26.1 3.5-26.6 27l-1.5 36.6c18.9-4.9 42.6-7.1 58.6-4.6z" fill="#fffcc8"/></g><g fill="#740806"><path d="M298.343 102.368c.2.2.3.3.4.5 2.1 2.5 3.1 5.5 3.1 8.6 0 3.9-1.7 7.7-4.9 10.4-.7.6-1.5 1.1-2.3 1.5-.7.4-1 1.3-.6 2s1.3 1 2 .6c1-.5 1.9-1.1 2.8-1.9 4-3.3 6-8 6-12.7 0-3.7-1.2-7.4-3.8-10.5-.2-.2-.4-.4-.5-.6-.6-.6-1.5-.7-2.1-.1-.6.7-.7 1.6-.1 2.2zM249.143 79.968c0-.2 0-.5.1-.7.7-7.4 7-12.9 14.2-12.9.5 0 .9 0 1.4.1 1 .1 1.9.3 2.8.6.8.2 1.6-.2 1.9-1 .2-.8-.2-1.6-1-1.9-1.1-.3-2.3-.6-3.4-.7-.6-.1-1.1-.1-1.7-.1-8.8 0-16.4 6.7-17.2 15.7 0 .3 0 .6-.1.9 0 .8.6 1.5 1.4 1.6.9-.1 1.6-.7 1.6-1.6z"/></g><path d="M266.746 133.072c7.1-3.5 9.8-8.1 10.7-11.4h1.6c4.1 0 9.7-.7 13.3-4.1 3-2.9 4.1-7.5 2.7-11.2-1.1-3-3.7-4.8-6.9-4.9h-2.7c2.2-2.4 4.4-5.3 5-7.6 1.6-6.3-.2-8.5-2.8-10.8-.3-.2-.6-.5-.8-.8-1.3-1.2-3-1.9-4.9-1.9-2.5 0-5.1 1.2-6.8 3.1-.7.8-1.3 1.5-1.9 2.2.1-2.7-.2-5.5-1.3-7.6-1.1-2-2.9-3.4-5.2-3.8-.6-.1-1.3-.2-1.9-.2-4.4 0-8.2 3.2-9.1 7.5-.5 2.7-1.4 6.7-2.6 10.9-.2.5-1.1 2.3-2.3 4.5-2.5-3.1-5.9-4.5-8.9-4.5-.6 0-1.2.1-1.8.2-5.9 1.3-7.5 6.3-7 9.4l.1 1 .8.7c1.3 1.3 2.7 2.8 4 4.6 1.5 2.1 3.5 5.2 3.2 7.8-.1 1.4-1.1 3.2-2.5 4.7-17.3 17.4-38.6 21.9-40.9 22.4-2.4-.3-4.3-.4-5.5-.4-1 0-1.6 0-1.8.1-7.3.3-13.9 1.5-19.8 3.6h-6.2c-23.2 0-41.6 4.3-54.7 12.8-13.7 9-18.4 20.6-20 28.8-3.4 18.1 5.4 35 15.4 38.8 1.9.7 5.7 1.9 10.3 1.9 8.5 0 15.4-4.1 19.4-11.6 1.6-3 1-5.8-.1-7.6.5-1.2.9-2.9.5-4.9-.2-1.1-.7-2.2-1.4-3.2.8-.1 1.5-.3 2.4-.6-.4 13.2 1.7 24.5 2.6 29h-.1v.4c.8 8.6 5.9 18.2 13.7 25.5 8.7 8.2 19.7 12.7 30.9 12.7 8.9 0 17.7-2.8 26.2-8.2 5.3-3.4 9.7-5.2 12.9-5.2 4.7 0 6.9 3.8 10 9.9 2.7 5.4 5.9 11.5 12.5 13.1l1.2.3 1-.6 38.6-22.6 2.3-1.4-1.1-2.4c-5.8-13-19.2-14.9-26.7-14.9h-1.7c-.9-9.6-4.7-17.1-11.1-22.4 1.1-21-5.7-35.6-11.8-45.4 12.1-5.2 23-17.7 31-35.7zm-33.6 33.5c-3.5-4.3-7.8-8.2-12.9-10.8 0 0 11.1 9.2 18.6 25.2 3.6 8.3 6.2 18.5 5.8 31-3.2-2.1-7.7-3.7-13.4-4.8-6.3-1.3-13.9-1.9-22.4-1.9-12.5 0-25.8 1.4-37.5 3.9-3.7.8-13.4 3.1-14.8 7.4 4.5-1.7 9.8-3.3 15.5-4.5 11.5-2.5 24.7-3.9 36.9-3.9 8 0 15.5.6 21.8 1.9 5.1 1 9.4 2.5 12.4 4.5.5.3.9.6 1.4.9 1 .7 1.9 1.5 2.8 2.4 5.1 4.9 8.3 11.9 8.6 21.9 0 0 1.8-.3 4.5-.3 6.6 0 18.8 1.7 23.9 13.2l-38.6 22.6c-11.2-2.7-10.5-22.6-22.7-23.1h-.5c-3.3 0-7.6 1.4-13.2 4.8-.4.3-.9.6-1.4.9-8.5 5.5-16.8 7.7-24.5 7.7-12.3 0-23-5.8-30.6-13.5-6.4-6.6-10.5-14.7-11.1-21.9v-1.4l-.1.1c-1-4.7-3-16-2.4-28.7 3.8-1.8 11.5-5.9 13.7-11.7 0 0-8.7 6.9-17.1 9.5-1.5.4-2.9.7-4.2.9.9-3.6 1.8-12.2-6.2-18.1 0 0 5.5 9.4 2.3 18.3-1.05-.09-1.72-.18-1.87-.19.59.3 1.08.6 1.57.89v.1l.3.1c7.9 4.9 3.5 9.9 3.5 9.9s2.8 2.6 1 6c-4.1 7.7-10.7 10-16.7 10-3.5 0-6.8-.8-9.2-1.7-19.6-7.5-32.7-74.7 58.2-74.7h4.3c-.1.4-.2.7-.3 1.1 6.1-2.6 13.4-4.2 22.2-4.6 0 0 .6-.1 1.7-.1 1.3 0 3.3.1 5.8.4l.1-.1s23.5-3.9 42.7-23.2c1.7-1.7 3.2-4.1 3.4-6.5.4-3.6-1.8-7.1-3.8-9.9-1.3-1.8-2.7-3.5-4.3-5 0 0-.7-4.9 4.7-6 .4-.1.7-.1 1.1-.1 2.9 0 7.2 2.1 8.9 7.9 0 0 4.9-9.4 5.1-9.9 1.3-4.3 2.2-8.4 2.7-11.3.6-3 3.2-5.1 6.1-5.1.4 0 .9 0 1.3.1 8.08 1.67 2.18 18.29 2.01 18.79.21-.22 3.67-3.91 9.39-10.59 1.1-1.3 2.8-2.1 4.5-2.1 1 0 2.1.3 2.8 1.1 2.3 2.2 4.3 2.8 2.8 8.6-1.1 4.1-9.4 11.4-9.4 11.4h10c5.3.1 6.1 7.2 2.2 10.9-2.8 2.7-7.7 3.3-11.2 3.3-2.2 0-3.8-.2-4.1-.3-.1.1.3 7.4-10.5 12.3-.5.4-11 28.3-31.6 36z" fill="#740806"/><g><path d="M98.513 100.791C65.327 86.968 73.081 55.953 73.081 55.953l38.96 4.722c16.691-16.662 34.833-20.997 48.921-21.121l23.269-32.32s28.162 15.372 15.668 49.271c12.877 11.764 29.812 28.053 30.125 32.62.239 3.483-1.713 4.946-4.527 4.513 2.015 3.226 3.229 6.67 2.363 9.78-.841 3.022-2.806 3.914-5.015 3.089-4.047 19.935-36.852 49.007-36.852 49.007s-46.504 9.46-66.354-3.031c-1.041 1.43-2.812 1.818-5.144.624-2.874-1.471-4.584-4.697-5.591-8.365-1.589 2.363-3.987 2.806-6.387.27-2.257-2.386-3.428-25.832-4.004-44.221z" fill="#fbb807"/><path d="M98.513 100.791C65.327 86.968 73.081 55.953 73.081 55.953l38.96 4.722c6.31-6.299 12.827-10.834 19.254-14.048-4.871 5.461-16.053 16.726-16.053 16.726s-11.08 18.672-1.207 55.402c0 0 4.719 21.865 35.727 30.457 14.111 3.91 30.74 4.428 48.007-5.177-6.543 6.84-11.776 11.479-11.776 11.479s-46.504 9.46-66.354-3.031c-1.041 1.43-2.812 1.818-5.144.624-2.874-1.471-4.584-4.697-5.591-8.365-1.589 2.363-3.987 2.806-6.387.27-2.257-2.386-3.428-25.832-4.004-44.221z" fill="#f28a1c"/><path d="M150.838 100.44s-8.962-22.492.723-26.737 20.612 17.429 20.612 17.429c35.029-20.413 57.345-9.391 57.851-2.007.239 3.483-1.713 4.946-4.527 4.513 2.015 3.226 3.229 6.67 2.363 9.78-.841 3.022-2.806 3.914-5.015 3.089-9.36 34.038-36.852 49.007-36.852 49.007s-42.137 12.632-66.354-3.031c-1.041 1.43-2.812 1.818-5.144.624-2.874-1.471-4.584-4.697-5.591-8.365-1.589 2.363-3.987 2.806-6.387.27-1.34-1.416-9.739-27.252 48.321-44.572z" fill="#fffcc8"/><path d="M111.675 119.86s-3.686 6.411-2.478 10.941c1.698 6.372 7.307.689 7.307.689-1.61 17.635 8.764 12.893 8.764 12.893 26.768 16.677 58.539 7.032 58.539 7.032s21.85-12.301 38.557-43.281c-9.775 32.88-36.37 47.382-36.37 47.382s-42.137 12.632-66.354-3.031c-1.041 1.43-2.812 1.818-5.144.624-2.874-1.471-4.584-4.697-5.591-8.365-1.589 2.363-3.987 2.806-6.387.27-.882-.934-4.821-12.452 9.157-25.154z" fill="#e5ba97"/><g fill="#740806"><path d="M135.657 72.78c-7.696-2.426-16.371.5-20.336 8.693a24.612 24.612 0 0 0-1.908 5.575c-.196.921-1.412.759-1.528-.203-.684-5.677-.427-14.472 6.461-18.91 6.315-4.069 13.455-.166 17.883 3.289.739.576.284 1.826-.572 1.556zM180.584 55.882a20.719 20.719 0 0 0-4.693-1.689c-7.431-1.675-13.411 2.76-15.277 9.405-.208.738-1.272.38-1.328-.445-.336-4.935.264-11.993 5.946-14.174 6.196-2.38 12.339 2.193 15.914 5.732.606.601.158 1.533-.562 1.171zM154.928 144.029s7.596 8.378 23.692 1.323 17.765-15.851 17.765-15.851l-3.695-.143-3.485-11.295 2.946-2.54c1.948-1.889 3.542-3.852 4.664-5.849 1.078-1.925 1.742-3.91 1.759-5.894a8.036 8.036 0 0 0-.665-3.326 8.14 8.14 0 0 0-1.341-2.078c3.043-1.539 5.49-3.561 4.49-4.247-5.508 2.832-9.822 3.632-11.81 3.858-1.061.121-1.277 1.589-.283 1.982.886.351 2.261.339 3.758-.069l.083-.025.1.103c.823.635 1.316 1.286 1.618 1.96.242.553.361 1.146.358 1.813-.006.662-.143 1.408-.421 2.215-.556 1.615-1.705 3.471-3.37 5.336-1.814 2.051-4.057 4.406-7.061 6.005-7.807 4.156-10.615.151-10.615.151s-4.196-7.216-4.919-6.964c-.711.247 1.313 8.621 1.313 8.621s1.819 4.071-6.793 6.677c-3.963 1.2-7.953 1.321-11.216 1.252-2.179-.046-4.068-.321-5.501-.802-.814-.276-2.894-1.831-3.122-2.336-.249-.584-.357-1.323-.169-2.38.023-.121.031-.241.03-.36 1.287-.88 2.208-1.903 2.562-2.821.435-1.127-.95-2.072-1.864-1.282a30.488 30.488 0 0 1-3.278 2.435 1.833 1.833 0 0 0-.453.291c-2.095 1.321-4.913 2.811-8.518 4.133-.21 1.456 3.9.793 7.762-.789.061.795.237 1.555.544 2.256.509 1.161 1.343 2.127 2.351 2.861 1.002.738 2.175 1.266 3.465 1.648 1.354.399 2.846.645 4.447.763z"/></g><path d="M121.041 103.192c-4.113-10.195-1.163-20.999 6.595-24.127 7.755-3.13 17.376 2.599 21.493 12.793a26.01 26.01 0 0 1 1.269 4.085 24.28 24.28 0 0 0-.627-1.743c-3.789-9.384-12.645-14.656-19.783-11.776-7.141 2.88-9.856 12.824-6.071 22.207 2.526 6.26 7.311 10.672 12.335 12.073-3.408-.484-6.806-2.292-9.674-5.112-2.26-2.224-4.193-5.072-5.537-8.4z" fill="#740806"/><path d="M123.918 104.63c-3.786-9.383-1.07-19.327 6.071-22.207 7.138-2.88 15.993 2.392 19.783 11.776.234.58.442 1.161.627 1.743 1.476 4.653 1.392 9.323.01 13.103-1.244 3.401-3.537 6.08-6.709 7.361-2.376.958-4.94.995-7.445.296-5.026-1.4-9.811-5.812-12.337-12.072z" fill="#fff"/><path d="M129.172 103.55c-2.728-6.708-1.174-13.654 3.473-15.512 4.646-1.858 10.622 2.073 13.352 8.782.168.414.32.83.456 1.244 1.088 3.317 1.145 6.608.323 9.239-.739 2.368-2.19 4.201-4.254 5.028-1.546.618-3.239.582-4.911.029-3.351-1.108-6.619-4.335-8.439-8.81z" fill="#bccf00"/><path d="M132.123 102.37c-1.771-4.355-.762-8.865 2.255-10.072 3.016-1.207 6.897 1.346 8.67 5.702.109.269.208.539.296.808.706 2.153.743 4.29.21 5.999-.48 1.537-1.422 2.728-2.762 3.265-1.004.401-2.103.378-3.189.019-2.177-.72-4.299-2.816-5.48-5.721z" fill="#740806"/><path d="M134.118 92.387c.211.283.4.587.536.931a4.103 4.103 0 0 1-2.311 5.324 4.093 4.093 0 0 1-1.05.245 4.1 4.1 0 0 1-3.396-1.199 4.102 4.102 0 0 1 1.409-6.669l.023-.012c1.765-.696 3.71-.073 4.789 1.38z" fill="#fff"/><g><path d="M184.816 98.797a8.935 8.935 0 0 0 1.256-.392c1.347-.531 2.504-1.379 3.476-2.453 3.805-4.199 4.645-12.042 1.62-19.713-3.801-9.63-12.246-15.323-18.858-12.714-6.27 2.475-8.637 11.52-5.632 20.659.166.502.337 1.005.535 1.506 3.565 9.033 11.21 14.601 17.603 13.107z" fill="#fff"/><path d="M191.168 76.239c-3.801-9.63-12.246-15.323-18.858-12.714-6.27 2.475-8.637 11.52-5.632 20.659l-.084-.194c-4.074-10.326-1.628-20.966 5.462-23.764 7.093-2.799 16.144 3.306 20.219 13.631 2.155 5.461 2.471 10.998 1.255 15.429-.754 2.75-2.1 5.066-3.982 6.666 3.805-4.199 4.645-12.041 1.62-19.713z" fill="#740806"/><path d="M169.199 86.274c-2.855-7.021-1.229-14.291 3.635-16.236 4.862-1.945 11.118 2.17 13.975 9.192.176.434.335.868.477 1.303 1.138 3.471 1.198 6.916.338 9.67-.774 2.478-2.292 4.397-4.452 5.263-1.618.647-3.39.609-5.14.03-3.508-1.161-6.928-4.538-8.833-9.222z" fill="#bccf00"/><path d="M172.287 85.039c-1.854-4.558-.798-9.279 2.36-10.542 3.157-1.263 7.219 1.409 9.074 5.968.114.282.217.564.31.846.739 2.254.778 4.491.22 6.279-.502 1.609-1.488 2.855-2.891 3.417-1.051.42-2.201.396-3.337.02-2.279-.754-4.499-2.947-5.736-5.988z" fill="#740806"/><path d="M174.375 74.59c.221.297.418.614.56.975a4.294 4.294 0 0 1-2.419 5.572c-.362.143-.73.215-1.099.256a4.295 4.295 0 0 1-3.555-1.255 4.293 4.293 0 0 1 1.475-6.98l.024-.013a4.287 4.287 0 0 1 5.014 1.445z" fill="#fff"/></g><g fill="#e93e8f"><path d="M189.129 93.765c-.715-1.632 2.6-4.663 7.405-6.769 4.806-2.107 9.281-2.491 9.997-.859.715 1.631-2.6 4.662-7.406 6.769-4.806 2.106-9.281 2.49-9.996.859zM120.247 123.957c-.715-1.632 2.6-4.663 7.405-6.769 4.806-2.107 9.281-2.491 9.997-.859.715 1.631-2.6 4.662-7.406 6.769-4.806 2.106-9.281 2.49-9.996.859z"/></g><g><path d="M163.986 100.177c27.622-12.107 12.02 8.724 5.145 11.738-6.875 3.013-32.767.369-5.145-11.738z" fill="#e93e8f"/><path d="M168.983 101.492c.509-.58 1.309-1.151 2.282-1.577 1.255-.55 2.491-.724 3.324-.536.466.105.808.322.953.653.404.923-.854 2.366-2.812 3.225-1.958.858-3.873.805-4.277-.117-.203-.464.015-1.061.53-1.648z" fill="#fff"/></g><path d="M163.156 143.568c4.818 1.708 18.175 2.196 23.488-9.107 0 0-13.156-2.399-23.192 3.758-5.009 3.072-.296 5.349-.296 5.349z" fill="#e93e8f"/><path d="M99.712 96.116s.195-13.317 5.045-24.005l-27.935-8.068s-.974 24.242 22.89 32.073zM188.137 16.727c3.612 4.006 15.993 17.969 7.082 37.527 0 0-6.599-6.351-12.915-10.096z" fill="#fffcc8"/><path d="M142.949 64.635s-7.861-12.608-16.001-14.975c-10.026 2.578-9.491 6.981-9.491 6.981zM152.88 59.99s5.578-13.244 1.257-20.366l-8.469 1.247c3.376 5.039 7.212 19.119 7.212 19.119z" fill="#f28a1c"/><path d="M98.513 100.791C65.327 86.968 73.081 55.953 73.081 55.953l38.96 4.722c16.691-16.662 34.833-20.997 48.921-21.121l23.269-32.32s28.162 15.372 15.668 49.271c12.142 11.093 27.886 26.204 29.907 31.722.047.123.088.245.12.369.051.189.088.368.099.529.239 3.483-1.713 4.946-4.527 4.513 2.015 3.226 3.229 6.67 2.363 9.78-.841 3.022-2.806 3.914-5.015 3.089-3.933 26.146-36.852 49.007-36.852 49.007s-44.014 12.936-66.354-3.031c-1.041 1.43-2.812 1.818-5.144.624-2.874-1.471-4.584-4.697-5.591-8.365-1.589 2.363-3.987 2.806-6.387.27-2.258-2.386-3.429-25.832-4.005-44.221z" fill="none" stroke="#740806" stroke-miterlimit="10" stroke-width="3"/><path d="M147.92 44.304s2.011-.778 3.612-.083c1.431.621 3.541 4.005-.246 6.094-4.854 2.677-16.798 1.439-17.906-3.785.408-.572 12.385-20.017 17.941-14.726 1.937 1.845 2.021 4.893 1.013 7.193-1.37 3.123-4.414 5.307-4.414 5.307z" fill="#fbb807"/><path d="M140.358 51.279c3.572.708 7.693.486 10.312-.661.216-.095.422-.196.616-.303 3.787-2.088 1.676-5.473.245-6.093-1.601-.695-3.611.083-3.611.083s3.044-2.184 4.414-5.307c1.008-2.3.924-5.348-1.013-7.193-1.185-1.128-2.663-1.132-4.257-.433-5.883 2.578-13.168 15.422-13.489 15.872 0 0-2.655.917-2.88-.143l-.25-1.18.7-.982.13-.204c3.881-6.007 9.579-13.636 14.687-15.875 3.721-1.631 6.14-.099 7.252.959 2.992 2.85 2.976 7.218 1.633 10.282-.347.791-.77 1.524-1.227 2.193 1.305.98 2.446 2.709 2.541 4.747.109 2.305-1.185 4.375-3.55 5.679-.265.146-.547.285-.839.413-3.405 1.489-11.459-.909-11.414-1.854z" fill="#740806"/></g><g><path d="M33.793 142.862c-.11-.5-.41-.9-.81-1-.19-.1-.5-.1-.69-.1-.21 0-.41 0-.61.1-.39.1-.8.3-1.3.6-.4.3-.8.6-1 1-.09.1-.09.4-.09.8s.09.9.19 1.5.2 1 .31 1.5c.09.5.19.8.19.9s0 .2.1.3c0 .1.1.3.1.4.11.1.11.3.2.4 0 .2.1.3.1.3.5-.1 1-.4 1.5-1 .5-.5.81-1.1 1.1-1.8.3-.7.5-1.4.71-2.1.09-.7.09-1.3 0-1.8zm3 13.3c-.11-.5-.41-.8-.81-1-.19-.1-.4-.1-.69-.1-.21 0-.41 0-.61.1-.39.1-.8.3-1.3.6-.4.3-.8.6-1 1-.09.1-.09.3-.09.5 0 .3 0 .5.09.8.1.3.1.6.2.8 0 .3.1.4.1.5s0 .2.11.4c0 .2.09.4.19.6s.1.4.2.5c.11.2.2.3.2.3.41-.1.91-.3 1.3-.7.5-.4.9-.8 1.2-1.3s.6-1 .8-1.5.2-1 .11-1.5zm43.5-18.9c-.11-.4-.31-.8-.61-1.1-.2-.3-.5-.4-.89-.4h-.31c-.69.2-1.19.5-1.6.9-.4.5-.59 1-.8 1.6-.2.6-.29 1.2-.29 1.9.19.5.29 1 .29 1.6.4-.2.9-.4 1.4-.7.6-.3 1.1-.6 1.5-1 .5-.4.81-.8 1.1-1.3.3-.5.4-1 .21-1.5zm0 0c-.11-.4-.31-.8-.61-1.1-.2-.3-.5-.4-.89-.4h-.31c-.69.2-1.19.5-1.6.9-.4.5-.59 1-.8 1.6-.2.6-.29 1.2-.29 1.9.19.5.29 1 .29 1.6.4-.2.9-.4 1.4-.7.6-.3 1.1-.6 1.5-1 .5-.4.81-.8 1.1-1.3.3-.5.4-1 .21-1.5zm-43.5 18.9c-.11-.5-.41-.8-.81-1-.19-.1-.4-.1-.69-.1-.21 0-.41 0-.61.1-.39.1-.8.3-1.3.6-.4.3-.8.6-1 1-.09.1-.09.3-.09.5 0 .3 0 .5.09.8.1.3.1.6.2.8 0 .3.1.4.1.5s0 .2.11.4c0 .2.09.4.19.6s.1.4.2.5c.11.2.2.3.2.3.41-.1.91-.3 1.3-.7.5-.4.9-.8 1.2-1.3s.6-1 .8-1.5.2-1 .11-1.5zm-3-11.5c.09-.7.09-1.3 0-1.8-.11-.5-.41-.9-.81-1-.19-.1-.5-.1-.69-.1-.21 0-.41 0-.61.1-.39.1-.8.3-1.3.6-.4.3-.8.6-1 1-.09.1-.09.4-.09.8s.09.9.19 1.5.2 1 .31 1.5c.09.5.19.8.19.9s0 .2.1.3c0 .1.1.3.1.4.11.1.11.3.2.4 0 .2.1.3.1.3.5-.1 1-.4 1.5-1 .5-.5.81-1.1 1.1-1.8.3-.7.5-1.4.71-2.1zm59.59 1c-.4-1.5-1.3-2.7-2.7-3.4-.7-.3-1.5-.5-2.3-.6.3-.7.5-1.4.7-2.2.4-1.8.4-3.7-.1-5.6-.4-1.5-1-2.9-2-4-.9-1.1-1.9-1.9-3.1-2.6-1.2-.6-2.5-1.1-3.9-1.2-.4.1-.8.1-1.3.1-.89 0-1.89.1-2.8.3-2.4.6-4.4 1.8-5.9 3.6-1.3 1.6-2.3 3.4-3 5.5-.19.7-.4 1.4-.5 2.1-.19-.3-.4-.7-.69-1-.81-1.2-1.71-2.1-2.71-2.7-1-.7-2.1-1-3.2-1-.5 0-.9.1-1.4.2-1.3.3-2.4 1-3.1 2.1-.59.8-.9 1.7-1.09 2.7-.11.8-.21 1.7-.11 2.6.11.8.2 1.6.4 2.4.21.7.3 1.3.5 2l.3 1.1.1.5c.1.5.2 1.1.31 1.7.09.4.09.8 0 1.2v.2c-.11-.4-.31-.9-.41-1.3-.09-.3-.2-.8-.3-1.5-.2-.7-.4-1.6-.6-2.4l-.9-2.7c-.4-1-.79-1.9-1.29-2.7-.61-.9-1.21-1.7-2-2.3-.91-.7-2-1.1-3.11-1.1-.3 0-.6 0-.89.1-1.11.2-2.11.7-2.81 1.4-.4-1.3-1-2.4-1.9-3.3-1-1.1-2.1-2-3.4-2.6s-2.7-1-4.2-1.1h-.8c-1.2 0-2.3.1-3.5.4-1 .2-2 .6-3.1 1.1-1 .4-1.9 1-2.9 1.6-.89.6-1.8 1.2-2.7 1.9-.8.7-1.6 1.4-2.3 2.1-.89 1-1 2.2-1.1 3 0 .7 0 1.5.1 2.3.11.7.2 1.6.4 2.4.21.9.3 1.7.5 2.4.21.7.3 1.4.4 1.9.1.6.2 1 .31 1.3.19 1.1.39 2.2.69 3.3l.5 1.9.31 1.3.29 1.2.1.4c.2.8.4 1.7.7 2.7s.6 2.1.91 3.2c.29 1.1.69 2.2 1 3.1.39 1.1.79 2 1.19 2.7.81 1.5 1.9 2.3 3.2 2.5.61.1 1.2.1 1.8.1.5 0 .9 0 1.4-.1 1-.1 2-.3 3-.5 1.8-.4 3.6-1.1 5.2-2 1.71-.9 3.3-2.1 4.6-3.5 1.4-1.5 2.4-3.2 3-5.1v-.1c.4.4.8.7 1.2 1 1.1.9 2.41 1.5 3.7 1.9.71.2 1.5.3 2.3.3s1.6-.1 2.41-.3c1.09-.3 2.09-.7 3-1.3 0 .8-.11 1.6-.21 2.3-.1.5-.29 1-.5 1.3h-.4c-.3 0-.7-.1-1-.1-.5-.1-1-.1-1.39-.1h-.41c-.5 0-1.09.1-1.59.2-.81.2-1.41.5-2 1-.5.4-1 .9-1.31 1.4-.4.6-.69 1.3-.9 2-.2.8-.2 1.6 0 2.3.4 1.5 1.3 2.8 2.6 3.7 1 .7 2.11 1.1 3.4 1.5 1.21.3 2.3.4 3.6.4 1.2 0 2.3-.1 3.3-.4 2.31-.6 4.1-1.6 5.6-3.1 1.3-1.4 2.3-3.1 3-5 .6-1.8 1-3.7 1.1-5.7.11-1.9.11-3.9-.1-5.8-.1-.8-.2-1.6-.29-2.3 1.39 1.3 3.09 2.2 4.89 2.8 1.11.4 2.3.6 3.5.6.9 0 1.9-.1 2.8-.3 1.31-.3 2.7-1 4-2 1.2-.9 2.31-2 3.31-3.2 1-1.3 1.79-2.6 2.29-4.1.6-1.7.71-3.4.3-5zm-48.9 15.2c-.5 1.5-1.3 2.8-2.3 3.9-1.1 1.1-2.3 2.1-3.8 2.9s-3 1.4-4.5 1.8c-.8.2-1.7.4-2.59.4-.41 0-.71.1-1.11.1-.5 0-1 0-1.5-.1-.3 0-.6-.3-1-.9-.3-.6-.7-1.4-1-2.3s-.7-1.9-1-3-.6-2.1-.89-3.1c-.31-1-.5-1.9-.71-2.6-.2-.8-.29-1.3-.4-1.6-.3-1.1-.5-2.1-.8-3.2s-.5-2.2-.7-3.2c-.1-.3-.2-.7-.3-1.3-.09-.6-.3-1.2-.4-1.9-.19-.7-.3-1.5-.5-2.3-.1-.8-.3-1.5-.4-2.3-.1-.7-.1-1.3-.1-1.8s.1-.9.31-1c.59-.6 1.29-1.2 2-1.9.69-.6 1.5-1.2 2.39-1.7.8-.5 1.7-1 2.5-1.4.9-.4 1.7-.7 2.5-.9 1.11-.3 2-.4 2.9-.4h.6c1.11.1 2.11.3 3.11.8s1.69 1.1 2.39 1.9 1.2 1.8 1.5 3c.5 2.1.5 4.1-.2 6.1-.6 2-1.6 3.7-3.1 5.3h.41c.79 0 1.59.1 2.19.4.81.3 1.5.7 2.1 1.2s1.1 1.2 1.5 1.9.71 1.6 1 2.4c.4 1.7.4 3.3-.1 4.8zm25.31 3.9c-.11 1.7-.41 3.4-.91 4.9s-1.3 2.8-2.3 3.9-2.4 1.8-4.1 2.3c-.69.2-1.6.3-2.5.3-1 0-1.9-.1-2.9-.3-.9-.2-1.7-.6-2.4-1-.7-.5-1.2-1.1-1.39-1.9-.11-.3-.11-.6 0-1 .09-.3.19-.7.39-.9s.4-.5.7-.8.6-.4.91-.4c.29-.1.59-.1.89-.1h.2c.41 0 .8.1 1.2.1.4.1.9.1 1.3.1h.3c.3 0 .7 0 1-.1.8-.2 1.4-.6 1.8-1.3s.7-1.4.9-2.4c.2-.9.3-1.9.3-3s-.1-2.1-.2-3.2c-.1-1-.19-2-.4-2.9-.2-.9-.29-1.6-.4-2.2-.7 1.9-1.39 3.4-2.3 4.5-.8 1.1-2 1.9-3.5 2.2-.59.1-1.09.2-1.7.2-.5 0-1-.1-1.5-.2-1-.3-1.89-.7-2.7-1.4-.8-.6-1.5-1.4-2.19-2.3-.61-.9-1.21-1.9-1.71-2.9s-.9-2.1-1.2-3.1-.59-2-.7-2.9c-.1-.7-.3-1.6-.39-2.7-.11-1.1-.21-2.2-.11-3.3.11-1.1.3-2.1.61-2.9.39-.8 1-1.3 1.89-1.5h.4c.4 0 .8.1 1.21.4.5.4.89.9 1.29 1.5s.8 1.4 1.1 2.2.61 1.6.8 2.4c.2.8.4 1.6.6 2.2.21.7.3 1.2.4 1.6.1.5.31 1 .4 1.5.2.5.41.9.7 1.3.3.4.6.6 1.1.8.2.1.4.1.7.1s.6 0 1-.1c.8-.2 1.41-.5 1.7-1.1.4-.5.6-1.1.71-1.7.09-.6.09-1.3 0-2-.11-.7-.21-1.3-.41-2-.09-.4-.2-.9-.4-1.5-.1-.6-.3-1.2-.4-1.9s-.2-1.3-.29-2c-.11-.7 0-1.3.09-1.9.1-.6.3-1.1.6-1.5.31-.4.7-.7 1.4-.9.1.1.3 0 .5 0 .5 0 1 .2 1.5.5.7.5 1.3 1.1 2 2 .6.9 1.2 1.8 1.7 2.9s1 2.2 1.4 3.3.7 2.1 1 3.1c.31.9.5 1.7.6 2.2.3 1.3.6 2.7.9 4.4.31 1.6.5 3.4.7 5.1.2 1.8.2 3.6.11 5.3zm20.59-14.9c-.4 1.1-1 2.2-1.8 3.2-.79 1-1.7 1.9-2.7 2.6s-2 1.2-2.9 1.5c-.69.2-1.4.3-2.1.3-.9 0-1.7-.1-2.5-.4-1.5-.5-2.8-1.3-3.9-2.3-1.19-1-2.1-2.3-2.9-3.6-.79-1.4-1.4-2.8-1.7-4.2-.4-1.5-.59-3.2-.59-5s.29-3.6.79-5.2c.5-1.7 1.3-3.1 2.4-4.4s2.5-2.2 4.4-2.6c.5-.5 1.2-.6 1.8-.6.3 0 .7 0 1 .1 1 .1 2 .4 2.8.9.9.5 1.6 1.1 2.2 1.9.61.8 1.11 1.7 1.4 2.8.3 1.4.4 2.8.1 4.2s-.8 2.7-1.6 3.8c-.79 1.2-1.79 2.2-2.9 3.1-1.2.9-2.39 1.5-3.8 1.9.3.9.8 1.4 1.5 1.6.41.1.8.2 1.2.2.3 0 .71 0 1.1-.1.61-.1 1.2-.4 1.7-.9.5-.4 1-.9 1.41-1.4.5-.5.89-1 1.39-1.4s1-.7 1.5-.9c.2-.1.4-.1.61-.1.39 0 .79.1 1.19.3.6.3.9.7 1.1 1.4.3 1 .21 2.1-.2 3.3zm-10.3-11.1c.3-.5.4-1 .21-1.5-.11-.4-.31-.8-.61-1.1-.2-.3-.5-.4-.89-.4h-.31c-.69.2-1.19.5-1.6.9-.4.5-.59 1-.8 1.6-.2.6-.29 1.2-.29 1.9.19.5.29 1 .29 1.6.4-.2.9-.4 1.4-.7.6-.3 1.1-.6 1.5-1 .5-.4.81-.8 1.1-1.3zm-44.1 16.4c-.19-.1-.4-.1-.69-.1-.21 0-.41 0-.61.1-.39.1-.8.3-1.3.6-.4.3-.8.6-1 1-.09.1-.09.3-.09.5 0 .3 0 .5.09.8.1.3.1.6.2.8 0 .3.1.4.1.5s0 .2.11.4c0 .2.09.4.19.6s.1.4.2.5c.11.2.2.3.2.3.41-.1.91-.3 1.3-.7.5-.4.9-.8 1.2-1.3s.6-1 .8-1.5.2-1 .11-1.5c-.11-.5-.41-.8-.81-1zm-2.19-10.5c.09-.7.09-1.3 0-1.8-.11-.5-.41-.9-.81-1-.19-.1-.5-.1-.69-.1-.21 0-.41 0-.61.1-.39.1-.8.3-1.3.6-.4.3-.8.6-1 1-.09.1-.09.4-.09.8s.09.9.19 1.5.2 1 .31 1.5c.09.5.19.8.19.9s0 .2.1.3c0 .1.1.3.1.4.11.1.11.3.2.4 0 .2.1.3.1.3.5-.1 1-.4 1.5-1 .5-.5.81-1.1 1.1-1.8.3-.7.5-1.4.71-2.1zm0-1.8c-.11-.5-.41-.9-.81-1-.19-.1-.5-.1-.69-.1-.21 0-.41 0-.61.1-.39.1-.8.3-1.3.6-.4.3-.8.6-1 1-.09.1-.09.4-.09.8s.09.9.19 1.5.2 1 .31 1.5c.09.5.19.8.19.9s0 .2.1.3c0 .1.1.3.1.4.11.1.11.3.2.4 0 .2.1.3.1.3.5-.1 1-.4 1.5-1 .5-.5.81-1.1 1.1-1.8.3-.7.5-1.4.71-2.1.09-.7.09-1.3 0-1.8zm3 13.3c-.11-.5-.41-.8-.81-1-.19-.1-.4-.1-.69-.1-.21 0-.41 0-.61.1-.39.1-.8.3-1.3.6-.4.3-.8.6-1 1-.09.1-.09.3-.09.5 0 .3 0 .5.09.8.1.3.1.6.2.8 0 .3.1.4.1.5s0 .2.11.4c0 .2.09.4.19.6s.1.4.2.5c.11.2.2.3.2.3.41-.1.91-.3 1.3-.7.5-.4.9-.8 1.2-1.3s.6-1 .8-1.5.2-1 .11-1.5zm43.5-18.9c-.11-.4-.31-.8-.61-1.1-.2-.3-.5-.4-.89-.4h-.31c-.69.2-1.19.5-1.6.9-.4.5-.59 1-.8 1.6-.2.6-.29 1.2-.29 1.9.19.5.29 1 .29 1.6.4-.2.9-.4 1.4-.7.6-.3 1.1-.6 1.5-1 .5-.4.81-.8 1.1-1.3.3-.5.4-1 .21-1.5zm0 0c-.11-.4-.31-.8-.61-1.1-.2-.3-.5-.4-.89-.4h-.31c-.69.2-1.19.5-1.6.9-.4.5-.59 1-.8 1.6-.2.6-.29 1.2-.29 1.9.19.5.29 1 .29 1.6.4-.2.9-.4 1.4-.7.6-.3 1.1-.6 1.5-1 .5-.4.81-.8 1.1-1.3.3-.5.4-1 .21-1.5zm-43.5 18.9c-.11-.5-.41-.8-.81-1-.19-.1-.4-.1-.69-.1-.21 0-.41 0-.61.1-.39.1-.8.3-1.3.6-.4.3-.8.6-1 1-.09.1-.09.3-.09.5 0 .3 0 .5.09.8.1.3.1.6.2.8 0 .3.1.4.1.5s0 .2.11.4c0 .2.09.4.19.6s.1.4.2.5c.11.2.2.3.2.3.41-.1.91-.3 1.3-.7.5-.4.9-.8 1.2-1.3s.6-1 .8-1.5.2-1 .11-1.5zm-3-13.3c-.11-.5-.41-.9-.81-1-.19-.1-.5-.1-.69-.1-.21 0-.41 0-.61.1-.39.1-.8.3-1.3.6-.4.3-.8.6-1 1-.09.1-.09.4-.09.8s.09.9.19 1.5.2 1 .31 1.5c.09.5.19.8.19.9s0 .2.1.3c0 .1.1.3.1.4.11.1.11.3.2.4 0 .2.1.3.1.3.5-.1 1-.4 1.5-1 .5-.5.81-1.1 1.1-1.8.3-.7.5-1.4.71-2.1.09-.7.09-1.3 0-1.8zm3 13.3c-.11-.5-.41-.8-.81-1-.19-.1-.4-.1-.69-.1-.21 0-.41 0-.61.1-.39.1-.8.3-1.3.6-.4.3-.8.6-1 1-.09.1-.09.3-.09.5 0 .3 0 .5.09.8.1.3.1.6.2.8 0 .3.1.4.1.5s0 .2.11.4c0 .2.09.4.19.6s.1.4.2.5c.11.2.2.3.2.3.41-.1.91-.3 1.3-.7.5-.4.9-.8 1.2-1.3s.6-1 .8-1.5.2-1 .11-1.5zm-3-13.3c-.11-.5-.41-.9-.81-1-.19-.1-.5-.1-.69-.1-.21 0-.41 0-.61.1-.39.1-.8.3-1.3.6-.4.3-.8.6-1 1-.09.1-.09.4-.09.8s.09.9.19 1.5.2 1 .31 1.5c.09.5.19.8.19.9s0 .2.1.3c0 .1.1.3.1.4.11.1.11.3.2.4 0 .2.1.3.1.3.5-.1 1-.4 1.5-1 .5-.5.81-1.1 1.1-1.8.3-.7.5-1.4.71-2.1.09-.7.09-1.3 0-1.8zm3 13.3c-.11-.5-.41-.8-.81-1-.19-.1-.4-.1-.69-.1-.21 0-.41 0-.61.1-.39.1-.8.3-1.3.6-.4.3-.8.6-1 1-.09.1-.09.3-.09.5 0 .3 0 .5.09.8.1.3.1.6.2.8 0 .3.1.4.1.5s0 .2.11.4c0 .2.09.4.19.6s.1.4.2.5c.11.2.2.3.2.3.41-.1.91-.3 1.3-.7.5-.4.9-.8 1.2-1.3s.6-1 .8-1.5.2-1 .11-1.5zm-3-13.3c-.11-.5-.41-.9-.81-1-.19-.1-.5-.1-.69-.1-.21 0-.41 0-.61.1-.39.1-.8.3-1.3.6-.4.3-.8.6-1 1-.09.1-.09.4-.09.8s.09.9.19 1.5.2 1 .31 1.5c.09.5.19.8.19.9s0 .2.1.3c0 .1.1.3.1.4.11.1.11.3.2.4 0 .2.1.3.1.3.5-.1 1-.4 1.5-1 .5-.5.81-1.1 1.1-1.8.3-.7.5-1.4.71-2.1.09-.7.09-1.3 0-1.8zm46.5-5.6c-.11-.4-.31-.8-.61-1.1-.2-.3-.5-.4-.89-.4h-.31c-.69.2-1.19.5-1.6.9-.4.5-.59 1-.8 1.6-.2.6-.29 1.2-.29 1.9.19.5.29 1 .29 1.6.4-.2.9-.4 1.4-.7.6-.3 1.1-.6 1.5-1 .5-.4.81-.8 1.1-1.3.3-.5.4-1 .21-1.5zm0 0c-.11-.4-.31-.8-.61-1.1-.2-.3-.5-.4-.89-.4h-.31c-.69.2-1.19.5-1.6.9-.4.5-.59 1-.8 1.6-.2.6-.29 1.2-.29 1.9.19.5.29 1 .29 1.6.4-.2.9-.4 1.4-.7.6-.3 1.1-.6 1.5-1 .5-.4.81-.8 1.1-1.3.3-.5.4-1 .21-1.5z" fill="#740806"/><g fill="#fffcc8"><path d="M90.583 146.562c-.2-.7-.5-1.1-1.1-1.4-.4-.2-.8-.3-1.19-.3-.21 0-.41 0-.61.1-.5.2-1 .5-1.5.9s-.89.9-1.39 1.4c-.41.5-.91 1-1.41 1.4-.5.5-1.09.8-1.7.9-.39.1-.8.1-1.1.1-.4 0-.79-.1-1.2-.2-.7-.2-1.2-.7-1.5-1.6 1.41-.4 2.6-1 3.8-1.9 1.11-.9 2.11-1.9 2.9-3.1.8-1.1 1.3-2.4 1.6-3.8s.2-2.8-.1-4.2c-.29-1.1-.79-2-1.4-2.8-.6-.8-1.3-1.4-2.2-1.9-.8-.5-1.8-.8-2.8-.9-.3-.1-.7-.1-1-.1-.6 0-1.3.1-1.8.6-1.9.4-3.3 1.3-4.4 2.6s-1.9 2.7-2.4 4.4c-.5 1.6-.79 3.4-.79 5.2s.19 3.5.59 5c.3 1.4.91 2.8 1.7 4.2.8 1.3 1.71 2.6 2.9 3.6 1.1 1 2.4 1.8 3.9 2.3.8.3 1.6.4 2.5.4.7 0 1.41-.1 2.1-.3.9-.3 1.9-.8 2.9-1.5s1.91-1.6 2.7-2.6c.8-1 1.4-2.1 1.8-3.2.41-1.2.5-2.3.2-3.3zm-14.5-4.8c0-.6-.1-1.1-.29-1.6 0-.7.09-1.3.29-1.9.21-.6.4-1.1.8-1.6.41-.4.91-.7 1.6-.9h.31c.39 0 .69.1.89.4.3.3.5.7.61 1.1.19.5.09 1-.21 1.5-.29.5-.6.9-1.1 1.3-.4.4-.9.7-1.5 1-.5.3-1 .5-1.4.7zM69.793 164.762c-.11 1.7-.41 3.4-.91 4.9s-1.3 2.8-2.3 3.9-2.4 1.8-4.1 2.3c-.69.2-1.6.3-2.5.3-1 0-1.9-.1-2.9-.3-.9-.2-1.7-.6-2.4-1-.7-.5-1.2-1.1-1.39-1.9-.11-.3-.11-.6 0-1 .09-.3.19-.7.39-.9s.4-.5.7-.8.6-.4.91-.4c.29-.1.59-.1.89-.1h.2c.41 0 .8.1 1.2.1.4.1.9.1 1.3.1h.3c.3 0 .7 0 1-.1.8-.2 1.4-.6 1.8-1.3s.7-1.4.9-2.4c.2-.9.3-1.9.3-3s-.1-2.1-.2-3.2c-.1-1-.19-2-.4-2.9-.2-.9-.29-1.6-.4-2.2-.7 1.9-1.39 3.4-2.3 4.5-.8 1.1-2 1.9-3.5 2.2-.59.1-1.09.2-1.7.2-.5 0-1-.1-1.5-.2-1-.3-1.89-.7-2.7-1.4-.8-.6-1.5-1.4-2.19-2.3-.61-.9-1.21-1.9-1.71-2.9s-.9-2.1-1.2-3.1-.59-2-.7-2.9c-.1-.7-.3-1.6-.39-2.7-.11-1.1-.21-2.2-.11-3.3.11-1.1.3-2.1.61-2.9.39-.8 1-1.3 1.89-1.5h.4c.4 0 .8.1 1.21.4.5.4.89.9 1.29 1.5s.8 1.4 1.1 2.2.61 1.6.8 2.4c.2.8.4 1.6.6 2.2.21.7.3 1.2.4 1.6.1.5.31 1 .4 1.5.2.5.41.9.7 1.3.3.4.6.6 1.1.8.2.1.4.1.7.1s.6 0 1-.1c.8-.2 1.41-.5 1.7-1.1.4-.5.6-1.1.71-1.7.09-.6.09-1.3 0-2-.11-.7-.21-1.3-.41-2-.09-.4-.2-.9-.4-1.5-.1-.6-.3-1.2-.4-1.9s-.2-1.3-.29-2c-.11-.7 0-1.3.09-1.9.1-.6.3-1.1.6-1.5.31-.4.7-.7 1.4-.9.1.1.3 0 .5 0 .5 0 1 .2 1.5.5.7.5 1.3 1.1 2 2 .6.9 1.2 1.8 1.7 2.9s1 2.2 1.4 3.3.7 2.1 1 3.1c.31.9.5 1.7.6 2.2.3 1.3.6 2.7.9 4.4.31 1.6.5 3.4.7 5.1.2 1.8.2 3.6.11 5.3zM44.583 156.062c-.29-.8-.6-1.7-1-2.4s-.9-1.4-1.5-1.9-1.29-.9-2.1-1.2c-.6-.3-1.4-.4-2.19-.4h-.41c1.5-1.6 2.5-3.3 3.1-5.3.7-2 .7-4 .2-6.1-.3-1.2-.8-2.2-1.5-3s-1.39-1.4-2.39-1.9-2-.7-3.11-.8h-.6c-.9 0-1.79.1-2.9.4-.8.2-1.6.5-2.5.9-.8.4-1.7.9-2.5 1.4-.89.5-1.7 1.1-2.39 1.7-.71.7-1.41 1.3-2 1.9-.21.1-.31.5-.31 1s0 1.1.1 1.8c.1.8.3 1.5.4 2.3.2.8.31 1.6.5 2.3.1.7.31 1.3.4 1.9.1.6.2 1 .3 1.3.2 1 .4 2.1.7 3.2s.5 2.1.8 3.2c.11.3.2.8.4 1.6.21.7.4 1.6.71 2.6.29 1 .59 2 .89 3.1s.7 2.1 1 3 .7 1.7 1 2.3c.4.6.7.9 1 .9.5.1 1 .1 1.5.1.4 0 .7-.1 1.11-.1.89 0 1.79-.2 2.59-.4 1.5-.4 3-1 4.5-1.8s2.7-1.8 3.8-2.9c1-1.1 1.8-2.4 2.3-3.9s.5-3.1.1-4.8zm-14.1-6.5s-.1-.1-.1-.3c-.09-.1-.09-.3-.2-.4 0-.1-.1-.3-.1-.4-.1-.1-.1-.2-.1-.3s-.1-.4-.19-.9c-.11-.5-.21-.9-.31-1.5s-.19-1.1-.19-1.5 0-.7.09-.8c.2-.4.6-.7 1-1 .5-.3.91-.5 1.3-.6.2-.1.4-.1.61-.1.19 0 .5 0 .69.1.4.1.7.5.81 1 .09.5.09 1.1 0 1.8-.21.7-.41 1.4-.71 2.1-.29.7-.6 1.3-1.1 1.8-.5.6-1 .9-1.5 1zm6.2 8.1c-.2.5-.5 1-.8 1.5s-.7.9-1.2 1.3c-.39.4-.89.6-1.3.7 0 0-.09-.1-.2-.3-.1-.1-.1-.3-.2-.5s-.19-.4-.19-.6c-.11-.2-.11-.3-.11-.4s-.1-.2-.1-.5c-.1-.2-.1-.5-.2-.8-.09-.3-.09-.5-.09-.8 0-.2 0-.4.09-.5.2-.4.6-.7 1-1 .5-.3.91-.5 1.3-.6.2-.1.4-.1.61-.1.29 0 .5 0 .69.1.4.2.7.5.81 1 .09.5.09 1-.11 1.5z"/></g><g><path d="M32.367 95.575c-.11-.5-.41-.9-.81-1-.19-.1-.5-.1-.69-.1-.21 0-.41 0-.61.1-.39.1-.8.3-1.3.6-.4.3-.8.6-1 1-.09.1-.09.4-.09.8s.09.9.19 1.5.2 1 .31 1.5c.09.5.19.8.19.9s0 .2.1.3c0 .1.1.3.1.4.11.1.11.3.2.4 0 .2.1.3.1.3.5-.1 1-.4 1.5-1 .5-.5.81-1.1 1.1-1.8.3-.7.5-1.4.71-2.1.09-.7.09-1.3 0-1.8zm3 13.3c-.11-.5-.41-.8-.81-1-.19-.1-.4-.1-.69-.1-.21 0-.41 0-.61.1-.39.1-.8.3-1.3.6-.4.3-.8.6-1 1-.09.1-.09.3-.09.5 0 .3 0 .5.09.8.1.3.1.6.2.8 0 .3.1.4.1.5s0 .2.11.4c0 .2.09.4.19.6s.1.4.2.5c.11.2.2.3.2.3.41-.1.91-.3 1.3-.7.5-.4.9-.8 1.2-1.3s.6-1 .8-1.5.2-1 .11-1.5zm43.5-18.9c-.11-.4-.31-.8-.61-1.1-.2-.3-.5-.4-.89-.4h-.31c-.69.2-1.19.5-1.6.9-.4.5-.59 1-.8 1.6-.2.6-.29 1.2-.29 1.9.19.5.29 1 .29 1.6.4-.2.9-.4 1.4-.7.6-.3 1.1-.6 1.5-1 .5-.4.81-.8 1.1-1.3.3-.5.4-1 .21-1.5zm0 0c-.11-.4-.31-.8-.61-1.1-.2-.3-.5-.4-.89-.4h-.31c-.69.2-1.19.5-1.6.9-.4.5-.59 1-.8 1.6-.2.6-.29 1.2-.29 1.9.19.5.29 1 .29 1.6.4-.2.9-.4 1.4-.7.6-.3 1.1-.6 1.5-1 .5-.4.81-.8 1.1-1.3.3-.5.4-1 .21-1.5zm-43.5 18.9c-.11-.5-.41-.8-.81-1-.19-.1-.4-.1-.69-.1-.21 0-.41 0-.61.1-.39.1-.8.3-1.3.6-.4.3-.8.6-1 1-.09.1-.09.3-.09.5 0 .3 0 .5.09.8.1.3.1.6.2.8 0 .3.1.4.1.5s0 .2.11.4c0 .2.09.4.19.6s.1.4.2.5c.11.2.2.3.2.3.41-.1.91-.3 1.3-.7.5-.4.9-.8 1.2-1.3s.6-1 .8-1.5.2-1 .11-1.5zm-3-11.5c.09-.7.09-1.3 0-1.8-.11-.5-.41-.9-.81-1-.19-.1-.5-.1-.69-.1-.21 0-.41 0-.61.1-.39.1-.8.3-1.3.6-.4.3-.8.6-1 1-.09.1-.09.4-.09.8s.09.9.19 1.5.2 1 .31 1.5c.09.5.19.8.19.9s0 .2.1.3c0 .1.1.3.1.4.11.1.11.3.2.4 0 .2.1.3.1.3.5-.1 1-.4 1.5-1 .5-.5.81-1.1 1.1-1.8.3-.7.5-1.4.71-2.1zm59.59 1c-.4-1.5-1.3-2.7-2.7-3.4-.7-.3-1.5-.5-2.3-.6.3-.7.5-1.4.7-2.2.4-1.8.4-3.7-.1-5.6-.4-1.5-1-2.9-2-4-.9-1.1-1.9-1.9-3.1-2.6-1.2-.6-2.5-1.1-3.9-1.2-.4.1-.8.1-1.3.1-.89 0-1.89.1-2.8.3-2.4.6-4.4 1.8-5.9 3.6-1.3 1.6-2.3 3.4-3 5.5-.19.7-.4 1.4-.5 2.1-.19-.3-.4-.7-.69-1-.81-1.2-1.71-2.1-2.71-2.7-1-.7-2.1-1-3.2-1-.5 0-.9.1-1.4.2-1.3.3-2.4 1-3.1 2.1-.59.8-.9 1.7-1.09 2.7-.11.8-.21 1.7-.11 2.6.11.8.2 1.6.4 2.4.21.7.3 1.3.5 2l.3 1.1.1.5c.1.5.2 1.1.31 1.7.09.4.09.8 0 1.2v.2c-.11-.4-.31-.9-.41-1.3-.09-.3-.2-.8-.3-1.5-.2-.7-.4-1.6-.6-2.4l-.9-2.7c-.4-1-.79-1.9-1.29-2.7-.61-.9-1.21-1.7-2-2.3-.91-.7-2-1.1-3.11-1.1-.3 0-.6 0-.89.1-1.11.2-2.11.7-2.81 1.4-.4-1.3-1-2.4-1.9-3.3-1-1.1-2.1-2-3.4-2.6s-2.7-1-4.2-1.1h-.8c-1.2 0-2.3.1-3.5.4-1 .2-2 .6-3.1 1.1-1 .4-1.9 1-2.9 1.6-.89.6-1.8 1.2-2.7 1.9-.8.7-1.6 1.4-2.3 2.1-.89 1-1 2.2-1.1 3 0 .7 0 1.5.1 2.3.11.7.2 1.6.4 2.4.21.9.3 1.7.5 2.4.21.7.3 1.4.4 1.9.1.6.2 1 .31 1.3.19 1.1.39 2.2.69 3.3l.5 1.9.31 1.3.29 1.2.1.4c.2.8.4 1.7.7 2.7s.6 2.1.91 3.2c.29 1.1.69 2.2 1 3.1.39 1.1.79 2 1.19 2.7.81 1.5 1.9 2.3 3.2 2.5.61.1 1.2.1 1.8.1.5 0 .9 0 1.4-.1 1-.1 2-.3 3-.5 1.8-.4 3.6-1.1 5.2-2 1.71-.9 3.3-2.1 4.6-3.5 1.4-1.5 2.4-3.2 3-5.1v-.1c.4.4.8.7 1.2 1 1.1.9 2.41 1.5 3.7 1.9.71.2 1.5.3 2.3.3s1.6-.1 2.41-.3c1.09-.3 2.09-.7 3-1.3 0 .8-.11 1.6-.21 2.3-.1.5-.29 1-.5 1.3h-.4c-.3 0-.7-.1-1-.1-.5-.1-1-.1-1.39-.1h-.41c-.5 0-1.09.1-1.59.2-.81.2-1.41.5-2 1-.5.4-1 .9-1.31 1.4-.4.6-.69 1.3-.9 2-.2.8-.2 1.6 0 2.3.4 1.5 1.3 2.8 2.6 3.7 1 .7 2.11 1.1 3.4 1.5 1.21.3 2.3.4 3.6.4 1.2 0 2.3-.1 3.3-.4 2.31-.6 4.1-1.6 5.6-3.1 1.3-1.4 2.3-3.1 3-5 .6-1.8 1-3.7 1.1-5.7.11-1.9.11-3.9-.1-5.8-.1-.8-.2-1.6-.29-2.3 1.39 1.3 3.09 2.2 4.89 2.8 1.11.4 2.3.6 3.5.6.9 0 1.9-.1 2.8-.3 1.31-.3 2.7-1 4-2 1.2-.9 2.31-2 3.31-3.2 1-1.3 1.79-2.6 2.29-4.1.6-1.7.71-3.4.3-5zm-48.9 15.2c-.5 1.5-1.3 2.8-2.3 3.9-1.1 1.1-2.3 2.1-3.8 2.9s-3 1.4-4.5 1.8c-.8.2-1.7.4-2.59.4-.41 0-.71.1-1.11.1-.5 0-1 0-1.5-.1-.3 0-.6-.3-1-.9-.3-.6-.7-1.4-1-2.3s-.7-1.9-1-3-.6-2.1-.89-3.1c-.31-1-.5-1.9-.71-2.6-.2-.8-.29-1.3-.4-1.6-.3-1.1-.5-2.1-.8-3.2s-.5-2.2-.7-3.2c-.1-.3-.2-.7-.3-1.3-.09-.6-.3-1.2-.4-1.9-.19-.7-.3-1.5-.5-2.3-.1-.8-.3-1.5-.4-2.3-.1-.7-.1-1.3-.1-1.8s.1-.9.31-1c.59-.6 1.29-1.2 2-1.9.69-.6 1.5-1.2 2.39-1.7.8-.5 1.7-1 2.5-1.4.9-.4 1.7-.7 2.5-.9 1.11-.3 2-.4 2.9-.4h.6c1.11.1 2.11.3 3.11.8s1.69 1.1 2.39 1.9 1.2 1.8 1.5 3c.5 2.1.5 4.1-.2 6.1-.6 2-1.6 3.7-3.1 5.3h.41c.79 0 1.59.1 2.19.4.81.3 1.5.7 2.1 1.2s1.1 1.2 1.5 1.9.71 1.6 1 2.4c.4 1.7.4 3.3-.1 4.8zm25.31 3.9c-.11 1.7-.41 3.4-.91 4.9s-1.3 2.8-2.3 3.9-2.4 1.8-4.1 2.3c-.69.2-1.6.3-2.5.3-1 0-1.9-.1-2.9-.3-.9-.2-1.7-.6-2.4-1-.7-.5-1.2-1.1-1.39-1.9-.11-.3-.11-.6 0-1 .09-.3.19-.7.39-.9s.4-.5.7-.8.6-.4.91-.4c.29-.1.59-.1.89-.1h.2c.41 0 .8.1 1.2.1.4.1.9.1 1.3.1h.3c.3 0 .7 0 1-.1.8-.2 1.4-.6 1.8-1.3s.7-1.4.9-2.4c.2-.9.3-1.9.3-3s-.1-2.1-.2-3.2c-.1-1-.19-2-.4-2.9-.2-.9-.29-1.6-.4-2.2-.7 1.9-1.39 3.4-2.3 4.5-.8 1.1-2 1.9-3.5 2.2-.59.1-1.09.2-1.7.2-.5 0-1-.1-1.5-.2-1-.3-1.89-.7-2.7-1.4-.8-.6-1.5-1.4-2.19-2.3-.61-.9-1.21-1.9-1.71-2.9s-.9-2.1-1.2-3.1-.59-2-.7-2.9c-.1-.7-.3-1.6-.39-2.7-.11-1.1-.21-2.2-.11-3.3.11-1.1.3-2.1.61-2.9.39-.8 1-1.3 1.89-1.5h.4c.4 0 .8.1 1.21.4.5.4.89.9 1.29 1.5s.8 1.4 1.1 2.2.61 1.6.8 2.4c.2.8.4 1.6.6 2.2.21.7.3 1.2.4 1.6.1.5.31 1 .4 1.5.2.5.41.9.7 1.3.3.4.6.6 1.1.8.2.1.4.1.7.1s.6 0 1-.1c.8-.2 1.41-.5 1.7-1.1.4-.5.6-1.1.71-1.7.09-.6.09-1.3 0-2-.11-.7-.21-1.3-.41-2-.09-.4-.2-.9-.4-1.5-.1-.6-.3-1.2-.4-1.9s-.2-1.3-.29-2c-.11-.7 0-1.3.09-1.9.1-.6.3-1.1.6-1.5.31-.4.7-.7 1.4-.9.1.1.3 0 .5 0 .5 0 1 .2 1.5.5.7.5 1.3 1.1 2 2 .6.9 1.2 1.8 1.7 2.9s1 2.2 1.4 3.3.7 2.1 1 3.1c.31.9.5 1.7.6 2.2.3 1.3.6 2.7.9 4.4.31 1.6.5 3.4.7 5.1.2 1.8.2 3.6.11 5.3zm20.59-14.9c-.4 1.1-1 2.2-1.8 3.2-.79 1-1.7 1.9-2.7 2.6s-2 1.2-2.9 1.5c-.69.2-1.4.3-2.1.3-.9 0-1.7-.1-2.5-.4-1.5-.5-2.8-1.3-3.9-2.3-1.19-1-2.1-2.3-2.9-3.6-.79-1.4-1.4-2.8-1.7-4.2-.4-1.5-.59-3.2-.59-5s.29-3.6.79-5.2c.5-1.7 1.3-3.1 2.4-4.4s2.5-2.2 4.4-2.6c.5-.5 1.2-.6 1.8-.6.3 0 .7 0 1 .1 1 .1 2 .4 2.8.9.9.5 1.6 1.1 2.2 1.9.61.8 1.11 1.7 1.4 2.8.3 1.4.4 2.8.1 4.2s-.8 2.7-1.6 3.8c-.79 1.2-1.79 2.2-2.9 3.1-1.2.9-2.39 1.5-3.8 1.9.3.9.8 1.4 1.5 1.6.41.1.8.2 1.2.2.3 0 .71 0 1.1-.1.61-.1 1.2-.4 1.7-.9.5-.4 1-.9 1.41-1.4.5-.5.89-1 1.39-1.4s1-.7 1.5-.9c.2-.1.4-.1.61-.1.39 0 .79.1 1.19.3.6.3.9.7 1.1 1.4.3 1 .21 2.1-.2 3.3zm-10.3-11.1c.3-.5.4-1 .21-1.5-.11-.4-.31-.8-.61-1.1-.2-.3-.5-.4-.89-.4h-.31c-.69.2-1.19.5-1.6.9-.4.5-.59 1-.8 1.6-.2.6-.29 1.2-.29 1.9.19.5.29 1 .29 1.6.4-.2.9-.4 1.4-.7.6-.3 1.1-.6 1.5-1 .5-.4.81-.8 1.1-1.3zm-44.1 16.4c-.19-.1-.4-.1-.69-.1-.21 0-.41 0-.61.1-.39.1-.8.3-1.3.6-.4.3-.8.6-1 1-.09.1-.09.3-.09.5 0 .3 0 .5.09.8.1.3.1.6.2.8 0 .3.1.4.1.5s0 .2.11.4c0 .2.09.4.19.6s.1.4.2.5c.11.2.2.3.2.3.41-.1.91-.3 1.3-.7.5-.4.9-.8 1.2-1.3s.6-1 .8-1.5.2-1 .11-1.5c-.11-.5-.41-.8-.81-1zm-2.19-10.5c.09-.7.09-1.3 0-1.8-.11-.5-.41-.9-.81-1-.19-.1-.5-.1-.69-.1-.21 0-.41 0-.61.1-.39.1-.8.3-1.3.6-.4.3-.8.6-1 1-.09.1-.09.4-.09.8s.09.9.19 1.5.2 1 .31 1.5c.09.5.19.8.19.9s0 .2.1.3c0 .1.1.3.1.4.11.1.11.3.2.4 0 .2.1.3.1.3.5-.1 1-.4 1.5-1 .5-.5.81-1.1 1.1-1.8.3-.7.5-1.4.71-2.1zm0-1.8c-.11-.5-.41-.9-.81-1-.19-.1-.5-.1-.69-.1-.21 0-.41 0-.61.1-.39.1-.8.3-1.3.6-.4.3-.8.6-1 1-.09.1-.09.4-.09.8s.09.9.19 1.5.2 1 .31 1.5c.09.5.19.8.19.9s0 .2.1.3c0 .1.1.3.1.4.11.1.11.3.2.4 0 .2.1.3.1.3.5-.1 1-.4 1.5-1 .5-.5.81-1.1 1.1-1.8.3-.7.5-1.4.71-2.1.09-.7.09-1.3 0-1.8zm3 13.3c-.11-.5-.41-.8-.81-1-.19-.1-.4-.1-.69-.1-.21 0-.41 0-.61.1-.39.1-.8.3-1.3.6-.4.3-.8.6-1 1-.09.1-.09.3-.09.5 0 .3 0 .5.09.8.1.3.1.6.2.8 0 .3.1.4.1.5s0 .2.11.4c0 .2.09.4.19.6s.1.4.2.5c.11.2.2.3.2.3.41-.1.91-.3 1.3-.7.5-.4.9-.8 1.2-1.3s.6-1 .8-1.5.2-1 .11-1.5zm43.5-18.9c-.11-.4-.31-.8-.61-1.1-.2-.3-.5-.4-.89-.4h-.31c-.69.2-1.19.5-1.6.9-.4.5-.59 1-.8 1.6-.2.6-.29 1.2-.29 1.9.19.5.29 1 .29 1.6.4-.2.9-.4 1.4-.7.6-.3 1.1-.6 1.5-1 .5-.4.81-.8 1.1-1.3.3-.5.4-1 .21-1.5zm0 0c-.11-.4-.31-.8-.61-1.1-.2-.3-.5-.4-.89-.4h-.31c-.69.2-1.19.5-1.6.9-.4.5-.59 1-.8 1.6-.2.6-.29 1.2-.29 1.9.19.5.29 1 .29 1.6.4-.2.9-.4 1.4-.7.6-.3 1.1-.6 1.5-1 .5-.4.81-.8 1.1-1.3.3-.5.4-1 .21-1.5zm-43.5 18.9c-.11-.5-.41-.8-.81-1-.19-.1-.4-.1-.69-.1-.21 0-.41 0-.61.1-.39.1-.8.3-1.3.6-.4.3-.8.6-1 1-.09.1-.09.3-.09.5 0 .3 0 .5.09.8.1.3.1.6.2.8 0 .3.1.4.1.5s0 .2.11.4c0 .2.09.4.19.6s.1.4.2.5c.11.2.2.3.2.3.41-.1.91-.3 1.3-.7.5-.4.9-.8 1.2-1.3s.6-1 .8-1.5.2-1 .11-1.5zm-3-13.3c-.11-.5-.41-.9-.81-1-.19-.1-.5-.1-.69-.1-.21 0-.41 0-.61.1-.39.1-.8.3-1.3.6-.4.3-.8.6-1 1-.09.1-.09.4-.09.8s.09.9.19 1.5.2 1 .31 1.5c.09.5.19.8.19.9s0 .2.1.3c0 .1.1.3.1.4.11.1.11.3.2.4 0 .2.1.3.1.3.5-.1 1-.4 1.5-1 .5-.5.81-1.1 1.1-1.8.3-.7.5-1.4.71-2.1.09-.7.09-1.3 0-1.8zm3 13.3c-.11-.5-.41-.8-.81-1-.19-.1-.4-.1-.69-.1-.21 0-.41 0-.61.1-.39.1-.8.3-1.3.6-.4.3-.8.6-1 1-.09.1-.09.3-.09.5 0 .3 0 .5.09.8.1.3.1.6.2.8 0 .3.1.4.1.5s0 .2.11.4c0 .2.09.4.19.6s.1.4.2.5c.11.2.2.3.2.3.41-.1.91-.3 1.3-.7.5-.4.9-.8 1.2-1.3s.6-1 .8-1.5.2-1 .11-1.5zm-3-13.3c-.11-.5-.41-.9-.81-1-.19-.1-.5-.1-.69-.1-.21 0-.41 0-.61.1-.39.1-.8.3-1.3.6-.4.3-.8.6-1 1-.09.1-.09.4-.09.8s.09.9.19 1.5.2 1 .31 1.5c.09.5.19.8.19.9s0 .2.1.3c0 .1.1.3.1.4.11.1.11.3.2.4 0 .2.1.3.1.3.5-.1 1-.4 1.5-1 .5-.5.81-1.1 1.1-1.8.3-.7.5-1.4.71-2.1.09-.7.09-1.3 0-1.8zm3 13.3c-.11-.5-.41-.8-.81-1-.19-.1-.4-.1-.69-.1-.21 0-.41 0-.61.1-.39.1-.8.3-1.3.6-.4.3-.8.6-1 1-.09.1-.09.3-.09.5 0 .3 0 .5.09.8.1.3.1.6.2.8 0 .3.1.4.1.5s0 .2.11.4c0 .2.09.4.19.6s.1.4.2.5c.11.2.2.3.2.3.41-.1.91-.3 1.3-.7.5-.4.9-.8 1.2-1.3s.6-1 .8-1.5.2-1 .11-1.5zm-3-13.3c-.11-.5-.41-.9-.81-1-.19-.1-.5-.1-.69-.1-.21 0-.41 0-.61.1-.39.1-.8.3-1.3.6-.4.3-.8.6-1 1-.09.1-.09.4-.09.8s.09.9.19 1.5.2 1 .31 1.5c.09.5.19.8.19.9s0 .2.1.3c0 .1.1.3.1.4.11.1.11.3.2.4 0 .2.1.3.1.3.5-.1 1-.4 1.5-1 .5-.5.81-1.1 1.1-1.8.3-.7.5-1.4.71-2.1.09-.7.09-1.3 0-1.8zm46.5-5.6c-.11-.4-.31-.8-.61-1.1-.2-.3-.5-.4-.89-.4h-.31c-.69.2-1.19.5-1.6.9-.4.5-.59 1-.8 1.6-.2.6-.29 1.2-.29 1.9.19.5.29 1 .29 1.6.4-.2.9-.4 1.4-.7.6-.3 1.1-.6 1.5-1 .5-.4.81-.8 1.1-1.3.3-.5.4-1 .21-1.5zm0 0c-.11-.4-.31-.8-.61-1.1-.2-.3-.5-.4-.89-.4h-.31c-.69.2-1.19.5-1.6.9-.4.5-.59 1-.8 1.6-.2.6-.29 1.2-.29 1.9.19.5.29 1 .29 1.6.4-.2.9-.4 1.4-.7.6-.3 1.1-.6 1.5-1 .5-.4.81-.8 1.1-1.3.3-.5.4-1 .21-1.5z" fill="#740806"/><g fill="#fffcc8"><path d="M89.157 99.275c-.2-.7-.5-1.1-1.1-1.4-.4-.2-.8-.3-1.19-.3-.21 0-.41 0-.61.1-.5.2-1 .5-1.5.9s-.89.9-1.39 1.4c-.41.5-.91 1-1.41 1.4-.5.5-1.09.8-1.7.9-.39.1-.8.1-1.1.1-.4 0-.79-.1-1.2-.2-.7-.2-1.2-.7-1.5-1.6 1.41-.4 2.6-1 3.8-1.9 1.11-.9 2.11-1.9 2.9-3.1.8-1.1 1.3-2.4 1.6-3.8s.2-2.8-.1-4.2c-.29-1.1-.79-2-1.4-2.8-.6-.8-1.3-1.4-2.2-1.9-.8-.5-1.8-.8-2.8-.9-.3-.1-.7-.1-1-.1-.6 0-1.3.1-1.8.6-1.9.4-3.3 1.3-4.4 2.6s-1.9 2.7-2.4 4.4c-.5 1.6-.79 3.4-.79 5.2s.19 3.5.59 5c.3 1.4.91 2.8 1.7 4.2.8 1.3 1.71 2.6 2.9 3.6 1.1 1 2.4 1.8 3.9 2.3.8.3 1.6.4 2.5.4.7 0 1.41-.1 2.1-.3.9-.3 1.9-.8 2.9-1.5s1.91-1.6 2.7-2.6c.8-1 1.4-2.1 1.8-3.2.41-1.2.5-2.3.2-3.3zm-14.5-4.8c0-.6-.1-1.1-.29-1.6 0-.7.09-1.3.29-1.9.21-.6.4-1.1.8-1.6.41-.4.91-.7 1.6-.9h.31c.39 0 .69.1.89.4.3.3.5.7.61 1.1.19.5.09 1-.21 1.5-.29.5-.6.9-1.1 1.3-.4.4-.9.7-1.5 1-.5.3-1 .5-1.4.7zM68.367 117.475c-.11 1.7-.41 3.4-.91 4.9s-1.3 2.8-2.3 3.9-2.4 1.8-4.1 2.3c-.69.2-1.6.3-2.5.3-1 0-1.9-.1-2.9-.3-.9-.2-1.7-.6-2.4-1-.7-.5-1.2-1.1-1.39-1.9-.11-.3-.11-.6 0-1 .09-.3.19-.7.39-.9s.4-.5.7-.8.6-.4.91-.4c.29-.1.59-.1.89-.1h.2c.41 0 .8.1 1.2.1.4.1.9.1 1.3.1h.3c.3 0 .7 0 1-.1.8-.2 1.4-.6 1.8-1.3s.7-1.4.9-2.4c.2-.9.3-1.9.3-3s-.1-2.1-.2-3.2c-.1-1-.19-2-.4-2.9-.2-.9-.29-1.6-.4-2.2-.7 1.9-1.39 3.4-2.3 4.5-.8 1.1-2 1.9-3.5 2.2-.59.1-1.09.2-1.7.2-.5 0-1-.1-1.5-.2-1-.3-1.89-.7-2.7-1.4-.8-.6-1.5-1.4-2.19-2.3-.61-.9-1.21-1.9-1.71-2.9s-.9-2.1-1.2-3.1-.59-2-.7-2.9c-.1-.7-.3-1.6-.39-2.7-.11-1.1-.21-2.2-.11-3.3.11-1.1.3-2.1.61-2.9.39-.8 1-1.3 1.89-1.5h.4c.4 0 .8.1 1.21.4.5.4.89.9 1.29 1.5s.8 1.4 1.1 2.2.61 1.6.8 2.4c.2.8.4 1.6.6 2.2.21.7.3 1.2.4 1.6.1.5.31 1 .4 1.5.2.5.41.9.7 1.3.3.4.6.6 1.1.8.2.1.4.1.7.1s.6 0 1-.1c.8-.2 1.41-.5 1.7-1.1.4-.5.6-1.1.71-1.7.09-.6.09-1.3 0-2-.11-.7-.21-1.3-.41-2-.09-.4-.2-.9-.4-1.5-.1-.6-.3-1.2-.4-1.9s-.2-1.3-.29-2c-.11-.7 0-1.3.09-1.9.1-.6.3-1.1.6-1.5.31-.4.7-.7 1.4-.9.1.1.3 0 .5 0 .5 0 1 .2 1.5.5.7.5 1.3 1.1 2 2 .6.9 1.2 1.8 1.7 2.9s1 2.2 1.4 3.3.7 2.1 1 3.1c.31.9.5 1.7.6 2.2.3 1.3.6 2.7.9 4.4.31 1.6.5 3.4.7 5.1.2 1.8.2 3.6.11 5.3zM43.157 108.775c-.29-.8-.6-1.7-1-2.4s-.9-1.4-1.5-1.9-1.29-.9-2.1-1.2c-.6-.3-1.4-.4-2.19-.4h-.41c1.5-1.6 2.5-3.3 3.1-5.3.7-2 .7-4 .2-6.1-.3-1.2-.8-2.2-1.5-3s-1.39-1.4-2.39-1.9-2-.7-3.11-.8h-.6c-.9 0-1.79.1-2.9.4-.8.2-1.6.5-2.5.9-.8.4-1.7.9-2.5 1.4-.89.5-1.7 1.1-2.39 1.7-.71.7-1.41 1.3-2 1.9-.21.1-.31.5-.31 1s0 1.1.1 1.8c.1.8.3 1.5.4 2.3.2.8.31 1.6.5 2.3.1.7.31 1.3.4 1.9.1.6.2 1 .3 1.3.2 1 .4 2.1.7 3.2s.5 2.1.8 3.2c.11.3.2.8.4 1.6.21.7.4 1.6.71 2.6.29 1 .59 2 .89 3.1s.7 2.1 1 3 .7 1.7 1 2.3c.4.6.7.9 1 .9.5.1 1 .1 1.5.1.4 0 .7-.1 1.11-.1.89 0 1.79-.2 2.59-.4 1.5-.4 3-1 4.5-1.8s2.7-1.8 3.8-2.9c1-1.1 1.8-2.4 2.3-3.9s.5-3.1.1-4.8zm-14.1-6.5s-.1-.1-.1-.3c-.09-.1-.09-.3-.2-.4 0-.1-.1-.3-.1-.4-.1-.1-.1-.2-.1-.3s-.1-.4-.19-.9c-.11-.5-.21-.9-.31-1.5s-.19-1.1-.19-1.5 0-.7.09-.8c.2-.4.6-.7 1-1 .5-.3.91-.5 1.3-.6.2-.1.4-.1.61-.1.19 0 .5 0 .69.1.4.1.7.5.81 1 .09.5.09 1.1 0 1.8-.21.7-.41 1.4-.71 2.1-.29.7-.6 1.3-1.1 1.8-.5.6-1 .9-1.5 1zm6.2 8.1c-.2.5-.5 1-.8 1.5s-.7.9-1.2 1.3c-.39.4-.89.6-1.3.7 0 0-.09-.1-.2-.3-.1-.1-.1-.3-.2-.5s-.19-.4-.19-.6c-.11-.2-.11-.3-.11-.4s-.1-.2-.1-.5c-.1-.2-.1-.5-.2-.8-.09-.3-.09-.5-.09-.8 0-.2 0-.4.09-.5.2-.4.6-.7 1-1 .5-.3.91-.5 1.3-.6.2-.1.4-.1.61-.1.29 0 .5 0 .69.1.4.2.7.5.81 1 .09.5.09 1-.11 1.5z"/></g></g></g></svg>