<svg height="512" width="512" xmlns="http://www.w3.org/2000/svg"><path d="M389.122 324.24c8.572 5.618 18.212 8.206 27.849 8.094 3.762-5.803 6.762-12.199 8.036-18.943-.178.017-.357.038-.534.053-13.611 1.315-33.109-2.084-39.536-15.107a71.998 71.998 0 0 0-3.136 5.347c-1.172 2.195-2.262 4.434-3.347 6.676 1.58 5.61 5.842 10.167 10.668 13.88zM369.248 326.626a60.018 60.018 0 0 1-9.063 9.63c.87 6.969 4.812 13.584 9.785 18.913 3.573 3.574 8.076 5.818 12.886 6.946a85.274 85.274 0 0 0 17.277-11.024c-13.669-2.077-26.224-11.519-30.885-24.465zM347.956 344.428a62.835 62.835 0 0 1-12.187 4.709c-1.784 6.847-1.344 14.345 1.538 20.447a84.34 84.34 0 0 0 17.58.261c-5.881-6.758-8.463-16.466-6.931-25.417z" fill="#e36254"/><g fill="#a63c30"><path d="M335.769 349.137c-5.366 1.449-10.922 2.177-16.49 2.072-3.893-.074-8.571-.439-12.131 1.138-1.114.493-2.216 1.136-2.901 2.143s-.916 3.346.13 3.97c10.027 5.981 21.338 9.741 32.929 11.123-2.881-6.101-3.321-13.599-1.537-20.446zM389.122 324.24c-4.826-3.714-9.088-8.27-10.668-13.88-2.043 4.222-4.064 8.454-6.558 12.421a56.95 56.95 0 0 1-2.648 3.845c4.661 12.946 17.216 22.388 30.885 24.464 6.103-5.016 11.51-10.872 15.948-17.41.302-.444.598-.894.891-1.345-9.637.111-19.278-2.477-27.85-8.095zM360.185 336.255a63.112 63.112 0 0 1-12.229 8.173c-1.532 8.95 1.05 18.658 6.931 25.417 3.45-.312 6.88-.84 10.264-1.591a82.277 82.277 0 0 0 17.704-6.141c-4.81-1.127-9.313-3.372-12.886-6.946-4.972-5.328-8.914-11.943-9.784-18.912zM424.474 313.444c.177-.015.356-.035.534-.053.28-1.481.483-2.978.586-4.49.605-8.932-1.859-19.618-9.812-23.728-6.373-3.293-14.432-1.869-20.414 2.092-4.266 2.826-7.626 6.754-10.43 11.071 6.427 13.024 25.925 16.423 39.536 15.108z"/></g><path d="M346.999 371.898c-3.436 0-6.752-.213-9.918-.64-.336-.045-33.72-5.253-35.259-14.226-.403-2.349 1.13-4.43 4.557-6.187l.086-.042c3.469-1.537 7.675-1.421 11.384-1.319.497.014.986.027 1.463.036 14.141.252 28.642-5.044 39.777-14.55l.043-.035c8.999-7.183 14.164-17.736 19.158-27.94.666-1.36 1.33-2.717 2.001-4.064 6-12.756 18.968-24.006 32.119-20.765 2.862.705 5.542 2.188 7.751 4.288 13.169 12.522 6.178 36.151-2.701 48.202-14.226 20.926-37.56 34.709-62.426 36.872-2.738.247-5.421.37-8.035.37zm-39.123-18.026c-1.825.942-2.843 1.908-2.726 2.589.087.509 1.134 3.239 13.195 7.022 7.555 2.369 15.613 3.946 19.187 4.428 5.325.718 11.113.802 17.202.253 23.881-2.078 46.29-15.323 59.95-35.433l.038-.054c8.497-11.513 14.305-33.131 3.11-43.776-1.784-1.696-3.939-2.891-6.232-3.456-11.385-2.805-22.841 7.413-28.272 18.959-.684 1.374-1.345 2.724-2.007 4.076-5.155 10.532-10.484 21.422-20.062 29.078-11.751 10.024-27.054 15.621-42.012 15.34-.487-.009-.986-.023-1.492-.037-3.334-.092-7.113-.197-9.879 1.011z" fill="#7d271d"/><path d="M337.308 371.273c-.633 0-1.24-.357-1.528-.968-2.979-6.306-3.578-14.177-1.645-21.594a1.688 1.688 0 1 1 3.268.852c-1.737 6.664-1.216 13.698 1.431 19.3a1.689 1.689 0 0 1-1.526 2.41zM416.379 334.026c-10.083 0-19.814-2.89-28.182-8.374a1.948 1.948 0 0 1-.104-.074c-6.105-4.697-9.79-9.525-11.263-14.76a1.689 1.689 0 0 1 3.251-.915c1.266 4.495 4.544 8.735 10.021 12.96 7.962 5.203 17.251 7.909 26.851 7.783.926.004 1.697.736 1.708 1.669s-.736 1.697-1.669 1.708a62.63 62.63 0 0 1-.613.003zM400.135 352.778c-.084 0-.17-.006-.256-.019-14.792-2.246-27.439-12.279-32.22-25.561a1.689 1.689 0 1 1 3.178-1.144c4.3 11.945 16.175 21.335 29.549 23.366a1.689 1.689 0 0 1-.251 3.358zM354.888 371.534c-.472 0-.941-.197-1.275-.58-6.139-7.056-8.944-17.329-7.321-26.811a1.689 1.689 0 0 1 3.328.57c-1.456 8.508 1.05 17.713 6.541 24.024a1.69 1.69 0 0 1-1.273 2.797zM382.857 363.803c-.128 0-.257-.015-.387-.045-5.384-1.262-10.119-3.819-13.695-7.396l-.04-.042c-4.08-4.372-9.165-11.367-10.226-19.856a1.688 1.688 0 0 1 3.351-.418c.739 5.915 4.05 12.289 9.324 17.949 3.172 3.165 7.228 5.344 12.057 6.475a1.689 1.689 0 0 1-.384 3.333zM418.896 315.396c-6.023 0-12.132-.87-17.389-2.518-8.727-2.736-14.98-7.506-18.083-13.795a1.688 1.688 0 1 1 3.028-1.494c5.771 11.694 23.669 15.543 37.86 14.174.926-.099 1.753.59 1.843 1.518s-.59 1.754-1.518 1.843a59.515 59.515 0 0 1-5.741.272z" fill="#7d271d"/><g><path d="M155.364 323.049c-2.824.434-6.479 1.299-9.158 2.295-2.678.996-5.209 2.6-6.832 4.952s-2.211 5.52-1.062 8.137c1.148 2.616 4.22 4.386 6.976 3.631-2.225 2.194-3.244 5.597-2.408 8.608s3.577 5.448 6.688 5.748 6.348-1.678 7.339-4.642c-.068 2.463 1.669 4.809 3.977 5.67 2.308.862 5.074.362 6.969-1.213 5.757-4.784 5.259-10.778 5.827-14.574 7.425-6.135 47.163-48.545 54.588-54.68l-18.815-21.71c-7.467 9.902-54.089 57.778-54.089 57.778z" fill="#a63c30"/><path d="M163.262 359.556a8.49 8.49 0 0 1-2.969-.527c-1.675-.625-3.076-1.844-3.979-3.334-1.809 1.699-4.352 2.649-6.908 2.405-3.76-.362-7.112-3.231-8.153-6.977-.682-2.457-.358-5.141.805-7.449a8.161 8.161 0 0 1-5.292-4.563c-1.325-3.019-.858-6.765 1.219-9.774 1.662-2.408 4.302-4.337 7.634-5.575 2.42-.9 5.865-1.781 8.926-2.291 4.519-4.648 46.602-47.988 53.56-57.217a1.69 1.69 0 0 1 1.291-.671c.513-.007 1 .197 1.333.582l18.815 21.709a1.693 1.693 0 0 1-.201 2.408c-3.641 3.009-15.597 15.315-27.16 27.216-11.652 11.993-22.684 23.349-26.915 27.028-.049.424-.092.88-.136 1.354-.365 3.891-.864 9.22-6.2 13.654-1.592 1.321-3.634 2.022-5.67 2.022zm-6.356-9.468a1.689 1.689 0 0 1 1.689 1.735c-.046 1.674 1.191 3.411 2.879 4.041 1.725.645 3.855.271 5.3-.929 4.262-3.542 4.652-7.702 4.996-11.372.071-.759.138-1.475.24-2.153.062-.412.273-.786.594-1.052 3.641-3.009 15.596-15.314 27.157-27.214 10.99-11.312 21.429-22.057 26.13-26.329l-16.382-18.902c-10.282 12.49-51.118 54.448-52.935 56.313a1.69 1.69 0 0 1-.953.491c-2.988.459-6.452 1.326-8.826 2.208-1.868.695-4.43 2.01-6.031 4.329-1.396 2.022-1.751 4.573-.906 6.499.859 1.959 3.141 3.184 4.983 2.681a1.689 1.689 0 0 1 1.633 2.831c-1.83 1.804-2.62 4.599-1.966 6.954.664 2.391 2.861 4.292 5.222 4.519 2.398.226 4.843-1.305 5.576-3.497a1.688 1.688 0 0 1 1.6-1.153zm-1.542-27.039h.005z" fill="#7d271d"/></g><g><path d="M359.644 254.586c1.082-2.644 2.778-5.996 4.373-8.367s3.747-4.457 6.413-5.485 5.884-.858 8.159.87c2.275 1.729 3.278 5.129 1.898 7.632 2.653-1.65 6.201-1.845 8.932-.327 2.732 1.517 4.46 4.752 4.024 7.846s-3.117 5.78-6.23 6.05c2.411.509 4.285 2.747 4.583 5.193s-.835 5.018-2.809 6.492c-5.997 4.478-11.71 2.593-15.533 2.256-7.702 5.784-54.99 31.949-62.692 37.732l-17.367-34.735c11.375-4.943 66.249-25.157 66.249-25.157z" fill="#a63c30"/><path d="M310.763 316.167a1.692 1.692 0 0 1-1.51-.933l-17.367-34.735a1.692 1.692 0 0 1 .837-2.304c10.732-4.664 58.988-22.483 65.648-24.939 1.205-2.813 2.832-5.877 4.245-7.979 1.984-2.949 4.475-5.065 7.206-6.118 3.412-1.316 7.162-.894 9.788 1.101a8.163 8.163 0 0 1 3.198 6.212c2.517-.59 5.201-.278 7.431.96 3.399 1.888 5.403 5.818 4.876 9.558-.359 2.546-1.879 4.793-3.954 6.154 1.237 1.226 2.095 2.874 2.311 4.649.37 3.037-.994 6.196-3.475 8.049-5.559 4.152-10.857 3.389-14.725 2.835a58.79 58.79 0 0 0-1.348-.184c-4.513 3.209-17.38 10.685-30.969 18.581-13.474 7.828-27.407 15.923-31.178 18.755a1.693 1.693 0 0 1-1.014.338zm-15.053-35.57 15.687 31.375c5.268-3.53 17.254-10.493 29.861-17.818 13.477-7.83 27.411-15.926 31.183-18.758a1.688 1.688 0 0 1 1.162-.332c.682.06 1.395.162 2.15.27 3.648.525 7.784 1.118 12.225-2.198 1.505-1.123 2.366-3.107 2.144-4.935-.218-1.788-1.618-3.399-3.256-3.745a1.69 1.69 0 0 1 .203-3.335c2.302-.2 4.368-2.222 4.704-4.603.332-2.35-1.003-4.93-3.172-6.135-2.137-1.186-5.039-1.072-7.221.286a1.689 1.689 0 0 1-2.371-2.249c.922-1.673.262-4.178-1.441-5.472-1.675-1.273-4.238-1.524-6.53-.639-2.63 1.014-4.507 3.198-5.619 4.851-1.413 2.102-3.066 5.268-4.211 8.065-.18.438-.535.781-.979.945-.526.194-50.461 18.597-64.519 24.427zm63.934-26.011h.005z" fill="#7d271d"/><path d="M368.386 265.173c2.577 3.452 6.994 4.513 9.865 2.37s3.108-6.68.531-10.132-6.994-4.513-9.865-2.37-3.108 6.679-.531 10.132z" fill="#e36254"/></g><g><path d="M185.604 361.363c4.58 27.702 10 70.566 10 70.566s-20.201 11.332-16.259 17.244c3.941 5.912 34.82 6.898 40.074 0s17.079-66.021 17.079-66.021z" fill="#a63c30"/><path d="M199.924 455.674c-.804 0-1.6-.013-2.383-.038-3.814-.12-16.499-.874-19.6-5.525-.759-1.139-.978-2.501-.633-3.938 1.417-5.896 12.802-12.988 16.48-15.145-.886-6.927-5.736-44.513-9.849-69.388a1.688 1.688 0 0 1 2.33-1.828l50.894 21.789c.734.315 1.148 1.1.991 1.884-1.218 6.091-12.055 59.708-17.392 66.713-3.09 4.056-12.389 5.476-20.838 5.476zm-12.158-91.549c4.423 27.423 9.461 67.179 9.514 67.592a1.69 1.69 0 0 1-.849 1.685c-5.623 3.157-14.896 9.629-15.84 13.56-.162.676 0 1.036.159 1.275 1.152 1.729 7.466 3.726 16.897 4.023 9.789.309 18.38-1.42 20.429-4.11 3.612-4.742 11.731-40.343 16.497-63.985z" fill="#7d271d"/></g><g><path d="M323.306 358.38c-4.58 27.702-10.244 73.55-10.244 73.55s20.201 11.332 16.259 17.244c-3.941 5.912-34.819 6.898-40.074 0-5.254-6.898-17.079-66.021-17.079-66.021z" fill="#a63c30"/><path d="M308.743 455.674c-8.45 0-17.748-1.42-20.838-5.476-5.336-7.006-16.173-60.622-17.391-66.713a1.689 1.689 0 0 1 .919-1.851l51.138-24.773a1.689 1.689 0 0 1 2.402 1.795c-4.128 24.963-9.199 65.19-10.096 72.37 3.674 2.155 15.066 9.249 16.483 15.147.345 1.437.127 2.799-.633 3.938-3.101 4.652-15.787 5.405-19.602 5.526-.783.024-1.578.037-2.382.037zm-34.662-71.571c4.764 23.642 12.894 59.302 16.509 64.048 2.049 2.69 10.639 4.422 20.428 4.11 9.432-.297 15.746-2.295 16.898-4.023.159-.239.321-.6.159-1.275-.944-3.931-10.216-10.403-15.839-13.56a1.687 1.687 0 0 1-.849-1.68c.055-.441 5.297-42.779 9.731-70.407z" fill="#7d271d"/></g><g><path d="M323.632 358.545c-7.034 26.374-46.495 36.92-65.596 38.671-19.102 1.751-58.194-1.592-69.906-26.248-9.97-20.974 1.158-59.287 12.446-94.733 1.979-6.213 3.966-12.335 5.84-18.262l78.688-7.214c3.33 6.254 6.845 12.734 10.35 19.311 17.12 32.124 34.019 66.585 28.178 88.475z" fill="#e36254"/><path d="M295.454 270.07c-29.814 24.51-75.1 19.234-94.877 6.165 1.979-6.213 3.966-12.335 5.84-18.262l78.688-7.214c3.329 6.255 6.844 12.734 10.349 19.311z" fill="#a63c30"/><path d="M248.947 399.296c-20.852 0-51.886-5.59-62.342-27.603-10.058-21.159.592-59.012 12.362-95.97.844-2.651 1.69-5.286 2.528-7.895 1.125-3.505 2.236-6.966 3.31-10.363a1.69 1.69 0 0 1 1.456-1.173l78.688-7.214a1.687 1.687 0 0 1 1.644.888c1.677 3.15 3.402 6.358 5.149 9.606 1.72 3.2 3.462 6.44 5.202 9.704 17.619 33.06 34.319 67.218 28.319 89.704-3.188 11.954-13.281 22.211-29.188 29.663-13.269 6.216-28.27 9.373-37.886 10.254-2.721.25-5.847.399-9.242.399zm-41.26-139.743c-.97 3.057-1.967 6.165-2.976 9.307-.837 2.607-1.682 5.239-2.526 7.888-11.566 36.315-22.06 73.448-12.53 93.495 6.165 12.98 20.315 19.194 31.099 22.122 16.795 4.56 32.664 3.578 37.127 3.169 22.307-2.045 57.792-13.699 64.119-37.425 5.683-21.298-11.492-56.201-28.037-87.245a2715.8 2715.8 0 0 0-5.196-9.693 3096.008 3096.008 0 0 1-4.627-8.629z" fill="#7d271d"/></g><g><path d="M210.415 87.303c-10.4-12.088-16.624-17.469-28.485-28.453-6.508-6.027-14.217-12.951-23.947-13.862-4.1-.384-7.605 2.702-4.371 6.372 1.323 1.5 3.34 2.341 5.276 3.126-3.052-.334-5.08-.273-8.035.37-2.955.644-5.75 2.028-7.575 4.184-.964 1.139-1.643 2.707-.916 4.024.572 1.035 1.887 1.617 3.157 1.72s2.519-.19 3.738-.481c-12.671 23.695-13.511 70.734-2.717 85.073z" fill="#ffe8db"/><path d="M146.543 151.066a1.685 1.685 0 0 1-1.35-.673c-11.045-14.672-10.182-59.382 1.098-83.9-.298.008-.6.001-.907-.023-1.983-.162-3.707-1.153-4.498-2.587-.968-1.752-.555-3.97 1.105-5.931 1.934-2.285 4.954-3.97 8.505-4.743a29.606 29.606 0 0 1 2.164-.396 8.31 8.31 0 0 1-.313-.335c-1.711-1.941-2.147-4.127-1.196-5.996 1.112-2.186 3.922-3.464 6.991-3.173 10.559.988 18.869 8.685 24.936 14.304 1.474 1.365 2.86 2.643 4.178 3.858 9.194 8.475 15.268 14.074 24.439 24.732a1.69 1.69 0 0 1-2.56 2.203c-9.043-10.511-14.736-15.758-24.168-24.452-1.32-1.217-2.709-2.496-4.184-3.863-5.713-5.291-13.538-12.537-22.957-13.42-1.848-.169-3.269.563-3.666 1.343-.378.742.183 1.623.719 2.231 1.091 1.238 2.978 2.003 4.644 2.678a1.689 1.689 0 0 1-.818 3.244c-2.985-.327-4.805-.244-7.492.342-2.829.616-5.189 1.903-6.645 3.625-.529.625-1.037 1.555-.726 2.117.237.428 1 .788 1.816.854 1.018.082 2.131-.184 3.209-.441a1.688 1.688 0 0 1 1.881 2.438c-5.763 10.776-9.485 27.708-9.959 45.295-.458 16.992 2.264 31.54 7.102 37.967a1.688 1.688 0 0 1-1.348 2.702z" fill="#e0a58f"/><path d="M165.068 70.502c9.631-4.776 29.526 24.298 31.96 29.785s-30.862 31.485-37.215 28.183c-6.353-3.303-3.25-53.75 5.255-57.968z" fill="#a63c30"/><path d="M161.147 130.417c-.811 0-1.522-.142-2.113-.449-2.955-1.536-4.394-8.456-4.278-20.566.133-13.857 2.846-37.082 9.562-40.412 1.854-.92 4.033-.939 6.476-.057 11.208 4.047 25.936 26.519 27.777 30.67.713 1.607.692 4.655-7.692 12.535-7.384 6.942-22.499 18.279-29.732 18.279zm6.268-58.756c-.591 0-1.12.118-1.596.354-3.8 1.884-7.386 18.966-7.674 36.555-.21 12.797 1.559 17.924 2.448 18.401 1.163.606 6.631-1.005 16.372-7.89 4.903-3.466 9.733-7.476 13.252-11.003 4.435-4.446 5.291-6.639 5.252-7.146-2.125-4.729-16.338-25.401-25.82-28.824-.829-.297-1.57-.447-2.234-.447zm-2.347-1.158h.005z" fill="#7d271d"/><path d="M277.163 86.467c10.094-12.344 16.181-17.88 27.763-29.158 6.355-6.188 13.887-13.303 23.592-14.457 4.089-.487 7.67 2.511 4.529 6.26-1.285 1.533-3.28 2.424-5.196 3.258 3.043-.41 5.072-.4 8.042.169 2.971.569 5.799 1.883 7.677 3.993.992 1.115 1.711 2.664 1.016 4-.546 1.049-1.846 1.664-3.113 1.799s-2.523-.127-3.749-.388c13.26 23.37 15.279 70.374 4.848 84.978z" fill="#ffe8db"/><path d="M342.57 148.61a1.688 1.688 0 0 1-1.373-2.67c4.676-6.546 7.032-21.158 6.148-38.133-.914-17.569-5.06-34.403-11.09-45.031a1.688 1.688 0 0 1 1.819-2.485c1.084.23 2.204.468 3.22.36.813-.087 1.567-.465 1.793-.899.296-.57-.234-1.486-.779-2.098-1.5-1.685-3.891-2.912-6.734-3.457-2.701-.518-4.523-.556-7.499-.154a1.687 1.687 0 0 1-.899-3.221c1.648-.717 3.517-1.53 4.575-2.794.521-.622 1.059-1.517.663-2.249-.416-.77-1.853-1.47-3.698-1.25-9.394 1.118-17.035 8.558-22.613 13.991-1.443 1.405-2.801 2.721-4.091 3.972-9.209 8.926-14.767 14.313-23.543 25.045a1.688 1.688 0 1 1-2.614-2.138c8.899-10.883 14.83-16.631 23.807-25.332a2033.87 2033.87 0 0 0 4.085-3.966c5.925-5.769 14.04-13.671 24.57-14.924 3.062-.365 5.901.84 7.067 2.997.998 1.845.617 4.041-1.045 6.025-.098.117-.2.231-.304.342.69.08 1.403.194 2.174.342 3.568.684 6.63 2.292 8.621 4.528 1.708 1.919 2.177 4.126 1.253 5.902-.756 1.453-2.454 2.488-4.431 2.699a8.998 8.998 0 0 1-.906.046c11.89 24.228 13.873 68.902 3.199 83.847a1.689 1.689 0 0 1-1.375.705z" fill="#e0a58f"/><path d="M322.075 68.535c-9.748-4.533-28.908 25.03-31.204 30.576s31.641 30.702 37.91 27.242c6.268-3.461 1.903-53.814-6.706-57.818z" fill="#a63c30"/><path d="M327.317 128.335c-7.301 0-22.504-10.828-29.998-17.527-8.582-7.67-8.681-10.718-8.008-12.343 1.737-4.196 15.898-27.031 27-31.356 2.42-.943 4.598-.978 6.476-.106 6.799 3.162 10.093 26.316 10.572 40.167.418 12.099-.847 19.05-3.762 20.66-.625.346-1.394.505-2.28.505zm-34.869-28.617c-.027.507.885 2.679 5.431 7.013 3.607 3.438 8.537 7.327 13.526 10.669 9.908 6.635 15.416 8.106 16.56 7.474.877-.5 2.516-5.668 1.986-18.451-.728-17.578-4.741-34.567-8.588-36.358-1.024-.477-2.275-.414-3.825.19-9.393 3.66-23.084 24.683-25.09 29.463z" fill="#7d271d"/><path d="M318.802 254.795c-26.445 10.685-57.103 16.323-73.84 15.573-16.785 1.175-47.768-3.739-74.551-13.849a173.93 173.93 0 0 1-10.825-4.491c-17.988-8.203-32.563-18.983-37.083-32.01-1.221-3.497-1.711-7.163-1.344-10.979 1.459-15.264 44.612-100.281 55.126-111.746s36.157-15.728 66.307-16.106 59.413 3.197 70.211 14.395 52.541 95.151 54.382 110.374c2.519 20.821-20.612 37.617-48.383 48.839z" fill="#e36254"/><path d="M318.856 251.432a60.62 60.62 0 0 1-.054 3.363c-26.445 10.685-57.103 16.323-73.84 15.573-16.785 1.175-47.768-3.739-74.551-13.849a54.858 54.858 0 0 1-.132-3.226c-.449-35.832 32.448-65.299 73.476-65.813 41.027-.513 74.653 28.12 75.101 63.952z" fill="#ffe8db"/><circle cx="284.434" cy="173.051" fill="#fff" transform="translate(-2.315 3.864)" r="21.298"/><path d="M284.426 196.038a22.83 22.83 0 0 1-16.041-6.53 22.836 22.836 0 0 1-6.936-16.169c-.159-12.674 10.023-23.114 22.697-23.274l.296-.002c6.03 0 11.716 2.312 16.041 6.531 4.396 4.287 6.859 10.029 6.936 16.169s-2.241 11.942-6.528 16.337a22.836 22.836 0 0 1-16.168 6.936l-.297.002zm.014-42.597c-.084 0-.168 0-.253.002-10.812.135-19.498 9.042-19.363 19.854.066 5.238 2.167 10.136 5.917 13.793s8.69 5.649 13.937 5.569c5.238-.066 10.136-2.167 13.793-5.917s5.635-8.699 5.569-13.937-2.167-10.136-5.917-13.794a19.473 19.473 0 0 0-13.683-5.57z"/><path d="M293.776 173.918c.088 7.046-5.553 12.831-12.599 12.919s-12.831-5.553-12.919-12.599c-.088-7.049 5.553-12.835 12.599-12.923a12.702 12.702 0 0 1 8.204 2.858c-.185.104-.37.215-.551.335-3.25 2.118-4.807 5.495-3.477 7.544 1.334 2.045 5.055 1.986 8.308-.133.076-.049.153-.099.225-.153.131.699.201 1.419.21 2.152z"/><circle cx="202.077" cy="174.083" fill="#fff" transform="translate(-1.397 1.635)" r="21.298"/><path d="M202.07 197.07a22.83 22.83 0 0 1-16.041-6.53 22.842 22.842 0 0 1-6.936-16.169c-.159-12.674 10.023-23.114 22.697-23.274l.296-.002c6.03 0 11.716 2.312 16.041 6.531a22.836 22.836 0 0 1 6.936 16.168 22.837 22.837 0 0 1-6.528 16.337 22.836 22.836 0 0 1-16.465 6.939zm.014-42.598c-.084 0-.168 0-.252.002-10.812.135-19.498 9.042-19.363 19.854a19.481 19.481 0 0 0 5.917 13.793 19.48 19.48 0 0 0 13.685 5.571l.253-.002a19.48 19.48 0 0 0 13.793-5.916 19.486 19.486 0 0 0 5.57-13.937 19.485 19.485 0 0 0-5.917-13.794 19.482 19.482 0 0 0-13.686-5.571z"/><path d="M192.759 175.183c.088 7.046 5.873 12.687 12.919 12.599 7.045-.088 12.687-5.873 12.599-12.919a12.618 12.618 0 0 0-.209-2.152c-.076.049-.153.103-.229.153-3.25 2.118-6.971 2.177-8.304.132-1.33-2.049.224-5.425 3.477-7.544.181-.12.366-.231.551-.335a12.708 12.708 0 0 0-8.204-2.858c-7.046.09-12.688 5.875-12.6 12.924zM233.348 192.399l19.699-.247c2.397-.03 3.738 2.753 2.221 4.609l-9.201 11.253a3.713 3.713 0 0 1-5.734.018l-9.122-11.011c-1.515-1.826-.235-4.593 2.137-4.622z"/><g><ellipse cx="213.005" cy="128.614" fill="#ffe8db" rx="12.454" ry="6.665" transform="rotate(-14.3 212.923 128.325)"/><path d="M209.343 137.458c-5.154 0-9.179-1.978-10.039-5.341-1.16-4.538 3.949-9.633 11.632-11.597s14.611.051 15.771 4.589c1.161 4.538-3.948 9.633-11.632 11.598-1.99.509-3.931.751-5.732.751zm7.315-14.304c-1.497 0-3.155.196-4.886.638-5.969 1.526-9.779 5.213-9.197 7.489.582 2.277 5.693 3.68 11.663 2.155 5.969-1.527 9.779-5.213 9.197-7.49-.414-1.615-3.111-2.792-6.777-2.792z" fill="#e0a58f"/></g><g><ellipse cx="270.923" cy="130.301" fill="#ffe8db" rx="6.666" ry="12.454" transform="rotate(-68.72 270.83 130.262)"/><path d="M275.728 139.663c-2.402 0-5.102-.512-7.84-1.579-7.389-2.88-11.844-8.556-10.142-12.921.883-2.266 3.186-3.733 6.482-4.129 2.92-.351 6.375.176 9.729 1.483 7.389 2.881 11.843 8.556 10.142 12.921-1.071 2.747-4.29 4.225-8.371 4.225zm-9.688-15.356c-.488 0-.959.026-1.408.08-1.972.237-3.335.967-3.739 2.003-.853 2.189 2.482 6.309 8.222 8.548 5.741 2.237 10.985 1.462 11.838-.727s-2.482-6.309-8.222-8.548c-2.267-.883-4.631-1.356-6.691-1.356zm16.486 10.517h.005z" fill="#e0a58f"/></g><path d="M165.532 195.929c-6.289 17.901-8.333 37.274-5.946 56.099-17.988-8.203-32.563-18.983-37.083-32.01a138.405 138.405 0 0 1 21.645-27.594c4.222-4.163 9.189-8.259 15.109-8.642 2.435-.156 5.13.491 6.573 2.46 1.998 2.716.82 6.508-.298 9.687zM322.41 193.964c6.736 17.738 9.264 37.053 7.349 55.932 17.777-8.651 32.078-19.792 36.27-32.93a138.346 138.346 0 0 0-22.33-27.042c-4.326-4.056-9.393-8.026-15.321-8.261-2.438-.095-5.116.619-6.509 2.624-1.929 2.765-.657 6.527.541 9.677z" fill="#ffe8db"/><g><path d="M239.8 272.223c-16.983 0-44.618-4.548-69.986-14.123a176.033 176.033 0 0 1-10.93-4.535c-20.619-9.403-33.751-20.812-37.977-32.993-1.328-3.804-1.81-7.74-1.429-11.694 1.489-15.581 44.715-100.897 55.562-112.725 9.731-10.611 32.452-16.214 67.53-16.653 21.059-.263 58.344 1.323 71.448 14.912 11.496 11.922 53.013 96.21 54.843 111.344 2.278 18.832-15.275 36.805-49.427 50.607-27.785 11.226-58.451 16.395-74.451 15.698a77.523 77.523 0 0 1-5.183.162zm7.162-189.374c-1.432 0-2.878.009-4.348.028-34.11.427-56.007 5.662-65.084 15.558-10.289 11.22-53.288 96.093-54.69 110.765-.333 3.466.09 6.918 1.257 10.261 3.917 11.291 16.431 22.02 36.19 31.031 3.394 1.549 7 3.045 10.72 4.447 27.75 10.475 58.151 14.844 73.837 13.745a1.57 1.57 0 0 1 .194-.002c15.61.693 45.738-4.383 73.132-15.451 18.883-7.631 50.143-23.895 47.34-47.071-1.728-14.289-43.051-98.132-53.922-109.404-8.683-9.005-31.553-13.907-64.626-13.907zm71.84 171.947h.005z" fill="#a63c30"/></g><g><path d="M248.303 243.402c3.02.723 6.16.844 9.185.165 7.231-1.623 12.906-7.568 15.964-14.318.775-1.711 1.36-3.54 1.812-5.438-11.887.23-23.228 8.139-26.961 19.591z" fill="#f22a4e"/><path d="M253.356 245.708c-1.78 0-3.6-.221-5.446-.663a1.69 1.69 0 0 1-1.212-2.165c3.901-11.972 15.635-20.507 28.535-20.756.52-.019 1.02.222 1.347.629.328.406.449.942.328 1.451-.511 2.146-1.138 4.025-1.917 5.743-3.608 7.963-10.013 13.671-17.133 15.269a20.558 20.558 0 0 1-4.502.492zm-2.782-3.585c2.265.332 4.459.264 6.545-.204 6.092-1.367 11.623-6.364 14.796-13.367.411-.907.776-1.871 1.101-2.912-9.914 1.038-18.723 7.496-22.442 16.483z"/></g><g><path d="M277.141 206.52c-11.61 13.697-29.481 21.861-47.435 21.671 3.148 4.712 6.629 9.357 11.483 12.28a25.264 25.264 0 0 0 7.113 2.932c3.732-11.452 15.074-19.361 26.962-19.591 1.332-5.589 1.497-11.772 1.877-17.292z" fill="#821629"/><path d="M248.304 245.091a1.67 1.67 0 0 1-.394-.047 26.826 26.826 0 0 1-7.591-3.127c-5.362-3.229-9.014-8.294-12.017-12.789a1.689 1.689 0 0 1 1.404-2.627h.018c17.538.194 34.786-7.692 46.129-21.074a1.688 1.688 0 0 1 2.973 1.207c-.066.962-.126 1.943-.186 2.939-.295 4.855-.6 9.875-1.732 14.628a1.689 1.689 0 0 1-1.61 1.297c-11.486.222-21.926 7.799-25.389 18.426a1.69 1.69 0 0 1-1.605 1.167zm-15.418-15.262c2.829 3.955 5.627 7.059 9.175 9.195a23.732 23.732 0 0 0 5.181 2.336c4.207-10.765 14.837-18.428 26.655-19.181.726-3.543 1.025-7.301 1.26-11.005-11.14 11.208-26.467 17.991-42.271 18.655z"/></g></g><g><path d="M244.693 300.416c-.947 8.157-1.737 17.285.814 25.226.603 1.876 3.093 1.395 3.287-.445.867-8.214.101-16.532 1.01-24.781.361-3.272-4.736-3.228-5.111 0zM235.977 297.618c-2.317 6.148-4.595 14.054-2.837 20.62.427 1.596 2.846 1.623 3.26 0 .805-3.152.849-6.559 1.376-9.776.54-3.294 1.291-6.532 2.312-9.71.85-2.649-3.16-3.659-4.111-1.134zM253.956 297.758a106.902 106.902 0 0 1 2.231 10.979c.545 3.61.808 7.356 1.613 10.914.318 1.405 2.46 1.364 2.802 0 .914-3.642.869-7.871.526-11.582-.367-3.972-1.107-7.844-2.113-11.705-.851-3.265-5.913-1.881-5.059 1.394zM236.242 328.135c.07 4.479.39 9.096 2.161 13.268.596 1.404 2.573.539 2.644-.716.238-4.156-.354-8.389-.441-12.552-.058-2.803-4.408-2.815-4.364 0zM254.325 329.983c.171 3.683-.26 7.525.482 11.149.264 1.287 2.411 1.669 2.966.387 1.559-3.603 1.46-7.677 1.324-11.536-.108-3.065-4.914-3.07-4.772 0zM246.195 342.178c-.182 3.09-.392 7.061 1.411 9.754.764 1.14 2.831 1.137 3.152-.412.619-2.994-.17-6.289-.062-9.342.102-2.908-4.332-2.875-4.501 0z" fill="#f0857a"/></g><g><path d="m418.342 206.202-32.619 46.377-46.856 66.619c-2.665 3.588-8.154.329-6.183-3.759l63.739-122.563c3.275-6.299 11.037-8.749 17.335-5.474 6.869 3.504 9.055 12.53 4.584 18.8z" fill="#3f9e53"/><path d="M335.951 322.443c-.941 0-1.9-.263-2.796-.805-2.431-1.471-3.25-4.321-1.992-6.932l.023-.046 63.739-122.564c1.792-3.446 4.819-5.988 8.524-7.158s7.643-.826 11.089.965c3.693 1.884 6.395 5.328 7.402 9.445 1.008 4.123.2 8.434-2.218 11.828L340.249 320.17c-1.106 1.49-2.676 2.273-4.298 2.273zm-1.756-6.249c-.576 1.218-.014 2.118.707 2.554.253.154 1.569.846 2.609-.556l79.449-112.961.006-.009c1.85-2.594 2.467-5.9 1.691-9.071-.773-3.161-2.839-5.801-5.667-7.245a11.103 11.103 0 0 0-8.526-.748 11.097 11.097 0 0 0-6.545 5.496z" fill="#30753e"/><path d="M413.568 201.626c-3.908-6.443.679-17.461-8.313-19.304-5.507-1.305-11.601-1.775-13.761-7.49-13.613 15.463-15.788 35.481 5.634 46.493 18.185 9.348 30.803-.445 35.245-13.601a20.375 20.375 0 0 1-8.147.875c-4.77-.719-8.299-3.203-10.658-6.973z" fill="#592721"/><path d="M410.863 226.701c-4.594 0-9.494-1.298-14.507-3.874-9.238-4.749-14.936-11.561-16.476-19.699-1.748-9.236 2.023-19.956 10.346-29.411a1.687 1.687 0 0 1 2.847.518c1.54 4.074 5.581 4.935 10.26 5.933.766.163 1.531.327 2.287.505 6.771 1.402 7.233 7.132 7.64 12.189.228 2.831.464 5.757 1.745 7.878 2.178 3.476 5.35 5.556 9.429 6.182a18.828 18.828 0 0 0 7.426-.807 1.687 1.687 0 0 1 2.113 2.149c-2.703 8.004-8.065 14.14-14.711 16.835-2.64 1.07-5.457 1.602-8.399 1.602zm-19.683-48.868c-6.525 8.168-9.423 17.051-7.981 24.667 1.359 7.179 6.305 13.007 14.701 17.323 7.323 3.765 14.27 4.507 20.093 2.146 4.916-1.993 9.041-6.237 11.622-11.863a22.04 22.04 0 0 1-5.64.162c-5.122-.772-9.105-3.378-11.838-7.747l-.012-.02c-1.701-2.805-1.97-6.142-2.23-9.369-.426-5.284-.866-8.314-4.978-9.157a98.395 98.395 0 0 0-2.287-.505c-4.16-.886-8.788-1.873-11.45-5.637z" fill="#451e1a"/><g><path d="M436.449 153.448c-18.015.703-34.718 9.756-44.955 21.384 2.16 5.715 8.254 6.185 13.761 7.49 8.992 1.843 4.405 12.861 8.313 19.304 2.359 3.771 5.888 6.254 10.659 6.973a20.36 20.36 0 0 0 8.147-.875 33.67 33.67 0 0 0 1.388-5.739c1.653-10.982-9.757-36.093 2.687-48.537z" fill="#fcd242"/><path d="M426.143 210.379a21.812 21.812 0 0 1-2.168-.111c-5.122-.772-9.105-3.378-11.838-7.747-1.714-2.825-1.983-6.162-2.242-9.389-.426-5.284-.866-8.314-4.978-9.157a98.395 98.395 0 0 0-2.287-.505c-4.932-1.052-10.523-2.243-12.714-8.042a1.689 1.689 0 0 1 .312-1.713c11.334-12.874 29.02-21.287 46.157-21.956a1.703 1.703 0 0 1 1.613 1.01 1.689 1.689 0 0 1-.353 1.87c-7.727 7.727-5.491 20.92-3.518 32.559 1.014 5.982 1.89 11.149 1.305 15.036a35.24 35.24 0 0 1-1.458 6.027 1.69 1.69 0 0 1-1.087 1.069 22.237 22.237 0 0 1-6.744 1.049zm-1.709-3.457c2.189.207 4.455.012 6.606-.567a32.002 32.002 0 0 0 1.051-4.622c.505-3.352-.369-8.509-1.294-13.968-1.784-10.525-3.957-23.339 1.896-32.348-14.65 1.587-29.306 8.917-39.208 19.725 1.772 3.304 5.539 4.107 9.849 5.025.766.163 1.532.327 2.287.505 6.771 1.402 7.233 7.132 7.64 12.189.228 2.835.464 5.767 1.751 7.888 2.166 3.463 5.34 5.547 9.422 6.173z" fill="#ff713e"/></g></g><g><path d="M259.276 63.198c17.964 16.039-30.526 22.608-50.13 45.451-33.107 38.578-90.391 46.627-91.965 17.07-3.029-56.829 115.694-86.094 142.095-62.521z" fill="#3f9e53"/><path d="M141.583 145.288c-4.523 0-8.661-.602-12.248-1.823-8.472-2.883-13.388-9.154-13.841-17.655-.619-11.626 3.576-22.706 12.468-32.936 7.678-8.831 18.995-16.984 32.729-23.577 17.36-8.334 38.189-14.004 57.147-15.555 19.72-1.614 34.835 1.299 42.562 8.197 3.368 3.007 4.815 5.925 4.424 8.922-.849 6.499-10.272 11.276-22.204 17.325-11.357 5.758-24.229 12.283-32.193 21.563-11.232 13.088-26.175 23.717-42.075 29.93-9.492 3.708-18.735 5.608-26.769 5.609zm86.322-88.607c-19.68 0-44.502 5.458-65.751 15.659-16.797 8.064-44.756 25.71-43.287 53.289.38 7.133 4.376 12.195 11.556 14.638 3.266 1.111 7.07 1.661 11.244 1.661 19.407.002 46.882-11.872 66.197-34.38 8.401-9.789 21.591-16.476 33.229-22.376 10.164-5.153 19.765-10.02 20.382-14.75.236-1.807-.852-3.758-3.324-5.966-5.889-5.257-16.883-7.775-30.246-7.775z" fill="#30753e"/><g><path d="M160.202 72.337c-1.505-2.002-3.323-3.778-4.351-4.752a40.457 40.457 0 0 0-10.01-6.951c-.407-.199-3.464-1.855-3.749-1.6-3.046 2.732-7.766 5.793-9.841 9.32 8.93.702 16.331 5.04 23.204 10.785 1.993 1.666 4.744 3.102 6.429 1.124 1.804-2.119.345-5.228-1.682-7.926z" fill="#3f9e53"/><path d="M159.868 82.906c-1.64 0-3.534-.83-5.497-2.471-7.898-6.602-14.761-9.808-22.253-10.397a1.69 1.69 0 0 1-1.323-2.539c1.648-2.801 4.685-5.24 7.365-7.392 1.019-.818 1.981-1.59 2.804-2.329 1.07-.96 2.327-.367 5.322 1.188.14.072.244.127.297.153a42.133 42.133 0 0 1 10.429 7.242c.696.66 2.813 2.666 4.54 4.964 3.938 5.24 3.053 8.35 1.616 10.035-.882 1.033-2.012 1.546-3.3 1.546zm-24.487-15.863c7.036 1.199 13.835 4.682 21.156 10.801.506.424 3.079 2.474 4.061 1.325 1.214-1.425-.572-4.256-1.745-5.817-1.556-2.07-3.518-3.93-4.163-4.541a38.815 38.815 0 0 0-9.591-6.66c-.067-.033-.195-.099-.368-.188a39.97 39.97 0 0 0-2.192-1.077 99.047 99.047 0 0 1-2.264 1.853c-1.666 1.337-3.482 2.796-4.894 4.304z" fill="#30753e"/></g></g><g><path d="M103.386 305.69c-28.841 22.372-40.374 55.785-25.758 74.627s49.847 15.978 78.688-6.394 40.374-55.785 25.758-74.627c-14.617-18.843-49.847-15.979-78.688 6.394zm62.451 16.885c-5.638 4.373-12.527 4.93-15.383 1.248-2.857-3.682-.604-10.216 5.034-14.59 5.641-4.376 12.53-4.933 15.387-1.251 2.856 3.683.604 10.217-5.038 14.593z" fill="#ffe8db"/><path d="M106.855 394.462c-13.201 0-23.936-4.569-30.561-13.11-7.43-9.579-8.737-22.923-3.68-37.576 4.971-14.401 15.531-28.401 29.737-39.421l1.035 1.334-1.035-1.334c14.205-11.019 30.391-17.767 45.576-19.001 15.447-1.256 28.05 3.328 35.48 12.906 7.43 9.579 8.737 22.923 3.68 37.576-4.971 14.401-15.531 28.401-29.736 39.42s-30.391 17.768-45.576 19.001a60.805 60.805 0 0 1-4.92.205zm-2.434-87.438c-13.692 10.621-23.854 24.065-28.614 37.854-4.673 13.538-3.552 25.756 3.156 34.403s18.265 12.774 32.538 11.61c14.539-1.182 30.087-7.682 43.78-18.304 13.693-10.621 23.855-24.065 28.614-37.854 4.673-13.538 3.552-25.756-3.156-34.404-6.708-8.647-18.263-12.771-32.539-11.61-14.538 1.182-30.086 7.683-43.779 18.305zm51.743 20.924c-3.009 0-5.484-1.077-7.044-3.089-3.482-4.489-1.139-11.938 5.333-16.959 6.476-5.022 14.274-5.44 17.756-.952 3.482 4.489 1.138 11.939-5.336 16.962-2.982 2.314-6.404 3.732-9.633 3.994-.366.029-.725.044-1.076.044zm9.005-20.711c-2.626 0-5.833 1.149-8.646 3.331-4.81 3.731-6.978 9.328-4.734 12.22 1.02 1.316 2.858 1.938 5.178 1.749 2.583-.209 5.366-1.38 7.836-3.296 4.812-3.733 6.982-9.331 4.738-12.223-.933-1.202-2.506-1.781-4.372-1.781zm.668 15.339h.005z" fill="#e0a58f"/><path d="M168.055 319.317c-2.478-3.676-6.436-6.464-10.839-6.978s-9.147 1.5-11.38 5.329c-.912 1.563-1.303 3.763-.017 5.035 1.605 1.587 4.622.621 6.293 2.139 2.308 2.096 6.22 1.611 9.018.236 2.798-1.376 4.819-3.462 6.925-5.761z" fill="#a63c30"/><path d="M156.27 327.944c-1.95 0-3.844-.536-5.293-1.852-.428-.389-1.287-.497-2.196-.612-1.304-.164-2.927-.368-4.149-1.577-1.922-1.901-1.512-4.929-.254-7.087 2.508-4.299 7.748-6.773 13.034-6.156 4.652.543 9.154 3.426 12.043 7.711a1.687 1.687 0 0 1-.155 2.084c-2.267 2.475-4.391 4.644-7.425 6.136-1.667.822-3.664 1.353-5.605 1.353zm-.439-13.997c-3.512 0-6.907 1.778-8.536 4.571-.594 1.02-.865 2.415-.288 2.985.406.402 1.276.511 2.196.627 1.259.159 2.827.356 4.045 1.462 1.708 1.551 4.897 1.071 7.138-.03 2.116-1.04 3.79-2.582 5.482-4.371-2.323-2.885-5.551-4.791-8.846-5.176a10.594 10.594 0 0 0-1.191-.068z" fill="#7d271d"/><path d="M130.098 307.901c1.915 3.355-.097 8.11-4.494 10.619s-9.513 1.823-11.428-1.533c-1.915-3.355.097-8.11 4.494-10.619 4.397-2.508 9.513-1.822 11.428 1.533z" fill="#fcd242"/><path d="M120.16 321.72c-.48 0-.956-.031-1.425-.094-2.692-.361-4.832-1.712-6.026-3.802-1.193-2.09-1.267-4.62-.208-7.122.992-2.344 2.886-4.405 5.332-5.801 5.199-2.966 11.359-1.996 13.732 2.163 1.193 2.091 1.267 4.62.208 7.122-.992 2.344-2.886 4.404-5.332 5.8-1.992 1.137-4.177 1.734-6.281 1.734zm3.955-15.16c-1.479 0-3.104.416-4.608 1.275-1.807 1.031-3.19 2.517-3.896 4.184-.639 1.51-.628 2.977.032 4.132.659 1.155 1.917 1.911 3.541 2.129 1.794.239 3.777-.195 5.584-1.226s3.191-2.517 3.896-4.183c.639-1.509.628-2.977-.032-4.132-.817-1.431-2.536-2.179-4.517-2.179z" fill="#ff713e"/><path d="M101.238 329.907c3.282 2.038 3.779 7.176 1.109 11.477s-7.495 6.136-10.778 4.098-3.779-7.176-1.109-11.477c2.671-4.301 7.496-6.135 10.778-4.098z" fill="#fc8028"/><path d="M94.568 348.008a7.306 7.306 0 0 1-3.889-1.091c-4.068-2.525-4.81-8.717-1.653-13.802 1.485-2.393 3.614-4.209 5.994-5.114 2.54-.965 5.064-.798 7.109.472s3.315 3.458 3.577 6.162c.245 2.534-.438 5.248-1.924 7.64-1.485 2.393-3.614 4.209-5.993 5.114-1.089.413-2.175.619-3.221.619zm3.662-17.244c-.64 0-1.318.131-2.01.394-1.692.643-3.227 1.971-4.325 3.738-2.138 3.444-1.879 7.635.565 9.152 1.129.701 2.595.766 4.128.184 1.691-.644 3.227-1.971 4.325-3.738 1.097-1.768 1.605-3.733 1.432-5.534-.158-1.632-.867-2.916-1.997-3.618-.62-.385-1.341-.578-2.118-.578z" fill="#e65725"/><g><path d="M86.217 360.948c3.355-1.915 8.11.097 10.619 4.494s1.823 9.513-1.533 11.428c-3.355 1.915-8.11-.097-10.619-4.494s-1.823-9.513 1.533-11.428z" fill="#f22a4e"/><path d="M92.535 379.272c-3.454 0-7.145-2.251-9.318-6.059-2.966-5.199-1.996-11.359 2.162-13.732 4.158-2.373 9.955-.075 12.922 5.124 2.966 5.198 1.996 11.358-2.162 13.732a7.217 7.217 0 0 1-3.604.935zm-5.481-16.858c-2.498 1.426-2.912 5.604-.903 9.125 2.009 3.52 5.817 5.289 8.315 3.864 2.498-1.426 2.912-5.604.903-9.125-2.009-3.52-5.817-5.29-8.315-3.864z" fill="#911027"/></g><g><path d="M114.511 375.776c-1.155-3.687 1.826-7.902 6.657-9.415s9.683.249 10.838 3.936-1.826 7.902-6.657 9.415c-4.831 1.512-9.684-.25-10.838-3.936z" fill="#a63c30"/><path d="M121.912 381.935c-4.234 0-7.913-2.148-9.012-5.655-.719-2.297-.252-4.784 1.316-7.002 1.47-2.079 3.76-3.688 6.447-4.529s5.486-.827 7.879.042c2.553.927 4.356 2.703 5.075 5.001 1.431 4.569-2.052 9.741-7.763 11.531a13.237 13.237 0 0 1-3.942.612zm2.735-14.431c-.971 0-1.979.156-2.975.468-1.985.622-3.654 1.778-4.699 3.256-.946 1.339-1.248 2.774-.851 4.043.86 2.745 4.854 4.04 8.722 2.83 3.868-1.212 6.41-4.554 5.55-7.299-.397-1.269-1.465-2.276-3.005-2.836a8.034 8.034 0 0 0-2.742-.462z" fill="#7d271d"/></g><g><path d="M147.034 359.748c-2.911-2.54-2.572-7.692.756-11.506s8.386-4.847 11.297-2.307 2.572 7.691-.756 11.506-8.386 4.848-11.297 2.307z" fill="#3f9e53"/><path d="M150.942 362.813c-1.867 0-3.63-.581-5.018-1.792-1.814-1.583-2.714-3.947-2.536-6.658.167-2.54 1.279-5.108 3.13-7.23 1.852-2.122 4.245-3.572 6.74-4.081 2.661-.543 5.127.029 6.94 1.612 3.608 3.148 3.341 9.379-.594 13.888-2.421 2.774-5.676 4.261-8.662 4.261zm4.223-16.581c-.395 0-.807.042-1.231.129-1.773.362-3.503 1.425-4.871 2.992-1.368 1.568-2.186 3.426-2.305 5.231-.107 1.635.385 3.018 1.387 3.892 2.167 1.891 6.251.909 8.915-2.145 2.665-3.054 3.086-7.232.918-9.124-.738-.643-1.711-.975-2.813-.975z" fill="#30753e"/></g></g></svg>