<svg id="Layer_3" enable-background="new 0 0 1000 1000" height="1000" viewBox="0 0 1000 1000" width="1000" xmlns="http://www.w3.org/2000/svg"><g><path d="m951.5 873.6c-31.7 30.5-195 18.8-195 18.8s-442.8 0-590.8-15.3c-148-15.3-81-257.2-81-257.2s-90.2-102.7-48.3-297.2l-9.4 24.7s-40-185.9 2.4-242c0 0 122.3 35.6 156.2 65.8 0 0 212.5-48.9 300.1.6l126.3-40.6s3.5 132.7-3.5 170.3l10.6 29.4c402.9-71.6 326.4 388.1 336 392.4 47.2 22.2 45.8 122.2-3.6 150.3z" fill="#ffc363"/><path d="m275.5 161.8c44.1 128 36.4 147.4 22.9 147.4s-24.1-7-26.4-42.3c-2.4-35.2-53.4-98.7-53.4-98.7zm67.5-8.3s59.9 120.4 52.3 197.9 16.9 65.9 22.9 59.9c7.9-7.9 28.2-118.1-21.1-254.9zm100.5 9.4s20 32.9 23.5 60.5 7.6 29.4 16.4 30.5 22-23.2-6.2-81.6zm199.1 165.1s89.9 109.5 107.2 158.7c11.7 33.3 7.1 47.1 5.9 54.3-1.1 6.4 1.4 8 5.6 10.7 19.1 12.7 76.6-42.5-53.4-224.4zm232.9 73.5c-8.4-28.9-19.7-22.8-19.7-22.8s7.5 61 6.2 75.6c-1.7 20.5 8.8 22.6 12.9 17.9 3.8-4.5 8.6-43.4.6-70.7z" fill="#dc8b4a"/><path d="m537.4 221.1c4.7-3.5 72.2-75.8 72.2-75.8l-1.2 156.2c-11.7-39.9-75.7-76.9-71-80.4zm-490.6-71.3c-2.5 7.9-6.2 180.2 1.2 154.5 7.5-25.8 92.6-93 92.6-93-20.3-15-91.3-69.4-93.8-61.5zm125.9 728.5 464 12.9c-546.2-297.2-464-12.9-464-12.9z" fill="#f9eba5"/><path d="m193.9 416.1c-3 .1-5.5-2.3-5.6-5.3s2.3-5.5 5.3-5.6c1 0 25.8-.6 53.2 2.2 38.1 3.9 61.7 12.3 70.2 25.1 1.7 2.5 1 5.9-1.5 7.5-.9.6-2 .9-3 .9-1.8 0-3.5-.9-4.5-2.4-13.6-20.4-86.9-23.1-114.1-22.4zm274.4 12.8c1.2 0 2.5-.4 3.5-1.3 25.4-21.2 89.7-16.3 90.4-16.2 3 .2 5.6-2 5.9-5 .2-3-2-5.6-5-5.9-2.8-.2-69.4-5.3-98.2 18.7-2.3 1.9-2.6 5.4-.7 7.7 1 1.4 2.6 2 4.1 2zm-67.3 58.1c.3 0 .6.1.9.1h.3c6.6-.3 15.3-3.6 26-9.7 15.5-8.9 15.8-10.9 16.1-12.7.3-2.2-.7-4.3-2.5-5.4-2.9-1.9-9.2-4-31.6-4-21.1 0-45.8 1.9-46.1 1.9-2 .2-3.7 1.4-4.5 3.2s-.6 3.9.6 5.5c12 16.1 37.9 20.6 40.8 21.1zm102.2 34.1c1.1-2.8-.2-5.9-2.9-7.1-2.8-1.2-5.9.1-7.1 2.9 0 .1-3.4 7.8-10.3 10.5-4 1.6-8.5 1.2-13.6-1-21.5-9.3-66.8-15.9-68.7-16.2-.3 0-.6-.1-.8-.1-1.3 0-33.2.6-78.3 13.5-14.8 4.3-26.5 4-33.8-.7-6.7-4.3-7.8-11.1-7.9-11.4-.4-3-3.1-5-6.1-4.7-3 .4-5.1 3.1-4.7 6.1.1.5 1.6 11.8 12.5 19 10.2 6.7 24.6 7.4 43 2.2 40.9-11.7 71.2-13 75-13.1 4.7.7 46.4 7 65.4 15.3 4.4 1.9 8.7 2.9 12.7 2.9 3.3 0 6.4-.6 9.4-1.8 11.2-4.4 16-15.8 16.2-16.3zm-58.2 64.5c-2.4-1.8-5.8-1.4-7.6 1-.2.2-19.6 24.7-59.8 29.7-3 .4-5.1 3.1-4.7 6.1.3 2.8 2.7 4.8 5.4 4.8h.7c44.6-5.5 66.2-32.6 67.1-33.8 1.7-2.5 1.3-5.9-1.1-7.8zm-298.9-374.4c0 1.7-.7 3.3-2.1 4.4-23.3 18.4-85 70.5-90.8 90.3-.5 1.6-1.9 6.5-6.6 6.5-1.9 0-3.6-.9-4.8-2.5-1.5-2-4.5-6.1-3.5-81.6.2-18.9 1.4-74.1 3.2-80.1.9-2.8 3.4-4.6 6.6-4.6 8 0 29.6 14.1 85.5 55.7 4.1 3 7.6 5.6 10.2 7.6 1.4 1 2.3 2.6 2.3 4.3zm-14.4.2c-1.4-1.1-3-2.2-4.6-3.4-12-9-30.2-22.5-46.2-33.7-16.9-11.8-25.3-16.6-29.4-18.6-.8 11-1.9 39.2-2.3 71.3-.4 29.4-.1 50.2.4 62.9 18.4-25.9 65.1-64.7 82.1-78.5zm854.3 628.9c-7.1 16.9-17.9 29.9-31.2 37.7-14.6 13.3-52.4 20.7-112.5 21.9-5.8.1-11.6.2-17.2.2-35.8 0-66-2-68.7-2.2-11.3 0-445.8-.3-591.2-15.3-32.8-3.4-58-17.8-75.1-42.8-21.3-31.3-29.6-78.1-24.5-139.3 3.7-45.1 13.5-80.6 13.9-82.1.2-.9.7-1.7 1.3-2.3-7.6-8.3-15-17.6-21.9-27.9-15.3-23.2-26.4-49.1-33.4-77.8-.2-.4-.4-.7-.5-1.1-.2-.6-.2-1.3-.2-1.9-10.4-45.2-10.4-97.1 0-155.2-1.5-.7-2.6-2-3-3.6-.1-.4-9.8-41.2-14.4-91.4-6.2-67.8-.4-119.7 17.1-154.3 1.2-2.4 4.1-3.6 6.7-2.7 13.7 4.9 130.6 47.2 155.7 65 12.4-2.8 68.3-14.8 131.7-18.6 42.2-2.6 79.5-1.1 110.8 4.3 20.6 3.6 38.6 8.9 54 15.9.2-.1.5-.2.7-.3.3-.1 30.8-9.7 61.4-19 63.4-19.2 65.6-18.7 67.8-18.1 1 .2 2.7 1 3.9 3.2 4.2 8 3.4 73.7 3.3 81.2-.3 21.3-1.5 71-6.2 87.5 1.4 3.5 4.5 11.7 8.2 23.4 103.2-17.5 184.3-1.5 241.2 47.6 103.5 89.6 98.3 262.1 96.3 327-.3 8.5-.5 16.6-.3 20.2 20.9 11.1 33.9 36.8 35.2 69.3.7 17.9-2.5 36.1-8.9 51.5zm-441.6-618.3c2.4 2.2 6.3 5.3 9.8 8.2 15.4 12.5 39 31.7 52.1 53.5 3.5-32.1 4.1-98.3 2.7-129.7-15.1 16.2-52.3 55.7-64.6 68zm439.6 567.3c-1.1-29.2-13.1-52.6-31.2-61.1-4-1.8-4-6.6-4.1-11.6 0-4.2.1-10.1.4-17.6 1.9-63.5 7.1-232.2-92.5-318.3-54-46.7-131.7-61.9-230.9-45.4 4.9 16.4 10.3 37.4 14.5 61.4 2.2 12.4 4.1 26.3 5.4 40.9.2.4.4.8.6 1.2.4 1.3.3 2.7-.2 3.8 3.4 44.8.2 97-21 143.1-24.1 52.4-67.4 89.3-128.8 109.7-.6.2-1.1.3-1.7.3-2.3 0-4.4-1.4-5.2-3.7-.9-2.9.6-5.9 3.5-6.9 58.4-19.4 99.6-54.3 122.4-103.9 3.8-8.2 6.9-16.6 9.6-25.2-17.4-10-45.9-25.2-53.4-26.3-3-.4-5-3.2-4.6-6.2s3.2-5 6.2-4.6c10.6 1.5 43.1 19.5 54.9 26.2 3.7-14.3 6-28.9 7.3-43.4-16.3-1.6-48.4-3.9-61.1-.5-2.9.8-5.9-.9-6.7-3.8s.9-5.9 3.8-6.7c15.6-4.2 51.1-1.3 64.7.1.8-14.7.6-29.1-.3-42.9-29.8 9.9-60.3 20.9-64.3 23.8-1 1-2.4 1.5-3.7 1.5-1.4 0-2.8-.5-3.8-1.6-2.1-2.1-2.1-5.6 0-7.7 4.8-4.8 44.6-18.5 71-27.2-1.2-13.7-3.1-26.6-5.1-38.3-9.6-54.3-26-94.6-26.1-95 0-.1-.1-.2-.1-.3s-.1-.1-.1-.2c-7.4-25.2-37.7-49.8-55.9-64.5-12.1-9.8-15.7-12.8-15.7-17.1 0-1.9.9-3.6 2.4-4.7 3.8-3 45.9-47.7 71.5-75.1.1-.1.2-.1.2-.2-18.1 4.5-70.5 20.5-108.8 32.5 8.5 5 16 10.6 22.4 16.9 2.2 2.1 2.2 5.5.1 7.7s-5.5 2.2-7.7.1c-33.5-32.5-100.1-46.7-192.6-41.1-70.7 4.3-131.8 18.8-132.4 18.9-1.7.4-3.5 0-4.9-1.2-14.2-12.3-108.9-48.1-149.8-62.9-29.5 64.7-11.2 177.6-3.1 218.5.7-3.1 1.4-6.1 2.1-9.2.7-2.9 3.6-4.7 6.5-4.1 2.9.7 4.7 3.6 4.1 6.5-9.2 39.1-13.8 75.4-14 109 7.9 1 38.1 4.7 69 9.2 73.8 10.8 79.4 15.5 81.7 17.5 2.3 1.9 2.6 5.4.6 7.7-1.1 1.3-2.6 1.9-4.2 1.9-1.2 0-2.5-.4-3.5-1.3-7-5.1-77.9-16.2-143.7-24.1.5 20.1 2.7 39.1 6.5 57.1 22.5-6.3 95.4-25.7 116.8-19.5 2.9.8 4.6 3.8 3.7 6.7-.8 2.9-3.8 4.6-6.7 3.7-16.8-4.8-81.7 11.4-111.3 19.7 3.8 14.8 8.7 28.7 14.9 41.9 14.5-6.7 82.1-38.1 88.9-40.1 2.9-.8 5.9.8 6.8 3.7.8 2.9-.8 5.9-3.7 6.8-4.8 1.4-55.1 24.5-87.2 39.4 3.4 6.5 7.1 12.8 11.1 18.8 27.1 41 63.3 64.6 88.9 77.1 27.9 13.6 49.6 17.6 49.8 17.6 3 .5 4.9 3.3 4.4 6.3-.5 2.6-2.8 4.5-5.4 4.5-.3 0-.6 0-.9-.1-.9-.2-23.2-4.1-52.3-18.3-18.1-8.8-41.4-23-63.3-44.5-5.5 21.9-33.6 145.1 10 209 15.2 22.2 37.8 35 67.2 38.1 116.5 12 420 14.6 540.2 15.1-118.9-28.3-127.7-105.7-131.4-137.8-.1-1.2-.3-2.3-.4-3.4 0-.4-.1-.7 0-1.1 3.3-42.7 15.8-68.5 37-76.6 22.1-8.4 47.6 5.4 62.6 19.8.2.2.4.4.5.6 117.5 150 193.9 111.1 235 90.1 14.8-7.6 25.6-13 33.7-6.7 2.4 1.8 2.8 5.3.9 7.6-1.8 2.4-5.3 2.8-7.6.9-2.7-2.1-13 3.2-22 7.8-17.6 9-42.7 21.8-75.1 21.8-6.2 0-12.8-.5-19.5-1.5-22.9-3.6-46.4-13.8-70-30.2-27.2-18.9-55.3-46.8-83.6-82.9-13.8-13.1-34.8-23.4-50.9-17.3-16.6 6.4-27 29.4-30 66.7.1.9.2 1.9.3 2.9 2.2 18.8 5.8 50.4 30.9 78.9 31 35.2 85.9 55.1 163.3 59.1 1.9.1 3.5 1.1 4.4 2.6 54.5 2.1 143.1 1.1 163.6-18.7.3-.3.7-.6 1.1-.8 25.8-14.5 36.3-50.3 35.1-79.3z" fill="#89191a"/></g></svg>