<svg id="Layer_1" height="512" viewBox="0 0 150 150" width="512" xmlns="http://www.w3.org/2000/svg" data-name="Layer 1"><path d="m41.8 34.732s19.844-5.066 32.753-5.725 17.7 13.114 17.7 13.114a102.378 102.378 0 0 1 5.495 11.817c1.635 4.307 2.725 8.662 1.652 10.862-2.539 5.224-3.89 8.114-3.89 8.114s8.543 13.129 9.59 18.782c.544 2.912-1.422 8.5-10.625 9.681-4.671.6-18.848-2.239-19.662-2.551-4.993-1.916-14.129-6.426-17.477-14.726 0 0-5.142 2.5-17.429-.947z" fill="#f5d8af"/><path d="m97.261 100.64c4.976-.494 8.383-6.037 7.839-8.949-.612-3.3-3.784-9.161-6.315-13.459a11.877 11.877 0 0 1 -.468-11.2q.5-1.032 1.083-2.232c1.073-2.2 1.176-3.019-.457-7.326 0 0-5.489 2.669-7.616 7.833a18.816 18.816 0 0 0 -.917 12.222c.765 2.582 1.469 5.326.84 7.944-2.273 9.453.766 14.007 6.011 15.167z" fill="#f2f2f2"/><path d="m13 77.445 35.807-.723 25.742-47.713-40.186-13.383" fill="#f5d8af"/><g fill="#4d4d4d"><path d="m13 78.445a1 1 0 0 1 -.02-2l35.22-.711 24.9-46.153-39.053-13.006a1 1 0 1 1 .633-1.9l40.186 13.385a1 1 0 0 1 .564 1.424l-25.743 47.716a1 1 0 0 1 -.86.526l-35.806.723z"/><path d="m100.574 86.268 1.373-.24c2.8-.489 5.612 2.575 5.2 6.018a4.553 4.553 0 0 1 -2.947 3.274 3.433 3.433 0 0 1 -3.9-.832l-1.4-1.523c-2.1-2.292-1.125-6.208 1.674-6.697z"/><path d="m102.776 96.589a4.3 4.3 0 0 1 -3.213-1.426l-1.4-1.521a5.371 5.371 0 0 1 -1.114-5.362 4.358 4.358 0 0 1 3.35-3l1.374-.239a5.07 5.07 0 0 1 4.329 1.444 6.753 6.753 0 0 1 2.041 5.677 5.553 5.553 0 0 1 -3.6 4.092 5.035 5.035 0 0 1 -1.767.335zm-2.031-9.336a2.354 2.354 0 0 0 -1.8 1.671 3.412 3.412 0 0 0 .693 3.364l1.4 1.523a2.472 2.472 0 0 0 2.809.572 3.567 3.567 0 0 0 2.321-2.506 4.784 4.784 0 0 0 -1.437-3.936 3.087 3.087 0 0 0 -2.609-.927z"/><path d="m90.648 102.338a61.27 61.27 0 0 1 -16.724-2.788c-4.907-1.947-13.492-6.336-17.133-14.2-2.075.593-7.5 1.472-17.156-1.225a1 1 0 1 1 .537-1.926c11.666 3.256 16.688 1.022 16.739 1a1.006 1.006 0 0 1 1.357.531c3.109 7.723 11.605 12.064 16.393 13.964.161.062 17.41 5.571 25.526.545a8.181 8.181 0 0 0 3.92-6.634c.225-2.382-2.458-6.751-4.614-10.262-.523-.853-1.032-1.681-1.49-2.461a13.171 13.171 0 0 1 -.516-12.426l1.018-2.1c1.9-3.9-4.5-17.019-7.125-21.743a1.044 1.044 0 0 1 -.07-.156c-.188-.533-4.69-13.075-16.709-12.446-12.66.648-32.355 5.643-32.552 5.693a1 1 0 1 1 -.494-1.937c.2-.051 20.088-5.1 32.944-5.754 12.924-.631 18.206 12.474 18.666 13.695 1.178 2.128 9.8 18.049 7.139 23.522l-1.016 2.1a11.173 11.173 0 0 0 .44 10.542c.452.771.954 1.587 1.47 2.428 2.551 4.154 5.189 8.449 4.9 11.5a10.183 10.183 0 0 1 -4.907 8.177c-2.886 1.758-6.691 2.361-10.543 2.361z"/></g><path d="m71.265 55.173c-4.538 4.352-10.147 8.18-12.145 14.142-1.36 4.057-.8 8.494-1.517 12.712s-3.547 8.744-7.823 8.885c-4.545.15-9.829-.552-11.845-8.5-3.408-13.427-7.627-25.492-4.415-35.777s6.624-15.835 17.18-17.982c3.569-.725 17.288-.218 20.556 1.389 10.408 5.115 6.628 18.785.009 25.131z" fill="#f5d8af"/><g fill="#4d4d4d"><path d="m48.89 91.928c-4.644 0-9.9-1.3-11.925-9.266-.491-1.936-1-3.844-1.5-5.722-2.948-11.07-5.734-21.524-2.9-30.6 3.322-10.64 7.009-16.44 17.935-18.666 3.448-.7 17.6-.3 21.2 1.47a11.927 11.927 0 0 1 6.85 9.165c.894 5.774-1.817 13.006-6.593 17.586-1 .954-2.052 1.893-3.074 2.8-3.606 3.2-7.334 6.517-8.816 10.936a26.937 26.937 0 0 0 -1.014 7.323 43.769 43.769 0 0 1 -.466 5.24c-.775 4.567-3.853 9.555-8.775 9.716q-.456.018-.922.018zm7.11-62.599a30.583 30.583 0 0 0 -5.1.3c-10.009 2.034-13.273 7.2-16.428 17.3-2.659 8.531-.072 18.246 2.928 29.496.5 1.886 1.013 3.8 1.507 5.745 1.79 7.059 6.261 7.9 10.842 7.743 3.633-.12 6.206-4.141 6.87-8.053a41.981 41.981 0 0 0 .44-5 28.877 28.877 0 0 1 1.113-7.86c1.651-4.926 5.582-8.418 9.384-11.8 1.008-.9 2.05-1.822 3.017-2.75 3.658-3.508 6.9-10.073 6-15.836a9.878 9.878 0 0 0 -5.756-7.676c-2.104-1.038-9.463-1.609-14.817-1.609z"/><path d="m81.968 63.65-3.503-2.06"/><path d="m81.967 64.65a.992.992 0 0 1 -.506-.138l-3.5-2.06a1 1 0 1 1 1.014-1.724l3.5 2.059a1 1 0 0 1 -.508 1.863z"/><path d="m92.271 102.3a1.006 1.006 0 0 1 -.291-.043c-6.077-1.852-7.361-8.646-7.413-8.935a1 1 0 0 1 1.969-.355c.012.064 1.136 5.887 6.026 7.376a1 1 0 0 1 -.291 1.957z"/></g><path d="m134.85 110.66c-2.7-3.7-7.1-5.232-10.63-3.992a4.8 4.8 0 0 0 -1.652-1.942c-2.521-1.695-6.192-.648-8.2 2.337-.078.117-.146.237-.217.356a8.416 8.416 0 0 0 -8.128 3.934 9.63 9.63 0 0 0 -.55.974 18.721 18.721 0 0 1 -8.008-6.511c2 14.209 8.231 15.073 9.009 15.8a5.991 5.991 0 0 0 -.762 1.488c-1.259 3.685 1.258 7.88 5.622 9.371a8.781 8.781 0 0 0 7.732-.829 6.093 6.093 0 0 0 2.041 1.918c3.378 1.937 7.977.265 10.271-3.735a9.251 9.251 0 0 0 1.219-5.608 7.075 7.075 0 0 0 1.342-.762c3.694-2.696 4.102-8.426.911-12.799z" fill="#f2f2f2"/><path d="m124.182 135.373a7.127 7.127 0 0 1 -3.571-.943 7.027 7.027 0 0 1 -1.8-1.47 9.956 9.956 0 0 1 -7.8.46 10.12 10.12 0 0 1 -5.453-4.295 7.481 7.481 0 0 1 -.792-6.346 6.6 6.6 0 0 1 .321-.775c-2.155-1.074-6.909-3.963-8.612-16.048a1 1 0 0 1 1.849-.651 17.666 17.666 0 0 0 6.729 5.708c.045-.073.092-.147.139-.219a9.471 9.471 0 0 1 8.454-4.445c2.337-3.318 6.551-4.419 9.478-2.453a5.671 5.671 0 0 1 1.574 1.589c3.851-.929 8.251.874 10.958 4.584a11.721 11.721 0 0 1 2.317 7.69 8.62 8.62 0 0 1 -3.446 6.506 7.913 7.913 0 0 1 -.883.557 10.4 10.4 0 0 1 -1.4 5.5 10.125 10.125 0 0 1 -5.254 4.536 8.207 8.207 0 0 1 -2.808.515zm-5.115-4.727a.96.96 0 0 1 .192.018 1 1 0 0 1 .64.426 5.081 5.081 0 0 0 1.707 1.6 5.525 5.525 0 0 0 4.7.288 8.134 8.134 0 0 0 4.2-3.653 8.285 8.285 0 0 0 1.092-5 1 1 0 0 1 .593-1.028 6.143 6.143 0 0 0 1.153-.655 6.655 6.655 0 0 0 2.629-5.033 9.719 9.719 0 0 0 -1.937-6.368c-2.384-3.266-6.286-4.764-9.491-3.638a1 1 0 0 1 -1.235-.513 3.772 3.772 0 0 0 -1.306-1.542c-2.06-1.383-5.114-.457-6.811 2.065-.053.079-.1.161-.147.242a1.1 1.1 0 0 1 -1.069.541 7.485 7.485 0 0 0 -7.129 3.506 8.037 8.037 0 0 0 -.457.808 1.069 1.069 0 0 1 -1.339.518 21.994 21.994 0 0 1 -5.946-3.96c1.969 8.568 5.677 10.364 7.179 11.09a3.42 3.42 0 0 1 .866.518 1 1 0 0 1 .139 1.3 5.086 5.086 0 0 0 -.637 1.24 5.521 5.521 0 0 0 .614 4.671 8.132 8.132 0 0 0 4.385 3.43 7.76 7.76 0 0 0 6.847-.709 1 1 0 0 1 .568-.162z" fill="#4d4d4d"/></svg>