<svg xmlns="http://www.w3.org/2000/svg" xml:space="preserve" width="512" height="512"><path fill="#D21F26" d="M148 271.5s-55.2-1.8-54.7-1.3.5 46.2.8 46.8c.3.6 62.6 2.2 62.6 2.2l-8.7-47.7z"/><path fill="#C61825" d="m144.9 271.4-4.5 36.4 12.5-8.6-3-28.1z"/><path fill="#EF4B57" d="m98.4 271.4.2 46s-5.6-1.5-5.7-1.9 1.3-44.6 1.3-44.6l4.2.5z"/><path fill="#2D2D39" d="m91.6 319.2-.2-51.1 59.7 1.8-.1 4.1-55.4-1.6.2 42.8 60.9 1.9-.2 4.2z"/><path fill="#D21F26" d="M154.9 298.4s-48.4 25.8-47.7 25.9c.7.2 24.9 39.5 25.4 39.9.6.3 54.9-29.1 54.9-29.1l-32.6-36.7z"/><path fill="#EF4B57" d="m111.8 322.7 24.4 39.3-3.6 2-23.5-39.6z"/><path fill="#C61825" d="M152 299s-9.5 26.6.6 54.7l8.8-6.8L152 299z"/><path fill="#2D2D39" d="m131.5 367.1-27.2-43.9 52.3-27.9 2.1 3.6-48.4 25.9 22.8 36.7 53.4-28.3 2.1 3.6z"/><g><path fill="#FDE7CF" d="M385.7 457.8c-3.2-5.2-8.8-8.3-16.7-9.1l-.6-.1c-2.8-.3-5.4-.3-8-.1 1.9-.3 3.9-.6 5.7-.7h.4l.2-.3c5.2-7.1 21.4-31.8 14.7-52.3-2.3-7.1-6.3-12-11.6-14.7-4.6-2.3-9.9-3.3-14-3.9 2.1-.2 4.6-.3 7.4 0l1 .1v-1.1c.8-50.4-24.6-95-29.6-103.5l-.2-.4H176.2l-10.7 23.7c-8.4 19.2-18.3 48.6-17.8 80.2v1.1l1-.1c2.6-.3 5.2-.2 7.4 0-4.1.6-9.4 1.7-14 3.9-5.4 2.6-9.3 7.6-11.6 14.7-6.7 20.5 9.5 45.3 14.7 52.3l.2.3h.4c2 .1 4 .3 5.9.7-2.6-.1-5.4-.1-8.2.1l-.6.1c-7.9 1-13.6 4-16.7 9.1-4.3 6.9-5.7 12.6-4 16.1 1.9 3.9 6.9 4.3 7.1 4.3h66.4l-2.1-1.7c-19.8-15.6-24.7-72.9-25.9-104.8 1.4 13.4 3.6 31.4 6.2 48.5 5.3 35.7 14.5 55.2 27.3 58.1 23.8 5.3 42.4 4.8 49.7-1 2.1-1.7 3.1-3.6 3.1-5.9 0-6.2-2.3-14.5-8.6-19.4-4-3.1-14-4.8-20.5-5.7 4.2-.7 8.2-.7 11.6 0l1.3.2-.2-1.3c-.9-6.2-1.7-15.9-2.2-28.9-.6-12.6.2-26.7 1-37.6.1 7.4.2 16.3.4 25.3.6 20.7 1.5 35 2.8 42.4l.1.6.6.2c2.3.8 4.4 1.9 6.2 3.3 5.2 4 7.4 9.6 8.4 13.7l.9 3.6.9-3.6c1-4.1 3.3-9.7 8.4-13.7 1.8-1.3 3.9-2.4 6.2-3.3l.6-.2.1-.6c1.3-7.5 2.2-21.7 2.8-42.4.2-8.9.4-17.8.4-25.3.8 10.9 1.5 25 1 37.6-.6 13-1.2 22.8-2.2 28.9l-.2 1.3 1.3-.2c3.5-.7 7.4-.6 11.6 0-6.5.9-16.5 2.6-20.5 5.7-6.4 4.8-8.6 13.2-8.6 19.4 0 2.3 1 4.3 3.1 5.9 3.9 3.1 10.9 4.6 20.2 4.6 8.3 0 18.3-1.2 29.4-3.7 12.9-2.9 22-22.4 27.3-58.1 2.5-17.1 4.6-35 6.2-48.5-1.2 31.8-6.1 89.2-25.9 104.8l-2.1 1.7h66.5s5.1-.4 6.9-4.3c2.2-3.5.8-9.1-3.5-16z"/><path fill="#9D706B" d="M197.5 478.3c-75.565 0-68.963.405-71.2-.9-13.36-7.794.7-22.283.7-22.9.102 0 8.222-7.134 16.5-6.6l-8.8-17.4s13.921-8.688 27.636-6.641c4.823.72 9.129 2.671 12.764 5.841.08.441 6.586 27.208 6.9 28.5l12.5 17.6c3.536 2.947 2.9 2.5 3 2.5zM383 478.2h-69c3.995-3.196.96.473 15.5-20 9.111-37.564 5.574-22.955 6.9-28.7 3.9-3.4 8.2-5.2 12.5-5.8 13.8-2.1 27.8 6.6 27.8 6.6l-8.8 17.4c4.813-.311 8.765 2 9.1 2 16.199 8.407 18.739 27.016 6 28.5z"/><path fill="#E0BCA2" d="m175.5 430.6-.293-.667c-3.9-3.4-8.707-5.101-12.871-6.074 6.1-18.4 5.864-47.059 5.864-47.059l3.9 37c-.2 0 1.3 7.5 3.4 16.8z"/><path fill="#8A5D58" d="M124 477.4s-1.1-1.1-1.8-3.4c-.9-2.9-1.2-7.4 1.3-13.9 2.156-5.031 5.95-8.318 10.9-10.1.267 0 4.497-1.893 9.1-2l-5.1-12.7c12.7 8.9 19.836 1.159 23.936-11.441 4.3.7 8.664 2.341 12.564 5.741.771 4.241 4.787 21.758 6.9 28.5 4.2 13.2 15 19.7 15.7 20.2.101 0-69.75-.9-73.5-.9z"/><path fill="#E0BCA2" d="M348.9 423.7c-4.3.7-8.6 2.3-12.5 5.7l-.3 1.3c2-9.4 3.5-17.1 3.5-17.1l3.9-37c0 .1-.7 28.7 5.4 47.1z"/><path fill="#8A5D58" d="M387.4 477.3c-3.531 0-73.601.9-73.5.9.7-.4 11.5-6.8 15.4-20.2 3-10.049 6.822-28.361 6.9-28.7 3.9-3.4 8.4-5 12.7-5.6 4.1 12.6 12.552 20.383 25.252 11.483L367.6 447.7c4.579.106 8.842 2 9.1 2 5.169 2.068 8.825 5.125 11 10.2 3.725 8.781 1.867 15.233-.3 17.4z"/><path fill="#9D706B" d="M234.6 482.9c-25.561-2.64-17.583-1.394-35.6-5.3-3.841-.84-2.913-.361-4.3-2-4.819-5.301-2.912-3.182-8.2-9.1-13.577-46.902-12.634-43.633-12.3-43.8.9-.7 3.4-2.4 7.3-4.4 10.2-5.3 31.43-11.867 54.63-2.367 0 0 .33 4.069 1.77 30.467 0 0 16 6.4 17.2 18.8 1.498 16.891-10.389 16.127-20.5 17.7zM338.3 423.1c-.114.399-9.423 32.797-12.6 43.6-.262.283-8.574 15.193-38.439 16.038-20.155.57-32.051-.885-30.462-17.438 1.2-12.6 17.2-18.8 17.2-18.8 1.44-26.159 2.2-30.2 2.2-30.2 34.589-14.042 60.832 6.8 62.101 6.8z"/><path fill="#F9FCF8" d="M206.4 305.5s-3.2 50.7 31.1 54.1l.4 86.7 12.9 9.6 4.3 12s7.2-15 17.4-20.2c0 0 5.7-66 2.1-88.1 0 0 36.6-4.1 34.5-54.1-1.8-40.2-102.7 0-102.7 0z"/><path fill="#E0BCA2" d="M181.5 418.3c-3.9 2-6.5 3.9-7.4 4.6l-3.6-24.6-4-48.3c.6 2.8 5.8 38.1 15 68.3z"/><path fill="#8A5D58" d="M243.5 481.5c-19.497 6.499-42.843-1.94-51.1-7.1-5.4-6.5-8.469-10.689-14.7-28-3.601-24.048-2.967-19.733-3.5-23.6.9-.7 3.4-2.5 7.3-4.5 6.4 20.8 14.8 39.3 24.9 42.8 25.5 8.8 46.3 5.6 40.5-7.9.6.8 18.9 20.8-3.4 28.3z"/><path fill="#E0BCA2" d="m345.7 349.9-4 48.4-3.55 24.851c-.7-.6-3.45-2.351-7.55-4.451 9.7-31.5 15.1-68.8 15.1-68.8z"/><path fill="#8A5D58" d="M338.1 423c-.288 2.156.241-1.535-3.4 23.5-15.306 29.503-11.489 22.205-14.6 28.1-1.076.718-6.299 3.056-6.4 3.1-13.801 5.915-30.477 8.64-44.7 3.9-22.5-7.5-4.528-27.78-3.728-28.58-5.8 13.6 15.428 16.98 40.828 8.28 10.1-3.5 18.1-21.8 24.5-42.6 3.9 2 6.8 3.8 7.5 4.3z"/><path fill="#2D2D39" d="M230.8 484.6c-8.5 0-18.6-1.2-30-3.7C165.3 473 166.5 355 166.6 350c0 0 3.4 36.5 8.4 70 4.1 27.8 11.9 54 26.7 57.2 23.6 5.2 41.8 4.8 48.8-.8 1.9-1.4 2.8-3.2 2.8-5.3 0-5.9-2.2-14-8.3-18.7-5.8-4.5-25.9-6.2-25.9-6.2 11.9-3.1 21.4-2.1 28.2 3.2 7.2 5.5 9.7 14.8 9.7 21.7 0 3.2-1.4 5.9-4.1 8.2-4.5 3.4-12.1 5.3-22.1 5.3z"/><path fill="#2D2D39" d="M237.3 447.8c-1.2-6.6-2.1-18.6-2.6-31.7-1-25.3 2.8-56.4 2.8-56.4 0 .3 0 21.9.6 44.1.4 17.4 1.3 35.1 3 43.4l-3.8.6zM143.3 449.4c-1-1.3-23.8-30.1-15.4-55.5 2.5-7.8 6.9-13.3 13.1-16.3 10.1-5 21.2-1 21.6-.9 0 0-11.3 0-20.1 4.3-5.2 2.5-8.9 7.3-11.1 14.1-7.7 23.5 15.6 53 15.9 53.2l-4 1.1z"/><path fill="#2D2D39" d="M201.2 480.8h-71.9c-.4 0-6.7-.6-9.4-5.8-2.3-4.5-1-10.9 4-18.8 11.2-18.1 41.2-5.1 42.5-4.5 0 0-29.9-8.8-39.3 6.5-4.2 6.7-5.5 11.9-3.9 15.2 1.7 3.3 6.2 3.7 6.2 3.7h71.7v3.7h.1zM144.9 377c-1.5-57.1 30.6-107.5 31-108.1l3.2 2.1c-.3.4-31.8 50-30.4 105.9l-3.8.1z"/><g><path fill="#2D2D39" d="M281.2 484.6c8.5 0 18.6-1.2 30-3.7C346.7 473 345.5 355 345.4 350c0 0-3.4 36.5-8.4 70-4.1 27.8-11.9 54-26.7 57.2-23.6 5.2-41.8 4.8-48.8-.8-1.9-1.4-2.8-3.2-2.8-5.3 0-5.9 2.2-14 8.3-18.7 5.8-4.5 25.9-6.2 25.9-6.2-11.9-3.1-21.4-2.1-28.2 3.2-7.2 5.5-9.7 14.8-9.7 21.7 0 3.2 1.4 5.9 4.1 8.2 4.5 3.4 12.1 5.3 22.1 5.3z"/><path fill="#2D2D39" d="M274.7 447.8c1.2-6.6 2.1-18.6 2.6-31.7 1-25.3-2.8-56.4-2.8-56.4 0 .3 0 21.9-.6 44.1-.4 17.4-1.3 35.1-3 43.4l3.8.6zM368.7 449.4c1-1.3 23.8-30.1 15.4-55.5-2.5-7.8-6.9-13.3-13.1-16.3-10.1-5-21.2-1-21.6-.9 0 0 11.3 0 20.1 4.3 5.2 2.5 8.9 7.3 11.1 14.1 7.7 23.5-15.6 53-15.9 53.2l4 1.1z"/><path fill="#2D2D39" d="M310.8 480.8h71.9c.4 0 6.7-.6 9.4-5.8 2.3-4.5 1-10.9-4-18.8-11.2-18.1-41.2-5.1-42.5-4.5 0 0 29.9-8.8 39.3 6.5 4.2 6.7 5.5 11.9 3.9 15.2-1.7 3.3-6.2 3.7-6.2 3.7h-71.7v3.7h-.1zM367.1 377c1.5-57.1-30.6-107.5-31-108.1l-3.2 2.1c.3.4 31.8 50 30.4 105.9l3.8.1z"/></g></g><g><path fill="#FDE7CF" d="M363.783 148.194c.266-.709 14.565-42.949 5.609-70.435-8.305-24.912-24.079-47.872-24.592-47.359-29.6 20.229-48.688 52.955-52.5 58.4-28.266-5.443-44.213-5.216-72.7 0-25.904-40.432-45.284-52.596-52.5-58.4l-.1-.1-.3.3c-4.433 6.649-16.628 26.438-24.055 49.516-6.166 35.73 5.349 66.021 6.051 68.404 0 0-2.283 6-8.478 22.37-1.772 4.55-22.095 56.788-11.617 93.71 3.7 13.2 11.2 24.9 24.6 32.5 47.066 27.012 91.971 30.1 102.8 30.1 10.979 0 55.246-3.015 102.8-30.1 13.4-7.7 20.9-19.3 24.6-32.5 9.973-41.948-19.618-116.406-19.618-116.406z"/><path fill="#9D706B" d="M321.3 158.1c-16.1-7-34.6-5.9-47.9-3.5-5.8 1.1-11.6 1.6-17.4 1.6-5.8 0-11.6-.6-17.4-1.6-13.3-2.4-31.7-3.5-47.9 3.5-29 12.6-50.8 68.4-18.5 104 22.9 25.4 49.4 28 67.3 27.1 5.5-.3 11-.4 16.5-.4s11 .1 16.5.4c17.9 1 44.4-1.6 67.3-27.1 32.3-35.6 10.5-91.4-18.5-104z"/><path fill="#E0BCA2" d="m292.4 89 13.4 4.6c10.9-36.1 30.5-52 30.5-52h.8C325.7 36 292.4 89 292.4 89z"/><path fill="#F6B0A6" d="m358.7 51.8-13.9-20.3-4.1 5.2-15.1 21.6s-8.1 19.8-8.2 20.3 0 13 0 13l6.1 2.8 10.3-6.4 5.8 1.2-.1 18.2s4 5.3 4.3 5.6c.4.3 5.863-4.849 5.863-4.849-.8 22.4 19.237 21.749 19.237 21.749l3.5-20.1-1.2-24.8-12.5-33.2z"/><ellipse transform="rotate(-22.351 322.5 228.417)" fill="#F6B0A6" cx="322.475" cy="228.409" rx="19.199" ry="11.399"/><path fill="#2D2D39" d="M296.4 182.4c-6.6-.6-12.7 6.9-13.7 16.9s3.7 18.6 10.3 19.3c6.6.6 12.7-6.9 13.7-16.9 1.1-10.2-3.6-18.7-10.3-19.3z"/><path fill="#2D2D39" d="m304.7 192.2-5.1 6.3c6.4 4 16 2.8 18.4-5-3.9 4.5-10.3 3.6-13.3-1.3z"/><path fill="#F9FCF8" d="M294.6 186.3c-2.5-.8-5.6 1.9-6.8 5.9-1.3 4-.1 8 2.4 8.6 2.5.8 5.6-1.9 6.8-5.9 1.2-3.9.1-7.8-2.4-8.6z"/><path fill="#2D2D39" d="M364.7 149.1c29.5-65.4-17.7-119.5-18.2-120l-1.3-1.7-1.5 1.2c-39.8 30.4-52.5 59-53 60.2l3.9 1.7c.2-.2 12.4-28 50-57.3 7 8.8 40.3 55.1 17.8 110.3l2.3 5.6z"/><path fill="#2D2D39" d="M342.536 109.456c-.767-2.284-.618-6.887-.536-10.156.1-6.3.2-11.8-3.6-12.8-2.4-.6-5.1.7-8.3 2.3-4.9 2.4-8.3 3.7-10.2 1.3-4-5.2 5.7-32.6 26.7-58.4l-3.572-2.488C322.628 54.312 310 84.4 316.3 92.6c4.2 5.4 10.7 2.3 15.4-.1 1.8-.9 4.2-2 5.2-2 .6 1.2.6 5.8.5 8.6-.1 6.1-.2 11.9 2.7 14.5 3.748 3.279 9.21.156 12.5-13.9-2.575 5.052-5.977 9.048-7.943 10.456-1.104.79-1.608.827-2.121-.7zM429.3 193.1c-23 1.2-46.9 8.4-69 20.8 0 0 16.7-5.3 34.6-10.5 12.8-3.7 34.4-10.3 34.4-10.3zM441 216.4c-22.9-2.5-47.6.8-71.4 9.6 0 0 17.3-2.6 35.8-4.9 13.2-1.7 35.6-4.7 35.6-4.7zM436.2 247.7c-21.6-8.1-46.3-11.1-71.5-8.6 0 0 17.4 1.8 35.9 4.2 13.1 1.7 35.6 4.4 35.6 4.4z"/><path fill="#FFFAF5" d="M196.9 97.7c.815 0 29.484-6.6 60.3-6.6 3.011 0 25.997.153 58 6.6-63.771-31.89-111.94-1.59-118.3 0z"/><path fill="#E0BCA2" d="M174.9 41.6h.8s19.6 15.9 30.5 52l13.4-4.6s-33.3-53-44.7-47.4zM383.3 264.5c-139.51 93.009-249.463 5.137-254.7-.1 3.6 13.2 11.2 25 24.7 32.7 23.3 13.4 45.7 20.8 63.7 24.9h.1c21.6 5 36.7 5.1 39 5.1 2.3 0 17.4-.2 39-5.1h.1c17.9-4.1 40.4-11.5 63.7-24.9 13.5-7.8 21-19.5 24.7-32.7-.2 0-.3.1-.3.1z"/><path fill="#F6B0A6" d="m140.8 85-1.2 24.9 3.5 20.1s20 1.3 19.3-21.1c0 0 5.4 4.5 5.8 4.2.3-.3 4.3-5.6 4.3-5.6l-.1-18.2 5.8-1.2 10.3 6.4 6.1-2.8s.1-12.5 0-13c-.1-.6-8.2-20.3-8.2-20.3l-15.1-21.6-4.1-5.2-13.9 20.3L140.8 85z"/><ellipse transform="rotate(-67.649 189.451 228.377)" fill="#F6B0A6" cx="189.467" cy="228.388" rx="11.399" ry="19.199"/><path fill="#2D2D39" d="M205.3 201.6c1 10 7.1 17.5 13.7 16.9 6.6-.6 11.2-9.3 10.3-19.3-1-10-7.1-17.5-13.7-16.9-6.7.7-11.4 9.2-10.3 19.3z"/><path fill="#2D2D39" d="M194 193.5c2.4 7.8 12 9.1 18.4 5l-5.1-6.3c-3 4.9-9.4 5.8-13.3 1.3z"/><path fill="#F9FCF8" d="M215 195c1.3 4 4.3 6.7 6.8 5.9 2.5-.7 3.6-4.7 2.4-8.6s-4.3-6.7-6.8-5.9c-2.5.7-3.6 4.6-2.4 8.6z"/><path fill="#2D2D39" d="M150.6 146.2c-.3-.9-.7-1.8-1-2.6-22.5-55.3 10.8-101.5 17.8-110.3 37.6 29.3 49.9 57 50 57.3l3.9-1.7c-.6-1.2-13.2-29.8-53-60.2l-1.5-1.2-1.3 1.6c-.5.6-47.7 54.6-18.2 120.1.2.4.5 1 .7 1.5l2.6-4.5z"/><path fill="#2D2D39" d="M159.4 99.8c3.306 14.124 8.781 17.154 12.5 13.9 2.9-2.6 2.8-8.5 2.7-14.5-.1-2.7-.2-7.4.5-8.6 1.1-.1 3.4 1.1 5.2 2 4.7 2.3 11.2 5.4 15.4.1 6.4-8.2-6.239-38.303-26.739-63.403L165.4 31.8c21 25.8 30.7 53.2 26.7 58.4-2 2.5-5.3 1.1-10.2-1.3-3.1-1.6-5.9-3-8.3-2.3-3.8 1-3.7 6.5-3.6 12.8.135 5.38-.092 8.751-.613 10.332-.451 1.368-.959 1.273-2.126.415-2.294-1.688-5.699-6.19-7.861-10.347zM256 273.3c-5.1-.1-10.1-1.6-14.9-4.3 6.3 10.9 23.4 10.9 29.7 0-4.7 2.7-9.7 4.2-14.8 4.3zM315.2 97.7c-13.521-7.605-34.023-15.701-58.945-15.701-18.597 0-37.689 3.765-59.455 15.701 0 0 39.073-11.342 59.045-11.342 22.297 0 35.506 5.838 59.355 11.342zM82.7 193.1c23 1.2 46.9 8.4 69 20.8 0 0-16.7-5.3-34.6-10.5-12.8-3.7-34.4-10.3-34.4-10.3zM71 216.4c22.9-2.5 47.6.8 71.4 9.6 0 0-17.3-2.6-35.8-4.9-13.2-1.7-35.6-4.7-35.6-4.7zM256 246.5s16.8-9.1 18.1-13.3c.3-1.1.2-2-.3-2.9-2.1-3.4-10.9-4.6-17.7-4.6-6.8 0-15.6 1.2-17.7 4.6-.5.9-.7 1.9-.3 2.9 1.2 4.5 17.9 13.3 17.9 13.3zM75.8 247.7c21.6-8.1 46.3-11.1 71.5-8.6 0 0-17.4 1.8-35.9 4.2-13.1 1.7-35.6 4.4-35.6 4.4z"/><path fill="#3D3D44" d="M269.5 230.1c0-.7-3.5-1.4-8.4-1.6-1.6-.1-3.3-.2-5.1-.2-1.8 0-3.5.1-5.1.2-4.9.3-8.3.9-8.4 1.6-.1 1.1 5.9 1.8 13.5 1.9 7.6 0 13.5-.8 13.5-1.9z"/><path fill="#2D2D39" d="M364.8 148.9c-.8-1.8-1.5-3.6-2.3-5.3-3.5-7.9-6.1-12.9-6.6-14 .2.8 2.4 7 5.6 16.4.4 1.1.8 2.4 1.2 3.8 3.7 11.4 8.5 26.5 13 42.3 5.5 19.4 9.5 40.8 8.1 60-2.2 30.4-28.7 47.5-52.6 56.6-8.4 3.2-16.5 6.2-23.1 8.7-33.6 9.3-64.3 7.3-86.1 3.2-12-2.3-22.6-5.3-31.1-8.2-3.2-1.2-6.4-2.4-9.8-3.7-24-9.1-50.4-26.2-52.6-56.6-1.4-19.2 2.6-40.6 8.1-60 4.5-15.8 9.3-30.9 13-42.3.4-1.4.8-2.6 1.2-3.8 3.2-9.5 5.4-15.7 5.6-16.4-.5 1-3.2 6.1-6.6 14-.8 1.7-1.6 3.5-2.3 5.3-10.4 24.4-25.7 67.3-23.1 103.5 2.1 29.3 25 46.8 47.7 57.1 8.5 4.1 25.8 11.4 48.9 15.8 10.5 2 22.8 3.4 36.5 3.4 24.1 0 52.4-4.5 81.6-18.6 23.2-10.2 46.8-27.8 49-57.6 2.4-36.3-13-79.2-23.3-103.6z"/><path fill="#2D2D39" d="M266.5 257.5c-1-1.3-2.1-2.6-3-3.9-2.1-2.5-4.3-4.9-6.6-7.1l-1.4-1.4-1.3 1.4c-2 2.3-4.1 4.7-6.1 7.1-.9 1.2-1.9 2.4-2.8 3.7-.9 1.3-1.8 2.6-2.5 4 1.3-.9 2.6-1.8 3.8-2.8s2.4-2 3.5-3c1.9-1.6 3.6-3.3 5.3-5.1 1.9 1.9 3.7 3.7 5.7 5.4 1.2 1 2.5 2.1 3.9 3.1s2.6 1.9 4.1 2.8c-.6-1.6-1.6-2.9-2.6-4.2z"/><path fill="#D7F0F9" d="m297.2 264.1 1.9 5.8-5.1 2.9-44.8-16.2-2.2-.8.3-.9.2-.5c1-.5 2.1-1 3.1-1.3.7-.3 2.6-3.1 3.4-3.3 1.8-.5 2.4 1.6 3.8 1.4.9-.2 1.7-.4 2.5-.5l5.1 1.8 31.8 11.6z"/><path fill="#D7F0F9" d="m254.3 252 3.6-.7-1.9-.6z"/><path fill="#2D2D39" d="M253.4 250.1c12.682 4.4 4.178 1.357 42 15.1 1.7.7 2.6 2.6 2 4.3-.7 1.7-2.6 2.6-4.3 2-9.521-3.473-41.376-15.103-45.475-16.55L246.4 257l46 16.6c4.101 1.367 6.612-1.336 7.3-3.4 1-3-.5-6.2-3.4-7.2-8.174-2.972-37.925-14.012-40.7-14.616l-2.2 1.716z"/><g><path fill="#D21F26" d="m292 269.3-40.6-15.5 1.2-3.1 40.6 15.5c.9.3 1.3 1.3 1 2.1-.4.9-1.3 1.3-2.2 1z"/></g><path fill="#2D2D39" d="m247.8 257.3 7.8-7s-1-3.2-1.2-3.1-5.2 5.1-5.3 5.2-2.4 3-2.4 3l1.1 1.9z"/><g fill="#9D706B"><path d="m205.5 187.7 21.3-5.4-5.9-7.3-14.5 2.5zM306.5 187.7l-21.3-5.4 5.9-7.3 14.5 2.5z"/></g></g><g><path fill="#D21F26" d="m361.9 292.9-35.3 7.6c-5.735 1.229 3.831.457-58.1 4.1-15.009-.72-9.26-.756-25 0-61.988-3.646-52.432-2.885-58.1-4.1l-35.3-7.6c-1.008.252-.46.1-2.5.7 1.637 5.036.84 2.54 3.6 11.3l3.3 3.4c.534 3.605.146 1.056 1.9 12.4l5.4 10.8 13.8 7.9c43.661 12.533 157.3 11.099 174.6-7.9l5.4-10.8c1.745-11.286 1.378-8.879 1.9-12.4l3.3-3.4c2.76-8.759 1.963-6.264 3.6-11.3-2.04-.6-1.493-.448-2.5-.7z"/><path fill="#C61825" d="M341.6 316.6c-10 2.3-42.9 9.9-85.6 9-42.6.9-75.6-6.7-85.6-9-1.9-.4-3-.7-3.1-.6 0 0 2.5 1.5 7.3 3.7 12.6 5.8 41.2 16.5 80.8 16.8h1.2c39.6-.3 68.1-11 80.8-16.8 4.8-2.2 7.3-3.7 7.3-3.7-.2-.1-1.2.2-3.1.6z"/><path fill="#EF4B57" d="M364.6 292.8c-.1 0-.8.1-1.9.3-7 1.4-31.1 6.9-31.7 6.9-.1 0-1.8.2-4.4.5-2.7.3-6.4.8-10.5 1.3-13.3 1.6-30.8 3.8-30.8 3.8l-29.3-.9-29.3.9s-17.5-2.2-30.8-3.8c-4.1-.5-7.8-.9-10.5-1.3-2.6-.3-4.3-.5-4.4-.5-.6 0-24.7-5.5-31.7-6.9-1.1-.2-1.8-.3-1.9-.3-.6.1.3 4.5.3 4.5.1 0 .5.1 1.1.3.3.1.7.2 1.2.3 5.4 1.4 19.9 5.1 40.3 8 6.8 1 14.2 1.9 22.1 2.6.8.1 1.6.1 2.5.2 4.1.3 8.4.6 12.7.8 9 .5 18.5.6 28.3.4 9.9.3 19.4.1 28.3-.4 4.4-.2 8.6-.5 12.7-.8.8-.1 1.7-.1 2.5-.2 7.9-.7 15.3-1.6 22.1-2.6 20.4-3 34.9-6.6 40.3-8 .5-.1.8-.2 1.2-.3.7-.2 1.1-.3 1.1-.3.2 0 1.1-4.3.5-4.5z"/><g fill="#EF4B57"><path d="M212.5 308.2c-.1 1.7-5.3 2.5-11.4 2-6.2-.5-11-2.3-10.9-3.9.1-1.5 5.3-2.5 11.4-2 6.2.5 11 2.3 10.9 3.9zM227.8 310.1c0 1-3 1.4-6.6 1.1-3.5-.3-6.4-1.3-6.3-2.3s3-1.4 6.6-1.1 6.5 1.3 6.3 2.3z"/></g><g fill="#2D2D39"><path d="m366 290.5-2.1.7c-.2 0-25.2 8-63.4 11.1-12.7 1-76.3 1-89 0-38.2-3.1-63.2-11.1-63.4-11.1l-2.1-.7-.1 2.2c.1.2-.3 5.7 3.4 11.9.8 1.4 1.9 2.8 3.3 4.3.7.7 1.4 1.4 2.3 2.1.3.3.6.5 1 .8 4.1 3.2 10.1 6.2 18.8 7.9.6.1 1.3.3 1.9.4 0 0-2.6-1.4-6.1-3.4-5.6-3.2-13.3-8-15.8-10.8s-3.9-5.6-4.6-7.9c-.3-1.1-.5-2.1-.6-2.9 6 1.8 23 6.3 47.2 9.2 3.6.4 7.5.8 11.4 1.2 1 .1 2.1.2 3.1.3 15 1.2 74.8 1.2 89.8 0 1-.1 2.1-.2 3.1-.3 4-.4 7.8-.8 11.4-1.2 24.2-2.9 41.2-7.4 47.2-9.2-.1.8-.3 1.8-.6 2.9-.7 2.3-2 5.1-4.6 7.9-2.5 2.8-10.2 7.5-15.8 10.8-3.5 2-6.1 3.4-6.1 3.4.7-.1 1.3-.2 1.9-.4 8.6-1.7 14.6-4.7 18.8-7.9.3-.3.7-.5 1-.8.8-.7 1.6-1.4 2.3-2.1 1.4-1.5 2.5-2.9 3.3-4.3 3.8-6.1 3.4-11.7 3.4-11.9l-.3-2.2z"/><path d="M359.4 308.9c-.1-.6-.1-.9-.1-1l-1.7.4-1.6.4s.2 1.2.2 3.2c0 3.5-.7 9.4-4.7 15-5.9 8.1-16.7 13.1-32.2 14.9-10.6 1.3-21.6 2.1-32.5 2.6-7.9.4-15.9.5-23.6.4h-.2c-2.3 0-4.6 0-6.9-.1-2.3.1-4.6.1-6.9.1h-.2c-7.7.1-15.7-.1-23.6-.4-10.9-.5-21.9-1.3-32.5-2.6-15.4-1.8-26.3-6.8-32.2-14.9-4-5.6-4.7-11.5-4.7-15 0-1.9.2-3.1.2-3.2l-1.6-.4-1.7-.4c0 .1-.1.4-.1 1-.4 2.9-.8 11.6 5.2 19.9 6.5 8.9 18.1 14.4 34.6 16.4 20.8 2.4 42.9 3.4 63.5 2.9 20.6.5 42.7-.5 63.5-2.9 16.5-1.9 28.2-7.5 34.6-16.4 6-8.4 5.6-17.1 5.2-19.9z"/></g></g></svg>