<svg id="Capa_1" enable-background="new 0 0 512 512" viewBox="0 0 512 512" xmlns="http://www.w3.org/2000/svg"><g><g><g><g><g><g><g><path d="m419.5 228h-25c-.951 0-1.813-.347-2.5-.903v217.903h30v-217.903c-.687.556-1.549.903-2.5.903z" fill="#ffe177"/></g><path d="m405.61 7.51c-45.598.635-84.17 33.081-93.797 76.309 24.607 17.505 40.687 46.251 40.687 78.682 0 7.396-.861 14.63-2.464 21.611 9.528 6.872 20.334 12.081 32.01 15.164 4.366 1.153 7.453 5.031 7.453 9.546v15.178c0 2.761 2.239 5 5 5h25c2.761 0 5-2.239 5-5v-15.057c0-4.502 2.996-8.497 7.351-9.641 41.811-10.989 72.65-49.043 72.65-94.302 0-54.31-44.406-98.249-98.89-97.49z" fill="#fe99a0"/><path d="m410.849 7.577c23.732 17.35 39.151 45.393 39.151 77.043 0 52.677-42.703 95.38-95.38 95.38-1.246 0-2.483-.033-3.717-.082-.258 1.406-.547 2.802-.865 4.188 9.525 6.877 20.332 12.086 32.01 15.168 4.366 1.153 7.453 5.031 7.453 9.546v15.18c0 2.761 2.239 5 5 5h25c2.761 0 5-2.239 5-5v-15.057c0-4.502 2.996-8.497 7.351-9.641 41.809-10.989 72.648-49.043 72.648-94.302 0-52.559-41.588-95.402-93.651-97.423z" fill="#fd8087"/><circle cx="349" cy="46" fill="#ffe5c2" r="20"/><circle cx="407.5" cy="104.5" fill="#ffe5c2" r="20"/><circle cx="466" cy="163" fill="#fed2a4" r="20"/></g><g><g><path d="m268.5 285.5h-25c-.951 0-1.813-.347-2.5-.903v160.403h30v-160.403c-.687.556-1.549.903-2.5.903z" fill="#68ca44"/></g><g><path d="m310.23 190.451c-8.822 0-16-7.178-16-16v-1.5c0-11.304-9.196-20.5-20.5-20.5s-20.5 9.196-20.5 20.5v5.5c0 8.822-7.178 16-16 16s-16-7.178-16-16v-19c0-9.925-8.075-18-18-18h-8.887c-6.928 16.957-18.567 31.656-33.519 42.275 7.895 35.554 35.196 63.802 70.222 73.048 4.366 1.153 7.453 5.031 7.453 9.546v15.18c0 2.761 2.239 5 5 5h25c2.761 0 5-2.239 5-5v-15.057c0-4.502 2.996-8.497 7.351-9.641 32.835-8.629 58.894-33.955 68.573-66.351z" fill="#f6a96c"/></g><g><path d="m310.23 190.451c-8.822 0-16-7.178-16-16v-1.5c0-.288-.031-.568-.043-.853-12.568 37.989-48.364 65.401-90.568 65.401-3.58 0-7.111-.204-10.588-.588 10.887 9.221 23.809 16.113 38.015 19.863 4.366 1.153 7.453 5.031 7.453 9.546v15.18c0 2.761 2.239 5 5 5h25c2.761 0 5-2.239 5-5v-15.057c0-4.502 2.996-8.497 7.351-9.641 32.835-8.629 58.894-33.955 68.573-66.351z" fill="#ea9b58"/></g><path d="m256 65c-21.263 0-40.922 6.823-56.944 18.376 1.598 6.954 2.444 14.192 2.444 21.624 0 13.177-2.689 25.852-7.578 37.451h9.309c9.389 0 17 7.611 17 17v19c0 9.389 7.611 17 17 17s17-7.611 17-17v-5.5c0-10.77 8.73-19.5 19.5-19.5s19.5 8.73 19.5 19.5v1.5c0 9.389 7.611 17 17 17h38.88c2.842-9.149 4.389-18.868 4.389-28.951 0-53.848-43.652-97.5-97.5-97.5z" fill="#bb5d4c"/><path d="m259.849 65.077c23.732 17.35 39.151 45.393 39.151 77.043 0 11.484-2.031 22.494-5.751 32.691.193 9.221 7.714 16.641 16.982 16.641h38.889c2.841-9.148 4.38-18.869 4.38-28.951 0-52.56-41.588-95.403-93.651-97.424z" fill="#a44f3e"/></g><g><g><path d="m117.5 228h-25c-.951 0-1.813-.347-2.5-.903v217.903h30v-217.903c-.687.556-1.549.903-2.5.903z" fill="#62dbfb"/></g><path d="m202.5 105c0-54.31-44.405-98.249-98.89-97.49-51.17.712-93.493 41.485-95.99 92.599-2.313 47.352 29.172 87.747 72.427 99.166 4.366 1.152 7.453 5.031 7.453 9.546v15.179c0 2.761 2.239 5 5 5h25c2.761 0 5-2.239 5-5v-15.057c0-4.502 2.996-8.497 7.351-9.641 41.81-10.988 72.649-49.043 72.649-94.302z" fill="#ffe5c2"/><path d="m108.849 7.577c23.732 17.35 39.151 45.393 39.151 77.043 0 52.677-42.703 95.38-95.38 95.38-3.58 0-7.111-.204-10.588-.588 10.887 9.221 23.809 16.113 38.015 19.863 4.366 1.153 7.453 5.031 7.453 9.546v15.179c0 2.761 2.239 5 5 5h25c2.761 0 5-2.239 5-5v-15.057c0-4.502 2.996-8.497 7.351-9.641 41.81-10.989 72.649-49.043 72.649-94.302 0-52.559-41.588-95.402-93.651-97.423z" fill="#fed2a4"/></g><path d="m494.5 504.5h-477c-5.523 0-10-4.477-10-10v-40.5c0-5.523 4.477-10 10-10h477c5.523 0 10 4.477 10 10v40.5c0 5.523-4.477 10-10 10z" fill="#dff6fd"/><path d="m494.5 444h-30.5v23c0 5.523-4.477 10-10 10h-446.5v17.5c0 5.523 4.477 10 10 10h477c5.523 0 10-4.477 10-10v-40.5c0-5.523-4.477-10-10-10z" fill="#c8effe"/></g></g></g></g><g><path d="m407.5 132c15.163 0 27.5-12.336 27.5-27.5s-12.337-27.5-27.5-27.5-27.5 12.336-27.5 27.5 12.337 27.5 27.5 27.5zm0-40c6.893 0 12.5 5.607 12.5 12.5s-5.607 12.5-12.5 12.5-12.5-5.607-12.5-12.5 5.607-12.5 12.5-12.5z"/><path d="m40.306 127.807c1.919 0 3.839-.732 5.303-2.197l6.307-6.307c2.929-2.929 2.929-7.678 0-10.606-2.929-2.929-7.678-2.929-10.606 0l-6.307 6.307c-2.929 2.929-2.929 7.678 0 10.606 1.464 1.464 3.384 2.197 5.303 2.197z"/><path d="m80.027 114.5h8.919c4.142 0 7.5-3.358 7.5-7.5s-3.358-7.5-7.5-7.5h-8.919c-4.142 0-7.5 3.358-7.5 7.5s3.358 7.5 7.5 7.5z"/><path d="m121.197 108.697c-2.929 2.929-2.929 7.678 0 10.606l6.307 6.307c1.464 1.464 3.384 2.197 5.303 2.197s3.839-.732 5.303-2.197c2.929-2.929 2.929-7.678 0-10.606l-6.307-6.307c-2.928-2.929-7.678-2.929-10.606 0z"/><path d="m160.89 115.457c1.464 1.464 3.384 2.197 5.303 2.197s3.839-.732 5.303-2.197l6.307-6.307c2.929-2.929 2.929-7.678 0-10.606-2.929-2.929-7.678-2.929-10.606 0l-6.307 6.307c-2.929 2.928-2.929 7.677 0 10.606z"/><path d="m48.581 79.5h8.919c4.142 0 7.5-3.358 7.5-7.5s-3.358-7.5-7.5-7.5h-8.919c-4.142 0-7.5 3.358-7.5 7.5s3.358 7.5 7.5 7.5z"/><path d="m100.527 64.5c-4.142 0-7.5 3.358-7.5 7.5s3.358 7.5 7.5 7.5h8.919c4.142 0 7.5-3.358 7.5-7.5s-3.358-7.5-7.5-7.5z"/><path d="m158.497 63.543c-2.929-2.929-7.678-2.929-10.606 0-2.929 2.929-2.929 7.678 0 10.606l6.307 6.307c1.464 1.464 3.384 2.197 5.303 2.197s3.839-.732 5.303-2.197c2.929-2.929 2.929-7.678 0-10.606z"/><path d="m82.31 28.543-6.307 6.307c-2.929 2.929-2.929 7.678 0 10.606 1.464 1.464 3.384 2.197 5.303 2.197s3.839-.732 5.303-2.197l6.307-6.307c2.929-2.929 2.929-7.678 0-10.606s-7.678-2.928-10.606 0z"/><path d="m129.946 29.5h-8.919c-4.142 0-7.5 3.358-7.5 7.5s3.358 7.5 7.5 7.5h8.919c4.142 0 7.5-3.358 7.5-7.5s-3.358-7.5-7.5-7.5z"/><path d="m494.5 436.5h-65v-205.032c1.562-2.087 2.5-4.667 2.5-7.468v-15.058c0-1.134.723-2.115 1.757-2.387 12.335-3.242 23.856-8.668 34.283-16.139 13.7-1.01 24.641-12.096 25.413-25.86 12.131-17.563 18.547-38.094 18.547-59.556 0-28.323-11.107-54.875-31.276-74.765-19.806-19.532-45.93-30.235-73.708-30.235-.503 0-1.007.003-1.51.01-20.761.29-40.704 6.695-57.859 18.523-13.899.677-25.114 11.724-26.072 25.549-5.983 8.342-10.646 17.366-13.93 26.947-16.014-9.079-34.218-13.79-53.139-13.519-17.668.246-34.779 4.934-50.062 13.615-5.182-15.264-13.889-29.224-25.719-40.89-20.165-19.886-46.89-30.627-75.219-30.225-20.707.288-40.71 6.676-57.849 18.474-3.412 2.349-4.274 7.019-1.925 10.43 2.349 3.412 7.019 4.274 10.43 1.925 14.688-10.11 31.822-15.584 49.553-15.831 24.283-.362 47.193 8.862 64.478 25.906 17.286 17.05 26.807 39.809 26.807 64.086 0 40.876-27.574 76.672-67.055 87.048-7.622 2.002-12.945 8.95-12.945 16.895v12.557h-20v-12.679c0-7.863-5.361-14.771-13.039-16.798-19.568-5.166-37.041-17.004-49.201-33.335-12.582-16.898-18.685-37.027-17.649-58.212.821-16.805 6.385-33.009 16.089-46.863 2.377-3.393 1.553-8.069-1.839-10.446-3.393-2.376-8.069-1.553-10.446 1.839-11.331 16.174-17.827 35.103-18.787 54.737-1.189 24.348 6.126 48.463 20.601 67.903 14.179 19.044 34.566 32.852 57.403 38.88 1.118.295 1.868 1.217 1.868 2.295v15.179c0 2.801.938 5.382 2.5 7.468v205.032h-65c-9.649 0-17.5 7.851-17.5 17.5v40.5c0 9.649 7.851 17.5 17.5 17.5h477c9.649 0 17.5-7.851 17.5-17.5v-40.5c0-9.649-7.851-17.5-17.5-17.5zm-80-78.607-15 15v-24.786l15-15zm0-46-15 15v-24.786l15-15zm0-46-15 15v-44.393h15zm-15 128.214 15-15v57.393h-15zm66.5-218.607c-6.893 0-12.5-5.607-12.5-12.5s5.607-12.5 12.5-12.5 12.5 5.607 12.5 12.5-5.607 12.5-12.5 12.5zm-117-142c6.893 0 12.5 5.607 12.5 12.5s-5.607 12.5-12.5 12.5-12.5-5.607-12.5-12.5 5.607-12.5 12.5-12.5zm-21.575 29.521c5.041 6.376 12.835 10.479 21.575 10.479 15.163 0 27.5-12.336 27.5-27.5 0-8.556-3.928-16.21-10.075-21.258 12.158-6.206 25.518-9.542 39.29-9.734 24.272-.343 47.193 8.863 64.477 25.906 17.287 17.05 26.808 39.809 26.808 64.086 0 14.307-3.318 28.134-9.681 40.653-5.047-6.19-12.728-10.153-21.319-10.153-15.163 0-27.5 12.336-27.5 27.5 0 8.749 4.111 16.55 10.498 21.59-6.04 3.203-12.406 5.711-19.054 7.458-7.621 2.002-12.944 8.95-12.944 16.895v12.557h-20v-12.679c0-7.863-5.361-14.771-13.039-16.798-8.719-2.302-16.992-5.914-24.668-10.733 1.112-6.121 1.707-12.399 1.707-18.79 0-28.323-11.107-54.875-31.275-74.765-2.902-2.862-5.943-5.527-9.102-8.004 1.7-5.801 3.968-11.385 6.802-16.71zm-119.083 23.245c13.957-8.778 29.884-13.527 46.372-13.757 24.306-.362 47.194 8.862 64.477 25.906 17.288 17.049 26.809 39.808 26.809 64.085 0 7.356-.906 14.543-2.601 21.451h-33.169c-5.247 0-9.5-4.253-9.5-9.5v-.926c0-14.692-11.497-27.126-26.183-27.562-15.259-.453-27.817 11.829-27.817 26.988v5.165c0 5.055-3.806 9.476-8.849 9.813-5.531.371-10.151-4.024-10.151-9.478v-19c0-12.729-9.708-23.188-22.123-24.383 2.864-9.578 4.393-19.682 4.393-30.068 0-6.353-.563-12.615-1.658-18.734zm-78.342 137.734v-15.058c0-1.134.723-2.115 1.757-2.387 8.857-2.328 17.195-5.758 24.892-10.11 1.378 4.022 2.996 7.975 4.861 11.821 1.296 2.673 3.97 4.229 6.753 4.229 1.098 0 2.213-.242 3.268-.753 3.727-1.808 5.283-6.294 3.475-10.021-2.187-4.508-3.991-9.182-5.387-13.947 12.885-10.083 23.255-23.055 30.256-37.822h3.355c5.247 0 9.5 4.253 9.5 9.5v18.443c0 13.707 11.216 25.285 24.921 25.053 13.316-.225 24.079-11.127 24.079-24.496v-5.149c0-6.245 4.626-11.712 10.844-12.297 7.135-.671 13.156 4.947 13.156 11.946v1.5c0 13.531 10.969 24.5 24.5 24.5h28.058c-10.831 24.438-32.29 43.487-59.344 50.597-7.622 2.002-12.945 8.95-12.945 16.895v12.556h-20v-12.679c0-7.863-5.361-14.771-13.039-16.798-14.35-3.788-27.694-11.211-38.592-21.466-3.016-2.838-7.763-2.695-10.602.322-2.838 3.016-2.694 7.763.322 10.602 12.71 11.961 28.286 20.622 45.042 25.045 1.117.295 1.868 1.217 1.868 2.295v15.179c0 2.801.938 5.382 2.5 7.468v147.532h-106v-205.031c1.564-2.087 2.502-4.667 2.502-7.469zm133.5 145.393-15 15v-24.787l15-15zm0-46-15 15v-44.393h15zm-15 82.213 15-15v45.894h-15zm-151-169.106h15v29.393l-15 15zm0 65.606 15-15v24.787l-15 15zm0 46 15-15v24.787l-15 15zm0 46 15-15v57.394h-15zm399.5 100.394c0 1.378-1.121 2.5-2.5 2.5h-477c-1.378 0-2.5-1.122-2.5-2.5v-40.5c0-1.378 1.122-2.5 2.5-2.5h312.5c4.143 0 7.5-3.358 7.5-7.5s-3.357-7.5-7.5-7.5h-51.5v-147.531c1.562-2.087 2.5-4.667 2.5-7.468v-15.058c0-1.134.723-2.115 1.757-2.387 34.682-9.115 61.483-35.039 72.616-67.643 7.801 4.424 16.089 7.825 24.759 10.113 1.117.295 1.868 1.217 1.868 2.295v15.179c0 2.802.938 5.382 2.5 7.468v205.032h-19.5c-4.143 0-7.5 3.358-7.5 7.5s3.357 7.5 7.5 7.5h129.5c1.379 0 2.5 1.122 2.5 2.5z"/></g></g><g/><g/><g/><g/><g/><g/><g/><g/><g/><g/><g/><g/><g/><g/><g/></svg>