<svg id="Capa_1" enable-background="new 0 0 512 512" viewBox="0 0 512 512" xmlns="http://www.w3.org/2000/svg"><g><g><g><path d="m299.974 446.725v-76.699c0-27.549 19.506-51.385 46.381-56.678l.221-.043 4.722-3.493c-29.34 6.19-61.537 9.616-95.298 9.616-3.743 0-7.535-.044-11.275-.129l-.55-.006c-12.941 0-23.47 10.551-23.47 23.52v1.814c0 15.407-12.535 27.942-27.942 27.942s-27.942-12.535-27.942-27.942v-10.213c0-13.578-9.135-25.443-22.213-28.855l-.584-.152c-2.526-.663-5.108-.999-7.676-.999-16.444 0-29.822 13.391-29.822 29.85v11.074c0 15.284-12.25 27.257-27.887 27.257-.382 0-.768-.007-1.154-.021-14.801-.568-26.842-13.355-26.842-28.508v-60.858c0-12.053-4.811-23.744-13.2-32.076-17.565-17.446-26.472-36.242-26.472-55.867h-1.471v175.838c0 57.478 111.257 119.954 248.5 119.954 22.182 0 43.679-1.641 64.143-4.62-12.21-8.928-20.169-23.396-20.169-39.706z" fill="#f6a96c"/></g><g><path d="m298.974 446.725v-3.009c-23.221 3.903-47.895 6.076-73.474 6.076-92.311 0-172.864-28.265-215.715-64.263 16.454 53.023 120.408 105.522 246.215 105.522 21.7 0 42.746-1.566 62.81-4.423-11.921-9.049-19.836-23.378-19.836-39.903z" fill="#ea9b58"/></g><path d="m298.974 370.026v76.699c0 32.344 30.284 56.33 61.695 48.617 84.94-20.857 143.831-76.319 143.831-118.135v-181.948c0 53.309-65.67 98.859-158.339 117.108-27.473 5.411-47.187 29.658-47.187 57.659z" fill="#ffbd86"/><path d="m462.526 265.15v80.799c0 41.817-58.891 97.279-143.832 118.135-5.468 1.343-10.898 1.705-16.144 1.249 8.891 22.22 33.139 36.142 58.118 30.009 84.941-20.857 143.832-76.319 143.832-118.135v-181.948c0 25.868-15.465 49.909-41.974 69.891z" fill="#f6a96c"/><g><path d="m454.23 119.492c3.16 7.591 4.77 15.385 4.77 23.345 0 59.452-91.065 107.82-203 107.82s-203-48.368-203-107.82c0-7.96 1.61-15.755 4.771-23.345-31.546 21.064-50.271 47.309-50.271 75.767 0 20.486 9.703 39.825 26.906 56.911 8.246 8.189 12.766 19.411 12.766 31.032v60.858c0 15.895 12.373 29.369 28.257 29.975 16.77.64 30.568-12.077 30.568-28.704v-11.074c0-18.633 17.63-32.161 35.652-27.43.196.051.392.103.588.154 12.457 3.249 21.113 14.557 21.113 27.431v10.214c0 16.244 13.168 29.412 29.412 29.412 16.244 0 29.412-13.168 29.412-29.412v-1.814c0-12.363 10.154-22.328 22.514-22.044 3.749.086 7.519.13 11.31.13 137.243 0 248.5-56.25 248.5-125.639.002-28.458-18.723-54.703-50.268-75.767z" fill="#fff3de"/></g><g><path d="m132.851 303.355c0-12.874-8.656-24.182-21.113-27.431-.196-.051-.392-.102-.588-.154-18.022-4.731-35.652 8.797-35.652 27.43v11.074c0 15.879-12.586 28.182-28.325 28.701v1.085c0 15.895 12.373 29.369 28.257 29.975 16.77.64 30.568-12.077 30.568-28.705v-11.073c0-15.562 12.301-27.555 26.854-28.331v-2.571z" fill="#ffe5c2"/></g><path d="m461.298 124.468c8.232 12.489 12.702 25.846 12.702 39.734 0 69.388-111.257 125.639-248.5 125.639-3.791 0-7.561-.044-11.31-.13-12.36-.284-22.514 9.681-22.514 22.044v1.813c0 15.879-12.586 28.812-28.325 29.385v1.672c0 16.244 13.168 29.412 29.412 29.412 16.244 0 29.412-13.168 29.412-29.412v-1.814c0-12.363 10.154-22.328 22.514-22.044 3.749.086 7.519.13 11.31.13 137.243 0 248.5-56.25 248.5-125.639.001-26.259-15.952-50.63-43.201-70.79z" fill="#ffe5c2"/><path d="m376.73 55.12c9.761 9.937 15.287 21.221 15.287 33.177 0 39.75-61.018 72.089-136.018 72.089s-136.018-32.339-136.018-72.089c0-11.956 5.527-23.24 15.287-33.177-50.492 19.808-83.268 51.719-83.268 87.717 0 60.1 91.334 108.82 204 108.82s204-48.72 204-108.82c0-35.998-32.776-67.909-83.27-87.717z" fill="#ffe5c2"/><g><path d="m420.132 78.229c6.394 10.551 9.868 21.802 9.868 33.49 0 60.1-91.334 108.82-204 108.82-67.295 0-126.971-17.385-164.128-44.191 26.492 43.701 103.384 75.31 194.128 75.31 112.666 0 204-48.72 204-108.82 0-24.198-14.825-46.54-39.868-64.609z" fill="#fed2a4"/></g><ellipse cx="256" cy="88.296" fill="#fff3de" rx="137.018" ry="73.09"/><path d="m334.99 28.571c10.236 10.239 16.045 21.927 16.045 34.341 0 40.366-61.345 73.09-137.018 73.09-29.417 0-56.666-4.947-78.99-13.364 23.048 23.055 68.571 38.749 120.973 38.749 75.673 0 137.018-32.723 137.018-73.09 0-24.675-22.924-46.492-58.028-59.726z" fill="#ffe5c2"/></g><g><path d="m461.859 115.644c-11.135-26.243-38.388-49.403-78.476-65.905-6.993-7.254-16.031-13.908-26.968-19.742-26.945-14.374-62.607-22.29-100.415-22.29-10.962 0-21.906.678-32.534 2.017-4.097.516-7.277 4.089-6.881 8.199.408 4.232 4.225 7.26 8.414 6.727 10.116-1.289 20.546-1.942 31.001-1.942 35.39 0 68.544 7.289 93.356 20.525 23.318 12.439 36.161 28.444 36.161 45.065s-12.843 32.625-36.161 45.064c-1.686.899-3.411 1.771-5.172 2.614-20.893 10.003-44.016 14.327-67.168 13.579-26.223-.848-51.476-6.752-70.267-16.89-14.592-7.873-22.628-17.817-22.628-28.002s8.036-20.129 22.628-28.002c26.331-14.205 69.174-14.204 95.501 0 8.303 4.479 13.064 10.145 13.064 15.545s-4.762 11.065-13.064 15.545c-15.806 8.528-42.475 8.562-58.368.101-3.558-1.894-8.115-.816-10.183 2.644-2.206 3.691-.872 8.436 2.872 10.456 20.412 11.013 52.39 11.012 72.802 0 13.504-7.286 20.941-17.495 20.941-28.746 0-11.252-7.438-21.461-20.942-28.747-30.771-16.601-78.976-16.601-109.746 0-26.543 14.319-30.506 31.961-30.506 41.203s3.963 26.884 30.506 41.203c1.645.887 3.338 1.736 5.056 2.564-15.55-3.474-29.811-8.545-42.04-15.068-23.319-12.439-36.161-28.443-36.161-45.064 0-23.128 25.063-44.893 65.408-56.8 3.973-1.173 6.243-5.344 5.07-9.316-1.173-3.974-5.346-6.242-9.316-5.07-22.12 6.528-40.816 16.181-54.068 27.914-1.729 1.531-3.354 3.094-4.886 4.684-40.129 16.504-67.41 39.677-78.551 65.937-32.805 22.953-50.138 50.441-50.138 79.613v175.837c0 31.286 28.026 63.44 76.892 88.22 49.893 25.3 113.501 39.234 179.108 39.234 20.394 0 40.844-1.388 60.848-4.095 9.536 6.459 20.597 9.838 31.893 9.838 4.562 0 9.163-.55 13.715-1.667 40.872-10.036 78.821-28.785 106.859-52.794 27.127-23.229 42.685-49.7 42.685-72.625v-181.948c0-29.173-17.333-56.66-50.141-79.615zm-382.369-16.887c8.873-9.3 20.572-17.925 34.442-25.478-1.613 4.91-2.45 9.933-2.45 15.018 0 22.424 15.662 43.129 44.102 58.299 26.946 14.374 62.608 22.29 100.416 22.29s73.47-7.916 100.416-22.29c28.439-15.17 44.102-35.875 44.102-58.299 0-5.102-.82-10.114-2.407-14.993 13.851 7.548 25.536 16.163 34.4 25.453 13.265 13.904 19.99 28.734 19.99 44.08 0 26.165-19.81 51.142-55.78 70.33-37.464 19.984-87.438 30.99-140.72 30.99-53.281 0-103.256-11.006-140.72-30.99-35.971-19.188-55.78-44.165-55.78-70.33-.001-15.346 6.725-30.176 19.989-44.08zm64.643 200.967-.58-.152c-10.739-2.818-21.928-.617-30.768 6.039-9.159 6.898-14.289 17.909-14.289 29.375v10.343c0 5.793-2.266 11.164-6.379 15.123-4.326 4.164-10.16 6.329-16.403 6.087-11.603-.443-21.043-10.528-21.043-22.48v-13.745c0-4.107-3.164-7.688-7.269-7.811-4.247-.127-7.731 3.278-7.731 7.497v14.059c0 20.251 15.581 36.71 35.471 37.47.509.02 1.016.029 1.521.029 9.791 0 18.924-3.625 25.855-10.298 7.079-6.813 10.977-16.022 10.977-25.93v-10.577c0-6.411 2.706-12.624 7.682-16.666 5.243-4.26 12.045-5.719 18.57-4.005l.596.156c9.129 2.381 15.506 10.677 15.506 20.174v9.521c0 20.157 15.872 37.118 36.023 37.595 20.758.491 37.802-16.252 37.802-36.902v-1.434c0-3.531 1.115-7.025 3.389-9.727 2.897-3.442 7.055-5.292 11.454-5.198 3.816.087 7.679.132 11.482.132 17.805 0 35.359-.933 52.52-2.771-10.654 11.858-17.046 27.52-17.046 44.399v15.975c0 4.142 3.357 7.5 7.5 7.5s7.5-3.358 7.5-7.5v-15.975c0-24.452 17.301-45.606 41.137-50.3 47.188-9.293 87.604-25.44 116.878-46.697 13.76-9.991 24.649-20.832 32.512-32.265v136.443c0 37.156-55.5 90.565-138.12 110.852-12.433 3.054-25.348.343-35.552-7.413-.014-.011-.029-.021-.043-.032-.161-.123-.327-.235-.487-.36-10.374-8.135-16.324-20.355-16.324-33.528v-25.724c0-4.142-3.357-7.5-7.5-7.5s-7.5 3.358-7.5 7.5v25.724c0 12.591 4.036 24.527 11.346 34.334-15.476 1.654-31.165 2.492-46.82 2.492-63.294 0-124.494-13.357-172.324-37.612-43.003-21.809-68.676-49.787-68.676-74.845v-130.435c3.956 5.786 8.669 11.415 14.121 16.83 6.706 6.659 10.551 16.03 10.551 25.71v11.799c0 4.142 3.358 7.5 7.5 7.5s7.5-3.358 7.5-7.5v-11.799c0-13.648-5.46-26.898-14.981-36.354-16.383-16.271-24.691-33.628-24.691-51.588 0-14.375 5.575-34.86 29.615-56.236-.072 1.268-.115 2.539-.115 3.814 0 31.968 22.63 61.646 63.72 83.565 39.598 21.123 92.08 32.755 147.78 32.755 55.699 0 108.183-11.633 147.779-32.755 41.091-21.919 63.721-51.597 63.721-83.565 0-1.276-.044-2.547-.115-3.815 24.04 21.378 29.615 41.862 29.615 56.237 0 47.707-61.2 91.812-152.288 109.75-.015.003-.029.007-.044.01-28.235 5.558-58.059 8.38-88.668 8.38-3.688 0-7.436-.043-11.138-.128-7.823-.189-15.241 2.672-20.922 8.043-6.058 5.727-9.264 13.852-9.264 22.189v.585c0 11.866-9.209 21.986-21.067 22.435-12.466.471-22.758-9.533-22.758-21.896v-10.214c0-16.322-10.988-30.587-26.718-34.689z"/><path d="m96 147.776h2c4.142 0 7.5-3.358 7.5-7.5s-3.358-7.5-7.5-7.5h-2c-4.142 0-7.5 3.358-7.5 7.5s3.358 7.5 7.5 7.5z"/><path d="m154 192.25h2c4.142 0 7.5-3.358 7.5-7.5s-3.358-7.5-7.5-7.5h-2c-4.142 0-7.5 3.358-7.5 7.5s3.358 7.5 7.5 7.5z"/><path d="m414 147.776h2c4.143 0 7.5-3.358 7.5-7.5s-3.357-7.5-7.5-7.5h-2c-4.143 0-7.5 3.358-7.5 7.5s3.357 7.5 7.5 7.5z"/><path d="m356 192.25h2c4.143 0 7.5-3.358 7.5-7.5s-3.357-7.5-7.5-7.5h-2c-4.143 0-7.5 3.358-7.5 7.5s3.357 7.5 7.5 7.5z"/><path d="m255 209.25h2c4.143 0 7.5-3.358 7.5-7.5s-3.357-7.5-7.5-7.5h-2c-4.142 0-7.5 3.358-7.5 7.5s3.358 7.5 7.5 7.5z"/><path d="m173 49.25c-4.142 0-7.5 3.358-7.5 7.5s3.358 7.5 7.5 7.5h2c4.142 0 7.5-3.358 7.5-7.5s-3.358-7.5-7.5-7.5z"/><path d="m356 105.25c4.143 0 7.5-3.358 7.5-7.5s-3.357-7.5-7.5-7.5h-2c-4.143 0-7.5 3.358-7.5 7.5s3.357 7.5 7.5 7.5z"/><path d="m90 243.25h-2c-4.142 0-7.5 3.358-7.5 7.5s3.358 7.5 7.5 7.5h2c4.142 0 7.5-3.358 7.5-7.5s-3.358-7.5-7.5-7.5z"/><path d="m195 300.25h2c4.142 0 7.5-3.358 7.5-7.5s-3.358-7.5-7.5-7.5h-2c-4.142 0-7.5 3.358-7.5 7.5s3.358 7.5 7.5 7.5z"/><path d="m445 233.25h2c4.143 0 7.5-3.358 7.5-7.5s-3.357-7.5-7.5-7.5h-2c-4.143 0-7.5 3.358-7.5 7.5s3.357 7.5 7.5 7.5z"/><path d="m338 286.25h2c4.143 0 7.5-3.358 7.5-7.5s-3.357-7.5-7.5-7.5h-2c-4.143 0-7.5 3.358-7.5 7.5s3.357 7.5 7.5 7.5z"/></g></g><g/><g/><g/><g/><g/><g/><g/><g/><g/><g/><g/><g/><g/><g/><g/></svg>