<svg xmlns="http://www.w3.org/2000/svg" xml:space="preserve" width="512" height="512"><path fill="#FDE7CF" d="m145.7 290 24.3-10.2 49.1 12.4-23.7 56.2-4.7 11.6-38.7 9.4-39.1-1.4-23.8-7.8-18.7-15.7-6.9-13.4 2.3-12.2 17.6-5.5 21-3.5s33.9-13.8 41.3-19.9z"/><path fill="#2D2D39" d="M223.3 338.7c3-4 4.4-7.2 5.9-11.6l-2.8-2.4c-4.8 13.7-17.2 24.9-35.8 32.6-33 13.7-75.6 12.9-94.9 3.6-19-9.2-32.4-24.3-30.5-34.6 1.5-7.6 11.1-9.9 19-10.6 36.4-2.8 83.4-35.4 84.2-36.1l-2.6-3c-.2.1-46.8 32.3-81.8 35.1-16.7 1.3-21.5 8.2-22.5 13.8-2.3 12.1 11.7 28.8 32.6 38.9 20 9.7 64.2 10.6 98.2-3.5 13.6-5.6 24.2-13.1 31-22.2z"/><path fill="#FDE7CF" d="m371.5 290-24.3-10.2-49.2 12.4 23.7 56.2 4.7 11.6 38.7 9.4 39.1-1.4 23.8-7.8 18.7-15.7 6.9-13.4-2.3-12.2-17.6-5.5-21-3.5s-33.9-13.8-41.2-19.9z"/><path fill="#2D2D39" d="M293.8 338.7c-3-4-4.4-7.2-5.9-11.6l2.8-2.4c4.8 13.7 17.2 24.9 35.8 32.6 33 13.7 75.6 12.9 94.9 3.6 19-9.2 32.4-24.3 30.5-34.6-1.5-7.6-11.1-9.9-19-10.6-36.4-2.8-83.4-35.4-84.2-36.1l2.6-3c.2.1 46.8 32.3 81.8 35.1 16.7 1.3 21.5 8.2 22.5 13.8 2.3 12.1-11.7 28.8-32.6 38.9-20 9.7-64.2 10.6-98.2-3.5-13.6-5.6-24.2-13.1-31-22.2z"/><path fill="#D2ECFF" d="m429 370.3 8.6-54.6 14.9-68s-38.6 13.9-24.3 53.3l-18.3 65.1c-.9 3.4 0 7.1 2.4 9.6 2.7 2.8 6.8 3.8 10.6 2.3 3.3-1.3 5.5-4.3 6.1-7.7zM112.2 360l-25.6-70.2c2.4-1.1 4.4-3.1 5.6-5.6 1.9-3.5 2-7.6.6-11.5L85.9 249c-.5-1.5-2.3-2.3-3.7-1.6-1.5.5-2.3 2.3-1.6 3.7l6.2 22-8.4 2.5-6.3-23.6c-.5-1.5-2.1-2.4-3.6-1.9s-2.3 2.1-1.9 3.6l6.2 23.5-4.4 1.4-3.5 1.1-5.8-21.5c-.4-1.6-1.9-2.5-3.5-2.1s-2.5 1.9-2.1 3.5l6.2 23.2c.9 4 3.3 7.4 6.6 9.3 2.4 1.5 5 1.9 7.7 1.5l17.5 72.7c.9 3.7 3.7 6.8 7.4 7.8 4.1 1.2 8.6-.1 11.4-3.5 2.5-2.9 3.2-7 1.9-10.6z"/><path fill="#2D2D39" d="M83.3 247.1c1.1 0 2.2.7 2.6 1.9l6.9 23.7c1.4 3.9 1.3 8-.6 11.5-1.2 2.5-3.2 4.5-5.6 5.6l25.6 70.2c1.3 3.6.6 7.7-1.9 10.6-2.1 2.6-5.2 3.9-8.3 3.9-1 0-2-.1-3.1-.4-3.7-1-6.5-4.1-7.4-7.8L74 293.6c-.6.1-1.3.1-1.9.1-2 0-4-.5-5.8-1.6-3.3-1.9-5.7-5.3-6.6-9.3l-6.2-23.2c-.4-1.6.5-3.1 2.1-3.5.3-.1.5-.1.8-.1 1.3 0 2.4.9 2.7 2.2l5.8 21.5 3.5-1.1 4.4-1.4-6.2-23.5c-.4-1.5.4-3.1 1.9-3.6.3-.1.6-.1.9-.1 1.2 0 2.3.8 2.7 2l6.3 23.6 8.4-2.5-6.2-22c-.7-1.4.1-3.2 1.6-3.7.4-.2.7-.3 1.1-.3zm0-3.3c-.8 0-1.6.2-2.4.5-1.5.6-2.8 1.8-3.4 3.4-.6 1.5-.6 3.1 0 4.5l5.2 18.6-2 .6-5.4-20.3v-.2c-.9-2.6-3.2-4.3-5.9-4.3-.6 0-1.3.1-1.9.3-3.1 1-4.9 4.4-4 7.6l5.4 20.4-1.4.4-.2.1-4.9-18.2c-.7-2.8-3.1-4.7-5.9-4.7-.5 0-1 .1-1.6.2-1.6.4-3 1.4-3.8 2.8s-1.1 3.1-.7 4.7l6.2 23.1c1.1 4.9 4.1 9 8.1 11.3 2.1 1.3 4.4 2 6.8 2.1l16.9 70c1.2 5 4.9 8.9 9.7 10.2 1.3.4 2.6.6 3.9.6 4.2 0 8.2-1.9 10.9-5.1 3.2-3.8 4.2-9.1 2.5-13.8l-24.7-67.7c1.9-1.4 3.4-3.3 4.5-5.5 2.2-4.2 2.5-9.1.8-14l-6.9-23.6v-.2c-.9-2.1-3.2-3.8-5.8-3.8z"/><path fill="#FDE7CF" d="M168.6 340.5c1.1-1.3 11.3-27.3 11.3-27.3l5.1-9.9s72-3.4 72.7-3.8c.6-.4 45.5-1.8 45.5-1.8l19.3 1.3 8.2 14.2 14.5 37 5.2 19.2s1.3 25.2.5 25.8c-.7.7-15.7 12.8-15.7 12.8s-96.4 18.3-98.3 17.8c-1.9-.5-82-9-82-9l3.9-23.5s2.1-18.8 2.1-20.6c0-1.6 7.7-32.2 7.7-32.2z"/><path fill="#FDE7CF" d="M420.4 400.4c-9.6-15.7-31-.5-39.7 8.1.8-1.6 3.3-4.7 5.8-7.3-8-11-24.1-7.7-35.8-5.9-1.6.2-3 .5-4.3.7l-4.5 1.4-85.9 10-86-10.1-2.4-1c-1.6-.2-3.7-.6-6.3-1-11.6-1.8-27.7-5-35.8 5.9 2.6 2.6 5.1 5.7 5.8 7.3-31.3-31.2-53.7-8.8-38.4 30.3 7.8 17.3 30.1 53.9 46.6 26 1-1.7 2-3.4 2.8-5.1-1.1 4.5-4.2 12.1-9.4 16.3 77.4-.6 169-.6 246.4 0-5.2-4.2-8.2-11.9-9.4-16.3.8 1.7 1.7 3.4 2.8 5.1 16.5 27.9 38.7-8.7 46.6-26 5.6-12.2 6.2-29.4 1.1-38.4z"/><path fill="#FFFAF5" d="M315.8 372.4c-22.1-58.9-97.4-58.9-119.5-.1-2.9 7.8-4.5 16.1-4.1 24.4 3.6 68.4 124.1 68.4 127.7.1.4-8.3-1.2-16.6-4.1-24.4z"/><path fill="#E0BCA2" d="M423.8 406.1c-1.2-2.6-3.7-7.9-4.9-10.5l-7.1-3.1h-4.9l-12.6 4.1c-.4.3-4.8 3.8-5 4-4.2-3-14.5-10.2-20.7-7.1 20 94-245.2 93.9-225.1 0-6.2-3.1-16.5 4.1-20.7 7.1-.3-.2-4.6-3.7-5-4l-12.6-4.1h-4.9l-7.1 3.1c-1.8 3.9-4.5 9.5-6.3 13.4 0 0 .6 10.2.6 10.3l.5 8.9 4.5 14.4 12.7 19.3c2.5 2.4 10.2 10.5 12.6 12.8 3.9.8 10.5 3 14.5 3.3 5.1-.1 114.9-1.5 123.8-1.6 9.2.1 118.5 1.5 123.8 1.6 3.9-.3 10.6-2.5 14.5-3.3 2.3-2.3 10.1-10.3 12.6-12.8l12.7-19.3 4.5-14.4c.3-4.8.8-14.4 1.1-19.2-.2 0-1.5-2.9-1.5-2.9z"/><path fill="#8A5D58" d="m87 428.2 1.4-24.6 6.4-8 7.1-3.1h4.9l12.6 4.1 5 4s2.5-2.1 5.8-4.1c.1.1 29.7 25.1 19.8 80 0 0-.9.6-2.5 1.4l-14.7.2-13.5-3.3-14.3-10.5-12-20-6-16.1zM130.3 396.2c.2-.2.6-.3.8-.5-.4.2-.7.4-.8.5z"/><path fill="#2D2D39" d="m124.7 402.9-3.1-2.1c14.5-21.7 48.1-3.8 48.3-3.5 0 0-12.2-2.4-23.4-3.3-8-.7-16.6.9-21.8 8.9zM125.4 479c-.8 0-1.7-.1-2.6-.2l.7-3.7c12.2 2.3 20-18.3 20-18.3-.2 1.1-4.4 22.2-18.1 22.2z"/><path fill="#7C4C48" d="M123.3 441.5c3.7 7 4.1 15.2 1.1 18.3-3.1 3.1-8.5 0-12.1-7-3.7-7-4.1-15.2-1.1-18.3 3-3 8.5.1 12.1 7z"/><g fill="#7C4C48"><path d="M103.3 435.8c1.9 3.1 2.5 7.2 1.1 9s-4.1.8-6.1-2.4c-1.9-3.1-2.5-7.2-1.1-9 1.4-1.8 4.2-.7 6.1 2.4zM102 419.5c1.8 3.4 1.9 7.4.5 8.9-1.5 1.6-4.2.1-5.9-3.3-1.8-3.4-1.9-7.4-.5-8.9s4 0 5.9 3.3zM120.2 421c1.5 3.7 1.3 7.5-.5 8.8-1.7 1.1-4.2-.8-5.7-4.5s-1.3-7.5.5-8.8c1.7-1.2 4.2.8 5.7 4.5zM109.4 412.9c1.8 3.4 1.9 7.4.5 8.9-1.5 1.6-4.2.1-5.9-3.3-1.8-3.4-1.9-7.4-.5-8.9 1.4-1.7 4.1-.2 5.9 3.3z"/></g><path fill="#8A5D58" d="m419 444.3-12 20-14.2 10.5-13.5 3.3-14.7-.2c-1.6-.8-2.5-1.4-2.5-1.4-9.9-54.9 19.7-79.9 19.8-80 3.3 2.1 5.8 4.1 5.8 4.1l5-4 12.6-4.1h4.9l7.1 3.1 6.4 8 1.4 24.6-6.1 16.1zM380.9 395.7c.2.1.6.2.8.5-.1-.1-.4-.3-.8-.5z"/><path fill="#2D2D39" d="M365.5 394c-11.2.9-23.4 3.3-23.4 3.3.2-.2 33.8-18.2 48.3 3.5l-3.1 2.1c-5.2-8-13.8-9.6-21.8-8.9zM368.6 456.8s7.8 20.6 20 18.3l.7 3.7c-.9.1-1.8.2-2.6.2-13.8 0-18-21.1-18.1-22.2z"/><path fill="#2D2D39" d="M423.2 399c-2.7-4.9-6.9-7.8-12-8.3-9.2-1-17.1 3.7-22.3 8.2-.3.3-.6.5-.8.7l-.1.1c-.2.2-.5.4-.7.6l-.7.7-.3.3c-3.1 3.1-6.2 7.1-6.2 8.4 0 0 15.9-17 30.7-15.4 4 .5 7.1 2.6 9.3 6.5 5 8.8 4.5 25.9-1.3 38.1-8.1 17.2-16.4 30-30.5 36.3 0 0-.1 0-.1.1-.1 0-.2.1-.3.1-1.2.2-4.3.4-8.8.5h-.8c-4.4.1-9.9.1-16.2.1-15.6 0-35.6-.3-53.4-.5-11-.1-31.2-.2-52.6-.2s-41.6.1-52.6.2c-17.8.2-37.8.5-53.4.5-6.3 0-11.9 0-16.2-.1h-.8c-4.5-.1-7.7-.3-8.8-.5-.1 0-.2-.1-.3-.1 0 0-.1 0-.1-.1-14.1-6.3-22.4-19.1-30.5-36.3-5.7-12.1-6.3-29.3-1.3-38.1 2.2-3.9 5.3-6.1 9.3-6.5 14.9-1.6 30.7 15.4 30.7 15.4 0-1.3-3.1-5.3-6.2-8.4l-.3-.3-.7-.7c-.2-.2-.5-.4-.7-.6l-.1-.1c-.3-.2-.5-.5-.8-.7-5.2-4.5-13.1-9.2-22.3-8.2-5.1.6-9.3 3.4-12 8.3-6.3 11.1-4.3 29.8 1.1 41.5 8.5 18.1 17.3 31.4 32.5 38.2 1.5.7 8.9.9 23.9.9 13 0 31.7-.2 57.3-.6 11.4-.1 31.4-.2 52.5-.2 21 0 41 .1 52.5.2 25.6.3 44.2.6 57.3.6 15 0 22.4-.2 23.9-.9 15.2-6.7 24-20.1 32.5-38.2 5-11.6 7-30.4.7-41.5z"/><path fill="#7C4C48" d="M400.8 434.6c3 3.1 2.5 11.3-1.1 18.3-3.7 7-9 10.1-12.1 7-3-3.1-2.5-11.3 1.1-18.3s9.1-10.1 12.1-7z"/><g fill="#7C4C48"><path d="M414.7 433.4c1.4 1.8.8 5.9-1.1 9-1.9 3.2-4.7 4.2-6.1 2.4s-.8-5.9 1.1-9c2-3.1 4.8-4.2 6.1-2.4zM416 416.2c1.5 1.5 1.4 5.5-.5 8.9-1.7 3.4-4.5 4.9-5.9 3.3-1.5-1.5-1.4-5.5.5-8.9 1.8-3.3 4.4-4.8 5.9-3.3zM397.5 416.5c1.7 1.3 1.9 5.1.5 8.8-1.5 3.7-4 5.6-5.7 4.5-1.7-1.3-1.9-5.1-.5-8.8 1.5-3.7 4-5.7 5.7-4.5zM408.6 409.5c1.5 1.5 1.4 5.5-.5 8.9-1.7 3.4-4.5 4.9-5.9 3.3-1.5-1.5-1.4-5.5.5-8.9s4.4-4.9 5.9-3.3z"/></g><path fill="#2D2D39" d="M157.5 395.2c-2.6-42.7 21.3-80.4 22.3-82 0 0-7.6 20.6-13.9 45.1-2.9 11.3-4.7 23.9-3.9 36.9h-4.5zM353.1 395.4c2.6-42.7-21.4-80.6-22.4-82.2 0 0 7.6 20.6 13.9 45.1 2.9 11.3 4.7 23.9 3.9 36.9l4.6.2z"/><path fill="#D2ECFF" d="m255 292.4-63.8 2.3s16.3 43 63.8 58c38.5-10.5 65.9-60.3 65.9-60.3H255z"/><path fill="#A6DDFF" d="M210.4 305.3s19 20.8 48.1 19.6 44.6-19.6 44.6-19.6-47.4 27.7-92.7 0zM220.7 317.7s12.5 19.3 32.9 19.9c-.1 0-15.8-2.7-32.9-19.9z"/><path fill="#2D2D39" d="m319.5 291-.3.5c-.2.5-27.2 48.7-64.1 59.2-44.8-14.6-61.3-55-62-56.7l-.2-.5-3.1 1.2-.6.3.3.6c1.9 4.5 19.7 44.6 65 59l.4.1H255.7c37.4-10.2 64.1-56 67-61.2l.3-.5-3.5-2z"/><path fill="#FDE7CF" d="M126.5 229.1c.1-4.8.5-9.7 1.1-14.4.1-.9.2-1.7.3-2.6.7-4.8 1.6-9.5 2.5-14 .2-1.1.5-2.2.8-3.3 4.5-19 10.6-32.9 10.6-32.9l6.3-21.1.6-2.1v-.1c-.3-.8-2.6-7.6-4.7-17.1-.3-1.2-.5-2.5-.8-3.8-.6-3-1.2-6.3-1.7-9.7v-.1c-.4-2.9-.7-5.9-1-8.9-.7-9.9-.3-20.3 2.6-29.1 2.9-8.7 6.4-16.7 10-23.6.9-1.8 1.9-3.5 2.8-5.2V41c4.5-8.1 8.5-14 10.6-16.9.5-.7.9-1.2 1.1-1.5l.3-.3.1.1 5.4 5.7s1.3.9 3.4 2.6c1.2 1 2.8 2.2 4.5 3.7 5.8 4.9 14.1 12.7 22.5 23.1 4.8 5.9 9.7 12.7 14.2 20.2.2.3.4.6.5.9l.6.8.1.1.7 1 1.6-.2 34.6-4.5 34.6 4.6 1.6.2.7-1s0-.1.1-.1l.6-.8.6-.9c4.5-7.6 9.4-14.3 14.2-20.2 8.5-10.4 16.8-18.1 22.6-23 1.8-1.5 3.3-2.7 4.5-3.7 2.2-1.7 3.5-2.6 3.5-2.6l5.4-5.6.1-.1.3.3c.2.3.6.8 1.1 1.5 2 2.8 6.1 8.8 10.5 16.9v.1c.9 1.6 1.8 3.4 2.7 5.2 3.5 6.9 7.1 14.9 10 23.6 2.9 8.8 3.3 19.1 2.5 29.1-.2 3-.6 6-1 8.9v.1c-.5 3.4-1.1 6.6-1.7 9.7-.3 1.3-.5 2.5-.8 3.8-2.1 9.5-4.4 16.3-4.7 17.1v.1l.6 2.1 6.2 21.1s6.1 14 10.6 33c.3 1.1.5 2.2.7 3.3 1 4.5 1.9 9.1 2.5 14 .1.9.2 1.7.3 2.6.6 4.7 1 9.6 1 14.4v3.2c-.1 7.8-.9 15.5-3 22.8-3.7 13.1-11.1 24.7-24.4 32.3-22.8 13-44.8 20.4-62.5 24.5-21.9 5.1-37.3 5.3-39.6 5.3-2.3 0-17.7-.2-39.6-5.4-17.7-4.2-39.6-11.5-62.4-24.6-13.3-7.6-20.7-19.2-24.4-32.4-2-7.3-2.9-15-2.9-22.8-.1-1.1-.1-2.2-.1-3.3z"/><path fill="#9D706B" d="M191.2 149.5c16-6.9 34.4-5.8 47.5-3.4 5.7 1.1 11.5 1.6 17.3 1.6 5.8 0 11.6-.5 17.3-1.6 13.2-2.4 31.5-3.5 47.5 3.5 28.8 12.5 50.5 68 18.3 103.4-22.7 25.2-49.1 27.8-66.9 26.8-5.5-.3-10.9-.4-16.4-.4s-10.9.1-16.4.4c-17.7.9-44.1-1.7-66.8-26.9-31.9-35.5-10.2-90.9 18.6-103.4z"/><path fill="#E0BCA2" d="M175.5 33.8h.8s19.5 15.8 30.3 51.7l13.3-4.6c.1 0-33-52.7-44.4-47.1z"/><path fill="#F6B0A6" d="m141.7 76.8-1.2 24.7 3.4 19.9s19.9 1.3 19.2-21c0 0 5.4 4.4 5.8 4.1.3-.3 4.3-5.6 4.3-5.6V80.8l5.7-1.2 10.2 6.4 6.1-2.8s.1-12.5 0-12.9c-.1-.6-8.1-20.2-8.1-20.2L172 28.8l-4.1-5.1-13.8 20.2-12.4 32.9z"/><ellipse transform="rotate(-67.592 189.924 219.424)" fill="#F6B0A6" cx="189.924" cy="219.426" rx="11.3" ry="19.1"/><path fill="#2D2D39" d="M205.6 192.8c.9 9.9 7 17.4 13.6 16.8 6.5-.6 11.2-9.2 10.2-19.1-.9-9.9-7-17.4-13.6-16.8-6.6.6-11.2 9.1-10.2 19.1z"/><path fill="#2D2D39" d="M194.5 184.7c2.4 7.8 11.9 9 18.3 5l-5.1-6.3c-3 4.9-9.4 5.7-13.2 1.3z"/><path fill="#F9FCF8" d="M215.3 186.2c1.2 3.9 4.3 6.6 6.8 5.9 2.5-.7 3.6-4.6 2.4-8.6-1.2-3.9-4.3-6.6-6.8-5.9-2.5.8-3.6 4.6-2.4 8.6z"/><path fill="#2D2D39" d="M166.2 21.3c-.5.6-47.4 54.2-18.2 119.3.2.4.5 1 .7 1.5l1.4-.7c.4-1.4.8-2.6 1.2-3.7-.3-.9-.7-1.8-1-2.6-22.3-55 10.8-100.9 17.8-109.6 37.3 29.1 49.5 56.7 49.6 56.9l3.9-1.7c-.6-1.2-13.1-29.6-52.6-59.9l-1.5-1.2-1.3 1.7z"/><path fill="#2D2D39" d="M160.1 91.5c1.099 4.661 4.442 15 9.3 15 1.1-.1 2.2-.5 3-1.2 2.9-2.6 2.8-8.4 2.7-14.4-.1-2.7-.2-7.3.5-8.5 1.1-.1 3.4 1.1 5.2 2 4.6 2.3 11.1 5.4 15.3.1 6.3-8.2-6.4-38.3-26.6-63.2l-3.3 2.7c20.9 25.7 30.5 52.9 26.5 58.1-2 2.5-5.3 1.1-10.2-1.3-3.1-1.6-5.8-2.9-8.2-2.3-3.7 1-3.7 6.4-3.6 12.7.1 4 .2 9.9-1.2 11.2-2.668 0-7.557-7.284-9.4-10.9zM83.8 184.2c22.9 1.2 46.6 8.4 68.5 20.7 0 0-16.6-5.3-34.3-10.5-12.7-3.7-34.2-10.2-34.2-10.2zM72.2 207.3c22.8-2.4 47.3.9 70.9 9.6 0 0-17.2-2.6-35.6-4.9-13-1.6-35.3-4.7-35.3-4.7zM76.9 238.4c21.4-8.1 46-11 71.1-8.5 0 0-17.3 1.8-35.6 4.2-13.1 1.7-35.5 4.3-35.5 4.3z"/><path fill="#FFFAF5" d="M197.3 89.5c.608-.304 30.429-14.806 56.917-14.806 32.691 0 56.695 13.809 60.683 14.806h-.1c-13.8-2.8-26.6-4.6-38.2-5.6-12.39-1.101-22.646-1.749-41.2-.1-11.5 1.2-24.3 2.9-38.1 5.7z"/><path fill="#E0BCA2" d="m292.2 81 13.3 4.6c10.9-35.9 30.4-51.7 30.4-51.7h.8C325.4 28.3 292.2 81 292.2 81zM129.5 255.2c.9.6 1.8 1.3 2.7 1.9 43.9 30.9 86.5 41 123.8 40.5 37.3.5 79.9-9.5 123.8-40.3.9-.6 1.8-1.2 2.7-1.9l.1-.1c-3.6 13.1-11.2 24.8-24.6 32.5-23.2 13.2-45.5 20.6-63.3 24.7h-.1c-21.5 4.9-36.4 5.1-38.7 5.1-2.3 0-17.3-.2-38.7-5.1h-.1c-17.8-4.1-40.1-11.5-63.2-24.8-13.4-7.7-20.9-19.4-24.4-32.5-.1-.1-.1-.1 0 0z"/><path fill="#F6B0A6" d="m358.2 44-13.8-20.2-4.1 5.1-15 21.4s-8 19.6-8.1 20.2c-.1.5 0 12.9 0 12.9l6.1 2.8 10.2-6.3 5.7 1.2-.1 18.1s4 5.3 4.3 5.6c.4.3 5.8-4.1 5.8-4.1-.8 22.3 19.1 21 19.1 21l3.5-19.9-1.3-24.8-12.3-33z"/><ellipse transform="rotate(-22.301 322.108 219.494)" fill="#F6B0A6" cx="322.105" cy="219.501" rx="19.1" ry="11.3"/><path fill="#2D2D39" d="M296.2 173.7c-6.5-.6-12.7 6.9-13.6 16.8-1 9.9 3.6 18.5 10.2 19.1 6.5.6 12.7-6.9 13.6-16.8 1.1-9.9-3.5-18.4-10.2-19.1z"/><path fill="#2D2D39" d="m304.4 183.5-5.1 6.3c6.3 4 15.9 2.8 18.3-5-3.8 4.4-10.2 3.6-13.2-1.3z"/><path fill="#F9FCF8" d="M294.4 177.7c-2.5-.8-5.5 1.9-6.8 5.9-1.3 3.9-.1 7.9 2.4 8.6 2.5.8 5.5-1.9 6.8-5.9s0-7.8-2.4-8.6z"/><path fill="#2D2D39" d="m344.8 19.9-1.5 1.2c-39.6 30.2-52.2 58.6-52.7 59.8l3.9 1.7c.2-.2 12.4-27.8 49.7-56.8 6.9 8.8 40 54.7 17.6 109.6-.4.8-.8 1.7-1 2.6.4 1.1.8 2.4 1.1 3.7l1.4.7c.2-.6.5-1.1.7-1.5 29.3-65-17.5-118.8-18-119.3l-1.2-1.7z"/><path fill="#2D2D39" d="M342.7 102.4c-1.4-1.3-1.3-7.2-1.2-11.2.1-6.3.2-11.7-3.6-12.7-2.4-.6-5.1.7-8.2 2.3-4.9 2.4-8.2 3.7-10.2 1.3-4-5.2 5.7-32.4 26.6-58l-3.3-2.7c-20.3 24.9-33.1 55-26.7 63.2 4.2 5.3 10.6 2.3 15.3 0 1.8-.9 4.1-2 5.2-2 .6 1.2.6 5.8.5 8.5-.1 6-.2 11.8 2.7 14.4.8.7 1.9 1.2 3 1.2 4.862 0 8.293-10.444 9.4-15-3.521 6.521-8.528 11.673-9.5 10.7zM220.1 225.1l.5 2.8s0 .2.1.3l.1.8c.5 2.8 3.5 17 16.4 17.1 6.3.1 12.4-3.3 15.9-8.8.2-.4.5-.8.7-1.3-6.6-3.1-14.4-7.7-15.7-11.9-.3-1-.2-2 .3-2.9 2.1-3.4 10.8-4.6 17.6-4.6s15.5 1.2 17.6 4.6c.5.9.6 1.9.3 2.9-1.3 4.4-10.2 9.2-15.7 11.8.2.4.5.9.7 1.3 3.5 5.5 9.6 8.9 15.9 8.8 12.9-.1 15.9-14.3 16.4-17.1l.1-.8c0-.1.1-.3.1-.3l.5-2.7 9.9 5.2-6.9-.1c-1 5-5.3 19.6-19.9 19.7h-.1c-7.5-.1-14.7-4.1-18.8-10.5-4.1 6.4-11.3 10.4-18.8 10.4h-.2c-14.6-.1-18.8-14.7-19.9-19.7l-6.9.1 9.8-5.1zM255.9 269.6c5-.1 10.1-1.6 14.8-4.3-6.3 10.9-23.3 10.8-29.5 0 4.7 2.7 9.7 4.2 14.7 4.3zM197.3 89.5c29.592-17.182 55.614-16.43 58.949-16.43 24.686 0 42.38 7.886 58.651 16.53h-.1c-24.547-5.665-37.103-12.228-58.911-12.228-21.279 0-32.558 6.121-58.589 12.128zM428.2 184.5c-22.9 1.1-46.6 8.3-68.5 20.6 0 0 16.6-5.2 34.3-10.4 12.7-3.7 34.2-10.2 34.2-10.2zM439.8 207.7c-22.8-2.5-47.3.8-70.9 9.5 0 0 17.2-2.6 35.6-4.8 13-1.7 35.3-4.7 35.3-4.7zM435 238.7c-21.4-8.1-46-11.1-71.1-8.6 0 0 17.3 1.8 35.6 4.2 13.2 1.8 35.5 4.4 35.5 4.4z"/><path fill="#3D3D44" d="M242.6 221.1c0-.7 3.4-1.3 8.3-1.6 1.6-.1 3.3-.1 5-.2 1.8 0 3.5.1 5 .2 4.9.3 8.3.9 8.3 1.6.1 1.1-5.9 1.8-13.4 1.9-7.3 0-13.3-.8-13.2-1.9z"/><path fill="#2D2D39" d="M148 140.4c.8-1.8 1.5-3.6 2.3-5.2 3.4-7.8 6-12.9 6.6-13.9-.2.7-2.4 6.9-5.6 16.3-.4 1.1-.8 2.4-1.2 3.7-3.7 11.3-8.4 26.3-12.9 42-5.4 19.3-9.5 40.6-8.1 59.7 2.2 30.2 28.5 47.2 52.3 56.3 8.4 3.2 16.4 6.2 23 8.6 33.3 9.3 63.9 7.3 85.5 3.3 11.9-2.2 22.4-5.2 30.9-8.1 3.1-1.2 6.4-2.4 9.7-3.7 23.8-9 50.1-26 52.4-56.2 1.4-19.1-2.6-40.4-8-59.7-4.5-15.7-9.2-30.7-12.9-42-.4-1.4-.7-2.6-1.1-3.7-3.2-9.4-5.3-15.6-5.6-16.3.5 1 3.1 6.1 6.6 13.9.8 1.7 1.6 3.5 2.3 5.2 10.3 24.2 25.5 66.9 22.9 102.8-2.2 29.1-24.8 46.5-47.5 56.6-8.5 4.1-25.7 11.3-48.6 15.6-10.4 1.9-22.7 3.4-36.3 3.4-23.9 0-52-4.5-81.1-18.6-23-10.1-46.5-27.6-48.6-57.3-2.6-35.9 12.7-78.5 23-102.7z"/><g><path fill="#2D2D39" d="m266.8 248.1-4-1.9-5.4-3.8-.8-1.9h-1.2l-.8 1.9-5.4 3.8-4 1.9-2.9.2.2.3c.4.8 1 2.2 1.9 3.7.3.4.5.8.8 1.2s.7.9 1 1.4c2.1 2.6 5.1 4.9 9.2 4.9h1.2c4.1 0 7.1-2.3 9.2-4.9.4-.4.7-.9 1-1.4.3-.4.5-.8.8-1.2.9-1.5 1.5-2.9 1.9-3.7l.2-.3-2.9-.2z"/><path fill="#F9A9A0" d="M267.2 252.8c-.3-.1-5.1-2-11.2-2.2-6.2.2-10.9 2-11.2 2.1l.5.7.9 1.4 1.5 2.2 4.1 2.9 4.2.7 4.2-.7 4.2-2.9 1.5-2.2.9-1.4.4-.6z"/><path fill="#2D2D39" d="m267.4 245.8-3.2-1.6-4.8-3.4-1.1-2.8h-4.5l-1.1 2.8-4.8 3.4-3.2 1.6-5.6.4 1 2.5c3.4 8.6 8.8 13.3 15.4 13.3h1.1c6.6 0 12.1-4.7 15.5-13.3l1-2.5-5.7-.4zm-.8 5.9c-.1.2-.2.3-.3.5-.2.2-.3.5-.5.7-2.6 3.7-5.7 5.5-9.1 5.5h-1.4c-3.5 0-6.5-1.9-9.1-5.6-.2-.2-.3-.4-.4-.7-.1-.2-.2-.3-.3-.5-.5-.8-.9-1.5-1.2-2.2l1.3-.1 4.2-2 6-4.1.3-.7.3.7 5.9 4 4.3 2.1 1.3.1c-.5.7-.9 1.5-1.3 2.3z"/><path fill="#2D2D39" d="M267.7 252.3h-.1c-1.4-.6-5.5-2.2-11.6-2.2-6.1-.1-10.2 1.6-11.6 2.2h-.1c-.2.1-.3.1-.4.2l.6 1.3s.2-.1.5-.2h.1c1.5-.6 5.3-1.9 10.8-1.9 5.5 0 9.3 1.3 10.8 1.9h.1c.3.1.5.2.5.2l.6-1.3c.1-.1 0-.1-.2-.2z"/></g><path fill="#EF8994" d="M324.2 431.5c-9.9 12.4-126.7 12.4-136.6 0 0 0-12.4 11-13.1 43.3-.1 2.9 1.8 5.5 4.5 6.3 11.2 3.2 41.2 10.7 76.9 9.5 35.7 1.1 65.7-6.3 76.9-9.5 2.8-.8 4.7-3.4 4.5-6.3-.7-32.3-13.1-43.3-13.1-43.3z"/><path fill="#FFF" d="M271.5 462.4v.6c-8.5 2.9-18.2 5-29.1 5.7-.9-1.8-1.6-3.6-1.7-5.7-.6-10.9 11.1-14.1 15.3-7.8 3.8-6.4 15.7-3.7 15.5 7.2z"/><path fill="#BA8168" d="M191.7 422c1.3-1.2 3.1-1.7 5.4-1.2l1.4.2.2-1.4c0-.1 2.1-14.4 10.2-19.1 3.3-2 7.2-2.1 11.8-.4l1.6.6.4-1.7c.1-.2 1.2-5.8 9.1-6.3 7-.5 13.1 6.1 13.1 6.1-2.7-7.1-9.5-8.9-12.7-8.8-.9 0-1.9 0-2.7.1.7-1.8 2.1-4.5 4.7-6.2 2-1.2 4.3-1.6 7-.9l1.4.3.3-1.4c.1-.2 1.4-6.2 7.6-8.7 3.2-1.3 6.8-1.2 9.9.1 3.8 1.8 5.9 4.8 6.1 9.1l.1 2.2 2-.8s3.3-1.4 6.2 0c1.7.8 2.8 2.5 3.6 4.9-5.5 2.9-8.4 8.3-9 11.4 0 0 6.5-12 19.3-10.2 12.6 1.7 12.6 16 12.6 16.6v1.8l1.8-.2c5.3-.7 9.5.3 12.6 3.1 6.5 5.8 6.9 17.3 6.9 19.9-5 5-32.8 8.5-66.9 8.5s-61.9-3.5-66.9-8.5c.1-1.7.2-6.7 2.9-9.1z"/><path fill="#F9C7CE" d="M271.5 463c-.7 10.5-15 18.4-15 18.4s-10-5-14.2-12.7c11-.7 20.7-2.9 29.2-5.7z"/><path fill="#E06E78" d="M337.3 474.8c.1 2.9-1.8 5.5-4.5 6.3-11.2 3.2-41.2 10.7-76.9 9.5-35.7 1.1-65.7-6.3-76.9-9.5-2.8-.8-4.7-3.4-4.5-6.3.1-7 .8-13.1 1.9-18.3 25.5 10.3 47.5 13.2 66 12.1 4 7.8 14.2 12.7 14.2 12.7s14.4-7.8 15-18.4c27.6-9.3 41.6-26.4 41.6-26.4l.3-.3c5.5-1.3 9.3-2.9 10.7-4.8 0 .1 12.4 11.1 13.1 43.4z"/><path fill="#AF765D" d="M322.7 431c0-2.6-.4-14.2-6.9-19.9-3.2-2.8-7.4-3.9-12.6-3.1l-1.8.2v-1.8c0-.6 0-14.9-12.6-16.6-3.9-.5-7.1.2-9.9 1.4 5.7-1.6 21.1 3.9 8.6 21.7 0 0 19.4-3.9 20.3 9.6s-28.1 12.6-35 5.9c0 0-26 14.4-40.5-.5 0 0-33.5 14.5-38.3-7.1-.8.2-1.6.6-2.2 1.1-2.6 2.4-2.7 7.3-2.7 8.9 5 5 32.8 8.5 66.9 8.5 34 .1 61.7-3.4 66.7-8.3z"/><path fill="#AF765D" d="M246.9 375.6s15.1 4.9 14.4 15.7c0 0 11.4-6.1 11.2 3.1l8-5.6-3.2-6.8-8.8.6s-1.6-6.9-2.1-6.9c-.4 0-8.9-4.8-8.9-4.8s-7.8-2.3-10.6 4.7z"/><path fill="#2D2D39" d="M325.7 430.9c0-3-.4-15.4-7.9-22.1-3.5-3.1-8.1-4.4-13.4-4-.4-4.4-2.7-16.3-15.1-17.9-3-.4-5.7-.1-8 .6-1-3.1-2.7-5.2-5.1-6.3-2.5-1.2-5.1-1-6.7-.6-.8-5.7-4.5-8.5-7.6-9.8-3.8-1.8-8.3-1.8-12.3-.2-5.7 2.3-8.2 7-9 9.4-2.9-.4-5.6.1-7.9 1.6-4.9 3.1-6.4 9.2-6.5 9.6-3.1 1.3-4.9 3.7-5.8 5.7-4.9-1.6-9.1-1.1-12.9 1-7.8 4.7-10.6 15.9-11.4 19.8-2.6-.1-4.8.6-6.4 2.2-3.5 3.2-3.6 9.1-3.6 11.1-2.5 2.5-12.5 14.7-13.1 43.9-.1 3.5 2.3 6.7 5.7 7.8 11.4 3.3 41.5 10.7 77.2 9.6 2.6.1 5.1.1 7.6.1 32.3 0 59.2-6.7 69.8-9.7 3.4-1 5.7-4.1 5.7-7.8-.8-29.4-11-41.5-13.3-44zm-134-8.9c1.3-1.2 3.1-1.7 5.4-1.2l1.4.2.2-1.4c0-.1 2.1-14.4 10.2-19.1 3.3-2 7.2-2.1 11.8-.4l1.6.6.4-1.7c.1-.2 1.2-5.8 9.1-6.3 7-.5 13.1 6.1 13.1 6.1-2.7-7.1-9.5-8.9-12.7-8.8-.9 0-1.9 0-2.7.1.7-1.8 2.1-4.5 4.7-6.2 2-1.2 4.3-1.6 7-.9l1.4.3.3-1.4c.1-.2 1.4-6.2 7.6-8.7 3.2-1.3 6.8-1.2 9.9.1 3.8 1.8 5.9 4.8 6.1 9.1l.1 2.2 2-.8s3.3-1.4 6.2 0c1.7.8 2.8 2.5 3.6 4.9-5.5 2.9-8.4 8.3-9 11.4 0 0 6.5-12 19.3-10.2 12.6 1.7 12.6 16 12.6 16.6v1.8l1.8-.2c5.3-.7 9.5.3 12.6 3.1 6.5 5.8 6.9 17.3 6.9 19.9-5 5-32.8 8.5-66.9 8.5s-61.9-3.5-66.9-8.5c.1-1.7.2-6.7 2.9-9.1zm140.6 57.8c-11.2 3.2-41.1 10.6-76.5 9.5-35.3 1.1-65.2-6.2-76.4-9.5-2.2-.6-3.6-2.6-3.5-4.9.5-26 8.9-38 11.7-41.2 8.5 6.4 41.4 8.7 68.2 8.7 26.9 0 59.7-2.3 68.2-8.7 2.8 3.3 11.2 15.2 11.7 41.2.2 2.2-1.3 4.3-3.4 4.9z"/><path fill="#AF765D" d="M244.7 410.4s-8.8-6.5-15.9 1.8c0 0-8.3-2.2-12.4 8.4l14.2-3.3 5-4.4 9.1-2.5z"/><path fill="#2D2D39" d="M246.1 410.9c-5.5-2.2-12.6 0-15.1 5.7-5.6-1.7-12 .7-15.5 5.3 7.9-4.1 16.6-3.5 23.7 1.9-1.5-2.9-4.2-5.5-7.3-6.7 5.5-4.8 12.8-4.6 19.5-2.5-1.6-1.9-3.5-3-5.3-3.7z"/><path fill="#9D706B" d="M61.6 321c.3-4.9 3.5-9.4 8.3-10.8 3.4-1 7.6-.7 11.5 4.3 8.4 10.8 12.2 36.7 8.6 41.3-3.6 4.6-14.8 13.8-22.3-5.6-5.3-13.5-6.6-22.9-6.1-29.2z"/><path fill="#2D2D39" d="M77.7 363.8c-4.9-.8-9-5.1-11.9-12.9-4.7-12.1-6.7-22.2-6.1-30.1.5-5.9 4.3-10.9 9.7-12.5 3.6-1 8.9-1.1 13.5 5 8.6 11.1 13 38.2 8.5 43.7-.7.8-3.1 3.6-6.6 5.5-1.9 1.1-4.4 1.8-7.1 1.3zm-14.2-42.6c-.6 7.4 1.5 16.9 5.9 28.4 2.4 6.3 5.6 9.9 8.9 10.5 3.8.6 7.7-2.5 10-5.5 2.7-3.4-.6-28.6-8.6-38.8-2.7-3.5-5.8-4.7-9.3-3.6-.6.1-1 .3-1.5.6-3 1.5-5 4.6-5.4 8.4zM452.5 247.7l-14.9 68-8.6 54.6c-.6 3.4-2.8 6.4-6.1 7.7-2.753 1.147-7.106 1.194-10.6-2.3-2.4-2.5-3.3-6.2-2.4-9.6l18.3-65.1c-14.3-39.4 24.3-53.3 24.3-53.3zm4.4-5-5.4 2c-.7.3-18.2 6.7-26 23.3-4.6 9.8-4.8 20.9-.6 33.1l-18 64.1c-1.2 4.6 0 9.4 3.2 12.7 1.956 2.037 7.128 5.714 14.1 3.1 4.2-1.7 7.3-5.5 8.1-10.1l8.6-54.5 14.9-67.9 1.1-5.8z"/><path fill="#9D706B" d="M455.5 321c-.3-4.9-3.5-9.4-8.3-10.8-3.4-1-7.6-.7-11.5 4.3-8.4 10.8-12.2 36.7-8.6 41.3 3.6 4.6 14.8 13.8 22.3-5.6 5.3-13.5 6.6-22.9 6.1-29.2z"/><path fill="#2D2D39" d="M432.2 362.5c-3.4-1.8-5.9-4.7-6.6-5.5-4.4-5.6-.1-32.5 8.5-43.7 4.8-6.1 10-6 13.5-5 5.3 1.6 9.2 6.7 9.7 12.5.6 8-1.5 18.1-6.1 30.1-3.1 7.7-7.1 12.2-11.9 12.9-2.6.5-5.1-.2-7.1-1.3zm14.5-50.4c-3.5-1-6.6.1-9.3 3.6-8.1 10.4-11.4 35.4-8.6 38.8 2.3 2.8 6.3 6 10 5.5 3.4-.6 6.5-4.1 8.9-10.5 4.4-11.5 6.5-21 5.9-28.4-.577-5.337-4.45-8.51-6.9-9z"/></svg>