<svg height="512" width="512" xmlns="http://www.w3.org/2000/svg"><path d="M225.22 342.559c2.031 2.397 4.439 5.752 5.944 8.51 1.504 2.758 2.447 5.916 2.097 9.038-.349 3.122-2.148 6.175-4.988 7.518s-6.666.595-8.408-2.02c.264 3.426-1.346 6.985-4.212 8.88s-6.898 1.94-9.696-.055-4.057-5.972-2.742-9.146c-1.72 2.093-4.853 2.786-7.39 1.836s-4.471-3.36-4.908-6.033c-1.326-8.122 3.411-12.738 5.678-16.297-1.735-10.447-8.416-55.489-10.151-65.936l40.874-2.509c-.946 13.604-2.098 66.214-2.098 66.214z" fill="#a63c30"/><path d="M210.795 377.776c-2.11 0-4.201-.612-5.915-1.834-2.301-1.642-3.722-4.264-3.998-6.979-1.824.584-3.866.586-5.707-.104-3.15-1.179-5.54-4.113-6.089-7.473-1.23-7.529 2.2-12.311 4.704-15.803.302-.421.593-.826.856-1.211-.934-5.725-2.98-19.211-4.96-32.272-2.068-13.633-4.206-27.731-5.071-32.942a1.856 1.856 0 0 1 1.717-2.157l40.874-2.509a1.856 1.856 0 0 1 1.966 1.983c-.875 12.557-1.94 59.159-2.08 65.429 2.156 2.618 4.353 5.803 5.702 8.276 1.871 3.431 2.671 6.935 2.313 10.134-.447 3.995-2.761 7.44-6.04 8.99a8.974 8.974 0 0 1-7.683-.032c-.7 2.754-2.367 5.215-4.706 6.762-1.758 1.163-3.83 1.742-5.883 1.742zm-7.577-14.348a1.856 1.856 0 0 1 1.714 2.567c-.973 2.347-.049 5.388 2.104 6.924 2.125 1.515 5.318 1.523 7.594.018 2.241-1.483 3.601-4.371 3.384-7.188a1.856 1.856 0 0 1 3.396-1.171c1.164 1.747 3.943 2.374 6.069 1.37 2.091-.988 3.636-3.362 3.936-6.046.345-3.079-.833-6.019-1.882-7.943-1.333-2.445-3.583-5.663-5.73-8.199a1.855 1.855 0 0 1-.439-1.24c.011-.503 1.059-48.089 1.972-64.191l-36.728 2.255c1.008 6.295 2.907 18.812 4.749 30.962 2.068 13.633 4.206 27.732 5.071 32.942.075.452-.02.915-.266 1.302-.405.635-.866 1.278-1.354 1.959-2.362 3.293-5.039 7.027-4.057 13.04.333 2.038 1.831 3.885 3.727 4.595 1.855.693 4.136.146 5.305-1.276.363-.445.895-.68 1.435-.68z" fill="#7d271d"/><path d="M262.914 342.577c2.11 2.328 4.63 5.599 6.226 8.305s2.644 5.83 2.4 8.962-1.939 6.244-4.733 7.681-6.642.819-8.471-1.736c.379 3.415-1.111 7.026-3.911 9.016s-6.829 2.171-9.692.271-4.255-5.833-3.047-9.049c-1.648 2.15-4.757 2.948-7.324 2.084s-4.582-3.208-5.108-5.865c-1.599-8.073 2.981-12.845 5.128-16.478-2.085-10.383-10.275-55.175-12.36-65.558l40.766-3.881c-.491 13.628.126 66.248.126 66.248z" fill="#a63c30"/><path d="M249.314 378.265c-1.986 0-3.955-.544-5.607-1.641-2.355-1.563-3.863-4.136-4.23-6.84-1.803.646-3.845.715-5.708.088-3.188-1.074-5.675-3.925-6.337-7.265-1.482-7.483 1.786-12.378 4.171-15.952.287-.431.564-.845.814-1.239-1.126-5.691-3.625-19.106-6.044-32.098-2.524-13.552-5.133-27.565-6.173-32.742a1.859 1.859 0 0 1 1.644-2.214l40.766-3.88a1.857 1.857 0 0 1 2.031 1.915c-.453 12.579.049 59.191.119 65.462 2.243 2.544 4.546 5.653 5.977 8.08 1.985 3.366 2.902 6.84 2.652 10.05-.313 4.008-2.51 7.529-5.734 9.187a8.969 8.969 0 0 1-7.679.226c-.607 2.777-2.191 5.292-4.477 6.917-1.818 1.294-4.012 1.946-6.185 1.946zm-7.627-14.093a1.857 1.857 0 0 1 1.737 2.51c-.893 2.379.133 5.387 2.336 6.849 2.174 1.443 5.366 1.343 7.59-.237 2.19-1.557 3.453-4.49 3.141-7.299a1.856 1.856 0 0 1 3.355-1.285c1.222 1.708 4.021 2.242 6.111 1.165 2.057-1.058 3.521-3.482 3.731-6.175.241-3.09-1.035-5.988-2.148-7.875-1.415-2.4-3.771-5.54-6.002-8.002a1.853 1.853 0 0 1-.481-1.225c-.006-.502-.557-48.097-.186-64.221l-36.631 3.487c1.218 6.256 3.536 18.698 5.784 30.774 2.526 13.561 5.137 27.585 6.177 32.764.09.449.011.916-.222 1.31a44.184 44.184 0 0 1-1.288 2.004c-2.25 3.371-4.801 7.192-3.617 13.169.401 2.025 1.96 3.82 3.879 4.466 1.878.633 4.138.007 5.259-1.454a1.86 1.86 0 0 1 1.475-.725z" fill="#7d271d"/><path d="M367.236 182.949c38.221.309 70.066 27.838 77.166 58.107 6.153 26.232-5.045 66.578-37.823 86.238-27.882 16.732-83.551 15.291-135.215 12.873-9.055-.424-17.984-.882-26.62-1.272l-22.847-83.823c8.257-5.379 16.8-11.023 25.483-16.682 42.405-27.646 88.132-55.701 119.856-55.441z" fill="#e36254"/><path d="M321.174 343.452c-16.163 0-33.082-.644-49.897-1.431-3.875-.181-7.727-.369-11.543-.555-5.1-.249-10.135-.494-15.075-.717a1.857 1.857 0 0 1-1.708-1.366l-22.847-83.822a1.856 1.856 0 0 1 .778-2.044c4.159-2.71 8.391-5.487 12.678-8.299 4.222-2.77 8.496-5.575 12.805-8.383 43.28-28.215 88.214-55.744 120.427-55.744l.459.002c18.38.149 36.594 6.582 51.285 18.116 14.065 11.042 23.892 25.749 27.67 41.413 6.739 27.943-5.883 68.598-38.672 88.265-19.115 11.469-50.922 14.565-86.36 14.565zm-74.995-6.351c4.51.206 9.096.43 13.736.656 3.813.186 7.663.374 11.536.555 53.116 2.487 107.228 3.559 134.173-12.61 31.325-18.789 43.398-57.571 36.973-84.211-7.726-32.031-40.13-56.401-75.376-56.686a57.688 57.688 0 0 0-.416-.002c-31.204 0-77.464 28.447-118.411 55.141a5190.184 5190.184 0 0 0-12.796 8.377c-3.901 2.559-7.757 5.09-11.554 7.567z" fill="#7d271d"/><g><path d="M144.719 158.739c-13.497-11.19-21.234-15.879-36.112-25.604-8.163-5.336-17.793-11.424-28.508-10.622-4.516.338-7.747 4.328-3.566 7.711 1.71 1.383 4.051 1.924 6.295 2.419-3.37.199-5.557.638-8.642 1.88-3.086 1.241-5.861 3.256-7.442 5.929-.835 1.412-1.283 3.236-.252 4.531.81 1.017 2.343 1.406 3.739 1.284 1.396-.121 2.696-.67 3.964-1.209-9.377 28.016-1.635 79.162 12.703 92.72z" fill="#ffe8db"/><path d="M86.897 239.633c-.458 0-.916-.168-1.275-.508-14.672-13.873-21.96-62.497-14.243-91.151a9.23 9.23 0 0 1-.987.141c-2.176.193-4.229-.567-5.352-1.977-1.372-1.722-1.332-4.201.106-6.633 1.676-2.834 4.641-5.215 8.347-6.706.8-.322 1.546-.595 2.273-.827a8.327 8.327 0 0 1-.401-.306c-2.212-1.79-3.086-4.079-2.399-6.28.804-2.573 3.615-4.472 6.994-4.725 11.628-.876 22.052 5.943 29.663 10.919 1.849 1.209 3.588 2.339 5.241 3.415 11.525 7.496 19.139 12.447 31.04 22.314a1.856 1.856 0 1 1-2.37 2.858c-11.736-9.73-18.871-14.37-30.694-22.06a2471.953 2471.953 0 0 1-5.248-3.419c-7.167-4.685-16.976-11.104-27.354-10.325-2.036.152-3.44 1.211-3.727 2.13-.273.873.497 1.725 1.19 2.286 1.409 1.14 3.597 1.624 5.527 2.049a1.857 1.857 0 0 1-.29 3.667c-3.295.194-5.253.619-8.059 1.748-2.953 1.188-5.274 3.017-6.537 5.152-.458.775-.838 1.876-.398 2.428.335.421 1.23.667 2.125.591 1.118-.098 2.277-.591 3.398-1.069a1.856 1.856 0 0 1 2.488 2.297c-4.264 12.741-5.186 31.781-2.464 50.932 2.629 18.504 8.255 33.774 14.682 39.85.745.704.778 1.879.073 2.624a1.84 1.84 0 0 1-1.349.585z" fill="#e0a58f"/><path d="M92.472 148.868c9.562-6.949 36.475 20.908 40.124 26.408 3.648 5.5-27.664 39.807-35.158 37.396-7.495-2.412-13.41-57.668-4.966-63.804z" fill="#a63c30"/><path d="M98.185 214.632c-.47 0-.91-.062-1.316-.193-3.485-1.122-6.318-8.357-8.421-21.506-2.405-15.045-3.735-40.719 2.932-45.567 1.841-1.338 4.201-1.76 7.01-1.253 12.895 2.325 32.992 23.976 35.752 28.137 1.069 1.611 1.606 4.92-6.034 15.006-7.042 9.299-22.382 25.376-29.923 25.376zm-2.004-65.016c-1.06 0-1.924.25-2.617.754-3.773 2.742-4.519 21.918-1.595 41.039 2.127 13.91 4.987 19.142 6.038 19.496 1.37.445 7.001-2.309 16.291-11.559 4.679-4.658 9.178-9.895 12.345-14.367 3.991-5.636 4.516-8.173 4.381-8.714-3.173-4.735-22.382-24.53-33.291-26.497a8.761 8.761 0 0 0-1.552-.152zm-3.709-.748h.005z" fill="#7d271d"/><path d="M216.921 145.555c8.671-15.238 14.251-22.358 24.732-36.714 5.751-7.877 12.607-16.975 22.915-20.012 4.344-1.28 8.776 1.311 6.061 5.953-1.111 1.898-3.11 3.231-5.034 4.487 3.223-1.005 5.424-1.367 8.749-1.296s6.633.975 9.057 2.916c1.28 1.026 2.344 2.574 1.837 4.149-.398 1.237-1.695 2.143-3.044 2.523-1.348.379-2.759.326-4.136.27 18.673 22.894 29.507 73.476 20.886 91.226z" fill="#ffe8db"/><path d="M298.944 200.914a1.857 1.857 0 0 1-1.669-2.668c3.864-7.956 3.73-24.229-.349-42.468-4.222-18.876-11.813-36.362-20.305-46.774a1.856 1.856 0 0 1 1.516-3.028c1.216.05 2.475.103 3.557-.201.866-.244 1.614-.792 1.779-1.305.216-.672-.528-1.568-1.231-2.131-1.935-1.55-4.754-2.441-7.936-2.509-3.022-.058-5.006.23-8.157 1.213a1.856 1.856 0 0 1-1.567-3.328c1.655-1.081 3.53-2.305 4.446-3.869.45-.77.869-1.84.305-2.56-.593-.758-2.28-1.252-4.239-.675-9.977 2.939-16.61 12.025-21.94 19.325-1.305 1.788-2.535 3.464-3.704 5.057-8.341 11.37-13.375 18.232-20.914 31.48a1.858 1.858 0 0 1-3.227-1.837c7.645-13.435 13.017-20.757 21.148-31.84 1.167-1.591 2.395-3.265 3.699-5.05 5.362-7.345 12.705-17.403 23.889-20.698 3.252-.958 6.551-.175 8.213 1.948 1.421 1.817 1.412 4.267-.025 6.723a8.486 8.486 0 0 1-.267.427 32.374 32.374 0 0 1 2.419-.03c3.995.085 7.609 1.266 10.178 3.324 2.205 1.766 3.118 4.072 2.444 6.167-.552 1.715-2.203 3.149-4.307 3.741a9.115 9.115 0 0 1-.974.217c17.346 24.076 27.713 72.139 18.891 90.303a1.862 1.862 0 0 1-1.673 1.046z" fill="#e0a58f"/><path d="M262.308 117.856c-11.4-3.121-26.732 32.45-28.201 38.885s39.947 27.462 46.105 22.557c6.159-4.905-7.836-58.686-17.904-61.442z" fill="#a63c30"/><path d="M277.227 181.851c-8.633 0-25.264-8.137-33.981-13.618-10.712-6.736-11.379-10.02-10.949-11.906 1.111-4.867 12.261-32.225 23.501-38.956 2.45-1.467 4.805-1.907 7-1.305 7.951 2.177 15.781 26.668 18.848 41.594 2.68 13.041 2.586 20.809-.277 23.09-.96.764-2.386 1.101-4.142 1.101zm-41.3-24.743c.065.555 1.452 2.742 7.177 6.604 4.542 3.063 10.602 6.372 16.625 9.076 11.96 5.371 18.202 5.951 19.326 5.057.859-.703 1.685-6.609-1.242-20.374-4.023-18.918-11.497-36.594-15.995-37.825-1.199-.328-2.543-.031-4.112.91-9.509 5.694-20.484 31.001-21.779 36.552z" fill="#7d271d"/><path d="M293.021 320.366c-26.702 16.447-58.898 28.198-77.179 30.463-17.979 4.361-52.469 4.733-83.362-1.299a190.508 190.508 0 0 1-12.561-2.878c-21.008-5.584-38.791-14.588-46.087-27.879-1.967-3.566-3.172-7.45-3.476-11.654-1.226-16.815 29.915-116.912 39.203-131.274 9.289-14.362 36.302-23.7 68.915-29.655s64.993-7.462 78.758 2.69c13.765 10.153 74.458 93.48 79.253 109.644 6.56 22.108-15.425 44.569-43.464 61.842z" fill="#e36254"/><path d="M292.461 316.71a66.35 66.35 0 0 1 .56 3.656c-26.702 16.447-58.898 28.198-77.179 30.463-17.979 4.361-52.469 4.733-83.362-1.299a61.477 61.477 0 0 1-.737-3.473c-7.078-38.76 23.163-76.753 67.543-84.857s86.097 16.75 93.175 55.51z" fill="#ffe8db"/><path d="m188.91 268.446 21.308-3.891c2.593-.473 4.558 2.297 3.255 4.588l-7.905 13.891a4.083 4.083 0 0 1-6.213 1.075l-11.913-10.258c-1.977-1.703-1.098-4.937 1.468-5.405z"/><path d="M167.637 197.48c1.645 3.698-2.624 9.188-9.534 12.26-6.91 3.073-13.845 2.566-15.49-1.132s2.624-9.188 9.534-12.261c6.91-3.072 13.845-2.566 15.49 1.133z" fill="#ffe8db"/><path d="M149.43 213.607c-.401 0-.795-.014-1.182-.043-3.641-.266-6.245-1.759-7.332-4.203-2.092-4.706 2.509-11.168 10.476-14.711s15.847-2.632 17.94 2.075c1.087 2.444.451 5.377-1.79 8.259-1.985 2.553-5.07 4.844-8.687 6.452-3.18 1.416-6.481 2.171-9.425 2.171zm11.38-17.396c-2.265 0-5.044.559-7.908 1.833-6.19 2.753-9.642 7.449-8.592 9.81.496 1.117 2.031 1.849 4.209 2.008 2.586.188 5.806-.473 8.829-1.818 3.023-1.344 5.671-3.29 7.264-5.339 1.341-1.724 1.825-3.354 1.328-4.471-.563-1.268-2.499-2.023-5.13-2.023z" fill="#e0a58f"/><path d="M231.629 196.989c-.819 3.964-7.486 5.937-14.893 4.408-7.406-1.529-12.747-5.983-11.928-9.947.818-3.964 7.486-5.937 14.892-4.408 7.407 1.529 12.748 5.983 11.929 9.947z" fill="#ffe8db"/><path d="M221.63 203.77c-1.674 0-3.448-.179-5.269-.555-8.539-1.764-14.412-7.096-13.371-12.141 1.042-5.044 8.546-7.615 17.086-5.85 8.539 1.764 14.412 7.096 13.371 12.141-.819 3.968-5.64 6.405-11.817 6.405zm-6.794-15.382c-4.494 0-7.811 1.508-8.209 3.437-.522 2.529 3.851 6.383 10.485 7.753 6.633 1.369 12.175-.436 12.699-2.965.522-2.53-3.851-6.383-10.486-7.753a22.303 22.303 0 0 0-4.489-.472zm16.793 8.601h.005z" fill="#e0a58f"/><g><path d="M185.755 312.445c-.618 0-1.233-.034-1.845-.102-7.166-.803-13.429-6.556-14.57-13.38a1.856 1.856 0 1 1 3.662-.612c.877 5.248 5.744 9.677 11.321 10.302 5.373.602 11.156-2.204 14.385-6.986 2.638-3.907 3.627-8.964 2.8-13.928a24.52 24.52 0 0 1-.12-.658 21.035 21.035 0 0 0-.472-1.902 1.858 1.858 0 0 1 1.444-2.357l.263-.048a1.853 1.853 0 0 1 2.186 1.693c.047.655.124 1.305.231 1.946.043.219.083.439.12.658.981 4.937 3.694 9.317 7.542 12.04 4.711 3.332 11.111 3.916 15.925 1.452 4.996-2.556 7.984-8.419 6.95-13.638a1.856 1.856 0 1 1 3.642-.722c1.345 6.787-2.481 14.382-8.901 17.666-6.012 3.075-13.953 2.382-19.761-1.726-2.207-1.561-4.102-3.569-5.606-5.878-.591 2.692-1.654 5.239-3.167 7.48-3.617 5.358-9.88 8.7-16.029 8.7z"/></g><path d="M116.045 284.747c-3.525 20.562-2.177 41.938 3.874 61.906-21.008-5.584-38.791-14.588-46.087-27.879a152.17 152.17 0 0 1 18.388-33.893c3.811-5.29 8.442-10.643 14.789-12.147 2.61-.617 5.651-.412 7.578 1.458 2.665 2.575 2.085 6.903 1.458 10.555zM285.742 253.761c10.564 17.989 16.858 38.462 18.255 59.28 17.679-12.648 31.132-27.355 33.26-42.367a152.143 152.143 0 0 0-29.18-25.207c-5.435-3.602-11.659-6.973-18.127-6.137-2.66.345-5.432 1.612-6.574 4.042-1.583 3.35.488 7.194 2.366 10.389z" fill="#ffe8db"/><g><path d="M180.759 355.941c-15.022 0-32.072-1.354-48.635-4.589-4.37-.852-8.637-1.83-12.682-2.906-24.081-6.4-40.415-16.352-47.237-28.779-2.14-3.879-3.386-8.057-3.7-12.413C67.252 290.09 98.417 189.656 108 174.838c8.596-13.291 32.195-23.544 70.14-30.474 22.78-4.16 63.488-9.298 80.193 3.023 14.655 10.809 75.164 94.541 79.931 110.61 5.933 19.996-9.789 42.707-44.271 63.95v.001c-28.055 17.281-60.349 28.518-77.819 30.711-8.439 2.033-20.992 3.282-35.415 3.282zm42.596-212.624c-12.362 0-27.362 1.562-44.548 4.7-36.898 6.738-59.672 16.44-67.69 28.837-9.09 14.055-40.09 113.967-38.91 130.131.276 3.819 1.369 7.483 3.25 10.892 6.323 11.519 21.861 20.848 44.938 26.981a189.776 189.776 0 0 0 12.439 2.85c32.008 6.251 65.765 5.395 82.569 1.317a1.65 1.65 0 0 1 .21-.038c17.045-2.111 48.774-13.164 76.434-30.201 19.066-11.746 49.96-35.125 42.658-59.732-4.501-15.172-64.718-98.457-78.575-108.678-6.368-4.697-17.577-7.059-32.775-7.059zm69.666 177.05h.005z" fill="#a63c30"/></g><g><path d="M238.027 250.888c-8.693 0-18.059-9.217-23.831-23.748a2.386 2.386 0 1 1 4.437-1.762c5.272 13.27 13.724 21.765 20.561 20.642 6.871-1.123 12.554-11.955 13.819-26.341a2.386 2.386 0 1 1 4.756.419c-1.503 17.087-8.492 29.111-17.805 30.634-.641.105-1.287.156-1.937.156z"/></g><g><path d="M151.927 266.609c-8.692 0-18.058-9.217-23.831-23.747a2.387 2.387 0 0 1 4.437-1.764c5.273 13.271 13.725 21.765 20.561 20.642 6.871-1.123 12.554-11.955 13.819-26.341a2.388 2.388 0 0 1 4.756.419c-1.503 17.087-8.492 29.112-17.805 30.634-.64.106-1.287.157-1.937.157z"/></g></g><g><path d="M322.373 338.299c-3.018 14.748-10.3 27.474-20.392 37.401-9.941-2.086-19.713-5.581-28.059-11.233.202-.167.409-.332.608-.502 15.46-12.823 32.1-36.661 25.18-56.84 2.976.622 5.924 1.397 8.819 2.266 3.5 1.051 6.962 2.233 10.421 3.423 4.211 7.454 4.548 16.612 3.423 25.485zM345.431 320.057a88.057 88.057 0 0 0 19.417.522c6.362 8.121 9.175 19.076 9.582 29.774.026 7.423-2.296 14.439-6.1 20.618a125.2 125.2 0 0 1-29.372 6.593c11.983-16.392 15.14-39.249 6.473-57.507zM386.023 316.296a92.3 92.3 0 0 0 17.522-7.826c8.982 5.227 16.341 13.447 19.717 22.767a123.954 123.954 0 0 1-17.925 18.591c-.957-13.125-8.401-25.864-19.314-33.532z" fill="#e36254"/><g fill="#a63c30"><path d="M403.545 308.47c7.065-4.092 13.574-9.128 19.227-15.04 3.952-4.134 8.414-9.387 13.743-11.464 1.667-.65 3.477-1.133 5.236-.804s4.436 2.509 4.003 4.245c-4.145 16.641-11.936 32.319-22.492 45.83-3.376-9.32-10.735-17.54-19.717-22.767zM322.373 338.299c1.125-8.873.789-18.032-3.423-25.485 6.515 2.241 13.017 4.514 19.732 6.023 2.234.502 4.485.904 6.748 1.22 8.667 18.257 5.511 41.115-6.474 57.508-11.544 1.168-23.245.742-34.652-1.401a111.02 111.02 0 0 1-2.324-.465c10.093-9.926 17.375-22.651 20.393-37.4zM364.847 320.58a92.657 92.657 0 0 0 21.175-4.284c10.913 7.668 18.357 20.408 19.314 33.532a119.152 119.152 0 0 1-12.282 9.05c-7.743 4.968-16.063 9.009-24.725 12.094 3.805-6.18 6.127-13.196 6.1-20.618-.407-10.699-3.22-21.653-9.582-29.774zM274.53 363.965c-.199.169-.405.335-.608.502a55.895 55.895 0 0 1-5.286-4.038c-9.934-8.615-18.52-22.244-14.57-34.786 3.165-10.051 12.991-16.975 23.311-19.108 7.36-1.521 14.933-.956 22.334.589 6.918 20.18-9.722 44.018-25.181 56.841z"/></g><path d="M326.423 380.053c-7.567 0-15.089-.683-22.426-2.057-12.046-1.781-25.047-7.306-34.789-14.783-8.26-6.341-18.039-16.982-17.718-31.667.095-4.367 1.294-8.588 3.465-12.209 10.061-16.771 34.88-18.576 54.196-11.693 2.058.68 4.158 1.392 6.264 2.106 15.869 5.381 32.278 10.942 49.219 8.985a.6.6 0 0 1 .061-.006c21.582-1.776 42.261-11.465 56.736-26.584.484-.506.977-1.03 1.477-1.563 3.689-3.925 7.871-8.374 12.932-10.346l.099-.036c5.089-1.658 8.61-1.178 10.464 1.425 2.808 3.942.837 12.293-6.023 25.532-5.476 10.566-12.352 20.86-15.638 25.2-4.959 6.551-11.086 12.907-18.212 18.892-13.651 11.545-30.357 20.106-48.306 24.752a127.182 127.182 0 0 1-31.801 4.052zm-38.908-72.489c-12.176 0-23.598 4.053-29.375 13.683-1.84 3.068-2.856 6.657-2.937 10.38-.286 13.13 8.688 22.822 16.268 28.641 9.271 7.117 21.647 12.374 33.104 14.061l.072.012a119.602 119.602 0 0 0 22.04 2.039c28.197.001 56.022-9.846 77.45-27.969 6.918-5.81 12.853-11.964 17.645-18.294 3.209-4.239 9.933-14.307 15.302-24.667 8.491-16.386 6.965-20.729 6.295-21.669-1.045-1.468-4.334-.68-6.239-.065-4.26 1.68-8.12 5.786-11.526 9.411-.508.541-1.008 1.073-1.5 1.587-15.087 15.758-36.621 25.858-59.083 27.715-17.757 2.043-34.558-3.652-50.807-9.16a946.121 946.121 0 0 0-6.278-2.112c-6.465-2.305-13.568-3.593-20.431-3.593z" fill="#7d271d"/><path d="M423.262 333.094a1.858 1.858 0 0 1-1.746-1.225c-3.148-8.691-10.038-16.635-18.905-21.795a1.856 1.856 0 1 1 1.867-3.21c9.606 5.591 17.089 14.244 20.528 23.74a1.857 1.857 0 0 1-1.744 2.49zM301.981 377.557a1.856 1.856 0 0 1-1.303-3.18c10.153-9.987 17.02-22.565 19.861-36.381 1.288-10.232.24-18.17-3.206-24.268a1.857 1.857 0 0 1 3.233-1.826c3.861 6.833 5.054 15.544 3.648 26.631a1.61 1.61 0 0 1-.023.139c-2.981 14.567-10.211 27.829-20.909 38.352a1.85 1.85 0 0 1-1.301.533zM338.954 379.422a1.856 1.856 0 0 1-1.497-2.952c11.858-16.22 14.388-38.571 6.296-55.617a1.856 1.856 0 1 1 3.354-1.592c4.349 9.16 5.965 19.697 4.674 30.47-1.26 10.514-5.177 20.518-11.327 28.93a1.85 1.85 0 0 1-1.5.761zM405.335 351.685a1.857 1.857 0 0 1-1.85-1.722c-.906-12.436-8.006-24.755-18.53-32.148a1.857 1.857 0 0 1 2.134-3.038c11.412 8.019 19.113 21.398 20.098 34.917a1.857 1.857 0 0 1-1.852 1.991zM368.327 372.829a1.857 1.857 0 0 1-1.579-2.83c3.883-6.306 5.842-12.903 5.825-19.607-.313-8.136-2.163-19.701-9.186-28.668a1.856 1.856 0 1 1 2.923-2.29c7.646 9.761 9.645 22.163 9.975 30.848l.001.064c.026 7.313-2.179 14.781-6.376 21.598-.351.572-.96.885-1.583.885zM274.531 365.822a1.855 1.855 0 0 1-1.186-3.285c16.275-13.5 30.918-36.41 24.609-54.808a1.855 1.855 0 1 1 3.512-1.204c3.285 9.579 1.796 20.864-4.306 32.634-4.882 9.418-12.699 18.981-21.445 26.237a1.862 1.862 0 0 1-1.184.426z" fill="#7d271d"/></g></svg>