<svg id="Layer_3" enable-background="new 0 0 1000 1000" height="1000" viewBox="0 0 1000 1000" width="1000" xmlns="http://www.w3.org/2000/svg"><g><path d="m719.1 957.6c-85.1 23.5-112.5-18.1-112.5-18.1l-83.9 5.9-38.4 40.6c-53.8 14.7-99.8-15.7-99.8-15.7l10.2-24.2s-20.6-2.5-49.1-11.9c-55.7-16.7-87.9-39.3-108.9-65.8-4.4-4.6-8.6-9.4-12.7-14.6-61-77.2-64.4-348.1-64.6-362.4 0-.4 0-.6 0-.6s0 0 0-.1c-1.6-2.2-61.6-82.5-47.2-186.9 3.7-37.1 15.9-68.7 31.4-95 20.8-39.3 49.8-71.2 86.3-90.5 8.4-5.7 13.7-8.5 13.7-8.5 6.3-1.8 12.6-3.4 18.9-4.6 31.4-9 67-9.5 106.5 1 132.1 35.2 149.7 61.7 149.7 61.7s91-3.9 138 24.5v.2c-1.7 8.1-4.5 17.4-7.8 27.1-9.4 30.5-26.1 78.5-44 100.9 10.7 27.7-13.7 117.9-13.7 117.9 7.8 31.8 184 218.7 205.5 246.1 21.3 27.4 31.1 72.4 31.1 72.4 19.5 150.7-108.7 200.6-108.7 200.6z" fill="#ffc363"/><path d="m827.8 757-31.3-72.4s28.4-92-4.9-211.4 26.4-108.6 31.3-108.6 32.3 13.7 52.8 61.7c20.6 47.9 29.4 258.3-47.9 330.7zm-622 71.5c-11.8-28.4-40.5-218.7-40.5-218.7s-36.2 267.6 56.7 345.9c25.7 20.9 114.6 38.4 74.4-38.2 0 0-78.9-60.6-90.6-89zm140.1-817.9c-31.1 13.1-102.4 99.3-102.4 99.3s77.8-25.3 134.6-5.2c-17-103.1-32.2-94.1-32.2-94.1z" fill="#fea142"/><path d="m373.9 498.4c-13.1-11.1-65.7-18-92.7-18s-22.8-22.8-22.1-59.5-15.9-150.8-15.9-150.8l27 28.4s29.8-15.2 49.8-10.4c20.1 4.8 37.4 24.2 37.4 24.2 18.7-10.4 36-2.8 36-2.8 30.3 160.6-6.3 200-19.5 188.9z" fill="#f45175"/><path d="m243.1 270.1 27.3 34.3-17.1 18.8zm114.2 42.2s1.2 28.8 3 29.8c1.7 1 16.9-5.9 24-30.1-.1 0-20.1-3.5-27 .3z" fill="#fff"/><path d="m679 879.3s-44.2 9.4-52.5 25.3-19.9 34.9-19.9 34.9-66.6 14.1-83.9 5.9c0 0 62.9-106.5 64.3-152.2 0 0 51.2 25.6 58.8 18s2.8 47.7 10.4 54.7 22.8 13.4 22.8 13.4zm-356.4-295.4c-104.6-45-152.1 51.5-152.1 51.5s4.6 134.3 42.7 201.8c38.2 67.5 155.1 108.1 181.4 108.9s43.6-28.6 43.6-28.6c17.6-34.3-1.4-159.6-1.4-159.6-29.4-90.9-66-153.2-114.2-174z" fill="#f9eba2"/><path d="m493.1 155.2 21 15.9s-20.6 3.2-40.9 17.1-31.1 5.6-31.6-4.2c-.4-9.7 34.9-25.4 51.5-28.8zm109.6 316.6s2.9 119.9-2.9 140.4c-4.3 15 15 9.3 19.6 2 7.8-12.5 9.8-70.9-.5-123.8zm60.2 72.4s-8.8 93-15.2 106.7 3.4 21 7.8 22.5c15.1 2.1 40.6-69 31.8-104.2-8.8-35.3-24.4-25-24.4-25zm-344-366.5c2.4 17.6 22 7.3 28.9-1.5 6.7-8.6 76.3-47.9 82.8-48.5-4-1.2-26-8.8-26-8.8s-88.1 41.2-85.7 58.8zm112.1-49.9c-.1 0-.2 0-.4 0 .6.2.8.2.4 0zm-87.1-21c-.5-.2-1.5-.2-2.7.1 2.6.3 3.9.4 2.7-.1zm-46.5-8.3s-58.2 35.2-59.7 49.9 18.6 10.3 29.8-2.4c10.3-11.6 60.4-36.6 73.6-39.1-10.5-1.6-43.7-8.4-43.7-8.4zm472.1 555.8c-1-2.9-15.2-18.6-15.2-18.6s-1.5 38.9-3.9 44.5c-2.9 6.7 14.7 14.4 18.6 5.4 1.8-4 1.5-28.4.5-31.3z" fill="#dc8b4a"/><path d="m880.7 424.1c-21-49-50.2-64.9-57.8-64.9-.2 0-.5 0-.8-.1-15-1.1-26.7 3.3-34.7 13.1-14.7 17.9-15 52.4-1.1 102.5 16.9 60.7 17.4 114.1 14.8 148.2-1.7 21.7-4.7 38.6-7 48.8-24.5-35.1-58.3-70-91.6-104.3-42.3-43.7-86.1-88.8-106.7-131.3-.2-.4-.4-.7-.6-1 12.2-33.7 14.7-75.4 15-98.1 0-.1.1-.2.1-.2.3-.9.7-2.1-.1-6.8 0-3.3-.1-5.9-.1-7.6 27.3-35.9 50.6-124.8 51.6-128.6.6-2.3-.4-4.8-2.5-6-43.7-26.5-122.5-25.8-138.2-25.4-7.3-7.5-36-29.6-137.4-57.8 0-.3 0-.6-.1-.9-1.8-10.7-3.6-20.5-5.4-29.5 0-.1 0-.1 0-.2-.1-.7-.3-1.3-.4-2-.2-.9-.4-1.9-.6-2.8-.1-.3-.1-.5-.2-.8-4.3-20.1-8.8-35.5-13.4-46-4-9-8.1-14.5-12.4-16.5h-.1c-.3-.2-.7-.3-1-.4-.1 0-.2-.1-.4-.1-.2-.1-.4-.1-.6-.2s-.5-.1-.7-.1c-.1 0-.2 0-.3 0-.3 0-.6-.1-.9-.1-.3 0-.6 0-.9.1h-.1c-.3 0-.5.1-.8.1h-.1c-.5.1-.9.3-1.3.4-4 1.7-8.6 4.5-13.6 8.1-.1.1-.2.2-.3.2-.5.4-1 .7-1.5 1.1-.3.2-.5.4-.8.6-.4.3-.7.5-1.1.8s-.9.7-1.3 1c-.2.2-.4.3-.6.5-.6.5-1.3 1-1.9 1.6-34.5 28.1-80.7 83.9-83.1 86.8-.2.3-.4.6-.6.8 0 .1-.1.2-.1.2-.1.2-.2.4-.3.7-6.1 2.7-12.1 5.8-18 9.2-40 23.4-72.2 62.9-93.2 113.5 0 .1 0 .1-.1.2-5.9 14.2-10.9 29.3-15 45.1-4.1 15.9-6.3 31.4-7.1 46.3-.1.4-.1.9-.1 1.3-2.2 42.9 7.2 80.2 17 106.7 12.6 33.9 27.9 56.3 32.1 62.2.1 9.7 1 58.4 5.8 117.4-1.1 8.6-8.8 72.2-6.4 143.5 1.5 44.9 6.7 84.1 15.3 116.4 11 41 27.8 71.2 49.9 89.9 11.1 9 34.8 17.7 55.8 17.7 11 0 21.3-2.4 28.6-8.4 8-6.6 14.6-19.4 5.4-43.9 7.9 3.7 15.5 6.9 22.5 9.5 23.8 9 43.8 13.4 54.6 15.3-4.4 7-6.2 14.5-6.4 20 0 1.3.4 2.5 1.1 3.5 13.3 17.2 40.8 21.3 64.4 21.3 21.2 0 39.2-3.4 40.7-3.7 1-.2 1.9-.6 2.6-1.3 13.3-11.9 25.4-24.9 36.3-39 4.8.5 16.6 1.6 30.7 1.6 15.4 0 33.6-1.3 48.4-6.2 1.1 3.2 2.9 6.1 5.5 8.3 8.3 7.5 27.3 11.1 57.8 11.1h6.2c24.3-.4 46.7-2.8 46.9-2.8.8-.1 1.5-.3 2.2-.8 55.3-33.6 86.3-63.5 100.5-96.9 13.5-31.9 11.1-65.2 8-103.6.4-.2.7-.4 1-.7 46.2-43.3 58.9-130.2 62.4-178.1 4.9-70.9-3.2-134.6-13.4-158.5zm-558.1-390.4s.1-.1.1-.1c.6-.5 1.2-1.1 1.8-1.6 0 0 .1 0 .1-.1 1.2-1.1 2.5-2.1 3.7-3.1.1-.1.2-.2.3-.2.5-.4 1-.8 1.5-1.2.1-.1.2-.2.3-.2 1.1-.9 2.3-1.8 3.4-2.6.2-.1.3-.2.4-.3.4-.3.8-.6 1.2-.9.2-.1.3-.2.5-.4.5-.4 1-.7 1.5-1 .1-.1.2-.1.3-.2.4-.3.8-.6 1.3-.9.2-.1.4-.3.6-.4.3-.2.6-.4.9-.6.2-.1.4-.3.6-.4.3-.2.7-.4 1-.6s.6-.3.8-.5c.3-.2.6-.3.9-.5.2-.1.4-.2.7-.4.2-.1.4-.2.7-.4.2-.1.5-.2.7-.4.2-.1.4-.2.6-.3s.4-.2.6-.3c2.2 1.8 10.7 11.8 20.7 61.2.1.5.2 1.1.3 1.6 0 .2.1.5.1.7 1 5.3 2.1 11 3.2 17.2-13.1-3.6-28-5.4-44.4-5.4-13.2 0-26 1.2-37.5 2.8-.2 0-.3 0-.5.1-6.1.7-12.1 1.8-18.1 3.1-4.3.9-8.3 1.7-11.7 2.6 14.6-17 41.1-46.7 63.4-66.3zm-26.5 927.1c-15.2 12.4-55.1 3.2-70.6-9.3-36.8-31-58-99.5-61.3-198.1-1.1-31.4-.1-61.3 1.3-85.6 11.4 94.7 29.6 158.4 54.2 189.5 21.5 27.2 48.3 46.6 73.3 60.2 7.7 15 14.2 34.2 3.1 43.3zm516.3-99.7c-13.1 31-42.4 59.1-95.1 91.2-33.3 3.6-89.2 5.2-101.2-5.6-4.1-3.7-4.2-11.5-.3-20.9 7.1-17.1 29.3-40 57.6-41.1 3.7.4 6.3 0 6.5 0 2.7-.5 4.7-2.9 4.5-5.7s-2.3-5-5.1-5.1c-1.8-.1-3.7-.1-5.5-.1-2.9-.5-6.9-1.9-10.6-5.6-8.1-8.2-15.8-28.6-6.3-78.9 11.5-61.1 25.1-77.9 32.2-82.4 3-1.9 4.7-1.5 4.7-1.5-.2-.1-.3-.1-.3-.1l4.2-10c-.9-.4-5.9-2.2-12.8 1.5-16 8.6-29 39-38.7 90.6-8.3 44.1-5.2 73.8 9.2 88.5l.8.8c-23.7 7-42.7 26.2-50.5 45-2 4.9-3.2 9.5-3.6 13.8-22 8.1-55 6.7-70.3 5.4 18.2-25.5 32.8-54.2 43.6-86 14.8-43.2 22.7-92.1 23.6-145.2 1.5-90.3-18.3-162.8-18.5-163.5-.8-2.9-3.8-4.6-6.7-3.8s-4.6 3.8-3.8 6.7c.2.7 19.6 71.7 18.2 160.4-1.3 81.1-20.9 193.9-106.4 271.5-20.9 3.8-73.2 8.1-91.7-12.3.8-6.1 5.3-24.3 29-25.3 5.9-.2 11.1-3.4 15.3-9.4 22.3-31.3 17.4-144.5 7.7-177.5-.9-2.9-3.9-4.5-6.8-3.7-2.9.9-4.5 3.9-3.7 6.8 10 33.6 12.8 141.7-6.1 168.1-3.3 4.7-6 4.8-6.9 4.8-10.6.4-18.5 3.7-24.4 8.2-5.3-.8-29.7-4.7-59.8-16-31.1-11.8-74.7-34.1-106.2-74-34.7-43.9-50.4-153.9-57.5-240.8 0-.2 0-.5-.1-.7-3.7-45.3-5.1-84.3-5.5-104.1 8.6 8.6 21.1 19.9 31.2 23.6.6.2 1.2.3 1.9.3 2.2 0 4.3-1.4 5.1-3.6 1-2.8-.4-5.9-3.3-7-11.3-4.1-29.9-23.4-36.3-30.8-1.2-1.6-18.1-24.6-31.6-60.8-9.2-24.9-18.1-59.8-16.5-99.8 6.1-2.8 20.7-9.4 36.1-15.6 38.3-15.4 45.3-14.2 46-14 2.8 1 5.9-.5 6.9-3.3s-.5-5.9-3.3-6.9c-3-1-9.9-3.5-53.3 14-12.3 4.9-24.1 10.1-31.6 13.5 1.1-11.6 3-23.5 6.2-35.7.2-.8.4-1.7.7-2.5 5.2-1.2 21.7-4.8 39.1-7.6 38.7-6.3 46.2-2.9 47.3-2.1 2.5 1.7 5.9 1 7.5-1.5 1.7-2.5 1-5.9-1.5-7.5-4.4-2.9-14.9-6.1-55.1.4-13.4 2.2-26.2 4.8-33.9 6.4 2.8-9.1 5.8-17.8 9.2-26.3 28.2-2.4 72.7-2.9 81.9 5.2 1 .9 2.3 1.4 3.6 1.4 1.5 0 3-.6 4.1-1.8 2-2.3 1.8-5.7-.5-7.7-2.7-2.4-10.9-9.6-53.8-9.4-11.9.1-23 .6-30.4 1.1 20.1-44.5 49.4-79.2 85.2-100.2 13.9-8.2 28.6-14.1 43.9-18 7.1-1.5 15.4-3 24.4-4.2 23.1-2.2 47.6 0 73.3 6.9 123.4 32.9 145.5 58.1 146.6 59.5 1 1.7 2.8 2.4 4.7 2.4.9 0 85.4-3.3 131.4 21.7-4.6 16.9-23.5 82.6-44.8 115.2-1.5-5.1-3.1-10.6-4.9-16.1 12.8-13.1 20.6-33 24.3-44.3.4-1.2 9.6-29.9 5-38.1-2.1-3.8-6.5-6.7-41.3-7.2-17.1-.3-34.1.3-34.2.3-2.3.1-4.2 1.5-5 3.7-.7 2.1-.1 4.5 1.7 6 12.5 10.3 27.4 47.7 37.5 78.1-.1 1.4.3 2.8 1.3 4 4.8 14.8 8.3 27.6 9.5 34 0 28.6-3.3 112.5-39 138.4-2.4 1.8-3 5.2-1.2 7.6s5.2 3 7.6 1.2c9.6-7 17.2-17.3 23-29.5 22.5 41.8 64.3 85 104.9 126.9 59.5 61.3 120.9 124.7 124.7 185.3v.1c3.1 37.5 5.7 70.3-7 100.3zm-215.8-578.9c-.7-2-1.4-4-2.1-6-7.3-20.5-17.5-45.7-28.2-60.8 23.5-.4 47.5.4 54 2.4.6 8.9-7.8 44.3-23.7 64.4zm286.4 299.9c-3.2 44.6-14.6 123.8-54.1 166-3.6-21.4-13.2-42.8-26.7-64.1 1.8-6.6 7.2-28 9.6-59.9 2.7-35 2.3-89.9-15.1-152.3-16.1-57.9-9.4-82.3-1-92.7 8.5-10.4 21.3-9.4 25.5-9.1.6 0 1.1.1 1.4.1 4 .7 28.9 13.8 48 58.4 9.9 22.9 17.2 86.7 12.4 153.6zm-549.4-27c.4 3-1.6 5.7-4.6 6.2-3.7.5-7.2.8-10.7.8-39.9 0-62.8-32.7-63.8-34.2-1.7-2.5-1.1-5.9 1.4-7.6s5.9-1.1 7.6 1.4c1 1.4 24.3 34.5 63.9 28.8 3.1-.4 5.8 1.6 6.2 4.6zm61.9-250.5c-.3-.1-7.3-3.2-17.2-3.2-6.9 0-13.6 1.4-19.8 4.2-6-5.9-20.6-18.8-37.2-22.9-3-.7-6.4-1.1-10-1.1-15.5 0-32.5 6.8-39.9 10.2l-24.3-25.5c-1.6-1.7-4.2-2.2-6.3-1.1-2.1 1-3.3 3.3-3 5.7.2 1.1 16.5 114.1 15.9 150-.1 4.1-.2 8-.3 11.8-.7 21.5-1.1 37.1 7.6 46.1 4.6 4.8 11.2 7.1 20.3 7.1 27.3 0 77.9 7.2 89.2 16.7 2.3 2 5.2 3 8.2 3 3.5 0 8.8-1.4 14.3-8.1 6.3-7.6 14.4-24 16.9-58.4 2.5-34.5-1.2-78.4-11.1-130.6-.5-1.7-1.7-3.2-3.3-3.9zm-17.2 7.7h.2c-4 12.3-10.1 19-14.2 22.2-.5-4.8-1-12-1.3-18.9 4.8-2.2 9.9-3.3 15.3-3.3zm-127.4-26.1 14.8 15.5-11.1 12.2c-1.4-10.7-2.7-20.2-3.7-27.7zm133.6 204.4c-2.5 3-4.7 4.1-5.9 4.1-.3 0-.7-.1-1.2-.5-15-12.6-70.6-19.3-96.2-19.3-5.9 0-10-1.2-12.4-3.8-5.6-5.8-5.1-20.1-4.6-38.2.1-3.8.2-7.8.3-12 .4-19.4-3.9-59.2-8.1-93.2.4-.2.7-.5 1-.9l17.1-18.8c1.6-1.7 1.8-4.1.8-6.1 6.3-2.9 22.2-9.4 35.9-9.4 2.7 0 5.2.3 7.4.8 15.2 3.7 29.1 16.9 33.3 21.2 1.4 29.8 3 30.8 5.6 32.3 1 .6 2.1.8 3.2.8 1.8 0 3.3-.6 4-.9 7.6-3.1 18.3-13.1 24.1-31.3 24.4 132.3.7 169.1-4.3 175.2zm-185.9-304.6c-2.7-1.3-3.8-4.6-2.5-7.3s4.6-3.8 7.3-2.5c.2.1 17.5 8.6 35.3 18.8 33.5 19.1 40.1 27.3 42.1 31.8 1.2 2.7 0 6-2.7 7.2-.7.3-1.5.5-2.2.5-2.1 0-4.1-1.2-5-3.2-3.8-8.5-44.6-31.6-72.3-45.3zm310.4 89.2c-.8-.3-68.5-25.2-115.6-4.3-2.7 1.2-6 0-7.2-2.8-1.2-2.7 0-6 2.8-7.2 51.3-22.8 120.9 2.9 123.8 4 2.8 1.1 4.2 4.2 3.2 7-.8 2.2-2.9 3.5-5.1 3.5-.6.1-1.3 0-1.9-.2zm-218.3-22.9c-.7-1.6-.6-3.3.2-4.8s2.3-2.5 4-2.7c.2 0 6-.9 14-.9 13.1 0 30.8 2.3 40.9 13 1.1 1.2 1.6 2.8 1.4 4.4s-1.1 3-2.4 3.9c-.5.4-13.6 8.7-34.3 8.7-1.2 0-2.4-.4-3.3-1.1-4.1-3.1-17.6-13.8-20.5-20.5zm203.9 54.7c8 2.3 78.3 22.7 91.3 44.5 1.5 2.6.7 5.9-1.9 7.5-.9.5-1.8.8-2.8.8-1.9 0-3.7-.9-4.7-2.7-8.1-13.6-56.4-31.5-84.9-39.6-2.9-.8-4.6-3.8-3.7-6.7.8-2.9 3.8-4.6 6.7-3.8zm65 100.7c-2.1 0-4.1-1.2-5-3.2-14.5-32.7-77-56.6-77.7-56.8-2.8-1.1-4.2-4.2-3.2-7 1.1-2.8 4.2-4.2 7-3.2 2.7 1 67.4 25.7 83.8 62.6 1.2 2.7 0 6-2.8 7.2-.6.3-1.3.4-2.1.4zm-29 38.5c.9 2.9-.7 5.9-3.6 6.8-.5.2-1.1.3-1.6.3-2.3 0-4.5-1.5-5.2-3.8-4.1-13.2-40.2-56-53.7-71.4-2-2.3-1.8-5.7.5-7.7s5.7-1.8 7.7.5c5.1 5.8 50.3 57.6 55.9 75.3z" fill="#89191a"/></g></svg>