<svg id="Layer_3" enable-background="new 0 0 1000 1000" height="1000" viewBox="0 0 1000 1000" width="1000" xmlns="http://www.w3.org/2000/svg"><g><path d="m862.3 834.1c-5.1 52.7-61.8 91.8-106.2 131.1-44.4 39.4-110.9 20.6-111.6 14.8-.6-4.8-3-21.7 19.2-46.7-8.5 9-15.1 15.7-15.1 15.7l-130.3 1s16.7 32.9-20.9 36.6c-37.6 3.6-118.5-38.3-118.5-38.3-23.9 13.6-129.9 12.5-150.8 8.9-21-3.6-3.6-36.8-3.6-36.8s0 0 .1-.1c0 0 0 0-.1.1 0 0-50.8-65.3-49.4-138.3s53.5-104.4 53.5-104.4 88.9-83.1 75.9-201.2l2.8-21s-26.6-101.1-12.2-135.8c0 0-56.4-75.9-61.4-144.5 0 0 123.6-20.2 144.5 2.9 0 0 126.9-77.9 206.5-57.8l73.1-112s96.9 64.8 102.7 183.1c0 0 106.9 73.5 52 262.8-.7 8.7 21.7 150.3 35.4 198.7 13.7 48.2 19.5 128.4 14.4 181.2z" fill="#ffc363"/><path d="m244.6 480.8c-51.3 53.5-114.9 113.4-54.9 241.3l-14.5 60s-102.8-90-78.8-208.8c23.5-116 80.9-150.3 116.3-153.2 35.5-2.9 83.2 7.2 31.9 60.7zm603.9 413.5 14.2 9.2s55.7-69 42.4-146.1-50.1-101.7-57.2-104.8c0 0 33.7 167.6-7.2 236.6l.1.1c-.1 0-.1-.1-.1-.1l-65.4 59.3s90.4 22.5 95.5-9.2c3.6-22-12.2-37.6-22.3-45z" fill="#fea142"/><path d="m494.6 191c3.6 13.7-24.6 12.3-39-9.4-14.5-21.7-20.2-26.7-20.2-26.7s11.6-21.7 26.7-13.7c15.1 7.9 28.9 36.1 32.5 49.8zm14.4-62.8s26 25.3 34 52.7c8 27.5 18.1 34 28.2 34.7s26-30.3-16.6-90.3zm130.4 1.2c-14.8-8.7-29.1-3.6-29.1-3.6 9.4 11 25.9 45.1 42.9 32.7 2.6-4 1.1-20.4-13.8-29.1zm-350.8 462.3s-12.7 7.2-11.6 30 28.9 72.3 39.7 68.6c10.8-3.6 9.8-16.3-4-33.6-13.6-17.3-24.1-65-24.1-65zm-38.6 67.5-21.3 18.4s-1.1 20.2 8 30c9 9.8 24.2-5.1 19.9-15.5-4.4-10.5-6.6-32.9-6.6-32.9z" fill="#dc8b4a"/><path d="m334.5 217.4s-26.4 61.8-27.8 75.5-47.3-87.4-49.1-94.7c-1.8-7.2 75.1 9.4 76.9 19.2zm395.9-50.7c10.7 13.3-2-47-6.6-53.1s-52.6-66.9-52.6-66.9l-19.4 81.2 35.1 8.2c-.1 0 32.7 17.4 43.5 30.6zm-125.3 429c-98.2-10.2-165.1 118.4-165.1 118.4-.3 153.2 78.3 235.9 78.3 235.9l130.3-1s0 0 38.9-38.3 66.4-182.4 66.4-182.4c-.1-45.2-50.5-122.5-148.8-132.6z" fill="#f9eba2"/><path d="m305.9 198.6c-16.6-4.5-34.4-7.6-43.1-7.6-3.4 0-7.2.4-9.3 3.1-1.2 1.5-1.6 3.5-1.1 5.4 1.1 4.2 12.1 29.3 22.8 51.5 6.2 13 11.8 23.9 16.1 31.7 8 14.5 10.9 16.8 14.7 16.8 2.8 0 5.8-1.9 6.2-6.2 1-9.5 16.9-49.4 27.4-73.9.4-1 .5-2.1.3-3.1-.6-2.8-1.7-8.9-34-17.7zm-2.3 84c-10.6-18-32.2-64.5-38.8-80.6 7.9.4 22 3 35.7 6.5 16.8 4.4 24.7 8 27.8 9.9-4.9 11.2-19.1 45.3-24.7 64.2zm202.9 1c-40.6-30-100.9 7.1-101.5 7.5-.9.6-1.9.8-2.9.8-1.8 0-3.6-.9-4.6-2.6-1.6-2.6-.8-5.9 1.7-7.5.7-.4 16.8-10.4 38.8-16.4 29.7-8.1 55.6-4.9 75 9.5 2.4 1.8 2.9 5.2 1.2 7.6-1.8 2.3-5.3 2.8-7.7 1.1zm127.5-25.3c-2.2-2-2.4-5.5-.4-7.7 35.4-38.8 94.3-24.3 96.8-23.6 2.9.7 4.7 3.7 3.9 6.6-.7 2.9-3.7 4.7-6.6 3.9-.5-.1-55.1-13.5-86 20.4-1.1 1.2-2.6 1.8-4 1.8s-2.7-.5-3.7-1.4zm-78.4 26.4c-1.3-1.2-1.9-2.9-1.8-4.6.2-1.7 1.2-3.3 2.7-4.1.8-.4 19-11 39.9-11 8.6 0 16.6 1.8 23.5 5.4 1.4.7 2.4 2 2.8 3.5s.1 3.1-.7 4.4c-.4.6-10.5 15.6-25.7 21.6-.6.3-1.3.4-2 .4-.1 0-.2 0-.2 0-2.5-.2-22.8-1.4-38.5-15.6zm149.4 45.8c2 2.3 1.7 5.7-.5 7.7-.9.8-23.3 19.9-39.7 5.8-8.4-7.2-43.6-10.8-63.8-11.3-.3 0-.4 0-.6 0-1.4 0-16.6.1-52.8 26.1-12.6 9.1-24.5 13.7-35.5 13.7-2.8 0-5.5-.3-8.2-.9-15.7-3.5-22.9-16.2-23.2-16.7-1.5-2.6-.5-6 2.1-7.4 2.6-1.5 5.9-.5 7.4 2.1.2.4 5.4 9.1 16.2 11.4 9.9 2.1 21.6-1.6 34.7-11 39.2-28.2 56.8-28.4 60.3-28.1 6.7.2 56.5 2 70.4 14 9.3 8 25.2-5.6 25.4-5.8 2.4-2.1 5.8-1.9 7.8.4zm-59.1 76.9c-.2 1.6-5.2 38.4-43.6 49.7-.5.2-1 .2-1.5.2-2.4 0-4.5-1.5-5.2-3.9-.9-2.9.8-5.9 3.7-6.8 31.6-9.4 35.8-40.3 35.9-40.6.4-3 3.1-5.1 6.1-4.7 2.9.4 5 3.1 4.6 6.1zm264.6 349c-13.2-76.5-48.4-101.9-58-107.5-13.2-48.6-34.4-181.2-34.6-194 13.6-40.1 19.4-79.1 17.1-115.8-.4-6.4-1.1-12.8-2-19.1.4-.9.6-1.8.5-2.8-.1-1.2-.6-2.2-1.4-3.1-2.1-12.4-5.1-24.5-9.1-36.2.5-1.2.5-2.6.1-3.9-.5-1.3-1.4-2.3-2.5-2.9-2-5.4-4.3-10.8-6.7-16.1-17.8-38.2-40.9-60.3-47.9-66.4-1-56.3-26.2-101.5-47.4-129.6-24.1-31.7-50.5-52-59.6-53.8-4.2-.9-6.8 1.4-7.8 3.6-2.4 5.3-43.6 67.4-69.8 106.7-3.8-.1-7.7-.1-11.7 0-39.6.5-77.3 6.6-111.8 18.3-28 9.5-54.1 22.6-77.8 39.2-2.6-.9-64.6-22.7-147.6-3.1-2.7.6-4.5 3.2-4.2 5.9.4 3.5 10 85.2 61.1 145.6-.7 5.1-2.1 17.3-2.3 33.8-.9 1.2-1.3 2.8-.9 4.4.2.7.5 1.4.9 2 .1 6.4.3 13.3.9 20.7.5 6.7 1.3 14.1 2.5 21.9-.5 1.3-.5 2.8.1 4.2.2.4.5.8.8 1.2 2.3 13.7 5.9 28.4 11.3 43.2v.1c-.2.3-.3.6-.4.9v.1c-.1.3-.2.6-.2.9v.2.2c-.1 1.4-12.5 138.8-42.8 178-8.6 11.1-18.8 22.7-28.6 34-13.7 15.7-27.7 31.7-38.4 47.4-52.3-116.8 2.9-174.1 51.6-224.8 1.6-1.7 3.2-3.3 4.8-5 21-21.9 28.1-38.9 21.9-52-9.6-20.2-46.9-18.8-58.1-17.9-13.3 1.1-39.6 7.2-66.2 35.9-25.8 27.9-44.3 68.8-55 121.6-10.3 49.7.4 102.6 30.9 152.6 22.9 37.6 48.4 60.2 49.5 61.1.1 38.1 8.8 90 46.3 134.8-3.8 6.8-10.4 21.3-5 31.8 3.3 6.4 10 9.9 19.9 10.3 22 1 41.6 1.5 59 1.5 43.8 0 72.7-3.2 86.2-9.5 6.6 5.5 13.5 10.4 20.6 14.7 25.2 15.3 52.9 23 82.7 23 5.4 0 11-.3 16.5-.8 2.9 0 22.7-.6 29.2-14.2 3-6.3 2.6-13.7-1.2-22.5 41.8-1 101.4-2 117.7-1.3-4 9.1-5.4 18-4.3 26.6v.2c.4 3.5 3.4 6 9.8 8.4 6.9 2.6 21.1 5.9 38.2 5.9 22.5 0 50-5.6 72.7-25.7 5.6-4.9 11.4-9.9 17.2-14.9 9 2.1 33.4 7.2 55.8 7.2 13.3 0 25.8-1.8 33.9-7.2 5.4-3.6 8.6-8.4 9.6-14.4 2.2-13.9-2.2-25.4-8.5-34.3 3.2-4.2 15.2-20.5 26.1-44.2 11.3-25.1 23.5-63.8 16.4-105.1zm-251.3-739.6c7.7 4.1 29.2 20.4 50.6 48.9 18.7 24.9 40.8 63.7 44.7 111.8-5.3-4.9-11.8-10.4-17.5-13.7 5-21.6-7.2-48.3-18.9-67.5-15.2-25-33.4-44.7-41.3-51.3-2.3-1.9-6.7-5.5-10.9-3-1.8 1.1-3.4 3.4-2.7 6.8 1.3 6.2-6.6 40.9-15.4 72.7-14.8-2.5-33-4.8-53.5-5.8 16.1-24 55.2-82.6 64.9-98.9zm-487.2 754.6c-9-9.2-25.6-27.5-40.7-52.3-20.1-33.2-41.5-85.3-29.5-144.8 27.3-135.2 97.6-147.7 111.4-148.8 20-1.6 42.4 1.4 47.3 11.7 3.9 8.2-3.2 22.3-19.9 39.8-1.6 1.6-3.2 3.3-4.8 5-24.9 25.8-53 55.1-66.9 93.2-15.9 43.8-10.8 92.6 15.8 149.2.1.3.3.5.4.7-6.4 11-10.8 21.8-12 32.1-.4 4.4-.8 9.1-1.1 14.2zm161.3 178.3c1.4.1 2.5.8 3.3 1.6-.9-.9-2-1.5-3.3-1.6zm4.5 2.4c-.5-5.6-1-19.6.4-22.7 1.5-2.5.7-5.8-1.8-7.4s-5.9-.8-7.5 1.7c-1.3 2-2.7 6-2.5 18.7.1 3.4.2 7.3.5 10.4-14.2.8-32.5 1.1-55.8.7.9-17.3 2.7-36.9 4.3-40.2 1.4-2.7.4-6-2.3-7.4s-6-.4-7.4 2.3c-3.2 6.1-4.9 31.9-5.6 45.1-8.4-.2-17.3-.6-26.9-1-5.7-.3-9.3-1.7-10.7-4.4-3-5.9 2.7-18.3 6.2-23.9 5.4-4.9 56-49.2 100.8-24.7 1.6 2.6 3.3 5.2 5.1 7.8 10.5 15.3 21.8 28.8 34 40.1-5.7 1.6-15.2 3.5-30.8 4.9zm436.5-9.7c-.4.4-.9.8-1.3 1.1-.8.4-1.5 1-2.1 1.8-6.2 5.2-12.4 10.6-18.4 15.8-21.1 18.7-46.8 22.8-64.6 23-.6 0-1.1 0-1.7 0 2.7-5.8 14.4-20.9 24.9-33 2-2.3 1.7-5.7-.6-7.7s-5.7-1.7-7.7.6c-.3.3-7.2 8.3-14.1 17.2-10 12.8-13.1 18.8-13.9 22.4-12.8-1.2-22-4.2-25.2-5.9-1.6-21.2 17.5-42.2 34.1-56.2 40.8-34.5 74-185.6 75.4-192 .6-2.9-1.2-5.8-4.2-6.5-2.9-.6-5.8 1.2-6.5 4.2-.3 1.5-33.8 153.9-71.8 186-12.1 10.3-21.4 20.4-27.7 30.4-3.3-.5-14.7-1.1-67.9-.2-27.4.4-54.5 1.1-61.3 1.2-2.6-4-5.8-8.3-9.5-12.7-44.5-53.4-61.9-110.1-68.8-224.4-.2-3-2.8-5.3-5.8-5.1s-5.3 2.8-5.1 5.8c3.7 60.3 10.6 104.9 21.7 140.3 10.9 34.4 26.2 62.3 49.6 90.5 17.4 20.9 16.9 30.5 15.1 34.4-3.2 6.7-15.2 8-19.5 8-.2 0-.4 0-.6 0-2.7.3-5.4.4-8.1.6-3.1-5.1-14.4-23.7-22.8-30.3-2.4-1.9-5.8-1.5-7.7.9s-1.5 5.8.9 7.7c4.8 3.8 12 14.3 16.9 21.9-34.2-1-65-13-92.2-35.7-.1-.3-.3-.7-.6-1-.8-1.1-1.8-1.8-3-2.1-13-11.5-25.2-25.5-36.5-42-30.4-44.6-42.6-91.6-42.7-92.1-.7-2.9-3.7-4.7-6.6-3.9-2.9.7-4.7 3.7-3.9 6.6.4 1.6 8.9 34.5 29.8 72-19.2-5.5-40.6-2.8-63.1 8.1-14.7 7.1-26.2 15.9-32.2 20.9-44.5-54.3-45-119.5-41.1-154.1 2.8-25 29.2-55.2 54.7-84.4 9.9-11.4 20.2-23.1 29-34.5 26-33.5 39-128.2 43.4-167 5.1 10.4 11.1 20.6 18.5 30.3 30.9 40.7 77.4 64.8 138.4 71.5h.6c2.7 0 5.1-2.1 5.4-4.9.3-3-1.8-5.7-4.8-6-57.9-6.3-101.9-28.9-130.9-67.2-9.9-13.1-17.4-27.2-23.1-41.4 13.4-14.1 42.2-40.7 61.6-43.2 3-.4 5.1-3.1 4.7-6.1s-3.1-5.1-6.1-4.7c-22.4 2.9-50.9 29-64.4 42.7-4-11.9-6.8-23.6-8.7-34.7 6.9-3 20.9-9 35.8-14.6 38.7-14.5 47.4-12.7 48.7-12.2 2.8 1.1 6-.3 7.1-3.1s-.3-6-3.1-7.1c-5.1-2-16.5-2.9-56.4 12.1-13.4 5-26.1 10.4-33.7 13.7-.8-5.7-1.3-11.1-1.7-16.1-.5-6.8-.8-13.2-.8-19.2 32.9-7 84-13.2 96-2.3 2.2 2 5.7 1.9 7.7-.4 2-2.2 1.9-5.7-.4-7.7-9.4-8.6-30.6-10.8-64.7-6.9-15.6 1.8-30.1 4.5-38.6 6.2.4-18.6 2.4-30.6 2.4-30.8.3-1.6-.2-3.2-1.3-4.5-43.3-49.9-56.5-118.2-59.4-136.7 61.4-13.4 111.1-3.2 129.2 1.6-8.9 6.8-17.5 14.2-25.6 22-2.2 2.1-2.2 5.5-.2 7.7 1.1 1.1 2.5 1.7 3.9 1.7s2.7-.5 3.8-1.5c71.4-68.5 158.3-83.8 218.6-84.6 31.9-.4 60 3.1 80.5 6.8.1 0 .1.1.2.1.4.1.8.2 1.3.2 20.7 3.8 33.3 7.8 33.6 7.9 2.9.9 5.9-.6 6.9-3.5.9-2.9-.6-5.9-3.5-6.9-.9-.3-11.8-3.8-29.9-7.4 4.2-15.1 13-48.4 15.1-66.7 18.1 17.7 63.6 75.9 51.6 107.9 0 .1-.1.1-.1.2-.6 1.9-.2 3.9 1.1 5.3.1.1.2.3.4.4.1.1.2.2.4.3.1.1.3.2.4.3h.1c.1.1.3.2.4.2 0 0 .1 0 .1.1.1.1.3.1.4.2h.1c.1 0 .1 0 .1.1 6.8 2.3 20.7 15.3 27.9 23.1.2.2.4.4.6.5.3.2 27.1 21.9 46.8 64.1 2 4.2 3.9 8.7 5.7 13.6-6.2 2.4-16.3 6.4-26.6 10.8-35 15-38.2 20.1-39.5 22.3-1.6 2.6-.8 5.9 1.8 7.5.9.6 1.9.8 2.9.8 1.8 0 3.6-.9 4.6-2.6 3.3-4.7 32.8-17.9 60.5-28.5 2.9 9 5.5 18.9 7.4 29.7-14.9 1.8-48.5 6.7-60 14.2-2.5 1.6-3.2 5-1.6 7.5 1 1.6 2.8 2.5 4.6 2.5 1 0 2-.3 3-.9 8.8-5.7 39.1-10.4 55.7-12.5 1.8 13.7 2.5 28.6 1.7 44.7-12.3-5.7-37.3-16.6-48.7-16.9-3-.1-5.5 2.3-5.6 5.3s2.3 5.5 5.3 5.6c9.5.2 35.8 11.8 48.1 17.6-2.1 21.8-6.9 45.6-15.7 71.4-3.7 5.9-39.1 60.1-77.6 79.6-2.7 1.4-3.8 4.6-2.4 7.3 1 1.9 2.9 3 4.9 3 .8 0 1.7-.2 2.5-.6 31.6-16 60-52 73.7-71.4 5.3 40.9 23 145.5 34.1 184.6 13.2 46.5 19.5 125.3 14.3 179.4-4.2 42-44.2 75.9-82.8 108.6zm91.2-4c-.5 2.9-2 5.1-4.8 7-14.1 9.3-51.2 4.5-73.2.1 19-16.1 37.8-32.6 52.5-50.5 6.4 4 29.3 19.8 25.5 43.4zm-5-41c-5.2-5.2-10.6-8.9-13.9-11 11.4-15.8 19.3-32.9 21.1-51.7 4.8-49.9 0-120.6-11-168.9 12.9 11.7 33.6 38.3 42.9 92.6 11.4 65.3-29.3 125.6-39.1 139z" fill="#89191a"/></g></svg>