<svg height="512" viewBox="0 0 311.495 311.495" width="512" xmlns="http://www.w3.org/2000/svg"><path d="m297.66 28.667.786-1.278-.786 1.278a18.067 18.067 0 0 0-3.677-1.71l-.904-.306-.106-.948c-.598-5.33-3.527-10.325-8.443-13.349a17.862 17.862 0 0 0-9.385-2.663 18.08 18.08 0 0 0-11.519 4.149l-.996.826-.963-.865a18.184 18.184 0 0 0-2.599-1.96 17.903 17.903 0 0 0-9.408-2.669c-6.05.002-11.949 3.043-15.348 8.573-.008.007-.06.12-.183.336l-.579.988-1.106-.298a17.938 17.938 0 0 0-4.66-.615c-6.047.002-11.94 3.037-15.338 8.563a17.902 17.902 0 0 0-2.669 9.407c.002 6.049 3.043 11.948 8.573 15.348a17.936 17.936 0 0 0 4.008 1.811l1.089.345-.043 1.141a18.177 18.177 0 0 0 .542 5.083l2.662 5.888a17.89 17.89 0 0 0 5.343 5.051 17.854 17.854 0 0 0 9.383 2.662 18.09 18.09 0 0 0 10.87-3.635l.902-.68.903.679a17.897 17.897 0 0 0 10.824 3.642c6.049-.002 11.949-3.043 15.348-8.573.531-.863.967-1.772 1.348-2.715l.504-1.25 1.297.368c1.614.458 3.264.682 4.904.682 6.045-.003 11.934-3.032 15.331-8.556a17.902 17.902 0 0 0 2.669-9.407c-.003-6.045-3.045-11.944-8.574-15.343z" fill="none"/><circle cx="147.193" cy="155.748" fill="#d0df92" r="134.02"/><g fill="#fffcc8"><path d="M206.233 63.46a8.786 8.786 0 0 0-8.785 8.786 8.787 8.787 0 1 0 8.785-8.786zM289.105 33.283l.786-1.278-.786 1.278a18.067 18.067 0 0 0-3.677-1.71l-.904-.306-.106-.948c-.598-5.33-3.527-10.325-8.443-13.349a17.862 17.862 0 0 0-9.385-2.663 18.08 18.08 0 0 0-11.519 4.149l-.996.826-.963-.865a18.184 18.184 0 0 0-2.599-1.96 17.903 17.903 0 0 0-9.408-2.669c-6.05.002-11.949 3.043-15.348 8.573-.008.007-.06.12-.183.336l-.579.988-1.106-.298a17.938 17.938 0 0 0-4.66-.615c-6.047.002-11.94 3.037-15.338 8.563a17.902 17.902 0 0 0-2.669 9.407c.002 6.049 3.043 11.948 8.573 15.348a17.936 17.936 0 0 0 4.008 1.811l1.089.345-.043 1.141a18.177 18.177 0 0 0 .542 5.083l2.662 5.888a17.89 17.89 0 0 0 5.343 5.051 17.854 17.854 0 0 0 9.383 2.662 18.09 18.09 0 0 0 10.87-3.635l.902-.68.903.679a17.897 17.897 0 0 0 10.824 3.642c6.049-.002 11.949-3.043 15.348-8.573.531-.863.967-1.772 1.348-2.715l.504-1.25 1.297.368c1.614.458 3.264.682 4.904.682 6.045-.003 11.934-3.032 15.331-8.556a17.902 17.902 0 0 0 2.669-9.407c-.003-6.044-3.044-11.943-8.574-15.343zM187.937 72.271a5.173 5.173 0 1 0 .001 10.345 5.173 5.173 0 0 0-.001-10.345z"/></g><g fill="#740806"><path d="M290.676 30.728a20.832 20.832 0 0 0-3.401-1.675c-.954-6.102-4.461-11.398-9.729-14.637a20.925 20.925 0 0 0-10.956-3.107h-.002a21.094 21.094 0 0 0-12.434 4.061 20.097 20.097 0 0 0-2.069-1.464 20.97 20.97 0 0 0-10.98-3.114h-.002c-7.137.003-13.646 3.518-17.543 9.437a20.97 20.97 0 0 0-4.331-.452c-7.36.003-14.049 3.738-17.894 9.992a20.965 20.965 0 0 0-3.113 10.978c.003 7.363 3.741 14.056 10.001 17.904a20.613 20.613 0 0 0 3.616 1.752c.009.511.044 1.022.09 1.534a11.713 11.713 0 0 0-5.697-1.475c-6.498 0-11.785 5.287-11.785 11.786 0 .101.013.2.015.3-1.492-1.984-3.859-3.274-6.527-3.274-4.506 0-8.172 3.666-8.172 8.172s3.666 8.172 8.172 8.172c4.256 0 7.759-3.271 8.135-7.43 2.048 3.49 5.831 5.845 10.162 5.845 5.664 0 10.406-4.017 11.531-9.351a20.866 20.866 0 0 0 4.061 3.29 20.929 20.929 0 0 0 10.954 3.106c4.176 0 8.313-1.269 11.77-3.593a20.966 20.966 0 0 0 11.729 3.6c7.363-.003 14.056-3.742 17.904-10.002.376-.611.725-1.26 1.053-1.962 1.458.316 2.947.476 4.444.476 7.358-.003 14.044-3.735 17.887-9.984a20.965 20.965 0 0 0 3.113-10.978c-.003-7.366-3.742-14.059-10.002-17.907zm-102.74 51.888a5.172 5.172 0 1 1 0-10.344 5.172 5.172 0 0 1 0 10.344zm18.297-1.585a8.786 8.786 0 0 1 0-17.572 8.764 8.764 0 0 1 6.961 3.439l1.663 3.679c.104.541.163 1.097.163 1.668a8.785 8.785 0 0 1-8.787 8.786zm88.776-22.992c-3.397 5.524-9.286 8.553-15.331 8.556-1.641 0-3.29-.224-4.904-.682l-1.296-.368-.505 1.25a17.869 17.869 0 0 1-1.348 2.715c-3.399 5.53-9.299 8.571-15.348 8.573a17.897 17.897 0 0 1-10.824-3.642l-.902-.679-.902.68a18.094 18.094 0 0 1-10.869 3.635 17.86 17.86 0 0 1-9.384-2.662 17.883 17.883 0 0 1-5.344-5.051l-.34-.751a11.711 11.711 0 0 0-1.905-4.213l-.418-.924a18.232 18.232 0 0 1-.541-5.083l.042-1.142-1.089-.345a17.977 17.977 0 0 1-4.008-1.811c-5.529-3.399-8.57-9.299-8.572-15.348a17.902 17.902 0 0 1 2.669-9.407c3.397-5.526 9.291-8.561 15.338-8.563 1.559 0 3.125.202 4.66.615l1.106.298.578-.988c.123-.216.175-.33.183-.336 3.399-5.529 9.299-8.57 15.349-8.573 3.215.001 6.463.859 9.407 2.669a18.113 18.113 0 0 1 2.6 1.959l.963.865.996-.826a18.069 18.069 0 0 1 11.52-4.149c3.207 0 6.446.856 9.385 2.663 4.917 3.023 7.846 8.018 8.443 13.349l.105.948.904.306c1.271.43 2.503.988 3.677 1.709 5.529 3.399 8.571 9.298 8.573 15.348a17.89 17.89 0 0 1-2.668 9.405z"/><path d="M257.049 45.893a4.195 4.195 0 1 1-8.39 0 4.195 4.195 0 0 1 8.39 0zM233.893 45.893a4.195 4.195 0 1 1-8.39 0 4.195 4.195 0 0 1 8.39 0zM279.095 45.515a4.195 4.195 0 1 1-8.39 0 4.195 4.195 0 0 1 8.39 0z"/></g><g><path d="M124.051 232.137c-1.275 3.974-1.288 8.106-.417 11.923.652 2.872 1.782 5.595 3.259 8.134 2.22 3.808 5.218 7.217 8.768 10.105a41.304 41.304 0 0 0 12.189 6.857c4.512 1.602 9.442 2.438 14.541 2.173a35.286 35.286 0 0 0 11.542-2.583c5.728-2.332 11.198-6.312 15.961-11.98 4.772-5.675 8.874-13.012 12.146-22.231 2.48-6.992 4.489-15.077 5.938-24.406.644-4.146 1.556-7.735 2.646-10.807 1.47-4.142 3.259-7.338 5.144-9.751 2.842-3.62 5.843-5.509 8.718-6.398a13.215 13.215 0 0 1 8.352.174 13.916 13.916 0 0 1 6.099 4.315c1.646 2.02 2.833 4.561 3.275 7.663a7 7 0 0 0 13.863-1.955c-.785-5.592-3.042-10.595-6.303-14.573a27.919 27.919 0 0 0-12.252-8.645 27.19 27.19 0 0 0-11.299-1.483c-5.84.46-11.75 2.889-16.767 7.278-5.032 4.386-9.169 10.64-12.024 18.693-1.415 3.987-2.523 8.425-3.286 13.34-1.335 8.602-3.159 15.846-5.298 21.873-2.508 7.068-5.447 12.453-8.51 16.458-2.299 3.007-4.663 5.243-7.011 6.895-3.527 2.47-7.02 3.671-10.504 4.052-3.479.371-6.981-.121-10.29-1.295a27.303 27.303 0 0 1-7.247-3.905c-3.246-2.432-5.736-5.492-7.045-8.346-.661-1.427-1.037-2.788-1.161-4.005-.124-1.223-.015-2.293.306-3.306a6.999 6.999 0 0 0-4.535-8.799 6.997 6.997 0 0 0-8.798 4.535z" fill="#fbb807"/><path d="M256.077 193.369c-.785-5.592-3.042-10.595-6.303-14.573a27.919 27.919 0 0 0-12.252-8.645 27.19 27.19 0 0 0-11.299-1.483c-5.84.459-11.75 2.889-16.767 7.278l-.083.078c3.502 3.077 6.655 6.546 9.454 10.338 1.889-1.611 3.801-2.615 5.662-3.19a13.215 13.215 0 0 1 8.352.174 13.916 13.916 0 0 1 6.099 4.315c1.646 2.02 2.833 4.561 3.275 7.663a7 7 0 0 0 13.862-1.955z" fill="#fffcc8"/><path d="M228.408 168.579c3.141 0 6.223.546 9.113 1.572a27.91 27.91 0 0 1 12.252 8.645c3.261 3.979 5.519 8.981 6.303 14.573a7 7 0 0 1-13.863 1.955c-.442-3.103-1.629-5.644-3.275-7.663a13.908 13.908 0 0 0-6.099-4.315 13.277 13.277 0 0 0-4.428-.767c-1.289 0-2.603.191-3.924.593-2.875.89-5.876 2.778-8.718 6.398-1.885 2.413-3.674 5.609-5.144 9.751-1.09 3.071-2.002 6.66-2.646 10.807-1.449 9.329-3.458 17.414-5.938 24.406-3.273 9.22-7.374 16.557-12.146 22.231-4.763 5.669-10.233 9.648-15.961 11.98a35.286 35.286 0 0 1-13.411 2.632c-4.433 0-8.714-.817-12.672-2.222a41.302 41.302 0 0 1-12.189-6.857c-3.55-2.889-6.547-6.298-8.768-10.105-1.477-2.539-2.607-5.262-3.259-8.134-.871-3.816-.858-7.949.417-11.923a6.991 6.991 0 0 1 8.8-4.535 6.999 6.999 0 0 1 4.535 8.799c-.321 1.013-.43 2.083-.306 3.306.125 1.217.5 2.578 1.161 4.005 1.309 2.854 3.799 5.914 7.045 8.346a27.303 27.303 0 0 0 7.247 3.905c2.58.915 5.278 1.416 7.991 1.416.766 0 1.534-.04 2.299-.121 3.485-.381 6.977-1.582 10.504-4.052 2.348-1.651 4.711-3.888 7.011-6.895 3.063-4.005 6.002-9.39 8.51-16.458 2.139-6.027 3.963-13.271 5.298-21.873.763-4.915 1.872-9.353 3.286-13.34 2.855-8.054 6.992-14.308 12.024-18.693 5.016-4.39 10.926-6.819 16.767-7.278a27.083 27.083 0 0 1 2.184-.089m-2.421-2.902c-6.722.529-13.121 3.3-18.502 8.008-5.576 4.86-9.91 11.573-12.88 19.952-1.496 4.214-2.647 8.885-3.424 13.883-1.243 8.008-2.979 15.184-5.16 21.33-2.236 6.303-4.95 11.564-8.066 15.639-1.97 2.576-4.107 4.683-6.348 6.26-2.883 2.019-5.862 3.172-9.103 3.525-.651.069-1.317.104-1.98.104-2.311 0-4.662-.418-6.989-1.243a24.46 24.46 0 0 1-6.451-3.479c-2.727-2.043-4.956-4.665-6.122-7.207-.492-1.062-.803-2.115-.898-3.044-.08-.789-.022-1.456.18-2.09 1.679-5.252-1.228-10.892-6.479-12.57a9.979 9.979 0 0 0-3.047-.478 9.968 9.968 0 0 0-9.522 6.953c-1.364 4.25-1.532 8.92-.486 13.503.692 3.051 1.9 6.072 3.593 8.981 2.37 4.064 5.554 7.738 9.468 10.924a44.144 44.144 0 0 0 13.077 7.355c4.478 1.589 9.079 2.395 13.676 2.395a38.24 38.24 0 0 0 14.542-2.853c6.403-2.606 12.165-6.924 17.126-12.829 5.117-6.083 9.382-13.875 12.678-23.159 2.596-7.317 4.64-15.712 6.076-24.949.584-3.766 1.428-7.219 2.508-10.263 1.258-3.546 2.833-6.543 4.676-8.902 2.194-2.794 4.564-4.556 7.231-5.381a10.471 10.471 0 0 1 3.052-.463c1.153 0 2.308.2 3.424.594a10.896 10.896 0 0 1 4.777 3.385c1.406 1.724 2.291 3.807 2.63 6.186.692 4.905 4.945 8.604 9.894 8.604.467 0 .94-.033 1.405-.099 5.46-.77 9.275-5.839 8.506-11.297-.839-5.979-3.244-11.531-6.952-16.056a30.893 30.893 0 0 0-13.57-9.571 30.165 30.165 0 0 0-12.54-1.648z" fill="#740806"/><g><path d="M215.623 297.704h-47.8l-22.6-44.7c5.48-2.59 10.46-6.96 12.96-14.21-.44.93-4.34 8.49-16.06 12.61-6.9 2-14.4 3.1-21.9 3.1-3 0-5.9-.2-8.8-.5-14.92-2.23-20.27-10.84-20.58-11.37 4.4 9.08 12.39 12.87 19.88 14.17v41h-55.8c0-.6-7.8-26 25.7-27.8 0 0-4.3-25-7.2-42.1-1.4-3.7-2.3-7.9-2.5-12.5-.1-1-.2-4.2-.2-4.2-2.7-69.8 46.2-69.9 46.4-69.9 1.7-.1 3.4-.2 5-.2 58.8 0 53.6 67.4 52.4 78.3l13.4 50.5c33.4 1.8 27.7 27.8 27.7 27.8z" fill="#fbb807"/><path d="m187.823 269.9-13.4-50.5c1.1-10.1 5.6-68.4-40.1-77.2 6.3 2.8 12.2 6.8 17.4 11.6 11 10.1 15.8 25.1 16.4 39.6.6 14-7 36.5-16.7 46.2-10.2 10.2-22.7 10.7-37.1 10.7-7 0-15.9-2.2-22.1-4.7.8 3.8 7.1 42.8 7.9 52h10.6v-43.8c11.1 1.4 23 .3 33.4-3l24.4-7.6 8.3 25.9-4.3 3.5c38.3 0 34.9 25.1 34.9 25.1h8.2s5.7-26-27.8-27.8z" fill="#f28a1c"/><path d="M144.623 168.8c.2-23.5-12.2-27.8-25.8-27.8-16.5 0-33.4 27.3-32.2 66.1.7 21.7 12.1 34.5 31.1 34s28-13.5 27.3-29.2z" fill="#fffcc8"/><path d="M214.123 278.104c-4.9-6.4-12.9-10.1-23.9-11l-12.7-47.9c.9-8.4 3.3-44-15.5-65-9.5-10.7-22.9-16.1-39.9-16.1-1.7 0-3.4.1-5.1.2-1.6 0-18.5.6-32.2 14.8-12.3 12.8-18.1 32.4-17.1 58.2v1.7c0 .9.1 2 .1 2.5.3 4.7 1.2 9.1 2.6 13.1 2.3 13.3 5.4 31.3 6.6 38.5-10.1 1.1-17.4 4.5-21.7 10.3-4.1 5.4-5.3 12.8-3.5 20.7l.2 2.6h61.7v-43.5c2.2.2 4.4.3 6.6.3 4.9 0 9.9-.5 14.7-1.3.9-.1 1.8-.3 2.8-.5 1.6-.3 3.2-.7 4.8-1.2l22.5 44.6.8 1.6h52l.5-2.4c.3-.4 2.5-11.2-4.3-20.2zm1.5 19.6h-47.8l-22.6-44.7c5.48-2.59 10.46-6.96 12.96-14.21-.44.93-4.34 8.49-16.06 12.61-6.9 2-14.4 3.1-21.9 3.1-3 0-5.9-.2-8.8-.5-14.92-2.23-20.27-10.84-20.58-11.37 4.4 9.08 12.39 12.87 19.88 14.17v41h-55.8c0-.6-7.8-26 25.7-27.8 0 0-4.3-25-7.2-42.1-1.4-3.7-2.3-7.9-2.5-12.5-.1-1-.2-4.2-.2-4.2-2.7-69.8 46.2-69.9 46.4-69.9 1.7-.1 3.4-.2 5-.2 58.8 0 53.6 67.4 52.4 78.3l13.4 50.5c33.4 1.8 27.7 27.8 27.7 27.8z" fill="#740806"/><g><path d="M90.623 141.3s50.9 1.1 55.2 2.5c22.3-10.5 29.454 8.738 29.454 8.738 24.6 17.1 8.546 47.562-16.654 48.262-21.3.6-45.1-8.2-45.1-8.2s-27.3 20.1-49.2 5.2c-29.6-20.3-6.3-55.7 26.3-56.5z" fill="#fbb807"/><path d="M183.323 160.5s10.2 26.9-19.3 33.5c-30.2 6.7-82-24.2-82-24.2-5.7 2.1-11.2 4.2-17.3 4.9.9 1.7 1.6 3.6 2.2 5.4 6.1-.5 11.6-.8 11.6-.8s24.8 13.7 26 14c1.7.5 3.3 1.2 4.8 2 2.7-1.6 4.3-2.7 4.3-2.7s23.8 8.8 45.1 8.2c21.5-.6 36.2-23.1 24.6-40.3z" fill="#f28a1c"/><path d="M157.123 152.2c-7.2 0-15.7 1.6-22.8 3.3-3.6.9-6.8 1.8-9.3 2.5 4.3 1.2 8.5 2.6 12.4 3.9 9.5 3.3 17.3 6.6 21 8.3 0-.2-.1-.4-.1-.7-.1-.8.5-1.6 1.3-1.7s1.6.5 1.7 1.3.2 1.4.3 2.1c3-2.9 5.4-6.4 6.9-10.2-1.8-.9-3.9-1.5-6.2-1.5h-.2c-.8 0-1.5-.6-1.5-1.5s.6-1.5 1.5-1.5h.3c2.6 0 5.1.6 7.2 1.6.3-1 .5-2.1.6-3.2-3.2-1.6-6.8-2.6-10.3-2.8-.9.1-1.8.1-2.8.1z" fill="none"/><path d="M175.123 152.4s-4.3-11.7-16.8-11.7c-3.5 0-7.6.9-12.4 3.2-4.3-1.4-55.2-2.5-55.2-2.5-32.7.8-56.3 38.3-25.1 56.1 4.5 2.6 9.6 3.5 14.7 3.5 11.6 0 23.4-4.9 29.2-7.8-15.9-6.7-27-14.3-29.7-16.1l-11.1 2.9c-.2.1-8 3.3-8.2 3.3-1.5-.4 4.7-4.5 3.8-5.7-.8-1.2-1.2-2.6-1.2-4.1 0-1.9.6-4 1.5-6 1-2.1 2.4-4.2 4.3-6.1 3.7-3.9 9.1-7.1 15.8-8.2 2.5-.4 5.1-.6 7.8-.6 8.5 0 18 1.7 27.1 4 1.4-.5 6.2-2 12.5-3.6 7.4-1.9 16.8-3.8 24.9-3.8 1 0 2 0 3 .1 4 .3 8.1 1.4 11.7 3.2s6.7 4.4 8.7 7.5c1.3 2.1 2.1 4.4 2.1 7 0 2.5-.8 5.1-2.4 7.7-.1.2-.3.4-.5.5-.2 1.3-.6 2.6-1.2 3.8-.9 1.6-2.3 2.9-4.2 3.7-1.2.5-2.7.9-4.3 1h-.8c-1.1 0-2.3-.1-3.5-.6-1.2-.4-2.3-1.2-3.3-2.3-1.4-1.6-2.5-3.8-3.2-6.9-.3-.1-.7-.3-1.2-.5-1.1-.5-2.8-1.2-4.9-2.1-4.1-1.7-10-4.1-16.7-6.4-13.4-4.7-30.2-9.3-43.8-9.3-2.6 0-5.1.2-7.4.5-4.5.7-8.3 2.5-11.3 4.8s-5.2 5.1-6.5 7.8c-.8 1.8-1.3 3.4-1.3 4.7 0 1 .2 1.8.6 2.4.3.5.8.8 1.6 1.1l11.4-2.9c.4-.1.9 0 1.3.2l.1.1c.1.1.3.2.5.3.4.3 1 .7 1.8 1.2 1.6 1 3.9 2.5 6.8 4.2 5.6 3.3 13.5 7.5 22.8 11.3.1 0 .1-.1.1-.1s23 9.5 43.9 9.5h1.7c25.3-.6 41.1-31.2 16.5-48.3z" fill="none"/><path d="M161.623 171.4c.5 2.7 1.1 4.6 1.9 6 1 1.7 2 2.4 3.1 2.8.7.3 1.6.4 2.4.4h.6c1.3-.1 2.4-.3 3.3-.7s1.5-.9 2.1-1.5c1.1-1.2 1.6-2.8 1.6-4.7 0-3-1.4-6.6-3.9-9.3-1.2-1.3-2.6-2.4-4.2-3.2-1.5 3.8-3.9 7.3-6.9 10.2zM175.023 162.3c2 2.2 3.4 4.8 4.2 7.5.3-1 .4-1.9.4-2.8 0-1.9-.6-3.7-1.6-5.3-1.1-1.7-2.6-3.2-4.5-4.6-1-.7-2.1-1.4-3.2-1.9-.2 1.1-.4 2.1-.6 3.2 1.9.9 3.8 2.3 5.3 3.9z" fill="#f28a1c"/><path d="M177.523 150.4c-1.4-3.1-6.8-12.8-19.3-12.8-4 0-8.2 1-12.8 3-8.2-1.3-43.5-2.2-54.8-2.4h-.2c-9.7.2-19.3 3.6-27 9.4-7.5 5.6-12.8 13-14.7 20.9-3.2 12.6 2.4 24.1 15.3 31.5 4.6 2.6 10 3.9 16.2 3.9 14.2 0 28.4-6.9 32.9-9.3.2.1.4.1.5.1 5.8 2.2 25.2 9 43.3 9h1.8c14.1-.4 26.6-9.6 30.5-22.5 3.5-11.4-.9-22.9-11.7-30.8zm-18.8 50.4h-1.7c-20.9 0-43.9-9.5-43.9-9.5s-13.366-4.856-22.9-11.2c-2.9-1.7-5.2-3.2-6.8-4.2-.8-.5-1.4-.9-1.8-1.2-.2-.1-.4-.2-.5-.3l-.1-.1c-.4-.3-.8-.4-1.3-.2l-11.4 2.9c-.7-.2-1.2-.6-1.6-1.1-.4-.6-.6-1.3-.6-2.4 0-1.3.4-3 1.3-4.7 1.3-2.6 3.5-5.5 6.5-7.8s6.8-4.1 11.3-4.8c2.3-.4 4.8-.5 7.4-.5 13.6 0 30.5 4.6 43.8 9.3 6.7 2.3 12.5 4.7 16.7 6.4 2.1.9 3.7 1.6 4.9 2.1.5.2.9.4 1.2.5.7 3.1 1.8 5.3 3.2 6.9 1 1.1 2.1 1.8 3.3 2.3 1.2.4 2.4.6 3.5.6h.8c1.6-.1 3-.4 4.3-1 1.9-.8 3.3-2.1 4.2-3.7.7-1.2 1.1-2.4 1.2-3.8.2-.1.4-.3.5-.5 1.7-2.6 2.5-5.2 2.4-7.7 0-2.5-.8-4.9-2.1-7-2-3.1-5.1-5.6-8.7-7.5-3.6-1.8-7.7-3-11.7-3.2-1-.1-2-.1-3-.1-8.1 0-17.5 1.9-24.9 3.8-6.3 1.6-11.1 3.2-12.5 3.6-9.1-2.4-18.6-4-27.1-4-2.7 0-5.4.2-7.8.6-6.7 1-12 4.3-15.8 8.2-1.9 1.9-3.3 4-4.3 6.1s-1.5 4.1-1.5 6c0 1.5.3 2.9 1.2 4.1.8 1.2-5.4 5.3-3.8 5.7.2.1 8-3.2 8.2-3.3l11.1-2.9c2.6 1.8 13.8 9.4 29.7 16.1-5.8 2.8-17.6 7.8-29.2 7.8-5.1 0-10.2-1-14.7-3.5-31.2-17.8-7.6-55.4 25.1-56.1 0 0 50.9 1.1 55.2 2.5 4.8-2.3 8.9-3.2 12.4-3.2 12.6 0 16.8 11.7 16.8 11.7 24.5 17 8.7 47.6-16.5 48.3zm14.7-43.7c1.9 1.3 3.4 2.9 4.5 4.6s1.6 3.5 1.6 5.3c0 .9-.1 1.9-.4 2.8-.7-2.7-2.1-5.3-4.2-7.5-1.5-1.6-3.3-3-5.4-4s-4.6-1.6-7.2-1.6h-.3c-.8 0-1.5.7-1.5 1.5s.7 1.5 1.5 1.5h.2c2.3 0 4.4.6 6.2 1.5 1.6.8 3 1.9 4.2 3.2 2.5 2.8 4 6.3 3.9 9.3 0 1.9-.5 3.5-1.6 4.7-.5.6-1.2 1.1-2.1 1.5s-1.9.6-3.3.7h-.6c-.9 0-1.7-.1-2.4-.4-1.1-.4-2.1-1.2-3.1-2.8-.8-1.3-1.4-3.3-1.9-6-.1-.7-.2-1.3-.3-2.1s-.8-1.4-1.7-1.3c-.8.1-1.4.8-1.3 1.7 0 .2.1.4.1.7-3.8-1.7-11.5-5-21-8.3-3.9-1.3-8.1-2.7-12.4-3.9 2.4-.7 5.6-1.6 9.3-2.5 7-1.7 15.6-3.3 22.8-3.3.9 0 1.9 0 2.8.1 3.5.2 7.1 1.2 10.3 2.8 1.2.4 2.3 1 3.3 1.8z" fill="#740806"/></g></g><g><path d="M172.031 69.526c24.846-25.983 5.293-51.276 5.293-51.276l-33.787 19.965c-21.976-8.56-40.332-5.247-53.284.295L55.966 18.25s-19.622 25.384 5.429 51.417c-7.071 15.944-16.043 37.661-14.496 41.969 1.179 3.286 3.554 3.842 5.958 2.316-.55 3.764-.28 7.405 1.762 9.906 1.984 2.43 4.141 2.458 5.833.816 11.709 16.633 53.426 30.091 53.426 30.091s46.39-10.005 59.555-29.413c1.527.892 3.306.536 4.962-1.493 2.042-2.501 2.313-6.142 1.762-9.906 2.404 1.526 4.779.969 5.958-2.316 1.111-3.094-7.229-25.038-14.084-42.111z" fill="#fbb807"/><path d="m45.488 112.144-.001-.001z" fill="#740806"/><g fill="none"><path d="M147.43 143.804c-.469.208-.939.412-1.408.614.47-.199.938-.407 1.408-.614zM150.529 142.382c-.311.148-.623.294-.935.439.312-.146.624-.288.935-.439z"/></g><path d="M182.57 102.054a230.073 230.073 0 0 0-2.446-7.21c-2.73-7.676-6.271-16.754-9.485-24.76l-.36-.897.668-.699c4.708-4.925 7.745-9.781 9.615-14.409 1.868-4.629 2.572-9.036 2.573-13.084.001-6.268-1.702-11.679-3.439-15.554a38.016 38.016 0 0 0-2.81-5.192l-33.214 19.626-.68-.265c-6.505-2.533-12.661-3.983-18.449-4.655l.014.006c-5.797 5.97-7.738 19.287-7.738 19.287l17.494-15.249c4.128 1.673 7.368 2.952 7.368 2.952s17.393 12.491 23.22 49.489c9.351 2.576 14.683 6.731 17.669 10.614z" fill="#f28a1c"/><path d="M182.57 102.054c-2.986-3.883-8.317-8.038-17.67-10.613-9.208-2.535-22.314-3.537-40.933-1.231 0 0-.822-24.198-11.396-24.198S100.69 90.25 100.69 90.25c-40.277-4.634-56.291 14.42-53.791 21.386 1.179 3.286 3.554 3.842 5.958 2.316-.55 3.764-.28 7.405 1.762 9.906 1.984 2.43 4.141 2.458 5.833.816 22.237 27.417 53.426 30.091 53.426 30.091s43.663-5.346 59.555-29.413c1.527.892 3.306.536 4.962-1.493 2.042-2.501 2.313-6.142 1.762-9.906 2.404 1.526 4.779.969 5.958-2.316.248-.691.023-4.942-3.545-9.583z" fill="#fffcc8"/><path d="M167.632 92.274s5.949 4.392 6.662 9.025c1.003 6.517-6.416 3.564-6.416 3.564 8.554 15.505-2.851 15.327-2.851 15.327-17.822 26.02-50.792 29.941-50.792 29.941s-24.951-2.495-52.688-24.162c22.152 26.19 52.332 28.795 52.332 28.795s43.663-5.346 59.555-29.413c1.527.892 3.306.536 4.962-1.493 2.042-2.501 2.313-6.142 1.762-9.906 2.404 1.526 4.779.969 5.958-2.316.433-1.209-.583-13.339-18.484-19.362z" fill="#e5ba97"/><path d="M151.117 103.949c-3.833.237-7.012.003-9.461-.366a1.846 1.846 0 0 0-.531-.084c-1.75-.29-3.094-.64-3.979-.914-1.154-.356-2.043 1.065-1.192 1.922.692.699 1.946 1.266 3.479 1.555.047.109.103.216.172.317.597.893.794 1.613.801 2.248-.007.554-1.287 2.813-1.922 3.393-1.12 1.016-2.739 2.026-4.717 2.943-2.961 1.374-6.664 2.864-10.775 3.356-8.934 1.07-8.902-3.389-8.902-3.389s-1.508-8.482-2.259-8.423c-.763.06-1.709 8.353-1.709 8.353s-.965 4.795-9.783 4.123c-3.394-.259-6.394-1.515-8.878-2.666-2.273-1.041-4.071-2.279-5.229-3.535-.578-.627-1.003-1.256-1.274-1.859a4.371 4.371 0 0 1-.399-1.804c.006-.738.196-1.533.695-2.444l.051-.134.086-.01c1.535-.227 2.799-.769 3.47-1.445.753-.759-.034-2.017-1.055-1.702-1.911.59-6.184 1.589-12.365 1.207-.641 1.03 2.412 1.899 5.817 2.087a8.133 8.133 0 0 0-.395 2.441c0 1.151.259 2.278.727 3.313.813 1.81 2.217 3.362 3.978 4.692 1.829 1.378 4.076 2.536 6.619 3.484l3.718 1.144.805 7.046a15.7 15.7 0 0 1 1.575 1.014c3.99-3.713 10.895-7.947 21.471-7.54 11.304.435 15.497 3.871 17.052 6.488.228-.146.46-.285.695-.42l-.686-10.765c1.419-.751 2.686-1.575 3.767-2.484 1.028-.868 1.891-1.822 2.512-2.9.629-1.077 1.005-2.296 1.005-3.564 0-.766-.145-1.532-.407-2.285 4.169-.101 8.2-1.143 7.423-2.393z" fill="#740806"/><path d="M169.056 65.725s-5.525-12.119-14.257-19.96l22.347-18.604c-.001 0 10.623 21.812-8.09 38.564zM56.198 28.512c-1.7 5.119-7.433 22.878 8.579 37.213 0 0 3.494-8.466 7.776-14.431z" fill="#fffcc8"/><path d="M105.858 53.983s-10.426-9.891-9.327-18.149l8.257-2.257c-1.069 5.97 1.07 20.406 1.07 20.406z" fill="#f28a1c"/><path d="M103.455 84.547a26.65 26.65 0 0 0-.131-1.593c-1.014-9.567-6.887-16.842-13.62-16.523-7.1.336-12.462 8.995-11.972 19.337.393 8.237 4.38 15.042 9.574 17.308 1.327.58 2.731.877 4.177.809a8.977 8.977 0 0 0 1.306-.158c6.442-1.264 11.126-9.481 10.666-19.18z" fill="#fff"/><path d="M79.011 61.86a20.669 20.669 0 0 1 3.585-3.467c6.087-4.579 13.361-2.992 17.791 2.301.493.588 1.316-.177 1.029-.951-1.721-4.638-5.167-10.826-11.242-10.481-6.627.375-10.35 7.067-12.155 11.762-.306.796.484 1.462.992.836zM130.19 67.372a13.204 13.204 0 0 1-1.374-2.809c-4.492 3.815-7.345 10.576-7.045 18.188.06 1.531.249 3.016.545 4.443a25.449 25.449 0 0 1-.151-1.933c-.311-7.844 3.01-14.719 8.025-17.889zM153.447 81.492c-.188-4.721-1.57-9.012-3.723-12.425a11.288 11.288 0 0 1-2.816 2.181c2.546 3.323 4.212 7.826 4.412 12.853.281 7.06-2.389 13.327-6.582 16.824 3.044-1.927 5.51-5.113 7.035-9.037 1.202-3.094 1.822-6.643 1.674-10.396z" fill="#740806"/><path d="M146.591 70.826c-1.594.764-3.462 1.217-5.615 1.238-4.761.048-8.191-2.009-10.286-4.986-5.292 3.019-8.846 10.082-8.526 18.183.026.654.078 1.298.151 1.933.592 5.075 2.68 9.496 5.623 12.508 2.649 2.711 5.989 4.281 9.567 4.14 2.679-.107 5.142-1.174 7.232-2.918 4.192-3.496 6.862-9.764 6.582-16.824-.207-5.237-1.999-9.918-4.728-13.274z" fill="#fff"/><g fill="#740806"><path d="M77.733 85.768c-.49-10.342 4.872-19.001 11.972-19.337 6.733-.319 12.606 6.956 13.62 16.523l-.003-.212c-.527-11.088-7.127-19.785-14.741-19.424-7.616.361-13.362 9.645-12.836 20.733.278 5.865 2.265 11.043 5.193 14.583 1.817 2.198 3.996 3.756 6.369 4.442-5.195-2.265-9.182-9.071-9.574-17.308zM153.172 64.377c-6.021 5.373-15.132 6.268-22.112.426a24.57 24.57 0 0 1-4.029-4.3c-.556-.759-1.599-.112-1.31.813 1.708 5.457 5.554 13.371 13.657 14.588 7.429 1.116 12.336-5.375 14.955-10.344.436-.828-.492-1.78-1.161-1.183zM144.209 87.796c.414-1.013-.746-1.901-1.685-1.339-3.056 1.916-8.634 4.252-13.528.081-.849-.725-2.105-.012-1.86 1.077.666 2.716 3.034 5.986 8.293 6.173 5.352.221 8.397-4.916 8.78-5.992z"/><path d="M100.206 88.383c.414-1.013-.746-1.901-1.685-1.339-3.056 1.916-8.634 4.252-13.528.081-.849-.725-2.105-.012-1.86 1.077.666 2.716 3.034 5.986 8.293 6.173 5.352.221 8.396-4.916 8.78-5.992z"/></g><path d="M147.794 53.829a5.347 5.347 0 0 1-10.633 1.131c-.312-2.936 3.734-15.452 3.734-15.452s6.587 11.385 6.899 14.321zM168.206 73.882a5.347 5.347 0 0 1-10.633 1.131c-.312-2.936 3.734-15.452 3.734-15.452s6.587 11.385 6.899 14.321z" fill="#fff"/><g><path d="M111.819 95.247c-30.159 0-7.507 12.816 0 12.816s30.159-12.816 0-12.816z" fill="#e93e8f"/><path d="M107.77 98.458c-.699-.327-1.661-.529-2.723-.529-1.371 0-2.572.337-3.26.844-.385.283-.61.619-.61.981 0 1.008 1.733 1.824 3.87 1.824s3.87-.817 3.87-1.824c0-.507-.439-.965-1.147-1.296z" fill="#fff"/></g><g fill="#e93e8f"><path d="M86.217 99.468c0-1.782-4.253-3.227-9.499-3.227-5.247 0-9.501 1.445-9.501 3.227 0 1.781 4.253 3.226 9.501 3.226 5.246 0 9.499-1.445 9.499-3.226zM161.425 99.468c0-1.782-4.253-3.227-9.499-3.227-5.247 0-9.501 1.445-9.501 3.227 0 1.781 4.253 3.226 9.501 3.226 5.246 0 9.499-1.445 9.499-3.226z"/></g><path d="M187.338 108.009c-.824-3.889-2.886-10.084-5.455-17.132-2.463-6.749-5.387-14.236-8.11-21.034 4.568-4.931 7.644-9.87 9.57-14.64 2.02-5.001 2.792-9.811 2.791-14.207-.001-6.923-1.899-12.812-3.79-16.977-1.893-4.167-3.783-6.619-3.835-6.687l-.81-1.048-34.318 20.278c-9.541-3.622-18.444-5.074-26.523-5.073-10.264 0-19.194 2.315-26.49 5.347l-34.78-20.552-.81 1.048c-.052.068-1.942 2.52-3.834 6.687-1.89 4.165-3.788 10.054-3.789 16.976-.001 4.417.778 9.251 2.82 14.277 1.943 4.786 5.046 9.741 9.651 14.688-3.168 7.169-6.662 15.378-9.415 22.655-1.434 3.792-2.667 7.326-3.549 10.344-.441 1.509-.795 2.889-1.042 4.119-.246 1.232-.39 2.306-.392 3.255 0 .155.005.308.014.459h-.001l.001.01.001.018h.001c.008.154.022.327.052.516h-.002l.004.02.001.008h.001c.038.242.087.496.189.78.449 1.248 1.079 2.266 1.93 2.997a4.543 4.543 0 0 0 2.992 1.12c.249 0 .494-.028.738-.064-.015.316-.039.633-.039.946 0 1.393.149 2.762.516 4.061.366 1.298.958 2.531 1.833 3.602.639.783 1.33 1.4 2.088 1.833.754.433 1.584.672 2.412.67a4.615 4.615 0 0 0 2.113-.529c3.612 5.237 8.488 9.622 13.832 13.27 8.683 5.923 18.577 9.948 26.317 12.514 7.74 2.564 13.325 3.662 13.37 3.671l.238.047.241-.031c.06-.009 11.512-1.472 24.795-5.926 6.643-2.229 13.746-5.204 20.126-9.152 6-3.716 11.355-8.312 15.039-13.993.334.079.676.13 1.024.129.828.002 1.659-.237 2.414-.67.758-.433 1.45-1.051 2.09-1.835.875-1.071 1.466-2.304 1.832-3.602.367-1.3.516-2.669.516-4.062 0-.313-.024-.63-.039-.945.244.036.489.064.737.064a4.543 4.543 0 0 0 2.992-1.12c.851-.732 1.482-1.75 1.931-2.998.158-.455.185-.852.188-1.276-.003-.809-.143-1.735-.377-2.856zM75.075 137.216c-5.342-3.716-10.084-8.151-13.354-13.342l-.986-1.565-1.327 1.288c-.563.538-1.031.71-1.451.712-.266-.002-.557-.068-.925-.275-.364-.207-.795-.566-1.251-1.125-.58-.711-.995-1.55-1.27-2.521-.274-.969-.403-2.067-.403-3.245 0-.95.083-1.952.233-2.974l.474-3.236-2.761 1.752c-.66.419-1.227.578-1.644.576-.395-.008-.686-.105-1.039-.397-.346-.295-.739-.839-1.06-1.735l-.001-.002a1.589 1.589 0 0 1-.05-.24l-.002-.013-.003-.015a1.672 1.672 0 0 1-.018-.201l-.001-.016-.001-.012a4.479 4.479 0 0 1-.009-.298c-.002-.632.109-1.554.333-2.664.781-3.908 2.912-10.097 5.555-16.847 2.644-6.76 5.801-14.122 8.651-20.547l.409-.922-.699-.727c-4.762-4.949-7.832-9.83-9.721-14.482-1.888-4.652-2.599-9.082-2.599-13.149-.001-6.367 1.756-11.851 3.521-15.736a38.957 38.957 0 0 1 2.418-4.528c.114-.182.211-.329.31-.48l33.739 19.937.699-.299c7.12-3.046 15.89-5.399 26.017-5.399 2.477 0 5.046.161 7.683.467 5.788.672 11.943 2.122 18.449 4.655l.68.265 33.214-19.626a38.078 38.078 0 0 1 2.81 5.192c1.737 3.874 3.44 9.286 3.439 15.554-.001 4.048-.705 8.455-2.573 13.084-1.87 4.628-4.907 9.484-9.615 14.409l-.668.699.36.897c3.215 8.006 6.756 17.084 9.485 24.76 1.365 3.837 2.526 7.324 3.34 10.134.407 1.404.726 2.639.939 3.65.215 1.006.316 1.805.313 2.238 0 .111-.006.195-.012.243l-.006.034c-.32.885-.71 1.427-1.054 1.72-.353.293-.644.39-1.039.398-.417.002-.984-.156-1.643-.576l-2.761-1.753.473 3.236c.15 1.022.233 2.023.233 2.973 0 1.178-.129 2.277-.403 3.246-.275.971-.689 1.81-1.269 2.522-.456.56-.888.919-1.253 1.126-.368.208-.66.274-.927.276-.272-.002-.543-.071-.863-.256l-1.284-.75-.761 1.278c-3.339 5.613-8.625 10.262-14.734 14.041-2.207 1.367-4.523 2.613-6.882 3.758-.31.151-.623.292-.935.439-.718.338-1.44.664-2.164.983-.47.207-.937.415-1.408.614-6.031 2.545-12.131 4.449-17.381 5.809a149.115 149.115 0 0 1-10.738 2.369 112.708 112.708 0 0 1-3.94.643l-.033.005c-1.181-.245-7.149-1.55-14.803-4.222a125.572 125.572 0 0 1-7.187-2.75c-5.595-2.344-11.526-5.34-16.866-9.057z" fill="#740806"/><path d="M104.104 37.624s-2.154.094-3.341 1.374c-1.061 1.143-1.635 5.09 2.672 5.482 5.52.503 15.963-5.426 14.881-10.655-.603-.36-19.379-13.362-22.344-6.284-1.034 2.468.113 5.292 1.96 6.994 2.507 2.312 6.172 3.089 6.172 3.089z" fill="#fbb807"/><path d="M113.829 40.977c-2.987 2.083-6.851 3.534-9.71 3.534-.236 0-.465-.01-.686-.03-4.307-.392-3.732-4.339-2.671-5.482 1.188-1.279 3.341-1.374 3.341-1.374s-3.665-.778-6.173-3.089c-1.847-1.702-2.993-4.527-1.96-6.995.633-1.509 1.984-2.105 3.726-2.105 6.423 0 18.251 8.838 18.726 9.121 0 0 2.799-.226 2.58-1.287l-.245-1.181-1.035-.619-.201-.134c-5.966-3.943-14.247-8.644-19.824-8.644-4.063 0-5.663 2.375-6.257 3.79-1.597 3.812.172 7.805 2.632 10.072a13.537 13.537 0 0 0 2.004 1.516c-.802 1.422-1.152 3.463-.422 5.368.825 2.155 2.842 3.531 5.531 3.776.301.027.615.041.935.041 3.716-.001 10.13-5.431 9.709-6.278z" fill="#740806"/></g></g></svg>