<svg id="Layer_3" enable-background="new 0 0 1000 1000" height="1000" viewBox="0 0 1000 1000" width="1000" xmlns="http://www.w3.org/2000/svg"><g><path d="m798.8 444.2c-16.4 32.8-19.1 61-16.4 91s-34.2 267-143.6 308.2-314 25.7-324.3 23.2c-10.3-2.6-43.5 27.1-72.6 12.5s-131-62.8-171.1-68.2c-40-5.5-100.1-69.2-.9-71 24.4-.4 47.6 2.3 68.6 6.7l-15.8-6.1s23.2-51.5 54.7-85.6 31.5-34.1 31.5-34.1 3.8 3.5 10.4 8.7c-57.1-53-67.6-138-67.6-138s-100.1-91-104.6-123.7c0 0 121.9-45.5 145.6-33.7 0 0 120.5-108 184.4-81.3 0 0 55.8-120.7 62.1-120.7 6.4 0 93.5 90.2 89.1 157 0 0 82 72.3 86.5 139.6 0 0-1.2 3.7-3.1 9.8 15.2-32.2 38.3-63.2 73.1-88.1 0 0-5.5-166.5 11.8-202s57.3-51 76.4 6.4c19.5 57.4 42.2 256.7 25.8 289.4z" fill="#ffc363"/><path d="m935.4 775.2c-96.5 111.9-292.1 69.5-292.1 69.5 17.1-9.6 34.8-24.3 52.8-42.5 188.5 0 187.9-141.5 192.4-203.9s22.5-59.8 55.3-56.6 88.1 121.6-8.4 233.5zm-925 53c-.9 12.7 69.6 45 118.7 4.1l-91.4-32.8s-26.3 15.9-27.3 28.7zm335.7-156.4c-1.3.2-2.7.5-4 .8-33.1 5.8-67.3-8.1-92.7-22.9l-8.5-3.1-17.8-14.4c-8.8-6.6-14-11.4-14-11.4l-31.5 34.1c-14.7 15.9-27.4 35.4-36.9 51.8l-17.7 33.7 64.3 18.7 23.9-39.2 56.9-29.6 72.8 2.3 14.4.9-1.9-20.9z" fill="#fea142"/><path d="m635.1 747.2c-49.1 78.2-130.1 74.6-165.6 66.4s-127.4-141-127.4-141 124.7-38.9 134-42.1 40.3 10.7 48.9 9.8 14.5-42.6 14.5-42.6l44.7-36.7 5.9 70.7c76.8 48.2 45 115.5 45 115.5zm-469.5-288c6.9-24.1 9.5-48.2 24.1-72.3 0 0-89.2-2.7-104.6-5.9 0 0 6.8 51.9 80.5 78.2z" fill="#f9eba5"/><path d="m342.9 414.3c5.1 14.2-10.3 19.9-14.8 12.2s-98.4-122.9-98.4-122.9 14.2-22.5 31.5-16.7c17.4 5.8 76.5 113.3 81.7 127.4zm-.4-155.7-47.8 12.7s116.5 128.3 119.6 160.6c3.2 32.3 23.2 32.8 33.7 32.8s13.2-28.7-27.3-105.1-78.2-101-78.2-101zm84.2 2.3-31.4-4.1s45.9 76 47.8 85.5c1.8 9.6 12.7 30.5 25.5 25.9 12.7-4.5 2.2-53.2-41.9-107.3z" fill="#dc8b4a"/><path d="m526.9 636.9c-21.9 14.8-65-26.4-65-26.4l32.6-33.5 38.8 2.6c2.6 4.6 15.5 42.5-6.4 57.3z" fill="#f45175"/><path d="m983.9 579.6c-10-24.9-25.5-41.9-39.5-43.3l-1.2-.1c-6.5-.6-12.7-1.3-18.3-1.3-27.4 0-38.4 16.5-41.7 63-.2 3.1-.4 6.3-.7 9.8-4.2 65.1-11.9 185.3-178.2 189 24.4-32.8 41.9-74.1 53.7-109.9 22.3-67.2 31.5-135.8 30-152.1-3-33.5 1.7-59.8 15.8-88.1 11.1-22.3 4.5-104.2 1.1-138.4-6.4-64.7-17-127-26.3-155.1-11-33-27.7-40.9-39.8-41.7-17.5-1.2-35.8 12.5-46.6 34.7-16.6 34.1-13.1 178.5-12.5 201.6-25.4 18.6-46.2 41.7-62.2 68.9-15.7-54.3-41.6-88.9-61.1-108.8-8.1-8.3-15.8-14.7-22.3-19.5-1.2-43.3-23.4-83.2-41.9-109.1-20.2-28.3-42.7-49.3-49.7-53.1-2.5-1.4-4.7-1.5-6.7-.3s-3.4 2-33.9 64.1c-12.1 24.6-24 49.3-28 57.6-17.2.4-33.7 2.3-49.5 5.6-30.1 6.3-57.6 17.9-81.6 34.4-21.6 14.8-36.5 30.8-45.8 42.9-.6-.7-1.4-1.2-2.3-1.5-37.9-12.3-144.8 31.9-149.3 33.8-1.3.6-2.4 1.6-3 3-.5 1.3-.5 2.9.1 4.2 27.2 62.9 92.5 115.3 104.6 124.5 1.1 7.6 5.6 32.7 17.8 62.3 10 24.4 22.8 45.5 38 62.9-6.6 6.8-24.5 25.7-42 46.6-37.6 45-42.9 63.3-43.3 71.1-15-2.1-30.9-3.2-47.4-2.9-47.7.9-58.6 16-59.4 28.5-.6 10.7 6.6 23.2 19.9 34.3.1.1.2.1.3.2-8.5 5.7-24.8 18.1-25.7 30.2-.6 7.8 9 14.4 17.1 18.6 14.2 7.3 32.2 11.4 49.5 11.4h.6c22.9-.1 43.8-7.5 60.4-21.3.1-.1.2-.2.3-.3 41 16.3 86.8 38 106.6 47.9 6.6 3.3 13.4 4.6 20 4.6 15 0 29.4-6.7 40-11.6 5-2.3 11.8-5.4 13.7-5.2 6.4 1.6 61.5 5.9 126.4 5 59.4-.9 142.2-6.4 200.2-28 .7.6 1.5 1 2.4 1.2 1.5.3 37.5 8 86.7 8 64.9 0 154.2-13.8 210.7-79.3 29.3-34 47.2-71.1 53.3-110.2 4.4-30.8 1.2-62.4-9.3-88.8zm-826.6-88.7c0-.1 0-.2 0-.2-.1-.3-.1-.6-.2-.9-.1-.3-.3-.6-.4-.9-.2-.3-.4-.6-.6-.8 0 0 0 0-.1-.1-.2-.3-.5-.5-.7-.7-.7-.5-70.9-53.4-100.6-116.5 33.1-13.3 108.7-39.7 136-31.6-4.1 6-6 9.9-6.3 10.3-1.4 2.7-.3 6 2.4 7.3.8.4 1.6.6 2.4.6 2 0 3.9-1.1 4.9-3 .2-.3 16.1-31.2 54.8-57.8 36-24.7 99.4-50.2 197.3-32 3 .5 5.8-1.4 6.3-4.3.6-3-1.4-5.8-4.3-6.3-21.5-4-42.3-6.1-62.2-6.4 19-39.3 45.9-94.4 54.3-109.5 7.5 6 25.1 23 42.3 46.8 16.7 23.2 36.6 58.1 40.1 96-5.3-3.2-8.6-4.7-8.9-4.9-2.7-1.2-5.9 0-7.2 2.8-1.2 2.7 0 6 2.7 7.2.2.1 18.3 8.4 39.7 30.2 16.7 17.1 38.4 45.8 53.5 89.6-7 10.5-42.4 64.2-43.8 81.9-.2 3 2 5.6 5 5.8h.4c2.8 0 5.2-2.2 5.4-5 .8-10.6 21.4-45.2 37.2-69.5 1.1 3.7 2.1 7.4 3.1 11.3 0 .1.1.3.1.4-.3.6-.6 1.2-.9 1.9-9 18.2-16 38.1-20.9 59.3-.7.4-1.4.9-2.2 1.4-7.7 4.9-15.6 9.9-18.9 13.4-2.1 2.2-2 5.6.2 7.7 1.1 1 2.4 1.5 3.7 1.5 1.4 0 2.9-.6 3.9-1.7 1.7-1.8 6-4.7 10.1-7.4-1.2 6.5-2.2 13.1-3 19.7-1.3 11.1-2.1 21.8-2.4 31.8-.1.2-.2.4-.3.6-4.6 9.5-24.8 23.4-36.9 31-.5-2-1-3.8-1.5-5.4 9.7-5.3 15-25.5 16.4-31.6.7-2.9-1.1-5.8-4.1-6.5-2.9-.7-5.8 1.1-6.5 4.1-3 12.7-8.5 23.7-11.2 24.6-12.4-5.5-39.3-3.9-43.7-1.9-2.1.9-4.5 3.4-13.7 13.5-6.7 7.3-15 16.4-19.6 20s-20.4 1.4-29.5-1.3c-2.9-.8-5.9.8-6.7 3.7s.8 5.9 3.7 6.7 13.2 3.6 23.1 3.6c4.3 0 8.4-.5 12-1.9 2.5 2.3 6.4 5.6 11.1 9.2-56.2 27.6-106 40.7-149 39.3 11.8-7.1 23.1-13.4 25.9-14 3-.6 4.9-3.4 4.3-6.4s-3.4-4.9-6.4-4.3c-7.2 1.4-32.6 17.2-40.2 22-.5.3-1 .8-1.4 1.2-18.6-2.5-35.8-8-51.5-16.5-1.7-.9-3.3-1.8-4.9-2.8 24.5-6.5 69-16.4 86.9-11.4 2.9.8 5.9-.9 6.7-3.8s-.9-5.9-3.8-6.7c-26.6-7.4-93.1 11.4-101.9 13.9-9.5-7-17.8-14.8-25.2-23.1 28.1-3.4 111.1-12.1 136.3-1.4 2.8 1.2 6-.1 7.1-2.9 1.2-2.8-.1-6-2.9-7.1-30.7-12.9-130.6-.8-148.7 1.5-13.2-17.2-22.5-35.4-28.9-50.9-13.5-33.7-17.1-62-17.2-62.4zm312.8 119.7c4.9-4.7 10.8-11.1 16.1-17 3.8-4.2 8.5-9.3 10.3-10.9 4.4-.9 23.4-1.7 32.8 1.3 3 7.6 11.3 37.1-5.5 48.5-13.1 8.8-40.5-10.5-53.7-21.9zm-427.9 232c-16.7-4.9-25.2-12-26.3-14.3.9-6.8 14.5-17.8 24.3-23.8 9.8 6.3 20.5 10.6 30.1 11.9 12.1 1.7 30.5 7.5 51 15.3-30.4 21.8-65.1 15-79.1 10.9zm281.7 19.7c5.3-4.9 12-11.9 14.3-17.3 1.2-2.8-.1-6-2.9-7.1-2.8-1.2-6 .1-7.1 2.9-2.1 4.9-12.3 14.4-18.2 19.3-.6.5-1 1-1.3 1.6-3.9 1-8.3 3-13.7 5.5-14.2 6.6-33.7 15.6-50.6 7.1-34.6-17.3-133-63.3-172.7-68.8-23-3.1-51.1-26.6-50.2-41.8.7-11.1 18.4-17.8 48.7-18.3 96.2-1.8 173.6 47.8 174.3 48.2 2.5 1.6 5.9.9 7.5-1.6s.9-5.9-1.6-7.5c-.8-.5-20.4-13.2-52.5-25.8-1.4-.5-2.8-1.1-4.3-1.7 13.4-38.5 46.2-59.6 97.4-62.8 40.5-2.5 77.7 7.6 78.1 7.7 2.9.8 5.9-.9 6.7-3.8s-.9-5.9-3.8-6.7c-1.6-.4-39.2-10.7-81.4-8.1-55.4 3.4-92.4 27.6-107.2 70-15.6-5.4-34.3-10.6-55.1-14.3-.7-19.4 48.3-77 81.7-111.4 11.8 12 24.8 21.9 38.8 29.5 24 12.9 51 19.4 80.9 19.4 43.6 0 93.4-13.8 148.8-41.2 1.2-.6 2.1-1.6 2.6-2.8 10.5 6.9 23.2 13 34.6 13 5.1 0 10-1.2 14.3-4.1 13.9-9.4 16-26.2 14.4-40.3 6.4-3.8 23.5-14.5 35-25.6.4 33.3 5 55.9 5.3 57.3.6 2.9 3.5 4.8 6.4 4.2s4.8-3.5 4.2-6.4c-.1-.5-9.4-46.2-2.5-103 1.1-9.4 2.8-19.5 5.1-30 .7-.9.9-1.9.7-3.2 10.9-46.8 35.6-100.8 89.6-139.4 1.5-1.1 2.3-2.8 2.3-4.6-.1-1.7-5.2-165.5 11.3-199.4 8.7-18 23.2-29.4 36.1-28.6 12.4.8 23.1 13 30.2 34.3 20.1 60.4 40.5 255.7 25.8 285.2-15.1 30.2-20.2 58.3-16.9 93.9 1.2 12.7-6.2 77.3-29.5 147.7-19.6 59-54.6 133.8-110.6 154.9-97.8 36.8-272.9 27.6-313 23.9zm607.4-90.6c-53.8 62.4-139.8 75.5-202.4 75.5-30.2 0-55.8-3.1-70.6-5.4 12.6-8.6 25.8-19.8 40.1-34.1 78.2-.5 133.3-25.6 163.8-74.8 25.7-41.4 28.9-91.4 31-124.5.2-3.4.4-6.6.6-9.7 3.5-49.1 15-52.9 30.9-52.9 5.1 0 10.7.6 17.3 1.2l1.2.1c8 .8 20.9 12.5 30.5 36.5 18.4 45.9 16.9 119.3-42.4 188.1zm-736.8-387.4c-.9-1.7-2.7-2.8-4.6-2.8-30.7-.9-91.8-3.4-103.7-5.8-1.7-.4-3.5.1-4.8 1.3s-1.9 2.9-1.7 4.7c.3 2.3 8.1 55.5 84.1 82.7.6.2 1.2.3 1.8.3.9 0 1.7-.2 2.5-.6 1.3-.7 2.3-1.9 2.7-3.3 1.8-6.4 3.4-12.9 4.9-19.2 4.3-17.9 8.3-34.7 18.6-51.8 1-1.7 1.1-3.8.2-5.5zm-29.4 54.7c-1 4.3-2.1 8.7-3.2 13.1-32.8-12.9-50.3-31.1-59.3-44.3-5.5-8-8.6-15.3-10.2-20.3 21.3 2.2 68.5 3.9 88.3 4.6-8.1 15.8-11.9 31.6-15.6 46.9zm288.2 123c-.6-2.4.6-5 2.8-6.1 11.4-5.8 29.6-15.5 33.5-18.8 2.9-2.5 5-3.9 7.5-3.9 2.8 0 5.2 2 5.7 4.8.3 1.8.8 4.2-7.5 15.4-7.8 10.7-10.5 11.7-11.5 12-1.5.6-4.1 1.1-12.5 1.1-3.6 0-8.1-.1-12.6-.3h-.2c-2.6-.1-4.7-1.8-5.2-4.2zm-153.5 8.1c-1.2-2.8.2-6 2.9-7.1 2-.8 49-20.1 105-9.4 3 .6 4.9 3.4 4.3 6.4s-3.4 4.9-6.4 4.3c-52.7-10-98.3 8.6-98.8 8.8-.7.3-1.4.4-2.1.4-2-.1-4.1-1.3-4.9-3.4zm197.9-64c1.3-30.9 49.8-96.1 51.9-98.9 1.8-2.4 5.2-2.9 7.6-1.1s2.9 5.2 1.1 7.6c-13.5 18.1-48.8 69.9-49.7 92.8-.1 2.9-2.5 5.2-5.4 5.2-.1 0-.2 0-.2 0-3.1-.1-5.5-2.6-5.3-5.6z" fill="#89191a"/></g></svg>