<svg id="Layer_1" height="512" viewBox="0 0 128 128" width="512" xmlns="http://www.w3.org/2000/svg" data-name="Layer 1"><path d="m84.217 73.206a63.775 63.775 0 0 1 -14.842 2.8c2.281 8.667 7.651 16.755 9.246 19.034a2.505 2.505 0 0 1 .454 1.437v18.223s-2.964.11-2.964 4.96 9.741 1.225 9.741 1.225 3.435-22.924 3.386-23.252c-.367-2.445-1.75-13.808 3.04-20.275 1.301-1.758-5.278-5.058-8.061-4.152z" fill="#f5d8af"/><path d="m79.588 123.178a5.509 5.509 0 0 1 -3.133-.774 3.162 3.162 0 0 1 -1.344-2.746c0-3.912 1.8-5.259 2.964-5.72v-17.459a1.505 1.505 0 0 0 -.273-.863c-1.617-2.311-7.073-10.537-9.394-19.352a1 1 0 0 1 .888-1.252 62.36 62.36 0 0 0 14.61-2.756c2.626-.851 7.556 1.162 9.042 3.226a1.977 1.977 0 0 1 .132 2.47c-4.58 6.179-3.18 17.354-2.853 19.53.028.191.071.478-3.387 23.55a1 1 0 0 1 -.64.789 21.885 21.885 0 0 1 -6.612 1.357zm-8.924-46.278a66.606 66.606 0 0 0 8.776 17.57 3.487 3.487 0 0 1 .635 2.009v18.221a1 1 0 0 1 -.963 1c-.185.017-2 .275-2 3.961a1.182 1.182 0 0 0 .484 1.1c1.34.931 5 .172 7.357-.62 1.3-8.666 3.152-21.2 3.281-22.467-.494-3.369-1.621-14.275 3.2-20.854a3.745 3.745 0 0 0 -1.424-1.265c-1.841-1.125-4.349-1.772-5.48-1.4a62.84 62.84 0 0 1 -13.866 2.745z" fill="#4d4d4d"/><path d="m109.848 36.671c-3.927-9.356-20.237-9.06-20.237-9.06h-28.681s-37.43-7.546-42.568 13.282-5.616 22.891 1.206 36.843c5.32 10.88 7.338 37.544 7.338 37.544s-6.581 2.9-3.554 6.822 12 1.031 12-2.292c0-1.6-.088-43.5-.088-43.5h12.679l3.312 19.183-1.2 20.292s-4.541 1.557-5.133 3.926c-1.316 5.287 6.647 3.62 9.06 2.709s5.44-5.133 6.943-14.192 0-31.918 0-31.918c14.467.233 23.252-3.1 23.252-3.1 1.945 7.441 10.7 21.772 10.7 21.772l.167 21.585s-3.294.121-3.324 5.561c-.028 5.307 9.663 1.5 9.663 1.5l5.134-25.666s-2.717-15.093 3.331-23.242 3.927-28.693 0-38.049z" fill="#f5d8af"/><path d="m85.526 68.682a6.3 6.3 0 0 0 -3.92-2.58 18.384 18.384 0 0 0 -4.8-.35q-9.12.12-18.25.25c-1.36.01-2.91-.05-3.81-1.08a5.262 5.262 0 0 1 -.84-3.29c-.38-6.14.88-14.92-3.8-18.92 0 0-28.921-22.421-31.011 0s5.141 24.47 9.791 31c4.31 6.06 1.86 12.27 6.44 18.93a.037.037 0 0 0 .01.03c-.01-8.18-.03-15.28-.03-16.26a.815.815 0 0 1 -.01-.1h12.68l3.31 19.18c0-.01.01-.01.01-.02 2.97-6.49 1.246-11.218 1.19-16.05-.041-3.527 2.83-3.11 2.83-3.11h5.784c7.81-.01 10.326.057 23.2-2.81a5.729 5.729 0 0 0 1.06-.32 3.871 3.871 0 0 0 .166-4.5z" fill="#f2f2f2"/><path d="m110.37 37.917s6.207-24.146-4.829-26.649c-7.252-1.645-11.041 1.532-12.673 3.389a2.814 2.814 0 0 1 -4.018.343c-1.33-1.261-1.732-3.64 2.891-8.013 8.508-8.048 22.091-2.274 25.311 3.024s7.885 20.209-3.683 42.288" fill="#f5d8af"/><path d="m113.368 53.3a.99.99 0 0 1 -.463-.114 1 1 0 0 1 -.422-1.35c12.7-24.235 5.322-38.659 3.714-41.3-1.537-2.536-6.173-5.628-11.739-6.375a14.27 14.27 0 0 0 -12.03 3.551c-2.866 2.711-3.468 4.363-3.468 5.271a1.685 1.685 0 0 0 .578 1.288 1.53 1.53 0 0 0 1.162.418 2.025 2.025 0 0 0 1.418-.689c2.277-2.584 6.493-5.324 13.644-3.7a7.921 7.921 0 0 1 5.135 3.775c4.617 7.564.614 23.427.442 24.1a1 1 0 1 1 -1.938-.5c.041-.156 3.967-15.717-.212-22.56a5.9 5.9 0 0 0 -3.869-2.865c-6.2-1.408-9.782.9-11.7 3.075a4.033 4.033 0 0 1 -2.828 1.37 3.542 3.542 0 0 1 -2.628-.965 3.7 3.7 0 0 1 -1.2-2.741c0-1.919 1.34-4.118 4.094-6.723a16.207 16.207 0 0 1 13.671-4.08c5.513.74 11.057 3.815 13.181 7.31 1.706 2.807 9.545 18.084-3.651 43.272a1 1 0 0 1 -.891.532z" fill="#4d4d4d"/><path d="m95.293 126a7.493 7.493 0 0 1 -1.2-.088 3.716 3.716 0 0 1 -3.331-3.753c-.152-4.469 2-5.913 3.312-6.377-.073-7.815-.192-18.807-.253-20.582a96.759 96.759 0 0 1 -10.2-20.758 61.184 61.184 0 0 1 -21.588 2.958c.333 5.637 1.22 23.2-.08 31a41.5 41.5 0 0 1 -1.837 7.3c-.017.049-1.939 5.332-5.563 7.579-1.8 1.119-6.237 1.463-8.623.67a3.721 3.721 0 0 1 -2.091-2.759 3.929 3.929 0 0 1 1.533-3.855 13.162 13.162 0 0 1 3.763-2.247l1.157-19.547-3.148-18.241h-10.836v2.079c.006 3.014.017 7.919.024 13.291.01 4.021.025 8.306.039 12.255.031 8.859.049 14.32.019 14.926a3.846 3.846 0 0 1 -1.124 2.419 10.816 10.816 0 0 1 -7.8 2.707 6.309 6.309 0 0 1 -4.88-2.267 4.066 4.066 0 0 1 -.631-4.356 8.928 8.928 0 0 1 3.915-3.656c-.309-3.113-1.784-17.649-3.181-23.193a141.051 141.051 0 0 0 -4.668-14.162c-2.64-7.153-4.923-13.333-4.452-17.775 0-.038 0-.081 0-.1.036-.353.916-8.672 2.181-11.956a27.05 27.05 0 0 0 1.07-4.15c.178-.867.363-1.77.592-2.7.888-3.562 20.075-14.791 21.232-14.933a79.038 79.038 0 0 1 22.42.882h28.593c.675-.009 17.007-.2 21.152 9.674 3.7 8.839 6.464 30.371-.126 39.032-1.876 2.466-3.058 7.176-3.337 9.071a47.641 47.641 0 0 0 .195 13.4 1 1 0 0 1 0 .373l-5.13 25.639a1.008 1.008 0 0 1 -.607.757 20.435 20.435 0 0 1 -6.511 1.443zm-11-53.813c.638 0 .883.67 1.182 1.488a94.312 94.312 0 0 0 10.158 20.625c.238.349.252.37.453 22.255a1 1 0 0 1 -.964 1.008c-.243.017-2.5.3-2.356 4.527a1.754 1.754 0 0 0 1.64 1.846c2.033.323 4.983-.623 6.147-1.041l4.987-24.946a48.883 48.883 0 0 1 -.172-13.851c.24-1.639 1.442-6.993 3.723-9.991 5.663-7.442 3.827-27.6-.127-37.047-3.62-8.624-19.14-8.445-19.289-8.448h-28.709a1.087 1.087 0 0 1 -.2-.019 78.754 78.754 0 0 0 -21.785-.89c-2.455.979-19.008 11.25-19.617 13.439-.223.9-.4 1.781-.576 2.625a28.48 28.48 0 0 1 -1.163 4.465c-1.128 2.927-1.984 10.752-2.054 11.4v.108c-.44 3.976 1.88 10.258 4.335 16.91a142.282 142.282 0 0 1 4.731 14.367c1.6 6.356 3.228 23.446 3.3 24.17v.1a1 1 0 0 1 -.594.914c-.776.346-2.925 1.552-3.553 2.962a2.057 2.057 0 0 0 .353 2.277 4.516 4.516 0 0 0 3.436 1.536 8.916 8.916 0 0 0 6.262-2.108 1.919 1.919 0 0 0 .556-1.12c.03-.584.005-7.5-.021-14.82-.014-3.951-.029-8.236-.039-12.258-.007-5.373-.018-10.278-.024-13.29l-.006-2.974a1.1 1.1 0 0 1 1-1.11h12.68a1 1 0 0 1 .985.83l3.309 19.174a.96.96 0 0 1 .015.17l-1.2 20.369a1 1 0 0 1 -.671.887 12.5 12.5 0 0 0 -3.725 2.094 2.074 2.074 0 0 0 -.91 1.894 1.985 1.985 0 0 0 .785 1.332c1.928.639 5.72.27 6.926-.476 2.988-1.853 4.718-6.511 4.735-6.557a39.616 39.616 0 0 0 1.746-6.948c1.4-8.367.141-29.257-.007-31.612 0-.021-.007-.123-.007-.144a1.039 1.039 0 0 1 1.144-1c1 .121 10.133 1.057 22.8-3.061a1.232 1.232 0 0 1 .377-.063z" fill="#4d4d4d"/><path d="m52.176 11.6c-4.689-3.56-12.455-3.56-12.455-3.56h-6.391s-7.766 0-12.455 3.557-7.034 15.932-5.129 22.737 6.786 9.746 8.838 13.149c2.1 9.589 14.691 20.99 23.956 1.659 2.051-3.4 6.86-8 8.765-14.808s-.44-19.179-5.129-22.734z" fill="#f1d7ad"/><path d="m26.034 52.014a1 1 0 0 1 -.959-.721l-.992-3.4a21.066 21.066 0 0 0 -2.761-3.2c-2.322-2.388-5.214-5.358-6.538-10.093-1.981-7.075.324-19.887 5.487-23.8 4.9-3.717 12.729-3.76 13.06-3.76h6.39c.331 0 8.159.043 13.06 3.761 5.161 3.916 7.467 16.728 5.487 23.8-1.145 4.091-3.952 7.477-6.427 10.463-.763.92-1.484 1.789-2.109 2.623a7.616 7.616 0 0 0 -.924 2.117 8.042 8.042 0 0 1 -.645 1.6 1 1 0 1 1 -1.713-1.033 6.943 6.943 0 0 0 .456-1.191 9.081 9.081 0 0 1 1.226-2.7c.654-.873 1.39-1.761 2.169-2.7 2.348-2.833 5.011-6.044 6.041-9.727 1.908-6.819-.677-18.565-4.77-21.669-4.36-3.297-11.772-3.344-11.851-3.344h-6.39c-.074 0-7.492.047-11.852 3.355-4.093 3.1-6.678 14.85-4.77 21.669 1.187 4.242 3.769 6.893 6.046 9.232a21.776 21.776 0 0 1 3.107 3.671.982.982 0 0 1 .1.237l1.038 3.529a1 1 0 0 1 -.961 1.281z" fill="#4d4d4d"/><path d="m48.622 13.09a2.222 2.222 0 0 1 3.09-2.74 29.157 29.157 0 0 1 8.444 5.958c5.944 6.125 7.134 14.412 3.057 18.711s-.849 9.43-4.246 12.079-6.116-8.964-5.776-16.152c.221-4.684-2.586-12.782-4.569-17.856z" fill="#f5d8af"/><path d="m57.977 48.484a2.393 2.393 0 0 1 -1.11-.281c-3.223-1.669-4.949-11.521-4.675-17.305a27.042 27.042 0 0 0 -1.226-7.758 1 1 0 0 1 1.93-.526 28.876 28.876 0 0 1 1.294 8.378c-.287 6.067 1.663 14.434 3.6 15.436.11.057.247.13.565-.119 1.21-.943 1.347-2.295 1.47-4.424.13-2.25.292-5.051 2.666-7.555 3.749-3.956 2.381-11.73-3.053-17.33a27.881 27.881 0 0 0 -8.153-5.75 2.88 2.88 0 0 0 -1.492-.217 1.016 1.016 0 0 1 -1.28-.6.989.989 0 0 1 .576-1.271 4.593 4.593 0 0 1 3.05.28 29.892 29.892 0 0 1 8.734 6.166c6.275 6.464 7.622 15.291 3.066 20.1-1.871 1.973-2 4.169-2.121 6.293s-.251 4.338-2.236 5.887a2.612 2.612 0 0 1 -1.605.596z" fill="#4d4d4d"/><path d="m24.43 13.09a2.222 2.222 0 0 0 -3.09-2.74 29.157 29.157 0 0 0 -8.44 5.958c-5.95 6.125-7.139 14.412-3.062 18.711s.849 9.43 4.247 12.079 6.115-8.964 5.775-16.152c-.221-4.684 2.586-12.782 4.57-17.856z" fill="#f5d8af"/><path d="m15.075 48.484a2.608 2.608 0 0 1 -1.6-.6c-1.986-1.549-2.113-3.754-2.237-5.886s-.25-4.321-2.121-6.294c-4.555-4.8-3.209-13.632 3.066-20.1a29.86 29.86 0 0 1 8.735-6.166 4.413 4.413 0 0 1 2.969-.328 1 1 0 0 1 -.706 1.871 2.84 2.84 0 0 0 -1.409.266 27.9 27.9 0 0 0 -8.159 5.753c-5.433 5.6-6.8 13.37-3.05 17.326 2.375 2.5 2.537 5.305 2.667 7.555.123 2.129.26 3.481 1.47 4.424.318.249.454.176.565.119 1.934-1 3.883-9.368 3.6-15.436a28.964 28.964 0 0 1 1.294-8.378 1 1 0 0 1 1.93.526 27.1 27.1 0 0 0 -1.23 7.764c.274 5.784-1.451 15.636-4.674 17.305a2.393 2.393 0 0 1 -1.11.279z" fill="#4d4d4d"/><path d="m46.286 29.5a1 1 0 0 1 -.521-.146c-1.925-1.179-2.975-.372-3.089-.275a1.008 1.008 0 0 1 -1.4-.094.989.989 0 0 1 .06-1.387c.088-.08 2.183-1.965 5.475.048a1 1 0 0 1 -.522 1.854z" fill="#4d4d4d"/><path d="m26.766 29.5a1 1 0 0 1 -.475-1.881 6.161 6.161 0 0 1 5.165-.2 1 1 0 0 1 -.829 1.82 4.11 4.11 0 0 0 -3.388.139 1 1 0 0 1 -.473.122z" fill="#4d4d4d"/><path d="m45.973 46.869c-.674-2.14-1.952-3.414-3.363-5.007a12.818 12.818 0 0 1 -2.838-6.4c-.125-.9.234-2.717-.1-3.471-.363-.826-1.357-.815-2.173-.852-.158-.007-1.708 0-2.065.028-.664.046-1.325.183-1.607.824-.331.754.028 2.575-.1 3.471a12.818 12.818 0 0 1 -2.838 6.4c-1.411 1.593-3.307 2.815-3.981 4.955-.678 2.155.338 7.2 1.735 8.83s2.441 2.855 4.378 3.5a10.346 10.346 0 0 0 7.089.007 16.924 16.924 0 0 0 5.008-3.984c1.403-1.635 1.533-6.147.855-8.301z" fill="#f2f2f2"/><path d="m29.345 56.85h-6.345a6.993 6.993 0 0 1 -5.791-2.911 5.475 5.475 0 1 0 -8.689 6.645 1.578 1.578 0 0 1 0 2.051 5.452 5.452 0 0 0 -1.272 3.208 5.643 5.643 0 0 0 5.431 5.8 5.449 5.449 0 0 0 4.338-2.088 8.235 8.235 0 0 1 6.483-3.181h25.877a8.623 8.623 0 0 1 6.582 3.3 5.477 5.477 0 1 0 8.4-7.033 1.578 1.578 0 0 1 0-2.055 5.478 5.478 0 1 0 -8.7-6.634 6.97 6.97 0 0 1 -5.785 2.9h-6.44" fill="#f2f2f2"/><g fill="#4d4d4d"><path d="m12.709 72.639h-.037a6.643 6.643 0 0 1 -6.423-6.852 6.414 6.414 0 0 1 1.5-3.8.579.579 0 0 0 0-.765 6.476 6.476 0 1 1 10.279-7.856 5.971 5.971 0 0 0 4.972 2.485h6.346a1 1 0 0 1 0 2h-6.346a7.965 7.965 0 0 1 -6.615-3.346 4.475 4.475 0 1 0 -7.1 5.436 2.593 2.593 0 0 1 0 3.337 4.422 4.422 0 0 0 -1.039 2.622 4.49 4.49 0 0 0 1.271 3.293 4.431 4.431 0 0 0 3.164 1.448h.026a4.434 4.434 0 0 0 3.521-1.7 9.185 9.185 0 0 1 7.272-3.56h25.877a9.667 9.667 0 0 1 7.351 3.657 4.477 4.477 0 1 0 6.864-5.75 2.589 2.589 0 0 1 0-3.343 4.478 4.478 0 1 0 -7.116-5.421 7.948 7.948 0 0 1 -6.608 3.334h-6.434a1 1 0 0 1 0-2h6.435a5.954 5.954 0 0 0 4.961-2.468 6.478 6.478 0 1 1 10.293 7.843.58.58 0 0 0 0 .766 6.478 6.478 0 1 1 -9.932 8.318 7.57 7.57 0 0 0 -5.812-2.936h-25.879a7.2 7.2 0 0 0 -5.7 2.792 6.418 6.418 0 0 1 -5.091 2.466z"/><path d="m36.508 60.625a10.775 10.775 0 0 1 -7.884-3.081 16.012 16.012 0 0 1 -3.551-6.271 1 1 0 0 1 1.932-.517 14.181 14.181 0 0 0 3.061 5.4 8.77 8.77 0 0 0 6.442 2.467 9.141 9.141 0 0 0 6.578-2.817 10.861 10.861 0 0 0 3.241-5.088 1 1 0 0 1 1.969.349 12.342 12.342 0 0 1 -3.753 6.107 11.179 11.179 0 0 1 -8.035 3.451z"/><path d="m37.465 47.091h-1.879c-2.393 0-3.772 2.19-2.359 3.746l.94 1.034a3.369 3.369 0 0 0 4.718 0l.939-1.034c1.414-1.556.035-3.746-2.359-3.746z"/><path d="m36.525 53.834a4.168 4.168 0 0 1 -3.1-1.291l-.939-1.033a2.953 2.953 0 0 1 -.572-3.252 3.923 3.923 0 0 1 3.671-2.167h1.879a3.925 3.925 0 0 1 3.672 2.166 2.955 2.955 0 0 1 -.573 3.253l-.939 1.033a4.168 4.168 0 0 1 -3.099 1.291zm-.939-5.743a1.952 1.952 0 0 0 -1.842.975.969.969 0 0 0 .223 1.1l.94 1.033a2.491 2.491 0 0 0 3.238 0l.939-1.033a.969.969 0 0 0 .224-1.1 1.955 1.955 0 0 0 -1.843-.975z"/></g></svg>