<svg id="Layer_3" enable-background="new 0 0 1000 1000" height="1000" viewBox="0 0 1000 1000" width="1000" xmlns="http://www.w3.org/2000/svg"><g><path d="m951.3 245.9s-75-50.4-179.6 51.7c0 0-69.7 150.7-131.8 167.7 0 0-22 168.3-10.4 223.8 11.6 55.6-5.2 138.9-5.2 138.9s-40 108.6-81.3 110.5-43.9-5.2-44.6-8.7c-.6-3.6 20-48.1 21.6-54.3 0 0 24-70.3 3.9-114.2s-20.1-43.9-20.1-43.9l-59.4 4.6-52-10.3s3.5 49.6-103.4 60.1c0 0-56.7 5.9-86.4 37 0 0-48 35.6-44.3-40.2 0 0 23.1-53.3 82.8-70.5-102-31.6-130.4-142.1-139.4-199.6s-27.6-96-51.7-122.1c-23.1-25.1-33-60.1-35.5-74.3-2.6-14.1-6.4-138.5 126-168-2.8.3-4.4.5-4.4.5s85.4-75.4 110.1-74.9c0 0 9.6 12.3 16 83.2-9.3-5.1-22.7-8.1-37.3-9.7 55.1 11.6 94.2 45.4 114.5 67.3l6.8-.9s106.5 24.2 116 48.9c0 0-29.2 59.4-85.4 85.4l-27 69.2 154 7.6s105.1 24.7 135.4-17.3c30.4-42 78.8-138.3 78.8-138.3s109.2-190 243.6-89.2c0-.2 68.5 61.9-10.3 80z" fill="#ffc363"/><path d="m380.9 303.5-9.8-68.7s52.7 21.1 55.9 21.1c3.2.1-30.1 39-46.1 47.6zm110.5 375.6c-31.5 33.3-98.4 2.3-98.4 2.3l-.6 30.4c29.7 14.2 111.4 5.8 111.4 5.8zm-388.8-170.9c15.8 143.5 138.6 189.9 138.6 189.9 30.4-11.6 20.9-37.3 20.9-37.3-126.6-246.7-159.5-152.6-159.5-152.6z" fill="#f9eba5"/><path d="m530.7 812.2s-42 35.2-53.3 21 14.5-50.7 23.6-63.3c9-12.6-.6-14.2-.6-14.2-35.9-1.3-55.9-33.6-55.9-33.6l59.4-4.6c25 18.7 26.8 94.7 26.8 94.7zm-394-198.2s16.2 98.5 39.5 123.6l65-39.4c0-.1-87.6-46.9-104.5-84.2zm66 194.8s24.7 70.8 6.9 96.9c-17.8 26 8.2 35.2 20.1 34.7s44.8-6.4 49.3-59.9c4.6-53.5 10-108.7 10-108.7-24.5-10.9-86.3 37-86.3 37z" fill="#fea142"/><path d="m421.5 407.7c36.6 91.4 33 118.1 24.2 120.6-3.9 1.1-17.8-.9-17.8-19.6s-36.5-102.3-36.5-102.3zm96.9 8.2-24.2-1.8s36.1 88.2 31.1 108.3 10.6 19.1 15.1 18.3c8.9-1.7 5.5-93.3-22-124.8zm-295.4-278.5c17.7 1.4-41.8-10.7-42.3-6.1 0 0-38.8 14.6-41.6 20.6-2.7 5.9-2.7 13.7 4.6 16.4s61.3-32.3 79.3-30.9zm73.9 26.3c-9.7-4.9-30.5-15.7-30.5-15.7s-82.7 42-84.5 62.1 19.9 8.2 25.6 3c5.5-5.1 71.3-52.3 89.4-49.4zm2.2.7c-.6-.3-1.3-.6-2.2-.7 4.9 2.4 6.9 3.4 2.2.7zm44.6 40.1.4.4c.1-.3-.1-.4-.4-.4zm-69.7 28.2c-.7 7.8 3.9 11.7 13.2 10.3 9.4-1.4 30.9-24.5 35.9-29 6.3-5.7 18.4-9.9 20.7-9.5l-17.2-19.2c-.1-.1-51.9 39.7-52.6 47.4z" fill="#dc8b4a"/><path d="m977.5 172.9c-24.5-26.9-60.1-42.8-95.6-42.8-1 0-2 0-3 0-22.5.6-45.3 7.2-67.6 19.8-25.3 14.2-50.2 36.2-74.2 65.2-.2.2-.3.4-.4.6-2.5 4-60.8 98.3-70.3 123.3s-34.7 91.2-135.4 72.1c-59.6-11.3-109.2-11.2-141.9-11-14.8.1-27.9.1-34.2-1.2 1.3-1.8 2.7-3.6 4-5.5 10.7-15.9 18-34.5 21.8-55.7 9.6-6.1 73.7-47.9 86.6-87.7.4-1.2.4-2.4-.1-3.6-1.2-3.2-14.6-32.3-120.1-52.4-.5-.1-1.1-.1-1.6-.1-3.4-3.7-6.3-6.7-7.6-8-11.5-11.3-35.6-31.8-70.7-46.2-6.4-68.3-15.8-82.2-16.9-83.6-1-1.3-2.5-2.1-4.2-2.1-4.3-.1-17.3-.3-67.7 38.4-21.3 16.4-40.5 33-45 37-32.9 7.4-60.7 22.1-82.7 43.7-20 19.9-34.3 44.9-41.1 72.5-6.5 26.2-6.1 53.5 1.3 78.9 7.6 26.2 22.2 49 42.3 66 3.4 4.1 39 48.9 44.1 117.8-.1 3.5 0 34.3 16.4 72.7 4.9 11.5 10.8 22.5 17.6 32.9 0 .3 0 .6.1.9.7 4 16.1 96.3 39.4 124.6-18.1 19-23.8 39.6-17 61.4 3.4 10.9 8.4 17.4 15.3 20 2.2.8 4.5 1.2 6.9 1.2 6.9 0 14.4-3.2 22.9-7.9 6.9 21.4 18.9 70 6.3 88.4-9.4 13.7-7.6 23.3-4.5 29 5.8 10.5 20 14.2 28.3 14.2h1c11.5-.4 49.6-6.4 54.6-64.8 3.8-44.3 8.2-90.3 9.6-104.3 39.4-1.4 63.8-12.5 77.4-21.8 14.5-9.8 24.1-22.7 26.9-35.5 7 1.5 22.8 4.5 41.9 6.1 3.3 4.9 23.8 33.8 59.1 35.5-.1.6-.5 2.4-2.8 5.6-16.1 22.4-36 54-23.4 69.9 2.4 3.1 6 4.9 10.2 5.3.6.1 1.3.1 1.9.1 12.6 0 30.3-11.5 40.7-19.2-1.4 26.1-8.7 59-30.7 91.2-.2.3-.4.6-.5.9-.2.5-5.5 12.7 2.2 22.1 4.9 5.9 13.3 8.9 25.4 8.9 8 0 17.5-1.3 28.8-3.8h.1c1.3-.3 32.2-8.8 66.2-85.3 29.7-66.7 18.3-165.3 14.6-197.7-.5-4.5-.9-8.1-1-9.7-.7-14.7 2.5-149.6 13.2-180.3 5.3-2.8 20.4-11.5 38.9-28.1 20.7-18.6 49.8-51.2 70.5-100.8 18.6-44.5 60.8-80.5 112.9-96.2 30.6-9.2 59.8-9.6 72.8-1 16.1 10.7 34.7 8.8 46.4-4.9 12.3-14 14.5-39.8-8.4-65zm-599.2 70.7c22.2 8.8 34.1 13.3 40.6 15.5-7 8.8-23.4 26.9-35.1 35.9-.3-16-2.1-33.2-5.5-51.4zm-135.3-178.3c2.6 6 8.4 24 13 70.2-32.5-11.2-66.5-14.5-101.4-9.8 30.7-25.8 71.7-56.8 88.4-60.4zm-97 568.7c3.1 3.7 6.3 7.4 9.7 10.9 20.1 21.3 44.9 39.3 73.9 53.6-.6.4-1.3.7-1.9 1.1-15.4 8.7-34.1 19.3-49 32.3-14.9-18.5-26.9-69-32.7-97.9zm127.6 246.1c-4.1 48.2-32.2 54.4-44.1 54.9-6 .2-16-2.6-19.3-8.6-2.4-4.3-1.1-10.3 3.9-17.6 17.8-26-2-89.1-5.7-100.1 1.5-.9 3-1.9 4.6-2.8 19.1-11.7 42.5-26 70.1-28.6-1.6 15.6-5.9 60-9.5 102.8zm210.8-49c-1.7-.2-2.4-.8-2.8-1.3-2.7-3.4-5.8-15.7 23.7-56.8 4.6-6.3 5.9-11.8 4.1-16.3-1.7-4-5.5-6-8.3-6.4-.2 0-.5-.1-.7-.1-22.1-.8-37.9-14.8-45.8-23.7 3.5.1 7.1.2 10.6.2 12.1 0 24.4-.9 36-3.2 2 3.8 4.2 7.6 6.6 11.1 7.7 11.5 16.7 38.1 18 69.6.1 1.5.1 3.1.1 4.7-11.3 9.4-31.9 23.1-41.5 22.2zm493.2-599.9c-8.1 9.4-20.7 10.5-32.2 2.9-15.8-10.5-48-10.7-82-.4-24.8 7.5-48.4 19.7-68.1 35.4-23.4 18.6-40.8 41.1-51.6 67-19.8 47.5-47.6 78.7-67.4 96.5-21.3 19.2-38.3 27.5-38.7 27.7 0 0 0 0-.1 0-.1.1-.2.1-.4.2 0 0-.1 0-.1.1-.1.1-.2.2-.3.2 0 0-.1 0-.1.1-.1.1-.2.2-.3.3 0 0-.1 0-.1.1-.1.1-.2.2-.3.3 0 0 0 0-.1.1s-.2.2-.3.3c0 0 0 0-.1.1s-.2.2-.2.4c0 0 0 .1-.1.1-.1.1-.1.2-.2.4 0 0 0 .1-.1.1 0 .1-.1.1-.1.2-12.8 30.4-15.2 175.3-14.7 186.8.1 1.9.5 5.3 1.1 10.4 3.6 31.7 14.7 128.1-13.7 192-31 69.7-58.1 78.9-58.9 79.2-32.1 7.2-40.9 1.4-43.3-1.4-3-3.6-1.4-9-.8-10.4 54.1-79.6 28.1-167.9 12.5-191.1-14.2-21.1-20.1-50.1-20.2-50.6-.6-2.9-3.4-4.9-6.4-4.3-2.9.6-4.9 3.4-4.3 6.4.2.9 3.3 16.2 10.5 33.2-38.5 6.8-86.9-2.6-97.5-4.9 0-2.9.1-6 .2-9.2.6-26 1.5-65.3-12.5-97.3-1.2-2.8-4.4-4-7.2-2.8s-4 4.4-2.8 7.2c13 29.8 12.2 67.7 11.6 92.7-.1 4.7-.2 9.1-.2 13 0 21.6-30.5 52.6-98.4 54-33.6.6-60.7 17.3-82.5 30.6-14.8 9-27.5 16.8-34.6 14.2-3.5-1.3-6.4-5.7-8.7-13.1-13.1-42 34.3-68.9 68.9-88.5 3.9-2.2 7.6-4.3 11-6.3 15.7-9.2 24.5-19.1 26.2-29.5 1.5-9.4-3.4-15.4-4-16.1l-8.2 7.1-.1-.1c.1.1 2.3 3 1.5 7.5s-4.8 11.6-18.5 20.2c-69.8-32.5-102.2-80.2-117-114.7-16.4-37.9-15.8-68.6-15.8-68.9 0-.2 0-.4 0-.6-5.5-75.8-45.3-122.7-47-124.7-.2-.2-.4-.4-.6-.6-32.1-27-48.2-70.2-43.8-114.1.5.2 1.1.3 1.7.3.5 0 1-.1 1.5-.2.1 0 11.2-3.3 23.1-5.4 21.7-3.9 25.4-.5 25.4-.5 2.1 2.1 5.6 2.1 7.7 0s2.1-5.6 0-7.7c-3.2-3.2-10.3-7-35.1-2.5-10.2 1.8-19.5 4.3-22.9 5.3.6-3.2 1.2-6.3 2-9.5 1.3-5.4 3-10.7 4.9-15.9.8.4 1.6.5 2.5.5 18.7-.7 47.3 1.9 51.9 10.2 1 1.8 2.8 2.8 4.7 2.8.9 0 1.8-.2 2.7-.7 2.6-1.5 3.5-4.8 2.1-7.4-8.9-15.7-47.2-16.1-59.5-15.8 5.3-11.3 12-21.7 20-31.2 16.9 12.9 35.9 29 37.9 33.4.7 2.4 2.9 3.9 5.2 3.9.5 0 .9-.1 1.4-.2 2.9-.8 4.6-3.7 3.9-6.6-.6-2.2-1.7-6.3-22.9-24-7.5-6.3-15-12-18.2-14.5 20.7-20.9 48.2-35.9 80.3-42.9 76.3-16.6 133.3 8.7 167.8 32.9 29.4 20.6 44.3 41.8 45.2 46.8-.3 2.7 1.6 5.3 4.3 5.9 2.9.6 5.8-1.3 6.4-4.3.7-3.7-1.6-8.9-5.1-14.2 76.8 16 96.4 36.4 100.5 42-11.2 29.4-54.6 61.5-73.5 74.4.5-4.9.9-9.9 1-15.1 9.7-5.4 23.1-19.1 30.3-26.8 19.8-21.3 19-24.2 18.4-26.6-.6-2.3-2.6-4-4.9-4.2-4-.9-30.9-11.3-54.4-20.8-1.9-.7-4-.4-5.5.9s-2.2 3.3-1.8 5.3c13.5 64.6 8.2 115.4-15.7 151-24.4 36.4-60.4 43.4-60.7 43.4-2.9.5-4.9 3.4-4.4 6.3.5 2.6 2.8 4.5 5.3 4.5.3 0 .6 0 1-.1 1.4-.3 30.8-5.9 56.2-33.4 6.6 3.2 19.9 3.2 41.7 3.1 32.4-.1 81.3-.3 139.9 10.9 13.1 2.5 25 3.6 35.9 3.6 80.3 0 103.4-60.8 111.7-82.6 8.8-23.2 65.4-114.9 69.2-121 43.3-52.4 88.2-79.6 133.4-80.7h2.9c47.8 0 78.8 29.9 87.3 39.2 18.7 20.1 17.6 40 8.4 50.8zm-681.6 92c36 10.6 43.4 19.2 45.8 24.8 1.2 2.8-.1 6-2.8 7.2-.7.3-1.4.4-2.2.4-2.1 0-4.1-1.2-5-3.3-.9-2-6.2-9.1-38.8-18.7-18.4-5.4-36.2-8.8-36.3-8.8-3-.6-4.9-3.4-4.3-6.4s3.4-4.9 6.4-4.3c.7.2 18.3 3.6 37.2 9.1zm16.5 44.7c1.5 2.6.5 5.9-2.1 7.4-.8.5-1.7.7-2.6.7-1.9 0-3.8-1-4.8-2.8-4.1-7.4-31.1-22.8-49-31.3-2.7-1.3-3.9-4.5-2.6-7.3 1.3-2.7 4.5-3.9 7.3-2.6 7.8 3.7 46.6 22.8 53.8 35.9zm-25.8 39.1c-.6.2-1.2.3-1.8.3-2.2 0-4.3-1.4-5.1-3.6-2.4-6.7-22.9-34.1-35.3-49.8-1.9-2.4-1.5-5.8.9-7.6 2.4-1.9 5.8-1.5 7.6.9 3.4 4.3 33.3 42.4 37 52.9 1 2.8-.5 5.9-3.3 6.9zm-138.9-51.3c2.3 1.9 2.6 5.3.7 7.7-1.1 1.3-2.6 2-4.2 2-1.2 0-2.5-.4-3.5-1.3-20.8-17.2-21.3-49.3-21.3-50.6 0-3 2.4-5.5 5.4-5.5h.1c3 0 5.4 2.4 5.4 5.4 0 .2.5 28.3 17.4 42.3zm-30.5-162.3c-1.7-2.4-1.2-5.8 1.3-7.6 2.4-1.7 5.8-1.2 7.6 1.3 1.1 1.5 26.9 38 30.9 56.9.6 2.9-1.2 5.8-4.2 6.5-.4.1-.8.1-1.1.1-2.5 0-4.8-1.7-5.3-4.3-3.1-13.9-22.1-42.9-29.2-52.9zm185.7 98.5c-16.9-3.9-64.3-13.2-80-9.7-2.9.7-5.8-1.2-6.5-4.1s1.2-5.8 4.1-6.5c21.3-4.7 82.2 9.1 84.8 9.7 2.9.7 4.8 3.6 4.1 6.5-.6 2.5-2.8 4.2-5.3 4.2-.4 0-.8 0-1.2-.1zm-85.7 29.9c-.1 0-10.4-.7-21.3-4.8-7.4-2.8-19.7-19.5-25.7-29.4-.3-.5-.7-.9-1.1-1.2 2.2.6 5 .9 8.4.9 4.4 0 8.6-.5 10.8-.8 1.5-.2 2.8-.4 3.8-.6 4.7-.9 5.7-3.6 5.7-5.7 0-2.7-2-5-4.7-5.4-.1 0-.3 0-.4-.1-3.3-1.3-16.7-10.4-27.6-18.4-1.7-1.2-3.9-1.4-5.8-.4-1.8 1-3 2.9-2.9 5 .2 4.3 1.3 18.6 8.4 23.6.2.2.5.3.8.5-.1 0-.1 0-.2 0s-9.8 0-32.7-2.6c-6.1-.7-10.2-2.4-11.6-4.8-1.4-2.5 0-5.7.1-5.8 1.3-2.7.2-5.9-2.5-7.2s-6-.2-7.3 2.5c-.4.8-3.9 8.4.2 15.8 3.2 5.8 9.9 9.3 20 10.4 16.5 1.8 26.3 2.4 30.8 2.5 4.7 7.4 18.1 27.1 29.6 31.4 12.6 4.8 24.1 5.5 24.5 5.5h.3c2.9 0 5.2-2.2 5.4-5.1.3-3-2-5.6-5-5.8zm-42.7-45.5c-2.5-.2-3.3-.6-3.3-.6-.5-.4-1.1-1.4-1.6-2.7 1.8 1.2 3.4 2.3 4.9 3.3z" fill="#89191a"/></g></svg>