<svg id="Capa_1" enable-background="new 0 0 512 512" viewBox="0 0 512 512" xmlns="http://www.w3.org/2000/svg"><g><g><g><path d="m183.955 292h-25c-.951 0-1.813-.347-2.5-.903v208.403c0 2.761 2.239 5 5 5h20c2.761 0 5-2.239 5-5v-208.403c-.687.556-1.55.903-2.5.903z" fill="#c8effe"/><path d="m301.455 137.5c0-71.797-58.202-129.999-129.999-130-71.759-.001-130.033 58.3-130.001 130.06.029 64.387 46.868 117.82 108.331 128.134 2.406.404 4.169 2.483 4.169 4.922v17.384c0 2.761 2.239 5 5 5h25c2.761 0 5-2.239 5-5v-17.384c0-2.438 1.76-4.518 4.165-4.921 61.483-10.316 108.335-63.78 108.335-128.195z" fill="#fe99a0"/><path d="m221.139 17.341c17.438 22.064 27.861 49.917 27.861 80.159 0 71.407-58.093 129.5-129.5 129.5-18.252 0-35.631-3.803-51.395-10.647 19.593 25.637 48.504 43.773 81.681 49.34 2.406.404 4.169 2.483 4.169 4.922v17.385c0 2.761 2.239 5 5 5h25c2.761 0 5-2.239 5-5v-17.384c0-2.438 1.76-4.518 4.165-4.921 61.484-10.315 108.335-63.78 108.335-128.194 0-54.2-33.171-100.644-80.316-120.16z" fill="#fd8087"/><circle cx="171.455" cy="137.5" fill="#62dbfb" r="94.955"/><path d="m171.455 232.456c52.359 0 94.956-42.596 94.956-94.956 0-20.983-6.846-40.394-18.415-56.128.659 5.285 1.004 10.667 1.004 16.128 0 65.586-49.009 119.933-112.327 128.359 10.776 4.257 22.511 6.597 34.782 6.597z" fill="#01d0fb"/><path d="m171.455 197.5c-33.084 0-60-26.916-60-60s26.916-60 60-60 60 26.916 60 60-26.916 60-60 60z" fill="#ffe177"/><circle cx="171.455" cy="137.5" fill="#fff" r="25"/><g fill="#99e6fc"><path d="m156.455 384.23 30-30v-36.769l-30 30z"/><path d="m156.455 460 30-30v-36.77l-30 30z"/></g></g><g><g><path d="m389.684 311.108c-5.148 0-10.163-.569-15-1.621v190.013c0 2.761 2.239 5 5 5h20c2.761 0 5-2.239 5-5v-190.013c-4.837 1.052-9.852 1.621-15 1.621z" fill="#ffe177"/></g><circle cx="389.684" cy="240.554" fill="#fe99a0" r="71.554"/><circle cx="389.684" cy="240.554" fill="#fe99a0" r="71.554"/><path d="m389.684 169c-1.453 0-2.893.057-4.324.142 20.757 12.526 34.64 35.292 34.64 61.304 0 38.065-29.727 69.175-67.23 71.412 10.778 6.504 23.407 10.25 36.913 10.25 39.518 0 71.554-32.036 71.554-71.554.001-39.518-32.035-71.554-71.553-71.554z" fill="#fd8087"/><path d="m460.546 254.068h-141.724c-5.523 0-10-4.477-10-10v-16.068c0-5.523 4.477-10 10-10h141.724c5.523 0 10 4.477 10 10v16.068c0 5.523-4.477 10-10 10z" fill="#fd8087"/><path d="m460.546 218h-41.646c.71 4.044 1.101 8.198 1.101 12.446 0 8.28-1.423 16.224-4.01 23.622h44.555c5.523 0 10-4.477 10-10v-16.068c0-5.523-4.477-10-10-10z" fill="#fe646f"/></g></g><g><path d="m171.456 0c-.002 0 0 0-.002 0-36.708 0-71.239 14.319-97.225 40.317-25.988 26-40.291 60.535-40.274 97.246.015 32.703 11.708 64.386 32.926 89.213 20.519 24.009 48.709 40.269 79.574 45.946v15.278c0 2.801.938 5.382 2.5 7.468v204.032c0 6.893 5.607 12.5 12.5 12.5h20c6.893 0 12.5-5.607 12.5-12.5v-204.032c1.562-2.087 2.5-4.667 2.5-7.468v-15.277c30.874-5.679 59.071-21.947 79.591-45.967 21.221-24.841 32.908-56.54 32.908-89.256 0-75.817-61.681-137.499-137.498-137.5zm7.499 497h-15v-33.894l15-15zm0-70.106-15 15v-15.557l15-15zm0-36.77-15 15v-17.787l15-15zm0-39-15 15v-15.557l15-15zm0-36.77-15 15v-28.854h15zm85.686-97.341c-18.698 21.888-44.539 36.55-72.762 41.285-6.04 1.013-10.424 6.193-10.424 12.318v14.884h-20v-14.884c0-6.124-4.385-11.305-10.428-12.319-28.213-4.734-54.047-19.389-72.743-41.266-18.9-22.115-29.316-50.34-29.33-79.475-.015-32.702 12.729-63.47 35.883-86.635 23.155-23.164 53.917-35.921 86.619-35.921 67.545.001 122.498 54.954 122.498 122.5 0 29.147-10.41 57.385-29.313 79.513z"/><path d="m171.455 205c37.22 0 67.5-30.28 67.5-67.5s-30.28-67.5-67.5-67.5-67.5 30.28-67.5 67.5 30.28 67.5 67.5 67.5zm0-120c28.949 0 52.5 23.551 52.5 52.5s-23.551 52.5-52.5 52.5-52.5-23.551-52.5-52.5 23.551-52.5 52.5-52.5z"/><path d="m171.455 170c17.92 0 32.5-14.58 32.5-32.5s-14.58-32.5-32.5-32.5-32.5 14.58-32.5 32.5 14.579 32.5 32.5 32.5zm0-50c9.649 0 17.5 7.851 17.5 17.5s-7.851 17.5-17.5 17.5-17.5-7.851-17.5-17.5 7.85-17.5 17.5-17.5z"/><path d="m171.455 35.044c-49.293 0-91.646 35.149-100.705 83.577-.762 4.071 1.921 7.989 5.993 8.751 4.072.766 7.99-1.922 8.751-5.993 7.732-41.334 43.884-71.334 85.96-71.334 48.223 0 87.456 39.232 87.456 87.456s-39.232 87.456-87.456 87.456c-42.077 0-78.228-30-85.96-71.334-.761-4.072-4.677-6.759-8.751-5.993-4.072.762-6.755 4.68-5.993 8.751 9.059 48.428 51.412 83.577 100.705 83.577 56.494 0 102.456-45.961 102.456-102.456s-45.962-102.458-102.456-102.458z"/><path d="m462.859 210.671c-12.067-29.616-40.831-49.171-73.175-49.171s-61.108 19.555-73.175 49.171c-8.557 1.138-15.186 8.466-15.186 17.329v16.068c0 7.697 5.002 14.236 11.921 16.572 7.073 27.035 27.875 47.926 53.941 55.681v183.179c0 6.893 5.607 12.5 12.5 12.5h20c6.893 0 12.5-5.607 12.5-12.5v-30.5c0-4.142-3.357-7.5-7.5-7.5s-7.5 3.358-7.5 7.5v28h-15v-177.756c2.474.235 4.974.364 7.5.364s5.026-.129 7.5-.364v114.756c0 4.142 3.357 7.5 7.5 7.5s7.5-3.358 7.5-7.5v-117.679c26.066-7.755 46.867-28.646 53.941-55.681 6.919-2.336 11.921-8.875 11.921-16.572v-16.068c-.002-8.863-6.631-16.191-15.188-17.329zm-73.175-34.171c24.018 0 45.6 13.307 56.565 34h-113.13c10.965-20.693 32.547-34 56.565-34zm73.361 67.568c0 1.378-1.121 2.5-2.5 2.5h-71.545c-4.143 0-7.5 3.358-7.5 7.5s3.357 7.5 7.5 7.5h61.188c-8.799 25.405-32.937 43.04-60.504 43.04s-51.705-17.635-60.504-43.04h24.82c4.143 0 7.5-3.358 7.5-7.5s-3.357-7.5-7.5-7.5h-35.178c-1.379 0-2.5-1.122-2.5-2.5v-16.068c0-1.378 1.121-2.5 2.5-2.5h141.723c1.379 0 2.5 1.122 2.5 2.5z"/></g></g><g/><g/><g/><g/><g/><g/><g/><g/><g/><g/><g/><g/><g/><g/><g/></svg>