<svg height="512" width="512" xmlns="http://www.w3.org/2000/svg"><path d="M125.029 353.443c-11.042 4.745-22.702 5.773-33.81 3.684-3.164-7.467-5.329-15.464-5.428-23.511.202.056.404.116.606.169 15.452 4.287 38.662 4.326 48.733-9.407a85.098 85.098 0 0 1 2.535 6.813c.906 2.773 1.71 5.581 2.507 8.391-2.965 6.158-8.814 10.553-15.143 13.861zM147.497 360.24a70.4 70.4 0 0 0 8.509 12.965c-2.422 7.872-8.32 14.709-15.147 19.853-4.853 3.401-10.51 5.077-16.295 5.401a99.933 99.933 0 0 1-17.711-16.246c16.208.381 32.629-7.97 40.644-21.973zM168.467 385.13a73.705 73.705 0 0 0 13.117 7.917c.669 8.27-1.365 16.84-5.934 23.302a98.885 98.885 0 0 1-20.356-3.274c8.166-6.61 13.122-17.297 13.173-27.945z" fill="#e36254"/><g fill="#a63c30"><path d="M181.584 393.047c5.903 2.765 12.171 4.736 18.623 5.746 4.511.706 9.988 1.236 13.778 3.781 1.186.797 2.328 1.763 2.914 3.065.586 1.303.378 4.051-.958 4.559-12.797 4.869-26.624 6.91-40.292 6.15 4.571-6.461 6.604-15.031 5.935-23.301zM125.029 353.443c6.329-3.307 12.178-7.703 15.143-13.861 1.501 5.292 2.975 10.59 5.048 15.679a66.142 66.142 0 0 0 2.277 4.979c-8.015 14.003-24.436 22.355-40.644 21.973-6.028-7.034-11.083-14.897-14.878-23.35a92.663 92.663 0 0 1-.755-1.735c11.107 2.088 22.767 1.06 33.809-3.685zM156.006 373.204a73.979 73.979 0 0 0 12.461 11.926c-.051 10.648-5.007 21.335-13.174 27.945a95.057 95.057 0 0 1-11.531-3.925c-6.786-2.81-13.227-6.421-19.198-10.693 5.785-.324 11.442-2 16.295-5.401 6.827-5.143 12.725-11.98 15.147-19.852zM86.397 333.785c-.202-.053-.404-.113-.606-.169a44.623 44.623 0 0 1 .237-5.305c1.118-10.438 6.137-22.279 16.157-25.408 8.031-2.508 17.048.776 23.15 6.568 4.352 4.131 7.434 9.352 9.795 14.907-10.071 13.734-33.28 13.694-48.733 9.407z"/></g><path d="M178.876 418.27a83.63 83.63 0 0 1-3.301-.057c-6.582-.265-13.57-1.388-20.77-3.338-28.239-7.544-52.357-28.186-64.518-55.216-7.786-15.685-11.056-44.328 6.644-56.074 2.961-1.965 6.339-3.126 9.769-3.358 15.765-1.056 28.431 14.523 32.765 30.474.49 1.651.981 3.353 1.473 5.059 3.696 12.814 7.518 26.063 16.468 36.208l.04.047c10.944 13.265 26.635 22.353 43.051 24.933.551.086 1.119.171 1.696.256 4.294.635 9.16 1.355 12.832 3.821l.086.061c3.556 2.693 4.89 5.365 3.965 7.943-.499 1.392-2.017 5.626-19.791 7.942-7.52.981-15.337 1.299-20.409 1.299zm-70.64-114.361c-.426 0-.853.014-1.285.043-2.784.188-5.535 1.137-7.956 2.744-15.149 10.053-12.841 36.273-5.35 51.336l.031.066c11.701 26.034 34.915 45.913 62.099 53.175 6.936 1.879 13.646 2.959 19.95 3.213 4.228.169 13.864-.012 23.079-1.213 14.765-1.924 16.553-4.92 16.761-5.501.291-.812-.704-2.184-2.663-3.677-2.971-1.973-7.371-2.624-11.254-3.198-.588-.087-1.166-.172-1.729-.26-17.296-2.719-33.816-12.275-45.332-26.221-9.489-10.77-13.426-24.419-17.234-37.62-.489-1.697-.978-3.39-1.477-5.073-3.824-14.071-14.451-27.814-27.64-27.814zm-10.273 1.232h.005z" fill="#7d271d"/><path d="M175.648 418.214a1.867 1.867 0 0 1-1.522-2.943c4.21-5.953 6.25-13.998 5.598-22.074a1.866 1.866 0 1 1 3.719-.301c.722 8.934-1.563 17.874-6.271 24.53a1.86 1.86 0 0 1-1.524.788zM102.148 360.017c-3.753 0-7.523-.35-11.273-1.056a1.865 1.865 0 0 1-1.488-2.179 1.864 1.864 0 0 1 2.179-1.488c11.093 2.088 22.386.864 32.663-3.536 7.21-3.779 11.876-8.026 14.264-12.984a1.867 1.867 0 0 1 3.363 1.62c-2.756 5.723-7.977 10.533-15.96 14.705a1.879 1.879 0 0 1-.128.061 59.795 59.795 0 0 1-23.62 4.857zM107.908 384.09c-.367 0-.732-.004-1.099-.013a1.865 1.865 0 1 1 .089-3.731c15.879.359 31.565-8.078 38.98-21.034a1.865 1.865 0 1 1 3.239 1.853c-7.905 13.811-24.36 22.925-41.209 22.925zM155.295 414.941a1.867 1.867 0 0 1-1.175-3.316c7.651-6.193 12.434-16.348 12.482-26.503a1.865 1.865 0 0 1 1.866-1.857h.009a1.866 1.866 0 0 1 1.857 1.875c-.053 11.247-5.366 22.507-13.865 29.387a1.873 1.873 0 0 1-1.174.414zM124.563 400.324a1.865 1.865 0 0 1-.102-3.729c5.828-.326 10.976-2.025 15.302-5.048 7.262-5.478 12.397-12.186 14.46-18.892a1.863 1.863 0 0 1 2.332-1.234 1.865 1.865 0 0 1 1.234 2.332c-2.941 9.56-10.219 16.584-15.807 20.794a1.713 1.713 0 0 1-.052.038c-4.84 3.391-10.809 5.375-17.262 5.736a1.84 1.84 0 0 1-.105.003zM105.122 338.18c-6.365 0-13.063-.888-19.223-2.597a1.866 1.866 0 1 1 .998-3.596c16.146 4.48 37.655 3.664 46.73-8.712a1.865 1.865 0 1 1 3.009 2.207c-4.844 6.606-13.009 10.828-23.613 12.209a61.827 61.827 0 0 1-7.901.489z" fill="#7d271d"/><g><path d="M239.768 384.185c-28.557 12.131-73.179 29.111-73.179 29.111s-17.429-18.743-22.752-12.971 1.657 39.189 10.433 43.036c8.775 3.847 84.53-1.131 84.53-1.131z" fill="#a63c30"/><path d="M174.795 446.682c-10.348 0-18.562-.424-21.274-1.613-5.653-2.478-9.847-13.775-11.886-23.521-.864-4.127-3.357-17.947.831-22.488 1.026-1.112 2.431-1.701 4.065-1.705h.013c6.702 0 17.271 10.369 20.542 13.755 7.208-2.754 46.31-17.748 71.953-28.641a1.868 1.868 0 0 1 2.595 1.748l-.969 58.045a1.864 1.864 0 0 1-1.743 1.83c-5.432.357-40.388 2.59-64.127 2.59zm-28.25-45.596h-.008c-.768.002-1.114.27-1.329.503-1.557 1.687-2.058 8.988.078 19.193 2.217 10.592 6.31 19.368 9.733 20.869 6.018 2.637 51.638.777 81.943-1.172l.892-53.46c-28.308 11.913-70.169 27.855-70.602 28.02a1.866 1.866 0 0 1-2.03-.473c-4.85-5.213-14.207-13.48-18.677-13.48z" fill="#7d271d"/><path d="M306.068 384.185c28.557 12.131 73.179 29.111 73.179 29.111s17.429-18.743 22.752-12.971-1.657 39.189-10.433 43.036c-8.775 3.847-84.53-1.131-84.53-1.131z" fill="#a63c30"/><path d="M371.041 446.682c-23.739 0-58.694-2.233-64.127-2.591a1.866 1.866 0 0 1-1.744-1.83l-.968-58.045a1.865 1.865 0 0 1 2.595-1.748c25.643 10.893 64.745 25.887 71.953 28.641 3.271-3.385 13.84-13.755 20.542-13.755h.013c1.634.004 3.039.593 4.065 1.705 4.188 4.542 1.695 18.363.83 22.49-2.04 9.746-6.234 21.042-11.886 23.52-2.711 1.189-10.928 1.613-21.273 1.613zm-62.168-6.202c30.306 1.949 75.927 3.808 81.944 1.172 3.422-1.5 7.515-10.276 9.732-20.866 2.137-10.207 1.635-17.508.079-19.196-.215-.234-.561-.502-1.329-.503h-.008c-4.475 0-13.829 8.267-18.677 13.48a1.865 1.865 0 0 1-2.03.473c-.433-.165-42.293-16.107-70.602-28.02z" fill="#7d271d"/><path d="M348.538 411.609c-10.401 28.313-54.888 35.936-76.084 35.936s-63.876-7.623-74.277-35.936c-8.54-23.232 6.141-62.228 21.548-98.943.57-1.354 1.135-2.703 1.706-4.046 2.804-6.637 5.608-13.173 8.268-19.506h87.316c2.548 6.061 5.224 12.309 7.906 18.653.512 1.21 1.023 2.426 1.535 3.641 15.599 37.077 30.718 76.702 22.082 100.201z" fill="#e36254"/><path d="M324.922 307.767c-49.767 32.908-80.77 16.617-105.196 4.899.57-1.354 1.135-2.703 1.706-4.046 2.804-6.637 5.608-13.173 8.268-19.506h87.316c2.548 6.061 5.224 12.309 7.906 18.653z" fill="#a63c30"/><g><path d="M272.455 449.41c-21.575 0-65.231-7.766-76.028-37.158-8.933-24.297 6.605-64.877 23.287-104.359 1.2-2.839 2.399-5.66 3.587-8.455a2723.71 2723.71 0 0 0 4.68-11.048 1.867 1.867 0 0 1 1.72-1.143h87.316c.751 0 1.429.45 1.72 1.143a3225.3 3225.3 0 0 0 4.7 11.1c1.569 3.692 3.158 7.43 4.741 11.194 16.053 38.158 30.983 77.431 22.112 101.568-4.714 12.832-16.855 23.101-35.111 29.697-15.228 5.501-32.055 7.461-42.724 7.461zM230.94 290.978a3270.636 3270.636 0 0 1-4.205 9.92c-1.188 2.792-2.386 5.61-3.584 8.447-16.391 38.795-31.685 78.597-23.221 101.619 5.475 14.905 20.419 23.171 31.99 27.481 18.021 6.712 35.582 7.233 40.535 7.233 24.754 0 64.976-9.245 74.332-34.714 8.403-22.863-6.975-63.004-22.049-98.834-1.581-3.76-3.168-7.494-4.736-11.181a3412.42 3412.42 0 0 1-4.225-9.971z" fill="#7d271d"/></g><g><path d="M209.957 106.857c-13.586-11.22-21.37-15.918-36.341-25.663-8.214-5.347-17.904-11.447-28.672-10.62-4.537.348-7.777 4.365-3.569 7.757 1.721 1.387 4.076 1.925 6.331 2.419-3.387.207-5.584.652-8.682 1.906-3.098 1.253-5.884 3.284-7.467 5.973-.837 1.421-1.284 3.255-.245 4.554.816 1.02 2.358 1.408 3.76 1.283s2.708-.678 3.982-1.223c-9.37 28.175-1.492 79.562 12.944 93.161z" fill="#ffe8db"/><path d="M151.996 188.267c-.459 0-.918-.168-1.279-.508-14.772-13.915-22.19-62.77-14.489-91.581a9.324 9.324 0 0 1-.992.144c-2.188.196-4.251-.563-5.383-1.976-1.382-1.728-1.346-4.22.094-6.666 1.679-2.851 4.654-5.25 8.375-6.755a33.337 33.337 0 0 1 2.283-.836 9.086 9.086 0 0 1-.403-.306c-2.227-1.795-3.11-4.093-2.423-6.307.803-2.588 3.624-4.502 7.02-4.762 11.68-.894 22.174 5.931 29.832 10.916 1.863 1.213 3.615 2.347 5.279 3.426 11.595 7.51 19.255 12.471 31.232 22.363a1.865 1.865 0 1 1-2.377 2.876c-11.811-9.755-18.99-14.404-30.884-22.108-1.668-1.08-3.421-2.216-5.287-3.43-7.212-4.694-17.088-11.118-27.511-10.324-2.046.157-3.455 1.224-3.741 2.147-.272.878.503 1.734 1.201 2.296 1.418 1.143 3.618 1.624 5.558 2.049a1.866 1.866 0 0 1-.286 3.685c-3.311.202-5.278.633-8.096 1.773-2.965 1.199-5.294 3.043-6.56 5.19-.459.78-.838 1.887-.395 2.442.338.422 1.236.671 2.137.59 1.122-.1 2.287-.598 3.414-1.08a1.866 1.866 0 0 1 2.504 2.305c-4.262 12.813-5.151 31.95-2.379 51.191 2.678 18.591 8.361 33.927 14.832 40.022.75.706.786 1.888.079 2.637a1.842 1.842 0 0 1-1.355.587z" fill="#e0a58f"/><path d="M157.429 97.036c9.596-7.002 36.698 20.943 40.375 26.464s-27.726 40.06-35.262 37.65c-7.537-2.409-13.588-57.93-5.113-64.114z" fill="#a63c30"/><path d="M163.286 163.12c-.469 0-.908-.062-1.312-.192-3.505-1.12-6.365-8.385-8.503-21.593-2.447-15.118-3.835-40.923 2.858-45.806h.001c1.848-1.349 4.217-1.778 7.043-1.272 12.964 2.312 33.204 24.033 35.985 28.209 1.077 1.618 1.623 4.942-6.035 15.092-7.065 9.363-22.461 25.562-30.037 25.562zm-4.757-64.576c-3.787 2.763-4.499 22.038-1.525 41.248 2.164 13.976 5.048 19.228 6.106 19.582 1.375.44 7.032-2.333 16.354-11.652 4.692-4.691 9.203-9.962 12.376-14.461 4-5.671 4.522-8.22 4.385-8.764-3.198-4.753-22.542-24.61-33.509-26.566-1.809-.323-3.18-.123-4.187.613z" fill="#7d271d"/><path d="M282.495 93.468c8.685-15.331 14.28-22.498 24.786-36.945 5.764-7.927 12.638-17.084 22.991-20.156 4.363-1.294 8.823 1.301 6.103 5.971-1.112 1.91-3.119 3.253-5.05 4.519 3.237-1.016 5.448-1.384 8.79-1.319s6.668.967 9.108 2.914c1.289 1.028 2.361 2.582 1.854 4.166-.398 1.245-1.699 2.157-3.054 2.541-1.354.384-2.772.333-4.156.279 18.811 22.973 29.796 73.787 21.165 91.643z" fill="#ffe8db"/><path d="M365.031 148.948a1.866 1.866 0 0 1-1.678-2.678c3.869-8.003 3.703-24.358-.432-42.68-4.28-18.962-11.942-36.521-20.497-46.969a1.866 1.866 0 0 1-.227-2.014 1.886 1.886 0 0 1 1.743-1.032c1.224.047 2.488.097 3.574-.209.87-.247 1.621-.8 1.785-1.314.216-.676-.533-1.575-1.24-2.14-1.948-1.554-4.782-2.444-7.981-2.507-3.037-.057-5.031.242-8.195 1.234a1.867 1.867 0 0 1-1.582-3.341c1.661-1.088 3.543-2.322 4.461-3.897.451-.775.87-1.85.302-2.573-.598-.76-2.294-1.255-4.261-.67-10.021 2.973-16.67 12.117-22.013 19.464-1.31 1.8-2.542 3.487-3.715 5.092-8.36 11.442-13.407 18.348-20.957 31.676a1.865 1.865 0 1 1-3.246-1.84c7.657-13.515 13.041-20.884 21.191-32.037 1.171-1.602 2.402-3.287 3.709-5.085 5.375-7.391 12.737-17.514 23.97-20.847 3.265-.97 6.583-.188 8.257 1.942 1.432 1.823 1.428 4.286-.012 6.757a8.545 8.545 0 0 1-.267.429 32.606 32.606 0 0 1 2.431-.034c4.015.078 7.65 1.257 10.236 3.321 2.219 1.771 3.142 4.086 2.467 6.194-.551 1.724-2.207 3.167-4.321 3.767a9.222 9.222 0 0 1-.979.22c17.479 24.164 27.99 72.448 19.159 90.719a1.872 1.872 0 0 1-1.682 1.052z" fill="#e0a58f"/><path d="M328.056 65.543c-11.464-3.115-26.804 32.664-28.268 39.134s40.2 27.523 46.38 22.582c6.18-4.942-7.988-58.965-18.112-61.716z" fill="#a63c30"/><path d="M343.146 129.831c-8.684 0-25.388-8.134-34.151-13.621-10.779-6.749-11.455-10.049-11.027-11.945 1.108-4.894 12.261-32.41 23.544-39.197 2.46-1.479 4.828-1.924 7.033-1.325 7.995 2.173 15.911 26.772 19.022 41.768 2.719 13.1 2.639 20.908-.234 23.205-.967.774-2.411 1.115-4.187 1.115zm-41.528-24.788c.066.557 1.464 2.752 7.223 6.621 4.57 3.07 10.665 6.383 16.722 9.089 12.034 5.378 18.31 5.951 19.439 5.048.861-.709 1.681-6.644-1.287-20.47-4.079-19.006-11.626-36.756-16.149-37.987-1.203-.328-2.556-.026-4.131.922-9.545 5.741-20.526 31.196-21.817 36.777z" fill="#7d271d"/><path d="M359.311 269.01c-26.804 16.581-59.139 28.452-77.507 30.764-18.061 4.418-52.723 4.858-83.782-1.146a191.627 191.627 0 0 1-12.629-2.868c-21.124-5.572-39.013-14.586-46.371-27.93-1.983-3.58-3.202-7.481-3.516-11.706-1.265-16.897 29.84-117.555 39.148-132.007 9.307-14.452 36.438-23.889 69.203-29.936s65.304-7.624 79.157 2.553 75.01 93.806 79.86 110.041c6.636 22.205-15.417 44.821-43.563 62.235z" fill="#e36254"/><circle cx="217.098" cy="202.926" fill="#fff" transform="rotate(-89.08 217.213 202.896)" r="23.535"/><path d="M217.044 228.335c-5.093 0-10.063-1.535-14.349-4.485-5.589-3.847-9.345-9.641-10.576-16.313-2.543-13.774 6.595-27.047 20.368-29.59 13.775-2.544 27.047 6.594 29.59 20.368s-6.595 27.048-20.368 29.59c-1.556.287-3.116.43-4.665.43zm.064-47.08a21.74 21.74 0 0 0-3.943.362c-5.692 1.051-10.634 4.255-13.916 9.023s-4.511 10.528-3.46 16.22a21.528 21.528 0 0 0 9.023 13.916 21.534 21.534 0 0 0 16.22 3.46c5.692-1.051 10.634-4.255 13.916-9.023s4.511-10.528 3.46-16.22c-1.925-10.426-11.058-17.738-21.3-17.738z"/><path d="M207.155 205.867c1.413 7.657 8.768 12.72 16.425 11.306 7.657-1.413 12.72-8.768 11.307-16.425a13.994 13.994 0 0 0-.63-2.304c-.074.068-.147.141-.221.209-3.143 2.914-7.185 3.674-9.02 1.697-1.831-1.983-.771-5.951 2.377-8.866a9.77 9.77 0 0 1 .537-.468 14.045 14.045 0 0 0-9.469-1.579c-7.657 1.414-12.72 8.769-11.306 16.43z"/><path d="M223.468 155.877c1.66 3.714-2.619 9.239-9.558 12.34-6.939 3.102-13.91 2.605-15.569-1.108-1.66-3.714 2.619-9.239 9.558-12.34 6.938-3.102 13.909-2.606 15.569 1.108z" fill="#ffe8db"/><path d="M205.167 172.12c-.391 0-.777-.013-1.155-.04-3.66-.26-6.279-1.755-7.376-4.21-2.113-4.725 2.499-11.228 10.499-14.805 8.001-3.576 15.922-2.676 18.035 2.05v.001c1.097 2.454.464 5.403-1.783 8.303-1.99 2.57-5.086 4.878-8.717 6.501-3.207 1.434-6.535 2.2-9.503 2.2zm11.463-17.505c-2.281 0-5.084.567-7.97 1.857-6.216 2.779-9.675 7.506-8.616 9.875.501 1.122 2.044 1.854 4.234 2.01 2.601.185 5.835-.487 8.87-1.844 3.036-1.357 5.693-3.317 7.29-5.379 1.344-1.736 1.828-3.374 1.327-4.496-.568-1.269-2.504-2.023-5.135-2.023z" fill="#e0a58f"/><ellipse cx="287.091" cy="147.172" fill="#ffe8db" rx="13.762" ry="7.366" transform="rotate(-4.44 288.884 147.083)"/><path d="M285.613 156.464c-7.701 0-13.719-3.32-14.099-8.035-.416-5.16 6.1-9.754 14.835-10.458 8.731-.707 15.902 2.786 16.319 7.945.416 5.159-6.1 9.753-14.835 10.457-.752.061-1.494.091-2.22.091zm2.918-14.851c-.612 0-1.24.025-1.882.076-6.787.548-11.624 3.851-11.416 6.439.209 2.587 5.512 5.071 12.3 4.526 6.787-.548 11.624-3.851 11.416-6.438-.189-2.344-4.556-4.603-10.418-4.603z" fill="#e0a58f"/><path d="M181.38 233.551c-3.503 20.672-2.108 42.153 4.012 62.209-21.124-5.572-39.013-14.586-46.371-27.93a152.933 152.933 0 0 1 18.415-34.098c3.82-5.324 8.464-10.713 14.84-12.237 2.622-.625 5.679-.425 7.618 1.451 2.684 2.583 2.11 6.934 1.486 10.605zM351.868 202.084c10.652 18.059 17.017 38.623 18.46 59.542 17.743-12.745 31.236-27.552 33.345-42.643a152.928 152.928 0 0 0-29.375-25.278c-5.469-3.609-11.73-6.986-18.23-6.133-2.673.352-5.456 1.63-6.599 4.075-1.583 3.371.506 7.23 2.399 10.437z" fill="#ffe8db"/><g><path d="M240.469 213.498a106.028 106.028 0 0 0-46.306 6.199l2.057 13.079 29.723 2.285 16.152-13.885z" fill="#e36254"/><path d="M194.163 221.563a1.867 1.867 0 0 1-.651-3.616c14.946-5.56 31.242-7.742 47.124-6.308 1.027.092 1.783 1 1.691 2.026a1.856 1.856 0 0 1-2.026 1.69c-15.33-1.383-31.06.723-45.487 6.09-.214.08-.434.118-.651.118z"/></g><path d="M358.741 265.336c.226 1.227.414 2.45.57 3.673-26.804 16.581-59.139 28.452-77.507 30.764-18.061 4.418-52.723 4.858-83.782-1.146a61.203 61.203 0 0 1-.747-3.489c-7.187-38.941 23.132-77.182 67.719-85.412 44.586-8.229 86.56 16.67 93.747 55.61z" fill="#ffe8db"/><path d="m254.579 217.029 21.408-3.951c2.605-.481 4.586 2.3 3.28 4.605l-7.917 13.976a4.104 4.104 0 0 1-6.242 1.092l-11.993-10.287c-1.991-1.708-1.114-4.959 1.464-5.435z"/><g><path d="M246.075 304.978c-14.981 0-31.933-1.334-48.408-4.519a194.734 194.734 0 0 1-12.751-2.896c-24.214-6.386-40.649-16.356-47.529-28.833-2.157-3.895-3.417-8.091-3.742-12.469-1.291-17.249 29.838-118.246 39.44-133.156 8.614-13.375 32.311-23.724 70.433-30.76 22.887-4.224 63.79-9.466 80.601 2.884 14.749 10.834 75.722 94.871 80.544 111.01 6.002 20.084-9.756 42.939-44.37 64.355-28.163 17.422-60.597 28.777-78.149 31.015-8.573 2.085-21.373 3.369-36.069 3.369zm43.163-213.771c-12.477 0-27.647 1.598-45.043 4.809-37.07 6.841-59.939 16.636-67.973 29.111-9.109 14.142-40.072 114.614-38.856 130.857.285 3.837 1.391 7.518 3.288 10.94 6.377 11.565 22.011 20.91 45.215 27.03a190 190 0 0 0 12.506 2.84c32.178 6.22 66.104 5.294 82.985 1.166.07-.017.14-.03.211-.039 17.127-2.155 48.992-13.324 76.759-30.5 19.138-11.841 50.144-35.397 42.757-60.114-4.553-15.239-65.231-98.827-79.178-109.072-6.37-4.676-17.539-7.028-32.671-7.028zm70.073 177.803h.005z" fill="#a63c30"/></g><g><path d="M283.786 202.489a2.399 2.399 0 0 1-2.373-2.769c1.674-10.748 10.657-19.955 21.36-21.893 10.705-1.938 22.345 3.536 27.68 13.014a2.398 2.398 0 1 1-4.181 2.353c-4.366-7.754-13.889-12.231-22.645-10.646-8.756 1.586-16.105 9.118-17.474 17.911a2.399 2.399 0 0 1-2.367 2.03z"/></g></g></g><g><path d="M381.918 329.986c-.053 15.396-4.91 29.928-12.736 43.399l-.005.006c-21.644 37.242-65.992 66.339-94.369 82.966-38.644-22.641-109.125-68.407-109.872-126.371-.149-11.835 4.217-23.707 11.829-33.175 12.416-15.46 33.473-24.522 57.622-16.59 35.574 11.68 39.412 55.783 39.412 55.783s3.092-44.103 38.666-55.783c38.944-12.789 69.576 16.473 69.453 49.765z" fill="#f22a4e"/><path d="M320.973 294.28c6.45-.4 12.792 1.4 18.361 4.607 2.705 1.558 5.027 3.385 7.331 5.482 2.139 1.946 4.291 5.625 7.229 6.264 1.153.251 2.33-.337 2.667-1.514 1.021-3.567-2.534-7.49-4.715-9.93-2.398-2.683-5.614-4.989-8.772-6.699-6.789-3.675-14.449-5.063-22.101-4.382-3.904.348-4.001 6.42 0 6.172zM357.743 322.368c.888 1.99 1.517 4.088 1.931 6.226.379 1.959.679 4.178 1.652 5.929.823 1.481 3.313 1.612 4.1 0 2.307-4.728-.154-10.946-2.192-15.365-1.719-3.728-7.139-.485-5.491 3.21z" fill="#ff5c79"/><path d="M369.177 373.391c-21.644 37.242-65.992 66.339-94.369 82.966-38.644-22.641-109.125-68.407-109.872-126.371-.149-11.835 4.217-23.707 11.829-33.175-.992 30.723 14.393 61.733 38.959 80.658 28.761 22.15 68.231 28.249 103.437 19.394 18.009-4.531 34.882-12.709 50.016-23.472z" fill="#c91838"/><path d="M274.809 458.223a1.86 1.86 0 0 1-.943-.256c-18.784-11.005-46.425-28.183-69.493-50.2-27.074-25.841-40.97-52.002-41.301-77.757-.152-12.155 4.195-24.36 12.242-34.368 6.71-8.355 15.454-14.466 25.287-17.672 10.809-3.523 22.694-3.357 34.372.478 15.067 4.947 26.885 16.463 34.176 33.303a88.581 88.581 0 0 1 4.569 13.511c.92-3.9 2.3-8.573 4.356-13.489 7.045-16.852 18.737-28.375 33.812-33.325 17.902-5.879 35.467-3.515 49.458 6.656 14.118 10.263 22.507 27.043 22.442 44.888-.051 14.668-4.421 29.583-12.988 44.33a1.531 1.531 0 0 1-.041.068c-16.355 28.102-48.318 56.221-95.003 83.577-.294.171-.62.256-.945.256zm-58.222-179.074c-14.835 0-28.482 6.524-38.366 18.831-7.506 9.335-11.561 20.693-11.418 31.983.53 41.148 35.862 81.792 108.006 124.231 45.643-26.87 76.849-54.369 92.755-81.74l.04-.065c8.211-14.155 12.4-28.423 12.449-42.409.061-16.65-7.754-32.296-20.904-41.856-12.996-9.447-29.368-11.623-46.1-6.129-14.183 4.657-24.779 15.127-31.491 31.117-5.067 12.071-5.888 22.917-5.896 23.025a1.866 1.866 0 0 1-1.846 1.733h-.016a1.865 1.865 0 0 1-1.858-1.702c-.01-.108-1.014-10.958-6.263-23.034-6.956-16.003-17.68-26.48-31.872-31.14-5.816-1.91-11.604-2.845-17.22-2.845zm152.595 94.237h.005z" fill="#911027"/></g><g><path d="M381.702 385.163c-3.542 2.864-9.626 3.3-12.781 3.405-3.156.105-6.417-.474-9.062-2.198-2.646-1.723-4.575-4.717-4.498-7.873s2.475-6.254 5.61-6.637c-3.195-1.31-5.664-4.362-6.071-7.791-.408-3.429 1.373-7.07 4.427-8.681s7.194-.946 9.45 1.669c-1.103-2.489-.31-5.616 1.688-7.465 1.999-1.849 5.036-2.497 7.633-1.682 7.892 2.477 11.146 8.318 12.068 12.457 1.996 8.955-2.855 20.26-8.464 24.796z" fill="#a63c30"/><path d="M368.216 390.446c-3.616 0-6.843-.863-9.375-2.512-3.385-2.206-5.434-5.84-5.345-9.482a9.016 9.016 0 0 1 3.498-6.883c-2.158-1.872-3.614-4.48-3.947-7.279-.507-4.265 1.718-8.604 5.41-10.551 2.513-1.325 5.509-1.417 8.071-.438.298-1.902 1.22-3.736 2.67-5.077 2.482-2.296 6.194-3.117 9.459-2.093 10.224 3.209 12.788 11.398 13.331 13.831 2.178 9.774-2.954 21.672-9.112 26.653-2.913 2.355-7.457 3.605-13.893 3.819-.257.008-.514.012-.767.012zm-5.259-34.071c-.953 0-1.908.215-2.76.664-2.319 1.223-3.768 4.087-3.444 6.81.319 2.682 2.298 5.208 4.926 6.285a1.865 1.865 0 0 1-.482 3.578c-2.094.256-3.912 2.468-3.97 4.83-.057 2.324 1.376 4.783 3.651 6.265 2.608 1.7 5.781 1.969 7.982 1.897 5.517-.184 9.443-1.19 11.67-2.991 5.171-4.182 9.612-14.88 7.817-22.939-.433-1.94-2.49-8.472-10.806-11.082-1.981-.623-4.314-.111-5.808 1.271-1.462 1.352-1.999 3.647-1.249 5.339a1.866 1.866 0 0 1-3.119 1.974c-1.065-1.233-2.731-1.901-4.408-1.901zm18.745 28.788h.005z" fill="#7d271d"/></g><g><path d="M151.357 322.669c2.779-3.609 8.595-5.447 11.64-6.283s6.351-1.03 9.325.031 5.546 3.525 6.204 6.612c.659 3.088-.954 6.658-3.913 7.759 3.412.531 6.522 2.927 7.716 6.167 1.193 3.24.308 7.195-2.288 9.472-2.596 2.276-6.778 2.592-9.579.574 1.651 2.165 1.607 5.39.093 7.652-1.514 2.263-4.318 3.599-7.034 3.41-8.251-.575-12.774-5.499-14.633-9.311-4.022-8.244-1.932-20.368 2.469-26.083z" fill="#a63c30"/><path d="M164.039 359.948c-.216 0-.432-.008-.648-.023-10.69-.745-15.087-8.113-16.18-10.354-4.39-8.999-2.165-21.764 2.668-28.04v-.001c2.286-2.969 6.415-5.239 12.625-6.943 3.787-1.04 7.398-1.014 10.446.074 3.805 1.358 6.641 4.416 7.402 7.98a9.015 9.015 0 0 1-1.802 7.508c2.533 1.32 4.556 3.518 5.53 6.162 1.484 4.031.329 8.768-2.809 11.52-2.136 1.873-5.032 2.659-7.748 2.302.152 1.919-.319 3.918-1.417 5.559-1.762 2.631-4.874 4.256-8.067 4.256zm-11.204-36.141c-4.057 5.27-5.89 16.708-2.271 24.128.872 1.786 4.391 7.662 13.086 8.268 2.071.143 4.222-.895 5.353-2.587 1.107-1.655 1.096-4.012-.026-5.483a1.866 1.866 0 0 1 2.574-2.646c2.072 1.493 5.261 1.29 7.258-.463 1.972-1.729 2.715-4.851 1.768-7.424-.934-2.535-3.446-4.531-6.252-4.968a1.866 1.866 0 0 1-.364-3.593c1.977-.736 3.232-3.31 2.739-5.621-.485-2.273-2.45-4.331-5.007-5.244-2.933-1.047-6.08-.572-8.204.01-5.321 1.462-8.906 3.354-10.654 5.623z" fill="#7d271d"/></g><g><path d="M252.049 264.575a33.801 33.801 0 0 0 2.847 3.393c4.981 5.171 12.029 8.839 19.167 8.069 5.738-.618 10.768-4.044 14.362-8.643-10.558-7.119-25.438-8.88-36.376-2.819z" fill="#f22a4e"/><path d="M272.212 278.002c-6.458 0-13.297-3.171-18.661-8.739a35.569 35.569 0 0 1-3.003-3.578 1.867 1.867 0 0 1 .596-2.741c10.995-6.092 26.754-4.898 38.324 2.905a1.865 1.865 0 0 1 .426 2.696c-4.218 5.397-9.77 8.717-15.632 9.349-.676.072-1.361.108-2.05.108zm-17.279-12.778c.43.51.863.991 1.306 1.451 5.141 5.337 11.73 8.144 17.624 7.509 4.267-.46 8.379-2.696 11.751-6.356-9.53-5.622-21.58-6.634-30.681-2.604z"/><g><path d="M296.004 239.187c-6.346 7.062-15.008 12.008-24.316 13.883-9.307 1.875-19.209.668-27.794-3.387 2.463 5.131 4.809 10.366 8.155 14.893 10.939-6.061 25.818-4.3 36.376 2.82a28.368 28.368 0 0 0 3.519-5.845c3.282-7.331 4.096-14.333 4.06-22.364z" fill="#821629"/><path d="M288.424 269.261a1.86 1.86 0 0 1-1.042-.319c-10.454-7.049-24.612-8.174-34.428-2.735-.82.453-1.848.23-2.405-.523-3.083-4.17-5.34-8.909-7.523-13.492l-.813-1.702a1.864 1.864 0 0 1 2.479-2.494c8.239 3.893 17.697 5.045 26.628 3.245 8.932-1.799 17.206-6.523 23.296-13.301a1.865 1.865 0 0 1 3.254 1.239c.03 6.709-.447 14.704-4.223 23.135a30.092 30.092 0 0 1-3.751 6.231 1.868 1.868 0 0 1-1.472.716zm-21.307-10.189c7.126 0 14.516 1.969 20.837 5.807.88-1.29 1.647-2.66 2.287-4.091 2.308-5.156 3.482-10.299 3.805-17-6.168 5.575-13.825 9.466-21.989 11.11-8.104 1.633-16.601 1.031-24.396-1.668 1.497 3.083 3.086 6.158 4.975 8.945 4.355-2.081 9.35-3.103 14.481-3.103z"/></g></g></svg>