<svg id="Capa_1" enable-background="new 0 0 512 512" viewBox="0 0 512 512" xmlns="http://www.w3.org/2000/svg"><g><g><g><g><path d="m133.678 100.267c.886.741 1.827 1.371 2.794 1.93-6.491 8.3-5.287 20.304 2.856 27.113.979.818 2.018 1.516 3.094 2.112 4.262-5.81 10.435-10.204 17.755-12.165l18.465-4.948-.115-.87c-.951-7.188-1.049-17.847 3.889-27.801 5.591-11.272 16.37-19.23 32.023-23.681-.251-5.289-2.607-10.462-6.99-14.126-8.143-6.808-20.171-5.866-27.19 1.993-.721-.853-1.508-1.667-2.394-2.408-8.311-6.948-20.681-5.844-27.629 2.467-3.804 4.55-5.178 10.314-4.294 15.741-5.498.092-10.927 2.465-14.731 7.015-6.949 8.311-5.844 20.68 2.467 27.628z" fill="#6e61b6"/><path d="m207.448 47.831c-1.951-1.631-4.129-2.806-6.404-3.558-24.936 9.417-40.211 27.705-43.427 51.451-.212 1.563-1.352 2.84-2.875 3.249-8.466 2.269-15.998 6.518-22.169 12.156-1.071 6.602 1.249 13.579 6.755 18.181.979.818 2.018 1.516 3.094 2.112 4.262-5.81 10.435-10.204 17.755-12.165l18.465-4.948-.115-.87c-.951-7.188-1.049-17.847 3.889-27.801 5.591-11.272 16.37-19.23 32.023-23.681-.252-5.289-2.609-10.462-6.991-14.126z" fill="#6354b1"/><path d="m375.942 193.1h-1.877c4.882-5.861 7.751-13.37 7.751-21.412 0-13.796-8.21-25.234-19.572-30.442-1.504 1.765-2.411 3.995-2.496 6.372l-.361 10.123c-.181 5.087-4.44 8.128-8.453 8.128-1.934 0-3.769-.67-5.306-1.938l-7.815-6.444c-1.861-1.534-4.214-2.379-6.625-2.379-.968 0-1.93.135-2.861.401l-9.739 2.785c-.785.225-1.583.338-2.371.338-2.746 0-5.332-1.39-6.917-3.718-1.579-2.32-1.89-5.16-.853-7.793l3.714-9.424c1.257-3.189.864-6.791-1.05-9.634l-5.658-8.401c-1.767-2.624-1.936-5.856-.452-8.645 1.489-2.798 4.252-4.468 7.391-4.468.183 0 .367.006.554.017l10.11.62c.213.013.427.02.639.02 3.223 0 6.211-1.456 8.198-3.996l6.242-7.977c1.075-1.374 2.461-2.331 4.027-2.831-7.702-11.065-21.835-17.093-36.153-13.257l-3.985 1.068c-2.758-34.451-40.81-61.609-57.544-71.944-3.405-2.103-7.791.357-7.791 4.359v16.396c0 14.99-8.859 28.235-21.579 31.694-37.44 10.182-39.611 37.467-37.575 52.852l-17.617 4.721c-14.624 3.918-24.793 17.171-24.793 32.311 0 21.995 20.863 38.003 42.108 32.311l-51.013 13.669c-14.624 3.919-24.793 17.171-24.793 32.311 0 19.935 17.138 34.952 36.166 33.352.096.008.255.144.447.347l2.656.849c1.161-.047 2.324-.079 3.493-.079h32.609l.816-4.758c.571-3.33-.532-6.726-2.952-9.084l-7.138-6.958c-2.304-2.245-3.085-5.412-2.091-8.471s3.488-5.161 6.67-5.624l9.865-1.433c3.344-.486 6.233-2.585 7.728-5.615l4.412-8.939c1.423-2.884 4.193-4.606 7.41-4.606s5.987 1.722 7.41 4.606l4.413 8.939c1.495 3.03 4.383 5.129 7.727 5.615l9.865 1.433c3.183.462 5.677 2.565 6.671 5.624s.212 6.226-2.091 8.471l-7.138 6.958c-2.419 2.359-3.523 5.755-2.952 9.085l.816 4.758h141.571c.915 0 1.828.015 2.738.044l2.027-.903 3.367-.141c19.126 0 34.63-15.505 34.63-34.63.001-19.129-15.504-34.633-34.63-34.633z" fill="#fff3de"/><g fill="#ffe5c2"><path d="m375.942 193.1h-1.877c4.882-5.861 7.751-13.37 7.751-21.412 0-13.418-7.77-24.595-18.65-29.986-1.46 1.623-2.339 3.718-2.418 5.952l-.361 10.123c-.199 5.584-4.924 9.246-9.8 9.064-10.62 36.935-44.8 64.159-85.031 64.159h-28.477c2.655 3.492 2.756 8.743-.869 12.276l-7.138 6.958c-2.183 2.128-3.18 5.194-2.664 8.199l.845 4.927h140.557c.915 0 1.828.015 2.738.044l2.027-.903 3.367-.141c19.126 0 34.63-15.505 34.63-34.63.001-19.126-15.504-34.63-34.63-34.63z"/><path d="m176.628 258.434c.515-3.005-.481-6.071-2.664-8.199l-7.138-6.958c-3.625-3.533-3.524-8.784-.869-12.276h-64.46c1.158 18.873 17.745 32.787 36.096 31.244.096.008.255.144.447.347l2.656.849c1.161-.047 2.324-.079 3.493-.079h31.594z"/></g><path d="m413.434 347.661h-314.868c-3.3 0-6.484-.529-9.471-1.519l46.252 147.837c1.958 6.26 7.757 10.521 14.316 10.521h212.675c6.559 0 12.357-4.261 14.316-10.521l46.252-147.837c-2.988.99-6.172 1.519-9.472 1.519z" fill="#fd4755"/><path d="m413.434 347.661h-314.868c-3.3 0-6.484-.529-9.471-1.519l46.252 147.837c1.958 6.26 7.757 10.521 14.316 10.521h212.675c6.559 0 12.357-4.261 14.316-10.521l46.252-147.837c-2.988.99-6.172 1.519-9.472 1.519z" fill="#fe646f"/><path d="m413.434 347.661h-26.843l-36.034 115.176c-1.958 6.26-7.757 10.521-14.316 10.521h-207.346l6.451 20.621c1.958 6.26 7.757 10.521 14.316 10.521h212.675c6.559 0 12.357-4.261 14.316-10.521l46.252-147.837c-2.987.99-6.171 1.519-9.471 1.519z" fill="#fd4755"/><path d="m152.282 347.661 36.947 156.839h133.541l36.947-156.839z" fill="#ffe177"/><path d="m181.893 473.358 7.336 31.142h133.541l7.337-31.142z" fill="#ffd15b"/><path d="m216.868 347.661 17.883 156.839h42.497l17.884-156.839z" fill="#fe646f"/><path d="m231.2 473.358 3.551 31.142h42.497l3.551-31.142z" fill="#fd4755"/><path d="m439.388 301.802c-.101-.161-.201-.321-.303-.481-15.409-24.382-42.432-38.959-71.275-38.959h-223.621c-28.841 0-55.864 14.576-71.273 38.956-.102.161-.204.323-.305.485-12.761 20.392 1.898 46.859 25.954 46.859h314.868c24.057-.001 38.716-26.468 25.955-46.86z" fill="#c96e59"/><path d="m439.388 301.802c-.101-.161-.202-.321-.303-.481-10.382-16.427-26.039-28.395-43.97-34.461.709 1.017 1.404 2.046 2.07 3.1.101.16.202.321.303.481 12.761 20.392-1.898 46.859-25.954 46.859h-303.616c-.365 16.208 12.446 31.361 30.647 31.361h314.868c24.057 0 38.716-26.467 25.955-46.859z" fill="#bb5d4c"/><path d="m209.825 212.036 4.412 8.939c1.349 2.734 3.958 4.629 6.975 5.067l9.865 1.433c7.598 1.104 10.632 10.441 5.134 15.801l-7.138 6.958c-2.183 2.128-3.18 5.194-2.664 8.199l1.685 9.825c1.298 7.567-6.645 13.338-13.441 9.765l-8.824-4.639c-2.699-1.419-5.923-1.419-8.621 0l-8.824 4.639c-6.796 3.573-14.739-2.198-13.441-9.765l1.685-9.825c.515-3.005-.481-6.071-2.664-8.199l-7.138-6.958c-5.498-5.359-2.464-14.697 5.134-15.801l9.865-1.433c3.017-.438 5.625-2.333 6.975-5.067l4.412-8.939c3.397-6.885 13.215-6.885 16.613 0z" fill="#80d261"/><path d="m231.077 227.476-9.865-1.433c-1.196-.174-2.323-.585-3.338-1.178-1.459 17.988-16.51 32.135-34.874 32.135-2.138 0-4.228-.202-6.26-.569.031.664.003 1.334-.111 2.003l-1.685 9.825c-1.298 7.567 6.645 13.338 13.441 9.765l8.824-4.639c2.699-1.419 5.923-1.419 8.621 0l8.823 4.639c6.796 3.573 14.739-2.198 13.441-9.765l-1.685-9.825c-.515-3.005.481-6.071 2.664-8.199l7.138-6.958c5.498-5.36 2.464-14.697-5.134-15.801z" fill="#68ca44"/><path d="m353.875 98.062 2.535 9.807c.775 2.999 2.977 5.425 5.887 6.487l9.516 3.472c7.329 2.674 8.41 12.591 1.83 16.782l-8.544 5.441c-2.613 1.664-4.24 4.508-4.35 7.604l-.361 10.123c-.278 7.796-9.376 11.89-15.395 6.926l-7.815-6.444c-2.39-1.971-5.597-2.639-8.576-1.788l-9.739 2.784c-7.501 2.145-14.205-5.243-11.345-12.501l3.714-9.424c1.136-2.882.781-6.139-.95-8.708l-5.658-8.402c-4.358-6.471.597-15.13 8.383-14.652l10.11.62c3.092.19 6.08-1.155 7.989-3.594l6.242-7.977c4.809-6.145 14.574-4.109 16.527 3.444z" fill="#ffe177"/><path d="m371.812 117.828-9.516-3.472c-2.201-.803-3.993-2.387-5.073-4.408-3.701 18.838-20.299 33.052-40.223 33.052-2.638 0-5.214-.259-7.713-.735l-1.769 4.489c-2.86 7.258 3.844 14.646 11.345 12.501l9.739-2.784c2.979-.852 6.186-.183 8.576 1.788l7.815 6.444c6.019 4.963 15.117.87 15.395-6.926l.361-10.123c.111-3.096 1.737-5.939 4.35-7.603l8.544-5.441c6.579-4.191 5.498-14.108-1.831-16.782z" fill="#ffd15b"/></g></g></g><path d="m445.75 297.83-.325-.517c-10.57-16.725-25.977-29.205-43.87-36.164 10.034-7.708 16.518-19.817 16.518-33.419 0-19.631-13.495-36.169-31.695-40.823 1.925-4.81 2.938-9.977 2.938-15.219 0-11.586-4.793-22.288-12.977-29.904l1.332-.848c5.47-3.484 8.431-9.652 7.728-16.099s-4.924-11.832-11.017-14.055l-9.516-3.472c-.591-.215-1.038-.708-1.196-1.318l-2.535-9.807c-1.623-6.278-6.574-11.001-12.923-12.324-1.215-.253-2.434-.369-3.638-.36-9.341-10.012-22.917-14.678-36.434-12.47-1.435-6.232-3.861-12.481-7.3-18.666-2.013-3.62-6.579-4.923-10.2-2.91-3.62 2.013-4.923 6.58-2.91 10.2 2.81 5.053 4.762 10.092 5.869 15.051l-20.266 5.43c-4.001 1.072-6.375 5.185-5.303 9.186 1.072 4 5.183 6.374 9.186 5.303l30.734-8.235c8.042-2.157 16.368-.337 22.694 4.623l-5.446 6.959c-.388.496-.997.77-1.623.73l-10.11-.62c-6.468-.403-12.494 2.853-15.714 8.481s-2.971 12.467.651 17.846l5.657 8.401c.352.522.424 1.184.193 1.77l-3.714 9.424c-2.378 6.033-1.147 12.765 3.21 17.566 4.358 4.803 10.938 6.678 17.174 4.896l9.738-2.785c.607-.172 1.257-.037 1.743.364l7.815 6.444c3.104 2.559 6.891 3.881 10.731 3.881 2.351 0 4.723-.496 6.968-1.506 5.914-2.661 9.731-8.339 9.962-14.82l.118-3.318c4.012 4.623 6.316 10.58 6.316 16.962 0 6.057-2.136 11.956-6.013 16.611-1.862 2.236-2.263 5.347-1.029 7.982s3.882 4.318 6.792 4.318h1.876c14.96 0 27.131 12.171 27.131 27.131s-12.171 27.13-27.131 27.13h-140.869l6.376-6.214c4.603-4.487 6.228-11.071 4.242-17.185-1.986-6.113-7.172-10.485-13.533-11.409l-9.864-1.433c-.574-.083-1.071-.444-1.328-.965l-4.412-8.939c-2.845-5.764-8.605-9.345-15.032-9.345-6.428 0-12.188 3.581-15.033 9.345l-4.412 8.939c-.257.521-.753.882-1.328.965l-9.865 1.433c-6.36.924-11.546 5.295-13.532 11.409s-.361 12.698 4.242 17.185l6.339 6.179-30.337-.093c-.21 0-.419.009-.628.026-7.154.603-14.325-1.875-19.677-6.797-5.392-4.957-8.361-11.733-8.361-19.082 0-11.724 7.909-22.032 19.234-25.066l51.013-13.669c4.001-1.072 6.375-5.185 5.303-9.186-1.072-4-5.188-6.373-9.186-5.303-7.856 2.104-16.062.473-22.514-4.478s-10.153-12.455-10.153-20.588c0-11.724 7.909-22.032 19.234-25.066l45.556-12.207c4.001-1.072 6.375-5.185 5.304-9.186-1.072-4-5.186-6.373-9.186-5.303l-19.007 5.093c.766-22.357 17.615-31.914 32.552-35.976 15.963-4.341 27.111-20.351 27.111-38.932v-12.059c6.382 4.149 14.629 10.057 22.674 17.396 3.062 2.792 7.805 2.574 10.596-.486 2.792-3.061 2.574-7.804-.486-10.596-10.541-9.615-21.345-16.939-28.553-21.391-3.882-2.397-8.771-2.506-12.758-.283-3.993 2.227-6.473 6.451-6.473 11.023v16.396c0 8.998-4.04 17.167-10.163 21.59-1.634-3.247-3.916-6.152-6.769-8.537-9.296-7.772-22.146-8.32-31.864-2.129-5.14-3.464-11.264-5.047-17.523-4.491-7.214.645-13.745 4.059-18.39 9.616-3.413 4.083-5.508 9.031-6.114 14.219-4.998 1.515-9.498 4.455-12.91 8.537-4.646 5.556-6.849 12.589-6.205 19.803.559 6.259 3.204 12.004 7.524 16.451-3.918 9.559-2.043 20.625 5.084 28.416-2.722 5.506-4.235 11.669-4.235 18.104 0 12.834 5.84 24.676 16.021 32.488.346.265.694.524 1.045.777l-20.413 5.47c-17.871 4.789-30.352 21.054-30.352 39.556 0 11.594 4.691 22.292 13.208 30.123.921.847 1.878 1.646 2.865 2.399-2.086.826-4.144 1.72-6.16 2.697-3.728 1.806-5.287 6.291-3.482 10.019 1.295 2.675 3.971 4.233 6.756 4.233 1.097 0 2.21-.242 3.263-.751 10.472-5.071 22.164-7.751 33.813-7.751h23.125c-.007 5.317 2.491 10.329 6.905 13.536 2.938 2.135 6.376 3.22 9.837 3.22 2.664 0 5.342-.643 7.817-1.943l8.823-4.639c.514-.27 1.127-.27 1.642 0l8.823 4.639c5.69 2.991 12.454 2.502 17.654-1.276 4.411-3.205 6.909-8.214 6.905-13.526h132.092c26.626 0 50.9 13.258 64.941 35.476l.279.443c4.524 7.23 4.759 16.002.626 23.464-4.133 7.461-11.693 11.917-20.223 11.917h-314.867c-8.53 0-16.09-4.455-20.223-11.917s-3.898-16.233.633-23.474l.28-.446c1.747-2.764 3.7-5.446 5.805-7.971 2.652-3.182 2.223-7.911-.959-10.563-3.182-2.651-7.91-2.223-10.563.959-2.523 3.027-4.866 6.244-6.958 9.555l-.327.519c-7.461 11.922-7.847 26.385-1.032 38.688 4.217 7.614 10.602 13.323 18.187 16.573l44.78 143.133c2.953 9.44 11.583 15.782 21.474 15.782h212.675c9.891 0 18.521-6.342 21.474-15.782l44.78-143.133c7.585-3.25 13.97-8.959 18.187-16.573 6.814-12.303 6.428-26.767-1.029-38.682zm-76.137-169.547-8.543 5.441c-4.696 2.99-7.618 8.097-7.817 13.662l-.361 10.123c-.035.982-.632 1.453-1.126 1.675-.495.223-1.243.356-2.001-.269l-7.815-6.444c-3.067-2.529-6.88-3.864-10.76-3.864-1.553 0-3.118.214-4.649.652l-9.738 2.785c-.945.27-1.578-.152-1.942-.554-.365-.402-.723-1.072-.363-1.986l3.714-9.424c2.042-5.18 1.404-11.029-1.707-15.648l-5.657-8.401c-.549-.815-.343-1.548-.074-2.019s.789-1.013 1.777-.959l10.109.62c5.562.345 10.924-2.073 14.355-6.458l6.242-7.977c.605-.773 1.365-.802 1.896-.694.531.111 1.215.442 1.461 1.394l2.534 9.807c1.393 5.391 5.348 9.748 10.578 11.656l9.516 3.472c.923.336 1.187 1.05 1.246 1.589.058.54-.046 1.293-.875 1.821zm-227.234-21.475c1.338-1.711 1.869-3.917 1.455-6.049s-1.731-3.98-3.612-5.066c-.677-.392-1.246-.781-1.734-1.189-2.482-2.076-4.008-4.994-4.296-8.217s.697-6.365 2.772-8.848c2.25-2.691 5.567-4.268 9.101-4.326 2.178-.036 4.232-1.017 5.629-2.688s1.999-3.867 1.648-6.017c-.568-3.489.396-7.034 2.646-9.725 2.076-2.482 4.994-4.008 8.216-4.296s6.365.697 8.848 2.773c.488.408.972.897 1.477 1.496 1.402 1.658 3.455 2.627 5.626 2.657 2.209.038 4.25-.884 5.696-2.504 4.377-4.902 11.75-5.444 16.785-1.234.898.75 1.668 1.62 2.3 2.579-23.745 9.171-36.315 27.538-35.393 51.782l-11.568 3.1c-6.352 1.702-12.017 4.859-16.689 9.046-2.269-4.119-1.994-9.328 1.093-13.274zm88.597 131.098-7.14 6.958c-3.951 3.852-5.752 9.398-4.82 14.837l1.685 9.825c.153.893-.297 1.431-.701 1.725-.405.293-1.053.557-1.857.134l-8.823-4.638c-4.884-2.569-10.718-2.569-15.602 0l-8.823 4.639c-.802.422-1.453.16-1.857-.134-.405-.294-.855-.832-.702-1.725l1.685-9.825c.933-5.438-.869-10.985-4.821-14.838l-7.138-6.958c-.649-.632-.601-1.333-.447-1.808.155-.476.527-1.07 1.423-1.2l9.865-1.433c5.461-.793 10.179-4.222 12.622-9.17l4.412-8.939c.401-.812 1.081-.983 1.582-.983.5 0 1.18.171 1.581.983l4.412 8.938c2.442 4.949 7.161 8.378 12.623 9.171l9.864 1.433c.897.13 1.27.725 1.424 1.201.153.475.201 1.174-.447 1.807zm-81.314 259.094c-3.297 0-6.173-2.114-7.158-5.261l-42.417-135.579h46.492l33.178 140.84zm45.506 0-33.178-140.839h48.298l16.059 140.839zm46.277 0-16.059-140.839h61.229l-16.06 140.839zm128.05-5.261c-.985 3.146-3.861 5.261-7.158 5.261h-30.095l15.215-64.586c.95-4.032-1.549-8.07-5.581-9.02-4.03-.951-8.07 1.548-9.02 5.581l-16.024 68.025h-31.18l16.059-140.839h48.298l-9.127 38.746c-.95 4.032 1.549 8.07 5.581 9.02 4.032.949 8.07-1.548 9.02-5.581l9.938-42.185h46.492z"/></g><g/><g/><g/><g/><g/><g/><g/><g/><g/><g/><g/><g/><g/><g/><g/></svg>