<svg height="512" width="512" xmlns="http://www.w3.org/2000/svg"><path d="M192.671 378.629c-.455 3.089-1.375 7.089-2.444 10.022-1.07 2.933-2.806 5.71-5.364 7.5s-6.017 2.453-8.884 1.217c-2.867-1.237-4.822-4.581-4.015-7.597-2.382 2.447-6.094 3.583-9.389 2.69-3.296-.893-5.978-3.871-6.327-7.268s1.79-6.948 5.022-8.052c-2.691.092-5.266-1.79-6.223-4.306s-.43-5.542 1.277-7.623c5.187-6.324 11.741-5.821 15.885-6.467 6.653-8.155 39.002-41.464 45.655-49.619 0 0 12.297-3.136 21.286 13.191 7.631 13.862-.101 26.128-.101 26.128-10.77 8.225-46.378 30.184-46.378 30.184z" fill="#a63c30"/><path d="M179.17 399.851a9.868 9.868 0 0 1-3.921-.789 8.917 8.917 0 0 1-5.021-5.751c-2.514 1.286-5.444 1.661-8.135.931-4.101-1.111-7.258-4.755-7.679-8.86-.287-2.794.736-5.577 2.58-7.565-1.634-.977-2.976-2.5-3.671-4.326-1.189-3.124-.57-6.833 1.575-9.449 4.808-5.862 10.628-6.444 14.878-6.869a68.68 68.68 0 0 0 1.47-.157c3.717-4.432 12.829-14.119 22.452-24.35 9.563-10.167 19.452-20.68 22.737-24.706a1.845 1.845 0 1 1 2.859 2.333c-3.367 4.128-12.859 14.218-22.908 24.902-9.568 10.172-19.461 20.69-22.747 24.717a1.843 1.843 0 0 1-1.145.657 43.22 43.22 0 0 1-2.35.276c-4.008.401-8.551.856-12.393 5.538-1.301 1.587-1.695 3.916-.979 5.797.7 1.84 2.591 3.198 4.436 3.119.918-.015 1.713.612 1.878 1.511s-.353 1.784-1.219 2.079c-2.39.815-4.051 3.503-3.782 6.117.265 2.579 2.356 4.966 4.973 5.676 2.579.697 5.626-.184 7.585-2.197a1.845 1.845 0 0 1 3.104 1.764c-.539 2.015.818 4.501 2.964 5.427 2.111.911 4.896.504 7.096-1.034 2.523-1.765 3.942-4.575 4.688-6.62.948-2.6 1.871-6.391 2.352-9.659a1.844 1.844 0 0 1 .857-1.302c.355-.219 35.652-22.004 46.225-30.081a1.844 1.844 0 1 1 2.24 2.932c-9.998 7.637-40.557 26.597-45.805 29.843-.542 3.288-1.46 6.943-2.403 9.531-1.331 3.648-3.419 6.546-6.039 8.38-2.061 1.438-4.445 2.184-6.752 2.185z" fill="#7d271d"/><g fill="#e36254"><path d="M358.815 386.525c-9.772-.749-19.365-4.524-26.029-11.202-.512 4.703-1.156 9.33-2.067 13.824a87.196 87.196 0 0 1-1.029 4.557c5.496 6.756 13.456 9.793 21.844 11.221 2.405-3.812 4.305-7.98 5.689-12.239a54.754 54.754 0 0 0 1.592-6.161zM362.299 360.556c.94-4.59 2.387-9.018 4.91-13.152-5.297-2.667-10.086-6.667-14.271-11.234-5.386-6.102-8.615-13.66-10.191-21.392-3.928 9.093-5.867 18.943-7.084 29.012 4.739 9.377 15.599 15.078 26.636 16.766zM375.042 329.377a38.954 38.954 0 0 0 5.935 5.754c6.796-3.144 14.352-4.361 20.95-7.432a37.005 37.005 0 0 1-6.875-5.379c-10.156-9.937-16.396-26.036-11.428-39.66-6.644.369-13.119 2.556-18.892 5.999-3.189 14.102.539 29.135 10.31 40.718z"/></g><path d="M352.939 336.171c4.185 4.568 8.974 8.568 14.271 11.234a33.262 33.262 0 0 1 5.378-6.679c2.551-2.455 5.397-4.211 8.389-5.595a39.048 39.048 0 0 1-5.935-5.754c-9.771-11.582-13.499-26.615-10.31-40.716a48.914 48.914 0 0 0-10.838 8.81c-4.897 5.308-8.478 11.134-11.146 17.309 1.576 7.731 4.805 15.288 10.191 21.391z" fill="#a63c30"/><path d="M367.209 349.25a1.85 1.85 0 0 1-.829-.197c-5.101-2.568-10.08-6.483-14.801-11.636l-.023-.025c-5.174-5.862-8.845-13.554-10.616-22.245a1.852 1.852 0 0 1 .114-1.1c2.943-6.81 6.699-12.642 11.484-17.828a50.516 50.516 0 0 1 11.249-9.143 1.846 1.846 0 0 1 2.745 1.991c-3.101 13.712.515 27.97 9.92 39.12a37.424 37.424 0 0 0 5.664 5.493 1.844 1.844 0 0 1-.365 3.125c-3.146 1.455-5.725 3.173-7.884 5.25a31.26 31.26 0 0 0-5.083 6.31 1.842 1.842 0 0 1-1.575.885zm-12.898-14.313c3.956 4.316 8.076 7.688 12.269 10.043a35.622 35.622 0 0 1 4.728-5.583c1.841-1.771 3.933-3.305 6.348-4.649a40.205 40.205 0 0 1-4.034-4.192c-9.169-10.869-13.237-24.507-11.46-37.99a47.12 47.12 0 0 0-6.912 6.156c-4.373 4.74-7.836 10.062-10.575 16.256 1.681 7.818 5.007 14.709 9.636 19.959z" fill="#7d271d"/><path d="M358.815 386.525c1.747-8.674 1.769-17.593 3.484-25.968-11.037-1.688-21.897-7.389-26.635-16.766-1.267 10.475-1.752 21.188-2.878 31.532 6.665 6.678 16.258 10.452 26.029 11.202z" fill="#a63c30"/><path d="M358.817 388.37c-.047 0-.095-.001-.143-.005-10.653-.818-20.565-5.096-27.194-11.739a1.848 1.848 0 0 1-.528-1.503c.51-4.686.896-9.551 1.269-14.256.451-5.682.917-11.557 1.611-17.298a1.846 1.846 0 0 1 3.479-.611c4.084 8.082 13.529 13.979 25.267 15.774a1.843 1.843 0 0 1 1.528 2.194c-.839 4.094-1.258 8.265-1.701 12.681-.438 4.353-.89 8.853-1.782 13.281a1.843 1.843 0 0 1-1.806 1.482zm-24.1-13.744c5.658 5.351 13.774 8.902 22.597 9.902.661-3.739 1.046-7.57 1.42-11.29.371-3.689.752-7.485 1.403-11.183-9.846-1.887-18.113-6.528-23.203-12.91-.4 4.015-.72 8.061-1.034 12.013-.352 4.434-.714 9.01-1.183 13.468z" fill="#7d271d"/><path d="M323.432 405.895c-5.6 5.42-14.118 6.117-21.902 6.509-1.548 2.055-.624 4.663 1.638 5.888 9.724 5.266 21.905 6.183 31.967 1.596 6.865-3.13 12.349-8.541 16.4-14.963-8.388-1.428-16.348-4.465-21.844-11.221-1.18 4.559-2.922 8.961-6.259 12.191z" fill="#a63c30"/><path d="M321.113 424.669c-6.435 0-12.996-1.598-18.824-4.754-1.688-.914-2.872-2.426-3.246-4.148-.341-1.565.019-3.154 1.013-4.473a1.842 1.842 0 0 1 1.38-.732c8.073-.408 15.732-1.172 20.713-5.992 2.605-2.522 4.38-6.015 5.755-11.328a1.847 1.847 0 0 1 1.393-1.341 1.848 1.848 0 0 1 1.824.638c4.472 5.498 11.251 8.953 20.723 10.566a1.845 1.845 0 0 1 1.25 2.803c-4.529 7.179-10.475 12.594-17.195 15.657-4.551 2.077-9.628 3.104-14.786 3.104zm-18.45-10.477a1.66 1.66 0 0 0-.014.79c.144.661.667 1.292 1.398 1.688 9.5 5.145 21.12 5.734 30.323 1.539 5.346-2.437 10.172-6.56 14.08-12.003-7.581-1.657-13.486-4.574-17.909-8.852-1.092 3.249-2.83 6.968-5.826 9.867-5.667 5.485-13.631 6.505-22.052 6.971z" fill="#7d271d"/><path d="M387.35 282.645a35.612 35.612 0 0 0-3.726.016c-4.969 13.623 1.272 29.723 11.428 39.66a37.005 37.005 0 0 0 6.875 5.379c4.386-2.041 8.349-4.9 11.385-9.692 11.491-18.148-8.721-34.518-25.962-35.363z" fill="#a63c30"/><path d="M401.927 329.545c-.334 0-.666-.09-.96-.269a38.952 38.952 0 0 1-7.216-5.647c-9.59-9.383-17.4-26.411-11.861-41.6a1.845 1.845 0 0 1 1.631-1.21 38.004 38.004 0 0 1 3.919-.017c11.807.579 23.89 7.771 28.732 17.102 2.476 4.772 4.261 12.306-1.302 21.09-2.89 4.563-6.756 7.861-12.165 10.378a1.844 1.844 0 0 1-.778.173zm-16.963-45.089c-4.177 13.358 2.847 28.197 11.379 36.545a35.275 35.275 0 0 0 5.702 4.593c4.273-2.144 7.374-4.888 9.709-8.574 3.661-5.781 4.057-11.804 1.144-17.416-4.207-8.107-15.228-14.606-25.636-15.116a33.031 33.031 0 0 0-2.298-.032z" fill="#7d271d"/><path d="M321.113 424.669c-6.435 0-12.996-1.598-18.824-4.754-1.688-.914-2.872-2.426-3.246-4.148-.341-1.565.019-3.154 1.013-4.473a1.842 1.842 0 0 1 1.38-.732c8.074-.408 15.732-1.173 20.712-5.992 4.091-3.959 5.584-9.971 6.763-15.789 1.801-8.887 2.566-18.559 3.307-27.912 1.815-22.923 3.692-46.628 20.32-64.649 9.467-10.26 22.526-16.024 34.902-15.417 11.807.579 23.89 7.771 28.732 17.102 2.476 4.773 4.261 12.306-1.302 21.09-5.679 8.967-14.371 11.602-22.778 14.15-6.731 2.04-13.089 3.967-18.225 8.911-9.188 8.842-10.293 19.873-11.463 31.551-.649 6.475-1.319 13.17-3.426 19.649-4.312 13.271-12.725 23.59-23.078 28.31-4.552 2.076-9.629 3.103-14.787 3.103zm-18.45-10.477a1.66 1.66 0 0 0-.014.79c.144.661.667 1.292 1.398 1.688 9.5 5.145 21.12 5.734 30.323 1.539 9.415-4.292 17.106-13.803 21.1-26.094 1.983-6.102 2.634-12.596 3.263-18.876 1.185-11.828 2.41-24.059 12.576-33.842 5.776-5.559 12.862-7.707 19.714-9.783 8.118-2.461 15.786-4.785 20.73-12.593 3.661-5.781 4.057-11.803 1.144-17.416-4.207-8.107-15.228-14.606-25.636-15.116-11.322-.552-23.275 4.767-32.01 14.233-15.762 17.083-17.588 40.14-19.353 62.438-.75 9.463-1.524 19.248-3.369 28.354-1.237 6.106-2.963 13.014-7.813 17.707-5.668 5.484-13.632 6.505-22.053 6.971z" fill="#7d271d"/><path d="M230.53 392.575c-28.946 10.171-74.053 24.114-74.053 24.114s-16.018-19.596-21.635-14.235-.835 38.779 7.582 43.128c8.418 4.35 83.49 4.214 83.49 4.214z" fill="#a63c30"/><path d="M224.238 451.642c-12.967 0-74.536-.223-82.66-4.422-5.422-2.802-8.848-14.214-10.247-23.96-.593-4.128-2.182-17.924 2.238-22.142 1.082-1.032 2.509-1.523 4.118-1.426 6.614.409 16.401 11.321 19.418 14.87 7.287-2.264 46.82-14.595 72.813-23.728a1.846 1.846 0 0 1 2.45 1.889l-4.615 57.221a1.845 1.845 0 0 1-1.836 1.697l-1.679.001zm-86.964-48.273c-.634 0-.951.22-1.159.419-1.642 1.567-2.597 8.741-1.132 18.947 1.52 10.592 5.005 19.51 8.288 21.207 5.736 2.964 50.346 4.01 80.374 4.01h.566l4.251-52.701c-28.687 9.971-71.003 23.065-71.441 23.2a1.845 1.845 0 0 1-1.973-.595c-4.461-5.454-13.181-14.209-17.59-14.481a2.945 2.945 0 0 0-.184-.006z" fill="#7d271d"/><g><path d="M349.371 406.394c-4.504 29.485-46.114 45.632-66.654 49.806s-63.401 5.19-79.055-20.199c-12.851-20.832-6.302-61.513 1.398-100.125.286-1.424.568-2.843.856-4.257 1.41-6.984 2.841-13.87 4.172-20.531l84.615-17.193c3.663 5.372 7.487 10.9 11.334 16.519.734 1.072 1.469 2.149 2.205 3.226 22.418 32.859 44.871 68.281 41.129 92.754z" fill="#e36254"/><path d="M306.038 310.414c-31.035 25.618-74.999 32.007-100.978 25.462.286-1.424.568-2.843.856-4.257 1.41-6.984 2.841-13.87 4.172-20.531l84.615-17.193c3.664 5.372 7.487 10.9 11.335 16.519z" fill="#a63c30"/><path d="M258.759 460.319c-20.936 0-45.413-5.099-56.667-23.351-13.441-21.786-6.373-64.17 2.017-105.716a3997.76 3997.76 0 0 1 1.804-8.861c.807-3.947 1.603-7.844 2.367-11.666a1.846 1.846 0 0 1 1.442-1.447l84.616-17.193a1.843 1.843 0 0 1 1.892.769 2878.47 2878.47 0 0 0 6.771 9.877c2.237 3.254 4.502 6.548 6.767 9.868 23.068 33.814 45.268 68.935 41.428 94.072-2.041 13.364-11.785 25.706-28.177 35.692-13.674 8.33-29.594 13.543-39.933 15.643-6.43 1.308-15.031 2.313-24.327 2.313zm-47.101-147.668c-.691 3.442-1.406 6.941-2.129 10.48-.598 2.926-1.202 5.88-1.802 8.852-8.245 40.823-15.228 82.406-2.493 103.048 8.241 13.366 24.349 18.434 36.412 20.331 18.783 2.956 35.906.004 40.705-.972 23.988-4.874 61.146-21.753 65.198-48.277 3.641-23.809-19.166-59.681-40.828-91.435a3162.295 3162.295 0 0 0-6.759-9.857c-2.06-2.996-4.097-5.959-6.089-8.877z" fill="#7d271d"/></g><g><path d="M210.59 117.453c-11.198-13.35-17.924-19.315-30.734-31.479-7.028-6.674-15.356-14.344-25.975-15.473-4.475-.476-8.346 2.849-4.863 6.902 1.425 1.658 3.617 2.604 5.722 3.488-3.331-.407-5.547-.368-8.785.295s-6.311 2.137-8.334 4.468c-1.069 1.231-1.833 2.935-1.055 4.384.61 1.139 2.04 1.793 3.426 1.923s2.755-.174 4.091-.475c-14.169 25.716-15.731 77.102-4.133 92.917z" fill="#ffe8db"/><path d="M139.951 186.248a1.84 1.84 0 0 1-1.489-.754c-11.867-16.183-10.312-65.022 2.348-91.658a8.948 8.948 0 0 1-.991-.038c-2.164-.203-4.033-1.31-4.88-2.888-1.034-1.928-.552-4.345 1.288-6.465 2.145-2.471 5.468-4.27 9.357-5.066.84-.172 1.618-.306 2.37-.403a9.929 9.929 0 0 1-.337-.37c-1.843-2.145-2.289-4.539-1.224-6.568 1.245-2.372 4.329-3.728 7.681-3.371 11.523 1.225 20.498 9.748 27.051 15.971 1.595 1.515 3.096 2.933 4.523 4.282 9.926 9.383 16.484 15.581 26.355 27.349a1.845 1.845 0 0 1-2.827 2.372c-9.733-11.604-15.88-17.414-26.062-27.039-1.429-1.351-2.931-2.771-4.529-4.288-6.17-5.86-14.62-13.884-24.9-14.977-2.019-.216-3.579.57-4.024 1.417-.423.805.178 1.776.755 2.448 1.174 1.367 3.227 2.229 5.038 2.99a1.846 1.846 0 0 1-.938 3.533c-3.255-.398-5.247-.332-8.191.271-3.099.634-5.695 2.009-7.31 3.87-.587.676-1.154 1.685-.823 2.303.252.471 1.082.874 1.972.958 1.111.105 2.332-.171 3.513-.438a1.844 1.844 0 0 1 2.022 2.69c-6.444 11.695-10.743 30.146-11.501 49.354-.733 18.56 2.042 34.493 7.24 41.581a1.845 1.845 0 0 1-1.487 2.934z" fill="#e0a58f"/><path d="M161.272 98.475c10.589-5.086 31.928 26.953 34.513 32.981 2.585 6.029-34.152 33.98-41.048 30.284-6.897-3.695-2.816-58.773 6.535-63.265z" fill="#a63c30"/><path d="M156.263 163.887c-.926 0-1.734-.165-2.399-.52-3.207-1.719-4.685-9.297-4.393-22.523.334-15.141 3.617-40.483 11.001-44.031 2.039-.979 4.42-.97 7.077.027 12.191 4.575 27.976 29.331 29.931 33.891.757 1.766.691 5.097-8.579 13.594-8.13 7.452-24.698 19.562-32.638 19.562zm5.808-63.749c-4.179 2.007-8.331 20.626-8.886 39.843-.403 13.975 1.458 19.599 2.423 20.133 1.258.676 7.256-1.007 17.991-8.393 5.406-3.719 10.739-8.036 14.634-11.842 4.908-4.798 5.874-7.184 5.839-7.738-2.257-5.196-17.505-27.978-27.818-31.848-1.703-.638-3.072-.688-4.183-.155z" fill="#7d271d"/><path d="M283.533 117.453c11.198-13.35 17.924-19.315 30.734-31.479 7.028-6.674 15.356-14.345 25.975-15.474 4.475-.476 8.346 2.849 4.863 6.902-1.425 1.658-3.617 2.604-5.722 3.488 3.331-.407 5.547-.368 8.785.295s6.311 2.137 8.334 4.468c1.069 1.231 1.833 2.935 1.056 4.384-.611 1.139-2.04 1.793-3.426 1.923s-2.755-.174-4.091-.475c14.169 25.716 15.731 77.102 4.133 92.917z" fill="#ffe8db"/><path d="M354.171 186.248a1.845 1.845 0 0 1-1.486-2.936c5.198-7.089 7.972-23.022 7.24-41.581-.758-19.208-5.057-37.658-11.501-49.354a1.845 1.845 0 0 1 2.022-2.69c1.181.266 2.401.544 3.513.438.89-.084 1.72-.486 1.972-.958.332-.618-.236-1.627-.823-2.303-1.615-1.861-4.211-3.235-7.31-3.87-2.945-.603-4.935-.669-8.191-.271a1.846 1.846 0 0 1-.939-3.533c1.811-.761 3.864-1.624 5.038-2.99.578-.672 1.178-1.643.756-2.448-.445-.847-2.008-1.632-4.024-1.417-10.278 1.093-18.385 8.791-24.9 14.977-1.596 1.516-3.098 2.935-4.526 4.285-10.183 9.626-16.33 15.436-26.065 27.042a1.845 1.845 0 0 1-2.827-2.372c9.872-11.769 16.431-17.968 26.358-27.352 1.426-1.348 2.926-2.765 4.52-4.279 6.553-6.223 15.529-14.746 27.051-15.971 3.35-.355 6.437.999 7.682 3.371 1.066 2.03.619 4.424-1.224 6.568-.109.127-.221.25-.337.37.752.097 1.53.231 2.37.403 3.89.796 7.213 2.595 9.357 5.066 1.84 2.12 2.322 4.537 1.289 6.465-.846 1.578-2.716 2.685-4.88 2.888a8.957 8.957 0 0 1-.991.038c12.66 26.635 14.215 75.475 2.348 91.658a1.847 1.847 0 0 1-1.492.756z" fill="#e0a58f"/><path d="M332.85 98.475c-10.589-5.086-31.928 26.953-34.513 32.981-2.585 6.029 34.152 33.98 41.049 30.284 6.896-3.695 2.816-58.773-6.536-63.265z" fill="#a63c30"/><path d="M337.859 163.887c-7.94 0-24.509-12.111-32.639-19.564-9.27-8.497-9.335-11.827-8.578-13.593 1.955-4.561 17.74-29.317 29.93-33.891 2.658-.997 5.038-1.006 7.077-.027 7.385 3.548 10.667 28.889 11.001 44.029.292 13.228-1.186 20.807-4.393 22.526-.664.356-1.472.52-2.398.52zm-37.808-31.745c-.035.554.93 2.94 5.839 7.737 3.894 3.806 9.227 8.123 14.633 11.842 10.737 7.388 16.736 9.068 17.992 8.393.965-.534 2.827-6.158 2.423-20.134-.555-19.215-4.707-37.832-8.886-39.842-1.111-.534-2.48-.483-4.183.155-10.313 3.87-25.56 26.653-27.818 31.849z" fill="#7d271d"/><path d="M326.724 301.945c-29.042 11.313-62.617 17.054-80.893 16.005-18.356 1.054-52.142-4.739-81.268-16.152a189.21 189.21 0 0 1-11.766-5.056c-19.542-9.21-35.32-21.187-40.08-35.483-1.286-3.838-1.771-7.85-1.318-12.014 1.803-16.658 50.117-108.96 61.763-121.343 11.645-12.383 39.722-16.69 72.67-16.69s64.873 4.307 76.518 16.69 56.106 104.684 57.909 121.343c2.466 22.783-23.038 40.818-53.535 52.7z" fill="#e36254"/><path d="M326.83 298.271c0 1.234-.037 2.457-.105 3.674-29.042 11.313-62.617 17.054-80.893 16.005-18.356 1.054-52.142-4.739-81.268-16.152a59.91 59.91 0 0 1-.1-3.527c0-39.158 36.348-70.904 81.183-70.904s81.183 31.746 81.183 70.904z" fill="#ffe8db"/><circle cx="290.291" cy="212.157" fill="#fff" transform="rotate(-80.8 290.248 212.192)" r="23.273"/><path d="M290.291 237.276c-13.85 0-25.119-11.268-25.119-25.118s11.268-25.118 25.119-25.118c13.85 0 25.118 11.268 25.118 25.118s-11.268 25.118-25.118 25.118zm0-46.547c-11.816 0-21.428 9.613-21.428 21.428 0 11.816 9.613 21.428 21.428 21.428s21.428-9.613 21.428-21.428c0-11.816-9.612-21.428-21.428-21.428z"/><path d="M300.487 213.232c0 7.699-6.243 13.943-13.943 13.943s-13.943-6.244-13.943-13.943c0-7.704 6.244-13.947 13.943-13.947 3.394 0 6.509 1.217 8.925 3.235-.204.111-.407.23-.606.358-3.58 2.27-5.328 5.938-3.903 8.195 1.429 2.252 5.496 2.239 9.08-.031.084-.053.168-.106.248-.164.133.766.199 1.554.199 2.354z"/><circle cx="200.292" cy="212.157" fill="#fff" transform="rotate(-45 200.268 212.21)" r="23.273"/><path d="M200.292 237.276c-13.85 0-25.118-11.268-25.118-25.118s11.268-25.118 25.118-25.118c13.851 0 25.119 11.268 25.119 25.118-.001 13.85-11.269 25.118-25.119 25.118zm0-46.547c-11.816 0-21.428 9.613-21.428 21.428 0 11.816 9.612 21.428 21.428 21.428s21.428-9.613 21.428-21.428c0-11.816-9.612-21.428-21.428-21.428z"/><path d="M190.095 213.232c0 7.699 6.244 13.943 13.943 13.943s13.943-6.244 13.943-13.943c0-.801-.066-1.589-.199-2.354-.084.053-.168.111-.252.164-3.58 2.27-7.646 2.283-9.076.031-1.425-2.257.319-5.925 3.903-8.195.199-.128.403-.248.606-.358a13.882 13.882 0 0 0-8.925-3.235c-7.699 0-13.943 6.244-13.943 13.947zM234.208 232.598h21.527c2.62 0 4.047 3.059 2.363 5.066l-10.208 12.17a4.058 4.058 0 0 1-6.266-.058l-9.816-12.156c-1.628-2.017-.192-5.022 2.4-5.022z"/><g><ellipse cx="212.854" cy="162.626" fill="#ffe8db" rx="13.609" ry="7.284" transform="rotate(-13.59 212.647 162.191)"/><path d="M208.964 172.244c-1.676 0-3.27-.186-4.712-.56-3.512-.91-5.791-2.834-6.417-5.418-.626-2.583.518-5.337 3.224-7.754 2.396-2.141 5.822-3.831 9.644-4.758 8.422-2.041 15.963.256 17.169 5.231.626 2.583-.518 5.337-3.224 7.755-2.396 2.141-5.821 3.831-9.644 4.758-2.05.497-4.1.746-6.04.746zm7.719-15.536c-1.573 0-3.305.195-5.111.632-3.195.775-6.131 2.205-8.055 3.923-1.618 1.446-2.382 2.953-2.096 4.134s1.656 2.17 3.757 2.715c2.497.647 5.762.574 8.957-.201s6.131-2.205 8.054-3.923c1.619-1.446 2.383-2.953 2.097-4.134-.438-1.806-3.476-3.146-7.603-3.146z" fill="#e0a58f"/></g><g><ellipse cx="276.114" cy="165.262" fill="#ffe8db" rx="7.284" ry="13.609" transform="rotate(-67.98 276.156 165.267)"/><path d="M281.527 175.571c-2.771 0-5.844-.637-8.836-1.846-8.034-3.248-12.823-9.51-10.905-14.256.997-2.464 3.532-4.035 7.139-4.423 3.192-.345 6.962.279 10.61 1.754 3.646 1.474 6.788 3.646 8.846 6.114 2.324 2.786 3.055 5.678 2.058 8.143-.997 2.464-3.532 4.035-7.139 4.423-.573.06-1.166.091-1.773.091zm-10.848-16.926c-.469 0-.923.023-1.359.07-2.158.232-3.657 1.011-4.112 2.138-.963 2.38 2.625 6.928 8.867 9.452 3.049 1.233 6.27 1.783 8.832 1.506 2.158-.232 3.657-1.011 4.112-2.137.456-1.126-.08-2.728-1.471-4.395-1.651-1.981-4.347-3.824-7.396-5.057-2.531-1.025-5.179-1.577-7.473-1.577z" fill="#e0a58f"/></g><path d="M160.061 235.527c-7.117 19.473-9.616 40.613-7.264 61.214-19.542-9.21-35.32-21.187-40.08-35.483a151.2 151.2 0 0 1 24.028-29.853c4.671-4.492 10.153-8.899 16.627-9.236 2.662-.137 5.598.606 7.148 2.778 2.145 2.994.806 7.122-.459 10.58zM331.499 235.527c7.117 19.473 9.615 40.613 7.264 61.214 19.542-9.21 35.32-21.187 40.08-35.483a151.2 151.2 0 0 0-24.028-29.853c-4.671-4.492-10.153-8.899-16.627-9.236-2.662-.137-5.599.606-7.148 2.778-2.145 2.994-.806 7.122.459 10.58z" fill="#ffe8db"/><g><path d="M241.414 319.913c-18.432 0-49.311-5.342-77.524-16.398a192.168 192.168 0 0 1-11.88-5.105c-22.4-10.556-36.593-23.202-41.044-36.569-1.399-4.175-1.871-8.482-1.402-12.797 1.84-17.004 50.239-109.631 62.253-122.407 10.777-11.46 35.679-17.271 74.014-17.271 23.014 0 63.731 2.244 77.862 17.271 12.398 13.184 56.607 105.848 58.399 122.408 2.232 20.609-17.194 40.006-54.698 54.618-30.514 11.887-64.091 17.11-81.563 16.133a78.366 78.366 0 0 1-4.417.117zm4.417-206.856c-37.276 0-61.274 5.42-71.325 16.109-11.396 12.118-59.539 104.264-61.273 120.277-.411 3.782.004 7.56 1.233 11.229 4.126 12.39 17.652 24.285 39.118 34.401a188.357 188.357 0 0 0 11.652 5.006c30.177 11.825 63.333 17.011 80.489 16.029.07-.004.141-.004.212 0 17.044.976 50.034-4.163 80.118-15.882 20.737-8.08 55.115-25.421 52.369-50.783-1.692-15.636-45.695-107.811-57.419-120.277-9.769-10.388-36.466-16.109-75.174-16.109zm80.893 188.888h.005z" fill="#a63c30"/></g><g><path d="M250.246 282.308c-6.683 0-13.379-1.932-18.901-5.69a1.844 1.844 0 1 1 2.077-3.05c8.314 5.659 19.619 6.661 28.8 2.555 9.181-4.107 15.968-13.203 17.29-23.173a1.845 1.845 0 0 1 3.659.486c-1.487 11.211-9.119 21.438-19.442 26.056-4.226 1.889-8.852 2.816-13.483 2.816zM264.762 288.39a1.845 1.845 0 0 1-.26-3.672 8.096 8.096 0 0 0 5.037-2.834 1.845 1.845 0 0 1 2.849 2.345 11.825 11.825 0 0 1-7.361 4.141c-.09.014-.178.02-.265.02z"/><path d="m285.712 258.792-.057-.001a1.845 1.845 0 0 1-1.788-1.9c.046-1.526-1.173-3.098-2.662-3.433-1.488-.334-3.264.563-3.875 1.962a1.844 1.844 0 1 1-3.381-1.479c1.317-3.011 4.862-4.804 8.066-4.083 3.206.721 5.64 3.859 5.541 7.143a1.847 1.847 0 0 1-1.844 1.791z"/></g></g><g><path d="M435.051 215.791c3.133 11.443 19.901 18.574 31.208 21.061-1.138-8.265-4.282-13.292-9.927-21.23 11.791 7.857 25.613 4.199 37.119-4.07-6.709-6.946-13.394-13.677-22.349-14.257 6.359-7.713 11.19-19.195 11.823-32.752l.162-.175c-13.473 1.638-25.071 7.162-32.291 14.076-1.243-8.887-8.451-15.054-15.876-21.229-7.392 12.088-9.67 26.463-.959 37.638-6.883-6.39-13.182-8.233-22.277-7.064 4.549 10.632 11.724 25.726 23.367 28.002z" fill="#f22a4e"/><path d="M466.259 238.697c-.132 0-.265-.014-.396-.043-12.596-2.771-28.333-9.978-32.258-21.302-11.155-2.91-18.19-16.156-23.616-28.836a1.847 1.847 0 0 1 1.461-2.556c6.598-.847 11.88-.125 16.81 2.474-3.56-9.518-1.852-20.833 5.087-32.181a1.848 1.848 0 0 1 2.755-.456c6.301 5.24 13.348 11.1 15.815 19.192 7.927-6.514 19.012-11.001 30.949-12.452a1.846 1.846 0 0 1 1.875 2.653c-.637 11.565-4.247 22.335-10.261 30.736 8.245 1.864 14.609 8.453 20.299 14.344a1.848 1.848 0 0 1-.25 2.78c-11.288 8.112-22.856 10.615-32.723 7.304 3.273 5.116 5.388 9.751 6.282 16.246a1.843 1.843 0 0 1-1.829 2.097zm-51.873-49.321c5.074 11.454 11.552 22.754 21.019 24.604a1.844 1.844 0 0 1 1.426 1.324c2.767 10.105 17.277 16.441 27.128 19.086-1.325-6.196-4.107-10.633-9.131-17.698a1.844 1.844 0 0 1 2.527-2.605c12.289 8.188 25.504 2.309 33.255-2.816-5.783-5.939-11.867-11.631-19.627-12.134a1.845 1.845 0 0 1-1.304-3.015c6.3-7.641 10.354-18.331 11.271-29.591-11.493 1.819-21.917 6.582-28.877 13.247a1.846 1.846 0 0 1-3.103-1.077c-1.077-7.699-7.202-13.343-13.552-18.668-3.942 7.142-9.531 21.46-.001 33.687a1.846 1.846 0 0 1-2.711 2.487c-5.766-5.353-10.917-7.326-18.32-6.831z" fill="#911027"/><path d="M424.016 234.182a1.845 1.845 0 0 1-1.521-2.886 384.41 384.41 0 0 1 42.198-51.518 1.846 1.846 0 0 1 2.641 2.577 380.64 380.64 0 0 0-41.792 51.022 1.846 1.846 0 0 1-1.526.805z" fill="#911027"/><path d="m471.182 208.372-.06-.001a83.039 83.039 0 0 1-23.609-4.221 1.846 1.846 0 0 1 1.167-3.501 79.365 79.365 0 0 0 22.56 4.034 1.845 1.845 0 0 1-.058 3.689z" fill="#911027"/><path d="M446.328 203.734a1.843 1.843 0 0 1-1.553-.847 59.05 59.05 0 0 1-9.092-26.275 1.845 1.845 0 0 1 3.674-.348 55.352 55.352 0 0 0 8.522 24.626 1.845 1.845 0 0 1-1.551 2.844z" fill="#911027"/><g><path d="M450.673 225.274a1.845 1.845 0 0 1-1.685-1.091l-7.178-16.009c-3.849-.677-8.619-1.576-13.068-2.712a1.845 1.845 0 1 1 .914-3.575c4.706 1.202 9.822 2.139 13.753 2.821a1.845 1.845 0 0 1 1.368 1.063l7.579 16.903a1.845 1.845 0 0 1-1.683 2.6z" fill="#911027"/></g></g><g><path d="M53.611 180.872c2.055 7.507 13.055 12.185 20.473 13.817-.746-5.422-2.809-8.72-6.512-13.927 7.735 5.154 16.802 2.755 24.351-2.67-4.401-4.557-8.786-8.972-14.661-9.353 4.172-5.06 7.341-12.592 7.756-21.486l.106-.115c-8.839 1.074-16.447 4.699-21.183 9.234-.816-5.83-5.544-9.876-10.415-13.926-4.849 7.93-6.344 17.36-.629 24.691-4.516-4.192-8.648-5.401-14.614-4.634 2.983 6.974 7.689 16.876 15.328 18.369z" fill="#f22a4e"/><path d="M74.084 196.534c-.132 0-.265-.014-.396-.043-8.309-1.828-18.669-6.577-21.51-14.069-7.392-2.141-12.023-10.852-15.592-19.192a1.842 1.842 0 0 1 1.461-2.556c3.896-.5 7.114-.192 10.088 1.061-1.719-6.132-.439-13.292 3.816-20.25a1.846 1.846 0 0 1 2.755-.456c3.979 3.309 8.404 6.99 10.282 12.018 5.233-4.04 12.318-6.816 19.914-7.739a1.843 1.843 0 0 1 1.933 2.523c-.423 7.319-2.637 14.162-6.316 19.624 5.146 1.503 9.139 5.637 12.731 9.356a1.846 1.846 0 0 1-.25 2.78c-6.983 5.018-14.141 6.835-20.438 5.338 1.706 2.903 2.83 5.732 3.351 9.509a1.843 1.843 0 0 1-1.829 2.096zm-33.069-32.397c3.202 7.062 7.246 13.81 12.949 14.924a1.846 1.846 0 0 1 1.426 1.324c1.473 5.38 9.025 9.657 16.314 11.79-.931-3.449-2.683-6.191-5.637-10.344a1.844 1.844 0 0 1 2.527-2.605c7.432 4.951 15.457 1.723 20.467-1.431-3.549-3.602-7.299-6.916-11.919-7.215a1.845 1.845 0 0 1-1.304-3.015c3.901-4.731 6.463-11.287 7.176-18.246-7.092 1.262-13.485 4.257-17.797 8.386a1.846 1.846 0 0 1-3.103-1.076c-.641-4.583-4.221-8.075-8.073-11.345-2.469 4.741-5.427 13.357.31 20.719a1.844 1.844 0 0 1-2.71 2.486c-3.391-3.146-6.456-4.449-10.626-4.352z" fill="#911027"/><path d="M46.371 193.572a1.845 1.845 0 0 1-1.521-2.886 252.945 252.945 0 0 1 27.752-33.882 1.846 1.846 0 0 1 2.641 2.577 249.308 249.308 0 0 0-27.347 33.386 1.843 1.843 0 0 1-1.525.805z" fill="#911027"/><path d="m77.313 176.64-.06-.001a55.093 55.093 0 0 1-15.668-2.801 1.845 1.845 0 1 1 1.167-3.501 51.42 51.42 0 0 0 14.619 2.614 1.845 1.845 0 0 1-.058 3.689z" fill="#911027"/><path d="M61.009 173.598a1.843 1.843 0 0 1-1.553-.847 39.378 39.378 0 0 1-6.063-17.521 1.845 1.845 0 0 1 3.674-.348 35.667 35.667 0 0 0 5.492 15.872 1.845 1.845 0 0 1-1.55 2.844z" fill="#911027"/><g><path d="M63.859 187.728a1.843 1.843 0 0 1-1.684-1.091l-4.571-10.195c-2.474-.439-5.473-1.012-8.289-1.731a1.845 1.845 0 1 1 .914-3.575c3.069.784 6.408 1.395 8.974 1.84a1.845 1.845 0 0 1 1.368 1.063l4.972 11.089a1.844 1.844 0 0 1-1.684 2.6z" fill="#911027"/></g></g><g><path d="M103.392 345.977c10.148-6.145 12.418-24.224 11.715-35.781-7.638 3.357-11.612 7.756-17.702 15.358 4.33-13.492-2.971-25.784-14.074-34.588-4.845 8.354-9.489 16.626-7.596 25.397-9.159-4.005-21.524-5.509-34.737-2.407l-.212-.108c5.263 12.51 13.751 22.153 22.377 27.205-8.208 3.628-12.166 12.249-16.073 21.08 13.65 3.801 28.099 2.058 36.464-9.379-4.262 8.369-4.311 14.932-.697 23.359 8.979-7.282 21.534-18.314 20.535-30.136z" fill="#f22a4e"/><path d="M82.857 377.96a1.847 1.847 0 0 1-1.696-1.118c-2.62-6.112-3.371-11.392-2.221-16.845-8.179 6.029-19.531 7.483-32.345 3.916a1.846 1.846 0 0 1-1.192-2.525c3.316-7.495 7.024-15.878 14.131-20.464-8.435-5.841-15.785-15.275-20.447-26.359a1.845 1.845 0 0 1 2.038-2.53c11.298-2.552 22.645-2.028 32.371 1.456-.463-8.439 4.132-16.363 8.241-23.449a1.845 1.845 0 0 1 2.742-.52c10.892 8.637 16.466 19.076 15.981 29.475 4.025-4.549 7.904-7.851 13.906-10.489a1.843 1.843 0 0 1 2.583 1.577c.783 12.874-1.841 29.982-11.659 36.856.254 11.527-10.56 21.918-21.271 30.607a1.84 1.84 0 0 1-1.162.412zm.699-27.05a1.846 1.846 0 0 1 1.643 2.683c-3.57 7.011-4.059 12.508-1.556 19.49 9.627-8.015 18.724-17.338 17.912-26.95a1.843 1.843 0 0 1 .883-1.733c8.962-5.427 11.084-21.117 10.932-31.316-5.596 2.97-9.103 6.86-14.523 13.626a1.845 1.845 0 0 1-3.197-1.718c4.512-14.058-4.759-25.161-11.81-31.214-4.129 7.188-7.939 14.598-6.299 22.198a1.845 1.845 0 0 1-2.542 2.08c-9.074-3.968-20.465-4.942-31.546-2.741 4.894 10.555 12.328 19.278 20.644 24.148a1.845 1.845 0 0 1-.186 3.28c-7.109 3.143-10.861 10.579-14.246 18.145 7.949 1.836 23.249 3.292 32.402-9.22a1.835 1.835 0 0 1 1.489-.758z" fill="#911027"/><path d="M122.327 353.906c-.194 0-.391-.031-.585-.095a384.503 384.503 0 0 1-61.1-26.486 1.845 1.845 0 0 1 1.757-3.246 380.733 380.733 0 0 0 60.512 26.231 1.844 1.844 0 0 1-.584 3.596z" fill="#911027"/><path d="m86.944 338.941-.084-.002a1.846 1.846 0 0 1-1.761-1.925 79.34 79.34 0 0 0-2.295-22.802 1.846 1.846 0 0 1 3.58-.896 83.022 83.022 0 0 1 2.401 23.863 1.844 1.844 0 0 1-1.841 1.762z" fill="#911027"/><path d="M64.868 356.219a1.844 1.844 0 0 1-.67-3.565 55.345 55.345 0 0 0 21.354-14.936 1.844 1.844 0 1 1 2.77 2.438 59.045 59.045 0 0 1-22.783 15.936 1.826 1.826 0 0 1-.671.127z" fill="#911027"/><g><path d="M93.34 356.768a1.844 1.844 0 0 1-1.843-1.795c-.132-4.858-.631-10.034-1.051-14a1.846 1.846 0 0 1 .648-1.607l14.183-11.916a1.845 1.845 0 1 1 2.374 2.826l-13.433 11.286c.402 3.886.842 8.719.968 13.311a1.846 1.846 0 0 1-1.794 1.895h-.052z" fill="#911027"/></g></g><g><path d="M301.034 102.88c5.459-10.533-2.024-27.146-8.646-36.644-4.77 6.845-5.869 12.671-7.106 22.333-3.335-13.771-15.972-20.458-30.035-22.187.218 9.654.565 19.134 6.751 25.635-9.904 1.354-21.242 6.514-30.903 16.047l-.238.018c11.011 7.935 23.28 11.743 33.275 11.559-5.115 7.374-4.001 16.794-2.734 26.367 13.631-3.868 25.055-12.886 26.235-27.006.723 9.364 4.102 14.991 11.577 20.301 3.87-10.896 8.837-26.854 1.824-36.423z" fill="#3f9e53"/><path d="M261.4 147.853a1.843 1.843 0 0 1-1.829-1.603c-1.076-8.125-2.279-17.211 1.397-24.829-10.243-.59-21.432-4.812-31.187-11.843a1.845 1.845 0 0 1 .421-3.221c8.313-8.065 18.27-13.531 28.387-15.626-4.793-6.962-5-16.12-5.185-24.308a1.844 1.844 0 0 1 2.07-1.873c13.797 1.696 23.994 7.701 28.999 16.829 1.065-5.979 2.655-10.819 6.403-16.199a1.848 1.848 0 0 1 3.028 0c7.377 10.58 14.052 26.55 9.254 37.532 6.224 9.706 2.408 24.21-2.206 37.207a1.843 1.843 0 0 1-2.806.887c-5.422-3.851-8.814-7.966-10.674-13.22-3.84 9.409-12.77 16.564-25.566 20.196a1.84 1.84 0 0 1-.506.071zm2.733-30.057a1.845 1.845 0 0 1 1.516 2.897c-4.43 6.388-3.758 14.69-2.704 22.909 7.741-2.574 21.56-9.304 22.85-24.753.08-.956.88-1.691 1.839-1.691h.006c.962.003 1.76.744 1.834 1.703.607 7.844 3.054 12.791 8.828 17.445 4.041-11.857 6.945-24.555 1.244-32.335a1.846 1.846 0 0 1-.15-1.94c4.821-9.301-1.543-23.799-6.987-32.425-3.229 5.452-4.195 10.6-5.295 19.198a1.845 1.845 0 0 1-3.623.2c-3.475-14.35-17.173-18.996-26.346-20.488.221 8.287.83 16.596 6.191 22.229a1.844 1.844 0 0 1-1.086 3.1c-9.812 1.341-20.042 6.446-28.353 14.099 9.679 6.459 20.57 10.042 30.203 9.853l.033-.001z" fill="#30753e"/><path d="M254.73 109.239a1.845 1.845 0 0 1-.095-3.688 380.804 380.804 0 0 0 65.316-9.144 1.846 1.846 0 0 1 .827 3.597 384.58 384.58 0 0 1-65.951 9.233 3.139 3.139 0 0 1-.097.002z" fill="#30753e"/><path d="M282.368 105.716a1.843 1.843 0 0 1-1.617-.955 79.355 79.355 0 0 0-13.841-18.266 1.845 1.845 0 1 1 2.588-2.63 83.007 83.007 0 0 1 14.485 19.115 1.845 1.845 0 0 1-1.615 2.736z" fill="#30753e"/><path d="M272.527 131.966a1.845 1.845 0 0 1-1.466-2.963 55.34 55.34 0 0 0 10.442-23.875 1.845 1.845 0 1 1 3.635.637 59.044 59.044 0 0 1-11.142 25.474 1.838 1.838 0 0 1-1.469.727z" fill="#30753e"/><g><path d="M297.118 117.598a1.844 1.844 0 0 1-1.549-.841c-2.642-4.074-5.766-8.233-8.192-11.401a1.846 1.846 0 0 1-.285-1.709l5.896-17.561a1.846 1.846 0 0 1 3.499 1.174l-5.585 16.632c2.37 3.109 5.265 7.005 7.763 10.857a1.844 1.844 0 0 1-1.547 2.849z" fill="#30753e"/></g></g><g><path d="M436.882 393.553c7.432-1.133 13.151-11.163 15.546-18.097-5.286.11-8.68 1.72-14.091 4.69 5.81-6.845 4.522-15.813.162-23.662-4.864 3.713-9.591 7.427-10.613 13.02-4.388-4.568-11.26-8.451-19.747-9.844l-.098-.115c.042 8.6 2.668 16.305 6.491 21.357-5.685.13-10.096 4.215-14.527 8.435 7.066 5.539 15.946 8.028 23.62 3.365-4.527 3.864-6.149 7.693-6.081 13.503 7.024-2.083 17.051-5.49 19.338-12.652z" fill="#3f9e53"/><path d="M417.544 408.05a1.848 1.848 0 0 1-1.845-1.824c-.044-3.752.595-6.784 2.09-9.479-6.057.917-12.751-1.121-18.922-5.959a1.846 1.846 0 0 1-.135-2.788c3.607-3.435 7.615-7.253 12.627-8.515-3.27-5.472-5.127-12.562-5.163-19.931a1.845 1.845 0 0 1 2.72-1.634c6.952 1.222 13.25 4.095 18.077 8.212 2.038-4.742 6.432-8.096 10.387-11.115a1.849 1.849 0 0 1 2.733.57c4.012 7.222 4.97 14.258 2.89 20.12 2.934-1.279 5.75-2.022 9.388-2.097l.038-.001a1.845 1.845 0 0 1 1.744 2.448c-2.685 7.772-8.402 17.184-15.918 19.096-2.904 6.858-11.781 10.328-20.186 12.82-.173.052-.35.077-.525.077zm6.079-17.193a1.844 1.844 0 0 1 1.2 3.248c-3.357 2.865-4.939 5.619-5.334 9.571 7.086-2.274 13.944-5.386 15.636-10.685a1.846 1.846 0 0 1 1.48-1.263c5.276-.804 10.183-7.488 13.044-14.192-3.355.519-6.162 1.887-10.423 4.227a1.846 1.846 0 0 1-2.295-2.811c5.533-6.519 3.385-14.511.941-19.658-3.82 2.98-7.375 6.188-8.171 10.542a1.843 1.843 0 0 1-3.146.946c-4.077-4.246-10.037-7.422-16.59-8.89.429 6.903 2.58 13.326 6.038 17.896a1.846 1.846 0 0 1-1.429 2.958c-4.422.101-8.146 3.104-11.688 6.405 4.276 2.885 12.147 6.613 19.781 1.973.298-.18.629-.267.956-.267z" fill="#30753e"/><path d="M446.486 403.556c-.429 0-.86-.149-1.209-.452a244.175 244.175 0 0 1-29.411-30.424 1.845 1.845 0 0 1 2.865-2.325 240.595 240.595 0 0 0 28.966 29.964 1.845 1.845 0 0 1-1.211 3.237z" fill="#30753e"/><path d="M429.409 386.206a1.843 1.843 0 0 1-1.67-2.627 49.607 49.607 0 0 0 4.138-13.717 1.844 1.844 0 1 1 3.65.544 53.31 53.31 0 0 1-4.445 14.736 1.847 1.847 0 0 1-1.673 1.064z" fill="#30753e"/><path d="M413.062 390.965c-.269 0-.538-.003-.807-.009-1.019-.022-1.827-.865-1.805-1.884s.859-1.846 1.884-1.805a34.289 34.289 0 0 0 15.813-3.488 1.845 1.845 0 0 1 1.625 3.313 38.095 38.095 0 0 1-16.71 3.873z" fill="#30753e"/><g><path d="M428.826 398.193a1.847 1.847 0 0 1-1.723-2.506c1.09-2.843 2.052-5.983 2.768-8.4a1.846 1.846 0 0 1 1.214-1.236l11.195-3.53a1.845 1.845 0 1 1 1.11 3.52l-10.261 3.236c-.698 2.325-1.583 5.131-2.579 7.731a1.848 1.848 0 0 1-1.724 1.185z" fill="#30753e"/></g></g><g><path d="M222.393 384.284c11.744-1.684 20.907-17.433 24.783-28.342-8.342.1-13.721 2.594-22.301 7.206 9.264-10.721 7.356-24.891.584-37.337-7.727 5.792-15.238 11.587-16.929 20.4-6.861-7.27-17.652-13.493-31.025-15.809l-.153-.182c-.053 13.572 3.984 25.768 9.946 33.792-8.973.127-15.99 6.511-23.041 13.109 11.074 8.84 25.053 12.89 37.226 5.639-7.197 6.034-9.81 12.054-9.783 21.224 11.115-3.192 26.986-8.431 30.693-19.7z" fill="#fcd242"/><path d="M191.701 405.826a1.843 1.843 0 0 1-1.845-1.84c-.02-6.65 1.356-11.802 4.548-16.371-9.887 2.345-20.901-.757-31.297-9.055a1.843 1.843 0 0 1-.109-2.789c5.985-5.6 12.678-11.862 21.012-13.303-5.477-8.676-8.548-20.234-8.501-32.259a1.845 1.845 0 0 1 2.866-1.53c11.395 2.072 21.631 6.995 29.219 14.007 2.876-7.948 10.206-13.442 16.76-18.354a1.844 1.844 0 0 1 2.727.595c6.644 12.211 7.688 23.998 3.172 33.378 5.483-2.611 10.346-4.132 16.902-4.21.608-.015 1.172.281 1.523.772s.44 1.122.238 1.691c-4.318 12.153-13.428 26.87-25.153 29.354-4.276 10.706-18.295 16.037-31.552 19.841-.169.05-.34.073-.51.073zm9.781-24.913a1.844 1.844 0 0 1 1.187 3.259c-6.029 5.055-8.63 9.922-9.059 17.326 11.997-3.607 24.016-8.628 27.03-17.791a1.846 1.846 0 0 1 1.491-1.25c10.37-1.487 18.464-15.095 22.315-24.54-6.313.543-11.062 2.751-18.697 6.855a1.846 1.846 0 0 1-2.27-2.831c9.653-11.171 5.467-25.017 1.347-33.346-6.613 4.998-13.018 10.326-14.483 17.963a1.847 1.847 0 0 1-3.154.919c-6.797-7.203-16.899-12.557-27.957-14.868.373 11.63 3.801 22.566 9.548 30.301a1.844 1.844 0 0 1-1.455 2.945c-7.773.11-14.136 5.485-20.21 11.122 6.596 4.802 20.107 12.128 33.425 4.196.295-.176.621-.26.942-.26z" fill="#ff713e"/><path d="M237.436 399.137c-.434 0-.871-.152-1.222-.463a384.388 384.388 0 0 1-45.862-48.285 1.843 1.843 0 0 1 .294-2.592 1.843 1.843 0 0 1 2.592.293 380.725 380.725 0 0 0 45.421 47.819 1.845 1.845 0 0 1-1.223 3.228z" fill="#ff713e"/><path d="M210.729 371.518a1.845 1.845 0 0 1-1.662-2.643 79.308 79.308 0 0 0 6.811-21.882 1.844 1.844 0 1 1 3.645.577 83.01 83.01 0 0 1-7.129 22.899 1.842 1.842 0 0 1-1.665 1.049z" fill="#ff713e"/><path d="M185.361 378.805c-.587 0-1.175-.009-1.762-.027-1.018-.031-1.819-.881-1.788-1.9s.889-1.813 1.9-1.788a55.398 55.398 0 0 0 25.496-5.389 1.846 1.846 0 0 1 1.595 3.328 59.079 59.079 0 0 1-25.441 5.776z" fill="#ff713e"/><g><path d="M209.642 390.428a1.845 1.845 0 0 1-1.717-2.521c1.779-4.521 3.345-9.48 4.512-13.295a1.844 1.844 0 0 1 1.225-1.225l17.715-5.416a1.845 1.845 0 1 1 1.079 3.529l-16.778 5.129c-1.151 3.734-2.637 8.354-4.319 12.628a1.845 1.845 0 0 1-1.717 1.171z" fill="#ff713e"/></g></g><g><path d="M213.418 53.761c7.279-1.044 12.959-10.806 15.362-17.568-5.171.062-8.505 1.608-13.823 4.467 5.742-6.646 4.559-15.428.362-23.143-4.79 3.59-9.445 7.182-10.493 12.644-4.253-4.506-10.941-8.363-19.23-9.799l-.096-.112c-.033 8.413 2.47 15.972 6.165 20.945-5.562.079-9.911 4.036-14.281 8.125 6.864 5.479 15.528 7.99 23.074 3.495-4.461 3.74-6.081 7.472-6.064 13.155 6.889-1.976 16.726-5.223 19.024-12.209z" fill="#fcd242"/><path d="M194.394 67.816a1.843 1.843 0 0 1-1.845-1.84c-.011-3.645.63-6.591 2.091-9.202-5.928.817-12.43-1.241-18.407-6.012a1.847 1.847 0 0 1-.11-2.79c3.549-3.321 7.492-7.01 12.389-8.218-3.138-5.381-4.885-12.319-4.857-19.513a1.845 1.845 0 0 1 2.727-1.613c6.774 1.253 12.897 4.107 17.583 8.16 2.047-4.603 6.361-7.837 10.246-10.748a1.845 1.845 0 0 1 2.728.595c3.849 7.074 4.738 13.941 2.688 19.651 2.855-1.205 5.601-1.896 9.131-1.938.591-.017 1.172.281 1.523.772s.44 1.122.237 1.691c-2.694 7.582-8.368 16.741-15.743 18.562-2.914 6.685-11.629 10.004-19.872 12.37a1.81 1.81 0 0 1-.509.073zm6.062-16.846a1.844 1.844 0 0 1 1.187 3.259c-3.281 2.751-4.849 5.409-5.278 9.228 6.919-2.158 13.611-5.135 15.301-10.272a1.845 1.845 0 0 1 1.49-1.25c5.136-.736 9.967-7.18 12.821-13.679-3.249.487-5.993 1.797-10.146 4.029a1.845 1.845 0 0 1-2.27-2.831c5.439-6.293 3.438-14.084 1.105-19.131-3.741 2.87-7.217 5.963-8.027 10.186a1.847 1.847 0 0 1-1.296 1.424 1.841 1.841 0 0 1-1.857-.505c-3.936-4.17-9.711-7.319-16.079-8.814.368 6.727 2.411 12.999 5.741 17.481a1.844 1.844 0 0 1-1.455 2.945c-4.297.061-7.948 2.94-11.424 6.12 4.159 2.848 11.781 6.516 19.246 2.07.293-.175.619-.26.941-.26z" fill="#ff713e"/><path d="M222.742 63.669c-.434 0-.871-.153-1.222-.463a238.905 238.905 0 0 1-28.511-30.017 1.845 1.845 0 0 1 2.887-2.3 235.241 235.241 0 0 0 28.069 29.552 1.844 1.844 0 0 1-1.223 3.228z" fill="#ff713e"/><path d="M206.187 46.55a1.845 1.845 0 0 1-1.662-2.642 48.469 48.469 0 0 0 4.162-13.37 1.845 1.845 0 1 1 3.645.577 52.158 52.158 0 0 1-4.479 14.387 1.844 1.844 0 0 1-1.666 1.048z" fill="#ff713e"/><path d="M190.463 51.067c-.371 0-.742-.005-1.113-.017a1.845 1.845 0 0 1 .112-3.688 33.588 33.588 0 0 0 15.479-3.271 1.845 1.845 0 1 1 1.595 3.327 37.316 37.316 0 0 1-16.073 3.649z" fill="#ff713e"/><g><path d="M205.514 58.271a1.846 1.846 0 0 1-1.716-2.521c1.092-2.777 2.059-5.835 2.778-8.189a1.842 1.842 0 0 1 1.225-1.225l10.98-3.356a1.845 1.845 0 0 1 1.079 3.529l-10.044 3.07c-.701 2.262-1.587 4.988-2.584 7.522a1.846 1.846 0 0 1-1.718 1.17z" fill="#ff713e"/></g></g><g><path d="M261.407 393.301c-.455 3.089-1.375 7.089-2.444 10.022-1.07 2.933-2.806 5.71-5.364 7.5s-6.017 2.454-8.884 1.217-4.822-4.581-4.015-7.598c-2.382 2.447-6.094 3.583-9.39 2.69s-5.978-3.871-6.327-7.268 1.79-6.948 5.022-8.052c-2.691.092-5.266-1.79-6.223-4.306s-.43-5.542 1.277-7.623c5.187-6.324 11.741-5.821 15.885-6.467 6.653-8.155 39.002-41.464 45.655-49.619 0 0 12.297-3.136 21.286 13.191 7.631 13.862-.1 26.128-.1 26.128-10.77 8.226-46.378 30.185-46.378 30.185z" fill="#a63c30"/><path d="M247.906 414.523a9.873 9.873 0 0 1-3.922-.789 8.918 8.918 0 0 1-5.022-5.751c-2.513 1.287-5.444 1.66-8.135.93-4.099-1.11-7.258-4.754-7.679-8.86-.287-2.794.737-5.577 2.58-7.565-1.634-.977-2.976-2.499-3.671-4.325-1.188-3.124-.57-6.834 1.575-9.45 4.808-5.861 10.628-6.443 14.876-6.869.514-.052 1.01-.101 1.472-.158 3.716-4.43 12.825-14.115 22.445-24.342 9.566-10.17 19.458-20.686 22.744-24.714a1.845 1.845 0 1 1 2.859 2.333c-3.368 4.129-12.863 14.223-22.915 24.909-9.565 10.168-19.455 20.683-22.74 24.71a1.841 1.841 0 0 1-1.145.656c-.739.115-1.523.194-2.352.277-4.008.401-8.551.856-12.391 5.537-1.301 1.587-1.695 3.917-.979 5.797.7 1.841 2.596 3.189 4.436 3.118.91-.022 1.713.612 1.878 1.511s-.353 1.784-1.219 2.079c-2.389.816-4.051 3.503-3.783 6.118.265 2.58 2.357 4.966 4.974 5.675 2.577.698 5.626-.184 7.585-2.197a1.844 1.844 0 0 1 3.104 1.764c-.539 2.016.818 4.501 2.964 5.427 2.11.91 4.895.505 7.095-1.034 2.524-1.766 3.943-4.575 4.689-6.621.948-2.6 1.871-6.391 2.352-9.659a1.844 1.844 0 0 1 .857-1.302c.355-.219 35.653-22.004 46.226-30.08a1.845 1.845 0 1 1 2.24 2.932c-9.998 7.637-40.558 26.597-45.806 29.842-.542 3.288-1.459 6.942-2.403 9.531-1.331 3.648-3.419 6.546-6.04 8.38-2.058 1.443-4.441 2.19-6.749 2.19z" fill="#7d271d"/></g><g><path d="M279.743 405.335c-21.651 19.919-48.349 43.237-48.349 43.237s-22.595-11.404-25.551-4.224c-2.957 7.18 14.982 35.777 24.441 36.334 8.083.476 59.321-21.807 74.052-28.298 4.632-2.041 8.91-4.831 12.54-8.359 6.687-6.5 13.794-17.448 7.018-31.285-2.156-4.404-5.177-7.639-8.544-10.013-10.91-7.687-25.786-6.428-35.607 2.608z" fill="#a63c30"/><path d="M230.483 482.531c-.108 0-.211-.003-.308-.008-6.092-.359-13.857-9.397-19.093-17.735-2.217-3.532-9.272-15.494-6.946-21.144.569-1.383 1.671-2.412 3.185-2.976 6.211-2.312 19.585 3.686 23.783 5.705 4.895-4.287 28.254-24.792 47.389-42.397a1.846 1.846 0 0 1 2.499 2.717c-21.421 19.707-48.117 43.035-48.384 43.268a1.846 1.846 0 0 1-2.045.258c-6.292-3.173-17.816-7.633-21.955-6.092-.712.265-.94.632-1.059.923-.864 2.099 1.175 9.043 6.659 17.776 5.69 9.061 12.497 15.796 16.185 16.013 4.999.321 33.728-10.752 73.2-28.144 4.271-1.882 13.654-7.524 17.152-10.924a1.845 1.845 0 1 1 2.572 2.646c-3.952 3.841-13.636 9.628-18.236 11.655-19.548 8.613-65.574 28.458-74.598 28.459z" fill="#7d271d"/></g></svg>