<svg height="512" viewBox="0 0 311.495 311.495" width="512" xmlns="http://www.w3.org/2000/svg"><circle cx="155.854" cy="160.012" fill="#d0df92" r="134.02"/><g fill="#740806"><path d="m216.442 97.948-.05-.007.05.007-.05-.007.05.007c.014-.129.657-4.315 3.599-8.457a19.661 19.661 0 0 1 6.33-5.763c2.831-1.616 6.471-2.792 11.23-3.018a1.5 1.5 0 0 0-.141-2.997c-5.264.246-9.455 1.59-12.732 3.499-4.923 2.864-7.741 6.948-9.312 10.28-1.574 3.338-1.932 5.95-1.947 6.053a1.5 1.5 0 0 0 2.973.403z"/><path d="M213.18 90.135c1.052-3.207 2.641-5.702 4.443-7.674 2.7-2.955 5.905-4.725 8.438-5.746 1.265-.51 2.36-.833 3.127-1.026a16.694 16.694 0 0 1 1.109-.241l.05-.008.009-.001-.066-.431.064.431h.002l-.066-.431.064.431a1.5 1.5 0 1 0-.438-2.968c-.113.019-3.745.557-8.015 2.903-2.134 1.174-4.427 2.806-6.492 5.063-2.064 2.255-3.893 5.14-5.08 8.764a1.5 1.5 0 1 0 2.851.934z"/><g><path d="m265.633 122.297.322-.344-.324.342.002.002.322-.344-.324.342c.026.023 1.536 1.466 3.014 3.978 1.481 2.517 2.923 6.079 2.922 10.405-.004 3.711-1.043 8.016-4.144 12.851a1.5 1.5 0 1 0 2.524 1.622c3.383-5.259 4.623-10.187 4.619-14.472-.001-5.084-1.717-9.215-3.416-12.062-1.703-2.851-3.396-4.442-3.467-4.51a1.5 1.5 0 1 0-2.05 2.19z"/><path d="M273.89 124.164c3.208 4.352 4.151 8.781 4.156 12.61.001 2.856-.54 5.362-1.081 7.139-.27.889-.539 1.595-.738 2.071-.099.238-.18.419-.235.536l-.061.128-.013.027-.001.001a1.5 1.5 0 0 0 2.673 1.363c.056-.123 2.447-4.797 2.455-11.265.005-4.321-1.103-9.47-4.743-14.392a1.5 1.5 0 0 0-2.098-.316 1.503 1.503 0 0 0-.314 2.098z"/></g></g><path d="M135.669 225.16c-2.219 3.534-3.253 7.536-3.354 11.449-.079 2.944.342 5.862 1.145 8.688 1.209 4.238 3.27 8.283 5.994 11.961a41.333 41.333 0 0 0 10.113 9.66c3.976 2.668 8.545 4.7 13.551 5.704 3.75.754 7.741.92 11.822.354 6.127-.842 12.412-3.344 18.43-7.658 6.028-4.316 11.818-10.411 17.27-18.533 4.134-6.161 8.081-13.497 11.794-22.177 1.65-3.858 3.422-7.109 5.238-9.815 2.449-3.65 4.973-6.303 7.397-8.175 3.65-2.804 7.025-3.892 10.031-4.042 3.007-.135 5.734.69 8.049 2.236a13.9 13.9 0 0 1 4.841 5.691c1.095 2.364 1.617 5.119 1.277 8.235a7 7 0 1 0 13.916 1.536c.623-5.612-.326-11.018-2.501-15.68a27.902 27.902 0 0 0-9.732-11.408 27.207 27.207 0 0 0-10.581-4.234c-5.772-1-12.1-.109-18.046 2.903-5.961 3.004-11.516 8.04-16.276 15.136-2.358 3.513-4.53 7.538-6.486 12.112-3.422 8.003-6.982 14.571-10.546 19.881-4.179 6.228-8.359 10.718-12.318 13.84-2.972 2.344-5.815 3.926-8.499 4.945-4.029 1.52-7.71 1.82-11.18 1.326-3.463-.501-6.734-1.845-9.65-3.801a27.322 27.322 0 0 1-6.055-5.578c-2.543-3.158-4.199-6.74-4.76-9.83-.288-1.546-.314-2.958-.134-4.168.183-1.215.553-2.225 1.115-3.127a7 7 0 1 0-11.865-7.431z" fill="#fbb807"/><path d="M273.182 220.272c.623-5.612-.326-11.018-2.501-15.68a27.902 27.902 0 0 0-9.732-11.408 27.207 27.207 0 0 0-10.581-4.234c-5.772-1-12.1-.109-18.046 2.903-.034.017-.067.038-.1.055 2.632 3.848 4.828 7.989 6.602 12.356 2.228-1.093 4.33-1.593 6.275-1.69 3.007-.135 5.734.69 8.049 2.236a13.9 13.9 0 0 1 4.841 5.691c1.095 2.364 1.617 5.119 1.277 8.235a7 7 0 0 0 6.19 7.726 7 7 0 0 0 7.726-6.19z" fill="#fffcc8"/><path d="M245.766 188.559a27.208 27.208 0 0 1 15.184 4.626 27.901 27.901 0 0 1 9.732 11.408c2.175 4.661 3.124 10.067 2.5 15.68a7.001 7.001 0 0 1-7.725 6.189 7 7 0 0 1-6.189-7.727c.34-3.116-.182-5.871-1.277-8.235a13.906 13.906 0 0 0-4.842-5.69 13.179 13.179 0 0 0-7.411-2.25c-.211 0-.424.005-.638.015-3.006.149-6.381 1.237-10.03 4.041-2.424 1.872-4.948 4.525-7.397 8.176-1.816 2.706-3.589 5.957-5.238 9.815-3.713 8.68-7.659 16.016-11.793 22.177-5.453 8.123-11.242 14.218-17.271 18.534-6.019 4.314-12.303 6.816-18.431 7.658a35.285 35.285 0 0 1-11.822-.353c-5.005-1.005-9.574-3.036-13.551-5.705a41.31 41.31 0 0 1-10.112-9.66c-2.725-3.678-4.785-7.723-5.994-11.961-.803-2.825-1.225-5.744-1.145-8.688.101-3.913 1.136-7.915 3.354-11.449a6.993 6.993 0 0 1 9.647-2.217 7 7 0 0 1 2.217 9.648c-.563.902-.932 1.911-1.115 3.127-.18 1.21-.153 2.621.135 4.167.562 3.09 2.217 6.671 4.76 9.83a27.324 27.324 0 0 0 6.055 5.578c2.916 1.955 6.188 3.3 9.65 3.8 1.002.144 2.022.22 3.063.22 2.563 0 5.252-.464 8.116-1.545 2.684-1.02 5.527-2.602 8.499-4.945 3.959-3.122 8.14-7.611 12.318-13.84 3.564-5.311 7.124-11.878 10.546-19.881 1.956-4.574 4.128-8.599 6.485-12.112 4.76-7.097 10.315-12.132 16.276-15.136 4.4-2.228 9.008-3.296 13.444-3.295m0-3.001c-5.006 0-10.123 1.251-14.799 3.619-6.6 3.326-12.46 8.758-17.412 16.142-2.491 3.713-4.764 7.953-6.753 12.604-3.186 7.451-6.644 13.974-10.278 19.389-3.727 5.554-7.657 9.98-11.685 13.156-2.547 2.009-5.14 3.521-7.706 4.496-2.404.907-4.713 1.35-7.052 1.35-.87 0-1.759-.063-2.641-.189-2.916-.422-5.745-1.54-8.401-3.321a24.456 24.456 0 0 1-5.385-4.962c-2.142-2.66-3.652-5.753-4.15-8.491-.217-1.163-.257-2.262-.118-3.189.117-.779.338-1.411.693-1.981 2.924-4.668 1.503-10.851-3.17-13.777a9.99 9.99 0 0 0-5.302-1.526 9.95 9.95 0 0 0-8.481 4.693c-2.371 3.776-3.689 8.261-3.811 12.964-.085 3.123.339 6.349 1.258 9.584 1.291 4.527 3.467 8.875 6.469 12.928a44.136 44.136 0 0 0 10.852 10.365c4.54 3.047 9.463 5.117 14.633 6.155a38.371 38.371 0 0 0 12.824.384c6.845-.94 13.496-3.697 19.767-8.192 6.461-4.626 12.522-11.12 18.013-19.299 4.327-6.448 8.385-14.075 12.062-22.67 1.498-3.505 3.171-6.642 4.971-9.323 2.097-3.124 4.363-5.639 6.739-7.473 2.812-2.16 5.544-3.28 8.347-3.42.154-.007.322-.011.488-.011 2.079 0 4.012.587 5.745 1.745a10.893 10.893 0 0 1 3.788 4.462c.934 2.014 1.275 4.251 1.015 6.644a9.927 9.927 0 0 0 2.136 7.346 9.933 9.933 0 0 0 6.707 3.688 9.985 9.985 0 0 0 11.037-8.841c.666-5.998-.289-11.974-2.764-17.277a30.904 30.904 0 0 0-10.779-12.631 30.01 30.01 0 0 0-11.747-4.7 29.508 29.508 0 0 0-5.11-.441z" fill="#740806"/><g><path d="m245.134 117.232 12.657-16.493.026-.059c1.068-2.223 1.541-4.269 1.54-6.017-.002-1.711-.438-3.13-1.224-4.277-.789-1.146-1.943-2.055-3.558-2.653-1.678-.619-3.311-.931-4.818-.931-1.93.004-3.643.494-5.132 1.521-1.484 1.03-20.516 24.761-26.932 32.603-6.416 7.841-3.386 21.029-3.386 21.029l-7.664 9.624s-33.503-21.079-51.523-8.308c-6.948-2.583-15.331-3.839-25.461-3.217 0 0-5.338.104-12.396 2.741-31.84-1.396-67.396 19.88-64.949 39.695.048.387-.03.77-.03 1.14 0 4.32 1.16 8.36 2.95 12.04 1.78 3.67 4.19 6.97 6.63 9.729a57.18 57.18 0 0 0 3.508 3.625s-5.786 7.363-.823 18c4.616 9.89 16.087 8.803 22.685 7.209 2.766 16.039 5.93 34.476 5.93 34.476-33.505 1.782-25.703 27.201-25.663 27.821h55.856l.041-43.839c11.103 1.444 22.956.265 33.381-3.02l23.663 46.858h47.811s5.703-26.039-27.802-27.821l-13.398-50.478c.363-3.229 1.068-11.354.381-21.212 9.494 2.699 19.48 4.714 25.982 3.747 26.376-3.921 33.861-43.128 33.861-43.128 28.16-27.088-2.452-39.696-2.143-40.405z" fill="#fbb807"/><path d="m245.134 117.232 12.657-16.493.026-.059c1.068-2.223 1.541-4.269 1.54-6.017-.002-1.711-.438-3.13-1.224-4.277-.789-1.146-1.943-2.055-3.558-2.653a15.891 15.891 0 0 0-1.991-.583c.04.441.069.884.09 1.33.465 10.38-6.381 19.642-15.465 23.967 6.71 4.855 30.261 22.37 2.696 43.043-.111.628-10.278-4.292-10.396-3.683-.137.708 9.774 6.943 9.628 7.626-10.557 49.17-45.331 33.364-45.331 33.364s-2.376-35.168-22.967-35.944c2.885 7.939 17.265 66.835-12.438 84.419-20.696 12.252-43.485 8.317-57.03.713l6.406 10.931s.078 43.04-.027 43.615h15.607l.041-43.839c11.103 1.444 22.956.265 33.381-3.02l22.531-9.113 9.683 29.248-6.355 5.921 8.079-.713c25.188-2.139 29.491 9.354 32.099 21.516h5.438s5.703-26.039-27.802-27.821l-13.398-50.478c.363-3.229 1.068-11.354.381-21.212 9.494 2.699 19.48 4.714 25.982 3.747 26.376-3.921 33.861-43.128 33.861-43.128 28.159-27.09-2.453-39.698-2.144-40.407z" fill="#f28a1c"/><path d="M157.224 167.618c.237-23.525-12.247-27.8-25.786-27.8-16.536 0-33.382 27.325-32.194 66.058.666 21.716 12.119 34.455 31.128 33.979 19.01-.475 28.04-13.544 27.327-29.228z" fill="#fffcc8"/><g fill="#740806"><path d="m97.686 158.745.001-.002zM175.332 158.299l-.002-.001zM249.361 142.15a1.502 1.502 0 0 0-1.97.366c-.85 1.101-1.771 1.775-2.746 2.205-.974.427-2.018.602-3.081.602-1.796.004-3.626-.517-4.983-1.057a17.803 17.803 0 0 1-1.591-.72v-2.284c.496.039 1.065.07 1.695.07 1.914-.008 4.328-.244 6.462-1.436 1.061-.598 2.047-1.465 2.742-2.647.698-1.18 1.084-2.643 1.082-4.342 0-1.253-.203-2.64-.629-4.192a9.045 9.045 0 0 0-2.37-4.08c-1.619-1.599-3.698-2.518-5.826-3.06-2.133-.539-4.342-.704-6.328-.705-3.704.002-6.931 3.696-6.118 3.536l.022-.004c.269-.052 2.917-.533 6.096-.532 2.42-.004 5.145.289 7.301 1.165 1.08.436 2.013 1.008 2.741 1.73.728.726 1.27 1.595 1.589 2.745.37 1.344.522 2.47.522 3.396-.003 1.262-.271 2.145-.666 2.818a4.113 4.113 0 0 1-1.143 1.244c-.693.506-1.59.859-2.56 1.073-.968.215-1.999.29-2.917.29a18.635 18.635 0 0 1-2.719-.204l-.155-.026-.035-.006-.004-.001-1.782-.341v8.943a1.495 1.495 0 0 0 2.985.152c.161.069.327.138.503.207 1.582.622 3.729 1.263 6.086 1.267 1.241 0 2.545-.201 3.824-.684-.06.332-.104.666-.107 1.007 0 .43.068.876.232 1.324 1.48 4.06 4.409 1.968 4.465 1.395 0 0-2.911.416-1.26-4.504.272-.811.731-1.755 1.219-2.791a1.502 1.502 0 0 0-.576-1.919z"/></g></g><path d="m248.03 116.557 12.026-13.851.283-.326.179-.392.017-.035c1.211-2.529 1.825-4.982 1.823-7.292-.003-2.271-.591-4.278-1.747-5.969-1.183-1.716-2.86-2.982-4.991-3.772-2.012-.742-3.982-1.118-5.861-1.118h-.006c-2.564.005-4.862.695-6.828 2.05-1.105.767-4.493 4.736-21.337 25.522-2.507 3.093-4.709 5.811-6.215 7.651-5.986 7.317-4.907 18.2-4.266 22.134l-5.182 6.507c-5.857-3.333-21.713-11.503-36.339-11.505-5.752 0-10.742 1.271-14.866 3.784-6-2.024-12.734-3.049-20.046-3.049-1.673 0-3.405.054-5.148.16-.715.023-5.936.268-12.738 2.718a72.782 72.782 0 0 0-2.524-.044h-.005c-21.64 0-45.26 9.622-57.442 23.4-5.673 6.417-8.262 13.214-7.487 19.663l-.013.176a8.233 8.233 0 0 0-.032.661c0 4.423 1.094 8.915 3.252 13.353 1.708 3.521 4.091 7.022 7.081 10.404.63.713 1.292 1.425 1.98 2.129-1.68 3.392-3.771 10.196.234 18.777 3.046 6.528 9.036 9.979 17.322 9.979 1.795 0 3.679-.161 5.63-.482.087.494.185.998.277 1.497 1.832 10.634 3.692 21.458 4.591 26.695-10.308 1.113-17.689 4.754-21.968 10.843-6.402 9.109-3.195 20.107-3.056 20.57l.643 2.136h61.082l.003-2.998.038-40.505c2.159.181 4.355.271 6.564.271a83.704 83.704 0 0 0 22.272-3.039l22.533 44.622.832 1.648h52.072l.517-2.358c.1-.456 2.366-11.268-4.481-20.257-4.854-6.372-12.889-10.083-23.901-11.048l-12.705-47.866c.294-2.787.75-8.427.593-15.433.012.003.025.005.037.009-.02-.457-.05-.899-.074-1.349l-.007-.227c7.755 2 14.162 3.013 19.088 3.013 1.494 0 2.882-.094 4.125-.278 26.106-3.881 34.788-38.255 36.171-44.588 8.657-8.545 12.578-16.784 11.656-24.499-1.124-9.407-9.203-15.328-13.656-18.092zm-.751 41.081s-7.485 39.208-33.861 43.128c-1.13.168-2.364.246-3.684.246-5.48 0-12.415-1.345-19.31-3.172-1.036-12.742-3.765-22.479-6.437-29.287-3.15-8.025-8.655-10.254-8.655-10.254l.002.003.021.027.095.129c.086.119.217.304.387.555.338.503.83 1.271 1.424 2.308 1.188 2.074 2.782 5.223 4.374 9.474 2.654 7.09 5.292 17.264 6.022 30.625.255 7.831-.295 14.078-.602 16.811l13.398 50.478c33.505 1.782 27.802 27.821 27.802 27.821h-47.811l-22.553-44.661c6.694-2.936 13.195-8.203 15.568-17.651 0 0-3.994 12.309-22.654 17.064a80.79 80.79 0 0 1-17.845 2.015 75 75 0 0 1-7.235-.345c-23.636-3.424-28.441-18.2-28.441-18.2 3.676 14.633 17.253 19.24 26.112 20.682l-.038 41.095H67.502s-7.842-26.039 25.663-27.821c0 0-2.24-13.048-4.597-26.74l.055-.011c-.218-1.077-.411-2.131-.605-3.186l-.782-4.538c-1.401-8.801-2.024-16.81-2.078-24.023-.131-17.559 3.043-30.468 6.227-38.97 1.592-4.251 3.187-7.399 4.375-9.474a37.267 37.267 0 0 1 1.424-2.307c.169-.251.3-.437.386-.555l.095-.129.021-.027.002-.003s-5.505 2.229-8.655 10.254c-3.454 8.801-7.017 22.471-6.874 41.233.056 7.397.698 15.596 2.135 24.585-1.611.264-3.347.454-5.137.454-5.611 0-11.579-1.768-14.604-8.247-4.963-10.637.823-18 .823-18a57.458 57.458 0 0 1-3.508-3.625c-2.44-2.76-4.85-6.06-6.63-9.729-1.79-3.68-2.95-7.72-2.95-12.04 0-.37.078-.753.03-1.14-2.371-19.196 30.918-39.763 61.949-39.76 1.001 0 2.004.021 3 .065 7.058-2.638 12.396-2.741 12.396-2.741a82.391 82.391 0 0 1 5.015-.157c7.923 0 14.68 1.23 20.447 3.374 4.19-2.97 9.216-4.109 14.465-4.108 13.497.001 28.454 7.536 34.406 10.865-5.926 7.355-4.659 15.065-2.461 16.274-1.782-6.179 5.114-14.723 5.114-14.723l7.664-9.624s-3.03-13.188 3.386-21.029c6.416-7.842 25.447-31.572 26.932-32.603 1.489-1.026 3.202-1.517 5.132-1.521 1.508 0 3.141.312 4.818.931 1.614.599 2.769 1.508 3.558 2.653.785 1.147 1.222 2.566 1.224 4.277.001 1.748-.472 3.794-1.54 6.017l-.026.059-14.32 16.493c-.315.709 31.96 13.317 3.802 40.406z" fill="#740806"/><g><path d="M186.72 65.206c24.846-25.983 5.293-51.276 5.293-51.276l-33.787 19.965c-21.976-8.56-40.332-5.247-53.284.295L70.655 13.93s-19.622 25.384 5.43 51.417c-7.071 15.944-16.043 37.661-14.496 41.969 1.179 3.286 3.554 3.842 5.958 2.316-.55 3.764-.28 7.405 1.762 9.906 1.983 2.43 4.141 2.458 5.833.816 11.709 16.633 53.425 30.09 53.425 30.09s46.39-10.004 59.556-29.413c1.527.892 3.306.536 4.962-1.493 2.042-2.501 2.313-6.143 1.762-9.906 2.404 1.526 4.778.97 5.958-2.316 1.11-3.093-7.23-25.037-14.085-42.11z" fill="#fbb807"/><path d="m131.508 49.93 17.494-15.249c4.128 1.673 7.368 2.952 7.368 2.952s17.644 12.654 23.346 50.258c0 0 4.456 21.92-20.495 42.237-11.229 9.143-26.052 16.222-45.404 14.575 7.653 2.672 13.62 3.977 14.802 4.221l.033-.005a112.708 112.708 0 0 0 3.94-.643 149.783 149.783 0 0 0 10.738-2.369c5.251-1.361 11.353-3.264 17.386-5.811.466-.2.932-.403 1.398-.609.727-.32 1.452-.647 2.174-.987a76.243 76.243 0 0 0 7.812-4.195c6.108-3.778 11.394-8.427 14.734-14.04l.761-1.278 1.284.75c.32.185.591.254.863.256.267-.002.559-.068.927-.276.365-.208.797-.566 1.253-1.126.58-.712.994-1.551 1.27-2.522.275-.969.404-2.068.403-3.246 0-.95-.083-1.951-.233-2.973l-.473-3.237 2.761 1.753c.659.419 1.227.578 1.643.576.395-.008.686-.105 1.039-.398.345-.293.735-.835 1.054-1.72l.006-.034c.006-.048.013-.132.012-.243.003-.434-.099-1.232-.313-2.238a52.261 52.261 0 0 0-.939-3.65c-.813-2.81-1.975-6.297-3.34-10.134-2.73-7.676-6.271-16.754-9.486-24.76l-.36-.897.668-.699c4.708-4.925 7.745-9.781 9.615-14.409 1.868-4.629 2.572-9.036 2.573-13.084.001-6.268-1.702-11.679-3.439-15.554a38.128 38.128 0 0 0-2.81-5.192l-33.214 19.626-.68-.265c-6.506-2.534-12.661-3.983-18.449-4.656l.014.006c-5.795 5.972-7.736 19.289-7.736 19.289z" fill="#f28a1c"/><path d="M138.656 85.89s-.822-24.198-11.396-24.198-11.881 24.238-11.881 24.238c-40.277-4.634-56.291 14.42-53.791 21.386 1.179 3.286 3.554 3.842 5.958 2.316-.55 3.764-.28 7.405 1.762 9.906 1.983 2.43 4.141 2.458 5.833.816 22.237 27.417 53.425 30.09 53.425 30.09s43.664-5.347 59.556-29.413c1.527.892 3.306.536 4.962-1.493 2.042-2.501 2.313-6.143 1.762-9.906 2.404 1.526 4.778.97 5.958-2.316.66-1.837-2.019-28.872-62.148-21.426z" fill="#fffcc8"/><path d="M182.321 87.954s5.949 4.392 6.662 9.025c1.002 6.518-6.416 3.564-6.416 3.564 8.555 15.505-2.852 15.327-2.852 15.327-17.822 26.02-50.792 29.94-50.792 29.94s-24.95-2.495-52.688-24.162c22.152 26.19 52.332 28.795 52.332 28.795s43.664-5.347 59.556-29.413c1.527.892 3.306.536 4.962-1.493 2.042-2.501 2.313-6.143 1.762-9.906 2.404 1.526 4.778.97 5.958-2.316.434-1.208-.583-13.338-18.484-19.361z" fill="#e5ba97"/><path d="M151.505 113.256c1.419-.75 2.686-1.574 3.767-2.483 1.028-.868 1.891-1.822 2.512-2.9.629-1.077 1.005-2.296 1.005-3.564 0-.766-.145-1.532-.407-2.285 4.172-.102 8.203-1.144 7.426-2.394-3.833.237-7.012.003-9.461-.366a1.846 1.846 0 0 0-.531-.084c-1.75-.29-3.094-.64-3.979-.914-1.154-.356-2.043 1.065-1.192 1.922.692.699 1.946 1.266 3.479 1.555.047.109.103.216.172.317.597.893.794 1.613.801 2.248-.007.554-1.287 2.813-1.922 3.393-1.12 1.016-2.739 2.026-4.717 2.943-2.961 1.374-6.664 2.864-10.775 3.356-8.934 1.07-8.902-3.389-8.902-3.389s-1.508-8.482-2.259-8.423c-.764.06-1.709 8.353-1.709 8.353s-.965 4.795-9.783 4.123c-3.394-.259-6.394-1.515-8.878-2.666-2.273-1.041-4.071-2.279-5.229-3.535-.578-.627-1.003-1.256-1.274-1.859a4.371 4.371 0 0 1-.399-1.804c.006-.738.196-1.533.695-2.444l.051-.134.086-.01c1.535-.227 2.799-.769 3.47-1.445.753-.759-.034-2.017-1.055-1.702-1.911.59-6.184 1.589-12.365 1.207-.641 1.03 2.412 1.899 5.817 2.087a8.133 8.133 0 0 0-.395 2.441c0 1.151.259 2.278.727 3.313.813 1.81 2.217 3.362 3.978 4.692 1.829 1.378 4.076 2.536 6.619 3.484l3.718 1.144 1.342 11.744-3.327 1.614s5.06 7.386 22.634 7.386 21.168-10.723 21.168-10.723z" fill="#740806"/><path d="M100.907 95.148c0-1.782-4.253-3.227-9.5-3.227-5.248 0-9.5 1.445-9.5 3.227 0 1.781 4.253 3.226 9.5 3.226s9.5-1.445 9.5-3.226zM176.115 95.148c0-1.782-4.253-3.227-9.5-3.227-5.248 0-9.5 1.445-9.5 3.227 0 1.781 4.253 3.226 9.5 3.226s9.5-1.445 9.5-3.226zM126.509 90.927c-30.159 0-7.507 12.816 0 12.816 7.506 0 30.158-12.816 0-12.816z" fill="#e93e8f"/><path d="M122.46 94.138c-.699-.327-1.661-.529-2.723-.529-1.371 0-2.572.337-3.26.844-.384.283-.61.619-.61.981 0 1.007 1.732 1.824 3.87 1.824 2.137 0 3.87-.817 3.87-1.824 0-.507-.439-.965-1.147-1.296z" fill="#fff"/><path d="M183.745 61.405s-5.524-12.119-14.257-19.96l22.347-18.604c0-.001 10.623 21.811-8.09 38.564zM70.888 24.192c-1.7 5.119-7.433 22.878 8.579 37.213 0 0 3.495-8.466 7.776-14.431z" fill="#fffcc8"/><path d="M120.548 49.662s-10.426-9.891-9.327-18.148l8.257-2.257c-1.069 5.97 1.07 20.405 1.07 20.405z" fill="#f28a1c"/><path d="M60.177 107.824v-.001z" fill="#740806"/><g fill="none"><path d="M162.114 139.486c-.466.206-.932.409-1.398.609.467-.197.931-.403 1.398-.609zM165.217 138.063c-.309.147-.619.292-.929.437.31-.147.62-.288.929-.437zM159.221 130.128c24.95-20.317 20.495-42.237 20.495-42.237-5.703-37.604-23.346-50.258-23.346-50.258s-3.24-1.279-7.368-2.952L131.508 49.93s1.941-13.317 7.738-19.287l-.014-.006a66.833 66.833 0 0 0-7.684-.467c-10.127 0-18.897 2.353-26.017 5.399l-.699.299-33.738-19.937c-.099.151-.196.298-.31.48a38.804 38.804 0 0 0-2.418 4.528c-1.765 3.886-3.522 9.369-3.521 15.736.001 4.067.711 8.496 2.599 13.149 1.889 4.652 4.96 9.533 9.721 14.482l.699.727-.409.922c-2.85 6.425-6.007 13.787-8.651 20.548-2.643 6.751-4.774 12.94-5.555 16.847-.224 1.11-.335 2.032-.333 2.664 0 .109.003.209.009.298l.001.011v.01c.004.094.012.164.02.212l.002.013.002.013c.019.136.045.227.049.236l.001.002c.321.895.713 1.44 1.06 1.735.353.293.644.39 1.039.397.417.002.984-.156 1.644-.576l2.761-1.753-.473 3.236a20.616 20.616 0 0 0-.233 2.973c0 1.178.129 2.276.403 3.246.275.971.689 1.81 1.27 2.522.456.559.887.918 1.251 1.125.367.208.658.274.925.275.42-.002.888-.175 1.451-.712l1.327-1.288.986 1.565c3.269 5.191 8.011 9.625 13.354 13.341 5.34 3.717 11.271 6.713 16.865 9.057a125.308 125.308 0 0 0 7.188 2.75c19.351 1.648 34.174-5.431 45.403-14.574z"/></g><path d="M202.027 103.689c-.824-3.889-2.886-10.084-5.455-17.132-2.463-6.749-5.387-14.235-8.11-21.034 4.568-4.931 7.644-9.87 9.57-14.64 2.02-5.001 2.792-9.811 2.791-14.207-.001-6.923-1.899-12.812-3.79-16.977-1.893-4.167-3.783-6.619-3.835-6.687l-.81-1.048-34.318 20.278c-9.542-3.622-18.445-5.074-26.524-5.073-10.264 0-19.193 2.315-26.49 5.347L70.278 11.965l-.81 1.048c-.052.068-1.942 2.52-3.834 6.687-1.89 4.165-3.788 10.054-3.789 16.977-.001 4.417.778 9.251 2.82 14.277 1.943 4.786 5.045 9.741 9.651 14.688-3.168 7.17-6.662 15.378-9.415 22.656-1.434 3.792-2.667 7.327-3.549 10.344-.441 1.509-.795 2.889-1.042 4.119-.246 1.232-.39 2.306-.392 3.255 0 .157.005.312.014.464h-.002l.001.007v.014h.001c.008.156.023.328.052.513h-.001l.003.017.001.009h.001c.038.244.088.5.189.785.449 1.248 1.079 2.266 1.93 2.998a4.543 4.543 0 0 0 2.992 1.12c.249 0 .494-.028.738-.064-.015.315-.039.632-.039.945 0 1.394.149 2.762.516 4.062.366 1.298.958 2.531 1.833 3.602.639.783 1.331 1.4 2.088 1.833.754.433 1.584.671 2.412.67a4.615 4.615 0 0 0 2.113-.529c3.612 5.237 8.488 9.621 13.832 13.27 8.683 5.923 18.577 9.947 26.317 12.514 7.739 2.564 13.325 3.662 13.369 3.671l.238.047.241-.031c.06-.009 11.512-1.472 24.795-5.926 6.643-2.229 13.746-5.204 20.126-9.152 6-3.716 11.355-8.312 15.039-13.993.334.079.675.13 1.024.129.828.002 1.659-.237 2.414-.67.758-.433 1.45-1.051 2.09-1.835.875-1.071 1.466-2.304 1.832-3.603.367-1.3.516-2.669.516-4.062 0-.313-.024-.629-.039-.944.244.036.489.064.738.064a4.543 4.543 0 0 0 2.992-1.12c.851-.732 1.482-1.75 1.93-2.998.158-.454.185-.851.188-1.276 0-.811-.14-1.737-.375-2.858zM89.764 132.896c-5.342-3.716-10.084-8.151-13.354-13.341l-.986-1.565-1.327 1.288c-.563.537-1.031.71-1.451.712-.266-.002-.557-.068-.925-.275-.364-.207-.795-.566-1.251-1.125-.58-.712-.995-1.55-1.27-2.522-.275-.969-.404-2.068-.403-3.246 0-.95.083-1.951.233-2.973l.473-3.236-2.761 1.753c-.66.42-1.227.578-1.644.576-.395-.008-.686-.105-1.039-.397-.347-.295-.739-.839-1.06-1.735l.001-.002a1.5 1.5 0 0 1-.049-.236l-.002-.013-.002-.013a1.798 1.798 0 0 1-.02-.212v-.01l-.001-.011a4.479 4.479 0 0 1-.009-.298c-.002-.632.109-1.554.333-2.664.781-3.908 2.912-10.096 5.555-16.847 2.644-6.76 5.801-14.123 8.651-20.548l.409-.922-.699-.727c-4.762-4.949-7.832-9.83-9.721-14.482-1.888-4.652-2.599-9.082-2.599-13.149-.001-6.367 1.756-11.851 3.521-15.736a38.957 38.957 0 0 1 2.418-4.528c.114-.182.211-.328.31-.48l33.739 19.936.699-.299c7.12-3.046 15.889-5.399 26.017-5.399 2.478 0 5.046.161 7.684.467 5.788.672 11.943 2.122 18.449 4.656l.68.265 33.214-19.626a38.19 38.19 0 0 1 2.81 5.192c1.737 3.874 3.44 9.286 3.439 15.554-.001 4.048-.705 8.455-2.573 13.084-1.87 4.628-4.907 9.484-9.615 14.409l-.668.699.36.897c3.215 8.006 6.756 17.084 9.486 24.76 1.365 3.837 2.526 7.324 3.34 10.134.407 1.404.726 2.639.939 3.65.215 1.006.316 1.805.313 2.238 0 .111-.006.195-.012.243l-.006.034c-.32.886-.71 1.427-1.054 1.72-.353.293-.644.39-1.039.398-.417.002-.984-.156-1.643-.576l-2.761-1.753.473 3.237a20.76 20.76 0 0 1 .233 2.973c0 1.179-.129 2.277-.403 3.246-.275.971-.689 1.81-1.27 2.522-.456.56-.888.919-1.253 1.126-.368.208-.66.274-.927.276-.272-.002-.543-.071-.863-.256l-1.284-.75-.761 1.278c-3.339 5.613-8.625 10.262-14.734 14.04a76.379 76.379 0 0 1-6.883 3.758c-.309.15-.619.291-.929.437-.721.34-1.447.667-2.174.987-.466.205-.93.412-1.398.609-6.033 2.547-12.135 4.45-17.386 5.811a149.115 149.115 0 0 1-10.738 2.369 112.708 112.708 0 0 1-3.94.643l-.033.005c-1.181-.245-7.148-1.55-14.802-4.221a125.308 125.308 0 0 1-7.188-2.75c-5.598-2.347-11.529-5.342-16.869-9.059z" fill="#740806"/><path d="M118.793 33.304s-2.154.094-3.341 1.374c-1.061 1.143-1.635 5.09 2.672 5.482 5.52.503 15.962-5.426 14.88-10.655-.603-.36-19.379-13.362-22.344-6.285-1.034 2.468.113 5.292 1.96 6.995 2.508 2.312 6.173 3.089 6.173 3.089z" fill="#fbb807"/><path d="M128.519 36.656c-2.987 2.083-6.851 3.534-9.71 3.534-.236 0-.465-.01-.686-.03-4.307-.392-3.732-4.339-2.671-5.482 1.188-1.279 3.341-1.374 3.341-1.374s-3.665-.778-6.173-3.089c-1.847-1.702-2.993-4.527-1.96-6.995.633-1.509 1.984-2.105 3.726-2.105 6.423 0 18.251 8.838 18.726 9.121 0 0 2.799-.226 2.58-1.287l-.245-1.181-1.035-.619-.201-.134c-5.966-3.943-14.247-8.644-19.824-8.644-4.063 0-5.663 2.375-6.257 3.79-1.597 3.812.172 7.805 2.632 10.072a13.537 13.537 0 0 0 2.004 1.516c-.802 1.422-1.152 3.463-.422 5.368.825 2.155 2.842 3.531 5.531 3.776.301.027.615.041.935.041 3.716 0 10.13-5.43 9.709-6.278z" fill="#740806"/><path d="M118.356 75.603a27.697 27.697 0 0 0-.114-1.595c-.917-9.577-6.715-16.911-13.452-16.661-7.104.265-12.553 8.869-12.168 19.215.309 8.241 4.227 15.086 9.397 17.404 1.321.593 2.722.905 4.169.851a9.01 9.01 0 0 0 1.308-.145c6.454-1.197 11.221-9.366 10.86-19.069z" fill="#fff"/><path d="M94.143 52.669a20.706 20.706 0 0 1 3.62-3.431c6.133-4.517 13.391-2.856 17.768 2.481.487.593 1.317-.163 1.038-.94-1.673-4.655-5.057-10.878-11.135-10.595-6.631.308-10.421 6.962-12.274 11.638-.315.794.469 1.467.983.847z" fill="#740806"/><path d="M161.628 62.32c-1.602.748-3.475 1.181-5.627 1.181-4.762 0-8.171-2.092-10.235-5.09-5.322 2.965-8.948 9.991-8.71 18.095.02.654.064 1.299.132 1.935.54 5.081 2.583 9.522 5.496 12.564 2.621 2.737 5.945 4.342 9.524 4.237 2.68-.08 5.153-1.122 7.262-2.844 4.228-3.454 6.961-9.694 6.752-16.756-.155-5.24-1.899-9.938-4.594-13.322z" fill="#fff"/><g fill="#740806"><path d="M92.622 76.563c-.385-10.346 5.064-18.95 12.168-19.215 6.736-.25 12.535 7.084 13.452 16.661l-.001-.211c-.414-11.093-6.926-19.856-14.543-19.573-7.62.284-13.459 9.509-13.046 20.602.218 5.867 2.152 11.065 5.044 14.635 1.795 2.216 3.958 3.796 6.323 4.506-5.17-2.319-9.088-9.165-9.397-17.405zM168.274 55.939c-6.075 5.312-15.194 6.115-22.115.202a24.56 24.56 0 0 1-3.985-4.34c-.549-.765-1.598-.127-1.318.8a33.767 33.767 0 0 0 1.724 4.537c-3.755 3.909-6.091 10.023-5.891 16.855.045 1.531.219 3.019.5 4.449a26.068 26.068 0 0 1-.132-1.935c-.209-7.131 2.577-13.421 6.874-16.852 2.219 3.645 5.527 6.883 10.434 7.671 3.522.566 6.485-.598 8.92-2.496 1.73 3.046 2.818 6.758 2.938 10.814.209 7.062-2.524 13.302-6.752 16.756 3.063-1.896 5.562-5.057 7.126-8.965 1.233-3.082 1.89-6.624 1.779-10.379-.116-3.911-1.063-7.529-2.586-10.61 1.491-1.697 2.705-3.592 3.633-5.311.445-.825-.474-1.787-1.149-1.196z"/><path d="M159.074 79.265c.424-1.008-.727-1.908-1.671-1.356-3.075 1.885-8.677 4.164-13.528-.056-.842-.733-2.104-.034-1.871 1.058.639 2.723 2.973 6.016 8.229 6.257 5.351.275 8.447-4.831 8.841-5.903zM115.068 79.405c.424-1.008-.727-1.908-1.671-1.355-3.075 1.885-8.677 4.164-13.528-.056-.842-.733-2.104-.034-1.871 1.058.639 2.723 2.973 6.016 8.229 6.257 5.35.275 8.446-4.831 8.841-5.904z"/></g><path d="M146.589 129.266c-3.727 3.498-15.764 9.308-25.168 1.088 0 0 11.086-7.478 22.749-5.868 5.821.802 2.419 4.78 2.419 4.78z" fill="#e93e8f"/></g><g><path d="M266.605 53.422c.018-.891-.081-1.666-.3-2.329-.219-.661-.587-1.084-1.11-1.265-.522-.182-1.082-.065-1.672.352-.599.419-1.164.982-1.704 1.691-.54.71-1.034 1.485-1.483 2.324a16.12 16.12 0 0 0-1.019 2.251 18.175 18.175 0 0 0-.712 2.795 17.507 17.507 0 0 0-.286 2.912c-.008.917.095 1.714.309 2.391.211.682.579 1.112 1.1 1.293.557.192 1.127.104 1.707-.282.583-.383 1.134-.931 1.66-1.645a15.202 15.202 0 0 0 1.441-2.458c.438-.917.802-1.795 1.094-2.629.265-.766.492-1.636.673-2.602a17.33 17.33 0 0 0 .302-2.799z" fill="none"/><g fill="#fffcc8"><path d="M253.144 38.716c.287-1.263.529-2.576.728-3.934.2-1.351.271-2.615.209-3.789-.059-1.171-.286-2.198-.681-3.078-.396-.88-1.029-1.471-1.9-1.778a2.624 2.624 0 0 0-2.124.143c-.689.343-1.34.867-1.955 1.571-.618.701-1.188 1.531-1.713 2.476a37.945 37.945 0 0 0-1.439 2.864 43.584 43.584 0 0 0-1.13 2.739c-.321.865-.567 1.54-.736 2.029a203.724 203.724 0 0 0-1.157 3.4c-.385 1.153-.76 2.309-1.124 3.472-.182.52-.315.906-.401 1.149l-.21.6-.155.53c-.052.201-.155.523-.311.977a26.649 26.649 0 0 1-.029-1.591c-.007-.431-.006-.82 0-1.173a8.02 8.02 0 0 0-.009-.646c.06-1.85.093-3.684.101-5.495.006-1.818-.001-3.643-.02-5.483-.022-.946-.042-2.124-.055-3.534a24.037 24.037 0 0 0-.415-4.181c-.258-1.38-.67-2.639-1.232-3.769-.563-1.134-1.382-1.89-2.461-2.266-1.114-.387-2.266-.211-3.459.52-1.194.734-2.368 1.81-3.527 3.221-1.154 1.413-2.263 3.047-3.317 4.907a96.513 96.513 0 0 0-2.909 5.48 74.794 74.794 0 0 0-2.239 4.985 89.685 89.685 0 0 0-1.332 3.491c-.183.516-.407 1.22-.676 2.103-.27.883-.523 1.859-.758 2.927a35.114 35.114 0 0 0-.569 3.313c-.145 1.139-.175 2.203-.088 3.192.082.983.31 1.844.68 2.578.366.735.951 1.238 1.753 1.519l.157.052c.336.041.642.088.917.148.27.054.596.049.968-.014.664-.122 1.278-.454 1.841-.999a9.758 9.758 0 0 0 1.503-1.877c.442-.704.841-1.432 1.203-2.185.361-.75.678-1.412.955-1.976a36.568 36.568 0 0 0 1.875-4.298 397.895 397.895 0 0 0 1.584-4.449l.509-1.463c.044 2.005.129 3.997.26 5.973.129 1.977.249 3.984.361 6.013.057.957.17 2.028.339 3.218.17 1.197.45 2.354.835 3.485a11.58 11.58 0 0 0 1.568 3.064 5.165 5.165 0 0 0 2.552 1.912c1.113.39 2.23.264 3.353-.379s2.21-1.581 3.265-2.815c1.053-1.23 2.063-2.666 3.022-4.303a68.104 68.104 0 0 0 2.613-4.886 80.266 80.266 0 0 0 3.254-7.732c.205-.59.473-1.416.802-2.472.331-1.059.64-2.217.924-3.486zM290.573 51.683a58.518 58.518 0 0 0 1.115-4.207c.33-1.445.526-2.79.59-4.037.063-1.248-.05-2.323-.341-3.221-.289-.901-.853-1.502-1.687-1.792-.939-.328-1.819-.333-2.631-.009-.815.319-1.567.847-2.252 1.583a13.585 13.585 0 0 0-1.872 2.601 35.004 35.004 0 0 0-1.538 3.061 40.56 40.56 0 0 0-1.194 3.011l-.829 2.374c-.217.628-.522 1.527-.911 2.695a66.677 66.677 0 0 0-2.143 8.242c-.287 1.495-.454 2.893-.494 4.186-.043 1.294.077 2.409.353 3.345.28.936.803 1.537 1.57 1.805.626.217 1.28.124 1.97-.278.686-.408 1.364-1.005 2.033-1.807.67-.802 1.335-1.72 1.988-2.762a36.735 36.735 0 0 0 1.767-3.128c.519-1.05.982-2.039 1.386-2.974.403-.934.702-1.679.898-2.233.229-.66.555-1.563.973-2.704a77.32 77.32 0 0 0 1.249-3.751zM280.129 75.325a4.382 4.382 0 0 0-1.98-1.364 5.336 5.336 0 0 0-1.634-.278 5.882 5.882 0 0 0-1.741.215 4.534 4.534 0 0 0-1.514.729c-.448.335-.762.76-.945 1.284-.303.869-.178 1.625.379 2.267a4.582 4.582 0 0 0 1.984 1.366c.522.182 1.07.294 1.638.337a5.216 5.216 0 0 0 1.688-.143 3.945 3.945 0 0 0 1.48-.712c.427-.341.747-.802.954-1.396.315-.905.212-1.673-.309-2.305zM274.78 50.217a12.727 12.727 0 0 0-1.931-5.122c-1.005-1.542-2.48-2.656-4.429-3.333-2.019-.704-3.938-.797-5.757-.281-1.82.515-3.483 1.417-4.987 2.711-1.503 1.287-2.824 2.841-3.963 4.648-1.139 1.808-2.029 3.634-2.672 5.477a23.063 23.063 0 0 0-1.169 5.538c-.175 1.951-.062 3.811.333 5.588.395 1.778 1.09 3.367 2.084 4.769.996 1.401 2.38 2.408 4.155 3.029 1.913.67 3.729.773 5.449.32 1.72-.452 3.293-1.268 4.722-2.453 1.424-1.176 2.701-2.627 3.826-4.343a31.574 31.574 0 0 0 2.81-5.283c.685-1.633 1.18-3.453 1.491-5.456.308-2 .321-3.936.038-5.809zm-10.244 11.236a15.245 15.245 0 0 1-1.441 2.458c-.526.714-1.077 1.262-1.66 1.645-.58.386-1.151.475-1.707.282-.521-.181-.889-.611-1.1-1.293-.214-.677-.316-1.475-.309-2.391s.104-1.882.286-2.912a18.29 18.29 0 0 1 .712-2.795c.231-.661.569-1.412 1.019-2.251.449-.839.943-1.614 1.483-2.324.54-.709 1.105-1.272 1.704-1.691.591-.417 1.151-.534 1.672-.352.522.181.891.604 1.11 1.265.219.663.319 1.438.3 2.329-.02.895-.119 1.825-.302 2.799a18.306 18.306 0 0 1-.673 2.602 26.252 26.252 0 0 1-1.094 2.629z"/></g><g><path d="M233.761 19.748c.393 0 .781.067 1.165.2 1.079.377 1.898 1.132 2.46 2.266.563 1.13.974 2.389 1.233 3.769.26 1.374.399 2.774.415 4.182.013 1.409.033 2.587.055 3.533.02 1.84.026 3.666.02 5.483a192.64 192.64 0 0 1-.102 5.495c.008.083.013.297.009.646-.006.353-.007.742 0 1.173-.005.465.001.993.03 1.592.157-.454.26-.776.311-.977l.155-.53.209-.599c.086-.243.219-.629.401-1.149.364-1.163.74-2.319 1.124-3.472.381-1.158.768-2.286 1.157-3.4.169-.489.414-1.164.736-2.029.319-.864.698-1.777 1.13-2.739.434-.963.912-1.918 1.439-2.864.525-.946 1.094-1.775 1.712-2.477.616-.703 1.266-1.228 1.955-1.571a2.644 2.644 0 0 1 1.212-.302c.3 0 .604.053.913.159.87.307 1.503.898 1.899 1.778.395.88.623 1.907.681 3.078.062 1.173-.009 2.438-.209 3.789a51.582 51.582 0 0 1-.728 3.934 43.937 43.937 0 0 1-.923 3.485 85.385 85.385 0 0 1-.802 2.472 79.681 79.681 0 0 1-3.254 7.732 68.104 68.104 0 0 1-2.613 4.886c-.959 1.636-1.968 3.073-3.022 4.303-1.056 1.235-2.143 2.172-3.265 2.815-.699.4-1.395.6-2.09.6a3.81 3.81 0 0 1-1.263-.221 5.165 5.165 0 0 1-2.552-1.912 11.608 11.608 0 0 1-1.567-3.064 19.227 19.227 0 0 1-.835-3.486 40.039 40.039 0 0 1-.339-3.219 668.63 668.63 0 0 0-.361-6.013 133.618 133.618 0 0 1-.261-5.973l-.509 1.463c-.522 1.494-1.05 2.978-1.584 4.45s-1.158 2.904-1.876 4.297c-.277.564-.594 1.226-.955 1.976a21.831 21.831 0 0 1-1.203 2.185 9.797 9.797 0 0 1-1.503 1.877c-.562.545-1.177.877-1.841.999-.202.034-.39.051-.562.051-.147 0-.282-.012-.406-.037-.275-.059-.58-.107-.916-.147l-.157-.052c-.802-.282-1.387-.785-1.754-1.519-.37-.733-.598-1.594-.68-2.578-.087-.988-.057-2.052.088-3.192a35.17 35.17 0 0 1 .569-3.313c.234-1.068.488-2.045.757-2.927.27-.883.493-1.587.676-2.103a87.81 87.81 0 0 1 1.333-3.491 74.283 74.283 0 0 1 2.239-4.985 96.815 96.815 0 0 1 2.909-5.48c1.055-1.86 2.164-3.494 3.317-4.907 1.158-1.411 2.333-2.487 3.527-3.221.784-.478 1.548-.719 2.296-.719m55.111 18.429c.443 0 .903.083 1.378.249.834.29 1.398.891 1.687 1.792.291.898.405 1.973.341 3.221-.065 1.246-.26 2.592-.59 4.036a57.725 57.725 0 0 1-1.116 4.207 75.601 75.601 0 0 1-1.249 3.752 196.553 196.553 0 0 0-.973 2.705 37.731 37.731 0 0 1-.898 2.233 63.439 63.439 0 0 1-1.387 2.974 36.735 36.735 0 0 1-1.767 3.128 25.132 25.132 0 0 1-1.988 2.761c-.669.802-1.347 1.4-2.033 1.807-.448.261-.881.392-1.302.392-.227 0-.45-.038-.669-.114-.767-.268-1.29-.87-1.57-1.805-.276-.936-.397-2.052-.353-3.346.041-1.293.207-2.692.494-4.186.289-1.499.621-2.954.996-4.369a68.282 68.282 0 0 1 1.147-3.874c.389-1.168.693-2.067.911-2.696l.829-2.374c.334-.959.732-1.962 1.194-3.01.464-1.049.978-2.07 1.538-3.062a13.66 13.66 0 0 1 1.872-2.601c.685-.736 1.437-1.264 2.252-1.583a3.437 3.437 0 0 1 1.256-.237m-23.845 2.976c1.097 0 2.228.203 3.392.609 1.949.677 3.424 1.791 4.429 3.333 1.004 1.537 1.648 3.244 1.93 5.122.284 1.874.27 3.81-.038 5.809-.31 2.003-.805 3.822-1.49 5.456a31.761 31.761 0 0 1-2.81 5.283c-1.125 1.717-2.402 3.167-3.826 4.343-1.428 1.184-3.002 2-4.722 2.452a8.368 8.368 0 0 1-2.142.276c-1.068 0-2.171-.198-3.308-.596-1.776-.621-3.16-1.628-4.155-3.029-.994-1.401-1.688-2.991-2.084-4.768-.395-1.777-.508-3.637-.333-5.588a23.015 23.015 0 0 1 1.169-5.538c.642-1.843 1.532-3.669 2.671-5.477 1.139-1.807 2.46-3.36 3.963-4.648 1.504-1.295 3.167-2.197 4.987-2.711a8.647 8.647 0 0 1 2.367-.328m-4.729 24.783c.374 0 .753-.125 1.137-.38.583-.384 1.134-.931 1.66-1.646a15.202 15.202 0 0 0 1.441-2.458 26.49 26.49 0 0 0 1.094-2.629c.265-.766.492-1.636.673-2.602.183-.974.282-1.904.302-2.799.018-.891-.081-1.666-.3-2.329-.219-.662-.588-1.085-1.11-1.265a1.478 1.478 0 0 0-.486-.083c-.379 0-.775.145-1.186.435-.598.419-1.164.983-1.703 1.691a17.263 17.263 0 0 0-1.483 2.324 16.12 16.12 0 0 0-1.019 2.251 18.334 18.334 0 0 0-.712 2.796 17.401 17.401 0 0 0-.286 2.912c-.008.917.094 1.714.309 2.391.211.682.579 1.112 1.1 1.293.187.065.377.098.569.098m16.064 7.745.153.002a5.267 5.267 0 0 1 1.634.278 4.39 4.39 0 0 1 1.98 1.364c.521.632.624 1.4.309 2.303-.207.595-.526 1.055-.954 1.396a3.962 3.962 0 0 1-1.48.713 5.278 5.278 0 0 1-1.689.143 6.378 6.378 0 0 1-1.637-.337 4.59 4.59 0 0 1-1.985-1.366c-.557-.642-.683-1.398-.379-2.267.183-.523.497-.949.945-1.284a4.544 4.544 0 0 1 1.514-.729 5.903 5.903 0 0 1 1.589-.216m-42.601-56.933v3-3c-1.304 0-2.603.391-3.861 1.162-1.472.905-2.91 2.208-4.278 3.876-1.272 1.557-2.484 3.349-3.608 5.33a99.754 99.754 0 0 0-2.995 5.643 77.48 77.48 0 0 0-2.328 5.187 90.93 90.93 0 0 0-1.382 3.622 55.526 55.526 0 0 0-.711 2.212c-.295.969-.57 2.032-.818 3.161a37.656 37.656 0 0 0-.616 3.589 17.862 17.862 0 0 0-.099 3.822c.113 1.351.447 2.589.991 3.667.706 1.415 1.897 2.457 3.438 2.998l.199.067.289.097.303.037c.258.031.475.065.645.102.358.072.693.104 1.037.104.338 0 .694-.031 1.06-.092 1.301-.239 2.44-.843 3.432-1.803a12.833 12.833 0 0 0 1.961-2.444c.474-.754.919-1.56 1.321-2.389.064.641.147 1.321.25 2.055.195 1.365.519 2.72.965 4.03a14.676 14.676 0 0 0 1.977 3.857 8.128 8.128 0 0 0 3.997 2.987c.732.256 1.49.388 2.249.388 1.22 0 2.425-.335 3.58-.997 1.416-.81 2.78-1.978 4.055-3.469a30.028 30.028 0 0 0 1.992-2.617 20.87 20.87 0 0 0 .473 5.167c.48 2.161 1.343 4.13 2.565 5.853 1.357 1.91 3.245 3.297 5.611 4.125 1.447.507 2.894.764 4.298.764.982 0 1.96-.126 2.905-.374 2.14-.562 4.116-1.587 5.874-3.044 1.644-1.357 3.133-3.044 4.421-5.008a39.2 39.2 0 0 0 .458-.715c.062.964.213 1.858.452 2.671.063.212.135.417.215.614l-.11.03a7.49 7.49 0 0 0-2.493 1.209 5.634 5.634 0 0 0-1.988 2.702c-.655 1.873-.311 3.777.945 5.224a7.572 7.572 0 0 0 3.258 2.231 9.448 9.448 0 0 0 3.039.521c.672 0 1.347-.083 2.006-.248a6.954 6.954 0 0 0 2.59-1.251c.914-.729 1.559-1.656 1.951-2.784.662-1.896.369-3.742-.827-5.194l-.112-.132c.804-.558 1.566-1.269 2.282-2.128a28.41 28.41 0 0 0 2.225-3.089 40.006 40.006 0 0 0 1.909-3.381 66.109 66.109 0 0 0 1.456-3.124c.433-1.004.75-1.795.973-2.423.231-.666.551-1.553.962-2.675a78.747 78.747 0 0 0 1.301-3.907 61.306 61.306 0 0 0 1.173-4.422c.363-1.59.586-3.121.66-4.542.082-1.612-.08-3.058-.483-4.301-.572-1.785-1.836-3.103-3.555-3.701a7.163 7.163 0 0 0-2.364-.416 6.34 6.34 0 0 0-2.367.455c-1.215.476-2.344 1.26-3.334 2.325-.85.915-1.62 1.982-2.29 3.172a38.155 38.155 0 0 0-1.668 3.321 43.692 43.692 0 0 0-1.284 3.237l-.29.83-.079.227a15.648 15.648 0 0 0-2.198-5.289c-1.374-2.108-3.379-3.632-5.957-4.527-1.473-.514-2.946-.775-4.376-.775a11.66 11.66 0 0 0-3.182.441c-2.239.633-4.3 1.752-6.127 3.324-.128.11-.255.221-.38.334a54.712 54.712 0 0 0 1.503-7.034c.229-1.546.309-3.022.237-4.383-.077-1.532-.393-2.93-.94-4.148-.733-1.629-1.99-2.797-3.637-3.378a5.84 5.84 0 0 0-1.912-.331c-.887 0-1.752.211-2.571.627-1.012.504-1.98 1.271-2.854 2.27-.743.844-1.445 1.855-2.078 2.997-.362.65-.712 1.321-1.044 2.005l-.008-.74a27.042 27.042 0 0 0-.467-4.712c-.309-1.647-.812-3.179-1.495-4.549-.905-1.825-2.343-3.128-4.157-3.761a6.492 6.492 0 0 0-2.16-.372zm27.621 44.28c.04-.402.099-.821.177-1.263.157-.873.356-1.659.59-2.329.182-.523.462-1.135.83-1.822.168-.314.344-.618.526-.908-.039.315-.089.637-.15.962a15.334 15.334 0 0 1-.559 2.174c-.252.72-.578 1.504-.967 2.32-.145.303-.293.592-.447.866z" fill="#740806"/></g></g></svg>