<svg id="Layer_1" height="512" viewBox="0 0 150 150" width="512" xmlns="http://www.w3.org/2000/svg" data-name="Layer 1"><path d="m92.664 77.166s.409 12.472-2.045 13.7a8.045 8.045 0 0 1 2.07 4.293c.384 2.658.5 15.647-3.569 16.562-3.575.805-7.7-1.022-3.2-5.929 0 0-1.022-14.513-4.293-19.933" fill="#f5d8af"/><path d="m87.518 112.9c-1.7 0-3.395-.531-4.174-1.874-.608-1.05-.812-2.859 1.542-5.579-.2-2.394-1.312-14.418-4.12-19.07a1 1 0 0 1 1.713-1.033c3.358 5.563 4.393 19.777 4.435 20.379a1 1 0 0 1 -.26.746c-1.4 1.523-1.986 2.852-1.579 3.554.455.787 2.134 1.1 3.825.725 2.85-.643 3.3-11.976 2.8-15.444a7.138 7.138 0 0 0 -1.78-3.722 1 1 0 0 1 .251-1.609c1-.506 1.7-6.475 1.494-12.771a1 1 0 0 1 .965-1.033h.035a1 1 0 0 1 1 .967c.113 3.454.132 11.03-1.7 13.777a9.149 9.149 0 0 1 1.717 4.107c.278 1.921.926 16.493-4.34 17.68a8.343 8.343 0 0 1 -1.824.2z" fill="#4d4d4d"/><path d="m130.131 73.559c-4.4-1.861-10.1-7.04-10.1-7.04s-4.9 5.179-16.943 2.593c0 0-8.937 16.3-26.019 20.446 0 0 1.814 30.28.78 33.383s-3.621 6.986-8.282 4.917 0-6.73 0-6.73a50.269 50.269 0 0 0 -.269-14.413 29.875 29.875 0 0 0 -4.131-11.206 9.588 9.588 0 0 1 -7.765 1.29s.311 3.213.552 7.247c.331 5.69.51 13-.552 15.268-1.813 3.882-6.985 7.248-9.316 4.662s2.848-6.214 2.848-6.214-2.5-17.6-3.448-22.253-4.579-9.061-4.579-16.826a71.846 71.846 0 0 0 -1.289-13.716l27.949-8.282s.517 1.552 6.985-2.324 9.583-10.613 16.048-10.875 16.05-1.286 22.518 5.434a27.564 27.564 0 0 1 6.869 11.889c-.062-1.11.255-2.31 1.931-2.31 3.11 0 2.592 3.62 4.661 4.137s7.765 2.331 8.02 6.476-2.069 6.309-6.468 4.447z" fill="#f5d8af"/><path d="m69.867 98.226a15.682 15.682 0 0 0 .042 8.448c-.2.014-.4.034-.607.041a29.875 29.875 0 0 0 -4.131-11.206 9.588 9.588 0 0 1 -7.765 1.29s.311 3.213.552 7.247c-.048-.172-.1-.358-.159-.551-.441-1.414-.986-2.8-1.558-4.172-1.152-2.759-2.441-5.462-3.352-8.317a24.139 24.139 0 0 1 -1.041-4.73 8.081 8.081 0 0 1 .186-3.228 3.74 3.74 0 0 1 2.042-2.406 5.554 5.554 0 0 1 3.972.379 7.1 7.1 0 0 0 3.965.71c1.076-.241 1.979-1.007 3.062-1.227a4.486 4.486 0 0 1 3.916 1.434c2.028 2 2.676 5.055 2.511 7.9a57.441 57.441 0 0 1 -1.635 8.388z" fill="#f2f2f2"/><path d="m72.071 129.442a7.165 7.165 0 0 1 -2.906-.67 3.584 3.584 0 0 1 -2.355-2.73c-.367-2.4 2.061-4.988 2.989-5.878.108-2.292.385-14.335-4.96-23.3a10.589 10.589 0 0 1 -6.311 1.209c.405 4.613 1.425 18.149-.215 21.664-1.2 2.563-3.481 5.535-6.308 6.185a5.2 5.2 0 0 1 -4.545-1.173 2.809 2.809 0 0 1 -1.111-2.314c.059-2.1 2.436-4.245 3.516-5.111-.441-3.076-2.521-17.518-3.357-21.62a27.322 27.322 0 0 0 -1.692-4.857c-1.36-3.266-2.9-6.966-2.9-12.165a71.066 71.066 0 0 0 -1.272-13.5 1 1 0 0 1 .694-1.172l25.275-7.489a14.569 14.569 0 0 1 3.781-.528c.472-.013 1.964-.281 5.652-2.493a34.931 34.931 0 0 0 6.185-5.085c3.074-2.958 5.978-5.752 10.335-5.925.492-.02 1-.044 1.526-.07 6.527-.3 15.461-.733 21.75 5.81a29.327 29.327 0 0 1 6.288 9.77 3.058 3.058 0 0 1 1.789-.5c2.375 0 3.24 1.7 3.812 2.816.394.77.657 1.248 1.09 1.356 2.54.635 8.48 2.625 8.777 7.377.155 2.473-.548 4.392-1.976 5.405-1.016.719-2.862 1.307-5.881.029-3.66-1.549-8.064-5.2-9.716-6.635-1.791 1.358-6.9 4.241-16.426 2.388-1.855 3.09-10.409 16.053-25.476 20.086.323 5.533 1.678 29.934.677 32.937-.545 1.635-1.851 4.551-4.482 5.711a5.5 5.5 0 0 1 -2.247.472zm-6.9-34.934a.987.987 0 0 1 .187.018 1.007 1.007 0 0 1 .651.436c6.835 10.516 5.81 25.121 5.763 25.739a1 1 0 0 1 -.336.673c-1.13 1-2.849 3.069-2.648 4.367.027.179.111.724 1.189 1.2a4.2 4.2 0 0 0 3.533.195c2-.882 3.038-3.451 3.394-4.515.709-2.129-.131-21.377-.826-33.009a1 1 0 0 1 .762-1.032c16.436-3.984 25.291-19.8 25.378-19.955a1 1 0 0 1 1.087-.5c11.263 2.421 15.963-2.255 16.01-2.3a1.007 1.007 0 0 1 1.395-.047c.055.05 5.62 5.084 9.81 6.857 1.721.729 3.085.79 3.944.181.844-.6 1.248-1.893 1.138-3.648-.221-3.53-5.618-5.149-7.266-5.562a3.885 3.885 0 0 1 -2.385-2.386c-.579-1.134-.933-1.726-2.032-1.726-.582 0-.719.2-.764.262a1.53 1.53 0 0 0 -.178.866 14.787 14.787 0 0 1 .383 1.9 1 1 0 0 1 -1.931.461 7.758 7.758 0 0 1 -.433-2 26.768 26.768 0 0 0 -6.6-11.377c-5.66-5.888-14.07-5.491-20.214-5.2-.53.026-1.045.05-1.541.07-3.6.144-6.114 2.565-9.028 5.369a36.519 36.519 0 0 1 -6.543 5.358c-3.053 1.831-5.22 2.739-6.627 2.778a12.593 12.593 0 0 0 -3.267.446l-24.4 7.23a74.888 74.888 0 0 1 1.138 13.016 27.8 27.8 0 0 0 2.749 11.407 28.759 28.759 0 0 1 1.8 5.227c.946 4.635 3.358 21.6 3.46 22.316a1 1 0 0 1 -.4.951c-1.3.944-3.145 2.784-3.176 3.921a.81.81 0 0 0 .372.7 3.175 3.175 0 0 0 2.837.776c1.751-.4 3.692-2.4 4.944-5.082 1.39-2.981.407-16.889-.089-22a1 1 0 0 1 1.293-1.051 8.655 8.655 0 0 0 6.886-1.155 1.009 1.009 0 0 1 .581-.175z" fill="#4d4d4d"/><path d="m103.1 70.11h-.052a14.878 14.878 0 0 1 -5.438-1.5 1 1 0 1 1 .916-1.778 12.9 12.9 0 0 0 4.625 1.28 1 1 0 0 1 -.051 2z" fill="#4d4d4d"/><path d="m57 65.241s-5.33-8.716-9.713-13.441-10.887-1.479-10.887-1.479a51.185 51.185 0 0 0 -6.076 2.31c-2.082.97-3.987 2.146-4.368 3.3-.911 2.75-1.434 4.252-1.434 4.252s-7.622 1.722-9.963 3.377c-1.208.851-.293 2.817 1.312 4.725a17.361 17.361 0 0 0 5.164 4.243c3.135 1.443 9.512-.429 9.512-.429s-4.6 3-7.572 3.7a.446.446 0 0 0 -.077.846c2.448 1.055 7.282 2.624 11.366.824 0 0 .968 2.681 6.556 5.728z" fill="#f5d8af"/><path d="m15.871 68.285c-1.605-1.908-2.52-3.874-1.312-4.725 1.368-.967 4.54-1.956 6.94-2.611a5.922 5.922 0 0 0 4.066-3.838c.121-.362.251-.755.391-1.176.381-1.158.63-1.488 2.713-2.458a8.6 8.6 0 0 1 0 5.449 9.385 9.385 0 0 1 -3.927 4.685 10.609 10.609 0 0 0 -3.065 2.546c-1.331 1.63-3.528 3.543-5.806 2.128z" fill="#f2f2f2"/><path d="m39.88 77.8 7.408-26c5.424 3.824 11.02 7 17.121 8.288" fill="#f5d8af"/><g fill="#4d4d4d"><path d="m39.88 78.8a1.013 1.013 0 0 1 -.275-.038 1 1 0 0 1 -.687-1.236l7.409-26.006a1 1 0 0 1 1.538-.543c6.431 4.536 11.6 7.042 16.751 8.127a1 1 0 0 1 -.412 1.957c-5.116-1.076-10.2-3.45-16.337-7.648l-7.026 24.666a1 1 0 0 1 -.961.721z"/><path d="m18.063 63.2-.407-.564c-.83-1.149-2.9-1.033-3.953.339a2.27 2.27 0 0 0 -.084 2.2 1.711 1.711 0 0 0 1.681 1.055l1.029-.058c1.551-.086 2.564-1.825 1.734-2.972z"/><path d="m15.194 67.233a2.7 2.7 0 0 1 -2.48-1.636 3.28 3.28 0 0 1 .171-3.2 3.888 3.888 0 0 1 3.079-1.548h.056a3.009 3.009 0 0 1 2.446 1.2l.408.563a2.67 2.67 0 0 1 .2 2.748 3.176 3.176 0 0 1 -2.688 1.81l-1.03.058c-.056.004-.108.005-.162.005zm.771-4.383a1.89 1.89 0 0 0 -1.469.731 1.32 1.32 0 0 0 .028 1.164.7.7 0 0 0 .721.487l1.03-.058a1.2 1.2 0 0 0 .993-.676.7.7 0 0 0 -.015-.714l-.408-.564a1.043 1.043 0 0 0 -.855-.369z"/><path d="m40.818 84.2a1 1 0 0 1 -.479-.123c-4.014-2.194-5.788-4.228-6.532-5.363-4.1 1.372-8.614-.028-11.038-1.037a1.517 1.517 0 0 1 -.942-1.518 1.543 1.543 0 0 1 1.138-1.387 13.962 13.962 0 0 0 1.956-.722 9.724 9.724 0 0 1 -4.3-.615c-2.747-1.263-7.34-5.658-7.6-8.486a2.326 2.326 0 0 1 .964-2.209c1.187-.836 3.6-1.756 7.178-2.736a5.074 5.074 0 0 0 3.483-3.288l.365-1.1c1.009-3.043 9.179-5.67 11.026-6.229 2.523-1.228 8.164-2.4 11.99 1.73 4.4 4.746 9.607 13.241 9.827 13.6a1 1 0 1 1 -1.707 1.043c-.053-.086-5.326-8.685-9.587-13.284-3.81-4.111-9.471-1.379-9.711-1.26a1.084 1.084 0 0 1 -.158.063c-4.345 1.3-9.319 3.572-9.781 4.964l-.366 1.1a7.077 7.077 0 0 1 -4.853 4.588 25.705 25.705 0 0 0 -6.554 2.44c-.067.047-.151.107-.125.392.174 1.883 4.047 5.75 6.445 6.852 2.29 1.053 7.139.012 8.814-.48a1 1 0 0 1 .827 1.8 40.333 40.333 0 0 1 -6.356 3.353c2.433.849 6.055 1.62 9.122.263a1 1 0 0 1 1.345.574c0 .009 1.012 2.419 6.094 5.2a1 1 0 0 1 -.48 1.878z"/></g><path d="m39.356 62.289c.107 3.134.778 6.454-.583 9.279-.926 1.923-2.67 3.313-3.882 5.07s-1.776 4.358-.3 5.9c1.571 1.635 3.7 3.223 7.188 1.087 5.89-3.611 11.6-6.453 14.029-11.245s3.146-7.965.12-12.406c-1.022-1.5-6.1-6.095-7.827-6.658-5.494-1.797-8.901 4.402-8.745 8.973z" fill="#f5d8af"/><g fill="#4d4d4d"><path d="m38.622 85.645a6.642 6.642 0 0 1 -4.749-2.417c-1.9-1.974-1.229-5.094.2-7.157a22.136 22.136 0 0 1 1.693-2.08 13.11 13.11 0 0 0 2.111-2.857c.951-1.973.785-4.278.609-6.718-.051-.7-.1-1.4-.124-2.092a11.285 11.285 0 0 1 3.964-9 6.431 6.431 0 0 1 6.094-.965c2.074.675 7.273 5.474 8.342 7.045 3.255 4.778 2.493 8.4-.054 13.421-2.212 4.359-6.908 7.162-11.88 10.128-.83.5-1.672 1-2.519 1.517a7.022 7.022 0 0 1 -3.687 1.175zm7.578-31.645a4.376 4.376 0 0 0 -2.68.931c-2.187 1.646-3.249 4.933-3.168 7.329.024.666.072 1.341.121 2.017.187 2.595.38 5.276-.8 7.73a14.729 14.729 0 0 1 -2.414 3.313 20.763 20.763 0 0 0 -1.545 1.89c-1.008 1.462-1.469 3.524-.4 4.636 1.708 1.777 3.3 2.551 5.945.928.853-.523 1.7-1.029 2.538-1.528 4.922-2.938 9.172-5.474 11.123-9.317 2.344-4.622 2.928-7.363.185-11.39-1.018-1.493-5.927-5.819-7.311-6.27a5.113 5.113 0 0 0 -1.594-.269z"/><path d="m32.582 61.593 1.969.483"/><path d="m34.551 63.076a.938.938 0 0 1 -.239-.03l-1.968-.483a1 1 0 0 1 .477-1.942l1.968.484a1 1 0 0 1 -.238 1.971z"/><path d="m107.85 76.562a1 1 0 0 1 -.662-.251q-.9-.8-1.862-1.56a1 1 0 1 1 1.244-1.566c.661.525 1.315 1.073 1.942 1.628a1 1 0 0 1 -.662 1.749z"/><path d="m113.3 82.29a.991.991 0 0 1 -.783-.378q-.7-.879-1.463-1.741a1 1 0 0 1 1.5-1.326q.8.9 1.532 1.823a1 1 0 0 1 -.782 1.622z"/><path d="m117.4 88.483a1 1 0 0 1 -.881-.525q-.5-.93-1.063-1.849a1 1 0 1 1 1.707-1.043c.392.643.764 1.292 1.116 1.941a1 1 0 0 1 -.879 1.476z"/><path d="m120.149 94.9a1 1 0 0 1 -.952-.694q-.3-.941-.666-1.883a1 1 0 0 1 1.869-.723q.384 1 .7 1.991a1 1 0 0 1 -.645 1.259 1.024 1.024 0 0 1 -.306.05z"/><path d="m121.574 101.3a1 1 0 0 1 -.991-.876c-.078-.615-.171-1.234-.285-1.854a1 1 0 0 1 1.967-.362q.181.989.3 1.968a1 1 0 0 1 -.868 1.116 1.063 1.063 0 0 1 -.123.008z"/></g><path d="m133.4 112.8c-1.2-.62-2.593-.947-3.529-1.916a6.265 6.265 0 0 0 5.285-5.176 1.927 1.927 0 0 0 -.583-1.7c-.775-.684-1.554-.329-2.232.042-1.059.577-4.339 3.6-5.258 3.252 1.079-1.244 2.02-2.891 1.178-4.574a2.338 2.338 0 0 0 -2.9-1.223c-2.241.931-1.334 4.789-3.428 5.848a6.919 6.919 0 0 0 -2.168-2.176 2.3 2.3 0 0 0 -3.492 2.383 4.039 4.039 0 0 0 1.387 2.243c.146.116.3.222.462.325a5.453 5.453 0 0 0 -1.387.114 3.574 3.574 0 0 0 -2.521 1.94 1.738 1.738 0 0 0 -.016 1.434 2.174 2.174 0 0 0 2.334.8 7.34 7.34 0 0 0 1.758-.516 1.342 1.342 0 0 1 1.862 1.473 3.392 3.392 0 0 0 -.058 1.34 2.267 2.267 0 0 0 4.19.712 8 8 0 0 0 .584-2.282c.177-.769.648-1.591 1.428-1.708a2.093 2.093 0 0 1 1.468.5c1.643 1.182 2.728 3.1 4.911 3.51a2.35 2.35 0 0 0 2.411-.931c.948-1.469-.323-3.014-1.686-3.714z" fill="#f2f2f2"/><path d="m122.3 119.549a2.98 2.98 0 0 1 -.523-.045 3.319 3.319 0 0 1 -2.661-2.611 4.314 4.314 0 0 1 .061-1.733.277.277 0 0 0 -.106-.29.377.377 0 0 0 -.385-.057 8.324 8.324 0 0 1 -2 .585 3.115 3.115 0 0 1 -3.377-1.333 2.71 2.71 0 0 1 -.018-2.271 4.415 4.415 0 0 1 2.7-2.38 5.307 5.307 0 0 1 -.69-1.627 3.148 3.148 0 0 1 1.275-3.345 3.319 3.319 0 0 1 3.727-.114 8.039 8.039 0 0 1 1.758 1.512 7.986 7.986 0 0 0 .542-1.631c.343-1.321.77-2.966 2.375-3.633a3.32 3.32 0 0 1 4.179 1.7 3.943 3.943 0 0 1 .355 2.6c.252-.189.483-.367.667-.508a16.22 16.22 0 0 1 1.684-1.2 2.753 2.753 0 0 1 3.374.087 2.9 2.9 0 0 1 .911 2.592 7.168 7.168 0 0 1 -3.915 5.341c.132.058.266.113.4.171.416.175.832.35 1.228.556a4.688 4.688 0 0 1 2.452 2.777 2.878 2.878 0 0 1 -.389 2.36 3.337 3.337 0 0 1 -3.434 1.369 7.61 7.61 0 0 1 -3.914-2.44 12.512 12.512 0 0 0 -1.4-1.24c-.431-.31-.653-.335-.736-.321-.224.034-.488.448-.6.943-.048.21-.082.425-.117.639a5.391 5.391 0 0 1 -.576 1.92 3.334 3.334 0 0 1 -2.847 1.627zm-3.466-6.766a2.36 2.36 0 0 1 1.508.544 2.288 2.288 0 0 1 .792 2.248 2.423 2.423 0 0 0 -.053.945 1.266 1.266 0 0 0 2.341.4 3.829 3.829 0 0 0 .334-1.238c.041-.258.083-.516.141-.768a2.656 2.656 0 0 1 4.455-1.8 14.073 14.073 0 0 1 1.626 1.432 5.8 5.8 0 0 0 2.887 1.907 1.365 1.365 0 0 0 1.385-.493.889.889 0 0 0 .133-.76 2.812 2.812 0 0 0 -1.438-1.514c-.349-.181-.716-.334-1.082-.487a7.654 7.654 0 0 1 -2.706-1.621 1 1 0 0 1 .586-1.687 5.261 5.261 0 0 0 4.428-4.322.94.94 0 0 0 -.255-.818c-.195-.173-.333-.244-1.092.169a17.135 17.135 0 0 0 -1.423 1.033c-2.391 1.839-3.63 2.666-4.664 2.278a1 1 0 0 1 -.4-1.592c1.76-2.028 1.216-3.113 1.038-3.47a1.34 1.34 0 0 0 -1.623-.748c-.64.266-.883 1.043-1.206 2.289-.341 1.317-.728 2.808-2.154 3.529a1 1 0 0 1 -1.3-.366 5.92 5.92 0 0 0 -1.855-1.859 1.32 1.32 0 0 0 -1.493.055 1.186 1.186 0 0 0 -.49 1.252 3.051 3.051 0 0 0 1.035 1.692c.12.094.251.182.385.269a1 1 0 0 1 -.543 1.839c-.089 0-.158 0-.231 0a3.833 3.833 0 0 0 -.92.088 2.6 2.6 0 0 0 -1.835 1.35.812.812 0 0 0 -.049.6c.124.244.692.361 1.29.267a6.3 6.3 0 0 0 1.521-.448 2.371 2.371 0 0 1 .925-.195z" fill="#4d4d4d"/><path d="m93.883 44.711c3.737-.528 7.058-6.163 5.983-9.78s-4.766-6.041-8.526-6.417a9.352 9.352 0 0 0 -6.478 1.566c-1.827 1.352-4.07 3.314-3.576 7.078a6.311 6.311 0 0 1 .223 1.8c-.1.6-.672 1.189-1.255 1.012a1.43 1.43 0 0 1 -.652-.526c-3.017-3.757-2.616-9.662.53-13.312s9.538-5.451 14.184-4.175a17 17 0 0 1 10.756 9.032 26.462 26.462 0 0 1 1.745 14.858" fill="#f5d8af"/><g fill="#4d4d4d"><path d="m106.818 46.851a1 1 0 0 1 -.986-1.17 25.394 25.394 0 0 0 -1.666-14.266 15.911 15.911 0 0 0 -10.115-8.491c-4.309-1.179-10.339.588-13.162 3.864-2.9 3.37-3.131 8.767-.508 12.034.036.044.066.079.09.106a.363.363 0 0 0 .051-.125 2.579 2.579 0 0 0 -.1-.847c-.049-.221-.1-.444-.126-.668-.608-4.623 2.486-6.912 3.972-8.012a10.272 10.272 0 0 1 7.173-1.758c4.41.442 8.27 3.374 9.386 7.128a9.1 9.1 0 0 1 -1.461 7.124 8.085 8.085 0 0 1 -5.343 3.93 1 1 0 0 1 -.279-1.981 6.223 6.223 0 0 0 3.938-3.032 7.187 7.187 0 0 0 1.226-5.473c-.891-3-4.043-5.345-7.667-5.708a8.3 8.3 0 0 0 -5.784 1.375c-1.758 1.3-3.6 2.956-3.18 6.145.022.167.06.334.1.5a4.144 4.144 0 0 1 .123 1.594 2.374 2.374 0 0 1 -1.048 1.6 1.784 1.784 0 0 1 -1.486.215 2.346 2.346 0 0 1 -1.141-.857c-3.251-4.049-3.009-10.457.552-14.59 3.323-3.868 10.151-5.877 15.204-4.488a17.928 17.928 0 0 1 11.4 9.576 27.461 27.461 0 0 1 1.819 15.445 1 1 0 0 1 -.982.83z"/><path d="m77.075 90.555a1 1 0 0 1 -1-.928l-.354-4.9a1 1 0 0 1 1.994-.145l.354 4.9a1 1 0 0 1 -.925 1.069c-.02.003-.044.004-.069.004z"/></g></svg>