<svg height="512" width="512" xmlns="http://www.w3.org/2000/svg"><path d="M205.082 283.098c-16.569 5.947-37.208 22.238-44.079 35.25-6.872 13.012 38.333 23.569 38.333 23.569l14.088-52.819z" fill="#a63c30"/><path d="M199.337 343.769a1.87 1.87 0 0 1-.423-.049c-3.538-.826-34.713-8.391-39.742-19.422-1.033-2.264-.966-4.621.193-6.814 7.044-13.34 27.693-29.884 45.09-36.129a1.851 1.851 0 0 1 1.707.24l8.342 6.001c.624.449.906 1.237.708 1.98l-14.089 52.819a1.848 1.848 0 0 1-1.786 1.374zm5.463-58.594c-16.205 6.133-35.715 21.834-42.16 34.038-.628 1.19-.659 2.317-.098 3.549 3.411 7.484 25.312 14.371 35.472 16.928l13.292-49.835z" fill="#7d271d"/><path d="M292.409 283.098c16.569 5.947 37.207 22.238 44.079 35.25s-38.333 23.569-38.333 23.569l-14.088-52.819z" fill="#a63c30"/><path d="M298.153 343.769a1.85 1.85 0 0 1-1.787-1.375l-14.089-52.819a1.852 1.852 0 0 1 .708-1.98l8.342-6.001a1.855 1.855 0 0 1 1.707-.24c17.397 6.244 38.046 22.789 45.091 36.129 1.159 2.194 1.225 4.55.193 6.814-5.029 11.03-36.204 18.595-39.742 19.422a1.81 1.81 0 0 1-.423.05zm-11.969-53.914 13.292 49.835c10.16-2.557 32.061-9.444 35.472-16.928.562-1.232.531-2.36-.098-3.549-6.445-12.204-25.955-27.904-42.16-34.038z" fill="#7d271d"/><g fill="#e36254"><path d="M359.195 367.655c-9.466-2.664-18.16-8.268-23.4-16.153-1.431 4.526-2.977 8.951-4.759 13.193a87.46 87.46 0 0 1-1.91 4.28c4.075 7.73 11.308 12.287 19.279 15.346 3.117-3.276 5.809-7.002 8.01-10.919a54.811 54.811 0 0 0 2.78-5.747zM367.743 342.794c1.83-4.331 4.126-8.401 7.424-11.971-4.686-3.668-8.609-8.547-11.825-13.866-4.096-7.065-5.783-15.138-5.809-23.055-5.658 8.171-9.506 17.48-12.689 27.146 2.812 10.159 12.373 17.909 22.899 21.746zM386.426 314.63a39.133 39.133 0 0 0 4.704 6.831c7.306-1.753 14.979-1.461 22.077-3.181a37.184 37.184 0 0 1-5.703-6.647c-8.033-11.778-10.998-28.848-3.424-41.271-6.61-.947-13.411-.072-19.769 2.178-5.918 13.244-5.214 28.769 2.115 42.09z"/></g><path d="M363.341 316.957c3.217 5.319 7.14 10.198 11.825 13.866a33.364 33.364 0 0 1 6.608-5.51c2.994-1.912 6.139-3.079 9.356-3.851a39.133 39.133 0 0 1-4.704-6.831c-7.329-13.321-8.033-28.846-2.116-42.091a49.07 49.07 0 0 0-12.399 6.531c-5.865 4.256-10.536 9.283-14.378 14.831.025 7.917 1.712 15.99 5.808 23.055z" fill="#a63c30"/><path d="M375.166 332.674c-.401 0-.803-.129-1.141-.394-4.512-3.531-8.639-8.365-12.268-14.366l-.017-.03c-3.935-6.787-6.03-15.078-6.058-23.978a1.856 1.856 0 0 1 .329-1.06c4.238-6.12 9.083-11.117 14.813-15.276a50.718 50.718 0 0 1 12.869-6.778 1.85 1.85 0 0 1 2.308 2.5c-5.753 12.879-5.007 27.62 2.048 40.443a37.446 37.446 0 0 0 4.49 6.521 1.853 1.853 0 0 1-.976 3.003c-3.382.812-6.259 1.992-8.792 3.611a31.43 31.43 0 0 0-6.245 5.206 1.84 1.84 0 0 1-1.36.598zm-10.232-16.661c3.041 5.027 6.431 9.156 10.091 12.299a35.795 35.795 0 0 1 5.752-4.561c2.161-1.38 4.522-2.477 7.163-3.322a40.582 40.582 0 0 1-3.143-4.92c-6.878-12.501-8.191-26.72-3.785-39.635a47.362 47.362 0 0 0-8.014 4.694c-5.236 3.801-9.693 8.354-13.609 13.908.113 8.025 2.025 15.459 5.545 21.537z" fill="#7d271d"/><path d="M359.195 367.655c3.429-8.19 5.209-16.96 8.547-24.861-10.526-3.837-20.087-11.587-22.899-21.746-3.311 10.056-5.901 20.5-9.048 30.455 5.24 7.884 13.934 13.489 23.4 16.152z" fill="#a63c30"/><path d="M359.196 369.507c-.166 0-.335-.023-.502-.07-10.32-2.903-19.228-9.067-24.44-16.91a1.852 1.852 0 0 1-.223-1.583c1.426-4.513 2.766-9.226 4.062-13.784 1.563-5.498 3.179-11.183 4.993-16.692a1.852 1.852 0 0 1 3.543.085c2.424 8.757 10.555 16.42 21.749 20.501a1.85 1.85 0 0 1 1.072 2.46c-1.631 3.862-2.866 7.882-4.173 12.139-1.288 4.197-2.621 8.536-4.372 12.717a1.856 1.856 0 0 1-1.709 1.137zm-21.364-18.309c4.512 6.38 11.797 11.474 20.28 14.198 1.388-3.549 2.522-7.243 3.623-10.829 1.092-3.556 2.216-7.214 3.584-10.723-9.315-3.798-16.533-9.994-20.283-17.276-1.183 3.868-2.296 7.782-3.383 11.605-1.22 4.296-2.48 8.729-3.821 13.025z" fill="#7d271d"/><path d="M320.565 379.737c-6.578 4.228-15.096 3.234-22.832 2.086-1.928 1.716-1.533 4.464.451 6.116 8.529 7.098 20.332 10.402 31.136 7.872 7.371-1.726 13.833-5.969 19.085-11.488-7.971-3.059-15.204-7.616-19.279-15.346-2.06 4.252-4.641 8.24-8.561 10.76z" fill="#a63c30"/><path d="M321.972 398.493c-8.814 0-17.882-3.232-24.972-9.132-1.48-1.232-2.347-2.953-2.376-4.721-.027-1.607.641-3.099 1.878-4.201.41-.365.963-.529 1.503-.448 8.023 1.191 15.708 1.948 21.559-1.812 3.06-1.967 5.495-5.054 7.897-10.01a1.848 1.848 0 0 1 1.634-1.043h.031c.686 0 1.317.38 1.637.988 3.316 6.29 9.303 11.026 18.304 14.48a1.853 1.853 0 0 1 .679 3.004c-5.871 6.17-12.788 10.325-20.004 12.015-2.526.592-5.137.88-7.77.88zm-23.475-14.688a1.656 1.656 0 0 0-.17.774c.011.678.401 1.402 1.042 1.936 8.334 6.935 19.649 9.806 29.53 7.493 5.74-1.344 11.301-4.448 16.218-9.033-7.132-3.125-12.366-7.159-15.875-12.239-1.715 2.981-4.158 6.298-7.676 8.559-6.656 4.278-14.693 3.713-23.069 2.51zm22.068-4.068h.005z" fill="#7d271d"/><path d="M407.748 271.081a35.584 35.584 0 0 0-3.669-.719c-7.574 12.423-4.608 29.493 3.424 41.271a37.115 37.115 0 0 0 5.703 6.647c4.717-1.143 9.18-3.174 13.111-7.291 14.885-15.588-1.774-35.678-18.569-39.908z" fill="#a63c30"/><path d="M413.207 320.132a1.85 1.85 0 0 1-1.255-.49 39.15 39.15 0 0 1-5.986-6.978c-7.585-11.122-11.912-29.414-3.467-43.266a1.857 1.857 0 0 1 1.843-.869 38 38 0 0 1 3.859.756c11.502 2.897 21.972 12.355 24.895 22.49 1.495 5.184 1.766 12.947-5.439 20.493-3.743 3.92-8.196 6.402-14.014 7.812a1.85 1.85 0 0 1-.436.052zm-8.164-47.74c-6.743 12.319-2.758 28.302 3.99 38.198a35.419 35.419 0 0 0 4.704 5.642c4.627-1.267 8.218-3.355 11.242-6.521 4.741-4.966 6.318-10.813 4.559-16.909-2.54-8.806-12.102-17.372-22.242-19.926a33.836 33.836 0 0 0-2.253-.484z" fill="#7d271d"/><g><path d="M321.972 398.493c-8.813 0-17.882-3.233-24.971-9.132-.001 0 0 0 0 0-1.48-1.232-2.347-2.953-2.376-4.721-.027-1.607.641-3.099 1.878-4.201.41-.365.963-.529 1.503-.448 8.024 1.191 15.709 1.949 21.559-1.812 4.805-3.089 7.459-8.709 9.766-14.2 3.523-8.389 6.184-17.753 8.756-26.81 6.306-22.195 12.825-45.146 32.737-59.597 11.338-8.228 25.311-11.326 37.377-8.287 11.502 2.897 21.972 12.355 24.895 22.49 1.495 5.184 1.766 12.947-5.439 20.492-7.355 7.703-16.426 8.581-25.198 9.431-7.025.68-13.659 1.323-19.688 5.173-10.783 6.888-14.044 17.522-17.498 28.782-1.914 6.242-3.894 12.696-7.243 18.656-6.86 12.206-17.17 20.7-28.286 23.303a34.042 34.042 0 0 1-7.772.881zm-23.475-14.688a1.656 1.656 0 0 0-.17.774c.011.678.401 1.402 1.042 1.936 8.333 6.935 19.649 9.806 29.529 7.493 10.108-2.367 19.55-10.208 25.903-21.512 3.154-5.612 5.074-11.873 6.931-17.927 3.498-11.403 7.115-23.195 19.045-30.816 6.779-4.33 14.173-5.046 21.324-5.739 8.471-.82 16.473-1.596 22.878-8.303 4.741-4.966 6.318-10.813 4.559-16.909-2.54-8.806-12.102-17.372-22.242-19.926-11.016-2.774-23.838.101-34.299 7.693-18.874 13.699-25.216 36.023-31.349 57.613-2.603 9.162-5.294 18.636-8.905 27.232-2.421 5.764-5.481 12.219-11.177 15.881-6.656 4.278-14.693 3.713-23.069 2.51z" fill="#7d271d"/></g><g><path d="M218.197 370.036c-28.335 12.036-72.609 28.884-72.609 28.884s-17.293-18.598-22.575-12.87c-5.282 5.727 1.645 38.884 10.352 42.701s83.872-1.122 83.872-1.122z" fill="#a63c30"/><path d="M153.728 432.047c-10.265 0-18.416-.421-21.106-1.601-5.608-2.459-9.77-13.668-11.793-23.338-.857-4.095-3.331-17.808.824-22.314 1.018-1.103 2.412-1.688 4.033-1.691h.014c6.649 0 17.136 10.288 20.382 13.647 7.152-2.733 45.95-17.61 71.393-28.419a1.851 1.851 0 0 1 2.574 1.735l-.96 57.593a1.85 1.85 0 0 1-1.729 1.816c-5.392.356-40.078 2.572-63.632 2.572zM125.7 386.806h-.008c-.762.002-1.104.268-1.318.499-1.544 1.675-2.042 8.918.078 19.045 2.2 10.509 6.261 19.217 9.656 20.706 5.97 2.617 51.236.771 81.307-1.163l.884-53.044c-28.088 11.82-69.623 27.638-70.052 27.802a1.85 1.85 0 0 1-2.014-.47c-4.814-5.173-14.098-13.375-18.533-13.375z" fill="#7d271d"/></g><g><path d="M283.982 370.036c28.335 12.036 72.61 28.884 72.61 28.884s17.293-18.598 22.575-12.87c5.282 5.727-1.645 38.884-10.352 42.701s-83.872-1.122-83.872-1.122z" fill="#a63c30"/><path d="M348.452 432.047c-23.554 0-58.239-2.217-63.63-2.571a1.85 1.85 0 0 1-1.729-1.816l-.961-57.593a1.851 1.851 0 0 1 2.575-1.735c25.444 10.809 64.242 25.686 71.394 28.419 3.246-3.359 13.733-13.647 20.382-13.647h.013c1.62.003 3.015.588 4.033 1.691 4.155 4.506 1.681 18.219.824 22.314-2.024 9.67-6.185 20.879-11.793 23.338-2.692 1.179-10.846 1.6-21.108 1.6zm-61.687-6.155c30.07 1.935 75.336 3.78 81.307 1.163 3.395-1.489 7.456-10.197 9.656-20.706 2.12-10.126 1.622-17.37.078-19.045-.213-.231-.556-.497-1.318-.499h-.008c-4.435 0-13.719 8.201-18.532 13.375a1.853 1.853 0 0 1-2.014.47c-.429-.164-41.964-15.982-70.053-27.802z" fill="#7d271d"/></g><path d="M326.122 397.246c-10.32 28.093-54.461 35.657-75.492 35.657s-63.379-7.564-73.699-35.657c-8.474-23.052 6.094-61.744 21.38-98.173.566-1.344 1.127-2.682 1.693-4.015 2.782-6.586 5.565-13.07 8.204-19.354h86.637c2.528 6.014 5.184 12.214 7.844 18.508a1789.48 1789.48 0 0 1 1.523 3.613c15.477 36.788 30.479 76.105 21.91 99.421z" fill="#e36254"/><path d="M302.689 294.212c-35.635 18.989-80.141 16.487-104.378 4.861.566-1.344 1.127-2.682 1.693-4.015 2.782-6.586 5.565-13.07 8.204-19.354h86.637c2.528 6.014 5.183 12.213 7.844 18.508z" fill="#a63c30"/><g><path d="M250.63 434.753c-21.407 0-64.723-7.706-75.436-36.869-8.863-24.109 6.555-64.373 23.105-103.547 1.186-2.809 2.373-5.599 3.549-8.364 1.58-3.716 3.14-7.384 4.653-10.986a1.85 1.85 0 0 1 1.707-1.135h86.637c.745 0 1.418.447 1.707 1.134 1.513 3.599 3.071 7.266 4.649 10.978 1.562 3.675 3.143 7.395 4.719 11.142 15.927 37.858 30.739 76.827 21.941 100.778-4.677 12.733-16.724 22.922-34.838 29.465-15.111 5.459-31.806 7.404-42.393 7.404zm-41.192-157.199c-1.365 3.242-2.766 6.536-4.182 9.867-1.175 2.762-2.36 5.55-3.546 8.356-16.263 38.493-31.438 77.986-23.04 100.829 5.433 14.789 20.26 22.991 31.741 27.267 17.881 6.659 35.305 7.177 40.22 7.177 24.561 0 64.471-9.173 73.755-34.443 8.337-22.686-6.922-62.515-21.879-98.065a3206.208 3206.208 0 0 0-4.713-11.129 3122.499 3122.499 0 0 1-4.177-9.858h-84.179z" fill="#7d271d"/></g><g><path d="M217.937 87.799c-11.236-13.395-17.985-19.38-30.838-31.585-7.052-6.697-15.408-14.393-26.063-15.526-4.49-.477-8.375 2.859-4.879 6.926 1.429 1.663 3.63 2.613 5.742 3.5-3.342-.408-5.565-.369-8.814.296s-6.332 2.144-8.362 4.483c-1.072 1.236-1.839 2.945-1.059 4.399.613 1.143 2.047 1.799 3.438 1.929 1.391.131 2.765-.174 4.105-.476-14.217 25.804-15.784 77.363-4.147 93.232z" fill="#ffe8db"/><path d="M147.059 156.827c-.57 0-1.132-.262-1.494-.756-11.908-16.238-10.348-65.243 2.356-91.969a8.746 8.746 0 0 1-.994-.038c-2.171-.204-4.047-1.315-4.896-2.898-1.037-1.934-.554-4.36 1.292-6.487 2.151-2.479 5.486-4.285 9.389-5.083a32.137 32.137 0 0 1 2.379-.404 8.492 8.492 0 0 1-.338-.371c-1.85-2.152-2.297-4.555-1.228-6.591 1.249-2.38 4.346-3.74 7.708-3.382 11.562 1.229 20.567 9.781 27.142 16.025 1.599 1.519 3.104 2.941 4.535 4.293 9.961 9.416 16.541 15.636 26.447 27.445a1.85 1.85 0 1 1-2.837 2.379c-9.768-11.645-15.935-17.475-26.153-27.133a2254.97 2254.97 0 0 1-4.541-4.299c-6.191-5.879-14.67-13.931-24.984-15.028-2.025-.218-3.591.572-4.037 1.421-.424.808.178 1.782.758 2.456 1.179 1.372 3.238 2.237 5.055 3a1.851 1.851 0 0 1-.942 3.544c-3.268-.399-5.265-.333-8.219.272-3.11.637-5.715 2.016-7.335 3.883-.589.679-1.158 1.691-.826 2.311.254.473 1.086.878 1.979.962 1.113.103 2.339-.172 3.524-.439a1.852 1.852 0 0 1 2.029 2.7c-6.466 11.735-10.78 30.248-11.54 49.521-.735 18.623 2.049 34.61 7.264 41.722a1.85 1.85 0 0 1-1.493 2.944z" fill="#e0a58f"/><path d="M168.452 68.757c10.624-5.104 32.036 27.044 34.63 33.093s-34.268 34.095-41.188 30.386c-6.92-3.707-2.825-58.972 6.558-63.479z" fill="#a63c30"/><path d="M163.427 134.391c-.929 0-1.74-.165-2.407-.522-3.218-1.725-4.701-9.329-4.408-22.602.336-15.191 3.63-40.617 11.039-44.179 2.046-.983 4.436-.974 7.101.027 12.232 4.59 28.07 29.43 30.032 34.006.76 1.772.694 5.113-8.605 13.638-8.16 7.479-24.784 19.632-32.752 19.632zm5.826-63.965c-4.193 2.014-8.359 20.695-8.916 39.976-.405 14.023 1.463 19.667 2.431 20.203 1.26.678 7.282-1.011 18.056-8.424 5.423-3.732 10.774-8.062 14.68-11.881 4.924-4.813 5.892-7.207 5.857-7.762-2.265-5.214-17.563-28.073-27.911-31.956-1.708-.641-3.081-.693-4.197-.156zm-.801-1.669h.005z" fill="#7d271d"/><path d="M291.127 87.799c11.236-13.395 17.985-19.38 30.838-31.585 7.052-6.697 15.408-14.393 26.063-15.526 4.49-.477 8.374 2.859 4.879 6.926-1.429 1.663-3.63 2.613-5.742 3.5 3.342-.408 5.565-.369 8.814.296s6.332 2.144 8.362 4.483c1.072 1.236 1.839 2.945 1.059 4.399-.612 1.143-2.047 1.799-3.438 1.929-1.391.131-2.765-.174-4.105-.476 14.217 25.804 15.784 77.363 4.147 93.232z" fill="#ffe8db"/><path d="M362.004 156.827a1.85 1.85 0 0 1-1.491-2.946c5.216-7.113 7.999-23.1 7.264-41.722-.76-19.274-5.075-37.786-11.54-49.521a1.85 1.85 0 0 1 2.03-2.7c1.185.267 2.41.545 3.525.439.893-.084 1.725-.488 1.978-.96.333-.621-.237-1.633-.825-2.312-1.62-1.868-4.225-3.246-7.335-3.883-2.954-.604-4.951-.671-8.219-.272a1.852 1.852 0 0 1-.942-3.544c1.817-.764 3.876-1.628 5.054-3 .579-.675 1.182-1.648.758-2.456-.446-.85-2.009-1.636-4.038-1.422-10.314 1.096-18.793 9.148-24.984 15.028a2254.97 2254.97 0 0 1-4.541 4.299c-10.218 9.659-16.386 15.489-26.154 27.133a1.852 1.852 0 0 1-2.837-2.379c9.906-11.809 16.486-18.029 26.447-27.445 1.431-1.352 2.936-2.774 4.535-4.293 6.575-6.244 15.58-14.795 27.142-16.025 3.359-.357 6.458 1.002 7.707 3.383 1.069 2.036.621 4.438-1.228 6.591a8.492 8.492 0 0 1-.338.371c.755.097 1.535.232 2.378.404 3.903.799 7.237 2.604 9.389 5.083 1.847 2.128 2.33 4.553 1.292 6.488-.848 1.583-2.723 2.693-4.895 2.898a9.02 9.02 0 0 1-.995.038c12.704 26.726 14.264 75.731 2.356 91.969a1.842 1.842 0 0 1-1.493.756z" fill="#e0a58f"/><path d="M340.612 68.757c-10.624-5.104-32.036 27.044-34.63 33.093s34.268 34.095 41.188 30.386c6.919-3.707 2.825-58.972-6.558-63.479z" fill="#a63c30"/><path d="M345.637 134.391c-7.967.002-24.592-12.153-32.752-19.633-9.299-8.524-9.365-11.866-8.605-13.638 1.962-4.576 17.799-29.416 30.032-34.006 2.665-1 5.055-1.01 7.101-.027 7.41 3.56 10.703 28.987 11.039 44.179.293 13.273-1.19 20.877-4.408 22.602-.666.358-1.478.523-2.407.523zm-37.935-31.853c-.036.555.933 2.949 5.857 7.762 3.906 3.819 9.257 8.149 14.681 11.881 10.772 7.412 16.793 9.101 18.056 8.424.968-.536 2.836-6.179 2.432-20.203-.557-19.282-4.723-37.962-8.916-39.976-1.116-.537-2.488-.485-4.197.156-10.35 3.883-25.649 26.742-27.913 31.956z" fill="#7d271d"/><path d="M334.465 272.916c-29.14 11.351-62.829 17.112-81.168 16.059-18.418 1.058-52.319-4.755-81.543-16.207a189.893 189.893 0 0 1-11.806-5.073c-19.608-9.241-35.44-21.259-40.216-35.604-1.291-3.851-1.777-7.876-1.322-12.055 1.809-16.715 50.287-109.329 61.972-121.754 11.684-12.425 39.856-16.746 72.916-16.746 33.059 0 65.093 4.321 76.777 16.746 11.685 12.425 56.296 105.039 58.105 121.754 2.475 22.862-23.115 40.958-53.715 52.88z" fill="#e36254"/><path d="M334.571 269.229a65.33 65.33 0 0 1-.106 3.687c-29.14 11.351-62.829 17.112-81.168 16.059-18.418 1.058-52.319-4.755-81.543-16.207a60.319 60.319 0 0 1-.1-3.539c0-39.29 36.471-71.144 81.458-71.144s81.459 31.854 81.459 71.144z" fill="#ffe8db"/><path d="M321.258 182.825c0 12.896-10.452 23.353-23.348 23.353-.137 0-.28 0-.418-.005-7.035-.122-13.309-3.354-17.503-8.379a23.218 23.218 0 0 1-5.432-14.969c0-12.896 10.452-23.353 23.353-23.353 12.897 0 23.348 10.458 23.348 23.353z" fill="#fff"/><path d="M297.91 208.03c-.16 0-.327-.001-.487-.007a25.145 25.145 0 0 1-18.855-9.042 25.186 25.186 0 0 1-5.862-16.156c0-13.898 11.306-25.204 25.204-25.204 13.895 0 25.199 11.307 25.199 25.204s-11.303 25.205-25.199 25.205zm0-46.706c-11.856 0-21.502 9.646-21.502 21.502 0 5.04 1.775 9.933 5 13.78a21.466 21.466 0 0 0 16.116 7.717c.152.005.268.006.385.005 11.853 0 21.497-9.646 21.497-21.502s-9.642-21.502-21.496-21.502z"/><path d="M307.083 192.896c0 6.183-4.02 11.436-9.59 13.277-7.035-.122-13.309-3.354-17.503-8.379a13.795 13.795 0 0 1-.889-4.898c0-7.733 6.263-13.996 13.991-13.996 3.406 0 6.533 1.222 8.955 3.248a8.075 8.075 0 0 0-.608.36c-3.592 2.274-5.348 5.956-3.914 8.22 1.433 2.259 5.512 2.248 9.109-.032.084-.053.169-.106.249-.164.131.767.2 1.56.2 2.364z"/><path d="M230.956 182.825a23.212 23.212 0 0 1-5.433 14.969 23.281 23.281 0 0 1-17.503 8.379c-.137.005-.28.005-.418.005-12.896 0-23.353-10.457-23.353-23.353s10.457-23.353 23.353-23.353c12.897 0 23.354 10.458 23.354 23.353z" fill="#fff"/><path d="M207.603 208.03c-13.898 0-25.205-11.307-25.205-25.204s11.307-25.204 25.205-25.204 25.205 11.307 25.205 25.204a25.194 25.194 0 0 1-5.865 16.159 25.155 25.155 0 0 1-19.34 9.045zm0-46.706c-11.856 0-21.502 9.646-21.502 21.502s9.646 21.502 21.502 21.502c.111-.001.234 0 .348-.004a21.487 21.487 0 0 0 16.152-7.715 21.489 21.489 0 0 0 5.002-13.783c0-11.857-9.646-21.502-21.502-21.502z"/><path d="M226.412 192.896c0 1.724-.312 3.375-.889 4.898a23.281 23.281 0 0 1-17.503 8.379c-5.57-1.841-9.59-7.093-9.59-13.277 0-7.733 6.263-13.996 13.991-13.996a13.92 13.92 0 0 1 8.955 3.248 8.075 8.075 0 0 0-.608.36c-3.597 2.274-5.348 5.956-3.914 8.22 1.434 2.259 5.512 2.248 9.103-.032.085-.053.169-.111.254-.164.133.767.201 1.56.201 2.364zM241.635 203.335h21.6c2.629 0 4.06 3.07 2.371 5.084l-10.242 12.211a4.071 4.071 0 0 1-6.287-.059l-9.849-12.197c-1.635-2.024-.194-5.039 2.407-5.039z"/><g><path d="M233.479 129.908c.951 3.923-4.22 8.543-11.549 10.32s-14.041.037-14.992-3.885c-.951-3.923 4.219-8.543 11.549-10.32 7.329-1.777 14.041-.037 14.992 3.885z" fill="#ffe8db"/><path d="M216.351 142.773c-5.784 0-10.301-2.235-11.212-5.995-.629-2.592.52-5.355 3.235-7.781 2.405-2.149 5.841-3.844 9.677-4.774 8.448-2.049 16.017.257 17.228 5.248 1.21 4.991-4.461 10.506-12.911 12.555-2.087.507-4.121.747-6.017.747zm7.699-15.585c-1.579 0-3.316.195-5.128.635-3.206.777-6.152 2.212-8.081 3.936-1.625 1.451-2.391 2.963-2.104 4.148.607 2.503 6.191 4.114 12.757 2.523 6.565-1.592 10.792-5.581 10.185-8.084-.439-1.814-3.487-3.158-7.629-3.158z" fill="#e0a58f"/></g><g><path d="M296.342 140.889c-1.513 3.742-8.407 4.484-15.399 1.656-6.991-2.827-11.433-8.152-9.919-11.894 1.513-3.742 8.407-4.484 15.399-1.656 6.991 2.827 11.432 8.152 9.919 11.894z" fill="#ffe8db"/><path d="M289.052 146.102c-2.691 0-5.729-.598-8.803-1.841-8.061-3.26-12.867-9.543-10.942-14.304 1-2.473 3.544-4.049 7.164-4.438 3.206-.345 6.987.28 10.646 1.76 3.659 1.479 6.811 3.658 8.876 6.134 2.331 2.796 3.065 5.697 2.065 8.17-1.191 2.946-4.64 4.519-9.006 4.519zm-10.823-16.972c-.471 0-.926.023-1.363.07-2.165.233-3.67 1.015-4.126 2.145-.966 2.388 2.634 6.951 8.897 9.484 6.263 2.532 12.023 1.754 12.988-.634.457-1.13-.081-2.738-1.476-4.41-1.657-1.987-4.362-3.836-7.421-5.073-2.539-1.028-5.197-1.582-7.499-1.582z" fill="#e0a58f"/></g><path d="M167.237 206.274c-7.141 19.539-9.648 40.75-7.289 61.422-19.608-9.241-35.44-21.259-40.216-35.604a151.692 151.692 0 0 1 24.109-29.954c4.687-4.507 10.188-8.929 16.683-9.267 2.671-.138 5.617.608 7.173 2.787 2.153 3.004.809 7.146-.46 10.616zM339.255 206.274c7.141 19.539 9.648 40.75 7.289 61.422 19.608-9.241 35.44-21.259 40.216-35.604a151.661 151.661 0 0 0-24.11-29.954c-4.686-4.507-10.188-8.929-16.683-9.267-2.671-.138-5.617.608-7.173 2.787-2.152 3.004-.808 7.146.461 10.616z" fill="#ffe8db"/><g><path d="M248.866 290.945c-18.495.001-49.478-5.36-77.787-16.453a193.542 193.542 0 0 1-11.92-5.122c-22.476-10.592-36.717-23.281-41.183-36.693-1.404-4.189-1.878-8.51-1.407-12.84 1.847-17.061 50.409-110.003 62.464-122.822 10.814-11.499 35.8-17.33 74.264-17.33 23.091 0 63.946 2.252 78.126 17.33 12.44 13.229 56.799 106.207 58.597 122.823 2.239 20.678-17.252 40.141-54.883 54.803-30.617 11.926-64.304 17.166-81.84 16.188-1.38.078-2.862.116-4.431.116zm4.431-207.557c-37.402 0-61.481 5.438-71.567 16.164-11.435 12.159-59.741 104.618-61.48 120.685-.413 3.795.003 7.586 1.237 11.267 4.14 12.432 17.712 24.367 39.25 34.517a188.827 188.827 0 0 0 11.691 5.023c30.279 11.865 63.55 17.068 80.762 16.083.07-.004.141-.004.212 0 17.104.978 50.204-4.177 80.39-15.936 20.807-8.107 55.302-25.507 52.546-50.955-1.698-15.689-45.85-108.176-57.613-120.685-9.801-10.423-36.589-16.163-75.428-16.163zm81.168 189.528h.005z" fill="#a63c30"/></g><g><path d="M251.941 253.139c-12.934 0-25.783-6.398-33.57-16.726a1.853 1.853 0 0 1 2.957-2.229c7.101 9.418 18.819 15.252 30.613 15.252h.161c11.849-.053 23.587-6.003 30.636-15.528a1.851 1.851 0 1 1 2.977 2.203c-7.729 10.445-20.602 16.97-33.596 17.028h-.178z"/><path d="M278.544 237.121a1.851 1.851 0 0 1-.97-3.43c3.678-2.256 8.645-2.297 12.36-.102a1.85 1.85 0 1 1-1.885 3.188c-2.566-1.518-5.998-1.489-8.539.07a1.845 1.845 0 0 1-.966.274zM214.184 237.924a1.851 1.851 0 0 1-1.21-3.253c3.733-3.222 9.497-3.696 13.706-1.128a1.853 1.853 0 0 1-1.929 3.161c-2.827-1.725-6.851-1.394-9.358.77-.35.302-.78.45-1.209.45z"/></g></g><g><path d="m147.306 317.923 7.796-11.736s17.102 6.317 35.497 3.158c18.395-3.158 51.914-8.914 59.801 18.281s-35.134 34.457-35.134 34.457z" fill="#f0cebb"/><path d="M215.266 363.935c-.356 0-.707-.103-1.009-.299l-67.96-44.161a1.851 1.851 0 0 1-.533-2.577l7.796-11.736a1.851 1.851 0 0 1 2.182-.713c.167.061 16.88 6.103 34.544 3.07 18.714-3.213 53.544-9.192 61.892 19.591 1.919 6.619 1.18 12.704-2.199 18.086-8.96 14.271-33.369 18.538-34.404 18.713a1.895 1.895 0 0 1-.309.026zm-65.383-46.546 65.769 42.737c3.979-.794 23.908-5.29 31.195-16.905 2.79-4.448 3.387-9.521 1.775-15.08-3.234-11.15-11.224-17.431-24.427-19.204-11.387-1.528-24.041.645-33.281 2.231-15.849 2.721-30.538-1.325-35.059-2.773z" fill="#c7a18c"/><path d="m140.643 314.073 12.704 129.103 82.594 25.339V334.08z" fill="#3f9e53"/><path d="M235.941 470.366c-.182 0-.365-.027-.543-.082l-82.594-25.339a1.852 1.852 0 0 1-1.3-1.588L138.8 314.255a1.849 1.849 0 0 1 2.223-1.993l95.298 20.006c.857.18 1.471.936 1.471 1.812v134.434a1.851 1.851 0 0 1-1.851 1.852zm-80.872-28.599 79.021 24.243V335.583l-91.357-19.179z" fill="#30753e"/><path d="m353.494 317.923-7.796-11.736s-17.102 6.317-35.497 3.158c-18.396-3.158-51.914-8.914-59.801 18.281s35.134 34.457 35.134 34.457z" fill="#f0cebb"/><path d="M285.534 363.935c-.103 0-.206-.009-.308-.026-1.035-.175-25.444-4.441-34.404-18.713-3.379-5.382-4.119-11.466-2.2-18.086 8.347-28.783 43.179-22.803 61.89-19.591 17.667 3.033 34.378-3.009 34.545-3.07a1.851 1.851 0 0 1 2.182.713l7.796 11.736a1.851 1.851 0 0 1-.533 2.577l-67.96 44.161a1.848 1.848 0 0 1-1.008.299zm-.586-55.517c-2.812 0-5.613.154-8.343.52-13.203 1.772-21.193 8.054-24.427 19.204-1.612 5.559-1.014 10.632 1.775 15.08 7.286 11.615 27.216 16.111 31.195 16.905l65.769-42.737-5.973-8.992c-4.518 1.448-19.208 5.494-35.056 2.773-7.027-1.208-16.027-2.753-24.94-2.753z" fill="#c7a18c"/><g><path d="m360.158 314.073-12.705 129.103-82.594 25.339V334.08z" fill="#3f9e53"/><path d="M264.859 470.366a1.849 1.849 0 0 1-1.851-1.852V334.08c0-.876.614-1.632 1.471-1.812l95.298-20.006a1.853 1.853 0 0 1 2.222 1.993l-12.704 129.102a1.85 1.85 0 0 1-1.3 1.588l-82.594 25.339c-.177.055-.36.082-.542.082zm1.851-134.783V466.01l79.021-24.243 12.336-125.363z" fill="#30753e"/></g><g><path d="M264.859 468.522a31.851 31.851 0 0 1-28.918 0V333.79a31.851 31.851 0 0 0 28.918 0z" fill="#3f9e53"/><path d="M250.4 473.833a33.713 33.713 0 0 1-15.3-3.661 1.851 1.851 0 0 1-1.011-1.649V333.79a1.853 1.853 0 0 1 2.692-1.65 30.092 30.092 0 0 0 27.237 0 1.852 1.852 0 0 1 2.692 1.65v134.732c0 .696-.391 1.333-1.011 1.649a33.681 33.681 0 0 1-15.299 3.662zm-12.608-6.468a30.11 30.11 0 0 0 25.216 0v-130.7a33.836 33.836 0 0 1-25.216 0zm27.067 1.158h.005z" fill="#30753e"/></g><g><path d="M235.941 333.79c0-4.601 7.886-10.939 14.459-10.746 7.887.231 14.459 4.831 14.459 10.746-2.629 1.314-9.126 3.286-15.116 3.286-7.311.001-13.802-3.286-13.802-3.286z" fill="#22522b"/><path d="M249.743 338.928c-7.665 0-14.358-3.344-14.639-3.486a1.854 1.854 0 0 1-1.015-1.652c0-2.26 1.321-4.788 3.72-7.117 3.551-3.45 8.508-5.603 12.645-5.48 9.116.267 16.256 5.8 16.256 12.597 0 .701-.396 1.342-1.023 1.656-2.692 1.347-9.4 3.482-15.944 3.482zm-11.734-6.239c2.135.888 6.771 2.537 11.734 2.537 4.82 0 10.198-1.401 13.15-2.586-.835-4.185-6.144-7.558-12.548-7.745-3.111-.075-7.131 1.691-9.957 4.435-1.174 1.141-2.007 2.329-2.379 3.359zm-2.068 1.101h.005z" fill="#30753e"/></g></g><g><path d="M364.629 379.14c-3.474 2.891-9.504 3.407-12.634 3.555-3.129.148-6.372-.382-9.021-2.055-2.648-1.673-4.604-4.617-4.571-7.749.033-3.133 2.37-6.239 5.474-6.662-3.188-1.255-5.679-4.25-6.131-7.646s1.264-7.033 4.272-8.673 7.125-1.038 9.399 1.525c-1.129-2.454-.386-5.567 1.572-7.429 1.957-1.862 4.962-2.547 7.55-1.774 7.864 2.348 11.173 8.098 12.145 12.192 2.103 8.854-2.553 20.138-8.055 24.716z" fill="#a63c30"/><path d="M351.008 384.57c-3.46 0-6.562-.81-9.023-2.366-3.389-2.141-5.471-5.717-5.433-9.334a8.944 8.944 0 0 1 3.375-6.877c-2.166-1.827-3.647-4.395-4.016-7.167-.561-4.225 1.586-8.561 5.222-10.543 2.474-1.35 5.445-1.482 8.001-.546.27-1.891 1.159-3.724 2.579-5.075 2.43-2.313 6.102-3.178 9.356-2.207 10.188 3.041 12.845 11.131 13.416 13.538 2.296 9.667-2.631 21.542-8.673 26.569-2.857 2.378-7.349 3.68-13.73 3.981-.361.018-.719.027-1.074.027zm-5.288-33.733c-.974 0-1.951.226-2.815.697-2.285 1.245-3.682 4.107-3.324 6.804.353 2.656 2.352 5.135 4.974 6.167a1.852 1.852 0 0 1-.428 3.557c-2.075.283-3.848 2.503-3.872 4.847-.024 2.306 1.431 4.726 3.708 6.165 2.612 1.651 5.762 1.876 7.945 1.772 5.47-.258 9.352-1.311 11.537-3.129 5.072-4.22 9.331-14.896 7.438-22.867-.456-1.919-2.586-8.372-10.873-10.846-1.974-.589-4.282-.051-5.745 1.342-1.431 1.361-1.932 3.646-1.165 5.314a1.85 1.85 0 0 1-3.067 2.002c-1.055-1.187-2.678-1.825-4.313-1.825zm18.909 28.303h.005z" fill="#7d271d"/></g><g><path d="M138.368 379.14c3.474 2.891 9.505 3.407 12.634 3.555s6.372-.382 9.021-2.055c2.648-1.673 4.604-4.617 4.571-7.749-.033-3.133-2.37-6.239-5.474-6.662 3.188-1.255 5.679-4.25 6.131-7.646s-1.264-7.033-4.272-8.673-7.125-1.038-9.399 1.525c1.128-2.454.386-5.567-1.572-7.429-1.957-1.862-4.962-2.547-7.55-1.774-7.864 2.348-11.173 8.098-12.145 12.192-2.104 8.854 2.553 20.138 8.055 24.716z" fill="#a63c30"/><path d="M151.988 384.57a22.9 22.9 0 0 1-1.074-.026c-6.382-.301-10.873-1.603-13.73-3.981-6.042-5.027-10.968-16.902-8.672-26.569.571-2.407 3.228-10.497 13.417-13.538 3.254-.971 6.926-.105 9.355 2.207 1.42 1.351 2.309 3.184 2.579 5.075 2.554-.936 5.526-.804 8.002.546 3.635 1.983 5.783 6.318 5.221 10.543-.369 2.772-1.85 5.34-4.016 7.167a8.95 8.95 0 0 1 3.375 6.877c.038 3.616-2.044 7.193-5.434 9.334-2.461 1.554-5.563 2.365-9.023 2.365zm-12.436-6.853c2.185 1.818 6.067 2.87 11.537 3.129 2.187.104 5.332-.12 7.945-1.772 2.276-1.439 3.732-3.858 3.708-6.165-.025-2.345-1.798-4.564-3.873-4.847a1.85 1.85 0 0 1-.428-3.557c2.622-1.032 4.621-3.51 4.974-6.167.359-2.697-1.039-5.558-3.324-6.803-2.315-1.262-5.446-.768-7.128 1.128a1.853 1.853 0 0 1-3.068-2.002c.767-1.668.266-3.953-1.165-5.314-1.463-1.391-3.77-1.931-5.744-1.342-8.288 2.474-10.418 8.927-10.874 10.846-1.891 7.97 2.368 18.645 7.44 22.866z" fill="#7d271d"/></g></svg>