<svg id="Capa_1" enable-background="new 0 0 512 512" viewBox="0 0 512 512" xmlns="http://www.w3.org/2000/svg"><g><g><g><g><g><g><g><path d="m106.312 349.763v128.654c0 14.406 11.678 26.084 26.084 26.084 14.406 0 26.084-11.678 26.084-26.084v-128.654z" fill="#ffbd86"/><path d="m137.792 349.763v107.891c0 14.406-11.678 26.084-26.084 26.084-1.689 0-3.339-.166-4.939-.473 2.273 12.088 12.879 21.236 25.627 21.236 14.406 0 26.084-11.678 26.084-26.084v-128.654z" fill="#f6a96c"/><g><path d="m233.415 136.425c-5.518 5.529-12.857 8.575-20.669 8.575-8.34 0-16.301-3.583-21.842-9.829-1.254-1.413-3.055-2.224-4.941-2.224-1.888 0-3.688.811-4.941 2.224-5.542 6.247-13.503 9.829-21.842 9.829-8.34 0-16.301-3.583-21.842-9.829-1.254-1.413-3.055-2.224-4.941-2.224-1.888 0-3.688.811-4.941 2.224-5.542 6.247-13.503 9.829-21.843 9.829-8.339 0-16.3-3.583-21.842-9.829-1.253-1.413-3.054-2.224-4.94-2.224-1.888 0-3.688.811-4.941 2.224-5.543 6.246-13.504 9.829-21.844 9.829-7.81 0-15.15-3.045-20.669-8.574l-.708-.709v186.95c0 15.517 12.579 28.096 28.096 28.096h147.261c15.517 0 28.096-12.579 28.096-28.096v-186.951z" fill="#62dbfb"/></g><g><path d="m233.415 136.425c-5.518 5.529-12.857 8.575-20.669 8.575-7.691 0-15.055-3.053-20.5-8.426v144.329c0 15.517-12.579 28.096-28.096 28.096h-133.481v13.667c0 15.517 12.579 28.096 28.096 28.096h147.261c15.517 0 28.096-12.579 28.096-28.096v-186.95z" fill="#01d0fb"/></g><g><path d="m233.415 136.425c-5.518 5.529-12.857 8.575-20.669 8.575-8.34 0-16.301-3.583-21.842-9.829-1.254-1.413-3.055-2.224-4.941-2.224-1.888 0-3.688.811-4.941 2.224-5.542 6.247-13.503 9.829-21.842 9.829-8.34 0-16.301-3.583-21.842-9.829-1.254-1.413-3.055-2.224-4.941-2.224-1.888 0-3.688.811-4.941 2.224-5.542 6.247-13.503 9.829-21.843 9.829-8.339 0-16.3-3.583-21.842-9.829-1.253-1.413-3.054-2.224-4.94-2.224-1.888 0-3.688.811-4.941 2.224-5.543 6.246-13.504 9.829-21.844 9.829-7.81 0-15.15-3.045-20.669-8.574l-.708-.709v101.415c5.467 5.478 13.026 8.868 21.377 8.868 8.99 0 17.059-3.931 22.59-10.166 2.232-2.516 6.154-2.516 8.386 0 5.531 6.235 13.6 10.166 22.59 10.166 8.991 0 17.059-3.931 22.59-10.166 2.232-2.516 6.155-2.516 8.386 0 5.531 6.235 13.6 10.166 22.59 10.166 8.991 0 17.059-3.931 22.59-10.166 2.232-2.516 6.155-2.516 8.386 0 5.531 6.235 13.6 10.166 22.59 10.166 8.351 0 15.91-3.39 21.377-8.868v-101.416z" fill="#fe99a0"/></g><g><path d="m192.246 137.965v100c5.384 4.985 12.584 8.035 20.5 8.035 8.351 0 15.91-3.39 21.377-8.868v-100c-5.467 5.478-13.026 8.868-21.377 8.868-7.917 0-15.116-3.05-20.5-8.035z" fill="#fd8087"/></g><g><path d="m30.669 137.132c5.467 5.478 13.026 8.868 21.377 8.868 8.99 0 17.059-3.931 22.59-10.166 2.232-2.516 6.155-2.516 8.387 0 5.531 6.235 13.6 10.166 22.59 10.166 8.991 0 17.059-3.931 22.59-10.165 2.232-2.516 6.155-2.516 8.387 0 5.531 6.235 13.6 10.165 22.59 10.165 8.991 0 17.059-3.931 22.59-10.166 2.232-2.516 6.155-2.516 8.386 0 5.531 6.235 13.6 10.166 22.59 10.166 8.351 0 15.91-3.39 21.377-8.868v-27.905c0-56.182-45.545-101.727-101.727-101.727-56.182 0-101.727 45.545-101.727 101.727z" fill="#ffe177"/></g><g><path d="m30.669 137.132c5.467 5.478 13.026 8.868 21.377 8.868 8.99 0 17.059-3.931 22.59-10.166 2.232-2.516 6.155-2.516 8.387 0 5.531 6.235 13.6 10.166 22.59 10.166 8.991 0 17.059-3.931 22.59-10.165 2.232-2.516 6.155-2.516 8.387 0 5.531 6.235 13.6 10.165 22.59 10.165 8.991 0 17.059-3.931 22.59-10.166 2.232-2.516 6.155-2.516 8.386 0 5.531 6.235 13.6 10.166 22.59 10.166 8.351 0 15.91-3.39 21.377-8.868v-27.905c0-56.182-45.545-101.727-101.727-101.727-56.182 0-101.727 45.545-101.727 101.727z" fill="#ffe177"/></g><path d="m192.246 26.969v110.995c5.384 4.985 12.584 8.035 20.5 8.035 8.351 0 15.91-3.39 21.377-8.868v-27.905c0-33.808-16.498-63.759-41.877-82.257z" fill="#ffd15b"/></g></g><g><path d="m353.52 349.763v128.654c0 14.406 11.678 26.084 26.084 26.084 14.406 0 26.084-11.678 26.084-26.084v-128.654z" fill="#ffbd86"/><path d="m385 349.763v107.891c0 14.406-11.678 26.084-26.084 26.084-1.689 0-3.339-.166-4.939-.473 2.273 12.088 12.879 21.236 25.627 21.236 14.406 0 26.084-11.678 26.084-26.084v-128.654z" fill="#f6a96c"/><path d="m305.973 350.763h147.261c15.517 0 28.096-12.579 28.096-28.096v-213.44c.001-56.182-45.544-101.727-101.726-101.727-56.182 0-101.727 45.545-101.727 101.727v213.44c0 15.517 12.579 28.096 28.096 28.096z" fill="#fe99a0"/><path d="m453.235 350.763c15.517 0 28.096-12.579 28.096-28.096v-213.44c0-33.809-16.498-63.76-41.877-82.258v253.935c0 15.517-12.579 28.096-28.096 28.096h-133.48v13.667c0 15.517 12.579 28.096 28.096 28.096z" fill="#fd8087"/><g><path d="m360.025 104.324v179.578c0 13.309-10.789 24.097-24.097 24.097-13.309 0-24.097-10.789-24.097-24.097v-179.578c0-13.309 10.789-24.097 24.097-24.097 13.308 0 24.097 10.789 24.097 24.097z" fill="#fd8087"/><path d="m447.377 104.324v179.578c0 13.309-10.789 24.097-24.097 24.097-13.309 0-24.097-10.789-24.097-24.097v-179.578c0-13.309 10.789-24.097 24.097-24.097 13.309 0 24.097 10.789 24.097 24.097z" fill="#fd8087"/><g fill="#fe646f"><path d="m425.194 80.31v188.593c0 13.308-10.789 24.097-24.097 24.097-.045 0-.089-.003-.133-.003 3.589 8.799 12.226 15.003 22.316 15.003 13.308 0 24.097-10.789 24.097-24.097v-179.579c0-12.663-9.77-23.038-22.183-24.014z"/><path d="m337.842 80.31v188.593c0 13.308-10.789 24.097-24.097 24.097-.045 0-.089-.003-.133-.003 3.59 8.799 12.226 15.003 22.316 15.003 13.308 0 24.097-10.789 24.097-24.097v-179.579c0-12.663-9.771-23.038-22.183-24.014z"/></g></g></g></g></g></g></g><g><path d="m241.623 109.227c0-60.228-48.999-109.227-109.227-109.227-22.401 0-43.937 6.74-62.278 19.492-3.401 2.365-4.241 7.039-1.877 10.439 2.365 3.4 7.039 4.242 10.439 1.876 15.816-10.995 34.391-16.807 53.716-16.807 51.957 0 94.227 42.27 94.227 94.227v24.513c-3.959 3.075-8.784 4.76-13.877 4.76-6.482 0-12.671-2.786-16.979-7.643-2.487-2.803-6.061-4.41-9.806-4.41-3.744 0-7.317 1.608-9.802 4.41-4.309 4.857-10.498 7.643-16.98 7.643-6.481 0-12.671-2.786-16.979-7.642-2.486-2.803-6.06-4.411-9.805-4.411-3.744 0-7.317 1.608-9.803 4.41-4.309 4.857-10.498 7.643-16.98 7.643-6.481 0-12.671-2.786-16.979-7.642-2.485-2.802-6.059-4.41-9.803-4.411-.001 0-.001 0-.002 0-3.743 0-7.317 1.607-9.805 4.411-4.308 4.856-10.496 7.642-16.979 7.642-5.093 0-9.917-1.685-13.877-4.76v-24.514c0-19.728 6.031-38.616 17.44-54.624 2.404-3.373 1.619-8.056-1.754-10.46-3.375-2.405-8.059-1.619-10.461 1.754-13.231 18.564-20.226 40.463-20.226 63.33v213.44c0 19.627 15.969 35.596 35.597 35.596h40.047v43.738c0 4.142 3.357 7.5 7.5 7.5s7.5-3.358 7.5-7.5v-43.737h37.167v120.153c0 10.247-8.337 18.584-18.584 18.584s-18.583-8.337-18.583-18.584v-41.416c0-4.142-3.357-7.5-7.5-7.5s-7.5 3.358-7.5 7.5v41.416c0 18.518 15.065 33.584 33.583 33.584 18.519 0 33.584-15.066 33.584-33.584v-120.153h40.047c19.628 0 35.597-15.968 35.597-35.596v-213.44zm-189.577 44.273c10.077 0 19.726-4.05 26.783-11.177 7.06 7.127 16.707 11.177 26.783 11.177s19.724-4.049 26.783-11.176c7.06 7.127 16.707 11.176 26.783 11.176s19.724-4.049 26.784-11.177c7.059 7.127 16.706 11.177 26.783 11.177 4.83 0 9.517-.911 13.877-2.636v82.875c-3.959 3.075-8.784 4.76-13.877 4.76-6.482 0-12.671-2.786-16.979-7.643-2.487-2.803-6.061-4.41-9.806-4.41-3.744 0-7.317 1.608-9.802 4.41-4.309 4.857-10.498 7.643-16.98 7.643-6.481 0-12.671-2.786-16.979-7.642-2.486-2.803-6.06-4.411-9.805-4.411-3.744 0-7.317 1.608-9.803 4.41-4.309 4.857-10.498 7.643-16.98 7.643-6.481 0-12.671-2.786-16.979-7.642-2.485-2.802-6.059-4.41-9.803-4.411-.001 0-.001 0-.002 0-3.743 0-7.317 1.607-9.805 4.411-4.308 4.856-10.496 7.642-16.979 7.642-5.093 0-9.917-1.685-13.877-4.76v-82.876c4.363 1.726 9.05 2.637 13.88 2.637zm153.98 189.763h-147.26c-11.357 0-20.597-9.239-20.597-20.596v-71.803c4.36 1.725 9.047 2.636 13.877 2.636 10.077 0 19.726-4.05 26.783-11.177 7.06 7.127 16.707 11.177 26.783 11.177s19.724-4.049 26.783-11.176c7.06 7.127 16.707 11.176 26.783 11.176s19.724-4.049 26.784-11.177c7.059 7.127 16.706 11.177 26.783 11.177 4.83 0 9.517-.911 13.877-2.636v71.803c.001 11.356-9.238 20.596-20.596 20.596z"/><path d="m335.928 72.727c-17.423 0-31.598 14.174-31.598 31.597v179.579c0 17.423 14.175 31.597 31.598 31.597s31.598-14.174 31.598-31.597v-179.579c-.001-17.423-14.175-31.597-31.598-31.597zm16.597 211.176c0 9.152-7.445 16.597-16.598 16.597s-16.598-7.445-16.598-16.597v-179.579c0-9.152 7.445-16.597 16.598-16.597s16.598 7.445 16.598 16.597z"/><path d="m423.28 72.727c-17.423 0-31.598 14.174-31.598 31.597v73.903c0 4.142 3.357 7.5 7.5 7.5s7.5-3.358 7.5-7.5v-73.903c0-9.152 7.445-16.597 16.598-16.597 9.151 0 16.597 7.445 16.597 16.597v179.579c0 9.152-7.445 16.597-16.597 16.597s-16.598-7.445-16.598-16.597v-70.676c0-4.142-3.357-7.5-7.5-7.5s-7.5 3.358-7.5 7.5v70.676c0 17.423 14.175 31.597 31.598 31.597s31.597-14.174 31.597-31.597v-179.579c0-17.423-14.174-31.597-31.597-31.597z"/><path d="m379.604 0c-60.228 0-109.227 48.999-109.227 109.227v213.44c0 19.628 15.969 35.596 35.597 35.596h40.046v120.153c0 18.518 15.065 33.584 33.584 33.584s33.584-15.066 33.584-33.584v-120.153h40.047c19.628 0 35.597-15.968 35.597-35.596v-213.44c-.001-60.228-49-109.227-109.228-109.227zm18.584 478.416c0 10.247-8.337 18.584-18.584 18.584s-18.584-8.337-18.584-18.584v-120.153h37.168zm75.643-155.749c0 11.357-9.239 20.596-20.597 20.596h-147.26c-11.357 0-20.597-9.239-20.597-20.596v-213.44c0-51.957 42.27-94.227 94.227-94.227s94.227 42.27 94.227 94.227z"/></g></g><g/><g/><g/><g/><g/><g/><g/><g/><g/><g/><g/><g/><g/><g/><g/></svg>