<svg xmlns="http://www.w3.org/2000/svg" xml:space="preserve" width="512" height="512"><path fill="#9D706B" d="M323.2 336.2s-10.5 19.5 8 28.6l18.5-4.5s22.3-11.1 22.9-11.4c.5-.3 27.3-23.8 27.3-23.8 16.082-21.603 11.068-13.284 22.4-36.2 7.088-22.773 7.957-42.368-5.646-68.469-10.287-19.739-28.642-45.161-18.254-73.631-3.77-19.736-22.291-16.671-29.3-4.4-10.928 29.76-1.306 42.77 24.6 98.7 7.132 29.305 5.819 28.114-9.6 56.6L370.2 314 350 328c.1-.2-10.8 6.2-26.8 8.2z"/><path fill="#2D2D39" d="M325.5 366.4s8.8-1.9 27.7-9.8c14-5.9 30.4-15.9 45.1-32.9 43.7-51.3 27.3-82.1 11.4-111.8-9-16.8-17.4-32.7-15.8-51.5.3-3.3 1.3-6.4 2.2-9.2 2.1-5.9-.4-12.5-5.9-15.5-6.2-3.5-14.1-1.3-17.7 4.8-15.1 23.9-2.2 48.9 10.2 73.1 11.3 22.1 23.1 44.9 13.1 66.3-12.9 26.7-30.6 41.4-46 49.5-17 8.9-32.3 6.5-32.3 6.5 2 0 49-2.8 75.3-57.4 9.3-20-2.1-42.1-13.1-63.5-12.9-25-26.2-51-10.2-76.3 4.4-7.7 14.3-10.4 22-6 6.8 3.9 9.9 12 7.3 19.5-1 2.6-1.8 5.3-2.1 8.3-1.5 17.9 6.7 33.4 15.5 49.8 16.4 30.7 33.3 62.4-11.8 115.4-35.2 41-73.1 40.6-74.9 40.7z"/><path fill="#FDE7CF" d="M331.8 257.8s-8-11.1-16.8-15.4c-8.8-4.3-18.1-7.2-18.5-7.1-.4 0-20.5 3.3-20.5 3.3L262 253s-7.1 16.3-8.1 16.6c-1 .2-1.5 14.5-.2 15.1 1.4.6 11.9 10.5 11.9 10.5s-7.8 9.3-8.5 9.4c-.7 0-11.3 2.2-11.3 2.2l-2.8 6-15.9-5.2s-16.9 2.7-17.1 3c-.2.4-11.9 12.3-11.9 12.3l-4.5 14.2 1.9 13.4 13.2 18.3s23 15 23.5 15.3c.4.4 33.8 17.3 33.8 17.3s78.1 37.3 78.4 37.5 44.8 23.1 44.8 23.1l15.6-.7 6.8-1.8 21 9.7 19.1 4.3 14.3-11 4.6-12.5-.1-10.3s-17.2-11-17.6-11.7c-.4-.6-20-16.1-20-16.1l17 1.4 13.9-7 3.3-11.3-9.2-26.8s-12.8-18.3-13.3-18.5c-.4-.4-9.9-7.1-10.3-7.3-.4-.2-11.2-3.3-11.5-3.7-.3-.4-2.1-7.8-2.1-7.8l.5-24.9-4-19.4-9.5-12.5-11.4-8.3-16.3-6.9-40.6-2.3-7.6 1.2z"/><path fill="#FFFAF5" d="M253.4 353.2c2.2 2.9 34.9 43.9 74.4 48.9s41.9-26.4 41.9-26.4-15.6-6.5-20.3-15.2c-4.8-8.8-11.5-21.7-9.2-35.2s3.6-13.9 3.6-13.9-1.9-6.3-22.7-16.6c-10.7-5.3-26.8-8.4-29.1-7l-10.8 7.3-11.9.9-2.8-.8s-6.2 6.3-6.7 6.6l-14.3 5.7-2.1 5.3s11.9 7.7 14.2 12.5c2.3 4.9 5.7 17.4 1.8 22.4-4 5-6 5.5-6 5.5z"/><path fill="#FDE7CF" d="M255.764 126.955c-4.41-3.852-3.712-3.336-5.564-5.554v-.1c-10.912-43.649-24.463-56.379-47.2-70.4-5.997-3.748-23-12.043-23-11.8-2.696 11.797-.326 2.532-4.9 15.6-8.646 25.937-8.823 54.7-8.6 54.7-28.4 9.624-35.848 15.751-56.7 34.3-3.507-1.594-9.832-5.579-23.7-10.7-19.089-6.747-33.547-8.075-33.9-8.1-5.528-.663-1.793.18-10.8-2.3h-.1c0 .365-.832 12.001-.1 25.9.5 7.1 1.5 15.1 3.3 23.2 5.496 24.01 34.687 49.534 37.891 51.842 10.517 42.067 6.582 34.775 12.109 51.858.189.63 9.002 31.194 27.2 48.3 9.1 8.6 20.4 14.1 34.5 13.8 24.1-.6 44.8-5.2 60.7-10.3 19.7-6.4 31.8-13.5 33.6-14.6 1.8-1.1 13.8-8.5 28.6-23 11.9-11.6 25.7-27.8 37.4-48.9 6.8-12.3 7.2-24.9 3.8-37-10.188-35.925-48.049-62.346-64.536-76.746z"/><path fill="#9D706B" d="M222 150.2c-15.9 2.1-29.7 11.7-39 19.8-4 3.5-8.3 6.7-12.8 9.5-4.5 2.7-9.3 5.1-14.3 6.9-11.5 4.4-26.4 12.2-35.7 25.3-16.7 23.5-7.4 77.3 34.6 89.9 29.8 9.1 51.8-1.4 65.2-10.6 4.2-2.8 8.4-5.5 12.7-8.1s8.6-5.1 13.1-7.5c14.4-7.7 33.9-22.2 39.7-52.8 8.4-43-34.9-76.3-63.5-72.4z"/><path fill="#E0BCA2" d="m166.9 109.8 12.7-2.7c-8.5-33.3-.7-55-.7-55l.7-.4c-11.7 1.1-12.7 58.1-12.7 58.1z"/><path fill="#F6B0A6" d="m201.1 49.5-20.4-9.3-.8 6-1.6 23.9s3 19.2 3.2 19.7c.2.4 6.1 10.2 6.1 10.2l6.1-.7 5-9.8 5.1-1.8 8.5 14.3s5.6 2.3 6 2.3c.5 0 2.6-6 2.6-6 10 17.9 25 7.4 25 7.4l-6.7-17.3-12.7-18.9-25.4-20z"/><ellipse transform="rotate(-53.482 256.093 204.38)" fill="#F6B0A6" cx="256.103" cy="204.387" rx="17.501" ry="10.4"/><path fill="#2D2D39" d="M251.6 122.7c-7.9-64.9-70.1-84.9-70.8-85.1l-1.7-.7-.6 1.6c-16.7 42.5-13.1 70.7-13 72l3.8-.5c0-.2-3.5-27.7 12-68.2 9.6 3.6 57.4 24 65.9 77.7l4.4 3.2z"/><path fill="#2D2D39" d="M216.7 102.8c-1.8-.3-4.4-5.1-6.3-8.2-2.9-5-5.4-9.3-8.8-8.3-2.2.6-3.7 3-5.4 5.7-2.7 4.2-4.7 6.8-7.4 5.8-5.6-2.2-10.9-28.1-6.7-58.1l-3.9-.5c-4.1 29.2.2 58.9 9 62.3 5.8 2.2 9.4-3.3 12-7.3 1-1.6 2.3-3.6 3.1-4 1.1.6 3.2 4.3 4.4 6.4 2.8 4.8 5.4 9.4 9 10.1 1.926.385 8.526-.124 3.1-16.8.596 6.194-.682 12.9-2.1 12.9zM322.8 126.5c-17.4 11.8-32.6 28.6-44 48.7 0 0 10.5-12 22-24.5 8.2-8.8 22-24.2 22-24.2zM342.9 139.2c-19 8.9-36.7 23.1-51.2 41.1 0 0 12.3-10.2 25.6-20.7 9.5-7.4 25.6-20.4 25.6-20.4zM353.9 165.9c-20.7 3.8-41.3 13.1-59.9 27 0 0 14.4-6.8 30-13.6 11.1-4.9 29.9-13.4 29.9-13.4z"/><path fill="#FFFAF5" d="M96.3 161.6c15.655-14.501 29.529-24.136 37.3-29.4 2.095-1.356 7.287-4.944 12.2-7.4 16.429-8.961 34.163-15.785 43-18.9-26.435 4.909-59.887 9.425-92.5 55.7z"/><path fill="#E0BCA2" d="m52.9 128.2.6-.4s22.8 3.2 48.3 26.2l8.3-9.9c.1 0-50.9-25.7-57.2-15.9zM320.5 203.9c-5.116 11.511-25.25 61.37-79.2 93.3-43.587 26.961-90.19 29.621-119.4 26.7h-.1c9.1 8.6 20.5 14.2 34.7 13.9 24.5-.6 45.5-5.3 61.4-10.6h.1c19.2-6.3 31-13.3 32.8-14.3 1.8-1.1 13.5-8.3 28-22.4l.1-.1c12-11.7 26-28 37.9-49.4 6.8-12.4 7.2-25.1 3.8-37.2l-.1.1z"/><path fill="#F6B0A6" d="m46.8 178.1 10.8 20 12.2 14s16.2-8.4 5.1-25.5c0 0 6.3.9 6.5.5.1-.4.7-6.4.7-6.4l-8.6-14.2 3.9-3.7 11 .2 3.4-5.1s-5.9-9.8-6.1-10.1c-.3-.4-16-12-16-12l-22-9.8-5.6-2.1-1.3 22.4 6 31.8z"/><ellipse transform="rotate(-8.773 152.301 267.1)" fill="#F6B0A6" cx="152.307" cy="267.097" rx="17.5" ry="10.4"/><path fill="#2D2D39" d="M81.3 219.9c-43.6-32.5-39.4-84.3-38.1-94.5 43.1 5.1 65.8 21 66 21.1l2.2-3.2c-1-.7-24.3-17-69.7-22l-1.7-.2-.3 1.8c-.1.7-11.5 65.1 42.4 102.3l-.8-5.3z"/><path fill="#2D2D39" d="M68.2 180.9c7.314 7.552 14.657 10.475 16.3 5 1-3.4-1.8-7.9-4.7-12.6-1.4-2.1-3.6-5.7-3.7-6.9.8-.5 3.2-.7 5-.9 4.7-.4 11.3-1 12-7.2 1.1-9.4-22.246-26.652-49.946-36.652L40.9 125c28.6 10.3 49 27 48.3 33-.4 2.9-3.6 3.4-8.6 3.8-3.2.2-6 .5-7.5 2.1-2.5 2.5.2 6.8 3.2 11.7 2 3.1 4.9 7.7 4.4 9.4-1.12 1.12-7.697-1.218-12.5-4.1zM81.9 225c3.4 23.9 11.6 64.6 30.7 91.6 31.5 44.5 106.9 10.5 107.7 10.1 0 0-17.4 3.6-36.7 7.1-23 4.2-51.7 3.3-67.7-19.3-10.2-14.3-17.1-32.9-22-50.7-3.9-14.4-7.3-28.5-9.8-39.1-.4-1.2-.7-2.4-.9-3.5-2-8.9-3.2-14.8-3.4-15.5.1 1.1.4 6.3 1.4 14 .2 1.7.5 3.5.7 5.3zM235.2 223.3l.9 2.3s.1.2.1.3l.3.7c1 2.5 5.3 15.1-4.8 21.3-4.9 3-11.3 3.3-16.8.6-.4-.2-.8-.5-1.2-.7 3-4.6 7.8-12.7 6.8-16.8-.2-.9-.8-1.6-1.6-2.1-3.2-1.6-10.6 1.5-15.9 4.7-5.3 3.2-11.5 8.3-11.6 11.9 0 .9.4 1.7 1.1 2.4 3.1 2.8 12.5 2.4 18 1.8v1.4c-.2 6-3.3 11.5-8.2 14.4-.1 0-.1.1-.2.1-10.3 6.1-19.4-3.7-21.1-5.7l-.5-.6-.2-.2-1.6-1.8-5 8.4 5.1-3.2c3.1 3.4 13.4 13 24.9 6.1h.1c5.9-3.6 9.6-10.2 9.8-17.2 6.3 3.1 13.9 2.9 19.8-.6l.1-.1c11.4-7 7.8-20.5 6.2-24.9l5.2-3-9.7.5zM225.3 270.8c-4 2.3-8.7 3.5-13.6 3.7 10.1 5.5 23.4-2.5 23.2-14-2.4 4.2-5.6 7.8-9.6 10.3zM188.8 105.9c-44.162 1.338-66.987 23.346-76.047 33.089-8.566 9.212-13.557 17.841-16.453 22.611.8-.9 14.2-14.7 19.4-20.2 17.279-18.656 33.615-25.629 73.1-35.5z"/><path fill="#2D2D39" d="M52.3 289.9c18.5-9.9 40.5-15.6 63.6-16.3 0 0-15.5 3.7-31.9 8.1-11.7 3.1-31.7 8.2-31.7 8.2zM54.2 313.5c16.7-12.7 37.5-21.8 60.2-26.1 0 0-14.7 6.1-30.2 13-11.1 4.9-30 13.1-30 13.1zM72.7 335.7c13-16.5 30.9-30.5 51.8-40.4 0 0-12.7 9.6-26 20.2-9.5 7.5-25.8 20.2-25.8 20.2z"/><path fill="#3D3D44" d="M215.5 230.7c-.4-.5-3.3.6-7.3 2.7-1.3.7-2.6 1.4-4 2.2-1.4.9-2.7 1.7-3.9 2.5-3.7 2.5-6.1 4.6-5.8 5.2.5.9 5.5-1.4 11.4-4.9 5.9-3.4 10.2-6.9 9.6-7.7z"/><path fill="#2D2D39" d="M247.3 119.5c-6.4-4.5-10.8-7.2-11.7-7.8.5.5 5.2 4.3 12.1 10.2.9.7 1.7 1.5 2.7 2.4 8.2 7.1 19.1 16.7 30 26.9 13.4 12.6 26.7 27.4 34.6 43 12.6 24.8 0 50.5-14.4 68.9-12.1 15.5-23.4 29.2-23.4 29.2.7-.5 65.9-51.4 41.2-100-15-29.5-47.2-55.7-66.8-69.8-1.4-1-2.9-2.1-4.3-3z"/><path fill="#2D2D39" d="M252.4 313.3c-10.7 6.5-21 11.1-30.1 14.5-28.6 10.7-50.7 11.1-51.7 11.1l-.171-3.238c.2 0 22.571-1.562 50.471-11.962 25.7-9.6 62.4-30 87.4-71.9l2.8 2.3c-16.7 28.3-38.3 47-58.7 59.2z"/><g fill="#2D2D39"><path d="M214.1 204.9c.2-15.2 18.5-24.6 31.9-19.2-12.5 3.4-24.1 8.3-31.9 19.2zM140.5 249.4c.2-15.2 18.5-24.6 31.8-19.2-12.4 3.3-24.1 8.3-31.8 19.2z"/></g><path fill="#8A5D58" d="M444.8 472.7c2.9.4 6 .3 9.1-.6l-4.3 1.9-4.8-1.3z"/><path fill="#9D706B" d="M433.9 469.1s0 .5 1.6 1l-7-1.9-18.1-8.9 1.1-1.7s9.6-5.9 17.2-20.1c9.865 2.82 36 25.9 5.2 31.6zM451 412.9c1.5-.8 5.8-2.9 8.3-4.3l-3.3 3-5 1.3zM462.6 405.6c1.3-2.3 3-6 3.9-8l-.1 4.4-3.8 3.6zM448.9 355c12.9 19.9 17.9 35.9 17.9 35.9l-.1 4c-2.5-5.5-12.1-25.5-28.4-37.5-4.4-3.2-8.3-4.8-12.1-5.3-.2-3.5-1.2-7.3-3.2-11.7-.1-.1 13-5.3 25.9 14.6z"/><path fill="#8A5D58" d="M461.4 467.2c2.4-2.7 4.1-5.1 5.5-7.4l-5.4 9-4.1 1.8c1.5-.9 2.8-2 4-3.4zM466.9 459.8c.1-.2.2-.3.3-.5l-.1.1-.2.4zM438.3 357.4c16.3 12 26 32.1 28.4 37.5v2.7c-.9 2-2.9 5.7-3.9 8l-3.3 3c-2.6 1.3-6.8 3.5-8.3 4.3l-1 .4c-2.5-.1-14.4-.6-14.6-1s-32.091-34.092-34.191-36.192c-.1-.1-.409-.577-.409-.577s26.1-3.631 25.2-23.431c3.6.4 7.7 2.1 12.1 5.3z"/><path fill="#E0BCA2" d="m450.1 413.2 1-.2c-.4.2-.5.2-.5.2h-.5zM459.3 408.6l3.3-3c-.7 1.2-1.1 2-1.2 1.9-.1.2-.9.6-2.1 1.1zM466.7 397.6v-2.7c.4.9.7 1.4.7 1.4s-.4.5-.7 1.3zM376.3 355.6c24 3.9 36.6-5.4 49.9-3.5 1 19.8-25.3 23.5-25.3 23.5s-13.5 1.7-14.3 1.7-19-3.6-19.2-3.7c-.4-.2-19.8-13.9-19.8-13.9s-8.9-19.6-8.7-20.2c.2-.4 3.2-22.6 3.2-22.6s3.3-13.7 12.8-26.2c.2.1-9.6 59.9 21.4 64.9z"/><path fill="#8A5D58" d="m435.9 416.7 13.6 8.7c.9.9 1.6 1.4 1.7 1.6 1.5 1.1 17 11.5 17 11.8s3.4 7.3 3.2 8c-.1.1-.1.4-.1.7l-4.3 11.9c-.1.2-.2.3-.3.5-1.4 2.2-3.1 4.8-5.5 7.4-1.2 1.4-2.5 2.5-4 3.4l-3.6 1.6c-3 1-6.2 1-9.1.6l-9.4-2.5c-1.5-.7-2.4-1.1-2.4-1.1 30.7-5.8 5-28.3-4-31.8 3.2-5.8 5.8-12.5 7.2-20.8z"/><path fill="#E0BCA2" d="m435.4 470.2 9.4 2.5c-3.8-.5-7.2-1.7-9.4-2.5zM453.9 472.1l3.6-1.6c-1.2.8-2.5 1.2-3.6 1.6zM467.2 459.2l4.3-11.9c-.3 1.6-.8 6-4.3 11.9zM401.4 376l22.7 24.9s19.5 18.8 25.6 24.5l-13.6-8.7c-1.4 8.3-4.4 15.2-7.4 20.8-.8-.3-1-.5-1.5-.5-3.907 0-8.184 3.939-14.721 7.716-13.938 8.054-19.595 8.195-42.864-6.097-19.484-11.968-40.291-28.745-40.291-28.745 37.3 3.3 54.877-31.974 55.077-32.274-.101-.3 16.999-1.6 16.999-1.6zM251.8 357.5s.6 11.1-10.2 12.8c0 0 7.3 20.1 41.9 21.7 0 0-14.9 14.6-59.5-13.1-44.7-27.6-27-53.2-27-53.2s2.3 7.1 18.2 19.1c15.6 12.1 32.8 15.4 36.6 12.7z"/><path fill="#E0BCA2" d="M219.8 309.8s-25.6 8-11.5 29.6c14.1 21.7-10.3-3.3-10.3-3.3l-2.9-5.3c0 .1 7.5-21 24.7-21z"/><path fill="#9D706B" d="M256.9 287.7s-9.3-21.8 10.6-41.9c20-20 47-5.1 47-5.1l16.7 16.9s-26 12.8-39.4 28.5c-13.5 15.9-25.1 10.6-34.9 1.6zM197.9 325.2s5.6 13 17 20.1c0 0 29 19.8 39.2 7.5 17.384-20.76-5.372-37.899-8.3-39.2-33.439-16.719-46.353 9.416-47.9 11.6z"/><path fill="#8A5D58" d="M254.8 278.3c.1-1.1 7.6 12.6 21 4.1s26.4-41.6 44.5-36.1l9.8 9.6-31 23.1-15.9 15.3-10.689 2.753L259.4 291.4c.1-.1-5.4-1.7-4.6-13.1z"/><g><path fill="#2D2D39" d="M364.8 374.7c-6.4-3.1-12.6-8-18.3-15.7-24.4-32.7 10.3-70.7 10.6-71 0 0-30.2 38.6-7.7 68.9 22.5 30.2 64.711 14.276 64.711 14.276-3.507 1.949-25.606 15.09-49.311 3.524z"/><path fill="#2D2D39" d="M329 409.8c.3 0 18.2.6 34.6-10.8 7-4.8 13.8-12 18.8-22.3l3.3 1.5c-6 12.4-14.4 20.5-23 25.7-16.6 10.2-33.7 5.9-33.7 5.9zM443.8 345.8c-8.344-8.046-15.451-6.166-18.653-8.337-2.407-1.632-2.016-3.96-1.923-5.323.782-11.576 6.653-51.969-25.523-67.84-24.313-11.65-59.681-9.168-65.743-8.53l-.757 3.689c2.657-.295 40.489-3.439 64.7 8.141 29.454 14.404 24.166 51.377 23.512 64.344-.042.828-.803 5.091 2.803 8.058 4.171 3.433 10.952 1.061 18.885 8.498 9.8 9.5 29.5 41.1 22.7 53.7-1.8 3.2-4.7 5.7-9 7.4-10.8 4.3-19.1 2.5-26-5.8l-26.6-28.7-2.9 1.4 26.7 29.7c2.8 3.2 5.7 5.5 8.8 7.1 6.2 2.9 13.3 2.8 21.6-.3 5-2 8.6-5.1 10.8-9.1 8.099-15.2-13.001-48-23.401-58.1zM248.2 393.5l1.6-3.2 140 68.7c-.1-.1 9 3.4 18.2-.7 6.7-3 18.54-17.056 18.54-17.056-3.8 10.1-9.44 17.156-17.04 20.456-10.6 4.7-20.7.9-21.1.7l-140.2-68.9z"/><path fill="#2D2D39" d="M421.3 467.3c-6.6-3.2-11.2-6.3-11.7-6.5l1.9-3.1c.3.2 28.6 18.3 42.2 12.8 9.1-3.6 15.3-14.8 15.8-23.1.2-2.7-.1-7.6-4-9.8-29.2-16.8-37.8-29.3-38.1-29.9l3.1-2.1c0 .2 8.6 12.5 36.9 28.7 4.1 2.4 6.2 7.1 5.8 13.3-.7 9.6-7.7 22-18.2 26.2-9.2 3.7-23.6-1.6-33.7-6.5zM283.5 392c-12.1 10.6-28.5 5.2-44.4-2.6-4-1.9-8-4.1-11.8-6.2-6.8-3.7-29.2-17-34.6-36.1-1.7-6.2-1.4-12.3.9-18.2.6-1.3 1.1-2.5 1.8-3.7.3-.5.5-1 .8-1.4 5.7-9.6 13.7-15.7 23.1-17.4 9-1.8 17.5.6 23.4 3.8 1.2.7 2.3 1.3 3.2 2 .2.1.4.2.5.4 10.3 7.7 16 15.6 16.8 23.4.7 5.9-1.3 11.7-6.1 17.3-3.3 3.9-7.4 5.9-12.2 6.3-13.9.7-29.2-13.7-29.9-14.4 0 0 17.4 11.4 29.6 10.7 3.9-.2 7.1-1.8 9.7-4.9 4-4.8 5.8-9.7 5.2-14.5-.7-6.7-6-13.8-15.4-20.9 0 0-.1-.1-.2-.1-1-.7-2.1-1.4-3.4-2.1-5.2-2.7-12.9-4.8-20.7-3.3-8.5 1.7-15.5 7-20.7 15.8-.2.3-.3.6-.5.9-.6 1.1-1.3 2.3-1.6 3.4-2.1 5.2-2.3 10.7-.9 16.1 3.3 11.9 15.6 24.6 32.8 33.9 9.8 5.2 18.8 9.3 26.4 12.2 13.1 4.7 28.2-.4 28.2-.4zM333.7 256.9c-.4-.6-6.8-10.1-17.8-16.8-1.2-.8-2.5-1.5-3.9-2.3-7.1-3.5-15.6-5.6-25.3-4-16.9 2.8-28.7 18.4-32.9 32.5-3.2 10.6-2 20 3 24.6 2 1.9 4 3.3 5.9 4.5.6.3 1.3.7 1.9 1 .7.4 1.4.6 2.1.9 8.5 3.2 16.8.1 25.6-9.1l1.9-2c11-11.6 28.2-26.2 38.3-26.9l1.2-2.4zm-42.2 27-1.9 2c-7.3 7.7-13.8 10.5-20.5 8.5-1.4-.4-2.7-1-4-1.7-1.9-1-3.9-2.5-5.9-4.4-3.9-3.5-4.6-11.7-1.9-20.9 3.9-13 14.6-27.3 29.9-29.9 8.6-1.4 16.3.5 22.7 3.6.5.3 1 .5 1.4.8 1.4.8 2.7 1.5 3.9 2.4 6.2 4.1 10.8 9.1 13.3 12-12.7 1.8-26.6 16.6-37 27.6z"/></g></svg>