<svg xmlns="http://www.w3.org/2000/svg" xml:space="preserve" width="512" height="512"><path fill="#FDE7CF" d="m169.5 287.7-.3-.1-3.6 1.3s-1 6.7-1.2 7 3.4 7.6 3.5 8 3.4 6.4 3.5 6.6 13.6-1.8 13.9-2c.3-.2 6.9-10 1.1-12s-16.9-8.8-16.9-8.8z"/><path fill="#9D706B" d="M399.4 358.8c-.4-2.1-1.6-3.8-3.3-5-1.8-1.2-3.9-1.6-6-1.2-15 2.3-20.4 15.9-25.7 29.1-4.6 11.4-9.3 23.2-20.2 26.3-30.1 8.2-47.2-9.7-47.3-9.9-1.9-2.1-4-2.6-5.5-2.6-.3 0-.6 0-.9.1-.2 0-.4 0-.7.1-2.8.6-5.6 3.1-6.5 5.9-.5 1.4-.9 4.3 1.8 7.2l.1.1c2.8 2.9 17.9 17.2 43.4 17.2 35.2-.3 41.7-17.3 48-33.7 3.2-8.4 6.5-17.1 14.1-22.7 1.1-.9 2.4-1.4 3.6-1.9l.3-.1c3.6-1.5 5.6-5.2 4.8-8.9z"/><path fill="#2D2D39" d="M328.6 428.2c-28.4 0-44.4-17.3-45-18-2.5-2.6-3.3-6-2.3-9.3 1.1-3.6 4.4-6.6 8.1-7.4 3.4-.8 6.6.3 9.1 3.1.7.7 16.5 17.1 45.2 9.3 9.9-2.8 14.2-13.6 18.8-25.1 5.6-13.8 11.3-28 27.4-30.5 5.4-1.1 10.7 2.5 11.8 8 1 4.8-1.6 9.5-6.2 11.4-1.2.4-2.4 1-3.5 1.8-7 5-10.1 13.1-13.4 21.7-6.3 16.3-13.3 34.7-50 35zM291.4 396c-.5 0-1 .1-1.4.1-2.7.5-5.3 3-6.1 5.6-.5 1.6-.7 4.2 1.6 6.7.7.7 15.9 17.1 43 17.1 34.8-.3 41.3-17.1 47.5-33.3 3.4-8.9 6.7-17.3 14.2-22.9 1.3-1 2.7-1.5 4.1-2.1 3.3-1.3 5.3-4.8 4.5-8.3-.8-4.1-4.7-6.6-8.7-5.8-14.6 2.2-20 15.7-25.3 28.8-4.6 11.5-9.4 23.4-20.6 26.6-30.2 8.2-47.2-9.3-47.9-10.1-1.5-1.9-3.4-2.4-4.9-2.4z"/><path fill="#FDE7CF" d="M318 330.6c.102 0 18.401 19.191 18.5 19.3-1.6-1.1-3.4-2.4-5.4-4.1l-.1-.2-.1.1c-2.1 1.9-7 6.7-8 11 .239 0 3.057 26.152 3.057 29.799.431 0 16.348 4.996 23.696-4.435 1.5-2 2.296-4.387 1.696-6.087-.7-2.5-5.565-5.739-7.065-6.239-2.532 2.11-1.211 1.129-3.583 3.162 1.4-1.9 4.563-4.993 7.463-9.293 7.2-10.7 15.371-25.922 13.271-37.022-3.6-18.4-50.108-35.148-50.608-35.348-129.088 0-124.87.706-125.026.862 0 0-5.815 20.616-9.215 36.616-.431 3.016-2.939 22.587-3.498 28.174-3.182 25.742-4.601 50.286-2.152 74.609 1.455 13.628 5.765 34.466 5.765 35.801l.1.5h-.1c-16.4 1.1-20.2 9.6-20.4 16.5-.1 2.8 2.2 5.4 5 5.5 9.3.4 32.2 1.4 42-.3 12.6-2.2 14.8-7 16.9-14.7 2.415-8.815 14.926-39.889 16.998-45.923 2.106.297 10.416 1.726 20.998.144 1.307 3.543 14.684 37.309 17.004 45.78 2.1 7.8 4.3 12.6 16.9 14.7 9.164 1.705 32.698.827 42 .3 2.8-.1 5.1-2.6 5-5.5-.2-6.9-3.9-15.4-20.4-16.5h-.1c.16-.802.3-1.431.3-2.3.9-5.4 3.7-23.7 4.7-34.1 2.409-23.934 1.64-48.882-1.6-74.8l-4.001-26z"/><path fill="#9D706B" d="M203.3 489.6c12.6-2.2 14.8-7 16.9-14.7 1.6-6.2 10.5-29 14.6-39.4-24.9-9.2-57.4-7.6-63.4-7.1l.3 3.3c1.1 10.3 3.9 28.7 4.7 34.1.1.7.2 1.2.2 1.8-.817.13-19.897-.357-20.4 17-.1 2.8 2.2 5.4 5 5.5 9.5.3 32.4 1.2 42.1-.5zM292.4 489.6c-12.6-2.2-14.8-7-16.9-14.7-1.6-6.2-10.5-29-14.6-39.4 24.9-9.2 57.4-7.6 63.4-7.1l-.3 3.3c-1.1 10.3-3.9 28.7-4.7 34.1-.1.7-.2 1.2-.2 1.8 1.477-.279 19.902-.185 20.4 17 .1 2.8-2.2 5.4-5 5.5-9.5.3-32.3 1.2-42.1-.5z"/><path fill="#E0BCA2" d="M247.7 423.6c-25.6.1-44.4-8.762-44.6-8.862 0 0 8.2 8.762 22.7 12.562a86.42 86.42 0 0 0 21.9 2.8c3.379 0 11.128-.064 21.9-2.8 14.5-3.8 23.009-12.606 23.009-12.606-.3.1-19.309 9.106-44.909 8.906z"/><path fill="#8A5D58" d="M293.9 481.4c11.5 3.8 43.4 6.5 42.6-5.9 2.1 2.8 2.8 6 3 9 .1 2.8-2.9 5.3-5.7 5.4-9.3.4-32.2 1.4-42-.3-12.6-2.2-14.8-7-16.9-14.7-2-7.3-9.6-25-11.9-31l-4.4-12.9s23.1 46.3 35.3 50.4zM201.1 481.4c-11.5 3.8-42.7 6.5-42-5.9-2.1 2.8-2.8 6-3 9-.1 2.8 2.2 5.4 5 5.5 9.3.4 32.2 1.4 42-.3 12.6-2.2 14.8-7 16.9-14.7 2-7.3 9.6-25 11.9-31l4.4-12.9c.2-.1-23 46.2-35.2 50.3z"/><path fill="#E0BCA2" d="m316.3 322.4 20.8 27.8-19.1-18.6z"/><path fill="#9D706B" d="M354 355.9s-15.3 3.4-28.2-5.8c0 0-3.217-1.423-3.017 9.877a2914.795 2914.795 0 0 0 2.553 26.869l7.464 1.054 11.07-1.174c14.522-9.793 7.299-13.743.491-17.516L354 355.9z"/><path fill="#8A5D58" d="M339.4 374.1s6.8-.4 6.3 4.3c-.3 4.7-6.2 8.3-6.2 8.3s3.5.2 6.4-.5c2.8-.8 4.8-6.2 4.8-6.2s1.8-3.7 1.8-4.4-7.8-6.5-7.8-6.5l-5.3 5z"/><path fill="#2D2D39" d="M171.6 383.3c-1.1 15-1.4 31.5.3 48.2 1 9.5 3.5 26.2 4.7 34.1.1 1 .7 4.2.7 4.3-.2-.5-1.1-3.5-1.3-4.3-1.6-5.6-3.1-11.3-4.2-17.1-6.1-32.8-3.5-67 .2-91.7.03-.239 2.043-13.01 4.1-21.8.3-1.6.7-3.2 1-4.6 1.1-4.8 1.9-7.7 2.1-8.2-.1.5-.7 3.5-1.4 8.4-.1 1-.3 2.1-.5 3.2-1.467 9.127-3.1 22.325-3.1 22.6-1 8.2-1.9 17.2-2.6 26.9z"/><path fill="#2D2D39" d="M239.2 430.4c-.1.3-14.7 37.1-16.9 45.1-2.2 8.1-4.8 14-18.7 16.4-4.4.8-11.2 1-18.3 1-8.7 0-17.7-.3-24.2-.7-4.2-.2-7.3-3.7-7.2-7.9.2-6.5 3.4-17.3 21.9-18.7h.7c.1 1 .3 1.8.3 2.4h-.3c-16.2 1.1-19.9 9.5-20.3 16.4-.1 2.7 2.1 5.1 4.8 5.3 9.3.4 32.1 1.4 42-.3 12.5-2.1 14.7-6.9 16.8-14.6 2.2-8.1 16.3-43.8 16.9-45.3l2.5.9zM256.1 430.4c.1.3 14.7 37.1 16.9 45.1 2.2 8.1 4.8 14 18.7 16.4 4.4.8 11.2 1 18.3 1 8.7 0 17.7-.3 24.2-.7 4.2-.2 7.3-3.7 7.2-7.9-.2-6.5-3.4-17.3-21.9-18.7h-.7c-.1 1-.3 1.8-.3 2.4h.3c16.2 1.1 19.9 9.5 20.3 16.4.1 2.7-2.1 5.1-4.8 5.3-9.3.4-32.1 1.4-42-.3-12.5-2.1-14.7-6.9-16.8-14.6-2.2-8.1-16.3-43.8-16.9-45.3l-2.5.9zM318.2 333.9l1.2 1.2c4.4 4.3 12.5 12 18.6 15.8-.5-.5-17.787-18.433-19.787-20.533l-.013 3.533z"/><path fill="#2D2D39" d="M363.4 326c-2.3-20.3-52.6-36-53-36.3l-.8 2.4c.4.1 47.6 16 51.3 34.3 2.2 11.2-6.2 26.4-13.3 36.7-4.4 6.5-8.1 10.8-8.2 11 .1.1 27.1-20.2 24-48.1z"/><path fill="#2D2D39" d="M336.1 389.2c5.1 0 11-1.4 15-6.5 2.1-2.6 2.7-5 2-7.4-1.4-4.6-7.9-6.7-8.1-6.8l-1.8 2s6.4 2.2 7.4 5.6c.4 1.5 0 3.3-1.5 5.1-7.4 9.4-23.2 3.8-23.3 3.7l-.9 2.3c.3.3 5.4 2 11.2 2zM321.9 355.6c0 .3.1.7.1 1l1.2.3c1.1-5.4 8.5-11.5 8.7-11.5l-1.5-2c-.2.2-5 4.2-7.9 8.8-.6 1.1-.2 2.3-.6 3.4zM247.7 429.5c-24.5.1-42.5-12.9-42.7-13 0 0 7.9 8.9 21.8 12.7 10.288 2.743 17.786 2.8 21 2.8 3.177 0 10.768-.072 21-2.8 13.9-3.8 21.8-12.7 21.8-12.7-.4.1-18.4 13.1-42.9 13z"/><path fill="#2D2D39" d="M323.8 383.3c1.1 15 1.4 31.5-.3 48.2-1 9.5-5.4 38.2-5.4 38.3.2-.5 1.1-3.5 1.3-4.3 1.6-5.6 3.1-11.3 4.2-17.1 6.1-32.8 3.5-67-.2-91.7-.2-1.6-.5-3.2-.8-4.7-1.1-6.7-2.2-12.4-3.3-17.1-.3-1.6-.7-3.2-1-4.6-1.1-4.8-1.9-7.7-2.1-8.2.1.5 3.8 24.5 4.9 33.2 0 .3.1.7.1 1 1 8.3 1.8 17.3 2.6 27z"/><path fill="#FFFAF5" d="M295.7 375.5c0 23-21.5 41.6-48 41.6s-48-18.6-48-41.6 21.5-49.2 48-49.2 48 26.3 48 49.2z"/><path fill="#FDE7CF" d="M337.1 178s14.8-31.8 10-53.8-15.7-39.4-15.7-39.4l-4.8 4.2s-22 11.9-39.8 36.3l-1.3 1.5-29.2-6.9.1-.7-27.9 1.9-1-1.8C215 92 195.8 75.8 195.8 75.8l-3.8-5s-14.1 14.9-23.3 35.5-1.1 54.7-1.1 54.7l-7.3 17.9s-40.3 71.6-.5 100.1c38 27.2 74.9 31.4 78.2 31.8h.2c3.3.3 40.3 3.6 82.9-15.4 44.7-19.9 19.6-98.3 19.6-98.3l-3.6-19.1z"/><path fill="#FFFAF5" d="M210.3 125.7c-.3.1-.5.1-.5.1s.2 0 .5-.1zM243.1 118.5c-.3.2-28.6 6.4-32.8 7.2 4.5-.9 38.643-7.057 92.043 9.443 0 0-22.743-13.343-35.443-14.643-12.8-1.3-23.5-2.3-23.8-2z"/><path fill="#E0BCA2" d="m285.5 126.6 10.1 4.7c11.4-27.5 28-38.4 28-38.4l.7.1c-8.5-5.3-38.8 33.6-38.8 33.6zM197.6 80.2l.7.1s14.1 14 19.7 43.3l10.8-2.6c0-.1-21.8-44.4-31.2-40.8zM142.9 249.9c1.6 11.2 6.6 21.5 16.9 28.9 38 27.2 74.9 31.4 78.2 31.8h.2c3.3.3 40.3 3.6 82.9-15.4 11.2-4.9 18-13.6 21.9-23.8-106.2 61.4-190.4-11.1-200.1-21.5z"/><path fill="#F6B0A6" d="m204.9 94-10.1-18.1-2.7-4.4-12.6 14.8-12.5 25-3 19.5 1.1 16s15.6 2.7 16.8-15c0 0 3.9 3.9 4.3 3.7.3-.2 3.8-4.1 3.8-4.1l1.4-14.2 4.6-.5 7.6 5.8 4.9-1.6s1.1-9.9 1-10.2-4.6-16.7-4.6-16.7zM340.3 102.7l-9.3-17-3.6 3.7-13.4 15.7s-7.9 14.9-8 15.2c-.1.3-1 10.2-1 10.2l4.5 2.6 8.5-4.2 4.4 1.4-1.4 14.3s2.7 4.5 3 4.7 4.9-2.8 4.9-2.8c-2.4 17.5 13.5 18.1 13.5 18.1l4.3-15.4 1-19.6-7.4-26.9z"/><path fill="#9D706B" d="M302.7 183.2c-12.2-6.8-26.7-7.3-37.2-6.5-9.2.8-18.5-.2-27.4-2.7-10.2-3-24.5-5.4-37.8-1.1-23.8 7.6-45.3 49.6-23 80.2 16 21.8 36.5 25.9 50.6 26.6 8.8.4 17.5 1.3 26.2 2.6 13.9 2.2 34.9 2.3 54.9-15.9 28.2-25.6 15.4-71.1-6.3-83.2z"/><path fill="#F6B0A6" d="M295.5 229.7c-8 2.4-13.4 8.2-11.9 12.9 1.4 4.7 9.1 6.7 17.1 4.3s13.4-8.2 11.9-12.9c-1.4-4.7-9.1-6.7-17.1-4.3z"/><path fill="#3D3D44" d="M245.7 233c-5.9-.5-10.8-.4-11 .3-.1.8 4.7 2 10.6 2.5 5.9.5 10.8.4 11-.3 0-.7-4.7-1.8-10.6-2.5z"/><path fill="#2D2D39" d="M230.9 263.8c4.2 9 17.7 10.6 23.4 2.4-7.9 3.9-16.4 2.5-23.4-2.4zM281.3 200.1c-5.1-1-10.5 4.5-12 12.2-1.5 7.8 1.4 14.9 6.6 15.9 5.1 1 10.5-4.5 12-12.2 1.5-7.8-1.4-14.8-6.6-15.9z"/><path fill="#2D2D39" d="m286.9 208.6-4.5 4.6c4.7 3.7 12.4 3.4 14.8-2.5-3.4 3.1-8.3 1.9-10.3-2.1z"/><path fill="#F9FCF8" d="M279.4 203.2c-2-.8-4.5 1-5.8 4.1s-.8 6.2 1.2 7 4.5-1 5.8-4.1c1.4-3 .8-6.2-1.2-7z"/><path fill="#2D2D39" d="M331.8 82.5c-2.792 1.718-31.978 18.805-47.6 43.8l3 1.6c.1-.2 11.9-21 43.8-41 4.8 7.6 27.3 46.4 5.3 88-.3.7-.7 1.2-1 1.9.2 1 .4 2 .7 3.1l1.1.7c.2-.4.4-.8.7-1.2 28.256-48.924-4.037-94.774-6-96.9z"/><path fill="#2D2D39" d="M323.247 146.862c-.471-1.763-.001-5.551.253-8.262.7-4.9 1.1-9.2-1.8-10.3-1.9-.7-4.1.1-6.7 1.1-4.1 1.5-6.8 2.3-8.1.2-2.7-4.4 7-25.1 25.6-43.7l-2.614-2.075C311.786 101.925 299.6 124.4 304 131.4c2.8 4.6 8.2 2.6 12.2 1.1 1.4-.5 3.4-1.3 4.3-1.2.4 1 0 4.6-.2 6.8-.5 4.8-1.1 9.3 1 11.6.7.7 1.4 1.1 2.3 1.2.402 0 4.542.856 8.6-11.1-4.034 5.331-6.464 7.156-7.666 7.696-.749.336-1.032.323-1.287-.634zM336.1 175.1c-2.1-6.5-3.7-10.6-4.1-11.5.1.7 1.4 5.7 3.1 13.4.2 1 .4 2 .7 3.1 2 9.2 4.6 21.5 6.8 34.2 2.8 15.7 4.2 32.8 1.6 47.6-4.2 23.7-26.3 34.9-45.8 40.2-16.4 4.5-31.3 8.1-31.3 8.1.8 0 72.3-1.4 80.4-47.8 4.9-28.2-3.7-63.1-10-83-.5-1.5-1-2.9-1.4-4.3z"/><path fill="#2D2D39" d="M384.5 219.6c-18.9-.9-38.2 3.3-55.5 10.8 18.1-4.8 36.7-8.9 55.5-10.8zM333.4 238c15.8-2.7 31.8-3.3 47.6-1.2-15.2-4.9-32.4-4.2-47.6 1.2zM331 246.8c16.9 1.1 33.6 5.9 47.5 15.6-12.2-12.1-30.6-17.3-47.5-15.6z"/><ellipse transform="rotate(-61.823 193.747 227.796)" fill="#F6B0A6" cx="193.746" cy="227.798" rx="9" ry="15.1"/><path fill="#2D2D39" d="M232 233.3c-3.3 4.3 10.5 12.3 12.4 13.4v.1h.1c.1 0 .1.1.1.1v-.1c2.1-.7 17.2-5.7 14.8-10.6-2.4-4.9-24.1-7.1-27.4-2.9z"/><path fill="#3D3D44" d="M246 233c-5.9-.7-10.8-.4-11 .3-.1.8 4.7 2 10.6 2.5 5.9.7 10.8.4 11-.3.2-.7-4.6-1.8-10.6-2.5z"/><path fill="#2D2D39" d="M230.9 263.8c3.9 9.3 17.5 10.3 23.4 2.4-7.8 3.4-16.5 3.1-23.4-2.4zM217.8 193.7c-5.3 0-9.5 6.4-9.6 14.2s4.2 14.3 9.4 14.3c5.3 0 9.5-6.4 9.6-14.2 0-7.7-4.3-14.2-9.4-14.3z"/><path fill="#2D2D39" d="M199.9 200.7c1.3 6.4 8.8 8.1 14 5.5l-3.5-5.4c-2.6 3.6-7.7 3.8-10.5-.1z"/><path fill="#F9FCF8" d="M219 197.1c-2.1.4-3.2 3.4-2.5 6.6.7 3.3 2.8 5.6 4.8 5.1 2.1-.4 3.2-3.4 2.5-6.6-.7-3.3-2.8-5.6-4.8-5.1z"/><path fill="#2D2D39" d="M209.7 125.8c26.754-4.021 32.301-6.04 45.819-4.965 15.265 1.215 19.517 4.378 46.981 14.365-22.687-15.9-41.561-17.376-46.631-17.787-15.778-1.28-31.513 2.058-46.169 8.387z"/><path fill="#2D2D39" d="M169.076 158.547C155.776 113.447 185.5 79.5 191.8 73.2c27.2 26 34.6 48.6 34.7 48.9l3.2-1c-.2-1.2-7.9-24.6-36.7-51.6l-1.1-1.1-1.1 1.1c-.4.4-41.7 39.1-23.9 92.8l2.176-3.753z"/><path fill="#2D2D39" d="M190.5 71.5c14.5 22 19.9 44.3 16.3 47.9-1.8 1.8-4.3.4-7.9-1.9-2.4-1.4-4.4-2.7-6.4-2.4-3.1.4-3.4 4.8-3.8 9.7-.157 2.427-.497 5.835-1.213 7.68-.535 1.378-.842 1.55-2.306.086-1.188-1.188-2.958-3.585-5.081-8.166 1.759 13.49 7.232 13.244 8.8 11.9 2.5-1.9 2.8-6.4 3.3-11.2.2-2.2.4-5.9 1.1-6.7.8 0 2.6 1.2 3.9 2 3.5 2.2 8.3 5.3 12 1.3 5.7-5.9-1.863-30.369-15.863-51.669L190.5 71.5zM143.8 241.5c.4-15.1 5.3-31.7 11.2-46.4 4.422-11.054 8.928-21.768 12.659-30.033 8.817-19.528 7.756-17.169 7.841-17.367-5.233 8.372-6.497 10.436-9.645 16.225-10.093 18.561-24.679 49.853-25.455 77.575-1.4 47.1 68.5 62.8 69.2 62.9 0 0-13.8-6.6-29-14.2-18-9.1-37.5-24.6-36.8-48.7z"/><path fill="#2D2D39" d="M165 213.8c-15.4-11-33.5-18.8-52.2-21.8 18 5.7 35.3 13.3 52.2 21.8zM112.5 209.7c16 1.1 31.5 4.8 46.4 10.7-13.6-8.4-30.3-12.5-46.4-10.7zM110 235.2c15.6-6.7 33-8 49.7-5.7-16.3-5.1-35.2-3.7-49.7 5.7z"/><path fill="#FFFAF5" d="M249.7 122.6c-4.7-.4-8.7.2-8.8 1.6s3.6 2.8 8.3 3.4c4.7.4 8.7-.2 8.8-1.6s-3.6-3-8.3-3.4zM268.1 125.4c-2.8-.3-5.3.1-5.4 1s2.2 1.8 5 2.1 5.3-.1 5.4-1-2.2-1.7-5-2.1z"/><path fill="#2D2D39" d="m242.557 251.68 1.154-10.235 2.484.28-1.154 10.235z"/><path fill="#2D2D39" d="M246 252.8c-1.8-.5-3.6-1-5.5-1.1-1.9-.2-3.7 0-5.5.2l-.2-2.5c2 0 4.1 0 6 .4 2 .3 3.8 1 5.7 1.8 1.8.8 3.5 1.8 5 3s3.1 2.4 4.3 3.9c-1.3-1.4-3-2.5-4.6-3.4-1.7-1-3.4-1.7-5.2-2.3z"/><path fill="#2D2D39" d="M232.7 256.9c1.8-4.3 3.5-7.3-.1-12.4 5.3 2 5.2 10.2.1 12.4z"/><path fill="#FDE7CF" d="M177.532 307.018s12.098.055 17.098-2.845c5-2.8 6.17-11.372 6.17-11.372l-.4-9 .3-3.5s2.6-.3 2.7-.2c.1.1 7 5.4 7.1 5.6s5.3 4.4 6.2 4.8c1 .4 13.4 4.9 13.4 4.9s10.7 4.1 10.8 4.2 5.8 4.4 5.9 4.7c.1.3-.2 4.6-.2 4.6l-11.2 3.9-5.5-1.8s-4.2 8.9-4.6 9c-.3.1-11.5 19.2-11.5 19.2l-10 5.7-8.7 1.8-12.8.2-11.4-4.2-13.1-8.2s-7-8.9-7.1-9.1-3-11.4-2.8-11.7c.1-.3 2.2-10.2 2.5-10.6.2-.3 8.3-11.1 17.4-14.7 0 0 1.2 10.7 8.9 18.2l.832.417z"/><path fill="#E0BCA2" d="m225.571 319.83-4.971 8.57-6.5 10.2-9.3 6.2-15.8 2-11.3-1.3-13.1-5.7-13.1-12.5-3.4-12.7s1.1-17.3 17-25c0 0-9.5 37.2 22.7 41.5 14.1 1.9 20.5-3.6 24.1-10.5 3.4.7 8.271.43 13.671-.77zM231.4 311.3h4.5l-4.8.4zM246.7 305.2c-.2-.5-.5-1.1-.8-1.6.4.5.7 1 .8 1.6zM246.9 307.9c0 .4-.1.8-.1.8l-.9.3 1-1.1z"/><path fill="#8A5D58" d="m246.9 307.9-1 1-7.1 2.3-3 .1h-4.5l-.1.2h-1.1l-4.7 8.4c-5.5 1.2-9.8 1.4-13.5.7 4.317-9.398 4.5-20.6 9.5-21.6 9.1-1.8 19.8.5 23.1 3 .5.4 1 .9 1.3 1.3.2.5.5 1.1.8 1.6.4 1.4.4 2.4.3 3z"/><path fill="#9D706B" d="M230 311.7h1.1l-5.8 8.5 4.7-8.5zM244.8 301.3c.1.1.7 1.1 1.2 2.2-.3-.4-.8-.9-1.3-1.3-3.3-2.4-13.9-4.4-23-2.7-5.1 1-5.2 12.1-9.8 21.1-15-2.7-16.3-17.5-16.3-17.5l3.411-6.373L199.6 283l1.8-3.6 4.4 1.2 7.678 7.964L232 295.7c-.3 0 12.6 5.5 12.8 5.6zM238.8 311.2l7.1-2.3-2.5 2.4h-7.5zM246.9 307.9c.1-.7.1-1.6-.2-2.7.5 1.1 1 2 1 2l-.8.7z"/><path fill="#2D2D39" d="M208.301 344.622c-9.694 4.482-23.386 4.385-30.801 2.278-1.4-.4-3.2-1-4.9-1.8-8.2-3.5-18.9-10.7-23.7-20.5-3.1-6.6-3.2-13.4-.1-20.4 4.4-10 11.6-15.3 18.5-18.3.9-.4 1.8-.8 2.6-1l.3 2.4c-.9.3-1.8.7-2.6 1.1-6.2 2.8-12.7 7.9-16.6 16.9-2.7 6.2-2.7 12.5.1 18.4 5.4 11.3 19.5 18.9 27.1 21 8.002 2.175 20.65 1.755 29.319-2.338 4.21-1.988 6.262-4.024 9.198-9.094 2.925-5.052 10.665-18.465 11.883-21.468.2-.7.2-1.3 0-1.8-.5-1.1-2.1-1.9-2.6-2 0 0 3.7-1.3 4.8 1 .5 1.1.5 2.4 0 3.7-1.077 3.147-8.945 16.654-11.843 21.712-1.093 1.906-3.212 6.768-10.656 10.21z"/><path fill="#2D2D39" d="M248.1 304c-2.8-4.5-14-9-19.3-10.1-7.443-1.595-12.134-4.456-15.583-7.184-3.19-2.523-5.36-4.933-6.617-6.116-1.7-1.6-3.4-2.1-4.9-1.9-1.244.233-3.168 1.164-3.299 7.016-.055 2.466.52 10.743-3.177 15.311-1.927 2.381-3.626 3.439-22.324 6.073 15.576 0 20.719.078 24.105-4.982 2.053-3.068 3.299-7.95 3.669-15.108.125-2.424-.533-9.218 4.426-4.709 2.485 2.193 4.58 4.01 6.472 5.538 5.712 4.611 9.57 6.578 16.728 8.262 5.5 1.2 15.5 5.5 17.7 9 1.793 2.391-3.591 7.085-15.8 5l-.3 2.4c.631.09 13.773 2.049 17.751-3.35.278-.378 1.971-2.759.449-5.151z"/><path fill="#64A7E2" d="M245 102.1c-2.9 0-5.2-1.9-6-4.7-.5-1.9-.1-3.8 1-5.3 1.2-1.5 3.1-2.4 5-2.4 5.469 0 7.945 6.294 4.9 10.1-1 1.5-2.9 2.3-4.9 2.3z"/><path fill="#2D2D39" d="M245.2 91.1c4.193 0 6.063 4.934 3.8 7.7-.9 1.2-2.4 1.8-3.9 1.8-2.2 0-4-1.4-4.5-3.6-.4-1.5-.1-2.9.8-4.1.8-1.1 2.2-1.8 3.8-1.8zm0-2.9c-2.4 0-4.7 1.1-6.2 3-1.4 1.8-1.9 4.2-1.3 6.6.9 3.5 3.8 5.9 7.4 5.9 2.4 0 4.7-1.1 6.2-2.9 4.097-4.917.237-12.6-6.1-12.6z"/><path fill="#64A7E2" d="M279.4 83.2c-.7 0-1.5-.1-2.3-.2-2.629-.876-4.453-2.396-5.4-5-1.3-3.9.1-8.7 4.9-16.4l.1-.2c4.7-6.2 11.4-8.6 17.4-10.6 1.9-.6 3.6-1.3 5.2-1.9 1.9-1.1 1.9-3.9 1.8-5.1-.1-2.8-3.6-5.5-6.6-6.2-1.6-.4-3.1-.6-4.5-.6-1.5 0-2.4.2-2.7.3-4.921 1.969-9.613-1.214-10.6-5.9-.8-3.7 1-7.3 4.5-8.8 2.3-1.1 5.3-1.6 8.5-1.6 12.8 0 26.8 8.5 27.3 22.1-.295 24.634-19.172 19.177-27.7 28-.9 1.1-1.4 2.7-1.9 4.3-.7 2.9-2.2 7.8-8 7.8z"/><path fill="#2D2D39" d="M289.9 22.6c12 0 25.1 7.8 25.5 20.4-.1 15.4-8.1 18.1-15.9 20.7-4 1.4-8.2 2.8-11.3 6.1-1.2 1.4-1.7 3.2-2.3 5-.9 3-2 6.7-6.5 6.7-4.183 0-5.658-2.773-6.1-4.1-1.1-3.3.3-7.8 4.8-15v-.1l.1-.1c4.3-5.7 10.8-8 16.5-10 1.9-.7 3.8-1.3 5.4-2 2.8-1.5 2.9-5.2 2.8-6.8-.366-6.775-11.004-9.799-16.1-8.1-5.598 2.099-8.045-2.826-8.4-4.6-.6-2.9.8-5.6 3.5-6.8 2.3-.8 5-1.3 8-1.3zm0-3.5c-3.5 0-6.6.6-9.2 1.8-4.2 1.9-6.5 6.2-5.5 10.8 1.316 6.052 7.424 9.482 12.9 7.2 2.612-.871 11.258.792 11.5 4.9.1 1 0 2.8-.9 3.4-1.5.6-3.2 1.2-5 1.8-5.9 2-13.2 4.6-18.2 11.2l-.1.1-.1.1v.1c-5.1 8.3-6.6 13.4-5.1 17.9.652 1.955 3.213 6.5 9.4 6.5 7.1 0 9-6.2 9.9-9.1.4-1.5.9-2.8 1.5-3.7 2.6-2.6 6.1-3.8 9.8-5.1 8.1-2.7 18.1-6.2 18.3-24 0-12.555-13.43-23.9-29.2-23.9z"/><path fill="#64A7E2" d="M271.2 101.4c-2.2 0-4.4-1.1-5.7-2.9-2.998-3.921-.443-10.7 5.4-10.7 2.2 0 4.4 1.1 5.7 2.9 1.3 1.7 1.6 3.9.9 6-1 3-3.4 4.7-6.3 4.7z"/><path fill="#2D2D39" d="M270.9 89.3c1.8 0 3.5.9 4.5 2.3 1 1.3 1.2 3 .7 4.7-.8 2.3-2.7 3.6-4.9 3.6-1.8 0-3.5-.9-4.5-2.3-2.445-3.423-.006-8.3 4.2-8.3zm0-2.8c-7.11 0-10.202 8.197-6.6 13 1.6 2.1 4.2 3.5 6.9 3.5 3.5 0 6.4-2.1 7.7-5.5.8-2.6.4-5.2-1.1-7.3-1.5-2.4-4.2-3.7-6.9-3.7zM245.9 309.8s39.501-3.416 51.801-7.416l-.101 3.316s-42 9.8-60.3 6.4l8.6-2.3z"/><g><path fill="#64A7E2" d="M241.2 84.4c-7.311 0-8.6-8.68-8.6-16 .662-8.744 7.31-14.865 10.2-19.2.4-.8.1-2.1-1-3.7-1.216-1.419-4.46-1.94-6.7-1.1-3.2 1-4.6 2.5-4.9 2.8-1.4 1.9-3.4 3-5.7 3-5.795 0-9.477-6.348-6.1-11.3 3.5-5.3 12.1-9.3 19.8-9.3 6.6 0 12.1 2.7 15.5 7.6l.1.1c10.93 17.634-5.057 23.105-6.8 32.4-.1 1 .2 2.3.6 3.5.8 2.7 2.3 8.2-4.2 10.8l-.6.2c-.765.255-1.7.2-1.6.2z"/><path fill="#2D2D39" d="M238.3 31.4c11.55 0 15.119 8.501 15.743 9.795 4.449 9.224.296 14.456-3.443 19.105-2.3 2.9-4.4 5.6-5.2 9.3-.2 1.4.2 2.9.6 4.3.522 1.761 1.171 4.074.145 5.998-1.52 2.85-5.645 3.719-8.196 1.741-3.598-2.789-3.879-11.531-3.387-14.706.818-5.278 4.004-9.366 6.938-13.033 1.1-1.4 2.1-2.6 2.9-3.9.919-1.969.312-7.8-6.6-7.8-2.084 0-6 1-8.8 3.8-1.1 1.5-2.6 2.4-4.4 2.4-2.1 0-4.1-1.2-5.1-3.1-.9-1.8-.8-3.8.4-5.5 3.3-4.8 11.2-8.4 18.4-8.4zm0-3.5c-8.4 0-17.4 4.2-21.3 10.1-1.9 2.8-2.1 6.2-.6 9.1 1.6 3 4.8 4.9 8.2 4.9 2.8 0 5.4-1.3 7.1-3.6.757-.757 3.36-2.5 6.1-2.5 3.468 0 3.5 2.601 3.5 2.7-.7 1.1-1.6 2.2-2.5 3.4-3.012 3.833-6.606 8.416-7.592 14.584-.196 1.229-.975 13.15 4.519 17.798 4.441 3.758 11.66 1.677 13.827-3.237 1.401-3.177.391-6.721-.054-8.246-.3-1-.6-2.1-.5-2.8.6-2.8 2.4-5 4.5-7.6 3.797-4.723 9.394-11.761 3.769-23.179-.37-.752-4.934-11.42-18.969-11.42z"/></g></svg>