<svg height="512" width="512" xmlns="http://www.w3.org/2000/svg"><g fill="#e36254"><path d="M370.345 345.016c8.581 5.622 18.23 8.211 27.876 8.097 3.764-5.809 6.766-12.212 8.04-18.961-13.768 1.448-33.563-1.865-40.109-15.062-2.497 3.833-4.501 7.926-6.487 12.035 1.582 5.615 5.849 10.175 10.68 13.891zM350.453 347.407a60.085 60.085 0 0 1-9.07 9.64c1.71 11.523 10.712 23.475 22.696 25.879a85.316 85.316 0 0 0 17.291-11.037c-13.682-2.076-26.25-11.525-30.917-24.482zM329.144 365.229a62.89 62.89 0 0 1-12.198 4.715c-1.785 6.853-1.344 14.358 1.542 20.466a84.493 84.493 0 0 0 17.596.258c-5.886-6.763-8.472-16.48-6.94-25.439z"/></g><path d="M316.947 369.945c-5.371 1.452-10.931 2.181-16.505 2.076-4.984-.009-11.511-.873-15.045 3.287-4.805 7.367 27.77 14.756 33.092 15.103-2.886-6.108-3.328-13.613-1.542-20.466z" fill="#a63c30"/><path d="M318.489 392.13c-.037 0-.075-.001-.112-.004-3.36-.219-30.809-5.534-34.675-13.262-.75-1.499-.659-3.095.255-4.497.039-.061.083-.119.13-.174 3.565-4.197 9.462-4.049 14.2-3.931.741.019 1.465.037 2.159.038 5.34.106 10.731-.578 16.053-2.017a1.719 1.719 0 0 1 2.112 2.094c-1.735 6.664-1.213 13.698 1.433 19.298a1.719 1.719 0 0 1-1.555 2.455zm-31.703-15.799c-.199.343-.198.613-.007.995 2.258 4.512 20.88 9.547 29.008 10.982-1.677-4.925-2.065-10.534-1.105-16.033-4.751 1.062-9.539 1.561-14.272 1.465a97.72 97.72 0 0 1-2.209-.038c-4.172-.106-8.894-.223-11.415 2.629z" fill="#7d271d"/><path d="M370.345 345.016c-4.831-3.716-9.098-8.276-10.68-13.891-2.715 5.625-5.427 11.29-9.212 16.282 4.667 12.957 17.235 22.406 30.917 24.482 6.521-5.363 12.257-11.686 16.851-18.775-9.646.113-19.295-2.476-27.876-8.098z" fill="#a63c30"/><path d="M381.37 373.609c-.086 0-.172-.006-.258-.02-14.816-2.248-27.485-12.297-32.277-25.599a1.72 1.72 0 0 1 .248-1.622c3.624-4.779 6.311-10.348 8.909-15.733l.124-.258a1.719 1.719 0 0 1 3.205.281c1.266 4.492 4.544 8.73 10.021 12.954 7.964 5.204 17.243 7.893 26.859 7.781h.02a1.72 1.72 0 0 1 1.443 2.656c-4.621 7.132-10.409 13.581-17.202 19.168-.31.255-.696.392-1.092.392zm-28.977-25.93c4.463 11.313 15.733 20.18 28.479 22.387 5.435-4.553 10.182-9.685 14.148-15.293-9.163-.453-17.961-3.301-25.618-8.318a2.017 2.017 0 0 1-.106-.075c-4.612-3.548-7.845-7.171-9.791-10.987-2.07 4.207-4.301 8.425-7.112 12.286z" fill="#7d271d"/><path d="M341.383 357.047a63.074 63.074 0 0 1-12.239 8.182c-1.532 8.959 1.054 18.675 6.941 25.439 9.698-.86 19.221-3.528 27.993-7.743-11.983-2.403-20.985-14.355-22.695-25.878z" fill="#a63c30"/><path d="M336.085 392.388a1.72 1.72 0 0 1-1.297-.591c-6.152-7.068-8.964-17.359-7.34-26.858.092-.535.43-.995.913-1.242a61.412 61.412 0 0 0 11.905-7.959 1.72 1.72 0 0 1 2.818 1.056c1.495 10.075 9.479 22.066 21.333 24.445a1.719 1.719 0 0 1 .406 3.237c-9.094 4.371-18.712 7.03-28.586 7.906-.05.004-.101.006-.152.006zm-5.375-26.034c-1.117 7.973 1.185 16.45 6.112 22.517a78.881 78.881 0 0 0 22.359-5.639c-9.818-4.017-16.622-13.874-18.922-23.049a64.997 64.997 0 0 1-9.549 6.171z" fill="#7d271d"/><path d="M405.727 334.205c.177-.015.356-.035.534-.053 6.068-31.322-24.057-41.058-40.109-15.062 6.435 13.034 25.952 16.433 39.575 15.115z" fill="#a63c30"/><path d="M400.136 336.19c-6.03 0-12.143-.87-17.407-2.519-8.743-2.739-15.009-7.518-18.12-13.819a1.722 1.722 0 0 1 .079-1.665c9.128-14.781 22.127-17.917 30.96-14.468 10.313 4.027 15.141 16.101 12.302 30.761a1.72 1.72 0 0 1-1.523 1.385l-.185.019a60.255 60.255 0 0 1-6.106.306zm-31.998-17.021c6.086 10.833 22.948 14.534 36.661 13.392 2.017-12.369-1.995-22.356-10.401-25.638-7.344-2.869-18.22-.146-26.26 12.246z" fill="#7d271d"/><g><path d="M318.343 392.125c-2.501-.137-10.563-1.779-18.249-4.194-15.687-4.929-16.541-8.855-16.822-10.146-.355-1.632.093-4.025 4.243-6.154.029-.015.059-.029.088-.042 4.282-1.899 9.645-1.28 13.858-1.28 13.835 0 27.925-5.279 38.804-14.57l.044-.036c10.15-8.105 15.404-20.46 21.165-32.027 3.507-7.459 10.703-16.685 20.336-20.105 5.47-1.943 10.84-1.677 15.959.789.061.029.12.062.177.098 5.505 3.5 8.946 8.753 10.226 15.614 2.322 12.442-3.064 26.729-9.437 35.382-17.208 25.318-47.719 40.543-80.392 36.671zm-29.302-17.41c-1.643.85-2.542 1.723-2.408 2.34.328 1.506 4.32 4.399 14.492 7.594 4.826 1.516 12.163 3.432 17.566 4.054 31.657 3.771 60.825-11.071 77.215-35.208l.039-.055c5.748-7.791 10.967-21.358 8.844-32.736-1.091-5.85-3.987-10.32-8.605-13.288-4.235-2.013-8.685-2.215-13.224-.604-7.115 2.527-14.334 9.734-18.391 18.362-6.025 12.1-11.346 24.606-22.092 33.199-11.766 10.038-27.11 15.647-42.067 15.366-3.616-.067-8.181-.415-11.369.976z" fill="#7d271d"/></g><g><path d="M132.686 330.404c-5.75 1.07-12.699 2.292-16.288 7.382-3.883 4.721-.607 13.498 6.024 11.987-8.979 8.951 5.884 21.825 11.836 9.895-.138 5.585 7.228 8.087 11.15 4.54 5.864-4.872 5.357-10.979 5.935-14.845 7.563-6.25 48.042-49.449 55.605-55.699l-19.166-22.114c-7.605 10.086-55.096 58.854-55.096 58.854z" fill="#a63c30"/><path d="M140.943 367.566a9.12 9.12 0 0 1-3.799-.829c-1.566-.718-2.786-1.801-3.576-3.12-1.755 1.778-3.933 2.685-6.291 2.583-3.689-.174-7.275-2.909-8.719-6.651-1.06-2.745-.865-5.579.491-8.125-1.845-.483-3.445-1.684-4.57-3.506-2.136-3.458-1.902-8.146.549-11.174 3.885-5.456 11.003-6.851 16.806-7.93 4.515-4.644 47.479-48.888 54.574-58.3a1.717 1.717 0 0 1 2.673-.09l19.165 22.114a1.723 1.723 0 0 1-.204 2.453c-3.709 3.065-15.889 15.602-27.667 27.725-11.868 12.216-23.106 23.783-27.415 27.53-.05.432-.093.897-.139 1.379-.371 3.957-.879 9.374-6.289 13.886-1.509 1.35-3.522 2.055-5.589 2.055zm-6.686-9.619a1.72 1.72 0 0 1 1.72 1.762c-.06 2.417 1.8 3.534 2.602 3.902 1.626.745 4.011.824 5.674-.679l.055-.048c4.342-3.607 4.739-7.844 5.089-11.583.072-.773.141-1.504.244-2.194.063-.419.278-.801.606-1.072 3.709-3.065 15.885-15.599 27.661-27.72 11.195-11.523 21.829-22.469 26.618-26.821l-16.687-19.254c-10.473 12.722-52.07 55.462-53.921 57.362a1.72 1.72 0 0 1-.917.491l-.273.051c-5.529 1.028-11.795 2.193-14.925 6.631-.024.035-.05.069-.077.102-1.776 2.159-1.491 5.338-.321 7.233.615.995 2.031 2.578 4.634 1.985a1.72 1.72 0 0 1 1.596 2.895c-2.949 2.94-2.437 5.848-1.868 7.32.953 2.47 3.339 4.343 5.672 4.453 2.144.088 3.967-1.236 5.279-3.865a1.723 1.723 0 0 1 1.539-.951zm-1.571-27.543h.005z" fill="#7d271d"/></g><g><path d="M163.489 369.432c-4.21 27.429-12.911 71.881-12.911 71.881s-20.577 11.543-16.562 17.566c4.015 6.022 35.468 7.026 40.82 0s40.494-67.252 40.494-67.252z" fill="#a63c30"/><path d="M154.979 465.5c-.82 0-1.63-.013-2.428-.038-3.885-.122-16.806-.89-19.965-5.628-.773-1.16-.996-2.547-.644-4.012 1.486-6.185 13.741-13.662 17.1-15.61 1.174-6.036 8.895-45.934 12.748-71.04a1.72 1.72 0 0 1 2.377-1.32l51.842 22.196a1.72 1.72 0 0 1 .809 2.448c-1.437 2.463-35.257 60.397-40.611 67.427-3.149 4.13-12.621 5.577-21.228 5.577zm9.87-93.614c-4.279 27.276-12.497 69.326-12.582 69.758a1.724 1.724 0 0 1-.846 1.17c-5.728 3.215-15.174 9.808-16.135 13.812-.165.688 0 1.056.162 1.299 1.174 1.761 7.604 3.796 17.211 4.098 9.968.317 18.723-1.446 20.81-4.187 4.73-6.209 33.667-55.6 39.394-65.395zm-14.27 69.428h.005z" fill="#7d271d"/></g><g><path d="M235.728 368.941c4.666 28.218 19.523 72.373 19.523 72.373s-20.577 11.543-16.562 17.566c4.015 6.022 35.468 7.026 40.821 0s8.06-67.743 8.06-67.743z" fill="#a63c30"/><path d="M259.652 465.5c-.82 0-1.63-.013-2.428-.038-3.885-.122-16.806-.89-19.965-5.628-.774-1.16-.996-2.547-.645-4.012 1.416-5.892 12.602-12.955 16.563-15.296-2.513-7.62-14.966-46.025-19.146-71.304a1.72 1.72 0 0 1 2.374-1.862l51.842 22.196a1.721 1.721 0 0 1 1.041 1.658c-.279 6.27-2.891 61.463-8.41 68.708-3.148 4.131-12.619 5.578-21.226 5.578zm-21.683-93.729c5.104 27.802 18.77 68.57 18.913 68.994a1.721 1.721 0 0 1-.788 2.049c-5.728 3.215-15.174 9.808-16.135 13.812-.165.688 0 1.056.162 1.299 1.174 1.761 7.605 3.796 17.211 4.098 9.965.317 18.723-1.446 20.81-4.187 3.628-4.762 6.535-41.37 7.656-65.588z" fill="#7d271d"/></g><g><path d="M294.765 373.846c-11.401 32.598-104.462 48.348-128.776 5.381-12.013-24.664 10.619-85.699 21.649-121.9l91.887-.238c5.313 25.517 22.512 101.687 15.24 116.757z" fill="#e36254"/><path d="M283.363 283.589c-28.039 18.095-84.134 13.367-103.69 0 1.935-6.321 6.132-20.231 7.964-26.262l91.887-.238c3.305 6.378 1.874 18.145 3.839 26.5z" fill="#a63c30"/><path d="M223.821 406.907c-10.489 0-20.385-1.41-29.117-4.182-13.872-4.404-24.319-12.237-30.212-22.651a1.2 1.2 0 0 1-.049-.094c-4.765-9.784-4.786-25.607-.064-48.37 4.011-19.334 10.656-40.182 16.518-58.577 1.84-5.774 3.579-11.227 5.096-16.208a1.718 1.718 0 0 1 1.641-1.218l91.887-.238h.004a1.72 1.72 0 0 1 1.701 1.465c1.662 11.084 4.317 23.431 7.128 36.504 6.553 30.479 13.328 61.995 8.07 80.968l-.019.064c-4.993 15.639-29.626 28.746-59.902 31.874-4.297.443-8.537.663-12.682.663zm-56.309-28.48c12.449 21.925 43.612 26.98 68.636 24.395 28.477-2.942 52.426-15.332 56.969-29.467 5.015-18.162-1.665-49.24-8.127-79.294-2.699-12.556-5.255-24.444-6.941-35.248l-89.137.231c-1.433 4.667-3.042 9.715-4.737 15.034-11.257 35.317-26.669 83.676-16.663 104.349zm127.253-4.581h.005z" fill="#7d271d"/></g><g><path d="M223.68 307.349c-.965 8.309-1.77 17.607.829 25.696.614 1.911 3.151 1.421 3.348-.453.883-8.367.103-16.84 1.029-25.243.367-3.332-4.825-3.287-5.206 0zM214.8 304.5c-2.36 6.263-4.681 14.316-2.89 21.004.435 1.626 2.899 1.653 3.321 0 1.26-6.591 1.445-13.459 3.757-19.849.866-2.698-3.219-3.727-4.188-1.155zM233.114 304.642a108.91 108.91 0 0 1 2.272 11.184c.701 1.994.501 16.275 4.497 11.117 1.74-7.827.271-16.059-1.616-23.722-.866-3.325-6.022-1.915-5.153 1.421zM215.071 335.586c-.172 2.14 1.029 19.223 4.895 12.786.242-4.233-.361-8.546-.449-12.786-.06-2.857-4.491-2.868-4.446 0zM233.491 337.468c.448 2.328-1.498 15.934 3.512 11.751 1.588-3.671 1.487-7.82 1.349-11.751-.11-3.123-5.006-3.127-4.861 0zM225.209 349.889c-.185 3.147-.399 7.193 1.437 9.936 5.426 3.791 2.798-7.372 3.147-9.935.105-2.962-4.412-2.929-4.584-.001z" fill="#f0857a"/></g><g><circle cx="362.237" cy="379.01" fill="#fcd242" transform="rotate(-80.8 362.165 379.05)" r="84.77"/><path d="M362.236 465.5c-47.691 0-86.49-38.799-86.49-86.49s38.799-86.49 86.49-86.49 86.49 38.799 86.49 86.49c.001 47.691-38.799 86.49-86.49 86.49zm0-169.54c-45.794 0-83.05 37.256-83.05 83.05s37.256 83.05 83.05 83.05 83.05-37.256 83.05-83.05c.001-45.794-37.256-83.05-83.05-83.05z" fill="#ff713e"/><circle cx="362.237" cy="379.01" fill="#fc9928" r="57.742"/><path d="M419.977 379.008c0 17.519-7.8 33.211-20.116 43.802a57.504 57.504 0 0 0 13.923-37.609c0-31.888-25.849-57.741-57.74-57.741-14.376 0-27.521 5.253-37.624 13.943 10.59-12.328 26.29-20.136 43.817-20.136 31.891.001 57.74 25.854 57.74 57.741z" fill="#fc8028"/><path d="M383.904 385.628c-2.175-4.175-6.67-7.548-12.999-9.752-1.593-.555-3.203-1.014-4.798-1.441v-21.936c2.362.316 4.773 1.101 7.049 2.611 2.567 1.704 3.954 4.401 3.373 6.559a3.87 3.87 0 1 0 7.474 2.014c1.458-5.411-1.181-11.449-6.567-15.023-3.393-2.252-7.213-3.57-11.33-3.959v-4.181a3.87 3.87 0 1 0-7.742 0v4.504c-1.37.231-2.758.543-4.167.955-5.957 1.743-10.814 5.788-12.993 10.821-1.776 4.101-1.639 8.563.387 12.563 2.135 4.216 6.609 7.621 12.939 9.848 1.272.447 2.555.833 3.834 1.189v22.783c-1.736-.166-3.391-.539-4.9-1.119-3.296-1.267-7.007-4.081-6.615-7.842a3.871 3.871 0 0 0-7.7-.802c-.696 6.68 3.833 12.909 11.538 15.871 2.373.912 4.974 1.46 7.677 1.651v4.583a3.87 3.87 0 1 0 7.742 0v-5.006c.376-.067.751-.138 1.126-.219 6.111-1.31 11.263-4.229 14.508-8.219 3.976-4.888 4.825-11.345 2.164-16.453zm-26.803-13.722c-4.349-1.529-7.403-3.675-8.602-6.042-.995-1.965-1.059-3.98-.189-5.988 1.256-2.902 4.346-5.379 8.063-6.467a29.457 29.457 0 0 1 1.992-.507v19.421a46.724 46.724 0 0 1-1.264-.417zm18.635 25.287c-2.024 2.489-5.515 4.446-9.629 5.419v-20.138c.761.224 1.514.456 2.251.712 4.368 1.521 7.451 3.659 8.679 6.017 1.233 2.367.722 5.502-1.301 7.99z" fill="#fcd242"/><path d="M362.236 421.112a5.597 5.597 0 0 1-5.59-5.591V412.5c-2.327-.284-4.532-.822-6.574-1.608-8.453-3.248-13.411-10.178-12.632-17.654.319-3.058 3.069-5.29 6.136-4.982a5.6 5.6 0 0 1 4.986 6.141c-.312 2.987 3.324 5.214 5.521 6.059.805.309 1.662.555 2.563.736v-19.498a56.187 56.187 0 0 1-2.685-.863c-6.756-2.376-11.564-6.074-13.903-10.693-2.261-4.464-2.414-9.444-.431-14.023 2.38-5.496 7.647-9.903 14.089-11.789a37.995 37.995 0 0 1 2.93-.73v-3.078a5.597 5.597 0 0 1 5.59-5.591 5.597 5.597 0 0 1 5.591 5.591v2.66c3.834.579 7.38 1.937 10.561 4.047 6.004 3.984 8.928 10.777 7.277 16.904-.388 1.442-1.315 2.646-2.61 3.391s-2.802.942-4.243.552a5.55 5.55 0 0 1-3.391-2.61 5.555 5.555 0 0 1-.553-4.243c.379-1.408-.766-3.419-2.663-4.678a14.644 14.644 0 0 0-4.378-1.956v18.535c1.114.312 2.381.69 3.644 1.129 6.751 2.352 11.578 6.011 13.958 10.583 2.978 5.717 2.054 12.911-2.354 18.329-3.449 4.241-8.857 7.347-15.249 8.764v3.594a5.596 5.596 0 0 1-5.59 5.593zm-19.231-29.444a2.158 2.158 0 0 0-2.143 1.928c-.613 5.884 3.486 11.413 10.445 14.087 2.187.84 4.602 1.359 7.18 1.541a1.719 1.719 0 0 1 1.599 1.716v4.583c0 1.186.965 2.151 2.15 2.151a2.154 2.154 0 0 0 2.151-2.151v-5.006a1.72 1.72 0 0 1 1.417-1.693c.356-.064.712-.131 1.067-.207 5.731-1.229 10.537-3.936 13.536-7.622 3.541-4.353 4.314-10.072 1.971-14.57-1.968-3.779-6.131-6.865-12.039-8.922-1.67-.582-3.377-1.056-4.677-1.404a1.72 1.72 0 0 1-1.276-1.661v-21.936a1.719 1.719 0 0 1 1.948-1.704c2.849.382 5.464 1.351 7.772 2.883 3.225 2.14 4.865 5.531 4.083 8.439a2.135 2.135 0 0 0 .212 1.632c.287.498.75.855 1.305 1.004a2.127 2.127 0 0 0 1.632-.212c.498-.286.854-.75 1.004-1.304 1.266-4.697-1.088-9.978-5.857-13.143-3.129-2.076-6.675-3.314-10.54-3.68a1.72 1.72 0 0 1-1.558-1.712v-4.181c0-1.186-.965-2.151-2.151-2.151s-2.15.965-2.15 2.151v4.504a1.72 1.72 0 0 1-1.434 1.696c-1.35.227-2.686.534-3.97.909-5.472 1.601-9.92 5.285-11.898 9.854-1.569 3.624-1.447 7.566.343 11.102 1.931 3.813 6.072 6.926 11.976 9.002 1.092.384 2.275.751 3.725 1.156a1.72 1.72 0 0 1 1.258 1.657v22.783a1.718 1.718 0 0 1-1.884 1.713c-1.912-.183-3.714-.596-5.353-1.226-3.864-1.486-8.202-4.898-7.709-9.626a2.154 2.154 0 0 0-1.917-2.362 1.152 1.152 0 0 0-.218-.018zm23.102 12.664a1.72 1.72 0 0 1-1.72-1.72v-20.138a1.72 1.72 0 0 1 2.205-1.651c.942.277 1.661.504 2.332.738 4.853 1.69 8.186 4.058 9.639 6.847 1.55 2.975.963 6.849-1.493 9.869-2.245 2.76-6.097 4.95-10.567 6.007a1.67 1.67 0 0 1-.396.048zm1.72-19.509v15.502c2.811-.974 5.144-2.458 6.575-4.217 1.589-1.954 2.026-4.352 1.111-6.109-1.008-1.935-3.808-3.821-7.686-5.176zm-9.461-10.781c-.174 0-.349-.026-.519-.08a42.21 42.21 0 0 1-1.316-.434c-4.838-1.701-8.146-4.083-9.566-6.888-1.22-2.408-1.301-4.983-.233-7.449 1.454-3.358 4.963-6.207 9.159-7.435a30.956 30.956 0 0 1 2.112-.537 1.72 1.72 0 0 1 2.084 1.682v19.421a1.719 1.719 0 0 1-1.721 1.72zm-1.72-18.92c-3.145.977-5.722 3.045-6.758 5.436-.666 1.539-.619 3.02.145 4.527.894 1.766 3.277 3.492 6.613 4.814z" fill="#f5612c"/><g><path d="M362.236 438.471c-32.787 0-59.461-26.674-59.461-59.462s26.674-59.462 59.461-59.462c32.788 0 59.462 26.674 59.462 59.462s-26.674 59.462-59.462 59.462zm0-115.483c-30.89 0-56.021 25.132-56.021 56.022s25.131 56.022 56.021 56.022c30.891 0 56.022-25.131 56.022-56.022s-25.131-56.022-56.022-56.022z" fill="#f5612c"/></g></g><g><path d="M342.259 298.238c-6.559-8.507-19.825-18.064-29.497-23.902-13.606-8.213-27.956-11.852-34.153-3.511-1.454 1.957-2.596 4.185-3.192 6.606-3.439 13.969 13.242 25.304 28.268 32.169-6.849 7.407-15.033 15.177-17.211 17.757-3.49.484-8.989-.03-13.437 5.209-1.464 1.725-1.95 4.259-1.181 6.387s2.905 3.745 5.167 3.706c-2.73.881-4.578 3.835-4.333 6.693s2.457 5.399 5.212 6.195c2.756.797 5.891-.105 7.927-2.127-.721 2.522.875 5.36 3.266 6.44s5.306.571 7.481-.897c2.174-1.467 3.672-3.776 4.612-6.225s1.77-5.797 2.195-8.386c0 0 12.024-7.769 24.104-16.07 10.228-6.83 22.5-20.02 14.772-30.044z" fill="#a63c30"/><path d="M291.892 362.161a8.489 8.489 0 0 1-3.504-.734 7.67 7.67 0 0 1-4.177-4.817c-2.125.991-4.559 1.234-6.786.59-3.494-1.01-6.146-4.177-6.448-7.701-.2-2.329.659-4.632 2.182-6.301-1.312-.864-2.374-2.148-2.92-3.662-.975-2.697-.392-5.871 1.487-8.084 4.167-4.91 9.106-5.32 12.712-5.62.41-.034.807-.067 1.177-.105 1.187-1.319 3.263-3.406 5.807-5.962 2.8-2.813 6.185-6.215 9.393-9.613-12.672-6.108-30.851-17.767-27.067-33.133.62-2.516 1.791-4.945 3.482-7.221 6.078-8.181 19.693-7.034 36.423 3.064 10.142 6.122 23.342 15.728 29.97 24.325 2.35 3.047 3.223 6.535 2.594 10.367-1.397 8.519-10.097 17.031-17.772 22.157-10.381 7.134-20.853 13.961-23.493 15.675-.503 2.753-1.325 5.804-2.155 7.967-1.183 3.081-3 5.513-5.257 7.034-1.736 1.172-3.723 1.774-5.648 1.774zm-6.063-10.461a1.72 1.72 0 0 1 1.653 2.192c-.459 1.61.603 3.625 2.32 4.4 1.707.772 3.988.475 5.81-.755 2.108-1.421 3.322-3.73 3.969-5.416.83-2.163 1.656-5.322 2.103-8.047.079-.479.356-.902.764-1.166.12-.078 12.143-7.853 24.063-16.044 6.77-4.521 15.087-12.426 16.307-19.866.475-2.894-.154-5.416-1.923-7.71-6.338-8.22-19.148-17.518-29.024-23.48-11.623-7.015-26.102-11.739-31.884-3.957-1.417 1.907-2.393 3.923-2.903 5.992-3.411 13.855 15.648 24.864 27.313 30.193a1.72 1.72 0 0 1 .548 2.732c-3.696 3.998-7.795 8.116-11.088 11.425-2.741 2.754-5.108 5.133-6.072 6.275a1.721 1.721 0 0 1-1.078.594 36.78 36.78 0 0 1-1.988.2c-3.34.277-7.127.592-10.374 4.417-1.078 1.27-1.429 3.154-.874 4.689.533 1.475 2.017 2.571 3.47 2.571h.08a1.72 1.72 0 0 1 .528 3.357c-1.914.618-3.327 2.821-3.147 4.91.18 2.104 1.852 4.076 3.976 4.69 2.098.606 4.605-.075 6.237-1.695.333-.33.771-.501 1.214-.501z" fill="#7d271d"/></g><g><path d="M225.622 82.249c-10.223-15.675-26.149-46.544-43.864-52.786-9.199-1.784-7.224 6.734-1.004 9.669-14.321-5.542-26.557 7.704-11.588 7.871-17.411 21.119-27.694 67.926-19.793 84.413z" fill="#ffe8db"/><path d="M149.374 133.136c-.641 0-1.257-.36-1.552-.977-8.103-16.909 1.801-61.556 18.056-83.723-3.198-.589-4.484-1.971-4.98-3.167-.681-1.641-.148-3.527 1.46-5.174 2.453-2.512 7.195-4.297 12.552-3.979-1.06-1.783-1.457-3.713-.922-5.346.422-1.291 2.055-4.166 8.099-2.994.082.016.164.038.244.066 15.178 5.348 28.868 27.72 38.864 44.056 2.102 3.434 4.086 6.678 5.869 9.412a1.72 1.72 0 1 1-2.881 1.879c-1.81-2.775-3.808-6.04-5.922-9.496-9.699-15.85-22.971-37.54-36.953-42.564-2.223-.411-3.772-.143-4.051.71-.422 1.29 1.051 4.236 4.232 5.738a1.719 1.719 0 0 1-1.355 3.159c-6.805-2.634-13.052-.555-15.315 1.762-.65.665-.841 1.22-.743 1.453.183.443 1.488 1.292 5.11 1.332a1.72 1.72 0 0 1 1.308 2.814c-7.918 9.604-15.035 25.767-19.039 43.233-3.868 16.877-4.072 31.952-.53 39.342a1.72 1.72 0 0 1-1.551 2.464z" fill="#e0a58f"/><path d="M183.71 56.366c10.577-2.836 24.607 30.193 25.937 36.161 1.329 5.968-37.142 25.247-42.823 20.673-5.682-4.573 7.545-54.329 16.886-56.834z" fill="#a63c30"/><path d="M169.645 115.581c-1.659 0-3.002-.318-3.9-1.041-2.642-2.127-2.691-9.326-.144-21.395 2.914-13.812 10.287-36.462 17.664-38.44 2.035-.545 4.216-.128 6.479 1.243 10.381 6.291 20.577 31.69 21.582 36.205.39 1.748-.244 4.788-10.201 10.976-8.08 5.022-23.463 12.452-31.48 12.452zm15.39-57.668c-.303 0-.596.038-.88.115-4.174 1.118-11.186 17.46-15.005 34.969-2.777 12.735-2.041 18.208-1.248 18.863 1.037.837 6.822.327 17.924-4.588 5.594-2.476 11.224-5.512 15.449-8.329 5.325-3.55 6.621-5.57 6.683-6.083-1.172-5.149-11.216-28.648-19.998-33.97-1.078-.653-2.044-.977-2.925-.977zm-1.325-1.546h.005z" fill="#7d271d"/><path d="M292.448 94.814c15.218-10.892 41.27-33.867 60.041-33.248 9.218 1.679 4.285 8.898-2.577 9.373 15.287.011 21.991 16.818 7.938 11.543 8.551 26.001 1.13 73.346-12.22 85.837z" fill="#ffe8db"/><path d="M345.632 170.039a1.72 1.72 0 0 1-1.175-2.976c5.983-5.598 11.27-19.717 13.796-36.847 2.614-17.728 1.853-35.372-2.035-47.197a1.718 1.718 0 0 1 2.238-2.148c3.398 1.275 4.922.959 5.252.613.174-.181.194-.766-.17-1.621-1.276-2.988-6.346-7.2-13.625-7.204a1.72 1.72 0 0 1-.118-3.436c3.509-.243 5.952-2.453 6.027-3.808.05-.896-1.294-1.708-3.516-2.134a21.53 21.53 0 0 0-.569-.008c-14.796 0-34.715 15.141-49.321 26.243-3.225 2.451-6.272 4.767-8.966 6.695a1.72 1.72 0 0 1-2.003-2.796c2.654-1.899 5.681-4.201 8.886-6.637 15.247-11.59 36.141-27.459 52.213-26.931.085.003.168.012.251.027 6.055 1.103 6.533 4.376 6.458 5.732-.096 1.714-1.164 3.366-2.797 4.642 5.099 1.65 8.861 5.031 10.242 8.265.904 2.118.719 4.068-.507 5.349-.896.935-2.597 1.757-5.799 1.145 7.095 26.558.105 71.756-13.588 84.567a1.713 1.713 0 0 1-1.174.465z" fill="#e0a58f"/><path d="M340.9 85.924c-8.824-6.484-33.894 19.192-37.3 24.27-3.407 5.078 25.435 37.014 32.389 34.816s12.704-53.36 4.911-59.086z" fill="#a63c30"/><path d="M335.313 146.823c-6.977 0-21.137-14.996-27.626-23.656-7.028-9.381-6.514-12.443-5.516-13.931 2.577-3.841 21.303-23.802 33.259-25.893 2.606-.454 4.789-.053 6.488 1.195 6.155 4.523 4.796 28.305 2.493 42.234-2.011 12.168-4.671 18.856-7.905 19.878a3.96 3.96 0 0 1-1.193.173zm-30.261-35.706c-.128.501.346 2.854 4.015 8.094 2.912 4.158 7.055 9.031 11.366 13.37 8.562 8.616 13.763 11.19 15.038 10.79.976-.323 3.65-5.155 5.688-18.026 2.803-17.701 2.206-35.473-1.277-38.034-.927-.681-2.19-.871-3.859-.578-10.114 1.767-28.009 20.012-30.971 24.384z" fill="#7d271d"/><path d="M300.236 271.276c-64.053 8.99-92.134 3.687-148.538-28.068-17.903-10.847-38.839-29.375-40.514-46.074-3.459-23.739 63.185-96.518 78.345-111.762 23.863-17.758 120.847 1.717 136.681 25.701 8.535 13.352 33.367 105.573 32.149 121.145-1.665 21.297-28.137 33.425-58.123 39.058z" fill="#e36254"/><path d="M300.965 267.928a61.01 61.01 0 0 1-.729 3.348c-64.053 8.991-92.135 3.686-148.537-28.07 13.629-88.323 163.945-62.617 149.266 24.722z" fill="#ffe8db"/><path d="M303.647 186.751c-5.749 27.937-47.438 20.094-42.643-8.019 5.749-27.937 47.438-20.094 42.643 8.019z" fill="#fff"/><path d="M282.82 205.894c-1.612 0-3.212-.152-4.767-.444-10.897-2.05-21.411-11.376-18.745-27.008l.011-.057c3.196-15.534 16.378-20.403 27.278-18.352 10.897 2.05 21.411 11.376 18.745 27.008l-.011.057c-2.74 13.317-12.822 18.796-22.511 18.796zm-20.125-26.845c-2.258 13.324 6.705 21.273 15.995 23.02 9.291 1.748 20.528-2.402 23.267-15.637 2.257-13.324-6.705-21.272-15.995-23.02-9.29-1.746-20.529 2.403-23.267 15.637zm40.952 7.702h.005z"/><path d="M291.482 185.483c-3.445 16.736-28.418 12.038-25.547-4.804 1.636-10.652 16.317-14.278 22.796-5.874-9.296 3.092-6.357 12.363 2.975 8.488a13.026 13.026 0 0 1-.224 2.19z"/><path d="M178.552 163.228c-4.792 28.117 36.899 35.952 42.643 8.018 4.791-28.117-36.899-35.952-42.643-8.018z" fill="#fff"/><path d="M200.369 190.39c-1.611 0-3.21-.151-4.764-.443-10.898-2.049-21.413-11.374-18.749-27.008l.01-.058c3.195-15.532 16.377-20.401 27.275-18.353s21.413 11.373 18.749 27.007l-.011.058c-2.738 13.317-12.822 18.797-22.51 18.797zm-20.127-26.845c-2.255 13.326 6.708 21.274 15.999 23.021 9.287 1.747 20.527-2.404 23.263-15.638 2.256-13.325-6.708-21.273-15.998-23.02-9.292-1.745-20.527 2.404-23.264 15.637z"/><path d="M190.346 166.466c-2.892 18.319 24.931 21.126 25.77 2.613-9.335 3.874-12.271-5.399-2.975-8.488-6.479-8.404-21.158-4.778-22.795 5.875zM227.424 191.807l19.722 3.708c2.4.451 3.18 3.5 1.292 5.049l-11.448 9.391a3.782 3.782 0 0 1-5.73-1.133l-6.899-12.827c-1.145-2.129.688-4.635 3.063-4.188z"/><g><path d="M232.583 123.365c.546 8.821-24.969 10.147-25.338 1.317-.545-8.82 24.97-10.146 25.338-1.317z" fill="#ffe8db"/><path d="M218.843 132.396c-3.395 0-6.703-.603-9.128-1.851-3.333-1.715-4.117-4.096-4.188-5.792-.103-1.66.43-4.109 3.57-6.16 5.24-3.423 15.453-3.953 21.017-1.092 3.322 1.709 4.112 4.08 4.187 5.774.1 1.694-.441 4.135-3.57 6.179-2.955 1.932-7.494 2.942-11.888 2.942zm2.153-13.312c-3.735 0-7.624.825-10.017 2.389-1.408.921-2.087 1.964-2.016 3.103.049 1.174.831 2.142 2.326 2.911 4.479 2.304 13.342 1.844 17.562-.911 1.409-.921 2.087-1.965 2.017-3.104l-.002-.034c-.048-1.14-.83-2.107-2.325-2.877-1.939-.997-4.697-1.477-7.545-1.477z" fill="#e0a58f"/></g><g><path d="M288.095 144.183c-4.697 7.487-26.204-6.304-21.358-13.695 4.696-7.486 26.203 6.305 21.358 13.695z" fill="#ffe8db"/><path d="M283.539 148.064c-.162 0-.327-.004-.497-.011-6.252-.271-14.862-5.792-17.715-11.36-1.71-3.336-.959-5.728-.028-7.147.884-1.409 2.75-3.095 6.491-2.926 6.253.271 14.862 5.792 17.716 11.36 1.704 3.325.964 5.712.037 7.133-.865 1.369-2.601 2.951-6.004 2.951zm-12.241-18.016c-1.497 0-2.541.455-3.105 1.355-.644.983-.572 2.225.194 3.721 2.298 4.483 9.768 9.274 14.803 9.492 1.674.067 2.841-.381 3.447-1.347l.019-.029c.625-.954.553-2.196-.213-3.692-2.298-4.483-9.768-9.274-14.803-9.492a7.953 7.953 0 0 0-.342-.008z" fill="#e0a58f"/></g><path d="M158.991 181.717c-9.875 16.615-15.806 35.551-17.201 54.83-16.317-11.804-28.708-25.495-30.607-39.413 10.783-10.662 28.027-29.249 43.979-28.809 7.817.932 7.801 7.928 3.829 13.392zM316.052 211.25c3.165 19.066 1.813 38.864-3.89 57.332 19.49-5.071 36.008-13.326 42.832-25.603-6.173-13.851-15.488-37.432-30.511-42.816-7.622-1.97-10.147 4.553-8.431 11.087z" fill="#ffe8db"/><g><path d="M253.209 276.906c-11.121 0-20.945-.903-30.43-2.696-20.866-3.942-41.705-12.49-71.924-29.504l-.048-.028c-17.955-10.878-39.544-29.797-41.331-47.336-1.514-10.623 9.435-30.923 32.546-60.337 17.177-21.863 37.508-44.017 46.288-52.846.06-.061.124-.116.193-.167 12.756-9.494 43.728-8.236 68.462-3.895 28.632 5.027 61.592 16.26 70.681 30.027 9.101 14.237 33.639 106.748 32.428 122.226-1.506 19.265-22.644 33.689-59.52 40.615-.026.005-.052.01-.079.013-18.718 2.628-33.926 3.928-47.266 3.928zm-100.644-35.184c56.111 31.588 83.666 36.796 147.391 27.856 20.395-3.835 54.835-13.802 56.687-37.495 1.143-14.615-23.291-106.643-31.883-120.084-7.252-10.985-35.381-22.718-68.391-28.513-30.554-5.364-55.706-4.139-65.713 3.191-21.949 22.093-80.869 88.939-77.77 110.209l.009.076c1.529 15.237 21.022 33.456 39.67 44.76zm147.671 29.554h.005z" fill="#a63c30"/></g><g><path d="M234.621 243.351c-6.231 0-12.471-1.801-17.62-5.305a1.72 1.72 0 1 1 1.936-2.844c7.75 5.275 18.289 6.211 26.847 2.382 8.559-3.828 14.886-12.308 16.119-21.602a1.721 1.721 0 0 1 3.411.453c-1.387 10.45-8.501 19.985-18.124 24.289-3.94 1.762-8.252 2.627-12.569 2.627zM248.153 249.02a1.72 1.72 0 0 1-.243-3.422 7.545 7.545 0 0 0 4.695-2.642 1.721 1.721 0 0 1 2.656 2.186 11.023 11.023 0 0 1-6.862 3.86 1.707 1.707 0 0 1-.246.018z"/><path d="m267.682 221.429-.053-.001a1.719 1.719 0 0 1-1.667-1.771c.043-1.422-1.094-2.888-2.482-3.199-1.386-.315-3.042.525-3.612 1.829a1.72 1.72 0 0 1-3.152-1.378c1.228-2.807 4.528-4.481 7.52-3.807 2.989.673 5.257 3.598 5.165 6.66a1.72 1.72 0 0 1-1.719 1.667z"/></g></g></svg>