<svg id="Icons" height="512" viewBox="0 0 60 60" width="512" xmlns="http://www.w3.org/2000/svg"><path d="m29.906 57.469a.5.5 0 0 1 -.271-.92l12.08-7.816-14.825 8.559a.5.5 0 0 1 -.52-.854l13.487-8.618-15.895 9.18a.5.5 0 0 1 -.513-.858l6.162-3.8-7.565 4.358a.5.5 0 0 1 -.515-.857l11.548-7.188-13.154 7.599a.5.5 0 0 1 -.513-.858l9.862-6.083-11.174 6.454a.5.5 0 0 1 -.515-.857l16.515-10.32-18.125 10.466a.5.5 0 0 1 -.517-.856l21.328-13.466-23.115 13.346a.5.5 0 0 1 -.514-.857l18.823-11.709-20.126 11.619a.5.5 0 0 1 -.514-.857l21.884-13.684-23.177 13.381a.5.5 0 0 1 -.513-.859l18.809-11.623-19.725 11.388a.5.5 0 0 1 -.511-.859l13.273-8.1-13.843 7.989a.5.5 0 0 1 -.512-.858l16.92-10.386-17.507 10.107a.5.5 0 0 1 -.512-.858l19.755-12.186-20.319 11.73a.5.5 0 0 1 -.511-.858l19.236-11.848-19.649 11.348a.5.5 0 0 1 -.509-.86l12.974-7.9-13.14 7.58a.5.5 0 0 1 -.512-.858l18.5-11.379-18.688 10.789a.5.5 0 0 1 -.509-.861l9.946-6.032-9.9 5.71a.5.5 0 0 1 -.515-.857l22.688-14.122-22.737 13.127a.5.5 0 0 1 -.51-.86l11.532-7.025-11.325 6.538a.5.5 0 0 1 -.511-.86l14.484-8.876-14.206 8.205a.5.5 0 0 1 -.514-.859l4.024-2.434-3.638 2.1a.5.5 0 0 1 -.511-.859l9.558-5.826-9.119 5.264a.5.5 0 0 1 -.512-.858l11.94-7.32-11.428 6.597a.5.5 0 0 1 -.517-.855l20.705-13.069-20.066 11.585a.5.5 0 0 1 -.517-.855l17.839-11.224-17.044 9.842a.5.5 0 0 1 -.515-.856l14.651-9.187-13.736 7.929a.5.5 0 0 1 -.518-.855l15.026-9.536-13.885 8.017a.5.5 0 0 1 -.514-.858l5.791-3.588-4.681 2.7a.5.5 0 0 1 -.519-.854l4.343-2.7-3.119 1.8a.5.5 0 0 1 -.516-.856l5.43-3.42-3.938 2.276a.5.5 0 0 1 -.53-.847l10.83-7.324-8.154 4.705a.5.5 0 0 1 -.521-.854l1.886-1.211a.5.5 0 0 1 -.223-.9l4.187-3.012a.488.488 0 0 1 -.222-.2.5.5 0 0 1 .183-.682l6.464-3.74a.5.5 0 0 1 .542.839l-2.461 1.77 7.319-4.222a.5.5 0 0 1 .52.854l-.015.009 2.169-1.252a.5.5 0 0 1 .53.847l-10.831 7.32 14.34-8.278a.5.5 0 0 1 .516.855l-5.429 3.423 7.089-4.092a.5.5 0 0 1 .514.857l-4.349 2.7 5.687-3.283a.5.5 0 0 1 .514.857l-5.769 3.582 7.006-4.045a.5.5 0 0 1 .518.854l-15.032 9.539 16.813-9.706a.5.5 0 0 1 .515.857l-14.652 9.187 16.091-9.29a.5.5 0 0 1 .517.855l-17.843 11.228 19.281-11.135a.5.5 0 0 1 .517.856l-20.707 13.069 22.153-12.79a.5.5 0 0 1 .512.858l-11.935 7.318 12.685-7.322a.5.5 0 0 1 .509.859l-9.527 5.808 10.118-5.841a.5.5 0 0 1 .509.86l-4.034 2.442 4.435-2.56a.5.5 0 0 1 .512.859l-14.491 8.877 15.1-8.716a.5.5 0 0 1 .509.86l-11.53 7.023 11.982-6.918a.5.5 0 0 1 .515.858l-22.686 14.123 23.448-13.537a.5.5 0 0 1 .51.86l-9.934 6.028 10.215-5.9a.5.5 0 0 1 .511.858l-18.509 11.388 18.938-10.934a.5.5 0 0 1 .51.86l-12.96 7.889 13.187-7.613a.5.5 0 0 1 .512.858l-19.249 11.86 19.558-11.291a.5.5 0 0 1 .513.858l-19.732 12.172 19.978-11.534a.5.5 0 0 1 .511.858l-16.927 10.391 17.04-9.838a.5.5 0 0 1 .51.859l-13.292 8.12 13.287-7.671a.5.5 0 0 1 .513.858l-18.801 11.613 18.827-10.869a.5.5 0 0 1 .514.857l-21.887 13.687 21.878-12.632a.5.5 0 0 1 .514.858l-18.823 11.709 18.68-10.784a.5.5 0 0 1 .516.855l-21.333 13.469 21.125-12.2a.5.5 0 0 1 .515.856l-16.518 10.322 16.16-9.328a.5.5 0 0 1 .513.859l-9.849 6.073 9.393-5.423a.5.5 0 0 1 .515.857l-11.556 7.192 11.033-6.367a.5.5 0 0 1 .513.858l-6.174 3.81 5.57-3.216a.5.5 0 0 1 .52.853l-13.491 8.617 12.667-7.313a.5.5 0 0 1 .521.853l-12.07 7.809 11-6.351a.5.5 0 0 1 .514.857l-.842.523a.5.5 0 0 1 .369.912l-3.013 1.914 1.731-1a.5.5 0 0 1 .527.848l-5.4 3.59 3.427-1.978a.5.5 0 0 1 .538.841l-3.207 2.27.05-.028a.5.5 0 1 1 .5.865l-9.614 5.55a.5.5 0 0 1 -.538-.841l3.202-2.259-7.476 4.316a.5.5 0 0 1 -.527-.848l5.4-3.6-8.559 4.941a.5.5 0 0 1 -.519-.854l3.01-1.912-5.089 2.942a.5.5 0 0 1 -.513-.857l.173-.103-1.744 1a.5.5 0 0 1 -.25.069z" fill="#f4bc2f"/><path d="m21.424 29.439a.5.5 0 0 1 -.361-.846l.916-.951-2.319 1.338a.5.5 0 0 1 -.572-.815l1.233-1.039-1.723.995a.5.5 0 0 1 -.591-.8l3.038-2.839-3.416 1.973a.5.5 0 0 1 -.575-.812l2.362-2.029-2.116 1.225a.5.5 0 0 1 -.563-.823l.781-.625-.159.09a.5.5 0 0 1 -.627-.76l1.6-1.838a.52.52 0 0 1 -.478-.248.5.5 0 0 1 .182-.683l2.293-1.324a.5.5 0 0 1 .627.761l-1.507 1.733 3.251-1.877a.5.5 0 0 1 .563.823l-.779.623 1.084-.625a.5.5 0 0 1 .576.813l-2.361 2.026 2.552-1.473a.5.5 0 0 1 .591.8l-3.039 2.839 2.829-1.632a.5.5 0 0 1 .572.815l-1.233 1.038.492-.283a.5.5 0 0 1 .61.779l-1.3 1.35a.5.5 0 0 1 .112.913l-2.293 1.324a.489.489 0 0 1 -.252.064z" fill="#845728"/><path d="m37.836 29.245a.5.5 0 0 1 -.325-.88l1-.856-1.606.927a.5.5 0 0 1 -.57-.818l1.707-1.418-2 1.154a.5.5 0 0 1 -.553-.831l.5-.378-.389.224a.5.5 0 0 1 -.574-.814l2.2-1.867-1.926 1.112a.5.5 0 0 1 -.567-.82l1.036-.846-.39.224a.5.5 0 0 1 -.623-.765l1.525-1.71a.5.5 0 0 1 -.245-.933l2.293-1.324a.5.5 0 0 1 .623.766l-1.382 1.546 3.04-1.754a.5.5 0 0 1 .567.819l-1.038.85 1.407-.813a.5.5 0 0 1 .573.814l-2.2 1.867 2.381-1.376a.5.5 0 0 1 .553.83l-.5.38.256-.148a.5.5 0 0 1 .571.818l-1.706 1.419 1.228-.709a.5.5 0 0 1 .575.812l-1 .856.111-.064a.5.5 0 0 1 .5.865l-4.8 2.774a.489.489 0 0 1 -.252.067z" fill="#845728"/><path d="m21.442 41.03a.5.5 0 0 1 -.311-.891l2.9-2.3-5.358 3.093a.5.5 0 0 1 -.56-.825l2.557-2.013-2.27 1.306a.5.5 0 0 1 -.655-.727l1.346-1.843-.477.274a.5.5 0 0 1 -.5-.865l2.525-1.457a.5.5 0 0 1 .654.728l-1.345 1.842 6.252-3.611a.5.5 0 0 1 .56.825l-2.56 2.015 5.161-2.981a.5.5 0 0 1 .562.824l-2.9 2.3 5.3-3.059a.5.5 0 0 1 .573.813l-3.346 2.848 5.8-3.349a.5.5 0 0 1 .568.818l-2.778 2.291 4.569-2.638a.5.5 0 0 1 .559.826l-1.614 1.266 2.729-1.575a.5.5 0 0 1 .551.832l-.2.153.827-.476a.5.5 0 0 1 .62.768l-2.038 2.238 2.535-1.462a.5.5 0 0 1 .612.087.5.5 0 0 1 .058.617l-.848 1.322.034-.02a.5.5 0 0 1 .5.866l-1.834 1.054a.5.5 0 0 1 -.67-.7l.854-1.323-3.518 2.03a.5.5 0 0 1 -.62-.768l2.033-2.239-5.216 3.011a.5.5 0 0 1 -.55-.832l.2-.15-1.707.985a.5.5 0 0 1 -.559-.826l1.619-1.268-3.631 2.1a.5.5 0 0 1 -.568-.818l2.777-2.29-5.388 3.104a.5.5 0 0 1 -.573-.814l3.347-2.841-6.338 3.658a.491.491 0 0 1 -.25.067z" fill="#fff"/><path d="m31.692 51.326a.5.5 0 0 1 -.315-.888l3.916-3.186-6.893 3.977a.5.5 0 0 1 -.53-.847l1.453-.985-2.461 1.423a.5.5 0 0 1 -.525-.849l1.062-.7-1.785 1.029a.5.5 0 0 1 -.526-.85l1.172-.776-1.732 1a.5.5 0 0 1 -.534-.844l3.543-2.445-4.188 2.415a.5.5 0 0 1 -.537-.842l3.6-2.529-4.122 2.38a.5.5 0 0 1 -.551-.832l4.411-3.322-4.94 2.852a.5.5 0 0 1 -.559-.825l3.459-2.721-3.782 2.184a.5.5 0 0 1 -.555-.829l1.4-1.083-1.414.817a.5.5 0 0 1 -.6-.789l1.441-1.42-1.414.815a.5.5 0 0 1 -.737-.548l.194-.816a.5.5 0 0 1 -.385-.915l.884-.51a.508.508 0 0 1 .549.032.5.5 0 0 1 .187.517l-.188.8 3.8-2.192a.5.5 0 0 1 .6.789l-1.442 1.421 4.426-2.556a.5.5 0 0 1 .556.828l-1.4 1.082 3.435-1.988a.5.5 0 0 1 .559.825l-3.459 2.72 5.977-3.451a.5.5 0 0 1 .551.832l-4.41 3.322 6.729-3.885a.5.5 0 0 1 .537.842l-3.6 2.529 5.251-3.034a.5.5 0 0 1 .534.843l-3.543 2.446 4.977-2.873a.5.5 0 0 1 .526.849l-1.165.772 2.163-1.248a.5.5 0 0 1 .525.849l-1.063.7.141-.082a.5.5 0 0 1 .53.847l-1.451.983.238-.137a.5.5 0 0 1 .565.82l-3.92 3.191 1.166-.673a.5.5 0 1 1 .5.865l-6.581 3.8a.491.491 0 0 1 -.25.074z" fill="#845728"/><path d="m5.479 47.35a.5.5 0 0 1 -.306-.9l.988-.764-1.861 1.081a.5.5 0 0 1 -.568-.819l3.848-3.172-4.836 2.791a.5.5 0 0 1 -.559-.825l4.815-3.801-5.269 3.041a.5.5 0 0 1 -.556-.828l5.825-4.515-5.711 3.3a.5.5 0 0 1 -.545-.839l5.125-3.744-4.257 2.457a.5.5 0 0 1 -.567-.818l1.422-1.171a.493.493 0 0 1 -.289-.228.5.5 0 0 1 .182-.683l4.106-2.37a.5.5 0 0 1 .567.818l-.682.563 7.089-4.093a.5.5 0 0 1 .545.836l-5.123 3.742 4-2.31a.5.5 0 0 1 .557.828l-5.825 4.516 4.885-2.819a.5.5 0 0 1 .559.825l-4.816 3.8 4.078-2.349a.5.5 0 0 1 .568.818l-3.849 3.17 3.095-1.788a.5.5 0 0 1 .556.828l-.994.767.093-.052a.5.5 0 0 1 .586.8l-1.395 1.27a.493.493 0 0 1 .229.207.5.5 0 0 1 -.182.683l-2.849 1.644a.5.5 0 0 1 -.587-.8l.68-.618-2.522 1.453a.5.5 0 0 1 -.25.068z" fill="#528fdc"/><path d="m54.291 47.389a.5.5 0 0 1 -.333-.873l.814-.726-2.5 1.441a.5.5 0 0 1 -.56-.824l1.6-1.27-2.559 1.477a.5.5 0 0 1 -.541-.839l.055-.04-.4.233a.5.5 0 0 1 -.549-.833l2.073-1.549-2.415 1.393a.5.5 0 0 1 -.544-.836l1.457-1.06-1.494.861a.5.5 0 0 1 -.568-.818l3.747-3.091-3.663 2.114a.5.5 0 0 1 -.57-.816l2.762-2.3-2.367 1.367a.5.5 0 0 1 -.6-.785l2.557-2.566-2.1 1.21a.5.5 0 0 1 -.587-.8l.652-.6-.2.113a.5.5 0 0 1 -.671-.7l1.1-1.712-.751.433a.5.5 0 0 1 -.7-.643l.436-.938-.095.055a.5.5 0 0 1 -.75-.444l.027-1.077a.525.525 0 0 1 -.442-.25.5.5 0 0 1 .184-.683l.527-.3a.5.5 0 0 1 .75.445l-.024 1 .694-.4a.5.5 0 0 1 .7.644l-.435.936 1.164-.672a.5.5 0 0 1 .671.7l-1.1 1.712 2.392-1.378a.5.5 0 0 1 .587.8l-.657.6 1.391-.8a.5.5 0 0 1 .6.785l-2.556 2.565 4.145-2.394a.5.5 0 0 1 .571.816l-2.764 2.3 3.816-2.2a.5.5 0 0 1 .569.818l-3.737 3.087 4.515-2.606a.5.5 0 0 1 .544.837l-1.46 1.062 1.516-.875a.5.5 0 0 1 .549.833l-2.071 1.547 1.92-1.107a.5.5 0 0 1 .541.838l-.279.2a.505.505 0 0 1 .508.21.5.5 0 0 1 -.1.672l-1.6 1.273.82-.474a.5.5 0 0 1 .583.806l-1.285 1.145a.5.5 0 0 1 .147.922l-3.4 1.96a.49.49 0 0 1 -.257.069z" fill="#528fdc"/><g fill="#262626"><path d="m40.739 4.543c-21.458-8.722-44.822 12.314-39.931 34.527a6.154 6.154 0 0 0 3.541 8.137c11.944 14.14 39.1 13.91 51.15 0a6.311 6.311 0 0 0 3.77-8.387c2.758-13.987-5.107-29.185-18.53-34.277zm-38.83 37.927c-1.237-6.748 7.461-6.938 11.2-10.336-2.126 4.479.617 11.6-4.684 14.092a5.053 5.053 0 0 1 -6.516-3.756zm50.711 3.937c-6.265-1.592-3.576-9.456-5.512-14.033 3.578 3.216 11.038 3.19 11.2 9.139a4.9 4.9 0 0 1 -5.688 4.894zm5.5-9.346c-2.7-2.55-6.674-3.048-9.589-5.329-.853-.78-2.675-2.092-3.184-.326 2.1 5.622-.444 16.664 8.566 16.166-11.441 12.651-35.981 12.466-47.515 0 8.837-.093 6.073-10.485 8.358-16.118-.1-1.68-2.041-.662-2.713.079-2.986 2.435-7.29 3.052-10.027 5.726-4.016-44.487 59.484-44.359 56.106-.198z"/><path d="m21.856 29.333c4.716-1.055 5.331-8.7.826-10.447-7.582-2.328-8.748 11.859-.826 10.447zm-3.6-7.769c1.763-4.3 6.438-.9 6.059 2.641.32 3.4-3.637 6.34-5.731 2.679a5.82 5.82 0 0 1 -.329-5.32z"/><path d="m38.13 18.878c-4.615 1.118-5.2 8.613-.739 10.311 7.636 2.289 8.739-11.989.739-10.311zm3.7 7.687c-1.721 4.43-6.474.842-6.067-2.7-.331-3.561 3.824-6.373 5.82-2.5a5.924 5.924 0 0 1 .25 5.2z"/><path d="m41.466 35.578c-5.612-2.5-20.992-3.978-24.148 2.239-.364 9.623 11.045 17.8 19.374 11.465 3.493-2.646 8.453-9.8 4.774-13.704zm-21.73.6c4.439-1.871 22.777-4.21 21.441 3.725a43.659 43.659 0 0 0 -22.1.03c-.244-1.297-.751-2.97.659-3.755zm16.973 11.83c-6.337 5.962-15.878.545-17.417-7.121a41.632 41.632 0 0 1 21.615.1 14.928 14.928 0 0 1 -4.198 7.021z"/><path d="m21.365 14.491c1.652-2.814-5.661 1.856-6.646 2.129-1.653 2.813 5.66-1.856 6.646-2.129z"/><path d="m40.375 14.121c-.451-.486-2.281-.578-1.922.242 2.3.734 4.635 3.236 7.018 2.834.622-.968-4.138-2.25-5.096-3.076z"/></g></svg>