<svg xmlns="http://www.w3.org/2000/svg" xml:space="preserve" width="512" height="512"><path fill="#FDE7CF" d="m135 404 20.6 3.1 2.9 41.6h-18l-13.3-23.5zM366.1 404l11 .2 6.3 15.3-17.3 31.3-11.7-3 7.7-39.9zM340.904 391.643c3.902 0 39.481-18.312 44.02-47.808 4.41-28.65-27.973-57.717-28.38-57.311-37.097 20.37-94.124 23.563-100.345 23.563-31.075 0-91.315-14.431-100.65-23.766-36.578 36.578-30.749 58.902-21.979 74.019 12.248 21.114 39.98 36.427 66.87 38.108l15.438 2.031c91.076-1.012 103.894.171 125.026-8.836z"/><path fill="#9D706B" d="M236 371.8v12l-7.5 10.9-10.9 2.6c13.1-4.1 16.8-14.1 16.8-14.1-29.2 14.9-54.5.3-72.8-18.5.1-1.4.2-3.2.6-4.7 4.1-22.1 16.7-28.4 16.7-28.4l26.7 17.9 24.7 14.8 5.7 7.5z"/><path fill="#8A5D58" d="M234.3 383.2s1.7 10-11.4 14.1l-10.3 1.1c-.8.1-1.7.3-2.6.3h-9.3c-1.6-.1-3.2-.3-4.9-.7-3.1-.7-8.5-2-12.9-3-3.1-.9-6-1.8-8.6-2.8-4.1-3.2-13.6-12.1-12.5-27.8 18.2 19.3 43.5 32.9 72.5 18.8z"/><path fill="#9D706B" d="m281.7 364.3 24.7-14.8 26.7-17.9s12.5 6.3 16.7 28.4c.3 1.5.5 3.3.6 4.7-18.3 18.8-43.6 33.4-72.8 18.5 0 0 3.7 10 16.8 14.1l-10.9-2.6-7.5-10.9v-12l5.7-7.5z"/><path fill="#8A5D58" d="M350.3 364.6c1 15.7-8.4 24.6-12.5 27.8-2.6.9-5.5 1.8-8.6 2.8-4.4 1-9.8 2.3-12.9 3-1.7.3-3.3.6-4.9.7h-9.3c-.9 0-1.8-.2-2.6-.3l-10.3-1.1c-13.1-4.1-11.4-14.1-11.4-14.1 28.9 13.9 54.2.3 72.5-18.8z"/><path fill="#2D2D39" d="M356.5 289.3c9.5 9.3 18.3 20 23.4 33.1 1.7 4.6 2.9 9.2 3.1 13.9.635 16.999-10.907 34.186-28.161 46-17.642 12.08-34.766 14.607-44.239 15.2-17.547.983-28.055-4.211-32-12.1 0 0 0-.1-.1-.1-2.296-3.827-2.584-11.147 0-14.7 2.3-2.9 13.4-10.4 24.7-17.6 26.451-16.418 32.2-21.333 32.3-21.4 8.1-7 12.7-19.1 12.2-23.9 0 0-3.5 7.2-8 13.7l-.032.045c-1.186-5.423-2.973-11.455-3.068-11.645.099 3.45.316 10.877.322 15.207-1.231 1.429-2.382 2.839-3.622 3.793-6.022 5.081-27.336 17.924-32.4 21.3-11.8 7.5-22.5 14.7-25 18-3.1 3.8-4.3 11.6-.8 19.1 8.346 15.541 31.334 14.291 35.7 14 24.207-1.513 42.184-12.907 45.8-15.8 18.4-12.5 30.7-31 30-49.3-.7-18.7-14-36-27.1-49l-3 2.2zM235.9 368c-2.5-3.3-13.2-10.4-25-18-11.633-7.368-27.999-17.449-32.4-21.3-1.104-.849-2.139-2.062-3.221-3.326.005-4.334.222-12.311.321-15.674-.046.093-2.451 7.794-3.088 12.171-2.406-3.34-6.495-10.49-8.412-14.271-.4 4.8 4.2 16.9 12.2 23.9.1.067 5.025 4.471 32.3 21.4 11.3 7.3 22.4 14.7 24.7 17.6 1.751 2.408 3.086 8.527 0 14.7-.1 0-.1.1-.1.1-8.722 17.445-41.223 11.108-41.8 11-7.138-1.326-19.917-4.416-33.536-13.489-17.753-11.828-29.711-29.317-29.064-46.611.2-4.7 1.4-9.3 3.1-13.9 5-13.1 14.3-24.2 23.7-33.5-.1-.2-2-1.7-3-2.3-13.1 13-26.8 30.7-27.5 49.4-.7 18.3 11.6 36.8 30 49.3.299.239 14.753 11.1 36.4 14.8 25.224 3.255 39.178-1.974 45.1-13 3.8-7.3 2.6-15.1-.7-19z"/><g><path fill="#E0BCA2" d="M136 405.9s-16.8 68.8 118.9 70.8v10.5L124 489l-13.2-3.3-12.4-12.6-12.5-19-4.3-14.1-1.1-18.9 6.2-13.1 6.9-3h4.9l12.4 4 5 3.9c-.1-.1 13.8-10.7 20.1-7zM373.9 404.8s16.9 69.8-118.9 71.9v10.5l131 1.7 13.2-3.3 13.9-10.3 11.8-19.6 6.2-15.6-1.3-24.2-6.4-7.9-6.9-3h-4.9l-12.4 4-5 3.9c.1-.3-14-11.9-20.3-8.1z"/><g fill="#8A5D58"><path d="m431.1 439.9-1.3-24.2-6.4-7.9-6.9-3h-4.9l-11.948 4.9-5 3.603S391.7 410.6 388.5 408.6c-.1.1-29.2 24.7-19.5 78.7 0 0 .9.5 2.5 1.4l14.4.2 13.2-3.3 13.9-10.3 11.8-19.6 6.3-15.8zM388.4 408.5c-.2-.2-.5-.3-.9-.5.5.3.8.4.9.5z"/></g><g fill="#8A5D58"><path d="m80.4 439.9 1.3-24.2 6.4-7.9 6.9-3h4.9l12.4 4 5 3.9s2.5-2.1 5.7-4.1c.1.1 29.2 24.7 19.5 78.7 0 0-.9.5-2.5 1.4l-14.4.2-13.2-3.3-13.9-10.3-11.8-19.6-6.3-15.8zM123.1 408.5c.2-.2.5-.3.9-.5-.5.3-.8.4-.9.5z"/></g><path fill="#2D2D39" d="M149.6 401.1c-2.3-9.5-1.3-12.6-1.2-13.1l3.6.3c0 .1-.8 5.1 1.4 14l-3.8-1.2zM117.6 415.2l-3-2.1c14.3-21.4 47.3-3.7 47.6-3.6 0 0-12-2.4-23-3.3-8-.5-16.4 1.1-21.6 9zM118.3 490c-.9 0-1.492-.391-2.392-.491v-3.261c12 2.2 20.192-18.049 20.192-18.049-.3 1.001-4.4 21.801-17.8 21.801zM394.3 415.2c-12.5-18.5-44.6-5.5-44.6-5.5.3-.2 33.3-17.8 47.6 3.6l-3 1.9z"/><path fill="#2D2D39" d="M429.6 411.3c-2.7-4.9-6.8-7.7-11.8-8.2-16.927-1.782-30.6 16.513-30.6 18.9 0 0 15.7-16.8 30.2-15.2 3.9.4 6.9 2.6 9.1 6.4 4.9 8.8 4.3 25.6-1.3 37.5-8 17-16.3 29.6-30.1 35.8-3.5 1.1-44.9.5-78.3.1-26-.3-97.4-.3-121.9 0-33.4.4-74.8 1.1-78.2-.1-14-6.2-22.1-18.8-30.1-35.8-5.6-11.9-6.2-28.7-1.3-37.5 2.2-3.8 5.2-6 9.1-6.4 14.6-1.5 30.2 15.2 30.2 15.2 0-2.235-13.45-20.686-30.6-18.9-5 .5-9.1 3.4-11.8 8.2-6.2 10.9-4.2 29.4 1.2 40.8 8.3 17.8 17 30.9 32 37.5 1.5.7 8.8 1 23.4 1 12.8 0 31.2-.2 56.3-.5 25.9-.3 97-.3 121.7 0 25 .3 43.5.5 56.3.5 14.6 0 22-.3 23.4-1 15-6.6 23.6-19.8 32-37.5 5.3-11.4 7.3-29.8 1.1-40.8z"/><path fill="#2D2D39" d="M393.5 490c-13.4 0-17.6-20.8-17.8-21.8 0 0 8.071 20.238 19.971 18.038l.296 3.391c-.8.201-1.567.371-2.467.371z"/><g fill="#7C4C48"><path d="M116.2 453.2c3.6 6.8 4.1 15 1.1 18s-8.3 0-11.9-6.9c-3.6-6.8-4.1-15-1.1-18 3-3.1 8.3 0 11.9 6.9zM96.6 447.5c2 3.1 2.4 7 1.1 8.9s-4 .8-6-2.4c-2-3.1-2.4-7-1.1-8.9 1.3-1.7 4-.6 6 2.4zM95.2 431.5c1.7 3.4 2 7.3.4 8.8-1.5 1.5-4.1.1-5.9-3.3-1.7-3.4-2-7.3-.4-8.8 1.5-1.5 4.1-.1 5.9 3.3zM113.3 432.9c1.4 3.6 1.2 7.5-.4 8.7s-4.2-.8-5.6-4.4-1.2-7.5.4-8.7c1.6-1.1 4 .8 5.6 4.4zM102.5 425c1.7 3.4 2 7.3.4 8.8-1.5 1.5-4.1.1-5.9-3.3-1.7-3.4-2-7.3-.4-8.8 1.5-1.6 4.1-.1 5.9 3.3z"/></g><path fill="#FFFAF5" d="M309.7 400.2c0 30.2-28.3 54.7-63.1 54.7s-63.1-24.5-63.1-54.7 28.3-64.7 63.1-64.7 63.1 34.5 63.1 64.7z"/><g fill="#7C4C48"><path d="M392.5 453.2c-3.6 6.8-4.1 15-1.1 18s8.3 0 11.9-6.9c3.6-6.8 4.1-15 1.1-18-3-3.1-8.3 0-11.9 6.9zM412.2 447.5c-2 3.1-2.4 7-1.1 8.9 1.3 1.8 4 .8 6-2.4 2-3.1 2.4-7 1.1-8.9-1.4-1.7-4.1-.6-6 2.4zM413.6 431.5c-1.7 3.4-2 7.3-.4 8.8s4.1.1 5.9-3.3c1.7-3.4 2-7.3.4-8.8s-4.2-.1-5.9 3.3zM395.6 432.9c-1.4 3.6-1.2 7.5.4 8.7s4.2-.8 5.6-4.4 1.2-7.5-.4-8.7c-1.7-1.1-4.2.8-5.6 4.4zM406.3 425c-1.7 3.4-2 7.3-.4 8.8s4.1.1 5.9-3.3c1.7-3.4 2-7.3.4-8.8-1.6-1.6-4.2-.1-5.9 3.3z"/></g><path fill="#9D706B" d="M166.8 397.2c2.6 1 5.4 1.8 8.3 2.7-3.6-.9-6.3-1.4-6.5-1.4.1 0-.7-.4-1.8-1.3zM187.7 402.9c1.7.3 3.4.4 4.9.7h-2.5c-.1-.2-.9-.4-2.4-.7zM201.7 403.4c.9-.1 1.7-.2 2.6-.3l-1.4.3h-1.2zM227.2 376.8v11.7l-7.4 10.7-10.7 2.5c12.8-4 16.4-13.8 16.4-13.8-28.5 14.5-53.3.1-71.2-18.3.1-1.4.2-2.8.5-4.4 4-21.6 16.3-27.8 16.3-27.8l26.1 17.6 24.2 14.5 5.8 7.3z"/><path fill="#8A5D58" d="M225.6 388.1s-3.6 9.8-16.4 13.8l-4.9 1.2c-.9.1-1.7.3-2.6.3h-9.1c-1.5-.1-3.1-.3-4.9-.7-3-.8-8.3-2-12.6-2.9-3-.9-5.7-1.7-8.3-2.7-4.1-3.1-13.4-12-12.5-27.4 17.9 18.5 42.8 32.9 71.3 18.4z"/><path fill="#F5A653" d="M175.2 399.9c4.2 1 9.5 2.2 12.6 2.9-.9-.1-1.8-.3-2.7-.5-3.6-.8-6.9-1.5-9.9-2.4zM192.6 403.4h9.1c-2.7.3-5.7.3-9.1 0zM209.1 401.9c-1.5.5-3.1.9-4.9 1.2l4.9-1.2z"/><path fill="#2D2D39" d="m361.1 400.2-3.8.9c1.1-7.3 1.3-14.7.9-22.1-.1-1.6-.2-3.3-.3-4.8 1.1-1.3 2.2-2.5 3.1-3.9.2 1.6.4 3.3.5 4.9.9 8.2.8 16.7-.4 25z"/><path fill="#9D706B" d="M266.2 376.8v11.7l7.4 10.7 10.7 2.5c-12.8-4-16.4-13.8-16.4-13.8 28.5 14.5 53.3.1 71.2-18.3-.1-1.4-.2-2.8-.5-4.4-4-21.6-16.3-27.8-16.3-27.8l-26 17.6-24.2 14.5-5.9 7.3z"/><path fill="#8A5D58" d="M268 388.1s3.6 9.8 16.4 13.8l4.9 1.2c.9.1 1.7.3 2.6.3h9.1c1.5-.1 3.1-.3 4.9-.7 3-.8 8.3-2 12.6-2.9 3-.9 5.7-1.7 8.3-2.7 4.1-3.1 13.4-12 12.5-27.4-18 18.5-42.8 32.9-71.3 18.4z"/></g><g><path fill="#4BA1E2" d="M369.8 479.1H141.7c0 5.4 3.7 9.8 8.3 9.8h211.5c4.5-.1 8.3-4.5 8.3-9.8z"/><path fill="#2D2D39" d="M361.4 490.6H149.9c-5.4 0-9.9-5.2-9.9-11.6v-1.8h231.1v1.8c.2 6.5-4.3 11.6-9.7 11.6zm-218-9.7c.7 3.5 3.4 6.1 6.6 6.1h211.5c3.1 0 5.9-2.6 6.6-6.1H143.4z"/><path fill="#64A7E2" d="M261.3 330.5H138.1c-3.5 0-6.2 3.8-5.5 7.8l23.2 145.2c.5 3.1 2.8 5.4 5.5 5.4h189.2c2.7 0 5-2.3 5.5-5.4l23.1-145.3c.7-4-2-7.8-5.5-7.8H261.3v.1z"/><path fill="#4BA1E2" d="m150.2 448.4 5.6 35.1c.5 3.1 2.8 5.4 5.5 5.4h189.2c2.7 0 5-2.3 5.5-5.4l23-145.3c.7-4-2-7.8-5.5-7.8h-.5c-38.6 51.7-132.1 156.8-222.8 118z"/><path fill="#2D2D39" d="M350.5 490.6H161.3c-3.5 0-6.4-2.9-7-6.8l-23.1-145.1c-.4-2.5.2-5 1.5-6.9 1.4-2 3.4-3 5.5-3h235.6c2.2 0 4.1 1.1 5.5 3s2 4.4 1.5 6.9l-23.2 145.2c-.6 3.8-3.7 6.7-7.1 6.7zM138.1 332.3c-1.2 0-2.4.7-3.1 1.7-.8 1.1-1.1 2.5-.9 3.9l23.2 145.2c.3 2.3 2.1 3.9 4 3.9h189.2c2 0 3.7-1.6 4-3.9l23.2-145.2c.2-1.4-.1-2.8-.9-3.9s-2-1.7-3.1-1.7H138.1z"/><ellipse fill="#FFFFFD" cx="255.7" cy="417.1" rx="6.9" ry="8.1"/></g><g><path fill="#FDE7CF" d="M148.7 140.4c-2.592-6.912-13.618-44.37-5.6-68.7 9.013-27.039 24.424-47.224 24.8-47.6.155.155 1.147 1.205 5.5 5.8 1.622 1.123 6.421 4.995 7.9 6.3 23.907 20.198 35.434 41.678 38.6 46.2.257 0 22.561-4.6 36.2-4.8s35.923 4.8 36.2 4.8c5.886-8.408 15.316-26.16 38.8-46 2.234-1.862 5.416-4.511 8-6.3 4.392-4.555 5.345-5.545 5.5-5.7 3.436 3.436 17.277 25.63 24.6 47.6 8.764 26.594-5.412 67.932-5.7 68.7 0 10.097 52.958 115.595-5.5 149-53.559 30.773-103.608 29.8-102.1 29.8 1.388 0-48.03.931-102.1-30-58.251-33.286-5.1-139.136-5.1-149.1z"/><path fill="#9D706B" d="M191.2 151.3c16-6.9 34.4-5.8 47.6-3.4 5.7 1.1 11.5 1.6 17.3 1.6s11.6-.5 17.3-1.6c13.2-2.4 31.5-3.5 47.6 3.5 28.8 12.6 50.5 68 18.3 103.4-22.7 25.2-49.1 27.8-66.9 26.8-5.5-.3-10.9-.4-16.4-.4s-10.9.1-16.4.4c-17.7.9-44.1-1.7-66.8-26.9-32.2-35.4-10.5-90.9 18.4-103.4z"/><path fill="#E0BCA2" d="M175.5 35.5h.8s19.5 15.9 30.3 51.8l13.3-4.6c.1 0-33-52.7-44.4-47.2z"/><path fill="#F6B0A6" d="m141.7 78.6-1.2 24.7 3.4 19.9s19.9 1.3 19.2-21c0 0 5.4 4.4 5.8 4.1.3-.3 4.3-5.6 4.3-5.6l-.2-17.9 5.7-1.2 10.2 6.4 6.1-2.8s.1-12.5 0-12.9c-.1-.6-8.1-20.2-8.1-20.2L172 30.5l-4.1-5.1-13.8 20.2-12.4 33z"/><ellipse transform="rotate(-67.592 189.887 221.19)" fill="#F6B0A6" cx="189.886" cy="221.192" rx="11.3" ry="19.1"/><path fill="#2D2D39" d="M150.3 136.9C128 81.9 161.1 36 168.1 27.3c37.3 29.1 49.5 56.7 49.7 56.9l3.9-1.7c-.6-1.2-13.1-29.6-52.6-59.9l-1.5-1.2-1.4 1.7c-.5.6-47.4 54.2-18.2 119.3l2.3-5.5z"/><path fill="#2D2D39" d="M160.1 93.3s3.3 14 8.5 14.9c.4.1.6.1.8.1 1.1-.1 2.2-.5 3-1.2 2.9-2.6 2.8-8.4 2.7-14.4-.1-2.7-.2-7.3.5-8.5 1.1-.1 3.4 1.1 5.2 2 4.7 2.3 11.1 5.4 15.3.1 6.3-8.2-6.4-38.3-26.6-63.3l-3.3 2.7c20.9 25.7 30.5 52.9 26.5 58.1-2 2.5-5.3 1.1-10.2-1.3-3.1-1.6-5.8-2.9-8.2-2.3-3.7 1-3.7 6.4-3.6 12.7.1 4 .2 9.9-1.2 11.2-.1 0-.1.1-.3.1-2.1-.4-6.5-5.9-9.1-10.9zM83.7 186c22.9 1.2 46.6 8.4 68.5 20.7 0 0-16.6-5.3-34.3-10.5-12.6-3.6-34.2-10.2-34.2-10.2zM72.1 209.1c22.8-2.4 47.3.9 71 9.6 0 0-17.2-2.6-35.6-4.9-13.1-1.6-35.4-4.7-35.4-4.7zM76.9 240.3c21.4-8.1 46-11 71.1-8.5 0 0-17.3 1.8-35.7 4.2-13.1 1.6-35.4 4.3-35.4 4.3z"/><path fill="#FFFAF5" d="M268.3 77.4h-24.2c-15.26 0-44.816 12.919-46.541 13.781 28.524-5.787 51.607-6.581 57.341-6.581 27.962 0 60.332 6.7 59.812 6.7-.141-.035-29.931-13.9-46.412-13.9z"/><path fill="#E0BCA2" d="m292.3 82.7 13.3 4.6C316.5 51.5 336 35.6 336 35.6h.8c-11.4-5.5-44.5 47.1-44.5 47.1zM129.4 257c11.508 7.672 57.775 43.237 126.5 42.5 72.77.975 125.038-40.985 126.6-42.2l.1-.1c-3.6 13.2-11.2 24.8-24.6 32.5-46.82 26.841-91.394 29.8-102.1 29.8-10.934 0-54.825-2.798-102.1-29.9-13.4-7.7-20.9-19.4-24.5-32.6h.1z"/><path fill="#F6B0A6" d="m358.2 45.8-13.8-20.2-4.1 5.1-15 21.4s-8 19.6-8.1 20.2c-.1.5 0 12.9 0 12.9l6.1 2.8 10.2-6.4 5.7 1.2-.1 18.1s4 5.3 4.3 5.6c.4.3 5.8-4.1 5.8-4.1-.8 22.3 19.1 21 19.1 21l3.5-19.9-1.2-24.7-12.4-33z"/><ellipse transform="rotate(-22.301 322.097 221.295)" fill="#F6B0A6" cx="322.094" cy="221.303" rx="19.1" ry="11.3"/><path fill="#2D2D39" d="M364.2 142.7c29.3-65-17.5-118.8-18-119.4l-1.3-1.7-1.5 1.2c-39.6 30.2-52.2 58.6-52.7 59.8l3.9 1.7c.2-.2 12.4-27.8 49.8-56.9 6.9 8.8 39.783 55.09 17.383 109.99l2.417 5.31z"/><path fill="#2D2D39" d="M343.1 104.3c-.3.1-.2 0-.3-.1-1.4-1.3-1.3-7.2-1.2-11.2.1-6.3.2-11.7-3.6-12.7-2.4-.6-5.1.7-8.2 2.3-4.9 2.4-8.2 3.7-10.2 1.3-4-5.2 5.7-32.4 26.6-58l-3.3-2.7c-20.3 24.9-33.1 55-26.8 63.2 4.2 5.3 10.6 2.3 15.3 0 1.8-.9 4.1-2 5.2-2 .6 1.2.6 5.8.5 8.5-.1 6-.2 11.8 2.7 14.4.8.7 1.9 1.2 3 1.2.2 0 .5 0 .8-.1 5.3-.9 8.6-14.9 8.6-14.9-2.7 5-7.1 10.4-9.1 10.8zM220.1 226.9c.025.139.695 3.864.7 3.9.5 2.8 3.5 17 16.4 17.1 6.3.1 12.4-3.3 15.9-8.8.2-.4.5-.8.7-1.3-6.6-3.1-14.4-7.7-15.7-11.9-.3-1-.2-2 .3-2.9 2.1-3.4 10.8-4.6 17.6-4.6s15.5 1.2 17.6 4.6c.5.9.6 1.9.3 2.9-1.3 4.4-10.2 9.2-15.7 11.8.2.4.5.9.7 1.3 3.5 5.5 9.6 8.9 15.9 8.8 12.9-.1 15.9-14.3 16.4-17.1.12-.959.524-2.85.7-3.8l9.9 5.2-6.9-.1c-1 5-5.3 19.6-19.9 19.7h-.1c-7.5-.1-14.7-4.1-18.8-10.5-4.1 6.4-11.4 10.4-18.8 10.4h-.2c-14.6-.1-18.8-14.7-19.9-19.7l-6.9.1 9.8-5.1zM255.9 271.5c5-.1 10.1-1.6 14.8-4.3-6.3 10.9-23.3 10.8-29.5 0 4.7 2.7 9.7 4.2 14.7 4.3zM197.3 91.3c25.228-5.821 37.314-12.128 58.811-12.128 21.54 0 33.504 6.392 58.789 12.228-10.998-5.843-31.158-16.555-58.96-16.555-24.524 0-45.329 8.726-58.64 16.455zM428.3 186.3c-22.9 1.1-46.6 8.3-68.6 20.6 0 0 16.6-5.2 34.4-10.4 12.7-3.7 34.2-10.2 34.2-10.2zM439.9 209.5c-22.8-2.5-47.3.8-71 9.5 0 0 17.2-2.6 35.6-4.8 13.1-1.7 35.4-4.7 35.4-4.7zM435.1 240.6c-21.4-8.1-46-11.1-71.1-8.6 0 0 17.3 1.8 35.7 4.2 13 1.7 35.4 4.4 35.4 4.4z"/><path fill="#3D3D44" d="M242.6 223c0-.7 3.5-1.3 8.3-1.6 1.6-.1 3.3-.1 5-.2 1.8 0 3.5.1 5 .2 4.9.3 8.3.9 8.3 1.6.1 1.1-5.9 1.8-13.4 1.9-7.3-.1-13.3-.9-13.2-1.9z"/><path fill="#2D2D39" d="M156.8 123.1c-.567 1.984-4.76 12.881-12.731 38.64a1175.147 1175.147 0 0 0-6.969 23.359c-5.4 19.3-9.5 40.6-8.1 59.7 2.2 30.2 28.5 47.2 52.3 56.3 14.378 5.478 35.538 15.479 73.526 15.246 39.018-.239 68.367-12.268 75.674-15.146 23.8-9 50.1-26 52.4-56.2 1.4-19.1-2.6-40.4-8-59.7-2.167-7.56-4.38-14.958-6.506-21.859-8.438-27.391-12.942-39.887-13.094-40.241 2.913 5.826 9.663 19.402 16.973 39.86 8.577 24.006 16.794 55.011 14.827 82.24-2.138 28.283-22.928 47.75-59.841 62.02C309.895 314.033 284.253 321 254.6 321c-24 0-52-4.5-81.1-18.6-23-10.1-46.5-27.7-48.6-57.3-2.024-28.11 6.804-60.161 15.674-84.397 6.753-18.451 14.716-35.087 16.226-37.603z"/><g><path fill="#2D2D39" d="M266.8 250c-13.021-6.185-8.666-7.6-10.8-7.6-2.134 0 2.233 1.409-10.8 7.6-3.476.24-2.97.095-2.7.5 3.535 7.069 6.444 11.2 14.1 11.2 6.99 0 10.303-6.005 12.9-11.2.272-.408.78-.26-2.7-.5z"/><path fill="#F9A9A0" d="M267.2 254.6c-.3-.1-5.1-2-11.2-2.2-6.2.2-10.9 2-11.2 2.1l.5.7.9 1.4 1.5 2.2 4.2 2.9 4.2.7 4.2-.7 4.2-2.9 1.5-2.2.9-1.4.3-.6z"/><path fill="#2D2D39" d="m267.4 247.6-3.2-1.6-4.8-3.4-1.1-2.8h-4.6l-1.1 2.8-4.8 3.4-3.2 1.6-5.6.4 1 2.5c3.4 8.6 8.8 13.3 15.4 13.3h1.1c6.6 0 12.1-4.7 15.5-13.3l1-2.5-5.6-.4zm-10.7 12.6h-1.4c-6.667 0-10.251-7.252-11-9l1.3-.1 4.2-2 6-4.1.3-.7.3.7 5.9 4 4.3 2.1 1.3.1c-4.537 9.074-9.937 9-11.2 9z"/><path fill="#2D2D39" d="M267.7 254.1h-.1c-1.4-.6-5.5-2.2-11.6-2.2-6.1-.1-10.2 1.6-11.6 2.2h-.1c-.2.1-.3.1-.4.2l.6 1.3s.2-.1.5-.2h.1c1.5-.6 5.3-1.9 10.8-1.9 5.5 0 9.3 1.4 10.8 1.9h.1c.3.1.5.2.5.2l.6-1.3c.1 0 0-.1-.2-.2z"/></g><g><path fill="#2D2D39" d="M292.4 193.3c7.6.8 15.1 2.7 22.2 5.7-10.2-.5-20.9-2-31.2-1.5 6.4-12.3 21.9-17.7 34.5-12.3-5.5-.1-11.1.3-16.2 2.3-3.4 1.4-6.6 3.3-9.3 5.8zM210.2 187.5c-5.1-2-10.6-2.4-16.2-2.3 12.7-5.4 28.1 0 34.5 12.3-10.2-.5-21 1-31.2 1.5 7.1-3 14.6-4.9 22.2-5.7-2.6-2.5-5.8-4.4-9.3-5.8z"/></g></g></svg>