<svg height="512" viewBox="0 0 60 60" width="512" xmlns="http://www.w3.org/2000/svg"><g id="034---In-Love" fill="none"><path id="Path" d="m29.787 56.457c-.2223284-.0000763-.4179003-.1469477-.4799566-.36044-.0620563-.2134922.0243114-.4423157.2119566-.56156l8.113-5.166-10.16 5.866c-.2355125.13196-.5332497.0531389-.6726204-.1780652-.1393708-.2312042-.0700423-.5312938.1566204-.6779348l7.044-4.41-8.685 5.013c-.2346058.1253855-.5263122.0451285-.6637604-.18262-.1374483-.2277485-.0725112-.523243.1477604-.67238l11.063-6.959-12.815 7.4c-.2350866.127347-.5287583.0472199-.6665908-.1818764-.1378325-.2290964-.071048-.5260868.1515908-.6741236l11.909-7.447-13.407 7.735c-.2369302.1419372-.5440628.0649301-.686-.172-.1419372-.2369302-.0649301-.5440628.172-.686l12.616-7.854-14.043 8.112c-.2362845.1306359-.5336041.0500916-.6716393-.181948s-.0669238-.5317553.1606393-.677052l7.362-4.511-8.244 4.759c-.2369888.1350471-.5384839.055235-.6776156-.1793791-.1391316-.2346142-.0645535-.5374465.1676156-.6806209l2.164-1.312-2.84 1.639c-.2347345.1238045-.5252986.0426548-.6619149-.1848618-.1366163-.2275167-.0716853-.5221296.1479149-.6711382l16.722-10.408-17.936 10.355c-.2369302.1419372-.5440628.0649301-.686-.172-.1419372-.2369302-.0649301-.5440628.172-.686l16.384-10.149-17.429 10.06c-.2369888.1350471-.5384839.055235-.6776156-.1793791-.1391316-.2346142-.0645535-.5374465.1676156-.6806209l5.968-3.621-6.524 3.766c-.2374824.1411087-.5443912.0629824-.6855-.1745-.1411087-.2374824-.0629824-.5443912.1745-.6855l10.178-6.205-10.754 6.209c-.2357179.1278172-.530297.0469384-.667702-.1833224-.137405-.2302607-.0687118-.5279174.155702-.6746776l16.527-10.184-17.328 10c-.23571786.1278172-.53029699.0469384-.66770199-.1833224-.13740501-.2302607-.06871185-.5279174.15570199-.6746776l14.968-9.179-15.501 8.95c-.23571786.1278172-.53029699.0469384-.66770199-.1833224-.13740501-.2302607-.06871185-.5279174.15570199-.6746776l15.446-9.479-15.991 9.237c-.23620749.133071-.53543293.0536509-.67455995-.1790411-.13912701-.2326919-.06746125-.5338687.16155995-.6789589l19.795-12.26-20.418 11.789c-.23638246.1285498-.53210687.0469768-.6691568-.184581-.13704993-.2315579-.06627089-.5300498.1601568-.675419l11.343-6.911-11.583 6.689c-.23520866.125628-.52761522.0445694-.66457305-.1842276-.13695782-.228797-.07026696-.5248112.15157305-.6727724l21.539-13.396-22.071 12.743c-.23620749.133071-.53543293.0536509-.67455995-.1790411-.13912701-.2326919-.06746125-.5338687.16155995-.6789589l19.767-12.242-20.043 11.571c-.23649337.126689-.53082268.0441496-.66695642-.1870361s-.06554462-.5286074.15995642-.6739639l.755-.455-.683.395c-.2372063.1413849-.54411508.0637063-.68549997-.1735s-.06370631-.5441151.17349997-.6855l16.08-9.892-16.221 9.365c-.23620749.133071-.53543293.0536509-.67455995-.1790411-.13912701-.2326919-.06746125-.5338687.16155995-.6789589l17.8-11.006-17.769 10.255c-.23560872.1297647-.5316571.04988-.67000668-.1807924-.13834959-.2306723-.06941665-.5294607.15600668-.6762076l17.57-10.887-17.506 10.11c-.2372063.141661-.54433895.0642063-.68599998-.173s-.06420631-.544339.17299998-.686l14.643-9.035-14.445 8.339c-.23551248.13196-.53324972.0531389-.67262044-.1780652-.13937073-.2312042-.07004227-.5312938.15662044-.6779348l20.239-12.751-19.913 11.496c-.2372063.1422133-.54478668.0652063-.687-.172s-.0652063-.5447867.172-.687l11.222-6.917-10.841 6.26c-.23698876.1350471-.53848394.055235-.67761558-.1793791-.13913163-.2346142-.06455352-.5374465.16761558-.6806209l1.786-1.085-1.181.681c-.23583577.1260453-.52910097.0442222-.66561588-.1857118-.13651491-.2299339-.06795177-.5265795.15561588-.6732882l1.66-1.012-1.055.61c-.23620749.133071-.53543293.0536509-.67455994-.1790411-.13912702-.2326919-.06746126-.5338687.16155994-.6789589l8.442-5.221-7.7 4.448c-.23698876.1350471-.53848394.055235-.67761558-.1793791-.13913163-.2346142-.06455352-.5374465.16761558-.6806209l1.438-.88-.612.353c-.23571786.1278172-.53029699.0469384-.66770199-.1833224-.13740501-.2302607-.06871185-.5279174.15570199-.6746776l1.242-.764-.407.235c-.23402298.1252853-.52515789.0458598-.66313509-.1809119-.13797721-.2267718-.07469786-.5218373.14413509-.6720881l11.252-7.206-9.8 5.659c-.23470287.1405531-.53878699.0663884-.6824238-.1664401-.14363681-.2328284-.07348967-.5378644.1574238-.6845599l10.726-7.055-8.74 5.039c-.23354514.1328438-.53032442.0573638-.6720248-.1709163s-.07765459-.5277351.1450248-.6780837l6.852-4.566-4.279 2.469c-.22920156.1303039-.52019781.0602449-.66497921-.1600976-.14478139-.2203425-.09359105-.5152436.11697921-.6739024l5.059-3.751c-.2044696-.0397518-.3628746-.2021001-.3975876-.4074852s.0615393-.4107741.2415876-.5155148l6.357-3.667c.2292016-.13030393.5201978-.0602449.6649792.1600976.1447814.22034249.0935911.51524355-.1169792.6739024l-4.2 3.115 10.19-5.883c.2340027-.13899883.5362016-.06529813.6799386.16582441s.0762078.53476011-.1519386.68317559l-6.85 4.561 10.115-5.84c.2347029-.1405531.538787-.06638836.6824238.16644007s.0734897.5378644-.1574238.68455993l-10.729 7.058 13.768-7.945c.2348642-.13128134.531504-.05316042.6712412.17677323.1397372.22993366.0724576.52921865-.1522412.67722677l-11.243 7.2 13.544-7.823c.2357179-.12781718.530297-.04693838.667702.18332235.137405.23026074.0687118.52791741-.155702.67467765l-1.26.774 2.327-1.343c.2362845-.13063592.5336041-.05009165.6716393.18194798.1380352.23203962.0669238.53175531-.1606393.67705202l-1.422.87 2.494-1.439c.2352087-.12562801.5276152-.04456942.664573.18422757.1369579.22879699.070267.52481121-.151573.67277243l-8.438 5.221 9.628-5.559c.2369888-.13504713.5384839-.05523499.6776156.17937913.1391316.23461413.0645535.53744647-.1676156.68062087l-1.681 1.023 2.531-1.46c.1538028-.09092409.3444299-.09288858.5000739-.00515347.155644.08773512.2526589.25184079.2545.4305.0018412.17865921-.0917711.34472938-.2455739.43565347l-1.786 1.087 2.533-1.461c.2362075-.13307102.5354329-.05365088.6745599.17904108.1391271.23269196.0674613.53386873-.1615599.67895892l-11.218 6.911 12.256-7.075c.2349709-.12921461.5300387-.05006202.6687925.17940502.1387537.22946704.0717837.52753611-.1517925.67559498l-20.234 12.749 21.744-12.553c.2357179-.12781718.530297-.04693838.667702.18332235.137405.23026074.0687118.52791741-.155702.67467765l-14.654 9.04 15.607-9.011c.2369302-.14193718.5440628-.06493016.686.172s.0649302.54406282-.172.686l-17.577 10.891 18.55-10.709c.2357179-.12781718.530297-.04693838.667702.18332235.137405.23026075.0687118.52791745-.155702.67467765l-17.784 11 18.655-10.769c.2362845-.1306359.5336041-.0500916.6716393.181948s.0669238.5317553-.1606393.677052l-16.093 9.9 16.769-9.682c.2380347-.1402803.5447197-.0610347.685.177s.0610347.5447197-.177.685l-.768.462.984-.568c.2362075-.133071.5354329-.0536509.6745599.1790411.1391271.2326919.0674613.5338687-.1615599.6789589l-19.761 12.237 20.467-11.816c.2356087-.1297647.5316571-.04988.6700067.1807924.1383496.2306723.0694166.5294607-.1560067.6762076l-21.539 13.394 22.149-12.787c.2369888-.1350471.5384839-.055235.6776156.1793791.1391316.2346142.0645535.5374465-.1676156.6806209l-11.343 6.909 11.579-6.688c.2362075-.133071.5354329-.0536509.6745599.1790411.1391271.2326919.0674613.5338687-.1615599.6789589l-19.8 12.262 20.247-11.69c.2362845-.1306359.5336041-.0500916.6716393.181948s.0669238.5317553-.1606393.677052l-15.439 9.472 15.562-8.984c.2357179-.1278172.530297-.0469384.667702.1833224.137405.2302607.0687118.5279174-.155702.6746776l-14.958 9.177 15.074-8.7c.2362075-.133071.5354329-.0536509.6745599.1790411.1391271.2326919.0674613.5338687-.1615599.6789589l-16.523 10.178 16.588-9.576c.2362845-.1306359.5336041-.0500916.6716393.181948s.0669238.5317553-.1606393.677052l-10.2 6.219 10.039-5.8c.2369888-.1350471.5384839-.055235.6776156.1793791.1391316.2346142.0645535.5374465-.1676156.6806209l-5.956 3.615 5.761-3.327c.1532669-.0918173.3438754-.094893.5000249-.0080685.1561495.0868244.2541174.2503583.257.429s-.089758.3452512-.2430249.4370685l-16.4 10.157 16.221-9.357c.2361735-.1361818.537908-.0580681.6783318.1756081.1404239.2336761.0677709.5367718-.1633318.6813919l-16.715 10.4 16.359-9.446c.2377586-.1408326.5446674-.0622585.6855.1755.1408326.2377586.0622586.5446674-.1755.6855l-2.169 1.315 1.767-1.02c.2374824-.1411088.5443912-.0629824.6855.1745s.0629824.5443912-.1745.6855l-7.37 4.515 6.849-3.955c.1532669-.0919959.3439707-.0952367.5002749-.0085015.1563042.0867351.2544627.250269.2575.429s-.089508.3455056-.2427749.4375015l-12.61 7.85 11.96-6.9c.2361735-.1361818.537908-.0580681.6783318.1756081.1404239.2336761.0677709.5367718-.1633318.6813919l-11.907 7.444 11.1-6.405c.2346058-.1253855.5263122-.0451285.6637604.18262.1374483.2277485.0725112.523243-.1477604.67238l-11.074 6.963 10.1-5.831c.2355125-.13196.5332497-.0531389.6726204.1780652.1393708.2312042.0700423.5312938-.1566204.6779348l-7.028 4.4 5.84-3.374c.234481-.1270728.5274228-.0477401.6657366.1802909.1383139.2280309.0733058.5244809-.1477366.6737091l-8.113 5.173 6.679-3.855c.2322377-.1273115.5234633-.0514462.664069.1729923.1406056.2244384.0818101.5195841-.134069.6730077l-10.82 7.338 8.167-4.715c.2333681-.1382671.5344194-.0652417.6785003.1645824.144081.2298241.078635.5326135-.1475003.6824176l-4.464 3.028 1.258-.725c.2374252-.1242009.5305531-.0391619.6646466.1928199.1340935.2319817.0614797.5284321-.1646466.6721801l-13.18 7.609c-.2322377.1273115-.5234633.0514462-.664069-.1729923-.1406056-.2244384-.0818101-.5195841.134069-.6730077l4.464-3.03-8.216 4.738c-.2329673.1327691-.5291919.0581284-.6714287-.1691822-.1422368-.2273105-.0798406-.5263539.1414287-.6778178l10.818-7.337-14.675 8.474c-.0758978.0441549-.1621931.067282-.25.067z" fill="#fccb55"/><path id="Path" d="m49.97 14.077c-.2152152 0-.4062846-.137715-.4743416-.3418861-.0680571-.2041711.0021694-.4289848.1743416-.5581139l2.228-1.7-2.707 1.562c-.2259042.1277621-.5120042.0614438-.6586593-.152678-.1466552-.2141217-.1051039-.5048532.0956593-.669322l4.894-3.938-5.78 3.336c-.2304184.1322364-.5240189.0611893-.6684864-.1617642-.1444674-.2229535-.0893536-.5199576.1254864-.6762358l3.152-2.284-3.651 2.107c-.2314518.1313128-.5252013.0583356-.6682918-.1660259-.1430904-.2243616-.0853808-.52148788.1312918-.6759741l2.042-1.433-2.405 1.386c-.2300482.13085689-.5222207.05977797-.6664488-.16213184-.1442281-.22190982-.0905463-.51777331.1224488-.67486816l3.154-2.291-3.647 2.106c-.23158.12940266-.5239091.05542235-.6660571-.16856044-.142148-.2239828-.0846277-.51999085.1310571-.67443956l.416-.288-.54.311c-.2283835.12999717-.5184238.06101556-.6638282-.15788129s-.0965443-.51299637.1118282-.67311871l.048-.038c-.2280424.11663128-.5073447.04207011-.6469183-.17269817-.1395736-.21476829-.0942759-.50028049.1049183-.66130183l.995-.8-.716.413c-.2071345.11998077-.4702483.07632178-.6275319-.1041276s-.1646077-.44706018-.0174681-.6358724l1.68-2.154-.17.1c-.2374252.12420086-.5305531.03916186-.6646466-.19281988-.1340935-.23198173-.0614797-.52843213.1646466-.67218012l2.388-1.384c.2073289-.11983773.4705164-.07584722.6276039.10490094.1570875.18074815.1639632.44749812.0163961.63609906l-1.678 2.153 4.027-2.325c.2256086-.12712642.5109479-.06095755.657579.15248957.1466312.21344713.106025.50352978-.093579.66851043l-1 .809 1.42-.82c.2283835-.12999717.5184238-.06101556.6638282.15788129s.0965443.51299637-.1118282.67311871l-.036.028 4.035-2.329c.23158-.12940266.5239091-.05542235.6660571.16856044.142148.2239828.0846277.51999085-.1310571.67443956l-.415.287 1.448-.835c.2298251-.12787678.5194281-.05584584.6625685.16479606s.0908781.51445645-.1195685.67220394l-3.153 2.29 3.943-2.275c.2314518-.13131281.5252013-.05833565.6682918.16602591.1430904.22436156.0853808.52148787-.1312918.67597409l-2.044 1.434 2.188-1.268c.2304184-.13223644.5240189-.06118928.6684864.16176419.1444674.22295348.0893536.51995759-.1254864.67623581l-3.143 2.287 3.034-1.751c.2269587-.12823252.5143539-.06057953.6602778.15542976.145924.21600929.1014061.50788441-.1022778.67057024l-4.892 3.934 3.794-2.191c.2280542-.12904158.517047-.0601323.6623353.15793143.1452882.21806373.0975826.5113034-.1093353.67206857l-3.519 2.691c.095387.0423001.174627.1141771.226.205.1375532.2386555.0561721.5436114-.182.682l-4.952 2.859c-.0758413.0442906-.1621742.0674278-.25.067z" fill="#cc4a4a"/><path id="Path" d="m10.856 46.138c-.226294-.00001-.4243705-.1520058-.4829405-.3705888-.0585699-.2185831.0369699-.4492542.2329405-.5624112l2.567-1.482c.2374252-.1242009.5305531-.0391619.6646466.1928199.1340935.2319817.0614797.5284321-.1646466.6721801l-2.567 1.482c-.0759114.0442382-.1621395.0676923-.25.068z" fill="#cc4a4a"/><path id="Path" d="m8.743 58.962c-.21711402.0000744-.40946393-.1399749-.47606522-.3466214-.0666013-.2066464.00776861-.4326584.18406522-.5593786l.508-.366-.743.429c-.22727134.1290292-.5155715.0612656-.66156584-.155498s-.10042617-.5093938.10456584-.671502l5.175-4.021-5.994 3.459c-.2310609.1298083-.52326795.0567757-.66608655-.1664779s-.08662801-.5191613.12808655-.6745221l3.176-2.237-3.618 2.088c-.22920156.1303039-.52019781.0602449-.66497921-.1600976-.14478139-.2203425-.09359105-.5152436.11697921-.6739024l5.588-4.159-6.353 3.667c-.23296731.1327691-.52919188.0581284-.67142871-.1691822-.14223683-.2273105-.07984054-.5263539.14142871-.6778178l1.448-.98-1.736 1c-.22906317.1321979-.52145682.063148-.66718057-.1575572-.14572375-.2207053-.09436905-.5167199.11718057-.6754428l5.243-3.927-5.93 3.424c-.22403717.1259992-.50710823.0616068-.65459641-.1489061-.14748819-.2105129-.11133809-.4985559.08359641-.6660939l2.7-2.268-2.953 1.7c-.22712724.1307942-.51670669.0640046-.66360351-.1530559-.14689683-.2170604-.10125056-.5107158.10460351-.6729441l1.339-1.042-1.1.638c-.22500732.1341909-.51544232.071948-.66569777-.1426651s-.10937637-.5088164.09369777-.6743349l1.439-1.2-.792.457c-.21777199.1239843-.49368841.0676117-.64537559-.131857-.15168718-.1994686-.13228783-.4804159.04537559-.657143l1.177-1.164c-.18464184-.0642756-.31488231-.2302734-.33337779-.4249061s.07814742-.3821906.24737779-.4800939l2.5-1.443c.21777199-.1239843.49368841-.0676117.64537559.131857.15168719.1994686.13228783.4804159-.04537559.657143l-.7.685 2.386-1.375c.22458545-.1309436.51204661-.0679354.66127016.144943.14922355.2128783.11041686.5045939-.08927016.671057l-1.434 1.2 2.236-1.292c.22712724-.1307942.51670669-.0640046.66360351.1530559.14689683.2170604.10125056.5107158-.10460351.6729441l-1.333 1.047 1.786-1.031c.2244518-.1286386.50996589-.0648202.65828662.1471407.14832072.211961.1104625.5020607-.08728662.6688593l-2.7 2.266 8.231-4.752c.2288588-.1292299.518701-.0592157.6633326.1602346.1446317.2194502.0946742.513414-.1143326.6727654l-5.248 3.931 6.576-3.8c.2329673-.1327691.5291919-.0581284.6714287.1691822.1422368.2273105.0798406.5263539-.1414287.6778178l-1.442.976 1.688-.974c.229416-.1334891.5231565-.0644561.6690977.1572468.1459412.221703.0932171.5188044-.1200977.6767532l-5.59 4.162 5.793-3.344c.2317427-.1353654.5290201-.0636298.6735243.1625272.1445041.2261571.084687.5260601-.1355243.6794728l-3.178 2.237 2.695-1.554c.2271002-.1265913.5133226-.0580067.6583864.1577626.1450637.2157693.100553.506709-.1023864.6692374l-5.175 4.022 3.055-1.763c.2308022-.1338179.5260112-.0628564.670779.1612399s.0880924.5223777-.128779.6777601l-2.846 2.048c.060245.041486.1101884.0962185.146.16.1373847.2389169.0555349.543953-.183.682l-5.75 3.323c-.0764888.0421448-.16268215.0635207-.25.062z" fill="#cc4a4a"/><path id="Path" d="m50.868 46.126c-.226294-.00001-.4243705-.1520058-.4829405-.3705888-.0585699-.2185831.0369699-.4492542.2329405-.5624112l2.563-1.479c.2374252-.1242009.5305531-.0391619.6646466.1928199.1340935.2319817.0614797.5284321-.1646466.6721801l-2.563 1.48c-.0760084.0438886-.1622305.0669961-.25.067z" fill="#cc4a4a"/><path id="Path" d="m49.244 59.253c-.2125769.0001535-.4020104-.1341219-.4722654-.3347539-.0702549-.2006319-.0059698-.4237516.1602654-.5562461l2.986-2.392-3.71 2.141c-.2271272.1307942-.5167067.0640046-.6636035-.1530559-.1468968-.2170604-.1012506-.5107158.1046035-.6729441l5.413-4.244-6.284 3.627c-.23158.1294027-.5239091.0554223-.6660571-.1685604-.142148-.2239828-.0846277-.5199909.1310571-.6744396l2.59-1.8-2.975 1.717c-.2287194.1310429-.5198877.0620127-.6654353-.1577616-.1455476-.2197742-.0954752-.5147944.1144353-.6742384l5.94-4.484-6.779 3.913c-.2344449.1460793-.5429207.0744448-.689-.16-.1460793-.2344449-.0744449-.5429207.16-.689l.477-.317-.7.4c-.2319831.1309881-.5259285.0570795-.6683699-.1680527-.1424414-.2251321-.0833463-.52241.1343699-.6759473l2.495-1.724-2.868 1.655c-.2329673.1327691-.5291919.0581284-.6714287-.1691822-.1422368-.2273105-.0798406-.5263539.1414287-.6778178l.2-.135-.313.18c-.2202286.1227467-.4973928.0623225-.6465459-.1409526s-.1236267-.4857984.0595459-.6590474l3.357-3.064-3.513 2.028c-.2208144.1342809-.5075757.0781561-.6614736-.1294633s-.1242133-.4983097.0684736-.6705367l2.559-2.411-1.978 1.141c-.2208144.1342809-.5075757.0781561-.6614736-.1294633s-.1242133-.4983097.0684736-.6705367l1.094-1.032c-.089912-.0434993-.164526-.1132321-.214-.2-.1380647-.2391402-.0561341-.5449248.183-.683l2.542-1.468c.2208144-.1342809.5075757-.0781561.6614736.1294633s.1242133.4983097-.0684736.6705367l-.4.377 1.984-1.146c.2207276-.1320893.5056598-.0751513.6586724.1316224.1530126.2067738.124171.4959044-.0666724.6683776l-2.557 2.41 3.789-2.188c.2202286-.1227467.4973928-.0623225.6465459.1409526s.1236267.4857984-.0595459.6590474l-3.357 3.064 8.76-5.057c.23265-.1288599.5254615-.0530472.6663444.1725252s.0805297.5219566-.1373444.6744748l-.2.132 1.091-.63c.2319831-.1309881.5259285-.0570795.6683699.1680527.1424414.2251321.0833463.52241-.1343699.6759473l-2.5 1.731 3.179-1.835c.2330829-.1306613.5277074-.0549657.6689423.1718661.1412349.2268319.0791592.5246238-.1409423.6761339l-.478.32.669-.386c.2287194-.1310429.5198877-.0620127.6654353.1577616.1455476.2197742.0954752.5147944-.1144353.6742384l-5.937 4.488 6.209-3.584c.23158-.1294027.5239091-.0554223.6660571.1685604.142148.2239828.0846277.5199909-.1310571.6744396l-2.585 1.8 2.133-1.231c.227445-.1317107.5180356-.064845.6650404.1530278.1470048.2178727.1002333.512366-.1070404.6739722l-5.41 4.243 3.288-1.9c.2268311-.1346393.5192384-.0699075.6680488.1478896s.1028302.513733-.1050488.6761104l-4.281 3.43c.0755929.043742.1380913.106931.181.183.1382327.2388784.0567713.5445824-.182.683l-3.9 2.248c-.0745381.0430498-.1589276.0661278-.245.067z" fill="#cc4a4a"/><path id="Path" d="m53.742 40.438c-.2091668-.0004018-.3959786-.1309594-.4682475-.3272452s-.0147199-.4168127.1442475-.5527548l.459-.39-.828.478c-.2202286.1227467-.4973928.0623225-.6465459-.1409526s-.1236267-.4857984.0595459-.6590474l2.559-2.327-3.261 1.881c-.2208144.1342809-.5075757.0781561-.6614736-.1294633s-.1242133-.4983097.0684736-.6705367l2.89-2.722-3.716 2.144c-.2125801.1214168-.481811.0710563-.6361309-.1189903-.1543198-.1900467-.1483392-.4638818.0141309-.6470097l1.261-1.406-1.53.882c-.2010978.1158361-.4554672.0780728-.6142398-.0911892-.1587725-.169262-.1802075-.4255244-.0517602-.6188108l.973-1.456-.011.006c-.1549945.0985297-.351531.1041539-.5119064.0146489-.1603754-.0895049-.2587712-.2597296-.2562855-.4433739s.1054527-.3511436.2681919-.436275l1.868-1.079c.2010978-.1158361.4554672-.0780728.6142398.0911892.1587725.169262.1802075.4255244.0517602.6188108l-.973 1.462 2.393-1.384c.2128621-.1227709.4833831-.0726697.6381602.1181888.1547771.1908586.1479267.4658947-.0161602.6488112l-1.261 1.408 4.716-2.724c.2208144-.1342809.5075757-.0781561.6614736.1294633s.1242133.4983097-.0684736.6705367l-2.89 2.724 3.564-2.058c.2202286-.1227467.4973928-.0623225.6465459.1409526s.1236267.4857984-.0595459.6590474l-2.557 2.326 1.588-.917c.2236156-.1271011.5071788-.0638125.6555296.1463081s.1130835.4985123-.0815296.6666919l-2.87 2.435c.0938737.2311507.0029871.49613-.213.621l-1.661.96c-.0758031.044382-.1621615.067526-.25.067z" fill="#cc4a4a"/><path id="Path" d="m5.4 9.253c-.2053794-.00026776-.38970652-.12609972-.46476307-.31727316s-.02557495-.40880097.12476307-.54872684l2.334-2.173-3.042 1.756c-.22443057.13275265-.51319933.07074454-.66334543-.14244199s-.11125208-.50596573.08934543-.67255801l2.141-1.814-2.684 1.549c-.22346694.12872313-.50817637.06636914-.65738482-.14397333-.14920846-.21034247-.11396118-.49966082.08138482-.66802667l2.111-1.816-2.663 1.538c-.22072755.13208931-.5056598.07515133-.65867239-.13162243-.15301258-.20677376-.12417106-.49590434.06667239-.66837757l.544-.512-.589.339c-.19909449.11327851-.44970268.07677847-.60821429-.08858387-.15851162-.16536234-.1843818-.41728981-.06278571-.61141613l1.026-1.6-.09.052c-.23742522.12420086-.53055313.03916186-.66464661-.19281988-.13409349-.23198173-.06147969-.52843213.16464661-.67218012l1.877-1.081c.19909449-.11327851.44970268-.07677847.60821429.08858387.15851162.16536234.1843818.41728981.06278571.61141613l-1.026 1.6 2.512-1.45c.22072755-.13208931.5056598-.07515133.65867239.13162243.15301258.20677376.12417106.49590434-.06667239.66837757l-.543.512 3.565-2.063c.22346694-.12872313.50817637-.06636914.65738482.14397333.14920846.21034247.11396118.49966082-.08138482.66802667l-2.11 1.817 2.879-1.661c.2243015-.13033485.511027-.06747614.6602307.14474207.1492038.21221821.1113211.50329837-.0872307.67025793l-2.141 1.813 2.04-1.18c.2206356-.13002916.503851-.07232504.6560244.1336626.1521734.20598765.1241014.49365536-.0650244.6663374l-2.791 2.599c.19766603.0493795.34560129.21375657.37395294.41551478.02835164.20175822-.0685514.40054068-.24495294.50248522l-2.978 1.721c-.07630197.04405852-.16289146.06717205-.251.067z" fill="#cc4a4a"/><g fill="#262626"><path id="Shape" d="m.931 46.4c-2.487 4.316 2.831 8.017 5.462 10.67 1.92 1.936 3.491 3.021 5.846.969 1.6404199-1.3506288 3.1988517-2.7978633 4.667-4.334 8.3112919 3.3558427 17.6088326 3.3091502 25.886-.13 1.036 1.082 2.166 2.1 3.211 3.157.8.8 1.756 2.179 2.867 2.608 2.758 1.066 5.75-3.481 7.289-5.034 1.117-1.126 2.575-2.275 3.192-3.782 1.116-2.724-.321-5.365-2.79-6.63-.008 0-.02 0-.028-.007-.0349225-.0242066-.0725003-.0443375-.112-.06-.3464447-.1095787-.7013043-.1905175-1.061-.242 1.5033758-2.196921 2.661151-4.6112854 3.433-7.159.4897061-.5772941.8111059-1.2782156.929-2.026 0-.016-.01-.024-.011-.039s.015-.034.013-.053c-.0348924-.3532018-.1299288-.6978357-.281-1.019.005-.016.021-.03.021-.046 0-3.539.316-6.66-.722-10.157-1.1305894-3.6257378-3.0421029-6.9596222-5.6-9.767.8-.7 1.514-1.6 2.176-2.253 1.3547368-1.11559674 2.588812-2.37011697 3.682-3.743.7004095-1.08563537.8820019-2.42643612.4955957-3.65926529-.3864063-1.23282918-1.3008239-2.23010695-2.4955957-2.72173471-1.9413452-.71741759-4.1212073-.28121316-5.637 1.128l-.274.27c-.7198622-.77264304-1.6345793-1.33708708-2.648-1.634-.0331162-.00465993-.0665842-.00633333-.1-.005-.023 0-.034-.012-.06-.015-3.708-.408-6.4 2.35-5.792 5.351-10.616-4.037-22.972-2.814-32.081 4.284-10.568 8.236-13.078 22.328-5.757 33.579-1.53612165.2737917-2.88622378 1.1811184-3.72 2.5zm54.022 7.5c-1.153 1.171-3.292 4.346-4.953 4.268-1.687-.079-3.706-3.113-4.855-4.272-.618-.623-1.308-1.217-1.872-1.888-2.032-2.415-2.524-6.991 2.164-7.474 1.722.147 2.72 1.116 3.868 2.273.3854815.30426.9414465.2546751 1.267-.113 1.419-1.43 2.784-2.584 4.97-1.921 4.798 2.538 2.058 6.46-.589 9.133zm-.4-20.486c.3513118-.439123.87089-.7105228 1.432-.748 1.364-.261 2.138.683 2.282 1.984-.175 1.492-1.488 2.385-2.505 3.37-.288.279-1.035 1.316-1.455 1.409-.378.084-.439-.078-.808-.429-.956-.911-1.974-1.8-2.867-2.777-.7176642-.6157225-1.0365787-1.577467-.829-2.5.582-2.142 2.527-1.066 3.5-.124.28.273 1.014.051 1.251-.179zm-6.963-31.9c1.0617927.38738157 1.9984566 1.05583468 2.71 1.934.3.3.99.1 1.255-.159l.979-.962c2.583-2.094 5.244-.041 5.666 2.167.2012884 1.24369482-.202472 2.50883553-1.087 3.406-.4952689.543101-1.0197101 1.05886273-1.571 1.545-.856.841-2.808 3.626-3.993 3.926-1.513.382-3.763-2.8-4.636-3.663-.592-.582-1.256-1.144-1.8-1.771-.3824196-.40517276-.701056-.86609972-.945-1.367-1.001-2.135-.302-5.376 3.423-5.045zm-40.49 13.297c8.511-10.77 23.679-12.838 35.8-7.525h.026c.2726826.51319972.6175231.98466127 1.024 1.4 1.491 1.549 3.032 3.141 4.642 4.565.948.838 1.816 1.455 3.15.96.094-.035.184-.086.276-.13 2.4006343 2.7229677 4.1979918 5.923041 5.274 9.39.6980848 2.7543587.9482846 5.603125.741 8.437-.4451101-.1996681-.9293064-.2970541-1.417-.285-.9094043.0306101-1.7815556.3686832-2.474.959-.6424814-.6226849-1.5053591-.9656788-2.4-.954-1.2979351-.0121283-2.5055252.6629811-3.175 1.775-1.181 2.332 1.494 4.122 2.931 5.514 1.351 1.307 2.462 1.983 4.1.556.323-.282.707-.6 1.106-.943-.6962655 1.7741703-1.5891713 3.4647208-2.662 5.04-1.5125112.2305532-2.9086771.9477689-3.977 2.043-1.0590544-1.1852241-2.519786-1.9358976-4.1-2.107-.013 0-.029 0-.042 0-.032 0-.059-.01-.091-.012-.014 0-.029 0-.044 0-.0470769-.0060493-.0945564-.0083899-.142-.007-4.8.441-6.949 5.349-3.767 9.084.177.208.369.407.555.609-7.9779849 3.3014685-16.9569589 3.2086635-24.865-.257 1.1301759-1.2354345 1.8786223-2.771573 2.155-4.423-.559-5.886-6.11-5.364-9.539-2.7-1.01834719-1.1241724-2.40809804-1.8431927-3.914-2.025-6.023-9.023-5.971-20.363.829-28.964zm-4.744 31.322c.4962533-1.011591 1.46358013-1.709716 2.58-1.862.1952484.0825757.41391026.0911088.615.024 1.45497297.4299303 2.75185557 1.2772501 3.73 2.437.223.225 1.147-.117 1.336-.308 1.1-1.11 2.037-2.334 4.023-2.07 2.23.3 3.446 2.544 3.636 4.537-.2594844 1.653054-1.067478 3.1707718-2.294 4.309-.0267651.0179159-.0492908.0414655-.066.069-.914.963-1.946 1.845-2.816 2.722-1.839 1.855-2.635 3.326-4.784 1.159-1.676-1.69-3.548-3.312-5.086-5.129-1.386-1.635-2.142-3.883-.874-5.888z"/><path id="Shape" d="m8.616.627c-.91013089.0294027-1.78308715.36800391-2.475.96-.64215843-.62341587-1.50507509-.96714434-2.4-.956-1.29753381-.0116568-2.50429701.66438929-3.172 1.777-1.181 2.334 1.493 4.124 2.931 5.517 1.351 1.308 2.461 1.987 4.1.558 1.407-1.233 3.925-3.083 4.122-5.083 0-.016-.01-.025-.011-.039s.015-.035.013-.054c-.1266929-1.59401495-1.5126875-2.78914543-3.108-2.68zm-.854 6.4c-.288.273-1.035 1.311-1.455 1.405-.379.084-.437-.076-.807-.427-.957-.911-1.975-1.8-2.868-2.777-.71789329-.61552662-1.0362093-1.57778784-.827-2.5.582-2.14 2.527-1.066 3.5-.124.281.272 1.01.052 1.25-.18.35120563-.43940017.87076433-.71115259 1.432-.749 1.363-.261 2.137.681 2.281 1.981-.175 1.489-1.49 2.383-2.506 3.367z"/><path id="Path" d="m11.133 20.5 12-4c.868-.289.621-1.29-.266-.994l-12 4c-.867.286-.621 1.287.266.994z"/><path id="Path" d="m48.406 20.284c.331.11 1.618-.425 1.188-.568l-12-4c-.331-.11-1.618.425-1.188.568z"/><path id="Path" d="m13.314 25.941c-.384.663 1.082.619 1.372.118 2.011-3.478 6.722-3.082 8.647.247.293.506 1.688 0 1.334-.612-2.527-4.37-8.911-3.977-11.353.247z"/><path id="Path" d="m36.692 26.079c.9156135-1.5450609 2.5966883-2.4725201 4.3919927-2.423089s3.4227986 1.0679869 4.2520073 2.661089c.319.551 1.7.016 1.328-.634-2.54-4.393-8.9-4.006-11.356.238-.4.693 1.07.7 1.384.158z"/><path id="Path" d="m23.327 35.283c3.749 4.283 9.7 3.9 13.347-.269.408-.466-1.04-.38-1.348-.028-3.114 3.557-7.7 3.1-10.653-.269-.327-.374-1.714.145-1.346.566z"/><path id="Path" d="m31.058 41.445h-2c-.845 0-1.1 1.11-.116 1.11h2c.845 0 1.097-1.11.116-1.11z"/></g></g></svg>