<svg height="512" viewBox="0 0 335.257 335.257" width="512" xmlns="http://www.w3.org/2000/svg"><circle cx="162.845" cy="186.318" fill="#d0df92" r="134"/><g fill="#fffcc8"><path d="M72.57 66.98a16.052 16.052 0 0 0-1.366-1.327 21.381 21.381 0 0 0-1.501-1.197 19.035 19.035 0 0 0-1.487-.993c-1.388-.893-2.771-1.777-4.151-2.659a94.9 94.9 0 0 0-4.249-2.55 24.23 24.23 0 0 0 .685-3.736c.149-1.367.197-2.745.14-4.135a21.468 21.468 0 0 0-.541-4.035c-.304-1.302-.759-2.483-1.364-3.541-.407-.715-.913-1.188-1.52-1.42-.607-.234-1.295-.13-2.064.306-.714.408-1.21 1.107-1.491 2.091a13.961 13.961 0 0 0-.501 3.184 35.15 35.15 0 0 0 .006 3.42c.057 1.144.056 2.065-.003 2.764a24.61 24.61 0 0 1-.495 3.604 23.878 23.878 0 0 1-.995 3.464 122.588 122.588 0 0 0-2.741-5.073c-.333-.582-.741-1.313-1.226-2.195a14.43 14.43 0 0 0-1.668-2.416c-.628-.731-1.315-1.269-2.057-1.617-.745-.348-1.526-.29-2.346.179-.529.304-.926.671-1.19 1.1a3.471 3.471 0 0 0-.483 1.413 4.41 4.41 0 0 0 .095 1.55c.126.527.309 1.033.555 1.527a293.4 293.4 0 0 0 3.267 6.456 608.033 608.033 0 0 0 3.383 6.388 72.16 72.16 0 0 1 2.374 4.938 50.048 50.048 0 0 0 2.428 4.854l.182.318a8.6 8.6 0 0 0 1.044 1.457c.391.443.828.791 1.308 1.044.477.253.986.392 1.528.418.54.023 1.115-.137 1.725-.485.661-.378 1.11-.879 1.348-1.508.24-.629.336-1.288.29-1.984a7.877 7.877 0 0 0-.421-2.075 21.037 21.037 0 0 0-.729-1.875 39.032 39.032 0 0 1-1.076-2.439 15.8 15.8 0 0 0-1.197-2.374l1.543-2.829a228.18 228.18 0 0 0 3.538 2.457c1.176.801 2.361 1.599 3.553 2.395.469.33 1.042.703 1.719 1.123.68.422 1.392.775 2.141 1.07a8.414 8.414 0 0 0 2.213.555 3.276 3.276 0 0 0 2.005-.408c.766-.441 1.203-.995 1.311-1.671.107-.673-.055-1.383-.477-2.123a8.154 8.154 0 0 0-1.042-1.41zM81.238 46.547A4.805 4.805 0 0 1 80.381 48a8.686 8.686 0 0 1-1.296 1.251c-.481.381-.899.701-1.253.956a8.183 8.183 0 0 1-.414-1.668 7.3 7.3 0 0 1-.046-1.854 4.44 4.44 0 0 1 .508-1.678c.276-.504.721-.893 1.334-1.165.419-.186.812-.125 1.179.179.368.304.632.636.794.998.219.502.237 1.01.051 1.528zm9.961 4.59a2.545 2.545 0 0 0-1.745.123c-.502.223-.936.58-1.301 1.077a20.935 20.935 0 0 0-1.065 1.599c-.35.571-.725 1.112-1.132 1.627a3.792 3.792 0 0 1-1.446 1.139c-.753.332-1.48.441-2.185.318-.702-.121-1.291-.562-1.761-1.32a11.428 11.428 0 0 0 3.301-2.488 12.44 12.44 0 0 0 2.278-3.437c.551-1.244.852-2.56.9-3.952a9.04 9.04 0 0 0-.792-4.049c-.446-1.005-1.042-1.824-1.789-2.457a7.416 7.416 0 0 0-2.474-1.406 7.452 7.452 0 0 0-2.861-.357 8.402 8.402 0 0 0-2.928.724c-1.675.738-2.918 1.824-3.736 3.253a12.257 12.257 0 0 0-1.529 4.68 17.548 17.548 0 0 0 .169 5.177c.312 1.761.779 3.339 1.395 4.734.582 1.311 1.381 2.566 2.396 3.766a14.46 14.46 0 0 0 3.454 2.996c1.287.798 2.672 1.311 4.156 1.536s2.963.012 4.443-.643c.864-.383 1.716-1.019 2.555-1.907.84-.889 1.556-1.891 2.148-3.003s.986-2.253 1.182-3.427c.2-1.17.089-2.23-.333-3.177-.261-.588-.695-.962-1.3-1.126zM102.45 38.098a4.831 4.831 0 0 1-.991 1.367 9.035 9.035 0 0 1-1.409 1.123c-.516.332-.962.608-1.337.831a8.114 8.114 0 0 1-.255-1.699 7.324 7.324 0 0 1 .129-1.852 4.37 4.37 0 0 1 .664-1.62c.324-.478.803-.821 1.44-1.035.432-.146.819-.049 1.157.288.336.336.57.694.695 1.07a1.98 1.98 0 0 1-.093 1.527zm9.483 5.511a2.541 2.541 0 0 0-1.75-.042c-.521.174-.986.49-1.395.947-.41.459-.816.956-1.216 1.49-.4.536-.826 1.04-1.277 1.513-.454.473-.97.805-1.548.998-.78.262-1.515.297-2.206.111-.687-.188-1.231-.68-1.627-1.48a11.423 11.423 0 0 0 3.52-2.165 12.408 12.408 0 0 0 2.593-3.207 10.667 10.667 0 0 0 1.27-3.847 9.065 9.065 0 0 0-.408-4.107c-.348-1.04-.863-1.91-1.548-2.618a7.456 7.456 0 0 0-2.33-1.631 7.47 7.47 0 0 0-2.812-.627 8.501 8.501 0 0 0-2.988.443c-1.735.578-3.077 1.543-4.026 2.887a12.267 12.267 0 0 0-1.963 4.513 17.526 17.526 0 0 0-.323 5.172c.144 1.782.461 3.397.942 4.843.456 1.36 1.13 2.685 2.029 3.977a14.488 14.488 0 0 0 3.155 3.309 10.907 10.907 0 0 0 3.99 1.919c1.456.367 2.952.295 4.487-.218.896-.299 1.802-.852 2.724-1.659a13.726 13.726 0 0 0 2.421-2.782 11.36 11.36 0 0 0 1.501-3.3c.307-1.149.297-2.214-.03-3.195-.2-.608-.596-1.023-1.185-1.244zM130.466 35.876a9.66 9.66 0 0 1-.008 2.13 5.587 5.587 0 0 1-.55 1.896c-.284.562-.739.907-1.364 1.042-.269.06-.599.084-.991.077a5.175 5.175 0 0 1-1.181-.167 6.63 6.63 0 0 1-1.115-.39c-.347-.16-.593-.364-.741-.613-.125-.16-.248-.397-.363-.717a17.638 17.638 0 0 1-.336-1.005c-.106-.35-.205-.696-.294-1.035s-.154-.613-.201-.821c-.059-.269-.13-.673-.216-1.216s-.082-.951.016-1.221c.26-.68.732-1.337 1.424-1.968.689-.633 1.392-1.028 2.108-1.183.536-.116 1.008-.086 1.422.09.412.176.758.443 1.04.805.28.36.507.763.682 1.209.174.446.311.893.407 1.339.095.448.182 1.031.261 1.748zm5.098-6.391a15.808 15.808 0 0 0-1.921-3.585c-.78-1.079-1.713-1.924-2.794-2.532-1.085-.608-2.339-.759-3.771-.448a9.618 9.618 0 0 0-3.692 1.641c-1.089.796-1.985 1.817-2.684 3.058-.16-.309-.357-.638-.592-.995a5.953 5.953 0 0 0-.795-.975 3.24 3.24 0 0 0-.986-.673 1.792 1.792 0 0 0-1.124-.109c-.594.13-1.05.485-1.36 1.065-.312.582-.515 1.297-.614 2.144a14.92 14.92 0 0 0-.037 2.747c.073.982.174 1.926.31 2.833.133.907.281 1.74.447 2.499.162.761.285 1.32.362 1.678.433 1.998.877 3.982 1.335 5.959.458 1.975.903 3.961 1.335 5.957.081.388.215 1 .396 1.833.18.835.393 1.757.644 2.761.247 1.007.55 2.049.908 3.126a22.888 22.888 0 0 0 1.161 2.884c.418.845.883 1.518 1.396 2.014.513.499 1.052.685 1.617.562.985-.211 1.67-.68 2.061-1.404.388-.724.602-1.541.639-2.453a11.842 11.842 0 0 0-.233-2.805 88.813 88.813 0 0 1-.463-2.471l-.989-6.525c.269.378.594.661.977.842.381.181.791.304 1.225.367s.879.072 1.342.037c.459-.037.897-.102 1.313-.19 1.639-.357 2.906-1.098 3.801-2.228.896-1.128 1.533-2.437 1.913-3.922.379-1.487.543-3.042.487-4.669-.055-1.624-.224-3.093-.508-4.404-.233-1.101-.604-2.308-1.106-3.619zM162.295 9.956c-.791-.601-1.718-.879-2.785-.828-1.341.065-2.678.524-4.01 1.383a15.367 15.367 0 0 0-3.556 3.167 16.606 16.606 0 0 0-2.508 4.103c-.632 1.48-.917 2.875-.854 4.184.051 1.067.413 2.102 1.086 3.107a32.65 32.65 0 0 0 2.224 2.94c.81.954 1.549 1.88 2.216 2.778.667.9 1.024 1.791 1.065 2.676a3.456 3.456 0 0 1-.417 1.826 9.096 9.096 0 0 1-1.157 1.682 22.657 22.657 0 0 1-1.545 1.629 17.735 17.735 0 0 0-1.545 1.678 9.834 9.834 0 0 0-1.153 1.771 3.933 3.933 0 0 0-.411 1.965c.05 1.037.454 1.796 1.208 2.279.758.483 1.607.701 2.551.657.852-.039 1.723-.304 2.616-.789s1.742-1.107 2.546-1.861a19.05 19.05 0 0 0 2.259-2.557 19.92 19.92 0 0 0 1.804-2.926c.504-1 .891-1.986 1.165-2.963.275-.972.393-1.84.357-2.604-.052-1.093-.249-2.047-.594-2.854a10.476 10.476 0 0 0-1.224-2.163 12.36 12.36 0 0 0-1.547-1.713c-.558-.506-1.072-1-1.537-1.485a9.911 9.911 0 0 1-1.193-1.476 3.391 3.391 0 0 1-.54-1.715c-.035-.731.087-1.392.364-1.986a6.22 6.22 0 0 1 1.113-1.631 11.12 11.12 0 0 1 1.536-1.355 75.11 75.11 0 0 1 1.641-1.156 5.597 5.597 0 0 0 1.515-1.353c.418-.538.609-1.16.577-1.859-.052-1.099-.476-1.948-1.267-2.551zM181.932 47.605a8.18 8.18 0 0 0 1.974-.564 4.33 4.33 0 0 0 1.497-1.072c.404-.45.621-.998.654-1.638.043-.852-.1-1.562-.422-2.128-.32-.564-.877-.868-1.668-.907a8.371 8.371 0 0 0-1.378.046 8.094 8.094 0 0 1-1.328.046c-.702-.035-1.24-.237-1.617-.606a3.132 3.132 0 0 1-.806-1.302 5.166 5.166 0 0 1-.242-1.545c-.005-.534.005-1 .024-1.395.027-.55.077-1.088.15-1.62.072-.529.151-1.054.239-1.569.145-1.06.282-2.114.412-3.161.128-1.047.316-2.188.56-3.43a17.563 17.563 0 0 0 2.164-.234 10.91 10.91 0 0 0 2.184-.601c.685-.269 1.257-.608 1.721-1.012.461-.404.71-.879.734-1.429a1.861 1.861 0 0 0-.392-1.279 3.38 3.38 0 0 0-1.122-.903 6.174 6.174 0 0 0-1.53-.536 10.242 10.242 0 0 0-1.614-.218l-.505-.002c-.184.007-.536.028-1.056.063.289-.933.498-1.715.621-2.351.124-.636.2-1.255.231-1.866a7.324 7.324 0 0 0-.104-1.608 5.466 5.466 0 0 0-.472-1.513 3.424 3.424 0 0 0-.882-1.142 2.077 2.077 0 0 0-1.277-.499c-.855-.044-1.57.225-2.15.808-.578.582-1.049 1.313-1.414 2.195s-.633 1.838-.809 2.866a25.65 25.65 0 0 0-.325 2.824c-.672.03-1.386.114-2.142.26-.754.144-1.458.353-2.113.624-.656.274-1.2.613-1.634 1.019-.43.406-.661.882-.688 1.429-.045.884.281 1.557.975 2.019.691.462 1.529.719 2.501.766.153.009.352.012.596.007.244-.002.579.007 1.005.028a99.434 99.434 0 0 0-.643 4.615 68.765 68.765 0 0 0-.353 4.311 57.881 57.881 0 0 0-.063 4.896c.048 1.469.343 2.734.884 3.799.543 1.067 1.4 1.91 2.577 2.534 1.174.624 2.84.989 5.004 1.098a9.603 9.603 0 0 0 2.042-.123zM211.888 33.559c.717-.408 1.121-1.1 1.219-2.072.102-.814.012-1.557-.263-2.221-.281-.664-.682-1.23-1.207-1.701s-1.128-.849-1.808-1.13a8.035 8.035 0 0 0-2.112-.552c-1.454-.174-2.693.032-3.717.622-1.021.592-1.99 1.413-2.905 2.469.048-.455.051-.965.02-1.525a7.575 7.575 0 0 0-.269-1.62 3.94 3.94 0 0 0-.682-1.364 1.884 1.884 0 0 0-1.228-.708c-.934-.153-1.701-.03-2.308.364-.604.394-1.1.926-1.486 1.587a8.095 8.095 0 0 0-.868 2.2 31.96 31.96 0 0 0-.451 2.198 48.284 48.284 0 0 0-.406 3.2 73.075 73.075 0 0 1-.361 3.207c-.055.332-.13.768-.233 1.306a32.472 32.472 0 0 0-.292 1.782c-.09.652-.172 1.339-.244 2.07a35.625 35.625 0 0 0-.151 2.2c-.023.708-.006 1.404.055 2.093.053.689.173 1.304.347 1.842.175.538.426.986.752 1.351a2.1 2.1 0 0 0 1.259.668c.661.107 1.233 0 1.721-.323.484-.323.903-.75 1.251-1.279a8.172 8.172 0 0 0 .862-1.736c.226-.627.392-1.181.502-1.657.133-.441.266-1.054.392-1.836.128-.782.277-1.608.449-2.476.136-.842.29-1.629.454-2.358.166-.731.323-1.269.472-1.615.238-.517.54-1.03.902-1.545a7.535 7.535 0 0 1 1.215-1.355c.45-.388.933-.696 1.449-.921a3.264 3.264 0 0 1 1.682-.237c.336.026.632.114.886.262.251.149.505.306.758.471.28.169.562.332.846.485.282.153.638.251 1.065.29.908.12 1.718-.026 2.433-.436zM226.92 39.243c.207.538.321 1.176.345 1.912.02.738-.023 1.511-.132 2.32-.113.81-.262 1.536-.451 2.179a21.747 21.747 0 0 1-.792 2.223c-.325.78-.689 1.474-1.091 2.086-.403.615-.837 1.088-1.302 1.429s-.933.441-1.4.304c-.439-.13-.759-.469-.962-1.021-.204-.55-.321-1.207-.354-1.963-.033-.754.007-1.562.114-2.423.109-.854.267-1.636.472-2.339.164-.555.412-1.188.748-1.9a14.55 14.55 0 0 1 1.13-1.982c.415-.606.86-1.095 1.335-1.467.473-.369.929-.49 1.369-.36.439.132.764.466.971 1.002zm-2.713 18.745c1.402-.446 2.667-1.186 3.8-2.221 1.129-1.035 2.121-2.286 2.98-3.75s1.561-2.956 2.104-4.483c.499-1.378.833-2.901 1.005-4.564.172-1.666.103-3.267-.209-4.803a10.557 10.557 0 0 0-1.808-4.154c-.896-1.232-2.162-2.088-3.799-2.569-1.696-.497-3.288-.497-4.77.005-1.483.506-2.817 1.32-4.007 2.448-1.188 1.128-2.217 2.464-3.079 4.005a22.185 22.185 0 0 0-1.981 4.639 18.74 18.74 0 0 0-.737 4.622 15.01 15.01 0 0 0 .507 4.604c.399 1.453 1.04 2.736 1.919 3.852.881 1.116 2.068 1.894 3.558 2.332 1.608.471 3.114.483 4.517.037zM247.629 68.887c.841-.364 1.685-.944 2.533-1.738a25.1 25.1 0 0 0 2.508-2.773 41.81 41.81 0 0 0 2.251-3.158 48.81 48.81 0 0 0 1.754-2.928c.493-.898.842-1.585 1.05-2.061.413-.949.835-2.03 1.266-3.239.427-1.211.676-2.409.744-3.592a6.673 6.673 0 0 0-.643-3.328c-.499-1.03-1.458-1.859-2.883-2.481-.754-.33-1.461-.538-2.123-.627a7.415 7.415 0 0 0-1.884-.026 7.56 7.56 0 0 0-1.701.406 8.805 8.805 0 0 0-1.478.701c.052-.346.09-.761.12-1.246.03-.487.006-.963-.075-1.429a4.42 4.42 0 0 0-.411-1.279 1.768 1.768 0 0 0-.884-.835c-.868-.378-1.652-.371-2.356.021-.701.392-1.332.956-1.887 1.694a12.86 12.86 0 0 0-1.421 2.399c-.393.861-.711 1.571-.956 2.128a83.622 83.622 0 0 0-1.29 3.13 86.873 86.873 0 0 1-1.311 3.17l-.861 1.97c-.145.336-.35.787-.614 1.353-.265.569-.526 1.2-.784 1.905a32.739 32.739 0 0 0-.705 2.186 9.453 9.453 0 0 0-.36 2.139c-.026.671.063 1.267.268 1.789.204.52.586.903 1.145 1.146.502.22.986.299 1.446.234a3.85 3.85 0 0 0 1.319-.448c.417-.232.81-.545 1.178-.933a8.926 8.926 0 0 0 1.012-1.279c.33-.457.639-.935.926-1.443.289-.506.556-1.005.804-1.494l1.063-2.432c.28-.643.55-1.281.811-1.917.261-.633.527-1.258.794-1.875.111-.248.368-.594.775-1.033.41-.436.857-.856 1.348-1.258.491-.399.979-.738 1.463-1.007.484-.271.852-.353 1.103-.241.362.158.608.399.733.719.126.32.164.678.109 1.07a6.054 6.054 0 0 1-.298 1.193 17.19 17.19 0 0 1-.433 1.107c-.367.84-.782 1.657-1.246 2.453a87.072 87.072 0 0 1-1.433 2.367 84.738 84.738 0 0 0-1.434 2.369c-.464.794-.879 1.61-1.244 2.45a19.58 19.58 0 0 0-.514 1.348 10.87 10.87 0 0 0-.469 1.817 5.373 5.373 0 0 0-.023 1.759c.09.557.375.937.849 1.146.725.321 1.508.296 2.349-.069zM273.075 71.439a7.183 7.183 0 0 1-1.837 1.246 5.386 5.386 0 0 1-2.088.508c-.726.028-1.446-.172-2.151-.594-.471-.281-.733-.705-.785-1.269a5.49 5.49 0 0 1 .159-1.824 9.463 9.463 0 0 1 .676-1.887c.292-.606.54-1.081.741-1.42.283-.471.709-.991 1.276-1.557a9.928 9.928 0 0 1 1.853-1.448 6.563 6.563 0 0 1 2.065-.817 2.65 2.65 0 0 1 1.963.323c.471.281.751.733.844 1.355a6.473 6.473 0 0 1-.051 1.998 11.82 11.82 0 0 1-.57 2.109c-.259.698-.504 1.244-.738 1.636a7.437 7.437 0 0 1-1.357 1.641zm9.576-1.837c.331-.55.679-1.167 1.053-1.847.374-.685.727-1.397 1.064-2.137.336-.74.608-1.448.818-2.121.208-.675.296-1.269.268-1.787-.03-.515-.227-.882-.593-1.1-.68-.408-1.415-.483-2.211-.23a9.855 9.855 0 0 0-2.112.947c.495-1.123.53-2.204.103-3.242-.428-1.037-1.138-1.854-2.134-2.448-1.02-.613-2.097-.935-3.227-.972a10.306 10.306 0 0 0-3.402.469c-1.134.353-2.254.873-3.359 1.562s-2.141 1.455-3.106 2.3a25.09 25.09 0 0 0-2.621 2.641c-.781.919-1.414 1.784-1.897 2.594-.784 1.309-1.367 2.613-1.754 3.908-.385 1.299-.533 2.553-.437 3.762a7.3 7.3 0 0 0 1.156 3.411c.679 1.065 1.711 2.01 3.099 2.84.758.455 1.55.777 2.377.97.825.19 1.679.144 2.564-.144a24.552 24.552 0 0 1-1.904 2.244c-.718.759-1.5 1.395-2.339 1.905a6.255 6.255 0 0 1-2.672.905c-.944.093-1.899-.149-2.869-.729a3.365 3.365 0 0 1-.949-.863 22.415 22.415 0 0 1-.804-1.146 17.075 17.075 0 0 0-.846-1.172 3.926 3.926 0 0 0-1.067-.933c-.681-.408-1.389-.485-2.126-.232-.738.251-1.286.678-1.646 1.279a3.685 3.685 0 0 0-.475 2.622 8.153 8.153 0 0 0 1.034 2.724 12.412 12.412 0 0 0 1.899 2.441c.74.745 1.467 1.33 2.172 1.754 1.519.907 2.991 1.416 4.419 1.525a10.17 10.17 0 0 0 4.12-.52 13.207 13.207 0 0 0 3.755-2.044 28.716 28.716 0 0 0 3.371-3.047 39.028 39.028 0 0 0 2.963-3.529c.914-1.23 1.752-2.397 2.522-3.502a97.479 97.479 0 0 0 2.609-3.873 157.376 157.376 0 0 0 2.455-3.968l.729-1.217zM285.684 91.488a3.645 3.645 0 0 0-1.244-1.555 4.378 4.378 0 0 0-1.228-.61 5.017 5.017 0 0 0-1.432-.246 3.757 3.757 0 0 0-1.371.218c-.435.158-.785.42-1.053.789-.449.617-.53 1.244-.242 1.889a3.82 3.82 0 0 0 1.247 1.555c.37.267.776.487 1.218.659.441.169.898.265 1.37.288.473.023.92-.049 1.342-.211.42-.167.784-.459 1.088-.879.467-.642.57-1.273.305-1.897zm12.026-13.566a61.124 61.124 0 0 0 1.885-2.673c.652-.977 1.28-2 1.888-3.068.603-1.065 1.082-2.084 1.429-3.058.346-.972.514-1.849.499-2.634-.017-.782-.319-1.39-.911-1.819-.668-.483-1.362-.696-2.081-.636-.723.06-1.444.299-2.164.719-.717.42-1.417.956-2.101 1.61a29.191 29.191 0 0 0-1.947 2.061 33.3 33.3 0 0 0-1.665 2.1c-.494.678-.9 1.239-1.222 1.682-.323.443-.779 1.084-1.366 1.919a54.544 54.544 0 0 0-3.663 6.017c-.586 1.121-1.051 2.186-1.392 3.2s-.513 1.926-.516 2.734c-.001.81.267 1.411.811 1.805.444.323.986.404 1.627.248.642-.158 1.323-.471 2.044-.947a21.392 21.392 0 0 0 2.232-1.713 30.103 30.103 0 0 0 2.146-2.058c.663-.708 1.265-1.381 1.807-2.023s.958-1.16 1.245-1.557c.34-.465.811-1.104 1.415-1.909z"/></g><g fill="#740806"><path d="M74.792 64.965a19.224 19.224 0 0 0-1.625-1.581 24.356 24.356 0 0 0-1.699-1.355c-.56-.41-1.124-.787-1.668-1.114-1.377-.887-2.75-1.765-4.12-2.64a94.315 94.315 0 0 0-2.465-1.518 30.849 30.849 0 0 0 .425-6.498 24.556 24.556 0 0 0-.617-4.594 16.137 16.137 0 0 0-1.683-4.351c-.755-1.325-1.783-2.246-3.052-2.731a4.8 4.8 0 0 0-1.733-.32c-.955 0-1.925.276-2.883.819-.981.562-2.27 1.685-2.896 3.877a17.074 17.074 0 0 0-.613 3.866 38.223 38.223 0 0 0 .006 3.707c.013.268.022.511.029.732a17.33 17.33 0 0 0-1.885-2.684c-.902-1.051-1.932-1.851-3.061-2.38a5.275 5.275 0 0 0-2.249-.507c-.971 0-1.933.268-2.859.797-.971.558-1.728 1.273-2.256 2.131a6.506 6.506 0 0 0-.909 2.648 7.38 7.38 0 0 0 .158 2.586c.181.752.445 1.479.787 2.166a295.336 295.336 0 0 0 3.293 6.507 615.533 615.533 0 0 0 3.4 6.42 69.178 69.178 0 0 1 2.265 4.715 53.525 53.525 0 0 0 2.573 5.144l.186.324a11.62 11.62 0 0 0 1.409 1.964 7.605 7.605 0 0 0 2.146 1.699 6.576 6.576 0 0 0 2.787.762l.244.005c1.038 0 2.083-.296 3.108-.881 1.265-.724 2.186-1.778 2.668-3.053a7.62 7.62 0 0 0 .478-3.245 10.898 10.898 0 0 0-.579-2.854 24.006 24.006 0 0 0-.827-2.123l-.036-.077c-.077-.16-.153-.321-.228-.482.728.492 1.458.982 2.192 1.473a38.55 38.55 0 0 0 1.834 1.197c.813.505 1.695.946 2.622 1.312a11.43 11.43 0 0 0 2.999.746c.238.024.469.036.695.036a6.204 6.204 0 0 0 3.109-.821c1.986-1.144 2.611-2.699 2.787-3.804.216-1.362-.064-2.735-.833-4.083a11.105 11.105 0 0 0-1.424-1.937zm-.705 5.547c-.108.676-.545 1.23-1.311 1.671a3.22 3.22 0 0 1-1.623.428c-.125 0-.253-.006-.382-.02a8.378 8.378 0 0 1-2.212-.555 13.161 13.161 0 0 1-2.141-1.069 36.71 36.71 0 0 1-1.72-1.123 549.265 549.265 0 0 1-3.553-2.395 240.628 240.628 0 0 1-3.538-2.458l-1.543 2.829c.464.754.863 1.545 1.197 2.374.331.826.69 1.641 1.076 2.438.25.56.494 1.184.729 1.875a7.87 7.87 0 0 1 .421 2.074 4.633 4.633 0 0 1-.29 1.984c-.238.629-.687 1.13-1.348 1.508-.572.326-1.113.487-1.623.487l-.103-.002a3.573 3.573 0 0 1-1.528-.418 4.626 4.626 0 0 1-1.308-1.044 8.49 8.49 0 0 1-1.044-1.457l-.182-.318a50.048 50.048 0 0 1-2.428-4.854 72.385 72.385 0 0 0-2.374-4.938 580.777 580.777 0 0 1-3.383-6.389 286.848 286.848 0 0 1-3.267-6.455 7.21 7.21 0 0 1-.555-1.527 4.41 4.41 0 0 1-.095-1.55c.058-.511.222-.979.483-1.413.264-.43.661-.796 1.19-1.101.469-.268.926-.401 1.371-.401.332 0 .657.074.975.223.743.349 1.43.887 2.057 1.618a14.362 14.362 0 0 1 1.668 2.415c.485.882.894 1.613 1.227 2.195.954 1.669 1.866 3.36 2.74 5.072.403-1.071.736-2.229.996-3.464.26-1.237.427-2.439.496-3.604.059-.699.06-1.62.003-2.765a35.15 35.15 0 0 1-.006-3.42c.053-1.137.221-2.197.501-3.184.281-.984.777-1.683 1.491-2.091.502-.285.97-.429 1.403-.429.23 0 .451.041.661.122.607.232 1.113.706 1.52 1.421a13.051 13.051 0 0 1 1.364 3.541c.303 1.299.486 2.645.541 4.035.057 1.39.008 2.769-.141 4.135a23.993 23.993 0 0 1-.685 3.736 94.9 94.9 0 0 1 4.249 2.55c1.38.882 2.764 1.766 4.151 2.659a21.979 21.979 0 0 1 2.988 2.19c.488.423.943.866 1.366 1.328.418.461.767.93 1.04 1.408.424.745.586 1.455.479 2.128zM81.186 45.017c-.161-.361-.426-.693-.793-.997-.228-.189-.467-.284-.715-.284-.151 0-.306.035-.464.105-.614.271-1.058.661-1.334 1.165a4.434 4.434 0 0 0-.508 1.678 7.302 7.302 0 0 0 .046 1.854c.094.627.231 1.184.414 1.669.354-.256.771-.576 1.253-.956A8.784 8.784 0 0 0 80.381 48c.382-.45.668-.936.857-1.453a2 2 0 0 0-.052-1.53zM102.45 38.098a1.988 1.988 0 0 0 .093-1.526c-.125-.376-.358-.733-.695-1.07-.236-.235-.496-.354-.779-.354a1.14 1.14 0 0 0-.377.066c-.637.213-1.116.557-1.439 1.034a4.37 4.37 0 0 0-.664 1.62 7.278 7.278 0 0 0-.128 1.852c.035.631.117 1.197.255 1.698.375-.223.82-.498 1.337-.83a9.027 9.027 0 0 0 1.408-1.123c.421-.416.754-.87.989-1.367zM130.205 34.128a8.76 8.76 0 0 0-.407-1.339 4.86 4.86 0 0 0-.682-1.209 2.597 2.597 0 0 0-1.04-.806 2.062 2.062 0 0 0-.814-.159c-.193 0-.396.022-.608.069-.716.155-1.419.55-2.108 1.183-.691.632-1.164 1.288-1.424 1.968-.099.27-.102.678-.016 1.221s.157.947.216 1.216a28.247 28.247 0 0 0 .494 1.856c.108.354.219.689.336 1.005.115.32.238.558.363.718.148.248.395.452.742.612.347.157.72.29 1.115.39.395.103.788.158 1.181.167l.131.001c.335 0 .621-.024.859-.077.625-.135 1.08-.48 1.365-1.042.284-.56.467-1.193.55-1.896a9.599 9.599 0 0 0 .008-2.13 18.52 18.52 0 0 0-.261-1.748zm-2.727 3.53a3.478 3.478 0 0 1-.058.349 2.269 2.269 0 0 1-.296-.058l-.233-.066c-.074-.21-.14-.417-.206-.631-.091-.302-.18-.61-.259-.913-.08-.302-.135-.537-.175-.717-.041-.184-.1-.52-.175-.993.097-.139.251-.324.493-.545.154-.141.284-.24.39-.31l.048.113c.115.294.206.59.267.875.048.229.127.676.211 1.441.05.486.048.979-.007 1.455z"/><path d="M139.605 32.469c-.266-1.239-.684-2.606-1.24-4.058a18.874 18.874 0 0 0-2.289-4.266c-1.035-1.432-2.298-2.572-3.758-3.393a7.774 7.774 0 0 0-3.853-.99c-.654 0-1.335.076-2.025.226a12.649 12.649 0 0 0-4.827 2.151c-.321.234-.63.484-.926.749a6.172 6.172 0 0 0-1.167-.667 4.779 4.779 0 0 0-2.947-.287c-1.459.318-2.654 1.236-3.374 2.584-.486.906-.805 1.987-.947 3.211a18.018 18.018 0 0 0-.05 3.31 41.36 41.36 0 0 0 .335 3.062c.147.999.305 1.884.483 2.696l.255 1.185.104.48c.208.958.418 1.913.631 2.862a5.167 5.167 0 0 0-1.026-.526 5.677 5.677 0 0 0-1.991-.367l-.167.003c.202-.687.351-1.392.447-2.113a12.061 12.061 0 0 0-.538-5.454c-.489-1.461-1.241-2.723-2.236-3.752a10.508 10.508 0 0 0-3.269-2.287 10.459 10.459 0 0 0-3.933-.883 11.475 11.475 0 0 0-4.037.597c-2.339.779-4.2 2.126-5.524 4a15.284 15.284 0 0 0-2.444 5.608 20.161 20.161 0 0 0-.442 4.125c-.617-1.291-1.434-2.388-2.449-3.248a10.461 10.461 0 0 0-3.46-1.963 10.358 10.358 0 0 0-3.297-.528 11.407 11.407 0 0 0-4.662.998c-2.255.993-3.981 2.51-5.123 4.505a15.312 15.312 0 0 0-1.905 5.817 20.635 20.635 0 0 0 .195 6.058c.351 1.98.891 3.805 1.604 5.419.698 1.572 1.656 3.081 2.85 4.491a17.503 17.503 0 0 0 4.166 3.609 13.935 13.935 0 0 0 5.284 1.951c.527.08 1.063.12 1.591.12 1.518 0 3.037-.331 4.516-.985 1.228-.544 2.413-1.416 3.523-2.592a16.837 16.837 0 0 0 2.614-3.652 14.258 14.258 0 0 0 1.46-4.185c.155.127.299.268.458.389a13.923 13.923 0 0 0 5.079 2.439c.837.211 1.704.319 2.569.319a11.33 11.33 0 0 0 3.593-.603c1.27-.425 2.531-1.181 3.75-2.247a16.77 16.77 0 0 0 2.947-3.384 14.602 14.602 0 0 0 1.698-3.541c.068.309.136.611.203.922.071.337.189.883.348 1.613l.048.222c.193.896.417 1.857.665 2.851.262 1.069.59 2.199.973 3.347a25.988 25.988 0 0 0 1.316 3.261c.572 1.158 1.245 2.113 2.001 2.846 1.225 1.191 2.509 1.443 3.37 1.443.324 0 .651-.036.972-.105 2.327-.499 3.494-1.858 4.062-2.91.608-1.136.942-2.396.997-3.756a14.912 14.912 0 0 0-.289-3.517 81.848 81.848 0 0 1-.442-2.358l-.273-1.805.092-.007c.589-.048 1.159-.13 1.71-.247 2.347-.512 4.202-1.62 5.532-3.301 1.151-1.448 1.982-3.146 2.467-5.039.45-1.763.644-3.617.579-5.516-.063-1.794-.256-3.456-.577-4.937zM92.83 55.439c-.196 1.174-.59 2.315-1.182 3.427s-1.308 2.114-2.147 3.003-1.69 1.524-2.555 1.907c-1.1.487-2.2.729-3.302.729-.38 0-.76-.028-1.141-.086a10.933 10.933 0 0 1-4.156-1.536 14.48 14.48 0 0 1-3.454-2.996c-1.015-1.199-1.813-2.455-2.396-3.767-.616-1.395-1.083-2.972-1.395-4.733a17.547 17.547 0 0 1-.169-5.177 12.261 12.261 0 0 1 1.529-4.681c.818-1.43 2.061-2.516 3.736-3.253a8.43 8.43 0 0 1 3.445-.741c.817 0 1.6.124 2.344.373a7.46 7.46 0 0 1 2.474 1.406c.747.634 1.343 1.453 1.789 2.458a9.026 9.026 0 0 1 .792 4.049 10.577 10.577 0 0 1-.9 3.952 12.456 12.456 0 0 1-2.278 3.437 11.425 11.425 0 0 1-3.301 2.487c.47.759 1.06 1.199 1.761 1.32.188.033.377.049.568.049.526 0 1.064-.123 1.617-.366a3.794 3.794 0 0 0 1.445-1.14c.407-.516.782-1.056 1.133-1.627.346-.573.701-1.104 1.065-1.599.364-.497.798-.854 1.301-1.077a2.54 2.54 0 0 1 1.745-.123c.606.165 1.04.539 1.298 1.126.423.948.534 2.009.334 3.179zm20.321-7.391a11.425 11.425 0 0 1-1.501 3.3 13.699 13.699 0 0 1-2.421 2.782c-.922.808-1.829 1.36-2.724 1.659a8.297 8.297 0 0 1-2.642.448 7.533 7.533 0 0 1-1.845-.23 10.875 10.875 0 0 1-3.99-1.919 14.468 14.468 0 0 1-3.155-3.309c-.899-1.293-1.573-2.617-2.029-3.978-.481-1.445-.798-3.061-.942-4.843a17.523 17.523 0 0 1 .323-5.172 12.265 12.265 0 0 1 1.963-4.514c.949-1.344 2.292-2.309 4.026-2.887a8.481 8.481 0 0 1 2.987-.443 7.432 7.432 0 0 1 2.812.627c.868.385 1.646.93 2.33 1.631.685.708 1.2 1.578 1.548 2.617.455 1.36.59 2.729.408 4.107a10.667 10.667 0 0 1-1.271 3.848 12.408 12.408 0 0 1-2.593 3.207 11.423 11.423 0 0 1-3.52 2.165c.396.801.94 1.292 1.626 1.48.289.077.585.116.89.116a4.1 4.1 0 0 0 1.315-.228 3.773 3.773 0 0 0 1.548-.998c.452-.474.877-.977 1.277-1.513.4-.534.807-1.03 1.216-1.49.408-.457.874-.772 1.395-.946a2.513 2.513 0 0 1 1.749.042c.589.22.985.636 1.188 1.243.33.984.34 2.05.032 3.198zm23.543-5.87c-.38 1.485-1.018 2.794-1.913 3.922-.895 1.13-2.162 1.87-3.801 2.228-.417.088-.854.153-1.313.19-.176.013-.349.02-.52.02-.28 0-.554-.019-.823-.057a4.296 4.296 0 0 1-1.225-.367 2.52 2.52 0 0 1-.977-.842l.989 6.524c.117.692.271 1.514.463 2.472.191.956.27 1.892.233 2.806-.037.912-.251 1.729-.639 2.452-.391.725-1.076 1.193-2.061 1.404a1.597 1.597 0 0 1-.334.037c-.445 0-.873-.199-1.283-.599-.513-.496-.979-1.17-1.396-2.014a22.878 22.878 0 0 1-1.161-2.885 40.14 40.14 0 0 1-.909-3.126 90.453 90.453 0 0 1-.644-2.761c-.181-.834-.314-1.446-.396-1.834a431.674 431.674 0 0 0-1.335-5.956 417.934 417.934 0 0 1-1.335-5.959c-.077-.357-.2-.917-.362-1.678a37.27 37.27 0 0 1-.447-2.499 38.395 38.395 0 0 1-.31-2.834 14.92 14.92 0 0 1 .037-2.747c.099-.847.302-1.562.614-2.145.31-.58.766-.935 1.36-1.064a1.79 1.79 0 0 1 1.124.108c.359.155.69.381.986.673.3.297.564.622.795.975.234.357.432.688.592.996.698-1.242 1.594-2.263 2.684-3.059a9.618 9.618 0 0 1 3.692-1.641 6.6 6.6 0 0 1 1.388-.157c.87 0 1.664.202 2.383.605 1.081.607 2.014 1.452 2.794 2.531a15.808 15.808 0 0 1 1.921 3.585c.502 1.312.872 2.518 1.109 3.62.284 1.312.454 2.78.508 4.404a16.516 16.516 0 0 1-.488 4.672zM164.041 26.444a15.34 15.34 0 0 0-1.932-2.138 27.797 27.797 0 0 1-1.395-1.347 6.915 6.915 0 0 1-.847-1.04c-.015-.023-.047-.072-.054-.22-.017-.351.061-.517.086-.571.141-.302.332-.579.586-.852a8.113 8.113 0 0 1 1.114-.981 67.155 67.155 0 0 1 1.513-1.066 8.616 8.616 0 0 0 2.246-2.028 5.744 5.744 0 0 0 1.201-3.834c-.097-1.994-.943-3.65-2.446-4.797-1.267-.962-2.732-1.448-4.358-1.448-.128 0-.258.003-.389.009-1.873.091-3.72.716-5.492 1.858a18.44 18.44 0 0 0-4.244 3.778 19.713 19.713 0 0 0-2.955 4.835c-.809 1.894-1.176 3.745-1.092 5.506.077 1.614.612 3.173 1.59 4.633.737 1.1 1.554 2.18 2.428 3.211a51.013 51.013 0 0 1 2.096 2.627c.294.396.464.762.477 1.023a.467.467 0 0 1-.066.275 6.186 6.186 0 0 1-.79 1.145c-.397.466-.849.94-1.343 1.415a20.997 20.997 0 0 0-1.807 1.964 12.89 12.89 0 0 0-1.494 2.3 6.92 6.92 0 0 0-.728 3.454c.096 2.005 1.015 3.66 2.587 4.667a7.204 7.204 0 0 0 3.932 1.135c.125 0 .25-.003.376-.009 1.299-.06 2.614-.446 3.908-1.148a15.432 15.432 0 0 0 3.167-2.31 22.146 22.146 0 0 0 2.617-2.96 23.107 23.107 0 0 0 2.078-3.373 19.578 19.578 0 0 0 1.369-3.492c.359-1.271.516-2.469.465-3.555-.069-1.451-.349-2.76-.832-3.891a13.36 13.36 0 0 0-1.572-2.775zm-.947 9.411a16.535 16.535 0 0 1-1.165 2.963 19.877 19.877 0 0 1-1.804 2.927 19.111 19.111 0 0 1-2.259 2.557 12.311 12.311 0 0 1-2.546 1.861c-.893.484-1.765.749-2.616.789l-.236.005c-.85 0-1.621-.22-2.315-.662-.754-.482-1.158-1.241-1.208-2.278a3.927 3.927 0 0 1 .411-1.966 9.96 9.96 0 0 1 1.153-1.771c.461-.573.976-1.13 1.545-1.678a22.222 22.222 0 0 0 1.545-1.629c.463-.541.851-1.1 1.157-1.683a3.454 3.454 0 0 0 .417-1.826c-.041-.884-.398-1.774-1.065-2.675a54.731 54.731 0 0 0-2.216-2.778 32.839 32.839 0 0 1-2.225-2.939c-.673-1.005-1.035-2.04-1.086-3.107-.063-1.309.222-2.703.854-4.184a16.61 16.61 0 0 1 2.509-4.103 15.348 15.348 0 0 1 3.556-3.168c1.332-.858 2.669-1.318 4.01-1.383l.245-.006c.964 0 1.809.279 2.539.834.792.604 1.215 1.453 1.269 2.551a2.733 2.733 0 0 1-.577 1.858 5.65 5.65 0 0 1-1.516 1.353c-.531.364-1.079.747-1.641 1.156-.559.408-1.069.86-1.536 1.354a6.238 6.238 0 0 0-1.112 1.632c-.277.594-.399 1.255-.364 1.986a3.38 3.38 0 0 0 .539 1.715c.331.506.727.995 1.193 1.476.465.485.979.979 1.538 1.485a12.226 12.226 0 0 1 1.546 1.712c.471.634.881 1.355 1.224 2.163.345.808.542 1.762.594 2.854.037.764-.082 1.632-.357 2.605z"/><path d="M184.115 38.299a11.448 11.448 0 0 0-1.872.062 5.552 5.552 0 0 1-.596.036 2.217 2.217 0 0 1-.054-.482c-.004-.461.003-.871.021-1.226.022-.461.064-.918.125-1.36.068-.499.141-.989.224-1.471l.016-.1c.146-1.073.285-2.139.417-3.197.041-.338.09-.691.146-1.06l.091-.015a13.947 13.947 0 0 0 2.794-.771c.992-.39 1.864-.908 2.589-1.539 1.095-.96 1.702-2.188 1.762-3.56a4.822 4.822 0 0 0-1.024-3.257 6.384 6.384 0 0 0-2.113-1.725 9.285 9.285 0 0 0-2.27-.801l-.078-.017c.056-.425.095-.851.117-1.271a10.353 10.353 0 0 0-.144-2.271 8.444 8.444 0 0 0-.729-2.313 6.417 6.417 0 0 0-1.658-2.135 5.069 5.069 0 0 0-3.058-1.193 5.534 5.534 0 0 0-.322-.009 5.669 5.669 0 0 0-4.097 1.695c-.855.862-1.547 1.925-2.061 3.164a16.435 16.435 0 0 0-.995 3.51c-.036.22-.07.436-.101.647-.933.18-1.833.447-2.67.794-.991.414-1.841.951-2.534 1.6-1.008.95-1.57 2.149-1.634 3.474-.098 1.918.743 3.62 2.309 4.662.703.47 1.484.812 2.333 1.022a72.674 72.674 0 0 0-.559 6.058 61.285 61.285 0 0 0-.065 5.148c.062 1.896.468 3.598 1.208 5.055.826 1.624 2.119 2.91 3.846 3.826 1.577.838 3.625 1.311 6.259 1.443.188.01.381.015.576.015.671 0 1.376-.059 2.095-.174a11.233 11.233 0 0 0 2.691-.773 7.351 7.351 0 0 0 2.539-1.824c.855-.953 1.345-2.158 1.415-3.481.072-1.432-.201-2.698-.812-3.77-.835-1.465-2.3-2.325-4.127-2.416zm1.287 7.67c-.405.452-.904.81-1.497 1.071a8.18 8.18 0 0 1-1.974.564c-.565.091-1.105.136-1.619.136-.144 0-.286-.004-.425-.011-2.164-.109-3.83-.474-5.004-1.098-1.177-.624-2.034-1.467-2.577-2.534-.541-1.064-.836-2.329-.884-3.798-.05-1.47-.029-3.101.063-4.896.072-1.432.189-2.868.353-4.312.164-1.438.378-2.979.643-4.615-.383-.02-.693-.028-.929-.028h-.076l-.229.003c-.143 0-.265-.004-.367-.01-.973-.046-1.81-.304-2.501-.766-.694-.462-1.02-1.135-.975-2.019.026-.548.257-1.023.688-1.43.434-.406.978-.745 1.633-1.019.654-.271 1.359-.48 2.113-.624a14.91 14.91 0 0 1 2.142-.261c.045-.852.154-1.793.325-2.823.175-1.028.443-1.984.809-2.866s.836-1.612 1.415-2.195a2.677 2.677 0 0 1 1.971-.813l.179.005c.486.023.912.19 1.277.499.367.307.662.689.882 1.142.22.455.382.959.472 1.513.095.553.13 1.091.104 1.608a13.24 13.24 0 0 1-.231 1.866c-.123.636-.332 1.417-.621 2.351.52-.035.871-.056 1.056-.063l.505.002c.516.025 1.055.1 1.614.218a6.174 6.174 0 0 1 1.53.536c.459.237.834.538 1.122.903.284.364.417.793.392 1.278-.024.55-.274 1.025-.734 1.43-.464.403-1.036.742-1.721 1.012a10.91 10.91 0 0 1-2.184.601c-.771.128-1.491.209-2.164.234a47.766 47.766 0 0 0-.561 3.43c-.13 1.047-.267 2.1-.412 3.16-.088.516-.167 1.04-.239 1.569a18.538 18.538 0 0 0-.15 1.619c-.02.395-.029.861-.024 1.395a5.2 5.2 0 0 0 .243 1.546c.159.496.427.931.807 1.302.377.369.915.57 1.617.605a7.927 7.927 0 0 0 1.328-.046 8.348 8.348 0 0 1 1.379-.047c.791.039 1.348.344 1.668.907.323.566.465 1.276.422 2.128-.033.643-.25 1.191-.654 1.641zM235.916 48.539c.573-1.583.966-3.358 1.162-5.262a18.907 18.907 0 0 0-.253-5.708 13.588 13.588 0 0 0-2.319-5.318c-1.292-1.777-3.103-3.017-5.382-3.686a11.762 11.762 0 0 0-3.305-.493c-1.122 0-2.222.18-3.271.534a13.912 13.912 0 0 0-5.109 3.112 18.892 18.892 0 0 0-1.899 2.103 6.19 6.19 0 0 0 .548-1.997c.16-1.317.001-2.565-.473-3.708a7.767 7.767 0 0 0-1.973-2.785 9.295 9.295 0 0 0-2.667-1.671 11.136 11.136 0 0 0-4.22-.839c-1.308 0-2.517.251-3.604.749a6.686 6.686 0 0 0-.626-.958 4.87 4.87 0 0 0-3.116-1.819 7.606 7.606 0 0 0-1.212-.102c-1.193 0-2.271.308-3.203.913a7.655 7.655 0 0 0-2.441 2.589 11.1 11.1 0 0 0-1.196 3.018c-.212.89-.374 1.677-.494 2.407a51.034 51.034 0 0 0-.433 3.41 71.039 71.039 0 0 1-.341 3.04c-.051.306-.12.701-.212 1.184-.11.559-.214 1.195-.317 1.933a55.186 55.186 0 0 0-.258 2.191c-.081.817-.135 1.62-.163 2.385-.027.84-.006 1.665.064 2.464.068.875.23 1.728.481 2.503a6.735 6.735 0 0 0 1.371 2.429 5.127 5.127 0 0 0 3.012 1.629c.327.053.648.079.961.079a5.232 5.232 0 0 0 2.898-.861 7.464 7.464 0 0 0 2.101-2.132c.48-.729.876-1.526 1.179-2.37.245-.678.44-1.317.58-1.899.165-.567.313-1.265.453-2.128a73.14 73.14 0 0 1 .431-2.373l.019-.104c.118-.732.259-1.466.419-2.178.16-.701.262-.988.291-1.062.154-.326.359-.674.611-1.031.222-.315.461-.583.731-.818.214-.185.44-.33.677-.433l.064-.01c.139.085.282.176.426.27l.083.053c.323.195.649.383.977.56.619.336 1.346.55 2.156.631.312.038.624.058.928.058a6.6 6.6 0 0 0 3.333-.877 5.205 5.205 0 0 0 1.102-.842c-.235.365-.465.735-.68 1.119a25.283 25.283 0 0 0-2.241 5.259 21.797 21.797 0 0 0-.856 5.355 18.065 18.065 0 0 0 .613 5.513 13.783 13.783 0 0 0 2.455 4.912c1.271 1.609 2.975 2.737 5.068 3.354 1.099.321 2.188.484 3.242.484a9.968 9.968 0 0 0 3.029-.467c1.812-.575 3.465-1.539 4.916-2.865 1.344-1.232 2.535-2.728 3.543-4.446a29.515 29.515 0 0 0 2.34-4.998zm-22.809-17.052c-.099.972-.502 1.663-1.219 2.072a3.632 3.632 0 0 1-1.839.478 4.69 4.69 0 0 1-.595-.039c-.427-.04-.783-.138-1.065-.29a19.37 19.37 0 0 1-.846-.485 22.08 22.08 0 0 0-.757-.471 2.054 2.054 0 0 0-.887-.263 3.772 3.772 0 0 0-.408-.022c-.452 0-.877.086-1.274.259a5.726 5.726 0 0 0-1.449.922c-.45.392-.854.842-1.215 1.355a9.753 9.753 0 0 0-.901 1.545c-.15.346-.307.884-.472 1.615a39.42 39.42 0 0 0-.454 2.357 72.902 72.902 0 0 0-.449 2.476c-.126.782-.259 1.396-.392 1.836-.11.476-.276 1.03-.502 1.657a8.188 8.188 0 0 1-.862 1.735 4.459 4.459 0 0 1-1.25 1.278 2.199 2.199 0 0 1-1.242.363c-.154 0-.313-.014-.479-.04a2.106 2.106 0 0 1-1.259-.669 3.707 3.707 0 0 1-.752-1.351 8.035 8.035 0 0 1-.347-1.842 17.33 17.33 0 0 1-.055-2.094c.027-.737.079-1.471.151-2.199a51.47 51.47 0 0 1 .244-2.07c.09-.647.187-1.244.292-1.782.103-.538.179-.975.233-1.307.142-1.056.264-2.125.361-3.206a48.2 48.2 0 0 1 .406-3.2c.109-.664.26-1.395.451-2.197a8.007 8.007 0 0 1 .868-2.2 4.684 4.684 0 0 1 1.486-1.587c.438-.285.959-.429 1.567-.429.234 0 .48.021.74.064.509.081.92.317 1.228.707.308.393.534.845.682 1.364.145.518.237 1.057.269 1.62.031.56.028 1.069-.02 1.524.916-1.056 1.884-1.877 2.905-2.469.791-.455 1.708-.682 2.754-.682.31 0 .631.02.963.06a7.998 7.998 0 0 1 2.112.553 6.23 6.23 0 0 1 1.808 1.13 4.738 4.738 0 0 1 1.207 1.701c.274.665.365 1.408.263 2.223zm17.879 20.531c-.859 1.464-1.851 2.715-2.979 3.75a10.162 10.162 0 0 1-3.8 2.221 6.964 6.964 0 0 1-2.122.325c-.771 0-1.57-.121-2.396-.362-1.491-.439-2.678-1.217-3.559-2.333-.879-1.115-1.52-2.398-1.919-3.852a15.003 15.003 0 0 1-.507-4.604c.06-1.62.305-3.161.737-4.623a22.18 22.18 0 0 1 1.98-4.639c.862-1.54 1.891-2.877 3.079-4.005 1.19-1.128 2.525-1.942 4.008-2.448a7.16 7.16 0 0 1 2.31-.376c.793 0 1.614.124 2.46.371 1.637.48 2.903 1.337 3.799 2.569a10.56 10.56 0 0 1 1.808 4.153c.312 1.536.38 3.138.208 4.804-.171 1.664-.506 3.186-1.004 4.564a26.2 26.2 0 0 1-2.103 4.485z"/><path d="M225.949 38.244a1.203 1.203 0 0 0-.346-.051c-.332 0-.673.137-1.023.41-.476.371-.92.861-1.335 1.467a14.375 14.375 0 0 0-1.13 1.981 13.542 13.542 0 0 0-.748 1.9 15.188 15.188 0 0 0-.472 2.339 14.664 14.664 0 0 0-.114 2.423c.032.757.149 1.413.354 1.963.203.553.523.892.962 1.021.135.039.27.059.405.059.333 0 .665-.12.996-.363.465-.341.899-.814 1.302-1.429.402-.613.766-1.307 1.091-2.086.324-.78.587-1.521.792-2.224a15.09 15.09 0 0 0 .451-2.179c.109-.81.152-1.583.132-2.32-.023-.736-.138-1.374-.345-1.912-.208-.536-.533-.87-.972-.999zM252.212 69.339c.956-.9 1.901-1.943 2.817-3.108a45.11 45.11 0 0 0 2.417-3.392 52.497 52.497 0 0 0 1.861-3.108c.536-.977.919-1.73 1.168-2.302.439-1.008.89-2.162 1.343-3.434a16.08 16.08 0 0 0 .913-4.428 9.676 9.676 0 0 0-.934-4.798c-.822-1.698-2.297-3.018-4.387-3.931-1.007-.439-1.992-.726-2.928-.851-.48-.065-.974-.101-1.455-.101-.399 0-.797.024-1.184.07l-.025.003a7.247 7.247 0 0 0-.488-1.232 4.778 4.778 0 0 0-2.362-2.226 6.015 6.015 0 0 0-2.413-.527c-.916 0-1.79.229-2.598.679-1.075.601-2.023 1.445-2.825 2.513a15.833 15.833 0 0 0-1.752 2.955c-.4.876-.724 1.6-.974 2.167a87.55 87.55 0 0 0-1.341 3.253c-.384.985-.81 2.015-1.264 3.055l-.86 1.969c-.143.331-.336.755-.585 1.289-.303.651-.6 1.37-.88 2.137a36.424 36.424 0 0 0-.774 2.397 12.539 12.539 0 0 0-.472 2.837c-.042 1.097.118 2.106.474 3.012.498 1.267 1.445 2.234 2.739 2.798a5.778 5.778 0 0 0 2.328.507c.246 0 .494-.018.736-.052a6.889 6.889 0 0 0 2.889-1.123 8.204 8.204 0 0 0 .073 1.916c.253 1.562 1.202 2.805 2.604 3.422.722.315 1.48.475 2.257.475a6.27 6.27 0 0 0 2.495-.54c1.147-.498 2.288-1.272 3.387-2.301zm-5.885-.159c-.362 0-.711-.073-1.048-.221-.475-.209-.759-.59-.85-1.146a5.4 5.4 0 0 1 .023-1.759c.103-.622.261-1.226.469-1.817a19.58 19.58 0 0 1 .514-1.348 22.64 22.64 0 0 1 1.244-2.451c.463-.796.943-1.585 1.434-2.369a87.02 87.02 0 0 0 1.433-2.366c.464-.796.88-1.613 1.246-2.453.145-.334.29-.703.433-1.106.145-.404.242-.801.298-1.193a2.076 2.076 0 0 0-.109-1.069c-.125-.32-.371-.562-.733-.72a.61.61 0 0 0-.248-.048c-.227 0-.512.097-.855.289-.484.27-.973.608-1.463 1.008a14.02 14.02 0 0 0-1.348 1.257c-.407.439-.664.785-.775 1.033-.267.617-.533 1.241-.794 1.875a100.42 100.42 0 0 1-.811 1.917l-1.063 2.432c-.249.489-.515.988-.804 1.494-.287.508-.596.986-.926 1.443a8.917 8.917 0 0 1-1.012 1.278 4.984 4.984 0 0 1-1.178.934c-.42.231-.858.38-1.319.447a2.203 2.203 0 0 1-.315.022c-.364 0-.741-.086-1.13-.257-.56-.243-.941-.626-1.146-1.146-.205-.521-.293-1.118-.268-1.789.028-.67.148-1.383.359-2.14.215-.754.452-1.482.706-2.186.259-.705.52-1.337.784-1.905.264-.566.469-1.017.614-1.353l.861-1.97a85.131 85.131 0 0 0 1.311-3.17c.409-1.054.84-2.096 1.291-3.131.245-.557.563-1.267.956-2.128a12.86 12.86 0 0 1 1.421-2.399c.555-.737 1.186-1.302 1.887-1.693a2.3 2.3 0 0 1 1.138-.3c.386 0 .792.093 1.218.278.39.17.685.45.884.836.196.385.333.812.411 1.278.081.467.105.942.075 1.43-.029.484-.067.9-.119 1.246.45-.27.943-.504 1.478-.701a7.547 7.547 0 0 1 1.701-.406c.269-.032.543-.049.825-.049.344 0 .697.024 1.059.074.663.089 1.369.298 2.124.627 1.425.622 2.384 1.45 2.883 2.48a6.673 6.673 0 0 1 .643 3.328 12.992 12.992 0 0 1-.744 3.592 51.625 51.625 0 0 1-1.266 3.239c-.208.476-.557 1.162-1.05 2.061-.493.9-1.078 1.877-1.754 2.929a41.33 41.33 0 0 1-2.251 3.158 25.095 25.095 0 0 1-2.508 2.772c-.848.794-1.691 1.374-2.533 1.738a3.27 3.27 0 0 1-1.303.294zM274.948 62.701a2.613 2.613 0 0 0-1.367-.386 2.94 2.94 0 0 0-.596.063 6.56 6.56 0 0 0-2.065.816 9.928 9.928 0 0 0-1.853 1.448c-.567.565-.993 1.086-1.276 1.557-.202.339-.449.814-.742 1.42a9.379 9.379 0 0 0-.676 1.887 5.49 5.49 0 0 0-.159 1.824c.052.563.314.988.785 1.27.663.396 1.337.597 2.018.597l.133-.003a5.386 5.386 0 0 0 2.088-.508 7.16 7.16 0 0 0 1.836-1.246 7.432 7.432 0 0 0 1.357-1.641c.234-.393.479-.938.738-1.637.26-.698.447-1.401.569-2.109.122-.71.138-1.376.051-1.998-.09-.621-.37-1.074-.841-1.354zm-2.589 4.416c-.258.696-.425 1.015-.501 1.144a4.547 4.547 0 0 1-.817.976 4.183 4.183 0 0 1-1.078.735c-.214.1-.434.167-.664.2.107-.432.255-.837.454-1.251.321-.664.512-1.012.615-1.185.082-.137.306-.458.818-.97a6.963 6.963 0 0 1 1.286-1.005c.101-.06.202-.114.302-.164a8.902 8.902 0 0 1-.415 1.52z"/><path d="M279.319 80.374c.905-1.276 1.81-2.619 2.676-3.972a165.159 165.159 0 0 0 2.502-4.043l.221-.369.509-.852c.309-.514.651-1.113 1.105-1.937.408-.748.799-1.532 1.168-2.344.381-.84.701-1.67.951-2.469.318-1.033.447-1.959.4-2.842-.089-1.514-.836-2.789-2.051-3.515a5.488 5.488 0 0 0-2.856-.8h-.014a7.92 7.92 0 0 0-.112-.291c-.681-1.647-1.814-2.953-3.371-3.882a9.585 9.585 0 0 0-5.092-1.402c-1.32 0-2.652.204-3.958.607a17.51 17.51 0 0 0-4.063 1.883 27.128 27.128 0 0 0-3.494 2.587 28.22 28.22 0 0 0-2.929 2.953c-.89 1.047-1.626 2.057-2.19 3.004-.899 1.501-1.591 3.045-2.051 4.583-.492 1.659-.677 3.291-.554 4.857a10.293 10.293 0 0 0 1.618 4.79c.925 1.451 2.3 2.73 4.086 3.8l.168.099c-.29.118-.585.191-.894.222l-.1.005c-.263 0-.578-.108-.936-.322l-.099-.101a19.315 19.315 0 0 1-.689-.985c-.34-.513-.666-.962-1-1.384a6.93 6.93 0 0 0-1.878-1.645 5.45 5.45 0 0 0-2.832-.803c-.604 0-1.213.104-1.809.308-1.394.474-2.519 1.364-3.244 2.572a6.72 6.72 0 0 0-.855 4.7 11.186 11.186 0 0 0 1.405 3.719 15.464 15.464 0 0 0 2.356 3.031c.904.909 1.83 1.652 2.75 2.206 1.922 1.148 3.85 1.802 5.738 1.945.351.026.7.04 1.042.04a13.11 13.11 0 0 0 4.285-.715 16.188 16.188 0 0 0 4.605-2.503 31.771 31.771 0 0 0 3.718-3.359 42.26 42.26 0 0 0 3.194-3.805 137.734 137.734 0 0 0 2.574-3.571zm-7.946 5.316a28.796 28.796 0 0 1-3.37 3.047 13.207 13.207 0 0 1-3.755 2.044 10.06 10.06 0 0 1-3.306.551c-.27 0-.541-.011-.813-.031-1.429-.108-2.901-.617-4.419-1.524-.706-.425-1.432-1.01-2.172-1.754a12.412 12.412 0 0 1-1.899-2.441 8.15 8.15 0 0 1-1.034-2.725 3.684 3.684 0 0 1 .475-2.622c.361-.601.909-1.027 1.646-1.278.282-.097.561-.146.834-.146.441 0 .871.126 1.291.378.419.25.774.562 1.067.933.292.369.573.761.846 1.172.269.408.538.793.804 1.146.269.354.583.643.949.863.835.499 1.66.747 2.476.747.131 0 .263-.006.394-.019a6.269 6.269 0 0 0 2.672-.905 11.336 11.336 0 0 0 2.339-1.905 24.552 24.552 0 0 0 1.904-2.244 5.012 5.012 0 0 1-1.559.259c-.34 0-.675-.038-1.005-.114a8.219 8.219 0 0 1-2.377-.971c-1.388-.83-2.42-1.774-3.099-2.84a7.287 7.287 0 0 1-1.155-3.411c-.095-1.209.052-2.462.438-3.762.387-1.295.97-2.599 1.754-3.907.483-.811 1.116-1.676 1.897-2.595a25.282 25.282 0 0 1 2.621-2.641 23.99 23.99 0 0 1 3.106-2.3 14.527 14.527 0 0 1 3.359-1.562 10.393 10.393 0 0 1 3.402-.469c1.13.037 2.207.359 3.227.973.996.594 1.706 1.41 2.134 2.448.427 1.037.392 2.118-.103 3.241a9.845 9.845 0 0 1 2.111-.946c.307-.098.604-.146.893-.146.461 0 .901.125 1.319.376.366.218.563.585.593 1.1.028.518-.061 1.111-.268 1.787-.21.673-.481 1.381-.818 2.121-.336.74-.69 1.452-1.063 2.137a58.6 58.6 0 0 1-1.054 1.848l-.728 1.216a159.192 159.192 0 0 1-2.455 3.968 98.937 98.937 0 0 1-2.609 3.873 146.28 146.28 0 0 1-2.522 3.501 39.926 39.926 0 0 1-2.968 3.529zM304.262 62.242c-1.12-.81-2.332-1.218-3.606-1.218-.162 0-.325.007-.488.021-1.169.098-2.322.474-3.426 1.118a14.488 14.488 0 0 0-2.662 2.033 32.49 32.49 0 0 0-2.152 2.277 35.814 35.814 0 0 0-1.817 2.293c-.39.534-.729 1.003-1.015 1.396l-.206.283c-.326.448-.792 1.103-1.391 1.955a57.929 57.929 0 0 0-3.868 6.352 25.32 25.32 0 0 0-1.577 3.633c-.441 1.313-.668 2.55-.673 3.678v.019c-.683.029-1.35.16-1.988.389a5.236 5.236 0 0 0-2.467 1.85c-1.075 1.478-1.277 3.255-.555 4.874a6.818 6.818 0 0 0 2.22 2.757c.59.426 1.225.77 1.899 1.031a7.409 7.409 0 0 0 2.629.496c.774 0 1.531-.141 2.247-.416a5.45 5.45 0 0 0 2.441-1.92c.988-1.36 1.265-2.958.781-4.438a10.63 10.63 0 0 0 1.925-1.017c.843-.558 1.7-1.214 2.55-1.954a33.328 33.328 0 0 0 2.359-2.262 55.063 55.063 0 0 0 1.918-2.149 30.363 30.363 0 0 0 1.383-1.734c.327-.45.789-1.076 1.382-1.865a65.105 65.105 0 0 0 1.98-2.807 53.65 53.65 0 0 0 2-3.25c.697-1.231 1.251-2.419 1.649-3.537.475-1.335.694-2.544.672-3.698-.033-1.728-.796-3.213-2.144-4.19zM285.38 93.383c-.304.42-.668.713-1.088.88-.371.143-.76.216-1.17.216l-.172-.005a4.404 4.404 0 0 1-1.37-.287 5.488 5.488 0 0 1-1.218-.659 3.82 3.82 0 0 1-1.247-1.555c-.288-.646-.207-1.271.242-1.89a2.197 2.197 0 0 1 1.054-.788c.403-.146.829-.22 1.274-.22l.097.001c.484.012.959.093 1.432.246.472.155.88.357 1.228.61.565.411.981.931 1.244 1.555.263.625.159 1.257-.306 1.896zm17.533-24.261c-.347.975-.826 1.994-1.43 3.059-.608 1.067-1.235 2.091-1.888 3.068s-1.282 1.867-1.885 2.673c-.604.805-1.076 1.443-1.415 1.909-.287.397-.703.915-1.245 1.558s-1.144 1.315-1.807 2.023a30.554 30.554 0 0 1-2.146 2.059 21.513 21.513 0 0 1-2.232 1.712c-.722.476-1.402.789-2.044.947-.21.051-.409.076-.598.076a1.7 1.7 0 0 1-1.029-.325c-.544-.394-.812-.995-.811-1.805.003-.808.175-1.72.517-2.733a22.252 22.252 0 0 1 1.392-3.2 53.077 53.077 0 0 1 1.829-3.221 55.727 55.727 0 0 1 1.834-2.797c.587-.835 1.043-1.476 1.365-1.919s.728-1.005 1.222-1.682a33.023 33.023 0 0 1 1.665-2.101 29.634 29.634 0 0 1 1.947-2.061 11.374 11.374 0 0 1 2.101-1.61c.719-.42 1.441-.659 2.164-.72l.237-.01c.635 0 1.25.217 1.844.646.592.43.894 1.038.911 1.819.016.787-.152 1.664-.498 2.635z"/></g><g><path d="M169.272 259.004c1.784 3.772 2.337 7.868 1.974 11.766-.27 2.933-1.035 5.78-2.167 8.49-1.703 4.065-4.228 7.838-7.369 11.167a41.34 41.34 0 0 1-11.187 8.394c-4.264 2.179-9.042 3.654-14.131 4.059a35.317 35.317 0 0 1-11.781-1.05c-5.984-1.563-11.928-4.791-17.393-9.789-5.475-5-10.501-11.737-14.952-20.449-3.375-6.607-6.424-14.359-9.083-23.419-1.181-4.026-2.555-7.465-4.038-10.367-2-3.914-4.191-6.848-6.376-8.994-3.292-3.216-6.514-4.696-9.481-5.201-2.97-.491-5.775.005-8.257 1.266a13.897 13.897 0 0 0-5.481 5.077c-1.368 2.217-2.212 4.892-2.244 8.025a7 7 0 0 1-7.062 6.938 7 7 0 0 1-6.938-7.062c.046-5.646 1.629-10.902 4.341-15.273a27.906 27.906 0 0 1 11.015-10.174 27.2 27.2 0 0 1 11.008-2.95c5.85-.309 12.027 1.326 17.575 5.021 5.563 3.689 10.483 9.348 14.368 16.959 1.925 3.768 3.604 8.021 5.005 12.795 2.449 8.352 5.206 15.296 8.115 20.99 3.412 6.681 7.03 11.633 10.591 15.203 2.673 2.68 5.309 4.587 7.853 5.917 3.82 1.987 7.439 2.721 10.944 2.642 3.498-.087 6.906-1.034 10.032-2.63a27.355 27.355 0 0 0 6.673-4.821c2.899-2.835 4.968-6.195 5.892-9.196.469-1.501.663-2.899.627-4.123-.038-1.228-.285-2.274-.737-3.236a7.002 7.002 0 0 1 12.664-5.975z" fill="#fbb807"/><path d="M33.306 237.855c.046-5.646 1.629-10.902 4.341-15.273a27.906 27.906 0 0 1 11.015-10.174 27.2 27.2 0 0 1 11.008-2.95c5.85-.309 12.027 1.326 17.575 5.021l.093.066c-3.07 3.51-5.741 7.36-8.02 11.486-2.083-1.35-4.11-2.095-6.03-2.421-2.97-.491-5.775.005-8.257 1.266a13.897 13.897 0 0 0-5.481 5.077c-1.368 2.217-2.212 4.892-2.244 8.025a7 7 0 0 1-14-.123z" fill="#fffcc8"/><path d="M61.068 209.42c5.429 0 11.07 1.656 16.178 5.058 5.563 3.689 10.483 9.348 14.368 16.959 1.925 3.768 3.604 8.021 5.005 12.795 2.449 8.352 5.206 15.296 8.115 20.99 3.412 6.68 7.03 11.633 10.591 15.203 2.673 2.68 5.309 4.587 7.853 5.917 3.636 1.892 7.09 2.647 10.437 2.647.169 0 .338-.002.507-.006 3.498-.087 6.906-1.034 10.032-2.63a27.355 27.355 0 0 0 6.673-4.821c2.899-2.835 4.968-6.195 5.892-9.196.469-1.501.663-2.899.627-4.123-.038-1.228-.285-2.274-.737-3.236a7 7 0 0 1 12.661-5.972c1.784 3.772 2.337 7.868 1.974 11.766-.27 2.933-1.035 5.78-2.167 8.49-1.703 4.065-4.228 7.838-7.369 11.167a41.34 41.34 0 0 1-11.187 8.394c-4.264 2.179-9.042 3.654-14.131 4.059a35.371 35.371 0 0 1-11.78-1.05c-5.984-1.563-11.928-4.791-17.393-9.789-5.475-5-10.501-11.737-14.952-20.449-3.375-6.607-6.424-14.359-9.083-23.419-1.181-4.026-2.555-7.465-4.038-10.367-2-3.914-4.191-6.848-6.376-8.994-3.292-3.216-6.514-4.696-9.481-5.201a13.747 13.747 0 0 0-2.247-.188c-2.139 0-4.165.515-6.011 1.453a13.897 13.897 0 0 0-5.481 5.077c-1.368 2.217-2.212 4.892-2.244 8.025a7 7 0 0 1-6.999 6.938h-.063a7 7 0 0 1-6.938-7.062c.046-5.646 1.629-10.902 4.341-15.273a27.906 27.906 0 0 1 11.015-10.174 27.2 27.2 0 0 1 11.008-2.95 26.11 26.11 0 0 1 1.4-.038m0-3c-.518 0-1.041.014-1.555.041a30.022 30.022 0 0 0-12.215 3.275 30.905 30.905 0 0 0-12.201 11.266c-3.084 4.971-4.741 10.791-4.791 16.828-.048 5.512 4.398 10.037 9.912 10.086h.09c5.465 0 9.95-4.446 9.998-9.912.024-2.402.629-4.583 1.798-6.478a10.892 10.892 0 0 1 4.293-3.979 10.179 10.179 0 0 1 4.646-1.125c.578 0 1.169.05 1.757.146 2.752.469 5.333 1.905 7.874 4.389 2.136 2.098 4.09 4.862 5.801 8.213 1.469 2.876 2.758 6.189 3.831 9.847 2.632 8.97 5.758 17.024 9.29 23.938 4.482 8.773 9.731 15.939 15.601 21.301 5.691 5.205 11.97 8.729 18.658 10.476a38.382 38.382 0 0 0 12.777 1.138c5.255-.417 10.389-1.89 15.258-4.377a44.143 44.143 0 0 0 12.001-9.004c3.463-3.671 6.139-7.73 7.957-12.069 1.297-3.106 2.1-6.26 2.387-9.375.437-4.68-.341-9.288-2.25-13.323a10.048 10.048 0 0 0-9.048-5.732 9.902 9.902 0 0 0-4.261.958c-4.987 2.353-7.13 8.323-4.778 13.311.283.603.427 1.256.451 2.049.027.933-.143 2.019-.492 3.136-.822 2.672-2.689 5.563-5.125 7.945a24.433 24.433 0 0 1-5.94 4.294c-2.849 1.455-5.791 2.23-8.743 2.304-.14.003-.286.005-.433.005-3.105 0-6.066-.756-9.053-2.309-2.428-1.27-4.823-3.079-7.113-5.375-3.623-3.631-7.001-8.492-10.043-14.448-2.967-5.808-5.628-12.694-7.909-20.471-1.424-4.853-3.177-9.333-5.211-13.315-4.042-7.918-9.217-14.006-15.381-18.094-5.46-3.637-11.629-5.56-17.838-5.56z" fill="#740806"/><g><path d="M276.678 143.836c-3-3.7-9.2-7.8-16.3-7.8-3.8 0-8 1.1-12 4.2-1.8 1.4-2.1 3-2.1 4.3h1c1.2 0 2.8.1 4.6.3 1 .2 1.9.3 2.9.6 0-.7.1-1.3.3-1.9.2-.8.5-1.5.7-2.1.4-1.2 4-1.5 3.6-.8v.1s-.1.1-.1.2l-.4.8c-.3.7-.7 1.6-.9 2.5-.1.6-.2 1.1-.2 1.5 0 .3.1.5.1.5.1.1.1.3.2.4.8.4 1.5 1 2 1.8.4.5.7 1.2.8 2 .2 1 .3 1.9.3 2.7 0 1.4-.2 2.5-.7 3.4.3.2.5.4.8.6 1.1.8 2.5 1.6 3.9 2.2 1 .4 1.9.6 2.7.6.5 0 .9-.1 1.3-.2s.8-.3 1.1-.7c.4-.5.7-.9.9-1.3.1-.4.2-.7.2-1 0-.4-.1-.8-.3-1.2s-.5-.8-.8-1.1c-.6-.7-1.3-1.1-1.3-1.1-.6-.3-.8-1-.6-1.7.3-.6.9-1.1 1.6-1h.4c.3 0 .9-.1 1.4-.2s.9-.4 1.1-.6c.2-.1.3-.3.3-.7 0-.9.8-1.5 1.6-1.4s.9 3.4.4 4-1.1 1-1.7 1.3c-.1 0-.2.1-.3.1.2.3.4.6.6 1 .3.8.6 1.6.6 2.6 0 .7-.2 1.5-.5 2.2-.3.8-.8 1.5-1.5 2.2-.7.6-1.4 1.1-2.2 1.4s-1.6.4-2.4.4c-1.3 0-2.6-.3-3.8-.8s-2.3-1.1-3.2-1.7c-1.1-.6-1.9-1.2-2.5-1.7-.3.1-.5.1-.7.2-.6.1-1.1.2-1.6.2-3.5 0-3.9-3.5-3.1-3.3l2.1.2h.2c.2.1.4.1.7.1.4 0 .8 0 1.1-.2s.6-.4.8-1c.2-.4.3-1 .3-1.8 0-.6 0-1.3-.2-2.2-.1-.4-.2-.6-.4-.9s-.5-.6-.8-.8c-.7-.5-1.7-.9-2.8-1.2-2.3-.6-5-.7-6.7-.7h-1.5c-.1 0-.3 0-.5-.1-1.6 1.6-3.4 5.2 1.8 11.7 0 0 5 3-.9 13-3.1-7-7-10.5-12-10.5-.4 0-.7.1-1.1.1-10.7 1-15.8 15.9-15.8 15.9l-11.8-.1c0 .2 0 .3.1.4-4-3-9-5.1-15.1-5.7-7.3-2.8-12.8-2.9-12.8-2.9-14.2.2-24.9 3.5-33 8.4-3.2-.9-7-1.2-10.7-1.2-6.9 0-13.1 1-13.1 1s-6.2-14.4-16.9-14.7h-.3c-5.4 0-9.2 3.8-12 11.4-6.6-9.6-1.8-12.9-1.8-12.9 4.6-6.7 2.8-10.1 1.1-11.7h-1.1c-1.1 0-2.6.1-4.2.3s-3.2.6-4.4 1.2c-.8.4-1.4.8-1.7 1.3-.2.3-.3.6-.4.9-.1.9-.2 1.6-.2 2.2 0 1.3.3 1.9.5 2.3.3.3.5.5.9.6.3.1.5.1.8.1.4 0 5.2-.1 5.2-.1s-4.2 3.1-5.2 3.1c-.7 0-1.5-.1-2.3-.5-.3.3-.7.6-1.2.9-1.2.8-2.7 1.8-4.5 2.5-1.2.5-2.5.8-3.8.8-.8 0-1.6-.1-2.4-.4s-1.6-.7-2.2-1.4c-.7-.7-1.2-1.5-1.5-2.2s-.5-1.5-.5-2.2c0-1 .2-1.9.6-2.6.2-.4.4-.7.6-1-.7-.3-1.4-.7-2-1.4-.5-.6-.4-3.9.4-4s1.8 1.9 1.9 2.1c.1.1.3.3.6.4.6.2 1.4.3 1.9.3h.3c.7-.1 1.4.3 1.6 1 .3.7 0 1.4-.6 1.8l-.2.1c-.2 0-.4.2-.6.4-.5.4-1 1-1.3 1.6-.2.4-.3.8-.3 1.2 0 .3 0 .6.2 1 .1.4.4.8.9 1.3.4.3.7.6 1.1.7s.8.2 1.3.2c.8 0 1.7-.2 2.6-.6 1-.3 1.9-.8 2.7-1.3.9-.5 1.6-1 2.1-1.4l-.3-.6c-.3-.8-.5-1.7-.5-2.8 0-.8.1-1.7.3-2.7.1-.7.4-1.4.8-2s.9-1.1 1.5-1.5c.2-.1.3-.2.5-.3 0-.1.1-.3.2-.4v-.5c0-.4-.1-.9-.2-1.4s-.3-1.1-.5-1.6c-.4-1.1-.8-1.9-.9-2.1-.4-.7 3.7.7 4.3 2.9.2.6.3 1.3.3 1.9 2.5-.6 5.3-.8 7.1-.8-.1-1.3-.6-2.9-2.4-4.1-3.8-2.4-7.5-3.4-11-3.4-7.7 0-14.2 4.8-17 9-7.9 11.6-1.6 44.2 18.3 58.4 10.2 7.3 20.9 9.2 29.8 9.2 4.3 0 8.2-.4 11.3-.9 1.6-7.3 4.5-15.1 10.1-21.2 0 0-7.8 13.6-8.7 32.4h-.1c-.8 10-.1 18.3.3 21.6l-13.4 50.5c-33.5 1.8-27.8 27.8-27.8 27.8h47.9l22.5-44.5c-7.1-2.5-14.6-6.5-20-13 0 0 12.2 9.5 30.5 13 3.2.6 6.4 1 9.7 1.2 18.8 1.1 33.1-5.3 33.1-5.3-5.7 4.2-12.4 6.4-18.8 7.4v41.4h55.9c0-.6 7.8-26-25.7-27.8 0 0 4.2-25 7.2-42.1 1.1-2.8 1.6-23.3.7-37.4-.9-18.8-8.7-32.4-8.7-32.4 7.5 8.2 10.3 19.7 11.2 28.6 1.3 0 2.7.1 4.2.1 9.6 0 22.3-2 33.7-11.4 18.8-15.6 22.9-48.5 14.8-60z" fill="#fbb807"/><path d="M124.778 198.353c-6.5 4.732-14.4 7.651-22.4 7.651-21.4 0-37.3-17.618-38.2-38.458-.5-10.974 4.7-21.142 12.6-28.29-8.2-.503-15.2 4.631-18.2 9.061-7.9 11.678-1.5 44.498 18.3 58.794 16.4 11.779 34.1 9.665 43.3 7.953-.1.403 3.3-11.376 4.6-16.711zM277.679 143.975c-1.861-2.642-4.758-4.966-8.191-6.52.022.061.045.122.066.184 3.177 1.368 4.672 4.712 4.482 7.95.201 2.017-.548 4.139-2.237 5.321a6.977 6.977 0 0 1-1.822 1.344c2.751 2.279 2.594 7.258-.476 9.225.235 1.513.398 3.035.478 4.557.9 20.6-18.2 38.2-38.2 38.2l-20.9-22.1c14.7 43.5 1.6 85.7-18.3 91.2-41.9 11.8-63.8-8.9-63.8-8.9l-17.9 61.6h15.4l23.7-46.9c10.4 3.3 22.3 4.5 33.4 3v2.1c12.9.9 22.8-4.7 22.8-4.7l-4.2 21.9s34.671 3.171 30.671 25.271l7.248-.594c0-.6 7.081-26.077-26.419-27.877 0 0 4.3-25 7.2-42.1 1.1-3 1.6-27.5.4-41.3 9.7.9 26.2.9 40.7-11.1 18.899-15.5 24.6-48.661 15.9-59.761z" fill="#f28a1c"/><path d="M149.478 197.236c-.2-23.5 12.2-27.8 25.8-27.8 16.5 0 33.4 27.3 32.2 66.1-.7 21.7-12.1 34.5-31.1 34s-28-13.5-27.3-29.2z" fill="#fffcc8"/><path d="M278.478 142.436c-3.5-4.5-10.6-9-18.6-9-4.9 0-9.6 1.6-13.8 4.8-2.8 2.1-3.4 5-3.2 7.2-1 .9-2.1 2.3-2.6 4.4-.8 3.5.5 7.4 3.9 11.6l.5.6.3.1c.5.5.9 1.7.4 3.7-3.2-4.6-7.1-6.8-11.7-6.8-.4 0-.9 0-1.4.1-9.9 1-15.6 11.3-17.5 15.8l-9.2-.1c-4.4-3-9.4-4.7-14.8-5.3-7.5-2.8-13.2-2.9-13.4-2.9-12.9.2-24.1 2.9-33.4 8.2-2.8-.6-6.3-1-10.2-1-4.6 0-8.8.4-11.3.8-2.3-4.4-8.6-14.2-18.5-14.5h-.4c-5.1 0-9.1 2.5-12.2 7.6-.6-2-.3-3.3.1-3.8l.6-.3.1-.4c3.1-4.5 4.1-8.4 3-11.8-.6-2-1.8-3.3-2.9-4.2 0-2.2-.8-5.1-3.7-7-4-2.6-8.2-3.9-12.6-3.9-8.6 0-16 5.2-19.5 10.3-4.4 6.5-5 18.3-1.6 30.7 3.6 13.4 11.2 25 20.7 31.8 9.1 6.5 19.7 9.8 31.6 9.8 3.9 0 7.5-.4 10.4-.8-1.9 12.9-1.1 24.4-.5 29.4l-12.7 47.9c-11 1-19 4.7-23.9 11-6.8 9-4.6 19.8-4.5 20.3l.5 2.4H128.478l.8-1.6 22.5-44.6c7.1 2 14.8 3 22.3 3 2.2 0 4.4-.1 6.6-.3v43.5h61.7l.2-2.6c1.8-7.9.6-15.2-3.5-20.7-4.3-5.7-11.6-9.2-21.7-10.3 1.2-7.3 4.3-25.3 6.7-38.6 1.2-4.4 1.5-25.3.7-38.8 1.3.1 2.6.1 3.8.1 13.9 0 25.8-4.1 35.6-12.1 9-7.5 15.8-19.5 18.4-33.2 2.2-12.7.7-24.4-4.1-30.5zm-54.5 72.7c-.9-8.9-3.7-20.4-11.2-28.6 0 0 7.8 13.6 8.7 32.4.9 14.1.4 34.6-.7 37.4-3 17.1-7.2 42.1-7.2 42.1 33.5 1.8 25.7 27.2 25.7 27.8h-55.9v-41.4c6.4-1 13.1-3.2 18.8-7.4 0 0-14.3 6.4-33.1 5.3-3.3-.2-6.5-.6-9.7-1.2-18.3-3.5-30.5-13-30.5-13 5.4 6.5 12.9 10.5 20 13l-22.5 44.5h-47.9s-5.7-26 27.8-27.8l13.4-50.5c-.4-3.3-1.1-11.6-.3-21.6h.1c.9-18.8 8.7-32.4 8.7-32.4-5.6 6.1-8.5 13.9-10.1 21.2-3.1.5-7 .9-11.3.9-8.9 0-19.6-1.9-29.8-9.2-19.9-14.2-26.2-46.8-18.3-58.4 2.8-4.2 9.3-9 17-9 3.5 0 7.2 1 11 3.4 1.8 1.2 2.3 2.8 2.4 4.1-1.8 0-4.6.2-7.1.8 0-.6-.1-1.3-.3-1.9-.6-2.2-4.7-3.6-4.3-2.9.1.2.5 1 .9 2.1.2.5.4 1.1.5 1.6s.2 1 .2 1.4v.5c-.1.1-.2.3-.2.4-.2.1-.3.2-.5.3-.6.4-1.1.9-1.5 1.5s-.7 1.3-.8 2c-.2 1-.3 1.9-.3 2.7 0 1.1.2 2 .5 2.8l.3.6c-.5.4-1.2.9-2.1 1.4-.8.5-1.7 1-2.7 1.3-.9.4-1.8.6-2.6.6-.5 0-.9-.1-1.3-.2s-.7-.4-1.1-.7c-.5-.5-.8-.9-.9-1.3-.2-.4-.2-.7-.2-1 0-.4.1-.8.3-1.2.3-.6.8-1.2 1.3-1.6.2-.2.4-.4.6-.4l.2-.1c.6-.4.9-1.1.6-1.8-.2-.7-.9-1.1-1.6-1h-.3c-.5 0-1.3-.1-1.9-.3-.3-.1-.5-.3-.6-.4-.1-.2-1.1-2.2-1.9-2.1s-.9 3.4-.4 4c.6.7 1.3 1.1 2 1.4-.2.3-.4.6-.6 1-.4.7-.6 1.6-.6 2.6 0 .7.2 1.5.5 2.2s.8 1.5 1.5 2.2c.6.7 1.4 1.1 2.2 1.4s1.6.4 2.4.4c1.3 0 2.6-.3 3.8-.8 1.8-.7 3.3-1.7 4.5-2.5.5-.3.9-.6 1.2-.9.8.4 1.6.5 2.3.5 1 0 5.2-3.1 5.2-3.1s-4.8.1-5.2.1c-.3 0-.5 0-.8-.1-.4-.1-.6-.3-.9-.6-.2-.4-.5-1-.5-2.3 0-.6.1-1.3.2-2.2.1-.3.2-.6.4-.9.3-.5.9-.9 1.7-1.3 1.2-.6 2.8-1 4.4-1.2s3.1-.3 4.2-.3h1.1c1.7 1.6 3.5 5-1.1 11.7 0 0-4.8 3.3 1.8 12.9 2.8-7.6 6.6-11.4 12-11.4h.3c10.7.3 16.9 14.7 16.9 14.7s6.2-1 13.1-1c3.7 0 7.5.3 10.7 1.2 8.1-4.9 18.8-8.2 33-8.4 0 0 5.5.1 12.8 2.9 6.1.6 11.1 2.7 15.1 5.7-.1-.1-.1-.2-.1-.4l11.8.1s5.1-14.9 15.8-15.9c.4 0 .7-.1 1.1-.1 5 0 8.9 3.5 12 10.5 5.9-10 .9-13 .9-13-5.2-6.5-3.4-10.1-1.8-11.7.2.1.4.1.5.1h1.5c1.7 0 4.4.1 6.7.7 1.1.3 2.1.7 2.8 1.2.3.2.6.5.8.8s.3.5.4.9c.2.9.2 1.6.2 2.2 0 .8-.1 1.4-.3 1.8-.2.6-.5.8-.8 1s-.7.2-1.1.2c-.3 0-.5 0-.7-.1h-.2l-2.1-.2c-.8-.2-.4 3.3 3.1 3.3.5 0 1-.1 1.6-.2.2-.1.4-.1.7-.2.6.5 1.4 1.1 2.5 1.7.9.6 2 1.2 3.2 1.7s2.5.8 3.8.8c.8 0 1.6-.1 2.4-.4s1.5-.8 2.2-1.4c.7-.7 1.2-1.4 1.5-2.2.3-.7.5-1.5.5-2.2 0-1-.3-1.8-.6-2.6-.2-.4-.4-.7-.6-1 .1 0 .2-.1.3-.1.6-.3 1.2-.7 1.7-1.3s.4-3.9-.4-4-1.6.5-1.6 1.4c0 .4-.1.6-.3.7-.2.2-.6.5-1.1.6s-1.1.2-1.4.2h-.4c-.7-.1-1.3.4-1.6 1-.2.7 0 1.4.6 1.7 0 0 .7.4 1.3 1.1.3.3.6.7.8 1.1s.3.8.3 1.2c0 .3-.1.6-.2 1-.2.4-.5.8-.9 1.3-.3.4-.7.6-1.1.7s-.8.2-1.3.2c-.8 0-1.7-.2-2.7-.6-1.4-.6-2.8-1.4-3.9-2.2-.3-.2-.5-.4-.8-.6.5-.9.7-2 .7-3.4 0-.8-.1-1.7-.3-2.7-.1-.8-.4-1.5-.8-2-.5-.8-1.2-1.4-2-1.8-.1-.1-.1-.3-.2-.4 0 0-.1-.2-.1-.5 0-.4.1-.9.2-1.5.2-.9.6-1.8.9-2.5l.4-.8c0-.1.1-.2.1-.2v-.1c.4-.7-3.2-.4-3.6.8-.2.6-.5 1.3-.7 2.1-.2.6-.3 1.2-.3 1.9-1-.3-1.9-.4-2.9-.6-1.8-.2-3.4-.3-4.6-.3h-1c0-1.3.3-2.9 2.1-4.3 4-3.1 8.2-4.2 12-4.2 7.1 0 13.3 4.1 16.3 7.8 8.1 11.5 4 44.4-14.8 60-11.4 9.4-24.1 11.4-33.7 11.4-1.5 0-2.9-.1-4.2-.1z" fill="#740806"/></g><g><path d="M223.988 101.665c24.846-25.983 5.293-51.276 5.293-51.276l-33.787 19.965c-21.976-8.56-40.332-5.247-53.284.295l-34.286-20.26s-19.622 25.384 5.429 51.417c-7.071 15.944-16.043 37.661-14.496 41.969 1.179 3.286 3.554 3.842 5.958 2.316-.55 3.764-.28 7.405 1.762 9.906 1.984 2.43 4.141 2.458 5.833.816 11.709 16.633 53.426 30.091 53.426 30.091s46.39-10.005 59.555-29.413c1.527.892 3.306.536 4.962-1.493 2.042-2.501 2.313-6.142 1.762-9.906 2.404 1.526 4.779.969 5.958-2.316 1.11-3.094-7.23-25.038-14.085-42.111z" fill="#fbb807"/><path d="M108.156 60.651c-1.7 5.119-7.433 22.878 8.579 37.213 0 0 3.494-8.466 7.776-14.431z" fill="#fffcc8"/><path d="M157.815 86.122s-10.426-9.891-9.327-18.149l8.257-2.257c-1.068 5.97 1.07 20.406 1.07 20.406zM168.776 86.389 186.27 71.14c4.128 1.673 7.368 2.952 7.368 2.952s17.393 12.491 23.22 49.489c9.362 2.577 14.688 6.737 17.673 10.622a231.524 231.524 0 0 0-2.449-7.219c-2.73-7.676-6.271-16.754-9.486-24.76l-.36-.897.668-.699c4.708-4.925 7.745-9.78 9.615-14.408 1.868-4.629 2.572-9.036 2.573-13.083.001-6.268-1.702-11.679-3.439-15.554a38.128 38.128 0 0 0-2.81-5.192l-33.214 19.626-.68-.265c-6.505-2.533-12.661-3.983-18.449-4.655a.163.163 0 0 1 .013.006c-5.796 5.969-7.737 19.286-7.737 19.286z" fill="#f28a1c"/><path d="M216.857 123.581c-9.208-2.535-22.314-3.537-40.933-1.231 0 0-.822-24.198-11.396-24.198s-11.881 24.238-11.881 24.238c-40.277-4.634-56.291 14.42-53.791 21.386 1.179 3.286 3.554 3.842 5.958 2.316-.55 3.764-.28 7.405 1.762 9.906 1.984 2.43 4.141 2.458 5.833.816 22.237 27.417 53.426 30.091 53.426 30.091s43.663-5.346 59.555-29.413c1.527.892 3.306.536 4.962-1.493 2.042-2.501 2.313-6.142 1.762-9.906 2.404 1.526 4.779.969 5.958-2.316.016-.045.029-.108.041-.182.31-2.017-1.448-14.562-21.256-20.014z" fill="#fffcc8"/><path d="M219.589 124.413s5.949 4.392 6.662 9.025c1.003 6.517-6.416 3.564-6.416 3.564 8.554 15.505-2.851 15.327-2.851 15.327-17.822 26.02-50.792 29.941-50.792 29.941s-24.951-2.495-52.688-24.162c22.152 26.19 52.332 28.795 52.332 28.795s43.663-5.346 59.555-29.413c1.527.892 3.306.536 4.962-1.493 2.042-2.501 2.313-6.142 1.762-9.906 2.404 1.526 4.779.969 5.958-2.316.434-1.209-.583-13.339-18.484-19.362z" fill="#e5ba97"/><path d="M192.539 147.231c1.028-.868 1.891-1.822 2.512-2.9.629-1.077 1.005-2.296 1.005-3.564 0-.766-.145-1.532-.407-2.285 4.172-.102 8.203-1.144 7.426-2.394-3.833.237-7.012.003-9.461-.366a1.846 1.846 0 0 0-.531-.084c-1.75-.29-3.094-.64-3.979-.914-1.154-.356-2.043 1.065-1.192 1.922.692.699 1.946 1.266 3.479 1.555.047.109.103.216.172.317.597.893.794 1.613.801 2.248-.007.554-1.287 2.813-1.922 3.393-1.12 1.016-2.739 2.026-4.717 2.943-2.961 1.374-6.664 2.864-10.775 3.356-8.934 1.07-8.902-3.389-8.902-3.389s-1.508-8.482-2.259-8.423c-.763.06-1.709 8.353-1.709 8.353s-.965 4.795-9.783 4.123c-3.394-.259-6.394-1.515-8.878-2.666-2.273-1.041-4.071-2.279-5.229-3.535-.578-.627-1.003-1.256-1.274-1.859a4.371 4.371 0 0 1-.399-1.804c.006-.738.196-1.533.695-2.444l.051-.134.086-.01c1.535-.227 2.799-.769 3.47-1.445.753-.759-.034-2.017-1.055-1.702-1.911.59-6.184 1.589-12.365 1.207-.641 1.03 2.412 1.899 5.817 2.087a8.133 8.133 0 0 0-.395 2.441c0 1.151.259 2.278.727 3.313.813 1.81 2.124 3.494 3.978 4.692 18.253 11.804 27.52 3.427 27.52 3.427 12.828 8.556 26.413-4.55 27.493-5.459z" fill="#740806"/><g fill="#e93e8f"><path d="M138.175 131.607c0-1.782-4.253-3.227-9.499-3.227-5.247 0-9.501 1.445-9.501 3.227 0 1.781 4.253 3.226 9.501 3.226 5.246 0 9.499-1.445 9.499-3.226zM213.383 131.607c0-1.782-4.253-3.227-9.499-3.227-5.247 0-9.501 1.445-9.501 3.227 0 1.781 4.253 3.226 9.501 3.226 5.245 0 9.499-1.445 9.499-3.226z"/></g><path d="M163.776 127.386c-30.159 0-7.507 12.816 0 12.816s30.159-12.816 0-12.816z" fill="#e93e8f"/><path d="M159.727 130.597c-.699-.327-1.661-.529-2.723-.529-1.37 0-2.572.337-3.26.844-.385.283-.61.619-.61.981 0 1.008 1.733 1.824 3.87 1.824s3.87-.817 3.87-1.824c0-.507-.439-.965-1.147-1.296z" fill="#fff"/><path d="M221.013 97.864s-5.525-12.119-14.257-19.96L229.102 59.3s10.624 21.812-8.089 38.564z" fill="#fffcc8"/><path d="M235.421 137.118c-.261-.903-.562-1.883-.891-2.915-2.985-3.885-8.312-8.046-17.673-10.622-5.827-36.998-23.22-49.489-23.22-49.489s-3.24-1.279-7.368-2.952l-17.494 15.249s1.941-13.317 7.738-19.287l-.013-.006a66.85 66.85 0 0 0-7.685-.467c-10.127 0-18.897 2.353-26.017 5.399l-.699.299-33.739-19.936c-.099.151-.196.298-.31.48a38.804 38.804 0 0 0-2.418 4.528c-1.765 3.886-3.522 9.369-3.521 15.736.001 4.067.711 8.496 2.599 13.149 1.889 4.652 4.96 9.533 9.721 14.482l.699.727-.409.922c-2.85 6.425-6.007 13.787-8.651 20.547-2.643 6.751-4.774 12.94-5.555 16.848-.224 1.11-.335 2.032-.333 2.664 0 .109.003.209.009.298l.001.011v.01c.005.097.012.166.019.206l.003.015.002.016c.019.136.045.229.049.235l.001.003c.32.895.713 1.44 1.06 1.735.353.293.644.39 1.039.397.417.002.984-.156 1.644-.576l2.761-1.753-.473 3.236a20.616 20.616 0 0 0-.233 2.973c0 1.178.129 2.277.403 3.246.275.971.689 1.81 1.269 2.521.456.559.887.917 1.251 1.125.367.208.658.274.925.275.42-.002.888-.175 1.451-.712l1.327-1.288.986 1.565c3.269 5.191 8.011 9.625 13.354 13.342 5.34 3.717 11.271 6.713 16.865 9.057 10.881 4.562 20.457 6.654 21.989 6.971l.033-.005a112.708 112.708 0 0 0 3.94-.643 149.783 149.783 0 0 0 10.738-2.369c8.652-2.242 19.614-5.93 28.771-11.602 6.108-3.778 11.394-8.427 14.734-14.041l.761-1.277 1.284.75c.32.185.591.254.864.256.267-.002.559-.068.927-.276.365-.208.796-.566 1.253-1.126.58-.711.994-1.55 1.269-2.522.275-.969.404-2.068.403-3.246 0-.95-.083-1.951-.233-2.973l-.473-3.237 2.762 1.753c.659.419 1.227.578 1.643.576.395-.008.686-.105 1.039-.398.345-.293.735-.835 1.054-1.721l.006-.034c.006-.048.013-.132.012-.243.003-.434-.099-1.232-.313-2.238a51.276 51.276 0 0 0-.937-3.648z" fill="none"/><path d="m97.446 144.285-.001-.002v-.001z" fill="#740806"/><path d="M155.624 112.062a27.598 27.598 0 0 0-.114-1.594c-.917-9.577-6.715-16.911-13.452-16.661-7.103.264-12.553 8.868-12.168 19.215.309 8.241 4.227 15.086 9.397 17.404 1.321.593 2.722.905 4.169.851a9.151 9.151 0 0 0 1.308-.145c6.454-1.198 11.221-9.367 10.86-19.07z" fill="#fff"/><path d="M131.411 89.129a20.668 20.668 0 0 1 3.62-3.431c6.133-4.517 13.391-2.856 17.767 2.481.487.593 1.318-.163 1.038-.941-1.673-4.655-5.057-10.878-11.135-10.595-6.63.308-10.421 6.962-12.274 11.638-.314.794.47 1.468.984.848z" fill="#740806"/><path d="M198.896 98.779c-1.602.748-3.474 1.181-5.627 1.181-4.761 0-8.171-2.092-10.235-5.09-5.322 2.965-8.948 9.991-8.71 18.095.02.654.064 1.299.132 1.935.54 5.081 2.583 9.522 5.496 12.564 2.621 2.737 5.945 4.342 9.524 4.237 2.68-.08 5.153-1.122 7.262-2.844 4.228-3.454 6.961-9.694 6.752-16.756-.155-5.239-1.899-9.938-4.594-13.322z" fill="#fff"/><g fill="#740806"><path d="M129.89 113.022c-.385-10.346 5.064-18.95 12.168-19.215 6.736-.251 12.535 7.084 13.452 16.661l-.001-.212c-.414-11.093-6.926-19.856-14.543-19.573-7.619.284-13.459 9.509-13.046 20.601.218 5.867 2.152 11.065 5.045 14.635 1.795 2.216 3.957 3.797 6.323 4.506-5.171-2.317-9.089-9.162-9.398-17.403zM205.542 92.398c-6.075 5.311-15.195 6.115-22.115.202a24.608 24.608 0 0 1-3.986-4.34c-.549-.765-1.598-.128-1.318.8a33.767 33.767 0 0 0 1.724 4.537c-3.755 3.909-6.091 10.023-5.891 16.855.045 1.531.219 3.019.5 4.449a26.068 26.068 0 0 1-.132-1.935c-.209-7.131 2.577-13.421 6.874-16.852 2.219 3.645 5.527 6.883 10.434 7.671 3.521.566 6.485-.599 8.92-2.496 1.73 3.046 2.818 6.758 2.938 10.814.209 7.062-2.524 13.302-6.752 16.756 3.063-1.896 5.562-5.057 7.126-8.965 1.233-3.082 1.89-6.624 1.779-10.379-.116-3.911-1.063-7.528-2.586-10.61 1.491-1.697 2.705-3.592 3.633-5.311.446-.825-.473-1.787-1.148-1.196z"/><path d="M196.342 115.724c.424-1.008-.727-1.908-1.671-1.356-3.075 1.885-8.677 4.164-13.528-.056-.842-.733-2.105-.034-1.871 1.058.639 2.723 2.973 6.016 8.23 6.257 5.35.275 8.446-4.831 8.84-5.903zM152.336 115.865c.424-1.008-.727-1.908-1.671-1.356-3.075 1.885-8.677 4.164-13.528-.056-.842-.733-2.105-.034-1.871 1.058.639 2.723 2.973 6.016 8.23 6.257 5.349.275 8.445-4.831 8.84-5.903z"/></g><path d="M154.706 172.83s6.416-8.02 16.218-3.208c-1.604-7.307-14.97-8.02-16.218 3.208z" fill="#740806"/><path d="M239.295 140.148c-.824-3.889-2.886-10.084-5.455-17.132-2.463-6.749-5.387-14.236-8.11-21.034 4.568-4.931 7.644-9.869 9.57-14.639 2.02-5.001 2.792-9.811 2.791-14.207-.001-6.922-1.899-12.812-3.79-16.977-1.893-4.167-3.783-6.62-3.835-6.687l-.81-1.048-34.316 20.278c-9.542-3.622-18.445-5.074-26.524-5.073-10.264 0-19.193 2.315-26.49 5.347l-34.78-20.552-.81 1.048c-.052.068-1.942 2.52-3.834 6.687-1.89 4.165-3.788 10.054-3.789 16.976-.001 4.417.778 9.251 2.82 14.277 1.943 4.786 5.045 9.741 9.651 14.688-3.168 7.169-6.662 15.378-9.415 22.656-1.434 3.792-2.667 7.327-3.549 10.344-.441 1.509-.795 2.889-1.042 4.119-.246 1.232-.39 2.306-.392 3.256 0 .158.005.312.014.465h-.001l.001.007v.013h.001c.008.151.022.323.053.513h-.002l.004.022.001.009h.001c.038.242.087.496.188.78.449 1.247 1.079 2.265 1.929 2.997a4.55 4.55 0 0 0 2.992 1.121c.249 0 .494-.028.738-.064-.015.315-.039.632-.039.945 0 1.394.149 2.762.516 4.062.366 1.298.958 2.531 1.833 3.602.639.783 1.331 1.4 2.088 1.833.754.433 1.584.671 2.412.67a4.615 4.615 0 0 0 2.113-.529c3.612 5.237 8.488 9.621 13.832 13.27 8.683 5.923 18.577 9.948 26.317 12.514 7.739 2.564 13.325 3.662 13.37 3.671l.238.047.241-.031c.06-.009 11.512-1.472 24.795-5.925 6.643-2.229 13.746-5.204 20.126-9.152 6.001-3.716 11.355-8.312 15.04-13.993.334.079.676.13 1.024.129.828.002 1.659-.237 2.414-.67.758-.433 1.45-1.051 2.09-1.835.875-1.071 1.466-2.304 1.832-3.603.367-1.3.516-2.669.516-4.063 0-.313-.024-.629-.039-.944.244.036.489.064.738.064a4.54 4.54 0 0 0 2.992-1.121c.851-.732 1.482-1.75 1.93-2.999.158-.454.185-.851.188-1.276-.002-.809-.143-1.735-.377-2.856zm-2.634 3.1-.006.034c-.32.886-.71 1.427-1.054 1.721-.353.293-.644.39-1.039.398-.417.002-.984-.156-1.643-.576l-2.762-1.753.473 3.237a20.76 20.76 0 0 1 .233 2.973c0 1.179-.129 2.277-.403 3.246-.275.971-.689 1.81-1.269 2.522-.456.56-.888.919-1.253 1.126-.368.208-.66.274-.927.276-.272-.002-.544-.071-.864-.256l-1.284-.75-.761 1.277c-3.339 5.613-8.625 10.262-14.734 14.041-9.157 5.672-20.119 9.36-28.771 11.602a149.115 149.115 0 0 1-10.738 2.369 112.708 112.708 0 0 1-3.94.643l-.033.005c-1.532-.318-11.108-2.409-21.989-6.971-5.594-2.344-11.525-5.34-16.865-9.057-5.342-3.716-10.084-8.151-13.354-13.342l-.986-1.565-1.327 1.288c-.563.538-1.031.71-1.451.712-.266-.002-.557-.068-.925-.275-.364-.207-.795-.565-1.251-1.125-.58-.711-.994-1.55-1.269-2.521-.275-.969-.404-2.068-.403-3.246 0-.95.083-1.951.233-2.973l.473-3.236-2.761 1.753c-.66.42-1.227.578-1.644.576-.395-.008-.686-.105-1.039-.397-.346-.295-.739-.84-1.06-1.735l-.001-.003a1.62 1.62 0 0 1-.049-.235l-.002-.016-.003-.015a1.892 1.892 0 0 1-.019-.206v-.01l-.001-.011a4.479 4.479 0 0 1-.009-.298c-.002-.632.109-1.554.333-2.664.781-3.908 2.912-10.097 5.555-16.848 2.644-6.76 5.801-14.122 8.651-20.547l.409-.922-.699-.727c-4.762-4.949-7.832-9.831-9.721-14.482-1.888-4.652-2.599-9.082-2.599-13.149-.001-6.367 1.756-11.851 3.521-15.736a38.957 38.957 0 0 1 2.418-4.528c.114-.182.211-.329.31-.48L142.1 72.327l.699-.299c7.12-3.046 15.89-5.399 26.017-5.399 2.478 0 5.047.161 7.685.467 5.788.672 11.943 2.122 18.449 4.655l.68.265 33.214-19.626a38.078 38.078 0 0 1 2.81 5.192c1.737 3.874 3.44 9.286 3.439 15.554-.001 4.048-.705 8.455-2.573 13.083-1.87 4.628-4.907 9.484-9.615 14.408l-.668.699.36.897c3.215 8.006 6.756 17.085 9.486 24.76.926 2.604 1.755 5.04 2.449 7.219.329 1.032.629 2.012.891 2.915.407 1.404.726 2.639.939 3.649.215 1.006.316 1.804.313 2.238a2.48 2.48 0 0 1-.014.244z" fill="#740806"/><path d="M156.061 69.763s-2.154.094-3.341 1.374c-1.061 1.143-1.635 5.09 2.672 5.482 5.52.503 15.963-5.426 14.881-10.655-.603-.36-19.379-13.362-22.344-6.284-1.034 2.468.113 5.292 1.96 6.994 2.507 2.312 6.172 3.089 6.172 3.089z" fill="#fbb807"/><path d="M165.787 73.116c-2.987 2.083-6.851 3.534-9.71 3.534-.236 0-.465-.01-.686-.03-4.307-.392-3.732-4.339-2.671-5.482 1.188-1.279 3.341-1.374 3.341-1.374s-3.665-.778-6.173-3.089c-1.847-1.702-2.993-4.527-1.96-6.995.633-1.509 1.984-2.105 3.726-2.105 6.423 0 18.251 8.838 18.726 9.121 0 0 2.799-.226 2.58-1.287l-.245-1.181-1.035-.619-.201-.134c-5.966-3.943-14.247-8.644-19.824-8.644-4.063 0-5.663 2.375-6.257 3.79-1.597 3.812.172 7.805 2.632 10.072a13.537 13.537 0 0 0 2.004 1.516c-.802 1.422-1.152 3.463-.422 5.368.825 2.155 2.842 3.531 5.531 3.776.301.027.615.041.935.041 3.715-.001 10.129-5.431 9.709-6.278z" fill="#740806"/></g></g></svg>