<svg height="512" width="512" xmlns="http://www.w3.org/2000/svg"><path d="M229.985 331.522c-1.026 7.457 1.512 15.121 5.895 21.241s12.4 8.653 16.991 14.618c18.94 24.606 114.018 74.862 150.408 53.562-2.994-9.78.671-15.403 6.794-20.066s13.765-6.86 20.291-10.94c10.697-6.687 8.701-14.933 12.631-25.073 3.461-8.93 13.556-12.879 21.514-18.208 18.354-12.291 27.89-36.908 22.084-58.221-40.749 15.565-87.39 15.071-127.801-1.352-15.532-6.312-30.109-14.847-45.81-20.726s-33.205-8.993-49.211-4.004c-16.225 19.354-30.344 44.149-33.786 69.169z" fill="#f22a4e"/><path d="M380.576 427.912c-20.641 0-44.604-8.486-59.741-14.887-30.144-12.748-59.323-31.485-69.381-44.552-2.065-2.683-4.915-4.637-7.932-6.705-3.277-2.246-6.666-4.57-9.096-7.962-4.964-6.932-7.228-15.143-6.213-22.526 4.194-30.493 23.22-56.993 34.189-70.075.22-.262.511-.456.838-.558 14.336-4.466 31.283-3.11 50.37 4.038 8.615 3.226 16.998 7.294 25.104 11.227 6.745 3.274 13.72 6.658 20.752 9.516 40.026 16.266 86.129 16.753 126.49 1.338a1.789 1.789 0 0 1 2.364 1.2c5.994 22.002-3.601 47.309-22.815 60.176-1.863 1.247-3.854 2.429-5.78 3.573-6.488 3.85-12.616 7.487-15.061 13.796-1.117 2.883-1.74 5.624-2.341 8.275-1.467 6.464-2.852 12.569-11.01 17.668-2.904 1.815-6.022 3.27-9.038 4.677-4.004 1.868-7.786 3.632-11.118 6.169-6.748 5.139-8.534 10.388-6.167 18.12a1.79 1.79 0 0 1-.807 2.067c-6.641 3.887-14.825 5.425-23.607 5.425zm-148.819-96.146c-.892 6.487 1.141 13.76 5.577 19.957 2.063 2.88 5.049 4.927 8.21 7.094 3.114 2.134 6.334 4.342 8.745 7.474 9.569 12.431 38.776 31.106 67.94 43.439 34.754 14.698 63.379 18.421 78.948 10.332-2.747-10.853 2.685-16.701 7.814-20.607 3.638-2.771 7.773-4.7 11.773-6.566 2.918-1.361 5.935-2.769 8.654-4.468 6.895-4.31 8.008-9.216 9.418-15.427.63-2.777 1.281-5.648 2.493-8.776 2.892-7.462 9.846-11.589 16.571-15.58 1.885-1.119 3.833-2.275 5.616-3.469 17.421-11.667 26.393-34.254 21.83-54.355-19.457 7.167-40.181 10.745-60.894 10.746-22.66.001-45.313-4.278-66.331-12.82-7.141-2.902-14.17-6.313-20.967-9.612-8.032-3.898-16.337-7.928-24.797-11.096-18.1-6.777-34.096-8.164-47.552-4.124-10.771 12.923-29.019 38.562-33.048 67.858z" fill="#911027"/><path d="M482.632 292.634c-9.043 18.984-44.179 57.751-113.509 41.304s-74.314-30.895-107.618-18.858c-33.305 12.036 10.057-51.573 10.057-51.573s25.894 12.286 50.077 23.506 65.097 24.297 100.849 24.582 53.151-11.651 60.144-18.961z" fill="#c91838"/><path d="M419.86 313.009c-.796 0-1.591-.006-2.394-.018-19.519-.293-41.017-3.994-63.895-11.001-26.092-7.991-54.064-20.328-83.141-36.669a1.788 1.788 0 1 1 1.752-3.118c53.857 30.268 104.115 46.593 145.337 47.211 30.258.436 55.577-7.821 67.71-22.135a1.788 1.788 0 1 1 2.729 2.313c-12.489 14.734-37.832 23.417-68.098 23.417z" fill="#911027"/><path d="M357.449 304.262c10.193 4.789 21.081 6.117 31.548 4.508 3.197-6.894 5.474-14.316 5.82-21.849-.191.046-.382.096-.573.14-14.606 3.531-36.344 2.842-45.346-10.335a79.473 79.473 0 0 0-2.587 6.301c-.936 2.569-1.776 5.173-2.611 7.78 2.585 5.86 7.925 10.159 13.749 13.455zM336.194 309.924a65.926 65.926 0 0 1-8.375 11.875c2.022 7.448 7.332 14.036 13.564 19.067 4.439 3.337 9.684 5.084 15.092 5.568a93.707 93.707 0 0 0 17.096-14.66c-15.192-.149-30.308-8.484-37.377-21.85zM315.776 332.578a69.089 69.089 0 0 1-12.532 7.004c-.885 7.724.751 15.814 4.828 22.009a92.75 92.75 0 0 0 19.167-2.429c-7.441-6.446-11.748-16.609-11.463-26.584z" fill="#e36254"/><g fill="#a63c30"><path d="M303.244 339.582c-5.615 2.405-11.547 4.054-17.621 4.798-4.247.52-9.393.845-13.022 3.11-1.136.709-2.235 1.578-2.825 2.78s-.48 3.782.754 4.3c11.832 4.96 24.718 7.305 37.542 7.021-4.077-6.194-5.713-14.284-4.828-22.009zM357.449 304.262c-5.824-3.295-11.164-7.595-13.748-13.455-1.571 4.909-3.118 9.824-5.218 14.526a62.509 62.509 0 0 1-2.288 4.592c7.068 13.365 22.185 21.701 37.377 21.85 5.866-6.399 10.845-13.605 14.664-21.403.26-.53.512-1.064.761-1.601-10.468 1.608-21.355.28-31.548-4.509zM327.82 321.8a69.293 69.293 0 0 1-12.043 10.779c-.286 9.974 4.022 20.138 11.463 26.583a89.044 89.044 0 0 0 10.922-3.315c6.444-2.42 12.589-5.599 18.314-9.413-5.407-.484-10.653-2.231-15.092-5.568-6.232-5.03-11.542-11.619-13.564-19.066zM394.244 287.061c.19-.043.382-.093.573-.14a41.744 41.744 0 0 0-.056-4.976c-.72-9.811-5.05-21.057-14.337-24.301-7.442-2.6-15.991.194-21.886 5.427-4.205 3.732-7.255 8.526-9.64 13.654 9.002 13.178 30.74 13.867 45.346 10.336z"/></g><path d="M308.081 363.38c-.545 0-37.45-.531-40.489-9.99-.791-2.462.547-4.938 3.978-7.36.027-.02.056-.038.084-.056 3.524-2.2 8.111-2.722 12.157-3.182.542-.061 1.075-.122 1.595-.186 15.444-1.902 30.414-9.917 41.072-21.99.013-.014.026-.03.04-.043 8.693-9.215 12.685-21.499 16.546-33.379.515-1.583 1.028-3.162 1.551-4.732 4.551-14.778 16.894-29 31.67-27.503 3.212.325 6.345 1.521 9.062 3.457 16.227 11.567 12.268 38.314 4.479 52.773-12.24 24.945-35.483 43.529-62.183 49.715-6.801 1.6-13.384 2.433-19.559 2.475l-.003.001zm-34.491-14.398c-1.865 1.325-2.834 2.562-2.592 3.314.175.547 1.748 3.389 15.493 5.649 8.589 1.412 17.608 1.889 21.569 1.857 5.908-.04 12.223-.841 18.77-2.382 25.68-5.95 48.033-23.832 59.8-47.837l.032-.062c7.479-13.858 10.46-38.315-3.391-48.193-2.212-1.576-4.752-2.548-7.347-2.81-12.848-1.304-23.769 11.61-27.904 25.036-.533 1.6-1.043 3.171-1.555 4.746-3.98 12.246-8.096 24.91-17.326 34.706-11.227 12.706-27.007 21.144-43.298 23.15-.531.065-1.074.127-1.627.19-3.65.415-7.787.886-10.624 2.636z" fill="#7d271d"/><path d="M308.074 363.38a1.789 1.789 0 0 1-1.496-.805c-4.205-6.388-6.068-14.843-5.111-23.196a1.783 1.783 0 0 1 1.981-1.573 1.789 1.789 0 0 1 1.573 1.981c-.863 7.533.794 15.122 4.546 20.822a1.79 1.79 0 0 1-.51 2.478 1.803 1.803 0 0 1-.983.293zM380.562 311.206a56.025 56.025 0 0 1-23.874-5.325 2.257 2.257 0 0 1-.12-.062c-7.354-4.161-12.098-8.835-14.504-14.29a1.788 1.788 0 1 1 3.273-1.443c2.077 4.71 6.308 8.828 12.934 12.587 9.48 4.439 20.01 5.935 30.454 4.33.979-.152 1.89.52 2.04 1.496.15.977-.52 1.89-1.496 2.039a57.333 57.333 0 0 1-8.707.668zM373.572 333.562h-.018c-16.415-.161-31.7-9.112-38.94-22.803a1.788 1.788 0 0 1 3.162-1.672c6.533 12.353 20.925 20.751 35.813 20.897a1.789 1.789 0 0 1-.017 3.578zM327.238 360.951c-.415 0-.832-.144-1.17-.437-7.753-6.716-12.381-17.44-12.08-27.987a1.789 1.789 0 0 1 3.576.103c-.272 9.501 3.884 19.149 10.846 25.181a1.789 1.789 0 0 1-1.172 3.14zM356.478 348.223c-.053 0-.107-.003-.162-.007-6.039-.541-11.574-2.588-16.007-5.92l-.048-.038c-5.106-4.122-11.708-10.935-14.167-19.99a1.789 1.789 0 1 1 3.453-.937c1.721 6.336 6.315 12.771 12.938 18.124 3.95 2.962 8.711 4.711 14.152 5.198a1.789 1.789 0 0 1-.159 3.57zM378.757 290.667c-3.31 0-6.547-.246-9.577-.744-9.898-1.627-17.422-5.841-21.758-12.189a1.789 1.789 0 1 1 2.954-2.018c8.102 11.858 28.201 13.293 43.449 9.606a1.789 1.789 0 0 1 .841 3.477c-5.12 1.238-10.608 1.868-15.909 1.868z" fill="#7d271d"/><g><path d="M85.097 256.474c-2.989.472 6.635-29.065 8.43-25.417 9.469 3.798 88.071 41.594 97.539 45.392 0 0 6.456 10.471-6.053 23.507-10.62 11.067-24.203 7.459-24.203 7.459-10.723-7.587-75.713-50.941-75.713-50.941z" fill="#a63c30"/><path d="M160.809 309.203c-.357 0-.718-.106-1.032-.328-10.195-7.212-70.391-47.388-75.353-50.699-.67-.199-1.296-.736-1.55-1.702-.75-2.854 2.091-11.872 2.98-14.568 3.902-11.835 5.793-12.541 6.505-12.806a2.129 2.129 0 0 1 2.281.48c5.555 2.312 26.403 12.157 48.438 22.564 21.617 10.209 43.97 20.766 48.653 22.645a1.788 1.788 0 1 1-1.331 3.319c-4.783-1.919-26.187-12.027-48.849-22.73-20.928-9.883-42.546-20.093-48.176-22.45-2.293 3.564-7.124 18.594-7.082 22.194 4.025 2.686 65.228 43.53 75.551 50.833a1.788 1.788 0 0 1-1.035 3.248zm-75.987-54.496-.004.001.004-.001zm7.101-22.86.001.001-.001-.001z" fill="#7d271d"/><path d="M76.97 233.195c6.247-4.649 12.965-5.811 20.969-.055 2.457 1.767 4.141 4.746 3.908 7.763-.233 3.018-2.685 5.862-5.704 6.07 2.992 1.415 5.201 4.461 5.419 7.764.217 3.303-1.671 6.698-4.675 8.086-3.005 1.388-6.934.543-8.961-2.073.93 2.438.014 5.391-1.992 7.06s-4.946 2.137-7.392 1.225c-7.429-2.768-10.249-8.523-10.924-12.532-1.458-8.671 3.805-19.18 9.352-23.308z" fill="#a63c30"/><path d="M81.141 271.285a9.237 9.237 0 0 1-3.223-.574c-9.626-3.586-11.667-11.555-12.063-13.912-1.571-9.337 3.927-20.485 10.047-25.039 7.667-5.705 15.217-5.728 23.081-.072 3.09 2.222 4.915 5.893 4.648 9.353a8.646 8.646 0 0 1-3.694 6.413c1.97 1.901 3.233 4.471 3.41 7.166.27 4.108-2.078 8.15-5.71 9.827-2.471 1.142-5.345 1.078-7.748.013-.382 1.805-1.356 3.514-2.812 4.725-1.651 1.374-3.788 2.1-5.936 2.1zm6.279-40.251c-3.092 0-6.16 1.198-9.382 3.596-5.164 3.843-9.989 13.65-8.656 21.576.316 1.879 1.955 8.236 9.784 11.154 1.866.695 4.125.322 5.624-.925 1.467-1.221 2.097-3.39 1.465-5.048a1.788 1.788 0 0 1 3.085-1.733c1.499 1.934 4.484 2.614 6.798 1.544 2.282-1.054 3.813-3.722 3.641-6.345-.17-2.583-1.938-5.101-4.399-6.264a1.788 1.788 0 0 1 .642-3.401c2.017-.139 3.869-2.165 4.044-4.423.173-2.241-1.072-4.664-3.17-6.173-3.3-2.372-6.401-3.558-9.476-3.558zm-10.45 2.161h.005z" fill="#7d271d"/></g><g><path d="M149.468 359.923c4.851 29.342 10.592 74.744 10.592 74.744s-21.396 12.003-17.222 18.265c4.175 6.262 36.881 7.306 42.446 0s18.09-69.93 18.09-69.93z" fill="#a63c30"/><path d="M164.636 459.817a80.69 80.69 0 0 1-2.525-.04c-4.04-.127-17.476-.926-20.76-5.852-.804-1.206-1.036-2.649-.67-4.171 1.501-6.245 13.56-13.757 17.455-16.042-.938-7.337-6.076-47.149-10.432-73.496a1.787 1.787 0 0 1 2.469-1.936l53.907 23.08a1.787 1.787 0 0 1 1.049 1.995c-1.29 6.451-12.769 63.242-18.421 70.663-3.273 4.295-13.122 5.799-22.072 5.799zm-12.878-96.968c4.685 29.047 10.021 71.156 10.077 71.594a1.788 1.788 0 0 1-.899 1.784c-5.956 3.343-15.778 10.199-16.778 14.362-.172.716 0 1.098.169 1.351 1.221 1.831 7.907 3.947 17.897 4.262 10.362.33 19.469-1.504 21.639-4.353 3.826-5.023 12.425-42.731 17.473-67.774z" fill="#7d271d"/></g><g><path d="M295.323 356.763c-4.851 29.342-10.85 77.904-10.85 77.904s21.396 12.003 17.222 18.265c-4.175 6.262-36.881 7.306-42.446 0s-18.09-69.93-18.09-69.93z" fill="#a63c30"/><path d="M279.897 459.817c-8.95 0-18.799-1.504-22.072-5.801-5.652-7.421-17.131-64.212-18.421-70.663-.16-.799.24-1.605.974-1.96l54.165-26.24a1.79 1.79 0 0 1 2.544 1.902c-4.372 26.441-9.743 69.05-10.693 76.655 3.891 2.283 15.957 9.797 17.458 16.044.366 1.523.134 2.965-.67 4.171-3.285 4.928-16.723 5.726-20.764 5.853a83.53 83.53 0 0 1-2.521.039zm-36.713-75.808c5.045 25.042 13.657 62.812 17.487 67.84 2.17 2.849 11.264 4.68 21.635 4.353 9.991-.314 16.68-2.43 17.901-4.262.169-.253.34-.635.169-1.351-1-4.163-10.821-11.019-16.778-14.362a1.79 1.79 0 0 1-.9-1.779c.058-.468 5.61-45.311 10.307-74.575z" fill="#7d271d"/></g><path d="M295.668 356.938c-7.45 27.936-49.247 39.106-69.48 40.961-20.232 1.855-61.639-1.686-74.044-27.802-10.56-22.215 1.226-62.797 13.183-100.342 2.096-6.581 4.2-13.065 6.185-19.343l83.346-7.642c3.527 6.624 7.251 13.488 10.963 20.454 18.135 34.027 36.034 70.528 29.847 93.714z" fill="#e36254"/><path d="M265.822 266.802c-31.579 25.961-79.546 20.373-100.494 6.53 2.096-6.581 4.2-13.065 6.185-19.343l83.346-7.642c3.527 6.626 7.25 13.489 10.963 20.455z" fill="#b0866b" opacity=".67"/><g><path d="M216.562 400.101c-22.087 0-54.958-5.921-66.034-29.237-10.653-22.412.627-62.506 13.094-101.652a3974.91 3974.91 0 0 1 2.673-8.349c1.194-3.718 2.372-7.388 3.511-10.99a1.789 1.789 0 0 1 1.542-1.242l83.346-7.641a1.794 1.794 0 0 1 1.742.941c1.776 3.336 3.603 6.734 5.453 10.174 1.822 3.39 3.667 6.821 5.51 10.279 18.662 35.017 36.351 71.197 29.996 95.014-3.376 12.661-14.067 23.526-30.916 31.419-14.054 6.584-29.944 9.928-40.129 10.862-2.881.265-6.192.422-9.788.422zm-43.703-148.016a2643.876 2643.876 0 0 1-3.157 9.872c-.885 2.757-1.779 5.54-2.671 8.341-12.25 38.465-23.365 77.795-13.272 99.031 6.531 13.748 21.518 20.331 32.941 23.432 17.788 4.83 34.597 3.79 39.326 3.357 23.628-2.166 61.213-14.51 67.914-39.64 6.02-22.56-12.172-59.529-29.697-92.41-1.84-3.454-3.683-6.881-5.504-10.268a2996.797 2996.797 0 0 1-4.9-9.139z" fill="#7d271d"/></g><g><path d="M212.056 295.367c-1.003 8.639-1.84 18.308.862 26.72.638 1.987 3.276 1.478 3.482-.471.918-8.7.107-17.511 1.07-26.249.381-3.465-5.017-3.418-5.414 0zM202.823 292.404c-2.454 6.513-4.867 14.886-3.005 21.84.452 1.691 3.014 1.719 3.453 0 .853-3.338.899-6.947 1.458-10.355.572-3.489 1.368-6.919 2.449-10.285.9-2.804-3.347-3.874-4.355-1.2zM221.867 292.552a113.136 113.136 0 0 1 2.363 11.629c.577 3.824.856 7.792 1.709 11.56.337 1.488 2.605 1.445 2.968 0 .968-3.858.921-8.337.557-12.268-.389-4.207-1.172-8.309-2.238-12.398-.902-3.458-6.263-1.992-5.359 1.477zM203.105 324.728c.075 4.744.413 9.634 2.289 14.053.631 1.487 2.725.571 2.801-.759.252-4.402-.375-8.886-.467-13.295-.062-2.969-4.67-2.981-4.623.001zM222.258 326.685c.181 3.901-.275 7.971.511 11.809.279 1.363 2.554 1.767 3.141.41 1.651-3.817 1.546-8.132 1.402-12.219-.114-3.246-5.204-3.251-5.054 0zM213.646 339.602c-.192 3.273-.415 7.48 1.495 10.331.809 1.208 2.999 1.204 3.338-.436.656-3.171-.18-6.661-.066-9.895.109-3.08-4.588-3.046-4.767 0z" fill="#f0857a"/></g><g><path d="M157.355 248.943c0 34.237 36.342 37.395 46.02 40.159 13.766 1.742 32.162-1.324 52.601-12.055 16.45-8.636 17.374-17.885 17.374-17.885l-5.833-20.8z" fill="#c91233"/><path d="M210.895 291.35c-2.655 0-5.241-.157-7.744-.474a1.72 1.72 0 0 1-.266-.055c-1.124-.321-2.688-.661-4.499-1.055-6.915-1.505-17.364-3.778-26.319-9.604-10.949-7.123-16.499-17.627-16.499-31.22 0-.922.7-1.692 1.617-1.78l110.163-10.58a1.788 1.788 0 0 1 1.893 1.298l5.833 20.8c.06.215.08.439.057.661-.041.417-1.216 10.31-18.322 19.291-15.849 8.32-31.85 12.718-45.914 12.718zm-7.164-4.006c15.016 1.861 33.269-2.354 51.414-11.88 13.636-7.159 16.017-14.675 16.372-16.215l-5.318-18.963-107.027 10.279c1.001 27.228 27.237 32.935 39.973 35.706 1.804.393 3.37.734 4.586 1.073z" fill="#911027"/><path d="M199.754 286.414c-.165 6.359-3.232 12.367-7.361 17.207-4.129 4.839-9.288 8.671-14.399 12.458-.788.584-1.698 1.2-2.666 1.036-1.7-.288-2.085-2.547-1.944-4.266.944-11.525 7.624-22.439 17.457-28.524 2.503.087 6.595 1.142 8.913 2.089z" fill="#f22a4e"/><path d="M175.65 318.931c-.202 0-.408-.017-.619-.052-2.357-.399-3.703-2.823-3.428-6.175.989-12.069 8-23.526 18.298-29.899.3-.186.646-.274 1.003-.266 2.76.095 7.094 1.227 9.528 2.221.688.281 1.13.959 1.111 1.702-.204 7.835-4.348 14.288-7.788 18.321-4.282 5.019-9.576 8.941-14.695 12.734-.693.512-1.91 1.414-3.41 1.414zm15.658-32.785c-9.092 5.841-15.258 16.077-16.141 26.85-.114 1.398.263 2.323.46 2.356.182.034.624-.208 1.302-.71 4.958-3.674 10.086-7.473 14.103-12.182 2.874-3.368 6.297-8.595 6.86-14.827-1.99-.672-4.694-1.327-6.584-1.487z" fill="#911027"/><g><path d="M202.691 288.881c-2.326 7.27-1.226 15.289 1.538 22.404 2.765 7.115 7.095 13.494 11.389 19.805.662.974 1.45 2.031 2.611 2.228 2.04.346 3.369-2.062 3.888-4.065 3.485-13.43.232-28.434-8.503-39.215-2.869-.892-7.923-1.314-10.923-1.157z" fill="#f22a4e"/><path d="M218.622 335.14a4.19 4.19 0 0 1-.692-.059c-1.989-.337-3.161-2.06-3.79-2.985-4.29-6.305-8.725-12.824-11.578-20.163-2.283-5.875-4.409-14.737-1.574-23.596a1.789 1.789 0 0 1 1.61-1.241c3.118-.167 8.42.263 11.547 1.235.337.105.636.307.859.582 9.078 11.203 12.467 26.833 8.844 40.79-.878 3.383-2.886 5.437-5.226 5.437zm-14.58-44.503c-1.964 7.466-.113 14.937 1.854 20 2.705 6.96 7.024 13.308 11.2 19.447.306.451.944 1.388 1.431 1.47.583.106 1.452-1.186 1.858-2.75 3.296-12.699.301-26.9-7.814-37.205-2.333-.621-5.885-.962-8.524-.962h-.005z" fill="#911027"/></g><g><path d="M204.622 274.237c-6.533-.408-14.366.493-18.817 5.301-.029.633-.057 1.258-.089 1.868-.109 2.084.411 4.142 1.37 5.997a14.529 14.529 0 0 0 4.232 4.951c8.126 6.016 17.994 2.843 22.842-5.241 1.021-1.702 1.673-4 1.995-6.472-2.256-3.813-7.012-6.056-11.533-6.404z" fill="#f22a4e"/><path d="M214.844 268.118c-1.971-4.481-7.422-6.454-12.314-6.273-4.098.152-13.556.844-15.05 5.282-1.284 3.816-1.488 8.309-1.675 12.411 4.451-4.808 12.284-5.709 18.817-5.301 4.521.348 9.277 2.591 11.533 6.404.572-4.393.088-9.343-1.311-12.523z" fill="#c91233"/><path d="M200.408 297.264c-3.553 0-7.072-1.189-10.155-3.472a16.287 16.287 0 0 1-4.757-5.567c-1.146-2.217-1.687-4.607-1.567-6.912.032-.608.06-1.231.089-1.862.189-4.145.403-8.842 1.767-12.894 1.33-3.952 6.942-6.139 16.679-6.5 4.902-.177 11.507 1.632 14.017 7.341 2.314 5.262 2.468 15.205-.788 20.635-2.813 4.69-7.247 7.942-12.166 8.922a15.897 15.897 0 0 1-3.119.309zm-11.734-10.682a12.686 12.686 0 0 0 3.708 4.335c3.211 2.377 6.825 3.251 10.447 2.53 3.931-.783 7.501-3.427 9.796-7.253 2.625-4.377 2.465-13.074.582-17.356-1.674-3.806-6.546-5.37-10.61-5.206-7.643.282-12.66 1.802-13.422 4.065-1.204 3.576-1.406 8.006-1.584 11.915-.029.64-.058 1.27-.09 1.886-.087 1.674.318 3.431 1.173 5.084z" fill="#911027"/></g></g><g><path d="M264.535 266.112c-16.01 10.182-1.058 29.917 6.026 48.512-3.797 8.376-7.773 19.026-9.368 22.363-3.434 1.424-9.183 2.364-12.326 8.897-1.035 2.15-.855 4.866.496 6.833 1.352 1.967 3.964 3.048 6.262 2.405-2.552 1.627-3.65 5.134-2.639 7.986 1.012 2.852 3.945 4.856 6.971 4.934 3.025.079 5.984-1.678 7.523-4.283-.063 2.767 2.321 5.238 5.049 5.702 2.728.465 5.568-.831 7.396-2.908s2.742-4.832 3.049-7.583c.307-2.75.262-6.388.006-9.144 0 0 12.462-12.332 20.804-25.941 7.23-11.795-10.796-46.085-13.754-50.287-6.38-9.063-14.784-14.297-25.495-7.486z" fill="#a63c30"/><path d="M273.662 371.345a8.063 8.063 0 0 1-6.976-3.937c-1.904 1.586-4.328 2.476-6.775 2.423-3.825-.1-7.366-2.618-8.61-6.124-.826-2.327-.558-4.91.561-7.018-1.575-.528-3.008-1.555-3.972-2.958-1.709-2.486-1.958-5.87-.634-8.621 2.941-6.112 7.866-7.845 11.461-9.11.403-.142.792-.278 1.154-.414.69-1.541 1.721-4.096 2.891-6.995 1.702-4.218 3.801-9.419 5.862-14.019-1.467-3.754-3.264-7.605-5.004-11.336-6.837-14.658-13.908-29.815-.043-38.632 7.03-4.47 17.58-6.718 27.919 7.967 2.074 2.946 21.943 38.994 13.816 52.251-7.421 12.107-17.867 23.027-20.478 25.681.216 2.934.19 6.249-.079 8.667-.386 3.453-1.591 6.415-3.484 8.567-2.026 2.298-4.841 3.608-7.609 3.608zm-6.181-9.374a1.79 1.79 0 0 1 1.788 1.83c-.041 1.777 1.59 3.562 3.562 3.898 1.954.331 4.215-.58 5.754-2.327 1.776-2.018 2.402-4.703 2.614-6.599.271-2.43.272-5.876.003-8.78a1.79 1.79 0 0 1 .523-1.436c.123-.122 12.41-12.346 20.537-25.605 6.285-10.252-9.782-42.769-13.692-48.323-7.094-10.077-14.642-12.369-23.074-7.008-11.215 7.133-5.385 19.63 1.366 34.101 1.874 4.019 3.812 8.173 5.371 12.265.17.446.155.941-.042 1.375-2.128 4.694-4.336 10.168-6.112 14.566-1.426 3.534-2.553 6.326-3.271 7.829-.19.398-.521.712-.929.881-.616.256-1.276.488-1.975.734-3.34 1.175-7.126 2.507-9.425 7.287-.766 1.591-.622 3.618.359 5.045.953 1.387 2.802 2.116 4.306 1.696a1.789 1.789 0 0 1 1.443 3.231c-1.8 1.147-2.658 3.785-1.915 5.88.748 2.108 2.99 3.683 5.331 3.744 2.319.064 4.699-1.308 5.937-3.405.329-.554.92-.879 1.541-.879z" fill="#7d271d"/></g><g><path d="M209.368 79.087c-9.907-13.679-15.999-19.91-27.546-32.554-6.335-6.938-13.859-14.928-24.048-16.752-4.294-.768-8.266 2.179-5.178 6.338 1.263 1.701 3.318 2.767 5.292 3.767-3.192-.623-5.338-.738-8.514-.321-3.176.418-6.249 1.631-8.366 3.746-1.118 1.117-1.974 2.711-1.323 4.166.512 1.143 1.849 1.874 3.18 2.095 1.331.222 2.676.022 3.989-.177-15.472 23.888-20.525 73.463-10.402 89.554z" fill="#ffe8db"/><path d="M136.454 140.738a1.787 1.787 0 0 1-1.515-.836c-10.358-16.465-5.488-63.579 8.589-88.46a8.765 8.765 0 0 1-.955-.105c-2.078-.346-3.809-1.545-4.519-3.129-.866-1.936-.234-4.24 1.691-6.162 2.243-2.241 5.58-3.752 9.396-4.253a31.179 31.179 0 0 1 2.32-.226 7.995 7.995 0 0 1-.301-.381c-1.634-2.201-1.901-4.546-.731-6.435 1.367-2.208 4.447-3.304 7.659-2.73 11.057 1.979 19.147 10.838 25.054 17.306 1.436 1.573 2.788 3.046 4.073 4.447 8.952 9.758 14.866 16.204 23.601 28.265a1.79 1.79 0 0 1-2.898 2.098c-8.613-11.893-14.156-17.935-23.339-27.944-1.287-1.403-2.641-2.878-4.079-4.453-5.562-6.091-13.179-14.432-23.042-16.197-1.935-.346-3.5.304-3.989 1.092-.464.749.049 1.729.562 2.419 1.041 1.403 2.966 2.378 4.665 3.238a1.788 1.788 0 0 1-1.151 3.351c-3.12-.609-5.049-.682-7.939-.303-3.04.4-5.645 1.55-7.335 3.238-.614.613-1.233 1.55-.955 2.171.212.473.986.919 1.841 1.062 1.063.176 2.265-.005 3.426-.181a1.789 1.789 0 0 1 1.77 2.74c-7.036 10.864-12.465 28.406-14.522 46.926-1.988 17.895-.404 33.491 4.134 40.703a1.79 1.79 0 0 1-.561 2.467 1.787 1.787 0 0 1-.95.272z" fill="#e0a58f"/><path d="M324.973 255.671c-9.323 4.564-20.352 8.106-31.928 10.718-6.938 1.564-14.075 2.799-21.154 3.722-3.864.503-7.714.915-11.504 1.238-18.771 1.595-36.146 1.019-47.191-1.302-17.746-1.64-49.294-12.073-75.563-27.218a183.503 183.503 0 0 1-10.548-6.545c-6.407-4.293-12.271-8.866-17.249-13.652-4.594-4.423-8.433-9.027-11.24-13.749-2.417-4.054-4.072-8.2-4.804-12.397-.679-3.864-.564-7.78.472-11.706 1.122-4.255 6.308-13.333 13.542-24.511 19.47-30.103 53.737-75.448 63.181-82.878 12.95-10.188 40.484-10.261 72.065-5.503s61.559 13.497 70.933 27.048 38.66 108.443 37.983 124.671c-.579 13.89-11.395 24.42-26.995 32.064z" fill="#e36254"/><path d="M260.388 271.349c-18.771 1.595-36.146 1.019-47.191-1.302-17.746-1.64-49.294-12.073-75.563-27.218a183.503 183.503 0 0 1-10.548-6.545c-6.407-4.293-12.271-8.866-17.249-13.652 11.387-30.68 46.762-49.907 84.937-44.155 42.975 6.475 73.23 42.153 67.575 79.686-.135.893-1.297 8.842-1.961 13.186z" fill="#ffe8db"/><circle cx="239.762" cy="170.345" fill="#fff" transform="rotate(-52.06 239.537 170.259)" r="22.559"/><path d="M239.777 194.695c-1.203 0-2.418-.089-3.642-.274-13.275-2-22.448-14.428-20.449-27.704 2.001-13.275 14.428-22.45 27.704-20.449 13.275 2 22.448 14.428 20.449 27.704-1.816 12.051-12.227 20.723-24.062 20.723zm-.027-45.123c-10.098 0-18.978 7.397-20.527 17.678-1.706 11.325 6.119 21.928 17.445 23.634 11.326 1.705 21.926-6.121 23.634-17.445 1.706-11.325-6.12-21.927-17.445-23.634a20.886 20.886 0 0 0-3.107-.233zm22.32 24.134h.005z"/><path d="M252.917 173.381c-1.112 7.38-7.998 12.463-15.378 11.351s-12.463-7.998-11.351-15.378c1.113-7.384 7.999-12.467 15.379-11.355a13.46 13.46 0 0 1 8.088 4.389 9.635 9.635 0 0 0-.633.256c-3.759 1.659-5.964 4.922-4.924 7.291 1.045 2.365 4.944 2.94 8.708 1.282.088-.039.177-.077.261-.121.016.753-.034 1.517-.15 2.285z"/><ellipse cx="155.438" cy="157.64" fill="#fff" rx="22.559" ry="20.596" transform="rotate(-81.43 155.443 157.614)"/><path d="M154.897 181.948c-1.021 0-2.051-.075-3.086-.232-5.943-.895-11.141-4.261-14.636-9.476-3.461-5.165-4.836-11.534-3.871-17.935.964-6.401 4.155-12.082 8.984-15.998 4.876-3.954 10.833-5.64 16.779-4.743 5.943.895 11.141 4.261 14.636 9.476 3.461 5.164 4.836 11.534 3.871 17.935-1.831 12.149-11.666 20.973-22.677 20.973zm1.059-45.04c-4.064 0-8.041 1.442-11.417 4.178-4.134 3.352-6.868 8.236-7.699 13.752-.831 5.516.343 10.989 3.305 15.41 2.929 4.37 7.261 7.187 12.198 7.931.856.129 1.711.192 2.555.192 9.271.001 17.574-7.549 19.138-17.929.831-5.516-.343-10.989-3.306-15.411-2.929-4.37-7.261-7.186-12.197-7.93a17.349 17.349 0 0 0-2.577-.193zm-20.884 17.664h.005z"/><path d="M147.105 157.439c-1.112 7.38 3.971 14.266 11.351 15.378s14.266-3.971 15.378-11.351a13.29 13.29 0 0 0 .149-2.285c-.088.039-.177.082-.265.12-3.759 1.659-7.659 1.084-8.703-1.281-1.04-2.369 1.161-5.633 4.924-7.291.209-.094.422-.179.633-.256a13.454 13.454 0 0 0-8.088-4.389c-7.38-1.112-14.266 3.971-15.379 11.355zM183.055 181.839l20.634 3.109c2.511.378 3.437 3.517 1.533 5.198l-11.542 10.191a3.933 3.933 0 0 1-5.998-.961l-7.653-13.069c-1.27-2.17.54-4.843 3.026-4.468z"/><path d="M185.226 145.968c-2.571 2.932-9.095 1.414-14.573-3.39-5.477-4.804-7.833-11.074-5.262-14.006 2.571-2.931 9.095-1.414 14.573 3.39 5.477 4.804 7.833 11.075 5.262 14.006z" fill="#ffe8db"/><path d="M181.362 149.227c-3.549 0-7.951-1.85-11.889-5.304-6.315-5.539-8.699-12.8-5.427-16.53 1.699-1.937 4.521-2.565 7.946-1.769 3.034.706 6.284 2.479 9.15 4.993 2.867 2.515 5.049 5.505 6.144 8.421 1.237 3.292.982 6.172-.717 8.109-1.231 1.405-3.064 2.08-5.207 2.08zm-12.106-20.361c-1.128 0-2.008.301-2.52.885-1.641 1.871.19 7.179 5.096 11.482 4.906 4.302 10.407 5.425 12.049 3.555.776-.886.798-2.523.057-4.493-.879-2.34-2.758-4.887-5.154-6.99-2.396-2.101-5.167-3.632-7.602-4.198a8.696 8.696 0 0 0-1.926-.241z" fill="#e0a58f"/><path d="M243.305 139.471c1.158 3.723-3.544 8.495-10.501 10.658s-13.535.898-14.693-2.826c-1.158-3.723 3.544-8.495 10.501-10.658 6.958-2.163 13.536-.898 14.693 2.826z" fill="#ffe8db"/><path d="M226.261 152.967c-4.955.001-8.836-1.852-9.856-5.133-.765-2.461.173-5.195 2.641-7.7 2.186-2.219 5.396-4.064 9.037-5.196s7.33-1.432 10.39-.843c3.454.664 5.777 2.385 6.542 4.845.764 2.461-.173 5.195-2.641 7.7-2.186 2.219-5.395 4.065-9.036 5.196-2.468.767-4.878 1.131-7.077 1.131zm8.972-15.587c-1.912 0-4.026.331-6.089.973-3.044.947-5.796 2.511-7.551 4.291-1.477 1.499-2.123 3.004-1.773 4.128.74 2.376 6.222 3.585 12.454 1.649 3.044-.947 5.796-2.51 7.55-4.291 1.477-1.499 2.123-3.004 1.773-4.128h-.001c-.349-1.125-1.735-1.998-3.801-2.395a13.637 13.637 0 0 0-2.562-.227z" fill="#e0a58f"/><g><path d="M207.445 227.214c-5.761 0-11.646-3-15.185-7.906-1.524-2.112-2.624-4.533-3.273-7.108-1.379 2.269-3.144 4.258-5.222 5.828-5.469 4.129-13.094 5.036-18.976 2.254-6.28-2.97-10.191-10.168-9.1-16.743a1.788 1.788 0 1 1 3.529.585c-.84 5.056 2.213 10.612 7.1 12.924 4.71 2.229 10.855 1.475 15.29-1.874 3.627-2.739 6.109-7.043 6.904-11.829.028-.205.059-.41.092-.615.084-.624.14-1.256.166-1.892a1.787 1.787 0 0 1 2.053-1.696l.255.038a1.792 1.792 0 0 1 1.463 2.226 20.491 20.491 0 0 0-.4 1.857c-.028.206-.059.41-.093.614-.651 4.809.452 9.652 3.112 13.338 3.252 4.508 8.902 7.041 14.059 6.297 5.352-.769 9.906-5.179 10.593-10.258a1.788 1.788 0 1 1 3.545.48c-.894 6.604-6.753 12.331-13.629 13.319-.754.108-1.518.161-2.283.161z"/></g><path d="M111.561 173.938c-5.979 10.943-10.343 22.755-12.965 34.944-2.417-4.054-4.072-8.2-4.804-12.397-.679-3.864-.564-7.78.472-11.706 1.122-4.255 6.308-13.333 13.542-24.511 2.336.378 4.657 1.503 5.722 3.596 1.625 3.179-.255 6.942-1.967 10.074zM324.973 255.671c-9.323 4.564-20.352 8.106-31.928 10.718-6.938 1.564-14.075 2.799-21.154 3.722 6.774-22.807 7.832-52.568 3.995-71.414-.713-3.497-1.401-7.647 1.089-10.207 1.799-1.858 4.721-2.146 7.253-1.631 6.156 1.258 10.775 6.274 14.603 11.254 7.294 9.481 22.63 31.996 26.142 57.558z" fill="#ffe8db"/><g><path d="M239.951 274.027c-10.88 0-20.29-.807-27.021-2.209-17-1.599-48.585-11.524-76.189-27.441a186.113 186.113 0 0 1-10.65-6.608c-19.947-13.354-31.724-27.524-34.06-40.98-.739-4.205-.569-8.401.505-12.469 4.219-16.032 63.985-97.826 77.347-108.337 11.985-9.428 36.694-11.402 73.437-5.866 22.059 3.323 60.762 11.354 72.137 27.799 9.979 14.427 38.972 109.631 38.298 125.763-.837 20.076-22.258 35.863-60.316 44.453-18.413 4.156-37.529 5.895-53.488 5.895zm-32.599-203.43c-16.51 0-28.315 2.737-35.258 8.199-12.674 9.97-72.126 91.34-76.1 106.437-.941 3.566-1.089 7.246-.44 10.941 2.165 12.472 13.412 25.827 32.527 38.623a183.402 183.402 0 0 0 10.446 6.481c27.215 15.692 58.247 25.454 74.835 26.987.068.006.136.016.203.03 16.193 3.4 48.559 3.236 79.087-3.652 21.043-4.75 56.499-16.406 57.53-41.113.636-15.232-28.229-109.936-37.666-123.579-7.863-11.368-32.626-20.707-69.728-26.297-13.54-2.038-25.364-3.057-35.436-3.057zm85.693 195.792h.005z" fill="#a63c30"/></g><g><path d="M330.287 163.495c13.4-13.484 19.324-62.963 9.457-89.658 1.237.482 2.506.971 3.853 1.046s2.812-.345 3.561-1.348c.954-1.277.468-3.02-.379-4.355-1.602-2.526-4.335-4.383-7.343-5.486s-5.126-1.46-8.378-1.551c2.145-.544 4.384-1.134 5.989-2.517 3.924-3.382.694-7.128-3.664-7.318-10.342-.451-19.432 5.698-27.132 11.08-14.035 9.81-21.344 14.556-34.005 25.734-12.755 18.232 42.766 81.89 58.041 74.373z" fill="#ffe8db"/><path d="M327.375 165.905c-9.759 0-24.907-13.482-35.91-26.314-14.407-16.801-28.468-40.369-20.685-51.495a1.76 1.76 0 0 1 .282-.315c11.161-9.854 18.343-14.849 29.212-22.409a2418.86 2418.86 0 0 0 4.952-3.45c7.179-5.018 17.021-11.883 28.234-11.402 3.262.143 6.025 1.887 6.876 4.341.728 2.099-.045 4.329-2.122 6.118a8.396 8.396 0 0 1-.377.306c.707.202 1.434.443 2.214.729 3.613 1.325 6.539 3.53 8.237 6.207 1.458 2.298 1.57 4.684.301 6.384-1.04 1.39-2.991 2.187-5.094 2.063a8.986 8.986 0 0 1-.956-.106c8.289 27.358 2.726 74.396-10.986 88.194a1.753 1.753 0 0 1-.479.344c-1.112.549-2.355.805-3.699.805zm2.912-2.409h.005zm-56.689-73.182c-5.037 7.651 3.384 26.891 20.583 46.949 14.23 16.596 29.178 27.118 35.061 24.742 5.905-6.185 10.767-20.908 12.72-38.581 2.048-18.521.59-36.826-3.897-48.967a1.79 1.79 0 0 1 2.326-2.287c1.094.426 2.226.867 3.305.927.865.044 1.719-.218 2.029-.634.407-.544.008-1.593-.457-2.326-1.279-2.018-3.569-3.71-6.448-4.765-2.736-1.003-4.634-1.353-7.812-1.442a1.789 1.789 0 0 1-.39-3.521c1.846-.468 3.938-.998 5.261-2.139.651-.561 1.366-1.404 1.078-2.237-.304-.876-1.687-1.853-3.653-1.939-10.015-.445-19.27 6.035-26.029 10.76a2081.745 2081.745 0 0 1-4.958 3.454c-11.093 7.716-17.812 12.389-28.719 22.006z" fill="#e0a58f"/></g><g><path d="M317.206 77.293c-9.415-6.404-32.985 16.509-36.334 21.914-3.348 5.405 25.625 45.724 32.768 43.177 7.144-2.546 11.88-59.435 3.566-65.091z" fill="#a63c30"/><path d="M313.005 144.274c-3.721 0-9.517-4.845-17.263-14.438-4.729-5.856-9.282-12.458-12.492-18.112-5.186-9.134-4.807-11.991-3.898-13.459 2.592-4.184 18.983-21.004 30.996-23.557 3.155-.67 5.8-.298 7.864 1.106 7.271 4.946 5.205 34.571 3.795 45.569-1.775 13.849-4.388 21.482-7.766 22.686a3.668 3.668 0 0 1-1.236.205zm-30.591-44.159c-.231.78.58 4.896 7.007 14.882 4.957 7.702 11.157 15.569 16.18 20.531 5.664 5.594 7.421 5.18 7.439 5.172 1.517-.654 4.477-9.055 6.002-25.008 1.94-20.291.035-34.963-2.843-36.921-1.227-.834-2.946-1.025-5.108-.564-10.152 2.157-25.886 17.453-28.677 21.908z" fill="#7d271d"/></g></g></svg>