<svg id="Layer_3" enable-background="new 0 0 1000 1000" height="1000" viewBox="0 0 1000 1000" width="1000" xmlns="http://www.w3.org/2000/svg"><g><path d="m254.7 582.6c-6.1 19.2-12.6 72.8-2.2 90.2 0 0-39 45-43.1 76.2 0 0-67.1-102-44.4-176 22.7-74.1 71.5-80.2 88.9-62.7 17.4 17.4 6.9 53.1.8 72.3z" fill="#fea142"/><path d="m822.8 966c-6.1 3.5-258.9-1.7-258.9-1.7-5.3 24.4-13.9 24.4-45.2 29.6-31.4 5.2-79.3-30.5-79.3-30.5s-212.6 32.2-231.8-.9 23.5-52.3 23.5-59.3-82.3-134.2 34.4-242.2c51.4-63.6 53.2-92.2 53.6-156-76.7-47.1-62.8-181-62.8-181-22.7-17.2-64.7-136.5-64.7-136.5 42.4-33.4 136.8-18.5 136.8-18.5 72.9-47.5 143.2-56.1 143.2-56.1 53.2-81.9 100.3-101.9 100.3-101.9 25.3 17.4 83.7 139.4 83.7 139.4l49.7 56c108.9-62.5 94.1 84.3 94.1 84.3 47.9 211.7-19.2 352.9-19.2 352.9 90.6 129 16.6 236.1 16.6 236.1 79.2 25.3 32.1 82.8 26 86.3z" fill="#ffc363"/><path d="m424.6 243c-11.7 5.5-25.9-1.2-34.5-20.9s-40.1-58.5-40.1-58.5l27.1-17.2c31.5 24.5 59.2 91.1 47.5 96.6zm23.4-126.9c-12.3-5.5-30.8 12.9-30.8 12.9s55.9 82.8 69 133.1c8.5 32.8 12.9 50.5 24.6 54.8 10.5 3.9 21.6-26.5-1.8-81.3s-48.7-114-61-119.5zm61.6-3.7-22.2 2.5s8.1 9.9 17.3 32c8 19.3 11.6 24.7 19.1 29.6 8 5.2 24.7-11.1-14.2-64.1zm-187.4 406.2c-5.2-2.6-1.7 14.8-1.7 14.8s8.3 17 16.6 25.3 16.6 9.1 21.8 4.8c5.2-4.4-31.4-42.3-36.7-44.9zm-18.4 93.8c2.5-11.3-16.6 25-16.6 25s10.4 51.9 28.9 69.4l10.1-8c-1.6.3-25-74.8-22.4-86.4z" fill="#dc8b4a"/><path d="m227.2 202.7c11.8.4 66.8 8.3 66.8 8.3l-30.6 71c-17.4-14.4-47.9-79.7-36.2-79.3zm344.2-155.5c-3.9 3.1-35.3 71-35.3 71l81.5 12.6c-7.8-34.8-42.2-86.7-46.2-83.6zm4.4 484c-58.6 8.5-103.2 90-101.5 96.7-5.2 190.8 89.7 336.4 89.7 336.4l91.6-5.2c54.9-35.7 88-158.6 88-158.6l9.6-99.3c-9.7-168.4-117.7-178.7-177.4-170z" fill="#f9eba5"/><path d="m823.3 887.8c-6.9-5.3-14-8.9-18.8-10.9 15.2-28.4 23.9-58 25.9-88.1 1.7-25.6-1.4-51.5-9.4-77.1-11.2-36-28.4-60.7-34.5-68.8 29.9-61.6 36.2-141.8 36-201-.3-75.2-11-137.2-15.4-150.4-2.2-6.6-2.8-16.5-3.4-27.1-1.7-28.6-4-67.8-43.1-77.6-24.5-6.1-40.4 3.9-49.5 13.3-.7.7-1.3 1.4-1.9 2.2-3.3-4.7-17.9-25-43.7-45.2-1.7-1.3-3.4-2.6-5.2-3.9.8-1.3 1-2.8.6-4.3-14-48.6-71.7-132.4-87.9-142.5-5.9-3.7-14 0-27.9 12.9-8.9 8.2-20.2 20.3-33.6 35.9-18.8 21.9-36.6 44.7-42.3 52-34.7 4.3-80.5 19.6-137.1 57.8-.8-.7-1.9-1.2-3.1-1.3-49.3-4.7-87.8-2.9-114.4 5.3-20.8 6.4-26.8 14.7-27.4 15.6-.7 1-1 2.3-.9 3.5 3.8 41.5 63 135 65.5 138.9.2.3.4.6.7.8-7.2 50.2-.8 92.9 19.4 127.8 10.5 18.2 24.6 34.1 42.2 47.5-.2.6-.3 1.2-.4 1.9-.4 65.6-3 91.4-52.1 152.3-2.3 2.2-4.6 4.4-6.8 6.6-5.2-19.5-.5-61.9 5.1-79.6 5.5-17.2 18.3-57.4-2.2-77.8-8.7-8.7-22.9-11.8-37.2-8.3-12.5 3.1-43.4 16.5-60.7 73.3-9.8 31.9-5.1 72.1 13.9 119.4 11.8 29.4 25.4 51.9 29.8 59-4.5 16.9-6.4 34.6-5.7 53 1.7 44.1 18.3 79.8 25.4 95.1.8 1.8 1.7 3.7 2.3 5-1.1 1.2-3.3 3.1-5.1 4.8-5.9 5.2-13.9 12.4-18.8 21.7-6.1 11.7-5.6 23.8 1.5 36 4.7 8.1 18 17.7 74.8 17.7 14.7 0 32.3-.6 53.4-2.1 46.5-3.3 91.8-9.5 105.2-11.5 29.3 25.4 43.4 25.4 78 25.6h6.7.9c20.4 0 34.5-4.6 42.1-13.7 3.4-4.1 4.8-8.2 5.3-11.5 11 .1 37.7.4 68.5.7.4.1.8.1 1.2.1s.7 0 1.1-.1c50.2.5 110.5 1 131.4 1 6.1 0 11.8.2 17.3.4 4.6.2 9.1.4 13.4.4 22 0 38.5-4.6 42.7-36.9 2.1-18.7-5.3-35.1-21.8-47.8zm-653.1-313.2c15.7-51.5 42.3-63.2 52.9-65.9 10.6-2.6 20.9-.6 26.9 5.4 15.8 15.8 4 52.8-.5 66.8-5.6 17.7-13 69.6-3.1 91.8-17.6 19.6-30.5 40.6-38.6 63.1-15.9-27.3-55.2-103.7-37.6-161.2zm663.8 359.3c-3.7 28.7-16.6 28.2-44.9 27.1-5.6-.2-11.4-.4-17.7-.4-18.3 0-67.1-.4-112.8-.8 18.9-13.3 35.6-32.2 49.6-56.3 14.3-24.6 26-54.8 34.6-89.6 14.7-59.1 15.7-112.1 15.7-112.7.1-3-2.4-5.5-5.4-5.6s-5.5 2.4-5.6 5.4c0 .5-1 52.3-15.4 110.2-13 52.4-40 120.4-94.3 148.3-34-.3-63-.6-71.4-.7-44.4-52.6-65.5-144.1-75.4-212-11.4-78.4-10.9-142.6-10-148 .7-2.8-.8-5.7-3.5-6.6-2.9-1-6 .6-6.9 3.5-1.8 5.3-1.9 72.3 9.2 150.1 10.1 70.5 31.9 165.8 78.8 220.8 0 1.7-.5 4.9-3.2 8.1-3.8 4.4-12.9 9.7-34.4 9.5-2.3 0-4.6 0-6.7 0-32.5-.1-44.3-.2-69.5-21.7-.5-2.4-2.5-4.2-4.9-4.3-2.3-2-4.6-4.2-7.2-6.6-32.6-30.9-59.6-94.5-76.4-142.4-19.1-54.2-29.1-99.4-29.6-107.5.1-.2.1-.3.2-.5.8-2.9-.8-5.9-3.7-6.8-2.5-.7-5.2.4-6.5 2.7-1 1.8-2.6 4.5 5.8 37.8 3.4 13.3 10.7 40.7 22.1 73.8 17.5 50.6 45.7 117.8 80.7 150.9l.6.6c-19.1 2.6-56.8 7.4-95.4 10.1-97.2 6.9-114.9-4.8-118-10.1-10.8-18.7.9-31.5 15.1-44 5.5-4.9 9.2-8.2 9.2-12.5 0-2.1-.9-4.1-3.7-10-24.1-51.8-30.3-99.2-18.7-141.7.4-.7.6-1.4.6-2.2 8.8-30.7 27-58.9 54.5-84.3.2-.2.4-.4.5-.6 50.7-62.7 54.3-92.1 54.8-153.8 13 8.6 27.7 16 43.9 22.3 1 1.2 2.5 2 4.2 2 .3 0 .6 0 .9-.1 35.1 12.7 66.7 16.1 78.8 17.3 1.4.2 2.9.3 3.6.4.6.2 1.2.3 1.8.3.4 0 .7 0 1.1-.1 3-.6 4.9-3.5 4.3-6.4-.8-3.9-4.7-4.5-5.9-4.6-.8-.1-2.1-.2-3.7-.4-27.1-2.9-51.6-8.2-73.5-15.7 2.3-3.3 7.3-8.9 18.3-17.7 10.8-8.7 21.7-16 21.8-16.1 2.5-1.7 3.2-5.1 1.5-7.6s-5.1-3.2-7.6-1.5c-.5.3-11.4 7.7-22.6 16.7-12.9 10.4-19 17.4-21.9 22.4-19.2-7.6-36-17.1-50.4-28.3 11.2-7 42-20.2 69.3-30.3 2.8-1 4.3-4.2 3.2-7-1-2.8-4.2-4.3-7-3.2-14.6 5.4-59 22.3-74.1 33.3-10.6-9.5-19.6-20.2-26.9-31.9 20.8-12.5 74-20.2 93.9-22.2 3-.3 5.2-3 4.9-6s-3-5.2-6-4.9-70.5 7.3-98.2 23.6c-29.4-56.3-22.5-134.2 20.6-231.6v-.1c0-.1.1-.2.1-.3s.1-.2.1-.2c0-.1.1-.2.1-.3s0-.2.1-.3v-.1s0 0 0-.1 0-.2 0-.4c0-.1 0-.1 0-.2s0-.2 0-.3 0-.2 0-.2c0-.1 0-.2 0-.3s0-.2 0-.3 0-.1 0-.2 0-.2-.1-.3c0-.1 0-.1-.1-.2 0-.1-.1-.2-.1-.3s-.1-.1-.1-.2-.1-.2-.1-.3-.1-.2-.1-.2c0-.1-.1-.2-.1-.2-.1-.1-.1-.2-.2-.3 0-.1-.1-.1-.1-.2-.1-.1-.1-.2-.2-.3 0 0-.1-.1-.1-.1-.1-.1-.2-.2-.2-.2s-.1-.1-.1-.1c-.1-.1-.1-.1-.2-.2s-.1-.1-.2-.2c-.1 0-.1-.1-.2-.1-.1-.1-.2-.1-.3-.2-.1 0-.1-.1-.2-.1-.1-.1-.2-.1-.3-.2s-.1 0-.1-.1c-.1 0-.2-.1-.3-.1s-.2-.1-.3-.1-.2 0-.3-.1c-.1 0-.2 0-.3-.1h-.1c-2.3-.3-55.4-7.9-67.3-8.3-3.4-.1-6.3 1.8-7.6 5.1-3.2 8.5 6.2 30 12.1 42.1 7.4 15.2 18.7 34.1 28 41.8.3.3.6.5 1 .6-2.3 8.5-4.2 16.7-5.8 24.9-14.8-24.3-53.2-89.7-57.8-122.2 5.7-5 32.6-22.9 122-15.7-.6.4-1.2.9-1.8 1.3-1.4 1-2.8 2-3.5 2.5-1.8.7-3.1 2.4-3.4 4.4-.3 2.2.8 4.3 2.6 5.4.9.6 1.9.8 2.7.8 1.9 0 3.5-1.1 4.5-1.7.8-.6 1.9-1.4 3.4-2.4 61.4-44.3 110-61.3 145.9-65.9 1.6.5 3.3.3 4.7-.5 13.3-1.3 24.7-1 34.4.3 3 .4 5.7-1.7 6.1-4.7s-1.7-5.7-4.7-6.1c-7.7-1-16.5-1.5-26.3-1.1 7.7-9.7 19.9-25.1 32.9-40.3 37.4-43.9 48.6-49 50.9-49.6 13.1 9.5 63.9 82 80.2 128.8-7.5-4.8-15.8-9.5-24.9-13.7 0-.5 0-1-.1-1.5-3.3-14.8-11.9-34.8-23.6-54.9-4.1-7-17.9-30.1-25.2-32.7-2.1-.8-4.4-.5-6.1.9-1.2 1-5 3.9-36.9 73-.8 1.7-.6 3.7.4 5.3s2.8 2.5 4.7 2.5c55.2-1.1 96.8 22.2 122.1 41.9 27.5 21.5 42.1 43.6 42.3 43.9.5.8 1.3 1.5 2.1 1.9-10.9 18.4-14.4 43.8-8 65.3.1.4.2.8.3 1.2-.8.3-1.6.8-2.3 1.5-7.6 8.7-45.5 52.7-49.5 60.3-1.4 2.7-.4 6 2.3 7.4.8.4 1.7.6 2.6.6 2 0 3.9-1.1 4.8-2.9 2.4-4.6 26.4-33 43.6-53.1.4 12.7-.9 30.2-3.2 50-4.4.8-27.8 5.1-36.6 12.5-2.3 1.9-2.6 5.4-.7 7.7 1.1 1.3 2.6 1.9 4.2 1.9 1.2 0 2.5-.4 3.5-1.3 4.6-3.9 18.4-7.5 28.1-9.4-1.2 9.6-2.7 19.7-4.3 29.8-7-.1-22.4 0-27.7 1.6-2.9.9-4.5 3.9-3.6 6.8.7 2.3 2.9 3.9 5.2 3.9.5 0 1.1-.1 1.6-.2 2.6-.8 12.9-1.2 22.8-1.1-1.8 11-3.7 22.1-5.6 32.9-.2.4-.4.9-.5 1.4-.1.3-7.5 30.6-31.8 41.6-2.8 1.2-4 4.5-2.7 7.2.9 2 2.9 3.2 5 3.2.8 0 1.5-.2 2.2-.5 8.7-3.9 15.5-9.7 20.8-16-2 10.3-4 19.8-5.8 28.1-.6 3 1.3 5.9 4.2 6.5 3 .6 5.9-1.3 6.5-4.2 1.6-7.4 38.5-181.3 26.9-220.5-6.6-22.4-.7-50.6 13.7-65.7 10.1-10.6 23.6-14.1 39-10.3 31.3 7.8 33.2 39.6 34.9 67.6.7 11.3 1.3 21.9 4 29.9 4.1 12.3 14.5 74.1 14.9 147 .3 64.1-7.3 153.3-44.8 214.4-1.6 2.6-.8 5.9 1.8 7.5.9.5 1.9.8 2.9.8 1.8 0 3.6-.9 4.7-2.6 1.7-2.7 3.3-5.5 4.8-8.4 7.2 10.4 20.8 32.2 29.9 61.5 17 55.3 10.7 109.7-18.8 161.7-.8 1.4-.9 3.2-.3 4.7s1.9 2.7 3.5 3.2c.1 0 11.4 3.6 21.8 11.7 12.7 9.5 18.5 22.1 16.6 36.5zm-381.1-384.2c.2.4.4.7.6 1.1-.2-.3-.4-.7-.6-1.1zm-188.7-274.5c-6.2-6.6-14.5-19.7-22-34.8-7.8-15.8-11.4-27.1-12-32.1 12.1 1 42.2 5.1 56 7-9 20.9-16.3 40.8-22 59.9zm346.5-149.3c-19.1-7.4-41.1-12.6-66-13.2 10.1-21.6 22.7-47.8 28.2-57.9 8.9 10.3 29.8 44.1 37.8 71.1zm41.9 142.5c-24.8 14.4-63.8 40.2-69.7 52.5-.9 2-2.9 3.1-4.9 3.1-.8 0-1.6-.2-2.3-.5-2.7-1.3-3.9-4.6-2.6-7.3 9.2-19.3 67.5-53.4 74.1-57.3 2.6-1.5 6-.6 7.5 2 1.4 2.7.5 6-2.1 7.5zm-194.7 95.8c-15.9-9.7-81 .3-121 9.4-.4.1-.8.1-1.2.1-2.5 0-4.7-1.7-5.3-4.3-.7-2.9 1.2-5.9 4.1-6.5 10.6-2.4 104.4-23.1 129.1-8 2.6 1.6 3.4 4.9 1.8 7.5-1.5 2.6-4.9 3.4-7.5 1.8zm33.9 12.3c-1.3-1.3-1.9-3.2-1.5-5.1.4-1.8 1.7-3.3 3.5-3.9 20.6-7.4 43.9-16 46.6-17.4 1.4-.8 2.7-1.2 4.1-1.2 3.2 0 5.8 2.3 6.3 5.7 1 7.2-9.7 25.9-19.7 28.6-3.1.9-7.7 1.4-12.5 1.4-7.1-.1-19.9-1.2-26.8-8.1zm121.2 12.6c2.1 12.1-2.4 18.9-6.6 22.5-9.7 8.3-25.7 7.1-37.5 3.2-16.6-5.5-44.2 1-58.9 19.6-9 11.3-21.8 14.4-32.8 14.4-12.1 0-22.2-3.6-23-3.9-2.8-1-4.3-4.2-3.2-7 1-2.8 4.2-4.3 7-3.2.4.1 29.7 10.5 43.5-7 18.1-22.9 50.9-29.8 70.9-23.1 10.9 3.6 22 3.2 26.9-1.1 3-2.6 4-6.6 3-12.4-.5-3 1.5-5.8 4.5-6.3 2.8-.7 5.7 1.3 6.2 4.3zm-31.3 59.4c-.1.9-2.1 21.1-19.2 36.3-1 .9-2.3 1.4-3.6 1.4-1.5 0-3-.6-4.1-1.8-2-2.3-1.8-5.7.5-7.7 13.9-12.4 15.6-28.9 15.6-29.1.3-3 2.9-5.2 5.9-4.9 2.9.1 5.1 2.8 4.9 5.8z" fill="#89191a"/></g></svg>