<svg height="512" viewBox="0 0 309.594 309.594" width="512" xmlns="http://www.w3.org/2000/svg"><circle cx="154.797" cy="156.869" fill="#d0df92" r="134.02"/><g fill="#740806"><path d="M227.182 60.756c.8-1.3 38-37.7 38-37.7s9.9 1 6.8 11.4l-41.6 28.2zM236.782 67.356c.5-.5 23.3-12.2 23.3-12.2s4.5 1.9 1.5 6.3l-23.6 7.2z"/><g><path d="M85.782 54.656c-.8-1.3-39.3-36.4-39.3-36.4s-9.8 1.4-6.4 11.6l42.5 26.8zM76.382 61.656c-.6-.5-23.7-11.4-23.7-11.4s-4.4 2.1-1.3 6.4l23.8 6.4z"/></g></g><path d="M150.838 236.637c-1.275 3.974-1.288 8.106-.417 11.923.651 2.872 1.782 5.596 3.259 8.134 2.221 3.808 5.218 7.217 8.768 10.106a41.302 41.302 0 0 0 12.189 6.856c4.513 1.602 9.442 2.439 14.541 2.174a35.312 35.312 0 0 0 11.542-2.583c5.729-2.332 11.198-6.312 15.962-11.981 4.772-5.674 8.873-13.012 12.146-22.23 2.481-6.993 4.489-15.077 5.938-24.406.644-4.146 1.557-7.735 2.646-10.807 1.47-4.143 3.259-7.338 5.144-9.751 2.843-3.62 5.843-5.509 8.719-6.398 2.88-.875 5.727-.751 8.352.174a13.91 13.91 0 0 1 6.1 4.316c1.646 2.019 2.833 4.56 3.275 7.663a7 7 0 1 0 13.863-1.955c-.785-5.592-3.043-10.595-6.304-14.573a27.908 27.908 0 0 0-12.253-8.645 27.204 27.204 0 0 0-11.299-1.484c-5.84.459-11.75 2.889-16.767 7.278-5.032 4.386-9.169 10.64-12.024 18.693-1.415 3.988-2.522 8.425-3.286 13.34-1.335 8.601-3.158 15.846-5.298 21.872-2.508 7.069-5.446 12.453-8.51 16.459-2.299 3.006-4.662 5.242-7.011 6.895-3.527 2.47-7.02 3.671-10.504 4.051-3.479.372-6.981-.12-10.291-1.294a27.316 27.316 0 0 1-7.246-3.906c-3.246-2.431-5.736-5.491-7.045-8.346-.662-1.427-1.037-2.788-1.162-4.005-.123-1.223-.015-2.292.307-3.305a7 7 0 0 0-13.334-4.265z" fill="#fbb807"/><path d="M282.864 197.87c-.785-5.592-3.043-10.595-6.304-14.573a27.908 27.908 0 0 0-12.253-8.645 27.204 27.204 0 0 0-11.299-1.484c-5.84.459-11.75 2.889-16.767 7.278l-.084.078c3.503 3.077 6.655 6.545 9.454 10.337 1.889-1.61 3.802-2.615 5.662-3.19 2.88-.875 5.727-.751 8.352.174a13.91 13.91 0 0 1 6.1 4.316c1.646 2.019 2.833 4.56 3.275 7.663a7 7 0 0 0 7.909 5.954 7 7 0 0 0 5.955-7.908z" fill="#fffcc8"/><path d="M255.196 173.08c3.141 0 6.223.546 9.112 1.572a27.9 27.9 0 0 1 12.253 8.645c3.261 3.979 5.519 8.981 6.304 14.573a7.001 7.001 0 0 1-13.863 1.955c-.442-3.104-1.63-5.644-3.275-7.663a13.9 13.9 0 0 0-6.1-4.316 13.298 13.298 0 0 0-4.428-.767c-1.289 0-2.603.191-3.924.593-2.876.889-5.876 2.779-8.719 6.398-1.885 2.413-3.674 5.609-5.144 9.751-1.09 3.071-2.003 6.66-2.646 10.807-1.449 9.329-3.457 17.413-5.938 24.406-3.272 9.219-7.373 16.557-12.146 22.23-4.764 5.67-10.233 9.649-15.962 11.981a35.312 35.312 0 0 1-13.41 2.632c-4.434 0-8.714-.817-12.673-2.223a41.299 41.299 0 0 1-12.189-6.856c-3.55-2.89-6.547-6.299-8.768-10.106-1.477-2.538-2.607-5.262-3.259-8.134-.871-3.816-.858-7.949.417-11.923a6.999 6.999 0 0 1 8.799-4.535 7 7 0 0 1 4.535 8.8c-.321 1.013-.43 2.082-.307 3.305.125 1.217.5 2.578 1.162 4.005 1.309 2.854 3.799 5.915 7.045 8.346a27.316 27.316 0 0 0 7.246 3.906c2.581.915 5.278 1.416 7.991 1.416.766 0 1.533-.04 2.3-.122 3.484-.38 6.977-1.581 10.504-4.051 2.348-1.652 4.712-3.889 7.011-6.895 3.063-4.006 6.002-9.39 8.51-16.459 2.14-6.026 3.963-13.271 5.298-21.872.764-4.915 1.871-9.353 3.286-13.34 2.855-8.054 6.992-14.307 12.024-18.693 5.017-4.389 10.927-6.819 16.767-7.278.731-.059 1.46-.088 2.187-.088m0-3c-.807 0-1.624.033-2.429.098-6.715.528-13.114 3.299-18.5 8.011-5.571 4.856-9.905 11.569-12.876 19.949-1.495 4.214-2.647 8.885-3.424 13.882-1.242 8.009-2.979 15.185-5.16 21.33-2.236 6.304-4.949 11.564-8.065 15.639-1.97 2.576-4.107 4.684-6.354 6.264-2.878 2.015-5.857 3.169-9.104 3.522-.644.069-1.311.104-1.974.104-2.311 0-4.662-.418-6.988-1.243a24.417 24.417 0 0 1-6.444-3.476c-2.733-2.047-4.963-4.67-6.123-7.199-.497-1.073-.809-2.128-.904-3.061-.079-.785-.021-1.451.183-2.092 1.677-5.246-1.229-10.885-6.481-12.564a10.008 10.008 0 0 0-3.047-.477 9.965 9.965 0 0 0-9.523 6.956c-1.363 4.246-1.531 8.917-.484 13.503.691 3.048 1.899 6.068 3.591 8.976 2.371 4.066 5.556 7.741 9.467 10.924a44.121 44.121 0 0 0 13.079 7.357c4.479 1.59 9.079 2.396 13.677 2.396a38.288 38.288 0 0 0 14.545-2.855c6.398-2.605 12.161-6.922 17.124-12.829 5.115-6.082 9.381-13.873 12.676-23.157 2.597-7.317 4.641-15.712 6.076-24.949.584-3.767 1.429-7.22 2.509-10.264 1.258-3.545 2.833-6.542 4.681-8.908 2.189-2.789 4.56-4.55 7.24-5.379a10.47 10.47 0 0 1 3.038-.459c1.153 0 2.308.201 3.431.596a10.892 10.892 0 0 1 4.774 3.386c1.403 1.721 2.288 3.804 2.627 6.187.691 4.901 4.944 8.601 9.894 8.601.467 0 .939-.033 1.405-.099 5.46-.771 9.275-5.839 8.506-11.299-.839-5.977-3.244-11.529-6.954-16.056a30.909 30.909 0 0 0-13.569-9.57 30.19 30.19 0 0 0-10.12-1.745z" fill="#740806"/><g><path d="m265.844 90.282-.5.1.5-.1c-.4-1.4-1.3-2.8-2.6-4.1-3.9-3.8-11.3-6.9-19-6.9-5.6 0-11.4 1.7-15.8 6-1.5 1.5-2 3.2-2 4.6 0 1.3.4 2.4.6 3-.3.2-.8.6-1.2 1.2-.8 1-1.6 2.5-1.6 4.4 0 2.5 1.3 5.6 5.1 9.3-.8 1.4-4.4 7.2-11.3 13.4-7.5 6.7-18.9 13.8-35.1 16.2-5.1.8-8.9 1.8-11.8 3.2-2.7 1.3-4.6 2.8-5.7 4.5-5.3-1.7-11.5-2.7-18.5-2.7-1.6 0-3.3.1-5 .2-.1 0-5.5.1-12.6 2.8-1.1-1.8-2.9-3.4-5.7-4.7-2.9-1.4-6.9-2.5-12.1-3.3-16.6-2.5-28.3-9.9-35.8-16.8-3.7-3.4-6.4-6.7-8.2-9.1-.9-1.2-1.5-2.2-2-2.9-.2-.3-.3-.6-.4-.7 3.8-3.7 5.1-6.9 5.1-9.3 0-2-.8-3.4-1.6-4.4-.5-.6-.9-1-1.2-1.2.2-.6.6-1.6.6-3s-.5-3.1-2-4.6c-4.4-4.3-10.2-6-15.8-6-5.1 0-10.1 1.3-14 3.4-2 1-3.7 2.2-5 3.5s-2.2 2.7-2.6 4.1c-1.6 6-2.3 11.7-2.3 17 0 12.4 3.8 23 9.8 31.9 8.9 13.5 22.5 23.3 34.9 30.1 11.9 6.5 22.7 10.3 27.2 11.7-1.5 3.6-2.4 8.1-2.9 12.6-.5 4.8-.7 9.5-.7 13.3 0 2.1 0 3.8.1 5.1 0 .6 0 1.1.1 1.5v.5c.1 3.1.7 8.2 1.7 14.2 2.6 16.4 7.4 39.2 8.2 43.1-11.1.7-17.7 4-21.6 8.3s-4.8 9.4-4.8 13.4c0 1.9.2 3.5.4 4.7.1.6.2 1.1.3 1.4 0 .2.1.3.1.4v.5h56.8v-43.8c3 .4 6 .5 9.1.5 8 0 16.1-1.2 23.6-3.5l23.6 46.8h48.5l.1-.4s.4-1.7.4-4.3c0-3.8-.8-9.5-4.8-14.4s-11.1-8.9-23.5-9.7l-13.3-50c.3-2.3.7-6.9.7-12.7 0-7.8-.7-17.8-3.5-27.7 6.8-2.2 24.3-8.5 40.2-20.1 8.1-5.9 15.9-13.2 21.6-22.1s9.4-19.3 9.4-31.3c0-5.4-.7-11.1-2.2-17.1z" fill="#fbb807"/><path d="M97.644 166.082c-59.2-4.5-69.2-53-71.3-59v.2c0 12.4 3.8 23 9.8 31.9 8.9 13.5 22.5 23.3 34.9 30.1 11.5 6.3 22 10 26.7 11.5 2-6.2 10.4-18 14.4-22.7-11.1 2.2-14.5 8-14.5 8zM265.844 90.282l-.5.1.5-.1c-.4-1.4-1.3-2.8-2.6-4.1-3.9-3.8-11.3-6.9-19-6.9-1.8 0-3.5.2-5.3.5 15.9.7 17.7 8.9 17.7 8.9s3 16.4-8.4 16.9c.4-.2 5 4.3 9.4 3.6 0 0 1.5 38.8-59.9 58.3 0 0-3.9-9.6-15.9-10.5 14.1 15.5 27.8 95.5-42.3 94.4-9.9-.2-18.9-3.3-26.7-8.8 3.1 8.5 14.1 15.6 14.1 15.6l-10 41.8h19v-43.8c3 .4 6 .5 9.1.5 26.6.2 47-11.4 47-11.4l10.2 26.6s-8 3.4-6.8 3.2c24.4-3.9 31.2 24.8 31.2 24.8h14.1l.1-.4s.4-1.7.4-4.3c0-3.8-.8-9.5-4.8-14.4s-11.1-8.9-23.5-9.7l-13.3-50c.3-2.3.7-6.9.7-12.7 0-7.8-.7-17.8-3.5-27.7 6.8-2.2 24.3-8.5 40.2-20.1 8.1-5.9 15.9-13.2 21.6-22.1s9.4-19.3 9.4-31.3c0-5.2-.7-10.9-2.2-16.9z" fill="#f28a1c"/><path d="M169.444 170.582c.2-23.5-12.2-27.8-25.8-27.8-16.5 0-33.4 27.3-32.2 66.1.7 21.7 12.1 34.5 31.1 34s28-13.5 27.3-29.2z" fill="#fffcc8"/><path d="M265.344 90.382c-1.4-5.3-11.1-10.6-21.1-10.6-5.5 0-11.2 1.6-15.5 5.9-1.9 1.8-2 3.8-1.8 5.3.2-.1.3-.1.5-.1 0 0 1.3-.1 3.2-.1s4.4.1 7 .5c.2 0 .4.1.7.1.1-.6.3-1.4.7-2.2 1.5-3 5.8-4.1 6.2-3.3s-2.5 1.7-3.5 4.6c-.2.6-.4 1.1-.4 1.5 1.4.4 2.7.9 3.9 1.5 1.5.8 2.8 1.9 3.6 3.5 1 1.7 1.4 3.3 1.4 4.7 0 .5-.1.9-.2 1.3.2.1.6.3 1 .4.9.3 2 .7 3.1.6.8 0 1.5-.1 2.1-.5.6-.3 1.3-.9 1.8-1.9l.1-.1v-.2c0-1.9 1.6-4.8 4.6-4.7 0 0-1.6 2.4-1.6 4.7 0 1.4.4 3.6 3.7 4.5.8.2-2.7 2.3-5.6-.9-.5.5-1 .9-1.6 1.1-1.2.6-2.4.8-3.5.8-1.6 0-3.1-.4-4.2-.9-.6-.2-1-.4-1.3-.6-.6.6-1.2 1.1-1.9 1.4-1.6.8-3.1 1-3.2 1-.8.1-1.6-.5-1.7-1.3s.5-1.6 1.3-1.7h.1c.1 0 .2 0 .3-.1.3-.1.6-.1 1-.3.8-.3 1.6-.8 2.1-1.4.3-.4.5-.9.5-1.7s-.2-1.8-1-3.3c-.5-.9-1.3-1.6-2.5-2.3-1.1-.6-2.6-1.1-4.1-1.5-3.1-.7-6.6-.9-9-.9-1.6 0-2.7.1-3 .1-.3 0-.6 0-.8-.2-1.7 1.6-5.1 6.3 3 14.1 0 0-13.4 25.1-46.9 30.1-10 1.5-15.3 4.3-17.4 7.8-5.4-1.8-11.6-2.8-18.7-2.8-1.6 0-3.3.1-5 .2 0 0-5.5.1-12.8 2.9-2-3.6-7.3-6.6-17.6-8.1-33.5-5-46.9-30.1-46.9-30.1 8.7-8.3 4.2-13.2 2.7-14.4h-3.1c-1.8 0-4.2.1-6.6.4s-4.8 1-6.5 1.9c-1.2.6-2 1.4-2.5 2.3-.8 1.4-1 2.5-1 3.3 0 .7.2 1.2.5 1.6s.8.8 1.3 1.1c1 .6 2.2.8 2.3.8l1.6.3c.8.1-3.4 4-7 .3-.3.2-.8.4-1.3.6-1.1.4-2.5.8-4.2.9-1.1 0-2.4-.2-3.5-.8-.6-.3-1.1-.7-1.6-1.1-.8 1.2-5.1 3-5.4 2.3-.4-.7 0-1.6.7-2 2-.9 2.8-2.5 2.8-3.9 0-1-.4-1.9-1.3-2.6l-1.1-1c-.7-.5 4.3-1.8 5.4 3.6v.2l.1.1c.6 1 1.2 1.5 1.8 1.9.7.3 1.4.5 2.1.5 1.1 0 2.2-.3 3-.6.5-.2.8-.4 1.1-.5-.1-.4-.2-.9-.2-1.3 0-1.4.4-3 1.4-4.7.8-1.5 2.1-2.6 3.6-3.5 1.2-.7 2.5-1.2 3.9-1.5-.1-.4-.4-.9-.4-1.5-.2-2.3-3.6-4.6-4.4-4.7h-.1.1c.8-.2 4.5-.8 7.1 3.4.5.8.6 1.5.7 2.2 2.8-.5 5.6-.6 7.7-.6 1.9 0 3.2.1 3.2.1h.2c.1-1.4-.2-3.1-1.8-4.7-4.3-4.2-9.9-5.9-15.5-5.9-10 0-19.7 5.3-21.1 10.6-15.1 57.5 49.1 83.3 67 89.4 2.9-8.3 7.7-15.4 15.3-20.9 0 0-9.1 10.2-14.1 26.3-3.1 11.7-2 28.8-2 28.8.2 12.2 10 57.7 10 57.7-33.5 1.8-25.7 27.2-25.7 27.8h55.9v-41.2c-4.9-1-9.6-2.8-14.2-5.7 0 0 12.8 4.7 29.7 3.4v.1c2-.1 3.9-.4 5.9-.7 15.2-2.5 25.4-8.7 25.4-8.7-3.8 3.6-7.9 6.3-12.3 8.2l22.5 44.6h47.8s5.7-26-27.8-27.8l-13.4-50.5c.6-5.2 2-23.1-2.8-40.4-4.7-13.7-11.8-22.2-11.8-22.2 7.3 5.6 11.8 12.8 14.5 20.9 19-6.4 81.1-32.3 66.3-89z" fill="none"/><path d="M268.244 89.682c-1.8-7-12.8-12.8-24-12.8-7 0-13.1 2.3-17.6 6.7-2.9 2.8-3 6.2-2.5 8.6-1 1.2-2.1 2.9-2.4 5.4-.4 3.4 1.1 7 4.3 10.6-3.8 5.7-17.3 22.8-43.6 26.7-8.8 1.3-14.8 3.7-18.1 7.3-5.4-1.5-11.3-2.3-17.6-2.3-1.7 0-3.4.1-5.1.2-.7 0-5.3.2-11.5 2.3-3.3-3.7-9.3-6.2-18.3-7.5-26.3-3.9-39.8-21.1-43.6-26.7 3.2-3.6 4.7-7.2 4.3-10.6-.3-2.4-1.4-4.2-2.4-5.4.6-2.4.4-5.8-2.5-8.6-4.5-4.4-10.6-6.7-17.6-6.7-11.2 0-22.2 5.9-24 12.8-3.9 14.7-3 28.6 2.6 41.3 4.5 10.3 12.2 19.9 22.7 28.4 16 12.9 34.8 20.3 43.5 23.2-3.4 10.7-2.9 26.5-2.6 31.4v.1c.2 10.5 7.1 44.1 9.3 54.9-10 1.1-17.3 4.5-21.6 10.3-4.1 5.4-5.3 12.8-3.5 20.7l.2 2.6H138.344v-43.5c2.2.2 4.4.3 6.6.3 7.5 0 15.1-1 22.3-3l22.5 44.6.8 1.6H242.544l.5-2.4c.1-.5 2.4-11.3-4.5-20.3-4.9-6.4-12.9-10.1-23.9-11l-12.7-47.9c.6-5.4 1.6-20.5-1.8-36.2h.1l-.6-2.4c19.7-6.6 84.1-33.4 68.6-92.7zm-69.1 89.8c-2.7-8.2-7.2-15.3-14.5-20.9 0 0 7.1 8.6 11.8 22.2 4.9 17.4 3.4 35.2 2.8 40.4l13.4 50.5c33.5 1.8 27.8 27.8 27.8 27.8h-47.8l-22.5-44.6c4.4-1.9 8.6-4.6 12.3-8.2 0 0-10.3 6.2-25.4 8.7-1.9.3-3.9.5-5.9.7v-.1c-16.9 1.3-29.7-3.4-29.7-3.4 4.6 2.9 9.3 4.8 14.2 5.7v41.2h-55.9c0-.6-7.8-26 25.7-27.8 0 0-9.8-45.6-10-57.7 0 0-1.1-17.1 2-28.8 5-16.1 14.1-26.3 14.1-26.3-7.6 5.5-12.4 12.7-15.3 20.9-17.9-6-82-31.8-67-89.4 1.4-5.3 11.1-10.6 21.1-10.6 5.5 0 11.2 1.6 15.5 5.9 1.6 1.6 1.9 3.3 1.8 4.7h-.2s-1.3-.1-3.2-.1c-2.1 0-4.9.1-7.7.6-.1-.6-.2-1.4-.7-2.2-2.5-4.2-6.3-3.6-7.1-3.4.7.1 4.2 2.4 4.4 4.7.1.6.4 1.1.4 1.5-1.4.4-2.7.9-3.9 1.5-1.5.8-2.8 1.9-3.6 3.5-1 1.7-1.4 3.3-1.4 4.7 0 .5.1.9.2 1.3-.3.1-.6.3-1.1.5-.8.3-2 .6-3 .6-.8 0-1.5-.1-2.1-.5-.7-.3-1.3-.9-1.8-1.9l-.1-.1v-.2c-1.1-5.4-6.1-4.1-5.4-3.6l1.1 1c.9.7 1.3 1.6 1.3 2.6 0 1.4-.9 3-2.8 3.9-.7.4-1.1 1.3-.7 2s4.7-1.1 5.4-2.3c.5.5 1 .9 1.6 1.1 1.2.6 2.4.8 3.5.8 1.6 0 3.1-.4 4.2-.9.6-.2 1-.4 1.3-.6 3.6 3.7 7.8-.2 7-.3l-1.6-.3c-.1 0-1.2-.2-2.3-.8-.5-.3-1-.6-1.3-1.1-.3-.4-.5-.9-.5-1.6 0-.8.2-1.8 1-3.3.5-.9 1.3-1.6 2.5-2.3 1.7-1 4.1-1.6 6.5-1.9 2.4-.4 4.8-.4 6.6-.4H67.244c1.5 1.2 6 6.1-2.7 14.4 0 0 13.4 25.1 46.9 30.1 10.3 1.5 15.6 4.5 17.6 8.1 7.3-2.8 12.8-2.9 12.8-2.9 1.7-.1 3.4-.2 5-.2 7.1 0 13.3 1 18.7 2.8 2.1-3.5 7.4-6.3 17.4-7.8 33.5-5 46.9-30.1 46.9-30.1-8.1-7.8-4.7-12.5-3-14.1.2.1.5.2.8.2.2 0 1.4-.1 3-.1 2.4 0 5.9.2 9 .9 1.5.4 3 .9 4.1 1.5s2 1.4 2.5 2.3c.8 1.4 1 2.5 1 3.3 0 .7-.2 1.2-.5 1.7-.5.6-1.3 1.1-2.1 1.4-.4.1-.7.2-1 .3-.1 0-.2 0-.3.1h-.1c-.8.1-1.4.9-1.3 1.7s.9 1.4 1.7 1.3c.1 0 1.6-.2 3.2-1 .6-.3 1.3-.8 1.9-1.4.3.2.8.4 1.3.6 1.1.4 2.5.8 4.2.9 1.1 0 2.4-.2 3.5-.8.6-.3 1.1-.7 1.6-1.1 2.9 3.1 6.4 1.1 5.6.9-3.3-.9-3.7-3.1-3.7-4.5-.1-2.3 1.6-4.7 1.6-4.7-3-.1-4.6 2.9-4.6 4.7v.2l-.1.1c-.6 1-1.2 1.5-1.8 1.9-.7.3-1.4.5-2.1.5-1.1 0-2.3-.3-3.1-.6-.4-.2-.8-.3-1-.4.1-.4.2-.9.2-1.3 0-1.4-.4-3-1.4-4.7-.8-1.5-2.1-2.6-3.6-3.5-1.2-.7-2.5-1.2-3.9-1.5.1-.4.2-.9.4-1.5 1-2.9 3.8-3.9 3.5-4.6-.4-.7-4.7.3-6.2 3.3-.4.8-.6 1.5-.7 2.2-.2 0-.4-.1-.7-.1-2.6-.4-5.1-.5-7-.5s-3.2.1-3.2.1c-.2 0-.4.1-.5.1-.2-1.5-.1-3.5 1.8-5.3 4.3-4.2 9.9-5.9 15.5-5.9 10 0 19.7 5.3 21.1 10.6 14.7 56.6-47.4 82.5-66.3 89z" fill="#740806"/><path d="M48.444 85.282h.1c0-.1-.1 0-.1 0z" fill="#14437e"/></g><g><path d="M207.509 79.19c28.884-21.404 13.894-49.641 13.894-49.641l-36.679 13.959c-20.21-12.156-38.862-11.997-52.565-8.727l-30.363-25.77s-23.635 21.698-3.35 51.594c-9.668 14.52-22.185 34.405-21.39 38.913.606 3.438 2.853 4.388 5.48 3.291-1.179 3.616-1.528 7.251.061 10.062 1.544 2.73 3.665 3.124 5.611 1.791 8.726 18.375 47.563 38.697 47.563 38.697s47.414-2.01 63.674-18.91c1.354 1.137 3.167 1.087 5.143-.633 2.436-2.119 3.319-5.662 3.413-9.465 2.111 1.911 4.546 1.765 6.264-1.274 1.617-2.861-2.889-25.899-6.756-43.887z" fill="#fbb807"/><path d="m221.403 29.55-36.679 13.959a80.91 80.91 0 0 0-6.629-3.571c-.731-1.168-2.778-3.035-8.43-3.449a69.636 69.636 0 0 0-7.01-1.982 185.04 185.04 0 0 0 3.914 2.584c-6.724 4.903-10.891 17.699-10.891 17.699L175.5 42.723c3.785 2.347 6.762 4.156 6.762 4.156s15.028 15.254 14.51 52.705c18.598 8.725 18.21 21.385 17.563 23.32 1.393-3.463-3.023-26.024-6.826-43.713 28.884-21.405 13.894-49.641 13.894-49.641z" fill="#f28a1c"/><path d="M196.772 99.583c-8.647-4.056-21.394-7.262-40.134-8.141 0 0 3.285-23.988-7.137-25.777S133.69 87.543 133.69 87.543C94.778 76.16 75.77 92.229 77.056 99.518c.606 3.438 2.853 4.388 5.48 3.291-1.179 3.616-1.528 7.251.061 10.062 1.544 2.73 3.665 3.124 5.611 1.791 17.277 30.785 47.563 38.697 47.563 38.697s43.938 2.12 63.674-18.91c1.354 1.137 3.167 1.087 5.143-.633 2.436-2.119 3.319-5.662 3.413-9.465 2.111 1.911 4.546 1.765 6.264-1.274.023-.041.047-.102.071-.173.646-1.936 1.034-14.596-17.564-23.321z" fill="#fffcc8"/><path d="M199.324 100.866s5.12 5.335 5.039 10.022c-.115 6.593-6.927 2.427-6.927 2.427 11.585 19.996-7.595 12.835-7.595 12.835-12.478 24.703-55.025 21.909-55.025 21.909s-22.078-5.889-45.749-31.937c17.4 29.561 46.704 37.235 46.704 37.235s43.938 2.12 63.674-18.91c1.354 1.137 3.167 1.087 5.143-.633 2.436-2.119 3.319-5.662 3.413-9.465 2.111 1.911 4.546 1.765 6.264-1.274.632-1.117 1.683-13.244-14.941-22.209z" fill="#e5ba97"/><path d="M205.221 74.941s-3.395-12.879-10.674-22.085l25.173-14.554c-.001 0 6.778 23.295-14.499 36.639zM100.288 19.166c-2.542 4.758-11.198 21.29 2.158 38.128 0 0 4.876-7.753 10.106-12.907z" fill="#fffcc8"/><path d="M144.921 52.673s-8.602-11.513-6.121-19.465l8.52-.828c-2.064 5.704-2.399 20.293-2.399 20.293z" fill="#f28a1c"/><path d="M223.067 63.371c2.785-5.784 3.726-11.471 3.725-16.48-.009-10.407-4.004-17.918-4.064-18.044l-.621-1.169-37.249 14.177c-13.191-7.783-25.788-10.47-36.777-10.467-5.64 0-10.851.705-15.522 1.768L101.756 7.012l-.975.896c-.071.067-3.055 2.813-6.052 7.712-2.992 4.896-6.005 11.973-6.006 20.639-.005 7.205 2.114 15.473 7.926 24.343-4.433 6.676-9.384 14.365-13.376 21.184-2.078 3.551-3.894 6.861-5.246 9.686-.676 1.414-1.237 2.706-1.657 3.861-.417 1.152-.701 2.158-.806 3.082h-.001l-.001.008-.001.009h.001a4.752 4.752 0 0 0-.035.519h-.001v.024l-.001.1c0 .216.01.444.055.702v.001c.261 1.478.806 2.713 1.694 3.611.854.874 2.028 1.324 3.195 1.342-.27 1.227-.442 2.458-.443 3.674-.001 1.807.358 3.598 1.265 5.203.574 1.014 1.255 1.826 2.065 2.403.805.577 1.755.894 2.701.89a4.74 4.74 0 0 0 1.417-.231c2.673 5.774 6.738 10.922 11.388 15.423 7.555 7.307 16.626 12.948 23.82 16.787 7.194 3.837 12.513 5.864 12.555 5.88l.227.086.243.01c.019.001 1.188.051 3.217.051 5.395-.001 16.856-.348 28.939-2.924 6.042-1.29 12.242-3.137 17.926-5.803 5.286-2.48 10.122-5.685 13.942-9.825a4.434 4.434 0 0 0 1.741.363c1.428-.003 2.817-.653 4.101-1.771 1.466-1.276 2.426-2.949 3.024-4.762.35-1.062.571-2.181.714-3.324.48.158.982.248 1.493.248.946.004 1.897-.313 2.702-.89.81-.577 1.491-1.389 2.065-2.403.271-.495.361-.945.436-1.451.069-.504.096-1.06.096-1.689-.002-1.87-.246-4.406-.656-7.454-1.199-8.882-3.837-22.044-6.272-33.414 6.813-5.217 11.211-10.862 13.892-16.437zm-16.451 14.614-.777.576.203.945c1.654 7.693 3.425 16.311 4.779 23.858.677 3.773 1.25 7.279 1.652 10.258.403 2.976.631 5.441.629 7.053 0 .537-.026.977-.068 1.28a2.595 2.595 0 0 1-.065.336l-.019.061c-.407.717-.825 1.168-1.182 1.421-.365.254-.653.332-.965.336-.234 0-.494-.053-.798-.19a3.906 3.906 0 0 1-.998-.68l-2.425-2.195-.081 3.27c-.044 1.797-.278 3.496-.753 4.93-.477 1.439-1.176 2.597-2.145 3.44-.93.808-1.654 1.037-2.131 1.035-.38-.006-.689-.115-1.063-.419l-1.139-.956-.966 1.13c-3.571 4.181-8.381 7.455-13.789 9.991-8.109 3.807-17.54 5.935-25.923 7.091a147.76 147.76 0 0 1-19.668 1.352c-.99 0-1.767-.012-2.294-.024-.239-.005-.418-.011-.551-.015-1.457-.573-10.541-4.255-20.492-10.592-5.117-3.257-10.455-7.213-15.089-11.78-4.636-4.567-8.559-9.74-10.903-15.409l-.707-1.709-1.526 1.045c-.517.353-.951.478-1.303.477-.312-.004-.6-.083-.964-.336-.36-.254-.78-.707-1.19-1.433-.6-1.061-.876-2.306-.877-3.726-.002-1.57.349-3.335.937-5.132l1.014-3.109-3.018 1.26c-.539.225-1.008.318-1.377.317-.529-.012-.844-.142-1.18-.466-.33-.328-.681-.955-.868-2.018a1.305 1.305 0 0 1-.01-.182l.001-.064v-.024c0-.044.005-.116.017-.214l.001-.009.001-.008c.055-.531.271-1.375.645-2.397.653-1.797 1.769-4.163 3.195-6.852 4.282-8.082 11.341-19.106 17.31-28.068l.559-.839-.566-.834c-5.94-8.763-7.959-16.674-7.963-23.506-.001-7.956 2.772-14.503 5.566-19.074a40.135 40.135 0 0 1 3.833-5.272c.286-.331.541-.613.765-.855l29.88 25.359.739-.176a67.057 67.057 0 0 1 15.574-1.855c10.676.003 22.908 2.615 35.87 10.408l.625.376 36.058-13.723c1.037 2.399 3.164 8.214 3.158 15.443-.001 4.64-.865 9.852-3.428 15.18-2.568 5.325-6.837 10.788-13.75 15.913z" fill="#740806"/><path d="M145.96 36.254s-2.139-.271-3.525.788c-1.239.947-2.473 4.74 1.705 5.855 5.355 1.43 16.651-2.646 16.469-7.983-.533-.457-16.838-16.448-20.958-9.975-1.437 2.257-.785 5.235.748 7.225 2.081 2.704 5.561 4.09 5.561 4.09z" fill="#fbb807"/><path d="M154.978 41.204c-3.297 1.547-7.35 2.324-10.168 1.84a7.613 7.613 0 0 1-.671-.146c-4.178-1.115-2.944-4.908-1.705-5.855 1.387-1.06 3.525-.788 3.525-.788s-3.481-1.387-5.562-4.089c-1.532-1.99-2.184-4.968-.748-7.226.879-1.38 2.313-1.739 4.028-1.445 6.33 1.087 16.493 11.799 16.913 12.159 0 0 2.797.251 2.76-.832l-.042-1.206-.916-.785-.175-.167c-5.212-4.896-12.579-10.93-18.076-11.874-4.004-.688-5.983 1.382-6.808 2.676-2.219 3.486-1.151 7.722.889 10.373a13.575 13.575 0 0 0 1.719 1.833c-1.031 1.266-1.722 3.219-1.324 5.22.449 2.263 2.203 3.961 4.813 4.658.292.078.599.145.914.199 3.665.628 10.905-3.639 10.634-4.545z" fill="#740806"/><path d="M137.361 76.097c.069-.535.111-1.064.148-1.592.664-9.598-3.856-17.782-10.542-18.638-7.051-.902-13.835 6.693-15.149 16.963-1.044 8.18 1.7 15.574 6.421 18.708 1.206.801 2.537 1.338 3.973 1.522.44.056.878.079 1.313.071 6.563-.125 12.603-7.404 13.836-17.034z" fill="#fff"/><path d="M164.769 55.817c6.862-4.245 15.991-3.544 21.85 3.421a24.52 24.52 0 0 1 3.221 4.935c.416.844 1.556.388 1.431-.573-.734-5.67-3.147-14.132-10.916-16.739-7.122-2.39-13.083 3.15-16.524 7.589-.574.74.175 1.839.938 1.367zM117.229 49.508a20.663 20.663 0 0 1 4.133-2.792c6.79-3.452 13.678-.625 17.122 5.356.383.665 1.326.055 1.178-.758-.889-4.866-3.208-11.559-9.251-12.275-6.591-.781-11.42 5.162-14.014 9.472-.44.732.223 1.525.832.997z" fill="#740806"/><path d="M187.123 81.772c1.546-11.402-4.229-21.603-12.905-22.777-8.673-1.177-16.958 7.112-18.508 18.514a27.153 27.153 0 0 0-.235 4.471 25.69 25.69 0 0 1 .187-1.93c1.427-10.496 9.052-18.125 17.036-17.042 7.986 1.083 13.302 10.471 11.878 20.965-.95 7.001-4.668 12.709-9.404 15.424 3.333-1.369 6.314-4.078 8.498-7.677 1.72-2.839 2.947-6.226 3.453-9.948z" fill="#740806"/><path d="M184.575 83.972c1.423-10.494-3.893-19.882-11.878-20.965-7.983-1.083-15.609 6.546-17.036 17.042a25.69 25.69 0 0 0-.187 1.93c-.299 5.101.989 9.817 3.365 13.295 2.138 3.129 5.154 5.256 8.702 5.739 2.657.36 5.268-.263 7.629-1.617 4.737-2.715 8.455-8.423 9.405-15.424z" fill="#fff"/><g fill="#740806"><path d="M111.817 72.83c1.314-10.27 8.099-17.866 15.149-16.963 6.687.855 11.206 9.04 10.542 18.638l.034-.209c1.408-11.011-3.582-20.722-11.143-21.689-7.563-.967-14.834 7.177-16.243 18.188-.745 5.824.312 11.268 2.581 15.264 1.408 2.48 3.283 4.393 5.5 5.48-4.72-3.134-7.465-10.529-6.42-18.709zM157.894 79.993c-.695 1.046.409 2.308 1.593 1.889 3.874-1.464 10.681-2.828 15.243 2.975.791 1.008 2.366.491 2.337-.79-.134-3.208-2.058-7.424-7.934-8.827-5.973-1.463-10.563 3.628-11.239 4.753z"/><path d="M116.434 73.289c-.596 1.106.621 2.261 1.76 1.733 3.722-1.816 10.374-3.803 15.453 1.552.881.93 2.401.27 2.255-1.003-.431-3.182-2.735-7.202-8.716-8.055-6.083-.903-10.183 4.591-10.752 5.773zM169.179 113.628c1.157-.688 2.164-1.488 2.953-2.45.797-.959 1.368-2.101 1.575-3.352a6.933 6.933 0 0 0-.028-2.32c4.132.583 8.28.214 7.717-1.146-3.82-.394-6.917-1.145-9.273-1.91a1.845 1.845 0 0 0-.51-.17 30.48 30.48 0 0 1-3.776-1.553c-1.081-.541-2.19.716-1.491 1.701.569.803 1.713 1.568 3.177 2.104.028.116.066.23.118.341.442.979.519 1.721.422 2.349-.098.545-1.73 2.564-2.451 3.032-1.271.818-3.034 1.551-5.135 2.131-3.146.87-7.039 1.563-11.179 1.547-17.678-.07-10.844-10.202-13.184-10.404-2.201-.191-3.029 8.248-11.723 6.475-3.207-1.139-3.61-1.666-5.872-3.207-2.072-1.399-3.644-2.915-4.58-4.343-.467-.713-.784-1.403-.953-2.043a4.391 4.391 0 0 1-.099-1.845c.126-.727.445-1.48 1.086-2.297l.072-.124.086.004c1.552.027 2.887-.3 3.66-.858.867-.626.296-1.996-.762-1.852-1.982.27-6.36.556-12.396-.833-.8.911 2.069 2.269 5.397 3.012a8.14 8.14 0 0 0-.789 2.344 8.055 8.055 0 0 0 .174 3.387c.505 1.919 1.637 3.68 3.156 5.28 1.579 1.659-7.378 27.653 21.104 32.379 28.483 4.726 31.192-24.008 33.504-25.379z"/></g><path d="M116.075 88.496c.292-1.758-3.667-3.879-8.843-4.738-5.177-.859-9.609-.13-9.901 1.628-.292 1.757 3.667 3.879 8.844 4.738 5.175.858 9.608.129 9.9-1.628zM193.081 101.275c.292-1.758-3.668-3.879-8.843-4.738-5.176-.859-9.609-.13-9.9 1.628-.292 1.757 3.667 3.879 8.844 4.738 5.175.859 9.607.13 9.899-1.628zM125.871 123.459a7.9 7.9 0 0 1 1.091-1.218c3.284-3.016 11.457-3.353 18.778 2.207 1.33-.375 3.123-.47 5.055-.194 3.806.544 6.7 2.317 6.464 3.963-.21 1.469-2.847 2.334-6.119 2.115a12.751 12.751 0 0 1-.994-.097l-.203-.024-.143-.023-.051-.009a18.49 18.49 0 0 1-1.159-.222l-.057-.013c-1.58-.359-3.604-1.038-5.532-2.334-1.048.733-2.969 3.154-4.162 4.536-.29.336-.582.687-.879 1.068-4.677 4.868-17.077-2.763-12.089-9.755zM139.906 92.528c-29.724-5.104-9.567 11.361-2.169 12.631 7.399 1.271 31.893-7.527 2.169-12.631z" fill="#e93e8f"/><path d="M135.372 95.008c-.634-.44-1.547-.802-2.594-.982-1.351-.232-2.592-.103-3.355.28-.427.214-.707.507-.768.864-.17.993 1.399 2.091 3.505 2.453s3.953-.15 4.123-1.143c.087-.5-.269-1.026-.911-1.472z" fill="#fff"/></g></svg>