<svg id="Layer_1" height="512" viewBox="0 0 150 150" width="512" xmlns="http://www.w3.org/2000/svg" data-name="Layer 1"><path d="m42.4 106.526c-1.758 0-3.223-14.5-3.223-14.5 6.886-2.93 9.67-12.936 9.67-12.936-8.036-7.574-13.463-.9-17.875 11.324-.879 8.5 4.395 18.168 5.421 20.8s4.395 2.637 6.446 2.637 4.982-1.465 4.835-3.663-3.514-3.662-5.274-3.662z" fill="#f5d8af"/><path d="m42.842 114.851c-2.134 0-6.1 0-7.379-3.274-.159-.409-.423-.989-.749-1.71-1.786-3.943-5.5-12.146-4.735-19.56a1.072 1.072 0 0 1 .054-.237c3.346-9.269 6.8-14.038 10.877-15.011 2.712-.651 5.615.462 8.624 3.3a1 1 0 0 1 .278 1c-.116.414-2.816 9.875-9.565 13.274.594 5.548 1.643 11.715 2.441 12.91 2.1.139 5.8 1.747 5.986 4.586a3.6 3.6 0 0 1 -1.048 2.729 7.019 7.019 0 0 1 -4.784 1.993zm-10.885-24.219c-.658 6.848 2.875 14.649 4.578 18.409.346.764.624 1.379.792 1.811.718 1.845 3.118 2 5.515 2a5.022 5.022 0 0 0 3.323-1.366 1.636 1.636 0 0 0 .514-1.23c-.1-1.494-2.893-2.729-4.277-2.729-.8 0-2.663 0-4.219-15.4a1 1 0 0 1 .6-1.02c5.456-2.326 8.217-9.607 8.917-11.714-2.33-2.064-4.4-2.851-6.326-2.393-3.298.791-6.374 5.249-9.417 13.632z" fill="#4d4d4d"/><path d="m86.164 53.811-5.612 4.231a26.6 26.6 0 0 0 -11.333-1.742s-16.443-14.773-23.595-17.311-16.611-.923-23.532 11.305-2.537 19.155-1.845 24.227 3.922 10.839.692 14.761-5.306 7.152-1.154 17.533 4.153 6.229 4.845 9.228 6 4.845 9 3.922 6.459-5.536 3.46-6.921a19.148 19.148 0 0 0 -5.767-1.615s-7.152-9.92-3.922-15.457c0 0 13.15-12 15.457-19.148 0 0 11.18 25.218 45.324 21.527 0 0 17.3 12.458 28.607 14.765s15.919-.462 15.457-5.076c0 0 4.845-2.307 1.615-5.536s-10.381-1.385-10.381-1.385-18.886-7.757-24.192-17.908" fill="#f5d8af"/><path d="m98.742 83.107 10.034-10.855-8.93-27.9-13.682 9.459-.54.408a39.123 39.123 0 0 1 -5.072 3.823s-5.212-4.026-11.333-1.742c0 0-16.443-14.768-23.595-17.306s-16.611-.923-23.532 11.305-2.537 19.155-1.845 24.227 3.922 10.839.692 14.761-5.306 7.152-1.154 17.533 4.153 6.229 4.845 9.228 6 4.845 9 3.922 6.459-5.536 3.46-6.921a19.148 19.148 0 0 0 -5.767-1.615s-7.152-9.92-3.922-15.457c0 0 13.15-12 15.457-19.148 0 0 11.18 25.218 45.324 21.527 0 0 17.3 12.458 28.607 14.765s15.919-.462 15.457-5.076c0 0 4.845-2.307 1.615-5.536s-10.381-1.385-10.381-1.385-19.43-7.861-24.736-18.012" fill="#f5d8af"/><path d="m31.883 121.2a10.957 10.957 0 0 1 -5.268-1.414 5.717 5.717 0 0 1 -2.959-3.517c-.179-.773-.234-.817-.382-.936-.679-.544-1.705-1.367-4.417-8.145-4.245-10.614-2.238-14.233 1.31-18.54 1.99-2.417 1.075-5.837.106-9.457a37.566 37.566 0 0 1 -1.017-4.533 28.176 28.176 0 0 0 -.721-3.2c-1.283-4.869-3.041-11.538 2.687-21.658 6.06-10.707 15.306-15.1 24.737-11.754 6.677 2.369 20.764 14.693 23.489 17.112a13.442 13.442 0 0 1 11.111 1.675 36.678 36.678 0 0 0 4.372-3.333 1.106 1.106 0 0 1 .09-.077l.54-.408 13.717-9.488a1 1 0 0 1 1.521.517l8.93 27.905a1 1 0 0 1 -.219.983l-9.543 10.322c5.141 8.765 21.235 15.82 23.6 16.818 1.536-.34 7.8-1.482 11 1.724a3.9 3.9 0 0 1 1.356 3.487 5.381 5.381 0 0 1 -2.646 3.33 5.4 5.4 0 0 1 -1.785 4.174c-2.57 2.322-7.723 2.775-14.9 1.308-10.681-2.179-26.212-12.962-28.679-14.71-17.773 1.824-29.285-4.228-35.832-9.642a40.664 40.664 0 0 1 -9.118-10.59c-3.518 6.966-13.485 16.264-14.771 17.447-2.123 3.931 1.723 11.019 3.69 13.888a20.561 20.561 0 0 1 5.625 1.647 2.8 2.8 0 0 1 1.726 2.838c-.166 2.48-2.992 5.233-5.311 5.947a6.982 6.982 0 0 1 -2.039.28zm7.854-82.231c-4.872 0-11.352 2.238-16.774 11.818-5.327 9.412-3.756 15.373-2.494 20.163a29.846 29.846 0 0 1 .769 3.437 36.067 36.067 0 0 0 .967 4.286c1.057 3.95 2.15 8.035-.494 11.246-2.861 3.474-5.12 6.217-1 16.527 2.516 6.289 3.423 7.016 3.811 7.327a2.973 2.973 0 0 1 1.08 2.047 3.872 3.872 0 0 0 2.009 2.233 8.033 8.033 0 0 0 5.72.957c1.764-.543 3.807-2.724 3.9-4.169a.8.8 0 0 0 -.569-.887 18.372 18.372 0 0 0 -5.433-1.528 1 1 0 0 1 -.727-.411c-.307-.427-7.491-10.517-3.974-16.546a.975.975 0 0 1 .19-.234c.129-.119 12.98-11.9 15.179-18.716a1 1 0 0 1 1.865-.1c.11.246 11.323 24.507 44.3 20.939a1 1 0 0 1 .692.182c.171.123 17.26 12.36 28.222 14.6 8.687 1.773 11.976.238 13.164-.834a3.546 3.546 0 0 0 1.1-3.162 1 1 0 0 1 .566-1c.5-.239 1.961-1.16 2.137-2.2a2.075 2.075 0 0 0 -.8-1.73c-2.785-2.785-9.36-1.14-9.425-1.122a1.017 1.017 0 0 1 -.624-.042c-.807-.326-19.833-8.119-25.247-18.476a1 1 0 0 1 .152-1.142l9.647-10.432-8.341-26.063-13.033 9.046a41.281 41.281 0 0 1 -5.172 3.893 1 1 0 0 1 -1.163-.043c-.047-.035-4.867-3.652-10.373-1.6a1 1 0 0 1 -1.017-.194c-.163-.146-16.377-14.664-23.261-17.106a16.763 16.763 0 0 0 -5.549-.965z" fill="#4d4d4d"/><path d="m92.507 87.665s17.439 17.567 29.5 18.3 10.232 2.078 10.232 2.078" fill="#f5d8af"/><path d="m132.245 109.04a1 1 0 0 1 -.99-.85c-.666-.267-2.8-.836-9.3-1.23-12.309-.745-29.435-17.86-30.155-18.591a1 1 0 1 1 1.419-1.409c.172.173 17.311 17.305 28.856 18 10.665.646 11 1.781 11.221 2.531a1.247 1.247 0 0 1 -.456 1.351 1 1 0 0 1 -.595.198z" fill="#4d4d4d"/><path d="m36.8 41.752a10.338 10.338 0 0 0 -2.988-10.013c-2.074-1.828-6.616-2.072-9.374-1.891a12.471 12.471 0 0 0 -6.98 2.505c-2.964 2.365-4.349 6.287-4.45 10.077a19.019 19.019 0 0 0 23.792 18.911c-1.973-2.589-5.265-3.734-7.89-5.658a15.69 15.69 0 0 1 -6.165-14.275c.185-1.5.786-3.19 2.218-3.673 1.764-.595 3.525 1.078 4.175 2.822s.564 2.063.854 5.015" fill="#f5d8af"/><path d="m32.157 62.925a19.97 19.97 0 0 1 -20.149-20.525c.12-4.533 1.878-8.481 4.825-10.832a13.371 13.371 0 0 1 7.539-2.722c1.192-.079 7.282-.345 10.1 2.139 2.08 1.832 4.672 6.285 3.287 11.042a1 1 0 0 1 -1.92-.559 9.339 9.339 0 0 0 -2.689-8.983c-1.615-1.422-5.507-1.851-8.647-1.643a11.544 11.544 0 0 0 -6.422 2.288c-2.485 1.984-3.97 5.381-4.074 9.322a18.012 18.012 0 0 0 20.839 18.271 22.444 22.444 0 0 0 -3.562-2.368 32.952 32.952 0 0 1 -2.966-1.865 16.6 16.6 0 0 1 -6.567-15.2c.293-2.373 1.32-3.97 2.891-4.5 2.313-.776 4.577 1.127 5.431 3.42a11.632 11.632 0 0 1 .784 3.872c.035.391.075.847.129 1.395a1 1 0 1 1 -1.99.2c-.055-.554-.1-1.016-.132-1.413a9.626 9.626 0 0 0 -.665-3.349c-.5-1.348-1.821-2.59-2.918-2.225-1.124.379-1.455 2.118-1.544 2.849a14.768 14.768 0 0 0 5.763 13.337 30.625 30.625 0 0 0 2.786 1.748 16.929 16.929 0 0 1 5.307 4.111 1 1 0 0 1 -.544 1.574 19.49 19.49 0 0 1 -4.892.616z" fill="#4d4d4d"/><path d="m89.8 59.243s5.464-9.625 10.045-14.9 11.74-1.978 11.74-1.978a55.345 55.345 0 0 1 6.66 2.29c2.289.978 4.393 2.185 4.846 3.426 1.082 2.946 1.7 4.555 1.7 4.555s8.313 1.594 10.907 3.306c1.337.879.415 3.04-1.257 5.162a18.8 18.8 0 0 1 -5.441 4.777c-3.345 1.673-10.317-.132-10.317-.132s7 4.408 10.243 5.07a.483.483 0 0 1 .112.913c-2.615 1.228-9.707 1.771-14.192-.035 0 0-.956 2.937-6.9 6.431z" fill="#f5d8af"/><path d="m134.445 61.106c1.672-2.122 2.594-4.283 1.257-5.162-1.516-1-4.986-1.96-7.607-2.586a6.417 6.417 0 0 1 -4.537-4.015q-.216-.582-.465-1.26c-.453-1.241-.735-1.589-3.024-2.567a9.322 9.322 0 0 0 .2 5.9 10.171 10.171 0 0 0 4.415 4.938 11.494 11.494 0 0 1 3.404 2.646c1.494 1.723 3.939 3.714 6.357 2.106z" fill="#f2f2f2"/><g fill="#4d4d4d"><path d="m131.894 55.673.421-.624c.859-1.273 3.106-1.22 4.293.229a2.459 2.459 0 0 1 .168 2.377 1.855 1.855 0 0 1 -1.785 1.206l-1.117-.027c-1.681-.034-2.839-1.887-1.98-3.161z"/><path d="m135.04 59.862h-.072l-1.117-.027a3.359 3.359 0 0 1 -2.9-1.823 2.806 2.806 0 0 1 .116-2.9l.422-.624a3.182 3.182 0 0 1 2.544-1.346 4.134 4.134 0 0 1 3.351 1.5 3.476 3.476 0 0 1 .313 3.407 2.845 2.845 0 0 1 -2.657 1.813zm-2.317-3.63a.842.842 0 0 0 0 .861 1.382 1.382 0 0 0 1.172.741l1.117.027a.845.845 0 0 0 .843-.6 1.462 1.462 0 0 0 -.061-1.4 2.071 2.071 0 0 0 -1.673-.721 1.216 1.216 0 0 0 -.98.466z"/><path d="m107.948 79.131a1 1 0 0 1 -.508-1.861c5.443-3.2 6.451-5.873 6.461-5.9a1.022 1.022 0 0 1 .535-.581 1 1 0 0 1 .785-.022c3.6 1.456 9.013 1.347 11.957.581a62.312 62.312 0 0 1 -9.028-4.748 1 1 0 0 1 .784-1.814c1.84.475 7.158 1.436 9.621.207 2.575-1.285 6.663-5.648 6.786-7.716.022-.358-.1-.44-.186-.493a27.844 27.844 0 0 0 -7.209-2.428 7.575 7.575 0 0 1 -5.355-4.743l-.437-1.185c-.622-1.694-6.7-4-10.822-5.089a1.016 1.016 0 0 1 -.16-.057c-.265-.12-6.549-2.905-10.571 1.724-4.46 5.136-9.875 14.639-9.929 14.735a1 1 0 0 1 -1.74-.989c.225-.4 5.568-9.77 10.16-15.056 4.719-5.434 11.931-2.646 12.823-2.272 1.978.53 10.93 3.084 12.116 6.315l.436 1.179a5.581 5.581 0 0 0 3.945 3.493c3.9.935 6.537 1.843 7.842 2.7a2.441 2.441 0 0 1 1.084 2.284c-.182 3.045-4.975 7.932-7.889 9.386a11.794 11.794 0 0 1 -5.684.768 25.181 25.181 0 0 0 5.118 2.241 1.591 1.591 0 0 1 1.216 1.392 1.56 1.56 0 0 1 -.92 1.591c-2.859 1.3-9.394 1.6-13.835.167-.738 1.231-2.568 3.512-6.89 6.056a1 1 0 0 1 -.506.135z"/></g><path d="m108.8 55.432c-.007 3.4-.618 7.016.954 10.028 1.07 2.05 3.008 3.5 4.381 5.355s2.076 4.658.528 6.376c-1.645 1.826-3.9 3.62-7.747 1.428-6.5-3.7-12.784-6.584-15.585-11.689s-3.685-8.516-.563-13.431c1.055-1.662 6.394-6.814 8.244-7.484 5.895-2.134 9.801 4.461 9.788 9.417z" fill="#f5d8af"/><g fill="#4d4d4d"><path d="m110.221 80.617a7.658 7.658 0 0 1 -3.8-1.129c-.936-.534-1.868-1.049-2.784-1.558-5.476-3.033-10.648-5.9-13.183-10.52-2.984-5.438-3.885-9.166-.53-14.448 1.07-1.684 6.59-7.105 8.748-7.887a6.89 6.89 0 0 1 6.557.824 12.143 12.143 0 0 1 4.571 9.535c0 .747-.031 1.505-.062 2.264-.106 2.661-.207 5.174.9 7.3a14.2 14.2 0 0 0 2.4 3.039 23.887 23.887 0 0 1 1.9 2.185c1.594 2.159 2.42 5.471.465 7.639a7.033 7.033 0 0 1 -5.182 2.756zm-8.968-34.017a5.566 5.566 0 0 0 -1.9.353c-1.493.541-6.687 5.42-7.741 7.08-2.853 4.492-2.122 7.46.6 12.413 2.256 4.115 6.956 6.718 12.4 9.733.923.512 1.862 1.031 2.805 1.568 2.972 1.7 4.694.786 6.509-1.227 1.149-1.277.574-3.538-.589-5.113a21.95 21.95 0 0 0 -1.745-2 15.916 15.916 0 0 1 -2.718-3.486c-1.356-2.6-1.24-5.5-1.128-8.3.029-.734.058-1.466.06-2.188.005-2.62-1.272-6.173-3.722-7.9a4.834 4.834 0 0 0 -2.831-.933z"/><path d="m116.114 54.441-2.115.592"/><path d="m114 56.034a1 1 0 0 1 -.27-1.963l2.115-.593a1 1 0 0 1 .54 1.926l-2.116.596a.972.972 0 0 1 -.269.034z"/></g></svg>