<svg id="Layer_3" enable-background="new 0 0 1000 1000" height="1000" viewBox="0 0 1000 1000" width="1000" xmlns="http://www.w3.org/2000/svg"><g><path d="m988.5 476c-7.5 114.4-123 172.3-123 172.3l-4.4-48.1c100.5-185.9-3.4-292.1-54.9-354.3s-2.5-67.9-2.5-67.9c163.4 30.1 192.3 183.6 184.8 298zm-836.4 128.3-11.4-30.8s-63.1 125.4-72 139.6-41.8 46.2-53.4 55.1-.6 24.6 13.3 28.5c16.9 4.6 75.5 6.9 84 .9 9.5-6.6 54.7-45.4 57.4-53.4 0 0-29.9-40-31.8-42.5-1.8-2.4 13.9-97.4 13.9-97.4z" fill="#fea142"/><path d="m597.3 787.9s-123.3 65.4-189.9 40.2c0 0-54.1-19.2 3.8-54.7s57.9-35.5 57.9-35.5l7.5-30.5-12.6-25.1c-123.3-177.3-311.9-78-311.9-78s-52.1-134 48.2-259c-.7.8-1.1 1.2-1.1 1.2s5-109.4 72.9-178c1 3 10.9-8.7 70.4 92.4-30.7-4.2-66.1 16.7-94 38.8 70.5-49 157.4-47.8 223.1-26.3 445.1-126.9 383.5 306.9 383.5 306.9 56.7 293.1-257.8 207.6-257.8 207.6z" fill="#fec55a"/><path d="m549.2 651.1c-11.7 35.4-85.2 31.1-85.2 31.1l-13.2-20.8s14.5-33.3 45-24.2c0 0 27.4-25.8 40.2-16.3 12.9 9.5 16.1 18 13.2 30.2zm-87.4-37.4c6.3-8.2-5-21.4-5-21.4-16.3 3.5-19.5 22.3-16 26.1 3.4 3.8 14.7 3.5 21-4.7zm-290.8-48.4c.9-12.3-28-31.8-28-31.8-11 8.5 9.1 70.7 9.1 70.7l37.7-17.6c0 .1-19.8-9-18.8-21.3zm68.5-13.5c-16.3-3.1-23 28.6-23 28.6l34.9-6.6c.1 0 4.5-18.9-11.9-22z" fill="#f45175"/><path d="m305.8 343.5c-17.2 34-24.7 65.6-34.8 65.3-10.1-1.9-15.1-.6-5-40.9 10.1-40.2 53.5-100 53.5-100l54.7-6.1c-20.1 2.9-48.5 42.5-68.4 81.7zm68.3-81.8 1.3-.1c-.5 0-.9.1-1.3.1zm54.7 4.9s-67.3 72.3-88 156.6c-20.8 84.3 3.1 81.1 8.2 81.7 5 .6 9.4-9.4 23.3-72.9 13.8-63.5 99.4-158.5 99.4-158.5zm228.3 126.4s32.6 48.3 32.7 95c.1 42.2 14.5 35.8 20.8 26.4s1.3-96.2-37.1-152.2zm122.6-84.3-84.9-50.9s84.9 103.8 82.4 176.1c-2.4 69 8.8 65.4 15.1 65.4s27-47.2-12.6-190.6zm-274.2-25.1 15.1 14.5.3.2-.3-.2c-.3-.7-51 71.4-64.8 97.5-12.1 23 4.8 27.6 9.4 25.2 13.4-7 63.9-108.2 80.5-106.9l59.1-6.9c.1-.1-66.6-31-99.3-23.4z" fill="#dc8b4a"/><path d="m606.7 434.3-40.5-80.5s66.3-15.1 78.3-6.7c12 8.5-37.8 87.2-37.8 87.2z" fill="#f9eba5"/><path d="m476.6 707.4c-7.5 11.9-7.5 30.5-7.5 30.5l-77.6 57c-169.9 17.8-246.3-75.6-250.8-91.6-4.4-16 11.4-99 11.4-99 225.8-101.9 324.5 103.1 324.5 103.1z" fill="#7bd2ee"/><path d="m421.7 737.5c2.3 2 2.5 5.4.6 7.7-1.1 1.3-2.6 1.9-4.1 1.9-1.3 0-2.5-.4-3.5-1.3-54.3-46.7-117.4-58.6-160.7-60.5-47.3-2-82.1 7.3-82.4 7.4-2.9.8-5.9-.9-6.7-3.8s.9-5.9 3.8-6.7c1.5-.4 36.5-9.8 85.4-7.7 45.1 1.7 110.8 14.2 167.6 63zm572.2-261.1c-3.2 48.2-26 94-66 132.6-30.1 29-58.8 43.6-60 44.2-.2.1-.4.2-.6.3-1.5 47.1-16 83.8-43.7 109.4-17.7 16.4-40.8 28.2-68.7 35.1-19.1 4.7-40.6 7.1-63.8 7.1-3.5 0-7.1-.1-10.7-.2-46.4-1.4-83-11.2-84.6-11.6-.9-.3-1.7-.7-2.4-1.4-43.2 31.6-92.4 40.1-125.8 43.7-9.4 1-17.8 1.5-25.3 1.5-34.8 0-49.8-9.9-56.2-19.1-3.5-5-5-10.9-4.4-16.6-11.1.9-21.8 1.3-32 1.3-68.8 0-117.8-18.7-148.5-36.1-10.3-5.8-19.4-12-27.3-18.1-2 3.3-7.8 10.3-26.5 27.1-12.1 10.9-26.4 22.8-31.7 26.6-1.6 1.1-6.6 4.6-34.5 4.6-21.1 0-44.3-2-54.1-4.7-10.9-3-20-11.9-21.9-21.1-.2-1.2-.3-2.4-.3-3.6.1-5.1 2.5-9.8 7-13.3 11.1-8.6 43.6-40.1 52.1-53.7 8.7-13.9 71.2-137.9 71.8-139.2.1-.2.2-.4.4-.6 0-.1.1-.1.1-.2.1-.1.2-.3.3-.4 0 0 .1-.1.1-.1.1-.1.3-.3.5-.4.1-.1.2-.1.2-.2-2.3-13.3-4.2-29.8-4.3-48.4-.2-29.4 4.1-58.2 12.7-85.7 10.1-32.2 26.3-62.6 48.1-90.4.4-6.5 2.5-31.3 11.1-62.8 9.1-33.4 27.4-80.8 63.3-117.1 1.3-1.3 3.3-1.9 5.1-1.5.8.2 1.6.6 2.2 1.1 6.1 2 21.7 9.2 70.6 92.1 12.1-1.7 24.5-2.6 37.1-2.6 29.6 0 60 4.8 88.4 13.9 136.6-38.6 239.8-28.6 306.8 29.9 24.9 21.7 44.8 50.2 58.9 84.7 11.3 27.4 19 58.7 22.9 92.9 6.3 54.3 1.1 98 .2 105 .4 2.2.8 4.4 1.2 6.6 84.1-166.2-.4-266.6-51.3-327.1-3-3.6-5.9-7.1-8.7-10.4-21-25.4-28.7-45.5-23-59.8 5.9-14.7 23.3-16.9 24-17 .5-.1 1.1 0 1.6.1 75.2 13.9 129.2 54.4 160.5 120.5 30 62.4 32.3 134 29.1 183.1zm-787.5-146.6c22.5-24.8 49.2-43.9 79.4-56.7 15.6-6.6 31.9-11.5 49-14.7-38.5-64.8-55.1-79.9-61.4-83.2-32.4 34.1-49.3 78-57.7 109.2-5 18.1-7.8 34.1-9.3 45.4zm-62.4 190.8c0 2.6.1 5.1.2 7.6.6.1 1.3.4 1.8.8.3.2 7.6 5.2 14.9 11.7 3.6 3.2 6.5 6.2 8.8 9.1 1.3-.2 2.7 0 3.8.8l16.3 10.7c2.5 1.6 3.2 5 1.6 7.5-1 1.6-2.8 2.5-4.6 2.5-1 0-2.1-.3-3-.9l-7.6-5v.2c-.5 6.4 10.4 13.5 15.7 16 .5.2 1 .6 1.4.9 5.6-1.6 11.6-3.2 18-4.6 3.1-13.8 12.5-34.8 29-31.6 5.8 1.1 10.4 4.1 13.3 8.5 3.7 5.7 3.8 12.5 3.4 16.6 5-.3 10.1-.5 15.4-.5 35.5 0 68.8 7.4 99 22 28.5 13.8 54.4 34.1 77.1 60.5 7.4-12.3 23.1-27.4 45.5-22.4 2.8-2.4 7.9-6.6 13.9-10.3 13.3-8.3 23.7-9.8 31-4.4 12.2 8.9 17.2 17.8 16.3 29.5 4.8-4 9.4-8.4 13.6-13.2 49.4-55.9 42.2-147 41.7-152.3-1.1-5.4-20-95.7-48.3-122.8-1.4-1.4-2-3.4-1.5-5.4.5-1.9 2.1-3.4 4-3.9.2 0 17-3.9 35-6.6 34.3-5.2 43.6-2 47.6.8 5.9 4.2 8.5 13.6-12.7 53.7-10.9 20.7-23.5 40.6-23.6 40.8 3.5 12 6.1 22.8 7.8 30.3 30.2-42.1 52.7-136.6 50.3-149.5-1.9-.9-9.2-3-36-3-37 0-86.7 4.1-87.2 4.1-1.5.1-3-.4-4.1-1.4-29.3-26.4-89.7-53-158.7-53-50.2 0-121.6 14.1-176.8 81.4-35.3 43.1-51.6 87.4-58.4 125.3l60.4 65.3c2 2.2 1.9 5.6-.3 7.7-1 1-2.4 1.4-3.7 1.4-1.5 0-2.9-.6-4-1.7l-54.5-59c-1.3 13.3-1.8 25.2-1.8 35.8zm479.6-126.1c17.4-32.4 17.6-41.3 17.3-43.2-2-.9-10.1-3-39.2 1.4-9.5 1.4-18.7 3.2-25.2 4.5 12.7 16.4 23 42.4 30.6 66.1 4.2-6.9 10.5-17.6 16.5-28.8zm-79.7 255.4c2.1-9.1 1-15.7-11.1-24.6-6.3-4.6-23.6 6.8-33.3 15.9-1.4 1.3-3.4 1.8-5.3 1.3-10.6-3.2-20.2-.7-28.6 7.4-5.2 5-8.3 10.6-9.4 12.8 3.6 4.5 7.1 9.2 10.5 14 30.6-1.1 56.6-8.7 77.9-22.6-.7-1.2-1-2.7-.7-4.2zm-299.2-89c-1.3-2-3.3-3.2-6.2-3.7-7-1.3-12.3 10.4-15 18.5 7.2-1.3 14.8-2.4 22.7-3.2.4-2.1 1-7.9-1.5-11.6zm-79.1 4c.4-4.7-9.6-15-20.6-23.3 2.1 26.2 7.5 46 10.3 55.1 5.1-2.4 13.5-5.9 24.3-9.7-6.6-4.5-14.8-12.2-14-22.1zm-2.1 179.7c-3-4-8.6-11.5-14.1-18.9-5.2-5.8-9-11.1-11.3-15.2-2.2-2.9-3.7-5-4.1-5.5-1.5-2.1-2.3-3.1 2.3-34.6 2.9-25.9 8.6-57 10.3-65.6l-6.6-17.7c-4.5 9-11.3 22.4-18.9 37.3 0 .1-.1.1-.1.2-1.9 3.8-3.9 7.7-5.9 11.6-.1.2-.2.5-.4.7-.4.8-.8 1.5-1.2 2.3-.1.2-.2.5-.4.7-.4.7-.7 1.5-1.1 2.2-.1.2-.2.5-.4.7-.4.8-.8 1.7-1.3 2.5-.1.1-.1.3-.2.4-1 1.9-1.9 3.8-2.9 5.7-.2.4-.5.9-.7 1.3-.2.5-.5 1-.7 1.4-.2.5-.5 1-.7 1.4-.2.5-.5.9-.7 1.4s-.5.9-.7 1.4c-.2.4-.5.9-.7 1.3-.3.5-.5 1-.8 1.5-.2.4-.4.9-.7 1.3-.4.9-.9 1.7-1.3 2.5-.2.5-.5.9-.7 1.4-.2.4-.4.8-.6 1.2-.3.5-.5 1-.8 1.5-.2.4-.5.9-.7 1.3s-.4.8-.6 1.2c-.2.5-.5 1-.7 1.4s-.4.9-.7 1.3c-.2.4-.4.8-.6 1.2-.3.5-.6 1.1-.8 1.6-.4.7-.7 1.4-1 2-.2.4-.4.9-.7 1.3-.2.4-.5.9-.7 1.3s-.4.7-.6 1.1c-.2.5-.5.9-.7 1.4-.2.4-.4.7-.6 1.1s-.4.9-.7 1.3c-.2.4-.4.8-.6 1.2s-.4.8-.6 1.1c-.2.4-.4.8-.7 1.2-.3.7-.7 1.3-1 2-.2.4-.4.7-.6 1.1s-.4.7-.6 1.1-.4.7-.6 1.1c-.2.3-.3.6-.5 1s-.4.8-.6 1.2c-.1.3-.3.5-.4.8-.2.4-.4.8-.7 1.3-.1.2-.3.5-.4.7-.3.5-.5 1-.8 1.5-.1.2-.2.5-.4.7-.3.5-.5.9-.7 1.4-.1.2-.2.4-.4.7s-.4.7-.5 1c-.1.2-.2.4-.4.7s-.3.6-.5.9c-.1.2-.2.4-.4.6-.2.3-.3.6-.5.9-.1.2-.2.4-.3.5-.2.4-.5.8-.7 1.2 0 .1-.1.1-.1.2-.2.4-.4.8-.6 1.1-.1.1-.1.2-.2.4-.1.3-.3.5-.4.7-.1.1-.1.3-.2.4-.1.2-.2.4-.4.6-.1.1-.1.2-.2.3-.1.2-.2.4-.3.6-.1.1-.1.2-.2.3-.1.3-.3.5-.4.7-9.2 14.7-42.7 47.4-54.7 56.6-2.3 1.7-3.1 3.7-2.6 6.2 1 5.3 7.2 10.9 14.1 12.8.3.1.5.1.8.2.1 0 .2 0 .3.1.2 0 .4.1.6.1.1 0 .3.1.4.1.2 0 .3.1.5.1s.3.1.5.1.3.1.5.1.4.1.6.1c.1 0 .3.1.4.1.2 0 .5.1.7.1h.2c1 .2 2 .3 3.1.5h.1c.3 0 .7.1 1 .1h.2c.3 0 .7.1 1 .1h.3c.4 0 .7.1 1.1.1h.2c.4 0 .8.1 1.2.1 1.3.2 2.7.3 4.1.4h.1c.4 0 .8.1 1.1.1h.4c.3 0 .7.1 1.1.1h.5c.3 0 .7.1 1 .1h.6c.3 0 .7.1 1 .1h.6c.4 0 .7.1 1.1.1h.5c1.4.1 2.7.2 4.1.3h.3c.4 0 .9 0 1.3.1h.4c.4 0 .9 0 1.3.1h.4c.4 0 .9 0 1.3.1h.3c.5 0 .9 0 1.4.1h.2c2.2.1 4.4.2 6.6.2 1.4 0 2.7.1 4 .1h3.7c3 0 5.7 0 8.1-.1h1.3.2 1.2.2c.4 0 .8 0 1.2-.1h.1c9.8-.5 14.4-1.6 15.8-2.3.1 0 .1-.1.2-.1.3-.2.7-.5 1.1-.8.1-.1.3-.2.4-.3.3-.2.6-.4.9-.6.2-.1.3-.3.5-.4.3-.2.6-.4.9-.7.2-.1.4-.3.6-.4.3-.2.6-.5 1-.8.2-.2.4-.3.6-.5.3-.3.7-.5 1-.8.2-.2.4-.3.7-.5.4-.3.7-.6 1.1-.9.2-.2.4-.4.7-.5.4-.3.8-.7 1.2-1 .2-.2.4-.4.7-.5.4-.4.9-.7 1.3-1.1.2-.2.4-.3.6-.5.5-.4 1-.8 1.5-1.3.2-.1.3-.3.5-.4.6-.5 1.1-1 1.7-1.4.1-.1.3-.2.4-.3 2.1-1.8 4.4-3.8 6.6-5.7.1-.1.2-.2.3-.2.6-.6 1.3-1.1 1.9-1.7.2-.2.4-.3.5-.5.6-.5 1.1-1 1.7-1.5.2-.2.4-.4.7-.6.5-.5 1-.9 1.5-1.4.2-.2.5-.4.7-.6.5-.4 1-.9 1.5-1.3.3-.2.5-.5.8-.7.5-.4.9-.8 1.4-1.3.3-.2.5-.5.8-.7.5-.4.9-.8 1.3-1.2.3-.2.5-.5.8-.7.4-.4.9-.8 1.3-1.2.2-.2.5-.5.7-.7.4-.4.9-.8 1.3-1.2l.6-.6c.5-.4.9-.9 1.3-1.3.2-.2.4-.3.5-.5.6-.5 1.1-1.1 1.6-1.6 0 0 .1-.1.1-.1l1.7-1.7c.1-.1.2-.2.3-.3.4-.4.8-.8 1.2-1.2.2-.2.3-.4.5-.5.3-.3.6-.6.9-.9.2-.2.4-.4.5-.6.3-.3.5-.6.8-.8.2-.2.3-.4.5-.5.2-.2.4-.5.6-.7s.3-.3.4-.5c.2-.2.4-.4.5-.6s.3-.3.4-.5c.4 0 .5-.1.6-.2zm267.9 12c12.1-7.8 28.6-18.3 31.6-22.2.5-7.5 5.8-19.7 10.6-29.5-2.2-3.7-8.4-12.2-13.9-19.2 0 0 0-.1-.1-.1 0-.1-.1-.1-.1-.2-47.6-68.6-110.5-103.4-186.8-103.4-57.8 0-104.8 20.8-115.6 25.9-3.2 19.3-7.2 44.8-10.1 64.3-1.6 14-2.2 25.3-1 29.7.2.6.5 1.5 1.1 2.5 2.9 3.9 6.9 9.2 10.9 14.6 9.7 10.8 25.6 25 48.7 38 34.6 19.6 93.7 40.9 179.6 32.9 6.4-8.1 22.4-18.8 45.1-33.3zm418.4-175.2c-.1-.6-.1-1.2 0-1.8.1-.5 6.4-46.6-.2-103.4-6-51.9-24.5-123.7-78.2-170.4-61.7-53.7-156.4-64.4-281.8-31.6 22.8 9.1 43.1 21 58 33.9 10.3-.8 52.9-4 85.7-4 37.7 0 43.1 4 45.4 8.2 6.8 12.2-12.6 74.6-13.4 77.2-6.2 20-22.8 68.2-43.6 92.1.5 7 1.6 28.2-1.9 54.8-3.9 29.7-14.4 71.8-42.6 103.7-25 28.3-59.5 44.1-102.7 47.1.6.8 1.3 1.7 1.9 2.6 8.3 11.5 9.6 14.3 7.9 17.7l-.1.3c-4.1 8.2-7.3 15.6-9 20.9 16.9-10.3 33.7-30.8 33.9-31 1.9-2.3 5.3-2.7 7.7-.8 2.3 1.9 2.7 5.3.8 7.7-1 1.2-24.8 30.2-46.6 38.4-.5.2-1 .3-1.5.3-4.9 4.7-14.6 11.2-32.1 22.4-14.3 9.1-33 21.1-40.4 28.6.3 2.6-1.3 4.9-3.7 5.7-.8 2.7-1.1 7 2 11.5 4 5.8 19 18.6 71.4 13 81.1-8.7 178.4-39.8 210.9-203.8.6-2.9 3.4-4.9 6.4-4.3 2.9.6 4.9 3.4 4.3 6.4-.2.8-.3 1.6-.5 2.4 3.2-4.5 6.6-9.3 10.3-14 26.1-34.1 37.1-36.3 43.7-34.3 2.9.9 4.5 3.9 3.7 6.8-.9 2.9-3.9 4.5-6.8 3.7-.1 0-7.3-1.7-31.9 30.4-13.3 17.4-24.7 35.6-24.8 35.8-.4.6-.8 1-1.3 1.4-7.7 27.5-17.9 52-30.3 73.1-12.9 21.8-28.5 40.5-46.6 55.7 11.4 2.7 41.8 9 77.4 10.1 41.2 1.2 98-4.6 135.2-39.1 37.6-35 48.9-93.3 33.4-173.4zm-46.3-397.9c-2.6.5-11.6 2.7-14.5 10.2-4 10.1 3.6 27.4 21.3 48.8 2.7 3.3 5.6 6.8 8.6 10.3 53.8 63.9 143.8 170.9 46.9 350.1-.3.6-.8 1.1-1.3 1.6 1.7 12.8 2.6 25.1 2.8 36.8 9.1-5.1 31-18.6 53.2-40.1 26.4-25.5 58.7-68 62.5-125.3 5.1-77.1-2.3-259.1-179.5-292.4zm-530.5 366c.9 1.9 2.9 3 4.9 3 .8 0 1.6-.2 2.4-.6 2.7-1.3 3.8-4.6 2.5-7.3-14.7-29.6-71.3-65.5-73.7-67-2.5-1.6-5.9-.8-7.5 1.7s-.8 5.9 1.7 7.5c.6.5 56.4 35.8 69.7 62.7zm118 38.3c1 0 2-.3 2.9-.8 31.2-19.7 108.3-20.1 112.9-20.1h.2c3 0 5.4-2.4 5.4-5.4s-2.4-5.5-5.4-5.5c-3.4 0-84.2-.2-119 21.7-2.5 1.6-3.3 5-1.7 7.5 1.2 1.7 2.9 2.6 4.7 2.6zm75.2 9.1c11.9-4.9 51.8-15.3 76.3-21.4 2.9-.7 5.9 1 6.6 3.9s-1 5.9-3.9 6.6c-33.8 8.5-71.1 18.7-75.6 21.2-.1.1-.3.2-.5.3.1 3.3-.7 6.6-3.1 9.6-4.4 5.7-11.3 9.2-18.5 9.2-4.6 0-8.5-1.5-10.9-4.1-3.6-4-3.1-11.1-1.4-16.4 3.1-9.7 10.7-16.7 20.3-18.7 1.9-.4 4 .3 5.3 1.8.7.6 3.3 3.8 5.4 8zm-11.5 1.8c-4 1.7-6.3 4.8-7.7 7.2-2.1 3.9-2.3 7.6-2 9 .4.2 1.3.4 2.6.4 2.9 0 7.1-1.3 9.9-4.9 2.1-2.7-.5-8.1-2.8-11.7z" fill="#89191a"/></g></svg>