<svg xmlns="http://www.w3.org/2000/svg" xml:space="preserve" width="512" height="512"><path fill="#FDE7CF" d="M96.944 402.069C84.421 403.56 79.151 429.281 88.6 449.3c1.124 2.356 13.803 30.708 31.096 38.633l12.087.799c17.2.491 55.463-1.028 124.217-1.028 68.76 0 106.821 1.415 124.022.924l11.485-.652c7.2-3.3 13.189-8.7 18.189-15s9.626-14.538 13.826-23.338c6-12.5 6.796-30.462 1.696-39.662-2.3-4.1-6.592-7.077-10.792-7.577-7.4-.8-15.125 2.737-21.025 6.838l-2.833.828c-5.232-13.263-33.425-7.673-34.263-7.566l.239-12.021c34.359-22.147 44.065-54.396.056-97.479l-.1-.1s-49.978 32.488-100.35 32.5c-50.453.013-101.3-32.45-101.25-32.5l-.1.1c-28.244 27.362-29.684 46.294-29.8 49.542-.066.923-.34 28.28 30.283 48.323l.865 12.85c-26.091-8.088-33.942 4.562-35.495 6.871-5.943-2.794-13.623-9.606-23.709-8.516z"/><path fill="#FDE7CF" d="M384.6 203.6c-.025-.102-4.587-20.925-11.6-37.1-7.713-25.913-7.1-23.648-7.1-23.8 20.552-61.659-.545-90.421-19.2-118.4l-.3-.3-.1.1c-9.021 9.513-1.777 2.347-13.6 12.2-23.963 19.969-39.262 46.698-39.7 47.3-2.072-.259 4.11.56-36.9-4.9-41.01 5.46-34.705 4.626-36.9 4.9-2.492-3.426-17.525-30.682-44.2-51.2-5.046-3.899-1.656-.656-9-8.4l-.1-.1-.3.3c-26.929 40.389-36.637 66-19.2 118.3 0 .137.513-1.774-7.1 23.8-6.077 14.017-12.65 37.36-14.5 54-6.447 51.575 17.06 68.599 27 74.3 23.3 13.3 45.7 20.9 63.8 25.1 22.4 5.3 38.1 5.5 40.5 5.5 2.4 0 18.1-.2 40.5-5.4 18.1-4.2 40.6-11.7 63.9-25 30.845-17.464 31.634-56.546 24.1-91.2z"/><path fill="#9D706B" d="M189.8 153.7c16.4-7.1 35.1-6 48.6-3.5 5.8 1.1 11.7 1.6 17.7 1.7 5.9 0 11.8-.6 17.7-1.6 13.5-2.4 32.2-3.5 48.6 3.6 29.5 12.8 51.6 69.5 18.7 105.6-23.2 25.8-50.2 28.4-68.3 27.4-5.6-.3-11.2-.4-16.8-.4-5.6 0-11.2.1-16.8.4-18.1 1-45.1-1.7-68.3-27.5-32.8-36.3-10.6-92.9 18.9-105.7z"/><path fill="#E0BCA2" d="M173.8 35.4h.8s19.9 16.2 30.9 52.9l13.6-4.7c.1-.1-33.7-53.9-45.3-48.2z"/><path fill="#F6B0A6" d="m139.2 79.4-1.2 25.3 3.5 20.4s20.3 1.3 19.6-21.4c0 0 5.5 4.5 5.9 4.2.3-.3 4.4-5.7 4.4-5.7l-.1-18.5 5.9-1.2 10.4 6.5 6.2-2.8s.1-12.7 0-13.2c-.1-.6-8.3-20.7-8.3-20.7l-15.3-21.9L166 25l-14.1 20.6-12.7 33.8z"/><ellipse transform="rotate(-67.592 188.498 225.044)" fill="#F6B0A6" cx="188.498" cy="225.045" rx="11.6" ry="19.5"/><path fill="#2D2D39" d="M204.5 197.9c1 10.1 7.2 17.8 13.9 17.2s11.4-9.4 10.4-19.5-7.2-17.8-13.9-17.2-11.5 9.3-10.4 19.5z"/><path fill="#2D2D39" d="M193.1 189.6c2.4 8 12.2 9.2 18.7 5.1l-5.2-6.4c-3.1 5-9.6 5.9-13.5 1.3z"/><path fill="#F9FCF8" d="M214.4 191.2c1.3 4 4.4 6.8 6.9 6 2.6-.7 3.7-4.7 2.4-8.8-1.3-4-4.4-6.8-6.9-6-2.5.8-3.6 4.7-2.4 8.8z"/><path fill="#2D2D39" d="M148.1 139.1c-22.8-56.2 11.1-103.1 18.2-112 38.1 29.8 50.6 58 50.7 58.2l3.9-1.7c-.6-1.2-13.4-30.2-53.8-61.2l-1.5-1.2-1.3 1.5c-.5.6-48.4 55.4-18.6 121.9l2.4-5.5z"/><path fill="#2D2D39" d="M158 94.4c2.736 11.509 7.473 18.265 12.7 14.2 2.9-2.7 2.8-8.6 2.8-14.7-.1-2.8-.2-7.5.5-8.7 1.1-.1 3.5 1.1 5.3 2 4.8 2.4 11.3 5.5 15.6.1 6.5-8.3-6.063-38.559-26.763-64.059L164.3 25.4c21.3 26.3 31.1 54 27.1 59.3-2 2.5-5.4 1.1-10.4-1.3-3.2-1.7-5.9-3-8.4-2.4-3.8 1-3.8 6.6-3.7 13 .122 4.983.007 9.113-.725 10.792-.52 1.192-1.155.866-2.127.175-2.355-1.676-5.794-6.226-8.048-10.567zM80 189.1c23.4 1.2 47.6 8.5 70 21.2 0 0-16.9-5.4-35.1-10.7C102 195.8 80 189.1 80 189.1zM68.2 212.8c23.3-2.5 48.3.9 72.5 9.8 0 0-17.6-2.6-36.3-5-13.5-1.7-36.2-4.8-36.2-4.8zM73 244.5c21.9-8.3 47-11.2 72.6-8.6 0 0-17.7 1.8-36.4 4.3-13.4 1.7-36.2 4.3-36.2 4.3z"/><path fill="#FFFAF5" d="M196 92.4c52.708-10.764 88.061-6.49 120.1.1h.1c-7.306-1.826-56.884-31.758-120.2-.1z"/><path fill="#E0BCA2" d="m293 83.6 13.6 4.7c11.1-36.7 31-52.8 31-52.8h.8C326.9 29.8 293 83.6 293 83.6zM126.7 261.7c1.669 1.298 55.107 44.272 129.2 43.3 70.199.921 117.678-35.352 129.3-43.1l.1-.1c-3.7 13.4-11.4 25.3-25.1 33.2-23.7 13.5-46.5 21-64.7 25.2h-.1c-21.9 5-37.2 5.2-39.6 5.2-2.3 0-17.6-.2-39.6-5.3h-.1c-18.2-4.2-41-11.8-64.6-25.3-13.7-7.9-21.3-19.8-25-33.3.1.1.2.1.2.2z"/><path fill="#F6B0A6" d="m360.4 45.9-14.1-20.7-4.2 5.2-15.3 21.9s-8.2 20.1-8.3 20.7c-.1.5 0 13.2 0 13.2l6.2 2.9 10.4-6.5 5.9 1.2-.1 18.5s4.1 5.4 4.4 5.7c.4.3 5.9-4.2 5.9-4.2-.8 22.8 19.5 21.5 19.5 21.5l3.5-20.4-1.2-25.3-12.6-33.7z"/><ellipse transform="rotate(-22.301 323.51 225.203)" fill="#F6B0A6" cx="323.507" cy="225.21" rx="19.5" ry="11.6"/><path fill="#2D2D39" d="M297.1 178.4c-6.7-.6-12.9 7-13.9 17.2s3.7 18.9 10.4 19.6c6.7.6 12.9-7 13.9-17.2 1.1-10.3-3.6-18.9-10.4-19.6z"/><path fill="#2D2D39" d="m305.5 188.4-5.2 6.4c6.5 4.1 16.2 2.9 18.7-5.1-4 4.6-10.5 3.7-13.5-1.3z"/><path fill="#F9FCF8" d="M295.2 182.5c-2.5-.8-5.7 2-6.9 6-1.3 4-.1 8.1 2.4 8.8 2.5.8 5.7-2 6.9-6 1.3-4.1.1-8-2.4-8.8z"/><path fill="#2D2D39" d="M366.5 144.8c29.9-66.4-17.9-121.4-18.4-121.9l-1.3-1.7-1.5 1.2c-40.4 30.9-53.3 59.9-53.9 61.1l3.9 1.8c.2-.2 12.6-28.4 50.8-58.1 7.1 8.9 40.9 55.9 18 112.1-.4.8 2.3 6 2.4 5.5z"/><path fill="#2D2D39" d="M343.778 104.261c-.701-2.369-.558-6.898-.478-10.161.1-6.4.2-12-3.6-13-2.4-.7-5.2.7-8.4 2.3-5 2.4-8.4 3.8-10.4 1.3-4.1-5.3 5.8-33.1 27.2-59.3l-4.605-1.306C322.695 49.594 310.9 78.8 317.4 87.2c4.3 5.4 10.9 2.3 15.6 0 1.8-.9 4.2-2.1 5.3-2 .6 1.2.6 5.9.5 8.7-.1 6.2-.2 12.1 2.7 14.8 6.584 5.761 11.393-8.434 12.7-14.1-2.524 4.767-6.175 9.394-8.352 10.704-1.069.644-1.601.54-2.07-1.043zM219.3 230.9c1.55 8.677 4.511 21.302 17.4 21.4 7.663.12 14.174-4.648 17-10.3-6.7-3.2-14.8-7.9-16-12.1-.3-1.1-.2-2.1.3-3 2.2-3.4 11-4.7 18-4.7 6.9 0 15.8 1.3 18 4.7.5.9.7 1.9.3 3-1.4 4.5-10.5 9.4-16.1 12.1 2.741 5.481 9.25 10.419 17 10.3 13.794-.105 16.353-14.979 17.5-21.4l10.1 5.3-7.1-.1c-1.1 5.2-5.4 20.1-20.4 20.1h-.1c-7.7-.1-15.1-4.2-19.2-10.7-4.75 7.351-12.758 10.7-19.4 10.7-14.9-.1-19.2-15-20.3-20.2l-7.1.1 10.1-5.2zM255.9 276.4c5.1-.1 10.3-1.6 15.1-4.3-6.4 11.1-23.8 11.1-30.2 0 4.9 2.7 10 4.2 15.1 4.3zM196 92.4c36.913-20.763 72.528-15.453 76.918-14.848 11 1.515 26.152 5.356 43.382 15.048h-.1c-19.446-4.488-31.119-8.83-45.108-10.703C252.817 79.45 235.213 80.334 196 92.4zM432 189.4c-23.4 1.2-47.6 8.5-70.1 21.1 0 0 16.9-5.4 35.1-10.6 13-3.8 35-10.5 35-10.5zM443.8 213.1c-23.3-2.5-48.3.8-72.5 9.7 0 0 17.6-2.6 36.3-5 13.5-1.6 36.2-4.7 36.2-4.7zM439 244.9c-21.9-8.3-47-11.3-72.6-8.8 0 0 17.7 1.9 36.4 4.3 13.3 1.7 36.2 4.5 36.2 4.5z"/><path fill="#3D3D44" d="M242.3 226.9c0-.7 3.5-1.4 8.5-1.7 1.6-.1 3.3-.2 5.1-.2 1.8 0 3.6.1 5.1.2 5 .3 8.5.9 8.5 1.7.1 1.1-6 1.9-13.7 1.9-7.5-.1-13.6-.9-13.5-1.9z"/><path fill="#2D2D39" d="M154.7 124.7c-.307 1.228-1.654 4.309-8.308 24.799A1221.778 1221.778 0 0 0 134.6 188.1c-5.6 19.7-9.7 41.5-8.3 61 2.2 30.9 29.1 48.2 53.4 57.5 8.6 3.3 16.8 6.4 23.5 8.8 34.1 9.5 65.3 7.5 87.4 3.4 12.2-2.3 22.9-5.3 31.5-8.3 3.2-1.2 6.5-2.5 9.9-3.8 24.3-9.2 51.2-26.5 53.5-57.4 1.5-19.5-2.6-41.3-8.2-61-3.726-12.958-7.582-25.523-10.879-35.941-5.755-18.182-9.083-27.359-9.121-27.459.399.877 5.819 11.253 11.984 26.589 10.228 25.44 22.977 64.56 20.516 98.111-2.2 29.7-25.4 47.5-48.5 57.9-8.7 4.2-26.2 11.6-49.7 16-10.6 2-23.2 3.5-37.1 3.4-24.5 0-53.1-4.6-82.9-19-23.5-10.3-47.5-28.3-49.7-58.5-2.366-34.823 11.566-75.647 21.967-100.946 5.397-13.129 10.586-23.21 10.833-23.754z"/><path fill="#2D2D39" d="M267.1 254.5c-5.164-2.519-3-1.22-9.6-5.9l-.8-2h-1.4l-.8 2c-6.816 4.747-4.59 3.407-9.7 5.9l-2.9.2c.888 1.332 4.549 11.584 13.4 11.8 4.088 0 7.306-.674 10.8-5 1.225-1.532 2.719-3.517 3.8-6.4.268-.402.799-.24-2.8-.6z"/><path fill="#F9A9A0" d="M256 258c-5.6 0-9.5 1.4-11 2h-.029l.929 1.3 1.5 2.3 4.2 2.9 4.3.7 4.3-.7 4.2-2.9 1.5-2.3.965-1.352C265.286 259.326 261.46 258 256 258z"/><path fill="#2D2D39" d="M267.6 252c-4.152-2.139-2.314-.995-8.2-5.2l-1.1-2.9h-4.6l-1.1 2.9c-5.885 4.203-4.042 3.058-8.2 5.2l-5.7.4 1 2.6c6.683 17.296 24.931 19.534 32.7 0l1-2.6-5.8-.4zm-23.7 3.9 1.3-.1c5.416-2.645 3.082-1.261 10.4-6.3l.3-.7.3.7 6 4.1 4.4 2.1 1.3.1c-2.424 8.485-16.172 15.755-24 .1z"/><path fill="#FFFAF5" d="M320.6 393.1s0-.1 0 0c-2.2-11.9-8.1-23.8-16.6-33.6l-.1-.1c-.2-.3-.5-.6-.7-.8-.5-.6-1.1-1.2-1.6-1.8-11.8-12.4-27.8-21-45.5-21s-33.7 8.5-45.5 21c-.6.6-1.1 1.2-1.6 1.8-.3.3-.5.6-.7.8l-.1.1c-8.5 9.8-14.4 21.7-16.6 33.6v.1c-.6 3.3-.9 6.6-.9 9.9v1.9c0 .6.1 1.3.1 1.9v.5c2.6 29.4 30.8 52.5 65.3 52.5s62.8-23.1 65.3-52.5v-.5c.1-.6.1-1.3.1-1.9V403.1c0-3.4-.3-6.7-.9-10z"/><path fill="#E0BCA2" d="M425.217 409.977c-2.3-4.1-6.592-7.077-10.792-7.577-7.4-.8-15.125 2.737-21.025 6.838l-2.833.828c-2.687-6.813-11.431-8.647-19.416-8.809.013.033.015.052.036.093 1 5.1 11.513 70.35-114.987 74.95-126.6-4.6-115.648-69.7-114.648-74.7 0-.2.1-.3.1-.3-.1-.1-.3-.2-.4-.2l-.09-.043c-14.316-.249-19.307 7.74-20.51 9.529-5.942-2.795-13.622-9.607-23.708-8.516-12.523 1.49-17.793 27.211-8.344 47.23 1.124 2.356 13.803 30.708 31.096 38.633l12.087.799c17.2.491 55.463-1.028 124.217-1.028 68.76 0 106.821 1.415 124.022.924l11.485-.652c7.2-3.3 13.189-8.7 18.189-15s9.626-14.538 13.826-23.338c6-12.499 6.795-30.461 1.695-39.661z"/><g fill="#8A5D58"><path d="m83.3 438.4 1.4-25.1 6.5-8.2 7.2-3.2h5l12.8 4.2 5.1 4.1s2.6-2.1 6-4.2c.1.1 30.4 25.7 20.2 81.8 0 0-.9.6-2.6 1.4l-15.1.2L116 486l-14.5-10.7-12.3-20.4-5.9-16.5zM127.5 405.7c.2-.2.6-.4.8-.5-.3.3-.7.4-.8.5z"/></g><path fill="#2D2D39" d="M155.1 403.9c-2.3-9.9-1.3-13.1-1.3-13.5l3.7.4c0 .1-.8 5.3 1.4 14.5l-3.8-1.4z"/><path fill="#2D2D39" d="m121.8 412.6-3.2-2.1c14.8-22.2 49.2-3.9 49.4-3.6 0 0-12.5-2.5-23.9-3.4-8.2-.7-16.9 1-22.3 9.1z"/><g><path fill="#2D2D39" d="M122.5 490.4c-.8 0-1.122-.9-2.022-1l-.268-2.843c12.5 2.3 20.69-18.757 20.69-18.757-.1 1-4.4 22.6-18.4 22.6z"/></g><g fill="#7C4C48"><path d="M120.4 452.1c3.7 7.1 4.2 15.5 1.2 18.7-3.2 3.2-8.6 0-12.4-7.1S105 448.1 108 445c3.1-3.2 8.7 0 12.4 7.1zM100 446.3c2 3.2 2.6 7.4 1.2 9.2-1.4 1.9-4.2.8-6.2-2.5-2-3.2-2.6-7.4-1.2-9.2 1.4-1.9 4.2-.7 6.2 2.5zM98.6 429.6c1.9 3.5 2 7.6.5 9.1-1.5 1.6-4.3.1-6.1-3.4-1.9-3.5-2-7.6-.5-9.1s4.2 0 6.1 3.4zM117.3 431.1c1.5 3.7 1.3 7.7-.5 9-1.8 1.2-4.3-.8-5.8-4.6s-1.3-7.7.5-9 4.2.9 5.8 4.6zM106.2 422.8c1.9 3.5 2 7.6.5 9.1-1.5 1.6-4.3.1-6.1-3.4-1.9-3.5-2-7.6-.5-9.1 1.5-1.6 4.2-.1 6.1 3.4z"/></g><path fill="#9D706B" d="M173 399.7c2.7 1.1 5.6 2 8.8 2.8-3.7-.8-6.5-1.5-6.8-1.5-.2.1-.9-.4-2-1.3zM194.7 405.5c1.8.4 3.5.5 5 .7h-2.6c0-.1-.9-.3-2.4-.7z"/><g><path fill="#E8850F" d="M317.9 438.9c-2.3-3.7-6.1-7.7-11.2-11.3-10.6-7.5-20.5-8.9-24.1-6l-.1.1-.2.1c-4.2 1.9-7.3 11.6-5 24.3 2.3 13.8 9.1 22.1 14 21.3 4.4-.8 7.3-8.5 6.8-18.6l-.1-2.5 2.2 1.2c8.8 4.7 17.1 5.5 19.7 1.9 1.5-2.2.8-6-2-10.5zM217 294.3c-4.072-5.701-8.305.955-8.7 7.4l-.2 1.9-1.7-.7c-6.472-2.392-12.173-.991-11.3 2.5 1.157 6.363 15.351 12.249 19.5 8.1 4.394-2.38 6.096-13.824 2.4-19.2z"/><path fill="#2D2D39" d="M222.4 300.9c-.3-4.9-2.1-9.1-4.9-11.1-1.5-1.1-3.2-1.5-5.1-1-3.4.9-6.1 4.7-7.2 10.1-5.3-1.3-10-.6-12.2 2-1.1 1.3-1.6 3.1-1.3 5.1.2 1.1.7 2.2 1.3 3.3 1.4 2.3 3.8 4.4 6.7 5.9 3.4 1.9 7.1 2.9 10.4 2.9 2.4 0 4.5-.5 6.1-1.7 4-2.1 6.6-8.6 6.2-15.5zm-8 12.1-.3.2c-1.9 1.6-7.2 1.5-12.4-1.4-3.3-1.9-5.7-4.5-6.1-6.6-.2-.7 0-1.3.4-1.8.8-.9 2.3-1.4 4.2-1.4 1.8 0 3.9.4 6 1.2l2.4.9.3-2.6c.4-4.5 2.3-8.4 4.6-9 .7-.2 1.2-.1 1.8.4.6.4 1 1 1.4 1.5 1 1.5 1.7 3.9 1.9 6.6.2 6-2 10.8-4.2 12zM321.9 438.8c-2.6-4.9-7.3-9.9-13.1-14.1-11-7.8-22.6-10.3-28-6-6.2 3.1-9.1 14.9-6.9 27.9 1 6.3 3 11.9 5.8 16.3 3.2 5.1 6.9 7.8 10.8 7.8.5 0 1 0 1.5-.1 5.7-1 9.4-8.3 9.6-18.8 9.6 4.4 17.8 4.2 21.1-.5 2.1-3.1 1.8-7.5-.8-12.5zm-24.4 10c.5 9.6-2.3 17.4-6.4 18.1-4.7.7-11.2-7.5-13.5-20.9-2.2-12.3.8-21.9 4.8-23.8l.2-.1.2-.2c1.1-.9 2.7-1.3 4.8-1.3 4.7 0 11.6 2.3 18.7 7.3 4.8 3.5 8.7 7.3 11.1 11.2 2.7 4.2 3.4 7.9 2 9.9-2.4 3.3-10.6 2.4-19-2.1l-3-1.6.1 3.5z"/><path fill="#FBAE3B" d="M294.7 342c-21.1-33.6-58.3-48.3-83-32.8s-27.5 55.4-6.4 89 58.3 48.3 83 32.8c24.6-15.3 27.5-55.3 6.4-89z"/><path fill="#F79F2B" d="M227 384.7c-17.9-28.5-18.5-61.6-3.3-80.4-4.2 1-8.2 2.6-12 4.9-24.7 15.5-27.5 55.4-6.4 89s58.3 48.3 83 32.8c3.8-2.3 7-5.2 9.7-8.6-23.6 5.7-53.2-9.3-71-37.7z"/><path fill="#E8850F" d="M283 336.5c-6.1 34.1-43.3 54.7-76.1 47.9 32.4.2 64.1-16.8 76.1-47.9z"/><path fill="#2D2D39" d="M247 333c-2.4-1-4.8-1.7-6.8-2.3l-4.8-1.2 1.1-4.8c.4-2.3.8-4.7.9-7.1l.1-2.3-1 2.1c-1 2.1-1.9 4.3-2.5 6.2-.5 1.3-.9 2.7-1.2 4-.1.4-.3.9-.4 1.3-1.6-.3-3.2-.5-4.8-.8l-.7-.1c-2.7-.4-4.8-.5-6.7-.4l-2.2.1 2 .9c2.4 1 4.8 1.7 6.8 2.3l4.8 1.2-1.1 4.8c-.4 2.3-.8 4.7-.9 7.1l-.1 2.3 1-2.1c1-2.1 1.9-4.3 2.5-6.2.5-1.3.9-2.7 1.2-4 .1-.4.3-.9.4-1.3 1.6.3 3.2.5 4.8.8l.7.1c2.7.4 4.8.5 6.7.4l2.2-.1-2-.9z"/><path fill="#2D2D39" d="M297.6 340.3c-12.6-20.1-31.9-34.8-51.5-39.2-13.4-3-25.9-1.2-36.2 5.2-10.3 6.4-17.4 17-20.5 30.4-4.5 19.6.4 43.2 13 63.3 16.1 25.5 41.2 40.6 63.9 40.6 8.5 0 16.6-2.1 23.8-6.6 10.3-6.4 17.4-17 20.5-30.4 4.5-19.6-.3-43.2-13-63.3zm9.2 62.4c-2.8 12.4-9.3 22.1-18.7 27.9-24.4 15.3-61.4.7-82.3-32.7-10.2-16.2-15.1-34.3-13.9-51 1.2-16.7 8.3-29.9 20.1-37.3 6.6-4.1 14.1-6.1 21.9-6.1 21.3 0 45.1 14.4 60.4 38.8 12.1 19.2 16.7 41.8 12.5 60.4z"/></g><path fill="#9D706B" d="M209.3 406.1c.9-.1 1.8-.2 2.7-.4l-1.4.4h-1.3zM235.7 378.7v12.1l-7.6 11.1-11.1 2.7c13.3-4.2 17.1-14.4 17.1-14.4-29.7 15.2-55.4.2-73.9-18.9.1-1.4.2-3.2.6-4.7 4.2-22.4 16.9-28.8 16.9-28.8l27.1 18.2 25.1 15.1 5.8 7.6z"/><path fill="#8A5D58" d="M233.9 390.2s1.7 10.2-11.6 14.4c-16.848 1.926-22.583 4.106-49.6-4.9-4.2-3.3-13.6-12.4-12.5-28.4 18.8 19.3 44.2 33.3 73.7 18.9z"/><path fill="#E0BCA2" d="M173 399.7c-40.754-14.891-55.031-49.781-43.5-72.8 0 0 11.4 24.5 30.7 44.4 0 15.8 8.4 25.2 12.8 28.4z"/><path fill="#F5A653" d="M181.6 402.6c4.4 1.1 9.9 2.2 13.1 3-.9-.1-1.9-.4-2.8-.5-3.6-.8-7-1.6-10.3-2.5zM199.7 406.2h9.5c-2.8.2-6 .2-9.5 0zM217 404.6c-1.5.5-3.3.9-5 1.2l5-1.2z"/><path fill="#E0BCA2" d="M174.5 313.4s.7 21.4 7.1 24.5l-9.9-6.7 2.8-17.8z"/><g><path fill="#2D2D39" d="M170.3 331.9c-.1-5.8 4-18.1 4.2-18.7 0 0-.5 13.4-.4 18.6l-3.8.1z"/></g><g><path fill="#2D2D39" d="M190.5 407.3c-18.25-3.067-32.07-11.442-37.1-15.1-18.7-12.7-31.2-31.5-30.5-50.1.7-19 14.6-37 27.9-50.2 1.1.6 3 2.2 3.1 2.3-9.6 9.5-19 20.7-24.1 34-1.8 4.7-2.9 9.3-3.2 14.1-.8 21.7 18 43.8 43.3 54.9 6.4 2.8 13.2 4.9 20.3 6.2 44.778 8.141 47.629-19.285 42.6-26.2-2.3-2.9-13.7-10.5-25.1-17.9-2.9-1.9-5.8-3.7-8.5-5.5-10-6.4-18.9-12-23.1-15.3-10.89-8.712-13.87-21.888-13.6-25.2.679 1.358 7.95 15.703 14.8 21.5 3.3 2.8 13.2 9.2 23.8 15.9 3 2 6.1 3.9 9.1 5.8 12 7.7 22.9 14.9 25.5 18.3 7.869 9.837 2.771 39.995-45.2 32.5z"/></g><g fill="#8A5D58"><path d="m422.5 454.9-12.3 20.4-14.5 10.7-13.8 3.4-15.1-.2c-1.6-.8-2.6-1.4-2.6-1.4-10.2-56.1 20.1-81.6 20.2-81.8 3.4 2.1 6 4.2 6 4.2l5.1-4.1 12.8-4.2h5l7.2 3.2 6.5 8.2 1.4 25.1-5.9 16.5zM383.7 405.3c.2.1.6.2.8.5-.1-.2-.5-.3-.8-.5z"/></g><g><path fill="#2D2D39" d="M353.1 405.2c2.2-9.2 1.4-14.4 1.4-14.5l3.7-.4c0 .5 1.1 3.6-1.3 13.5l-3.8 1.4z"/></g><g><path fill="#2D2D39" d="M367.9 403.5c-11.4.9-23.9 3.4-23.9 3.4.2-.2 34.6-18.6 49.4 3.6l-3.2 2.1c-5.4-8.1-14.1-9.8-22.3-9.1z"/></g><g><path fill="#2D2D39" d="M389.4 490.4c-13.9 0-18.2-21.6-18.4-22.6 0 0 8.006 21.029 20.506 18.729L389.4 490.4z"/></g><path fill="#2D2D39" d="M426.9 408.7c-2.8-5-7-7.9-12.3-8.5-17.084-1.817-32 16.91-32 19.6 0 0 16.2-17.4 31.4-15.8 4.1.5 7.2 2.7 9.5 6.7 5.1 9 4.6 26.5-1.3 38.9-8.3 17.6-16.8 30.6-31.2 37.1 0 0-.1 0-.1.1-.1 0-.2.1-.3.1-1.2.2-4.4.4-9 .5h-.8c-4.5.1-10.1.1-16.6.1-15.9 0-36.4-.3-54.6-.6-11.2-.2-31.8-.2-53.7-.2-21.9 0-42.5.1-53.7.2-18.2.2-38.7.5-54.6.6-6.4 0-12.1 0-16.6-.1h-.8c-4.6-.1-7.8-.3-9-.5-14.3-6.7-23.2-19.9-31.5-37.5-5.8-12.4-6.4-29.9-1.3-38.9 2.2-4 5.4-6.2 9.5-6.7 15.2-1.6 31.4 15.8 31.4 15.8 0-2.586-14.509-21.431-31.9-19.6-5.3.6-9.5 3.5-12.3 8.5-6.4 11.3-4.4 30.5 1.2 42.4 8.6 18.5 17.6 32.1 33.2 39 1.5.7 9.1.9 24.4.9 13.3 0 32.4-.2 58.5-.6 11.7-.2 32.1-.2 53.6-.2s42 .1 53.6.2c26.2.4 45.2.6 58.5.6 15.3 0 22.9-.2 24.4-.9 15.5-6.9 24.5-20.6 33.2-39 5.6-11.8 7.6-30.9 1.2-42.2z"/><g fill="#7C4C48"><path d="M404 445c3 3.2 2.6 11.6-1.2 18.7s-9.2 10.3-12.4 7.1c-3-3.2-2.6-11.6 1.2-18.7s9.3-10.3 12.4-7.1zM418.2 443.8c1.4 1.9.8 6.1-1.2 9.2-2 3.3-4.8 4.3-6.2 2.5-1.4-1.9-.8-6.1 1.2-9.2 2-3.2 4.8-4.4 6.2-2.5zM419.5 426.2c1.5 1.5 1.4 5.6-.5 9.1-1.8 3.5-4.6 5-6.1 3.4-1.5-1.5-1.4-5.6.5-9.1 1.9-3.4 4.6-4.9 6.1-3.4zM400.6 426.5c1.8 1.3 2 5.3.5 9s-4.1 5.7-5.8 4.6c-1.8-1.3-2-5.3-.5-9s4-5.9 5.8-4.6zM411.9 419.4c1.5 1.5 1.4 5.6-.5 9.1-1.8 3.5-4.6 5-6.1 3.4-1.5-1.5-1.4-5.6.5-9.1s4.6-5 6.1-3.4z"/></g><path fill="#9D706B" d="M337.1 401c-.2 0-3 .7-6.8 1.5 3.2-.8 6.1-1.8 8.8-2.8-1.2.9-1.9 1.4-2 1.3zM314.9 406.2h-2.6c1.5-.2 3.3-.4 5-.7-1.5.4-2.4.6-2.4.7zM301.4 406.1l-1.4-.4c.9.1 1.8.2 2.7.4h-1.3zM282.2 371.1l25.1-15.1 27.1-18.2s12.7 6.4 16.9 28.8c.391 1.468.496 3.319.594 4.709l.006.091c-18.6 19.2-44.3 34-73.9 18.8 0 0 3.7 10.2 17.1 14.4l-11.1-2.7-7.6-11.1v-12.1l5.8-7.6z"/><path fill="#8A5D58" d="M351.894 371.309c1.1 16-8.494 24.991-12.694 28.291-40.691 13.564-58.722 5.5-61.2-9.5 29.6 14.5 55.194.609 73.894-18.791z"/><path fill="#E0BCA2" d="M351.894 371.309c19.3-19.9 30.706-44.409 30.706-44.409 10.6 39.7-13 53.4-13.4 54.3-.2.7-9.3 10.9-30.1 18.5 4.3-3.2 12.694-12.591 12.794-28.391z"/><path fill="#F5A653" d="M320.1 405.2c-.9.1-1.9.4-2.8.5 3.2-.8 8.6-2 13.1-3-3.3.8-6.7 1.6-10.3 2.5zM302.8 406.2h9.5c-3.5.2-6.7.2-9.5 0zM300 405.7c-1.8-.2-3.5-.7-5-1.2l5 1.2z"/><path fill="#E0BCA2" d="m340.3 331.2-9.9 6.7c6.4-3.2 7.1-24.5 7.1-24.5l2.8 17.8z"/><g><path fill="#2D2D39" d="M337.9 331.8c.1-5.1-.4-18.6-.4-18.6.2.6 4.3 12.8 4.2 18.7l-3.8-.1z"/></g><g><path fill="#2D2D39" d="M276.2 374.9c2.6-3.4 13.4-10.6 25.5-18.3 3-2 6.1-3.9 9.1-5.8 10.6-6.7 20.6-13.1 23.8-15.9 7.051-5.966 14.69-21.28 14.8-21.5.855 8.383-8.863 22.358-13.6 25.2-4.2 3.3-13.1 8.9-23.1 15.3-2.7 1.8-5.6 3.6-8.5 5.5-11.4 7.4-22.8 14.9-25.1 17.9-4.753 6.535-3.16 29.361 32.7 27.4 40.291-2.442 74.565-33.399 73.5-62.3-.2-4.8-1.4-9.5-3.2-14.1-5.1-13.3-14.2-24.2-23.8-33.7.1-.1 1.1-.4 1.3-.5 1.1-.6.8-1.2 1.9-1.8 13.3 13.2 26.8 30.8 27.5 49.8.972 25.825-26.441 61.685-77.2 66.3-38.325 2.555-42.954-24.248-35.6-33.5z"/></g></svg>