<svg id="Layer_1" height="512" viewBox="0 0 128 128" width="512" xmlns="http://www.w3.org/2000/svg" data-name="Layer 1"><path d="m119.244 109.614-6.799-53.963-49.483-.212-7.262 53.903" fill="#f5d8af"/><path d="m119.243 110.614a1 1 0 0 1 -.991-.875l-6.69-53.092-47.726-.2-7.145 53.032a1 1 0 1 1 -1.982-.267l7.262-53.9a.976.976 0 0 1 1-.867l49.483.212a1 1 0 0 1 .988.875l6.8 53.963a1 1 0 0 1 -.867 1.117 1.1 1.1 0 0 1 -.132.002z" fill="#4d4d4d"/><path d="m56.257 35.412c5.985-6.4 17.378-8.348 17.378-8.348l9.375-1.605s11.392-1.951 19.165 2.089 14.32 21.6 13.235 32.066-6.983 18.417-9.138 23.924 7.7 20.464-9.918 23.481l-4.017.688-.131.022-4.017.688c-17.619 3.017-13.3-14.366-17.166-18.843s-12.073-10.015-16.578-19.52-4.173-28.246 1.812-34.642z" fill="#f1d7ad"/><path d="m59.894 79.9a40.025 40.025 0 0 1 -6.358-9.415c-4.517-9.533-4.359-28.958 1.99-35.758a20.211 20.211 0 0 1 3.631-3.035 41.285 41.285 0 0 1 14.307-5.61l9.372-1.6a41.348 41.348 0 0 1 15.3.51 20.415 20.415 0 0 1 4.491 1.674c7.125 3.7 15.086 20.4 13.774 33.059a39.251 39.251 0 0 1 -2.8 10.785l-.163.7-.667.117-.164-.982-.591.776-.637-.46.3-.728a37.455 37.455 0 0 0 2.732-10.415c1.006-9.714-5.211-27.184-12.709-31.082a18.491 18.491 0 0 0 -4.06-1.509 40.123 40.123 0 0 0 -14.472-.477l-9.37 1.6c-.076.012-7.709 1.36-13.534 5.3a18.245 18.245 0 0 0 -3.28 2.739c-5.77 6.179-5.821 24.722-1.644 33.537a38.117 38.117 0 0 0 6.05 8.948zm52.718-9.57v-.02zm-.163-.977.16.956z" fill="#4d4d4d"/><path d="m61.847 36.709a3.307 3.307 0 0 0 -5.222-3.244 43.4 43.4 0 0 0 -10.89 10.861c-7.183 10.474-6.845 22.935.215 28.216s3.615 13.621 9.264 16.658 6.719-14.685 4.415-25.146c-1.501-6.82.583-19.403 2.218-27.345z" fill="#f5d8af"/><path d="m56.441 90.536a3.594 3.594 0 0 1 -1.7-.46c-3.107-1.667-3.822-4.761-4.514-7.752-.734-3.171-1.493-6.45-4.876-8.981-7.68-5.745-7.873-18.739-.44-29.582a43.96 43.96 0 0 1 11.14-11.115 6.374 6.374 0 0 1 4.032-1.1 1 1 0 1 1 -.38 1.964 4.681 4.681 0 0 0 -2.5.773 41.967 41.967 0 0 0 -10.643 10.609c-6.711 9.789-6.716 21.834-.011 26.85 3.969 2.969 4.849 6.774 5.626 10.131.673 2.906 1.2 5.2 3.512 6.44a1.132 1.132 0 0 0 1.384-.008c2.755-2.083 3.6-14.89 1.582-24.04-.645-2.929-.712-7.122-.2-12.464a1 1 0 0 1 1.991.191c-.494 5.134-.44 9.118.16 11.842 1.827 8.3 1.831 22.921-2.328 26.066a3.008 3.008 0 0 1 -1.835.636z" fill="#4d4d4d"/><path d="m97.335 30.631a3.307 3.307 0 0 1 3.845-4.8c4.015 1.119 10.33-2.077 15.141 1.435 10.261 7.492 10.467 24.128 5.566 31.458s3.485 14.453-.833 19.192-11.223-11.613-12.53-22.244c-.852-6.922-7.005-18.095-11.189-25.041z" fill="#f5d8af"/><path d="m119.37 79.76a3.2 3.2 0 0 1 -.971-.156c-4.967-1.582-9.831-15.376-10.868-23.806-.341-2.768-1.615-6.543-3.789-11.22a1 1 0 0 1 1.814-.843c2.262 4.867 3.594 8.844 3.96 11.819 1.144 9.3 6.2 21.1 9.49 22.145a1.138 1.138 0 0 0 1.308-.452c1.588-1.743 1.083-3.855.126-7.157-.99-3.419-2.222-7.673.615-11.918 4.632-6.927 4.433-22.971-5.324-30.094-2.654-1.939-5.9-1.585-9.029-1.243a15.858 15.858 0 0 1 -5.791-.037 4.327 4.327 0 0 0 -2.511.013 1 1 0 0 1 -1.012-1.725 6.124 6.124 0 0 1 4.061-.214 14.557 14.557 0 0 0 5.036-.025c3.35-.365 7.146-.78 10.426 1.616 10.818 7.9 10.978 25.087 5.807 32.821-2.32 3.471-1.322 6.917-.357 10.25.912 3.147 1.855 6.4-.568 9.059a3.259 3.259 0 0 1 -2.423 1.167z" fill="#4d4d4d"/><path d="m73.253 79.894c.506-2.8 2.942-4.768 4.611-7.075a15.1 15.1 0 0 0 2.681-8.578c-.011-1.134-.905-3.291-.594-4.3.341-1.106 1.756-1.335 2.908-1.578.223-.047 2.427-.413 2.939-.469a2.536 2.536 0 0 1 2.457.625c.63.849.505 3.18.871 4.253a15.11 15.11 0 0 0 5.382 7.2c2.342 1.619 5.294 2.663 6.7 5.137 1.418 2.49.747 5.747-.895 8.095s-4.089 3.986-6.478 5.568a7.641 7.641 0 0 1 -2.453 1.228 2.842 2.842 0 0 1 -2.057-.275 2.842 2.842 0 0 1 -1.847.944 7.66 7.66 0 0 1 -2.726-.343c-2.779-.7-5.632-1.426-7.962-3.095s-4.046-4.517-3.537-7.337z" fill="#f2f2f2"/><path d="m84.933 73.146 2.756-.472c3.511-.6 6.084 2.265 4.4 4.9l-1.118 1.752a5.013 5.013 0 0 1 -6.921 1.185l-1.638-1.28c-2.464-1.925-.99-5.484 2.521-6.085z" fill="#4d4d4d"/><path d="m86.833 82.414a5.494 5.494 0 0 1 -3.4-1.113l-1.633-1.28a3.921 3.921 0 0 1 -1.488-4.121 5.358 5.358 0 0 1 4.452-3.738l2.756-.472a5.352 5.352 0 0 1 5.441 2.044 3.919 3.919 0 0 1 -.028 4.382l-1.119 1.752a5.711 5.711 0 0 1 -3.892 2.455 6.52 6.52 0 0 1 -1.089.091zm-1.733-8.283a3.374 3.374 0 0 0 -2.85 2.256 1.924 1.924 0 0 0 .777 2.058l1.638 1.281a3.71 3.71 0 0 0 2.917.623 3.765 3.765 0 0 0 2.545-1.559l1.119-1.752a1.924 1.924 0 0 0 .047-2.2 3.37 3.37 0 0 0 -3.438-1.179z" fill="#4d4d4d"/><path d="m87.883 81.304 1.442 8.42" fill="#f8c7c1"/><path d="m89.324 90.725a1 1 0 0 1 -.985-.831l-1.439-8.421a1 1 0 0 1 1.972-.338l1.442 8.421a1 1 0 0 1 -.817 1.154.985.985 0 0 1 -.173.015z" fill="#4d4d4d"/><path d="m86.358 91.3a19.89 19.89 0 0 1 -6.739-1.23 1 1 0 0 1 .674-1.883c6.033 2.164 11.535 1.218 16.814-2.89a1 1 0 1 1 1.228 1.578 19.253 19.253 0 0 1 -11.977 4.425z" fill="#4d4d4d"/><path d="m63.79 109.382 46.667.2c-.041-.859-.218-1.764-.35-2.638-.572-3.665-.806-8.925-5.443-9.728-3.3-.572-6.068 2.219-8.893 4a16.7 16.7 0 0 1 -20.048-2.166c-1.23-1.211-2.369-2.692-4.055-3.076-2.5-.584-4.829 1.591-5.969 3.892a22.445 22.445 0 0 0 -1.909 9.516z" fill="#f2f2f2"/><g fill="#4d4d4d"><path d="m66.832 93.629a.989.989 0 0 1 -.525-.15c-6.712-4.152-7.042-10.444-7.053-10.71a1 1 0 0 1 2-.085c.011.224.331 5.521 6.107 9.094a1 1 0 0 1 -.527 1.851z"/><path d="m111.334 86.008a1 1 0 0 1 -.778-1.627c4.251-5.283 2.7-10.378 2.633-10.592a1 1 0 0 1 1.9-.617c.083.255 1.977 6.306-2.977 12.463a1 1 0 0 1 -.778.373z"/><path d="m70.513 57.629c.488 1.041 1.473.287 2.515-.2s1.744-.524 1.256-1.565a2.082 2.082 0 1 0 -3.771 1.766z"/><path d="m71.227 59.152a1.7 1.7 0 0 1 -.561-.092 1.821 1.821 0 0 1 -1.059-1.007 3.083 3.083 0 0 1 5.583-2.615 1.994 1.994 0 0 1 .151 1.541 2.254 2.254 0 0 1 -1.428 1.155c-.142.059-.3.123-.461.2s-.311.153-.463.231a4.032 4.032 0 0 1 -1.762.587zm1.171-3.489a1.085 1.085 0 0 0 -.458.1 1.08 1.08 0 0 0 -.559 1.347 7.119 7.119 0 0 0 .694-.327c.173-.089.35-.18.529-.264s.372-.165.538-.234l.194-.082a1.089 1.089 0 0 0 -.938-.543z"/><path d="m91.325 52.318c-.1 1.145 1.129.989 2.274 1.092s1.771.424 1.874-.722a2.082 2.082 0 1 0 -4.148-.37z"/><path d="m94.739 54.528a5.442 5.442 0 0 1 -.73-.064c-.153-.02-.319-.042-.5-.058s-.346-.025-.517-.033a3.014 3.014 0 0 1 -2.256-.742 1.816 1.816 0 0 1 -.407-1.4 3.082 3.082 0 1 1 6.139.549 1.99 1.99 0 0 1 -.645 1.407 1.662 1.662 0 0 1 -1.084.341zm-2.4-2.219a7.066 7.066 0 0 0 .763.066c.2.01.394.021.59.039.211.019.405.044.583.067.065.009.139.019.21.027a1.082 1.082 0 0 0 -2.146-.2z"/></g><path d="m35.5 55.439-5.853-12.083a15.225 15.225 0 1 0 -5.047 3.851z" fill="#f2f2f2"/><g fill="#4d4d4d"><path d="m35.5 56.439a1 1 0 0 1 -.6-.2l-10.427-7.877a15.949 15.949 0 0 1 -6.331 1.308 16.165 16.165 0 1 1 12.684-6.17l5.574 11.5a1 1 0 0 1 -.9 1.436zm-10.9-10.232a1 1 0 0 1 .6.2l7.585 5.73-4.042-8.347a1 1 0 0 1 .139-1.086 14.226 14.226 0 1 0 -4.713 3.6 1.011 1.011 0 0 1 .431-.097z"/><path d="m17.509 35.44a1 1 0 0 1 -1-1v-10.133a1 1 0 0 1 2 0v10.133a1 1 0 0 1 -1 1z"/><path d="m17.509 41.862a1 1 0 0 1 -1-1v-1.44a1 1 0 0 1 2 0v1.44a1 1 0 0 1 -1 1z"/></g></svg>