<svg height="512" viewBox="0 0 311.495 311.495" width="512" xmlns="http://www.w3.org/2000/svg"><circle cx="155.748" cy="155.748" fill="#d0df92" r="134.02"/><path d="M160.825 220.142c-2.73 3.156-4.361 6.954-5.056 10.807-.525 2.897-.553 5.846-.188 8.76.551 4.373 1.973 8.685 4.106 12.733a41.324 41.324 0 0 0 8.528 11.085c3.523 3.241 7.731 5.944 12.526 7.697a35.323 35.323 0 0 0 11.631 2.146c6.185.099 12.776-1.419 19.38-4.769 6.614-3.351 13.263-8.494 19.886-15.694 5.022-5.461 10.038-12.112 15.027-20.128 2.217-3.563 4.462-6.507 6.669-8.905 2.975-3.235 5.873-5.475 8.553-6.956 4.033-2.217 7.535-2.779 10.529-2.471a13.22 13.22 0 0 1 7.615 3.433 13.92 13.92 0 0 1 3.921 6.361c.723 2.502.819 5.305.011 8.333a7 7 0 1 0 13.52 3.634c1.469-5.452 1.353-10.939-.089-15.878a27.908 27.908 0 0 0-7.886-12.754 27.188 27.188 0 0 0-9.814-5.793c-5.553-1.865-11.942-1.946-18.277.127-6.349 2.063-12.604 6.195-18.388 12.486-2.864 3.114-5.622 6.763-8.251 10.986-4.598 7.39-9.114 13.341-13.444 18.047-5.077 5.521-9.891 9.323-14.278 11.808-3.293 1.865-6.344 2.997-9.151 3.597-4.213.891-7.896.627-11.252-.389-3.347-1.021-6.376-2.847-8.96-5.223a27.332 27.332 0 0 1-5.138-6.434c-2.033-3.508-3.125-7.3-3.211-10.438-.05-1.572.139-2.972.501-4.14.365-1.174.885-2.115 1.577-2.921a7 7 0 0 0-10.597-9.147z" fill="#fbb807"/><path d="M297.484 236.208c1.469-5.452 1.353-10.939-.089-15.878a27.908 27.908 0 0 0-7.886-12.754 27.188 27.188 0 0 0-9.814-5.793c-5.553-1.865-11.942-1.946-18.277.127l-.107.039c2.017 4.203 3.558 8.63 4.647 13.215 2.368-.741 4.521-.916 6.459-.717a13.22 13.22 0 0 1 7.615 3.433 13.92 13.92 0 0 1 3.921 6.361c.723 2.502.819 5.305.011 8.333a7 7 0 0 0 4.943 8.577 6.999 6.999 0 0 0 8.577-4.943z" fill="#fffcc8"/><path d="M270.904 200.37c3.063 0 6.031.486 8.791 1.413a27.188 27.188 0 0 1 9.814 5.793 27.908 27.908 0 0 1 7.886 12.754c1.441 4.938 1.558 10.426.089 15.878a7.003 7.003 0 0 1-8.577 4.944 7 7 0 0 1-4.943-8.577c.809-3.028.712-5.831-.012-8.333a13.91 13.91 0 0 0-3.92-6.361 13.23 13.23 0 0 0-7.615-3.433 14.826 14.826 0 0 0-1.523-.078c-2.64 0-5.638.698-9.006 2.549-2.68 1.481-5.578 3.721-8.553 6.956-2.207 2.398-4.452 5.343-6.669 8.905-4.989 8.016-10.005 14.667-15.027 20.128-6.623 7.2-13.271 12.344-19.886 15.694-6.402 3.247-12.793 4.773-18.812 4.773a35.349 35.349 0 0 1-12.199-2.151c-4.795-1.753-9.003-4.456-12.526-7.697a41.303 41.303 0 0 1-8.528-11.085c-2.134-4.049-3.556-8.36-4.106-12.733-.364-2.914-.337-5.862.188-8.76.694-3.853 2.325-7.65 5.056-10.807a6.985 6.985 0 0 1 5.302-2.426 7 7 0 0 1 5.296 11.574c-.692.806-1.212 1.747-1.577 2.921-.362 1.168-.551 2.567-.501 4.14.086 3.139 1.178 6.93 3.211 10.438a27.328 27.328 0 0 0 5.137 6.434c2.585 2.376 5.614 4.201 8.961 5.223 1.96.593 4.031.93 6.255.93 1.583 0 3.244-.171 4.997-.541 2.808-.6 5.858-1.731 9.151-3.597 4.388-2.484 9.201-6.286 14.278-11.808 4.33-4.706 8.847-10.657 13.444-18.047 2.629-4.224 5.387-7.872 8.251-10.986 5.783-6.291 12.039-10.423 18.388-12.486a30.44 30.44 0 0 1 9.485-1.541m0-3c-3.488 0-6.994.567-10.419 1.688-7.029 2.284-13.646 6.763-19.664 13.308-3.026 3.291-5.916 7.138-8.589 11.432-4.281 6.88-8.69 12.802-13.105 17.602-4.527 4.923-9.086 8.7-13.549 11.228-2.821 1.599-5.614 2.699-8.3 3.273a21.277 21.277 0 0 1-4.37.475c-1.844 0-3.605-.262-5.386-.801-2.818-.86-5.444-2.396-7.799-4.561a24.396 24.396 0 0 1-4.568-5.722c-1.712-2.955-2.735-6.241-2.812-9.023-.037-1.183.09-2.274.367-3.17.234-.753.549-1.344.987-1.854 3.599-4.169 3.134-10.496-1.04-14.099a10 10 0 0 0-14.103 1.035c-2.918 3.373-4.902 7.604-5.737 12.234-.558 3.074-.63 6.327-.213 9.664.588 4.671 2.078 9.299 4.43 13.761a44.142 44.142 0 0 0 9.149 11.893c4.024 3.702 8.576 6.497 13.528 8.308a38.272 38.272 0 0 0 13.229 2.334c6.714 0 13.5-1.716 20.169-5.099 7.09-3.591 14.066-9.088 20.736-16.338 5.257-5.716 10.426-12.638 15.366-20.573 2.014-3.236 4.144-6.083 6.33-8.46 2.547-2.77 5.17-4.909 7.797-6.361 2.622-1.441 5.166-2.175 7.554-2.175.405 0 .814.021 1.216.063a10.189 10.189 0 0 1 5.897 2.661 10.907 10.907 0 0 1 3.065 4.985c.616 2.134.614 4.396-.007 6.722-.692 2.575-.34 5.271.994 7.585s3.489 3.971 6.069 4.664c.85.229 1.725.344 2.6.344 4.512 0 8.48-3.045 9.653-7.406 1.569-5.827 1.533-11.878-.106-17.497a30.912 30.912 0 0 0-8.734-14.121 30.035 30.035 0 0 0-10.896-6.431c-3.093-1.04-6.372-1.568-9.739-1.568z" fill="#740806"/><g><path d="M290.886 138.777c-2.725-4.653-7.207-8.206-13.773-9.537l-.011-.002-.012-.002-15.506-2.795c5.045-6.224 7.162-11.847 7.165-16.643.007-4.663-2.04-8.472-5.13-11.035-3.089-2.569-7.191-3.942-11.407-3.944-3.429 0-6.941.922-10.016 2.896-3.073 1.972-5.695 5.002-7.315 9.139l-.103.261 3.241 18.563c-1.276.926-2.284 2.102-3.048 3.39-1.316 2.221-1.991 4.737-2.356 6.896a30.072 30.072 0 0 0-.393 3.905l-38.083-8.668-.195.033c-3.854.652-6.648 2.123-8.534 4.188-7.244-4.438-16.326-7.206-27.798-7.203-1.638 0-3.35.102-5.045.201-.277.008-5.033.162-11.452 2.465-2.681-2.274-6.588-4.09-12.065-5.437l-.243-.06-54.398 13.944c-.04-1.424-.214-3.814-.9-6.355-.412-1.517-1.007-3.086-1.884-4.524-.762-1.247-1.761-2.383-3.019-3.281l3.24-18.562-.107-.266c-1.669-4.128-4.286-7.156-7.347-9.128-3.061-1.974-6.551-2.897-9.979-2.897-4.208.002-8.31 1.378-11.399 3.951-3.09 2.566-5.141 6.38-5.133 11.047.001 4.235 1.656 9.122 5.521 14.486l.25.347.423.059c4.902.685 8.563 1.955 11.197 3.651l.006.003c2.824 1.791 4.575 4.11 5.502 6.514l.005.012.004.01c.631 1.53.825 3.191.825 4.919.003 3.499-1.052 6.882-2.114 9.292-.599 1.298-1.097 2.392-1.48 3.161l-.342.685.571.509c1.717 1.527 2.921 3.11 3.762 4.881l.004.01.005.01c1.018 2.036 1.394 4.172 1.395 6.253.001 3.182-1.035 6.314-2.654 8.981-1.609 2.65-3.884 4.826-6.519 6.236l-.007.004-.006.004c-1.648.915-3.473 1.373-5.415 1.374h-1.42l-.16.805c-.074.37-.227.76-.473 1.174-.415.656-.978 1.228-1.847 1.755a.546.546 0 0 1-.267.07.639.639 0 0 1-.479-.248l-.059-.222a.642.642 0 0 1 .285-.521l-.001-.001c.3-.2.573-.388.828-.61.231-.202.447-.452.617-.75l.006.004.061-.106.001-.001a2.71 2.71 0 0 0 .406-1.448c-.003-.539-.14-1.031-.313-1.501a9.097 9.097 0 0 0-.618-1.295 8.384 8.384 0 0 0-.678-.993l-.09-.114v-.112l-.294-.293c-.09-.096-.104-.153-.109-.249-.002-.109.054-.28.21-.436.096-.09.154-.105.25-.11.107-.001.271.055.424.202.13.154.623.752 1.189 1.559.327.493.604 1.12.894 1.895l.244.648h1.492c1.68.001 3.351-.452 4.971-1.317a15.19 15.19 0 0 0 4.376-3.519l.006-.007.006-.006v-.001c2.543-2.873 4.235-6.767 4.241-10.751.001-1.948-.435-3.894-1.286-5.806l-.01-.021-.01-.021c-.965-1.936-2.371-3.654-4.351-5.317l-.011-.01-.011-.009c-4.117-3.267-10.797-5.794-20.801-6.511-.259-.026-.481-.271-.51-.543a.616.616 0 0 1 .573-.46c7.566.594 13.418 2.17 17.643 4.378.867.481 1.646.969 2.442 1.466l.933.583.492-.983c.28-.563.796-1.49 1.223-2.549l.008-.02.004-.007c1.03-2.387 2.066-5.669 2.071-8.972 0-1.579-.211-3.1-.76-4.536h.001l-.004-.01-.004-.012h-.001c-.553-1.542-1.453-2.88-2.726-4.148-2.297-2.294-6.003-4.154-11.731-5.177l-.032-.006-15.187-1.721-.153.031c-3.336.666-6.156 2.087-8.47 4.047-3.474 2.942-5.806 7.058-7.277 11.643-1.47 4.588-2.086 9.663-2.087 14.604.001 4.46.503 8.812 1.354 12.604l.001.004c2.73 12.022 7.828 18.883 13.59 22.651 5.757 3.771 12.053 4.426 17.085 4.427 1.641-.001 3.249-.102 4.5-.101h.021l.021-.001c8.305-.359 18.142-2.734 28.131-5.998 9.755-3.19 19.636-7.235 28.313-11.112.024.789.035 1.766.035 2.888 0 4.523-.162 11.366-.162 17.891 0 3.885.058 7.656.242 10.781v.001l.001.011c.197 4.137.88 7.988 1.944 11.479l-14.741 36.514c-7.475-4.322-13.841-5.954-19.306-5.953-7.644-.003-13.222 3.266-16.83 6.505-3.538 3.174-5.239 6.315-5.345 6.512-.194.333-1.857 3.249-1.863 7.438-.002 2.248.493 4.859 1.965 7.555 2.207 4.05 6.572 8.244 14.543 11.876 7.977 3.635 19.581 6.734 36.42 8.609l.613.068 32.855-50.57-1.024-.493c-2.009-.971-3.934-2.191-5.681-3.716 2.866 1.927 6.6 3.747 11.396 4.984l.014.004.013.003c4.887 1.12 10.059 1.626 15.224 1.626a75.819 75.819 0 0 0 20.877-2.939l.004-.001c9.703-2.83 15.861-7.202 19.725-11.334a24.764 24.764 0 0 1-1.705 2.112c-3.088 3.378-6.993 5.787-10.8 7.445l-1.082.472 33.979 52.307.612-.067c22.45-2.473 35.6-7.142 43.234-12.383 3.814-2.621 6.246-5.398 7.713-8.103 1.469-2.703 1.962-5.32 1.961-7.572-.006-4.198-1.665-7.114-1.842-7.421-.108-.199-1.809-3.339-5.346-6.511-3.608-3.239-9.187-6.508-16.83-6.505-5.463-.001-11.825 1.629-19.296 5.946l-16.194-41.312c.007-.07.017-.146.03-.243.021-.148.046-.349.055-.579.035-.262.854-6.395.854-15.306 0-6.813-.479-15.242-2.167-23.898l-.003-.014-.003-.013a82.62 82.62 0 0 0-2.761-9.585c1.822 3.846 3.074 7.902 3.906 11.812l.095.443.396.221c6.93 3.866 14.818 7.813 22.883 10.874 8.052 3.056 16.276 5.235 23.928 5.55l.03.002h.007c1.354.103 2.952.102 4.54.102 5.081-.001 11.379-.655 17.124-4.427 5.75-3.77 10.819-10.63 13.55-22.651l.002-.007v-.001c.85-3.876 1.374-8.024 1.375-12.12-.001-5.787-1.042-11.484-3.775-16.136zM45.38 177.823v.002z" fill="#fbb807"/><g fill="#f28a1c"><path d="M101.512 170.519s-45.2 13.101-54.899 13.9l-1.2.9c-.7.399-1.601.199-2.101-.5-.1-.101-.1-.2-.1-.301-15.6-.5-27.3-12.399-29.7-27.1-.1-.1-.2-.3-.399-.4.199 3.301.6 6.601 1.3 9.4 5.399 23.7 19.8 26.3 29.7 26.3 1.6 0 3.199-.1 4.5-.1 16.3-.7 39.1-9.4 56.699-17.3 1.7-7.101 14.2-26.601 14.2-26.601s-11.1-5.698-18 21.802zM252.212 95.819c-.9 0-1.8.1-2.7.3 4.601 5.5 7.4 12.5 7.7 20.1.2 3.4-.4 6.7-1.5 9.9 1.4.2 2.8.5 4.1 1 16.1-18.7 4.7-31.3-7.6-31.3zM124.311 239.719c-.6 1.5-26.3 38.8-26.3 38.8s-28-24.5-43-15c-24.6 15.601 24.358 30.858 24.358 30.858 5.9 1.4 14.941 2.342 23.142 3.242l31.9-49.101c-3.899-1.898-7.399-4.698-10.1-8.799zM276.912 130.22l-16.3-2.9c.1.1.199.1.399.2 12.7 2.1 16.2 5.8 16.2 5.8s12.1 38.1-5.6 52.8c-5.101 2.2-11.801 2.2-18.4.899-23.3-4.8-38-14.3-38-14.3s-5.9-20.399-18.8-25.399c0 0 23.5 56.6-8.601 84.6-10 8.8-26.399 12.5-39.699 12.5-8.4 0-16.301-2.1-23.4-5.8v.1c2.8 3.101 7.8 7 16.1 9.3 4.801 1.101 9.9 1.601 15 1.601 7 0 14-1 20.601-2.9 22.6-6.6 25.3-21.5 25.3-21.5l18.6 35.9-6.8 10.5c39.3-24.2 40.5-5.9 40.5-5.9s-21.3 2.2-30.399 14c-9.101 11.8-6.4 18-6.4 18 66.4-7.3 50.3-34 50.3-34s-6.6-12.5-21.3-12.5c-5.5 0-12 1.7-19.8 6.4l-16.7-42.601c0-.399.1-.699.1-1.1 0 0 2.601-18.9-1.3-38.9-2.7-12.1-7.399-20-7.399-20 5.8 6.2 8.899 14.301 10.5 21.801 13.8 7.699 31.6 17.3 46.699 17.899 1.301.101 8.601-.5 8.601-.2 9.399-.899 22.1-6.199 26.7-26.6 3.197-14.6.398-34.2-16.702-37.7z"/></g><path d="M292.012 136.919c-3.3-5.1-8.2-8.3-14.5-9.6l-12.3-2.2c7.4-10.6 5.9-18.2 4.1-22.1-2.8-6.2-9.5-10.1-17.1-10.1-8.6 0-15.9 5.1-19.2 13.3l-.3.8.1.8 2.9 17.1c-3.8 3.4-5 8.9-5.4 12.5l-35.6-8.1-.6-.1-.601.1c-3.5.6-6.3 1.8-8.5 3.6-7.7-4.4-17-6.7-27.5-6.7-1.7 0-3.399.1-5.2.2-.699 0-5.1.2-11 2.2-3-2.2-7-3.9-11.899-5.2l-.7-.2-.7.2-51.8 13.4c-.4-3.7-1.7-9.1-5.4-12.4l2.9-17.1.1-.8-.3-.8c-3.3-8.2-10.7-13.3-19.2-13.3-7.6 0-14.3 4-17.1 10.1-1.7 3.6-3.1 10.7 3 20.4l-9.8-1.1-.5-.1-.5.1c-5.8 1.2-10.5 4.4-13.8 9.6-6.7 10.4-6.5 25.7-4.2 35.7 2.5 11.3 7.399 19.3 14.399 23.899 6.5 4.301 13.5 4.801 18.2 4.801 1.601 0 3.101-.101 4.4-.101h.3c16.1-.7 38.3-8.899 55.7-16.6-1.4 8.8-1.8 18.5-1.2 29.1.2 3.9.8 7.7 1.8 11.3l-13.3 33.9c-6.4-3.4-12.5-5.1-18.3-5.1-15.9 0-23.3 12.899-23.9 14-.5.899-4.3 8-.3 16.199 5.6 11.5 23.4 18.9 52.8 22.2l1.8.2 1-1.6 32-49.2c5.801 1.7 12.2 2.5 18.801 2.5 8.8 0 17.6-1.5 25.699-4.3l33.101 51 1 1.6 1.8-.2c29.4-3.2 47.2-10.7 52.8-22.2 4-8.199.3-15.3-.3-16.199-.6-1.2-8-14-23.9-14-5.699 0-11.899 1.699-18.199 5.1l-15.2-38.8v-.3c.2-1.9 2-16.5-.3-33.5 13.3 7.199 30.5 14.8 45.5 15.399h.3c1.3.101 2.8.101 4.399.101 4.7 0 11.7-.5 18.2-4.801 7-4.6 11.9-12.6 14.4-23.899 1.5-5.798 3.8-20.399-2.9-30.699zm.2 30c-5.4 23.7-19.8 26.3-29.7 26.3-1.6 0-3.2-.1-4.5-.1-15.1-.601-32.6-8.601-46.399-16.3-1.601-7.5-4.7-15.601-10.5-21.801 0 0 4.699 7.9 7.399 20 4 20 1.3 38.9 1.3 38.9 0 .4 0 .7-.1 1.1l16.7 42.601c7.8-4.7 14.3-6.4 19.8-6.4 14.7 0 21.3 12.5 21.3 12.5s16.2 26.601-50.3 34l-33-50.8c7.8-3.5 16.1-9.9 17.4-21.6 0 0-2.7 14.899-25.301 21.5a74.865 74.865 0 0 1-20.6 2.899c-5.1 0-10.1-.5-15-1.6-15-4-19.2-13.601-19.2-13.601 2.5 7.2 7.4 11.601 12.8 14.2l-31.8 48.9c-66.399-7.3-50.3-34-50.3-34s6.6-12.5 21.3-12.5c5.5 0 12 1.7 19.8 6.399l14.9-37.899c-1.1-3.5-1.8-7.4-2-11.601-.8-13.5.2-24.699 2.2-33.899 2.7-11.601 7.2-19.101 7.2-19.101-5.5 5.801-8.5 13.301-10.2 20.4-17.601 7.9-40.5 16.6-56.7 17.3-1.3.101-2.9.101-4.5.101-10 0-24.3-2.601-29.7-26.301-3.3-14.699-1.3-38.2 15.7-41.7l15 1.7c5.6 1 9.1 2.8 11.2 4.9 1.2 1.2 2 2.5 2.5 3.8.5 1.4.7 2.8.7 4.2 0 3.1-1 6.2-2 8.6-.4 1-.801 1.801-1.2 2.5-.8-.5-1.601-1-2.5-1.5-4.4-2.3-10.3-3.899-18.101-4.5-.8-.1-1.5.6-1.6 1.4s.6 1.5 1.4 1.6c10 .801 16.399 3.301 20.3 6.301 2 1.5 3.3 3.199 4.1 5 .9 1.8 1.2 3.6 1.2 5.399 0 3.7-1.6 7.4-4 10.101-1.2 1.399-2.6 2.5-4.1 3.3s-3 1.2-4.5 1.2h-.801c-.3-.801-.6-1.5-1-2.101-.6-1-1.199-1.6-1.3-1.7-.6-.6-1.5-.6-2.1-.1-.601.6-.601 1.5-.101 2.1 0 0 .5.5.9 1.301.5.699.8 1.6.8 2.3 0 .399-.1.7-.3 1s-.5.7-1.2 1.1-1 1.3-.5 2.101c.4.699 1.3 1 2.101.5 1-.601 1.699-1.301 2.199-2.101.301-.5.5-1 .601-1.5h.6c2.101 0 4.101-.6 5.9-1.5 2.8-1.399 5.1-3.8 6.899-6.6 1.7-2.8 2.801-6.101 2.801-9.5 0-2.2-.5-4.5-1.5-6.7-.9-1.8-2.2-3.6-4-5.2.399-.8 1-1.8 1.5-3.2 1.1-2.6 2.199-6 2.199-9.7 0-1.7-.3-3.5-.899-5.3-1-2.6-2.9-5.1-5.9-7-2.8-1.8-6.6-3.1-11.6-3.8-12.101-16.8-1.4-27.9 10.2-27.9 6.5 0 13.3 3.5 16.399 11.4l-3 18.9c6.3 3.9 5.9 15 5.9 15l55.3-14.3c5.7 1.4 9.6 3.4 12.1 5.6 6.7-2.5 11.7-2.6 11.7-2.6 1.7-.1 3.4-.2 5-.2 11.7 0 20.9 2.8 28 7.5 1.7-2.2 4.4-3.8 8.5-4.5l39.101 8.9s-.5-11.1 5.899-15l-3.3-18.9c3.2-7.9 9.9-11.4 16.4-11.4 11.699 0 22.5 11.4 9.699 28.5-6.6 1-11 3.1-13.8 5.8-1.5 1.5-2.6 3.2-3.2 4.9-.699 1.7-.899 3.5-.899 5.3 0 3.7 1.1 7.2 2.2 9.7.6 1.3 1.1 2.4 1.5 3.2-1.801 1.6-3.101 3.3-4 5.2-1.101 2.199-1.5 4.5-1.5 6.699 0 4.5 1.899 8.9 4.699 12.101 1.4 1.6 3.101 3 4.9 3.899 1.8 1 3.8 1.5 5.9 1.5h.6c.1.5.3 1 .6 1.5.5.801 1.2 1.5 2.2 2.101.7.399 1.601.2 2.101-.5s.199-1.601-.5-2.101c-.601-.399-1-.699-1.2-1.1-.2-.3-.3-.6-.3-1 0-.7.399-1.7.899-2.4.2-.399.5-.699.601-.899l.199-.2v-.1c.601-.601.5-1.5-.1-2.101-.6-.6-1.5-.5-2.1.101 0 0-.601.699-1.301 1.699-.399.601-.699 1.301-1 2.101h-.8c-1.5 0-3-.4-4.5-1.2-2.2-1.1-4.3-3.1-5.7-5.5-1.5-2.4-2.399-5.1-2.399-7.9 0-1.8.399-3.6 1.2-5.399 1.3-2.601 3.6-5.101 7.6-7.2 3.9-2 9.5-3.6 16.9-4.2.8-.1 1.399-.8 1.399-1.6s-.8-1.4-1.6-1.4c-9.3.7-16 2.9-20.601 6-.399-.7-.8-1.6-1.3-2.7-1-2.3-1.899-5.399-1.899-8.299 0-1.5.199-2.9.699-4.2.801-2 2.2-3.9 4.7-5.5 2.101-1.3 5.101-2.5 9.101-3.2l15.399 2.7c17.507 3.701 19.007 22.2 15.707 36.9z" fill="#740806"/><path d="M180.112 163.919c.199-23.5-12.2-27.8-25.801-27.8-16.5 0-33.399 27.3-32.199 66.1.699 21.7 12.1 34.5 31.1 34s28-13.5 27.3-29.2z" fill="#fffcc8"/></g><g><path d="M211.484 63.817c24.846-25.983 5.293-51.276 5.293-51.276L182.99 32.506c-21.976-8.56-40.332-5.247-53.284.295L95.42 12.541s-19.622 25.384 5.429 51.417c-7.071 15.944-16.043 37.661-14.496 41.969 1.179 3.286 3.554 3.842 5.958 2.316-.55 3.764-.28 7.405 1.762 9.906 1.984 2.43 4.141 2.458 5.833.816 11.709 16.633 53.426 30.091 53.426 30.091s46.39-10.005 59.555-29.413c1.527.892 3.306.536 4.962-1.493 2.042-2.501 2.313-6.142 1.762-9.906 2.404 1.526 4.779.969 5.958-2.316 1.11-3.094-7.23-25.038-14.085-42.111z" fill="#fbb807"/><path d="m156.272 48.541 17.494-15.249c4.128 1.673 7.368 2.952 7.368 2.952s17.393 12.491 23.22 49.489c9.36 2.576 14.687 6.736 17.672 10.621a233.992 233.992 0 0 0-2.448-7.218c-2.73-7.676-6.271-16.754-9.485-24.76l-.36-.897.668-.699c4.708-4.925 7.745-9.781 9.615-14.409 1.868-4.629 2.572-9.036 2.573-13.084.001-6.268-1.702-11.68-3.439-15.554a38.016 38.016 0 0 0-2.81-5.192l-33.214 19.627-.68-.265c-6.505-2.534-12.661-3.984-18.448-4.656a.163.163 0 0 1 .013.006c-5.798 5.971-7.739 19.288-7.739 19.288z" fill="#f28a1c"/><path d="M204.353 85.733c-9.208-2.535-22.314-3.537-40.933-1.231 0 0-.822-24.198-11.396-24.198s-11.881 24.238-11.881 24.238c-40.277-4.634-56.291 14.42-53.791 21.386 1.179 3.286 3.554 3.842 5.958 2.316-.55 3.764-.28 7.405 1.762 9.906 1.984 2.43 4.141 2.458 5.833.816 22.237 27.417 53.426 30.091 53.426 30.091s43.663-5.346 59.555-29.413c1.527.892 3.306.536 4.962-1.493 2.042-2.501 2.313-6.142 1.762-9.906 2.404 1.526 4.779.969 5.958-2.316.016-.045.029-.108.041-.182.31-2.017-1.448-14.562-21.256-20.014z" fill="#fffcc8"/><path d="M207.085 86.565s5.949 4.392 6.662 9.025c1.003 6.517-6.416 3.564-6.416 3.564 8.554 15.505-2.851 15.327-2.851 15.327-17.822 26.02-50.792 29.941-50.792 29.941S128.737 141.927 101 120.26c22.152 26.19 52.332 28.795 52.332 28.795s43.663-5.346 59.555-29.413c1.527.892 3.306.536 4.962-1.493 2.042-2.501 2.313-6.142 1.762-9.906 2.404 1.526 4.779.969 5.958-2.316.434-1.209-.583-13.339-18.484-19.362z" fill="#e5ba97"/><g fill="#740806"><path d="M166.219 53.074c6.075-5.311 15.195-6.115 22.115-.202a24.608 24.608 0 0 1 3.986 4.34c.549.765 1.598.128 1.318-.8-1.652-5.474-5.418-13.426-13.509-14.726-7.417-1.191-12.39 5.249-15.059 10.191-.445.826.474 1.788 1.149 1.197zM118.288 55.633a20.668 20.668 0 0 1 3.62-3.431c6.133-4.517 13.391-2.856 17.767 2.481.487.593 1.318-.163 1.038-.941-1.673-4.655-5.057-10.878-11.135-10.595-6.63.308-10.421 6.962-12.274 11.638-.314.795.47 1.468.984.848z"/><path d="M191.815 75.06c-.326-10.989-7.364-19.7-15.726-19.45-8.359.247-14.871 9.356-14.549 20.345.043 1.463.209 2.884.478 4.25a24.842 24.842 0 0 1-.126-1.848c-.297-10.116 5.697-18.5 13.391-18.727 7.697-.229 14.176 7.788 14.475 17.902.2 6.747-2.412 12.709-6.451 16.009 2.927-1.811 5.314-4.831 6.808-8.565 1.178-2.944 1.805-6.329 1.7-9.916z"/></g><path d="M189.757 77.532c-.299-10.114-6.778-18.131-14.475-17.902-7.694.228-13.688 8.611-13.391 18.727.019.625.062 1.241.126 1.848.516 4.854 2.468 9.098 5.251 12.004 2.504 2.615 5.68 4.148 9.1 4.048 2.56-.077 4.924-1.072 6.938-2.717 4.039-3.299 6.651-9.261 6.451-16.008z" fill="#fff"/><path d="M180.831 78.772c-.116-4.297-2.615-7.703-5.585-7.606-2.969.097-5.281 3.659-5.167 7.957.007.265.024.527.049.785.199 2.062.952 3.865 2.026 5.1.966 1.111 2.192 1.762 3.511 1.72.988-.033 1.9-.455 2.677-1.155 1.559-1.401 2.566-3.934 2.489-6.801z" fill="#bccf00"/><path d="M178.946 78.833c-.075-2.79-1.698-5.002-3.626-4.938-1.927.063-3.429 2.376-3.355 5.166.005.172.015.342.032.51.129 1.339.618 2.51 1.316 3.312.627.721 1.423 1.144 2.28 1.117.641-.021 1.233-.296 1.738-.75 1.011-.911 1.665-2.555 1.615-4.417z" fill="#740806"/><path d="M175.482 73.881a2.372 2.372 0 0 0-.069.634 2.436 2.436 0 0 0 2.525 2.344c.22-.008.428-.055.629-.117a2.436 2.436 0 0 0 1.561-1.461 2.435 2.435 0 0 0-2.356-3.29l-.016-.001a2.43 2.43 0 0 0-2.274 1.891zM142.501 77.567a27.598 27.598 0 0 0-.114-1.594c-.917-9.577-6.715-16.911-13.452-16.661-7.103.264-12.553 8.868-12.168 19.215.309 8.241 4.227 15.086 9.397 17.404 1.321.593 2.722.905 4.169.851a9.151 9.151 0 0 0 1.308-.145c6.454-1.198 11.221-9.367 10.86-19.07z" fill="#fff"/><path d="M116.767 78.527c-.385-10.346 5.064-18.95 12.168-19.215 6.736-.251 12.535 7.084 13.452 16.661l-.001-.212c-.414-11.093-6.926-19.856-14.543-19.573-7.619.284-13.459 9.509-13.046 20.601.218 5.867 2.152 11.065 5.045 14.635 1.795 2.216 3.957 3.797 6.323 4.506-5.171-2.317-9.089-9.163-9.398-17.403z" fill="#740806"/><path d="M136.93 79.028c-.118-4.39-2.672-7.87-5.706-7.77-3.033.099-5.395 3.738-5.279 8.129.007.271.024.539.05.802.203 2.107.973 3.949 2.07 5.211.987 1.135 2.239 1.801 3.587 1.757 1.009-.033 1.941-.465 2.735-1.18 1.593-1.433 2.622-4.021 2.543-6.949z" fill="#bccf00"/><path d="M135.004 79.09c-.077-2.85-1.735-5.11-3.705-5.045-1.969.064-3.503 2.427-3.427 5.278.005.176.016.35.032.521.132 1.368.632 2.564 1.344 3.383.641.737 1.454 1.169 2.329 1.141.655-.022 1.26-.302 1.776-.766 1.034-.93 1.702-2.61 1.651-4.512z" fill="#740806"/><path d="M131.465 74.031a2.478 2.478 0 0 0-.071.648 2.489 2.489 0 0 0 2.58 2.395c.225-.008.437-.056.643-.12a2.47 2.47 0 0 0 1.752-2.46 2.488 2.488 0 0 0-2.564-2.394l-.016-.001a2.483 2.483 0 0 0-2.324 1.932z" fill="#fff"/><g fill="#e93e8f"><path d="M125.671 93.759c0-1.782-4.253-3.227-9.499-3.227-5.247 0-9.501 1.445-9.501 3.227 0 1.781 4.253 3.226 9.501 3.226 5.245 0 9.499-1.444 9.499-3.226zM200.879 93.759c0-1.782-4.253-3.227-9.499-3.227-5.247 0-9.501 1.445-9.501 3.227 0 1.781 4.253 3.226 9.501 3.226 5.245 0 9.499-1.444 9.499-3.226z"/></g><path d="M151.272 89.538c-30.159 0-7.507 12.816 0 12.816s30.159-12.816 0-12.816z" fill="#e93e8f"/><path d="M147.223 92.75c-.699-.327-1.661-.529-2.723-.529-1.37 0-2.572.337-3.26.844-.385.283-.61.619-.61.981 0 1.008 1.733 1.824 3.87 1.824s3.87-.817 3.87-1.824c0-.507-.439-.966-1.147-1.296z" fill="#fff"/><path d="M208.509 60.016s-5.525-12.119-14.257-19.96l22.347-18.604c-.001 0 10.623 21.812-8.09 38.564zM95.652 22.803c-1.7 5.119-7.433 22.878 8.579 37.213 0 0 3.494-8.466 7.776-14.431z" fill="#fffcc8"/><path d="M145.311 48.274s-10.426-9.891-9.327-18.149l8.257-2.257c-1.068 5.97 1.07 20.406 1.07 20.406z" fill="#f28a1c"/><g><path d="M222.917 99.27c-.261-.903-.563-1.884-.891-2.916-2.985-3.885-8.312-8.044-17.672-10.621-5.827-36.998-23.22-49.489-23.22-49.489s-3.24-1.279-7.368-2.952l-17.494 15.249s1.941-13.317 7.738-19.287l-.013-.006a66.833 66.833 0 0 0-7.684-.467c-10.128 0-18.898 2.353-26.017 5.399l-.699.299-33.739-19.937c-.099.151-.196.298-.31.48a38.804 38.804 0 0 0-2.418 4.528c-1.765 3.886-3.522 9.37-3.521 15.736.001 4.067.711 8.496 2.599 13.149 1.889 4.652 4.96 9.533 9.721 14.482l.699.727-.409.922c-2.85 6.425-6.007 13.787-8.651 20.548-2.643 6.751-4.774 12.939-5.555 16.847-.224 1.11-.335 2.032-.333 2.664 0 .11.003.209.009.296l.001.014.001.015.02.213.001.009.001.007c.02.138.046.232.05.238l-.005-.014.006.017c.32.895.713 1.44 1.059 1.735.353.292.644.39 1.039.397.417.002.985-.156 1.644-.576l2.761-1.751-.474 3.235a20.64 20.64 0 0 0-.233 2.974c0 1.178.129 2.276.403 3.245.275.971.689 1.809 1.269 2.52l-.073-.089.073.089c.456.559.887.918 1.251 1.125.367.208.658.274.925.275.42-.002.888-.175 1.451-.712l1.327-1.288.986 1.565c3.27 5.191 8.011 9.625 13.354 13.342 5.34 3.717 11.271 6.713 16.865 9.057 10.881 4.562 20.457 6.654 21.99 6.971l.033-.005a112.708 112.708 0 0 0 3.94-.643 149.783 149.783 0 0 0 10.738-2.369c8.652-2.242 19.614-5.931 28.771-11.602 6.108-3.778 11.395-8.427 14.734-14.04l.761-1.277 1.284.75c.32.184.591.254.863.255.267-.002.559-.068.927-.276.365-.208.797-.567 1.253-1.127.58-.711.994-1.55 1.269-2.521.275-.969.404-2.067.403-3.246 0-.95-.083-1.951-.233-2.973l-.473-3.235 2.761 1.751c.66.419 1.227.578 1.644.576.395-.008.685-.105 1.039-.397.344-.293.734-.835 1.054-1.72l.006-.034c.006-.048.013-.132.012-.243.003-.434-.099-1.232-.313-2.238a52.12 52.12 0 0 0-.937-3.65z" fill="none"/><path d="M226.791 102.3c-.824-3.889-2.886-10.084-5.455-17.132-2.463-6.749-5.387-14.236-8.11-21.034 4.568-4.931 7.644-9.87 9.57-14.64 2.02-5.001 2.792-9.811 2.791-14.207-.001-6.923-1.899-12.812-3.79-16.977-1.893-4.167-3.783-6.62-3.835-6.687l-.81-1.048-34.317 20.279c-9.541-3.622-18.444-5.074-26.523-5.074-10.264 0-19.194 2.315-26.49 5.347l-34.78-20.553-.81 1.048c-.052.068-1.942 2.521-3.834 6.687-1.89 4.165-3.788 10.054-3.789 16.977-.001 4.417.778 9.251 2.82 14.277 1.943 4.786 5.046 9.741 9.651 14.687-3.168 7.17-6.662 15.378-9.416 22.656-1.434 3.792-2.667 7.326-3.549 10.344-.441 1.509-.795 2.889-1.042 4.119-.246 1.232-.39 2.306-.392 3.255 0 .154.005.307.014.459h-.001l.001.01.001.019h.001c.008.163.023.334.052.515h-.001l.002.011.001.006c.038.244.088.501.191.791.449 1.248 1.079 2.265 1.929 2.997a4.543 4.543 0 0 0 2.992 1.12c.249 0 .494-.028.738-.064-.015.316-.039.633-.039.947 0 1.393.149 2.761.516 4.061.366 1.298.958 2.531 1.833 3.601.639.783 1.331 1.4 2.088 1.833.754.433 1.584.672 2.412.67a4.615 4.615 0 0 0 2.113-.529c3.612 5.237 8.488 9.622 13.832 13.27 8.683 5.923 18.577 9.948 26.317 12.514 7.74 2.564 13.325 3.662 13.37 3.671l.238.047.241-.031c.06-.009 11.512-1.472 24.795-5.926 6.643-2.229 13.746-5.204 20.126-9.152 6.001-3.716 11.355-8.312 15.04-13.993.334.079.675.13 1.023.129.828.002 1.659-.237 2.414-.67.758-.433 1.45-1.051 2.09-1.835.875-1.071 1.466-2.304 1.832-3.602.367-1.3.516-2.668.516-4.062 0-.313-.024-.63-.039-.945.244.036.489.064.738.064a4.543 4.543 0 0 0 2.992-1.12c.851-.732 1.482-1.75 1.93-2.998.157-.454.184-.851.188-1.276-.002-.809-.142-1.734-.376-2.856zm-2.635 3.101-.006.034c-.32.886-.71 1.427-1.054 1.72-.353.293-.644.39-1.039.397-.417.002-.984-.156-1.644-.576l-2.761-1.751.473 3.235c.15 1.022.233 2.023.233 2.973 0 1.178-.129 2.276-.403 3.246-.275.971-.689 1.81-1.269 2.521-.456.56-.888.919-1.253 1.127-.368.208-.66.274-.927.276-.272-.002-.543-.071-.863-.255l-1.284-.75-.761 1.277c-3.339 5.613-8.625 10.262-14.734 14.04-9.157 5.671-20.119 9.36-28.771 11.602a149.115 149.115 0 0 1-10.738 2.369 112.708 112.708 0 0 1-3.94.643l-.033.005c-1.532-.318-11.109-2.409-21.99-6.971-5.594-2.344-11.525-5.34-16.865-9.057-5.342-3.716-10.084-8.151-13.354-13.342l-.986-1.565-1.327 1.288c-.563.538-1.031.71-1.451.712-.266-.002-.557-.068-.925-.275-.364-.207-.795-.566-1.251-1.125l-.073-.089.073.089c-.58-.711-.994-1.55-1.269-2.52-.274-.969-.403-2.067-.403-3.245 0-.95.083-1.952.233-2.974l.474-3.235-2.761 1.751c-.66.419-1.228.578-1.644.576-.395-.008-.686-.105-1.039-.397-.346-.295-.739-.839-1.059-1.735l-.006-.017.005.014a1.602 1.602 0 0 1-.05-.238l-.001-.007-.001-.009-.02-.213-.001-.015-.001-.014a4.352 4.352 0 0 1-.009-.296c-.002-.632.109-1.554.333-2.664.781-3.908 2.912-10.097 5.555-16.847 2.644-6.76 5.801-14.122 8.651-20.548l.409-.922-.699-.727c-4.762-4.949-7.832-9.83-9.721-14.482-1.888-4.652-2.599-9.082-2.599-13.149-.001-6.367 1.756-11.851 3.521-15.736a38.957 38.957 0 0 1 2.418-4.528c.114-.182.211-.329.31-.48l33.739 19.937.699-.299c7.12-3.046 15.889-5.399 26.017-5.399 2.478 0 5.046.161 7.684.467 5.788.672 11.943 2.122 18.448 4.656l.68.265 33.214-19.627a38.19 38.19 0 0 1 2.81 5.192c1.737 3.874 3.44 9.286 3.439 15.554-.001 4.048-.705 8.455-2.573 13.084-1.87 4.628-4.907 9.484-9.615 14.409l-.668.699.36.897c3.215 8.006 6.756 17.084 9.485 24.76a228.745 228.745 0 0 1 2.448 7.218c.329 1.033.63 2.013.891 2.916.407 1.404.726 2.639.939 3.649.215 1.006.316 1.805.313 2.238 0 .111-.007.195-.013.243z" fill="#740806"/><g fill="#740806"><path d="M92.91 119.098v-.001zM84.942 106.437l-.001-.002v-.001z"/></g></g><path d="M143.557 31.916s-2.154.094-3.341 1.374c-1.061 1.143-1.635 5.09 2.672 5.482 5.52.503 15.963-5.426 14.881-10.655-.603-.36-19.379-13.362-22.344-6.284-1.034 2.468.113 5.292 1.96 6.994 2.507 2.311 6.172 3.089 6.172 3.089z" fill="#fbb807"/><path d="M153.283 35.268c-2.987 2.083-6.851 3.534-9.71 3.534-.236 0-.465-.01-.686-.03-4.307-.392-3.732-4.339-2.671-5.482 1.188-1.279 3.341-1.374 3.341-1.374s-3.665-.778-6.173-3.089c-1.847-1.702-2.993-4.527-1.96-6.995.633-1.509 1.984-2.105 3.726-2.105 6.423 0 18.251 8.838 18.726 9.121 0 0 2.799-.226 2.58-1.287l-.245-1.181-1.035-.619-.201-.134c-5.966-3.943-14.247-8.644-19.824-8.644-4.063 0-5.663 2.375-6.257 3.79-1.597 3.812.172 7.805 2.632 10.072a13.537 13.537 0 0 0 2.004 1.516c-.802 1.422-1.152 3.463-.422 5.368.825 2.155 2.842 3.531 5.531 3.776.301.027.615.041.935.041 3.715 0 10.129-5.43 9.709-6.278z" fill="#740806"/><g fill="#740806"><path d="M157.667 123.186c0 6.405-3.415 11.598-7.627 11.598s-7.627-5.192-7.627-11.598c0-6.404 3.415-11.597 7.627-11.597s7.627 5.193 7.627 11.597z"/><path d="M149.04 138.6c-1.225-.002-2.394-.37-3.518-1.091-1.682-1.077-3.23-2.983-4.334-5.475-1.107-2.489-1.771-5.545-1.77-8.848-.004-4.404 1.186-8.368 3.011-11.135.91-1.385 1.972-2.467 3.094-3.187 1.125-.721 2.294-1.089 3.518-1.091a1.5 1.5 0 0 0 0-3c-1.847-.002-3.605.577-5.141 1.567-2.31 1.491-4.159 3.874-5.453 6.78-1.292 2.91-2.028 6.362-2.029 10.065.004 4.938 1.304 9.43 3.504 12.784 1.103 1.676 2.437 3.07 3.977 4.062 1.537.991 3.294 1.569 5.141 1.568a1.5 1.5 0 0 0 0-2.999z"/></g></g></svg>