<svg height="512" viewBox="0 0 321 321" width="512" xmlns="http://www.w3.org/2000/svg"><circle cx="160.5" cy="160.5" fill="#d0df92" r="134.02"/><path d="M171.031 241.994c2.093 3.609 2.988 7.645 2.952 11.558-.024 2.945-.547 5.847-1.448 8.643-1.357 4.193-3.557 8.164-6.409 11.744a41.328 41.328 0 0 1-10.445 9.301c-4.067 2.527-8.704 4.397-13.742 5.226a35.34 35.34 0 0 1-11.828-.06c-6.094-1.056-12.287-3.776-18.151-8.299-5.873-4.525-11.446-10.818-16.611-19.126-3.916-6.303-7.603-13.772-11.01-22.577-1.514-3.914-3.171-7.225-4.891-9.993-2.32-3.733-4.75-6.473-7.107-8.428-3.549-2.93-6.884-4.136-9.883-4.39-3-.241-5.755.488-8.123 1.952a13.907 13.907 0 0 0-5.038 5.518c-1.178 2.324-1.795 5.059-1.564 8.186a7 7 0 0 1-13.961 1.049c-.427-5.63.711-11 3.048-15.583a27.907 27.907 0 0 1 10.125-11.06 27.197 27.197 0 0 1 10.722-3.862c5.804-.797 12.096.315 17.934 3.533 5.852 3.211 11.228 8.438 15.736 15.697 2.233 3.594 4.263 7.692 6.057 12.331 3.14 8.118 6.468 14.807 9.844 20.238 3.959 6.37 7.979 11.004 11.826 14.263 2.888 2.446 5.674 4.126 8.321 5.239 3.973 1.66 7.641 2.088 11.127 1.716 3.478-.379 6.795-1.607 9.777-3.46a27.32 27.32 0 0 0 6.246-5.363c2.652-3.067 4.432-6.589 5.102-9.657.342-1.534.418-2.944.28-4.161-.141-1.221-.475-2.242-1.005-3.163a7 7 0 0 1 2.553-9.565 7 7 0 0 1 9.566 2.553z" fill="#fbb807"/><path d="M33.772 232.296c-.427-5.63.711-11 3.048-15.583a27.907 27.907 0 0 1 10.125-11.06 27.197 27.197 0 0 1 10.722-3.862c5.804-.797 12.096.315 17.934 3.533l.098.059c-2.765 3.754-5.105 7.814-7.03 12.116-2.189-1.17-4.272-1.743-6.212-1.908-3-.241-5.755.488-8.123 1.952a13.907 13.907 0 0 0-5.038 5.518c-1.178 2.324-1.795 5.059-1.564 8.186a7 7 0 0 1-13.96 1.049z" fill="#fffcc8"/><path d="M55.513 202.172a27.46 27.46 0 0 1 2.154-.381c5.804-.797 12.096.315 17.934 3.533 5.852 3.211 11.228 8.438 15.737 15.696 2.233 3.594 4.263 7.692 6.057 12.331 3.14 8.118 6.468 14.807 9.844 20.238 3.959 6.37 7.979 11.004 11.826 14.263 2.888 2.446 5.674 4.126 8.321 5.239 3.973 1.66 7.641 2.088 11.127 1.716a21.597 21.597 0 0 0 2.272-.371c2.65-.579 5.179-1.644 7.504-3.089a27.298 27.298 0 0 0 6.246-5.363c2.652-3.067 4.432-6.589 5.102-9.657.342-1.534.418-2.944.28-4.161-.141-1.221-.475-2.242-1.005-3.163a7 7 0 1 1 12.117-7.012c2.093 3.609 2.988 7.645 2.952 11.558-.024 2.945-.547 5.847-1.448 8.643-1.357 4.193-3.557 8.164-6.409 11.744a41.328 41.328 0 0 1-10.445 9.301c-3.568 2.217-7.575 3.929-11.906 4.875a35.418 35.418 0 0 1-13.663.291c-6.094-1.056-12.287-3.776-18.151-8.299-5.873-4.525-11.446-10.818-16.611-19.126-3.916-6.303-7.603-13.772-11.01-22.577-1.514-3.914-3.171-7.225-4.891-9.993-2.32-3.733-4.75-6.473-7.107-8.428-3.549-2.93-6.884-4.136-9.883-4.39a13.432 13.432 0 0 0-3.96.258 13.274 13.274 0 0 0-4.162 1.694 13.907 13.907 0 0 0-5.038 5.518c-1.178 2.324-1.795 5.059-1.564 8.186a7 7 0 1 1-13.961 1.049c-.427-5.63.711-11 3.048-15.583a27.907 27.907 0 0 1 10.125-11.06 27.28 27.28 0 0 1 8.568-3.48m-.64-2.93a30.15 30.15 0 0 0-9.511 3.864 30.9 30.9 0 0 0-11.215 12.247c-2.657 5.212-3.822 11.15-3.365 17.169.413 5.496 5.222 9.634 10.721 9.221.469-.035.937-.104 1.394-.204 4.835-1.056 8.2-5.578 7.829-10.518-.177-2.396.243-4.62 1.249-6.605a10.901 10.901 0 0 1 3.945-4.325 10.283 10.283 0 0 1 3.219-1.311 10.488 10.488 0 0 1 3.08-.199c2.782.237 5.473 1.451 8.213 3.714 2.304 1.912 4.482 4.504 6.468 7.699 1.705 2.743 3.266 5.936 4.641 9.491 3.374 8.718 7.162 16.483 11.26 23.078 5.201 8.367 11.031 15.069 17.328 19.92 6.107 4.71 12.658 7.698 19.47 8.878a38.28 38.28 0 0 0 14.816-.316c4.491-.981 8.814-2.75 12.85-5.258a44.136 44.136 0 0 0 11.206-9.977c3.144-3.947 5.47-8.217 6.918-12.693 1.033-3.204 1.569-6.413 1.594-9.541.044-4.701-1.117-9.228-3.356-13.088a9.967 9.967 0 0 0-10.787-4.761 9.995 9.995 0 0 0-2.875 1.116 9.94 9.94 0 0 0-4.654 6.077 9.937 9.937 0 0 0 1.006 7.587c.332.577.531 1.215.622 2.004.105.927.026 2.023-.228 3.166-.596 2.732-2.214 5.77-4.442 8.347a24.421 24.421 0 0 1-5.559 4.776c-2.097 1.303-4.305 2.213-6.562 2.706-.648.142-1.306.249-1.957.321-3.241.346-6.398-.145-9.645-1.503-2.525-1.062-5.064-2.664-7.538-4.76-3.914-3.315-7.688-7.877-11.218-13.557-3.443-5.539-6.67-12.179-9.593-19.737-1.825-4.717-3.947-9.035-6.308-12.832-4.69-7.552-10.357-13.186-16.842-16.744-6.262-3.452-13.105-4.792-19.785-3.875-.796.108-1.601.25-2.389.423z" fill="#740806"/><g><path d="M284.29 172.776c-.9-1.5-1.7-2.6-2.4-3.4-.3-.4-.6-.7-.8-.9-.1-.1-.1-.1-.1-.2-.3-1-2.4-8.2-8.7-15.8-6.7-8.1-18.1-16.7-36.8-18.4-9.5-.9-28.6-1.2-49.3-1.2-28.6 0-60.2.7-73.3 1.7-18.7 1.4-30.3 9.8-37.1 17.8-6.4 7.5-8.6 14.6-8.9 15.6l-.1.1c-.3.3-.9 1-1.6 1.9-2.1 2.8-5.4 8-5.4 14.8 0 4.6 1.5 9.9 5.8 15.6 2 2.7 4.9 4.5 8.1 5.6 3.3 1.1 6.9 1.5 10.5 1.5 4.3 0 8.5-.6 11.9-1.6 1.7-.5 3.2-1 4.4-1.7 1.2-.6 2.2-1.3 2.8-2.1 1.8-2.4 2.2-5.4 2.2-8 0-2.3-.4-4.3-.5-5.2 1.8-2.7 3-4.9 3.8-6.7s1.2-3.3 1.2-4.5c0-.8-.2-1.5-.5-2.1-.3-.5-.7-.9-1.1-1.3h.8c4.6 0 12.6.4 19 .8-3.4 9.5-4.5 19.6-4.5 28.5 0 3.9.2 7.5.5 10.7-13.9 4.1-23.1 9.2-28.9 14.6-5.9 5.6-8.3 11.7-8.3 17.7 0 4.8 1.5 9.5 3.7 13.9 3.3 6.5 8.2 12.2 12.2 16.3 2.2 2.2 4.1 3.9 5.5 5.1-4.5.6-8.1 1.6-11.2 2.9-5.3 2.3-8.6 5.5-10.6 9-1.9 3.5-2.5 7.1-2.5 10.1 0 2.1.3 4 .5 5.4.1.7.3 1.2.4 1.6.1.2.1.4.1.5v.1l.1.9 57.9-2.1-.2-1.2c-.1-.4-.7-4-.7-9.3 0-5.9.8-13.8 4.2-21.7 3.3-7.8 9-15.4 18.9-21 3.8.6 7.8.8 11.7.8 3.5 0 7-.2 10.5-.7 9.6 5.6 15.1 13.1 18.4 20.7 3.3 7.7 4.1 15.5 4.1 21.4 0 3.1-.2 5.7-.5 7.5-.1.9-.2 1.6-.3 2.1 0 .2-.1.4-.1.5v.1l-.2 1.1 57.9 3 .1-.9c0-.1.1-.4.2-.9.4-1.4 1-4 1-7.1 0-4.1-1-9.1-4.9-13.4-3.6-4-9.5-7.2-19-8.6 2.2-1.8 6.1-5.2 10-9.6 3-3.4 5.9-7.3 8.2-11.7 2.2-4.3 3.8-9.1 3.8-13.9 0-5.8-2.2-11.8-7.9-17.4-5.5-5.4-14.3-10.5-27.5-14.8v-2.1c-.4-16.7-3.3-29.4-7.6-39.2 4.9-.2 10.1-.4 13.9-.4h2.4c-.2.2-.4.3-.6.5-.6.7-1.1 1.6-1 2.9 0 1.2.4 2.6 1.1 4.5.8 1.8 1.9 3.9 3.7 6.6-.2.9-.6 3-.6 5.5s.4 5.4 2.1 7.7c.6.9 1.6 1.6 2.9 2.2 1.9 1 4.5 1.8 7.4 2.5 2.9.6 6.2 1 9.5 1 3.5 0 7-.4 10.1-1.5s6-2.8 7.9-5.3c4.4-5.8 6-11.2 6-15.9-.2-4.5-2-8.6-3.7-11.5z" fill="#fbb807"/><g fill="#f28a1c"><path d="M249.89 193.976c-.1-2.9 5.6-9.3 7.1-11.6-18.2-6.3-10.8-21.4-10.8-21.4l-31.8-.4c3 4.3 7.5 9 9.3 13.9 4.7-.2 9.7-.4 13.3-.4h2.4c-.2.2-.4.3-.6.5-.6.7-1.1 1.6-1 2.9 0 1.2.4 2.6 1.1 4.5.8 1.8 1.9 3.9 3.7 6.6-.2.9-.6 3-.6 5.5s.4 5.4 2.1 7.7c.6.9 1.6 1.6 2.9 2.2 1.9 1 4.5 1.8 7.4 2.5 2.9.6 6.2 1 9.5 1 3.5 0 7-.4 10.1-1.5s6-2.8 7.9-5.3c1.4-1.8 2.5-3.7 3.4-5.4-9.9 9.2-35 6.7-35.4-1.3zM209.29 309.176c0 .2-.1.4-.1.5v.1l-.2 1.1 17.6.9c6.7-34.4-15.2-58.1-15.2-58.1s15-5 12.8-17.6c0 0-14.3 15-43.1 15.6-27.4.6-47.2-22.4-48.9-48.9-1.2-18.2 5.3-43.3 5.3-43.3-.3 0-5.7 9.3-5.7 9.3-1.5.3-3.4 6.4-3.4 6.4-3.4 9.5-4.5 19.6-4.5 28.5 0 3.9.2 7.5.5 10.7-13.9 4.1-23.1 9.2-28.9 14.6-5.9 5.6-8.3 11.7-8.3 17.7 0 4.8 1.5 9.5 3.7 13.9 3.3 6.5 8.2 12.2 12.2 16.3 2.2 2.2 4.1 3.9 5.5 5.1-4.5.6-8.1 1.6-11.2 2.9-5.3 2.3-8.6 5.5-10.6 9-1.9 3.5-2.5 7.1-2.5 10.1 0 2.1.3 4 .5 5.4.1.7.3 1.2.4 1.6.1.2.1.4.1.5v.1l.1.9 9.5-.3c-.9-2-1.5-4.1-1.6-6.4-.4-8.3 7.3-15.3 15.4-15.4h15.3c-6-8.3-11.6-16.9-16.8-25.7-6.9-11.8 4.5-25.7 17.3-22.6 13.4 3.2 27.8 8.2 39.2 16.1.6-.3 1.1-.7 1.7-1 3.8.6 7.8.8 11.7.8 3.5 0 7-.2 10.5-.7 9.6 5.6 15.1 13.1 18.4 20.7 3.3 7.7 4.1 15.5 4.1 21.4 0 3.1-.2 5.7-.5 7.5-.1 1.1-.2 1.8-.3 2.3zM96.09 205.876c1.7-.5 3.2-1 4.4-1.7 1.2-.6 2.2-1.3 2.8-2.1 1.6-2.2 2.1-4.9 2.2-7.4 0 0-17.1 16.1-32.1.9-11.8-11.9 2.5-24.8 2.5-24.8s5.8-2 11.5-1.7c-12.6-34.9 60.8-34.3 61.6-35.9-15.4.3-28.8.8-36.2 1.3-18.7 1.4-30.3 9.8-37.1 17.8-6.4 7.5-8.6 14.6-8.9 15.6l-.1.1c-.3.3-.9 1-1.6 1.9-2.1 2.8-5.4 8-5.4 14.8 0 4.6 1.5 9.9 5.8 15.6 2 2.7 4.9 4.5 8.1 5.6 3.3 1.1 6.9 1.5 10.5 1.5 4.4.1 8.6-.5 12-1.5z"/></g><path d="M153.903 172.241c-1.314-23.466 10.978-28.305 24.514-28.994 16.541-.775 34.652 25.729 35.187 64.476.379 21.73-10.528 34.927-29.56 35.408-19.028.381-28.66-12.192-28.665-27.904z" fill="#fffcc8"/><path d="M283.39 167.176c-.7-2.1-3.1-8.9-9-16.1-6.4-7.7-18.1-17.3-38.2-19.1-11.7-1.1-36-1.2-49.5-1.2-29.7 0-60.6.7-73.5 1.7-20.1 1.5-32 10.9-38.5 18.5-6.1 7.1-8.6 14-9.2 15.9l-.1.1c-9.2 10.8-9.6 23.1-1.1 34.6 3.8 5.1 11 7.9 20.2 7.9 7.8 0 17.7-2.2 20.8-6.2 3.4-4.5 2.7-11.1 2.2-14 3.8-6 5.3-9.9 4.7-12.8 3.9.1 8.9.4 13.6.6-.7 2.1-1.3 4.2-1.7 6.5-2.3 10.5-2.3 21.1-1.7 29.4-22 6.8-34.3 16.7-36.7 29.4-2.9 15.8 10.7 31.1 18.5 38.4-8.3 1.7-14.3 5.2-18 10.5-3.9 5.6-4.8 12.9-2.7 20.8l.3 2.6 2.8-.1 55.8-2 3.5-.1-.7-3.5c0-.1-1.7-8.8.2-19.4 2.4-13.5 9.4-23.6 20.6-30.2 3.7.5 7.5.8 11.3.8 3.4 0 6.8-.2 10.1-.6 26.9 16.3 20.1 49.6 20 49.9l-.7 3.4 3.5.2 55.8 2.9 2.8.1.3-2.6c2.3-7.8 1.4-15.2-2.4-20.8-3.5-5.3-9.5-8.9-17.8-10.8 7.9-7.2 21.8-22.2 19.2-38-2.1-12.5-13.8-22.5-35-29.7v-.7c-.3-10.2-1.5-19.5-3.6-27.8-.7-3.3-1.8-6.5-3.1-9.5 3.9-.1 7.2-.2 9.7-.3-.6 2.9.8 6.9 4.5 12.9-.6 2.9-1.4 9.4 2 14 3 4.1 13.2 6.5 21.4 6.5 8.9 0 15.9-2.7 19.6-7.6 9.1-11.3 8.9-23.6-.2-34.5zm-1.8 32.7c-3.6 4.7-10.5 6.4-17.3 6.4-8.6 0-17.1-2.7-18.9-5.3-2.4-3.3-2-8.2-1.6-10.9.5.7 1.3 1.4 2.6 1.9-.2-1.5-2.6-3.2-1.2-8.9 0 0-1.5 1.6-2 3.6-7.4-12-2.5-11.9-.5-13.3.6-.4-1.6-.6-5.2-.6-3.4 0-7.9.1-12.3.3-2.7-5.2-6.4-9.8-11.5-13.8 0 0 4.5 5.4 8.6 14.5 4.4 9.8 7.5 22.6 7.9 39.6v2.8c71.8 23.1 11.9 67.4 11.9 67.4 33.4 3.5 24.2 28.5 24.2 29.1l-55.8-2.9s7.2-33.4-18.9-51.5c5.6-1.2 11.3-3.3 16.2-6.9 0 0-7.8 3.5-19.4 4.8-.1 0-.1-.1-.2-.1-2.5.3-5.1.6-7.6.7h-4.2c-.6 0-1.1 0-1.7-.1-14.4-.8-24.5-5.3-24.5-5.3 3.9 2.9 8.3 4.8 12.8 6.1-27.4 17.5-20.6 51.7-20.6 51.7l-55.8 2c-.1-.6-8.8-25.7 24.6-28.7 0 0-60-45.9 14.4-67.6-1-10.8-1.1-26.7 4.3-40.8 3.5-9.6 7.7-15.4 7.7-15.4-5 4.4-8.4 9.6-10.7 15.2-6.1-.4-13.1-.7-17.3-.7-2.6 0-4.1.1-3.6.5 2.1 1.5 7 1.4-.9 13.6-.3-2.2-2.1-4.2-2.1-4.2 1.4 5.7-1 7.4-1.2 8.9 1.4-.6 2.3-1.4 2.8-2.2.4 2.5.9 8-1.7 11.4-1.9 2.5-10 5-18.4 5-7 0-14.1-1.7-17.8-6.7-13.4-18 1.7-31.1 1.5-31.5 0 0 8.3-30 45.2-32.8 13-1 44.6-1.7 73.2-1.7 20.7 0 39.8.4 49.2 1.2 36.8 3.4 44.6 33.5 44.6 33.5 0 .6 14.9 13.9 1.2 31.7z" fill="#740806"/><g><path d="M104.211 78.917C74.962 58.015 89.463 29.523 89.463 29.523l36.914 13.324c19.997-12.502 38.649-12.666 52.407-9.633l29.913-26.29s24.007 21.286 4.24 51.528c9.917 14.349 22.775 34.015 22.059 38.536-.547 3.448-2.776 4.437-5.423 3.385 1.242 3.595 1.653 7.223.113 10.061-1.496 2.757-3.61 3.187-5.579 1.888-8.406 18.523-46.888 39.513-46.888 39.513s-47.441-1.191-63.99-17.809c-1.335 1.161-3.148 1.142-5.153-.543-2.472-2.077-3.416-5.604-3.576-9.405-2.078 1.947-4.515 1.843-6.285-1.166-1.667-2.831 2.441-25.944 5.996-43.995z" fill="#fbb807"/><path d="M115.299 99.121c-1.165-37.436 13.598-52.947 13.598-52.947s2.945-1.86 6.689-4.272l20.028 11.725s-4.387-12.723-11.195-17.509a190.126 190.126 0 0 0 3.868-2.651 69.49 69.49 0 0 0-6.976 2.103c-5.644.512-7.658 2.413-8.369 3.594a80.774 80.774 0 0 0-6.565 3.684L89.463 29.523s-14.501 28.492 14.748 49.394c-3.497 17.752-7.523 40.384-6.07 43.825-.68-1.926-1.286-14.577 17.158-23.621z" fill="#f28a1c"/><path d="M178.165 85.993s-5.798-23.57-16.188-21.601c-10.389 1.969-6.69 25.897-6.69 25.897-18.722 1.202-31.412 4.627-39.987 8.832-18.444 9.044-17.838 21.695-17.158 23.62.025.07.05.131.074.172 1.771 3.009 4.207 3.113 6.285 1.166.16 3.8 1.104 7.328 3.576 9.405 2.005 1.685 3.818 1.704 5.153.543 20.096 20.687 63.99 17.809 63.99 17.809s30.146-8.435 46.888-39.513c1.969 1.299 4.083.869 5.579-1.888 1.54-2.838 1.129-6.466-.113-10.061 2.646 1.052 4.876.063 5.423-3.385 1.159-7.31-18.123-23.048-56.832-10.996z" fill="#fffcc8"/><path d="M112.77 100.448s-5.027 5.423-4.865 10.108c.229 6.59 6.968 2.308 6.968 2.308-5.518 16.827 5.656 14.527 5.656 14.527 22.354 22.246 55.479 19.958 55.479 19.958s24.05-7.098 47.268-33.551c-16.888 29.857-46.055 38.037-46.055 38.037s-43.895 2.878-63.99-17.809c-1.335 1.161-3.148 1.142-5.153-.543-2.472-2.077-3.416-5.604-3.576-9.405-2.078 1.947-4.515 1.843-6.285-1.166-.653-1.106-1.914-13.213 14.553-22.464z" fill="#e5ba97"/><path d="M106.426 74.629s3.172-12.936 10.291-22.266l-25.42-14.117c0-.001-6.376 23.408 15.129 36.383zM210.38 17.05c2.624 4.713 11.563 21.093-1.499 38.16 0 0-5.01-7.667-10.327-12.731z" fill="#fffcc8"/><path d="M166.333 51.323s8.401-11.66 5.784-19.568l-8.533-.68c2.162 5.666 2.749 20.248 2.749 20.248z" fill="#f28a1c"/><path d="m104.211 78.917.872-1.22C97.92 72.575 93.519 67.053 90.88 61.652c-2.636-5.401-3.511-10.702-3.512-15.394-.001-4.65.866-8.693 1.733-11.561a36.167 36.167 0 0 1 1.185-3.345c.16-.386.292-.681.382-.876l.102-.215.024-.049.005-.009-.159-.08.159.081v-.001l-.159-.08.159.081-1.337-.68-.509 1.411 37.6 13.572.618-.387c13.278-8.298 25.87-11.031 36.811-11.035 5.247 0 10.112.633 14.478 1.595l.742.164 30.484-26.792-.99-1.127-.995 1.122.002.002c.109.097 3.025 2.74 5.883 7.355 2.862 4.619 5.658 11.18 5.657 19.181-.004 6.696-1.94 14.438-7.562 23.047l-.552.844.573.829c4.666 6.751 9.983 14.68 14.207 21.621 2.112 3.469 3.951 6.692 5.292 9.375.67 1.341 1.215 2.546 1.606 3.565.392 1.015.623 1.855.687 2.385l.002.017.001.008.02.209v.024l.002.112-.006.132c-.171 1.081-.518 1.715-.846 2.047-.334.327-.654.461-1.2.473-.363.001-.819-.085-1.342-.294l-3.04-1.208 1.068 3.092c.643 1.856 1.029 3.681 1.027 5.297-.001 1.346-.258 2.533-.814 3.559-.402.743-.821 1.206-1.179 1.464-.364.258-.651.338-.97.342-.346 0-.775-.12-1.285-.455l-1.544-1.019-.678 1.721c-2.318 5.893-6.328 11.287-11.078 16.043-7.122 7.137-15.887 12.82-22.861 16.694a134.115 134.115 0 0 1-8.686 4.427 98.208 98.208 0 0 1-3.203 1.416l-.17.07-.052.021.558 1.392-.09-1.497-.085.005c-.415.022-2.325.115-5.265.115-6.27.001-17.231-.428-28.328-2.849-5.547-1.209-11.126-2.917-16.162-5.295-5.038-2.377-9.524-5.422-12.938-9.282l-.985-1.113-1.122.976c-.378.318-.69.432-1.084.438-.475.003-1.195-.221-2.12-.997-.983-.827-1.703-1.972-2.204-3.403-.5-1.426-.764-3.121-.839-4.917l-.138-3.268-2.387 2.236a3.895 3.895 0 0 1-1.003.705 1.903 1.903 0 0 1-.804.196c-.306-.004-.594-.081-.96-.33-.361-.25-.784-.694-1.2-1.403l-.245.144.256-.123-.011-.021-.245.144.256-.123-.002-.005a2.874 2.874 0 0 1-.123-.634c-.04-.354-.062-.825-.062-1.383-.001-1.7.204-4.199.565-7.184 1.082-8.971 3.543-22.38 5.786-33.761l.187-.948-.786-.562-.869 1.221-1.472-.29c-1.499 7.61-3.096 16.118-4.321 23.648-.612 3.765-1.132 7.285-1.5 10.334-.367 3.051-.585 5.619-.586 7.543 0 .725.03 1.359.106 1.924.085.568.179 1.059.484 1.599.584.99 1.267 1.782 2.072 2.344.801.562 1.739.871 2.673.867.719 0 1.422-.175 2.067-.475a6.856 6.856 0 0 0 1.791-1.237l-1.026-1.095-1.499.063c.086 2.004.374 3.974 1.004 5.78.629 1.802 1.617 3.459 3.106 4.71 1.279 1.076 2.648 1.698 4.05 1.701 1.144.007 2.228-.447 3.052-1.174l-.984-1.132-1.123.994c3.762 4.25 8.599 7.501 13.904 10.006 7.961 3.755 16.996 5.847 25.247 7.019 8.251 1.17 15.718 1.412 20.523 1.412 3.432 0 5.505-.124 5.53-.126l.242-.015.226-.09c.056-.024 9.429-3.78 20.068-10.664 5.32-3.444 10.958-7.67 15.91-12.629 4.949-4.959 9.221-10.655 11.747-17.063l-1.396-.55-.826 1.252c.883.584 1.885.951 2.938.951.958.004 1.921-.32 2.73-.913.815-.592 1.492-1.424 2.056-2.462.841-1.549 1.178-3.263 1.177-4.99-.002-2.083-.477-4.205-1.191-6.277l-1.418.49-.554 1.394c.807.32 1.628.505 2.45.506 1.219.012 2.458-.455 3.344-1.375.892-.915 1.426-2.174 1.665-3.675.034-.218.043-.415.043-.602l-.005-.229-1.499.058 1.5-.034a4.74 4.74 0 0 0-.049-.565l-1.485.212 1.488-.187c-.119-.927-.423-1.933-.862-3.085-.771-2.007-1.977-4.436-3.488-7.172-4.527-8.195-11.8-19.119-17.951-28.02l-1.234.853 1.256.821c5.907-9.03 8.055-17.404 8.05-24.688-.001-8.852-3.138-16.039-6.253-20.996-3.119-4.961-6.225-7.721-6.298-7.787l-.991-.878-30.908 27.164.99 1.127.323-1.465a70.233 70.233 0 0 0-15.124-1.666c-11.441-.004-24.65 2.89-38.401 11.491l.795 1.272.509-1.411-38.16-13.774-.601 1.18c-.057.124-3.75 7.369-3.758 17.415-.001 5.063.952 10.844 3.816 16.71 2.861 5.866 7.631 11.796 15.155 17.17l.876-1.219-1.472-.29z" fill="#740806"/><path d="M165.009 34.924s2.134-.309 3.539.728c1.256.925 2.555 4.696-1.604 5.884-5.33 1.522-16.694-2.358-16.604-7.697.525-.466 16.552-16.737 20.782-10.335 1.476 2.232.875 5.221-.623 7.237-2.033 2.736-5.49 4.183-5.49 4.183z" fill="#fbb807"/><path d="M156.079 40.029c3.323 1.49 7.39 2.196 10.198 1.664.232-.044.455-.096.668-.157 4.158-1.187 2.859-4.958 1.604-5.884-1.405-1.036-3.538-.728-3.538-.728s3.456-1.447 5.489-4.184c1.498-2.017 2.098-5.005.623-7.237-.902-1.365-2.342-1.699-4.052-1.375-6.311 1.196-16.287 12.083-16.7 12.449 0 0-2.792.299-2.774-.784l.021-1.206.902-.801.173-.169c5.127-4.985 12.388-11.146 17.867-12.185 3.992-.756 6.007 1.278 6.854 2.558 2.278 3.448 1.284 7.701-.71 10.386a13.518 13.518 0 0 1-1.687 1.862c1.052 1.248 1.776 3.188 1.414 5.196-.41 2.271-2.135 3.999-4.731 4.74-.291.083-.597.155-.911.214-3.653.693-10.966-3.448-10.71-4.359z" fill="#740806"/><path d="M191.504 99.302a8.9 8.9 0 0 0 1.315-.027c1.441-.135 2.79-.627 4.022-1.387 4.824-2.973 7.816-10.271 7.049-18.481-.967-10.308-7.491-18.129-14.568-17.465-6.712.629-11.505 8.657-11.166 18.271.02.529.044 1.059.095 1.596.907 9.668 6.698 17.146 13.253 17.493z" fill="#fff"/><path d="M152.948 67.624c-5.123-1.009-10.276-1.871-15.417-2.804-6.229 3.227-10.155 11.616-9.205 20.983.38 3.737 1.493 7.164 3.117 10.058 2.061 3.671 4.949 6.479 8.233 7.96-4.642-2.873-8.165-8.704-8.878-15.733-1.069-10.536 4.561-19.74 12.579-20.552 8.015-.813 15.379 7.069 16.45 17.607a26 26 0 0 1 .122 1.935c.092-1.455.07-2.952-.084-4.476-.629-6.185-3.264-11.512-6.917-14.978z" fill="#740806"/><path d="M130.798 88.089c-1.069-10.536 4.561-19.74 12.579-20.552 8.015-.813 15.379 7.069 16.45 17.607.066.651.105 1.296.122 1.936.127 5.107-1.32 9.778-3.812 13.173-2.242 3.056-5.329 5.08-8.892 5.443-2.667.27-5.255-.44-7.57-1.874-4.64-2.874-8.164-8.705-8.877-15.733z" fill="#fff"/><path d="M203.891 79.408c-.967-10.308-7.491-18.129-14.568-17.465-6.712.629-11.505 8.657-11.166 18.271l-.026-.21c-1.035-11.052 4.278-20.589 11.868-21.301 7.592-.712 14.583 7.673 15.619 18.725.549 5.846-.691 11.251-3.094 15.168-1.49 2.431-3.429 4.28-5.682 5.292 4.825-2.972 7.817-10.27 7.049-18.48z" fill="#740806"/><path d="M136.395 88.535c-.786-7.538 2.802-14.067 8.016-14.58 5.211-.513 10.072 5.182 10.86 12.722.048.465.079.927.096 1.384.126 3.651-.776 6.976-2.37 9.381-1.434 2.165-3.427 3.585-5.742 3.814-1.734.17-3.426-.359-4.945-1.403-3.048-2.093-5.392-6.289-5.915-11.318z" fill="#bccf00"/><path d="M139.705 88.209c-.51-4.895 1.819-9.134 5.204-9.466 3.385-.333 6.541 3.365 7.052 8.26.032.302.052.602.063.898.082 2.371-.504 4.529-1.539 6.091-.931 1.405-2.225 2.328-3.729 2.476-1.126.11-2.224-.233-3.211-.911-1.978-1.358-3.5-4.083-3.84-7.348z" fill="#740806"/><path d="M144.622 78.756c.13.346.23.707.267 1.092a4.295 4.295 0 0 1-3.875 4.678 4.263 4.263 0 0 1-1.127-.06 4.29 4.29 0 0 1-3.064-2.196 4.293 4.293 0 0 1 3.363-6.293l.026-.005c1.976-.185 3.748 1.009 4.41 2.784z" fill="#fff"/><path d="M179.996 82.923c-.785-7.538 2.802-14.067 8.016-14.58 5.212-.513 10.073 5.182 10.86 12.722.049.465.08.927.096 1.384.126 3.651-.776 6.976-2.37 9.381-1.434 2.165-3.426 3.584-5.742 3.814-1.734.17-3.426-.359-4.945-1.403-3.047-2.092-5.391-6.289-5.915-11.318z" fill="#bccf00"/><path d="M183.305 82.597c-.51-4.895 1.819-9.134 5.205-9.466 3.384-.333 6.54 3.365 7.052 8.26.031.302.052.602.062.898.082 2.371-.504 4.529-1.538 6.091-.932 1.405-2.226 2.327-3.729 2.476-1.126.11-2.224-.233-3.21-.911-1.98-1.357-3.501-4.083-3.842-7.348z" fill="#740806"/><path d="M188.222 73.145c.13.346.231.707.268 1.092a4.296 4.296 0 0 1-3.876 4.678 4.263 4.263 0 0 1-1.127-.06 4.295 4.295 0 0 1-3.064-2.196 4.294 4.294 0 0 1 3.363-6.293l.026-.005c1.977-.186 3.75 1.008 4.41 2.784z" fill="#fff"/><path d="M180.605 128.906c7.101-1.396 11.742 7.419 17.293 4.362s-3.241-18.786-2.087-19.92c1.572-1.549 2.763-3.271 3.332-5.171a8.046 8.046 0 0 0 .288-3.379 8.112 8.112 0 0 0-.709-2.369c3.352-.63 6.265-1.89 5.496-2.828-6.079 1.185-10.445.751-12.418.415-1.053-.18-1.669 1.17-.823 1.825.753.583 2.076.956 3.628.981l.087-.001.067.126c.614.839.906 1.602 1.009 2.333a4.4 4.4 0 0 1-.161 1.841c-.19.634-.53 1.312-1.021 2.009-.983 1.396-4.541 4.873-7.785 5.903-8.748 1.479-8.419-6.204-10.624-6.087-2.345.123 3.298 10.366-17.315 10.464-4.141.02-8.006-.947-11.121-1.923-2.08-.651-3.816-1.442-5.06-2.303-.705-.491-2.269-2.565-2.348-3.113-.076-.63.025-1.37.501-2.333.056-.11.097-.223.129-.337 1.481-.486 2.65-1.212 3.246-1.996.731-.961-.335-2.254-1.433-1.75-.843.387-2.129.91-3.826 1.425-.18.023-.352.08-.517.153-2.38.685-5.501 1.331-9.332 1.596-.608 1.34 3.524 1.848 7.675 1.405a6.905 6.905 0 0 0-.106 2.318c.165 1.257.697 2.417 1.461 3.403.756.988 1.735 1.822 2.868 2.548 2.265 1.448 5.16 2.501 8.461 3.272 0 0 3.192 17.252 11.777 18.588 8.584 1.336 12.266-10.06 19.368-11.457z" fill="#740806"/><path d="M196.612 94.493c-.232-1.767 3.797-3.753 8.998-4.438 5.202-.684 9.607.194 9.84 1.961.232 1.766-3.796 3.753-8.999 4.437-5.201.684-9.607-.194-9.839-1.96zM119.218 104.667c-.232-1.767 3.797-3.753 8.998-4.437 5.202-.684 9.607.194 9.84 1.961.232 1.766-3.796 3.753-8.999 4.437-5.201.683-9.606-.195-9.839-1.961z" fill="#e93e8f"/><g fill="#740806"><path d="M162.917 62.893c-1.996-2.49-6.993 4.398-6.993 4.398l-5.554-.969c-8.235-1.437-23.362-4.075-29.394-5.129l-1.524-.266c-6.098-1.067-3.856 3.453-3.856 3.453s.845.284 2.291.758c7.022 2.304 28.336 9.137 37.392 10.241 1.897.231 3.261.213 3.837-.154 3.889-2.477 5.799-9.842 3.801-12.332zM204.027 53.732c1.2-1.073 1.916-1.727 1.916-1.727s2.204-5.133-3.884-2.466c-.606.266-1.354.641-2.2 1.093-7.632 4.081-23.616 14.781-23.616 14.781l-.162-.134c-1.012-.829-6.928-5.509-8.251-2.67-1.447 3.105 2.42 10.299 7.107 11.892l.23.035c4.358.707 22.834-15.419 28.86-20.804zM187.558 133.391s-5.956-.629-11.777 2.68c1.639-3.641 7.722-6.985 11.777-2.68z"/></g><path d="M180.858 121.877c1.751-.797 7.039-1.693 12.456-1.778l-1.397-3.96c-6.478 4.11-12.118 2.253-14.498-1.07-2.215 8.805-19.764 8.244-19.764 8.244.012 1.686.151 3.125.383 4.373 6.229-2.988 14.926-4.663 17.505-4.416-7.466.974-13.757 4.828-16.801 6.998 2.844 7.343 10.283 3.948 10.283 3.948s3.001-6.76 10.617-8.925 12.464 5.582 15.059 2.833c1.688-1.789.963-3.366-.492-6.235-3.726-.657-8.504-1.006-13.351-.012z" fill="#fff"/><path d="M172.818 97.21c29.61-5.728 9.805 11.157 2.435 12.583s-32.045-6.855-2.435-12.583z" fill="#e93e8f"/><path d="M177.403 99.593c.625-.454 1.53-.834 2.573-1.036 1.346-.26 2.59-.158 3.36.209.432.206.717.493.786.847.191.989-1.354 2.121-3.453 2.526s-3.955-.067-4.146-1.056c-.096-.497.248-1.031.88-1.49z" fill="#fff"/><g fill="#740806"><path d="m266.784 60.84-.001-.002a9.666 9.666 0 0 0-5.681-4.771 9.767 9.767 0 0 0-2.939-.454 9.65 9.65 0 0 0-2.366.294l-.062.008a.248.248 0 0 1-.236-.178 9.799 9.799 0 0 0-.706-1.761l-.001-.001a9.682 9.682 0 0 0-5.691-4.781l-.003-.001a9.663 9.663 0 0 0-7.405.645 9.683 9.683 0 0 0-4.782 5.69l-.001.003a9.67 9.67 0 0 0 .645 7.405 9.628 9.628 0 0 0 3.405 3.702l.116.209v.011l-.133.208-8.828 4.589a1.5 1.5 0 0 0 1.384 2.662l8.828-4.589a3.248 3.248 0 0 0 1.746-2.743l.003-.137a3.247 3.247 0 0 0-1.51-2.743 6.614 6.614 0 0 1-2.35-2.552 6.662 6.662 0 0 1-.446-5.118 6.68 6.68 0 0 1 3.306-3.935 6.674 6.674 0 0 1 5.12-.446 6.68 6.68 0 0 1 3.935 3.305c.204.393.364.799.49 1.225a3.247 3.247 0 0 0 3.908 2.232 6.695 6.695 0 0 1 3.666.111 6.662 6.662 0 0 1 3.925 3.296 6.662 6.662 0 0 1 .443 5.112 6.742 6.742 0 0 1-1.614 2.689 3.244 3.244 0 0 0-.177 4.358l.001.001a6.66 6.66 0 0 1 1.573 4.301c0 .689-.107 1.373-.314 2.032a6.68 6.68 0 0 1-3.306 3.936 6.669 6.669 0 0 1-5.118.444 6.678 6.678 0 0 1-3.935-3.305 6.556 6.556 0 0 1-.733-3.054c0-.114.003-.228.008-.342v-.001l.003-.152a3.25 3.25 0 0 0-3.248-3.247c-.512 0-1.027.121-1.498.366l-9.201 4.846a1.5 1.5 0 1 0 1.398 2.654l9.189-4.84.112-.027.133.039.115.208v.012-.001a9.77 9.77 0 0 0-.011.484 9.576 9.576 0 0 0 1.071 4.438l.001.001a9.688 9.688 0 0 0 5.692 4.781l.003.001a9.668 9.668 0 0 0 7.404-.643 9.69 9.69 0 0 0 4.783-5.693l.001-.003a9.67 9.67 0 0 0-1.821-9.159l-.022-.027.023.028-.059-.16.072-.172a9.722 9.722 0 0 0 2.336-3.889l.001-.002a9.78 9.78 0 0 0 .452-2.933 9.642 9.642 0 0 0-1.093-4.464z"/><path d="M247.247 71.013a1.5 1.5 0 0 0-2.037-.592l-10.494 5.765a1.5 1.5 0 1 0 1.445 2.629l10.494-5.765a1.5 1.5 0 0 0 .592-2.037z"/><g><path d="m89.899 88.314-9.303-3.53-.157-.193v.002l-.003-.039.091-.192.012-.01-.01.008a9.607 9.607 0 0 0 2.95-4.074c.43-1.132.635-2.3.635-3.446a9.73 9.73 0 0 0-.857-3.984l-.001-.003a9.681 9.681 0 0 0-5.412-5.095 9.702 9.702 0 0 0-3.446-.635 9.73 9.73 0 0 0-3.984.857l-.009.004.007-.003a9.688 9.688 0 0 0-5.591 7.245.247.247 0 0 1-.242.205l-.034-.002a9.744 9.744 0 0 0-5.248.776l-.002.001a9.668 9.668 0 0 0-5.085 5.4l-.001.002a9.68 9.68 0 0 0 .224 7.421l.001.001a9.728 9.728 0 0 0 2.773 3.591l.093.192-.042.136a9.721 9.721 0 0 0-.962 1.879l.001-.001a9.693 9.693 0 0 0-.635 3.445c0 1.388.3 2.744.858 3.986l.001.002a9.686 9.686 0 0 0 5.412 5.096 9.694 9.694 0 0 0 7.43-.223l.003-.001a9.683 9.683 0 0 0 5.096-5.412l.001-.002c.42-1.109.615-2.25.615-3.372 0-.552-.047-1.099-.135-1.637l-.001-.003-.003-.039.091-.191.157-.055.087.016-.008-.003 9.697 3.739a1.5 1.5 0 1 0 1.079-2.799l-9.697-3.739-.008-.003a3.256 3.256 0 0 0-3.208.524 3.25 3.25 0 0 0-1.146 3.044l-.001-.003c.063.384.096.768.096 1.15 0 .778-.133 1.548-.421 2.31l.001-.002a6.683 6.683 0 0 1-3.525 3.743l-.01.004.012-.006a6.738 6.738 0 0 1-2.758.595c-.789 0-1.589-.14-2.379-.439a6.678 6.678 0 0 1-3.741-3.524l.001.002a6.741 6.741 0 0 1-.595-2.758c0-.789.14-1.59.44-2.382l.001-.001c.171-.451.395-.882.667-1.299a3.24 3.24 0 0 0-.683-4.307 6.727 6.727 0 0 1-1.917-2.484l.001.001a6.725 6.725 0 0 1-.594-2.754c0-.787.14-1.586.439-2.377l.006-.016-.007.018a6.659 6.659 0 0 1 3.515-3.732l-.002.001a6.743 6.743 0 0 1 3.629-.538 3.249 3.249 0 0 0 3.622-2.672c.075-.438.187-.86.344-1.274a6.68 6.68 0 0 1 3.524-3.742l-.003.001a6.727 6.727 0 0 1 2.756-.594c.789 0 1.59.14 2.383.44a6.675 6.675 0 0 1 3.742 3.523l-.001-.003a6.73 6.73 0 0 1 .594 2.756c0 .789-.14 1.59-.44 2.382a6.601 6.601 0 0 1-2.036 2.808l.002-.001a3.25 3.25 0 0 0-1.162 3.037l.004.027-.004-.025a3.247 3.247 0 0 0 2.055 2.519l9.302 3.529a1.5 1.5 0 0 0 1.935-.87 1.505 1.505 0 0 0-.876-1.929z"/><path d="m87.846 93.117-11.095-4.503a1.5 1.5 0 1 0-1.128 2.78l11.095 4.503a1.5 1.5 0 1 0 1.128-2.78"/></g></g></g></g></svg>