<svg id="Layer_3" enable-background="new 0 0 1000 1000" height="1000" viewBox="0 0 1000 1000" width="1000" xmlns="http://www.w3.org/2000/svg"><g><path d="m775.7 415.4c-13.2 40.2-82.7 71.4-82.7 71.4 43.6 119.3-84.4 172.6-84.4 172.6l63 171.6-25.5 3.3c-40.5 21.9-17.1 102.3-17.1 102.3-44 11.9-61.2-42.6-61.2-42.6s-5.4 14.4-18.4 33.5-272.2.1-272.2.1l-15.8 19.9c-15.8 19.9-100.8 4.8-107.6-1.4-6.9-6.2 8.2-27.4 8.2-27.4-82.3-127.7 9.8-178.2 25.4-208.4 14.1-27.4 72.7-150.8 72.7-150.8l-12.2-65.8s-22.8-2-29.6-2.7c-6.9-.7-71.3-16.5-69.9-33.6s135.1-105.6 135.1-105.6c24-33.6 59.5-39.4 59.5-39.4 125.3 98.4 225.9 6.8 225.9 6.8 31.1-7.3 88.6 50.1 88.6 50.1s125 25.3 118.2 46.1z" fill="#fec55a"/><path d="m864.6 912.4c-11.6 48.5-2.9 78-54.3 77.1-56.4-3.3-68.8-7.1-132.8-3.4-11.1-1.3-43.8 12.7-48.5-44.6-4.8-58.1-17.9-113 42.7-110.5 60.6 2.4 179.4 4.8 191 13.6 11.6 8.7 13.5 19.4 1.9 67.8z" fill="#fff"/><path d="m867.9 896.4-6.3 26.7c-14.1 2.4-45.6-2.4-78.5-5.8-33-3.4-49.9 27.6-84.8 11.1s-69.3 8.2-69.3 8.2l-1.9-43.2s37.8-1.5 52.4-4.4c14.5-2.9 37.3-2.4 55.8 1.9 18.4 4.4 43.6 4.8 73.2 1.9 29.4-2.7 59.4 3.6 59.4 3.6z" fill="#f2a0a8"/><path d="m212.8 556.7c-19.2 52.1-11 123.4-11 123.4l-47.3 70.6c-12.3-18.5-43.9-113.1-15.1-176.2s92.6-69.9 73.4-17.8z" fill="#fea142"/><path d="m567.8 894-9.2 29.8s-85.7 14.1-173.8 8.6-107.6-4.8-107.6-4.8 87.1-127.2 88.4-141.9c0 0 120.1-92.6 154.7-6.5l40 84.7z" fill="#f9eba5"/><path d="m771.2 834.7-28.5-2.4s7.5-54.8 7.9-58.6c.3-3.8 25-8.6 28.5 5.1 3.4 13.7-7.9 55.9-7.9 55.9z" fill="#f9eba5"/><path d="m771.9 757.2c-2.4-2.4-58.5-54.3 20.9-84 0 0 5.5-2.7 4.1 10.3s6.5 25 13.8 39.9c.1 0 4 26.3-38.8 33.8z" fill="#f2a0a8"/><path d="m423.4 355.9c23.5 55.5 31.9 133.1 18.9 129.9-9.5-2.3-8.9-2.2-19.9-55.3-11.6-56.2-27.1-84.4-27.1-84.4zm86.9-2.2-21.9 6.2s21.3 59 22.6 123.4c1.3 60.4-4.8 68.6 5.5 72.7s21.9-18.5 20.6-49.4c-1.4-30.9-7.6-110.4-26.8-152.9zm104.2 50.8c-.7-67.9-2.1-68.6-2.1-68.6l-15.8-7.5s3.8 86-5.8 116.6c-9.4 29.9-6.2 32.2 0 35.7 6.3 3.3 24.4-8.4 23.7-76.2zm-374.4 198.1s-9.7 12.6-17 33.9 9.2 77.6 9.2 77.6l9.9-48.5c-7-21.7-2.1-63-2.1-63zm-31.5 66.5s-3.9.5-10.2 20.4 24.7 61.6 24.7 61.6l2.9-18.9c-13-12.2-17.4-63.1-17.4-63.1z" fill="#dc8b4a"/><path d="m568.8 319s-91.1 91.1-225.9-6.8c0 0 79.5-292.8 85.3-300.6 5.8-7.7 37.8 13.6 140.6 307.4z" fill="#7bd2ee"/><path d="m865.9 840.2c-6.8-5.1-34.7-8-87.8-10.6 3.2-12.9 9.2-40.4 6.3-52.2-2.3-9.1-11.3-14.1-23.7-13.1-3.5.3-14.8 1.7-15.4 8.8-.2 2.5-4.4 32.9-7.4 54.8-9.9-.4-20.4-.8-31.5-1.1-10.9-.4-21.2-.7-30.4-1.1-8.8-35.1-55.2-150.6-61.7-166.7 33.7-11.7 58.5-30.2 74-55.4 16.9-27.4 22.6-63.1 16.4-103.2-.6-3.6-1.2-7.2-1.9-10.5 17.1-2.7 40.2-23.7 49.6-32.9 5.3-5.2 31.6-31.5 31.6-44.9 0-6.2-6.2-11.2-22.3-17.9-10.2-4.2-24.4-9-42.2-14.3-30.1-8.9-60.5-16-60.8-16.1-.4-.1-.9-.1-1.3-.1-11.4-15.3-27.3-27.9-46.8-37.1-16.6-7.9-31.3-11.2-37.7-12.4-40.2-114.8-73.6-199.4-99.3-251.5-25.3-51.1-36.2-57.7-43-57.7-2.7 0-5.1 1.2-6.8 3.4-1.4 1.8-4.3 5.7-45.7 155-17.1 61.5-33.8 123-38.9 141.7-14.9-1.6-36.1 18.9-55.3 38.9-2.9 3.1-5.5 5.7-6.7 6.8-1.3 1.1-9.4 6.4-18.1 12-68.1 43.9-114.1 76.7-117.3 94.5-.7 4 .6 6.9 1.8 8.5 2.4 3.2 9.7 13.1 58.2 24.5 17 4 33.3 6.8 40.9 8 1.2 20.8 5.5 40.2 12.8 58.3-.1.2-.2.3-.3.5-.4.8-27.6 58.2-49.3 103.1-1-24.4-.6-67.5 12-101.7 10.9-29.5-4-38.3-8.9-40.3-19.9-8.2-55.4 12-74.6 54-28.2 61.7-.8 152.3 13.5 178.2-24.9 34.1-44.6 85.7 7.9 168.7-6.2 9.9-9.8 19.5-7.2 27.3 2 6 8.9 10.4 21 13.5 10.7 2.8 25.3 4.3 40 4.3 22.6 0 45.6-3.8 55.4-12.8 3.3-3 8.6-9.6 15.3-18.5h.2c.7 0 65.9 1.8 131.3 2.7 25.3.3 46 .5 63 .5 66.8 0 74.9-2.3 77.5-4.1 7.5-4 14.9-12.5 18.7-23.3 6.1 13 11.3 22.2 15.6 26.5 6.7 6.7 17.7 8.4 26.9 8.4 3.7 0 7.2-.3 9.9-.6 3 33.1 15.7 49.2 39.1 49.2 3 0 5.7-.2 8.1-.4 1.9-.2 3.5-.3 4.7-.3.5 0 .9 0 1.2.1h.9c18-1 32.3-1.5 45.1-1.5 19.1 0 33.6 1.1 51.9 2.5 10 .8 21.2 1.6 35.2 2.4h.2 2.5c43 0 46.7-22.6 51.9-53.8 1.4-8.2 2.9-17.5 5.3-27.5 11.9-48 11.1-62.4-3.6-73.5zm-110.1-63.9c2.8-1 9.3-2 14-.2 3 1.1 3.7 2.8 4 4 2.1 8.2-2.7 32.8-6.8 49-5.8-.3-11.9-.5-18.2-.8 1.7-12.3 5.9-43.2 7-52zm47.6 65.6c46.6 2.9 54.6 6.1 55.9 7 7.1 5.3 10.2 11.6 4.9 39.4-13.6-4.4-39.7-2.4-73.2.9-2.9.3-5.8.6-8.5.8-13.1 1.2-28.2-1-44-3.4-20.1-3-40.8-6.1-58.5-1.8-23.7 5.7-43.8 4.3-50.1 3.6-.6-18.1 1.1-33.4 9.2-42.3 6.5-7.1 17-10.3 32.3-9.7 10.2.4 22 .8 34.6 1.3 31.7 1.1 67.6 2.3 97.4 4.2zm55.9 69.3c-.6 2.4-1.1 4.7-1.6 6.9-10.9.9-30.5-1.3-51.2-3.7-7.4-.8-15.1-1.7-22.9-2.5-15.5-1.6-28 3.8-38.9 8.6-14.2 6.2-26.4 11.5-44.2 3.1-27.8-13.1-54.8-2.5-67.4 4.3-.2-2.1-.4-4.2-.6-6.3-.7-7.5-1.5-14.9-2-22.1 8.5.8 28.5 1.7 52.1-4 15.7-3.8 35.3-.8 54.4 2 15.8 2.4 32.2 4.8 46.7 3.5 2.7-.3 5.6-.5 8.5-.8 15-1.4 32-3.1 46.1-3.3 14.6-.3 21.1 1.2 23.9 2.3-1 3.6-1.9 7.6-2.9 12zm-427.4-894.5c3.6 2.7 13.8 13.3 34 55.1 25.2 52.1 57.7 134.7 96.6 245.6-9.3 8-44.1 34.7-96.3 34.7-38.2 0-77.6-14.2-117.1-42.1 29.9-109.9 74.5-271 82.8-293.3zm-287.6 560c17.2-37.7 47.4-53.9 60.5-48.5 6.8 2.8 7.9 12.7 2.8 26.5-18.6 50.4-12.2 116.9-11.4 125.2-5.9 12.2-10.8 22.1-13.7 27.8-2.7 5.3-8.4 11.7-15.1 19.2-3.8 4.3-7.9 8.9-12.1 14-12.9-27.4-36.2-108.9-11-164.2zm450.2 350.8c-9-9-27.1-54.2-41.6-90.5-22.7-56.7-26-63.2-32.4-63.4-3 0-5.5 2.3-5.6 5.3-.1 2.2 1.2 4.1 3 5 4 5 15.5 33.8 24.8 57.1 7.5 18.6 14.2 35.3 20.2 49.3 1.1 15.9-8.8 28.6-16 32.2-.2.1-.3.2-.4.3-13.1 4.3-162 2-258.3-.5 31.6-44 80.4-121 82.8-135.8.5-3-1.5-5.8-4.5-6.2-3-.5-5.8 1.5-6.2 4.5-.9 5.7-16.8 34.6-45.4 78.8-25.6 39.6-49.1 72.4-57.1 79.9-11.7 10.8-59.5 12.6-85.4 5.9-10.1-2.6-13.1-5.5-13.4-6.4-3.2-9.5 16.3-32.5 26.8-44.8 4.5-5.3 8.4-9.9 10.9-13.4 1.8-2.6 6.6-9.5 29.5-115.1 11.2-51.7 21.3-102.4 21.4-102.9.6-2.9-1.3-5.8-4.3-6.4s-5.8 1.3-6.4 4.3c-15.5 77.6-42.6 204.3-49.2 213.9-2.2 3.2-5.9 7.5-10.3 12.6-4.9 5.7-10.1 11.9-14.9 18.2-58.2-95.2-15.5-143.2 13-175.2 7.1-8 13.3-15 16.6-21.5 11.9-23.2 56-115.9 69.1-143.3 2.4 4.7 5.1 9.4 7.9 13.9 13.3 20.9 31.5 39.3 54 54.6 38.1 26 75.1 34.2 76.7 34.5.4.1.8.1 1.2.1 2.5 0 4.8-1.7 5.3-4.3.6-2.9-1.2-5.8-4.2-6.5-.1 0-5.4-1.2-13.8-4 4.3-2 10-4.8 17.5-8.7 2.7-1.4 3.7-4.7 2.3-7.3-1.4-2.7-4.7-3.7-7.3-2.3-10.7 5.6-23.9 11.9-26.7 12.6-.4 0-.7.1-1.1.2-12.6-5.1-28.1-12.6-43.6-23.2 19-3.5 52.5-7.1 67.4 2.8.9.6 2 .9 3 .9 1.8 0 3.5-.9 4.5-2.4 1.7-2.5 1-5.9-1.5-7.5-25-16.5-82.1-3-84.5-2.5-.2.1-.4.1-.6.2-8.8-6.9-16.7-14.3-23.7-22.1 21.7-2.3 85.2-7 108.3 12.3 1 .9 2.3 1.3 3.5 1.3 1.6 0 3.1-.7 4.2-1.9 1.9-2.3 1.6-5.7-.7-7.7-30.5-25.6-114.5-15.2-123.5-14-20.4-26.8-31.3-58.6-32.6-95-.1-2.6-2-4.8-4.7-5.2-32.4-4.7-86.9-16.7-96.2-28.7 0-1.4 1.8-10.1 40.5-38.8 24.2-17.9 53-36.5 72-48.8 12.1-7.8 17.5-11.3 19.3-12.9 1.6-1.4 4-3.9 7.4-7.5 7-7.4 17.7-18.5 27.8-26.4 11.4-8.9 17.7-10.3 19.9-8.6 0 0 .1 0 .1.1 0 0 .1.1.1.1 42.4 30.8 84.9 46.4 126.5 46.4 57.9 0 95.3-30 104.4-38.2 12.6 2.4 69.9 15.8 90.2 67 .8 2.1 2.9 3.4 5.1 3.4.7 0 1.3-.1 2-.4 2.8-1.1 4.2-4.3 3.1-7.1-1.5-3.8-3.2-7.5-5.2-11.1 10.6 2.6 28.8 7.2 47.2 12.6 49.6 14.4 58.6 21.6 60.1 23.3-.9 4.8-10.6 19.3-28.2 36.5-17.7 17.3-35 29-44.4 30-4.6-18.6-10-30.8-10.3-31.5-1.2-2.7-4.4-4-7.2-2.8-2.7 1.2-4 4.4-2.8 7.2.3.7 24.4 56.5 12.9 110.1-18 4.9-78.5 21.8-88.2 32.9-2 2.3-1.7 5.7.5 7.7 1 .9 2.3 1.3 3.6 1.3 1.5 0 3-.6 4.1-1.9 5.4-6.2 45.5-19.2 76.7-27.9-2.6 8-6.1 15.9-10.8 23.5-4.1 6.7-9 12.8-14.6 18.5-8.4-1-37.2-4-50.6 1-2.8 1.1-4.2 4.2-3.2 7 .8 2.2 2.9 3.5 5.1 3.5.6 0 1.3-.1 1.9-.4 7.5-2.8 23.6-2.4 35.7-1.4-9.4 7.3-20.4 13.6-32.8 18.8-4.6-3.7-14.4-11.2-19.7-12.3-2.9-.6-5.8 1.3-6.4 4.3-.6 2.9 1.3 5.8 4.3 6.4 1.4.3 5.4 2.9 9.9 6.1-22 7.4-47.9 11.8-77.9 13.2-3 .1-5.3 2.7-5.2 5.7.1 2.9 2.5 5.2 5.4 5.2h.3c27.3-1.3 51.5-5 72.6-11.2 4.6 11.4 50.5 125.8 60.8 163.2-15 .5-26 4.9-33.6 13.3-15.9 17.6-12.9 48.3-9.4 83.8.3 3.1.6 6.3.9 9.6-8.1 1.1-21.9 1.3-27.7-4.5zm218.1 56.6c-.7 0-1.4 0-2.2 0-13.8-.8-25-1.7-34.9-2.4-18.5-1.4-33.2-2.5-52.7-2.5-12.9 0-27.4.5-45.3 1.5-2.1-.2-4.7 0-7.6.2-2.3.2-4.7.4-7.3.4 0 0 0 0-.1 0-8.2 0-25-.1-28.3-40.2 0-.5-.1-.9-.1-1.4 7.7-4.7 34.9-19 61.7-6.4 22.2 10.5 37.9 3.7 53.1-2.9 10.7-4.6 20.8-9 33.5-7.7 7.7.8 15.4 1.7 22.8 2.5 20.2 2.3 38.1 4.4 50.3 3.9-.6 3.6-1.2 7-1.7 10.3-5.1 30.7-7.4 44.7-41.2 44.7zm-66.8-275.6c-4.9 23.8 15.4 45.8 22 52.2.2.3.5.5.7.7 1.1.8 2.2 1.3 3.5 1.3.7 0 1.4-.1 2-.4 44.9-8.4 42.4-37.2 42.2-39.5-.1-.6-.2-1.2-.5-1.8-1.3-2.6-2.6-5.2-3.9-7.7-5.6-10.8-10.4-20.2-9.4-29.3.7-6.8-.1-11.2-2.6-13.9-1.5-1.7-3.6-2.6-5.8-2.6-1.4 0-2.5.4-3.2.6-26.4 10-41.5 23.5-45 40.4zm45.9-29c0 .9 0 2-.2 3.5-1.3 12.4 4.5 23.6 10.6 35.4 1.1 2.1 2.2 4.3 3.3 6.5.1 3.7-1.2 20.1-31.7 26.4-6.7-6.9-20.8-23.7-17.3-40.6 2.6-12.4 14.5-22.9 35.3-31.2zm-318.6-103.8c1.6 2.6.8 5.9-1.8 7.5-.9.5-1.9.8-2.8.8-1.8 0-3.6-.9-4.6-2.6-1.3-2.1-9.4-9.8-58-18.6-26.9-4.9-52.9-7.6-53.1-7.7-3-.3-5.2-3-4.8-6 .3-3 3-5.1 6-4.8.3 0 26.6 2.8 53.9 7.8 51.2 9.4 61.7 18 65.2 23.6zm85 1.4c-1.8-2.4-1.3-5.8 1.1-7.6 11.1-8.3 72.9-36.5 79.9-39.7 2.7-1.2 6 0 7.2 2.7s0 6-2.7 7.2c-18.7 8.5-69.2 32-77.8 38.5-1 .7-2.1 1.1-3.3 1.1-1.7-.1-3.4-.8-4.4-2.2zm-37.1 37.8c-.4 0-.8 0-1.2-.1-4.8-.7-28.9-4.9-33.3-21.8-.4-1.5-.1-3.2.8-4.5s2.3-2.2 3.9-2.3c.8-.1 19.3-2 34.9-2s20.1 1.9 22.5 3.8c2.8 2.3 3.9 5.8 2.7 9.1-3 8.8-24.1 17.8-30.3 17.8z" fill="#89191a"/></g></svg>