<svg id="Capa_1" enable-background="new 0 0 512 512" viewBox="0 0 512 512" xmlns="http://www.w3.org/2000/svg"><g><g><g><g><g><path d="m292 117.217c5.959 0 11.804.498 17.5 1.44v-55.359c0-4.418-3.582-8-8-8h-19c-4.418 0-8 3.582-8 8v55.358c5.697-.941 11.541-1.439 17.5-1.439z" fill="#ea9b58"/></g><g><g><g><g><path d="m86.239 238.58v1.589h51.493l.484-1.875c-5.098-2.82-8.034-8.373-7.478-14.146.707-7.354 7.23-13.114 14.851-13.114h5.651l-.14-1.123c-1.703-13.716 8.504-19.492 17.366-21.922 8.043-2.206 13.661-9.63 13.661-18.055v-1.831c0-2.175 1.827-3.521 3.52-3.521.614 0 1.204.161 1.754.479 3.662 2.113 7.082 4.373 10.164 6.716l.908.69.565-.991c10.034-17.58 24.63-31.655 41.764-41.063-15.759-9.026-33.976-14.197-53.343-14.197-58.672 0-106.796 47.434-107.933 105.847 4.151 4.277 6.713 10.102 6.713 16.517z" fill="#fe9738"/></g></g><g><g><path d="m396.54 116.217c-19.322 0-37.497 5.148-53.231 14.134 33.137 18.194 55.652 53.429 55.652 93.826v163.886h11.364c4.962 0 9 4.038 9 9v12.918c0 4.962-4.038 9-9 9h-38.282l-18.547 27.596c-3.84 5.714-10.243 9.125-17.127 9.125h-1v1h61.172c59.378 0 107.96-48.582 107.96-107.96v-124.565c-.001-59.378-48.583-107.96-107.961-107.96z" fill="#fe9738"/></g></g><g><path d="m440.857 125.79c12.009 17.396 19.063 38.443 19.063 61.06v132.525c0 32.354-15.577 61.243-39.596 79.552v11.055c0 5.523-4.477 10-10 10h-37.749l-18.249 27.154c-4.019 5.98-10.752 9.568-17.958 9.568h60.172c59.378 0 107.96-48.582 107.96-107.96v-124.567c0-43.608-26.203-81.393-63.643-98.387z" fill="#fe860a"/></g></g><g><path d="m292 116.217c-40.427 0-75.843 22.524-94.336 55.638 7.159 5.459 14.348 12.801 16.243 21.197 1.254 5.557.025 11.079-3.651 16.415l-1.081 1.567h2.978c7.62 0 14.144 5.761 14.851 13.114.556 5.773-2.38 11.326-7.479 14.146l.484 1.875h135.355c4.426 0 8.027 3.601 8.027 8.028v139.866h36.569v-163.886c0-59.378-48.582-107.96-107.96-107.96z" fill="#fe860a"/></g><g><path d="m137.733 239.169 2.038 1h78.488l1.75-1c5.206-2.879 8.612-8.656 7.99-15.117-.772-8.027-7.782-14.018-15.846-14.018h-1.074c14.294-20.742-10.499-38.521-23.177-45.839-3.012-1.739-6.774.43-6.774 3.908v1.831c0 7.946-5.263 14.989-12.926 17.09-17.419 4.776-18.951 16.108-18.093 23.01h-4.52c-8.064 0-15.074 5.991-15.846 14.018-.622 6.461 2.784 12.238 7.99 15.117z" fill="#fff"/></g><g><path d="m227.999 224.052c-.772-8.027-7.782-14.018-15.846-14.018h-1.074c9.892-14.355 1.063-27.287-9.514-36.318-3.378 26.979-26.381 47.858-54.276 47.858-5.636 0-11.072-.854-16.188-2.436-.709 1.517-1.189 3.163-1.358 4.915-.621 6.461 2.784 12.238 7.99 15.117h82.277c5.205-2.88 8.611-8.657 7.989-15.118z" fill="#fff3de"/></g><g><g><path d="m399.96 224.177c0-43.608-26.203-81.393-63.643-98.388 12.009 17.396 19.063 38.443 19.063 61.06v52.32c4.978.009 9.011 4.047 9.011 9.027v138.866h35.569z" fill="#fe7701"/></g></g></g></g><g><g><g><g><g><path d="m86.355 348.171c0 7.954 6.471 14.426 14.425 14.426h261.017l2.595-.884v-113.516c0-4.986-4.042-9.028-9.028-9.028h-268.125l-.884 2.943z" fill="#ffe177"/></g><g><path d="m355.364 239.169h-21.219v92.753c0 4.986-4.042 9.028-9.028 9.028h-238.762v7.221c0 7.954 6.471 14.426 14.425 14.426h261.017l2.595-.884v-113.516c0-4.986-4.042-9.028-9.028-9.028z" fill="#ffd15b"/></g><g><path d="m349.205 315.401c-10.487 0-20.348 2.654-28.96 7.322-6.457 3.5-14.283 3.5-20.74 0-8.612-4.668-18.474-7.322-28.96-7.322-10.487 0-20.348 2.654-28.96 7.322-6.457 3.5-14.283 3.5-20.74 0-8.612-4.668-18.474-7.322-28.96-7.322-10.487 0-20.348 2.654-28.96 7.322-6.457 3.5-14.283 3.5-20.74 0-8.612-4.668-18.474-7.322-28.96-7.322-9.653 0-18.777 2.253-26.889 6.248v26.877c0 7.977 6.467 14.444 14.444 14.444h260.452l3.16-.903v-44.759c-4.855-1.244-9.944-1.907-15.187-1.907z" fill="#ffd15b"/></g><g><path d="m349.205 315.401c-5.199 0-10.244.654-15.059 1.881v14.64c0 4.986-4.042 9.028-9.028 9.028h-238.782v7.577c0 7.977 6.467 14.444 14.444 14.444h260.452l3.16-.903v-44.759c-4.855-1.245-9.944-1.908-15.187-1.908z" fill="#ffc344"/></g><g><path d="m86.355 272.001h278.037v-23.804c0-4.986-4.042-9.028-9.028-9.028h-268.125l-.884 2.377z" fill="#ffd15b"/></g><g><path d="m355.364 239.169h-21.219v32.832h30.246v-23.804c.001-4.986-4.041-9.028-9.027-9.028z" fill="#ffc344"/></g><g><g><path d="m57.279 258.496c2.703.57 4.683 2.88 4.683 5.643v86.74c0 19.944 16.167 36.111 36.111 36.111l7.874 1.073h258.445v-26.351h-263.611c-7.479 0-13.542-6.063-13.542-13.542v-109.59c0-13.662-11.075-24.737-24.737-24.737-12.238 0-22.661 9.516-23.096 21.746-.398 11.222 7.398 20.697 17.873 22.907z" fill="#ffbd86"/></g></g><g><path d="m100.781 361.712c-7.479 0-13.542-6.063-13.542-13.542v-7.221h-19.413c-1.998 0-3.955-.169-5.865-.481v10.411c0 19.944 16.167 36.111 36.111 36.111h266.319v-25.278z" fill="#f6a96c"/></g></g></g></g><g><g><g><g><path d="m54.668 419.115 18.831 28.019c4.019 5.98 10.752 9.568 17.958 9.568h244.912c7.206 0 13.938-3.587 17.958-9.568l18.831-28.019z" fill="#dff6fd"/></g><g><path d="m329.884 419.115-25.261 37.587h31.746c7.206 0 13.938-3.587 17.958-9.568l18.831-28.019z" fill="#c8effe"/></g><g><path d="m7.5 397.063v12.918c0 5.523 4.477 10 10 10h392.824c5.523 0 10-4.477 10-10v-12.918c0-5.523-4.477-10-10-10h-392.824c-5.523 0-10 4.477-10 10z" fill="#c8effe"/></g><g><path d="m385.273 402.611h-377.773v7.37c0 5.523 4.477 10 10 10h392.824c5.523 0 10-4.477 10-10v-12.918c0-5.523-4.477-10-10-10h-16.397v6.893c.001 4.78-3.874 8.655-8.654 8.655z" fill="#99e6fc"/></g></g></g></g></g></g></g><path d="m396.54 108.717c-18.116 0-36.069 4.338-52.195 12.564-8.556-4.37-17.728-7.698-27.345-9.83v-48.153c0-8.547-6.953-15.5-15.5-15.5h-19c-8.547 0-15.5 6.953-15.5 15.5v48.208c-9.486 2.129-18.629 5.446-27.223 9.835-16.157-8.267-34.155-12.624-52.317-12.624-13.544 0-26.833 2.354-39.495 6.999-3.889 1.426-5.885 5.735-4.459 9.624 1.427 3.889 5.736 5.885 9.624 4.459 11.003-4.036 22.553-6.082 34.33-6.082 12.635 0 25.179 2.427 36.885 7.079-11.002 7.986-20.657 17.937-28.391 29.513-1.46-.929-2.902-1.801-4.303-2.609-3.708-2.139-8.312-2.141-12.018 0-3.704 2.139-6.005 6.125-6.005 10.404v1.831c0 4.608-3.047 8.661-7.409 9.857-13.407 3.676-21.729 11.978-23.46 22.915-10.7 1.305-19.45 9.897-20.481 20.628-.274 2.853-.011 5.672.725 8.335h-29.026c-1.135-5.145-3.5-9.835-6.775-13.743 1.754-28.096 15.336-54.233 37.576-72.09 3.23-2.593 3.746-7.313 1.153-10.543-2.592-3.23-7.313-3.747-10.543-1.153-23.198 18.625-38.195 45.114-42.262 74.023-3.312-1.164-6.865-1.809-10.565-1.82h-.086c-16.411 0-30.117 13.085-30.57 29.208-.397 14.128 9.013 26.517 22.558 29.986v85.34c0 10.976 4.085 21.01 10.802 28.684h-47.765c-9.649 0-17.5 7.851-17.5 17.5v12.918c0 9.649 7.851 17.5 17.5 17.5h33.753l16.02 23.837c5.422 8.068 14.462 12.884 24.183 12.884h164.544c4.142 0 7.5-3.358 7.5-7.5s-3.358-7.5-7.5-7.5h-164.544c-4.716 0-9.103-2.337-11.733-6.251l-10.397-15.47h289.172l-10.397 15.47c-2.631 3.914-7.017 6.251-11.733 6.251h-45.368c-4.142 0-7.5 3.358-7.5 7.5s3.358 7.5 7.5 7.5h105.54c63.665 0 115.46-51.795 115.46-115.46v-124.564c0-63.665-51.795-115.46-115.46-115.46zm-114.54-45.419c0-.276.224-.5.5-.5h19c.276 0 .5.224.5.5v45.857c-3.297-.284-6.631-.438-10-.438-3.356 0-6.69.163-10 .455zm10 60.419c55.394 0 100.46 45.066 100.46 100.46v155.386h-20.569v-131.366c0-9.113-7.414-16.528-16.527-16.528h-120.624c.736-2.663 1-5.481.726-8.334-.8-8.312-6.23-15.341-13.611-18.694 1.232-4.423 1.359-8.964.345-13.459-1.913-8.478-7.531-15.815-14.227-21.85 18.559-28.285 50.201-45.615 84.027-45.615zm-154.792 101.053c.391-4.058 4.072-7.236 8.381-7.236h4.52c2.15 0 4.197-.923 5.621-2.534 1.423-1.611 2.087-3.756 1.822-5.89-.933-7.514 3.082-12.234 12.634-14.853 9.774-2.68 16.896-11.053 18.22-20.972 10.759 6.945 17.656 14.529 19.161 21.198.862 3.819.016 7.409-2.663 11.295-1.581 2.295-1.76 5.277-.464 7.744s3.853 4.012 6.64 4.012h1.074c4.309 0 7.991 3.179 8.381 7.236.254 2.644-.82 5.206-2.802 6.898h-77.723c-1.983-1.691-3.056-4.254-2.802-6.898zm-42.469 54.731h33.261c4.142 0 7.5-3.358 7.5-7.5s-3.358-7.5-7.5-7.5h-33.261v-17.832h260.625c.842 0 1.527.686 1.527 1.528v16.304h-197.957c-4.142 0-7.5 3.358-7.5 7.5s3.358 7.5 7.5 7.5h197.958v28.837c-2.547-.285-5.113-.437-7.687-.437-11.354 0-22.604 2.845-32.534 8.229-4.255 2.306-9.335 2.307-13.591 0-9.93-5.384-21.181-8.229-32.534-8.229s-22.604 2.845-32.534 8.229c-4.255 2.307-9.335 2.307-13.591 0-9.93-5.384-21.181-8.229-32.535-8.229s-22.604 2.845-32.534 8.229c-4.255 2.307-9.335 2.306-13.591 0-9.93-5.384-21.181-8.229-32.534-8.229-6.324 0-12.507.851-18.486 2.533v-30.933zm0 46.714c5.905-2.188 12.1-3.314 18.486-3.314 8.865 0 17.643 2.219 25.386 6.416 4.366 2.366 9.155 3.55 13.944 3.549 4.789 0 9.579-1.183 13.944-3.55 7.743-4.197 16.521-6.416 25.386-6.416s17.644 2.219 25.386 6.416c8.731 4.732 19.157 4.733 27.888 0 7.743-4.197 16.521-6.416 25.386-6.416s17.643 2.219 25.386 6.416c8.732 4.733 19.157 4.733 27.888 0 7.743-4.197 16.521-6.416 25.386-6.416 2.581 0 5.148.206 7.687.571v30.741h-256.111c-3.331 0-6.042-2.71-6.042-6.042zm-35.855-75.045c-7.151-1.48-12.192-7.871-11.986-15.196.227-8.077 7.209-14.63 15.576-14.63h.044c9.496.026 17.221 7.773 17.221 17.269v109.557c0 11.603 9.439 21.042 21.042 21.042h256.111v10.277h-42.19c-.338 0-.667.03-.993.073h-28.948c-.326-.043-.656-.073-.993-.073h-185.696c-15.776 0-28.611-12.835-28.611-28.611v-86.74c0-6.247-4.448-11.701-10.577-12.968zm-41.384 161.311c-1.378 0-2.5-1.122-2.5-2.5v-12.918c0-1.378 1.122-2.5 2.5-2.5h392.824c1.378 0 2.5 1.122 2.5 2.5v12.918c0 1.378-1.122 2.5-2.5 2.5zm479.5-63.739c0 55.394-45.066 100.46-100.46 100.46h-34.567l14.598-21.721h33.753c9.649 0 17.5-7.851 17.5-17.5v-12.918c0-9.649-7.851-17.5-17.5-17.5h-2.864v-155.386c0-38.366-18.815-72.416-47.698-93.423 11.676-4.624 24.181-7.037 36.777-7.037 55.394 0 100.46 45.066 100.46 100.46v124.565z"/></g><g/><g/><g/><g/><g/><g/><g/><g/><g/><g/><g/><g/><g/><g/><g/></svg>