<svg height="512" viewBox="0 0 313 313" width="512" xmlns="http://www.w3.org/2000/svg"><path d="m95.673 143.936.001-.002z" fill="#14437e"/><circle cx="156.5" cy="170.578" fill="#d0df92" r="134.02"/><g fill="#fffcc8"><path d="M260.984 69.314a3.999 3.999 0 0 0-2.107-.577c-.469 0-.962.084-1.481.251a5.422 5.422 0 0 0-1.43.702 4.13 4.13 0 0 0-1.079 1.079 2.4 2.4 0 0 0-.426 1.38c0 .837.333 1.447 1.003 1.832.67.384 1.372.577 2.109.577a5.86 5.86 0 0 0 1.506-.2c.502-.135.97-.344 1.405-.628.435-.285.786-.636 1.054-1.054s.402-.911.402-1.48c-.001-.869-.32-1.497-.956-1.882zM262.466 43.131a49.946 49.946 0 0 0-.275-3.603 19.866 19.866 0 0 0-.642-3.327c-.292-.994-.674-1.805-1.147-2.432-.475-.627-1.078-.941-1.813-.941-.826 0-1.515.237-2.065.711-.551.475-.994 1.094-1.331 1.858a11.242 11.242 0 0 0-.757 2.547c-.168.934-.291 1.874-.367 2.822s-.114 1.843-.114 2.684v2.088c0 .55.007 1.338.022 2.363s.069 2.142.161 3.35c.092 1.209.229 2.44.413 3.694s.436 2.394.757 3.418c.321 1.025.719 1.866 1.193 2.524s1.047.987 1.721.987c.551 0 1.039-.252 1.468-.757s.796-1.162 1.102-1.973.574-1.713.804-2.708c.229-.994.404-1.973.527-2.937.122-.963.214-1.866.275-2.708.061-.841.092-1.506.092-1.996 0-.581.007-1.376.022-2.386a60.02 60.02 0 0 0-.046-3.278z"/></g><g fill="#fffcc8"><path d="M226.636 41.775a5.484 5.484 0 0 0-1.285-1.79c-.535-.489-1.231-.734-2.088-.734-1.01 0-1.767.223-2.271.666a3.648 3.648 0 0 0-1.078 1.675 8.24 8.24 0 0 0-.367 2.203c-.031.796-.062 1.545-.092 2.249a106.37 106.37 0 0 0-.184 4.406l-.092 4.451-4.91.734c.061-1.193.122-2.378.184-3.556.061-1.177.092-2.378.092-3.603v-3.097c0-1.147-.138-2.233-.413-3.258-.275-1.024-.75-1.881-1.423-2.57-.673-.688-1.668-1.032-2.982-1.032-.949 0-1.66.26-2.134.78-.475.521-.812 1.155-1.01 1.905-.199.75-.307 1.553-.321 2.409a86.276 86.276 0 0 1-.068 2.249 144.817 144.817 0 0 0-.069 5.851c.015 1.943-.008 3.877-.068 5.805a112.014 112.014 0 0 1-.321 5.483 65.454 65.454 0 0 0-.229 5.484c0 .551.061 1.132.184 1.744.121.612.321 1.17.597 1.675.274.505.642.918 1.101 1.239s1.04.482 1.744.482c1.132 0 2.019-.367 2.661-1.102.643-.734 1.125-1.613 1.446-2.639.32-1.024.534-2.095.642-3.212.107-1.117.207-2.072.299-2.868l4.543-.459a48.85 48.85 0 0 0-.275 3.052 50.526 50.526 0 0 0-.092 3.052c0 .612.092 1.201.275 1.767.184.566.443 1.071.78 1.514.336.443.757.803 1.262 1.079s1.078.413 1.721.413c.734 0 1.354-.237 1.858-.711.505-.475.918-1.085 1.239-1.835s.558-1.583.711-2.501.275-1.828.367-2.73.153-1.744.184-2.524c.03-.78.062-1.4.092-1.858.184-2.539.337-5.086.459-7.641.122-2.554.184-5.101.184-7.641v-.601c0-.642-.062-1.361-.184-2.157a8.615 8.615 0 0 0-.669-2.248zM242.04 54.574c-.214-1.012-.535-1.898-.964-2.658s-1.055-1.139-1.881-1.139c-.796 0-1.454.253-1.974.76-.521.506-.94 1.167-1.262 1.983-.321.816-.566 1.716-.734 2.7s-.283 1.955-.344 2.911c-.063.957-.092 1.85-.092 2.679v3.481c0 .703.029 1.47.092 2.299a40.1 40.1 0 0 0 .275 2.574c.121.886.313 1.687.573 2.405.26.717.589 1.301.986 1.751s.887.661 1.469.633c.765-.028 1.399-.288 1.904-.781.505-.492.91-1.132 1.216-1.92.306-.787.528-1.659.666-2.616.138-.956.236-1.898.298-2.826.061-.928.092-1.793.092-2.595s.015-1.441.046-1.92c.03-.394.046-.808.046-1.245v-1.244c0-.478-.016-1.216-.046-2.215s-.153-2.005-.366-3.017zM242.087 38.545a4.62 4.62 0 0 0-2.3-.592c-.571 0-1.163.089-1.775.263a5.643 5.643 0 0 0-1.644.756 4.411 4.411 0 0 0-1.215 1.249c-.329.504-.494 1.084-.494 1.742 0 .92.329 1.6.986 2.038.657.439 1.424.657 2.301.657.526 0 1.095-.099 1.709-.296a6.242 6.242 0 0 0 1.708-.854 5.073 5.073 0 0 0 1.283-1.282 2.843 2.843 0 0 0 .492-1.643c.001-.963-.35-1.643-1.051-2.038z"/></g><g fill="#740806"><path d="M262.539 66.749a6.983 6.983 0 0 0-3.662-1.011 7.83 7.83 0 0 0-2.401.396 8.424 8.424 0 0 0-2.22 1.093 7.174 7.174 0 0 0-1.852 1.858 5.432 5.432 0 0 0-.944 3.066c0 1.9.913 3.516 2.507 4.433a7.167 7.167 0 0 0 3.605.977c.756 0 1.521-.101 2.273-.3a7.849 7.849 0 0 0 2.276-1.016 6.507 6.507 0 0 0 1.94-1.949c.581-.904.876-1.947.876-3.098.002-1.932-.851-3.512-2.398-4.449zm-1.002 5.928c-.269.419-.62.77-1.055 1.054s-.902.493-1.404.628a5.86 5.86 0 0 1-1.506.2 4.176 4.176 0 0 1-2.109-.577c-.67-.385-1.003-.996-1.003-1.833 0-.501.142-.961.427-1.38a4.127 4.127 0 0 1 1.078-1.079c.436-.301.912-.535 1.431-.702s1.013-.251 1.481-.251c.77 0 1.472.193 2.107.577.636.385.954 1.012.954 1.882.001.57-.133 1.064-.401 1.481zM265.464 43.014a51.971 51.971 0 0 0-.292-3.821 22.947 22.947 0 0 0-.742-3.832c-.396-1.346-.945-2.488-1.635-3.4-1.041-1.376-2.534-2.132-4.205-2.132-1.539 0-2.93.497-4.023 1.438-.89.767-1.602 1.75-2.119 2.922-.43.978-.754 2.063-.964 3.225a32.433 32.433 0 0 0-.405 3.114 36.837 36.837 0 0 0-.123 2.924v2.088c0 .561.006 1.364.022 2.409.017 1.081.073 2.269.169 3.531.097 1.271.244 2.584.437 3.901.206 1.408.496 2.713.862 3.882.422 1.347.953 2.453 1.623 3.382 1.035 1.437 2.511 2.231 4.154 2.231 1.427 0 2.76-.645 3.754-1.816.65-.766 1.196-1.727 1.622-2.857.353-.936.663-1.976.92-3.091.248-1.075.443-2.163.58-3.231.128-1.014.226-1.979.292-2.869.066-.933.1-1.656.1-2.214 0-.569.006-1.35.021-2.34.017-1.053 0-2.212-.048-3.444zm-2.952 3.398a152.53 152.53 0 0 0-.021 2.386c0 .49-.031 1.155-.092 1.996a54.366 54.366 0 0 1-.275 2.708 30.283 30.283 0 0 1-.527 2.937c-.23.995-.498 1.897-.805 2.708-.305.811-.672 1.468-1.102 1.973-.428.505-.916.757-1.467.757-.674 0-1.248-.329-1.721-.987-.475-.658-.873-1.499-1.193-2.524-.322-1.024-.574-2.164-.758-3.418s-.32-2.485-.412-3.694c-.092-1.208-.146-2.325-.162-3.35s-.021-1.813-.021-2.363v-2.088c0-.841.037-1.736.113-2.684s.199-1.889.367-2.822.42-1.782.758-2.547c.336-.765.779-1.384 1.33-1.858s1.24-.711 2.066-.711c.734 0 1.338.314 1.813.941.473.627.855 1.438 1.146 2.432s.504 2.104.643 3.327c.137 1.224.229 2.425.275 3.603.045 1.175.061 2.268.045 3.278zM229.365 40.529a8.487 8.487 0 0 0-1.988-2.757c-1.091-.996-2.513-1.521-4.113-1.521-1.754 0-3.184.474-4.25 1.41a6.625 6.625 0 0 0-1.96 3.024c-.038.12-.074.241-.108.363-.422-1.398-1.125-2.606-2.092-3.596-1.256-1.284-2.98-1.935-5.127-1.935-2.271 0-3.619.956-4.352 1.758-.801.879-1.371 1.942-1.693 3.159-.26.979-.401 2.031-.42 3.125a81.186 81.186 0 0 1-.066 2.164 151.14 151.14 0 0 0-.072 6.011c.016 1.902-.008 3.815-.066 5.687a108.063 108.063 0 0 1-.313 5.327 68.723 68.723 0 0 0-.24 5.734c0 .75.082 1.536.243 2.335.177.895.481 1.747.904 2.521a6.557 6.557 0 0 0 2.014 2.259c.971.68 2.136 1.024 3.464 1.024 2.528 0 4.07-1.156 4.92-2.126a9.984 9.984 0 0 0 1.645-2.622l.082.265a8.047 8.047 0 0 0 1.246 2.405 6.899 6.899 0 0 0 2.213 1.896c.947.517 2.01.779 3.156.779 1.497 0 2.85-.527 3.912-1.523.808-.76 1.461-1.715 1.943-2.842.413-.963.721-2.036.912-3.188.163-.973.295-1.956.393-2.921.1-.965.165-1.877.197-2.711.029-.746.059-1.339.088-1.777.184-2.546.34-5.141.462-7.695.124-2.597.187-5.215.187-7.784v-.597c0-.789-.072-1.667-.218-2.612a11.552 11.552 0 0 0-.903-3.039zm-1.88 6.248c0 2.54-.061 5.086-.184 7.641a305.933 305.933 0 0 1-.459 7.641 81.437 81.437 0 0 0-.092 1.858c-.029.78-.092 1.622-.184 2.524a42.459 42.459 0 0 1-.367 2.73 10.8 10.8 0 0 1-.711 2.501c-.32.75-.734 1.361-1.238 1.835-.506.474-1.125.711-1.859.711-.643 0-1.215-.137-1.721-.413a3.912 3.912 0 0 1-1.262-1.079 5.06 5.06 0 0 1-.779-1.514 5.674 5.674 0 0 1-.275-1.767c0-1.01.029-2.026.092-3.052a49.62 49.62 0 0 1 .275-3.052l-4.543.459c-.092.796-.191 1.751-.299 2.868a15.722 15.722 0 0 1-.643 3.212c-.32 1.025-.803 1.905-1.445 2.639-.643.734-1.529 1.102-2.662 1.102-.703 0-1.285-.161-1.744-.482s-.826-.734-1.1-1.239a5.846 5.846 0 0 1-.598-1.675 8.849 8.849 0 0 1-.184-1.744c0-1.835.076-3.663.23-5.484.152-1.82.258-3.648.32-5.483.061-1.928.084-3.862.068-5.805-.016-1.942.008-3.893.07-5.851.029-.643.053-1.392.068-2.249.014-.856.121-1.659.32-2.409s.535-1.384 1.01-1.905c.475-.52 1.186-.78 2.135-.78 1.314 0 2.309.344 2.982 1.032.672.688 1.146 1.545 1.422 2.57.275 1.025.414 2.111.414 3.258v3.097c0 1.224-.031 2.425-.092 3.603-.063 1.178-.123 2.363-.184 3.556l4.91-.734c.029-1.499.061-2.983.092-4.451.029-1.469.092-2.937.184-4.406.029-.703.061-1.453.092-2.249a8.207 8.207 0 0 1 .367-2.203 3.645 3.645 0 0 1 1.078-1.675c.504-.443 1.262-.666 2.271-.666.855 0 1.553.246 2.088.734.535.49.963 1.086 1.285 1.79.32.704.543 1.454.664 2.249.123.796.184 1.515.184 2.157v.6zM244.854 53.98c-.273-1.296-.701-2.466-1.273-3.478-.933-1.653-2.531-2.602-4.385-2.602-1.547 0-2.924.545-3.982 1.576-.809.788-1.459 1.794-1.93 2.989a16.638 16.638 0 0 0-.894 3.271 30.727 30.727 0 0 0-.379 3.213 43.916 43.916 0 0 0-.098 2.861v3.481c0 .79.034 1.636.101 2.516.063.881.163 1.81.294 2.753.147 1.076.39 2.084.719 2.992.382 1.053.898 1.954 1.535 2.674.913 1.035 2.165 1.606 3.522 1.606l.238-.006c1.445-.053 2.762-.605 3.775-1.595.799-.777 1.435-1.766 1.889-2.938a14.76 14.76 0 0 0 .832-3.247 42.612 42.612 0 0 0 .419-5.831c0-.745.014-1.328.04-1.732.033-.436.052-.929.052-1.432v-1.245c0-.501-.016-1.254-.048-2.302a19.937 19.937 0 0 0-.427-3.524zm-2.401 7.07c0 .437-.016.851-.047 1.245a31.373 31.373 0 0 0-.045 1.919c0 .802-.031 1.667-.092 2.595-.063.928-.16 1.871-.299 2.827a11.777 11.777 0 0 1-.666 2.616c-.305.788-.711 1.428-1.215 1.919-.506.493-1.141.752-1.904.781l-.102.002c-.537 0-.994-.211-1.367-.635-.398-.45-.727-1.034-.986-1.751a11.568 11.568 0 0 1-.574-2.405 39.397 39.397 0 0 1-.275-2.574c-.063-.829-.092-1.596-.092-2.299v-3.481c0-.829.029-1.722.092-2.679.061-.956.176-1.926.344-2.911s.414-1.884.734-2.7c.322-.815.742-1.477 1.262-1.983s1.178-.759 1.975-.759c.826 0 1.451.379 1.881 1.139.428.759.75 1.646.963 2.658.215 1.013.336 2.019.367 3.017.031.999.047 1.737.047 2.215l-.001 1.244zM243.559 35.931a7.597 7.597 0 0 0-3.771-.978c-.842 0-1.715.127-2.596.377a8.674 8.674 0 0 0-2.515 1.164 7.417 7.417 0 0 0-2.036 2.087c-.65.998-.981 2.136-.981 3.381 0 1.926.825 3.537 2.323 4.535 1.152.769 2.487 1.16 3.965 1.16.834 0 1.718-.148 2.627-.44a9.25 9.25 0 0 0 2.525-1.263 8.1 8.1 0 0 0 2.027-2.041 5.802 5.802 0 0 0 1.012-3.332c0-2.031-.94-3.726-2.58-4.65zm-.912 6.296c-.328.482-.756.91-1.282 1.282s-1.096.657-1.708.854c-.614.197-1.184.296-1.709.296-.878 0-1.645-.218-2.302-.657-.657-.438-.986-1.117-.986-2.038 0-.657.165-1.237.494-1.741s.733-.921 1.216-1.25a5.593 5.593 0 0 1 1.644-.756 6.486 6.486 0 0 1 1.774-.263c.832 0 1.6.197 2.301.592.7.395 1.051 1.074 1.051 2.038a2.851 2.851 0 0 1-.493 1.643z"/></g><g><path d="M140.712 239.899c-1.275 3.973-1.287 8.107-.417 11.923.652 2.872 1.782 5.595 3.259 8.134 2.22 3.807 5.218 7.217 8.768 10.106a41.314 41.314 0 0 0 12.189 6.857c4.512 1.601 9.443 2.439 14.541 2.173a35.337 35.337 0 0 0 11.542-2.583c5.728-2.332 11.198-6.312 15.962-11.981 4.773-5.674 8.874-13.012 12.146-22.231 2.481-6.993 4.489-15.077 5.938-24.406.643-4.146 1.556-7.735 2.646-10.806 1.47-4.142 3.259-7.338 5.144-9.751 2.842-3.62 5.843-5.509 8.718-6.398 2.88-.875 5.726-.751 8.352.174a13.902 13.902 0 0 1 6.099 4.316c1.646 2.019 2.834 4.56 3.276 7.663a7 7 0 0 0 13.863-1.955c-.785-5.592-3.042-10.595-6.303-14.573a27.898 27.898 0 0 0-12.253-8.644 27.206 27.206 0 0 0-11.299-1.484c-5.84.46-11.75 2.889-16.767 7.278-5.032 4.386-9.169 10.64-12.024 18.694-1.415 3.987-2.523 8.425-3.286 13.34-1.335 8.601-3.159 15.846-5.298 21.873-2.508 7.069-5.447 12.453-8.51 16.458-2.299 3.007-4.663 5.243-7.011 6.895-3.527 2.47-7.019 3.671-10.504 4.051-3.479.372-6.981-.121-10.29-1.294a27.306 27.306 0 0 1-7.247-3.906c-3.245-2.431-5.736-5.491-7.045-8.346-.661-1.426-1.037-2.788-1.161-4.005-.123-1.223-.015-2.292.307-3.305a7 7 0 0 0-4.536-8.799 6.995 6.995 0 0 0-8.799 4.532z" fill="#fbb807"/><path d="M272.738 201.132c-.785-5.592-3.042-10.595-6.303-14.573a27.898 27.898 0 0 0-12.253-8.644 27.206 27.206 0 0 0-11.299-1.484c-5.84.46-11.75 2.889-16.767 7.278l-.083.078c3.503 3.077 6.655 6.545 9.454 10.337 1.889-1.611 3.801-2.615 5.662-3.19 2.88-.875 5.726-.751 8.352.174a13.902 13.902 0 0 1 6.099 4.316c1.646 2.019 2.834 4.56 3.276 7.663a7 7 0 0 0 13.862-1.955z" fill="#fffcc8"/><path d="M245.069 176.342c3.141 0 6.223.546 9.113 1.572a27.917 27.917 0 0 1 12.253 8.644c3.261 3.979 5.518 8.981 6.303 14.573a7 7 0 0 1-13.863 1.955c-.442-3.103-1.629-5.644-3.276-7.663a13.91 13.91 0 0 0-6.099-4.316 13.277 13.277 0 0 0-4.428-.767c-1.289 0-2.603.191-3.924.593-2.876.889-5.876 2.779-8.718 6.398-1.885 2.413-3.674 5.609-5.144 9.751-1.09 3.071-2.002 6.66-2.646 10.806-1.449 9.329-3.457 17.414-5.938 24.406-3.273 9.219-7.374 16.557-12.146 22.231-4.763 5.67-10.233 9.649-15.962 11.981a35.337 35.337 0 0 1-13.41 2.632c-4.433 0-8.714-.817-12.672-2.222a41.314 41.314 0 0 1-12.189-6.857c-3.55-2.889-6.547-6.299-8.768-10.106-1.477-2.539-2.608-5.262-3.259-8.134-.871-3.816-.858-7.949.417-11.923a7.002 7.002 0 0 1 8.799-4.536 7 7 0 0 1 4.536 8.799c-.321 1.013-.43 2.083-.307 3.305.125 1.217.5 2.578 1.161 4.005 1.309 2.854 3.799 5.915 7.045 8.346a27.306 27.306 0 0 0 7.247 3.906c2.58.915 5.278 1.416 7.991 1.416.766 0 1.533-.04 2.299-.122 3.485-.38 6.977-1.581 10.504-4.051 2.348-1.652 4.711-3.888 7.011-6.895 3.063-4.005 6.002-9.389 8.51-16.458 2.139-6.027 3.963-13.272 5.298-21.873.763-4.915 1.872-9.353 3.286-13.34 2.855-8.054 6.992-14.307 12.024-18.694 5.016-4.389 10.927-6.819 16.767-7.278a29.09 29.09 0 0 1 2.185-.084m0-3c-.807 0-1.624.033-2.428.098-6.715.528-13.115 3.299-18.5 8.011-5.572 4.856-9.905 11.569-12.876 19.949-1.495 4.214-2.647 8.885-3.423 13.882-1.243 8.008-2.979 15.184-5.16 21.329-2.236 6.304-4.95 11.565-8.066 15.639-1.97 2.576-4.108 4.683-6.354 6.263-2.877 2.015-5.857 3.169-9.104 3.523-.644.069-1.311.104-1.974.104-2.311 0-4.662-.418-6.988-1.243a24.42 24.42 0 0 1-6.445-3.475c-2.734-2.048-4.963-4.67-6.123-7.2-.498-1.073-.808-2.128-.904-3.061-.079-.785-.022-1.451.182-2.092a9.937 9.937 0 0 0-.638-7.621 9.934 9.934 0 0 0-5.843-4.943 10.004 10.004 0 0 0-3.047-.477 9.966 9.966 0 0 0-9.523 6.956c-1.363 4.246-1.531 8.917-.484 13.504.691 3.047 1.9 6.068 3.591 8.975 2.371 4.066 5.556 7.741 9.467 10.924a44.138 44.138 0 0 0 13.078 7.357c4.479 1.589 9.08 2.395 13.677 2.395a38.262 38.262 0 0 0 14.545-2.855c6.399-2.605 12.161-6.922 17.124-12.829 5.116-6.082 9.381-13.873 12.677-23.157 2.596-7.318 4.64-15.712 6.076-24.949.585-3.767 1.429-7.22 2.509-10.264 1.258-3.546 2.833-6.543 4.681-8.908 2.19-2.789 4.56-4.55 7.241-5.379a10.47 10.47 0 0 1 3.038-.459c1.153 0 2.308.201 3.431.596a10.898 10.898 0 0 1 4.774 3.386c1.403 1.721 2.288 3.803 2.627 6.186.691 4.901 4.944 8.6 9.893 8.6.467 0 .94-.033 1.405-.099 5.46-.77 9.276-5.839 8.506-11.299-.839-5.977-3.243-11.529-6.954-16.056a30.906 30.906 0 0 0-13.57-9.57 30.262 30.262 0 0 0-10.118-1.741z" fill="#740806"/><g><path d="m272.43 127.82-11.598-3.042s11.915-5.975 14.379-10.399c3.511-6.302 1.351-7.599-.641-10.844-1.728-2.816-6.092-2.914-8.793-1.01-8.885 6.266-14.101 9.504-14.101 9.504s12.345-18.02 3.361-22.477c-3.756-1.865-8.303-.251-10.086 3.545-1.524 3.245-3.807 7.789-6.593 12.36-.358.586-8.886 9.993-8.886 9.993-.34-8.395-5.875-12.013-9.379-12.138-6.612-.236-7.285 5.612-7.285 5.612 1.394 2.239 2.548 4.669 3.513 7.119 1.512 3.839 2.924 8.566 1.427 12.621-1.003 2.717-3.462 5.058-5.905 6.504-28.157 16.677-56.227 13.029-56.25 13.035l.008.02c-5.723-1.378-12.279-1.949-19.796-1.488 0 0-5.338.103-12.396 2.741-31.841-1.396-67.396 19.88-64.949 39.695.048.388-.03.77-.03 1.14 0 4.32 1.16 8.36 2.95 12.04 1.78 3.67 4.19 6.97 6.63 9.73a57.7 57.7 0 0 0 3.508 3.624s-5.786 7.363-.822 18c4.615 9.89 16.087 8.803 22.684 7.209 2.766 16.039 5.93 34.476 5.93 34.476-33.505 1.782-25.703 27.201-25.663 27.821h55.856l.041-43.838c11.102 1.444 22.956.265 33.381-3.02l23.663 46.858h47.811s5.703-26.038-27.802-27.821l-13.398-50.478c.661-5.883 2.456-28.005-5.1-47.248 30.846-5.943 48.576-26.223 48.993-26.295 14.13-2.459 15.862-11.128 15.967-11.197.839.345 12.012 4.824 18.669 1.053 5.569-3.151 6.77-11.657.702-13.405z" fill="#fbb807"/><g fill="#f28a1c"><path d="m92.697 241.07.174-.038-2.518-18.742c-.709-18.802 2.957-36.41 10.988-52.827-20.524 15.165-27.415 61.739-8.644 71.607zM107.193 245.697s.475 12.356 9.743 18.535l.238 38.981h12.33l.041-43.601c-4.857-1.222-15.461-1.321-22.352-13.915zM275.736 130.36s-3.81 13.515-25.609 3.736c-1.103 6.036-10.014 18.333-25.073 6.036l2.852 9.089s-12.119 15.505-40.634 19.604c0 0-12.002-10.087-18.693-13.973 0 0 8.621 11.676 11.565 24.309 5.703 24.475 1.426 43.96 1.426 43.96s-5.941 37.782-48.178 35.817c-.119.255-.232.513-.354.766 10.066.811 20.547-.408 29.888-3.351l.911 1.804c11.079-.105 23.436-12.461 23.436-12.461l11.644 34.455s32.554-3.327 35.503 22.962c.333-1.707 4.505-26.003-27.822-27.723L193.2 224.912c.661-5.883 2.456-28.005-5.1-47.248 30.846-5.943 48.576-26.223 48.993-26.295 14.13-2.459 15.862-11.128 15.967-11.197.839.345 12.012 4.824 18.669 1.053 4.114-2.328 5.833-7.576 4.007-10.865z"/></g><path d="M163.369 174.301c.238-23.525-12.247-27.8-25.786-27.8-16.536 0-33.382 27.325-32.194 66.057.666 21.716 12.119 34.455 31.129 33.98s28.04-13.545 27.327-29.228z" fill="#fffcc8"/><path d="m273.261 124.938-.035-.01-.034-.009-4.431-1.162c3.595-2.251 7.544-5.175 9.071-7.917 3.626-6.51 2.243-9.49.059-12.71a29.217 29.217 0 0 1-.763-1.163c-1.434-2.336-4.116-3.73-7.177-3.73-2.125 0-4.221.653-5.902 1.837a443.35 443.35 0 0 1-4.361 3.039c1.31-3.547 2.107-7.402 1.273-10.607-.658-2.526-2.245-4.477-4.591-5.641a10.321 10.321 0 0 0-4.631-1.089c-4.048 0-7.778 2.373-9.504 6.046-1.398 2.978-3.635 7.458-6.37 11.96-.454.566-2.458 2.818-4.677 5.288-2.321-5.808-7.286-8.623-10.989-8.755a13.76 13.76 0 0 0-.493-.009c-7.062 0-9.55 5.414-9.88 8.276l-.119 1.04.553.889c1.186 1.904 2.285 4.136 3.269 6.633 1.268 3.218 2.573 7.318 1.404 10.482-.648 1.757-2.419 3.659-4.619 4.962-19.024 11.268-38.061 12.95-47.714 12.95-3.647 0-5.995-.237-6.627-.31l-.009-.001c-4.669-1.093-9.76-1.647-15.138-1.647-1.676 0-3.41.054-5.155.16-.715.022-5.936.268-12.737 2.718a72.826 72.826 0 0 0-2.524-.044h-.005c-21.64 0-45.26 9.622-57.442 23.399-5.673 6.417-8.261 13.215-7.487 19.664l-.013.175a8.233 8.233 0 0 0-.032.661c0 4.424 1.094 8.916 3.252 13.353 1.708 3.521 4.09 7.023 7.08 10.405.63.713 1.292 1.425 1.98 2.129-1.68 3.392-3.771 10.195.234 18.776 3.047 6.528 9.037 9.979 17.322 9.979 1.801 0 3.691-.162 5.649-.484l.05.289c.104.628.215 1.262.327 1.897 1.793 10.407 3.592 20.88 4.473 26.006-10.08 1.079-17.364 4.526-21.679 10.269-4.071 5.418-5.299 12.758-3.457 20.666l.005.023.167 2.593H132.5l.003-2.997.038-40.506c2.159.181 4.355.272 6.564.272 1.614 0 3.236-.058 4.858-.155 3.714.004 9.033-.384 14.345-2.099a81.049 81.049 0 0 0 3.069-.785l22.534 44.622.832 1.647H236.813l.517-2.358c.101-.456 2.366-11.267-4.481-20.257-4.854-6.371-12.889-10.083-23.901-11.048l-12.705-47.866c.54-5.108 1.44-17.858-.923-31.777l.005.007s-.426-4.596-2.367-10.296a75.896 75.896 0 0 0-.859-2.737c17.014-3.969 33.26-12.922 46.119-25.455.24.019.383.023.383.023l.375-.396c9.439-1.993 13.76-6.668 15.698-10.117 2.552.813 6.448 1.791 10.416 1.791 3.171 0 5.902-.636 8.118-1.891 4.18-2.367 6.729-7.168 6.197-11.675-.418-3.535-2.714-6.236-6.144-7.223zm-1.533 16.289c-1.95 1.104-4.288 1.501-6.64 1.501-5.677 0-11.437-2.311-12.029-2.555-.094.061-1.478 6.903-11.684 10.156-9.07 2.023-14.419-3.959-14.419-3.959 1.214 4.451 4.799 6.449 7.675 7.348-5.664 5.322-20.931 18.261-43.942 23.405-1.648-3.343-3.859-6.695-6.825-9.467-.529.524 4.865 8.019 8.05 23.312 2.982 15.132 1.797 29.396 1.285 33.946l13.398 50.479c33.505 1.782 27.803 27.82 27.803 27.82h-47.812l-22.663-44.879c4.906-2.692 9.257-6.932 11.585-13.587 0 0-3.387 7.883-15.114 12.35a80.536 80.536 0 0 1-21.29 2.886c-2.07 0-4.134-.092-6.183-.26-20.953-2.326-26.383-14.976-26.383-14.976 4.083 11.672 14.377 15.934 23.002 17.388l-.038 41.078H73.647c-.04-.62-7.842-26.038 25.664-27.82 0 0-2.153-12.542-4.459-25.936l.032-.006a193.407 193.407 0 0 1-.6-3.293l-.329-1.908c-1.628-9.817-2.299-18.672-2.299-26.571.001-17.56 3.272-30.444 6.519-38.922 1.624-4.239 3.242-7.375 4.445-9.44a37.696 37.696 0 0 1 1.441-2.297c.171-.25.303-.434.39-.552l.096-.128.021-.027.002-.003s-5.522 2.188-8.732 10.189c-3.52 8.774-7.185 22.417-7.183 41.18 0 7.184.541 15.121 1.826 23.815-1.623.268-3.375.462-5.182.462-5.611 0-11.579-1.768-14.603-8.248-4.964-10.637.822-18 .822-18a57.7 57.7 0 0 1-3.508-3.624c-2.44-2.76-4.85-6.061-6.63-9.73-1.79-3.68-2.95-7.72-2.95-12.04 0-.37.078-.752.03-1.14-2.371-19.196 30.918-39.762 61.949-39.76 1.001 0 2.005.021 3 .065 7.058-2.638 12.396-2.741 12.396-2.741a81.8 81.8 0 0 1 5.021-.158c5.458 0 10.365.583 14.775 1.646l-.008-.02c.022 0 2.616.333 7.007.333 10.086 0 29.645-1.761 49.243-13.369 2.442-1.446 4.901-3.787 5.904-6.504 1.497-4.054.085-8.782-1.428-12.621-.965-2.451-2.118-4.88-3.513-7.119 0 0 .646-5.619 6.899-5.619.126 0 .255.002.386.007 3.504.125 9.04 3.743 9.379 12.138 0 0 8.528-9.407 8.887-9.993 2.786-4.572 5.068-9.116 6.594-12.36a7.504 7.504 0 0 1 6.788-4.322c1.109 0 2.235.25 3.298.777 8.983 4.458-3.361 22.477-3.361 22.477s5.217-3.238 14.102-9.504c1.19-.839 2.704-1.29 4.174-1.29 1.862 0 3.653.725 4.619 2.299 1.991 3.245 4.151 4.542.641 10.844-2.464 4.424-14.379 10.399-14.379 10.399l11.598 3.042c6.066 1.747 4.865 10.253-.703 13.406z" fill="#740806"/></g><g><path d="M200.117 96.727c-.29 3.48-2.44 4.63-5.157 3.777 1.504 3.494 2.183 7.081.857 10.025-1.076 2.388-2.701 3.192-4.408 2.725-7.704 22.15-49.935 43.8-49.935 43.8s-43.777-2.224-59.386-15.267c-1.21 2.024-3.301 2.553-5.846.718-2.619-1.888-3.82-5.337-4.261-9.114-1.927 2.095-4.365 2.17-6.354-.7-2.608-3.762.45-27.059 3.162-44.289C37.862 69.727 50.26 40.135 50.26 40.135L88.616 50.85c11.081-8.7 27.957-16.643 51.399-14.051l27.482-28.015s25.423 19.382 8.134 50.902c11.034 14.723 24.76 33.767 24.486 37.041z" fill="#fbb807"/><path d="M194.219 88.396c-4.868-7.604-12.861-18.566-19.789-27.809l-.58-.774.465-.848c4.811-8.78 6.186-16.474 5.768-23.036-.421-6.561-2.656-12.019-5.207-16.23a40.888 40.888 0 0 0-5.615-7.263 34.62 34.62 0 0 0-1.67-1.607L140.574 38.37l-.725-.08c-6.956-.767-13.306-.591-19.084.261l.073.011c-4.058 7.264-2.493 20.63-2.493 20.63l12.959-19.25c4.421.55 7.881.948 7.881.948s20.03 7.573 35.217 41.81c9.709.071 15.93 2.713 19.817 5.696z" fill="#f28a1c"/><path d="M65.628 132.694c1.989 2.871 4.427 2.795 6.354.7.441 3.777 1.643 7.225 4.261 9.114 2.545 1.835 4.636 1.306 5.846-.718 28.566 20.741 59.386 15.267 59.386 15.267s40.8-16.446 49.935-43.8c1.707.466 3.332-.338 4.408-2.725 1.327-2.944.648-6.531-.857-10.025 2.717.852 4.867-.298 5.157-3.777a1.039 1.039 0 0 0-.007-.186c-.222-2.025-5.159-13.693-25.705-13.842-9.551-.07-22.471 2.348-39.862 9.385 0 0-7.046-23.164-17.261-20.432-10.216 2.732-5.216 26.484-5.216 26.484-40.109 5.928-50.657 28.471-46.439 34.555z" fill="#fffcc8"/><path d="M200.115 96.727c-.29 3.48-2.44 4.63-5.157 3.777 1.504 3.494 2.183 7.081.857 10.025-1.076 2.388-2.701 3.192-4.408 2.725-9.135 27.354-49.935 43.8-49.935 43.8s-29.828 5.279-57.994-14.299c32.394 13.767 57.141 9.731 57.141 9.731s30.839-12.306 41.333-42.046c0 0 11.065-2.774-1.205-15.543 0 0 7.93.936 5.278-5.101-1.885-4.291-8.768-6.997-8.768-6.997 18.85 1.194 22.966 12.649 22.858 13.928z" fill="#e5ba97"/><g fill="#740806"><path d="M127.708 60.143c1.302-5.464 4.442-12.97 11.915-13.735 8.152-.836 13.845 5.874 16.855 10.735.51.824-.339 1.71-1.067 1.113a24.608 24.608 0 0 0-4.971-3.163c-8.213-3.924-16.816-.792-21.312 5.908-.499.745-1.636.053-1.42-.858zM82.316 75.294c.582-4.997 2.525-12.404 8.851-14.414 5.8-1.844 10.675 3.293 13.495 7.358.471.678-.136 1.624-.761 1.176-5.607-4.026-13.047-3.756-17.805 2.192a20.655 20.655 0 0 0-2.612 4.25c-.336.732-1.268.284-1.168-.562zM154.023 115.201c1.178-1.091 2.189-2.215 2.997-3.372.77-1.104 1.357-2.25 1.678-3.451.329-1.204.378-2.479.05-3.704a6.929 6.929 0 0 0-.984-2.101c4.004-1.177 7.629-3.225 6.556-4.232-3.643 1.219-6.773 1.814-9.234 2.091-.18-.004-.36.009-.534.056-1.765.173-3.154.182-4.08.145-1.208-.046-1.699 1.557-.656 2.165.849.496 2.207.721 3.762.604.074.095.155.183.248.263.808.708 1.185 1.353 1.355 1.964.136.537-.517 3.05-.98 3.774-.821 1.27-2.124 2.666-3.797 4.061-2.506 2.092-5.698 4.488-9.543 6.026-8.354 3.342-9.476-.974-9.476-.974s-3.648-7.804-4.358-7.553c-.722.255.507 8.511.507 8.511s.306 4.882-8.386 6.511c-3.346.626-6.568.188-9.265-.282-2.464-.418-4.521-1.15-5.963-2.064-.721-.457-1.294-.955-1.712-1.467a4.376 4.376 0 0 1-.853-1.641c-.185-.715-.205-1.531.041-2.541l.014-.142.08-.031c1.425-.617 2.505-1.466 2.979-2.293.531-.928-.555-1.94-1.459-1.372-1.694 1.064-5.564 3.133-11.634 4.361-.352 1.16 2.821 1.212 6.16.514-.037.848.04 1.676.249 2.46a8.039 8.039 0 0 0 1.558 3.014c1.253 1.539 3.009 2.674 5.055 3.505 2.123.86 4.592 1.396 7.294 1.656l3.888.144 4.331 10.999-2.798 2.419s6.796 5.828 23.773 1.288c16.978-4.54 17.68-15.827 17.68-15.827z"/><path d="M160.455 85.647c-.48 3.994-2.006 7.528-4.364 10.034 3.05-4.232 4.033-10.666 2.096-17.132-2.902-9.693-11.232-15.764-18.609-13.555-7.373 2.207-10.998 11.855-8.098 21.551.179.599.38 1.182.599 1.753a26.02 26.02 0 0 1-1.56-3.983c-3.151-10.533.786-21.015 8.798-23.413 8.013-2.403 17.064 4.194 20.217 14.726 1.028 3.439 1.297 6.87.921 10.019z"/></g><path d="M156.089 95.681c-1.521 2.111-3.547 3.682-6 4.418-3.278.979-6.742.318-9.837-1.56-3.44-2.089-6.421-5.685-8.174-10.24a23.607 23.607 0 0 1-.599-1.753c-2.9-9.696.724-19.344 8.098-21.551 7.376-2.21 15.707 3.862 18.609 13.555 1.936 6.465.953 12.899-2.097 17.131z" fill="#fff"/><path d="M152.317 93.139c-.961 1.476-2.262 2.56-3.855 3.044-2.128.642-4.407.116-6.463-1.272-2.285-1.542-4.294-4.148-5.516-7.418a19.493 19.493 0 0 1-.421-1.257c-2.057-6.944.156-13.747 4.945-15.197 4.79-1.45 10.341 3.004 12.399 9.948 1.374 4.631.837 9.191-1.089 12.152z" fill="#bccf00"/><path d="M149.657 89.796c-.623.96-1.467 1.664-2.501 1.977-1.382.417-2.861.075-4.196-.826-1.483-1.001-2.789-2.694-3.582-4.817-.1-.265-.191-.538-.274-.816-1.335-4.508.103-8.926 3.211-9.866 3.11-.943 6.714 1.95 8.051 6.458.891 3.008.541 5.968-.709 7.89z" fill="#740806"/><path d="m145.451 71.285.025-.005a4.102 4.102 0 0 1 5.266 4.328 4.103 4.103 0 0 1-1.904 3.058 4.02 4.02 0 0 1-.973.464 4.102 4.102 0 0 1-5.128-2.716 4.03 4.03 0 0 1-.163-1.061 4.096 4.096 0 0 1 2.877-4.068zM112.542 90.791a26.59 26.59 0 0 0-.523-1.511c-3.359-9.015-10.856-14.603-17.299-12.62-6.794 2.091-9.836 11.811-6.791 21.706 2.427 7.881 7.981 13.482 13.575 14.386 1.429.231 2.863.17 4.246-.255a8.74 8.74 0 0 0 1.227-.478c5.926-2.826 8.421-11.948 5.565-21.228z" fill="#fff"/><path d="M101.507 112.75c-2.47-.074-4.967-1.042-7.274-2.719-3.716-2.702-6.928-7.224-8.654-12.835-3.264-10.609-.007-21.029 7.282-23.272 7.285-2.241 15.839 4.542 19.105 15.151l.055.205c-3.359-9.015-10.856-14.603-17.299-12.62-6.794 2.091-9.836 11.811-6.791 21.706 2.426 7.88 7.979 13.482 13.576 14.384z" fill="#740806"/><path d="M110.215 105.204c-1.006 1.546-2.366 2.682-4.034 3.186-2.229.673-4.612.122-6.764-1.33-2.392-1.614-4.496-4.343-5.774-7.765a20.1 20.1 0 0 1-.441-1.316c-2.153-7.268.164-14.39 5.176-15.905 5.014-1.519 10.824 3.144 12.978 10.411 1.436 4.848.873 9.621-1.141 12.719z" fill="#bccf00"/><path d="M107.433 101.708c-.654 1.003-1.537 1.74-2.619 2.069-1.447.437-2.996.079-4.392-.864-1.553-1.048-2.919-2.82-3.75-5.041a12.57 12.57 0 0 1-.286-.854c-1.397-4.719.107-9.343 3.362-10.328 3.255-.986 7.027 2.041 8.425 6.76.931 3.146.567 6.246-.74 8.258z" fill="#740806"/><path d="m103.03 82.334.026-.005a4.294 4.294 0 0 1 5.511 4.531 4.291 4.291 0 0 1-1.992 3.2 4.234 4.234 0 0 1-1.019.486 4.296 4.296 0 0 1-5.369-2.842 4.293 4.293 0 0 1-.171-1.111c-.067-1.896 1.116-3.677 3.014-4.259z" fill="#fff"/><path d="M92.124 116.351c-5.07 1.355-9.552 1.059-10.012-.662-.46-1.722 3.275-4.216 8.345-5.571 5.067-1.355 9.55-1.059 10.01.663.46 1.72-3.276 4.215-8.343 5.57zM164.778 96.922c-5.069 1.355-9.551 1.058-10.012-.663s3.275-4.215 8.344-5.571c5.069-1.355 9.551-1.058 10.012.663.459 1.721-3.277 4.216-8.344 5.571zM127.419 112.47c-7.252 1.939-32.446-4.59-3.311-12.381s10.562 10.442 3.311 12.381z" fill="#e93e8f"/><path d="M122.469 105.193c.26.973-1.203 2.21-3.268 2.762s-3.949.211-4.21-.763c-.094-.349.037-.732.336-1.105.534-.667 1.606-1.303 2.931-1.656 1.026-.275 2.008-.328 2.768-.193.77.136 1.312.465 1.443.955z" fill="#fff"/><path d="M148.28 129.47c-11.683 1.458-20.461 11.547-20.461 11.547 11.209 5.51 21.336-3.212 24.033-7.554 0 0 2.259-4.721-3.572-3.993z" fill="#e93e8f"/><path d="m169.628 17.438-16.782 23.746c10.461 5.319 18.93 15.6 18.93 15.6 13.749-21.019-2.148-39.346-2.148-39.346zM74.82 67.772c-2.594 6.868-3.784 15.95-3.784 15.95-19.172-9.711-18.221-28.349-17.902-33.733z" fill="#fffcc8"/><path d="m101.385 42.328-7.394 4.314c1.072 8.261 13.698 15.124 13.698 15.124s-5.796-13.394-6.304-19.438z" fill="#f28a1c"/><path d="M66.747 131.613c.044.102.084.177.103.209l.011.017c.67.965 1.293 1.376 1.746 1.508.232.068.436.079.661.045.224-.036.471-.123.749-.291a4.02 4.02 0 0 0 .86-.726l2.214-2.407.379 3.249c.269 2.329.852 4.456 1.808 6.023.51.839 1.114 1.523 1.842 2.048.738.533 1.35.764 1.797.823.451.054.744-.018 1.057-.201.271-.163.559-.445.827-.894l.95-1.588 1.357 1.257c4.645 4.304 10.597 7.425 16.94 9.65 9.512 3.342 19.875 4.66 27.839 5.127 3.981.234 7.365.257 9.746.222a95.344 95.344 0 0 0 3.497-.112c1.298-.546 8.539-3.674 17.129-8.88 6.244-3.782 13.19-8.659 19.056-14.395 5.872-5.736 10.636-12.318 12.65-19.451l.406-1.43 1.434.392c.268.072.497.086.703.062.207-.026.398-.089.609-.216.4-.239.892-.759 1.333-1.739.529-1.171.68-2.515.511-4.022-.167-1.502-.665-3.142-1.377-4.793l-1.294-3.004 3.12.98c.512.161.954.216 1.307.197.355-.02.616-.104.835-.236.238-.146.449-.356.648-.739.195-.377.358-.929.422-1.677a2.938 2.938 0 0 0-.165-.624c-.179-.512-.512-1.244-.969-2.115a58.31 58.31 0 0 0-1.728-3.026c-.464-.769-.987-1.599-1.539-2.461-3.887-2.981-10.108-5.623-19.815-5.694-15.188-34.237-35.217-41.81-35.217-41.81s-3.46-.399-7.881-.948l-12.959 19.25s-1.566-13.365 2.493-20.63l-.073-.011a65.196 65.196 0 0 0-24.442 8.784 68.213 68.213 0 0 0-6.782 4.696l-.598.47-37.749-10.547c-.549 1.676-1.449 4.936-1.772 9.081-.469 6.015.259 13.841 4.921 21.537 3.067 5.059 7.843 10.093 15.215 14.547l.863.521-.156.996c-1.277 8.106-2.628 17.557-3.424 25.643-.398 4.041-.658 7.743-.702 10.743-.023 1.499.009 2.821.099 3.909.088 1.085.244 1.941.416 2.447l.002.007.003.009c.03.093.056.162.078.21l.004.009z" fill="none"/><path d="m64.284 133.379.105.163.004.006c.699 1.007 1.496 1.783 2.412 2.281.911.5 1.952.688 2.931.527a4.835 4.835 0 0 0 1.161-.357c.375 1.717.944 3.352 1.816 4.797.682 1.127 1.556 2.136 2.652 2.926 1.031.743 2.08 1.216 3.149 1.363a4.563 4.563 0 0 0 3.015-.607c.265-.161.504-.353.732-.559 4.842 4.127 10.688 7.104 16.794 9.248 6.612 2.32 13.526 3.683 19.813 4.478 12.572 1.589 22.646.908 22.707.905l.243-.016.225-.092c.048-.021 8.052-3.297 17.772-9.186 6.376-3.864 13.495-8.851 19.598-14.816 5.785-5.66 10.651-12.219 13.042-19.587.139-.004.279.009.418-.008a4.522 4.522 0 0 0 1.797-.628c1.073-.653 1.9-1.712 2.513-3.073.8-1.772.971-3.694.757-5.59-.125-1.112-.393-2.223-.742-3.323a4.667 4.667 0 0 0 1.908-.631c.743-.448 1.351-1.125 1.763-1.936.416-.813.655-1.754.743-2.812.04-.588-.076-1.051-.23-1.567a13.398 13.398 0 0 0-.669-1.663c-.569-1.21-1.379-2.66-2.387-4.324-4.587-7.567-13.311-19.576-20.924-29.753 4.687-8.87 6.125-16.896 5.677-23.811-.459-7.139-2.893-13.068-5.635-17.592-4.128-6.806-8.944-10.479-9.037-10.554l-1.053-.802-27.912 28.455c-18.978-1.938-33.801 2.931-44.672 9.526a71.247 71.247 0 0 0-6.469 4.436l-38.915-10.87-.512 1.221c-.039.097-1.86 4.454-2.415 10.941-.555 6.478.173 15.131 5.322 23.631 3.2 5.285 8.109 10.478 15.371 15.026-1.637 10.495-3.358 22.986-3.868 32.051-.174 3.121-.208 5.833-.032 7.976.103 1.221.265 2.254.556 3.138l-.001.001.003.007a.019.019 0 0 1 .002.008l.001-.001a4.97 4.97 0 0 0 .471 1.047zm2.565-1.553a2.119 2.119 0 0 1-.103-.209l-.001-.002-.004-.009a2.094 2.094 0 0 1-.078-.21l-.003-.009-.002-.007c-.172-.505-.328-1.362-.416-2.447-.09-1.088-.122-2.411-.099-3.909.044-2.999.304-6.701.702-10.743.796-8.086 2.148-17.536 3.424-25.643l.156-.996-.863-.521c-7.372-4.455-12.148-9.488-15.215-14.547-4.661-7.695-5.389-15.522-4.921-21.537.323-4.145 1.223-7.405 1.772-9.081l37.746 10.545.598-.47a68.279 68.279 0 0 1 6.782-4.696 65.19 65.19 0 0 1 24.442-8.784c5.778-.851 12.128-1.027 19.084-.261l.725.08 27.016-27.541c.447.4 1.014.933 1.67 1.607a40.868 40.868 0 0 1 5.615 7.263c2.55 4.211 4.785 9.669 5.207 16.23.418 6.562-.957 14.256-5.768 23.036l-.465.848.58.774c6.929 9.243 14.922 20.205 19.789 27.809.551.862 1.074 1.693 1.539 2.461a57.489 57.489 0 0 1 1.728 3.026c.458.872.79 1.603.969 2.115.12.332.165.576.165.624-.064.747-.227 1.3-.422 1.677-.199.382-.411.593-.648.739a1.76 1.76 0 0 1-.835.236c-.353.019-.796-.037-1.307-.197l-3.12-.98 1.294 3.004c.712 1.65 1.208 3.291 1.377 4.793.169 1.506.017 2.85-.511 4.022-.441.979-.933 1.499-1.333 1.739a1.518 1.518 0 0 1-.609.216 1.79 1.79 0 0 1-.703-.062l-1.434-.392-.406 1.43c-2.013 7.133-6.778 13.716-12.65 19.451-5.866 5.735-12.812 10.613-19.056 14.395-8.591 5.205-15.832 8.334-17.129 8.88a102.942 102.942 0 0 1-3.497.112c-2.381.035-5.764.012-9.746-.222-7.963-.466-18.326-1.785-27.839-5.127-6.343-2.225-12.296-5.346-16.94-9.65l-1.357-1.257-.95 1.588c-.269.448-.557.73-.827.894-.313.182-.606.255-1.057.201-.446-.059-1.059-.29-1.797-.823-.727-.525-1.332-1.209-1.842-2.048-.955-1.567-1.539-3.694-1.808-6.023l-.379-3.249-2.214 2.407a4.069 4.069 0 0 1-.86.726 2.05 2.05 0 0 1-.749.291 1.463 1.463 0 0 1-.661-.045c-.453-.131-1.076-.542-1.746-1.508z" fill="#740806"/><path d="m64.005 132.834-.002-.005-.003-.006z" fill="#740806"/><path d="M95.007 45.027c-2.224-1.168-4.062-3.6-3.701-6.251 1.036-7.603 22.534.107 23.209.299 2.396 4.772-6.161 13.198-11.623 14.138-4.262.733-4.727-3.228-3.997-4.607.816-1.542 2.873-2.19 2.873-2.19s-3.741.196-6.761-1.389z" fill="#fbb807"/><path d="M104.275 55.713c-.309.082-.617.151-.915.202-2.661.458-4.965-.35-6.318-2.219-1.198-1.651-1.387-3.714-.979-5.295a13.55 13.55 0 0 1-2.328-.947c-2.963-1.554-5.703-4.955-5.145-9.05.207-1.52 1.141-4.228 5.065-5.278 5.387-1.44 14.603.961 21.384 3.229l.228.078 1.16.331.541 1.078c.487.969-2.159 1.91-2.159 1.91-.532-.151-14.242-5.633-20.447-3.974-1.682.45-2.834 1.374-3.056 2.996-.359 2.651 1.477 5.084 3.701 6.251 3.02 1.586 6.762 1.389 6.762 1.389s-2.056.647-2.873 2.19c-.73 1.379-.265 5.34 3.997 4.607a7.44 7.44 0 0 0 .67-.147c2.763-.739 6.12-3.139 8.469-5.922.624.71-4.169 7.613-7.757 8.571z" fill="#740806"/></g></g></svg>