<svg height="512" viewBox="0 0 318.149 318.149" width="512" xmlns="http://www.w3.org/2000/svg"><circle cx="161.439" cy="158.464" fill="#d0df92" r="134.02"/><path d="M271.154 26.191c-.392.32-.845.57-1.357.748a8.24 8.24 0 0 1-1.611.379c-.558.075-1.037.13-1.437.167.084-.469.236-.973.455-1.511s.495-1.033.832-1.487a4.018 4.018 0 0 1 1.187-1.085c.455-.27.987-.369 1.599-.296.417.049.699.28.849.693.147.413.201.8.158 1.16a1.822 1.822 0 0 1-.675 1.232zm5.716 8.291a2.338 2.338 0 0 0-1.437-.721c-.501-.06-1.011.021-1.531.241a20.39 20.39 0 0 0-1.591.763c-.541.289-1.094.54-1.654.754-.562.215-1.12.29-1.676.224-.751-.089-1.375-.346-1.875-.772-.498-.425-.757-1.047-.771-1.868a10.463 10.463 0 0 0 3.771-.418 11.402 11.402 0 0 0 3.411-1.646 9.823 9.823 0 0 0 2.562-2.697 8.348 8.348 0 0 0 1.271-3.571c.118-1 .03-1.926-.262-2.779a6.851 6.851 0 0 0-1.296-2.268 6.887 6.887 0 0 0-2.091-1.624 7.802 7.802 0 0 0-2.652-.801c-1.668-.198-3.16.076-4.476.821a11.296 11.296 0 0 0-3.398 2.979 16.133 16.133 0 0 0-2.293 4.168c-.578 1.538-.948 3.002-1.113 4.392-.155 1.307-.113 2.672.125 4.096.24 1.424.682 2.752 1.324 3.984a10.051 10.051 0 0 0 2.563 3.159c1.066.875 2.336 1.398 3.81 1.573.861.103 1.832 0 2.913-.309a12.68 12.68 0 0 0 3.101-1.365 10.36 10.36 0 0 0 2.539-2.151c.705-.832 1.114-1.721 1.227-2.667.067-.584-.1-1.083-.501-1.497zm-16.707-23.257a5.93 5.93 0 0 0-.159-1.33 3.267 3.267 0 0 0-.518-1.161 1.361 1.361 0 0 0-.987-.583c-.641-.076-1.299.135-1.979.632-.679.497-1.343 1.159-1.989 1.983-.649.826-1.281 1.75-1.896 2.777s-1.172 2.032-1.668 3.016a61.342 61.342 0 0 0-2.083 4.532 31.677 31.677 0 0 1-.142-2.005 54.79 54.79 0 0 0-.215-2.816 45.886 45.886 0 0 0-.432-3.139 16.165 16.165 0 0 0-.772-2.924c-.331-.885-.744-1.632-1.235-2.24-.492-.608-1.099-.956-1.821-1.042-.64-.076-1.195.035-1.667.331a4.007 4.007 0 0 0-1.196 1.168 6.093 6.093 0 0 0-.761 1.602 9.014 9.014 0 0 0-.363 1.627c-.126 1.057-.139 2.232-.038 3.526.1 1.295.262 2.598.486 3.906.226 1.31.501 2.604.829 3.884.326 1.279.655 2.432.984 3.457.19.53.528 1.008 1.014 1.432.484.424.997.739 1.538.944a76.352 76.352 0 0 0-1.614 2.007 27.486 27.486 0 0 0-1.632 2.343c-.505.814-.942 1.643-1.311 2.487s-.598 1.656-.69 2.434a4.36 4.36 0 0 0 .302 2.256c.299.697.892 1.1 1.781 1.206.64.076 1.311-.119 2.015-.585s1.412-1.087 2.125-1.862a25.25 25.25 0 0 0 2.114-2.666 76.759 76.759 0 0 0 1.984-3 95.084 95.084 0 0 0 1.709-2.82c.515-.883.945-1.614 1.297-2.193a99.313 99.313 0 0 0 2.073-3.56c.752-1.349 1.468-2.744 2.146-4.185s1.265-2.879 1.76-4.316c.495-1.435.815-2.764.961-3.987a9.42 9.42 0 0 0 .05-1.136z" fill="#fffcc8"/><path d="M243.887 6.902c.123 0 .25.008.38.023.723.086 1.329.433 1.821 1.042.491.608.904 1.355 1.235 2.24.332.885.589 1.86.772 2.924a46.43 46.43 0 0 1 .432 3.139c.103 1.027.174 1.966.215 2.816.039.851.087 1.519.142 2.005a62.449 62.449 0 0 1 2.083-4.532c.496-.983 1.053-1.989 1.668-3.016s1.247-1.951 1.896-2.777c.646-.825 1.311-1.486 1.989-1.983.59-.431 1.163-.647 1.723-.647.085 0 .171.005.256.015.417.049.746.244.987.583s.415.726.518 1.161c.104.435.156.878.159 1.33s-.014.83-.05 1.136c-.146 1.224-.466 2.553-.961 3.987a43.146 43.146 0 0 1-1.76 4.316 69.543 69.543 0 0 1-2.146 4.185 99.313 99.313 0 0 1-2.073 3.56c-.352.579-.782 1.31-1.297 2.193a93.808 93.808 0 0 1-1.709 2.82 77.52 77.52 0 0 1-1.984 3 25.25 25.25 0 0 1-2.114 2.666c-.713.775-1.421 1.396-2.125 1.862-.606.401-1.187.601-1.744.601a2.2 2.2 0 0 1-.27-.016c-.89-.106-1.482-.508-1.781-1.206-.296-.698-.397-1.449-.302-2.256.093-.778.322-1.59.69-2.434s.806-1.673 1.311-2.487a27.486 27.486 0 0 1 1.632-2.343 76.352 76.352 0 0 1 1.614-2.007 5.052 5.052 0 0 1-1.538-.944c-.485-.423-.823-.901-1.014-1.432a59.322 59.322 0 0 1-.984-3.457 49.16 49.16 0 0 1-.829-3.884 41.904 41.904 0 0 1-.486-3.906c-.101-1.294-.088-2.469.038-3.526.06-.5.181-1.042.363-1.627a6.093 6.093 0 0 1 .761-1.602 4.018 4.018 0 0 1 1.196-1.168 2.36 2.36 0 0 1 1.286-.354m26.133 10.333c.335 0 .677.021 1.027.062.944.112 1.828.38 2.652.801a6.856 6.856 0 0 1 2.091 1.624 6.861 6.861 0 0 1 1.296 2.268c.292.853.38 1.779.262 2.779a8.313 8.313 0 0 1-1.271 3.571 9.78 9.78 0 0 1-2.562 2.697 11.413 11.413 0 0 1-3.411 1.646 10.547 10.547 0 0 1-3.014.447c-.252 0-.504-.009-.757-.028.015.82.273 1.442.771 1.868.5.426 1.124.683 1.875.772.131.016.261.023.392.023.426 0 .854-.082 1.284-.247.561-.214 1.113-.466 1.654-.754s1.072-.542 1.591-.763c.41-.173.814-.26 1.211-.26.107 0 .214.006.32.019a2.346 2.346 0 0 1 1.437.721c.401.414.568.913.499 1.497-.112.945-.521 1.835-1.227 2.667a10.36 10.36 0 0 1-2.539 2.151 12.572 12.572 0 0 1-3.101 1.365c-.811.232-1.56.348-2.247.348-.229 0-.451-.013-.666-.038-1.474-.175-2.743-.699-3.81-1.573a10.038 10.038 0 0 1-2.563-3.159 13.354 13.354 0 0 1-1.324-3.984c-.238-1.424-.28-2.789-.125-4.096.165-1.39.535-2.854 1.113-4.392a16.133 16.133 0 0 1 2.293-4.168 11.296 11.296 0 0 1 3.398-2.979c1.043-.59 2.192-.885 3.451-.885m-3.271 10.251c.399-.037.879-.092 1.437-.167a8.205 8.205 0 0 0 1.611-.379 4.4 4.4 0 0 0 1.357-.748c.39-.319.614-.73.674-1.231.043-.36-.011-.748-.158-1.16-.149-.413-.432-.644-.849-.693a3.093 3.093 0 0 0-.379-.023 2.35 2.35 0 0 0-1.22.319 4.057 4.057 0 0 0-1.187 1.085 6.748 6.748 0 0 0-.832 1.487 7.603 7.603 0 0 0-.454 1.51M243.887 3.902a5.33 5.33 0 0 0-2.881.813 7.017 7.017 0 0 0-2.09 2.033 9.078 9.078 0 0 0-1.139 2.392c-.234.751-.395 1.48-.476 2.159-.148 1.246-.165 2.63-.05 4.113.106 1.38.281 2.787.521 4.181s.536 2.78.88 4.121a62.402 62.402 0 0 0 1.067 3.726 6.213 6.213 0 0 0 1.103 1.906 30.682 30.682 0 0 0-1.522 2.221 22.573 22.573 0 0 0-1.513 2.873c-.483 1.107-.792 2.21-.919 3.278-.157 1.327.017 2.599.518 3.782.724 1.688 2.249 2.783 4.189 3.014.208.025.417.037.625.037 1.154 0 2.299-.37 3.401-1.1.9-.595 1.801-1.38 2.676-2.332a28.347 28.347 0 0 0 2.369-2.984 81.565 81.565 0 0 0 2.063-3.118 96.99 96.99 0 0 0 1.763-2.91c.5-.858.922-1.574 1.266-2.14.402-.654.837-1.388 1.298-2.188a19.457 19.457 0 0 0-.246 1.525c-.188 1.582-.139 3.246.145 4.945a16.425 16.425 0 0 0 1.623 4.877 13.062 13.062 0 0 0 3.322 4.092c1.509 1.237 3.311 1.989 5.357 2.232a8.75 8.75 0 0 0 1.02.059c.964 0 1.997-.156 3.072-.463a15.713 15.713 0 0 0 3.836-1.687 13.414 13.414 0 0 0 3.269-2.775c1.089-1.284 1.734-2.715 1.916-4.251a4.755 4.755 0 0 0-1.324-3.939 5.478 5.478 0 0 0-1.433-1.064c.362-.429.699-.884 1.008-1.363a11.344 11.344 0 0 0 1.728-4.841c.171-1.448.036-2.828-.402-4.107a9.87 9.87 0 0 0-1.864-3.257 9.886 9.886 0 0 0-2.992-2.332 10.828 10.828 0 0 0-3.668-1.111c-.466-.055-.93-.083-1.381-.083-1.778 0-3.436.429-4.928 1.274a14.198 14.198 0 0 0-3.431 2.731c.113-.305.222-.61.326-.914.562-1.629.934-3.18 1.104-4.611.051-.435.074-.928.071-1.509a8.862 8.862 0 0 0-.241-2.005 6.28 6.28 0 0 0-.991-2.205 4.368 4.368 0 0 0-3.08-1.824 5.128 5.128 0 0 0-.608-.036c-1.205 0-2.38.412-3.493 1.225-.901.66-1.768 1.519-2.581 2.555a28.525 28.525 0 0 0-1.469 2.06 17.61 17.61 0 0 0-.57-1.823c-.441-1.179-1.017-2.213-1.711-3.072-.986-1.219-2.3-1.957-3.8-2.135a6.071 6.071 0 0 0-.733-.045z" fill="#740806"/><g><path d="M289.178 75.028c-.392.32-.845.57-1.357.748a8.24 8.24 0 0 1-1.611.379c-.558.075-1.037.13-1.437.167.084-.469.236-.973.455-1.511s.495-1.033.832-1.487a4.018 4.018 0 0 1 1.187-1.085c.455-.27.987-.369 1.599-.296.417.049.699.28.849.693.147.413.201.8.158 1.16a1.822 1.822 0 0 1-.675 1.232zm5.715 8.292a2.338 2.338 0 0 0-1.437-.721c-.501-.06-1.011.021-1.531.241a20.39 20.39 0 0 0-1.591.763c-.541.289-1.094.54-1.654.754-.562.215-1.12.29-1.676.224-.751-.089-1.375-.346-1.875-.772-.498-.425-.757-1.047-.771-1.868a10.463 10.463 0 0 0 3.771-.418 11.402 11.402 0 0 0 3.411-1.646 9.823 9.823 0 0 0 2.562-2.697 8.348 8.348 0 0 0 1.271-3.571c.118-1 .03-1.926-.262-2.779a6.851 6.851 0 0 0-1.296-2.268 6.887 6.887 0 0 0-2.091-1.624 7.802 7.802 0 0 0-2.652-.801c-1.668-.198-3.16.076-4.476.821a11.296 11.296 0 0 0-3.398 2.979 16.133 16.133 0 0 0-2.293 4.168c-.578 1.538-.948 3.002-1.113 4.392-.155 1.307-.113 2.672.125 4.096.24 1.424.682 2.752 1.324 3.984a10.051 10.051 0 0 0 2.563 3.159c1.066.875 2.336 1.398 3.81 1.573.861.103 1.832 0 2.913-.309a12.68 12.68 0 0 0 3.101-1.365 10.36 10.36 0 0 0 2.539-2.151c.705-.832 1.114-1.721 1.227-2.667.068-.584-.099-1.083-.501-1.497zm-16.707-23.257a5.93 5.93 0 0 0-.159-1.33 3.267 3.267 0 0 0-.518-1.161 1.361 1.361 0 0 0-.987-.583c-.641-.076-1.299.135-1.979.632-.679.497-1.343 1.159-1.989 1.983-.649.826-1.281 1.75-1.896 2.777s-1.172 2.032-1.668 3.016a61.342 61.342 0 0 0-2.083 4.532 31.677 31.677 0 0 1-.142-2.005 54.79 54.79 0 0 0-.215-2.816 45.886 45.886 0 0 0-.432-3.139 16.165 16.165 0 0 0-.772-2.924c-.331-.885-.744-1.632-1.235-2.24-.492-.608-1.099-.956-1.821-1.042-.64-.076-1.195.035-1.667.331a4.007 4.007 0 0 0-1.196 1.168 6.093 6.093 0 0 0-.761 1.602 9.014 9.014 0 0 0-.363 1.627c-.126 1.057-.139 2.232-.038 3.526.1 1.295.262 2.598.486 3.906.226 1.31.501 2.604.829 3.884.326 1.279.655 2.432.984 3.457.19.53.528 1.008 1.014 1.432.484.424.997.739 1.538.944a76.352 76.352 0 0 0-1.614 2.007 27.486 27.486 0 0 0-1.632 2.343c-.505.814-.942 1.643-1.311 2.487s-.598 1.656-.69 2.434a4.36 4.36 0 0 0 .302 2.256c.299.697.892 1.1 1.781 1.206.64.076 1.311-.119 2.015-.585s1.412-1.087 2.125-1.862a25.25 25.25 0 0 0 2.114-2.666 76.759 76.759 0 0 0 1.984-3 95.084 95.084 0 0 0 1.709-2.82c.515-.883.945-1.614 1.297-2.193a99.313 99.313 0 0 0 2.073-3.56c.752-1.349 1.468-2.744 2.146-4.185s1.265-2.879 1.76-4.316c.495-1.435.815-2.764.961-3.987.037-.306.053-.684.05-1.136z" fill="#fffcc8"/><path d="M261.91 55.739c.123 0 .25.008.38.023.723.086 1.329.433 1.821 1.042.491.608.904 1.355 1.235 2.24.332.885.589 1.86.772 2.924a46.43 46.43 0 0 1 .432 3.139c.103 1.027.174 1.966.215 2.816.039.851.087 1.519.142 2.005a62.449 62.449 0 0 1 2.083-4.532c.496-.983 1.053-1.989 1.668-3.016s1.247-1.951 1.896-2.777c.646-.825 1.311-1.486 1.989-1.983.59-.431 1.163-.647 1.723-.647.085 0 .171.005.256.015.417.049.746.244.987.583s.415.726.518 1.161c.104.435.156.878.159 1.33s-.014.83-.05 1.136c-.146 1.224-.466 2.553-.961 3.987a43.146 43.146 0 0 1-1.76 4.316 69.543 69.543 0 0 1-2.146 4.185 99.313 99.313 0 0 1-2.073 3.56c-.352.579-.782 1.31-1.297 2.193a93.808 93.808 0 0 1-1.709 2.82 77.52 77.52 0 0 1-1.984 3 25.25 25.25 0 0 1-2.114 2.666c-.713.775-1.421 1.396-2.125 1.862-.606.401-1.187.601-1.744.601a2.2 2.2 0 0 1-.27-.016c-.89-.106-1.482-.508-1.781-1.206-.296-.698-.397-1.449-.302-2.256.093-.778.322-1.59.69-2.434s.806-1.673 1.311-2.487a27.486 27.486 0 0 1 1.632-2.343 76.352 76.352 0 0 1 1.614-2.007 5.052 5.052 0 0 1-1.538-.944c-.485-.423-.823-.901-1.014-1.432a59.322 59.322 0 0 1-.984-3.457 49.16 49.16 0 0 1-.829-3.884 41.904 41.904 0 0 1-.486-3.906c-.101-1.294-.088-2.469.038-3.526.06-.5.181-1.042.363-1.627a6.093 6.093 0 0 1 .761-1.602 4.018 4.018 0 0 1 1.196-1.168 2.373 2.373 0 0 1 1.286-.354m26.134 10.334c.335 0 .677.021 1.027.062.944.112 1.828.38 2.652.801a6.856 6.856 0 0 1 2.091 1.624 6.861 6.861 0 0 1 1.296 2.268c.292.853.38 1.779.262 2.779a8.313 8.313 0 0 1-1.271 3.571 9.78 9.78 0 0 1-2.562 2.697 11.413 11.413 0 0 1-3.411 1.646 10.547 10.547 0 0 1-3.014.447c-.252 0-.504-.009-.757-.028.015.82.273 1.442.771 1.868.5.426 1.124.683 1.875.772.131.016.261.023.392.023.426 0 .854-.082 1.284-.247.561-.214 1.113-.466 1.654-.754s1.072-.542 1.591-.763c.41-.173.814-.26 1.211-.26.107 0 .214.006.32.019a2.346 2.346 0 0 1 1.437.721c.401.414.568.913.499 1.497-.112.945-.521 1.835-1.227 2.667a10.36 10.36 0 0 1-2.539 2.151 12.572 12.572 0 0 1-3.101 1.365c-.811.232-1.56.348-2.247.348-.229 0-.451-.013-.666-.038-1.474-.175-2.743-.699-3.81-1.573a10.038 10.038 0 0 1-2.563-3.159 13.354 13.354 0 0 1-1.324-3.984c-.238-1.424-.28-2.789-.125-4.096.165-1.39.535-2.854 1.113-4.392a16.133 16.133 0 0 1 2.293-4.168 11.296 11.296 0 0 1 3.398-2.979c1.042-.591 2.191-.885 3.451-.885m-3.272 10.25c.399-.037.879-.092 1.437-.167a8.205 8.205 0 0 0 1.611-.379 4.4 4.4 0 0 0 1.357-.748c.39-.319.614-.73.674-1.231.043-.36-.011-.748-.158-1.16-.149-.413-.432-.644-.849-.693a3.093 3.093 0 0 0-.379-.023 2.35 2.35 0 0 0-1.22.319 4.057 4.057 0 0 0-1.187 1.085 6.748 6.748 0 0 0-.832 1.487 7.71 7.71 0 0 0-.454 1.51M261.91 52.739a5.33 5.33 0 0 0-2.881.813 7.017 7.017 0 0 0-2.09 2.033 9.078 9.078 0 0 0-1.139 2.392c-.234.751-.395 1.48-.476 2.159-.148 1.246-.165 2.63-.05 4.113.106 1.38.281 2.787.521 4.181s.536 2.78.88 4.121a62.402 62.402 0 0 0 1.067 3.726 6.213 6.213 0 0 0 1.103 1.906 30.682 30.682 0 0 0-1.522 2.221 22.573 22.573 0 0 0-1.513 2.873c-.483 1.107-.792 2.21-.919 3.278-.157 1.327.017 2.599.518 3.782.724 1.688 2.249 2.783 4.189 3.014.208.025.417.037.625.037 1.154 0 2.299-.37 3.401-1.1.9-.595 1.801-1.38 2.676-2.332a28.347 28.347 0 0 0 2.369-2.984 81.565 81.565 0 0 0 2.063-3.118 96.99 96.99 0 0 0 1.763-2.91c.5-.858.922-1.574 1.266-2.14.402-.654.837-1.388 1.298-2.188a19.457 19.457 0 0 0-.246 1.525c-.188 1.582-.139 3.246.145 4.945a16.425 16.425 0 0 0 1.623 4.877 13.062 13.062 0 0 0 3.322 4.092c1.509 1.237 3.311 1.989 5.357 2.232a8.75 8.75 0 0 0 1.02.059c.964 0 1.997-.156 3.072-.463a15.713 15.713 0 0 0 3.836-1.687 13.414 13.414 0 0 0 3.269-2.775c1.089-1.284 1.734-2.715 1.916-4.251a4.755 4.755 0 0 0-1.324-3.939 5.478 5.478 0 0 0-1.433-1.064c.362-.429.699-.884 1.008-1.363a11.344 11.344 0 0 0 1.728-4.841c.171-1.448.036-2.828-.402-4.107a9.87 9.87 0 0 0-1.864-3.257 9.886 9.886 0 0 0-2.992-2.332 10.828 10.828 0 0 0-3.668-1.111c-.466-.055-.93-.083-1.381-.083-1.778 0-3.436.429-4.928 1.274a14.198 14.198 0 0 0-3.431 2.731c.113-.305.222-.61.326-.914.562-1.629.934-3.18 1.104-4.611.051-.435.074-.928.071-1.509a8.862 8.862 0 0 0-.241-2.005 6.28 6.28 0 0 0-.991-2.205 4.368 4.368 0 0 0-3.08-1.824 5.128 5.128 0 0 0-.608-.036c-1.205 0-2.38.412-3.493 1.225-.901.66-1.768 1.519-2.581 2.555a28.525 28.525 0 0 0-1.469 2.06 17.61 17.61 0 0 0-.57-1.823c-.441-1.179-1.017-2.213-1.711-3.072-.986-1.219-2.3-1.957-3.8-2.135a6.059 6.059 0 0 0-.733-.045z" fill="#740806"/></g><g><g fill="none"><path d="M22.386 70.74c-.098 0-.195.017-.292.028.109-.013.218-.026.328-.024-.011-.001-.024-.004-.036-.004zM57.598 91.642zM35.086 65.199c-.013 0-.026.007-.038.008.021-.001.043-.005.065-.004-.01-.001-.019-.004-.027-.004zM31.876 89.87c.198 0 .394-.012.586-.037a4.623 4.623 0 0 1-.783.025c.065.003.132.012.197.012zM55.997 91.834c.212 0 .426-.019.639-.04a6.969 6.969 0 0 1-.866.029c.076.003.151.011.227.011zM34.712 102.753c.076 0 .157-.017.236-.025a2.163 2.163 0 0 1-.32.011c.028.001.054.014.084.014zM62.411 79.753l-.025.002c.08-.001.161.008.241.015-.072-.006-.145-.017-.216-.017zM52.784 66.915l-.128.001c.072-.001.141.005.213.006-.029.001-.056-.007-.085-.007z"/></g><path d="M38.999 72.225c-.239-1.499-.583-2.822-1.031-3.97a9.2 9.2 0 0 0-.49-1.025 5.934 5.934 0 0 0-.767-1.098 3.266 3.266 0 0 0-1.004-.78 1.446 1.446 0 0 0-.295-.109c-.033-.008-.067-.01-.1-.015a1.227 1.227 0 0 0-.2-.024c-.021 0-.043.004-.065.004a1.438 1.438 0 0 0-.486.096c-.601.234-1.082.731-1.447 1.489s-.639 1.654-.82 2.687a26.207 26.207 0 0 0-.365 3.343 46.795 46.795 0 0 0-.051 3.446c.023 1.104.067 2.1.13 2.992s.118 1.554.167 1.986c-.277-.403-.635-.97-1.069-1.702a56.034 56.034 0 0 0-1.517-2.383 46.714 46.714 0 0 0-1.859-2.565 16.16 16.16 0 0 0-2.059-2.216c-.709-.625-1.425-1.089-2.145-1.394a3.226 3.226 0 0 0-.556-.178c-.062-.014-.124-.015-.186-.024-.121-.018-.242-.038-.362-.039a2.401 2.401 0 0 0-.328.024c-.057.007-.115.006-.172.016a2.704 2.704 0 0 0-.494.14c-.6.234-1.037.594-1.314 1.077a4.016 4.016 0 0 0-.505 1.594 6.093 6.093 0 0 0 .083 1.771 9.07 9.07 0 0 0 .446 1.606c.387.992.929 2.035 1.627 3.129.698 1.096 1.455 2.168 2.27 3.217s1.668 2.061 2.561 3.035c.89.975 1.724 1.836 2.496 2.586.418.378.941.641 1.569.786a5.413 5.413 0 0 0 1.017.133c.266.011.528.008.783-.025a78.404 78.404 0 0 0-.479 2.531c-.16.935-.272 1.88-.336 2.835-.062.956-.057 1.893.016 2.812.073.918.253 1.743.538 2.472a4.352 4.352 0 0 0 1.328 1.848c.163.131.338.224.52.294.058.022.12.03.18.046.129.035.26.061.398.068.104.005.211.001.32-.011.056-.006.111-.008.168-.018a2.96 2.96 0 0 0 .553-.155c.6-.234 1.1-.722 1.501-1.465.402-.743.733-1.624.998-2.643.263-1.019.466-2.135.609-3.348.142-1.212.255-2.406.337-3.581.083-1.174.144-2.272.18-3.293.038-1.021.073-1.869.11-2.545.073-1.201.124-2.572.152-4.116s.003-3.112-.077-4.703a42.982 42.982 0 0 0-.478-4.638zM63.169 79.875a2.707 2.707 0 0 0-.394-.093c-.049-.008-.098-.007-.148-.012-.081-.008-.161-.016-.241-.015a2.172 2.172 0 0 0-.291.028c-.041.006-.082.006-.123.014a2.462 2.462 0 0 0-.409.118c-.47.184-.882.495-1.237.934-.354.439-.702.913-1.044 1.422s-.711.991-1.104 1.444a3.484 3.484 0 0 1-1.372.987c-.21.082-.417.14-.621.185-.061.013-.121.022-.181.032-.149.025-.297.04-.443.045-.037.001-.075.011-.112.011-.023 0-.045-.007-.067-.007a3.034 3.034 0 0 1-.594-.064c-.64-.141-1.16-.567-1.56-1.284a10.457 10.457 0 0 0 3.129-2.145c.934-.92 1.678-1.94 2.233-3.059a9.799 9.799 0 0 0 .989-3.586 8.322 8.322 0 0 0-.562-3.749c-.367-.938-.881-1.714-1.54-2.329a6.834 6.834 0 0 0-2.211-1.39 6.655 6.655 0 0 0-1.153-.323c-.024-.005-.047-.012-.071-.016a7.278 7.278 0 0 0-1.173-.103c-.071-.001-.141-.007-.213-.006a7.827 7.827 0 0 0-2.717.542c-1.565.61-2.753 1.555-3.562 2.833a11.287 11.287 0 0 0-1.595 4.229 16.168 16.168 0 0 0-.06 4.757c.215 1.629.578 3.095 1.087 4.398.479 1.226 1.158 2.41 2.039 3.554a13.373 13.373 0 0 0 3.045 2.891 10.03 10.03 0 0 0 3.75 1.579 6.999 6.999 0 0 0 1.126.123c.288.01.576-.002.866-.029l.06-.004a7.14 7.14 0 0 0 1.13-.205c.306-.08.612-.173.92-.293.809-.315 1.616-.863 2.425-1.645a12.64 12.64 0 0 0 2.092-2.665c.588-.996.997-2.027 1.227-3.093.23-1.065.172-2.043-.174-2.93a1.763 1.763 0 0 0-1.146-1.081zm-12.224-1.404c-.146-.454-.249-.969-.31-1.547s-.05-1.145.033-1.704a4.062 4.062 0 0 1 .535-1.517c.275-.452.697-.791 1.271-1.014.119-.047.235-.065.348-.07.014-.001.028-.008.042-.008.021 0 .04.011.061.013a.871.871 0 0 1 .23.047c.032.011.064.02.095.034.102.048.203.109.3.196.324.294.554.611.686.949.184.47.179.938-.015 1.403-.194.467-.477.9-.845 1.299-.371.4-.784.765-1.243 1.094-.456.329-.853.604-1.188.825z" fill="#fffcc8"/><path d="M67.109 79.869a4.76 4.76 0 0 0-3.023-2.851 5.497 5.497 0 0 0-1.675-.266h-.09c.117-.548.199-1.107.246-1.676a11.314 11.314 0 0 0-.756-5.084c-.53-1.357-1.3-2.511-2.289-3.433a9.896 9.896 0 0 0-3.178-1.996 9.858 9.858 0 0 0-3.561-.649l-.178.001a10.841 10.841 0 0 0-3.758.748c-2.166.845-3.85 2.199-5.005 4.022a14.186 14.186 0 0 0-1.74 4.024 40.134 40.134 0 0 0-.143-.959c-.271-1.702-.675-3.245-1.198-4.587a12.14 12.14 0 0 0-.648-1.365 8.973 8.973 0 0 0-1.156-1.655 6.255 6.255 0 0 0-1.913-1.478 4.36 4.36 0 0 0-3.576-.157c-.909.355-2.18 1.161-3.057 2.98-.484 1.006-.845 2.172-1.073 3.469-.141.792-.25 1.633-.325 2.508a17.47 17.47 0 0 0-1.361-1.34c-.943-.832-1.939-1.473-2.956-1.904a5.898 5.898 0 0 0-2.31-.483 5.61 5.61 0 0 0-2.049.39c-1.232.481-2.21 1.304-2.827 2.381a7.038 7.038 0 0 0-.886 2.777 9.094 9.094 0 0 0 .122 2.646c.146.772.348 1.491.597 2.128.456 1.169 1.093 2.398 1.894 3.652.743 1.167 1.561 2.326 2.429 3.443s1.782 2.2 2.717 3.221a62.686 62.686 0 0 0 2.621 2.714l.075.07a6.2 6.2 0 0 0 1.871 1.161 30.702 30.702 0 0 0-.296 2.676 22.654 22.654 0 0 0 .019 3.247c.096 1.204.342 2.322.732 3.325a7.348 7.348 0 0 0 2.239 3.092 4.856 4.856 0 0 0 3.067 1.089c.672 0 1.36-.136 2.047-.403 1.278-.5 2.305-1.453 3.051-2.834.514-.949.938-2.066 1.263-3.318.296-1.148.526-2.409.684-3.748.149-1.271.268-2.522.352-3.722a99.73 99.73 0 0 0 .185-3.397c.037-.993.071-1.823.108-2.484.046-.767.085-1.618.114-2.541.15.504.317.992.501 1.461a17.493 17.493 0 0 0 2.457 4.293 16.452 16.452 0 0 0 3.729 3.537 13.074 13.074 0 0 0 4.857 2.045 9.965 9.965 0 0 0 1.938.192c1.279 0 2.57-.251 3.839-.746 1.178-.459 2.329-1.228 3.42-2.284a15.685 15.685 0 0 0 2.589-3.295 13.38 13.38 0 0 0 1.576-3.987c.355-1.642.251-3.208-.312-4.65zm-27.553 1.695a97.695 97.695 0 0 1-.152 4.116 154.03 154.03 0 0 0-.11 2.545 93.863 93.863 0 0 1-.18 3.293 76.77 76.77 0 0 1-.337 3.581 25.618 25.618 0 0 1-.609 3.348c-.265 1.019-.596 1.9-.998 2.643-.401.743-.901 1.231-1.501 1.465a2.905 2.905 0 0 1-.553.155c-.057.01-.112.012-.168.018-.079.009-.16.025-.236.025-.03 0-.055-.013-.085-.014a1.81 1.81 0 0 1-.398-.068c-.06-.016-.122-.024-.18-.046a1.943 1.943 0 0 1-.52-.294 4.358 4.358 0 0 1-1.328-1.848c-.285-.729-.465-1.554-.538-2.472a19.809 19.809 0 0 1-.016-2.812c.063-.956.176-1.901.336-2.835.162-.935.321-1.778.479-2.531a4.542 4.542 0 0 1-.586.037c-.065 0-.132-.009-.197-.012a5.543 5.543 0 0 1-1.017-.133c-.628-.145-1.151-.408-1.569-.786a60.201 60.201 0 0 1-2.496-2.586 49.049 49.049 0 0 1-2.561-3.035 42.705 42.705 0 0 1-2.27-3.217c-.698-1.094-1.24-2.137-1.627-3.129a8.985 8.985 0 0 1-.446-1.606 6.094 6.094 0 0 1-.083-1.771c.06-.579.229-1.109.505-1.594.277-.483.715-.843 1.314-1.077.163-.064.328-.109.494-.14.057-.011.115-.01.172-.016.097-.011.194-.028.292-.028.012 0 .024.004.036.004.12.002.241.021.362.039.062.009.123.01.186.024.184.041.369.099.556.178.72.305 1.436.77 2.145 1.394a16.16 16.16 0 0 1 2.059 2.216 46.714 46.714 0 0 1 1.859 2.565 57.05 57.05 0 0 1 1.517 2.383 32.1 32.1 0 0 0 1.069 1.702 61.965 61.965 0 0 1-.297-4.978 46.802 46.802 0 0 1 .051-3.446c.059-1.195.181-2.309.365-3.343.182-1.032.455-1.929.82-2.687s.847-1.255 1.447-1.489c.164-.064.326-.091.486-.096.013 0 .026-.008.038-.008.009 0 .018.003.026.003.067.001.133.013.2.024.033.006.067.007.1.015.099.025.198.061.295.109.373.186.708.444 1.004.78.296.335.551.701.767 1.098a9.2 9.2 0 0 1 .49 1.025c.448 1.148.792 2.471 1.031 3.97.239 1.5.399 3.045.48 4.636.08 1.594.106 3.162.077 4.706zm24.932 2.326a10.32 10.32 0 0 1-1.227 3.093 12.64 12.64 0 0 1-2.092 2.665c-.809.782-1.616 1.33-2.425 1.645a8.225 8.225 0 0 1-2.05.498l-.06.004c-.213.021-.426.04-.639.04-.076 0-.151-.009-.227-.011a6.999 6.999 0 0 1-1.126-.123 10.03 10.03 0 0 1-3.75-1.579 13.416 13.416 0 0 1-3.045-2.891c-.881-1.144-1.561-2.328-2.039-3.554-.509-1.304-.872-2.77-1.087-4.398a16.135 16.135 0 0 1 .06-4.757 11.3 11.3 0 0 1 1.595-4.229c.809-1.277 1.996-2.222 3.562-2.833a7.781 7.781 0 0 1 2.717-.542l.128-.001c.029 0 .056.007.085.007.401.005.793.035 1.173.103.024.004.047.011.071.016.396.075.781.179 1.153.323.813.313 1.55.776 2.211 1.39.659.615 1.173 1.391 1.54 2.329a8.32 8.32 0 0 1 .562 3.749 9.819 9.819 0 0 1-.989 3.586 11.428 11.428 0 0 1-2.233 3.059 10.457 10.457 0 0 1-3.129 2.145c.399.717.92 1.144 1.56 1.284.195.043.393.06.594.064.023 0 .045.007.067.007.037 0 .075-.01.112-.011.146-.005.294-.02.443-.045.06-.01.121-.018.181-.032.204-.045.411-.103.621-.185a3.47 3.47 0 0 0 1.372-.987c.394-.453.763-.935 1.104-1.444s.69-.983 1.044-1.422c.355-.439.768-.75 1.237-.934.136-.053.272-.091.409-.118.041-.008.082-.008.123-.014.097-.014.194-.027.291-.028l.025-.002c.072 0 .144.011.216.018.049.005.098.004.148.012.13.02.262.05.394.093.55.176.932.538 1.146 1.085.346.882.404 1.86.174 2.925z" fill="#740806"/><path d="M54.221 75.254c.193-.465.198-.934.015-1.403-.132-.338-.361-.654-.686-.949a1.197 1.197 0 0 0-.3-.196c-.031-.015-.063-.023-.095-.034a.871.871 0 0 0-.23-.047c-.021-.001-.04-.013-.061-.013-.013 0-.028.008-.042.008a1.083 1.083 0 0 0-.348.07c-.574.223-.996.562-1.271 1.014a4.05 4.05 0 0 0-.535 1.517c-.083.559-.094 1.126-.033 1.704s.163 1.093.31 1.547a36.5 36.5 0 0 0 1.188-.824 8.222 8.222 0 0 0 1.243-1.094c.369-.4.651-.833.845-1.3z" fill="#740806"/><g><g fill="none"><path d="M30.901 23.073c-.098 0-.195.017-.292.028.109-.013.218-.026.328-.024-.012 0-.024-.004-.036-.004zM66.113 43.975zM43.6 17.532c-.013 0-.026.007-.038.008.021-.001.043-.005.065-.004-.009-.001-.018-.004-.027-.004zM40.39 42.203c.198 0 .394-.012.586-.037a4.623 4.623 0 0 1-.783.025c.065.003.132.012.197.012zM64.511 44.168c.212 0 .426-.019.639-.04a6.969 6.969 0 0 1-.866.029c.076.002.152.011.227.011zM43.226 55.087c.076 0 .157-.017.236-.025a2.163 2.163 0 0 1-.32.011c.029 0 .054.014.084.014zM70.925 32.087l-.025.002c.08-.001.161.008.241.015-.072-.007-.144-.017-.216-.017zM61.298 19.249l-.128.001c.072-.001.141.005.213.006-.029 0-.055-.007-.085-.007z"/></g><path d="M47.513 24.558c-.239-1.499-.583-2.822-1.031-3.97a9.2 9.2 0 0 0-.49-1.025 5.934 5.934 0 0 0-.767-1.098 3.266 3.266 0 0 0-1.004-.78 1.446 1.446 0 0 0-.295-.109c-.033-.008-.067-.01-.1-.015a1.227 1.227 0 0 0-.2-.024c-.021 0-.043.004-.065.004a1.438 1.438 0 0 0-.486.096c-.601.234-1.082.731-1.447 1.489s-.639 1.654-.82 2.687a26.207 26.207 0 0 0-.365 3.343 46.795 46.795 0 0 0-.051 3.446c.023 1.104.067 2.1.13 2.992s.118 1.554.167 1.986c-.277-.403-.635-.97-1.069-1.702a56.034 56.034 0 0 0-1.517-2.383 46.714 46.714 0 0 0-1.859-2.565 16.16 16.16 0 0 0-2.059-2.216c-.709-.625-1.425-1.089-2.145-1.394a3.226 3.226 0 0 0-.556-.178c-.062-.014-.124-.015-.186-.024-.121-.018-.242-.038-.362-.039a2.401 2.401 0 0 0-.328.024c-.057.007-.115.006-.172.016a2.704 2.704 0 0 0-.494.14c-.6.234-1.037.594-1.314 1.077a4.016 4.016 0 0 0-.505 1.594 6.093 6.093 0 0 0 .083 1.771 9.07 9.07 0 0 0 .446 1.606c.387.992.929 2.035 1.627 3.129.698 1.096 1.455 2.168 2.27 3.217s1.668 2.061 2.561 3.035c.89.975 1.724 1.836 2.496 2.586.418.378.941.641 1.569.786a5.413 5.413 0 0 0 1.017.133c.266.011.528.008.783-.025a78.404 78.404 0 0 0-.479 2.531c-.16.935-.272 1.88-.336 2.835-.062.956-.057 1.893.016 2.812.073.918.253 1.743.538 2.472a4.352 4.352 0 0 0 1.328 1.848c.163.131.338.224.52.294.058.022.12.03.18.046.129.035.26.061.398.068.104.005.211.001.32-.011.056-.006.111-.008.168-.018a2.96 2.96 0 0 0 .553-.155c.6-.234 1.1-.722 1.501-1.465.402-.743.733-1.624.998-2.643.263-1.019.466-2.135.609-3.348.142-1.212.255-2.406.337-3.581.083-1.174.144-2.272.18-3.293.038-1.021.073-1.869.11-2.545.073-1.201.124-2.572.152-4.116s.003-3.112-.077-4.703a42.534 42.534 0 0 0-.478-4.638zM71.683 32.209a2.707 2.707 0 0 0-.394-.093c-.049-.008-.098-.007-.148-.012-.081-.008-.161-.016-.241-.015a2.172 2.172 0 0 0-.291.028c-.041.006-.082.006-.123.014a2.462 2.462 0 0 0-.409.118c-.47.184-.882.495-1.237.934-.354.439-.702.913-1.044 1.422s-.711.991-1.104 1.444a3.484 3.484 0 0 1-1.372.987c-.21.082-.417.14-.621.185-.061.013-.121.022-.181.032-.149.025-.297.04-.443.045-.037.001-.075.011-.112.011-.023 0-.045-.007-.067-.007a3.034 3.034 0 0 1-.594-.064c-.64-.141-1.16-.567-1.56-1.284a10.457 10.457 0 0 0 3.129-2.145c.934-.92 1.678-1.94 2.233-3.059a9.799 9.799 0 0 0 .989-3.586 8.322 8.322 0 0 0-.562-3.749c-.367-.938-.881-1.714-1.54-2.329a6.834 6.834 0 0 0-2.211-1.39 6.655 6.655 0 0 0-1.153-.323c-.024-.005-.047-.012-.071-.016a7.278 7.278 0 0 0-1.173-.103c-.071-.001-.141-.007-.213-.006a7.827 7.827 0 0 0-2.717.542c-1.565.61-2.753 1.555-3.562 2.833a11.287 11.287 0 0 0-1.595 4.229 16.168 16.168 0 0 0-.06 4.757c.215 1.629.578 3.095 1.087 4.398.479 1.226 1.158 2.41 2.039 3.554a13.373 13.373 0 0 0 3.045 2.891 10.03 10.03 0 0 0 3.75 1.579 6.999 6.999 0 0 0 1.126.123c.288.01.576-.002.866-.029l.06-.004a7.14 7.14 0 0 0 1.13-.205c.306-.08.612-.173.92-.293.809-.315 1.616-.863 2.425-1.645a12.64 12.64 0 0 0 2.092-2.665c.588-.996.997-2.027 1.227-3.093.23-1.065.172-2.043-.174-2.93a1.756 1.756 0 0 0-1.146-1.081zM59.46 30.804c-.146-.454-.249-.969-.31-1.547s-.05-1.145.033-1.704a4.062 4.062 0 0 1 .535-1.517c.275-.452.697-.791 1.271-1.014.119-.047.235-.065.348-.07.014-.001.028-.008.042-.008.021 0 .04.011.061.013a.871.871 0 0 1 .23.047c.032.011.064.02.095.034.102.048.203.109.3.196.324.294.554.611.686.949.184.47.179.938-.015 1.403-.194.467-.477.9-.845 1.299-.371.4-.784.765-1.243 1.094-.456.33-.853.605-1.188.825z" fill="#fffcc8"/><path d="M75.624 32.203a4.76 4.76 0 0 0-3.023-2.851 5.497 5.497 0 0 0-1.675-.266h-.09c.117-.548.199-1.107.246-1.676a11.314 11.314 0 0 0-.756-5.084c-.53-1.357-1.3-2.511-2.289-3.433a9.896 9.896 0 0 0-3.178-1.996 9.858 9.858 0 0 0-3.561-.649l-.178.001a10.841 10.841 0 0 0-3.758.748c-2.166.845-3.85 2.199-5.005 4.022a14.186 14.186 0 0 0-1.74 4.024 40.134 40.134 0 0 0-.143-.959c-.271-1.702-.675-3.245-1.198-4.587a12.14 12.14 0 0 0-.648-1.365 8.973 8.973 0 0 0-1.156-1.655 6.255 6.255 0 0 0-1.913-1.478 4.36 4.36 0 0 0-3.576-.157c-.909.355-2.18 1.161-3.057 2.98-.484 1.006-.845 2.172-1.073 3.469-.141.792-.25 1.633-.325 2.508a17.47 17.47 0 0 0-1.361-1.34c-.943-.832-1.939-1.473-2.956-1.904a5.898 5.898 0 0 0-2.31-.483 5.61 5.61 0 0 0-2.049.39c-1.232.481-2.21 1.304-2.827 2.381a7.038 7.038 0 0 0-.886 2.777 9.094 9.094 0 0 0 .122 2.646c.146.772.348 1.491.597 2.128.456 1.169 1.093 2.398 1.894 3.652.743 1.167 1.561 2.326 2.429 3.443s1.782 2.2 2.717 3.221a62.686 62.686 0 0 0 2.621 2.714l.075.07a6.2 6.2 0 0 0 1.871 1.161 30.702 30.702 0 0 0-.296 2.676 22.654 22.654 0 0 0 .019 3.247c.096 1.204.342 2.322.732 3.325a7.348 7.348 0 0 0 2.239 3.092 4.856 4.856 0 0 0 3.067 1.089c.672 0 1.36-.136 2.047-.403 1.278-.5 2.305-1.453 3.051-2.834.514-.949.938-2.066 1.263-3.318.296-1.148.526-2.409.684-3.748.149-1.271.268-2.522.352-3.722a99.73 99.73 0 0 0 .185-3.397c.037-.993.071-1.823.108-2.484.046-.767.085-1.618.114-2.541.15.504.317.992.501 1.461a17.493 17.493 0 0 0 2.457 4.293 16.452 16.452 0 0 0 3.729 3.537 13.074 13.074 0 0 0 4.857 2.045 9.965 9.965 0 0 0 1.938.192c1.279 0 2.57-.251 3.839-.746 1.178-.459 2.329-1.228 3.42-2.284a15.685 15.685 0 0 0 2.589-3.295 13.38 13.38 0 0 0 1.576-3.987c.355-1.642.25-3.208-.312-4.65zm-27.553 1.694a97.695 97.695 0 0 1-.152 4.116 154.03 154.03 0 0 0-.11 2.545 93.863 93.863 0 0 1-.18 3.293 76.77 76.77 0 0 1-.337 3.581 25.618 25.618 0 0 1-.609 3.348c-.265 1.019-.596 1.9-.998 2.643-.401.743-.901 1.231-1.501 1.465a2.905 2.905 0 0 1-.553.155c-.057.01-.112.012-.168.018-.079.009-.16.025-.236.025-.03 0-.055-.013-.085-.014a1.81 1.81 0 0 1-.398-.068c-.06-.016-.122-.024-.18-.046a1.943 1.943 0 0 1-.52-.294 4.358 4.358 0 0 1-1.328-1.848c-.285-.729-.465-1.554-.538-2.472a19.809 19.809 0 0 1-.016-2.812c.063-.956.176-1.901.336-2.835.162-.935.321-1.778.479-2.531a4.542 4.542 0 0 1-.586.037c-.065 0-.132-.009-.197-.012a5.543 5.543 0 0 1-1.017-.133c-.628-.145-1.151-.408-1.569-.786a60.201 60.201 0 0 1-2.496-2.586 49.049 49.049 0 0 1-2.561-3.035 42.705 42.705 0 0 1-2.27-3.217c-.698-1.094-1.24-2.137-1.627-3.129a8.985 8.985 0 0 1-.446-1.606 6.094 6.094 0 0 1-.083-1.771c.06-.579.229-1.109.505-1.594.277-.483.715-.843 1.314-1.077.163-.064.328-.109.494-.14.057-.011.115-.01.172-.016.097-.011.194-.028.292-.028.012 0 .024.004.036.004.12.002.241.021.362.039.062.009.123.01.186.024.184.041.369.099.556.178.72.305 1.436.77 2.145 1.394a16.16 16.16 0 0 1 2.059 2.216 46.714 46.714 0 0 1 1.859 2.565 57.05 57.05 0 0 1 1.517 2.383 32.1 32.1 0 0 0 1.069 1.702 61.965 61.965 0 0 1-.297-4.978 46.802 46.802 0 0 1 .051-3.446c.059-1.195.181-2.309.365-3.343.182-1.032.455-1.929.82-2.687s.847-1.255 1.447-1.489c.164-.064.326-.091.486-.096.013 0 .026-.008.038-.008.009 0 .018.003.026.003.067.001.133.013.2.024.033.006.067.007.1.015.099.025.198.061.295.109.373.186.708.444 1.004.78.296.335.551.701.767 1.098a9.2 9.2 0 0 1 .49 1.025c.448 1.148.792 2.471 1.031 3.97.239 1.5.399 3.045.48 4.636.08 1.594.105 3.162.077 4.706zm24.932 2.327a10.32 10.32 0 0 1-1.227 3.093 12.64 12.64 0 0 1-2.092 2.665c-.809.782-1.616 1.33-2.425 1.645a8.225 8.225 0 0 1-2.05.498l-.06.004c-.213.021-.426.04-.639.04-.076 0-.151-.009-.227-.011a6.999 6.999 0 0 1-1.126-.123 10.03 10.03 0 0 1-3.75-1.579 13.416 13.416 0 0 1-3.045-2.891c-.881-1.144-1.561-2.328-2.039-3.554-.509-1.304-.872-2.77-1.087-4.398a16.135 16.135 0 0 1 .06-4.757 11.3 11.3 0 0 1 1.595-4.229c.809-1.277 1.996-2.222 3.562-2.833a7.781 7.781 0 0 1 2.717-.542l.128-.001c.029 0 .056.007.085.007.401.005.793.035 1.173.103.024.004.047.011.071.016.396.075.781.179 1.153.323.813.313 1.55.776 2.211 1.39.659.615 1.173 1.391 1.54 2.329a8.32 8.32 0 0 1 .562 3.749 9.819 9.819 0 0 1-.989 3.586 11.428 11.428 0 0 1-2.233 3.059 10.457 10.457 0 0 1-3.129 2.145c.399.717.92 1.144 1.56 1.284.195.043.393.06.594.064.023 0 .045.007.067.007.037 0 .075-.01.112-.011.146-.005.294-.02.443-.045.06-.01.121-.018.181-.032.204-.045.411-.103.621-.185a3.47 3.47 0 0 0 1.372-.987c.394-.453.763-.935 1.104-1.444s.69-.983 1.044-1.422c.355-.439.768-.75 1.237-.934.136-.053.272-.091.409-.118.041-.008.082-.008.123-.014.097-.014.194-.027.291-.028l.025-.002c.072 0 .144.011.216.018.049.005.098.004.148.012.13.02.262.05.394.093.55.176.932.538 1.146 1.085.345.882.404 1.859.174 2.925z" fill="#740806"/><path d="M62.736 27.587c.193-.465.198-.934.015-1.403-.132-.338-.361-.654-.686-.949a1.197 1.197 0 0 0-.3-.196c-.031-.015-.063-.023-.095-.034a.871.871 0 0 0-.23-.047c-.021-.001-.04-.013-.061-.013-.013 0-.028.008-.042.008a1.083 1.083 0 0 0-.348.07c-.574.223-.996.562-1.271 1.014a4.05 4.05 0 0 0-.535 1.517c-.083.559-.094 1.126-.033 1.704s.163 1.093.31 1.547a36.5 36.5 0 0 0 1.188-.824 8.222 8.222 0 0 0 1.243-1.094c.368-.4.651-.833.845-1.3z" fill="#740806"/></g></g><g><path d="M186.7 259.91c1.275 3.973 1.288 8.106.417 11.923-.651 2.871-1.782 5.595-3.259 8.134-2.221 3.808-5.218 7.217-8.768 10.105a41.304 41.304 0 0 1-12.189 6.857c-4.513 1.602-9.442 2.438-14.541 2.173a35.286 35.286 0 0 1-11.542-2.583c-5.729-2.332-11.198-6.312-15.962-11.981-4.772-5.674-8.873-13.011-12.146-22.23-2.481-6.992-4.489-15.077-5.938-24.406-.644-4.146-1.557-7.735-2.646-10.807-1.47-4.142-3.259-7.338-5.144-9.751-2.843-3.62-5.843-5.51-8.719-6.398a13.215 13.215 0 0 0-8.352.174 13.917 13.917 0 0 0-6.1 4.315c-1.646 2.02-2.833 4.561-3.275 7.663a7.001 7.001 0 0 1-13.863-1.955c.785-5.592 3.043-10.595 6.304-14.573a27.916 27.916 0 0 1 12.253-8.645 27.187 27.187 0 0 1 11.299-1.483c5.84.459 11.75 2.889 16.767 7.278 5.032 4.386 9.169 10.64 12.024 18.693 1.415 3.987 2.522 8.425 3.286 13.34 1.335 8.601 3.158 15.846 5.298 21.873 2.508 7.068 5.446 12.453 8.51 16.458 2.299 3.006 4.663 5.243 7.011 6.895 3.527 2.47 7.02 3.671 10.504 4.052 3.479.371 6.981-.121 10.291-1.295a27.316 27.316 0 0 0 7.246-3.906c3.246-2.431 5.736-5.491 7.045-8.346.662-1.426 1.037-2.787 1.162-4.005.123-1.222.015-2.292-.307-3.305a6.999 6.999 0 0 1 4.535-8.799 6.998 6.998 0 0 1 8.799 4.535z" fill="#fbb807"/><path d="M54.674 221.143c.785-5.592 3.043-10.595 6.304-14.573a27.908 27.908 0 0 1 12.253-8.645 27.187 27.187 0 0 1 11.299-1.483c5.84.459 11.75 2.889 16.767 7.278l.084.078c-3.503 3.077-6.655 6.545-9.454 10.338-1.889-1.611-3.802-2.615-5.662-3.19a13.215 13.215 0 0 0-8.352.174 13.917 13.917 0 0 0-6.1 4.315c-1.646 2.02-2.833 4.56-3.275 7.663a7.001 7.001 0 0 1-13.864-1.955z" fill="#fffcc8"/><path d="M82.343 196.353c.727 0 1.455.029 2.187.089 5.84.459 11.75 2.889 16.767 7.278 5.032 4.386 9.169 10.64 12.024 18.693 1.415 3.987 2.522 8.425 3.286 13.34 1.335 8.601 3.158 15.846 5.298 21.873 2.508 7.068 5.446 12.453 8.51 16.458 2.299 3.006 4.663 5.243 7.011 6.895 3.527 2.47 7.02 3.671 10.504 4.052a21.89 21.89 0 0 0 2.3.121c2.713 0 5.41-.501 7.991-1.416a27.316 27.316 0 0 0 7.246-3.906c3.246-2.431 5.736-5.491 7.045-8.346.662-1.426 1.037-2.787 1.162-4.005.123-1.222.015-2.292-.307-3.305a6.999 6.999 0 0 1 4.535-8.799 6.96 6.96 0 0 1 2.134-.335 7 7 0 0 1 6.665 4.87c1.275 3.973 1.288 8.106.417 11.923-.651 2.871-1.782 5.595-3.259 8.134-2.221 3.808-5.218 7.217-8.768 10.105a41.304 41.304 0 0 1-12.189 6.857c-3.959 1.404-8.239 2.222-12.673 2.222a35.458 35.458 0 0 1-13.41-2.632c-5.729-2.332-11.198-6.312-15.962-11.981-4.772-5.674-8.873-13.011-12.146-22.23-2.481-6.992-4.489-15.077-5.938-24.406-.644-4.146-1.557-7.735-2.646-10.807-1.47-4.142-3.259-7.338-5.144-9.751-2.842-3.62-5.843-5.51-8.719-6.398a13.472 13.472 0 0 0-3.924-.593c-1.521 0-3.007.266-4.428.767a13.917 13.917 0 0 0-6.1 4.315c-1.646 2.02-2.833 4.56-3.275 7.663a7 7 0 1 1-13.863-1.955c.785-5.592 3.043-10.595 6.304-14.573a27.916 27.916 0 0 1 12.253-8.645 27.239 27.239 0 0 1 9.112-1.572m-10.116-1.255a30.909 30.909 0 0 0-13.569 9.57c-3.71 4.526-6.115 10.079-6.954 16.056-.77 5.46 3.047 10.528 8.506 11.299a10.2 10.2 0 0 0 1.405.099c4.949 0 9.202-3.699 9.894-8.601.339-2.383 1.224-4.466 2.627-6.187a10.906 10.906 0 0 1 4.774-3.386 10.295 10.295 0 0 1 3.431-.596c1.014 0 2.041.155 3.038.459 2.681.829 5.051 2.59 7.24 5.379 1.848 2.365 3.423 5.362 4.681 8.908 1.08 3.044 1.925 6.497 2.509 10.264 1.436 9.236 3.479 17.631 6.076 24.949 3.295 9.283 7.561 17.075 12.676 23.157 4.963 5.906 10.726 10.224 17.124 12.828a38.262 38.262 0 0 0 14.545 2.855c4.598 0 9.198-.806 13.677-2.395a44.175 44.175 0 0 0 13.079-7.357c3.911-3.184 7.096-6.857 9.467-10.925 1.691-2.906 2.899-5.928 3.591-8.975 1.047-4.587.879-9.258-.484-13.504a9.966 9.966 0 0 0-9.523-6.956c-1.032 0-2.057.16-3.047.477a9.934 9.934 0 0 0-5.843 4.943 9.937 9.937 0 0 0-.639 7.621c.204.641.262 1.308.183 2.092-.096.933-.407 1.987-.904 3.061-1.16 2.53-3.39 5.152-6.123 7.2a24.43 24.43 0 0 1-6.444 3.475c-2.326.825-4.678 1.243-6.988 1.243-.663 0-1.33-.035-1.974-.104-3.247-.354-6.227-1.508-9.104-3.523-2.246-1.58-4.384-3.687-6.354-6.263-3.115-4.074-5.829-9.336-8.065-15.64-2.182-6.145-3.918-13.321-5.16-21.329-.776-4.997-1.929-9.668-3.424-13.883-2.971-8.379-7.305-15.092-12.876-19.948-5.386-4.712-11.785-7.482-18.5-8.011a30.231 30.231 0 0 0-12.548 1.648z" fill="#740806"/><g><path d="M284.243 145.167c-.323-4.25 15.496-14.428 14.257-28.871-.713-8.317-9.726-4.812-9.726-4.812-1.908-7.251-9.112-13.887-13.977-8.733 0 0-9.98-4.099-14.359 2.317-2.776 4.068 3.27 10.479 3.27 10.479s-.731 3.5-1.383 5.712c-.19.646-2.768 2.75-3.809 1.954-2.229-1.706-5.385-4.6-10.197-3.887s-3.899 7.829-.713 10.693c3.187 2.864 7.133 1.196 6.594 11.228.318 1.738-3.7 16.396-16.057 13.545-11.605-2.678-46.606-8.219-56.34-6.193a46.87 46.87 0 0 0-6.66-.729c-7.295-.283-14.942 1.004-22.19 4.382-1.953-1.883-4.301-3.371-7.042-4.275-7.041-2.323-44.753 8.935-56.616 13.418-11.862 4.483-17.811-9.504-17.728-11.269-1.879-9.869 2.255-8.745 5.029-12.011 2.773-3.265 2.723-10.44-2.141-10.501s-7.603 3.231-9.583 5.22c-.925.929-3.762-.811-4.037-1.426-.942-2.105-2.137-5.475-2.137-5.475s5.132-7.164 1.835-10.823c-5.2-5.771-14.54-.37-14.54-.37-5.513-4.455-11.762 3.087-12.68 10.528 0 0-9.401-2.265-8.992 6.073.71 14.479 17.751 22.443 18.001 26.698 3.311 56.304 46.548 53.711 77.151 44.333-2.222 9.101-3.959 21.487-1.899 33.446-9.434 5.927-16.867 12.277-19.977 18.07-4.19 7.803-4.689 17.151.99 28.202 0 0-20.178 7.409-18.614 25.036l44.717 1.093c10.967-10.144-9.504-35.732 24.563-33.552 11.821.756 44.619-1.421 55.328-2.653 33.914-3.903 14.764 22.689 26.231 32.265l44.604-3.357c.669-17.684-19.858-24.061-19.858-24.061 5.112-11.325 4.14-20.636-.44-28.216-4.641-7.682-17.371-15.994-32.19-22.741-.213-6.639-.73-16.156-2.505-26.278 28.864 6.888 68.504 7.212 63.82-54.459z" fill="#fbb807"/><path d="M284.243 145.167c-.323-4.25 15.496-14.428 14.257-28.871-.398-4.645-3.385-5.602-5.945-5.541a25.779 25.779 0 0 1 1.475 7.514c.565 12.612-11.138 23.353-23.353 23.353a23.4 23.4 0 0 1-2.132-.102c1.443 2.087 9.163 4.815 9.26 7.046 2.852 65.228-52.752 40.634-52.752 40.634s-3.743-20.495-14.97-22.455c0 0 8.863 42.384 9.98 63.802 0 0-4.273 4.852-5.703 6.059 0 0 33.148-2.495 35.644 38.139 0 0-7.834-.57-13.069 6.257a21.58 21.58 0 0 1 3.98-.382c12.328 0 21.64 9.488 23.159 21.159l11.344-.854c.669-17.684-19.858-24.061-19.858-24.061 5.112-11.325 4.14-20.636-.44-28.216-4.641-7.682-17.371-15.994-32.19-22.741-.213-6.639-.73-16.156-2.505-26.278 28.862 6.885 68.502 7.209 63.818-54.462zM113.727 285.555c-1.302-2.068-7.248-3.208-7.248-3.208s-5.822-11.168-.119-23.05c5.703-11.881 13.663-18.297 30.297-17.703l-10.812-5.347c-11.406-34.693 9.586-69.9 9.505-69.861-21.861 10.337-22.812 27.683-22.812 27.683-62.673 22.574-64.634-35.703-64.634-35.703s5.439-4.71 7.307-8.02c-.839.102-9.089 3.03-9.089 3.03s-17.612-9.268-18.178-21.921c-.065-1.451 1.281-5.015 1.523-6.403-2.544.284-5.375 1.633-5.146 6.289.71 14.479 17.751 22.443 18.001 26.698 3.311 56.304 46.548 53.711 77.151 44.333-2.222 9.101-3.959 21.487-1.899 33.446-9.434 5.927-16.867 12.277-19.977 18.07-4.19 7.803-4.689 17.151.99 28.202 0 0-20.178 7.409-18.614 25.036l16.226.397c-.393-1.61-9.68-17.216 17.528-21.968z" fill="#f28a1c"/><path d="M151.68 189.73c-.238-23.525 12.247-27.8 25.786-27.8 16.536 0 33.382 27.325 32.194 66.057-.666 21.716-12.119 34.455-31.129 33.98s-28.04-13.545-27.327-29.228z" fill="#fffcc8"/><path d="M301.489 116.039c-.445-5.19-3.703-8.289-8.715-8.289-.124 0-.24.012-.362.015-.194-.016-.386-.045-.583-.045a8.865 8.865 0 0 0-1.174.093c-2.291-5.239-6.858-9.892-11.929-9.892-1.646 0-3.202.496-4.582 1.45-1.46-.422-3.657-.911-6.019-.911-4.456 0-7.971 1.7-10.166 4.916-3.213 4.708.482 10.444 2.499 12.985a81.558 81.558 0 0 1-.867 3.541l-.219.175c-2.118-1.645-5.212-3.863-9.574-3.863-.633 0-1.278.048-1.92.144-2.727.404-4.749 2.157-5.548 4.809-1.083 3.594.354 8.462 3.27 11.083 1.135 1.02 2.293 1.595 3.224 2.058 1.779.885 2.673 1.329 2.38 6.777l-.019.354.024.132c-.163 1.439-2.767 10.586-9.989 10.586-.761 0-1.569-.097-2.402-.29-9.862-2.276-36.849-6.706-51.131-6.706-2.43 0-4.369.127-5.899.387a50.368 50.368 0 0 0-6.528-.678 54.999 54.999 0 0 0-2.069-.04c-6.9 0-13.518 1.312-19.699 3.902a21.181 21.181 0 0 0-6.642-3.606c-.944-.311-2.125-.463-3.611-.463-11.796-.001-44.312 9.882-55.004 13.923-1.208.457-2.378.688-3.479.688-6.148 0-9.784-7.43-10.181-9.221l.006-.143-.066-.348c-1.021-5.36-.195-5.92 1.45-7.036.86-.583 1.931-1.309 2.918-2.472 2.538-2.989 3.308-8.006 1.753-11.422-1.147-2.521-3.386-3.986-6.143-4.021l-.17-.001c-5.321 0-8.653 3.122-10.72 5.229l-.241-.145a82.684 82.684 0 0 1-1.335-3.392c1.658-2.789 4.551-8.969.735-13.203-2.155-2.392-5.128-3.656-8.597-3.656-3.179 0-6.185 1.066-7.979 1.859a8.086 8.086 0 0 0-3.662-.896c-5.532 0-9.938 5.581-11.603 11.582l-.264-.002c-3.009 0-5.472.916-7.121 2.647-1.607 1.688-2.352 3.994-2.211 6.853.522 10.646 8.608 17.968 13.959 22.813 1.544 1.398 3.639 3.295 4.055 4.102 2.609 43.122 28.209 52.184 49.243 52.184 8.154 0 17.178-1.322 26.883-3.937-1.515 7.781-2.548 17.701-1.156 27.696-7.104 4.619-15.645 11.213-19.354 18.124-4.636 8.633-4.765 18.084-.393 28.133-6.047 3.019-18.948 11.328-17.577 26.79l.237 2.668 2.678.065 44.717 1.094 1.217.029.894-.826c5.02-4.643 4.789-11.484 4.585-17.521-.166-4.919-.323-9.565 2.216-12.191 2.036-2.106 6.022-3.174 11.847-3.174 1.151 0 2.391.042 3.687.125 1.68.107 3.829.162 6.388.162 14.204 0 39.805-1.717 49.475-2.829 2.124-.244 4.085-.368 5.828-.368 12.425 0 12.518 5.529 12.672 14.689.102 6.039.217 12.883 5.466 17.266l.934.78 1.214-.091 44.604-3.357 2.672-.201.101-2.677c.587-15.512-12.719-23.157-18.911-25.865 3.858-10.258 3.251-19.69-1.817-28.077-5.933-9.822-21.807-18.446-31.824-23.14-.204-5.359-.634-12.544-1.779-20.443 7.075 1.451 13.606 2.185 19.466 2.185 13.892 0 24.7-4.063 32.126-12.073 9.331-10.066 13.225-26.382 11.573-48.496.304-.854 2.126-3.016 3.468-4.608 4.649-5.517 11.68-13.857 10.77-24.478zm-28.253-10.184c.653-1.384 1.686-2.556 2.56-3.359.436-.402.83-.713 1.107-.918.139-.103.249-.179.32-.227l.078-.052.015-.01-.086-.135a4.887 4.887 0 0 1 1.496-.233c3.438 0 7.044 3.459 9.016 7.723-1.608.676-3.171 1.674-4.44 2.996-.861.9-1.592 1.961-2.056 3.154l-.074-.17-.025-.06c-.083.041-1.521.609-3.101.602-.906 0-1.833-.173-2.657-.649-.823-.481-1.606-1.257-2.242-2.731-.45-1.058-.624-2.012-.625-2.895.001-1.103.277-2.111.714-3.036zm-230.713 7.554c1.152 0 2.327.408 3.47 1.332l.028-.016c.059.061.121.119.192.171.017.01 1.321.974 2.566 2.527.624.775 1.231 1.695 1.673 2.7.443 1.006.72 2.089.72 3.233-.001.919-.176 1.885-.619 2.925-.636 1.474-1.419 2.25-2.242 2.731-.824.476-1.751.649-2.657.649a8.687 8.687 0 0 1-2.223-.311 8.4 8.4 0 0 1-.675-.212l-.168-.064-.035-.014a1.44 1.44 0 0 0-.241-.078 8.902 8.902 0 0 0-.654-1.252c-1.107-1.722-2.719-3.064-4.45-4.01a12.905 12.905 0 0 0-3.298-1.241c1.443-4.85 4.908-9.071 8.613-9.07zm201.026 89.287c-6.777 0-13.709-1-20.207-2.407-1.659-7.299-5.759-23.987-9.198-26.964 0 0 6.297 24.772 6.654 29.139l.097.037c1.396 9.033 1.842 17.397 2.034 23.403 14.819 6.747 27.55 15.06 32.19 22.741 4.58 7.581 5.553 16.892.44 28.217 0 0 20.526 6.377 19.858 24.061l-44.604 3.357c-10.693-8.929 5.239-32.652-20.061-32.652-1.831 0-3.882.124-6.171.388-9.186 1.058-34.62 2.81-49.132 2.81-2.407 0-4.515-.049-6.197-.156a61.091 61.091 0 0 0-3.878-.131c-28.582 0-10.162 23.95-20.685 33.684l-44.717-1.094c-1.563-17.628 18.614-25.036 18.614-25.036-5.679-11.052-5.18-20.399-.99-28.202 3.11-5.793 10.542-12.143 19.977-18.07-2.06-11.959-.323-24.345 1.899-33.446l-.039.012c2.169-7.401 8.946-25.987 8.946-25.987-3.916 2.754-10.089 20.546-12.209 26.941-8.742 2.457-18.31 4.248-27.589 4.248-22.897 0-43.986-10.899-46.259-49.547-.25-4.255-17.291-12.219-18.001-26.698-.249-5.077 3.14-6.222 5.828-6.342.311.223.706.328 1.113.262.181-.029.386-.046.61-.045.711-.002 1.608.169 2.525.511 1.379.508 2.798 1.395 3.832 2.482 1.043 1.092 1.681 2.333 1.751 3.617a9.7 9.7 0 0 1 .016.555c-.002 1.357-.29 2.309-.679 3.027-.582 1.068-1.45 1.674-2.222 2.034a5.664 5.664 0 0 1-.972.347 3.593 3.593 0 0 1-.271.059l-.056.009-.005.001v.001a1.5 1.5 0 0 0 .372 2.976c.137-.023 1.727-.209 3.43-1.377a7.568 7.568 0 0 0 2.358-2.615c.645-1.179 1.047-2.671 1.044-4.463l-.001-.049c.723.174 1.63.326 2.66.33 1.279 0 2.755-.244 4.155-1.05 1.401-.8 2.665-2.17 3.504-4.153.6-1.403.86-2.793.859-4.103 0-1.66-.411-3.18-1.002-4.504-.89-1.987-2.176-3.552-3.237-4.644a18.625 18.625 0 0 0-.855-.823c1.439-.496 3.239-.939 5.086-.939 2.246 0 4.558.655 6.369 2.664 3.297 3.659-1.835 10.823-1.835 10.823s1.195 3.37 2.137 5.475c.219.489 2.064 1.693 3.272 1.693.309 0 .576-.078.764-.267 1.962-1.971 4.668-5.222 9.451-5.221l.133.001c4.864.061 4.914 7.235 2.141 10.501-2.773 3.265-6.908 2.142-5.029 12.011-.071 1.523 4.349 12.15 13.188 12.15 1.402 0 2.916-.268 4.54-.881 10.773-4.072 42.867-13.731 53.944-13.73 1.119 0 2.025.099 2.672.312 2.741.904 5.089 2.392 7.042 4.275 6.604-3.079 13.539-4.42 20.237-4.42.653 0 1.305.013 1.952.038 2.335.09 4.55.342 6.661.729 1.452-.302 3.467-.437 5.884-.437 13.774 0 40.582 4.351 50.456 6.629 1.09.251 2.114.367 3.077.367 9.954 0 13.27-12.327 12.979-13.911.539-10.032-3.407-8.364-6.594-11.228s-4.099-9.98.713-10.693a10.041 10.041 0 0 1 1.479-.111c3.992 0 6.725 2.474 8.718 3.999.161.124.36.177.581.177 1.203 0 3.066-1.586 3.228-2.131.651-2.212 1.383-5.712 1.383-5.712s-6.046-6.411-3.27-10.479c1.922-2.817 4.924-3.607 7.688-3.607 1.497 0 2.922.232 4.069.5a12.952 12.952 0 0 0-1.669 2.609c-.593 1.249-1.004 2.708-1.004 4.322-.001 1.288.264 2.664.866 4.072.839 1.983 2.103 3.353 3.504 4.153 1.4.806 2.876 1.05 4.155 1.049a11.561 11.561 0 0 0 2.659-.33l-.001.048c-.002 1.792.4 3.284 1.044 4.463.968 1.777 2.426 2.781 3.593 3.32 1.175.543 2.091.658 2.195.672a1.5 1.5 0 0 0 .372-2.976v-.001c-.022.003-1.178-.187-2.194-.937a4.552 4.552 0 0 1-1.369-1.582c-.37-.71-.64-1.645-.642-2.959 0-.178.005-.362.016-.554.049-.861.344-1.687.849-2.478.753-1.184 1.995-2.254 3.358-2.992.276-.152.558-.279.84-.401l.008.026s1.679-.645 3.644-.719l.021.002c.175.028.345.019.51-.011 2.463.048 5.172 1.132 5.55 5.54 1.238 14.444-14.58 24.621-14.258 28.872 3.499 46.037-17.708 57.524-40.692 57.524z" fill="#740806"/><g><path d="M103.833 80.918C76.68 57.356 93.798 30.356 93.798 30.356l35.496 16.739c21.085-10.565 39.67-8.972 53.081-4.657l32.256-23.358s21.896 23.451-.629 51.699c8.521 15.218 19.473 36.007 18.333 40.441-.869 3.381-3.182 4.156-5.717 2.86.897 3.696.966 7.347-.834 10.027-1.75 2.604-3.895 2.833-5.732 1.354-10.113 17.649-50.398 34.925-50.398 34.925s-47.119-5.651-62.03-23.752c-1.438 1.03-3.242.841-5.08-1.026-2.265-2.3-2.873-5.901-2.675-9.699-2.252 1.743-4.668 1.409-6.147-1.752-1.393-2.979 4.871-25.603 10.111-43.239z" fill="#fbb807"/><g fill="#f28a1c"><path d="M99.869 125.907c-.072 1.372-.033 2.716.146 3.985-.179-1.268-.218-2.612-.146-3.985zM112.969 102.076c2.364-37.38 18.521-51.432 18.521-51.432s14.158-7.175 20.5-10.826c-7.112 1.029-14.725 3.283-22.696 7.277L93.798 30.356s-17.118 27 10.034 50.562c-5.152 17.345-11.291 39.499-10.168 43.059-.495-1.98.091-14.632 19.305-21.901zM100.072 130.249c.346 2.097 1.102 3.967 2.472 5.358.109.111.218.197.326.296-.109-.099-.217-.185-.326-.296-1.369-1.391-2.125-3.261-2.472-5.358z"/></g><path d="M176.791 94.924s-3.553-24.011-14.082-23.029c-10.529.983-9.098 25.152-9.098 25.152-18.752-.565-31.708 1.65-40.641 5.029-19.214 7.268-19.8 19.921-19.305 21.9.018.072.037.135.057.178.185.395.385.746.597 1.055.106.154.215.298.327.431 1.456 1.729 3.394 1.683 5.224.267-.072 1.372-.033 2.716.146 3.985.017.12.038.238.057.357.346 2.097 1.102 3.967 2.472 5.358.109.111.218.197.326.296 1.494 1.361 2.954 1.644 4.197 1.058.19-.09.376-.199.556-.328 18.06 22.486 62.031 23.752 62.031 23.752s30.805-5.56 50.398-34.924c1.837 1.478 3.983 1.25 5.732-1.354 1.801-2.68 1.732-6.331.834-10.027 2.535 1.296 4.848.521 5.717-2.86 1.842-7.169-15.873-24.653-55.545-16.296z" fill="#fffcc8"/><path d="M110.326 103.159s-5.515 4.926-5.794 9.605c-.393 6.582 6.719 2.953 6.719 2.953-13.089 19.046 6.586 13.381 6.586 13.381 10.541 25.59 53.177 26.076 53.177 26.076s22.465-4.173 48.07-28.323c-19.623 28.135-49.43 33.533-49.43 33.533s-43.971-1.266-62.031-23.752c-1.438 1.03-3.242.841-5.079-1.026-2.265-2.301-2.873-5.901-2.675-9.699-2.252 1.743-4.668 1.409-6.147-1.753-.545-1.163-.66-13.335 16.604-20.995z" fill="#e5ba97"/><path d="M106.441 76.857s4.375-12.58 12.341-21.199L94.804 39.211s-8.551 22.705 11.637 37.646zM215.353 29.319c2.168 4.939 9.527 22.088-5.084 37.849 0 0-4.266-8.105-9.083-13.646z" fill="#fffcc8"/><path d="M230.912 110.354v-.009c-.014-.534-.165-1.391-.459-2.439-.293-1.051-.722-2.303-1.263-3.701-1.082-2.797-2.61-6.18-4.386-9.832-3.553-7.307-8.1-15.702-12.109-22.862l-.493-.88.629-.788c7.459-9.368 9.841-18.029 9.849-25.458.001-7.106-2.219-13.119-4.487-17.396-1.453-2.742-2.92-4.758-3.81-5.878L182.64 44.098l-.724-.233a69.042 69.042 0 0 0-5.81-1.581c.216 7.802-7.831 17.009-7.831 17.009s.632-11.711-.404-18.347a64.535 64.535 0 0 0-6.327-.321c-4.32.001-8.891.439-13.67 1.454 6.338 5.397 9.513 18.498 9.513 18.498l-20.911-15.052a80.096 80.096 0 0 0-6.51 2.91l-.652.327-34.893-16.455c-.042.079-.077.142-.121.228a37.76 37.76 0 0 0-1.759 3.986c-1.285 3.414-2.567 8.222-2.566 13.747a34.512 34.512 0 0 0 3.044 14.228c2.246 5.008 5.939 10.203 11.797 15.288l.73.633-.275.927c-3.546 11.933-7.565 26.179-9.331 34.937-.59 2.905-.92 5.234-.915 6.491-.005.44.052.737.063.761.373.793.78 1.286 1.132 1.557.36.272.648.358.993.364.437.003 1.04-.192 1.739-.733l2.587-2.002-.171 3.267c-.022.415-.033.827-.033 1.232-.001 1.546.168 2.996.541 4.242.374 1.249.94 2.285 1.738 3.095.464.472.892.778 1.254.958.365.181.657.241.91.241.326-.003.621-.094.974-.341l1.209-.865.876 1.201c3.727 5.114 9.187 9.157 15.374 12.309 6.183 3.153 13.076 5.411 19.585 7.009 12.689 3.118 23.908 3.732 25.667 3.81a96.782 96.782 0 0 0 3.319-1.108 133.88 133.88 0 0 0 9.064-3.59c7.307-3.2 16.569-8.033 24.33-14.468 5.177-4.288 9.677-9.28 12.539-14.929l.837-1.65 1.441 1.16c.543.433.996.58 1.376.581.287-.003.577-.075.944-.309.363-.233.791-.644 1.227-1.293.82-1.22 1.194-2.756 1.195-4.553.001-1.334-.21-2.792-.573-4.284l-.772-3.178 2.912 1.489c.601.308 1.12.43 1.514.428.461-.01.761-.123 1.105-.433.337-.314.709-.905.962-1.892.004-.012.021-.106.027-.243l.001-.013.001-.016.003-.093-.003-.117z" fill="none"/><path d="M147.873 42.08a71.495 71.495 0 0 0-11.397 3.447l20.911 15.052c0-.001-3.176-13.103-9.514-18.499zM168.275 59.293s8.047-9.207 7.831-17.009a66.18 66.18 0 0 0-8.236-1.338c1.037 6.636.405 18.347.405 18.347z" fill="#f28a1c"/><path d="m233.915 110.481-.005-.229v-.019h-.001c-.034-.93-.24-1.953-.566-3.133-.579-2.07-1.551-4.602-2.797-7.469-3.624-8.326-9.574-19.447-14.752-28.722 7.354-9.531 9.893-18.659 9.886-26.523-.001-7.862-2.484-14.424-4.952-19.018-2.472-4.597-4.937-7.244-4.999-7.312l-.904-.968-32.726 23.699c-5.956-1.848-12.874-3.16-20.555-3.16-9.716-.002-20.636 2.106-32.257 7.807l-36.046-17-.709 1.118c-.073.132-5.543 8.732-5.557 20.717a37.508 37.508 0 0 0 3.307 15.455c2.332 5.206 6.116 10.534 11.847 15.67-2.297 7.754-4.759 16.368-6.678 23.844-.997 3.883-1.846 7.456-2.451 10.451-.603 3.005-.969 5.391-.974 7.084 0 .365.017.702.063 1.028.048.327.116.644.276.99.525 1.12 1.188 2.024 2.017 2.67a4.582 4.582 0 0 0 2.832.994 4.89 4.89 0 0 0 1.152-.157c.065 1.384.254 2.739.636 4.02.48 1.61 1.269 3.117 2.474 4.341.651.661 1.332 1.178 2.053 1.538.719.36 1.486.558 2.249.557.492.002.974-.083 1.429-.236 4.196 5.31 9.952 9.387 16.269 12.528 10.078 5.004 21.576 7.69 30.579 9.153 9.001 1.46 15.504 1.683 15.549 1.685l.243.008.233-.069c.058-.018 9.743-2.875 20.983-8.728 5.62-2.928 11.632-6.605 17.028-11.075 4.98-4.128 9.427-8.946 12.537-14.493.551.22 1.136.345 1.743.345.892.003 1.787-.279 2.571-.788.788-.51 1.478-1.232 2.09-2.141 1.243-1.852 1.705-4.025 1.704-6.226 0-.848-.07-1.705-.19-2.564.091.005.181.019.272.019a4.545 4.545 0 0 0 3.16-1.247c.871-.821 1.459-1.957 1.813-3.332v-.001c.073-.29.099-.547.114-.794h.001v-.013l.001-.016h-.001c.005-.1.009-.197.009-.288zm-3.003.093-.001.016-.001.013a1.596 1.596 0 0 1-.027.243c-.253.987-.625 1.578-.962 1.892-.344.311-.644.423-1.105.433-.394.001-.913-.12-1.514-.428l-2.912-1.489.772 3.178c.363 1.491.573 2.95.573 4.284-.001 1.797-.375 3.333-1.195 4.553-.436.649-.864 1.06-1.227 1.293-.367.233-.656.306-.944.309-.38-.001-.833-.147-1.376-.581l-1.441-1.16-.837 1.65c-2.862 5.648-7.362 10.641-12.539 14.929-7.762 6.435-17.023 11.268-24.33 14.468a134.3 134.3 0 0 1-9.064 3.59 96.782 96.782 0 0 1-2.626.889c-.304.098-.537.17-.693.219-1.759-.078-12.978-.692-25.667-3.81-6.509-1.598-13.402-3.856-19.585-7.009-6.187-3.152-11.647-7.195-15.374-12.309l-.876-1.201-1.209.865c-.353.248-.648.338-.974.341-.253-.001-.545-.061-.91-.241-.363-.18-.79-.487-1.254-.958-.797-.81-1.363-1.846-1.738-3.095-.373-1.246-.542-2.696-.541-4.242 0-.405.011-.816.033-1.232l.171-3.267-2.587 2.002c-.699.541-1.302.736-1.739.733-.344-.006-.632-.091-.993-.364-.352-.272-.759-.764-1.132-1.557-.012-.023-.069-.321-.063-.761-.005-1.257.325-3.585.915-6.491 1.766-8.758 5.785-23.004 9.331-34.937l.275-.927-.73-.633c-5.858-5.085-9.551-10.28-11.797-15.288a34.476 34.476 0 0 1-3.044-14.228c-.001-5.525 1.281-10.333 2.566-13.747a37.666 37.666 0 0 1 1.759-3.986l.121-.228 34.894 16.455.652-.327a80.288 80.288 0 0 1 6.51-2.91 71.63 71.63 0 0 1 11.397-3.447 65.753 65.753 0 0 1 13.67-1.454c2.176 0 4.282.12 6.327.321a66.21 66.21 0 0 1 8.236 1.338c2.027.461 3.973.99 5.81 1.581l.724.233 31.742-22.987c.89 1.12 2.357 3.136 3.81 5.878 2.269 4.277 4.489 10.29 4.487 17.396-.008 7.428-2.39 16.09-9.849 25.458l-.629.788.493.88c4.01 7.16 8.556 15.555 12.109 22.862 1.776 3.652 3.304 7.034 4.386 9.832.541 1.398.97 2.65 1.263 3.701.294 1.048.445 1.905.459 2.439v.019l.003.117z" fill="#740806"/><path d="m233.802 111.541-.013.05v.001z" fill="#740806"/><path d="M168.501 42.843s2.153-.106 3.455 1.057c1.163 1.04 2.101 4.916-2.151 5.707-5.45 1.014-16.398-3.919-15.806-9.226.567-.414 18.054-15.104 21.663-8.333 1.258 2.361.379 5.28-1.301 7.146-2.283 2.534-5.86 3.649-5.86 3.649z" fill="#fbb807"/><path d="M159.129 47.084c3.168 1.796 7.15 2.882 9.996 2.616a7.43 7.43 0 0 0 .68-.094c4.252-.791 3.313-4.667 2.15-5.707-1.301-1.163-3.454-1.057-3.454-1.057s3.577-1.115 5.859-3.649c1.681-1.866 2.56-4.785 1.302-7.146-.77-1.444-2.171-1.912-3.905-1.75-6.395.597-17.351 10.496-17.797 10.822 0 0-2.808.035-2.688-1.042l.134-1.199.973-.712.188-.152c5.574-4.481 13.382-9.93 18.935-10.449 4.045-.377 5.859 1.838 6.582 3.192 1.944 3.647.554 7.787-1.685 10.273a13.57 13.57 0 0 1-1.854 1.695c.93 1.341 1.469 3.341.919 5.306-.621 2.222-2.501 3.78-5.156 4.274-.297.055-.609.098-.927.128-3.701.345-10.592-4.466-10.252-5.349z" fill="#740806"/><path d="M186.496 101.277c.434.042.872.052 1.315.03 1.446-.073 2.814-.506 4.078-1.212 4.948-2.761 8.253-9.923 7.841-18.159-.52-10.34-6.7-18.436-13.8-18.078-6.732.339-11.868 8.152-11.945 17.772-.004.529-.002 1.06.025 1.598.489 9.698 5.951 17.419 12.486 18.049z" fill="#fff"/><path d="M148.244 60.901c-6.516-4.761-15.671-4.764-22.048 1.731a24.556 24.556 0 0 0-3.591 4.672c-.48.81-1.581.267-1.383-.682 1.168-5.597 4.225-13.848 12.171-15.849 7.285-1.835 12.801 4.147 15.891 8.837.515.782-.316 1.82-1.04 1.291zM196.128 58.268a20.626 20.626 0 0 0-3.906-3.101c-6.504-3.964-13.589-1.676-17.483 4.024-.433.633-1.327-.047-1.116-.846 1.26-4.783 4.087-11.278 10.167-11.527 6.632-.272 10.989 6.025 13.244 10.522.383.761-.339 1.5-.906.928z" fill="#740806"/><path d="M123.96 85.06c-.665-11.487 5.877-21.213 14.619-21.717 8.738-.507 16.36 8.395 17.029 19.883a27.207 27.207 0 0 1-.109 4.475c.012-.639 0-1.286-.038-1.939-.616-10.575-7.631-18.768-15.674-18.302-8.046.465-14.068 9.417-13.456 19.989.409 7.053 3.677 13.031 8.19 16.102-3.217-1.621-5.982-4.551-7.882-8.308-1.498-2.962-2.461-6.433-2.679-10.183z" fill="#740806"/><path d="M126.331 87.449c-.612-10.572 5.41-19.524 13.456-19.989 8.043-.466 15.059 7.727 15.674 18.302.038.653.049 1.299.038 1.939-.094 5.108-1.741 9.712-4.378 12.997-2.372 2.956-5.543 4.845-9.118 5.053-2.676.154-5.232-.667-7.482-2.199-4.513-3.072-7.781-9.049-8.19-16.103z" fill="#fff"/><g fill="#740806"><path d="M199.731 81.937c-.52-10.34-6.7-18.436-13.8-18.078-6.732.339-11.868 8.152-11.945 17.772l-.017-.211c-.557-11.087 5.165-20.385 12.778-20.768 7.615-.383 14.238 8.297 14.796 19.383.295 5.864-1.178 11.211-3.747 15.02-1.594 2.365-3.611 4.128-5.905 5.041 4.947-2.762 8.252-9.923 7.84-18.159zM153.239 85.534c.613 1.096-.585 2.27-1.733 1.761-3.75-1.757-10.432-3.641-15.427 1.794-.866.944-2.397.307-2.27-.968.381-3.188 2.622-7.244 8.589-8.19 6.069-.999 10.254 4.43 10.841 5.603z"/><path d="M195.091 82.039c.509 1.148-.793 2.206-1.888 1.593-3.571-2.097-10.05-4.59-15.527.359-.95.86-2.415.084-2.171-1.174.674-3.139 3.281-6.97 9.31-7.361 6.135-.432 9.8 5.361 10.276 6.583zM171.813 140.055c18.178-2.139 12.404-19.001 14.614-19.604 7.842-2.139 10.858-8.177 11.51-10.051a8.036 8.036 0 0 0 .434-3.364 8.165 8.165 0 0 0-.606-2.398c3.376-.485 6.341-1.618 5.613-2.588-6.125.921-10.468.299-12.423-.122-1.044-.225-1.718 1.097-.902 1.787.727.616 2.034 1.045 3.583 1.137l.087.003.062.129c.577.865.836 1.639.906 2.374a4.376 4.376 0 0 1-.24 1.832c-.218.625-.586 1.288-1.107 1.964-1.043 1.352-2.726 2.743-4.9 3.978-2.374 1.363-2.816 1.857-6.102 2.746-8.804 1.099-8.981-7.378-11.19-7.357-2.348.022 3.687 10.649-13.945 9.359-4.13-.302-7.958-1.292-11.027-2.402-2.05-.74-3.751-1.606-4.956-2.52-.683-.521-2.156-2.661-2.211-3.212-.049-.633.085-1.368.601-2.309.06-.107.106-.218.143-.331 1.501-.422 2.701-1.097 3.329-1.853.772-.928-.237-2.267-1.356-1.811-.858.35-2.166.817-3.884 1.258a1.82 1.82 0 0 0-.522.131c-2.408.581-5.554 1.092-9.393 1.191-.665 1.313 3.442 1.999 7.606 1.736a6.927 6.927 0 0 0-.206 2.312c.111 1.263.724 2.363 1.312 3.463 4.158 7.77 16.603 7.708 17.703 8.483 2.201 1.544-.711 18.178 17.467 16.039z"/></g><g fill="#e93e8f"><path d="M194.281 97.229c-.156-1.775 3.955-3.586 9.181-4.044 5.227-.458 9.59.609 9.746 2.385.156 1.774-3.955 3.585-9.182 4.044-5.227.457-9.59-.611-9.745-2.385zM116.52 104.047c-.156-1.775 3.955-3.586 9.181-4.044 5.227-.458 9.59.609 9.746 2.385.156 1.774-3.955 3.585-9.182 4.044-5.227.458-9.59-.61-9.745-2.385z"/></g><g><path d="M170.209 99.416c30.028-2.802 8.665 12.063 1.191 12.76-7.474.698-31.219-9.958-1.191-12.76z" fill="#e93e8f"/><path d="M174.539 102.237c.666-.39 1.604-.681 2.662-.779 1.365-.127 2.592.096 3.324.537.409.247.665.56.699.92.094 1.003-1.556 1.978-3.684 2.176-2.128.199-3.929-.454-4.023-1.457-.047-.505.348-1.002 1.022-1.397z" fill="#fff"/></g><path d="M191.566 132.404a7.85 7.85 0 0 0-.994-1.298c-3.042-3.259-11.165-4.223-18.892.757-1.297-.476-3.077-.709-5.025-.582-3.836.249-6.858 1.795-6.75 3.454.096 1.48 2.659 2.546 5.938 2.58a10.869 10.869 0 0 0 .651-.007c.108-.003.222-.008.347-.015.068-.004.135-.004.204-.009.049-.003.096-.009.144-.013l.052-.004c.269-.021.533-.048.792-.081.125-.015.25-.031.382-.05l.058-.009c1.603-.236 3.673-.757 5.695-1.901.989.812 2.717 3.373 3.801 4.842.263.357.528.73.795 1.133 4.288 5.212 17.238-1.443 12.802-8.797z" fill="#e93e8f"/></g></g></g></svg>