<svg id="Layer_3" enable-background="new 0 0 1000 1000" height="1000" viewBox="0 0 1000 1000" width="1000" xmlns="http://www.w3.org/2000/svg"><g><path d="m206.4 575.5c-13.6 7.5-51.7 10.4-43.3-34.3 8.5-44.7-6.6-115.2-20.2-151.9s20.7-50.8 20.7-50.8c50.2-20.2 62.5 36.3 64.8 80.7l.1-9c93.1-80.3 110.5 24 110.5 24s-27.4 33.7-43.3 51.6c-16 18-15.3 75.2-15.3 75.2l-59.4 41.5c-5.4-1.8-14.6-27-14.6-27zm236 349.3c-15-41.9-80.2-1.7-87.5-.7s-114.4 24.6-98.5-96.5c5.3-21.1 11.9-60.9 102.1-108.8 0 0 2.1-9.4-24.7-7.7-26.8 1.6-55.4 5.4-55.4 5.4s-92.5 52.6-78.5 153.7 94.5 116.4 146.4 119.1 111.1-22.6 96.1-64.5z" fill="#fea142"/><path d="m363.6 417.9c-54.2-61.2 37.6-92.1 37.6-92.1 34.8-11.2 70.1 12.6 71.5 39.9s-25.9 31.6-52.7 32-56.4 20.2-56.4 20.2zm494-311.9c-87 11.5-82.3 37.2-82.3 37.2-16.7-34.8-82.1-52.2-82.1-52.2-54.1-13.6-97-12.2-130.9-2.4 18.7-7.1 38.9-12.3 53.7-10-10.6-32.6-91.5-68.2-91.5-68.2-6 12.6-13.6 102.4-13.6 102.4s1.7-1 4.6-2.6c-62 41.7-75.8 113.3-75.8 113.3l33.6 52.2 46.6 33.3s-7.5 20.7 23 14.6c0 0 46.3 34.2 55.5 55.2l5.5-.6 5.2 20.9 4 21.6-31.7 6.9s-11.3 11.8-16.9 30.1 13.1 37.2 13.1 37.2l28.3 7.7-13 40.2s-25.5 63.7-76.8 95.1c0 0-79.4 62.6-130.7 67s-25.1 10-25.1 10 7.5 18.5 7.5 28.4c0 10 14.1 26.9 26.5 25.8 32.7.3 79.4-19.4 109-35.1-3 2.3-6.1 4.6-9.3 6.9 0 0-80.9 33.9-90.3 31-9.4-2.8 15.5 9.9 15.5 9.9s123.7 36.2 179.7-47.5c0 0 47-77.1 52.7-105.8 0 0 42.3-65.9 43.8-78.6 0 0-7.1 5.6-19.9 9.2 65.1-25.3 72.3-156.1 61.3-159.8-5.5 5.4-18.5 8.2-33.4 9.2 104.8-15.2 110.1-149.4 110.1-149.4 63.2-55.2 44.1-153.1 44.1-153.1z" fill="#ffc363"/><path d="m593 148.4c-12.7 28.2-24.5 10.3-21.6-4.7 2.8-15.1 33.4-62.1 33.4-62.1s46.1 2.8 33.4 4.7-32.5 33.9-45.2 62.1zm115.8-49.5-31.3-10s-66.9 55.5-81.5 146c0 0-1.7 14 6.7 15.3 8.3 1.3 11.6 1 23.3-36.9s79.5-114.4 82.8-114.4zm42.3 17.6s-60.9 34.3-66.9 85.2c0 0-2.1 9.2 10 6.7 9.8-2.1 41.9-77.5 74.8-69.2z" fill="#dc8b4a"/><path d="m605.7 502.7c-.3 7.6-13 40.2-13 40.2-27.3 63.8-76.8 95.1-76.8 95.1-53.2 51.6-130.7 67-130.7 67-8.9-6.3-31.3 4.7-31.3 4.7l-32.2.2c-69.6 15.4-139.7-12.6-153.8-25.3s11.5-16.6 11.5-16.6-16.6-10.6-22-13.3c-5.3-2.7 2-8.6 2-8.6l121.1-85.2c32.6-11.3 99.8-67.2 127.1-91.1s39.3-72.5 39.3-72.5c64.5-47.9-10.6-71.8-10.6-71.8l37.3-49.6 46.6 33.3c-2.7 22.3 23 14.6 23 14.6 23 14.6 55.5 55.2 55.5 55.2l5.5-.6 9.2 42.5-31.7 6.9c-27.8 28.5-18.8 53.3-3.9 67.3 14.5 13.9 27.9 7.6 27.9 7.6z" fill="#8da8ba"/><path d="m400.8 544.6s28.9-49.9 32.3-65.9 39.6-50.6 46.6-43.2c6.9 7.4-35.6 99.8-78.9 109.1zm35.3-219.2 37.3-49.6s-50.1-90.8-75.5-91.8c0 0-10.5 54.1-4.3 76.5 0 0-66 30.6-75.5 56.5-.1.1 64 14.3 118 8.4z" fill="#dae3ea"/><path d="m404.5 398.9c3.7 0 42.2-1.7 42.2-1.7s-18 95-166.3 163.7c-11.3-111.1 120.4-162 124.1-162zm126.5-361c-1 5.7-1.3 63-1.3 63s36.9-19 47.1-17.3c-29.1-37.7-44.8-51.4-45.8-45.7zm308.1 104.1s-13.9-11.5-54.3 20.2c0 0 20.9 54.6 20.7 63.3-.1 0 38-48.4 33.6-83.5z" fill="#f9eba5"/><path d="m863 105c-.5-2.8-3.2-4.7-6.1-4.4-43.6 5.8-72.2 16.3-82.8 30.4-23.1-30.1-77-44.7-79.6-45.4-26.2-6.6-50.8-9.9-73.8-10.1-12.9-34.1-90.6-68.6-94-70.1-2.7-1.2-5.8 0-7.1 2.6-5.9 12.5-12.7 87.6-14 102.6-28.3 21.3-45.7 48.3-55.5 68.3-6.7 13.7-10.9 25.6-13.2 33.6-10.3-11.1-28.1-29.5-36.4-32.3-2.3-.8-4.8-.4-6.7 1.1-3.4 2.6-6.9 8.3-6.8 44 0 13 .6 25.8.9 31.8-15.5 7.4-70.3 35.2-75.2 58.8-.4 1.9.3 3.9 1.7 5.2 2.3 2 13.2 7.6 63.6 9.3-14.1 8.1-30.7 21.2-35.6 39.5-4 15.2.6 31.1 13.6 47.4-4.2 2.8-8.7 5.8-13.2 9.2-7.1-27.8-19.8-44.7-37.8-50.3-27.5-8.6-58.9 12.4-72.9 23.6-3.1-25.6-10.5-51.6-26.8-63.8-11.7-8.8-26.5-9.7-43.9-2.7-.4.2-9.9 4.1-17.5 13.2-7.2 8.5-14.1 23.2-6.2 44.6 13.3 35.7 28.2 105.5 20 149-4.4 23.2 3.2 34.2 10.4 39.4 10.4 7.5 25.1 6.7 35.2 3.2 3.3 8.3 6.3 14.5 9.2 18.8-2.6 1.8-5.1 3.6-7.7 5.4-14.4 10.2-27.5 19.9-36.9 27.3-16.4 12.8-16.8 14.8-17.3 16.8-.4 1.6 0 3.3.9 4.6 1.6 2.3 7.6 6.5 14.3 10.7l-6.4 1.9c-1.5.4-2.7 1.5-3.4 2.9s-.7 3-.1 4.5c11.1 25.8 47.9 40.3 109.6 43.1-9 6.5-22.7 17.6-35.8 33.5-20.2 24.4-42.7 64.8-35.2 119 6.4 46.2 27.1 80 61.6 100.4 23.3 13.8 52.7 21.5 89.9 23.4 2.7.1 5.4.2 8.1.2 37.5 0 72.9-13.2 87.9-33.4 8.5-11.5 10.4-24.8 5.5-38.6-3.4-9.5-9.4-16.2-17.7-19.7-21.3-9-51.8 4.8-68.2 12.3-3 1.4-6.5 2.9-7.5 3.2-.4.1-.9.1-1.6.3-32.2 5.5-58.4.3-73.9-14.6-15.7-15.2-21.4-40.6-16.8-75.7.2-.7.4-1.4.5-2.2 4.9-20.1 14-57.3 96.8-101.7 3.3 5.3 3 8.3 2.6 11.8-.4 3.8-1 8.6 1.5 15.5 6.3 17.2 24.9 21.7 29.2 22.4 33.3 14.8 64.2 22.2 92.7 22.2 19.9 0 38.6-3.7 55.9-11 68.4-28.9 96.8-106.4 108.9-139.5 2-5.5 4.1-11.2 5-12.6 10-10.3 41.5-74 45.1-81.2.5-1 .6-2 .5-3 39.1-36.4 48.4-113.3 45-140.9-.3-2.5-.8-5.2-1.6-7.6 4.3-2.4 8.4-5 12.4-7.9 24.1-17.7 42.5-46.5 53.3-83.1 6.6-22.6 8.4-41.5 8.9-48 26-23.6 41.9-57.9 46.2-99.5 3.2-32.1-1.5-56.7-1.7-57.7zm-335.1-87.1c23.3 10.9 69 35.9 80.9 57.8-9.9.4-19.6 1.4-28.9 3.1-38.7-50-45.9-48.3-49.3-47.5-2.6.6-4.5 2.8-5 5.5-1 5.4-1.3 48.2-1.4 61.6-2.4 1.3-4.7 2.7-7 4.2 2.8-29.7 7.2-69.5 10.7-84.7zm40.2 63.5c-11.5 2.8-22.5 6.7-32.9 11.6.1-18.9.4-38.1.8-47.9 5.5 4.7 15.8 15.5 32.1 36.3zm-218.2 209.9h.2c26.2 3.5 55.7 8.3 59.9 10.3.9.6 1.9.8 2.9.8 1.7 0 3.4-.8 4.5-2.3 1.7-2.5 1.1-5.9-1.3-7.6-4.1-2.8-28.3-6.9-52-10.3 11-6.6 22.4-12.5 31.7-16.8 1.2-.5 2.1-1.5 2.6-2.6 11.9 6.9 23.9 14.4 26 16.7 1 1.5 2.8 2.4 4.5 2.4 1 0 1.9-.3 2.8-.8 2.6-1.6 3.4-4.9 1.8-7.5-2.7-4.4-20.4-15.1-35.1-23.4-.4-9.1-.6-18.4-.6-26.9 35.5 33.8 43.4 43.4 44.9 46.1 1 1.8 2.8 2.8 4.7 2.8.9 0 1.8-.2 2.7-.7 2.6-1.5 3.5-4.8 2.1-7.4-3.4-6-19.5-22.6-50.5-52.1-1.3-1.3-2.3-2.2-2.6-2.5-.2-.3-.5-.5-.8-.7 0 0-.1-.1-.1-.1.3-7.4.9-13.4 1.8-16.7 7.4 5.1 23 20.7 35.8 35.2.1.1.2.2.3.3 14.5 13.8 26.7 38.3 30.9 47.2-14.1 14.7-25 29.3-34 45.3-73 1-99.2-3.6-107.9-6 3.7-6.8 13.3-14.8 24.8-22.7zm3 81.6c6.9-26 46-40.5 49.7-41.8 9.8.1 20.8 0 32.9-.1 18.9 4.3 30.2 15.2 31 30.2.7 13.5-8 26.4-20.8 30.8-11.2.5-38.4 1.6-41.2 1.6-3.3 0-18.9 6.6-34 15.1-1.6.9-3.4 1.9-5.2 3-11.4-13.9-15.5-26.9-12.4-38.8zm-67.6 180.8c-2-41 15.8-77.8 53.1-109.6 30-25.5 62-38.3 66.6-39.6 4.5-.1 24.8-.9 35.4-1.4-8.5 47.2-76 104.9-141.5 142.6-4.2 2.3-8.8 5.1-13.6 8zm-73.8 19.9c-.5-1.5-1.7-2.7-3.2-3.2-1.5-.6-3.1-.4-4.5.3-7 3.8-21 6-29.3 0-6.7-4.8-8.7-14.5-6-28.6 9.1-48.1-7.7-120.5-20.5-154.8-11.6-31.2 16.5-43.4 17.6-43.9 13.8-5.5 24.6-5.1 33.2 1.3 13 9.8 21.2 33.6 23.7 68.9 1.9 27.6-.4 52.3-.4 52.6-.3 3 1.9 5.6 4.9 5.9s5.6-1.9 5.9-4.9c.2-2 2.5-26.5.5-54.3 6.9-6 41.4-34.7 68.4-26.3 15 4.7 25.7 20.6 31.6 47.3-7.1 5.9-14.2 12.5-20.9 19.9-28.6 31.6-41.2 67.3-37.7 106.1-16.4 10.3-34.9 22.4-53.4 35.2-2.7-4-6.7-12.7-9.9-21.5zm-42.5 103.1 11.8-3.4c2.1-.6 3.6-2.4 3.9-4.5.3-2.2-.8-4.3-2.6-5.4-6.6-3.9-14.1-8.6-18.4-11.6 8.1-7.3 31.3-24.7 59.1-44 1-.3 1.8-.9 2.5-1.7 25.5-17.7 54.5-36.7 79.2-50.9 64.3-36.9 140.5-98.9 147.4-153.8 16.1-6.8 26.5-23 25.6-40.7-.9-18-13.1-32-33.1-38.5 8.1-13.8 17.9-26.6 30.2-39.5l7.5 3.8c2.5 1.7 20 15.5 32.1 25.2-.4 4.3-.3 10.5 2.7 13.9 1.2 1.3 4.3 4.8 25.2 3.9 12.4 4.8 38.3 34.8 52 53 1.4 1.9 4 2.7 6.3 1.8.1-.1.3-.1.5-.1 1.4 5.6 3.9 19.6 5.7 31.7v.1c-8.5 1.4-17.4 3.7-26.8 6.8-7.1 1.9-18.9 12.7-23 28.3-3.1 11.7-2.7 29.6 17 48.1.2.2.5.4.8.6 9.8 6.3 17.8 9.2 24.8 10.1v.1c-.2 4.5-6.9 20.8-11.5 30.9 0 0 0 .1-.1.1-26.3 61.4-74.2 92.4-74.7 92.7-.3.2-.6.4-.9.7-48.3 46.8-118.2 63.4-127 65.4-4.2-.6-18.6-2-32.8 4.9-2.5.3-10.1 1.1-21 1.9 27.8-38 24.2-75.2 15.9-100.3-9.5-28.6-26.8-47.4-27.5-48.2-2-2.2-5.5-2.3-7.7-.3s-2.3 5.5-.3 7.7c.2.2 16.5 18.2 25.3 44.6 11.5 34.8 5 67.3-19.5 96.6-.2.3-.4.6-.6.9-14.6.7-32.2 1.1-50.1.4-51.9-2.5-85.4-13.2-97.9-31.3zm194.1 35.2c4-1.2 7.9-1.7 11.2-1.9-2.2 2.7-4.4 5.6-6.4 8.3-1.3-1.9-2.8-4-4.8-6.4zm-111.3 112c-.2.8-.4 1.7-.6 2.4 0 .2-.1.4-.1.6-5.1 38.9 1.6 67.5 20 85.3 18.3 17.6 47.1 23.7 83.2 17.5.6-.1 1-.2 1.3-.2 2-.3 4.5-1.4 10.4-4.1 13.8-6.3 42.6-19.3 59.5-12.2 5.5 2.3 9.4 6.7 11.7 13.3 3.7 10.3 2.3 19.9-4 28.4-13.8 18.6-50.3 30.7-86.7 28.9-85-4.4-131.2-41.8-141.2-114.4-5.6-40.2 5.4-77.3 32.6-110.3 20.4-24.7 42.9-37.7 43.2-37.9 1-.6 1.7-1.4 2.2-2.3 31.9.2 59.8-2.5 68.5-3.5l.6.6c-85.6 46.5-95.3 86.4-100.6 107.9zm121.7-75.5c-1.7-4.6-1.3-7.4-1-10.6.3-2.5.4-4.9.1-7.4 2-3.2 9-12.3 15.5-20.3 12.7-2.8 81.2-19.8 130.9-67.4 6.6-3.2 24.6-10.1 32.7-5.1 1.2.7 4.8 3 4.6 12.4-.5 26.9-10.7 47.9-31.2 64.4-15.1 12.1-87.2 49.7-130.6 49.5-2.3-.5-16.6-3.5-21-15.5zm273.6-122.2c-2 2-3.5 5.8-7.3 16.4-11.6 31.7-38.8 106.1-102.9 133.2-34.3 14.5-74.7 13.4-120.4-3.2 45.2-8.5 101.5-38.6 115.5-49.8 22.9-18.4 34.8-42.8 35.3-72.7.2-10.4-3.1-17.7-9.7-21.9-4.8-3-10.6-3.7-16.5-3.3 16.3-15 38.2-39.6 54.1-74.2 20.6 12.1 39.7 18.2 57.1 18.2 11 0 21.4-2.5 31-7.4-13.4 26.5-30.9 59.3-36.2 64.7zm162.5-370.9c-1.1 1-1.8 2.4-1.9 3.9 0 .9-4.1 85.6-57.9 125.2-10.5 7.7-22.1 13.2-35 16.5-6.3-5.4-23.3-19.2-35.4-21.9-2.9-.7-5.8 1.2-6.5 4.1s1.2 5.8 4.1 6.5c6.5 1.5 16.3 8.1 23.9 14-20 2.7-42.5.7-67.4-6-2.9-.8-5.9.9-6.7 3.8s.9 5.9 3.8 6.7c18.7 5 36.3 7.5 52.6 7.5 10.8 0 21-1.1 30.7-3.3.6 0 1.2-.2 1.7-.4 6.4-1.6 12.6-3.6 18.4-6.1 1.8 7 2.2 27.6-2.8 54.1-3.8 19.9-13.5 56.7-35.9 79.4-24.2 24.5-56.4 25-95.8 1.5 3.6-8.2 10.2-23.9 10.5-30.5 0-.3 0-.6 0-.9 5.7-.9 11.1-2.9 17-5 3.4-1.2 6.9-2.5 10.8-3.7 2.9-.9 4.5-3.9 3.6-6.8s-3.9-4.5-6.8-3.6c-4.2 1.3-8 2.7-11.4 3.9-15.3 5.5-23.7 8.6-42.6-3.4-12.2-11.7-16.9-24.5-13.6-37.1 3.3-12.5 12.8-19.9 15.4-20.6.1 0 .3-.1.4-.1 33.5-11.2 60.1-10.8 79 1.2 23.6 15 27.2 43.8 27.3 44.1.3 3 3 5.1 6 4.8s5.1-3 4.8-6c-.2-1.4-4.1-34.1-32.1-52-13.8-8.8-30.7-12.4-50.7-10.7 0-.1 0-.3 0-.4-2.3-15.4-4-24.5-5.3-30 5.7-.1 12.4-.7 16-2.8 2.6-1.5 3.5-4.8 2-7.4s-4.8-3.5-7.4-2c-1.9 1.1-10.5 1.6-18.4 1.2h-.1c-1.2-.2-2.4-.2-3.4-.1-8.8-11.4-38.7-48.9-56.1-54.3-.6-.2-1.3-.3-1.9-.2-7.1.4-14.7.1-17.6-.6-.3-1.6-.2-5 .3-7.7.3-2-.4-3.9-2-5.2-33.7-27-35.6-27.9-36.2-28.2l-9.6-4.8c-3.3-7.2-15.8-33.5-31.8-50 3.3-13.6 21-74.1 76.3-109.3 44.2-28.1 101.3-33.6 169.9-16.4.6.2 63.1 17.1 78.6 49.3 1.2 2.6 4.3 4.1 7 3 2.6-1 4.1-3.5 3.3-6.2.1-.9.7-5.2 8.6-10.7 8.4-5.9 26.2-14 63.8-19.5 2.7 20.5 8.9 97.4-43.5 143.2zm-408.8 294.8c.4 0 .8 0 1.1-.1 38.8-8.4 73.7-74.1 81.7-100.1 2.9-9.6 2.9-15 0-18.1-1.2-1.2-3.3-2.7-6.6-2.7-9.4 0-23.2 12.8-28.7 18.3-4.2 4.2-18.1 18.8-20.5 30.3-2.6 12.4-23.7 50.6-31.6 64.2-1.1 1.9-1 4.2.3 5.9 1 1.5 2.6 2.3 4.3 2.3zm37.6-70.2c2.5-12 27-35.6 36.4-39.4-1.2 7.5-8.5 27-22.4 49.3-12.7 20.3-26.3 35.4-38.9 43.5 8.9-16.3 22.6-42.2 24.9-53.4zm120.6-190.3c-.3 0-.6.1-.9.1-2.6 0-4.9-1.9-5.4-4.6-3.5-21.2-27.8-69.1-28.1-69.6-1.4-2.7-.3-6 2.4-7.3 2.7-1.4 6-.3 7.3 2.4 1 2 25.4 49.9 29.1 72.8.6 2.9-1.4 5.7-4.4 6.2zm61.1 30c-.8.4-1.6.6-2.4.6-2 0-3.9-1.1-4.9-3-1.4-2.7-.3-6 2.4-7.3 39.2-19.8 91.2-15.1 93.4-14.9 3 .3 5.2 2.9 4.9 5.9s-2.9 5.2-5.9 4.9c-.6 0-51.1-4.5-87.5 13.8zm-48.1-24.2c-1.5-1.1-3.5-1.4-5.3-.7s-3 2.3-3.3 4.1c-1.3 7.9 7 24.3 11.6 26.9 1.3.8 3 1.1 5.5 1.1.1 0 14.4-.1 17.5-5.1 1-1.7 1.1-3.8.3-5.5-.7-1.2-1.3-2.4-26.3-20.8zm8.4 20.7c-.3-.4-.7-.9-1-1.5.7.5 1.4 1 2 1.5-.3 0-.7 0-1 0zm178.7 33.4c-1.2 2.8-4.4 4.1-7.1 2.9-25.5-10.8-80 4.4-80.6 4.5-.5.1-1 .2-1.5.2-2.4 0-4.6-1.6-5.2-4-.8-2.9.9-5.9 3.8-6.7 2.4-.7 58.7-16.3 87.7-4.1 2.8 1.2 4 4.4 2.9 7.2zm-12.2 25c2.1 2.1 2.1 5.6 0 7.7-1.1 1.1-2.5 1.6-3.8 1.6-.9 0-1.9-.2-2.7-.7-4.8-1.5-35.8-4.8-63.7-7.3-3-.3-5.2-2.9-4.9-5.9s2.9-5.2 5.9-4.9c.2 0 16.1 1.4 32.1 3.1 34.3 3.6 35.4 4.7 37.1 6.4zm95.5-236.8c-1-.8-4.7-3.2-11.6-3.2-13 0-29.6 7.9-49.4 23.4-1.9 1.5-2.6 4-1.7 6.2 10.1 26.2 20.4 56.3 20.3 61.2-.1 2.3 1.4 4.5 3.6 5.3.6.2 1.2.3 1.8.3 1.6 0 3.2-.7 4.3-2.1 1.6-2.1 39.5-50.7 34.8-87.5-.2-1.4-1-2.7-2.1-3.6zm-34.3 74.7c-4.3-14.8-12.5-36.9-16.8-48.3 21.4-16.2 33.9-18.7 39.5-18.7 1.3 0 2.4.1 3.2.3 1.1 23-15.9 51.9-25.9 66.7zm-571.4 451.3c-20 0-21.5 12.7-21.5 16.6 0 10.5 9.2 17.6 22.8 17.6 13.2 0 22.8-7.7 22.8-18.3 0-9.9-9-15.9-24.1-15.9zm1.3 23.4c-6 0-12-2.1-12-6.7 0-1.6 0-5.7 10.6-5.7 6.6 0 13.3 1.6 13.3 5.1.1 4.2-4.9 7.3-11.9 7.3z" fill="#89191a"/></g></svg>