<svg xmlns="http://www.w3.org/2000/svg" xml:space="preserve" width="512" height="512"><path fill="#FDE7CF" d="m157.46 270.566 32.901-17.945v73.293l-5.316 8.677-32.604 2.533-31.487-6.332-18.2-9.461-12.999-15.081-3.842-11.711 3.472-9.526 14.962-2.113 17.506-.152c.001.001 28.936-8.316 35.607-12.182z"/><path fill="#2D2D39" d="M214.338 321.626c3.004-2.775 4.46-5.153 6.357-8.571l-1.972-2.261c-5.66 10.356-17.187 17.827-33.266 21.649-28.457 6.652-62.935.407-77.269-9.539-14.099-9.912-22.969-23.999-20.109-31.982 2.179-5.97 10.246-6.604 16.694-6.036 29.892 2.494 77.218-25.003 77.959-25.47l-1.667-2.696c-.202.066-47.258 27.363-75.907 24.909-13.67-1.106-18.431 3.81-20.031 8.137-3.371 9.493 5.695 24.857 21.234 35.75 14.936 10.42 50.521 16.973 79.786 10.055 11.842-2.766 21.474-7.492 28.191-13.945z"/><path fill="#A9DAFF" d="m77.367 233.63 50.565-20.633 38.254 93.752-50.565 20.632z"/><path fill="#72BFED" d="m77.288 233.642 50.565-20.632 8.831 21.643-50.565 20.632z"/><path fill="#FFF" d="m85.275 253.137 50.565-20.632.883 2.163-50.565 20.633z"/><path fill="#2D2D39" d="m128.683 211.359-52.979 21.617 39.222 96.121 52.979-21.617-39.222-96.121zm-1.386 3.32 37.288 91.415-48.273 19.682-37.287-91.415 48.272-19.682z"/><path fill="#D4EBFD" d="m60.225 255.307 45.85-29.679 55.027 85.01-45.85 29.679z"/><path fill="#BEDEFA" d="m60.219 255.32 45.85-29.679 12.703 19.625-45.85 29.678z"/><path fill="#FFF" d="m71.67 273.001 45.85-29.678 1.27 1.963-45.85 29.678z"/><path fill="#92C3F4" d="M129.455 299.451c-1.232.13-2.316.281-3.399.432-1.466.173-2.847.283-4.313.456-.382.022-.403.171-.445.468.109 1.381.134 2.826.307 4.292.064.085-.021.149-.021.149l-.085.064-2.941-3.904c-2.249 1.429-4.435 2.942-6.769 4.435-.214-.637-.428-1.274-.706-1.996-.064-.085.191-.277.212-.426 1.632-1.895 3.328-3.705 4.96-5.6.191-.277.276-.341.084-.595l-1.922-4.14c-.747-1.698-1.516-3.248-2.199-4.861l-.704-1.465c-.234.043-.319.107-.552.15-1.529.62-3.078 1.388-4.5 2.326-3.501 2.239-7.152 4.457-10.653 6.696-.085.064-.234.043-.403.171-.171-.403-.342-.807-.428-1.274.021-.149.127-.362.148-.51 1.102-1.362 2.268-2.64 3.37-4.002.636-.745 1.187-1.426 1.823-2.172.17-.128.127-.362.084-.595l-.642-1.911c-.278-.722-.151-1.083.571-1.361.488-.235 1.04-.385 1.593-.535.319-.107.68.02.936.359.128.17.235.488.363.658.636-.745 1.272-1.49 1.823-2.172l2.989-3.449c.36-.405.402-.702.231-1.106l-1.475-4.077c-.642-1.911-1.219-3.737-1.16-5.778-.023-.914.187-1.87.461-2.742.316-1.169 1.187-1.426 2.23-.749 1.255.784 2.151 1.972 2.897 3.139 1.066 1.591 1.644 3.418 2.37 5.265.342.807.684 1.614 1.004 2.569.064.085.192.255.341.276l8.164 1.831c-.043-.234-.171-.403-.214-.637-.086-.467.041-.829.444-1l1.911-.642c.319-.107.68.02.787.338.278.722.492 1.359.77 2.081.171.403.299.573.745.636 2.53.356 4.974.775 7.568 1.216.446.063.659.169.745.636.107.319.214.637.385 1.04-.616.065-1.168.215-1.784.28-4.503.732-8.986 1.316-13.49 2.048-1.083.151-2.06.621-3.249.985.214.637.343 1.338.557 1.975.621 2.06 1.093 4.099 1.714 6.159.3 1.104.536 2.124.921 3.164.064.085.277.191.425.212 2.083.293 4.102.501 6.037.773.595.084 1.275.103 1.701.315.341.275.47.976.62 1.529-.344.258-.301.491-.237.576z"/><path fill="#2D2D39" d="m106.519 223.924-48.044 31.047 56.421 87.194 48.043-31.047-56.42-87.194zm-.757 3.531 53.647 82.907-43.755 28.273-53.646-82.906 43.754-28.274z"/><path fill="#9D706B" d="M77.183 296.186c-.819-4.017.698-8.168 4.168-10.362 2.468-1.557 5.872-2.099 9.964.92 8.982 6.746 17.605 26.41 15.703 30.771-1.901 4.361-8.677 14.094-18.816.46-6.989-9.599-9.942-16.708-11.019-21.789z"/><path fill="#2D2D39" d="M99.294 326.533c-4.078.441-8.187-2.128-12.256-7.627-6.28-8.519-10.194-16.042-11.369-22.479-.939-4.774.98-9.586 4.912-12.062 2.546-1.629 6.725-2.742 11.766.991 9.276 6.908 18.62 27.352 16.227 32.746-.33.739-1.644 3.544-3.985 5.708-1.41 1.448-3.181 2.506-5.295 2.723zm-20.52-30.66c1.192 5.987 4.823 13.048 10.821 21.104 3.282 4.491 6.508 6.573 9.3 6.307 3.021-.332 5.559-3.69 6.795-6.424 1.41-3.328-6.636-22.368-15.18-28.795-2.92-2.221-5.617-2.477-8.162-.848-.384.21-.696.499-1.087.859-2.1 1.797-3.047 4.843-2.487 7.797z"/><path fill="#FDE7CF" d="m334.078 268.944 28.475-6.8 19.869-9.35s13.069-7.969 17.107-5.525 6.269 9.031 6.269 9.031l-2.975 17.319s-5.419 11.581-5.525 12.113c-.106.425-11.369 13.706-11.369 13.706l-12.113 8.925-24.013 12.538-22.1 3.188-26.882-6.056 4.994-35.594 28.263-13.495z"/><path fill="#9D706B" d="M376.047 306.876c-.531-.319-1.063-.638-1.488-.956 11.581-8.075 20.613-17.744 24.119-25.394 2.975-6.375 4.569-12.963 4.888-18.488-9.031 19.338-22.95 30.388-37.082 36.338-10.306-14.875-4.25-37.082-4.25-37.082 11.05-.425 24.65-13.706 31.769-14.556 7.119-.85 8.713 4.569 8.713 4.569 12.113 28.9-26.669 55.569-26.669 55.569z"/><path fill="#8A5D58" d="M403.46 262.144c-.213 5.525-1.913 12.113-4.888 18.488-3.613 7.65-12.644 17.319-24.119 25.394-3.4-2.125-5.95-4.781-7.969-7.65 14.059-6.769 27.945-16.894 36.976-36.232z"/><path fill="#FDE7CF" d="M186.6 264.269s138.552-14.025 134.09-13.175c.638 5.738 13.388 137.915 15.194 173.19l.507 8.075c-.106.425 2.468 34.547.13 42.941-2.338 8.394-3.42 13.82-17.87 16.264-4.569.744-11.801 1.174-19.239 1.174-8.925 0-18.456-.496-25.043-.815-4.25-.212-6.889-2.785-6.783-7.141.212-5.844 2.81-15.432 16.304-18.62l-7.802-18.905c-5.738 1.063-12.679 1.328-17.886 1.328-4.888 0-10.619-.525-15.082-1.269l-.314.871 1.276.322c-1.806 9.669-4.144 22.313-5.419 27.2-2.338 8.394-5.265 13.041-19.716 15.485-4.569.744-11.176 1.279-18.614 1.279-8.925 0-16.63.201-23.218-.118-4.25-.213-7.76-2.53-7.654-6.887s-.287-11.459 6.194-15.603c2.019-1.275 7.272-2.337 9.822-2.656l-5.785-65.64c-4.463-8.288-9.988-19.361-11.369-28.18-1.488-9.244.85-21.675 1.913-32.619-.105-.106 14.452-75.438 16.364-76.501z"/><path fill="#9D706B" d="m186.282 465.935-4.25-11.794v-2.869c9.244-2.55 17.213-3.506 24.225-3.719 5.419 18.063 5.206 37.932-17.213 44.307-8.713-.425-15.619-1.063-15.619-1.063s-6.375-4.25-2.55-12.538c3.719-8.18 15.407-12.324 15.407-12.324z"/><path fill="#FDE7CF" d="M190.425 413.872s.638.956 1.7 2.763a39.469 39.469 0 0 1-1.7-2.763z"/><g fill="#E0BCA2"><path d="M240.219 462.199c-.352 1.839-.572 3.754-.741 5.562.225-1.784.475-3.704.777-5.757l-.036.195zM192.231 416.633c3.188 5.313 10.002 17.685 13.933 30.966 23.8-.531 34.837 9.835 34.837 9.835-.295 1.602-.53 3.108-.745 4.57.921-4.83 1.914-10.832 2.74-15.502-11.093-2.666-38.107-10.882-50.765-29.869zM216.563 491.647c-6.906.957-18.275.638-27.625.213 0 .107-.106.107-.107.104-1.488.425-2.869.85-4.038 1.275 4.994.213 10.413.319 15.619.319 7.438 0 14.45-.318 19.019-1.062 14.45-2.443 16.874-8.905 19.212-17.299.403-1.544.545-4.333.835-7.436-.54 4.279-.991 7.815-1.983 10.605-4.569 12.431-11.476 11.9-20.932 13.281z"/></g><path fill="#8A5D58" d="M206.151 447.553c23.8-.531 34.744 9.775 34.744 9.775-1.594 9.244-1.806 16.15-3.506 20.932-4.569 12.538-11.369 11.9-20.932 13.281-6.8.956-18.169.744-27.625.213 22.525-6.163 22.631-26.032 17.319-44.201z"/><path fill="#9D706B" d="M338.54 457.329c-.425 2.55-.744 4.994-1.063 7.119.106-2.55.106-5.206.106-7.969.638.531.957.85.957.85zM283.821 465.935l-4.25-11.794v-2.869c12.431-3.4 22.738-4.144 31.025-3.506-2.55 19.55-7.65 35.701-16.363 44.519-11.9-.319-23.269-1.381-23.269-1.381s-6.375-4.25-2.55-12.538c3.825-8.287 15.407-12.431 15.407-12.431z"/><path fill="#8A5D58" d="M337.478 456.585c0 2.763 0 5.525-.106 7.969-.744 5.738-1.169 10.306-2.444 13.813-4.569 12.538-11.369 11.9-20.932 13.281-4.994.744-12.538.744-19.869.531 8.713-8.819 13.813-24.757 16.469-44.413 15.513 1.169 24.119 6.588 26.882 8.819z"/><path fill="#E0BCA2" d="M311.34 303.37c7.013.106 11.05 12.113 16.257 11.05l2.869 29.963c.638 5.738 2.55 44.626 4.356 79.795l2.125 7.013c-.106.213.531 13.557.531 25.67-2.763-2.125-11.475-8.032-26.882-9.094 3.931-30.176.638-144.397.744-144.397z"/><path fill="#FFFAF5" d="M226.339 328.233c24.438-5.1 50.363 19.232 55.57 44.307 5.206 25.075-10.306 49.513-34.851 54.613-24.438 5.1-48.557-10.944-53.87-36.019-5.206-24.969 8.713-57.695 33.151-62.901z"/><path fill="#2D2D39" d="M244.228 447.89c-1.806 9.669-4.184 22.719-5.459 27.606-2.338 8.394-4.994 14.556-19.444 17-4.569.744-11.581 1.063-19.019 1.063-8.925 0-18.488-.425-25.075-.744-4.25-.213-7.65-3.825-7.544-8.181.107-4.461 1.488-10.943 8.076-15.086 5.631-3.506 15.619-2.656 15.831-1.913h-.319c-16.894 1.169-20.719 9.881-20.932 17-.106 2.869 2.125 5.313 4.994 5.525 9.669.531 33.363 1.488 43.563-.319 12.963-2.231 15.194-7.225 17.319-15.088 1.381-4.994 3.668-17.865 5.368-27.428l2.641.565z"/><g><path fill="#2D2D39" d="m186.6 467.635-3.506.956-5.844-69.913 3.188-.319z"/></g><g><path fill="#2D2D39" d="m285.917 466.362-2.628 1.061-9.243-20.72 3.502-.003z"/></g><path fill="#2D2D39" d="M212.631 432.679c-21.462-13.706-37.613-37.294-41.119-60.032-.177-1.1-7.784-29.227 18.913-109.547l-3.081-1.062c-27.041 81.124-19.19 110.186-19.019 111.247 3.719 23.906 19.976 47.813 42.501 62.157 12.86 8.279 35.826 18.926 73.1 10.412-32.398 1.349-49.203.826-71.295-13.175z"/><path fill="#E0BCA2" d="M374.453 306.026c-8.288 5.738-17.744 10.731-27.519 13.706-13.069 3.931-24.332 3.4-32.725-1.488h-.106v-.106c-.106-.425-.106-.85-.213-1.275-.531-4.569-1.381-9.775-2.656-13.494 0 0 28.369 6.375 55.251-4.994a28.867 28.867 0 0 0 7.968 7.651z"/><g><path fill="#2D2D39" d="M313.571 320.264c24.347 3.973 37.71-1.135 49.768-7.564 16.633-8.869 30.544-22.151 35.233-32.174 6.056-13.069 6.588-26.775 1.169-31.344-4.038-3.4-10.094-.425-14.556 2.656-20.4 14.238-52.17 19.019-52.913 18.913l1.594-2.869c.213 0 30.069-4.569 49.726-18.275 9.35-6.481 14.875-4.994 17.744-2.444 6.375 5.419 6.269 20.188-.425 34.532-4.811 10.343-19 24.014-35.992 33.205-7.107 3.845-27.941 16.164-51.348 5.364z"/></g><path fill="#2D2D39" d="M337.478 421.192c-1.965-35.067-5.904-65.397-9.032-97.634h-3.187c3.459 32.393 6.518 56.394 8.892 97.507.043.743 2.105 31.895 1.576 46.956-.677 19.276-11.058 20.729-18.012 21.926-10.2 1.807-33.894.85-43.563.319-4.391-.313-6.966-4.771-3.448-11.981 3.228-6.615 9.748-9.685 19.279-13.094-.235 0-15.974-.161-21.637 11.437-4.37 8.949-.839 15.865 5.594 16.186 19.509.945 35.177 1.134 44.094-.318 10.756-1.819 19.194-5.79 20.283-23.692.805-13.241-.327-38.478-.839-47.612z"/><g><path fill="#F0F9FF" d="M423.798 297.191h4.693v51.997h-4.693z"/><path fill="#D4EBFD" d="M426.145 297.191h2.346v51.997h-2.346z"/><path fill="#A9DAFF" d="M421.921 298.223h8.447v1.877a1.883 1.883 0 0 1-1.877 1.877h-4.599a1.883 1.883 0 0 1-1.877-1.877v-1.877h-.094zM430.368 351.065h-8.447v-1.877c0-1.032.845-1.877 1.877-1.877h4.599c1.032 0 1.877.845 1.877 1.877v1.877h.094z"/><path fill="#F0F9FF" d="M374.71 297.191h4.693v51.997h-4.693z"/><path fill="#D4EBFD" d="M377.057 297.191h2.346v51.997h-2.346z"/><path fill="#A9DAFF" d="M372.833 298.223h8.447v1.877a1.883 1.883 0 0 1-1.877 1.877h-4.599a1.883 1.883 0 0 1-1.877-1.877v-1.877h-.094zM381.28 351.065h-8.447v-1.877c0-1.032.845-1.877 1.877-1.877h4.599c1.032 0 1.877.845 1.877 1.877v1.877h.094z"/><path fill="#FFC76A" d="M424.64 290.688c-2.42.023-43.634.023-46.078 0-4.558 0-7.862 3.83-7.608 7.805.132 2.586 1.349 4.644 5.823 5.115 6.89.095 10.571-7.078 14.724-3.964 5.885 4.353 14.024 4.566 20.198 0 4.153-3.114 7.833 4.059 14.724 3.964 4.474-.472 5.692-2.529 5.823-5.115.256-4.002-3.068-7.805-7.606-7.805z"/><path fill="#FCB24F" d="M432.011 296.252c-.395 2.936-2.69 3.98-5.631 4.317-6.852.094-10.512-7.039-14.642-3.942-2.947 2.178-6.533 3.304-10.137 3.37-3.604-.066-7.19-1.192-10.137-3.37-4.13-3.097-7.79 4.036-14.642 3.942-2.963-.34-5.233-1.391-5.631-4.317-.038.61-.075 1.22-.075 1.83 0 .131 0 .263.009.404.075 2.478.976 4.674 5.697 5.181 6.852.094 10.512-7.039 14.642-3.942 2.947 2.177 6.533 3.304 10.137 3.37 3.604-.066 7.19-1.192 10.137-3.37 4.13-3.097 7.79 4.036 14.642 3.942 4.721-.507 5.622-2.703 5.697-5.181.009-.141.009-.272.009-.404 0-.61-.038-1.22-.075-1.83z"/><path fill="#2D2D39" d="M378.715 287.961h-.002c-.796 0-1.557.082-2.289.243-3.108.677-8.072 3.75-8.072 9.878 0 4.915 2.732 6.502 3.595 6.994v40.387a4.636 4.636 0 0 0-1.877 3.725v4.64h13.879v-4.64a4.622 4.622 0 0 0-1.783-3.651v-40.205c1.514-.63 2.831-1.432 3.957-2.117 1.217-.741 2.475-1.507 3.151-1.507.08 0 .229 0 .533.228 3.323 2.456 7.488 3.844 11.744 3.922l.05.001.05-.001c4.256-.078 8.421-1.466 11.728-3.91.32-.24.469-.24.549-.24.676 0 1.934.766 3.15 1.507 1.126.686 2.443 1.488 3.957 2.118v40.131a4.636 4.636 0 0 0-1.877 3.725v4.64h13.879v-4.64a4.622 4.622 0 0 0-1.783-3.651v-40.461c2.277-1.297 3.48-3.462 3.583-6.461.31-5.219-3.816-10.655-10.326-10.655h-45.796zm45.797 2.762c3.735 0 7.575 2.915 7.575 7.358 0 2.17-.49 4.243-3.594 5.176v44.063c.988.05 1.783.867 1.783 1.868v1.877h-8.353v-1.877c0-1.032.845-1.877 1.877-1.877v-43.959c-4.17-1.049-7.064-4.408-9.87-4.408-.729 0-1.453.227-2.191.781-2.947 2.177-6.533 3.304-10.137 3.37-3.604-.066-7.19-1.192-10.137-3.37-.738-.554-1.462-.781-2.191-.781-2.806 0-5.7 3.359-9.87 4.408v43.968c.988.05 1.783.867 1.783 1.868v1.877h-8.353v-1.877c0-1.032.845-1.877 1.877-1.877v-44.054c-3.113-.934-3.594-3.017-3.594-5.176 0-5.257 4.797-6.939 5.904-7.18a7.722 7.722 0 0 1 1.671-.178h45.82z"/><path fill="#72BFED" d="M375.086 490.264c-2.628 0-4.787-2.159-4.787-4.787v-2.628c0-2.628 2.159-4.787 4.787-4.787s4.787 2.159 4.787 4.787v2.628c.093 2.628-2.065 4.787-4.787 4.787zM428.397 490.264c-2.628 0-4.787-2.159-4.787-4.787v-2.628c0-2.628 2.159-4.787 4.787-4.787s4.787 2.159 4.787 4.787v2.628c0 2.628-2.159 4.787-4.787 4.787z"/><path fill="#2D2D39" d="M375.086 478.063c2.628 0 4.787 2.159 4.787 4.787v2.628c.094 2.628-2.065 4.787-4.787 4.787-2.628 0-4.787-2.159-4.787-4.787v-2.628c0-2.629 2.159-4.787 4.787-4.787zm0-2.763c-4.163 0-7.549 3.387-7.549 7.549v2.628c0 4.163 3.387 7.549 7.549 7.549 2.075 0 4.078-.843 5.496-2.312a7.253 7.253 0 0 0 2.053-5.281v-2.584c0-4.162-3.386-7.549-7.549-7.549zM428.397 478.063c2.628 0 4.787 2.159 4.787 4.787v2.628c0 2.628-2.159 4.787-4.787 4.787s-4.787-2.159-4.787-4.787v-2.628c0-2.629 2.159-4.787 4.787-4.787zm0-2.763c-4.163 0-7.549 3.387-7.549 7.549v2.628c0 4.163 3.387 7.549 7.549 7.549 4.163 0 7.549-3.387 7.549-7.549v-2.628c0-4.162-3.386-7.549-7.549-7.549z"/><path fill="#D4EBFD" d="M439.848 485.566h-76.119c-6.758 0-12.295-5.538-12.295-12.295V352.194c0-6.758 5.538-12.295 12.295-12.295h76.119c6.758 0 12.295 5.538 12.295 12.295v120.983c0 6.852-5.537 12.389-12.295 12.389z"/><path fill="#72BFED" d="M351.34 351.913v3.003c1.22.375 2.534.657 3.942.657 6.852 0 12.483-5.538 12.483-12.389 0-1.126-.188-2.253-.469-3.285h-3.848c-6.664-.094-12.108 5.35-12.108 12.014z"/><path fill="#A9DAFF" d="M401.272 396.667a173.224 173.224 0 0 1-1.408 3.848h-35.478c-1.032 0-1.971-.845-1.971-1.971 0-.563.188-1.032.563-1.408s.845-.563 1.408-.563h36.886v.094zM397.518 406.429a155.782 155.782 0 0 1-1.689 3.848h-31.442c-1.032 0-1.971-.845-1.971-1.971 0-.563.188-1.032.563-1.408s.845-.563 1.408-.563h33.132l-.001.094zM392.919 416.112a50.731 50.731 0 0 1-2.159 3.848h-26.374c-1.032 0-1.971-.845-1.971-1.971 0-.563.188-1.032.563-1.408s.845-.563 1.408-.563h28.533v.094zM387.194 425.873c-.845 1.314-1.689 2.628-2.628 3.848h-20.179c-1.032 0-1.971-.845-1.971-1.971 0-.563.188-1.032.563-1.408s.845-.563 1.408-.563h22.807v.094z"/><path fill="#A9DAFF" d="M452.143 352.194v120.983c0 6.758-5.538 12.295-12.295 12.295h-76.119c-6.758 0-12.295-5.538-12.295-12.295v-11.638c42.424-25.811 59.318-78.277 59.506-121.734h28.908c6.758 0 12.295 5.538 12.295 12.389z"/><path fill="#4BAFE2" d="M441.068 398.56c0 .563-.188 1.032-.563 1.408-.375.375-.845.563-1.408.563H399.77c.469-1.314.979-2.737 1.448-3.958l37.879.109c1.126-.093 1.971.846 1.971 1.878zM441.068 408.321c0 .563-.188 1.032-.563 1.408s-.845.563-1.408.563h-43.362c.563-1.314 1.236-2.737 1.705-3.957l41.657.109c1.126-.094 1.971.751 1.971 1.877zM441.068 417.989c0 .563-.188 1.032-.563 1.408s-.845.563-1.408.563H390.76c.751-1.314 1.333-2.722 2.084-3.942l46.346.094c1.033-.094 1.878.844 1.878 1.877zM441.068 427.75c0 .563-.188 1.032-.563 1.408s-.845.563-1.408.563h-54.531c.939-1.314 1.783-2.628 2.628-3.942l51.903.094c1.126-.094 1.971.751 1.971 1.877z"/><path fill="#ED9935" d="M435.53 339.805h.657-.657z"/><path fill="#4BAFE2" d="M452.143 354.916v115.539c-1.22-.375-2.534-.657-3.942-.657h-.282V355.479h.282c1.408 0 2.722-.187 3.942-.563z"/><path fill="#4BAFE2" d="M452.143 352.194v2.722c-1.22.375-2.534.657-3.942.657h-.282v-3.379c0-6.57-5.162-12.014-11.638-12.295h3.567c6.758-.094 12.295 5.444 12.295 12.295z"/><path fill="#72BFED" d="M447.92 352.194v3.379c-6.758-.188-12.108-5.631-12.108-12.389 0-1.126.188-2.253.469-3.285 6.612.292 11.639 5.725 11.639 12.295zM351.34 473.459v-3.003c1.22-.375 2.534-.657 3.942-.657 6.852 0 12.483 5.538 12.483 12.389 0 1.126-.188 2.253-.469 3.285h-3.848c-6.664.093-12.108-5.35-12.108-12.014z"/><path fill="#4BAFE2" d="M452.143 470.455v2.722c0 6.758-5.538 12.295-12.295 12.295h-3.567c6.476-.375 11.638-5.725 11.638-12.295v-3.379h.282c1.408 0 2.722.282 3.942.657z"/><path fill="#72BFED" d="M436.187 485.473c-.282-1.032-.469-2.159-.469-3.285 0-6.758 5.444-12.202 12.202-12.389v3.379c.093 6.569-5.256 12.013-11.733 12.295z"/><g><path fill="#2D2D39" d="M439.848 486.947H363.73c-7.541 0-13.677-6.135-13.677-13.677V352.195c0-7.541 6.135-13.677 13.677-13.677h76.118c7.541 0 13.677 6.135 13.677 13.677v120.983c0 7.593-6.136 13.769-13.677 13.769zM363.73 341.28c-6.018 0-10.915 4.896-10.915 10.915v121.076c0 6.018 4.897 10.915 10.915 10.915h76.118c6.018 0 10.915-4.938 10.915-11.008V352.195c0-6.018-4.896-10.915-10.915-10.915H363.73z"/></g></g><g><path fill="#FDE7CF" d="M376.918 216.697c.241-4.263.214-8.546.006-12.749-.037-.768-.073-1.536-.131-2.295-.275-4.28-.744-8.461-1.32-12.443a111.112 111.112 0 0 0-.444-2.969c-2.724-16.982-7.178-29.675-7.178-29.675l-4.152-18.937-.427-1.924.037-.08c.301-.722 2.754-6.529 5.239-14.742.315-1.052.632-2.135.953-3.259a154.699 154.699 0 0 0 2.094-8.387l.017-.092c.548-2.534 1.04-5.145 1.451-7.793 1.301-8.704 1.609-17.822-.353-25.751-1.959-7.816-4.578-15.101-7.25-21.378a179.87 179.87 0 0 0-2.083-4.723l-.027-.054c-3.416-7.406-6.6-12.913-8.196-15.533a69.73 69.73 0 0 0-.86-1.387c-.14-.207-.204-.315-.204-.315l-.067.067-5.106 4.619s-1.167.679-3.199 2.029a149.338 149.338 0 0 0-4.218 2.947c-5.408 3.946-13.19 10.229-21.317 18.814-4.608 4.883-9.344 10.512-13.803 16.885-.012.02-.023.029-.034.039-.174.256-.359.522-.544.787l-.579.702-.001.01a.386.386 0 0 0-.08.098l-.715.868-.001.01-1.365-.286-30.112-6.263v-.002h-.007l-.007-.001v.002l-30.704 1.797-1.392.084.001-.01-.581-.963a.386.386 0 0 0-.064-.108l.001-.01-.47-.779c-.144-.29-.288-.58-.423-.858a.139.139 0 0 1-.028-.043c-3.48-6.956-7.343-13.216-11.188-18.72-6.786-9.68-13.566-17.033-18.34-21.727a150.124 150.124 0 0 0-3.742-3.532c-1.814-1.632-2.868-2.475-2.868-2.475l-4.376-5.316-.056-.077s-.08.098-.248.282a73.43 73.43 0 0 0-1.053 1.246c-1.962 2.358-5.916 7.341-10.377 14.169l-.035.049a179.587 179.587 0 0 0-2.751 4.368c-3.56 5.818-7.215 12.643-10.295 20.089-3.099 7.558-4.126 16.623-4.111 25.424.02 2.679.125 5.334.297 7.921l.003.093c.204 2.993.508 5.89.847 8.603.153 1.159.308 2.277.466 3.364 1.259 8.488 2.837 14.591 3.029 15.35.017.053.025.085.025.085l-.704 1.841-6.873 18.128s-6.261 11.907-11.436 28.308c-.296.94-.594 1.9-.873 2.872a157.418 157.418 0 0 0-3.123 12.116 80.001 80.001 0 0 0-.465 2.251c-.82 4.127-1.472 8.36-1.857 12.613a87.532 87.532 0 0 0-.22 2.858c-.442 6.864-.181 13.728 1.139 20.257 2.381 11.786 8.173 22.469 19.375 30.023 19.231 12.972 38.071 20.849 53.363 25.632 18.972 5.932 32.474 7.089 34.499 7.248l.007.001.013.001.007.001c2.027.138 15.553.966 35.188-2.131 15.828-2.498 35.616-7.538 56.535-17.562 12.185-5.836 19.475-15.558 23.552-26.87 2.259-6.266 3.52-13.018 4.086-19.873.083-.944.154-1.901.203-2.859z"/><path fill="#9D706B" d="M325.221 142.466c-13.651-7.144-29.837-7.371-41.604-6.105a85.214 85.214 0 0 1-15.307.292 85.189 85.189 0 0 1-15.1-2.525c-11.455-2.971-27.501-5.111-42.049-.038-26.18 9.151-48.828 56.509-22.864 89.725 18.341 23.681 41.396 27.659 57.059 27.961 4.828.117 9.637.367 14.447.72 4.811.353 9.604.809 14.397 1.398 15.539 1.989 38.928 1.421 60.532-19.326 30.539-29.066 15.052-79.224-9.511-92.102z"/><path fill="#E0BCA2" d="m304.408 80.19 11.435 4.908c11.868-30.86 30.024-43.526 30.024-43.526l.726.071c-9.664-5.645-42.185 38.547-42.185 38.547z"/><path fill="#F6B0A6" d="m364.787 51.911-10.843-18.667-3.901 4.251-14.547 17.895s-8.327 16.758-8.449 17.259c-.098.401-.856 11.36-.856 11.36l5.145 2.845 9.374-4.934 4.961 1.421-1.229 15.939s3.156 4.908 3.408 5.182c.352.298 4.992-3.725 4.992-3.725-2.107 19.546 15.842 20.156 15.842 20.156l4.322-17.309.543-21.838-8.762-29.835z"/><ellipse transform="rotate(-18.158 321.807 203.985)" fill="#F6B0A6" cx="321.813" cy="203.971" rx="16.809" ry="10.003"/><path fill="#2D2D39" d="M301.979 162.065c-5.708-.966-11.573 5.248-13.046 13.91-1.473 8.663 2.026 16.52 7.734 17.486 5.708.966 11.573-5.248 13.046-13.91 1.598-8.739-1.926-16.496-7.734-17.486z"/><path fill="#2D2D39" d="m308.562 171.204-4.871 5.182c5.301 3.945 13.802 3.468 16.388-3.226-3.654 3.674-9.214 2.532-11.517-1.956z"/><path fill="#F9FCF8" d="M300.098 165.428c-2.131-.837-4.994 1.331-6.349 4.716-1.355 3.385-.633 6.957 1.522 7.694 2.131.837 4.994-1.331 6.349-4.716 1.356-3.385.609-6.857-1.522-7.694z"/><path fill="#2D2D39" d="m354.574 29.788-1.395.934c-36.745 24.058-49.629 48.197-50.198 49.226l3.287 1.756c.149-.176 12.662-23.662 47.386-46.833 5.552 8.145 31.697 50.705 8.496 97.591-.371.653-.767 1.405-1.062 2.182.281 1.024.538 2.148.771 3.372l1.205.718c.222-.477.545-.929.742-1.305 29.927-55.331-7.819-105.599-8.223-106.121l-1.009-1.52z"/><path fill="#2D2D39" d="M346.974 101.434c-.271-1.165-.399-3.675.1-9.047.492-5.505.913-10.285-2.32-11.391-2.055-.713-4.525.278-7.369 1.495-4.466 1.778-7.462 2.746-9.026.455-3.181-4.808 7.057-28.105 27.087-49.336l-3.102-2.227c-19.458 20.627-32.273 45.936-27.225 53.534 3.357 4.957 9.22 2.67 13.462.944 1.647-.66 3.767-1.524 4.694-1.404.482 1.073.131 5.126-.13 7.504-.433 5.181-1.523 14.622 4.738 14.102 4.674-.454 8.477-12.582 8.477-12.582-2.242 3.624-5.616 7.438-7.704 8.589-.897.493-1.385.647-1.682-.636zM417.444 179.974c-20.189-.452-41.498 4.304-61.624 13.752 0 0 14.904-3.551 30.884-6.966 11.386-2.433 30.74-6.786 30.74-6.786zM426.145 201.074c-19.863-3.639-41.656-2.313-63.023 3.833 0 0 15.278-1.149 31.596-1.994 11.628-.601 31.427-1.839 31.427-1.839zM419.959 228.119c-18.316-8.503-39.745-12.684-61.971-12.092 0 0 15.078 2.718 31.087 5.992 11.408 2.334 30.884 6.1 30.884 6.1z"/><path fill="#FFFAF5" d="M323.823 89.268c-13.764-7.251-30.88-16.017-50.865-16.017-30.184-2.212-50.542 7.577-52.614 8.419 60.761-7.75 103.579 7.608 103.479 7.598z"/><path fill="#E0BCA2" d="m204.747 31.226.728.036s16.111 15.182 23.344 47.445l12.029-3.185s-25.717-48.468-36.101-44.296zM372.633 239.43c-17.532 10.822-59.145 33.751-113.998 29.069h-.014c-54.842-3.375-92.634-32.028-108.529-45.41-.029-.033-.058-.056-.087-.079 2.339 11.804 8.198 22.543 19.475 30.206 19.516 13.169 38.642 21.087 54.051 25.848a.139.139 0 0 1 .07.026c18.556 5.714 31.725 6.838 33.729 6.995h.003l.007.001h.003c2.005.137 15.197.949 34.389-1.993a.138.138 0 0 1 .073-.015c15.939-2.459 36.016-7.499 57.247-17.675 12.275-5.933 19.641-15.701 23.678-27.037a.476.476 0 0 0-.097.064z"/><path fill="#F6B0A6" d="m172.222 66.962-2.653 21.683 1.747 17.754s17.917 1.952 18.687-17.693c0 0 3.931 4.725 4.323 4.482.289-.234 4.128-4.628 4.128-4.628l1.113-15.948 5.115-.681 8.553 6.25 5.505-2.063s.85-10.953.812-11.363c-.048-.513-5.837-18.308-5.837-18.308l-11.777-19.829-3.238-4.775-13.454 16.883-13.024 28.236z"/><ellipse transform="rotate(-63.442 205.552 195.448)" fill="#F6B0A6" cx="205.551" cy="195.452" rx="10.003" ry="16.809"/><path fill="#2D2D39" d="M221.085 173.042c.192 8.785 5.086 15.788 10.874 15.667 5.788-.122 10.398-7.383 10.206-16.168s-5.086-15.788-10.874-15.667c-5.891.131-10.51 7.29-10.206 16.168z"/><path fill="#2D2D39" d="M211.764 165.206c1.58 6.999 9.92 8.713 15.741 5.585l-4.061-5.838c-2.935 4.104-8.602 4.421-11.68.253z"/><path fill="#F9FCF8" d="M230.029 167.865c.846 3.546 3.362 6.11 5.592 5.592 2.24-.414 3.476-3.843 2.63-7.389s-3.362-6.11-5.592-5.592c-2.23.517-3.476 3.843-2.63 7.389z"/><path fill="#2D2D39" d="M197.362 19.689c-.475.458-45.16 44.673-23.637 103.782.141.401.394.896.544 1.4l1.297-.534a43.25 43.25 0 0 1 1.255-3.223c-.179-.812-.46-1.614-.732-2.314-16.103-49.772 15.979-88.056 22.661-95.303 30.967 27.995 39.915 53.057 40.037 53.253l3.508-1.257c-.413-1.101-9.632-26.863-42.469-56.031l-1.244-1.128-1.22 1.355z"/><path fill="#2D2D39" d="M187.51 81.081s1.991 12.554 6.548 13.685c6.065 1.411 6.413-7.986 6.747-13.259.089-2.39.335-6.452.968-7.442.934.017 2.905 1.181 4.438 2.075 3.944 2.328 9.41 5.446 13.455 1.033 6.104-6.779-2.973-33.599-19.209-56.848l-3.298 1.661c16.714 23.929 23.439 48.472 19.59 52.764-1.883 2.038-4.704.643-8.863-1.769-2.635-1.62-4.934-2.961-7.072-2.556-3.36.622-3.642 5.412-3.959 10.93-.276 5.139-.738 7.619-1.161 8.803-.399 1.119-.774 1.547-2.284.151-1.864-1.723-4.344-5.625-5.9-9.228zM294.89 207.057l-.58 2.395c0 .001-.042.191-.071.295l-.177.703c-.597 2.463-4.152 14.714-15.512 13.995-5.542-.348-10.686-3.692-13.441-8.769a32.396 32.396 0 0 1-.547-1.17c5.975-2.332 13.207-5.815 14.585-9.418.343-.899.308-1.767-.11-2.584-1.634-3.098-9.196-4.723-15.19-5.174-5.981-.428-13.7.074-15.771 2.904-.53.743-.693 1.597-.484 2.537.876 3.949 8.405 8.792 13.052 11.447-.231.365-.47.728-.703 1.065-3.475 4.632-9.038 7.174-14.588 6.723-11.34-.948-13.069-13.587-13.3-16.113l-.072-.729c-.013-.098-.027-.293-.028-.3l-.224-2.447-9.015 3.954 6.1.345c.577 4.501 3.37 17.623 16.244 18.629l.071-.003c6.626.424 13.235-2.649 17.252-7.987 3.231 5.888 9.305 9.875 15.872 10.418l.14.023c12.846.881 17.524-11.692 18.752-16.061l6.085.55-8.34-5.228zM260.799 238.941c-4.424-.409-8.759-2.04-12.717-4.707 4.834 9.966 19.747 11.061 25.985 1.908-4.306 2.061-8.832 3.041-13.268 2.799zM323.823 89.268c-25.349-16.736-46.056-17.534-51.755-17.896-21.486-1.364-39.564 4.596-51.754 10.295-.01-.001-.011.01-.021.009 0 0 .021.002.052-.007 31.763-6.084 37.768-7.366 51.267-6.584 14.584.845 20.082 2.981 52.181 14.182.03.013.051.014.051.014-.011-.002-.011-.012-.021-.013zM114.448 157.724c20.038 2.502 40.424 10.319 58.954 22.607 0 0-14.225-5.69-29.535-11.403-10.909-4.07-29.419-11.204-29.419-11.204zM102.758 177.327c20.182-.698 41.547 3.797 61.787 12.999 0 0-14.946-3.369-30.966-6.588-11.415-2.295-30.821-6.411-30.821-6.411zM104.926 204.986c19.362-5.736 41.172-6.742 63.073-2.909 0 0-15.313.487-31.629 1.387-11.626.64-31.444 1.522-31.444 1.522z"/><path fill="#3D3D44" d="M275.359 202.074c.006-.641-2.947-1.405-7.217-1.977l-.031-.002a112.086 112.086 0 0 0-4.417-.489h-.007l-.007-.001a112.118 112.118 0 0 0-4.442-.161l-.031-.002c-4.307-.058-7.34.267-7.428.902-.12.932 5.069 1.984 11.662 2.511h.007l.007.001c6.6.44 11.887.157 11.904-.782z"/><path fill="#2D2D39" d="M363.855 137.229c-.56-1.622-1.12-3.245-1.705-4.767-2.519-7.088-4.473-11.703-4.879-12.651.154.674 1.664 6.243 3.841 14.733.281 1.024.538 2.148.771 3.372 2.513 10.164 5.696 23.676 8.633 37.764 3.532 17.311 5.698 36.306 3.223 53.004-3.891 26.435-28.122 39.638-49.642 46.071a1403.352 1403.352 0 0 1-20.773 6.081c-29.943 5.976-56.678 2.258-75.451-2.707a196.678 196.678 0 0 1-26.624-9.138 1287.959 1287.959 0 0 1-8.301-3.866c-20.35-9.508-42.392-26.109-42.379-52.829-.009-16.88 4.909-35.355 10.931-51.964 4.963-13.508 10.086-26.41 14.057-36.098a43.25 43.25 0 0 1 1.255-3.223c3.394-8.081 5.701-13.369 5.952-14.014-.54.879-3.147 5.159-6.675 11.802-.801 1.42-1.592 2.944-2.383 4.467-10.619 20.66-26.813 57.162-26.873 88.961-.008 25.736 18.812 42.506 38.068 52.929 7.196 4.152 21.833 11.63 41.76 16.919a173.37 173.37 0 0 0 31.706 5.337c21.068 1.547 46.045-.582 72.555-11.041 20.924-7.401 42.701-21.283 46.521-47.21 4.587-31.466-6.101-69.943-13.588-91.932z"/></g></svg>