<svg id="Capa_1" enable-background="new 0 0 512 512" viewBox="0 0 512 512" xmlns="http://www.w3.org/2000/svg"><g><g><g><g><g><g fill="#ffe177"><path d="m347.376 98.074c-.773 0-1.551-.094-2.315-.281l-58.953-14.389v12.23c0 1.952-.133 3.872-.364 5.762l44.907 35.464c7.046 5.564 17.404.546 17.404-8.433v-30.386c-.225.016-.451.033-.679.033z"/><path d="m286.108 58.023v12.23l58.953-14.389c.763-.187 1.543-.281 2.315-.281.229 0 .454.019.679.034v-30.387c0-8.978-10.358-13.997-17.404-8.433l-44.907 35.464c.231 1.89.364 3.811.364 5.762z"/></g><path d="m344.806 54.82-58.698 14.327v15.363l58.698 14.327c6.767 1.652 13.293-3.473 13.293-10.439v-23.14c0-6.965-6.526-12.09-13.293-10.438z" fill="#ffd15b"/><g fill="#ffe177"><path d="m18.223 55.583c.772 0 1.551.094 2.315.281l59.266 14.465v-12.306c0-1.874.122-3.72.335-5.538l-45.19-35.688c-7.046-5.564-17.404-.546-17.404 8.433v30.388c.224-.016.449-.035.678-.035z"/><path d="m79.804 95.634v-12.306l-59.266 14.465c-.763.187-1.542.281-2.314.281-.001 0-.001 0-.001 0-.229 0-.454-.019-.679-.035v30.388c0 8.978 10.358 13.997 17.404 8.433l45.19-35.688c-.212-1.818-.334-3.664-.334-5.538z"/></g><path d="m79.804 69.223-59.011-14.403c-6.767-1.652-13.293 3.473-13.293 10.439v23.14c0 6.966 6.526 12.09 13.293 10.439l59.011-14.403z" fill="#ffd15b"/><path d="m238.83 143.986h-111.748c-26.704 0-48.353-21.648-48.353-48.353v-37.61c0-26.704 21.648-48.353 48.353-48.353h111.748c26.704 0 48.353 21.648 48.353 48.353v37.611c-.001 26.704-21.649 48.352-48.353 48.352z" fill="#62dbfb"/><path d="m245.453 10.134v53.829c0 26.704-21.648 48.353-48.353 48.353h-115.415c6.795 18.484 24.555 31.671 45.396 31.671h111.749c26.704 0 48.353-21.648 48.353-48.353v-37.611c-.001-24.456-18.161-44.659-41.73-47.889z" fill="#01d0fb"/><path d="m223.252 96.704h-78.445c-10.977 0-19.875-8.898-19.875-19.875 0-10.977 8.898-19.875 19.875-19.875h78.445c10.977 0 19.875 8.898 19.875 19.875.001 10.976-8.898 19.875-19.875 19.875z" fill="#fff"/><path d="m223.252 56.953h-6.066c0 .058.009.114.009.171 0 10.977-8.898 19.875-19.875 19.875h-72.379c.093 10.897 8.948 19.704 19.867 19.704h78.445c10.977 0 19.875-8.898 19.875-19.875s-8.899-19.875-19.876-19.875z" fill="#f2fbff"/></g><g><g><g fill="#68ca44"><path d="m349.94 449.644-57.787-14.104c-.676 5.346-2.086 10.562-4.21 15.591l47.587 37.58c7.046 5.564 17.404.546 17.404-8.433v-30.396c-.989.069-1.995.006-2.994-.238z"/><path d="m335.529 368.648-47.312 37.363c2.062 5.046 3.428 10.33 4.036 15.783l57.686-14.08c.996-.243 2.003-.314 2.994-.244v-30.39c.001-8.978-10.358-13.997-17.404-8.432z"/></g><path d="m349.685 406.671-57.538 14.043c.321 2.458.486 4.951.486 7.474 0 2.838-.218 5.647-.621 8.422l57.673 14.076c6.767 1.652 13.293-3.473 13.293-10.439v-23.14c0-6.963-6.526-12.088-13.293-10.436z" fill="#4fc123"/><g fill="#68ca44"><path d="m47.669 407.714 58.334 14.238c.569-5.327 1.881-10.528 3.883-15.551l-47.806-37.753c-7.046-5.564-17.404-.546-17.404 8.433v30.396c.988-.07 1.994-.006 2.993.237z"/><path d="m106.126 435.376-58.457 14.268c-.996.243-2.003.314-2.994.244v30.39c0 8.978 10.358 13.997 17.404 8.433l48.145-38.021c-2.034-4.902-3.434-10.024-4.098-15.314z"/></g><path d="m105.669 428.189c0-2.46.172-4.895.475-7.308l-58.22-14.21c-6.767-1.652-13.293 3.473-13.293 10.439v23.14c0 6.966 6.526 12.09 13.293 10.439l58.359-14.244c-.393-2.713-.614-5.464-.614-8.256z" fill="#4fc123"/></g><ellipse cx="199.151" cy="428.189" fill="#80d261" rx="94.556" ry="74.141"/><path d="m263.101 373.58c1.891 5.847 2.899 11.971 2.899 18.279 0 40.947-42.334 74.141-94.556 74.141-24.662 0-47.116-7.406-63.95-19.532 10.383 32.107 47.481 55.862 91.657 55.862 52.222 0 94.556-33.194 94.556-74.141 0-21.61-11.794-41.057-30.606-54.609z" fill="#68ca44"/><g><path d="m202.564 502.262c13.642-.38 26.549-3.015 38.125-7.462l-114.118-114.119c-8.376 7.859-14.698 17.102-18.363 27.224z" fill="#ffe177"/><path d="m171.444 466c-1.765 0-3.517-.041-5.258-.116l36.378 36.378c13.642-.38 26.549-3.015 38.125-7.462l-34.096-34.096c-10.866 3.414-22.727 5.296-35.149 5.296z" fill="#ffd15b"/><path d="m271.731 475.696c8.376-7.859 14.698-17.102 18.363-27.224l-94.356-94.356c-13.642.38-26.548 3.015-38.125 7.462z" fill="#ffe177"/><path d="m259.842 418.219c-4.597 9.472-11.597 18.014-20.419 25.168l32.309 32.309c8.376-7.859 14.698-17.102 18.363-27.224z" fill="#ffd15b"/></g></g></g><g><g><g fill="#ffd15b"><path d="m432.353 237.195v10.899c0 .33.152.641.411.845.191.15.426.229.664.229.085 0 .171-.01.255-.03l46.54-11.359c1.48-.361 2.99-.545 4.488-.545 3.573 0 6.903 1.027 9.746 2.776v-16.857c0-16.57-19.117-25.832-32.121-15.563l-30.332 23.954c.221 1.855.349 3.738.349 5.651z"/><path d="m484.711 274.766c-.001 0-.001 0 0 0-1.499 0-3.009-.183-4.489-.545l-46.54-11.359c-.084-.02-.17-.03-.255-.03-.238 0-.472.079-.664.229-.259.204-.411.515-.411.845v10.9c0 1.913-.128 3.796-.349 5.65l30.332 23.954c13.004 10.269 32.121 1.007 32.121-15.563v-16.859c-2.92 1.798-6.264 2.778-9.745 2.778z"/></g><path d="m479.967 236.735-47.615 11.622v15.287l47.615 11.622c12.489 3.048 24.533-6.41 24.533-19.265 0-12.857-12.044-22.314-24.533-19.266z" fill="#ffc344"/><g fill="#01d0fb"><path d="m173.69 237.235c1.498 0 3.008.183 4.488.545l46.541 11.359c.084.02.17.03.255.03.238 0 .472-.079.664-.229.259-.204.411-.515.411-.845v-10.899c0-1.913.128-3.796.349-5.65l-30.332-23.954c-13.004-10.269-32.121-1.007-32.121 15.563v16.857c2.843-1.751 6.173-2.777 9.745-2.777z"/><path d="m226.048 274.805v-10.9c0-.33-.152-.641-.411-.845-.192-.15-.426-.229-.664-.229-.085 0-.171.01-.255.03l-46.541 11.359c-1.48.361-2.99.545-4.488.545-3.573 0-6.902-1.027-9.745-2.776v16.857c0 16.57 19.117 25.832 32.121 15.563l30.332-23.954c-.221-1.854-.349-3.737-.349-5.65z"/></g><path d="m226.048 248.357-47.615-11.622c-12.489-3.048-24.533 6.41-24.533 19.265 0 12.855 12.044 22.313 24.533 19.265l47.615-11.622z" fill="#01c0fa"/></g><path d="m385.074 323.158h-111.748c-26.704 0-48.353-21.648-48.353-48.353v-37.611c0-26.704 21.648-48.353 48.353-48.353h111.748c26.704 0 48.353 21.648 48.353 48.353v37.611c0 26.705-21.648 48.353-48.353 48.353z" fill="#fe99a0"/><path d="m385.074 323.158h-111.748c-26.704 0-48.353-21.648-48.353-48.353v-37.611c0-26.704 21.648-48.353 48.353-48.353h111.748c26.704 0 48.353 21.648 48.353 48.353v37.611c0 26.705-21.648 48.353-48.353 48.353z" fill="#fe99a0"/><path d="m402 191.895v51.753c0 26.704-21.648 48.352-48.353 48.352h-125.515c6.934 18.213 24.548 31.158 45.194 31.158h111.748c26.704 0 48.353-21.648 48.353-48.353v-37.611c0-20.748-13.072-38.438-31.427-45.299z" fill="#fd8087"/><g><path d="m224.974 237.195v37.611c0 26.704 21.648 48.353 48.353 48.353h15.154c.273-1.933.427-3.903.427-5.911 0-10.328-3.742-19.779-9.938-27.082-1.744-2.056-1.744-5.026 0-7.082 6.197-7.303 9.938-16.754 9.938-27.082 0-10.329-3.742-19.779-9.938-27.083-1.744-2.055-1.746-5.024-.002-7.079 6.498-7.658 10.297-17.677 9.914-28.593-.052-1.488-.192-2.955-.399-4.403h-15.155c-26.706-.002-48.354 21.646-48.354 48.351z" fill="#62dbfb"/><path d="m228.132 292c6.934 18.213 24.548 31.158 45.194 31.158h15.154c.273-1.933.427-3.903.427-5.911 0-9.485-3.162-18.225-8.477-25.247z" fill="#01d0fb"/><path d="m433.427 274.805v-37.611c0-26.704-21.648-48.353-48.353-48.353h-15.154c-.273 1.933-.427 3.903-.427 5.911 0 10.328 3.741 19.779 9.938 27.082 1.744 2.056 1.744 5.026 0 7.082-6.197 7.303-9.938 16.754-9.938 27.082 0 10.329 3.742 19.779 9.938 27.083 1.744 2.055 1.745 5.024.002 7.079-6.498 7.658-10.297 17.677-9.914 28.593.052 1.488.192 2.956.399 4.403h15.155c26.706.002 48.354-21.646 48.354-48.351z" fill="#fff0ad"/><path d="m402 191.895v51.753c0 16.935-8.713 31.827-21.893 40.463 1.012 1.937.799 4.317-.672 6.051-6.498 7.658-10.297 17.677-9.914 28.593.052 1.488.192 2.956.399 4.403h15.155c26.704 0 48.353-21.648 48.353-48.353v-37.611c-.001-20.748-13.073-38.438-31.428-45.299z" fill="#ffe177"/></g></g></g></g><g><path d="m39.597 142.746 35.107-27.725c7.898 21.268 28.394 36.466 52.378 36.466h111.748c23.912 0 44.355-15.108 52.304-36.278l34.869 27.537c3.305 2.61 7.269 3.949 11.277 3.949 2.704 0 5.429-.609 7.985-1.848 6.347-3.075 10.29-9.367 10.29-16.419v-23.741c1.07-.542 2.101-1.18 3.067-1.939 4.434-3.482 6.977-8.712 6.977-14.349v-23.14c0-5.638-2.543-10.868-6.977-14.35-.967-.759-1.996-1.405-3.067-1.947v-23.732c0-7.053-3.943-13.344-10.29-16.419-6.347-3.076-13.728-2.271-19.263 2.101l-34.869 27.537c-7.949-21.169-28.391-36.278-52.304-36.278h-111.747c-23.983 0-44.48 15.197-52.378 36.465l-35.107-27.724c-5.535-4.372-12.917-5.176-19.263-2.101-6.347 3.075-10.29 9.367-10.29 16.419v23.732c-1.071.542-2.1 1.188-3.067 1.947-4.434 3.482-6.977 8.712-6.977 14.35v23.14c0 5.637 2.543 10.867 6.977 14.349.966.759 1.997 1.397 3.067 1.939v23.741c0 7.053 3.943 13.344 10.29 16.419 2.557 1.239 5.281 1.848 7.985 1.848 4.009-.001 7.973-1.34 11.278-3.949zm306.988-80.64c1.333-.326 2.309.236 2.773.6.463.364 1.241 1.179 1.241 2.552v23.14c0 1.373-.777 2.188-1.241 2.552-.464.365-1.44.927-2.773.601l-51.903-12.668v-4.108zm-11.286-39.423c1.389-1.097 2.743-.705 3.426-.374.684.331 1.83 1.151 1.83 2.92v22.908l-45.873 11.196v-1.311c0-1.07-.037-2.132-.097-3.188zm-40.617 72.951v-1.311l45.873 11.196v22.908c0 1.77-1.147 2.589-1.83 2.92-.685.331-2.038.722-3.426-.374l-40.714-32.153c.06-1.054.097-2.116.097-3.186zm-208.453-37.611c0-22.526 18.326-40.853 40.853-40.853h111.748c22.526 0 40.853 18.326 40.853 40.853v37.61c0 22.526-18.326 40.853-40.853 40.853h-111.748c-22.526 0-40.853-18.326-40.853-40.853zm-61.185-32.793c0-1.77 1.146-2.589 1.83-2.92.683-.331 2.037-.722 3.426.374l41.008 32.384c-.051.979-.079 1.964-.079 2.956v1.387l-46.185-11.273zm-6.029 66.321c-1.338.324-2.312-.237-2.774-.601-.464-.364-1.241-1.179-1.241-2.552v-23.14c0-1.373.777-2.188 1.241-2.552.366-.287 1.052-.698 1.98-.698.248 0 .513.029.793.098l52.214 12.744v3.956zm6.029 36.876v-22.907l46.185-11.273v1.387c0 .991.028 1.976.079 2.955l-41.008 32.385c-1.388 1.095-2.741.705-3.426.374-.684-.331-1.83-1.151-1.83-2.921z"/><path d="m144.808 104.204h78.445c15.095 0 27.375-12.28 27.375-27.375s-12.28-27.375-27.375-27.375h-33.253c-4.142 0-7.5 3.358-7.5 7.5s3.358 7.5 7.5 7.5h33.252c6.824 0 12.375 5.552 12.375 12.375s-5.551 12.375-12.375 12.375h-78.445c-6.824 0-12.375-5.551-12.375-12.375s5.551-12.375 12.375-12.375h10.193c4.142 0 7.5-3.358 7.5-7.5s-3.358-7.5-7.5-7.5h-10.192c-15.095 0-27.375 12.281-27.375 27.375s12.28 27.375 27.375 27.375z"/><path d="m501.956 234.844v-11.69c0-10.564-5.906-19.989-15.414-24.595-9.507-4.607-20.563-3.402-28.856 3.146l-20.272 16.009c-7.923-21.219-28.393-36.372-52.341-36.372h-39.073c-4.142 0-7.5 3.358-7.5 7.5s3.358 7.5 7.5 7.5h16.028c.341 10.558 4.063 20.755 10.611 29.035-6.876 8.695-10.645 19.503-10.645 30.623 0 11.119 3.769 21.927 10.645 30.623-6.574 8.307-10.265 18.459-10.607 29.035h-65.659c-.341-10.558-4.063-20.755-10.611-29.035 6.876-8.695 10.645-19.503 10.645-30.623s-3.769-21.928-10.645-30.623c6.574-8.308 10.265-18.46 10.606-29.035h14.632c4.142 0 7.5-3.358 7.5-7.5s-3.358-7.5-7.5-7.5h-37.674c-23.948 0-44.417 15.153-52.341 36.371l-20.272-16.01c-8.291-6.547-19.349-7.753-28.855-3.146-9.507 4.607-15.414 14.031-15.414 24.596v11.69c-6.386 5.213-10.044 12.889-10.044 21.156 0 8.268 3.658 15.944 10.044 21.156v11.69c0 10.564 5.906 19.989 15.414 24.596 3.831 1.856 7.911 2.768 11.962 2.768 6.004 0 11.943-2.006 16.893-5.916l20.272-16.009c7.923 21.219 28.393 36.372 52.341 36.372h111.748c23.948 0 44.417-15.153 52.341-36.372l20.272 16.009c4.951 3.91 10.889 5.916 16.894 5.916 4.051 0 8.132-.913 11.962-2.769 9.507-4.606 15.414-14.031 15.414-24.595v-11.69c6.385-5.211 10.043-12.888 10.043-21.155s-3.658-15.944-10.044-21.156zm-340.555 21.156c0-3.81 1.719-7.345 4.715-9.698 2.203-1.73 4.863-2.638 7.589-2.638.981 0 1.971.118 2.95.357l40.818 9.963v4.032l-40.818 9.963c-3.703.903-7.543.071-10.54-2.281-2.996-2.353-4.714-5.888-4.714-9.698zm30.016 42.523c-3.797 3-8.663 3.53-13.018 1.42-4.354-2.11-6.954-6.258-6.954-11.097v-5.598c.74.061 1.483.093 2.229.093 2.174 0 4.367-.261 6.539-.791l37.262-9.095v1.349c0 1.031.033 2.054.088 3.072zm26.057-61.328v1.349l-37.262-9.095c-2.916-.711-5.87-.928-8.767-.689v-5.606c0-4.838 2.6-8.987 6.954-11.097 4.356-2.109 9.222-1.577 13.018 1.419l26.145 20.647c-.056 1.018-.088 2.041-.088 3.072zm55.776 57.822c4.917 5.795 7.768 13.071 8.119 20.641h-8.042c-22.526 0-40.853-18.326-40.853-40.853v-37.61c0-22.526 18.326-40.853 40.853-40.853h8.036c-.351 7.583-3.177 14.825-8.115 20.644-4.125 4.862-4.124 11.92.002 16.783 5.26 6.2 8.157 14.095 8.157 22.231 0 8.135-2.897 16.03-8.158 22.231-4.125 4.863-4.125 11.922.001 16.786zm152.677-20.212c0 22.526-18.326 40.853-40.853 40.853h-8.036c.352-7.583 3.177-14.825 8.114-20.643 4.126-4.862 4.126-11.921-.001-16.784-5.26-6.2-8.157-14.095-8.157-22.231s2.897-16.031 8.157-22.23c4.126-4.863 4.126-11.923 0-16.787-4.917-5.794-7.767-13.071-8.118-20.641h8.042c22.526 0 40.853 18.326 40.853 40.853v37.61zm41.056-61.328c3.797-3 8.663-3.531 13.019-1.42 4.354 2.11 6.954 6.258 6.954 11.097v5.606c-2.897-.239-5.851-.022-8.767.69l-37.262 9.095v-1.349c0-1.031-.033-2.054-.088-3.071zm19.973 75.37c0 4.838-2.6 8.987-6.954 11.096-4.354 2.111-9.222 1.58-13.019-1.419l-26.145-20.647c.055-1.017.088-2.04.088-3.071v-1.349l37.262 9.095c2.171.53 4.364.791 6.539.791.746 0 1.489-.032 2.229-.093zm5.329-23.149c-2.996 2.354-6.835 3.188-10.54 2.281l-40.819-9.963v-4.032l40.819-9.963c3.703-.903 7.543-.072 10.539 2.281 2.997 2.353 4.716 5.888 4.716 9.698s-1.719 7.344-4.715 9.698z"/><path d="m363.501 402.76c-.967-.76-1.996-1.405-3.067-1.947v-23.732c0-7.053-3.943-13.344-10.29-16.419s-13.728-2.27-19.263 2.101l-39.221 30.974c-16.271-27.846-51.617-47.188-92.509-47.188-41.076 0-76.556 19.515-92.727 47.562l-39.695-31.348c-5.535-4.372-12.916-5.176-19.263-2.101s-10.29 9.367-10.29 16.419v23.732c-1.071.542-2.1 1.188-3.067 1.947-4.434 3.481-6.977 8.712-6.977 14.35v23.14c0 5.637 2.543 10.867 6.976 14.349.967.759 1.998 1.397 3.068 1.939v23.741c0 7.053 3.943 13.344 10.29 16.419 2.557 1.239 5.281 1.848 7.985 1.848 4.008 0 7.972-1.339 11.277-3.949l40.1-31.668c16.345 27.689 51.574 46.901 92.323 46.901 40.564 0 75.674-19.031 92.117-46.516l39.613 31.283c3.305 2.61 7.269 3.949 11.277 3.949 2.704 0 5.429-.609 7.985-1.848 6.347-3.075 10.29-9.367 10.29-16.419v-23.741c1.07-.542 2.101-1.18 3.068-1.939 4.433-3.482 6.976-8.712 6.976-14.349v-23.14c.001-5.638-2.542-10.869-6.976-14.35zm-311.326-25.679c0-1.77 1.146-2.589 1.83-2.92.683-.331 2.038-.722 3.426.374l42.737 33.751c-.332 1.057-.64 2.121-.92 3.193l-47.073-11.489zm-6.029 66.32c-1.334.327-2.311-.236-2.774-.601-.463-.364-1.241-1.179-1.241-2.552v-23.14c0-1.373.777-2.188 1.241-2.552.463-.364 1.439-.925 2.773-.6l50.978 12.442c-.016.595-.028 1.191-.028 1.79 0 .924.026 1.844.065 2.761zm11.285 39.424c-1.388 1.095-2.741.705-3.426.374-.684-.331-1.83-1.151-1.83-2.92v-22.909l47.324-11.551c.283 1.025.599 2.039.929 3.049zm54.664-54.636c0-1.849.104-3.68.298-5.491l71.041 71.041c-40.527-5.681-71.339-32.912-71.339-65.55zm130.362 57.772-51.335-51.335c-2.929-2.929-7.678-2.929-10.606 0-2.929 2.929-2.929 7.678 0 10.606l46.167 46.167c-6.72 1.719-13.795 2.839-21.126 3.249l-88.542-88.542c2.414-5.245 5.675-10.185 9.635-14.74l29.118 29.118c1.464 1.464 3.384 2.197 5.303 2.197s3.839-.732 5.303-2.197c2.929-2.929 2.929-7.678 0-10.606l-28.762-28.762c5.418-4.151 11.544-7.757 18.228-10.706l104.85 104.851c-5.419 4.151-11.548 7.753-18.233 10.7zm29.195-20.95-100.04-100.04c6.721-1.72 13.805-2.826 21.138-3.236l88.538 88.538c-2.413 5.245-5.675 10.183-9.636 14.738zm14.242-31.346-71.026-71.026c40.527 5.68 71.339 32.911 71.339 65.55 0 1.845-.12 3.668-.313 5.476zm54.284-59.131c1.389-1.097 2.743-.705 3.426-.374.684.331 1.83 1.151 1.83 2.92v22.908l-46.423 11.331c-.308-1.167-.642-2.327-1.012-3.475zm5.256 105.744c0 1.77-1.146 2.589-1.83 2.92s-2.038.722-3.426-.374l-42.44-33.516c.369-1.101.71-2.211 1.022-3.33l46.674 11.392zm10.044-40.029c0 1.373-.777 2.188-1.241 2.552-.463.365-1.439.927-2.773.601l-50.323-12.282c.004-.085.002-.169.006-.255.036-.889.061-1.78.061-2.676 0-.651-.01-1.305-.029-1.958l50.286-12.273c1.336-.327 2.311.236 2.773.6.463.364 1.241 1.179 1.241 2.552v23.139z"/></g></g><g/><g/><g/><g/><g/><g/><g/><g/><g/><g/><g/><g/><g/><g/><g/></svg>