<svg id="Capa_1" enable-background="new 0 0 512 512" viewBox="0 0 512 512" xmlns="http://www.w3.org/2000/svg"><g><g><g><path d="m426.052 23.963c-6.618-6.618-17.347-6.618-23.965 0l-63.537 63.537c1.104 4.358 1.069 8.927-.12 13.239-.473 1.711-.19 3.554.772 5.056.943 1.469 2.458 2.469 4.157 2.745 5.632.912 10.68 3.636 14.5 7.581l68.193-68.193c6.617-6.617 6.617-17.347 0-23.965z" fill="#dff6fd"/><path d="m367.928 82.158c-6.618 6.618-17.347 6.618-23.965 0-.012-.012-.022-.025-.034-.037l-5.38 5.38c1.104 4.358 1.069 8.927-.12 13.239-.473 1.711-.19 3.554.772 5.056.943 1.469 2.458 2.469 4.157 2.745 5.632.912 10.68 3.636 14.5 7.581l68.193-68.193c6.606-6.606 6.616-17.307.034-23.928z" fill="#c8effe"/><g><path d="m416.861 207.731c-2.833-10.573-11.578-17.978-21.725-19.62-3.033-.491-4.942-3.586-4.125-6.547 1.232-4.467 1.327-9.311.041-14.111-2.833-10.573-11.578-17.978-21.725-19.621-.056-.009-.109-.025-.164-.036l-28.398 28.398c-5.404 5.405-12.591 8.381-20.233 8.381-7.644 0-14.83-2.977-20.234-8.381l-12.478-12.478c-5.782-5.783-13.471-8.967-21.648-8.967s-15.866 3.185-21.648 8.967l-8.413 8.413c-2.135 2.134-4.972 3.31-7.99 3.31-3.086 0-5.969-1.222-8.118-3.439-2.383-2.459-5.625-3.813-9.129-3.813-3.565 0-7.06 1.449-9.585 3.975-5.901 5.901-13.746 9.151-22.09 9.151h-.003c-8.346-.001-16.191-3.25-22.092-9.151l-21.938-21.938c-6.763 3.299-12.117 9.39-14.218 17.229-1.286 4.799-1.191 9.644.041 14.111.817 2.962-1.093 6.057-4.125 6.547-10.147 1.643-18.891 9.048-21.724 19.62-2.773 10.35.881 20.904 8.509 27.439h304.705c7.627-6.535 11.281-17.088 8.507-27.439z" fill="#62dbfb"/></g><path d="m395.137 188.111c-3.033-.491-4.942-3.586-4.125-6.547 1.232-4.467 1.327-9.311.041-14.111-2.833-10.573-11.578-17.978-21.725-19.621-.056-.009-.109-.025-.164-.036l-25.151 25.15 5.031 8.229c6.111 9.995-1.082 22.825-12.797 22.825h-239.809c-.515 1.194-.953 2.438-1.299 3.731-2.773 10.35.881 20.904 8.509 27.439h304.705c7.628-6.536 11.282-17.089 8.509-27.439-2.834-10.573-11.578-17.978-21.725-19.62z" fill="#01d0fb"/><path d="m233.128 381.205v65.558c7.452-1.469 15.104-2.239 22.872-2.239s15.42.769 22.872 2.239v-65.558c-7.507.978-15.141 1.486-22.872 1.486s-15.365-.508-22.872-1.486z" fill="#dff6fd"/><path d="m256 382.691c-.086 0-.171-.004-.257-.004v32.858c0 5.774-4.681 10.455-10.455 10.455h-12.16v20.763c7.452-1.469 15.104-2.239 22.872-2.239s15.42.769 22.872 2.239v-65.558c-7.507.978-15.142 1.486-22.872 1.486z" fill="#c8effe"/><path d="m256 383.691c86.591 0 158.749-61.722 174.92-143.568.609-3.083-1.774-5.953-4.916-5.953h-340.008c-3.143 0-5.525 2.87-4.916 5.953 16.171 81.846 88.329 143.568 174.92 143.568z" fill="#dff6fd"/><path d="m256 383.691c57.946 0 106.001-64.733 115-149.52h-230c8.999 84.787 57.054 149.52 115 149.52z" fill="#f2fbff"/><path d="m256 383.691c22.674 0 41.479-64.733 45-149.52h-90c3.521 84.787 22.325 149.52 45 149.52z" fill="#dff6fd"/><path d="m161.211 504.5h189.578c3.987 0 6.376-4.441 4.174-7.765-21.234-32.063-57.627-53.21-98.964-53.21s-77.729 21.147-98.964 53.21c-2.2 3.324.189 7.765 4.176 7.765z" fill="#dff6fd"/><path d="m211 504.5h90c-8.795-36.369-25.649-60.975-45-60.975s-36.206 24.606-45 60.975z" fill="#f2fbff"/><g><path d="m369.328 147.832c-3.033-.491-4.943-3.586-4.125-6.547 1.232-4.467 1.327-9.311.041-14.111-2.833-10.573-11.578-17.978-21.725-19.621-1.915-.31-3.379-1.658-3.995-3.355l-3.318 3.318c-2.892 2.892-6.737 4.484-10.826 4.484s-7.935-1.593-10.826-4.484l-11.298-11.298c-2.512-2.512-5.853-3.896-9.405-3.896s-6.893 1.383-9.404 3.896c-2.135 2.134-4.973 3.31-7.99 3.31-3.019 0-5.856-1.175-7.991-3.31l-8.412-8.413c-5.783-5.783-13.472-8.967-21.648-8.967-8.178 0-15.866 3.184-21.648 8.967l-12.478 12.478c-5.401 5.401-12.583 8.375-20.223 8.375-4.319 0-8.63-.997-12.497-2.871-.757.906-1.818 1.563-3.078 1.767-10.147 1.643-18.892 9.048-21.724 19.621-1.289 4.809-1.191 9.662.048 14.137.819 2.959-1.102 6.031-4.133 6.521-2.973.481-5.818 1.47-8.437 2.875l22.162 22.162c12.592 12.592 33.007 12.592 45.598 0 4.755-4.755 12.609-5.001 17.289-.172 4.791 4.943 12.683 4.99 17.533.14l8.413-8.413c11.566-11.565 30.317-11.566 41.883 0l12.478 12.477c11.565 11.565 30.317 11.565 41.882 0l28.868-28.868c-.339-.069-.674-.147-1.014-.202z" fill="#fe99a0"/></g><path d="m365.202 141.284c1.232-4.467 1.327-9.311.041-14.111-2.833-10.573-11.578-17.978-21.725-19.621-1.915-.31-3.379-1.658-3.995-3.355l-3.318 3.318c-2.892 2.892-6.737 4.484-10.826 4.484s-7.935-1.593-10.826-4.484l-11.298-11.298c-2.299-2.3-5.296-3.639-8.511-3.852l49.805 81.458 25.791-25.791c-.337-.068-.672-.146-1.013-.201-3.032-.49-4.942-3.585-4.125-6.547z" fill="#fd8087"/><path d="m339.393 101.005c1.232-4.467 1.327-9.311.041-14.11-2.833-10.573-11.578-17.978-21.725-19.621-3.033-.491-4.942-3.586-4.125-6.547 1.232-4.467 1.327-9.311.041-14.111-3.382-12.623-15.191-20.737-27.752-19.914-2.242.147-4.35-1.166-5.265-3.218-4.195-9.417-13.633-15.984-24.608-15.984-10.976 0-20.413 6.567-24.609 15.984-.915 2.052-3.023 3.365-5.265 3.218-12.561-.823-24.37 7.292-27.752 19.914-1.286 4.8-1.191 9.644.041 14.111.817 2.962-1.093 6.056-4.125 6.547-10.147 1.643-18.892 9.048-21.724 19.621-1.286 4.799-1.191 9.644.041 14.11.58 2.104-.219 4.269-1.815 5.526 11.092 5.552 24.941 3.71 34.194-5.543l12.477-12.477c11.566-11.566 30.317-11.566 41.883 0l8.413 8.413c4.803 4.803 12.592 4.803 17.395 0 4.803-4.804 12.592-4.804 17.395 0l11.298 11.298c6.37 6.37 16.697 6.37 23.066 0l3.07-3.07c-.73-1.196-.992-2.687-.59-4.147z" fill="#ffe177"/><path d="m313.625 46.616c-3.382-12.623-15.191-20.737-27.752-19.914-2.242.147-4.35-1.166-5.265-3.218-4.195-9.417-13.633-15.984-24.608-15.984-4.136 0-8.052.934-11.553 2.6l50.95 83.331c2.615.329 5.145 1.486 7.152 3.494l11.298 11.298c6.37 6.37 16.697 6.37 23.066 0l3.07-3.07c-.73-1.197-.992-2.688-.589-4.147 1.232-4.467 1.327-9.311.041-14.11-2.833-10.573-11.578-17.978-21.725-19.621-3.033-.491-4.942-3.586-4.125-6.547 1.231-4.468 1.326-9.312.04-14.112z" fill="#ffd15b"/></g></g><g><path d="m210.606 127.5c-6.01 0-11.66 2.341-15.91 6.59-2.929 2.929-2.929 7.678.001 10.607 2.928 2.929 7.677 2.928 10.606 0 1.416-1.417 3.3-2.197 5.303-2.197s3.887.78 5.303 2.197c1.465 1.464 3.384 2.197 5.304 2.197 1.919 0 3.839-.732 5.303-2.196 2.93-2.929 2.93-7.678.001-10.607-4.251-4.25-9.901-6.591-15.911-6.591z"/><path d="m315.091 150.303c1.416-1.417 3.3-2.197 5.303-2.197s3.887.78 5.303 2.197c1.465 1.464 3.384 2.197 5.304 2.197 1.919 0 3.839-.732 5.303-2.196 2.93-2.929 2.93-7.678.001-10.607-4.25-4.25-9.9-6.59-15.91-6.59s-11.66 2.341-15.91 6.59c-2.929 2.929-2.929 7.678.001 10.607 2.926 2.928 7.675 2.928 10.605-.001z"/><path d="m250.697 54.303c1.416-1.417 3.3-2.197 5.303-2.197s3.887.78 5.303 2.197c1.465 1.464 3.384 2.197 5.304 2.197 1.919 0 3.839-.732 5.303-2.196 2.93-2.929 2.93-7.678.001-10.607-4.25-4.25-9.9-6.59-15.91-6.59s-11.66 2.341-15.91 6.59c-2.929 2.929-2.929 7.678.001 10.607 2.926 2.928 7.675 2.928 10.605-.001z"/><path d="m250.697 210.697c1.416-1.417 3.3-2.197 5.303-2.197s3.887.78 5.303 2.197c1.465 1.464 3.384 2.197 5.304 2.197 1.919 0 3.839-.732 5.303-2.196 2.93-2.929 2.93-7.678.001-10.607-4.25-4.25-9.9-6.59-15.91-6.59s-11.66 2.341-15.91 6.59c-2.929 2.929-2.929 7.678.001 10.607 2.926 2.928 7.675 2.927 10.605-.001z"/><path d="m147.697 210.697c1.416-1.417 3.3-2.197 5.303-2.197s3.887.78 5.303 2.197c1.465 1.464 3.384 2.197 5.304 2.197 1.919 0 3.839-.732 5.303-2.196 2.93-2.929 2.93-7.678.001-10.607-4.25-4.25-9.9-6.59-15.91-6.59s-11.66 2.341-15.91 6.59c-2.929 2.929-2.929 7.678.001 10.607 2.926 2.928 7.675 2.927 10.605-.001z"/><path d="m353.697 210.697c1.416-1.417 3.3-2.197 5.303-2.197s3.887.78 5.303 2.197c1.465 1.464 3.384 2.197 5.304 2.197 1.919 0 3.839-.732 5.303-2.196 2.93-2.929 2.93-7.678.001-10.607-4.25-4.25-9.9-6.59-15.91-6.59s-11.66 2.341-15.91 6.59c-2.929 2.929-2.929 7.678.001 10.607 2.926 2.928 7.675 2.927 10.605-.001z"/><path d="m426.004 226.67h-2.897c2.446-6.583 2.879-13.865.999-20.881-3.285-12.259-13.074-21.68-25.303-24.59 1.039-5.175.871-10.552-.506-15.688-3.285-12.26-13.075-21.681-25.304-24.591 1.039-5.175.871-10.552-.506-15.688-.88-3.283-2.239-6.354-3.974-9.16l62.841-62.841c4.618-4.617 7.161-10.756 7.161-17.286s-2.543-12.669-7.161-17.286c-9.531-9.53-25.039-9.531-34.57 0l-14.938 14.936c-2.929 2.929-2.929 7.677 0 10.606s7.678 2.929 10.606 0l14.937-14.936c3.684-3.684 9.676-3.684 13.359 0 1.784 1.784 2.767 4.156 2.767 6.679s-.982 4.895-2.768 6.679l-62.703 62.703c-3.282-2.147-6.944-3.754-10.861-4.686.76-3.785.867-7.677.335-11.504l20.186-20.186c2.929-2.929 2.929-7.678 0-10.606-2.93-2.929-7.678-2.929-10.607 0l-15.611 15.611c-4.781-6.728-11.89-11.637-20.113-13.593 1.039-5.176.871-10.553-.505-15.688-4.112-15.344-18.318-25.893-34.011-25.521-5.788-11.681-17.748-19.153-30.857-19.153-13.108 0-25.068 7.471-30.858 19.153-.257-.006-.513-.009-.768-.009-15.432 0-29.2 10.438-33.243 25.529-1.377 5.136-1.545 10.513-.506 15.689-12.229 2.91-22.019 12.331-25.304 24.59-1.377 5.137-1.545 10.513-.506 15.688-12.229 2.91-22.018 12.331-25.303 24.59-1.377 5.137-1.545 10.514-.506 15.688-12.229 2.91-22.02 12.331-25.305 24.592-1.375 5.138-1.543 10.514-.505 15.687-12.229 2.91-22.018 12.331-25.303 24.59-1.88 7.016-1.447 14.298.999 20.88h-2.897c-3.757 0-7.281 1.666-9.669 4.57-2.38 2.896-3.33 6.663-2.604 10.336 15.132 76.591 76.734 134.618 151.906 147.103v51.045c-30.334 7.502-57.122 26.108-74.846 52.87-2.545 3.843-2.771 8.754-.589 12.816 2.184 4.064 6.405 6.589 11.017 6.589h189.578c4.611 0 8.833-2.525 11.017-6.589 2.182-4.062 1.956-8.974-.589-12.816-17.724-26.762-44.511-45.368-74.845-52.87v-51.045c75.171-12.485 136.773-70.512 151.906-147.104.725-3.672-.226-7.438-2.605-10.334-2.387-2.902-5.912-4.568-9.668-4.568zm-246.195-137.834c1.978-7.379 8.132-12.937 15.679-14.158 3.519-.569 6.648-2.628 8.587-5.648 1.961-3.054 2.533-6.807 1.57-10.298-.913-3.313-.923-6.831-.026-10.175 2.393-8.93 10.805-14.973 20.017-14.371 5.37.347 10.413-2.725 12.605-7.649 3.123-7.009 10.094-11.537 17.759-11.537s14.636 4.528 17.758 11.535c2.193 4.927 7.263 8.001 12.606 7.651 9.214-.603 17.625 5.441 20.018 14.371.896 3.344.886 6.862-.028 10.177-.962 3.49-.39 7.243 1.571 10.296 1.938 3.02 5.068 5.079 8.587 5.648 7.547 1.222 13.701 6.779 15.679 14.158.896 3.345.887 6.863-.026 10.174-.344 1.247-.484 2.528-.443 3.798l-.111.111c-3.436 3.436-9.026 3.434-12.46 0l-11.298-11.298c-7.721-7.72-20.282-7.721-28.003 0-.906.907-2.111 1.406-3.395 1.406-1.281 0-2.487-.499-3.394-1.406l-8.413-8.414c-14.471-14.472-38.019-14.469-52.489 0l-12.478 12.478c-5.185 5.186-12.449 7.353-19.408 6.144-.042-.946-.182-1.892-.438-2.819-.912-3.311-.922-6.829-.026-10.174zm-77.426 120.836c1.978-7.379 8.132-12.936 15.68-14.158 3.52-.57 6.649-2.629 8.587-5.65 1.96-3.054 2.531-6.807 1.568-10.296-.913-3.31-.922-6.829-.026-10.175.924-3.449 2.77-6.492 5.235-8.888l17.666 17.667c7.748 7.748 17.926 11.622 28.103 11.622 10.178 0 20.355-3.874 28.104-11.622.953-.954 2.276-1.517 3.612-1.485.825.006 2.014.225 2.988 1.23 3.725 3.841 8.72 5.98 14.067 6.021 5.335.03 10.374-2.018 14.153-5.799l8.414-8.413c6.033-6.033 15.123-8.059 23.159-5.161 3.893 1.406 8.193-.614 9.6-4.511 1.405-3.896-.615-8.194-4.512-9.6-13.477-4.861-28.729-1.46-38.854 8.665l-8.414 8.413c-.907.908-2.111 1.406-3.394 1.406-.013 0-.025 0-.038 0-1.296-.01-2.508-.529-3.412-1.461-3.578-3.693-8.423-5.749-13.642-5.79-.051 0-.102 0-.153 0-5.28 0-10.442 2.137-14.184 5.878-9.647 9.647-25.346 9.648-34.991 0l-13.758-13.758c1.808-1.004 3.372-2.439 4.516-4.22 1.96-3.053 2.532-6.806 1.569-10.297-.913-3.312-.923-6.83-.026-10.174 1.978-7.379 8.132-12.937 15.68-14.159.378-.061.749-.148 1.118-.243 13.572 5.2 29.044 2.024 39.491-8.421l12.478-12.478c8.622-8.621 22.653-8.622 31.275 0l8.412 8.413c7.72 7.72 20.281 7.722 28.003 0 1.87-1.872 4.916-1.872 6.788 0l11.299 11.299c4.642 4.641 10.738 6.961 16.836 6.961 5.569 0 11.125-1.96 15.586-5.832.444.124.896.226 1.355.301 7.546 1.222 13.7 6.779 15.678 14.158.896 3.345.887 6.863-.027 10.176-.873 3.168-.469 6.547 1.076 9.428l-22.879 22.878c-7.707 7.709-19.709 8.688-28.54 2.322-3.356-2.422-8.047-1.663-10.47 1.698-2.422 3.36-1.662 8.047 1.698 10.47 6.551 4.723 14.14 7.04 21.688 7.04 9.536 0 19.008-3.701 26.23-10.923l25.716-25.716c5.489 2.289 9.737 7.012 11.316 12.906.896 3.345.887 6.863-.026 10.174-.963 3.489-.392 7.242 1.568 10.296 1.938 3.021 5.067 5.081 8.588 5.651 7.547 1.222 13.701 6.779 15.679 14.158 1.591 5.938.258 12.224-3.478 16.998h-300.278c-3.734-4.775-5.068-11.061-3.477-16.999zm131.123 128.913c-7.477-25.105-12.625-59.28-14.641-96.915h74.27c-2.016 37.635-7.164 71.81-14.641 96.915-8.266 27.757-17.283 37.605-22.494 37.605-5.211.001-14.229-9.848-22.494-37.605zm47.901 32.829c4.183-7.439 8.01-16.955 11.463-28.548 7.856-26.377 13.234-62.089 15.284-101.196h54.37c-5.117 36.704-17.991 70.012-36.638 94.513-12.996 17.078-28.265 29.07-44.479 35.231zm-192.349-129.744h45.288c1.757 13.361 4.488 26.416 8.154 38.891 1.167 3.975 5.334 6.249 9.311 5.081 3.974-1.168 6.248-5.337 5.08-9.311-3.27-11.125-5.756-22.751-7.416-34.661h54.37c2.049 39.106 7.428 74.818 15.284 101.196 3.467 11.643 7.313 21.191 11.516 28.644-8.027-3.03-15.83-7.521-23.352-13.463-14.944-11.807-28.194-29.135-38.316-50.112-1.8-3.73-6.281-5.296-10.015-3.496-3.73 1.8-5.295 6.284-3.495 10.014 9.291 19.254 21.109 35.785 34.511 48.411-50.215-21.125-88.91-65.663-100.92-121.194zm134.487 214.179c-7.435 10.224-13.708 24.152-18.35 41.151h-39.221c14.394-19.875 34.66-34.169 57.571-41.151zm-2.758 41.151c8.439-28.228 21.83-45.975 35.213-45.975s26.773 17.747 35.213 45.975zm125.238 0h-39.221c-4.641-16.999-10.914-30.927-18.35-41.151 22.912 6.982 43.178 21.276 57.571 41.151zm-74.653-60.037c-5.063-.618-10.194-.938-15.372-.938s-10.309.32-15.371.938v-46.416c5.078.421 10.203.645 15.371.645s10.294-.223 15.372-.645zm50.682-74.112c5.534-5.196 10.81-11.067 15.769-17.583 20.536-26.983 34.562-63.562 39.831-103.598h45.287c-12.007 55.52-50.687 100.05-100.887 121.181z"/></g></g><g/><g/><g/><g/><g/><g/><g/><g/><g/><g/><g/><g/><g/><g/><g/></svg>