<svg height="512" viewBox="0 0 311.495 311.495" width="512" xmlns="http://www.w3.org/2000/svg"><circle cx="155.748" cy="155.748" fill="#d0df92" r="134.02"/><path d="M134.733 232.066c-.146 4.171-1.533 8.064-3.644 11.36-1.586 2.482-3.571 4.661-5.821 6.55-3.378 2.831-7.353 5.024-11.671 6.54a41.325 41.325 0 0 1-13.791 2.326c-4.788-.021-9.71-.902-14.418-2.879a35.323 35.323 0 0 1-9.986-6.338c-4.6-4.134-8.4-9.73-10.963-16.677-2.569-6.955-3.944-15.248-3.902-25.031.033-7.419.881-15.706 2.676-24.975.798-4.119 1.155-7.805 1.169-11.064.019-4.395-.582-8.008-1.539-10.917-1.449-4.369-3.633-7.162-6.037-8.972a13.222 13.222 0 0 0-7.918-2.664 13.91 13.91 0 0 0-7.2 1.996c-2.233 1.343-4.21 3.332-5.676 6.102a7 7 0 0 1-12.383-6.533c2.632-4.996 6.45-8.939 10.865-11.579a27.911 27.911 0 0 1 14.456-3.986 27.2 27.2 0 0 1 11.134 2.43c5.34 2.41 10.079 6.696 13.312 12.525 3.25 5.83 5.025 13.116 4.985 21.66-.019 4.231-.478 8.781-1.424 13.665-1.656 8.546-2.393 15.979-2.42 22.375-.033 7.5.909 13.562 2.435 18.367 1.146 3.608 2.612 6.512 4.262 8.861 2.483 3.518 5.362 5.831 8.512 7.369 3.148 1.527 6.61 2.25 10.121 2.265 2.772.013 5.56-.422 8.141-1.221 3.877-1.189 7.257-3.226 9.454-5.468 1.105-1.119 1.919-2.272 2.448-3.375.53-1.109.791-2.152.831-3.214a7 7 0 0 1 7.246-6.744 7 7 0 0 1 6.746 7.246z" fill="#fbb807"/><path d="M23.629 150.888c2.632-4.996 6.45-8.939 10.865-11.579a27.911 27.911 0 0 1 14.456-3.986 27.2 27.2 0 0 1 11.134 2.43c5.34 2.409 10.079 6.696 13.312 12.525l.052.102c-4.337 1.71-8.478 3.906-12.395 6.527-1.232-2.156-2.691-3.748-4.247-4.919a13.222 13.222 0 0 0-7.918-2.664 13.91 13.91 0 0 0-7.2 1.996c-2.233 1.343-4.21 3.332-5.676 6.102a7 7 0 0 1-12.383-6.534z" fill="#fffcc8"/><path d="M58.057 136.93c.683.246 1.359.52 2.027.824 5.34 2.409 10.079 6.696 13.312 12.525 3.25 5.83 5.025 13.116 4.985 21.66-.019 4.231-.478 8.781-1.424 13.665-1.656 8.546-2.393 15.979-2.42 22.375-.033 7.5.909 13.562 2.435 18.367 1.146 3.608 2.612 6.512 4.262 8.861 2.483 3.518 5.362 5.831 8.512 7.369a21.86 21.86 0 0 0 2.123.892c2.553.918 5.261 1.36 7.998 1.373 2.772.013 5.56-.422 8.141-1.221 3.877-1.189 7.257-3.226 9.454-5.468 1.105-1.119 1.919-2.272 2.448-3.375.53-1.109.791-2.152.831-3.214a7 7 0 0 1 7.246-6.744 7.004 7.004 0 0 1 2.121.407 7.003 7.003 0 0 1 4.623 6.839c-.146 4.171-1.533 8.064-3.644 11.36-1.586 2.482-3.571 4.661-5.821 6.55-3.378 2.831-7.353 5.024-11.671 6.54a41.325 41.325 0 0 1-13.791 2.326c-4.2-.019-8.505-.699-12.676-2.2a35.323 35.323 0 0 1-11.728-7.017c-4.6-4.134-8.4-9.73-10.963-16.677-2.569-6.955-3.944-15.248-3.902-25.031.033-7.419.881-15.706 2.676-24.975.798-4.119 1.155-7.805 1.169-11.064.019-4.395-.582-8.008-1.539-10.917-1.449-4.369-3.633-7.162-6.037-8.972a13.442 13.442 0 0 0-3.492-1.886 13.281 13.281 0 0 0-4.426-.778 13.91 13.91 0 0 0-7.2 1.996c-2.233 1.343-4.21 3.332-5.676 6.102a7 7 0 1 1-12.383-6.533c2.632-4.996 6.45-8.939 10.865-11.579a27.911 27.911 0 0 1 14.456-3.986c3.069.013 6.153.542 9.109 1.606m1.015-2.823a30.137 30.137 0 0 0-10.111-1.782 30.887 30.887 0 0 0-16.009 4.412c-5.021 3.002-9.164 7.412-11.977 12.754-2.572 4.875-.698 10.937 4.179 13.51.416.219.849.41 1.289.569 4.656 1.675 9.911-.365 12.222-4.747 1.124-2.124 2.662-3.784 4.569-4.93a10.893 10.893 0 0 1 5.641-1.567c1.184.008 2.338.21 3.423.601.954.343 1.867.837 2.715 1.469 2.23 1.679 3.864 4.14 4.983 7.511.936 2.844 1.403 6.197 1.386 9.96-.014 3.23-.389 6.765-1.114 10.506-1.777 9.178-2.695 17.769-2.73 25.533-.042 9.852 1.333 18.628 4.088 26.084 2.669 7.236 6.629 13.25 11.772 17.87a38.22 38.22 0 0 0 12.717 7.607c4.326 1.556 8.928 2.356 13.679 2.377a44.13 44.13 0 0 0 14.795-2.494c4.761-1.672 9.001-4.051 12.607-7.073 2.578-2.164 4.738-4.598 6.422-7.234 2.536-3.958 3.959-8.409 4.114-12.87a9.967 9.967 0 0 0-6.606-9.766 9.964 9.964 0 0 0-3.029-.582c-5.51-.199-10.155 4.124-10.353 9.634-.025.665-.196 1.312-.538 2.027-.404.842-1.053 1.728-1.876 2.56-1.957 1.997-4.942 3.71-8.2 4.709a24.42 24.42 0 0 1-7.248 1.09c-2.469-.011-4.823-.414-6.997-1.196a18.795 18.795 0 0 1-1.828-.769c-2.929-1.43-5.342-3.524-7.371-6.399-1.574-2.243-2.873-4.948-3.854-8.039-1.553-4.889-2.325-10.758-2.295-17.446.029-6.522.824-13.862 2.366-21.817.962-4.966 1.459-9.751 1.479-14.222.042-8.89-1.763-16.673-5.365-23.135-3.47-6.252-8.553-11.025-14.699-13.799a28.544 28.544 0 0 0-2.246-.916z" fill="#740806"/><g><path d="m290.535 171.262-.728-.678-.979.17c-.09.017-9.104 1.571-14.957 1.571-1.13 0-1.921-.062-2.466-.136.579-.241 1.205-.49 1.845-.744 4.432-1.763 9.948-3.956 11.722-8.165.8-1.898.748-3.959-.154-6.125-3.416-8.009-9.777-8.63-11.646-8.63h-1.597l-.601.796c-2.825 3.747-6.247 7.917-8.449 10.205 2.341-4.285 5.382-11.719.948-15.519l-.021-.017-.021-.017c-1.835-1.492-3.773-2.248-5.761-2.248-3.646 0-6.413 2.33-6.717 2.595l-.625.546-.054.829-.884 13.552c-.718 2.165-1.994 4.411-2.701 4.754-7.564-5.02-44.955-29.176-63.72-29.176h-1.059l-.059.003c-8.977.528-13.307 5.344-15.307 8.963-2.039-.323-3.391-.361-3.707-.366-1.686-.099-3.426-.201-5.068-.201-9.875 0-18.527 1.844-25.757 5.483-2.035-3.487-6.66-9.183-15.144-9.183-1.884 0-3.751.25-5.709.766-18.266 4.863-48.978 42.936-52.703 47.622-.796-.161-2.679-1.873-4.025-3.667l-5.005-12.561-.304-.763-.752-.329c-.203-.089-2.049-.868-4.302-.868-3.201 0-5.933 1.539-7.692 4.335-3.055 5.029 2.04 11.115 5.602 14.485-2.81-1.522-7.273-4.396-11.06-7.057l-.68-.478-.817.145c-2.875.507-8.506 3.688-9.245 12.095-.208 2.395.38 4.411 1.749 5.996 3.018 3.491 8.975 3.843 13.762 4.125.601.035 1.188.069 1.743.109-2.841 1.35-10.437 3.029-17.042 3.964l-.979.139-.484.862c-.105.187-2.55 4.624-.863 9.066 1.09 2.871 3.563 4.991 7.353 6.303 2.132.746 4.081 1.11 5.954 1.11 4.404 0 7.445-2.009 10.129-3.781 1.615-1.067 3.141-2.074 4.756-2.479 1.153-.271 2.867-.641 4.115-.641.784 0 1.143.13 1.268.19.003.062-.001.169-.032.336a109.31 109.31 0 0 1-.411 1.84c-1.107 4.835-2.253 9.834 3.625 13.97l.021.015.021.014c1.927 1.285 3.982 1.937 6.109 1.937 3.717 0 6.474-2.007 6.589-2.092l1.079-.798-.329-1.301c-1.616-6.396.225-9.772 1.109-11.395.373-.684.697-1.279.649-2.022.329-.872 3.505-5.271 33.265-18.896-.024.303-.042.598-.059.887a23 23 0 0 1-.091 1.196l-.005.041-.003.041c-.775 11.193.114 20.096.42 22.673-8.26 11.04-18.18 24.249-21.32 28.429-6.335-3.039-13.462-4.763-19.805-4.763-11.609 0-19.11 5.726-20.578 15.709-1.029 6.71 5.866 13.75 21.082 21.51 10.668 5.44 21.399 9.12 21.851 9.273l1.077.368.866-.739 44.2-37.7 1.346-1.147c3.908 1.681 8.604 3.089 14.237 4 4.08.681 8.463 1.026 13.02 1.026 15.787 0 29.43-4.549 38.602-12.838l1.332.641 54.5 26.199 1.027.494.948-.632c.396-.265 9.821-6.571 18.738-14.563 12.716-11.396 17.586-19.966 14.888-26.196-3.057-7.132-8.811-10.905-16.636-10.905-7.865 0-17.584 4.156-25.179 10.689a34374.043 34374.043 0 0 1-36.565-28.892c-.281-5.675-.901-10.882-1.849-15.53l.168.02c4.636.523 13.596 1.629 21.526 3.144 11.769 2.247 13.838 3.987 14.156 4.354.172.744.68 1.229 1.259 1.784 1.331 1.273 4.101 3.924 4.589 10.479l.1 1.328 1.263.421c.154.052 1.562.503 3.433.503 3.579 0 6.553-1.488 8.602-4.303 4.352-5.677 1.685-10.091-.895-14.361-.321-.531-.65-1.076-.978-1.64a1.445 1.445 0 0 1-.118-.255c.258-.223 1.337-.899 5.177-1.241h.611c1.534 0 3.111.432 4.781.89 1.897.521 4.048 1.11 6.419 1.11 3.366 0 6.416-1.112 9.601-3.5 3.181-2.414 4.868-5.184 5.023-8.239.242-4.723-3.403-8.177-3.558-8.323z" fill="#fbb807"/><g fill="#f28a1c"><path d="M100.071 192.925s-29.1 14.2-33 18.4c-10.7 11.2-3.9 22.6-3.8 22.8 1.8-.5 2.9-1.4 2.9-1.4-2.3-9.1 1.8-13 1.7-13.8-.6-4.6 25.2-16.6 34.6-20.9.9-8.4 3.5-18.7 10.1-26.5-14.3 9.8-12.5 21.4-12.5 21.4zM243.671 186.325l-28.7-3s-6.1-21.7-28.6-29.3c.5.7 10.5 10.4 13.8 15.5-1.6-3.1-2.8-4.9-2.8-4.9 6.6 6.3 10.2 14.9 12.2 22.6 11.5 1.3 36.7 4.7 37.4 9 .1.8 5.2 3.2 5.9 12.6 0 0 1.2.4 2.8.4h.1c1.1-17.1-12.1-22.9-12.1-22.9z"/><path d="M287.671 234.725c0-.1-.1-.1-.1-.2-8.6-16.7-33.9 26.7-32.8 29.1l-43.7-25.8c3.4.4 5.3-9.4-4-15.2-2.4 5.7-5.9 10.9-9.9 14.9-8.3 8.3-21.9 16.1-33.7 15.7-45.2-1.3-49.4-31.7-49.4-31.7s-8.7-32.6 5.9-55.1v-.4c-2 2.4-4.5 4.3-7.2 5.5-1.3 2.6-5.9 12.3-7.4 25.3-.1 1-.2 1.9-.3 2.9-.1.9-.1 1.7-.2 2.6-.9 13 .5 23 .5 23v.1c-10.1 13.5-22.8 30.4-22.8 30.4-6.1-3.2-13.6-5.3-20.4-5.3-9.2 0-17.1 3.8-18.6 14-2.1 13.7 41.6 28.6 41.6 28.6s9.7-6.6 2.6-18.3c-7.8-12.8-30.8-18.2-30.8-18.2 15-2.7 36 11.4 36 11.4v-7.9l22-23.8s3.8 17 31.6 21.5c4.2.7 8.5 1 12.7 1 14.5 0 28.7-4 38.2-13.2h.1c9-8.5 9.1-16.9 9.1-16.9.4 7.7-2.6 13.6-6.6 18.1l54.5 26.2c.2 0 38.5-25.6 33.1-38.3z"/></g><path d="m291.171 170.525-1.1-1-1.5.3c-.1 0-6.7 1.2-12.2 1.5 3.9-1.7 7.9-3.9 9.4-7.6.9-2.2.9-4.5-.2-7-3.6-8.6-10.5-9.3-12.5-9.3-.5 0-.9 0-1 .1l-1.2.2-.8 1c-1.3 1.7-2.7 3.5-4.1 5.2 1.1-3.8 1.2-7.9-1.9-10.7-1.9-1.7-4.2-2.5-6.5-2.5-4.1 0-7.1 2.6-7.4 2.9l-.9.8-.1 1.2-.9 13.4c-.5 1.4-1.2 2.9-1.8 3.7-7.1-4.7-44.5-28.8-63.5-28.8h-1.2c-8.7.5-13.4 4.7-15.8 8.9-1.7-.2-2.8-.3-3.1-.3-1.7-.1-3.5-.2-5.2-.2-9.6 0-18.1 1.8-25.4 5.2-2.4-3.8-7.2-8.9-15.6-8.9-1.9 0-3.9.3-6 .8-18.1 4.8-47.3 40.5-52.7 47.3-.8-.6-2-1.7-2.9-2.9l-5-12.5-.4-1.1-1.1-.5c-.2-.1-2.2-1-4.8-1-3.6 0-6.6 1.7-8.5 4.9-2.1 3.6-.8 7.4 1.5 10.7-1.8-1.2-3.8-2.5-5.5-3.7l-1-.7-1.2.2c-3.1.6-9.3 4-10.1 12.9-.2 2.7.4 4.9 2 6.7 2.6 3 7.1 3.9 11.3 4.3-3.3.9-7.7 1.7-12.1 2.3l-1.5.2-.7 1.3c-.3.5-2.7 5.1-.9 9.9 1.2 3.2 3.9 5.5 7.9 6.9 2.2.8 4.3 1.2 6.3 1.2 4.7 0 8-2.2 10.7-3.9 1.6-1.1 3-2 4.5-2.3 2-.5 3.2-.6 3.9-.6h.1l-.3 1.2c-1.1 4.9-2.3 10.5 4 14.9 2.1 1.4 4.3 2.2 6.7 2.2 4 0 6.9-2.1 7.2-2.3l1.6-1.2-.5-1.9c-1.5-6.1.2-9.2 1.1-10.7.4-.6.7-1.4.8-2.2 1.7-2.8 14.8-10.1 31.1-17.5-.8 10.9 0 19.8.4 22.9-7.9 10.5-17.1 22.7-20.6 27.4-6.3-2.9-13.2-4.5-19.5-4.5-12.1 0-20 6-21.6 16.5-1.1 7.2 6 14.6 21.6 22.6 10.7 5.5 21.5 9.2 21.9 9.4l1.6.6 1.3-1.1 44.8-38.1c8.6 3.1 18 4.7 27.4 4.7 7.3 0 14.1-1 20.3-2.8s1.5-.4 3.7-1.2c.2-.1.5-.2.7-.3 5.3-2.1 10.1-4.8 14-8.3l55.3 26.6 1.5.7 1.4-.9c.4-.3 9.9-6.6 18.8-14.6 13.1-11.7 18-20.6 15.2-27.3-3.2-7.4-9.4-11.5-17.5-11.5-7.8 0-17.5 4-25.2 10.4-6-4.8-24.6-19.5-35.6-28.1-.3-4.9-.8-9.6-1.6-14 20.4 2.4 31.6 5.2 33.7 6.9.3.8.9 1.4 1.4 1.9 1.3 1.2 3.9 3.6 4.3 9.9l.1 2 1.9.7c.3.1 1.8.6 3.8.6 3.8 0 7.1-1.7 9.4-4.7 4.7-6.2 1.8-11.1-.7-15.4-.2-.3-.4-.7-.6-1 .7-.2 1.9-.5 3.9-.7h.5c1.4 0 2.9.4 4.5.9 2 .6 4.2 1.2 6.8 1.2 3.5 0 6.9-1.2 10.2-3.8 3.4-2.6 5.2-5.6 5.4-9 .3-5.6-3.5-9.2-3.9-9.6zm-11.7 18.9c-4.1 0-7.6-2-11.2-2h-.7c-4.6.4-8.4 1.5-6.7 4.5 2.9 5.1 5.9 8.6 2 13.8-2.2 2.9-5 3.5-7 3.5-1.7 0-2.8-.4-2.8-.4-.7-9.4-5.8-11.8-5.9-12.6-.8-4.3-26-7.7-37.4-9-2-7.7-5.6-16.4-12.2-22.6 0 0 6 8.9 9.3 22.5 1.3 5.5 2.2 11.6 2.4 18.6 13 10.3 38.6 30.5 38.6 30.5 6.8-6.3 16.7-11.3 25.1-11.3 6.3 0 11.8 2.7 14.8 9.7 5.5 12.7-32.9 38.3-32.9 38.3l-54.7-26.1c4.1-4.5 7-10.4 6.6-18.1 0 0-.2 8.4-9.1 16.9h-.1c-9.5 9.1-23.7 13.2-38.2 13.2-4.3 0-8.5-.4-12.7-1-27.8-4.5-31.6-21.5-31.6-21.5 1.5 9.8 7.8 15.6 14.4 19.1l-44.2 37.7s-43.6-15-41.6-28.6c1.5-10.1 9.4-14 18.6-14 6.8 0 14.3 2.1 20.4 5.3 0 0 12.7-16.9 22.8-30.4v-.1s-1.5-10-.5-23c0-.9.1-1.8.2-2.6.1-.9.2-1.9.3-2.9 1.9-15.4 7.8-26.1 7.8-26.1-7.1 7.9-9.8 18.7-10.8 27.4-9.4 4.2-35.2 16.3-34.6 20.9.1.8-4 4.7-1.7 13.8 0 0-2.3 1.7-5.4 1.7-1.5 0-3.2-.4-5-1.6-5.4-3.7-3.6-8.1-2.4-13.8.4-2.1-1-2.9-3.2-2.9-1.3 0-2.9.3-4.6.7-4.8 1.2-8 6.2-14.4 6.2-1.5 0-3.3-.3-5.3-1-10.3-3.6-5.4-12.5-5.4-12.5s19.1-2.6 19.6-5.9c.1-.5 0-1.1.1-1.7-5.1-1.1-19 .7-18.2-8.4.8-9 7.6-10.3 7.6-10.3s12.1 8.5 14.6 8.5c.2 0 .3-.1.4-.2.3-.6 1.3-2 1.3-2s-11.3-8.7-8-14.3c1.7-2.8 4-3.4 6-3.4s3.5.7 3.5.7l5.1 12.8s3.4 4.7 5.9 4.7c.5 0 1-.2 1.4-.7 10.4-13.1 36.3-42.9 51.7-47 1.9-.5 3.6-.7 5.2-.7 8.9 0 13 7 14.3 9.9 7-3.9 15.7-6.2 26.6-6.2 1.6 0 3.3.1 5 .2 0 0 1.9 0 4.9.6 1.8-4.2 5.8-8.8 14.3-9.2h1c16.3 0 49 19.7 62.6 28.8.4.2.7.3 1 .3 2.6 0 4.7-6.4 4.7-6.4l.9-13.8s2.3-2.1 5.4-2.1c1.4 0 3 .5 4.5 1.8 4.9 4.3-3.2 16-3.2 16s1.4 1 1.9 1.5l.2.1c2 0 11.5-12.6 11.5-12.6h.6c1.8 0 6.9.6 9.8 7.4 3.6 8.5-10.3 11-14.8 13.6.2.5.3 1.1.6 1.6.4.9 2.5 1.2 5.1 1.2 6.1 0 15.3-1.6 15.3-1.6s7.5 6.9-1.3 13.6c-2.9 2.2-5.6 3-8.1 3z" fill="#740806"/><path d="M135.171 173.025c-.2-23.5 12.2-27.8 25.8-27.8 16.5 0 33.4 27.3 32.2 66.1-.7 21.7-12.1 34.5-31.1 34s-28-13.5-27.3-29.2z" fill="#fffcc8"/></g><g><path d="M86.226 86.864C57.419 65.355 72.512 37.173 72.512 37.173l36.627 14.092c20.254-12.082 38.906-11.855 52.597-8.535l30.457-25.66s23.556 21.783 3.163 51.606c9.614 14.553 22.059 34.483 21.248 38.988-.619 3.436-2.868 4.378-5.492 3.271 1.166 3.62 1.502 7.256-.097 10.061-1.554 2.725-3.676 3.11-5.617 1.771-8.792 18.343-47.703 38.525-47.703 38.525s-47.406-2.182-63.605-19.142c-1.358 1.133-3.171 1.076-5.141-.651-2.428-2.128-3.298-5.674-3.379-9.477-2.118 1.903-4.552 1.748-6.259-1.297-1.608-2.866 2.982-25.888 6.915-43.861z" fill="#fbb807"/><path d="M96.888 107.296c-.382-37.452 14.701-52.651 14.701-52.651s2.983-1.798 6.777-4.131l19.778 12.14s-4.12-12.812-10.826-17.739l.039-.025c-5.604 1.622-11.445 4.084-17.449 7.664l-.626.374-36.008-13.855-.005.01a36.516 36.516 0 0 0-1.304 3.495c-.953 2.994-1.906 7.214-1.905 12.062.001 4.628.862 9.822 3.41 15.135 2.551 5.312 6.792 10.762 13.653 15.887l.774.578-.207.944c-2.47 11.285-5.196 24.567-6.471 33.512 2.302-4.325 6.866-9.309 15.669-13.4zM91.748 142.897zM90.392 142.489z" fill="#f28a1c"/><path d="M160.014 95.484s-5.304-23.686-15.732-21.935-7.23 25.751-7.23 25.751c-18.743.81-31.502 3.97-40.163 7.995-18.63 8.658-18.287 21.32-17.648 23.257.023.071.047.132.07.173 1.707 3.045 4.141 3.2 6.259 1.297.081 3.803.951 7.349 3.379 9.477.492.432.975.759 1.443.989s.922.364 1.356.408c.869.088 1.662-.181 2.341-.747 19.659 21.102 63.605 19.142 63.605 19.142s30.314-7.803 47.703-38.525c1.941 1.34 4.064.954 5.617-1.771 1.599-2.805 1.263-6.441.097-10.061 2.624 1.107 4.873.165 5.492-3.271 1.313-7.282-17.636-23.42-56.589-12.179z" fill="#fffcc8"/><path d="M94.332 108.569s-5.139 5.317-5.075 10.004c.091 6.593 6.918 2.452 6.918 2.452-5.868 16.708 5.351 14.643 5.351 14.643 21.886 22.708 55.05 21.113 55.05 21.113s24.193-6.594 47.958-32.556c-17.508 29.498-46.839 37.066-46.839 37.066s-43.946 1.96-63.605-19.142c-1.359 1.133-3.171 1.076-5.141-.651-2.428-2.128-3.298-5.674-3.379-9.477-2.118 1.903-4.552 1.748-6.259-1.297-.629-1.119-1.636-13.25 15.021-22.155z" fill="#e5ba97"/><path d="M130.374 142.569s8.133 15.578 25.465 12.667 18.285-16.632 18.285-16.632l-3.548-1.04-.622-11.804 3.477-1.744c2.351-1.356 4.375-2.87 5.951-4.533 1.516-1.604 2.644-3.367 3.145-5.286a8.06 8.06 0 0 0 .168-3.388 8.13 8.13 0 0 0-.794-2.342c3.327-.749 6.194-2.113 5.391-3.022-6.033 1.401-10.412 1.124-12.394.858-1.059-.142-1.627 1.229-.758 1.853.774.556 2.11.881 3.661.851l.086-.004.072.124c.643.816.963 1.568 1.091 2.295.1.595.071 1.199-.095 1.845-.168.64-.483 1.33-.949 2.045-.933 1.43-2.501 2.949-4.571 4.352-2.259 1.546-5.01 3.282-8.314 4.099-8.585 2.124-10.331-2.445-10.331-2.445s-2.306-8.022-3.069-7.955c-.75.066-.832 8.681-.832 8.681s.77 4.391-8.218 4.816c-4.136.196-8.035-.661-11.182-1.525-2.102-.576-3.866-1.305-5.139-2.121-.722-.466-2.359-2.482-2.457-3.027-.098-.627-.023-1.37.417-2.349.052-.112.089-.226.117-.341 1.463-.539 2.606-1.306 3.173-2.11.697-.986-.415-2.241-1.494-1.698-.828.417-2.095.985-3.773 1.561a1.847 1.847 0 0 0-.51.171c-2.354.769-5.45 1.526-9.27 1.928-.56 1.361 3.589 1.721 7.72 1.13a6.937 6.937 0 0 0-.023 2.321c.21 1.251.783 2.391 1.581 3.349.791.96 1.8 1.759 2.957 2.444 1.216.717 2.602 1.32 4.126 1.825z" fill="#740806"/><g fill="#e93e8f"><path d="M175.813 102.177c-.295-1.757 3.66-3.887 8.834-4.756 5.175-.869 9.609-.149 9.904 1.608s-3.66 3.886-8.835 4.755c-5.174.871-9.608.15-9.903-1.607zM101.644 114.635c-.295-1.757 3.66-3.887 8.834-4.756 5.175-.869 9.609-.149 9.904 1.608s-3.66 3.886-8.835 4.755c-5.174.871-9.608.15-9.903-1.607z"/></g><path d="M149.866 102.256c29.742-4.996 9.526 11.395 2.123 12.639-7.403 1.243-31.865-7.644-2.123-12.639z" fill="#e93e8f"/><path d="M154.391 104.752c.636-.438 1.55-.797 2.598-.972 1.352-.227 2.592-.094 3.354.292.426.216.704.51.764.866.167.994-1.406 2.086-3.514 2.44s-3.952-.165-4.119-1.158c-.084-.5.273-1.025.917-1.468z" fill="#fff"/><path d="M88.529 82.623s3.441-12.867 10.754-22.046l-25.12-14.645c.001-.001-6.863 23.269 14.366 36.691zM193.664 27.229c2.525 4.767 11.12 21.331-2.296 38.12 0 0-4.849-7.77-10.059-12.944z" fill="#fffcc8"/><path d="M148.909 60.574s8.643-11.481 6.192-19.443l-8.517-.858c2.043 5.71 2.325 20.301 2.325 20.301z" fill="#f28a1c"/><path d="M215.137 107.144v-.016c0-.044-.004-.117-.016-.22l-.001-.006-.001-.005c-.053-.531-.266-1.376-.637-2.399-.369-1.027-.889-2.244-1.531-3.598-1.284-2.711-3.056-5.972-5.095-9.484-4.079-7.027-9.229-15.066-13.752-21.913l-.556-.841.569-.832c6.008-8.795 8.044-16.741 8.049-23.602.001-7.797-2.663-14.241-5.389-18.79-1.804-3.012-3.626-5.174-4.684-6.322l-29.971 25.251-.739-.179a67.053 67.053 0 0 0-15.803-1.912c-5.675.002-11.792.752-18.223 2.614l-.039.025c6.706 4.927 10.826 17.739 10.826 17.739l-19.778-12.14c-3.794 2.333-6.777 4.131-6.777 4.131s-15.084 15.199-14.701 52.651c-8.804 4.091-13.367 9.075-15.668 13.4l-.096.669c-.411 2.973-.644 5.432-.643 7.025 0 .456.019.839.052 1.123.029.274.079.456.094.491.406.721.823 1.174 1.18 1.427.365.255.653.334.967.338.233 0 .493-.053.797-.188.302-.135.643-.356.997-.674l2.433-2.185.069 3.27c.037 1.797.265 3.497.735 4.933.471 1.441 1.166 2.601 2.132 3.448.461.405.881.67 1.238.828.359.159.65.213.895.214.377-.006.686-.113 1.058-.416l1.142-.953.962 1.134c3.606 4.253 8.49 7.578 13.982 10.149 5.49 2.571 11.576 4.384 17.526 5.647 11.902 2.529 23.249 2.857 28.236 2.856 1.215 0 2.037-.019 2.415-.03a97.044 97.044 0 0 0 3.229-1.348c2.182-.956 5.25-2.38 8.777-4.245 7.053-3.727 15.935-9.226 23.204-16.212 4.849-4.656 8.971-9.965 11.412-15.808l.714-1.707 1.522 1.051c.519.357.954.482 1.307.482.311-.004.598-.082.963-.335.36-.253.781-.704 1.192-1.427.609-1.069.89-2.326.891-3.762.002-1.56-.342-3.312-.919-5.096l-1.004-3.113 3.014 1.271c.542.229 1.014.323 1.384.322.525-.012.84-.141 1.176-.464.33-.328.682-.953.873-2.013l.001-.003.001-.004c.001-.002.01-.07.009-.173l-.001-.061z" fill="none"/><g fill="#740806"><path d="m218.079 107.937.001-.007-.001.004zM218.102 106.573v.005l.001.006z"/><path d="M218.137 107.128v-.03h-.002a4.984 4.984 0 0 0-.033-.519c-.101-.928-.382-1.938-.797-3.096-.729-2.022-1.884-4.476-3.337-7.243-4.224-8.038-10.973-18.691-16.816-27.562 5.881-8.904 8.019-17.213 8.014-24.449-.001-8.627-2.988-15.681-5.955-20.563-2.97-4.886-5.929-7.629-6-7.696l-.972-.899-30.898 26.031a69.828 69.828 0 0 0-15.762-1.825c-10.931-.003-23.448 2.656-36.568 10.333L71.815 35.297l-.625 1.167c-.06.126-4.12 7.693-4.13 18.175-.001 4.999.937 10.665 3.705 16.432 2.664 5.557 7.032 11.188 13.792 16.402-1.633 7.495-3.359 15.771-4.697 23.085-.697 3.808-1.289 7.353-1.709 10.396-.419 3.047-.669 5.575-.671 7.435 0 .612.027 1.153.094 1.645.074.495.163.937.427 1.423.572 1.019 1.252 1.836 2.064 2.416.806.58 1.759.899 2.708.895.505 0 1.002-.088 1.477-.243.139 1.145.356 2.264.702 3.327.591 1.815 1.545 3.492 3.007 4.773.647.567 1.31 1.008 1.998 1.314a5.21 5.21 0 0 0 2.113.472 4.422 4.422 0 0 0 1.727-.357c3.863 4.216 8.775 7.473 14.145 9.988 8.654 4.049 18.486 6.227 27.122 7.415a150.65 150.65 0 0 0 19.913 1.37c1.756 0 2.758-.039 2.775-.04l.243-.01.227-.086c.057-.023 9.506-3.582 20.286-10.242 5.391-3.332 11.116-7.44 16.17-12.294 4.666-4.484 8.75-9.617 11.444-15.381.462.146.94.236 1.432.236.943.004 1.891-.311 2.695-.885.809-.573 1.49-1.381 2.066-2.39.922-1.616 1.286-3.424 1.285-5.248-.001-1.199-.167-2.413-.429-3.624 1.17-.013 2.349-.463 3.207-1.339.886-.894 1.433-2.123 1.699-3.595.048-.263.058-.496.059-.715zm-3.008.264-.001.004-.001.003c-.19 1.06-.543 1.685-.873 2.013-.337.323-.651.452-1.176.464-.371.001-.842-.093-1.384-.322l-3.014-1.271 1.004 3.113c.576 1.784.92 3.535.919 5.096-.001 1.436-.281 2.693-.891 3.762-.411.722-.832 1.174-1.192 1.427-.365.253-.653.331-.963.335-.353 0-.788-.126-1.307-.482l-1.522-1.051-.714 1.707c-2.441 5.843-6.563 11.152-11.412 15.808-7.269 6.986-16.152 12.485-23.204 16.212a133.88 133.88 0 0 1-8.777 4.245c-1.091.478-1.96.839-2.554 1.079-.295.12-.522.209-.675.269-.378.011-1.2.03-2.415.03-4.987.001-16.334-.327-28.236-2.856-5.95-1.263-12.037-3.076-17.526-5.647-5.492-2.571-10.376-5.896-13.982-10.149l-.962-1.134-1.142.953c-.373.302-.681.41-1.058.416-.245 0-.536-.055-.895-.214-.357-.158-.777-.424-1.238-.828-.966-.847-1.661-2.007-2.132-3.448-.47-1.436-.698-3.136-.735-4.933l-.069-3.27-2.433 2.185a3.932 3.932 0 0 1-.997.674 1.932 1.932 0 0 1-.797.188c-.314-.004-.602-.083-.967-.338-.357-.253-.775-.706-1.18-1.427a2.34 2.34 0 0 1-.094-.491 10.183 10.183 0 0 1-.052-1.123c-.002-1.594.231-4.052.643-7.025l.096-.669c1.275-8.944 4.001-22.227 6.471-33.512l.207-.944-.774-.578c-6.861-5.125-11.102-10.575-13.653-15.887-2.548-5.313-3.409-10.506-3.41-15.135-.001-4.848.952-9.068 1.905-12.062a36.516 36.516 0 0 1 1.304-3.495l.005-.01 36.008 13.854.626-.374c6.004-3.58 11.845-6.042 17.449-7.664 6.431-1.861 12.548-2.612 18.223-2.614 5.769 0 11.085.768 15.803 1.912l.739.179 29.971-25.251c1.058 1.148 2.88 3.31 4.684 6.322 2.726 4.549 5.39 10.993 5.389 18.79-.005 6.861-2.041 14.807-8.049 23.602l-.569.832.556.841c4.524 6.847 9.674 14.886 13.752 21.913 2.039 3.512 3.81 6.773 5.095 9.484.642 1.354 1.162 2.571 1.531 3.598.371 1.023.584 1.868.637 2.399l.001.005.001.006c.012.102.016.176.016.22v.03l.001.061a1.55 1.55 0 0 1-.011.173z"/></g><path d="M147.929 44.151s2.14-.264 3.523.801c1.236.952 2.456 4.749-1.727 5.849-5.361 1.41-16.641-2.707-16.44-8.043.535-.455 16.898-16.387 20.994-9.899 1.428 2.262.765 5.238-.774 7.222-2.09 2.696-5.576 4.07-5.576 4.07z" fill="#fbb807"/><path d="M138.894 49.068c3.291 1.559 7.342 2.35 10.161 1.877.233-.039.457-.087.671-.143 4.182-1.1 2.962-4.898 1.726-5.849-1.383-1.065-3.522-.801-3.522-.801s3.486-1.374 5.576-4.069c1.539-1.985 2.202-4.96.774-7.223-.874-1.384-2.306-1.748-4.023-1.459-6.334 1.064-16.535 11.739-16.956 12.097 0 0-2.798.241-2.757-.842l.046-1.205.918-.782.176-.166c5.23-4.877 12.618-10.885 18.118-11.808 4.006-.673 5.978 1.404 6.798 2.701 2.206 3.494 1.123 7.726-.927 10.369a13.557 13.557 0 0 1-1.725 1.827c1.026 1.269 1.71 3.225 1.305 5.224-.457 2.262-2.218 3.953-4.829 4.64-.292.077-.6.142-.915.195-3.665.615-10.89-3.677-10.615-4.583z" fill="#740806"/><path d="M167.04 135.335a7.881 7.881 0 0 0-1.121-1.19c-3.359-2.932-11.537-3.064-18.717 2.678-1.339-.341-3.133-.392-5.058-.067-3.791.639-6.639 2.485-6.363 4.124.247 1.463 2.904 2.262 6.17 1.961a10.706 10.706 0 0 0 .647-.073c.107-.014.22-.031.344-.05.068-.011.134-.018.202-.03.048-.008.094-.019.142-.027l.051-.01c.265-.048.525-.102.779-.162.123-.028.245-.056.374-.089l.056-.015c1.571-.398 3.577-1.128 5.472-2.472 1.066.707 3.047 3.079 4.274 4.43.298.328.6.672.906 1.046 4.8 4.75 17.004-3.19 11.842-10.054z" fill="#e93e8f"/><g><path d="M181.926 84.371c-.828-5.39-3.161-9.984-6.204-12.983-1.891 3.017-4.629 5.587-8.594 6.603-3.644.934-6.852-.094-9.538-1.94-1.166 3.069-1.674 6.742-1.306 10.639.05.526.106 1.054.188 1.587 1.474 9.597 7.694 16.721 14.259 16.682a9.095 9.095 0 0 0 1.312-.104c1.431-.22 2.748-.79 3.934-1.621 4.64-3.251 7.198-10.712 5.949-18.863z" fill="#fff"/><g fill="#740806"><path d="M183.534 82.294c-.862-5.612-3.243-10.426-6.367-13.645a22.345 22.345 0 0 1-1.445 2.738c3.043 2.999 5.377 7.593 6.204 12.983 1.249 8.151-1.309 15.612-5.95 18.863 2.19-1.143 4.016-3.102 5.361-5.617 2.168-4.05 3.088-9.519 2.197-15.322zM156.245 86.482l.039.208c-.368-3.897.14-7.57 1.306-10.639a16.865 16.865 0 0 1-.824-.611c-.889 3.302-1.127 7.094-.521 11.042z"/><path d="M177.166 68.649c1.012-2.257 1.661-4.574 2.066-6.559.194-.949-.909-1.488-1.386-.676a24.62 24.62 0 0 1-3.572 4.687c-.037.038-.078.068-.115.106a17.919 17.919 0 0 1-2.717 2.25c-3.383 2.277-7.234 3.119-10.959 2.695a17.059 17.059 0 0 1-1.862-.325 17.573 17.573 0 0 1-6.387-2.903c-.726-.526-1.553.516-1.034 1.296 1.389 2.09 3.268 4.43 5.566 6.219.27.21.542.417.824.611 2.686 1.846 5.895 2.874 9.538 1.94 3.965-1.016 6.703-3.586 8.594-6.603a22.265 22.265 0 0 0 1.444-2.738zM158.428 85.15c-.721-1.028.351-2.318 1.545-1.928 3.909 1.366 10.748 2.559 15.164-3.356.766-1.027 2.353-.55 2.357.731-.054 3.21-1.871 7.473-7.71 9.023-5.936 1.612-10.653-3.363-11.356-4.47z"/></g><path d="M138.512 94.613a25.86 25.86 0 0 0-.235-1.926c-.91-5.63-3.604-10.367-7.131-13.356-1.658 3.171-4.246 5.84-8.303 6.583-4.317.791-8.095-.64-11.2-2.84-2.132 3.873-3.031 8.942-2.173 14.261 1.125 6.975 4.985 12.589 9.788 15.184 2.395 1.295 5.021 1.852 7.667 1.425 3.535-.571 6.497-2.773 8.556-5.955 2.288-3.538 3.457-8.285 3.031-13.376z" fill="#fff"/><g fill="#740806"><path d="M138.164 90.149c-.839-5.192-3.078-9.684-6.077-12.914a20.344 20.344 0 0 1-.942 2.096c3.527 2.989 6.221 7.727 7.131 13.356.104.646.181 1.288.235 1.926a27.1 27.1 0 0 0-.347-4.464zM108.752 80.651c-1.962 4.073-2.749 9.19-1.885 14.548.599 3.708 1.911 7.063 3.703 9.857 2.273 3.544 5.322 6.177 8.688 7.462-4.803-2.595-8.663-8.209-9.788-15.184-.858-5.318.042-10.388 2.173-14.261a24.528 24.528 0 0 1-2.891-2.422z"/><path d="M132.088 77.235c.779-2.017 1.259-4.106 1.547-5.956.145-.926-1.042-1.525-1.481-.743-.851 1.514-1.927 2.851-3.144 4.023-.785.757-1.616 1.458-2.521 2.051-3.332 2.178-7.41 3.161-11.687 2.435a17.746 17.746 0 0 1-3.428-.935c-.306-.118-.589-.247-.881-.373a24.867 24.867 0 0 1-4.325-2.388c-.772-.538-1.549.413-.975 1.193a32.81 32.81 0 0 0 3.559 4.108 24.55 24.55 0 0 0 2.891 2.423c3.104 2.2 6.882 3.631 11.2 2.84 4.057-.743 6.645-3.412 8.303-6.583.355-.68.666-1.383.942-2.095z"/></g><path d="M116.031 94.342c-.769-.993.242-2.332 1.452-1.998 3.969 1.181 10.857 2.051 14.989-4.065.717-1.062 2.325-.66 2.389.62.097 3.209-1.517 7.553-7.277 9.375-5.853 1.887-10.799-2.86-11.553-3.932z" fill="#740806"/><path d="M199.201 73.924s4.53-8.78 13.242-8.448 7.011 9.686 2.953 10.14-6.312-4.552-16.195-1.692z" fill="#a1d3e6"/><path d="M199.684 73.8c9.461-2.551 11.723 2.262 15.712 1.816a2.79 2.79 0 0 0 .598-.135c3.606-1.244 4.719-9.69-3.551-10.005a12.156 12.156 0 0 0-4.465.659c-4.825 1.665-7.69 5.944-8.514 7.328-.471-.644 2.348-8.374 7.536-10.164a15.206 15.206 0 0 1 5.558-.821c5.942.226 8.582 3.831 9.07 7.127.562 3.791-1.483 7.617-4.654 8.712a5.792 5.792 0 0 1-1.243.28c-2.254.252-4.051-.538-5.637-1.235-2.255-.99-6.312-3.39-10.41-3.562z" fill="#740806"/><path d="M217.56 70.647c-1.748 3.447-5.655-1.819-11.593-1.907 9.639-5.211 11.593 1.907 11.593 1.907z" fill="#fff"/><path d="M176.605 84.521s4.53-8.78 13.242-8.448 7.011 9.686 2.953 10.14-6.312-4.552-16.195-1.692z" fill="#a1d3e6"/><path d="M177.088 84.398c9.461-2.551 11.723 2.262 15.712 1.816a2.79 2.79 0 0 0 .598-.135c3.606-1.244 4.719-9.69-3.551-10.005a12.156 12.156 0 0 0-4.465.659c-4.825 1.665-7.69 5.944-8.514 7.328-.471-.644 2.348-8.374 7.536-10.164a15.206 15.206 0 0 1 5.558-.821c5.942.226 8.582 3.831 9.07 7.127.562 3.791-1.483 7.617-4.654 8.712a5.792 5.792 0 0 1-1.243.28c-2.254.252-4.051-.538-5.637-1.235-2.255-.991-6.312-3.391-10.41-3.562z" fill="#740806"/><path d="M194.964 81.244c-1.748 3.447-5.655-1.819-11.593-1.907 9.639-5.211 11.593 1.907 11.593 1.907z" fill="#fff"/><g><path d="M210.784 92.393s7.761-6.113 15.552-2.201 2.367 11.721-1.514 10.452-3.858-6.758-14.038-8.251z" fill="#a1d3e6"/><path d="M211.275 92.481c9.668 1.599 9.732 6.917 13.547 8.164.197.064.398.106.6.125 3.797.362 8.31-6.864.914-10.577A12.159 12.159 0 0 0 222 88.942c-5.081-.484-9.462 2.223-10.786 3.141-.162-.781 5.607-6.648 11.07-6.128a15.21 15.21 0 0 1 5.398 1.556c5.314 2.668 6.223 7.043 5.301 10.245-1.06 3.683-4.506 6.318-7.846 6a5.807 5.807 0 0 1-1.248-.26c-2.156-.705-3.464-2.168-4.618-3.46-1.64-1.835-4.337-5.701-7.996-7.555z" fill="#740806"/><path d="M228.851 97.019c-3.02 2.412-4.393-3.999-9.76-6.54 10.931-.748 9.76 6.54 9.76 6.54z" fill="#fff"/></g><g><path d="M221.015 117.175s9.864.551 13.118 8.64c3.253 8.088-5.98 10.355-8.051 6.835-2.072-3.519 1.578-7.621-5.067-15.475z" fill="#a1d3e6"/><path d="M221.325 117.565c6.191 7.596 2.721 11.625 4.756 15.085.105.178.228.342.367.491 2.608 2.784 10.772.352 7.684-7.326a12.15 12.15 0 0 0-2.424-3.807c-3.489-3.725-8.566-4.594-10.166-4.781.395-.693 8.603-1.275 12.355 2.73a15.205 15.205 0 0 1 3.018 4.739c2.219 5.517.006 9.398-2.804 11.19-3.231 2.06-7.559 1.756-9.853-.693a5.771 5.771 0 0 1-.763-1.02c-1.15-1.955-1.163-3.918-1.174-5.65-.015-2.464.52-7.147-.996-10.958z" fill="#740806"/><path d="M231.501 132.597c-3.86-.189-.648-5.905-2.992-11.361 8.692 6.671 2.992 11.361 2.992 11.361z" fill="#fff"/></g><g><path d="M87.375 97.648s-4.927-8.563-13.615-7.833c-8.687.73-6.561 9.997-2.486 10.265s6.098-4.836 16.101-2.432z" fill="#a1d3e6"/><path d="M86.887 97.547c-9.568-2.116-11.608 2.796-15.613 2.533a2.782 2.782 0 0 1-.604-.108c-3.659-1.078-5.157-9.464 3.09-10.157a12.154 12.154 0 0 1 4.49.454c4.896 1.442 7.954 5.586 8.841 6.931.441-.665-2.729-8.258-7.993-9.809a15.211 15.211 0 0 0-5.589-.566c-5.926.498-8.398 4.22-8.735 7.535-.388 3.812 1.829 7.541 5.048 8.49.409.121.832.195 1.255.223 2.264.149 4.023-.723 5.574-1.491 2.208-1.093 6.15-3.676 10.236-4.035z" fill="#740806"/><path d="M68.886 95.215c1.904 3.363 5.566-2.076 11.493-2.435-9.867-4.766-11.493 2.435-11.493 2.435z" fill="#fff"/></g><g><path d="M117.913 95.177s-7.753-6.124-15.549-2.223-2.383 11.718 1.5 10.454c3.883-1.263 3.868-6.753 14.049-8.231z" fill="#a1d3e6"/><path d="M117.423 95.264c-9.67 1.585-9.742 6.903-13.559 8.145a2.784 2.784 0 0 1-.6.124c-3.798.356-8.3-6.875-.899-10.578a12.174 12.174 0 0 1 4.338-1.245c5.082-.477 9.459 2.236 10.781 3.156.163-.781-5.598-6.656-11.062-6.143-1.883.177-3.7.698-5.4 1.549-5.318 2.661-6.233 7.034-5.315 10.238 1.054 3.684 4.497 6.324 7.838 6.011.425-.04.845-.127 1.248-.258 2.157-.702 3.467-2.164 4.623-3.453 1.643-1.836 4.346-5.697 8.007-7.546z" fill="#740806"/><path d="M99.841 99.777c3.016 2.417 4.399-3.993 9.769-6.526-10.931-.764-9.769 6.526-9.769 6.526z" fill="#fff"/></g><g><path d="M76.843 115.877s-8.872-4.346-15.667 1.116.149 11.957 3.677 9.901 2.352-7.419 11.99-11.017z" fill="#a1d3e6"/><path d="M76.382 116.066c-9.116 3.595-8.061 8.807-11.529 10.828a2.747 2.747 0 0 1-.561.248c-3.636 1.152-9.567-4.964-3.116-10.149a12.174 12.174 0 0 1 3.977-2.134c4.866-1.541 9.718.185 11.205.805-.006-.798-6.879-5.322-12.111-3.665a15.204 15.204 0 0 0-4.951 2.656c-4.635 3.726-4.604 8.193-3.03 11.13 1.81 3.378 5.733 5.23 8.932 4.217a5.811 5.811 0 0 0 1.165-.516c1.96-1.142 2.931-2.848 3.788-4.353 1.219-2.14 3.044-6.486 6.231-9.067z" fill="#740806"/><path d="M60.152 124.196c3.459 1.724 3.454-4.833 8.168-8.444-10.845 1.564-8.168 8.444-8.168 8.444z" fill="#fff"/></g><g><path d="M75.351 138.516s-9.136 3.761-9.551 12.47c-.416 8.708 9.05 7.815 9.85 3.811.8-4.005-3.995-6.68-.299-16.281z" fill="#a1d3e6"/><path d="M75.187 138.986c-3.352 9.208 1.25 11.874.463 15.81a2.78 2.78 0 0 1-.186.584c-1.549 3.486-10.059 3.871-9.664-4.395a12.147 12.147 0 0 1 1.039-4.392c2.072-4.664 6.581-7.153 8.031-7.855-.601-.525-8.545 1.622-10.773 6.637a15.21 15.21 0 0 0-1.294 5.467c-.284 5.94 3.082 8.879 6.324 9.647 3.729.884 7.716-.825 9.078-3.891.173-.39.303-.799.386-1.215.444-2.225-.189-4.083-.747-5.722-.794-2.33-2.837-6.577-2.657-10.675z" fill="#740806"/><path d="M70.514 156.526c3.584-1.447-1.328-5.79-.907-11.714-6.018 9.158.907 11.714.907 11.714z" fill="#fff"/></g></g></g></svg>