<svg xmlns="http://www.w3.org/2000/svg" xml:space="preserve" width="512" height="512"><path fill="#626B7C" d="M60.6 39.6h384.7v265.7H60.6z"/><path fill="#4D5768" d="M76.8 228.2c-5.5-1.8-11-3.6-16.3-5.1v82.3h384.7V50c-8.3-6.6-14-10.3-14-10.3l-9.6 11.9c-.1-.1-108.3 255.2-344.8 176.6z"/><path fill="#FFC76A" d="M56.4 31h399.1v20.4H56.4zM56.4 293.9h399.1v20.4H56.4z"/><path fill="#FFC76A" d="M56.4 31.1h20.4v283.2H56.4zM435.1 31.1h20.4v283.2h-20.4z"/><path fill="#FFF" d="M128.2 288.9h-26.7c-.2 0-.4.2-.4.4v3c0 .2.2.4.4.4h26.7c.2 0 .4-.2.4-.4v-3c0-.2-.2-.4-.4-.4zM146.5 288.9H137c-.2 0-.4.2-.4.4v3c0 .2.2.4.4.4h9.5c.2 0 .4-.2.4-.4v-3c0-.2-.2-.4-.4-.4z"/><path fill="#2D2D39" d="M457 52.9V29.7H55v286.1h402v-23.2h-.1V52.9h.1zm-3 0v239.6h-17.5V52.9H454zm-20.3 0v239.6H78.2V52.9h355.5zM57.9 50V32.5h396.3V50H57.9zm0 242.5V52.9h17.5v239.6H57.9zm0 20.4v-17.5h396.3v17.5H57.9z"/><g><path fill="#FFF" d="M182.9 141.5c-1.9 1.5-3.6 2.9-5.5 4.4-2.2-3.1-4.4-6.2-6.7-9.3-3.1-4.2-10.1.2-6.8 4.6 2.4 3.2 4.7 6.6 7.1 10-2.9 2.2-5.6 4.6-8.5 6.8-4.1 3.4.4 10.2 4.6 6.8 2.9-2.4 5.7-4.6 8.6-7 3.6 5.5 7.2 10.9 10.7 16.5 2.9 4.5 9.7 0 6.8-4.6-3.6-5.8-7.3-11.4-11.1-17.2 1.7-1.4 3.5-2.9 5.4-4.2 4-3.3-.5-10.1-4.6-6.8z"/></g><g><path fill="#FFF" d="m395.6 246.7-12.5 23.6c-.1.2.1.5.3.6l3.6 1.9c.3.1.6.1.7-.1l12.5-23.6c.1-.2-.1-.5-.3-.6l-3.6-1.9c-.3-.1-.6-.1-.7.1z"/></g><g><g fill="#FDE7CF"><path d="m317.87 327.934.03.166a.939.939 0 0 0-.03-.166zM185.983 335.199l.017-.099a.68.68 0 0 0-.017.099z"/><path d="M319.1 459.5c8.489-40.249 6.405-89.675-1.272-131.74l.042.174c-3.191-17.822-6.57-32.034-6.57-32.034s.5 0 1.3-.1c-1.6-1.9-117-1.6-119-2.3-21 8.3-42.1 16.5-47.4 30.9-3.9 10.5 2.3 25.5 19.6 46.4-.7-.5-1.6-1.3-2.7-2.3-18.7 8 4.2 19.6 16.2 13.9.7-8.8 1.6-17.8 2.9-26.7-.8-4.1-5.3-9.5-7.4-11.2-1.9 1.6-2.9 2.2-4.5 3.1 4.1-4.2 15-14.7 16.6-16.4.278-1.204-.9 4.014-.917 3.999-7.682 41.867-7.976 83.933.517 124.301-15.3.9-19 9-19.1 15.5-.1 2.7 2 5 4.8 5.2 8.8.4 30 1.3 39.3-.3 11.8-2 13.8-6.5 15.8-13.8 1.799-6.63 13.141-35.076 16.29-42.91 1.792.247 9.042 1.235 18.167.062 3.458 8.42 15.173 36.428 16.943 42.948 2 7.2 4 11.8 15.8 13.8 9.6 1.6 30.6.7 39.3.3 2.7-.1 4.8-2.4 4.8-5.2-.7-6.6-4.1-14.5-19.5-15.6z"/></g><path fill="#FDE7CF" d="m330.6 282.1 25.1-6 17.5-8.2s11.5-7 15.1-4.9 4.3 8.7 4.3 8.7l-1.3 14.5s-4.8 10.2-4.9 10.6-10.1 12.1-10.1 12.1l-10.6 7.8-21.1 11-19.4 2.8-23.6-5.3 4.4-31.3 24.6-11.8z"/><path fill="#9D706B" d="M367.5 315.6c-.5-.3-.9-.5-1.3-.8 10.2-7.2 18.2-15.5 21.2-22.4 2.7-5.6 4-11.4 4.2-16.3-8 17-20 26.7-32.5 32-9-13.1-3.8-32.6-3.8-32.6 9.7-.4 21.8-12.1 28-12.9s7.7 4.1 7.7 4.1c10.6 25.4-23.5 48.9-23.5 48.9z"/><path fill="#8A5D58" d="M391.7 275.4c-.3 4.9-1.7 11.3-4.2 17-3.2 6.8-11.1 15.3-21.2 22.4-2.9-1.9-5.4-4.1-7.2-6.7 12.4-5.2 24.6-15.7 32.6-32.7z"/><path fill="#2D2D39" d="M389.5 293.4c-5.6 12.1-25.7 29.2-46.8 35.6-1.857.546-18.57 4.868-30.2-1.5 12.983 1.947 23.583 1.055 29.3-.6 20.4-6.2 39.9-22.7 45.4-34.4 5.3-11.4 5.7-23.6.9-27.6-3.6-2.9-8.9-.4-12.7 2.3-17.9 12.5-45.8 16.7-46.6 16.7l.1-2.4c.3 0 27.9-4.2 45.1-16.3 8.2-5.7 13-4.4 15.7-2.1 5.8 4.7 5.7 17.7-.2 30.3z"/><path fill="#9D706B" d="M186.338 458.145c-15.4 1.1-19.169 9.592-19.469 16.092-.1 2.7 2.026 5.62 4.826 5.82 8.5.4 30.504 1.443 39.804-.157 11.8-2 14.543-6.884 16.543-14.184 1.6-5.8 11.657-31.716 15.357-41.416-23.2-8.6-56.64-2.924-62.14-2.524.036.382.799 12.288 5.079 36.369zM294.217 479.803c-11.8-2-14.696-7.004-16.696-14.304-1.6-5.8-11.922-32.199-15.822-41.899 23.2-8.6 58.048-2.415 63.648-2.015-.009.102-2.531 19.567-5.892 36.368 5.153 0 18.853 3.146 19.457 16.24.1 2.7-2.2 5.722-5 5.922-8.499.501-30.495 1.288-39.695-.312z"/><path fill="#8A5D58" d="M296 471.4c10.7 3.6 39.9 6.1 39.3-5.6 2 2.7 2.7 5.7 2.8 8.5.1 2.7-2 5-4.8 5.2-8.8.4-30 1.3-39.3-.3-11.8-2-13.8-6.5-15.8-13.8-1.9-6.9-9-23.4-11.1-28.9l-4.1-12.1c0 .1 21.6 43.3 33 47zM209.2 471.4c-10.7 3.6-39.9 6.1-39.3-5.6-2 2.7-2.7 5.7-2.8 8.5-.1 2.7 1.796 5.557 4.596 5.757 8.8.4 30.309 1.476 39.609-.124 11.8-2 14.37-7.059 16.37-14.359 1.9-6.9 8.326-23.575 10.426-29.075l4.574-12.1c.099.101-22.075 43.301-33.475 47.001z"/><path fill="#E0BCA2" d="m188.7 323-19.753 26.027L186.9 331.8z"/><path fill="#9D706B" d="M152.7 354.2s14.3 3.2 26.3-5.4c0 0 4-1.2 3.7 9.3s-2.5 24.8-2.5 24.8c-13.012 2.772-22.809 1.512-25.5-10.6l7.3-6-9.3-12.1z"/><path fill="#8A5D58" d="M167 371.3s-6.5-.4-6.1 4 5.8 7.8 5.8 7.8-3.3.3-5.8-.5c-2.7-.8-4.5-5.8-4.5-5.8s-1.6-3.4-1.6-4.1 7.3-6 7.3-6l4.9 4.6z"/><path fill="#2D2D39" d="M181.6 379.8c-1.1 14.1-1.3 29.6.3 45.1.796 7.875 2.767 20.917 3.972 28.943.994 6.616 1.128 6.742 1.128 6.857-.125-.626-.497-1.342-1.998-6.724-1.213-4.347-2.176-8.796-3.002-13.176-5.7-30.6-3.3-62.6.1-85.6.3-1.5.5-2.9.7-4.4 1.1-6.2 2.1-11.7 3.1-15.9.025-.101 2.43-10.975 2.8-11.9-.3.5-6.4 47.8-7.1 56.8z"/><path fill="#2D2D39" d="M186.6 459.1c-15.3 1.1-18.8 8.9-18.9 15.3-.1 2.7 2 4.8 4.5 4.9 8.8.4 30 1.3 39.3-.3 11.7-2 13.7-6.5 15.7-13.7 2.1-7.6 15.3-41 15.8-42.5l1.9 1c-.1.4-13.7 34.6-15.8 42.2s-4.5 13.1-17.5 15.4c-4.1.7-10.5.9-17.1.9-8.1 0-16.6-.4-22.6-.7-3.8-.1-6.9-3.4-6.8-7.3.1-6 3.462-16.229 20.862-17.529l.638 2.329zM186.4 333.1c-4.1 4-12.3 13-18 16.4.5-.5 18.741-19.61 18.741-19.61s-.341 2.81-.741 3.21z"/><path fill="#2D2D39" d="M144.6 326.3c2.1-19 49.1-33.7 49.6-33.8l.7 2.3c-.4.1-44.6 15-47.9 32.1-2 10.3 5.8 24.7 12.3 34.2 4.1 6 7.6 10.2 7.7 10.2 0 0-25.3-19-22.4-45z"/><path fill="#2D2D39" d="M170.1 385.3c-4.8 0-10.2-1.3-14.1-6-1.9-2.4-2.5-4.8-1.9-6.9 1.3-4.4 7.3-6.2 7.6-6.4l1.6 1.9s-6 2-6.9 5.2c-.4 1.5 0 3.1 1.5 4.8 6.9 8.8 21.6 3.6 21.8 3.4l.8 2.1c-.3.4-5 1.9-10.4 1.9zM182.2 355.7c-1.1-5-8.2-11.3-8.3-11.3l1.5-1.9c.3.1 5.143 3.955 7.581 8.74l-.781 4.46zM260.6 423.8c.1.4 13.7 34.6 15.8 42.2 2.1 7.6 4.5 13.1 17.5 15.4 4.1.7 10.5.9 17.1.9 8.1 0 16.6-.4 22.6-.7 3.8-.1 6.9-3.4 6.8-7.3-.1-6-3.289-16.212-20.689-17.512L319 459.1c15.3 1.1 18.7 8.9 18.8 15.3.1 2.7-2 4.8-4.5 4.9-8.8.4-30 1.3-39.3-.3-11.7-2-13.7-6.5-15.7-13.7-2.1-7.6-15.3-41-15.8-42.5l-1.9 1z"/><path fill="#2D2D39" d="M241.133 421.916c-16.8-2.887-28.151-11.134-28.233-11.216 0 0 7.4 8.2 20.3 11.8 7.655 2.187 22.07 4.808 39.2 0 13-3.6 18.9-10.5 18.9-10.5-.168.252-11.065 7.845-28.124 10.207-5.499.761-13.326 1.207-22.043-.291zM318.85 329.27c7.161 28.021 11.867 70.704 4.75 111.53-1.3 6.8-2.9 13.4-5 19.9 8.816-42.296 6.839-89.988-.586-131.511l.836.081z"/><path fill="#9D706B" d="M256.5 399.1s-15 3.8-11 17.5l11 7.4s16.1 6.3 16.6 6.4 25.1 2.8 25.1 2.8l15.5-1.6 13.6-3.9 13-6s8.4-8.6 8.6-9 6.5-10.8 6.8-11c.3-.3 6.7-16.5 6.7-16.5l6.1-16.3s7.4-11.2 7.9-11.5c.6-.3 5.9-4.8 5.9-4.8l6.9-3.5s5.838-8.579.938-13.779c-5-5.1-12.438-3.421-12.438-3.421l-8.8 3.6-10.2 10.6-7.2 13-3.3 8.6-9.6 23.1L331 402l-9.2 6.2-16.7 4.2-14.9.5-16.7-3.9c0-.1-8.4-2.7-17-9.9z"/><path fill="#2D2D39" d="M242 414.3s5.1 3.6 18 9.6c9.6 4.4 22.4 8.2 38 7.7 46.9-1.6 54.9-24.4 62.8-46.5 4.5-12.5 8.7-24.3 19.1-32.3 1.9-1.4 3.8-2.3 5.7-3.1 4-1.6 6.3-6.1 5.3-10.3-1.1-4.8-5.9-7.8-10.8-6.8-19.3 3.5-26.2 21.8-32.8 39.5-6 16.2-12.3 32.9-28 37.9-19.8 5.9-35.7 3.7-46.9-.4-12.6-4.6-18.5-13.5-18.5-13.5.9 1 24.4 24 64.8 11.8 14.7-4.6 20.6-20.8 26.5-36.4 6.8-18.3 13.9-37.3 34.4-41 6.1-1.4 12 2.5 13.4 8.6 1.2 5.4-1.6 10.7-6.6 12.8-1.8.8-3.6 1.6-5.3 2.9-9.9 7.6-14 19.1-18.3 31.2-8.1 22.8-16.5 46.4-64.9 48.1-37.3.9-54.9-18.8-55.9-19.8z"/><g><path fill="#2D2D39" d="M373.5 202.2c-16.4 2.6-33 9.7-47.9 20.3 0 0 11.6-5.1 24-10.2 8.8-3.7 23.9-10.1 23.9-10.1zM383.6 218c-16.6 0-34.1 4.3-50.5 12.5 0 0 12.2-3.2 25.3-6.3 9.4-2.3 25.2-6.2 25.2-6.2zM382.6 240.8c-16.1-4.2-34.1-4.4-52-.6 0 0 12.6 0 26.1.2 9.6.3 25.9.4 25.9.4zM124.6 229.1c16.6-.9 34.3 2.4 51.1 9.6 0 0-12.4-2.5-25.6-4.9-9.5-1.6-25.5-4.7-25.5-4.7zM118 246.8c16.3-3.6 34.2-3.1 52 1.4 0 0-12.6-.5-26.1-.7-9.6-.3-25.9-.7-25.9-.7zM123.9 268.9c14.8-7.5 32.4-11.6 50.7-11.7 0 0-12.3 2.7-25.4 5.8-9.4 2.2-25.3 5.9-25.3 5.9z"/><path fill="#FDE7CF" d="M323.1 174.5v-.1c.397-2.382 7.201-31.699-1.2-50-7.174-15.942-18.866-29.667-21.6-32.4-.102.082-15.264 15.818-23.3 28.1-7.536 11.555-8.202 15.803-10 17.9.101 0-25.221-7.13-52.1 5.7.1 0-23.813-29.332-42.2-38-.404-.404-10.303 17.543-14.3 36.1-4.277 20.164 8.909 47.726 9.4 49.2v.1c-4.168 22.229-15.714 58.316-4.8 85.6 12.534 31.166 70.085 36.738 96.3 35.1 11.671-1.373 80.36-17.292 86.5-54.9 5.004-30.027-13.996-60.641-22.7-82.4z"/><path fill="#E0BCA2" d="m267 138.1 10 2.3c5-26.8 16.734-40.491 16.734-40.491l-.973-.66C274.174 119.737 267 138.1 267 138.1z"/><path fill="#2D2D39" d="m300.2 89.8-1 1c-26.2 25-33.1 46.4-33.4 47.4l2.9.9c.1-.2 6.7-21.1 31.5-45 5.7 5.8 33.2 36.4 21.4 77.8-.2.6-.4 1.3-.5 1.9.4.8.8 1.7 1.1 2.6l1.1.4c.1-.4.3-.8.4-1.2 16-49.3-22-84.4-22.4-84.8l-1.1-1z"/><path fill="#FFFAF5" d="M199 151.8c21.164-6.695 46.128-13.021 85.1-9.2-8.963-2.989-44.622-15.601-85.1 9.2z"/><path fill="#E0BCA2" d="m180.022 111.477.109.587s14.77 10.936 25.47 36.036l9.3-4.4c-.101 0-20.205-26.854-34.879-32.223zM346 257c-7.635 6.362-38.275 35.702-88.1 40.5-45.135 5.369-79.914-12.25-94.7-20.7 0 0-.1 0-.1-.1 12.754 32.593 73.041 36.574 96.4 35.2 20.479-2.56 80.66-19.494 86.5-54.9z"/><path fill="#2D2D39" d="M171.3 104.9c-.3.4-30 42.9-3.7 87.6.2.3.5.7.6 1.1l1-.6c.2-1 .3-1.9.5-2.8l-.9-1.8c-20.4-37.9-.1-73.7 4.2-80.6 29.3 18.1 40.2 37.1 40.4 37.2l2.7-1.5c-.5-.8-11.8-20.3-42.7-39.1l-1.2-.7-.9 1.2z"/><path fill="#2D2D39" d="M284.1 142.6c-7.294-3.039-16.96-6.307-28.25-7.348-21.526-1.985-39.389 4.642-56.85 16.548 20.601-6.867 30.27-15.399 56.523-13.4 6.76.515 16.086 1.702 28.577 4.2zM315.8 162.4c.413 1.032.849 1.437 7.872 17.326 3.266 7.388 7.234 16.457 11.128 25.974 5.4 13.5 10 28.6 10.5 42.5.8 22-16.9 36.3-33.4 44.7-7.271 3.761-33.39 20.308-77.5 17-3.676-.292-18.743-1.439-36.137-7.148-16.21-5.32-32.701-15.515-36.263-34.752-2.5-13.7-1.3-29.4 1.1-43.7 1.766-10.329 3.765-20.269 5.379-28.236 3.127-15.437 3.134-14.629 3.821-18.064-.038.1-3.098 7.946-5.917 17.713-5.386 18.659-12.032 48.594-7.683 72.987 3.8 20.9 21.6 31.7 38.7 37.2 6.4 2.3 19.4 6.2 36.4 7.5 16.351 1.274 47.156.883 79.387-17.531 16.837-9.62 35.804-23.369 35.013-47.769-.747-24.561-13.355-51.999-22.593-69.122-5.035-9.332-9.407-15.878-9.807-16.578z"/></g></g><g><path fill="#FFF" d="M114.1 143.9c4.1 0 8.3 1.7 11.3 4.9 5.2 5.6 6.8 14.3 4.5 24-1.7 7.2-5.5 13.9-9.1 20.4-.6 1.1-1.3 2.2-1.9 3.4-.8 1.5-1.7 3-2.5 4.5-1.7 2.9-3.4 5.9-5 9-2.4 4.6-3.3 8.6-2.7 12.1.1.8.6 1.4 1.3 1.7.7.3 1.5.2 2.2-.2 13.1-8.9 27.2-16.3 41.7-21.9.7-.3 1.1-.7 1.2-1.4.1-.8-.2-1.8-.9-2.3-.5-.4-1.2-.5-1.9-.2-12.6 5-24.7 11.1-35.9 18.2l-4 2.5 1.9-4.4c.5-1.3 1.2-2.5 1.8-3.7.3-.6.7-1.3 1-1.9 1.4-2.5 2.8-5 4.1-7.4 1.4-2.4 2.7-4.9 4.1-7.3 4.7-8.3 9.2-17.2 9.7-26.7.6-10.3-3.1-19.3-9.7-23.9-5.9-4.2-14.1-4.6-20.2-1.1-6.9 3.9-9 11.9-6.4 24 .4 1.7 2.1 2 3 1.8.7-.2 1.5-.6 1.2-2-1.2-5.9-3.1-15.7 4.1-20.2 2.2-1.3 4.6-1.9 7.1-1.9z"/></g><g fill="#FFF"><path d="M359.2 161.2c-3.3-.9-6.5-1.8-9.8-2.7-3.2-.9-6.5-1.8-9.8-2.7-1.3-.4-2 .5-2.2 1.2-.3.9 0 1.9 1.2 2.3 3.3.9 6.5 1.8 9.8 2.7 3.2.9 6.5 1.8 9.8 2.7.2 0 .3.1.5.1.9 0 1.5-.7 1.7-1.5.2-.8 0-1.8-1.2-2.1zM355.7 174.1c-3.2-.9-6.4-1.8-9.5-2.6l-.2-.1c-3.3-.9-6.5-1.8-9.9-2.7-.2 0-.4-.1-.5-.1-1 0-1.6.8-1.8 1.5-.2.8 0 1.8 1.3 2.1 3.3.9 6.5 1.8 9.7 2.7l.3.1c3.2.9 6.3 1.8 9.6 2.6.2 0 .3.1.5.1.9 0 1.5-.7 1.7-1.5.2-.8 0-1.8-1.2-2.1z"/></g><g><path fill="#FFF" d="M397.1 130.1h-.5c-.6.1-1.5.5-1.9 1.7-6.7 17.8-12.7 34.3-18.2 50.4-.1.3-.2.7-.4 1-1.3 3.6-2 6.1 0 8.1 1.6 1.6 4.4 2.3 7 3.1 1.1.3 2.2.6 3.2 1l7.2 2.4c1.6.5 3.2 1.1 4.9 1.6.4.1.9.3 1.4.4 1.4.5 2.8.9 4 1.1l1.7.2-.4 1.6c-1.9 8.9-4 17.9-6.3 27.4-.5 2.1 1.1 3.3 2.4 3.6.6.1 2.1.3 2.5-1.5 5.5-22.4 10.5-45.7 14.8-69.1.1-.5-.2-1-.4-1.3-.5-.7-1.4-1.2-2.2-1.3h-.1c-1.9 0-2.5 1.9-2.7 2.7-1.8 9.7-3.9 20-6.3 31.5l-.3 1.2-1.3-.1c-1.7-.1-3.5-.8-5-1.4-.7-.3-1.4-.5-2-.7-2.2-.7-4.3-1.4-6.4-2.2-1.3-.5-2.7-.9-4-1.4-1.7-.5-3.3-1.1-5.4-1.9-.3-.1-.6-.2-1.2-.5l-1.3-.7.7-1.3c.4-.7.6-1.7.9-2.6.2-.6.3-1.2.5-1.8.7-2.1 1.3-3.9 1.9-5.6 4.1-11.7 9.6-27.2 15.6-42.6.3-.9.2-1.6-.3-2.2-.3-.4-1.2-.8-2.1-.8z"/></g></svg>