<svg height="512" viewBox="0 0 60 54" width="512" xmlns="http://www.w3.org/2000/svg"><g id="068---Tired" fill="none"><path id="Path" d="m28.758 53.4c-.2235188.0002724-.4200664-.14784-.4814104-.3627764-.0613441-.2149364.0274191-.4444779.2174104-.5622236l1.706-1.065-3.121 1.8c-.1530883.0921745-.3437223.0956757-.5000919.0091846s-.2547187-.2498344-.258-.4285c-.0032813-.1786657.0890036-.3455101.2420919-.4376846l7.454-4.665-9.054 5.228c-.2362075.133071-.5354329.0536509-.6745599-.1790411-.1391271-.2326919-.0674613-.5338687.1615599-.6789589l4.6-2.835-5.84 3.377c-.2372063.141661-.544339.0642063-.686-.173s-.0642063-.544339.173-.686l6.459-3.983-7.627 4.4c-.2358358.1260453-.529101.0442222-.6656159-.1857118-.1365149-.2299339-.0679517-.5265795.1556159-.6732882l1.967-1.2-2.828 1.631c-.2357179.1278172-.530297.0469384-.667702-.1833224-.137405-.2302607-.0687118-.5279174.155702-.6746776l9.774-6.028-10.92 6.304c-.2358358.1260453-.529101.0442222-.6656159-.1857118-.1365149-.2299339-.0679517-.5265795.1556159-.6732882l4.532-2.761-5.287 3.051c-.2350866.127347-.5287583.0472199-.6665908-.1818764-.1378325-.2290964-.071048-.5260868.1515908-.6741236l18.928-11.889-20.412 11.785c-.2358358.1260453-.529101.0442222-.6656159-.1857118-.1365149-.2299339-.0679517-.5265795.1556159-.6732882l10.844-6.644-11.633 6.716c-.2349709.1292146-.5300387.050062-.6687925-.179405-.1387537-.2294671-.0717837-.5275361.1517925-.675595l21.98-13.826-23.328 13.466c-.2357179.1278172-.530297.0469384-.667702-.1833224-.137405-.2302607-.0687118-.5279174.155702-.6746776l16.84-10.395-17.662 10.2c-.2370186.1320316-.5360843.0509486-.6739531-.1827228-.13786884-.2336714-.06422739-.5346559.1659531-.6782772l6.792-4.118-7.27 4.2c-.23508655.127347-.52875831.0472199-.66659082-.1818764-.13783251-.2290964-.071048-.5260868.15159082-.6741236l22.145-13.829-22.982 13.266c-.23473446.1238045-.5252986.0426548-.6619149-.1848618-.13661629-.2275167-.07168534-.5221296.1479149-.6711382l23.139-14.474-24.025 13.87c-.23620749.133071-.53543293.0536509-.67455995-.1790411-.13912701-.2326919-.06746125-.5338687.16155995-.6789589l17.929-11.048-18.357 10.6c-.23693016.1419372-.54406281.0649301-.68599999-.172-.14193717-.2369302-.06493016-.5440628.17199999-.686l20.538-12.735-21.029 12.14c-.23628449.1306359-.5336041.0500916-.67163931-.181948s-.06692381-.5317553.16063931-.677052l14.257-8.724-14.492 8.366c-.23693016.1419372-.54406281.0649301-.68599999-.172-.14193718-.2369302-.06493016-.5440628.17199999-.686l20.68-12.845-20.93 12.084c-.2372063.1413849-.54411508.0637063-.68549997-.1735s-.06370631-.5441151.17349997-.6855l14.768-9.059-14.88 8.59c-.23508655.127347-.52875831.0472199-.66659082-.1818764-.13783251-.2290964-.071048-.5260868.15159082-.6741236l21.204-13.242-21.259 12.274c-.23571786.1278172-.53029699.0469384-.66770199-.1833224-.13740501-.2302607-.06871185-.5279174.15570199-.6746776l14.1-8.665-13.987 8.072c-.23473446.1238045-.5252986.0426548-.6619149-.1848618-.13661629-.2275167-.07168534-.5221296.1479149-.6711382l18.617-11.607-18.461 10.655c-.23560872.1297647-.5316571.04988-.67000668-.1807924-.13834958-.2306723-.06941665-.5294607.15600668-.6762076l15.334-9.507-14.976 8.649c-.23637787.1427656-.54373437.0668778-.68649997-.1695-.1427656-.2363779-.06687788-.5437344.16949997-.6865l19.744-12.5-19.352 11.171c-.2372063.1413849-.5441151.0637063-.6855-.1735s-.0637063-.5441151.1735-.6855l14.129-8.828-13.473 7.777c-.2372063.1413849-.5441151.0637063-.6855-.1735s-.0637063-.5441151.1735-.6855l5.231-3.21-4.575 2.639c-.23617349.1361818-.537908.0580681-.67833183-.1756081-.14042384-.2336761-.06777082-.5367718.16333183-.6813919l9.133-5.686-8.205 4.738c-.2337129.1170028-.51810632.0342645-.65257722-.1898537-.1344709-.2241181-.07364309-.5139892.13957722-.6651463l6.644-4.134-5.679 3.276c-.23470287.1405531-.53878699.0663884-.6824238-.1664401-.14363681-.2328284-.07348967-.5378644.1574238-.6845599l13.879-9.117-12.2 7.045c-.23477127.1336383-.53323995.0566316-.67405087-.1739091-.14081092-.2305408-.07304023-.5312411.15305087-.6790909l7.329-4.735-5.441 3.139c-.23424781.1308833-.53004345.0535271-.67022619-.1752769-.14018273-.228804-.07476503-.527467.14822619-.6767231l4-2.606-1.7.978c-.22920156.1303039-.52019781.0602449-.66497921-.1600976-.14478139-.2203425-.09359105-.5152436.11697921-.6739024l5.073-3.765c-.2056654-.0381138-.3658716-.20021856-.4015599-.40631864-.0356883-.20610007.0606843-.41263407.2415599-.51768136l6.361-3.667c.2292016-.13030393.5201978-.0602449.6649792.1600976.1447814.22034249.0935911.51524355-.1169792.6739024l-4.238 3.141 10.25-5.918c.2342478-.13088329.5300435-.05352709.6702262.17527691.1401827.22880401.074765.52746697-.1482262.67672309l-4.006 2.61 6.65-3.839c.2347713-.13363828.5332399-.05663158.6740509.17390914.1408109.23054072.0730402.5312411-.1530509.67909086l-7.32 4.73 9.925-5.73c.2333291-.12696636.5252099-.04931787.6646076.17680427.1393976.22612213.0776459.5217747-.1406076.67319573l-13.884 9.122 16.871-9.739c.2369302-.14193718.5440628-.06493016.686.172s.0649302.54406282-.172.686l-6.637 4.13 8.033-4.638c.2356087-.12976469.5316571-.04987998.6700067.18079237.1383496.23067236.0694166.52946069-.1560067.67620763l-9.125 5.681 10.618-6.13c.2353357-.12402605.5265799-.04207.6626998.18648356s.0694507.52367252-.1516998.67151644l-5.242 3.218 6.245-3.6c.2350866-.12734701.5287583-.04721993.6665908.18187644.1378325.22909636.071048.52608673-.1515908.67412356l-14.144 8.833 15.645-9.029c.2349709-.12921461.5300387-.05006202.6687925.17940502.1387537.22946704.0717837.52753611-.1517925.67559498l-19.737 12.5 21.42-12.366c.2356087-.12976469.5316571-.04987998.6700067.18079237.1383496.23067236.0694166.52946069-.1560067.67620763l-15.324 9.494 16.449-9.5c.2356087-.12976469.5316571-.04987998.6700067.18079237.1383496.23067236.0694166.52946069-.1560067.67620763l-18.628 11.62 19.815-11.439c.2357179-.12781718.530297-.04693838.667702.18332235.137405.23026074.0687118.52791741-.155702.67467765l-14.085 8.658 14.885-8.593c.2350866-.12734701.5287583-.04721993.6665908.18187644.1378325.22909636.071048.52608673-.1515908.67412356l-21.209 13.243 22.27-12.86c.2353357-.12402605.5265799-.04207.6626998.18648356s.0694507.52367252-.1516998.67151644l-14.76 9.056 15.37-8.873c.2352087-.12562801.5276152-.04456942.664573.18422757.1369579.22879699.070267.52481121-.151573.67277243l-20.68 12.85 21.436-12.376c.2362845-.1306359.5336041-.0500916.6716393.181948s.0669238.5317553-.1606393.677052l-14.261 8.728 14.766-8.525c.2362075-.133071.5354329-.0536509.6745599.1790411.1391271.2326919.0674613.5338687-.1615599.6789589l-20.538 12.734 21.03-12.14c.2357179-.1278172.530297-.0469384.667702.1833224.137405.2302607.0687118.5279174-.155702.6746776l-17.944 11.056 18.348-10.591c.2347345-.1238045.5252986-.0426548.6619149.1848618.1366163.2275167.0716853.5221296-.1479149.6711382l-23.136 14.47 23.567-13.607c.2350866-.127347.5287583-.0472199.6665908.1818764.1378325.2290964.071048.5260868-.1515908.6741236l-22.149 13.828 22.449-12.96c.2377586-.1405564.5444435-.0617585.685.176.1405564.2377586.0617586.5444435-.176.685l-6.777 4.109 6.743-3.893c.2372063-.141661.5443389-.0642063.686.173.141661.2372063.0642063.544339-.173.686l-16.837 10.393 16.758-9.675c.2355125-.13196.5332497-.0531389.6726204.1780652.1393708.2312042.0700423.5312938-.1566204.6779348l-21.974 13.824 22-12.7c.2358358-.1260453.529101-.0442222.6656159.1857118.1365149.2299339.0679517.5265795-.1556159.6732882l-10.847 6.645 10.516-6.071c.2355125-.13196.5332497-.0531389.6726204.1780652.1393708.2312042.0700423.5312938-.1566204.6779348l-18.942 11.9 18.608-10.747c.2369888-.1350471.5384839-.055235.6776156.1793791.1391316.2346142.0645535.5374465-.1676156.6806209l-4.5 2.744 4.07-2.35c.2372063-.141661.544339-.0642063.686.173s.0642063.544339-.173.686l-9.765 6.022 9.131-5.271c.2362845-.1306359.5336041-.0500916.6716393.181948s.0669238.5317553-.1606393.677052l-1.997 1.214 1.384-.8c.2362075-.133071.5354329-.0536509.6745599.1790411.1391271.2326919.0674613.5338687-.1615599.6789589l-6.46 3.984 5.652-3.263c.2372063-.141661.544339-.0642063.686.173s.0642063.544339-.173.686l-4.572 2.823 3.712-2.143c.2361735-.1361818.537908-.0580681.6783318.1756081.1404239.2336761.0677709.5367718-.1633318.6813919l-7.457 4.666 6.326-3.652c.2362075-.133071.5354329-.0536509.6745599.1790411.1391271.2326919.0674613.5338687-.1615599.6789589l-1.711 1.06.585-.337c.2355494-.1441463.5433537-.0700494.6875.1655s.0700494.5433537-.1655.6875l-8.168 5.274 6.343-3.662c.2347713-.1336383.5332399-.0566316.6740509.1739091.1408109.2305408.0730402.5312411-.1530509.6790909l-4.038 2.607 1.944-1.122c.2327682-.1379387.5330334-.0656905.677577.1630348s.0809181.5309351-.143577.6819652l-4.278 2.939.8-.462c.23893-.1358451.5427102-.0533708.6801373.1846528.137427.2380237.0569695.5423443-.1801373.6813472l-11.83 6.832c-.2324067.1328499-.5282158.0590851-.6710333-.1673329s-.0819688-.5251514.1380333-.6776671l4.285-2.945-8.311 4.8c-.2338963.1269547-.5262491.04845-.6650871-.1785941-.1388379-.227044-.0755015-.5230536.1440871-.6734059l4.028-2.6-6.338 3.66c-.2347713.1336383-.5332399.0566316-.6740509-.1739091-.1408109-.2305408-.0730402-.5312411.1530509-.6790909l8.164-5.272-10.708 6.177c-.0755201.0456395-.1617733.0704804-.25.072z" fill="#fccb55"/><path id="Path" d="m40.772 42.432c-.1561565-.0002215-.3032426-.0733871-.3976259-.1977925s-.1252242-.2857632-.0833741-.4362075l.3-1.063-1.9 1.1c-.2046318.1173741-.4634625.0757527-.6209807-.0998572-.1575183-.17561-.1708642-.4374259-.0320193-.6281428l.831-1.13-2.573 1.485c-.2167987.1191224-.4881174.0618073-.638215-.1348206s-.1338516-.473458.038215-.6511794l1.2-1.2-3.013 1.739c-.2208144.1342809-.5075757.0781561-.6614736-.1294633s-.1242133-.4983097.0684736-.6705367l2.171-2.047-4.746 2.74c-.2302873.1343427-.5254749.0643663-.6709518-.1590541-.1454768-.2234204-.0900639-.5216852.1259518-.6779459l.224-.163-1.8 1.039c-.2234866.1250979-.5053669.0610931-.6529133-.148253-.1475465-.209346-.1130458-.4963352.0799133-.664747l4.216-3.58-8.174 4.719c-.2328603.1351428-.5309189.0616362-.6742423-.1662803-.1433233-.2279164-.080443-.5283964.1422423-.6797197l1.176-.8-3.807 2.187c-.2304184.1322364-.5240189.0611893-.6684864-.1617642-.1444674-.2229535-.0893536-.5199576.1254864-.6762358l5.421-3.912-7.478 4.321c-.2330829.1306613-.5277074.0549657-.6689423-.1718661-.1412349-.2268319-.0791592-.5246238.1409423-.6761339l2.193-1.471-.938.541c-.2321092.1290838-.5246372.0541763-.6661393-.170578-.1415021-.2247542-.0825963-.5209195.1341393-.674422l1.529-1.047c-.2270077.0694241-.4715375-.0303403-.5851934-.2387498s-.0651031-.4680061.1161934-.6212502l3.345-2.833c-.1965336-.050815-.3428384-.215412-.3702561-.4165485-.0274178-.2011365.0694939-.3988873.2452561-.5004515l3.867-2.233c.2241703-.1280952.5090066-.0644456.6573283.1468868.1483216.2113324.1113468.5008421-.0853283.6681132l-2.733 2.313 6.147-3.548c.2321092-.1290838.5246372-.0541763.6661393.170578.1415021.2247542.0825963.5209195-.1341393.674422l-1.386.95 2.563-1.479c.232368-.1256461.5223842-.0488566.6621282.1753162.1397441.2241727.0809951.5183743-.1341282.6716838l-2.194 1.473 3.129-1.809c.2298251-.1278768.5194281-.0558458.6625685.1647961s.0908781.5144564-.1195685.6722039l-5.422 3.913 6.6-3.81c.2333482-.1425022.537887-.0711396.6836338.1601958.1457468.2313355.0786439.5368412-.1506338.6858042l-1.173.8 1.632-.942c.2234866-.1250979.5053669-.0610931.6529133.148253.1475465.209346.1130458.4963352-.0799133.664747l-4.215 3.581 5.1-2.944c.2302873-.1343427.5254749-.0643663.6709518.1590541.1454768.2234204.0900639.5216852-.1259518.6779459l-.223.162.369-.213c.2208144-.1342809.5075757-.0781561.6614736.1294633s.1242133.4983097-.0684736.6705367l-2.17 2.041 2.579-1.489c.2167987-.1191224.4881174-.0618073.638215.1348206s.1338516.473458-.038215.6511794l-1.2 1.2 1.36-.785c.2048731-.1183073.4646227-.0768354.6224712.0993845s.1705878.4389507.0305288.6296155l-.831 1.129.892-.514c.1757224-.1014598.3953377-.0866602.5558586.0374584.160521.1241187.2301131.3329413.1761414.5285416l-.3 1.064.071-.041c.1547852-.0907422.3463247-.0915917.5019087-.0022259.155584.0893657.2513568.2552442.2509624.4346667-.0003945.1794226-.0968957.3448784-.2528711.4335592l-1.131.651c-.0721932.0429564-.1540459.0670307-.238.07z" fill="#ce9549"/><path id="Path" d="m38.4 36.1c-.1628898-.0001394-.3155013-.0796167-.409-.213l-.713-1.019-1.466.847c-.1677227.0973711-.3766239.0889699-.5359858-.0215553s-.2404357-.3032357-.2080142-.4944447l.214-1.26-2.65 1.53c-.1903698.1103241-.4304867.0832351-.5914918-.0667297-.1610051-.1499647-.2050541-.387556-.1085082-.5852703l.833-1.709-4.048 2.337c-.2050606.1181262-.4648513.0763143-.6224934-.1001867-.157642-.1765011-.1699563-.4393467-.0295066-.6298133l1.435-1.939-5.15 2.973c-.2046858.1184914-.4643967.0773602-.6224526-.0985797-.1580559-.1759398-.1712186-.438558-.0315474-.6294203l1.389-1.894-1.8 1.042c-.2374252.1242009-.5305531.0391619-.6646466-.1928199-.1340935-.2319817-.0614797-.5284321.1646466-.6721801l3.865-2.232c.2048731-.1183073.4646227-.0768354.6224712.0993845s.1705878.4389507.0305288.6296155l-1.389 1.893 5.174-2.986c.2050046-.1170078.4639131-.074707.6210179.1014628s.1696047.4382131.0299821.6285372l-1.439 1.938 3.38-1.951c.1901693-.109811.4297302-.0826879.5905348.0668604s.2052111.3865148.1094652.5841396l-.833 1.71 2.153-1.243c.1676692-.0967667.3761307-.08805.5351363.0223765.1590055.1104264.2399785.3027167.2078637.4936235l-.213 1.258.943-.544c.2243331-.1293129.5102759-.0659629.659.146l.734 1.049c.2365546-.0320693.4627847.1075561.5401696.3333837s-.0156627.4748607-.2221696.5946163l-.235.136c-.0756179.0440691-.161479.0675171-.249.068z" fill="#fff"/><g fill="#262626"><path id="Shape" d="m7.523 9.788c-8.12727536 8.1889011-9.47161546 20.925827-3.233 30.631 6.656 10.2 19.68 14.6 31.4 12.514 12.921-2.3 23.674-12.505 24.043-26.011-.717-26.022-35.543-34.322-52.21-17.134zm21.3 42.726c-13.77-.514-27.068-11.132-27.095-25.592-.028-15.494 14.841-26.073 29.449-25.436 14.057.613 26.7 11.068 27.1 25.592-.43 15.532-14.484 25.998-29.454 25.436z"/><path id="Shape" d="m42.637 40.405c-.0031519-.0644721-.0337216-.1245196-.084-.165-.8119064-1.6820183-1.8130455-3.2659251-2.984-4.721.026-.06-.017-.107-.122-.14-2.641-3.152-6.168-5.289-10.7-4.712-2.5134266.3324201-4.8540196 1.4620593-6.678 3.223-1.339 1.248-5.639 5.622-4.74 7.59.46 1.006 1.059.812 2.013.885 1.548.117 3.6-.781 5.212-.959 2.7998234-.299559 5.620244-.3574395 8.43-.173 1.779.111 9.44 2.992 9.628-.595.0477056-.0682528.0571398-.1561801.025-.233zm-18.895-6.6c5.148-3.929 9.957-2.273 13.5 1.306-5.0341779-.4975142-10.1074382-.4482267-15.131.147.510016-.5202164 1.0549494-1.00501 1.631-1.451zm9.79 6.533c-3.7335594-.25648-7.4841967-.0857067-11.179.509-1.492.254-2.257 1.013-2.686-.594-.351-1.314.622-2.938 1.794-4.288 5.5108395-.6750284 11.0838868-.6679752 16.593.021 1.247544 1.459786 2.3009563 3.0748614 3.134 4.805.029.726-7.029-.412-7.656-.451z"/><path id="Path" d="m22.672 15.006c.361-.525-1.085-.39-1.344-.012-1.733419 2.752839-5.0576652 4.0557813-8.2 3.214-.442-.1-1.7.575-.894.761 3.9664569 1.0043199 8.1375382-.5793164 10.438-3.963z"/><path id="Path" d="m47.234 18.252c-3.3136397.769229-6.7504738-.6478276-8.559-3.529-.257-.373-1.663.1-1.35.554 2.2300097 3.2572391 6.2915162 4.7258065 10.089 3.648.874-.202.692-.874-.18-.673z"/><path id="Path" d="m15.724 22.806c-.275-.476-1.667.011-1.448.388 2.508 4.338 8.934 4.076 11.4-.184.334-.576-1.112-.425-1.346-.02-.8962119 1.5514006-2.5661713 2.4916266-4.3574202 2.4533289-1.791249-.0382977-3.4194958-1.0490407-4.2485798-2.6373289z"/><path id="Path" d="m45.672 23.005c.326-.565-1.116-.4-1.344-.01-.8962468 1.5501767-2.5657303 2.4890853-4.3559142 2.4497428-1.7901838-.0393424-3.4168071-1.0506887-4.2440858-2.6387428-.268-.465-1.658.026-1.448.388 2.5 4.332 8.934 4.061 11.392-.189z"/><path id="Path" d="m16.293 35.629c-.3583759-.0086566-.7050085.1280487-.961.379-1.3058948 1.4131583-2.0388401 3.2619202-2.056 5.186-.009.367 1.436.129 1.448-.388.031065-1.7897166.7235639-3.5045778 1.944-4.814.25-.255-.215-.353-.375-.363z"/><path id="Path" d="m43.327 36.283c1.2371695 1.3380515 1.9319498 3.0887268 1.949 4.911.01.452 1.462.171 1.448-.388-.0319364-1.8913726-.7624956-3.7040571-2.051-5.089-.353-.359-1.727.183-1.346.566z"/></g></g></svg>