<svg height="512" viewBox="0 0 321 321" width="512" xmlns="http://www.w3.org/2000/svg"><circle cx="160.5" cy="160.5" fill="#d0df92" r="150.2"/><path d="M155.485 238.532c-1.275 3.974-1.287 8.106-.417 11.923.651 2.872 1.782 5.595 3.26 8.134 2.22 3.808 5.218 7.217 8.768 10.106a41.324 41.324 0 0 0 12.189 6.856c4.512 1.602 9.442 2.439 14.54 2.174a35.306 35.306 0 0 0 11.542-2.583c5.729-2.332 11.199-6.312 15.962-11.981 4.772-5.674 8.874-13.012 12.146-22.231 2.48-6.992 4.489-15.077 5.938-24.406.644-4.146 1.556-7.734 2.646-10.806 1.47-4.143 3.259-7.339 5.145-9.752 2.842-3.619 5.843-5.509 8.718-6.398 2.88-.875 5.727-.751 8.353.174a13.922 13.922 0 0 1 6.099 4.316c1.646 2.019 2.834 4.56 3.275 7.663a7.001 7.001 0 0 0 13.863-1.955c-.785-5.592-3.042-10.595-6.303-14.573a27.92 27.92 0 0 0-12.253-8.645 27.206 27.206 0 0 0-11.3-1.484c-5.84.46-11.75 2.89-16.767 7.278-5.032 4.387-9.168 10.64-12.023 18.693-1.415 3.988-2.523 8.425-3.287 13.341-1.335 8.601-3.158 15.846-5.297 21.872-2.508 7.069-5.447 12.453-8.51 16.458-2.3 3.007-4.663 5.243-7.011 6.895-3.527 2.471-7.02 3.672-10.505 4.052-3.479.371-6.981-.121-10.29-1.294a27.306 27.306 0 0 1-7.247-3.906c-3.245-2.431-5.736-5.491-7.045-8.346-.661-1.427-1.036-2.788-1.161-4.005-.123-1.223-.015-2.292.307-3.306a7 7 0 0 0-13.335-4.264z" fill="#fbb807"/><path d="M287.511 199.766c-.785-5.592-3.042-10.595-6.303-14.573a27.92 27.92 0 0 0-12.253-8.645 27.206 27.206 0 0 0-11.3-1.484c-5.84.46-11.75 2.89-16.767 7.278l-.083.078c3.502 3.077 6.655 6.546 9.454 10.338 1.889-1.61 3.801-2.615 5.661-3.19 2.88-.875 5.727-.751 8.353.174a13.922 13.922 0 0 1 6.099 4.316c1.646 2.019 2.834 4.56 3.275 7.663a7.001 7.001 0 0 0 13.864-1.955z" fill="#fffcc8"/><path d="M259.842 174.975c3.141 0 6.223.546 9.113 1.572a27.911 27.911 0 0 1 12.253 8.645c3.261 3.979 5.518 8.981 6.303 14.573a7 7 0 0 1-13.863 1.955c-.441-3.104-1.629-5.645-3.275-7.663a13.902 13.902 0 0 0-6.099-4.316 13.307 13.307 0 0 0-4.428-.767c-1.289 0-2.604.191-3.925.593-2.875.89-5.876 2.779-8.718 6.398-1.886 2.413-3.675 5.609-5.145 9.752-1.09 3.071-2.002 6.66-2.646 10.806-1.449 9.329-3.458 17.414-5.938 24.406-3.272 9.22-7.374 16.558-12.146 22.231-4.763 5.67-10.233 9.649-15.962 11.981a35.306 35.306 0 0 1-13.41 2.632c-4.433 0-8.714-.817-12.672-2.223a41.321 41.321 0 0 1-12.189-6.856c-3.55-2.89-6.548-6.299-8.768-10.106-1.478-2.539-2.608-5.262-3.26-8.134-.87-3.816-.858-7.949.417-11.923a7 7 0 1 1 13.335 4.264c-.321 1.014-.43 2.083-.307 3.306.125 1.217.5 2.578 1.161 4.005 1.309 2.854 3.8 5.915 7.045 8.346a27.306 27.306 0 0 0 7.247 3.906c2.58.915 5.278 1.416 7.991 1.416.766 0 1.533-.04 2.299-.122 3.485-.38 6.978-1.581 10.505-4.052 2.348-1.651 4.711-3.888 7.011-6.895 3.063-4.005 6.002-9.389 8.51-16.458 2.139-6.026 3.962-13.271 5.297-21.872.764-4.916 1.872-9.353 3.287-13.341 2.855-8.054 6.991-14.307 12.023-18.693 5.017-4.389 10.927-6.818 16.767-7.278.732-.058 1.46-.088 2.187-.088m0-3c-.807 0-1.624.033-2.428.098-6.716.528-13.115 3.299-18.5 8.011-5.572 4.856-9.905 11.569-12.877 19.949-1.495 4.214-2.646 8.885-3.423 13.882-1.243 8.008-2.979 15.185-5.16 21.33-2.236 6.303-4.95 11.564-8.066 15.639-1.97 2.576-4.107 4.684-6.354 6.264-2.877 2.015-5.856 3.168-9.104 3.522a18.66 18.66 0 0 1-1.974.104c-2.311 0-4.662-.419-6.988-1.244a24.375 24.375 0 0 1-6.445-3.475c-2.733-2.047-4.963-4.67-6.122-7.199-.498-1.074-.809-2.128-.904-3.061-.079-.785-.021-1.451.182-2.093a9.921 9.921 0 0 0-.639-7.62 9.934 9.934 0 0 0-5.843-4.943 10.004 10.004 0 0 0-3.047-.477 9.966 9.966 0 0 0-9.523 6.956c-1.362 4.246-1.53 8.916-.484 13.503.691 3.048 1.899 6.068 3.591 8.976 2.372 4.066 5.557 7.741 9.468 10.924a44.129 44.129 0 0 0 13.078 7.357c4.479 1.589 9.08 2.396 13.677 2.396a38.288 38.288 0 0 0 14.545-2.855c6.399-2.605 12.162-6.922 17.124-12.829 5.116-6.082 9.382-13.874 12.677-23.157 2.597-7.318 4.641-15.712 6.075-24.949.585-3.767 1.429-7.22 2.509-10.264 1.259-3.546 2.833-6.543 4.681-8.908 2.19-2.788 4.56-4.55 7.241-5.379a10.466 10.466 0 0 1 3.038-.459 10.3 10.3 0 0 1 3.431.597 10.881 10.881 0 0 1 4.773 3.386c1.403 1.721 2.288 3.804 2.628 6.187.69 4.901 4.944 8.601 9.893 8.601.468 0 .94-.033 1.405-.1 5.46-.77 9.275-5.838 8.506-11.298-.839-5.977-3.243-11.529-6.953-16.057a30.901 30.901 0 0 0-13.57-9.569 30.142 30.142 0 0 0-10.118-1.746z" fill="#740806"/><g><g fill="#fbb807"><path d="M24.778 151.036v-.002zM53.299 131.434l.003.001.005.002z"/><path d="M265.627 161.04a30.682 30.682 0 0 0-2.421-3.432c-.328-.405-.6-.726-.778-.942a5.516 5.516 0 0 1-.124-.153c-.274-.948-2.485-8.144-8.82-15.703-6.751-8.066-18.264-16.516-36.935-18.029-4.693-.398-9.721-.56-14.761-.56-9.601 0-19.244.588-26.667 1.265-3.712.339-6.867.7-9.191 1.023a61.144 61.144 0 0 0-2.837.45 15.78 15.78 0 0 0-.915.198 3.475 3.475 0 0 0-.61.208l-.001-.002h-.002a3.991 3.991 0 0 1-.422.074c-.861.118-2.649.246-5.063.383-8.47.485-24.821 1.144-39.989 2.675-7.587.766-14.878 1.75-20.774 3.049-2.949.651-5.549 1.379-7.681 2.213-2.131.84-3.802 1.763-4.904 2.942l-.003.004-.002.002c-3.765 4.126-5.854 8.416-7.015 12.143a9.668 9.668 0 0 0-1.253-1.968c-1.572-1.912-4.023-3.532-7.569-4.747l-1.646-.564.665 3.325a31.467 31.467 0 0 0-1.385-2.233c-1.721-2.533-3.901-5.091-5.94-7.135-1.021-1.022-2.005-1.915-2.892-2.614-.894-.698-1.655-1.207-2.393-1.474a14.806 14.806 0 0 0-5.061-.887c-3.027.001-5.946.901-8.624 2.319-4.017 2.131-7.515 5.423-10.123 8.785-1.303 1.682-2.383 3.383-3.188 4.981-.804 1.6-1.338 3.088-1.528 4.403a43.87 43.87 0 0 0-.46 6.292c-.001 7.595 2.068 14.458 5.571 20.442 5.257 8.979 13.71 15.989 23.267 20.766 9.561 4.775 20.238 7.326 30.034 7.328 5.095 0 9.954-.691 14.294-2.138 1.523-.508 3.089-1.285 4.701-2.303.221.975.471 1.941.704 2.915-11.634 4.142-19.442 8.938-24.391 14.107-5.072 5.289-7.107 11.008-7.099 16.577.001 4.851 1.509 9.566 3.73 13.904 3.335 6.508 8.286 12.195 12.403 16.279a89.2 89.2 0 0 0 5.554 5.063c-9.638 1.328-15.632 4.602-19.224 8.624-3.881 4.344-4.875 9.444-4.872 13.522 0 2.178.279 4.081.557 5.47.139.694.278 1.26.382 1.662l.122.467.015.061v.95l58.019-2.599-.241-1.151-.008-.037c-.084-.418-.816-4.255-.815-9.805-.001-5.442.705-12.524 3.386-19.648 2.654-7.045 7.224-14.125 14.981-19.797.771.032 1.544.056 2.321.056 7.398-.001 15.069-1.448 22.363-3.979 10.587 5.485 16.726 13.214 20.266 21.132 3.576 8.007 4.466 16.212 4.465 22.339 0 2.96-.207 5.433-.412 7.159-.103.863-.205 1.54-.282 1.998-.038.229-.07.403-.091.519l-.025.129-.008.038-.239 1.15 57.858 2.592.14-.837.064-.221a27.676 27.676 0 0 0 1.104-7.626c.003-4.075-1.005-9.15-4.89-13.458-3.594-3.987-9.578-7.219-19.173-8.513a88.398 88.398 0 0 0 9.847-9.654c2.931-3.38 5.872-7.354 8.093-11.695 2.219-4.339 3.726-9.056 3.727-13.906.011-5.982-2.34-12.13-8.268-17.741-5.926-5.62-15.379-10.762-29.698-15.045v.001a14.926 14.926 0 0 0-1.028-.287c.031-.49.053-.982.053-1.476 0-2.359-.365-4.75-1.13-7.085-.153-1.078-2.196-14.882-9.954-29.493 3.273-.205 7.007-.462 10.507-.68 3.739-.232 7.201-.416 9.515-.444a4.384 4.384 0 0 0-.454.417c-.622.651-1.052 1.636-1.04 2.846.003 1.193.355 2.616 1.156 4.469.769 1.774 1.966 3.954 3.722 6.676a26.31 26.31 0 0 0-.573 5.335c.007 2.551.417 5.527 2.137 7.873.636.846 1.617 1.525 2.872 2.172 1.883.958 4.404 1.791 7.281 2.398 2.875.605 6.098.979 9.354.979 3.518-.001 7.074-.434 10.268-1.511 3.19-1.076 6.037-2.809 8.025-5.427l.002-.003.002-.003c4.368-5.837 5.914-11.28 5.91-15.973.006-5.088-1.78-9.249-3.545-12.171zM216.549 122.78h.003z"/></g><path d="M100.368 196.155c-.8-6.3-1.7-12.7-2.6-19-1-3.4-1.6-7-1.4-10.9v-3.6c-10.6 8.6-5.6 31.2-5.6 31.2s-11.3 3-24.4-.2c-16-3.9-34.6-15.7-37.9-34.6-1-5.9 1.9-14.8 4.4-19.5-3.9 4.1-6.6 8.8-7 11.8-5.7 39.4 44.1 60.7 71.4 51.6 1.4-.5 2.9-1.2 4.4-2.2-.4-1.6-.9-3.1-1.3-4.6z" fill="#f28a1c"/><path d="M210.457 202.522h.2c.2-2.9-.1-5.7-1-8.6.4 2.9.6 5.7.8 8.6z" fill="#4eace2"/><path d="M261.457 156.922s-8.1-30.1-44.9-33.1c-18.6-1.5-42.8.6-51.4 1.9 5.8 3.3 11.2 7.3 16.3 11.7 1.9-1.3 3.8-2.8 6.1-3.2 51.3-8.5 62.2 22.1 62.2 22.1s4.6 3.4 9 8.9c3.4 4.2 3.3 12.8.8 16.6-9.1 14.1-32.5 5.4-34.8 4.4.3 1.3.8 2.6 1.6 3.7 3.4 4.6 28 9.4 36.2-1.4 13.6-18.1-1.4-31.3-1.1-31.6z" fill="#f28a1c"/><path d="M226.457 271.122s60.5-45.5-14.1-67.8c-.6-.2-1.2-.3-1.8-.5.3-3 0-6.1-1-9.1 0 0-2-15.1-10.6-30.6.8 0 1.6-.1 2.4-.1-.1-.1-.2-.2-.3-.4-4.9-5.7-8.4-11.6-10.6-18-.2 0-.4 0-.7-.1 19.1 58.5 12.7 71.9-12.3 88.2-22.9 15-43.5 9.5-60.3-3.1-2.3 7.1 11.1 19 11.1 19s-27.3 24-17.4 49.6l16.1-.7s-6.8-32.5 18.2-50.5c8.2.4 16.9-1.1 25.1-4 .1 0 .1.1.2.1 22.1-7 36.1-16.2 36.1-16.2s29.2-3.2 27.3 23.6c-.8 11.4-24.8 28.6-25.3 29.2.7 0 4.6-.8 16.7-1.1 15.2-.5 13.9 20.9 13.9 20.9l11.7.5c.1-.6 9-25.7-24.4-28.9z" fill="#f28a1c"/><path d="M164.457 154.222c-7.5-22.3-20.7-22.2-33.5-17.8-15.6 5.4-22.5 36.8-8.6 73 7.8 20.3 22.8 28.5 40.6 21.8s22-22 16.2-36.6z" fill="#fffcc8"/><g fill="#740806"><path d="M161.004 123.341c-.026.005-.053.013-.085.021a.569.569 0 0 1 .038-.005l.047-.016z"/><path d="M264.157 155.622c-.7-2-3.1-8.9-9.1-16.1-6.4-7.6-18.3-17.1-38.3-18.8-4.4-.4-9.4-.6-14.9-.6-17.19 0-37.013 1.915-40.853 3.219.09-.017.153-.019.153-.019a3.04 3.04 0 0 1-.2.035 2.89 2.89 0 0 0-.4.165 1.15 1.15 0 0 1 .362-.159c-1.315.187-5.807.38-10.562.659-37 1.9-62.9 4.6-69.1 11.2-2.9 3.1-4.8 6.3-6.1 9.4-1.8-1.8-4.4-3.3-7.6-4.4l-3.1-1.1c-3.6-4.6-8-8.7-10.4-9.6-1.8-.7-3.8-1-5.7-1-12.9 0-24.4 14.6-25.5 22.2-1.9 12.9 1.8 25.1 10.5 35.2 11.5 13.3 31.2 21.9 49.9 21.9 2.6 0 5.1-.2 7.5-.5-12.5 6.4-19.6 14.4-21.1 23.9-2.4 15.7 11.1 30.6 18.9 37.8-8.3 1.8-14.3 5.4-17.9 10.6-3.8 5.6-4.7 13-2.5 20.8l.3 2.6 2.8-.1 55.8-2.5 3.5-.2-.7-3.5c0-.1-1.6-7.9-.2-17.7 1.8-12.498 7.298-22.297 16.396-29.197l.104-.003s.282.019.725 0h.975c7 0 14.7-1.3 22.1-3.9 12 6.5 19.3 16.8 21.9 30.6 2 10.9.2 20 .2 20.1l-.7 3.4 3.5.2 55.8 2.5 2.8.1.3-2.6c2.2-7.8 1.3-15.2-2.5-20.8-3.6-5.3-9.6-8.8-17.9-10.6 7.9-7.2 21.7-22.5 18.8-38.3-2.3-13.1-15.3-23.2-38.5-30.3 0-2.6-.4-5.1-1.2-7.6-.4-1.8-3-14.1-9.7-27.6 5-.3 10.4-.5 14.5-.6-.6 2.9.8 6.8 4.5 12.6-.5 2.2-.5 4.2-.5 4.2l.2.2c-.1 3.1.3 6.9 2.5 9.9 2.9 4 13 6.3 21.1 6.3 9.1 0 16.2-2.8 19.9-7.7 8.7-11.1 8.4-23.4-.8-34.3zm-1.5 32.8c-3.7 4.8-10.6 6.6-17.5 6.6-8.5 0-16.8-2.6-18.7-5.1-2-2.7-2.1-6.6-1.8-9.4.9-6.7 5.3-7.5 5.3-7.5-3.4-1.7-5.4-.8-6.7.9-6-10.3-1.5-10.2.4-11.6.5-.4-1.3-.5-4.3-.5-4.6 0-12.1.3-18.1.7-3.4-6.5-7.1-12.2-10.3-13.7 0 0 3.3 5 7.4 13.9-.1 0 1.1 2.5 1.7 3.7 1.8 4.1 5.8 14 5.8 13.9 2.7 7.9 3.8 13.5 3.8 13.5 1 3 1.3 6 1 9.1.6.2 1.2.3 1.8.5 74.6 22.3 14.1 67.8 14.1 67.8 33.4 3.3 24.5 28.3 24.4 28.9l-55.8-2.5s7.9-37.9-24.8-54.6c-7.3 2.6-15 4.1-22.4 4.1-.168 0-.336-.004-.504-.005-15.719-1.015-24.696-12.495-24.696-12.495 5.191 10.928 14.204 14.017 19.399 14.879-21.198 18.342-15.099 48.021-15.099 48.021l-55.8 2.5c-.1-.6-9-25.7 24.4-28.9 0 0-57.3-43.1 8.4-66h.5c-.6-1.8-1.1-3.5-1.6-5.2-6.1-21.2-6.5-36.9-6.5-36.9-3.9 6.4 1.2 29.7 3.4 38.8-.9.5-1.8.8-2.6 1.1-4.2 1.4-8.9 2.1-13.9 2.1-27.4 0-62.3-20.4-57.5-53.7.9-6.1 11.2-19.6 22.5-19.6 1.6 0 3.1.3 4.7.8 1.1.4 3.2 2.1 5.4 4.3.366.374.735.768 1.104 1.17.079.209.191.408.366.571l.009.009c.142.133 1.703 1.642 3.188 3.826.743 1.09 1.466 2.348 1.992 3.668.528 1.321.856 2.698.855 4.041-.007 1.603-.436 3.158-1.633 4.734-.957 1.254-2.453 2.524-4.67 3.712-.302-2.008-.99-3.86-1.886-5.517-1.83-3.381-4.496-6.004-6.699-7.814-2.205-1.807-6.206-.615-5.483-.21l.002.001c.11.06 3.012 1.732 5.811 4.551 1.401 1.407 2.773 3.097 3.777 4.987 1.006 1.893 1.647 3.968 1.647 6.219 0 .347-.019.701-.051 1.058-.164.622-.986 3.498-2.523 6.199-.819 1.449-1.843 2.836-3.005 3.806-1.172.974-2.414 1.535-3.88 1.54-1.162-.001-2.532-.36-4.184-1.365-2.12-1.29-3.429-2.461-4.166-3.422-.739-.968-.919-1.676-.923-2.239.001-.443.121-.843.336-1.242.318-.595.872-1.148 1.355-1.522.24-.188.458-.333.609-.427l.17-.101.037-.02 2.161-1.124-6.433-4.632a1.5 1.5 0 0 0-1.753 2.435l2.782 2.003c-.049.045-.097.085-.146.132a7.551 7.551 0 0 0-1.418 1.825 5.577 5.577 0 0 0-.699 2.673c-.005 1.306.494 2.713 1.547 4.07 1.055 1.365 2.65 2.73 4.981 4.153 2.009 1.227 3.942 1.804 5.745 1.803 2.366.004 4.389-.999 5.958-2.369 2.364-2.064 3.9-4.938 4.916-7.301 1.008-2.364 1.466-4.233 1.48-4.285l.026-.105.01-.108c.012-.121.009-.238.017-.358 3.19-1.499 5.451-3.244 6.935-5.184 1.601-2.083 2.257-4.382 2.249-6.556-.001-1.888-.466-3.682-1.131-5.306a19.794 19.794 0 0 0-.683-1.454c6.514 2.42 8.595 6.292 8.498 10.076.3-1.8.8-4 1.7-6.3 1.2-3.1 3.1-6.5 6.1-9.8 8.8-9.5 76.5-10.1 78.5-11.1 1.4-.7 20.8-3 39.9-3 5 0 10 .2 14.6.5 36.8 3.1 44.9 33.1 44.9 33.1-.197.399 14.803 13.599 1.303 31.599z"/></g><path d="m69.944 144.652-.138-.1-.112-.128-.001.001-.107-.1a3.78 3.78 0 0 0-2.474-.908c-.813.003-1.859.231-3.211 1.082-1.347.851-2.981 2.342-4.826 4.823-1.298 1.743-2.286 3.4-2.939 4.931-.654 1.532-.969 2.928-.968 4.17.002 1.135.251 2.146.779 3.114.529.966 1.355 1.899 2.571 2.786.525.378 1.104.549 1.868.554 1.11.008 2.569-.44 4.081-1.208 1.514-.762 3.081-1.819 4.493-2.903a51.59 51.59 0 0 0 5.238-4.646l.109-.159a6.233 6.233 0 0 0 .977-3.331c-.003-.998-.236-2.157-1.006-3.499-.771-1.339-2.102-2.865-4.334-4.479z" fill="#fbb807"/><path d="M76.877 147.633c-1.009-1.75-2.626-3.544-5.053-5.32a6.118 6.118 0 0 0-1.189-.921 6.787 6.787 0 0 0-3.522-.975c-1.419-.003-3.068.437-4.815 1.547-1.752 1.11-3.622 2.873-5.628 5.567-1.404 1.887-2.518 3.732-3.292 5.545-.772 1.812-1.208 3.599-1.209 5.347a9.365 9.365 0 0 0 1.148 4.555c.774 1.413 1.931 2.674 3.434 3.769 1.091.801 2.381 1.135 3.636 1.13 1.909-.009 3.789-.689 5.601-1.616 2.711-1.4 5.284-3.419 7.215-5.094 1.927-1.675 3.198-3.009 3.221-3.033l.039-.041.036-.044c.059-.073.491-.611.923-1.54.43-.928.862-2.258.863-3.878.003-1.493-.38-3.221-1.408-4.998zm-2.176 7.613a5.715 5.715 0 0 1-.393.715l-.109.159a51.714 51.714 0 0 1-5.238 4.646c-1.412 1.084-2.979 2.141-4.493 2.903-1.512.768-2.97 1.216-4.081 1.208-.764-.005-1.343-.176-1.868-.554-1.216-.887-2.041-1.82-2.571-2.786-.528-.968-.776-1.979-.779-3.114-.001-1.242.314-2.638.968-4.17.652-1.53 1.641-3.188 2.939-4.931 1.846-2.481 3.479-3.972 4.826-4.823 1.352-.851 2.397-1.079 3.211-1.082a3.777 3.777 0 0 1 2.474.908l.107.1.001-.001.112.128.138.1c2.232 1.614 3.563 3.14 4.334 4.479.77 1.342 1.003 2.501 1.006 3.499 0 1.08-.291 1.984-.584 2.616z" fill="#740806"/><g><path d="M195.96 73.274c24.192-26.593 4.016-51.392 4.016-51.392l-33.28 20.799c-22.182-8.011-40.45-4.243-53.26 1.62L78.656 24.9s-18.985 25.864 6.706 51.266c-6.672 16.115-15.102 38.048-13.448 42.317 1.261 3.255 3.648 3.753 6.014 2.167-.457 3.776-.095 7.409 2.008 9.859 2.043 2.38 4.201 2.355 5.851.671 12.119 16.337 54.157 28.753 54.157 28.753s46.127-11.155 58.806-30.885c1.549.854 3.318.453 4.923-1.616 1.979-2.551 2.159-6.198 1.515-9.947 2.441 1.466 4.801.85 5.899-2.464 1.033-3.119-7.85-24.849-15.127-41.747z" fill="#fbb807"/><path d="M195.96 73.274c24.192-26.593 4.016-51.392 4.016-51.392l-33.28 20.799a80.879 80.879 0 0 0-7.198-2.22c-.942-1.003-3.31-2.429-8.919-1.748a69.619 69.619 0 0 0-7.277-.589c1.222.523 2.716 1.132 4.34 1.777-5.647 6.112-7.256 19.473-7.256 19.473l17.109-15.679c4.168 1.57 7.439 2.768 7.439 2.768s17.953 12.211 24.589 49.662c0 0 4.999 21.803-19.439 42.734-11.121 9.525-25.96 17.047-45.672 15.671 8.826 3.419 15.533 5.401 15.533 5.401s46.127-11.155 58.806-30.885c1.549.854 3.318.453 4.923-1.616 1.979-2.551 2.159-6.198 1.515-9.947 2.441 1.466 4.801.85 5.899-2.464 1.032-3.117-7.851-24.847-15.128-41.745z" fill="#f28a1c"/><path d="M148.425 95.147s-1.423-24.17-11.994-23.907-11.275 24.525-11.275 24.525c-40.38-3.631-55.915 15.815-53.242 22.717 1.261 3.255 3.648 3.753 6.014 2.167-.457 3.776-.095 7.409 2.008 9.859 2.043 2.38 4.201 2.355 5.851.671 22.912 26.856 54.157 28.753 54.157 28.753s43.517-6.43 58.806-30.885c1.549.854 3.318.453 4.923-1.616 1.979-2.551 2.159-6.198 1.515-9.947 2.441 1.466 4.801.85 5.899-2.464.613-1.851-2.737-28.811-62.662-19.873z" fill="#fffcc8"/><path d="M192.128 96.125s6.056 4.243 6.884 8.857c1.164 6.49-6.325 3.723-6.325 3.723 8.937 15.287-2.47 15.393-2.47 15.393-17.169 26.455-50.032 31.194-50.032 31.194s-25.005-1.874-53.273-22.844c22.796 25.631 53.032 27.486 53.032 27.486s43.517-6.43 58.806-30.885c1.549.854 3.318.453 4.923-1.616 1.979-2.551 2.159-6.198 1.515-9.947 2.441 1.466 4.801.85 5.899-2.464.404-1.22-.914-13.321-18.959-18.897z" fill="#e5ba97"/><path d="M165.653 119.609c.989-.912 1.845-1.869 2.439-2.962.602-1.092.947-2.321.916-3.588a6.94 6.94 0 0 0-.464-2.274c4.168-.205 8.172-1.348 7.364-2.577-3.826.332-7.009.177-9.467-.13a1.851 1.851 0 0 0-.533-.071 30.41 30.41 0 0 1-4.001-.815c-1.163-.328-2.016 1.115-1.144 1.951.71.681 1.977 1.217 3.516 1.468.05.108.108.213.18.313.619.877.834 1.593.856 2.227.007.554-1.217 2.845-1.837 3.439-1.095 1.043-2.688 2.094-4.642 3.059-2.926 1.447-6.591 3.028-10.689 3.623-8.904 1.291-8.984-3.166-8.984-3.166s-1.719-8.442-2.467-8.364c-.762.079-1.501 8.393-1.501 8.393s-.845 4.818-9.678 4.365c-3.399-.174-6.429-1.356-8.941-2.444-2.299-.984-4.127-2.177-5.315-3.404-.594-.613-1.034-1.231-1.32-1.827a4.37 4.37 0 0 1-.444-1.794c-.012-.738.158-1.537.634-2.461l.047-.135.086-.012c1.529-.265 2.779-.838 3.433-1.531.734-.778-.084-2.016-1.097-1.675-1.896.638-6.142 1.743-12.331 1.514-.615 1.045 2.459 1.839 5.867 1.942a8.134 8.134 0 0 0-.334 2.45 8.045 8.045 0 0 0 .809 3.294c.857 1.789 2.205 3.45 4.093 4.592a41.454 41.454 0 0 0 11.531 4.763c8.867 2.194 15.236-2.49 15.236-2.49s5.584 4.396 14.212 1.855c4.575-1.349 9.649-3.546 13.97-7.528z" fill="#740806"/><g fill="#e93e8f"><path d="M110.917 105.341c-.044-1.781-4.332-3.12-9.577-2.99-5.246.13-9.462 1.681-9.417 3.462.044 1.781 4.332 3.119 9.578 2.989 5.245-.131 9.461-1.681 9.416-3.461zM186.102 103.471c-.044-1.781-4.332-3.12-9.577-2.99-5.246.13-9.462 1.681-9.417 3.462.044 1.781 4.332 3.119 9.578 2.989 5.244-.13 9.46-1.68 9.416-3.461z"/></g><path d="M136.406 100.484c-30.15.75-7.186 12.999.319 12.812s29.831-13.561-.319-12.812z" fill="#e93e8f"/><path d="M132.438 103.795c-.707-.309-1.673-.487-2.736-.461-1.37.034-2.563.401-3.238.924-.377.293-.595.634-.586.996.025 1.007 1.777 1.781 3.914 1.728s3.849-.913 3.824-1.92c-.011-.506-.462-.954-1.178-1.267z" fill="#fff"/><path d="M79.144 35.153c-1.572 5.16-6.862 23.056 9.502 36.988 0 0 3.283-8.55 7.415-14.62z" fill="#fffcc8"/><path d="M129.421 59.381s-10.668-9.629-9.775-17.911l8.199-2.462c-.921 5.995 1.576 20.373 1.576 20.373z" fill="#f28a1c"/><g fill="#740806"><path d="M70.516 119.028v-.002l-.001-.002zM212.26 111.541c-.445-1.923-1.219-4.406-2.228-7.305-2.943-8.444-7.888-20.369-12.322-30.687 8.782-9.955 11.663-19.819 11.651-28.211-.001-7.172-2.049-13.247-4.088-17.534-2.041-4.289-4.079-6.801-4.134-6.869l-.836-1.027-33.801 21.124c-8.957-3.148-17.315-4.433-24.939-4.433-10.984 0-20.437 2.636-28.053 6.025l-35.28-19.68-.784 1.067c-.049.067-1.796 2.455-3.544 6.494-1.746 4.038-3.499 9.736-3.5 16.41-.001 4.513.807 9.471 2.958 14.611 2.05 4.903 5.337 9.963 10.241 14.975-2.958 7.17-6.208 15.364-8.768 22.651-1.334 3.798-2.479 7.344-3.298 10.383a53.2 53.2 0 0 0-.966 4.157c-.228 1.246-.36 2.337-.361 3.296 0 .24.009.472.029.7h-.001l.001.009v.011h.001c.012.15.03.323.066.515h-.001l.004.017.001.008h.001c.044.238.098.491.209.778.471 1.213 1.111 2.199 1.956 2.908a4.543 4.543 0 0 0 2.949 1.086c.286-.001.568-.029.847-.077-.003.147-.015.296-.015.443 0 1.483.159 2.938.554 4.314.395 1.374 1.035 2.674 1.99 3.786.644.75 1.334 1.34 2.082 1.753.745.413 1.558.64 2.369.639.79.002 1.536-.218 2.209-.583 3.741 5.145 8.725 9.407 14.158 12.922 8.827 5.705 18.818 9.482 26.62 11.856 7.801 2.371 13.412 3.33 13.457 3.338l.239.041.24-.037c.06-.01 11.471-1.758 24.64-6.54 6.585-2.393 13.613-5.544 19.892-9.649 5.906-3.864 11.145-8.592 14.687-14.362.3.063.605.105.916.105.846.002 1.694-.248 2.457-.701.767-.453 1.46-1.099 2.094-1.916 1.605-2.074 2.163-4.643 2.163-7.252 0-.469-.036-.943-.069-1.416.206.026.412.051.621.051a4.542 4.542 0 0 0 3.036-1.154c.856-.755 1.477-1.805 1.902-3.087v-.001c.13-.404.155-.76.158-1.131-.004-.809-.158-1.715-.41-2.821zm-4.687 5.193c-.411.002-.967-.147-1.613-.535l-2.804-1.683.554 3.223c.199 1.16.312 2.294.312 3.36 0 2.201-.476 4.056-1.533 5.413-.452.584-.884.956-1.249 1.171-.369.215-.66.283-.932.285-.26-.001-.523-.065-.833-.234l-1.302-.718-.729 1.296c-3.199 5.695-8.368 10.474-14.38 14.403-9.013 5.897-19.88 9.858-28.473 12.314a148.571 148.571 0 0 1-10.676 2.635 113.813 113.813 0 0 1-3.923.742l-.033.005c-1.54-.28-11.165-2.133-22.156-6.423-5.651-2.204-11.654-5.052-17.085-8.635-5.433-3.582-10.284-7.898-13.681-13.005l-1.025-1.54-1.295 1.321c-.565.566-1.035.745-1.468.748-.262-.001-.553-.066-.92-.266-.364-.2-.795-.544-1.254-1.08-.633-.738-1.084-1.624-1.383-2.661-.299-1.035-.438-2.217-.437-3.484 0-.823.058-1.681.164-2.557l.392-3.246-2.716 1.82c-.672.451-1.25.619-1.672.617-.38-.007-.67-.101-1.025-.388-.349-.289-.747-.821-1.083-1.692l-.002-.004a1.613 1.613 0 0 1-.055-.236l-.003-.014-.002-.01a1.824 1.824 0 0 1-.024-.21l-.001-.012-.001-.008a5.066 5.066 0 0 1-.018-.456c-.001-.673.103-1.622.312-2.753.728-3.982 2.708-10.189 5.167-16.948 2.46-6.767 5.4-14.12 8.062-20.548l.386-.932-.717-.709c-5.058-5.002-8.3-9.976-10.289-14.729-1.987-4.754-2.725-9.295-2.726-13.453-.001-6.142 1.623-11.453 3.254-15.219a38.692 38.692 0 0 1 2.234-4.393c.094-.157.172-.282.255-.416l34.224 19.092.691-.316c7.417-3.394 16.682-6.064 27.505-6.064 7.483.001 15.715 1.275 24.623 4.492l.686.248 32.717-20.446a38.347 38.347 0 0 1 3.065 5.389c1.874 3.989 3.71 9.567 3.708 16.057-.012 7.906-2.674 17.194-11.512 26.926l-.65.715.382.888c3.438 7.984 7.236 17.048 10.164 24.69 1.464 3.82 2.711 7.286 3.584 10.065.436 1.388.779 2.605 1.007 3.594.23.983.337 1.757.333 2.145l-.009.185-.003.018c-.303.911-.688 1.465-1.03 1.763-.355.294-.648.395-1.059.403z"/></g><path d="M127.261 43.071s-2.151.148-3.306 1.456c-1.032 1.169-1.508 5.129 2.807 5.414 5.531.366 15.823-5.821 14.611-11.022-.611-.345-19.705-12.876-22.493-5.727-.972 2.492.244 5.288 2.133 6.944 2.565 2.249 6.248 2.935 6.248 2.935z" fill="#fbb807"/><path d="M137.067 46.181c-2.934 2.156-6.761 3.703-9.619 3.774a7.74 7.74 0 0 1-.686-.013c-4.315-.285-3.839-4.245-2.806-5.414 1.155-1.308 3.306-1.456 3.306-1.456s-3.683-.686-6.248-2.934c-1.888-1.656-3.105-4.451-2.133-6.944.595-1.525 1.931-2.154 3.672-2.197 6.421-.16 18.465 8.382 18.947 8.653 0 0 2.793-.296 2.547-1.351l-.274-1.175-1.05-.593-.204-.129c-6.062-3.794-14.458-8.287-20.033-8.149-4.061.101-5.602 2.515-6.161 3.944-1.501 3.85.366 7.798 2.881 10.004a13.483 13.483 0 0 0 2.041 1.465c-.766 1.441-1.066 3.491-.288 5.377.879 2.134 2.929 3.46 5.623 3.638.301.02.616.026.935.018 3.714-.093 9.991-5.681 9.55-6.518z" fill="#740806"/><path d="M126.179 86.066a27.499 27.499 0 0 0-.134-1.593c-1.036-9.565-6.926-16.826-13.659-16.491-7.1.353-12.441 9.024-11.927 19.365.412 8.236 4.415 15.032 9.614 17.286 1.329.576 2.733.871 4.179.799a9.12 9.12 0 0 0 1.306-.161c6.438-1.28 11.103-9.508 10.621-19.205z" fill="#fff"/><path d="M176.301 84.939c-.263-8.889-4.78-16.314-10.87-19.018-.865 5.99-5.195 11.386-12.999 11.386-2.25 0-4.208-.452-5.881-1.232-1.101 2.935-1.679 6.269-1.575 9.792.021.702.069 1.395.142 2.078.58 5.457 2.774 10.228 5.903 13.495 2.815 2.94 6.385 4.663 10.23 4.551 2.878-.086 5.535-1.205 7.799-3.055 4.539-3.709 7.475-10.412 7.251-17.997zM98.745 69.364a20.668 20.668 0 0 1 3.62-3.431c6.133-4.517 13.391-2.856 17.767 2.481.487.593 1.318-.163 1.038-.941-1.673-4.655-5.057-10.878-11.135-10.595-6.63.308-10.421 6.962-12.274 11.638-.314.795.47 1.468.984.848z" fill="#740806"/><path d="M174.033 86.278c-.237-8.014-4.184-14.761-9.582-17.467-1.624 4.842-5.748 8.734-12.376 8.734-1.932 0-3.639-.345-5.146-.932-1.405 3.053-2.176 6.667-2.063 10.529.02.654.064 1.299.132 1.935.54 5.081 2.583 9.522 5.496 12.564 2.621 2.737 5.945 4.342 9.524 4.237 2.68-.08 5.153-1.122 7.262-2.844 4.228-3.454 6.962-9.694 6.753-16.756z" fill="#fff"/><path d="M100.459 87.347c-.514-10.341 4.827-19.012 11.927-19.365 6.733-.335 12.623 6.927 13.659 16.491l-.004-.212c-.553-11.087-7.173-19.768-14.786-19.389-7.615.379-13.339 9.676-12.788 20.763.292 5.864 2.29 11.037 5.227 14.571 1.822 2.194 4.005 3.747 6.379 4.427-5.199-2.254-9.203-9.05-9.614-17.286z" fill="#740806"/><path d="M168.542 87.451c-.204-7.576-4.611-13.582-9.847-13.41-5.234.171-9.312 6.451-9.11 14.029.013.468.042.93.086 1.385.351 3.636 1.679 6.815 3.572 8.993 1.704 1.959 3.864 3.107 6.191 3.033 1.742-.057 3.35-.803 4.72-2.036 2.747-2.474 4.524-6.94 4.388-11.994z" fill="#bccf00"/><path d="M165.218 87.559c-.132-4.919-2.994-8.819-6.394-8.707-3.398.111-6.046 4.188-5.915 9.109.008.304.027.604.056.899.228 2.361 1.09 4.425 2.319 5.839 1.106 1.272 2.509 2.018 4.02 1.969 1.131-.037 2.175-.521 3.065-1.322 1.784-1.605 2.937-4.505 2.849-7.787z" fill="#740806"/><path d="M159.111 78.828c-.083.36-.137.73-.122 1.118a4.296 4.296 0 0 0 4.452 4.133 4.227 4.227 0 0 0 1.109-.207 4.294 4.294 0 0 0 2.752-2.577 4.293 4.293 0 0 0-4.154-5.8l-.027-.002c-1.984.073-3.586 1.488-4.01 3.335z" fill="#fff"/><g><path d="M124.611 87.416c-.298-7.573-4.781-13.523-10.014-13.286-5.232.236-9.23 6.567-8.934 14.141.019.468.053.929.103 1.383.396 3.632 1.764 6.794 3.684 8.947 1.728 1.938 3.903 3.059 6.228 2.955 1.741-.079 3.339-.844 4.694-2.094 2.717-2.506 4.438-6.994 4.239-12.046z" fill="#bccf00"/><path d="M121.288 87.566c-.194-4.917-3.104-8.781-6.502-8.627-3.397.153-5.993 4.264-5.801 9.182.012.304.035.603.067.898.257 2.358 1.145 4.411 2.392 5.809 1.122 1.258 2.534 1.986 4.044 1.919 1.13-.051 2.168-.548 3.048-1.36 1.764-1.627 2.882-4.541 2.752-7.821z" fill="#740806"/><path d="M115.073 78.911a4.23 4.23 0 0 0-.108 1.119 4.295 4.295 0 0 0 4.503 4.077c.388-.02.754-.106 1.107-.22a4.297 4.297 0 0 0 2.72-2.611 4.294 4.294 0 0 0-4.225-5.749l-.027-.002a4.287 4.287 0 0 0-3.97 3.386z" fill="#fff"/></g><path d="M139.96 69.235c6.075 5.311 15.195 6.115 22.115.202a24.608 24.608 0 0 0 3.986-4.34c.549-.765 1.598-.128 1.318.8-1.652 5.474-5.418 13.426-13.509 14.726-7.417 1.191-12.39-5.249-15.059-10.191-.445-.825.474-1.787 1.149-1.197z" fill="#740806"/><path d="M192.891 69.549s-5.824-11.978-14.749-19.6l21.877-19.154s11.163 21.541-7.128 38.754z" fill="#fffcc8"/></g></g><g><path d="M294.581 54.76c-.133-.484-.365-.906-.694-1.265s-.738-.661-1.224-.903a8.633 8.633 0 0 0-1.527-.586 10.864 10.864 0 0 0-4.197-.336 11.64 11.64 0 0 0-3.948 1.182 10.625 10.625 0 0 0-3.219 2.511c-.918 1.051-1.575 2.289-1.971 3.715-.323 1.162-.345 2.3-.064 3.415a22.886 22.886 0 0 0 1.063 3.218c.429 1.032.813 1.996 1.153 2.895s.413 1.697.219 2.394c-.203.731-.542 1.244-1.018 1.54s-1.031.491-1.663.584c-.635.091-1.297.13-1.991.117s-1.364.05-2.011.192a4.103 4.103 0 0 0-1.733.832c-.507.414-.892 1.085-1.15 2.014-.185.665-.185 1.245-.001 1.744.183.498.466.925.85 1.281.384.357.846.655 1.387.895.541.239 1.094.438 1.658.595 1.361.378 2.826.445 4.395.203 1.569-.243 3.054-.734 4.457-1.47s2.647-1.677 3.735-2.823c1.087-1.146 1.824-2.416 2.212-3.81.268-.963.351-1.814.255-2.557-.098-.742-.289-1.402-.575-1.983a9.24 9.24 0 0 0-1.023-1.624 27.22 27.22 0 0 1-1.071-1.452 5.48 5.48 0 0 1-.72-1.46c-.163-.51-.16-1.064.006-1.661.314-1.129.873-1.884 1.677-2.269a11.508 11.508 0 0 1 2.573-.866 18.445 18.445 0 0 0 2.533-.717c.776-.284 1.298-.908 1.566-1.871.174-.632.195-1.189.061-1.674zm-28.534 2.23a5.367 5.367 0 0 1-1.791.655c-.66.121-1.336.174-2.029.16a42.797 42.797 0 0 1-1.778-.066 9.2 9.2 0 0 1 .836-1.752 8.271 8.271 0 0 1 1.291-1.653 4.942 4.942 0 0 1 1.646-1.097c.604-.243 1.27-.264 2.001-.061.499.139.798.473.901 1.002s.095 1.01-.024 1.441a2.23 2.23 0 0 1-1.053 1.371zm5.4 11.155A2.884 2.884 0 0 0 269.834 67c-.597-.166-1.234-.164-1.905.006a25.2 25.2 0 0 0-2.079.629c-.713.249-1.431.452-2.154.608a4.28 4.28 0 0 1-2.08-.041c-.896-.249-1.607-.679-2.134-1.291-.528-.611-.724-1.416-.588-2.416 1.511.349 3.065.415 4.664.198a14.043 14.043 0 0 0 4.454-1.362 12.052 12.052 0 0 0 3.621-2.801 10.225 10.225 0 0 0 2.214-4.104c.332-1.195.398-2.338.202-3.43a8.421 8.421 0 0 0-1.149-3.001 8.466 8.466 0 0 0-2.238-2.365 9.61 9.61 0 0 0-3.077-1.473c-1.992-.554-3.856-.499-5.595.161a13.845 13.845 0 0 0-4.692 2.986c-1.388 1.33-2.579 2.876-3.569 4.639s-1.716 3.474-2.177 5.134c-.434 1.56-.639 3.228-.614 5.004.024 1.777.312 3.475.862 5.094.551 1.62 1.393 3.061 2.526 4.323s2.578 2.137 4.338 2.627c1.028.286 2.229.343 3.6.17s2.713-.533 4.028-1.079a12.762 12.762 0 0 0 3.491-2.14c1.013-.88 1.677-1.885 1.991-3.013.193-.7.083-1.339-.327-1.918zm-13.922-30.847c.082-.548.1-1.099.056-1.647a4.024 4.024 0 0 0-.413-1.509 1.67 1.67 0 0 0-1.091-.894c-.764-.212-1.606-.079-2.524.399-.92.477-1.85 1.158-2.793 2.038a32.86 32.86 0 0 0-2.824 3.023 59.228 59.228 0 0 0-2.596 3.354 78.119 78.119 0 0 0-3.381 5.12c.023-.602.092-1.423.202-2.465.11-1.043.2-2.197.267-3.466a55.66 55.66 0 0 0 .064-3.897 19.941 19.941 0 0 0-.391-3.702c-.239-1.139-.599-2.124-1.083-2.956s-1.158-1.367-2.02-1.607c-.764-.212-1.461-.183-2.089.089a4.906 4.906 0 0 0-1.674 1.197 7.478 7.478 0 0 0-1.226 1.805 11.17 11.17 0 0 0-.746 1.911c-.351 1.261-.586 2.688-.707 4.282a51.086 51.086 0 0 0-.14 4.841c.028 1.635.12 3.26.279 4.877a73.95 73.95 0 0 0 .55 4.39c.132.68.454 1.325.965 1.931a6.206 6.206 0 0 0 1.692 1.436 92.65 92.65 0 0 0-2.338 2.138 33.505 33.505 0 0 0-2.423 2.543 23.83 23.83 0 0 0-2.06 2.78c-.607.957-1.037 1.901-1.296 2.831-.268.963-.286 1.896-.055 2.8s.877 1.505 1.94 1.8c.762.212 1.615.1 2.559-.335.944-.434 1.921-1.058 2.933-1.866a31.248 31.248 0 0 0 3.07-2.847 94.455 94.455 0 0 0 2.975-3.276 117.752 117.752 0 0 0 2.607-3.11c.791-.978 1.453-1.785 1.988-2.424.957-1.128 2.02-2.442 3.188-3.941 1.167-1.499 2.298-3.061 3.394-4.687s2.078-3.265 2.95-4.918c.87-1.653 1.509-3.209 1.916-4.67.103-.361.194-.818.275-1.368z" fill="#fffcc8"/><path d="M256.077 33.248c.498.138.862.437 1.091.894.231.457.369.96.413 1.509a7.33 7.33 0 0 1-.056 1.647c-.081.55-.172 1.007-.273 1.372-.406 1.461-1.046 3.017-1.916 4.67a52.772 52.772 0 0 1-2.95 4.918 84.731 84.731 0 0 1-3.394 4.687 121.79 121.79 0 0 1-3.188 3.941c-.535.638-1.198 1.446-1.988 2.424-.79.979-1.659 2.015-2.607 3.11a94.455 94.455 0 0 1-2.975 3.276 31.258 31.258 0 0 1-3.07 2.847c-1.012.809-1.989 1.432-2.933 1.866-.944.435-1.797.546-2.559.335-1.063-.296-1.709-.896-1.94-1.8-.231-.905-.213-1.838.055-2.8.258-.929.689-1.874 1.296-2.831a23.83 23.83 0 0 1 2.06-2.78c.766-.894 1.575-1.742 2.423-2.543s1.628-1.514 2.338-2.138a6.238 6.238 0 0 1-1.692-1.436c-.512-.606-.833-1.251-.965-1.931a73.126 73.126 0 0 1-.55-4.39 60.37 60.37 0 0 1-.279-4.877 51.086 51.086 0 0 1 .14-4.841c.121-1.593.356-3.02.707-4.282a11.17 11.17 0 0 1 .746-1.911 7.402 7.402 0 0 1 1.226-1.805 4.906 4.906 0 0 1 1.674-1.197c.629-.272 1.325-.301 2.089-.089.863.24 1.536.775 2.02 1.607.483.832.844 1.817 1.083 2.956.237 1.138.367 2.373.391 3.702.025 1.33.002 2.628-.064 3.897a66.736 66.736 0 0 1-.267 3.466 40.225 40.225 0 0 0-.202 2.465 78.476 78.476 0 0 1 3.381-5.12 58.873 58.873 0 0 1 2.596-3.354 32.86 32.86 0 0 1 2.824-3.023c.942-.881 1.872-1.561 2.793-2.038.916-.482 1.758-.615 2.522-.403m35.06 18.758c.531.148 1.04.343 1.527.586.486.242.895.544 1.224.903.329.36.561.782.694 1.265.134.485.113 1.042-.063 1.672-.268.963-.79 1.586-1.566 1.871-.777.285-1.62.524-2.533.717-.911.194-1.769.483-2.573.866-.804.385-1.363 1.141-1.677 2.269-.166.597-.169 1.151-.006 1.661.161.51.401.996.72 1.46.317.464.675.948 1.071 1.452a9.24 9.24 0 0 1 1.023 1.624c.285.581.477 1.241.575 1.983.096.743.013 1.595-.255 2.557-.388 1.394-1.125 2.664-2.212 3.81a14.245 14.245 0 0 1-3.735 2.823 14.212 14.212 0 0 1-4.457 1.47c-1.569.242-3.035.175-4.395-.203a12.144 12.144 0 0 1-1.658-.595 5.004 5.004 0 0 1-1.387-.895 3.249 3.249 0 0 1-.85-1.281c-.184-.499-.184-1.078.001-1.744.258-.929.642-1.599 1.15-2.014a4.115 4.115 0 0 1 1.733-.832 8.597 8.597 0 0 1 2.011-.192c.693.014 1.356-.025 1.991-.117.633-.092 1.188-.287 1.663-.584s.815-.81 1.018-1.54c.194-.698.121-1.495-.219-2.394s-.725-1.863-1.153-2.895a23.016 23.016 0 0 1-1.063-3.218c-.28-1.114-.259-2.252.064-3.415.397-1.426 1.054-2.664 1.971-3.715a10.625 10.625 0 0 1 3.219-2.511 11.64 11.64 0 0 1 3.948-1.182 10.893 10.893 0 0 1 4.199.338m-23.553-5.851a9.61 9.61 0 0 1 3.077 1.473 8.466 8.466 0 0 1 2.238 2.365c.569.91.952 1.91 1.149 3.001.197 1.093.131 2.235-.202 3.43a10.25 10.25 0 0 1-2.214 4.104c-1.043 1.177-2.249 2.11-3.621 2.801s-2.858 1.146-4.454 1.362a12.844 12.844 0 0 1-4.664-.198c-.136 1 .06 1.805.588 2.416.527.612 1.239 1.042 2.134 1.291a4.28 4.28 0 0 0 2.08.041 18.124 18.124 0 0 0 2.154-.608 25.318 25.318 0 0 1 2.079-.629c.672-.17 1.308-.172 1.905-.006a2.878 2.878 0 0 1 1.613 1.145c.411.579.52 1.217.326 1.915-.314 1.128-.978 2.133-1.991 3.013a12.738 12.738 0 0 1-3.491 2.14 15.575 15.575 0 0 1-4.028 1.079c-1.371.173-2.571.116-3.6-.17-1.759-.489-3.205-1.365-4.338-2.627s-1.975-2.703-2.526-4.323a16.426 16.426 0 0 1-.862-5.094c-.025-1.776.18-3.444.614-5.004.461-1.66 1.187-3.371 2.177-5.134s2.181-3.309 3.569-4.639a13.835 13.835 0 0 1 4.692-2.986c1.741-.657 3.605-.712 5.596-.158m-7.135 11.585c.491.03 1.084.052 1.778.066.693.014 1.369-.039 2.029-.16.659-.12 1.256-.339 1.791-.655s.886-.773 1.052-1.37c.12-.431.128-.912.024-1.441-.103-.529-.403-.864-.901-1.002-.73-.203-1.397-.182-2.001.061a4.942 4.942 0 0 0-1.646 1.097 8.28 8.28 0 0 0-1.291 1.653 9.275 9.275 0 0 0-.835 1.751m-3.568-27.382c-1.042-.29-2.705-.416-4.711.627-1.156.6-2.32 1.445-3.459 2.51a36.017 36.017 0 0 0-3.083 3.298l-.143.173a22.853 22.853 0 0 0-.446-3.923c-.305-1.454-.785-2.749-1.426-3.853-.879-1.507-2.195-2.54-3.81-2.989-1.417-.394-2.828-.316-4.083.225a7.903 7.903 0 0 0-2.689 1.916 10.49 10.49 0 0 0-1.717 2.524c-.408.833-.725 1.65-.94 2.424-.401 1.443-.673 3.078-.808 4.858a54.6 54.6 0 0 0-.147 5.12c.029 1.711.128 3.434.293 5.119.164 1.671.357 3.208.573 4.568l.008.051.01.051c.19.978.593 1.902 1.2 2.755a36.008 36.008 0 0 0-2.636 2.768 26.64 26.64 0 0 0-2.318 3.13c-.758 1.196-1.314 2.419-1.651 3.63-.409 1.47-.432 2.932-.07 4.347.501 1.96 1.937 3.362 4.043 3.947 1.462.406 3.016.238 4.618-.501 1.158-.533 2.352-1.289 3.551-2.248a34.221 34.221 0 0 0 3.369-3.121 97.988 97.988 0 0 0 3.072-3.382 121.41 121.41 0 0 0 2.672-3.188c.776-.96 1.428-1.754 1.953-2.381.197-.232.399-.474.608-.724l-.051.181c-.508 1.828-.752 3.796-.724 5.849a19.452 19.452 0 0 0 1.023 6.019 15.375 15.375 0 0 0 3.134 5.361c1.516 1.689 3.456 2.87 5.767 3.513 1.41.392 3.018.478 4.779.256a18.594 18.594 0 0 0 4.803-1.285l.073-.031c.051.379.142.747.274 1.104a6.237 6.237 0 0 0 1.626 2.445 7.997 7.997 0 0 0 2.208 1.438c.681.301 1.376.55 2.073.744 1.765.491 3.668.584 5.656.278a17.24 17.24 0 0 0 5.394-1.779 17.299 17.299 0 0 0 4.517-3.413c1.424-1.502 2.408-3.208 2.926-5.071.374-1.345.488-2.606.34-3.748-.142-1.07-.43-2.051-.858-2.921a12.147 12.147 0 0 0-1.358-2.156 24.79 24.79 0 0 1-.952-1.289 2.631 2.631 0 0 1-.309-.589l.008-.034c.063-.225.124-.347.156-.402a8.56 8.56 0 0 1 1.828-.603 21.649 21.649 0 0 0 2.943-.836c1.682-.617 2.898-1.997 3.422-3.883.322-1.157.344-2.257.065-3.271a6.023 6.023 0 0 0-1.374-2.495 7.13 7.13 0 0 0-2.099-1.563 11.63 11.63 0 0 0-2.061-.791 13.87 13.87 0 0 0-5.346-.425 14.675 14.675 0 0 0-4.963 1.487 13.675 13.675 0 0 0-4.48 3.647 9.816 9.816 0 0 0-.149-1.362 11.462 11.462 0 0 0-1.559-4.061 11.501 11.501 0 0 0-3.021-3.203 12.64 12.64 0 0 0-4.034-1.933c-2.61-.726-5.122-.642-7.464.248a16.48 16.48 0 0 0-3.121 1.58l.188-.354c.966-1.835 1.691-3.606 2.152-5.264.135-.487.25-1.056.35-1.737.114-.768.141-1.549.079-2.32a7.058 7.058 0 0 0-.723-2.621 4.695 4.695 0 0 0-2.971-2.441zm14.841 34.17a15.436 15.436 0 0 0 2.157-2.011c.243-.275.473-.558.692-.849.041.522.126 1.041.256 1.556a25.94 25.94 0 0 0 1.203 3.639 95.093 95.093 0 0 1 1.116 2.804c.081.214.113.359.124.447l-.211.042c-.47.068-.975.097-1.498.086a12.139 12.139 0 0 0-.764.009 5.15 5.15 0 0 0-.904-3.842 5.933 5.933 0 0 0-2.171-1.881z" fill="#740806"/><g><g fill="#fffcc8"><path d="M213.112 80.039c-.109-.547 3.626-6.952-3.351-8.952-.923-.265-3.03.078-3.896 2.419-.867 2.341-8.154 24.72-8.856 26.399-2.579 6.995 1.912 8.399 2.883 8.609 3.252.702 5.817-7.42 5.817-7.42zM250.847 85.297a9.503 9.503 0 0 0-1.78-3.82c-.869-1.117-2.118-1.903-3.743-2.355-1.66-.461-3.28-.518-4.859-.171a14.23 14.23 0 0 0-4.512 1.856c-1.428.89-2.765 2.002-4.012 3.335a31.417 31.417 0 0 0-3.366 4.294 35.987 35.987 0 0 0-2.585 4.671c-.729 1.585-1.285 3.075-1.672 4.469a31.383 31.383 0 0 0-1.079 6.485c-.137 2.232.071 4.346.624 6.342a13.242 13.242 0 0 0 2.87 5.302c1.359 1.54 3.235 2.642 5.624 3.306.929.258 2.022.348 3.278.268a13.077 13.077 0 0 0 3.643-.756 11.11 11.11 0 0 0 3.135-1.73c.917-.728 1.524-1.623 1.819-2.685.212-.763.154-1.521-.173-2.274-.327-.752-.873-1.235-1.636-1.447a8.197 8.197 0 0 0-2.035-.298 26.61 26.61 0 0 0-2.076.04c-.69.041-1.374.056-2.05.046a7.844 7.844 0 0 1-2.011-.291c-.995-.277-1.674-.796-2.034-1.557s-.551-1.619-.572-2.573c-.021-.953.078-1.917.296-2.895.217-.975.423-1.812.617-2.51.147-.53.372-1.21.674-2.038s.659-1.694 1.072-2.598c.412-.905.875-1.803 1.392-2.697a14.846 14.846 0 0 1 1.641-2.333c.577-.661 1.181-1.164 1.813-1.506.631-.342 1.278-.423 1.943-.238.597.166.929.482.997.947.066.466.03 1.019-.112 1.658a86.16 86.16 0 0 1-.485 2.038 6.382 6.382 0 0 0-.187 2.119c.056.696.309 1.329.758 1.9.448.572 1.254 1.019 2.416 1.342.762.212 1.465.193 2.107-.057a4.86 4.86 0 0 0 1.709-1.134 7.237 7.237 0 0 0 1.262-1.741 9.834 9.834 0 0 0 .777-1.929c.369-1.327.626-2.766.772-4.318a14.34 14.34 0 0 0-.26-4.467zM273.214 110.983c.202-1.499.312-2.988.33-4.467a22.402 22.402 0 0 0-.357-4.31 8.05 8.05 0 0 0-.939-2.7 10.277 10.277 0 0 0-3.971-3.946 11.908 11.908 0 0 0-2.599-1.072c-.962-.268-2.064-.386-3.307-.356a13.773 13.773 0 0 0-3.587.558c-1.149.342-2.172.871-3.068 1.587s-1.497 1.622-1.801 2.717c-.203.731-.112 1.399.273 2.007s.943 1.013 1.673 1.216c.664.185 1.3.209 1.91.075.609-.134 1.228-.302 1.856-.503s1.28-.359 1.956-.475c.676-.115 1.428-.059 2.259.172 1.028.286 1.737.822 2.126 1.61.388.788.44 1.696.154 2.725a3.536 3.536 0 0 1-.149.441 3.612 3.612 0 0 0-.149.442c-1.308-.184-2.835-.252-4.583-.202s-3.454.3-5.116.75c-1.663.45-3.15 1.135-4.459 2.058-1.313.923-2.189 2.18-2.632 3.774-.249.895-.301 1.856-.157 2.879a9.281 9.281 0 0 0 .908 2.907 8.867 8.867 0 0 0 1.793 2.429 5.915 5.915 0 0 0 2.544 1.458c1.393.387 2.836.502 4.328.345a12.732 12.732 0 0 0 4.218-1.187c-.366 1.186-.328 2.269.115 3.25s1.278 1.642 2.505 1.984c.897.249 1.686.111 2.368-.414.682-.526 1.266-1.212 1.753-2.061.486-.847.888-1.746 1.205-2.695.316-.948.559-1.721.725-2.319a97.097 97.097 0 0 0 1.07-4.234c.333-1.464.603-2.944.805-4.443zm-11.901 5.38c-.936.151-1.77.124-2.499-.078a2.618 2.618 0 0 1-1.076-.567c-.286-.258-.364-.619-.235-1.084.138-.498.479-.921 1.023-1.27s1.168-.632 1.872-.848 1.409-.342 2.117-.377c.706-.036 1.275.006 1.707.126l.193.08.192.08-.792 3.427c-.732.19-1.567.36-2.502.511zM300.918 113.349c.287-1.422.376-2.8.265-4.136-.112-1.336-.527-2.542-1.247-3.618-.719-1.076-1.927-1.85-3.618-2.32-.897-.249-1.721-.372-2.473-.366a8.388 8.388 0 0 0-2.113.27 8.507 8.507 0 0 0-1.837.723c-.568.307-1.083.647-1.543 1.019.002-.392-.019-.863-.064-1.412a7.155 7.155 0 0 0-.308-1.588 5.026 5.026 0 0 0-.667-1.365 1.985 1.985 0 0 0-1.121-.794c-1.028-.286-1.905-.154-2.63.395s-1.34 1.282-1.844 2.196a14.443 14.443 0 0 0-1.211 2.908 159.244 159.244 0 0 0-.73 2.533 94.354 94.354 0 0 0-.95 3.704 96.027 96.027 0 0 1-.964 3.755l-.65 2.339a71.35 71.35 0 0 1-.474 1.611 27.088 27.088 0 0 0-.573 2.255 34.55 34.55 0 0 0-.443 2.558c-.12.878-.142 1.695-.065 2.449.076.754.27 1.407.582 1.958.311.551.798.92 1.463 1.105.597.166 1.148.176 1.654.03a4.248 4.248 0 0 0 1.404-.709c.43-.327.822-.737 1.173-1.229a9.886 9.886 0 0 0 .925-1.594c.299-.561.569-1.147.811-1.759a39.37 39.37 0 0 0 .661-1.801l.803-2.888c.212-.763.415-1.52.605-2.272.191-.751.388-1.491.591-2.222.083-.299.316-.726.704-1.279.385-.554.822-1.094 1.308-1.621.486-.526.978-.979 1.477-1.358.498-.38.898-.528 1.196-.445.431.12.743.35.935.689.191.34.288.734.288 1.18.001.447-.046.908-.142 1.381-.097.474-.199.91-.31 1.308-.277.996-.612 1.976-1.005 2.939s-.803 1.922-1.229 2.875a93.751 93.751 0 0 0-1.229 2.877 26.565 26.565 0 0 0-1.004 2.938c-.102.366-.223.895-.362 1.589s-.219 1.396-.237 2.106c-.019.71.066 1.367.256 1.975.188.607.565.988 1.13 1.145.862.24 1.735.089 2.618-.451.883-.541 1.736-1.323 2.557-2.347a28.027 28.027 0 0 0 2.367-3.498 46.99 46.99 0 0 0 2.019-3.889 56.143 56.143 0 0 0 1.499-3.553c.408-1.084.69-1.908.847-2.472.316-1.127.617-2.403.905-3.824z"/></g><path d="m209.748 71.083.012.003c6.977 2 3.243 8.406 3.351 8.952l-7.403 21.055s-2.565 8.121-5.817 7.42a4.603 4.603 0 0 1-.235-.058c-1.298-.361-5.058-2.017-2.648-8.551.703-1.679 7.99-24.058 8.856-26.399.862-2.33 2.956-2.68 3.884-2.422m.804-2.89c-2.229-.62-6.03.296-7.501 4.272-.4 1.08-1.977 5.85-3.805 11.374-1.958 5.919-4.64 14.025-5.005 14.908l-.022.054-.025.066c-1.262 3.425-1.298 6.342-.106 8.67.943 1.841 2.679 3.229 4.766 3.809.158.044.295.076.406.1 5.462 1.179 8.478-6.831 9.295-9.401l7.388-21.011.273-.774-.02-.097c.523-1.517 1.556-4.764-.021-7.801-1.035-1.993-2.915-3.392-5.588-4.159l-.011-.003zM264.415 112.345l-.193-.08c-.432-.12-1.001-.162-1.707-.126a8.648 8.648 0 0 0-2.117.377c-.704.215-1.327.498-1.871.847s-.885.773-1.023 1.271c-.129.465-.051.826.235 1.084.285.259.644.447 1.076.567.729.203 1.563.229 2.499.078a27.48 27.48 0 0 0 2.502-.512l.792-3.427z" fill="#740806"/><path d="M303.858 113.945c.342-1.695.448-3.37.314-4.981a10.503 10.503 0 0 0-1.744-5.038c-1.125-1.684-2.911-2.876-5.308-3.542-1.163-.323-2.273-.483-3.3-.475a11.482 11.482 0 0 0-3.213.471 7.82 7.82 0 0 0-.841-1.549 4.994 4.994 0 0 0-2.772-1.959c-1.918-.533-3.782-.215-5.246.896-1.055.798-1.951 1.854-2.658 3.136a17.607 17.607 0 0 0-1.462 3.508 173.088 173.088 0 0 0-.743 2.579c-.157.565-.289 1.132-.436 1.701.048-.715.084-1.429.093-2.137a25.596 25.596 0 0 0-.4-4.86 11.11 11.11 0 0 0-1.284-3.665 13.288 13.288 0 0 0-5.124-5.092 14.928 14.928 0 0 0-3.253-1.34c-1.24-.345-2.647-.501-4.181-.465-1.501.037-2.97.266-4.369.681a11.992 11.992 0 0 0-4.088 2.119c-.179.143-.329.306-.493.459.346-1.355.599-2.809.743-4.344a17.43 17.43 0 0 0-.318-5.401 12.535 12.535 0 0 0-2.34-5.01c-1.271-1.633-3.056-2.778-5.309-3.404-2.127-.591-4.248-.662-6.306-.21a17.324 17.324 0 0 0-5.457 2.241 22.995 22.995 0 0 0-4.615 3.833 34.542 34.542 0 0 0-3.686 4.703 39.195 39.195 0 0 0-2.801 5.061c-.787 1.715-1.405 3.369-1.835 4.915a34.415 34.415 0 0 0-1.182 7.104c-.158 2.553.087 5.019.726 7.327a16.28 16.28 0 0 0 3.514 6.488c1.742 1.974 4.12 3.391 7.068 4.21 1.251.348 2.689.472 4.274.371a16.175 16.175 0 0 0 4.471-.929 14.143 14.143 0 0 0 3.98-2.2 8.438 8.438 0 0 0 1.782-1.913c.22 1.038.567 2.042 1.044 2.989a11.928 11.928 0 0 0 2.394 3.243 8.907 8.907 0 0 0 3.818 2.184c1.751.487 3.584.634 5.446.438.368-.038.733-.089 1.094-.152.058.157.121.312.19.465.567 1.256 1.797 2.907 4.437 3.641 1.798.5 3.573.171 5-.926.997-.769 1.847-1.76 2.528-2.948.23-.401.433-.822.633-1.244-.03.638-.03 1.261.03 1.85.117 1.164.439 2.219.956 3.132.704 1.247 1.836 2.118 3.27 2.517 1.138.316 2.244.323 3.289.022a7.25 7.25 0 0 0 2.386-1.201 8.368 8.368 0 0 0 1.149-1.062v.012a9.065 9.065 0 0 0 .391 2.944c.488 1.568 1.651 2.714 3.191 3.142 1.668.464 3.393.193 4.988-.783 1.175-.719 2.296-1.738 3.331-3.028a31.324 31.324 0 0 0 2.623-3.872 49.995 49.995 0 0 0 2.149-4.141 58.258 58.258 0 0 0 1.578-3.745c.446-1.182.75-2.074.932-2.728.33-1.193.65-2.55.952-4.038zm-61.445 2.849a11.11 11.11 0 0 1-3.135 1.73 13.084 13.084 0 0 1-3.643.756c-1.256.08-2.348-.009-3.278-.268-2.389-.664-4.265-1.767-5.624-3.306-1.361-1.54-2.317-3.307-2.87-5.302s-.761-4.109-.624-6.342a31.405 31.405 0 0 1 1.079-6.485c.388-1.394.944-2.884 1.672-4.469a35.987 35.987 0 0 1 2.585-4.671 31.557 31.557 0 0 1 3.366-4.294c1.246-1.334 2.583-2.445 4.012-3.335a14.22 14.22 0 0 1 4.512-1.856c1.579-.347 3.2-.291 4.859.171 1.626.452 2.874 1.237 3.743 2.355s1.462 2.391 1.78 3.82.404 2.919.26 4.47a24.7 24.7 0 0 1-.772 4.318 9.859 9.859 0 0 1-.777 1.929 7.237 7.237 0 0 1-1.262 1.741 4.86 4.86 0 0 1-1.709 1.134c-.642.25-1.345.269-2.107.057-1.162-.323-1.968-.77-2.416-1.342a3.47 3.47 0 0 1-.758-1.9 6.356 6.356 0 0 1 .187-2.119c.18-.718.342-1.397.485-2.038.142-.64.178-1.193.112-1.658-.067-.465-.399-.781-.997-.947-.665-.185-1.312-.105-1.943.238-.632.342-1.237.846-1.813 1.506a14.846 14.846 0 0 0-1.641 2.333 30.956 30.956 0 0 0-1.392 2.697c-.412.904-.77 1.77-1.072 2.598s-.526 1.508-.673 2.038c-.194.698-.4 1.534-.618 2.51a12.038 12.038 0 0 0-.296 2.895c.021.954.212 1.811.572 2.573.36.761 1.039 1.281 2.034 1.557a7.85 7.85 0 0 0 2.011.291c.676.01 1.36-.006 2.051-.046a26.565 26.565 0 0 1 2.075-.04 8.204 8.204 0 0 1 2.035.298c.764.212 1.309.694 1.636 1.447s.385 1.511.173 2.274c-.296 1.059-.902 1.953-1.819 2.682zm7.523-9.938a9.487 9.487 0 0 0-3.149 3.737c-.687-1.549-1.949-2.649-3.561-3.097a11.202 11.202 0 0 0-2.778-.407c-.78-.015-1.558 0-2.313.045-.621.037-1.237.05-1.829.041a4.877 4.877 0 0 1-1.253-.181l-.174-.059c-.148-.356-.225-.765-.236-1.245a9.07 9.07 0 0 1 .224-2.178c.204-.915.399-1.708.58-2.359.127-.457.329-1.067.602-1.814a33.03 33.03 0 0 1 .982-2.381 28.56 28.56 0 0 1 1.26-2.441l.019-.033c-.038.491-.037.982.004 1.467a6.432 6.432 0 0 0 1.389 3.505c.858 1.095 2.158 1.874 3.971 2.378 1.399.389 2.745.338 4.001-.153a7.85 7.85 0 0 0 2.756-1.824c.14-.142.256-.307.387-.458a5.3 5.3 0 0 0 .834 3.207 5.735 5.735 0 0 0 2.423 2.137 16.859 16.859 0 0 0-4.139 2.113zm20.677 15.122c-.318.949-.72 1.848-1.205 2.695-.486.849-1.07 1.535-1.753 2.061-.682.524-1.472.663-2.368.414-1.228-.341-2.063-1.003-2.505-1.984-.443-.982-.481-2.065-.115-3.25a12.732 12.732 0 0 1-4.218 1.187 11.503 11.503 0 0 1-4.328-.345 5.91 5.91 0 0 1-2.544-1.458 8.903 8.903 0 0 1-1.793-2.429c-.46-.914-.764-1.884-.908-2.907s-.092-1.983.157-2.879c.443-1.594 1.32-2.851 2.632-3.774 1.31-.923 2.797-1.608 4.459-2.058 1.663-.45 3.368-.699 5.116-.75s3.275.018 4.583.202c.046-.166.095-.313.149-.442.054-.127.103-.275.149-.441.286-1.028.234-1.937-.154-2.725-.389-.787-1.098-1.324-2.126-1.61-.831-.231-1.583-.288-2.259-.172s-1.328.274-1.956.475c-.627.201-1.247.369-1.856.503-.61.134-1.246.11-1.91-.075-.73-.203-1.288-.608-1.673-1.216-.386-.607-.476-1.276-.273-2.007.305-1.096.905-2.001 1.801-2.717s1.919-1.245 3.068-1.587a13.773 13.773 0 0 1 3.587-.558c1.243-.03 2.344.089 3.307.356.897.249 1.763.607 2.599 1.072a10.325 10.325 0 0 1 3.971 3.946 8.05 8.05 0 0 1 .939 2.7c.256 1.395.373 2.831.357 4.31-.018 1.479-.128 2.968-.33 4.467s-.471 2.979-.806 4.442a96.375 96.375 0 0 1-1.07 4.234 48.345 48.345 0 0 1-.724 2.32zm28.555-2.331a55.805 55.805 0 0 1-1.499 3.553 46.676 46.676 0 0 1-2.019 3.889 28.027 28.027 0 0 1-2.367 3.498c-.821 1.024-1.674 1.806-2.557 2.347s-1.756.691-2.618.451c-.565-.157-.942-.539-1.13-1.145a6.029 6.029 0 0 1-.256-1.975c.018-.71.098-1.412.237-2.106s.26-1.223.362-1.589c.277-.995.611-1.975 1.004-2.938.392-.963.802-1.922 1.229-2.877.426-.954.836-1.912 1.229-2.875.393-.964.728-1.943 1.005-2.939.111-.398.213-.834.31-1.308.096-.473.143-.934.142-1.381 0-.447-.097-.84-.288-1.18-.192-.339-.504-.569-.935-.689-.298-.083-.698.066-1.196.445-.5.38-.992.832-1.477 1.358a15.148 15.148 0 0 0-1.308 1.621c-.388.553-.621.98-.704 1.279-.203.731-.401 1.47-.591 2.222-.191.752-.393 1.509-.605 2.272l-.803 2.887a39.37 39.37 0 0 1-.661 1.801 17.117 17.117 0 0 1-.811 1.759c-.265.57-.574 1.1-.925 1.594a5.628 5.628 0 0 1-1.173 1.229c-.432.328-.9.563-1.404.709-.506.146-1.056.136-1.654-.03-.664-.185-1.152-.554-1.463-1.105-.312-.551-.507-1.204-.582-1.958-.077-.753-.055-1.57.065-2.449.119-.879.266-1.731.443-2.558a27.19 27.19 0 0 1 .573-2.255 71.35 71.35 0 0 0 .474-1.611l.65-2.339c.351-1.262.672-2.513.964-3.755.291-1.241.608-2.476.95-3.704.185-.664.427-1.508.73-2.533a14.467 14.467 0 0 1 1.211-2.908c.504-.914 1.119-1.647 1.844-2.196.724-.549 1.601-.681 2.63-.395.465.129.839.394 1.121.794.281.4.504.856.667 1.365.161.51.264 1.039.308 1.588.044.548.065 1.02.064 1.412.46-.373.975-.712 1.543-1.019a8.507 8.507 0 0 1 1.837-.723 8.44 8.44 0 0 1 2.113-.27c.752-.006 1.576.116 2.473.366 1.692.47 2.899 1.244 3.618 2.32.721 1.076 1.135 2.282 1.247 3.618a14.685 14.685 0 0 1-.265 4.136 56.78 56.78 0 0 1-.903 3.825c-.159.564-.442 1.388-.849 2.472z" fill="#740806"/></g></g></svg>