<svg xmlns="http://www.w3.org/2000/svg" xml:space="preserve" width="512" height="512"><path fill="#2D2D39" d="M110.666 405.639c-1.276-4.557-4.688-7.728-9.629-8.934-3.088-.926-30.416-10.098-38.838-46.734-2.896-13.368 7.504-25.541 17.566-37.314 12.708-15.167 25.85-30.849 18.549-51.435-2.26-7.198-10.03-11.304-17.322-9.142-6.404 1.967-10.497 8.215-9.731 14.851.165 1.703.308 3.498.091 5.069-1.556 11.146-8.994 19.765-16.903 28.93l-.099.116c-15.206 17.633-32.441 37.62-9.684 80.91l.002.002c16.528 30.865 44.058 40.058 49.409 41.587l.191.055c1.263.309 2.499.461 3.693.461 3.474 0 6.6-1.289 9.036-3.779 3.63-3.84 5.07-9.586 3.669-14.643zm-10.679-4.597c2.508.617 4.463 1.957 5.948 4.05.271.505.443 1.07.622 1.661.914 3.509-.175 7.711-2.636 10.207-2.368 2.262-5.121 2.939-8.426 2.081-.293-.068-29.495-7.141-46.767-39.394-21.375-40.703-5.85-58.595 9.163-75.898 7.965-9.137 16.201-18.587 17.963-31.279.24-1.866.064-3.734-.092-5.382l-.079-.855c-.494-4.434 2.291-8.642 6.617-10.002a9.616 9.616 0 0 1 2.702-.392c4.024 0 7.704 2.583 9.001 6.665 6.448 18.284-5.85 32.999-17.747 47.235-10.682 12.68-21.727 25.792-18.402 41.144 8.968 39.204 38.695 49.132 42.055 50.135l.19-.431-.135.448.023.007z"/><path fill="#9D706B" d="M100.098 400.588c-1.349-.408-32.52-9.285-41.789-49.809-3.264-15.063 7.681-28.129 18.303-40.74 11.968-14.32 24.367-29.153 17.83-47.691-1.65-5.191-7.024-8.105-12.274-6.565-4.474 1.407-7.47 5.837-6.949 10.502.164 1.89.446 3.999.172 6.124-1.715 12.361-9.538 21.495-17.851 31.032-15.112 17.417-30.707 35.516-9.225 76.422 17.05 31.837 45.786 39.334 47.076 39.632 4.434 1.157 7.171-.591 8.853-2.198 2.655-2.693 3.702-7.068 2.766-10.663-.184-.608-.368-1.215-.662-1.764-1.162-1.639-2.996-3.481-6.25-4.282z"/><path fill="#FDE7CF" d="M161.783 266.977c46.203-30.262 195.811 35.465 212.748 42.937l.125.125v.249c.747 8.593 6.6 84.809-9.216 133.128l-.125.249h-.249c-12.204-2.366-23.786 0-29.141 1.494 6.849-.623 22.915-1.121 36.613 4.359 6.849 2.74 10.586 7.597 10.336 13.574-.249 6.227-4.608 11.706-8.468 12.952-6.102 1.868-34.372 2.117-47.448 2.117h-4.484l.623-.498c1.993-1.743 3.612-3.861 4.483-5.978 1.37-3.113 1.245-12.827-3.985-20.424-2.366-3.487-5.48-5.978-9.34-7.597l-.249-.125v-48.693l-3.362 47.573-.374-.125a31.375 31.375 0 0 0-7.846-.623c-20.05.996-26.277 7.597-28.02 10.336 2.74-1.743 11.084-5.978 28.27-6.849 7.97-.374 14.072 2.242 17.933 7.846 4.483 6.476 4.483 15.069 3.736 16.937-1.619 3.612-6.476 7.846-10.336 7.846h-36.738c-6.974 0-13.823-2.491-19.054-7.099-11.831-10.336-27.522-28.892-34.87-59.03-8.842-36.24-12.08-56.165-13.201-63.389-.249 7.099.374 26.526 9.714 64.26 3.612 14.944 9.714 28.519 17.933 40.474l.249.374-.374.125c-4.483 1.743-16.19 5.729-29.017 5.106h-.249v-.249c0-1.993-.374-3.985-.872-5.978-3.113-11.955-13.823-20.673-22.292-22.915a86.606 86.606 0 0 0-4.11-.747l-.747-.125.498-.498c5.978-5.23 15.691-17.684 12.454-42.591-3.487-27.398-25.156-41.968-34.87-47.199 8.717 6.102 28.02 22.292 31.258 47.573 3.985 30.885-12.827 40.972-15.318 42.342l.125.249h-.498c-8.593.498-16.812 3.487-21.046 5.106 6.351-1.245 20.922-3.487 31.258-.747 7.597 1.993 16.937 10.087 19.801 20.299 1.37 5.106 1.619 12.827-5.106 20.797-.872 1.121-2.242 1.619-3.487 1.619l-84.622 1.607c-23.651-7.602-33.101-28.978-32.957-53.09.002-42.464 32.73-123.584 83.914-157.084z"/><path fill="#FFFAF5" d="M215.25 384.013s-17.933.125-22.915 10.835c0 0-1.993 12.703-1.993 13.45s-10.087 17.933-10.087 17.933l-4.732 4.11s18.556-.374 29.515 19.428l1.245 10.586 18.68-1.993 15.318-4.483c.001-.002-27.895-53.178-25.031-69.866z"/><path fill="#9D706B" d="M156.967 429.593c-11.333-1.37-34.372-5.853-54.671-20.424 0 0-11.562 27.861-4.713 35.583 30.636 34.994 104.092 38.883 108.451 18.957-.125-1.619-1.993-9.084-2.242-10.454-2.74-10.212-12.204-18.431-19.677-20.299-10.461-2.74-24.907-.374-31.258.747.996-.374 2.242-.872 3.612-1.37-2.242.498-4.11.996-5.106 1.494.498-.125 2.616-1.619 5.604-4.234z"/><path fill="#9D706B" d="M200.804 471.188a19.09 19.09 0 0 1-1.37 1.993c.498-.748.996-1.371 1.37-1.993z"/><g fill="#9D706B"><path d="M346.909 444.266c-.644 6.825-1.288 36.443 30.133 30.906 3.219-2.318 6.052-6.954 6.31-12.105.258-6.181-3.477-11.203-10.688-14.036-8.499-3.348-18.028-4.507-25.755-4.765zM270.147 460.29c.259 5.19 4.282 9.342 9.342 10.51 30.621 7.785 48.267-9.472 38.925-21.409-3.892-3.373-9.082-4.93-15.44-4.541-16.478.779-25.042 4.541-28.675 6.617-2.725 2.205-4.412 5.06-4.152 8.823zM310.644 442.42l1.743-24.907c-3.113 1.868-19.303 11.084-45.082 11.084 8.344 7.223 15.296 12.825 23.515 14.817 2.989-.498 7.743-1.617 11.604-1.741 2.74-.125 5.355 0 7.846.623l.374.124z"/><path d="M376.399 474.799c-2.242.498-5.853 1.37-10.212 2.117 3.736-.249 6.6-.623 8.095-1.121.622-.124 1.37-.498 2.117-.996zM335.302 420.128c1.121 10.336 4.483 19.054 11.457 22.914 5.355-.623 11.706-.747 18.182.498h.249l.125-.249c2.615-7.97 4.608-16.688 6.227-25.779-4.11 1.246-16.937 3.861-36.24 2.616z"/></g><path fill="#E0BCA2" d="m376.648 474.675-.249.249c1.37-.374 2.242-.623 2.491-.623l-2.242.374zM347.507 444.786c.125-.872.125-1.37.125-1.37a6.05 6.05 0 0 0-.872-.374c-4.608.498-8.344 1.37-10.835 1.993 2.615-.124 6.725-.373 11.582-.249zM322.35 478.037c12.329 3.736 31.258 1.37 43.712-.996-11.084.872-29.515.996-39.229.996h-4.483zM312.139 442.42c.623 1.868 9.216 7.472 10.087 7.721.374.125 1.245 3.113 2.117 6.351.996 3.861 1.868 8.095 2.117 9.091v.25l-2.989 8.468-1.245 3.487.623-.498c1.993-1.743 3.612-3.861 4.483-5.978 1.37-3.113 1.245-12.827-3.985-20.424-2.366-3.487-5.48-5.978-9.34-7.597l-.249-.125.241-25.398c7.721 1.494 14.953 1.986 21.304 2.359-2.74-24.658 6.476-59.154 6.476-59.154l-27.024 13.201c.248.25-3.239 66.502-2.616 68.246zM275.152 451.635c7.472-6.476 22.79-7.97 22.79-7.97-1.868-.125-3.861-.374-5.729-.872-12.08 2.242-16.439 6.974-17.809 9.216.249 0 .498-.249.748-.374zM132.098 294.97c-23.786 27.896-41.638 66.525-49.359 97.659 5.604 7.223 10.291 11.494 19.557 16.54-.498-41.221 23.451-99.13 29.802-114.199z"/><path fill="#8A5D58" d="M78.884 424.611c-.186 41.668 28.34 50.472 31.756 51.184h84.435c7.036-1.748 9.255-11.854 9.216-18.182-6.536 30.146-109.006 7.296-101.995-48.444-6.725-4.732-13.201-10.585-18.805-17.808-2.606 10.238-4.174 20.851-4.857 31.383.25.497.25 1.12.25 1.867z"/><path fill="#8A5D58" d="M151.239 434.076c1.027-.23 3.024-.71 5.266-1.208 2.242-.747 4.81-1.5 7.561-2.653-.374 0-2.989-.125-7.099-.623-3.362 2.74-5.479 4.235-5.728 4.484z"/><path fill="#E0BCA2" d="M156.345 432.457c7.223-1.494 18.68-2.491 18.68-2.491s11.706-1.868 16.314-25.156-9.589-44.957-9.589-44.957c12.952 33.5-12.703 59.652-24.783 69.74 4.11.498 6.6.623 6.974.623-2.739.622-5.355 1.494-7.596 2.241z"/><g fill="#E0BCA2"><path d="M211.14 356.241c0 .498.249 1.494.374 2.989.498 4.359 1.37 11.457 2.864 19.801.996 7.099 1.868 13.076 1.993 13.325.249.747 7.223 28.02 7.223 28.02l.107.242 1.667.218c-.01-.03-.021-.057-.03-.087.133.047.264.089.397.135l.628 2.418 4.709 1.568c13.819 4.36 25.407 3.724 36.235 3.724-27.307-23.588-52.934-67.067-56.177-73.932.117.592.19 1.436.261 2.573-.126-.495-.126-.869-.251-.994zM211.128 354.664c-.088-.446-.201-.753-.362-.914.001.101.13.422.362.914z"/></g><path fill="#2D2D39" d="M175.523 432.083c.872-.374 22.416-10.835 17.809-46.452-4.483-35.368-39.229-49.441-39.602-49.565 0 0 31.258 17.31 35.368 50.188 4.11 32.504-14.695 41.844-15.567 42.217l1.992 3.612z"/><path fill="#2D2D39" d="M110.142 479.656h83.19c4.11 0 7.846-1.993 10.212-5.355 3.238-4.732 6.6-12.329 3.985-22.043-3.238-12.08-14.073-20.922-22.541-23.164-15.193-3.861-34.496 5.106-35.368 5.604 0 0 20.548-4.981 34.247-1.494 7.472 1.868 16.812 9.963 19.552 20.05 1.37 5.23 1.494 12.703-5.106 20.548-.872.996-1.993 1.619-3.238 1.619H110.64c-3.113-.872-31.632-9.465-31.383-50.935.249-42.716 32.006-122.916 83.065-156.292 46.203-30.262 197.389 35.493 211.959 41.968.872 10.586 6.6 86.677-9.714 134.498l3.985 1.37c17.809-52.056 9.963-136.615 9.838-137.487l-.125-1.245-1.121-.498c-6.849-3.113-166.877-75.095-217.19-42.217-52.18 34.123-84.684 116.067-85.058 159.779-.374 46.327 34.496 55.045 34.87 55.169l.376.125z"/><path fill="#2D2D39" d="M211.389 462.719c16.19 0 29.39-6.227 30.013-6.6l-1.868-3.861c-.125.125-15.816 7.472-33.126 5.978l-.374 4.234c1.868.249 3.612.249 5.355.249z"/><path fill="#FDE7CF" d="M424.393 237.956c-.368-21.832-7.575-49.378-15.126-66.714l-6.218-20.904c-1.512-5.033-.288 1.987 4.86-22.922 2.952-14.763 4.821-33.08.14-47.411-5.772-17.482-14.052-32.229-24.465-47.143-.109.126.363-.373-5.418 5.684-26.351 18.044-44.156 49.005-46.354 52.107 0 .102-27.311-3.674-35.869-4.744 0 .1-35.853 4.844-35.853 4.744-2.364-3.338-20.154-34.167-46.354-52.107-5.781-6.057-5.309-5.558-5.418-5.684-10.416 14.917-18.692 29.661-24.465 47.143-4.674 14.307-2.822 32.595.14 47.411 5.169 24.935 6.364 17.917 4.86 22.922l-6.218 20.904c-7.667 17.6-14.762 45.128-15.126 66.714-.508 23.815 6.304 46.011 27.145 57.944 35.119 20.114 75.736 29.651 101.291 29.651 26.98 0 67.306-10.178 101.306-29.651 20.813-11.917 27.651-34.064 27.142-57.944z"/><path fill="#9D706B" d="M360.278 158.935c-15.904-6.891-34.082-5.812-47.179-3.422a95.817 95.817 0 0 1-17.149 1.589 95.808 95.808 0 0 1-17.149-1.589c-13.097-2.39-31.275-3.468-47.179 3.422-28.618 12.424-50.125 67.421-18.259 102.547 22.528 25.057 48.721 27.62 66.319 26.669a330.692 330.692 0 0 1 16.268-.383c5.426 0 10.841.116 16.268.383 17.598.951 43.791-1.612 66.319-26.669 31.866-35.126 10.359-90.123-18.259-102.547z"/><path fill="#E0BCA2" d="m331.797 90.781 13.233 4.564c10.772-35.6 30.098-51.306 30.098-51.306l.82.019c-11.307-5.535-44.151 46.723-44.151 46.723z"/><path fill="#F6B0A6" d="m397.207 54.08-13.703-20.05-4.026 5.09-14.847 21.276s-7.961 19.487-8.057 20.059c-.076.458-.025 12.816-.025 12.816l6.006 2.768 10.11-6.308 5.683 1.185-.065 17.984s3.945 5.246 4.25 5.532c.419.305 5.255-4.632 5.255-4.632-.754 22.103 19.472 21.349 19.472 21.349l3.423-19.775-1.19-24.545-12.286-32.749z"/><ellipse transform="rotate(-22.351 361.526 228.238)" fill="#F6B0A6" cx="361.499" cy="228.231" rx="18.908" ry="11.251"/><path fill="#2D2D39" d="m383.926 30.102-1.488 1.163c-39.242 30.019-51.709 58.162-52.262 59.363l3.832 1.699c.153-.21 12.256-27.59 49.305-56.446 6.9 8.68 39.738 54.275 17.572 108.788-.363.763-.745 1.64-1.012 2.536.4 1.125.781 2.365 1.143 3.719l1.411.706c.21-.553.534-1.087.725-1.525 29.017-64.542-17.472-117.828-17.968-118.381l-1.258-1.622z"/><path fill="#2D2D39" d="M381.189 110.696c-.35-1.439-.627-4.259-.518-9.747.098-6.217.177-11.614-3.541-12.588-2.365-.63-5.054.684-8.144 2.285-4.864 2.363-8.145 3.696-10.089 1.254-3.964-5.132 5.602-32.113 26.325-57.582l-3.57-2.189c-20.131 24.745-32.517 54.141-26.227 62.249 4.174 5.285 10.564 2.236 15.18-.05 1.793-.876 4.101-2.02 5.15-1.962.629 1.164.569 5.741.473 8.43-.059 5.848-.504 16.53 6.477 15.431 5.207-.894 8.474-14.814 8.474-14.814-2.215 4.244-5.678 8.793-7.927 10.263-1.285.84-1.682.585-2.063-.98zM466.834 193.418c-22.687 1.157-46.202 8.247-68.004 20.506 0 0 16.428-5.212 34.075-10.359 12.574-3.669 33.929-10.147 33.929-10.147zM478.333 216.373c-22.584-2.446-46.925.837-70.391 9.493 0 0 17.046-2.548 35.284-4.84 12.997-1.633 35.107-4.653 35.107-4.653zM473.622 247.225c-21.25-8.031-45.635-10.956-70.522-8.46 0 0 17.14 1.808 35.371 4.162 12.99 1.677 35.151 4.298 35.151 4.298z"/><path fill="#FFFAF5" d="M354.327 99.367c-11.6-5.064-32.379-14.534-58.803-14.534-28.825 0-58.016 14.568-57.916 14.534 41.022-8.322 73.18-8.825 116.682 0 .035.012.058.012.058.012-.009 0-.009-.012-.021-.012z"/><path fill="#E0BCA2" d="m215.952 44.059.82-.019s19.326 15.706 30.098 51.306l13.233-4.564c0-.001-32.844-52.259-44.151-46.723zM421.458 263.813c-18.783 13.587-63.576 42.738-125.5 42.005h-.016c-61.809.732-106.592-28.313-125.5-42.005-.035-.035-.07-.058-.104-.081 3.596 13.05 11.055 24.616 24.337 32.284 46.785 26.805 90.44 29.585 101.268 29.638h.016c10.696-.057 54.39-2.781 101.268-29.638 13.282-7.668 20.741-19.233 24.337-32.284a.636.636 0 0 0-.106.081z"/><path fill="#F6B0A6" d="m182.407 86.831-1.19 24.545 3.423 19.775s20.049.559 19.295-21.544c0 0 5.013 5.132 5.432 4.827.305-.286 4.25-5.532 4.25-5.532l-.065-17.984 5.683-1.185 10.11 6.308 6.006-2.768s.052-12.358-.025-12.816c-.096-.572-8.057-20.059-8.057-20.059l-14.847-21.276-4.026-5.09-13.703 20.05-12.286 32.749z"/><ellipse transform="rotate(-67.649 230.336 228.218)" fill="#F6B0A6" cx="230.355" cy="228.228" rx="11.251" ry="18.908"/><path fill="#2D2D39" d="M206.716 31.724c-.496.553-46.985 53.839-17.968 118.381.191.439.515.972.725 1.525l1.411-.706a48.647 48.647 0 0 1 1.143-3.719c-.267-.896-.649-1.773-1.012-2.536-22.166-54.513 10.672-100.108 17.572-108.788 37.049 28.856 49.152 56.237 49.305 56.446l3.832-1.699c-.554-1.201-13.02-29.344-52.262-59.363l-1.488-1.163-1.258 1.622z"/><path fill="#2D2D39" d="M200.722 101.412s3.267 13.92 8.474 14.814c6.921 1.09 6.536-9.503 6.477-15.431-.097-2.689-.156-7.266.473-8.43 1.049-.058 3.357 1.086 5.15 1.962 4.616 2.286 11.006 5.335 15.18.05 6.29-8.108-5.856-36.938-25.987-61.683l-3.81 1.623c20.723 25.469 30.289 52.45 26.325 57.582-1.944 2.442-5.225 1.108-10.089-1.254-3.09-1.601-5.78-2.915-8.144-2.285-3.718.974-3.64 6.371-3.541 12.588.108 5.544-.175 8.365-.53 9.791-.351 1.412-.727 2.178-2.948.247-2.199-1.913-5.093-5.86-7.03-9.574zM331.643 234.045l-.429 2.6c0 .001-.034.223-.057.342l-.14.802c-.469 2.826-3.466 16.93-16.344 17.059-6.238.081-12.356-3.278-15.886-8.778a38.277 38.277 0 0 1-.759-1.359c5.411-2.579 14.322-7.405 15.626-11.752.304-1.011.195-1.956-.326-2.812-2.066-3.308-10.649-4.496-17.386-4.508-6.721.012-15.302 1.199-17.373 4.511-.518.853-.628 1.798-.323 2.809 1.305 4.347 10.216 9.174 15.627 11.752-.244.458-.5.919-.752 1.349-3.489 5.439-9.465 8.789-15.648 8.789l-.246-.001c-12.877-.129-15.873-14.233-16.343-17.061l-.14-.808c-.022-.111-.055-.333-.056-.339l-.431-2.595-9.315 4.929 6.55-.11c.986 4.908 5.149 19.495 19.673 19.564l.085-.011c7.481-.071 14.652-4.091 18.7-10.463 4.079 6.386 11.236 10.392 18.673 10.461l.15.013c14.488-.071 18.652-14.658 19.639-19.566l6.55.11-9.319-4.927zM295.95 272.478c-4.997-.094-9.994-1.567-14.655-4.234 6.245 10.783 23.066 10.782 29.31 0-4.661 2.668-9.658 4.14-14.655 4.234zM354.327 99.367c-29.363-16.433-52.329-15.37-58.476-15.37-6.183 0-28.955-1.042-58.279 15.37-.012 0-.012.012-.023.012 0 0 .023 0 .058-.012 35.315-9.47 42.253-11.173 58.441-11.173 15.878 0 22.048 1.467 58.244 11.173.035.012.058.012.058.012-.011 0-.011-.012-.023-.012zM125.067 193.418c22.687 1.157 46.202 8.247 68.004 20.506 0 0-16.428-5.212-34.075-10.359-12.575-3.669-33.929-10.147-33.929-10.147zM113.567 216.373c22.584-2.446 46.925.837 70.391 9.493 0 0-17.046-2.548-35.284-4.84-12.997-1.633-35.107-4.653-35.107-4.653zM118.278 247.225c21.25-8.031 45.635-10.956 70.522-8.46 0 0-17.14 1.808-35.371 4.162-12.99 1.677-35.151 4.298-35.151 4.298z"/><path fill="#3D3D44" d="M309.248 229.917c-.046-.719-3.422-1.334-8.259-1.624h-.035c-1.538-.093-3.227-.15-4.996-.185h-.016c-1.769.035-3.458.093-4.996.185h-.035c-4.837.29-8.213.905-8.259 1.624-.058 1.055 5.85 1.808 13.29 1.856h.016c7.44-.047 13.348-.801 13.29-1.856z"/><path fill="#2D2D39" d="M403.192 149.878c-2.072-4.817-5.924-13.409-8.823-19 .414 1.351 5.7 16.318 6.666 19.932 3.657 11.196 8.341 26.093 12.797 41.657 5.388 19.131 9.384 40.263 7.983 59.2-1.327 18.183-11.45 31.52-24.479 41.207-.975.725-39.82 29.952-99.989 29.649-51.954-.261-90.751-22.052-91.633-22.537-18.026-9.908-33.94-25.196-35.627-48.321-1.401-18.937 2.594-40.069 7.983-59.2 4.455-15.564 9.14-30.46 12.797-41.657.97-3.63 6.243-18.552 6.666-19.932-2.885 5.565-6.778 14.24-8.823 19-10.211 24.053-25.372 66.34-22.819 102.02 1.823 24.938 18.853 41.215 37.933 51.701 8.584 4.718 44.8 23.462 93.392 23.462 57.602 0 97.269-27.052 101.926-30.441 14.203-10.337 25.409-24.754 26.869-44.72 2.553-35.68-12.608-77.967-22.819-102.02z"/><g fill="#2D2D39"><path d="M322.336 205.228c8.655-13.95 30.85-12.438 40.247 0-13.383-3.809-26.964-5.76-40.247 0zM229.317 205.228c8.655-13.95 30.85-12.438 40.247 0-13.383-3.809-26.964-5.76-40.247 0z"/></g><path fill="#8A5D58" d="M225.836 421.124c8.095 24.783 21.669 40.599 32.255 49.814 5.23 4.483 11.955 7.099 19.054 7.099h36.738c3.861 0 10.715-6.318 12.334-9.93.747-1.743-.206-9.095-4.565-15.696-.872-1.245-2.913-1.649-4.034-2.52 8.842 11.457-8.095 28.02-37.361 20.548-4.857-1.245-8.717-5.23-8.967-10.087-.249-3.612 1.494-6.351 3.985-8.593-.249.125-.498.374-.747.498 1.37-2.242 5.729-6.974 17.809-9.216-8.219-1.993-16.688-7.348-25.032-14.446-12.079-.123-26.027-2.116-41.469-7.471z"/><path fill="#8A5D58" d="M314.007 417.388v26.028l.249.125c3.861 1.619 6.974 4.11 9.34 7.597 5.23 7.597 5.355 17.31 3.985 20.424-.872 1.993-2.491 4.11-4.483 5.978l-.623.498h4.483c9.714 0 23.19 1.349 34.398.477l11.762-.207c4.359-.872 2.145-1.557 3.281-3.383l.249-.249c-30.511 5.355-29.764-23.164-29.141-29.889-4.857-.125-8.842 0-11.582.249a86.584 86.584 0 0 1 11.229-1.993c-7.099-3.736-10.73-12.454-11.851-22.915-6.477-.374-13.575-1.245-21.296-2.74z"/><g><path fill="#2D2D39" d="M310.021 445.409h4.235v-59.528z"/></g><g><path fill="#2D2D39" d="M327.705 481.898c16.19 0 41.346-.374 47.697-2.242 10.983-3.432 19.403-25.452-1.494-33.749-19.303-7.721-40.349-.374-41.221 0 0 0 21.918-3.113 39.727 3.985 16.852 6.866 9.131 23.758 1.743 25.903-7.223 2.242-45.954 2.242-60.275 1.993l-.264 3.985c.622-.125 6.491.125 14.087.125z"/></g><g><path fill="#2D2D39" d="M277.144 481.773h36.738c8.847 0 22.357-12.882 9.963-30.885-3.238-4.732-9.465-10.212-21.296-9.589-24.16 1.245-28.519 10.586-28.892 11.706 0 0 7.721-6.351 29.141-7.472 7.97-.374 13.823 2.242 17.56 7.721 10.881 15.854-1.698 24.284-6.475 24.284h-36.738c-6.974 0-13.699-2.491-18.805-6.974-11.831-10.212-27.398-28.768-34.87-58.781-11.582-47.448-13.574-66.626-13.574-66.626-.125.747-2.366 19.178 9.465 67.623 7.597 31.134 23.911 50.437 36.115 61.022 5.977 5.231 13.698 7.971 21.668 7.971z"/></g></svg>