<svg id="Capa_1" enable-background="new 0 0 512 512" viewBox="0 0 512 512" xmlns="http://www.w3.org/2000/svg"><g><g><g><g><path d="m195.846 248.392c19.513-3.54 39.742-5.381 60.154-5.381s40.641 1.841 60.154 5.381c5.954-4.367 9.643-11.661 8.868-19.719-1.085-11.278-10.934-19.695-22.263-19.695h-1.509c20.082-29.141-14.751-54.119-32.562-64.401-4.232-2.443-9.517.605-9.517 5.491v2.572c0 11.163-7.394 21.058-18.16 24.011-24.473 6.711-26.624 22.631-25.42 32.328h-6.35c-11.33 0-21.179 8.417-22.263 19.695-.775 8.058 2.914 15.351 8.868 19.718z" fill="#fff3de"/><path d="m325.022 228.673c-1.085-11.278-10.934-19.695-22.263-19.695h-1.509c13.25-19.227 2.593-36.64-11.306-49.217.026.744.056 1.488.056 2.239 0 33.689-27.311 61-61 61h-40.654c-.699 1.783-1.177 3.68-1.368 5.673-.775 8.059 2.914 15.352 8.868 19.719 19.513-3.54 39.742-5.381 60.154-5.381s40.641 1.841 60.154 5.381c5.954-4.367 9.643-11.66 8.868-19.719z" fill="#ffe5c2"/></g><path d="m59.187 351.91c1.375 1.63 3.372 2.564 5.478 2.564 2.008 0 3.888-.876 5.159-2.405 5.48-6.591 13.533-10.371 22.095-10.371s16.614 3.78 22.094 10.37c1.291 1.552 3.206 2.442 5.253 2.442s3.962-.89 5.252-2.442c5.48-6.59 13.533-10.37 22.094-10.37 8.562 0 16.614 3.78 22.094 10.37 1.291 1.552 3.205 2.442 5.253 2.442 2.047 0 3.962-.89 5.252-2.442 5.48-6.59 13.533-10.37 22.094-10.37 8.562 0 16.614 3.78 22.094 10.37 1.291 1.552 3.205 2.442 5.253 2.442 2.047 0 3.962-.89 5.252-2.442 5.48-6.59 13.533-10.37 22.094-10.37s16.614 3.78 22.094 10.37c1.291 1.552 3.205 2.442 5.253 2.442 2.047 0 3.962-.89 5.252-2.442 5.48-6.59 13.533-10.37 22.094-10.37s16.614 3.78 22.094 10.37c1.291 1.552 3.205 2.442 5.253 2.442 2.047 0 3.962-.89 5.252-2.442 5.48-6.59 13.533-10.37 22.094-10.37s16.614 3.78 22.094 10.37c1.291 1.552 3.205 2.442 5.252 2.442s3.962-.89 5.253-2.442c5.48-6.59 13.533-10.37 22.094-10.37 8.562 0 16.615 3.78 22.095 10.371 1.271 1.529 3.151 2.405 5.159 2.405 2.106 0 4.103-.935 5.478-2.565 5.057-5.993 12.272-9.618 20.026-10.139-34.084-58.417-118.308-99.759-216.835-99.759s-182.751 41.342-216.839 99.76c7.754.52 14.969 4.146 20.026 10.139z" fill="#ffe177"/><path d="m256 242.011c-14.505 0-28.696.903-42.466 2.617 89.488 9.796 165.658 46.419 209.909 97.27 7.283.852 13.978 4.451 18.734 10.171 1.271 1.529 3.151 2.405 5.159 2.405 2.106 0 4.103-.935 5.478-2.565 5.057-5.993 12.272-9.618 20.026-10.139-34.089-58.417-118.313-99.759-216.84-99.759z" fill="#ffd15b"/><g fill="#fe9738"><ellipse cx="293.39" cy="287.312" rx="15" ry="20" transform="matrix(.966 -.259 .259 .966 -64.365 85.725)"/><ellipse cx="218.61" cy="287.312" rx="20" ry="15" transform="matrix(.259 -.966 .966 .259 -115.493 424.111)"/></g><g fill="#fe9738"><ellipse cx="149.379" cy="269.603" rx="20" ry="15" transform="matrix(.866 -.5 .5 .866 -114.789 110.81)"/><ellipse cx="362.621" cy="269.603" rx="15" ry="20" transform="matrix(.5 -.866 .866 .5 -52.173 448.84)"/></g><path d="m474.775 399.148c-8.561 0-16.614-3.78-22.094-10.37-1.291-1.552-3.205-2.442-5.252-2.442s-3.962.89-5.252 2.442c-5.48 6.59-13.534 10.37-22.094 10.37-8.561 0-16.614-3.78-22.094-10.37-1.291-1.552-3.206-2.442-5.253-2.442s-3.962.89-5.252 2.442c-5.48 6.59-13.534 10.37-22.094 10.37-8.561 0-16.614-3.78-22.094-10.37-1.291-1.552-3.205-2.442-5.252-2.442-2.048 0-3.962.89-5.253 2.442-5.48 6.59-13.534 10.37-22.094 10.37-8.561 0-16.614-3.78-22.094-10.37-1.291-1.552-3.205-2.442-5.252-2.442-2.048 0-3.962.89-5.253 2.442-5.48 6.59-13.533 10.37-22.094 10.37s-16.614-3.78-22.094-10.37c-1.291-1.552-3.205-2.442-5.252-2.442-2.048 0-3.962.89-5.253 2.442-5.48 6.59-13.533 10.37-22.094 10.37s-16.614-3.78-22.094-10.37c-1.291-1.552-3.205-2.442-5.252-2.442-2.048 0-3.962.89-5.253 2.442-5.48 6.59-13.533 10.37-22.094 10.37s-16.614-3.78-22.094-10.37c-1.291-1.552-3.205-2.442-5.252-2.442s-3.962.89-5.253 2.442c-5.48 6.591-13.533 10.371-22.094 10.371s-16.614-3.78-22.094-10.37c-1.291-1.552-3.205-2.442-5.252-2.442s-3.962.89-5.252 2.442c-5.48 6.59-13.534 10.37-22.094 10.37-.987 0-1.964-.05-2.931-.146l36.418 70.124c4.301 8.281 12.855 13.478 22.186 13.478h326.203c9.331 0 17.886-5.197 22.186-13.478l36.418-70.124c-.974.095-1.951.145-2.938.145z" fill="#6e61b6"/><path d="m474.775 399.148c-8.561 0-16.614-3.78-22.094-10.37-1.291-1.552-3.205-2.442-5.252-2.442s-3.962.89-5.252 2.442c-3.839 4.616-8.942 7.847-14.595 9.372l-20.587 39.641c-4.301 8.281-12.855 13.478-22.187 13.478h-323.37l9.274 17.858c4.301 8.281 12.855 13.478 22.187 13.478h326.203c9.331 0 17.886-5.197 22.187-13.478l36.418-70.124c-.968.095-1.945.145-2.932.145z" fill="#6354b1"/><path d="m476.911 340.773c-9.972-.697-18.988 3.529-24.862 10.492-2.383 2.825-6.74 3.007-9.103.165-5.452-6.557-13.67-10.732-22.865-10.732-9.194 0-17.411 4.174-22.863 10.731-2.308 2.775-6.66 2.775-8.967 0-5.452-6.556-13.67-10.731-22.863-10.731s-17.411 4.174-22.863 10.731c-2.308 2.775-6.66 2.775-8.967 0-5.452-6.556-13.67-10.731-22.863-10.731s-17.411 4.174-22.863 10.731c-2.308 2.775-6.66 2.775-8.967 0-5.452-6.556-13.67-10.731-22.863-10.731-9.194 0-17.411 4.174-22.863 10.731-2.308 2.775-6.66 2.775-8.967 0-5.452-6.556-13.67-10.731-22.863-10.731-9.194 0-17.411 4.174-22.863 10.731-2.308 2.775-6.66 2.775-8.967 0-5.452-6.556-13.67-10.731-22.863-10.731-9.194 0-17.411 4.174-22.863 10.731-2.308 2.775-6.66 2.775-8.967 0-5.452-6.556-13.67-10.731-22.863-10.731-9.194 0-17.413 4.175-22.864 10.732-2.363 2.842-6.72 2.66-9.103-.165-5.875-6.963-14.89-11.189-24.862-10.492-14.707 1.027-26.611 13.025-27.534 27.733-1.084 17.285 12.614 31.642 29.665 31.642 9.194 0 17.411-4.174 22.863-10.731 2.308-2.775 6.66-2.775 8.967 0 5.452 6.556 13.67 10.731 22.863 10.731s17.411-4.174 22.863-10.731c2.308-2.775 6.66-2.775 8.967 0 5.452 6.556 13.67 10.731 22.863 10.731 9.194 0 17.411-4.174 22.863-10.731 2.308-2.775 6.66-2.775 8.967 0 5.452 6.556 13.67 10.731 22.863 10.731 9.194 0 17.411-4.174 22.863-10.731 2.308-2.775 6.66-2.775 8.967 0 5.452 6.556 13.67 10.731 22.863 10.731 9.194 0 17.411-4.174 22.863-10.731 2.308-2.775 6.66-2.775 8.967 0 5.452 6.556 13.67 10.731 22.863 10.731 9.194 0 17.411-4.174 22.863-10.731 2.308-2.775 6.66-2.775 8.967 0 5.452 6.556 13.67 10.731 22.863 10.731 9.194 0 17.411-4.174 22.863-10.731 2.308-2.775 6.66-2.775 8.967 0 5.452 6.556 13.67 10.731 22.863 10.731s17.411-4.174 22.863-10.731c2.308-2.775 6.66-2.775 8.967 0 5.452 6.556 13.67 10.731 22.863 10.731 17.051 0 30.749-14.357 29.665-31.642-.917-14.708-12.821-26.706-27.523-27.733z" fill="#ffd15b"/><path d="m504.44 368.506c-.923-14.708-12.827-26.706-27.529-27.733-9.972-.697-18.988 3.529-24.862 10.492-2.383 2.825-6.74 3.007-9.103.165-4.971-5.979-12.246-9.966-20.46-10.625.989 1.12 1.967 2.245 2.925 3.379 8.253 9.774 1.367 24.729-11.426 24.729h-406.44c-.845 17.102 12.763 31.234 29.679 31.234 9.194 0 17.411-4.174 22.863-10.731 2.308-2.775 6.66-2.775 8.967 0 5.452 6.556 13.67 10.731 22.863 10.731s17.411-4.174 22.863-10.731c2.308-2.775 6.66-2.775 8.967 0 5.452 6.556 13.67 10.731 22.863 10.731s17.411-4.174 22.863-10.731c2.308-2.775 6.66-2.775 8.967 0 5.452 6.556 13.67 10.731 22.863 10.731s17.411-4.174 22.863-10.731c2.308-2.775 6.66-2.775 8.967 0 5.452 6.556 13.67 10.731 22.863 10.731s17.411-4.174 22.863-10.731c2.308-2.775 6.66-2.775 8.967 0 5.452 6.556 13.67 10.731 22.863 10.731s17.411-4.174 22.863-10.731c2.308-2.775 6.66-2.775 8.967 0 5.452 6.556 13.67 10.731 22.863 10.731s17.411-4.174 22.863-10.731c2.308-2.775 6.66-2.775 8.967 0 5.452 6.556 13.67 10.731 22.863 10.731s17.411-4.174 22.863-10.731c2.308-2.775 6.66-2.775 8.967 0 5.452 6.556 13.67 10.731 22.863 10.731 17.058.001 30.756-14.356 29.672-31.641z" fill="#ffc344"/></g></g><g><path d="m372 91.896h25.5c15.991 0 29 13.009 29 29s-13.009 29-29 29h-67.5c-4.142 0-7.5 3.358-7.5 7.5s3.358 7.5 7.5 7.5h67.5c24.262 0 44-19.738 44-44s-19.738-44-44-44h-25.5c-4.142 0-7.5 3.358-7.5 7.5s3.358 7.5 7.5 7.5z"/><path d="m125 226.896c4.142 0 7.5-3.358 7.5-7.5v-25.5c0-15.991 13.009-29 29-29h48.5c4.142 0 7.5-3.358 7.5-7.5s-3.358-7.5-7.5-7.5h-48.5c-24.262 0-44 19.738-44 44v25.5c0 4.143 3.358 7.5 7.5 7.5z"/><path d="m187.5 91.896h144.5c4.142 0 7.5-3.358 7.5-7.5s-3.358-7.5-7.5-7.5h-144.5c-11.028 0-20-8.972-20-20s8.972-20 20-20h46.033c4.142 0 7.5-3.358 7.5-7.5s-3.358-7.5-7.5-7.5h-46.033c-19.299 0-35 15.701-35 35s15.701 35 35 35z"/><path d="m282.174 309.617c4.09 3.21 8.806 4.896 13.458 4.896 1.644 0 3.279-.21 4.875-.638 6.116-1.639 11.127-6.324 13.749-12.854 2.359-5.878 2.667-12.815.868-19.533-3.991-14.895-16.662-24.002-28.851-20.739-12.187 3.266-18.606 17.491-14.616 32.387 1.8 6.717 5.535 12.57 10.517 16.481zm7.98-34.379c.317-.085.648-.126.992-.126 3.364 0 7.808 3.989 9.488 10.259.952 3.551.843 7.219-.299 10.062-.497 1.238-1.64 3.398-3.71 3.953-2.067.555-4.139-.744-5.189-1.568-2.411-1.892-4.339-5.014-5.291-8.564-1.851-6.911.59-13.1 4.009-14.016z"/><path d="m211.492 313.874c1.597.428 3.232.639 4.876.639 4.651 0 9.368-1.686 13.458-4.896 4.982-3.911 8.718-9.764 10.518-16.482 3.99-14.895-2.43-29.121-14.616-32.386-12.185-3.265-24.86 5.844-28.851 20.739-1.8 6.718-1.492 13.654.868 19.533 2.62 6.53 7.631 11.215 13.747 12.853zm-.126-28.503c1.68-6.271 6.125-10.259 9.488-10.259.343 0 .675.042.992.126 3.419.916 5.86 7.104 4.009 14.015-.951 3.55-2.879 6.672-5.291 8.564-1.049.823-3.118 2.122-5.189 1.568-2.07-.555-3.213-2.714-3.71-3.953-1.142-2.843-1.251-6.511-.299-10.061z"/><path d="m511.924 368.037c-1.162-18.515-15.99-33.452-34.491-34.745-.345-.024-.688-.029-1.032-.043-19.105-29.927-51.489-55.784-91.857-73.292-2.635-3.905-6.294-7.31-10.673-9.838-6.022-3.478-12.803-4.976-19.091-4.217-2.003.241-3.907.719-5.684 1.397-6.235-1.792-12.556-3.386-18.945-4.805 1.974-4.51 2.822-9.5 2.337-14.539-1.104-11.482-9.165-21.04-19.812-24.782 2.348-6.526 2.766-13.224 1.234-20.013-2.502-11.087-11.728-27.908-41.472-45.078-4.337-2.504-9.513-2.505-13.848-.002-4.333 2.501-6.919 6.983-6.919 11.988v2.572c0 5.945-2.955 11.415-7.904 14.632-3.473 2.258-4.458 6.903-2.2 10.376s6.904 4.457 10.376 2.2c9.222-5.996 14.728-16.167 14.728-27.208v-.549c9.857 5.895 29.176 19.168 32.606 34.371 1.144 5.072.413 10.014-2.231 15.017h-16.313c-4.142 0-7.5 3.358-7.5 7.5s3.358 7.5 7.5 7.5h22.026c7.602 0 14.102 5.672 14.798 12.913.349 3.625-.72 7.198-2.896 10.048-19.043-3.271-38.659-4.927-58.661-4.927s-39.618 1.656-58.66 4.927c-2.176-2.849-3.245-6.423-2.896-10.048.696-7.241 7.196-12.913 14.798-12.913h6.35c2.15 0 4.197-.923 5.621-2.534s2.087-3.756 1.822-5.89c-.573-4.612.066-8.706 1.899-12.165 1.939-3.66.544-8.2-3.116-10.139-3.663-1.939-8.2-.544-10.139 3.116-2.032 3.836-3.271 8.112-3.686 12.638-14.702.614-27.091 12.011-28.479 26.451-.485 5.039.362 10.029 2.337 14.538-6.389 1.418-12.71 3.013-18.945 4.805-1.777-.678-3.68-1.155-5.684-1.397-6.29-.759-13.069.741-19.091 4.217-4.381 2.529-8.041 5.935-10.677 9.843-11.212 4.861-21.908 10.385-31.81 16.454-3.532 2.165-4.64 6.783-2.475 10.314 1.415 2.309 3.878 3.582 6.401 3.582 1.336 0 2.689-.357 3.912-1.106 6.362-3.9 13.081-7.563 20.07-10.958.422 1.789 1.089 3.507 2.012 5.107 3.166 5.483 8.988 9.111 15.974 9.953 1.067.129 2.149.192 3.238.192 5.33 0 10.853-1.522 15.853-4.41 11.887-6.863 17.557-19.181 14.214-29.511 25.849-6.68 53.096-10.066 81.157-10.066s55.307 3.386 81.157 10.066c-3.344 10.33 2.327 22.648 14.214 29.511 5 2.887 10.523 4.41 15.853 4.41 1.089 0 2.171-.064 3.238-.192 6.986-.842 12.808-4.469 15.974-9.952.922-1.598 1.588-3.314 2.011-5.101 30.718 14.943 55.656 35.032 71.818 57.868-4.805 2.031-9.179 5.076-12.838 9.048-7.043-7.632-16.902-11.971-27.346-11.971s-20.304 4.34-27.347 11.971c-7.043-7.631-16.903-11.971-27.346-11.971-10.444 0-20.304 4.339-27.347 11.971-7.043-7.631-16.903-11.971-27.346-11.971-10.444 0-20.303 4.339-27.347 11.971-7.043-7.631-16.903-11.971-27.347-11.971s-20.303 4.339-27.347 11.971c-7.043-7.631-16.903-11.971-27.347-11.971-10.443 0-20.303 4.339-27.346 11.971-7.043-7.631-16.903-11.971-27.347-11.971-10.443 0-20.303 4.339-27.346 11.971-7.043-7.631-16.903-11.971-27.347-11.971s-20.303 4.339-27.346 11.971c-3.66-3.975-8.035-7.021-12.841-9.052 6.709-9.502 14.922-18.544 24.521-26.969 3.113-2.732 3.422-7.471.689-10.584-2.731-3.113-7.47-3.421-10.584-.689-12.4 10.883-22.727 22.768-30.762 35.374-.343.015-.686.019-1.03.043-18.501 1.293-33.329 16.23-34.491 34.746-.652 10.401 2.904 20.298 10.013 27.867 5.328 5.672 12.322 9.5 19.865 11.013l34.102 65.665c5.613 10.808 16.665 17.521 28.842 17.521h255.101c4.142 0 7.5-3.358 7.5-7.5s-3.358-7.5-7.5-7.5h-255.102c-6.557 0-12.508-3.615-15.531-9.435l-30.756-59.221c6.844-1.778 13.079-5.482 17.961-10.771 7.043 7.631 16.903 11.971 27.346 11.971 10.444 0 20.304-4.34 27.347-11.971 7.043 7.631 16.903 11.971 27.346 11.971 10.444 0 20.304-4.339 27.347-11.971 7.043 7.631 16.903 11.971 27.346 11.971 10.444 0 20.303-4.339 27.347-11.971 7.043 7.631 16.903 11.971 27.347 11.971s20.303-4.339 27.347-11.971c7.043 7.631 16.903 11.971 27.347 11.971 10.443 0 20.303-4.339 27.346-11.971 7.043 7.631 16.903 11.971 27.347 11.971 10.443 0 20.303-4.339 27.346-11.971 7.043 7.631 16.903 11.971 27.347 11.971 10.443 0 20.303-4.339 27.346-11.971 4.882 5.289 11.117 8.993 17.961 10.771l-30.756 59.221c-3.022 5.819-8.974 9.435-15.531 9.435h-36.098c-4.142 0-7.5 3.358-7.5 7.5s3.358 7.5 7.5 7.5h36.102c12.178 0 23.229-6.714 28.842-17.521l34.102-65.665c7.543-1.513 14.537-5.341 19.865-11.013 7.109-7.572 10.665-17.469 10.013-27.87zm-358.795-91.938c-3.183 1.837-6.755 2.682-9.797 2.315-1.325-.16-3.707-.705-4.778-2.561-1.072-1.856-.353-4.191.171-5.418 1.204-2.818 3.72-5.489 6.904-7.327 2.695-1.556 5.667-2.399 8.362-2.399.488 0 .968.028 1.435.084 1.325.16 3.707.705 4.778 2.561 1.771 3.065-.879 9.167-7.075 12.745zm220.317-.246c-1.072 1.856-3.454 2.401-4.778 2.561-3.042.365-6.613-.478-9.797-2.315-6.196-3.577-8.845-9.679-7.075-12.745 1.072-1.856 3.454-2.401 4.778-2.561.467-.056.946-.084 1.435-.084 2.694 0 5.667.844 8.362 2.399 3.184 1.838 5.7 4.508 6.904 7.327.523 1.227 1.243 3.562.171 5.418zm117.532 109.781c-4.248 4.523-10.003 7.014-16.204 7.014-6.623 0-12.854-2.926-17.096-8.026-2.529-3.042-6.266-4.787-10.25-4.787-3.985 0-7.721 1.745-10.25 4.786-4.242 5.101-10.474 8.026-17.097 8.026-6.624 0-12.855-2.925-17.097-8.026-2.53-3.042-6.266-4.786-10.251-4.786s-7.721 1.745-10.249 4.786c-4.242 5.101-10.474 8.026-17.097 8.026s-12.855-2.925-17.096-8.026c-2.529-3.042-6.266-4.787-10.251-4.787s-7.721 1.745-10.25 4.786c-4.242 5.101-10.474 8.026-17.097 8.026s-12.855-2.925-17.096-8.026c-2.529-3.042-6.266-4.787-10.251-4.787s-7.721 1.745-10.25 4.786c-4.242 5.101-10.473 8.026-17.097 8.026s-12.855-2.925-17.096-8.026c-2.529-3.042-6.266-4.787-10.25-4.787-3.985 0-7.722 1.745-10.25 4.786-4.242 5.101-10.473 8.026-17.097 8.026-6.623 0-12.854-2.926-17.096-8.026-2.529-3.042-6.266-4.787-10.25-4.787-3.985 0-7.722 1.745-10.25 4.786-4.242 5.101-10.473 8.026-17.097 8.026-6.623 0-12.854-2.926-17.096-8.026-2.529-3.042-6.265-4.787-10.25-4.787-3.985 0-7.721 1.745-10.25 4.786-4.242 5.101-10.473 8.026-17.097 8.026-6.623 0-12.855-2.926-17.096-8.026-2.529-3.042-6.266-4.787-10.25-4.787-3.985 0-7.721 1.745-10.25 4.786-4.242 5.101-10.474 8.026-17.097 8.026-6.201 0-11.956-2.491-16.204-7.014-4.244-4.518-6.366-10.435-5.976-16.658.693-11.042 9.534-19.95 20.566-20.721 7.193-.508 13.975 2.357 18.606 7.846 2.615 3.099 6.419 4.874 10.445 4.874h.049c3.926-.014 7.61-1.745 10.108-4.75 4.241-5.102 10.473-8.027 17.097-8.027s12.855 2.925 17.097 8.026c2.53 3.042 6.266 4.786 10.251 4.786s7.721-1.745 10.249-4.786c4.242-5.101 10.474-8.026 17.097-8.026s12.855 2.925 17.096 8.026c2.529 3.042 6.266 4.787 10.251 4.787s7.721-1.745 10.25-4.786c4.242-5.101 10.474-8.026 17.097-8.026s12.855 2.925 17.096 8.026c2.529 3.042 6.266 4.787 10.251 4.787s7.721-1.745 10.25-4.786c4.242-5.101 10.473-8.026 17.097-8.026s12.855 2.925 17.096 8.026c2.529 3.042 6.266 4.787 10.25 4.787 3.985 0 7.722-1.745 10.25-4.786 4.242-5.101 10.473-8.026 17.097-8.026 6.623 0 12.854 2.926 17.096 8.026 2.529 3.042 6.266 4.787 10.25 4.787 3.985 0 7.722-1.745 10.25-4.786 4.242-5.101 10.473-8.026 17.097-8.026 6.623 0 12.854 2.926 17.096 8.026 2.529 3.042 6.265 4.787 10.25 4.787 3.985 0 7.721-1.745 10.25-4.786 4.242-5.101 10.473-8.026 17.097-8.026s12.856 2.926 17.097 8.027c2.498 3.004 6.183 4.735 10.108 4.75h.049c4.026 0 7.831-1.774 10.445-4.873 4.631-5.49 11.416-8.352 18.607-7.847 11.032.771 19.873 9.679 20.566 20.721.393 6.226-1.73 12.142-5.973 16.66z"/></g></g><g/><g/><g/><g/><g/><g/><g/><g/><g/><g/><g/><g/><g/><g/><g/></svg>