<svg id="Capa_1" enable-background="new 0 0 512 512" viewBox="0 0 512 512" xmlns="http://www.w3.org/2000/svg"><g><g><g><path d="m443.592 98.254c-13.495-11.753-33.969-11.671-47.379.178-6.909 6.105-10.88 14.169-11.922 22.531-.966 7.75-4.459 14.964-9.982 20.487l-31.081 31.081c11.692 8.234 21.157 19.164 27.656 31.74l33.12-33.12c5.478-5.478 12.612-9.044 20.304-9.962 7.73-.923 15.218-4.347 21.151-10.28 14.657-14.656 14.034-38.805-1.867-52.655z" fill="#fe99a0"/><path d="m443.592 98.254c-3.58-3.118-7.654-5.395-11.955-6.848 7.161 13.591 5.027 30.799-6.405 42.232-5.933 5.933-13.421 9.357-21.151 10.28-7.693.918-14.826 4.484-20.304 9.962l-28.686 28.686c6.334 6.392 11.665 13.714 15.794 21.705l33.12-33.12c5.478-5.478 12.612-9.044 20.304-9.962 7.73-.923 15.218-4.347 21.151-10.28 14.656-14.656 14.033-38.805-1.868-52.655z" fill="#fd8087"/><g><path d="m230.691 181.717-2.202-2.073c-.795-.825-1.857-1.279-2.993-1.279s-2.198.454-2.991 1.279c-5.274 5.486-12.369 8.507-19.977 8.507-7.606 0-14.701-3.021-19.976-8.507-.793-.825-1.855-1.279-2.991-1.279s-2.199.454-2.992 1.279c-5.274 5.486-12.369 8.508-19.976 8.508-7.869 0-15.395-3.364-20.648-9.23-4.602-5.14-7.048-11.579-7.058-18.402-34.737 12.216-59.642 45.308-59.642 84.221 0 12.717 2.666 24.811 7.459 35.76h135.067l-.588-1.39c-4.616-10.904-6.957-22.468-6.957-34.37 0-23.505 9.136-45.623 25.725-62.28z" fill="#80d261"/><path d="m230.691 181.717-2.202-2.073c-.795-.825-1.857-1.279-2.993-1.279s-2.198.454-2.991 1.279c-5.274 5.486-12.369 8.507-19.977 8.507-7.606 0-14.701-3.021-19.976-8.507-.793-.825-1.855-1.279-2.991-1.279s-2.199.454-2.992 1.279c-.452.47-.921.915-1.399 1.348 3.121 9.091 4.83 18.839 4.83 28.989 0 5.787-.552 11.444-1.605 16.923-2.107 10.961-11.78 18.836-22.942 18.836h-86.194c.136 12.351 2.778 24.098 7.446 34.76h135.067l-.588-1.39c-4.616-10.904-6.957-22.468-6.957-34.37 0-23.505 9.136-45.623 25.725-62.28z" fill="#68ca44"/><path d="m322.104 160.519c-.009 6.823-2.455 13.263-7.058 18.402-5.254 5.866-12.779 9.23-20.648 9.23-7.606 0-14.701-3.021-19.976-8.507-.794-.825-1.856-1.279-2.992-1.279s-2.198.454-2.991 1.279c-5.274 5.486-12.369 8.507-19.976 8.507-6.925 0-13.421-2.511-18.509-7.098-16.494 16.196-26.729 38.745-26.729 63.687 0 12.717 2.666 24.811 7.459 35.76h163.602c4.793-10.949 7.459-23.042 7.459-35.76.001-38.913-24.903-72.005-59.641-84.221z" fill="#fdb4ba"/><path d="m322.104 160.519c-.009 6.823-2.455 13.263-7.058 18.402-5.254 5.866-12.779 9.23-20.648 9.23-7.606 0-14.701-3.021-19.976-8.507-.794-.825-1.856-1.279-2.992-1.279s-2.198.454-2.991 1.279c-5.274 5.486-12.369 8.507-19.976 8.507-6.925 0-13.421-2.511-18.509-7.098-16.494 16.196-26.729 38.745-26.729 63.687 0 12.717 2.666 24.811 7.459 35.76h163.602c4.793-10.949 7.459-23.042 7.459-35.76.001-38.913-24.903-72.005-59.641-84.221z" fill="#ffe177"/><path d="m330.495 163.978c8.098 13.435 12.764 29.171 12.764 46.002 0 5.787-.552 11.444-1.605 16.923-2.107 10.961-11.78 18.836-22.942 18.836h-115.472c.136 12.351 2.778 24.098 7.446 34.76h163.602c4.793-10.949 7.459-23.042 7.459-35.76-.001-35.698-20.968-66.484-51.252-80.761z" fill="#ffd15b"/></g><path d="m322.926 157.17c-1.116-10.096-7.603-18.654-16.477-22.783 5.325-11.435 8.307-24.182 8.307-37.628 0-49.297-39.963-89.26-89.26-89.26s-89.26 39.963-89.26 89.26c0 13.446 2.981 26.193 8.307 37.628-8.874 4.129-15.361 12.686-16.477 22.783-1.915 17.321 11.595 31.981 28.528 31.981 8.132 0 15.473-3.381 20.696-8.814 1.246-1.297 3.296-1.297 4.542 0 5.223 5.433 12.565 8.814 20.696 8.814 8.132 0 15.473-3.381 20.697-8.814 1.246-1.297 3.296-1.297 4.542 0 5.223 5.433 12.565 8.814 20.697 8.814s15.473-3.381 20.696-8.814c1.247-1.297 3.295-1.297 4.542 0 5.223 5.433 12.565 8.814 20.696 8.814 16.934 0 30.443-14.66 28.528-31.981z" fill="#62dbfb"/><path d="m322.926 157.17c-1.116-10.096-7.603-18.654-16.477-22.783 5.325-11.435 8.307-24.182 8.307-37.628 0-49.297-39.963-89.26-89.26-89.26-5.84 0-11.546.567-17.073 1.638 41.217 8.014 72.482 44.581 72.266 88.073-.066 13.28-3.04 25.87-8.306 37.177.089.041.177.083.266.125 11.407 5.45 7.374 22.658-5.268 22.658h-139.315c-1.915 17.321 11.595 31.981 28.528 31.981 8.132 0 15.473-3.381 20.697-8.814 1.246-1.297 3.295-1.297 4.542 0 5.223 5.433 12.565 8.814 20.696 8.814 8.132 0 15.473-3.381 20.697-8.814 1.246-1.297 3.296-1.297 4.542 0 5.223 5.433 12.565 8.814 20.697 8.814s15.473-3.381 20.696-8.814c1.247-1.297 3.295-1.297 4.542 0 5.223 5.433 12.565 8.814 20.696 8.814 16.933 0 30.442-14.66 28.527-31.981z" fill="#01d0fb"/><g><path d="m71.109 309.5 39.705 187.076c.981 4.62 5.059 7.924 9.782 7.924h209.799c4.723 0 8.802-3.304 9.782-7.924l39.706-187.076z" fill="#dff6fd"/><path d="m71.109 309.5 39.705 187.076c.981 4.62 5.059 7.924 9.782 7.924h209.799c4.723 0 8.802-3.304 9.782-7.924l39.706-187.076z" fill="#dff6fd"/><path d="m331.527 309.5-33.232 156.576c-.98 4.62-5.059 7.924-9.782 7.924h-182.49l4.792 22.576c.981 4.62 5.06 7.924 9.782 7.924h209.799c4.723 0 8.802-3.304 9.782-7.924l39.705-187.076z" fill="#c8effe"/><path d="m386.996 310.5h-323c-4.418 0-8-3.582-8-8v-15c0-4.418 3.582-8 8-8h323c4.418 0 8 3.582 8 8v15c0 4.418-3.582 8-8 8z" fill="#f2fbff"/><path d="m386.996 279.5h-49.102l-6.579 31h55.682c4.418 0 8-3.582 8-8v-15c-.001-4.418-3.583-8-8.001-8z" fill="#dff6fd"/><circle cx="225.496" cy="379.54" fill="#fe99a0" r="43.083"/><path d="m231.072 336.828c3.866 6.46 6.093 14.013 6.093 22.089 0 23.794-19.289 43.083-43.083 43.083-1.891 0-3.749-.135-5.576-.371 7.524 12.573 21.271 20.993 36.99 20.993 23.794 0 43.083-19.289 43.083-43.083 0-21.902-16.349-39.975-37.507-42.711z" fill="#fd8087"/></g><path d="m140.424 43.429 13.809-13.809c3.905-3.905 10.237-3.905 14.142 0l13.809 13.809c3.905 3.905 3.905 10.237 0 14.142l-13.809 13.809c-3.905 3.905-10.237 3.905-14.142 0l-13.809-13.809c-3.905-3.905-3.905-10.237 0-14.142z" fill="#fff0ad"/><path d="m238.312 116.738 13.809-13.809c3.905-3.905 10.237-3.905 14.142 0l13.809 13.809c3.905 3.905 3.905 10.237 0 14.142l-13.809 13.809c-3.905 3.905-10.237 3.905-14.142 0l-13.809-13.809c-3.906-3.906-3.906-10.237 0-14.142z" fill="#fff0ad"/><g><path d="m280.071 116.737-6.429-6.429-27.951 27.951 6.429 6.429c3.905 3.905 10.237 3.905 14.142 0l13.809-13.809c3.905-3.905 3.905-10.236 0-14.142z" fill="#ffe177"/></g><g><path d="m182.183 43.429-6.429-6.429-27.951 27.951 6.429 6.429c3.905 3.905 10.237 3.905 14.142 0l13.809-13.809c3.905-3.905 3.905-10.237 0-14.142z" fill="#ffe177"/></g><path d="m267.424 33.737 13.809-13.809c3.905-3.905 10.237-3.905 14.142 0l13.809 13.809c3.905 3.905 3.905 10.237 0 14.142l-13.809 13.809c-3.905 3.905-10.237 3.905-14.142 0l-13.809-13.809c-3.905-3.906-3.905-10.237 0-14.142z" fill="#fff0ad"/><path d="m267.424 33.737 13.809-13.809c3.905-3.905 10.237-3.905 14.142 0l13.809 13.809c3.905 3.905 3.905 10.237 0 14.142l-13.809 13.809c-3.905 3.905-10.237 3.905-14.142 0l-13.809-13.809c-3.905-3.906-3.905-10.237 0-14.142z" fill="#ffe177"/></g></g><g><path d="m278.116 432.161c-14.055 14.056-32.743 21.796-52.62 21.796-19.878 0-38.565-7.741-52.621-21.796-2.93-2.929-7.678-2.929-10.607 0s-2.929 7.678 0 10.606c16.89 16.889 39.344 26.19 63.229 26.19 23.884 0 46.339-9.301 63.228-26.19 2.929-2.929 2.929-7.678 0-10.606-2.931-2.929-7.679-2.929-10.609 0z"/><path d="m246.816 149.991c3.412 3.412 7.893 5.118 12.375 5.118 4.48 0 8.963-1.706 12.374-5.118l13.81-13.808c6.823-6.823 6.823-17.926 0-24.749l-13.81-13.809c-6.822-6.822-17.925-6.823-24.749 0l-13.809 13.809c-6.823 6.823-6.823 17.926.001 24.749zm-3.201-27.95 13.808-13.808c.488-.488 1.128-.731 1.769-.731s1.28.244 1.768.731l13.809 13.809c.976.975.976 2.561.001 3.536l-13.81 13.808c-.975.975-2.56.975-3.536 0l-13.808-13.808c-.976-.976-.976-2.562-.001-3.537z"/><path d="m101.566 251c0 4.142 3.357 7.5 7.5 7.5h4.43c4.143 0 7.5-3.358 7.5-7.5s-3.357-7.5-7.5-7.5h-4.43c-4.142 0-7.5 3.358-7.5 7.5z"/><path d="m152.925 229.5c4.143 0 7.5-3.358 7.5-7.5s-3.357-7.5-7.5-7.5h-4.429c-4.143 0-7.5 3.358-7.5 7.5s3.357 7.5 7.5 7.5z"/><path d="m177.448 256.869 3.132-3.132c2.929-2.929 2.929-7.678 0-10.606-2.93-2.929-7.678-2.929-10.607 0l-3.132 3.132c-2.929 2.929-2.929 7.678 0 10.606 1.465 1.464 3.385 2.197 5.304 2.197s3.838-.733 5.303-2.197z"/><path d="m115.716 213.066c1.919 0 3.839-.732 5.304-2.197l3.132-3.132c2.929-2.929 2.929-7.678 0-10.606-2.93-2.929-7.678-2.929-10.607 0l-3.132 3.132c-2.929 2.929-2.929 7.678 0 10.606 1.464 1.464 3.384 2.197 5.303 2.197z"/><path d="m225.496 430.122c27.891 0 50.582-22.691 50.582-50.583s-22.691-50.583-50.582-50.583c-27.892 0-50.583 22.691-50.583 50.583s22.691 50.583 50.583 50.583zm0-86.165c19.62 0 35.582 15.962 35.582 35.583s-15.962 35.583-35.582 35.583-35.583-15.962-35.583-35.583 15.963-35.583 35.583-35.583z"/><path d="m463.478 123.949c-.42-12.179-5.733-23.312-14.961-31.35-5.621-4.896-12.494-8.266-19.876-9.744-4.057-.813-8.014 1.82-8.827 5.881-.812 4.062 1.82 8.014 5.882 8.827 4.827.967 9.312 3.161 12.97 6.347 6.059 5.276 9.546 12.577 9.821 20.555.274 7.986-2.684 15.494-8.33 21.141-4.562 4.561-10.349 7.374-16.737 8.136-9.235 1.103-18.015 5.402-24.72 12.106l-25.579 25.579c-4.986-7.529-11.006-14.368-17.909-20.274l24.401-24.401c6.646-6.647 10.951-15.477 12.121-24.863.743-5.964 3.304-11.443 7.405-15.847 2.823-3.031 2.654-7.777-.376-10.6-3.031-2.823-7.776-2.654-10.601.376-6.266 6.727-10.178 15.101-11.313 24.215-.759 6.091-3.545 11.812-7.844 16.111l-26.064 26.064c-4.018-2.464-8.241-4.651-12.651-6.525-1.264-9.731-6.56-18.552-14.398-24.362 4.227-11.012 6.364-22.608 6.364-34.564 0-14.497-3.277-28.845-9.507-41.84l1.738-1.738c6.823-6.823 6.823-17.926 0-24.749l-13.81-13.809c-6.729-6.729-17.614-6.808-24.458-.262-15.23-9.403-32.632-14.359-50.723-14.359-20.672 0-40.837 6.681-57.394 18.884-6.364-2.675-13.998-1.434-19.173 3.741l-13.809 13.808c-6.823 6.823-6.823 17.926.001 24.749l.265.265c-4.415 11.233-6.65 23.087-6.65 35.312 0 11.957 2.139 23.555 6.364 34.565-7.836 5.808-13.132 14.627-14.398 24.356-12.68 5.398-24.214 13.545-33.58 23.775-2.798 3.055-2.589 7.799.467 10.596 1.439 1.318 3.253 1.968 5.062 1.968 2.03 0 4.055-.82 5.533-2.436 6.816-7.444 14.985-13.58 23.955-18.055 1.538 4.79 4.063 9.252 7.475 13.062 6.863 7.664 16.697 12.06 26.979 12.06 8.502 0 16.514-2.888 22.967-8.209 6.453 5.321 14.465 8.209 22.968 8.209 2.129 0 4.226-.181 6.277-.536-8.527 14.612-13.078 31.273-13.078 48.625 0 9.318 1.317 18.446 3.909 27.26h-118.209c-3.098-8.738-4.681-17.882-4.681-27.26 0-9.471 1.614-18.766 4.797-27.625 1.4-3.898-.625-8.193-4.522-9.594-3.898-1.402-8.194.624-9.595 4.522-3.769 10.491-5.68 21.491-5.68 32.696 0 9.318 1.317 18.446 3.909 27.26h-1.659c-8.547 0-15.5 6.953-15.5 15.5v15c0 8.547 6.953 15.5 15.5 15.5h1.25l38.232 180.133c1.706 8.035 8.905 13.867 17.119 13.867h209.799c8.214 0 15.413-5.832 17.119-13.867l38.232-180.131h1.25c8.547 0 15.5-6.953 15.5-15.5v-15c0-8.547-6.953-15.5-15.5-15.5h-1.659c2.593-8.814 3.909-17.942 3.909-27.26 0-13.944-3.042-27.411-8.575-39.649l28.635-28.636c4.337-4.336 9.98-7.113 15.891-7.819 9.762-1.165 18.602-5.46 25.566-12.424 8.494-8.494 13.128-20.254 12.714-32.263zm-142.099 60.642c3.413-3.811 5.938-8.276 7.476-13.067 27.476 13.681 45.392 42.06 45.392 73.216 0 9.376-1.567 18.523-4.664 27.26h-154.192c-3.097-8.736-4.664-17.884-4.664-27.26 0-19.628 6.905-38.202 19.531-52.983 5.461 3.19 11.688 4.894 18.207 4.894 8.502 0 16.514-2.888 22.967-8.209 6.452 5.321 14.465 8.209 22.968 8.209 10.282 0 20.116-4.395 26.979-12.06zm-48.651-145.551 13.808-13.808c.488-.488 1.128-.731 1.769-.731s1.28.244 1.768.731l13.807 13.808c.976.975.976 2.561.001 3.536l-13.81 13.808c-.975.975-2.56.975-3.536 0l-13.808-13.808c-.975-.975-.975-2.561.001-3.536zm-127 8 13.808-13.808c.488-.488 1.128-.731 1.769-.731s1.28.244 1.768.731l13.807 13.808c.976.975.976 2.561.001 3.536l-13.81 13.808c-.975.975-2.56.975-3.536 0l-13.808-13.808c-.975-.975-.975-2.561.001-3.536zm56.8 134.611c-5.822 0-11.252-2.313-15.289-6.512-2.001-2.082-4.799-3.275-7.678-3.275-2.88 0-5.678 1.193-7.678 3.274-4.038 4.2-9.468 6.513-15.29 6.513-6.023 0-11.784-2.576-15.806-7.066-4.076-4.552-5.947-10.444-5.269-16.59.801-7.242 5.471-13.682 12.188-16.807 1.804-.839 3.2-2.361 3.882-4.23.682-1.87.593-3.933-.247-5.736-5.047-10.835-7.605-22.429-7.605-34.461 0-8.071 1.153-15.947 3.433-23.529l1.76 1.76c3.412 3.412 7.893 5.118 12.375 5.118 4.48 0 8.963-1.706 12.374-5.118l13.81-13.808c6.823-6.823 6.823-17.926 0-24.749l-7.546-7.546c13.402-8.994 29.291-13.889 45.554-13.889 14.072 0 27.65 3.544 39.754 10.303l-3.13 3.13c-6.823 6.823-6.823 17.926.001 24.749l13.808 13.808c3.412 3.412 7.893 5.118 12.375 5.118 4.48 0 8.963-1.706 12.374-5.118l.698-.698c3.864 9.638 5.88 20.005 5.88 30.467 0 12.03-2.559 23.625-7.605 34.462-.84 1.803-.929 3.867-.247 5.736s2.078 3.391 3.882 4.23c6.717 3.125 11.386 9.565 12.186 16.807.68 6.147-1.19 12.039-5.267 16.59-4.021 4.491-9.782 7.067-15.806 7.067-5.823 0-11.253-2.312-15.291-6.514-2.001-2.08-4.799-3.272-7.677-3.272-.001 0-.001 0-.002 0-2.878 0-5.676 1.194-7.675 3.274-4.038 4.2-9.468 6.513-15.29 6.513s-11.253-2.313-15.29-6.512c-2-2.081-4.798-3.274-7.676-3.275-.001 0-.001 0-.002 0-2.878 0-5.676 1.193-7.679 3.274-4.036 4.2-9.465 6.512-15.289 6.512zm184.468 105.349c.275 0 .5.224.5.5v15c0 .276-.225.5-.5.5h-69.996c-4.143 0-7.5 3.358-7.5 7.5s3.357 7.5 7.5 7.5h53.412l-37.571 177.019c-.243 1.148-1.271 1.981-2.445 1.981h-209.799c-1.174 0-2.202-.833-2.445-1.981l-37.571-177.019h201.419c4.143 0 7.5-3.358 7.5-7.5s-3.357-7.5-7.5-7.5h-218.004c-.275 0-.5-.224-.5-.5v-15c0-.276.225-.5.5-.5h12.262c.009 0 .018.002.027.002.013 0 .026-.002.04-.002z"/></g></g><g/><g/><g/><g/><g/><g/><g/><g/><g/><g/><g/><g/><g/><g/><g/></svg>