<svg id="Layer_3" enable-background="new 0 0 1000 1000" height="1000" viewBox="0 0 1000 1000" width="1000" xmlns="http://www.w3.org/2000/svg"><g><path d="m722.9 819.3s-30.2 51.9-141 126.3-291.8 41-312.2-2.1c-20.6-43.6 26.5-43.9 35.8-40 236.4 56.1 322-58.2 322-58.2zm-317.1-330.4s25.7 1.5 99.2-54.3c0 0-235.6 47.1-193.9-222.8l-7-56.1s-38.6 10.5-42.8 90.5c-4.3 81.3 20.3 138.9 47.7 167 27.4 28 96.8 75.7 96.8 75.7z" fill="#fea142"/><path d="m842.9 679.7s-56.5 149.8-173.7 151.1l6.4 1.4-48.1 13.1c-212.5 33.3-230.1-78.6-230.1-78.6s-2.1 11.9-7.7 41.4-25.3 28.8-25.3 28.8c-82.8-44.2-211.2-42.7-211.2-44.9-37.2-76.5 129.8-71.6 129.8-71.6 2.1-117.9 84.9-131.2 84.9-131.2h.1-.1s-89.5.6-86.5-49.1c0 0 23.8-21.8 62.5-14.9 0 0 138.1-66.4 161-90.7 0 0-93.4 22.2-145.4-29.1 0 0-79.3-66-48.5-193.7 0 0-11.2-147.3 4.9-168.4 0 0 65.2 30.2 89.1 65.2 0 0 68.8-26.7 126.3-21 0 0 79.3-84.9 94.7-77.2 0 0 45.4 103.2 42.3 140.3 0 0 57.8 65 33.7 161.2.1.2 194.2 126.6 140.9 367.9z" fill="#ffc363"/><path d="m395 116.4-4.8 2.6c1.4-2 3-3 4.8-2.6zm-48.8 86.6c2.5 38.6 8.8 45.6 20 45.9 10.1.3 10.5-111.2 24-130l-32 17.4c-.1.1-14.5 28.1-12 66.7zm106.6-23.8c1.4-58.9 7-85.6 7-85.6l-25.6 7.4s-20.7 76.8-3.9 138.6c16.8 61.7 19.3 67 33.3 64.2 14.1-2.9-12.2-65.7-10.8-124.6zm53.9-90s-6.4 81.9 0 110.6c6.4 28.8 12.9 30.3 21.8 29.3s-9.1-116.4 2.9-141.5zm257.9 283.3s-9.9 37.7-34.2 57-18.4 30.3-14.4 35.2c4 5 31.3 10.9 62-73.9zm78.3 144.8s-40.3-7.4-54.7-5.6-14.4 11.4-10.5 17.9c4.9 8 64.3 12.4 67.7 11.2 3.7-1.2-2.5-23.5-2.5-23.5zm-30.1 156.6c-9.7-1.2-3.2 38.4 4.7 50.6l13.1-22.3c0-.1-8.2-27.1-17.8-28.3z" fill="#dc8b4a"/><path d="m565.8 100.9s22.7-46.9 47.1-53.6c-.5-2.4 27.1 32.8 32.2 81.9-72.9-34-79.3-28.3-79.3-28.3zm-254.3-25.8c-9.7 17.1-.4 136.7-.4 136.7 7.8-42.6 54.2-83.6 54.2-83.6-3.2-8-53.8-53.1-53.8-53.1zm292.9 742.1s-87.7-92.9 4.6-207.3l-9.5-78.9s-140.6 47.9-157.8 44.9c0 0-31.2 73.7-32.3 89.4-1.1 15.8-11.6 30.5-11.6 30.5s-8.2 84.4 15.7 107.2c23.8 22.8 79 66.5 214.1 42.2l48.1-13.1c-.1 0-24.2.3-71.3-14.9z" fill="#f9eba5"/><path d="m848.7 519.2c-9.6-41.2-27-80.5-51.7-116.9-37.7-55.6-80.1-86.7-89.9-93.5 2.1-5.2 2.8-8.5 2.9-8.9 0-.1 0-.2.1-.3.8-5.7 1.5-11.2 2-16.7.8-1.4.9-3.1.4-4.6 3.4-47.7-7.1-87.6-31.3-119-2.3-3-4.8-5.9-7.3-8.7 0-.1 0-.3 0-.4-8.5-84.4-41.7-140.2-43.1-142.6-1.4-2.3-4.3-3.2-6.8-2.2-50.4 21-87.1 66.1-95.3 76.7-53.6.1-93.8 9.6-122.2 20.4-11.6-10.5-62.1-55.7-83.6-64.2-3.2-1.3-6.5-.9-9.3 1.2-3.7 2.7-8.2 9.2-10.4 35.6-1.2 14.6-1.6 34-1.2 57.7.1 6 .3 11.9.5 17.7-3.4 1-42.3 14.4-46.6 95.4-2 38.4 2.1 73.9 12.2 105.4 8.7 27.1 21.5 49.8 37 65.7 24.7 25.4 81.9 65.6 95 74.6-26.8 15.2-48.1 26.2-55.7 27.8-8.7 1.7-16.7 2.1-24.4 2.5-16.2.8-31.4 1.6-41.5 16.6-4.2 6.3-4.8 13.3-1.8 20.4 6.7 16 31.3 29.3 51.1 33 3.9.7 8.7 1.2 14.1 1.3-6 3.2-12.6 7.6-19.2 13.3-19.4 16.7-42.6 49-45 108.4-22.6-.1-107 2-129.6 36.9-7.7 11.8-7.7 25.9-.1 41.9 1 3.7 5.6 4.1 8.2 4.3 2.3.2 5.6.4 9.7.6 35.6 2.2 130.1 7.9 195.9 43 .7.4 1.5.6 2.4.6h.3c2.8 0 24.4-1.1 30.5-33.2 1.7-9.1 3.1-16.5 4.2-22.5 14.1 33.2 42.8 55.1 85.5 65.1 17.8 4.2 38.2 6.3 60.9 6.3 20.4 0 42.7-1.7 67-5-10.8 10-30.5 25.2-60.4 37.8-45.6 19.1-125.2 36-245.2 7.6-7.7-2.9-30-3.5-41.3 8.4-6 6.2-11 18.1-1 39.2 7.1 15 29.6 28.4 63.4 37.7 27.2 7.5 59.1 11.4 90.9 11.4 11.4 0 22.8-.5 34-1.5 50.9-4.7 96.5-19.7 131.8-43.3 110.6-74.2 138-118.4 139.1-120.3.2-.4.4-.8.5-1.3 4.8-1.8 9.5-3.9 14.2-6.2 70.5-35.3 104.4-120.5 109.6-141.4v-.1c12.4-55.9 12.5-110.3.5-161.7zm-529-470.4c18.2 7.7 59.9 44.2 75.7 58.3-4.8 2.1-9.2 4.2-13.2 6.3-5.4 2.8-10.3 5.6-14.7 8.4-10.2-12.8-41.8-41.3-52.4-50.8-.2-.1-.4-.3-.5-.4 1.6-15.7 4-20.5 5.1-21.8zm-6.2 35.4c19.4 17.5 38.9 36.1 45 43.5-13.5 9.7-19.9 17.2-20.7 18.1-1 1.2-12.5 15-22.9 39.7-.8-14.5-1.7-33.6-2-52.9-.4-20.8-.1-36.5.6-48.4zm-.6 325.1c-10-10.2-24.1-29.2-34.4-61.4-9.7-30.2-13.7-64.4-11.7-101.5 2.1-39.2 12.6-60.4 21.1-71.3 6-7.7 11.8-11.4 15-13.1 1.1 27.9 2.8 49.8 2.8 50.1 0 .2.1.3.1.5-8.4 31.9-12.5 78.1 5.8 134.1 16.7 51.4 55.8 83.8 113.1 93.7 13.9 2.4 27.2 3.2 38.8 3.2 6.9 0 13.2-.3 18.8-.7-24 14.6-49.4 29.8-72 42.8-.4-.5-.8-1-1.4-1.4-.7-.4-69.3-47.6-96-75zm195.5 435.6c-41.1-5.3-70.9-20.1-88.6-43.9-39.1-52.8-7.6-137-2.3-146.3 1.3-1.6 1.6-3.9.6-5.9-1.4-2.7-4.6-3.7-7.3-2.4-1.5.8-3 1.5-8 15.5-2.5 6.9-6.1 18.1-8.9 31.8-3.9 18.9-6.8 45-1.5 70.7-.2.4-.3.9-.4 1.3 0 .1-2.2 12.2-7.7 41.3-3.9 20.7-15.2 23.8-18.7 24.3-67.8-35.6-163-41.4-199-43.6-3.7-.2-7.4-.4-9.6-.6-5.1-11.6-5-21.3.3-29.4 18.5-28.6 96.9-32.7 125.6-31.9 1.4 0 2.9-.5 3.9-1.5 1.1-1 1.7-2.4 1.7-3.8.8-46.3 15-82.8 40.9-105.4 19.5-17 39.1-20.5 39.4-20.5 1.6-.3 2.9-1.2 3.7-2.5 58.6-5 151.1-25.4 224.4-54.2 2.3 15.4 5.9 40.8 6.9 69.8-42.3 54.5-46.5 102.9-42.6 134.1 5 39.3 24.5 67.5 39.7 79.8.4.3.8.6 1.3.8 16.1 6.7 31.7 11.2 47 13.6-56 10.7-103.2 13.8-140.8 8.9zm70.5 96.2c-72.8 48.8-179.5 50.8-247.8 32-29.8-8.2-50.9-20.1-56.5-31.9-5.9-12.4-6.2-21.5-1-27 7.8-8.2 25.5-7.4 29.7-5.6.3.1.6.2.8.3 54.5 12.9 105.5 17.9 151.7 14.7 37.1-2.5 71.2-10.3 101.4-23.1 45.2-19.1 67.6-43.5 73.2-50.2 23.2-3.8 47.9-9.1 74.2-15.8.9-.2 1.8-.4 2.8-.6-13.6 16.6-49.4 54.1-128.5 107.2zm258.7-262.6c-1.9 7.4-10.5 32.5-28.3 61-14.7 23.5-39.7 55.3-75.3 73.2-7.6 3.8-15.4 6.9-23.4 9.1-.2 0-.4.1-.6.1-2.3.6-4.6 1.2-6.9 1.8-29.7 6.6-61.8 2.9-95.8-11.2-13.5-11.3-30.6-36.7-35.1-72.2-3.4-26.9-.2-67.7 31.9-114.5-.3 21.4-2.3 43.9-7.7 65.2-7 27.7-5 47.3 5.9 58.5 7.6 7.7 17.6 9.4 24.7 9.4 5 0 8.5-.8 8.8-.9 2.9-.7 4.7-3.6 4.1-6.5-.7-2.9-3.6-4.7-6.5-4.1-.1 0-14.8 3.2-23.4-5.6-7.9-8.1-9-24.8-3.1-48.1 15.2-60.3 5-129.3.7-158.7-.9-5.8-1.5-10.5-1.6-12.2-.4-14.4 8.8-34.5 22.7-40.3 9.8-4.1 20.5-.3 31.8 11.3 1.4 2.1 10.2 17 14.5 50.7-.1.9 0 1.8.3 2.6v.1c2.1 18.6 2.8 42.7.2 73.2-.3 3 2 5.6 5 5.9s5.6-2 5.9-5c2.6-29.7 2.1-53.5.2-72.5 17.4-5.6 83.8-23.6 106.2 16.8 1 1.8 2.9 2.8 4.8 2.8.9 0 1.8-.2 2.6-.7 2.6-1.5 3.6-4.8 2.1-7.4-12.7-22.9-38.4-33.6-74.3-30.9-18 1.3-34.1 5.6-42.8 8.3-5.2-35.4-15.3-49.8-16-50.7-.1-.2-.3-.4-.5-.6-18.5-19.2-34.2-18.3-44.2-14.1-18.2 7.6-29.9 32.3-29.4 50.6 0 .9.1 2.1.3 3.7-45.1 18-100.1 33.7-155.1 44.4-49.7 9.6-92 13.5-110.5 10.1-16.7-3.1-38-14.5-43.1-26.5-1.6-3.7-1.3-6.9.9-10.1 6.7-10 15.9-11 33-11.8 7.7-.4 16.5-.8 26-2.7 28.7-5.7 207-118.4 214.6-123.1 2.5-1.6 3.3-5 1.7-7.5s-5-3.3-7.5-1.7c-12.6 8-30.5 19.1-50.5 31.5-.3 0-.6 0-1 .1s-37 7.5-77.7.4c-23.7-4.1-43.7-12.1-60.1-23.8 3.8-2.7 13.5-7.3 23.1-10.8 2.8-1 4.3-4.2 3.2-7-1-2.8-4.2-4.3-7-3.2-16.6 6.1-24.4 10.7-28.1 14.2-3.7-3.2-7.1-6.6-10.3-10.3 8.3-3.4 22.5-8 30.8-5.5 2.9.9 5.9-.8 6.8-3.7s-.8-5.9-3.7-6.8c-13.8-4.1-34.3 4.1-40.9 7.1-7.5-10.5-13.5-22.4-18-35.9 22.7 8.8 45.2 18.4 48.7 21.4 1.1 1.3 2.6 2 4.2 2 1.1 0 2.2-.3 3.1-1 2.5-1.7 3.1-5.1 1.3-7.6-1.2-1.8-3.1-4.4-33.5-16.9-12.5-5.1-24.7-9.9-27.8-11.1-14.9-54.8-7.7-98.7 1.5-126.6 10.7-32.6 26.3-51.1 26.5-51.3 0 0 .1-.1.1-.1.1-.2 12.7-15.3 41.6-30.1 26.8-13.7 73.4-30 143.6-29.6.3 0 .5 0 .8-.1h.1c.3-.1.6-.1.9-.2 0 0 .1 0 .1-.1.3-.1.5-.2.8-.4.1 0 .1-.1.2-.1.2-.2.5-.3.7-.5.1 0 .1-.1.2-.1.2-.2.4-.4.6-.7 0 0 .1-.1.1-.1.4-.5 36.9-50.2 88-73.4 7.2 13.4 29.3 58.5 37.7 121-3.6-3.2-7.3-6.1-11-8.9 0-.3 0-.6 0-.9-2.6-25.4-11.1-46.8-17.8-60.2-3.9-7.8-13.3-24.4-17.7-26.2-1.5-.6-3.2-.5-4.6.2-25.9 8.2-48.5 54.2-49.5 56.2v.1c0 .1-.1.2-.1.3s-.1.2-.1.3 0 .1-.1.2c0 .1-.1.2-.1.3v.1c0 .1-.1.3-.1.4v.1.4.1.4.2.3.2c0 .1 0 .2.1.3 0 .1 0 .1.1.2 0 .1.1.2.1.3s0 .1.1.2c0 .1.1.2.1.3s.1.1.1.2c.1.1.1.2.2.3 0 0 0 .1.1.1.1.1.2.2.2.3 0 0 0 .1.1.1.1.1.2.2.3.3 0 0 .1.1.1.1.1.1.2.2.3.3 0 0 .1.1.1.1.1.1.2.1.3.2.1 0 .1.1.2.1.1.1.2.1.3.2.1 0 .2.1.2.1s.1.1.1.1h.1c.1 0 .2.1.3.1s.2.1.3.1.2 0 .2.1c.1 0 .2.1.3.1h.2c.1 0 .2 0 .4.1h.1c.7.1 67.7 8.1 107.4 59.7 22.4 29.1 32.1 66.6 29 111.5-12.9 8.6-68.1 44.7-90.2 50-2.9.7-4.7 3.6-4 6.5.6 2.5 2.8 4.2 5.3 4.2.4 0 .8 0 1.3-.1 21-4.9 66-33.3 86.3-46.6-.3 2.1-.5 4.2-.9 6.3-.3 1.2-3.3 13.1-15.1 29.6-.5 0-1 0-1.6.2-17.5 4.5-64.4 16.5-71.1 17.5-3 .4-5 3.2-4.6 6.2.4 2.7 2.7 4.7 5.4 4.7.3 0 .5 0 .8-.1 6.3-.9 40.7-9.6 59.7-14.5-5.3 5.8-11.6 11.9-19.1 18.1-.6-.2-1.2-.3-1.9-.3-14.6.4-36.7.6-40.4-.1-2.9-.6-5.8 1.3-6.4 4.2s1.3 5.8 4.2 6.4c2.7.6 10.1.7 18 .7 4.1 0 8.3 0 12.2-.1-2.5 1.8-5.1 3.5-7.9 5.3-2.5 1.6-3.2 5-1.6 7.5 1 1.6 2.8 2.5 4.6 2.5 1 0 2-.3 3-.9 37.7-24.4 56.2-49.4 64.9-65.9 11.5 8.2 51 38.5 85.6 89.6 37.3 55.5 76.4 147.3 49.3 270.1zm-199-557c-26.1-16-51.9-22.4-64.5-24.8 7.7-14 22.7-36.8 37.2-43.1 5.8 7.8 21.8 33.6 27.3 67.9zm-204.9 230.6c-58.6-5.6-80.1-30.1-81-31.1-2-2.3-1.7-5.7.6-7.7 2.3-1.9 5.7-1.7 7.7.6.3.3 20.2 22.3 73.8 27.4 3 .3 5.2 2.9 4.9 5.9-.3 2.8-2.6 4.9-5.4 4.9-.2 0-.4 0-.6 0zm172.4-32.9c-2.1 1.2-49.3 27.7-79 27.7-1.6 0-3.1-.1-4.6-.2-3-.3-5.2-3-4.8-6 .3-3 3-5.2 6-4.8 25.8 2.8 76.6-25.8 77.1-26.1 2.6-1.5 5.9-.6 7.4 2.1 1.4 2.5.5 5.8-2.1 7.3zm-133.6 52.4c.7 0 1.4 0 2-.1 8.4-.9 22.1-11.7 21.7-18.7-.2-3.4-2.9-5.9-6.5-5.9-1 0-2.1.2-3.3.6-6.5 2-23.4 2.7-29.4 2.7-1.5 0-3 .7-4 1.8s-1.5 2.6-1.4 4.1c.6 6 10.4 15.5 20.9 15.5zm2.5-11.4c-.6.2-1.1.4-1.7.4-.8.1-1.6 0-2.4-.1 1.4-.1 2.7-.2 4.1-.3zm79.1 15.8c-3.7 8.2-22.9 15.6-34.6 18-12.8 2.6-33.6-3-39.8-4.9-4.6 1.3-18.6 5.2-33.7 7.9-1.9.3-3.7.5-5.5.5-14.3 0-23.5-10.4-26.6-16.6-1.3-2.7-.3-6 2.4-7.3s5.9-.3 7.3 2.4c.3.6 6.8 12.7 20.5 10.2 17.6-3.1 34-8 34.1-8 1-.3 2.2-.3 3.2 0 6.7 2.1 26.1 7.1 36 5.1 13.3-2.7 25.4-9.3 26.9-11.9 1.2-2.7 4.4-3.9 7.2-2.7 2.6 1.3 3.8 4.5 2.6 7.3z" fill="#89191a"/></g></svg>