<svg id="Capa_1" enable-background="new 0 0 512 512" height="512" viewBox="0 0 512 512" width="512" xmlns="http://www.w3.org/2000/svg"><g><g><g><path d="m260.816 375.78-64.51 111.74c-28.031-3.537-51.81-43.545-51.81-70.005 0-33.01 20.239-59.55 67.35-70.005z" fill="#fd7a6e"/><path d="m196.307 487.516-4.03 6.98c-8 13.86-28.22 13.18-35.27-1.18l-20.02-40.77c-3.58-7.29-11.2-11.69-19.3-11.14l-45.31 3.04c-15.96 1.08-26.66-16.09-18.66-29.95l68.54-118.72 89.59 51.73c-27.94 13.31-47.25 41.81-47.25 74.82 0 26.46 12.399 50.02 31.71 65.19z" fill="#fb695b"/></g><path d="m389.741 295.779 68.543 118.72c7.999 13.855-2.7 31.028-18.662 29.955l-45.316-3.047c-8.096-.544-15.718 3.856-19.294 11.139l-20.019 40.768c-7.052 14.361-27.274 15.04-35.273 1.185l-68.543-118.72z" fill="#fd7a6e"/><g><path d="m424.11 291.63c-5.63 3.32-9.36 9.09-9.96 15.6-2.65 29.01-24.4 50.77-53.42 53.42-2.47.23-4.83.9-7 1.97-102.553-17.112-167.678-107.212-167.678-201.282 0-52.14 22.818-107.962 73.648-141.438 3.1-.33 6.16-1.38 8.91-3.16 9-5.8 19.4-8.72 29.81-8.72 14.09 0 28.2 5.34 38.93 16.13 3.25 3.25 6.02 6.82 8.29 10.62 3.37 5.6 9.22 9.2 15.73 9.81 28.5 2.68 49.87 24.05 52.55 52.55.61 6.51 4.21 12.36 9.81 15.72 3.8 2.28 7.37 5.05 10.62 8.3 18.77 18.66 21.05 47.59 7.41 68.74-4.47 6.93-4.34 15.74.25 22.59 17.18 25.57 8.93 63.37-17.9 79.15z" fill="#fdc072"/><path d="m353.73 362.622c-3.54 1.73-6.54 4.5-8.6 7.99-15.78 26.83-53.58 35.08-79.15 17.91-6.85-4.6-15.66-4.73-22.59-.26-9 5.8-19.4 8.72-29.81 8.72-14.09 0-28.2-5.34-38.93-16.13-3.25-3.25-6.02-6.83-8.3-10.63-3.36-5.6-9.21-9.2-15.71-9.8-28.51-2.68-49.89-24.05-52.56-52.56-.61-6.5-4.2-12.35-9.8-15.71-3.8-2.28-7.38-5.05-10.63-8.3-18.77-18.66-21.05-47.59-7.41-68.74 4.47-6.93 4.34-15.74-.25-22.59-17.14-25.51-8.97-63.19 17.71-79.04 5.74-3.41 9.54-9.28 10.17-15.93 2.73-28.83 24.35-50.45 53.18-53.18 6.65-.63 12.52-4.43 15.93-10.17 15.85-26.68 53.53-34.85 79.04-17.72 4.13 2.77 8.97 3.92 13.68 3.42-30.45 37.58-48.7 85.45-48.7 137.59 0 94.07 59.39 174.27 142.73 205.13z" fill="#ffb25a"/></g><g><path d="m401 202.5c0 62.23-39.21 115.31-94.26 135.87-74.704-25.101-120.397-99.312-120.397-174.502 0-35.39 17.483-74.303 47.988-104.759 7.07-1.06 14.31-1.61 21.67-1.61 80.079.001 144.999 64.921 144.999 145.001z" fill="#7fb0e4"/><path d="m306.74 338.37c-15.79 5.9-32.89 9.13-50.74 9.13-80.08 0-145-64.92-145-145 0-72.72 53.53-132.93 123.33-143.39-14.92 29.57-23.33 62.99-23.33 98.38 0 75.19 37.95 141.52 95.74 180.88z" fill="#68a2df"/></g><g><circle cx="352.5" cy="172.971" fill="#f8ea69" r="15"/><circle cx="159.5" cy="172.971" fill="#f6ca56" r="15"/><circle cx="256" cy="129.203" fill="#f8ea69" r="15"/><g><path d="m358.54 181.79-16.64 76.56c-1.99 9.19-10.13 15.75-19.54 15.75h-77.71c-24.976-22.891-35.7-52.396-31.62-86.72 2.39-.7 4.51-2.28 5.85-4.57l37.12-63.61 37.12 63.61c2.54 4.34 7.89 6.13 12.52 4.18l39.24-16.54c7.47-3.15 15.38 3.42 13.66 11.34z" fill="#f8ea69"/><path d="m244.65 274.1h-55.01c-9.41 0-17.55-6.56-19.54-15.75l-16.64-76.56c-1.72-7.92 6.19-14.49 13.66-11.34l39.24 16.54c2.19.92 4.53 1.01 6.67.39 4.31 31.55 15.35 60.95 31.62 86.72z" fill="#f6ca56"/></g></g></g><g><path d="m464.78 410.745-12.43-21.53c-2.07-3.587-6.657-4.817-10.245-2.745-3.587 2.071-4.816 6.658-2.745 10.245l12.43 21.53c2.349 4.07 2.268 8.879-.217 12.864-2.48 3.982-6.747 6.177-11.445 5.853l-45.304-3.039c-11.179-.756-21.599 5.252-26.541 15.317l-20.021 40.771c-2.069 4.214-6.106 6.824-10.797 6.982-4.685.16-8.896-2.177-11.245-6.247l-51.703-89.554c6.891 2.514 14.285 3.803 21.805 3.803 4.914 0 9.883-.551 14.799-1.67 17.223-3.922 31.976-14.461 40.477-28.913 2.099-3.568 5.768-5.92 9.815-6.29 19.295-1.764 35.866-11.217 46.762-25.411l13.682 23.698c1.389 2.406 3.91 3.751 6.502 3.751 1.272 0 2.563-.324 3.743-1.006 3.587-2.071 4.816-6.658 2.745-10.245l-18.032-31.232c2.52-6.138 4.17-12.774 4.81-19.768.37-4.046 2.721-7.715 6.289-9.814 14.453-8.502 24.992-23.254 28.914-40.476 3.948-17.341.819-35.32-8.585-49.326-2.922-4.352-2.992-9.982-.178-14.343 15.883-24.624 12.339-57.479-8.41-78.107-3.623-3.623-7.683-6.793-12.066-9.423-3.495-2.097-5.815-5.831-6.205-9.99-2.996-31.929-27.388-56.321-59.317-59.316h.001c-4.16-.39-7.895-2.71-9.99-6.204-2.627-4.38-5.797-8.44-9.407-12.05-20.644-20.766-53.499-24.309-78.122-8.427-4.362 2.814-9.994 2.743-14.345-.178-13.962-9.375-31.891-12.516-49.184-8.616-17.19 3.876-31.948 14.347-40.49 28.729-2.192 3.691-6 6.131-10.187 6.529-32.237 3.058-56.887 27.708-59.946 59.946-.396 4.186-2.837 7.994-6.528 10.187-14.383 8.543-24.854 23.3-28.73 40.488-3.899 17.295-.759 35.222 8.617 49.185 2.922 4.352 2.992 9.982.178 14.343-15.883 24.623-12.34 57.479 8.41 78.107 3.627 3.626 7.689 6.798 12.073 9.427 3.491 2.093 5.808 5.823 6.196 9.978.63 6.727 2.21 13.119 4.609 19.047l-48.002 83.141c-5.09 8.818-4.907 19.661.478 28.299 5.382 8.634 15.044 13.566 25.179 12.884l45.318-3.04c5.087-.346 9.813 2.389 12.059 6.962l20.021 40.77c4.484 9.135 13.588 15.022 23.758 15.363.312.01.623.016.933.016 9.816 0 18.874-5.209 23.807-13.754l57.231-99.124 57.227 99.123c4.933 8.546 13.99 13.755 23.807 13.755.31 0 .621-.005.932-.016 10.171-.342 19.275-6.229 23.759-15.363l20.021-40.77c2.247-4.575 6.985-7.31 12.066-6.962l45.306 3.039c10.167.69 19.801-4.25 25.184-12.884 5.381-8.637 5.564-19.48.474-28.299zm-381.843-132.215c-15.776-15.683-18.466-40.645-6.397-59.354 6.064-9.401 5.936-21.505-.33-30.837-7.088-10.556-9.435-24.233-6.438-37.524 2.973-13.185 10.902-24.444 21.757-30.89 7.795-4.629 12.954-12.73 13.802-21.667 2.406-25.365 21.064-44.023 46.428-46.43 8.939-.848 17.038-6.007 21.667-13.802 6.446-10.853 17.706-18.783 30.892-21.756 13.295-2.996 26.969-.65 37.524 6.436 9.328 6.264 21.434 6.396 30.837.331 18.707-12.068 43.672-9.378 59.368 6.413 2.759 2.759 5.17 5.845 7.166 9.174 4.541 7.571 12.561 12.589 21.452 13.423h.001c25.035 2.348 43.434 20.747 45.784 45.782.833 8.891 5.851 16.911 13.422 21.453 3.332 2 6.419 4.41 9.19 7.182 15.776 15.682 18.465 40.644 6.397 59.353-6.065 9.401-5.936 21.505.33 30.836 7.11 10.589 9.447 24.307 6.412 37.634-3.008 13.208-10.987 24.463-21.894 30.877-7.721 4.542-12.814 12.534-13.621 21.378-2.337 25.56-21.08 44.303-46.64 46.641-8.845.809-16.837 5.901-21.379 13.623-6.414 10.905-17.668 18.885-30.877 21.893-13.329 3.035-27.045.699-37.633-6.412-4.753-3.191-10.225-4.791-15.693-4.791-5.267 0-10.53 1.484-15.144 4.46-18.711 12.068-43.673 9.377-59.369-6.412-2.76-2.759-5.172-5.848-7.17-9.18-4.538-7.569-12.554-12.585-21.444-13.418-25.042-2.346-43.443-20.747-45.789-45.79-.833-8.888-5.849-16.903-13.417-21.442-3.332-1.998-6.421-4.41-9.194-7.184zm102.844 212.216c-2.349 4.068-6.565 6.406-11.245 6.246-4.691-.158-8.728-2.768-10.797-6.982l-20.021-40.771c-4.942-10.064-15.348-16.073-26.534-15.317l-45.316 3.04c-4.681.313-8.959-1.872-11.441-5.853-2.484-3.985-2.565-8.794-.217-12.864l43.623-75.554c10.743 14.036 27.087 23.409 46.107 25.191 4.154.389 7.884 2.706 9.978 6.197 2.629 4.385 5.801 8.446 9.411 12.057 18.245 18.353 46.032 23.253 69.241 13.178z"/><path d="m256 355c-84.089 0-152.5-68.411-152.5-152.5 0-69.789 47.165-130.553 114.697-147.768 4.018-1.022 8.098 1.402 9.12 5.415 1.023 4.014-1.401 8.097-5.415 9.12-60.881 15.52-103.402 70.307-103.402 133.233 0 75.818 61.683 137.5 137.5 137.5s137.5-61.682 137.5-137.5-61.683-137.5-137.5-137.5c-.352 0-.71-.001-1.062.008-.061.001-.122.002-.182.002-4.06 0-7.397-3.241-7.495-7.321-.099-4.141 3.179-7.578 7.319-7.677.471-.012.951-.012 1.42-.012 84.089 0 152.5 68.411 152.5 152.5s-68.411 152.5-152.5 152.5z"/><g><path d="m352.5 150.47c-10.834 0-19.905 7.698-22.03 17.912l-27.742 11.696c-1.153.484-2.5.03-3.131-1.048l-23.353-40.013c1.472-3.036 2.255-6.392 2.255-9.816 0-12.407-10.094-22.5-22.5-22.5s-22.5 10.093-22.5 22.5c0 3.424.783 6.781 2.255 9.816l-23.348 40.005c-.637 1.086-1.984 1.543-3.133 1.058l-27.745-11.697c-2.125-10.214-11.195-17.912-22.03-17.912-12.406 0-22.5 10.093-22.5 22.5 0 8.079 4.314 15.409 11.085 19.394l14.684 67.573c2.719 12.552 14.019 21.663 26.87 21.663h32.763c4.143 0 7.5-3.358 7.5-7.5s-3.357-7.5-7.5-7.5h-32.76c-5.841 0-10.976-4.137-12.211-9.843l-15.47-71.19c-.583-2.684-2.536-4.718-4.966-5.526-2.989-1.059-4.993-3.89-4.993-7.071 0-4.136 3.364-7.5 7.5-7.5s7.5 3.364 7.5 7.5c-.241 3.131 1.513 6.203 4.566 7.491l31.883 13.441c2.191.922 4.48 1.362 6.744 1.362 6.066 0 11.938-3.163 15.164-8.674l25.65-43.95c1.665-2.853 1.234-6.352-.824-8.711-.784-.955-1.684-2.529-1.684-4.729 0-4.136 3.364-7.5 7.5-7.5s7.5 3.364 7.5 7.5c0 2.2-.899 3.774-1.684 4.729-2.058 2.359-2.49 5.858-.824 8.711l25.655 43.958c3.222 5.505 9.091 8.666 15.158 8.666 2.264 0 4.556-.44 6.748-1.363l31.88-13.44c3.054-1.288 4.807-4.359 4.566-7.491 0-4.136 3.364-7.5 7.5-7.5s7.5 3.364 7.5 7.5c0 3.181-2.004 6.012-4.993 7.071-2.43.809-4.383 2.843-4.966 5.526l-15.471 71.195c-1.234 5.7-6.369 9.837-12.21 9.837h-64.958c-4.143 0-7.5 3.358-7.5 7.5s3.357 7.5 7.5 7.5h64.96c12.852 0 24.151-9.11 26.869-21.657l14.685-67.579c6.772-3.985 11.086-11.315 11.086-19.394 0-12.407-10.094-22.5-22.5-22.5z"/><g><path d="m193.552 231.58c-4.143 0-7.5-3.358-7.5-7.5v-12c0-4.142 3.357-7.5 7.5-7.5s7.5 3.358 7.5 7.5v12c0 4.142-3.358 7.5-7.5 7.5z"/><path d="m318.448 231.58c-4.143 0-7.5-3.358-7.5-7.5v-12c0-4.142 3.357-7.5 7.5-7.5s7.5 3.358 7.5 7.5v12c0 4.142-3.357 7.5-7.5 7.5z"/><path d="m256 238.723c-8.479 0-16.54-3.671-22.118-10.073-2.722-3.123-2.396-7.86.728-10.582 3.122-2.721 7.86-2.396 10.581.727 2.729 3.132 6.669 4.928 10.81 4.928s8.081-1.796 10.81-4.928c2.721-3.124 7.458-3.448 10.581-.727s3.449 7.458.728 10.582c-5.58 6.401-13.641 10.073-22.12 10.073z"/></g></g></g></g></svg>