<svg height="512" width="512" xmlns="http://www.w3.org/2000/svg"><path d="M376.471 329.104c2.799 9.085 8.155 16.637 15.105 22.259 6.12-1.92 12.048-4.714 16.948-8.777-.137-.093-.277-.184-.413-.278-10.501-7.114-22.418-21.078-19.304-34.184a67.038 67.038 0 0 0-5.404 1.964c-2.135.875-4.239 1.829-6.34 2.789-2.191 4.942-1.842 10.718-.592 16.227zM360.863 319.049a55.635 55.635 0 0 1-12.172 1.517c-3.502 5.493-4.599 12.551-4.2 19.299.438 4.667 2.326 8.935 5.096 12.586a79.067 79.067 0 0 0 18.864 2.347c-8.536-9.57-11.919-23.744-7.588-35.749zM335.12 319.169a58.288 58.288 0 0 1-11.492-3.846c-5.326 3.835-9.448 9.452-10.999 15.516a78.264 78.264 0 0 0 12.404 10.588c-.202-8.308 3.697-16.771 10.087-22.258z" fill="#e36254"/><g fill="#a63c30"><path d="M323.628 315.322c-4.691-2.14-9.09-4.906-13.005-8.276-2.737-2.356-5.863-5.385-9.339-6.364-1.088-.306-2.255-.499-3.34-.185s-2.634 1.848-2.256 2.913c3.624 10.205 9.479 19.583 16.941 27.428 1.551-6.064 5.673-11.681 10.999-15.516zM376.471 329.104c-1.25-5.508-1.599-11.285.592-16.227-3.957 1.807-7.905 3.634-12.034 4.993a52.64 52.64 0 0 1-4.167 1.18c-4.33 12.005-.948 26.178 7.588 35.749 7.327.028 14.655-.956 21.693-3.001a73.53 73.53 0 0 0 1.432-.434c-6.949-5.623-12.305-13.176-15.104-22.26zM348.691 320.566a58.456 58.456 0 0 1-13.571-1.397c-6.39 5.487-10.289 13.95-10.087 22.257a75.277 75.277 0 0 0 8.273 4.937 76.348 76.348 0 0 0 16.28 6.088c-2.769-3.651-4.658-7.919-5.096-12.586-.398-6.749.699-13.806 4.201-19.299zM408.111 342.307c.135.094.275.185.413.278a35.339 35.339 0 0 0 3.075-2.861c5.717-6.022 10.279-15.114 7.029-22.755-2.604-6.124-9.204-9.874-15.82-10.583-4.719-.506-9.444.313-14.001 1.737-3.114 13.106 8.803 27.071 19.304 34.184z"/></g><path d="M368.651 356.332c-15.809.001-31.483-4.693-44.47-13.673-4.86-3.337-9.119-6.973-12.653-10.805-2.339-2.535-7.306-8.603-11.405-14.925-6.92-10.674-6.371-14.254-5.357-16.019 1.085-1.888 3.388-2.457 6.843-1.692.028.006.055.013.082.021 3.373.95 6.302 3.516 8.887 5.78.347.304.688.602 1.023.891 9.962 8.565 23.472 13.359 37.068 13.157h.05c10.69.19 20.634-4.292 30.246-8.63a575.29 575.29 0 0 1 3.833-1.719c11.809-5.551 27.694-5.918 35.148 4.148 1.62 2.188 2.653 4.823 2.987 7.617 1.994 16.696-16.95 29.412-30.398 32.762a78.753 78.753 0 0 1-21.884 3.087zm-69.737-54.448c-.806 0-1.352.175-1.55.52-.242.421-1.126 3.022 5.273 12.894 3.997 6.166 8.824 12.064 11.093 14.524 3.383 3.667 7.471 7.156 12.151 10.368 18.304 12.656 42.17 16.456 63.845 10.167l.057-.015c12.905-3.203 29.876-15.237 28.172-29.504-.272-2.278-1.109-4.418-2.42-6.189-6.494-8.77-20.76-8.251-31.495-3.205a560.993 560.993 0 0 0-3.844 1.724c-9.907 4.471-20.158 9.089-31.509 8.896-14.313.215-28.538-4.852-39.042-13.882-.342-.294-.69-.599-1.043-.908-2.334-2.044-4.978-4.36-7.685-5.138-.77-.168-1.448-.252-2.003-.252z" fill="#7d271d"/><path d="M312.63 332.338a1.499 1.499 0 0 1-1.453-1.87c1.599-6.252 5.818-12.215 11.575-16.361a1.499 1.499 0 0 1 1.752 2.432c-5.196 3.742-8.995 9.089-10.423 14.671a1.5 1.5 0 0 1-1.451 1.128zM391.575 352.862c-.331 0-.664-.109-.942-.334-7.418-6-12.811-13.947-15.595-22.983a1.463 1.463 0 0 1-.029-.109c-1.578-6.953-1.355-12.569.683-17.166a1.499 1.499 0 1 1 2.741 1.215c-1.762 3.974-1.93 8.957-.513 15.232 2.613 8.442 7.66 15.869 14.599 21.481a1.5 1.5 0 0 1-.944 2.664zM368.451 356.297c-.413 0-.823-.169-1.119-.501-9.221-10.338-12.314-24.961-7.88-37.255a1.5 1.5 0 0 1 2.82 1.017c-4.004 11.099-1.071 24.861 7.297 34.242a1.498 1.498 0 0 1-1.118 2.497zM325.032 342.925a1.499 1.499 0 0 1-1.498-1.462c-.21-8.653 3.855-17.631 10.609-23.431a1.498 1.498 0 0 1 1.953 2.274c-6.089 5.229-9.754 13.308-9.565 21.084a1.5 1.5 0 0 1-1.462 1.535h-.037zM349.588 353.95c-.453 0-.9-.204-1.195-.593-3.092-4.077-4.957-8.693-5.394-13.351l-.004-.052c-.327-5.527.177-13.517 4.433-20.194a1.498 1.498 0 1 1 2.527 1.611c-2.98 4.675-4.389 11.202-3.969 18.379.395 4.151 2.008 8.119 4.795 11.794a1.5 1.5 0 0 1-1.193 2.406zM408.11 343.806c-.289 0-.582-.084-.839-.258-5.976-4.048-11.507-9.614-15.175-15.27-4.605-7.101-6.246-14.19-4.747-20.501a1.5 1.5 0 0 1 2.917.693c-2.804 11.799 7.721 25.168 18.686 32.596a1.499 1.499 0 0 1-.842 2.74z" fill="#7d271d"/><g><path d="M147.357 263.404c-1.502-2.044-3.684-4.565-5.568-6.263s-4.186-3.031-6.703-3.342-5.252.529-6.839 2.507-1.718 5.123.009 6.981c-2.64-.85-5.737-.253-7.762 1.642s-2.817 5.053-1.775 7.624 3.929 4.306 6.668 3.868c-1.966.958-3.098 3.288-2.828 5.459.27 2.17 1.8 4.141 3.817 4.985 6.129 2.565 10.642-.289 13.861-1.403 7.878 3.322 54.235 15.667 62.113 18.989l7.474-33.652c-10.859-1.808-62.467-7.395-62.467-7.395z" fill="#a63c30"/><path d="M202.35 305.948c-.198 0-.396-.039-.582-.118-3.857-1.626-17.599-5.596-30.888-9.435-13.403-3.872-26.092-7.538-30.67-9.329-.354.135-.73.289-1.121.449-3.212 1.312-7.61 3.109-13.292.731-2.535-1.061-4.391-3.487-4.726-6.183-.196-1.575.188-3.178.989-4.501-2.08-.725-3.873-2.333-4.73-4.448-1.259-3.107-.379-6.924 2.14-9.281 1.653-1.547 3.898-2.395 6.192-2.427a7.241 7.241 0 0 1 1.416-6.038c1.832-2.284 4.971-3.455 8.192-3.057 2.579.319 5.18 1.604 7.523 3.716 1.67 1.505 3.731 3.794 5.374 5.956 6.264.68 51.657 5.631 61.903 7.335a1.5 1.5 0 0 1 1.217 1.803l-7.474 33.652a1.498 1.498 0 0 1-1.463 1.175zm-62.112-21.986c.199 0 .396.039.582.118 3.858 1.627 17.601 5.597 30.892 9.436 12.434 3.592 24.255 7.007 29.552 8.911l6.751-30.396c-13.361-1.993-60.325-7.084-60.819-7.138a1.494 1.494 0 0 1-1.046-.603c-1.589-2.163-3.694-4.532-5.363-6.037-1.314-1.184-3.401-2.661-5.884-2.967-2.164-.267-4.318.501-5.486 1.957-1.188 1.481-1.216 3.781-.062 5.022a1.5 1.5 0 0 1-1.557 2.447c-2.172-.699-4.695-.173-6.279 1.31-1.608 1.505-2.201 4.014-1.41 5.966.802 1.979 3.015 3.273 5.042 2.951a1.499 1.499 0 0 1 .893 2.828c-1.336.651-2.195 2.339-1.997 3.926.202 1.622 1.371 3.144 2.909 3.788 4.538 1.899 7.971.497 11.001-.741a35.888 35.888 0 0 1 1.792-.696c.158-.054.323-.082.489-.082z" fill="#7d271d"/><path d="m87.596 298.278-37.255 57.21 27.993 18.563 25.936-67.17z" fill="#3f9e53"/><path d="M78.334 375.549c-.291 0-.58-.085-.828-.25l-27.993-18.563a1.499 1.499 0 0 1-.428-2.067l37.255-57.21a1.5 1.5 0 0 1 1.943-.514l16.674 8.603c.68.351.987 1.158.711 1.872l-25.936 67.17a1.5 1.5 0 0 1-1.398.959zM52.408 355.06l25.2 16.71 24.779-64.175-14.274-7.364z" fill="#30753e"/><path d="m111.74 356.332-33.406 17.719 25.936-67.17 23.563-5.711z" fill="#3f9e53"/><path d="M78.335 375.549a1.497 1.497 0 0 1-1.398-2.039l25.936-67.17a1.497 1.497 0 0 1 1.045-.917l23.563-5.711a1.497 1.497 0 0 1 1.792 1.877l-16.093 55.162a1.495 1.495 0 0 1-.736.904l-33.406 17.719a1.5 1.5 0 0 1-.703.175zm27.05-67.397-24.207 62.693 29.3-15.541 15.19-52.068zm6.355 48.18h.004zM62.032 364.74a1.498 1.498 0 0 1-1.303-2.236l24.168-42.802a1.498 1.498 0 1 1 2.61 1.474l-24.168 42.802a1.5 1.5 0 0 1-1.307.762z" fill="#30753e"/><path d="m87.596 298.278 28.004-3.073 12.233 5.965-23.563 5.711z" fill="#2d703b"/><path d="M104.27 308.38c-.237 0-.473-.056-.687-.167l-16.674-8.603a1.498 1.498 0 0 1 .524-2.821l28.004-3.074c.282-.031.566.019.82.143l12.233 5.966a1.499 1.499 0 0 1-.304 2.804l-23.563 5.711a1.568 1.568 0 0 1-.353.041zm-11.569-9.154 11.759 6.067 18.976-4.599-8.103-3.952z" fill="#30753e"/><g><path d="M95.94 298.396a1.498 1.498 0 0 1-1.233-2.348c4.746-6.897 10.701-12.85 17.7-17.694 1.104-.764 4.832-3.188 8.771-5.204 7.346-3.758 9.928-3.297 11.231-2.623.666.345 1.787 1.223 1.807 3.234.022 2.143-1.269 3.842-2.668 5.358-6.201 6.723-13.557 12.279-20.671 17.653a1.499 1.499 0 0 1-1.807-2.393c7.008-5.294 14.255-10.768 20.274-17.293.98-1.062 1.885-2.197 1.874-3.295-.005-.508-.138-.577-.188-.603-2.057-1.066-11.395 3.807-16.918 7.629-6.699 4.636-12.398 10.332-16.937 16.928a1.493 1.493 0 0 1-1.235.651z" fill="#30753e"/></g><g><path d="M107.948 307.114a1.499 1.499 0 0 1-1.32-2.207c5.301-9.897 12.819-19.584 21.741-28.014 1.008-.953 2.024-1.85 3.361-2.36 1.762-.672 3.681-.381 4.89.741 1.002.93 2.339 3.145.031 7.531a150.331 150.331 0 0 1-12.834 20.265 1.5 1.5 0 0 1-2.396-1.802 147.214 147.214 0 0 0 12.577-19.859c.371-.706 1.511-3.076.583-3.938-.367-.341-1.1-.397-1.783-.137-.823.314-1.56.973-2.37 1.738-8.691 8.211-16.007 17.634-21.157 27.25-.27.505-.788.792-1.323.792z" fill="#30753e"/></g><g><path d="m112.684 312.162-18.737 65.649 32.22 9.487 4.986-71.83z" fill="#fcd242"/><path d="M126.168 388.797c-.142 0-.284-.02-.423-.061l-32.221-9.487a1.499 1.499 0 0 1-1.018-1.849l18.738-65.649c.211-.74.947-1.2 1.705-1.064l18.468 3.306a1.5 1.5 0 0 1 1.231 1.579l-4.985 71.83a1.5 1.5 0 0 1-1.495 1.395zm-30.372-12.004 29.006 8.54 4.763-68.627-15.811-2.83z" fill="#ff713e"/><path d="m152.867 360.521-26.7 26.777 4.986-71.83 20.833-12.402z" fill="#fcd242"/><path d="M126.167 388.797a1.5 1.5 0 0 1-1.495-1.602l4.985-71.83c.034-.49.306-.933.729-1.184l20.833-12.402a1.501 1.501 0 0 1 2.266 1.264l.881 57.455c.006.405-.151.795-.437 1.081l-26.699 26.777a1.5 1.5 0 0 1-1.063.441zm6.427-72.442-4.653 67.042 23.418-23.486-.832-54.232z" fill="#ff713e"/><g><path d="M107.406 383.273a1.5 1.5 0 0 1-1.466-1.819l10.479-48.024a1.5 1.5 0 0 1 2.929.639l-10.479 48.024a1.5 1.5 0 0 1-1.463 1.18z" fill="#ff713e"/></g><g><path d="m112.684 312.162 25.855-11.191 13.447 2.095-20.833 12.402z" fill="#e38f2d"/><path d="M131.153 316.967a1.57 1.57 0 0 1-.264-.023l-18.468-3.306a1.499 1.499 0 0 1-.332-2.85l25.854-11.191c.26-.113.546-.15.826-.106l13.447 2.095a1.5 1.5 0 0 1 .536 2.769l-20.833 12.402c-.233.138-.498.21-.766.21zm-13.311-5.404 13.024 2.332 16.777-9.988-8.908-1.388z" fill="#ff713e"/></g></g><g><path d="M133.335 314.41a1.5 1.5 0 0 1-1.484-1.301c-1.313-9.88-2.671-20.097-.751-31.315.272-1.59.654-3.419 1.743-5.003 1.312-1.908 3.449-2.941 5.442-2.628 2.566.402 4.054 2.683 5.064 4.625 4.646 8.94 7.044 16.319 8.018 24.676a1.499 1.499 0 0 1-2.977.347c-.929-7.973-3.232-15.043-7.7-23.641-.684-1.316-1.628-2.852-2.867-3.045-.833-.13-1.866.431-2.509 1.365-.745 1.083-1.04 2.534-1.258 3.81-1.843 10.77-.516 20.756.768 30.414a1.498 1.498 0 0 1-1.489 1.696z" fill="#ff713e"/></g><g><path d="m118.494 310.693-.082-.002a1.498 1.498 0 0 1-1.415-1.578c.309-5.698 1.409-10.982 3.567-17.133 1.747-4.98 4.136-11.79 8.645-15.284 1.687-1.307 3.779-1.649 5.458-.893 1.621.73 2.7 2.321 3.299 4.864 1.743 7.4-.021 15.021-1.577 21.744a1.5 1.5 0 0 1-2.92-.676c1.482-6.404 3.162-13.662 1.58-20.381-.366-1.553-.908-2.501-1.613-2.818-.745-.335-1.738.024-2.39.529-3.81 2.952-6.029 9.279-7.649 13.898-2.063 5.88-3.112 10.908-3.406 16.311a1.502 1.502 0 0 1-1.497 1.419z" fill="#ff713e"/></g><g><path d="M136.281 264.536c-8.142 3.231-10.157 11.522-5.226 14.622s13.585-2.206 15.918-5.798z" fill="#a63c30"/><path d="M134.559 281.577c-1.546 0-3.019-.344-4.302-1.15-2.386-1.5-3.599-4.048-3.328-6.99.395-4.289 3.848-8.33 8.799-10.294a1.5 1.5 0 0 1 1.106 2.786c-4.752 1.886-6.697 5.371-6.919 7.783-.166 1.804.522 3.288 1.938 4.178 3.963 2.49 11.728-2.058 13.863-5.345a1.5 1.5 0 0 1 2.514 1.632c-2.148 3.307-8.338 7.4-13.671 7.4z" fill="#7d271d"/></g></g><g><path d="M332.811 227.091c.903-2.37 2.336-5.381 3.7-7.519s3.229-4.036 5.572-5.006 5.203-.889 7.259.596 3.019 4.481 1.849 6.731c2.319-1.522 5.463-1.771 7.92-.484s4.06 4.121 3.74 6.876-2.641 5.196-5.398 5.503c2.15.4 3.862 2.345 4.179 4.509s-.633 4.471-2.353 5.822c-5.225 4.104-10.335 2.554-13.735 2.338-6.71 5.299-48.108 29.539-54.817 34.838l-16.162-30.449c9.988-4.632 58.246-23.755 58.246-23.755z" fill="#a63c30"/><path d="M290.729 282.793a1.495 1.495 0 0 1-1.324-.796l-16.162-30.448a1.498 1.498 0 0 1 .693-2.062c9.423-4.37 51.86-21.225 57.717-23.549 1.008-2.522 2.385-5.276 3.595-7.172 1.696-2.66 3.862-4.591 6.263-5.585 2.999-1.241 6.337-.948 8.71.766a7.244 7.244 0 0 1 2.972 5.444c2.221-.579 4.609-.359 6.615.692 3.056 1.601 4.921 5.046 4.534 8.376-.263 2.267-1.564 4.294-3.376 5.546 1.124 1.062 1.921 2.505 2.151 4.076.394 2.687-.748 5.52-2.91 7.218-4.844 3.804-9.562 3.243-13.006 2.834-.419-.05-.823-.098-1.201-.134-3.935 2.945-15.192 9.857-27.08 17.157-11.788 7.238-23.977 14.722-27.262 17.317-.267.209-.595.32-.929.32zm-14.09-31.239 14.598 27.503c4.599-3.246 15.084-9.684 26.114-16.457 11.789-7.239 23.98-14.724 27.265-17.319.29-.229.656-.342 1.024-.32.607.039 1.241.114 1.913.194 3.249.386 6.932.824 10.801-2.214 1.311-1.03 2.033-2.808 1.795-4.426-.232-1.583-1.509-2.981-2.97-3.253a1.5 1.5 0 0 1 .108-2.963c2.039-.227 3.829-2.066 4.075-4.187.243-2.092-.996-4.353-2.947-5.376-1.922-1.007-4.494-.842-6.402.409a1.498 1.498 0 0 1-2.152-1.945c.782-1.504.142-3.713-1.397-4.824-1.514-1.093-3.795-1.26-5.809-.426-2.311.957-3.93 2.935-4.882 4.427-1.209 1.896-2.607 4.74-3.563 7.247a1.5 1.5 0 0 1-.848.86c-.46.183-44.378 17.594-56.723 23.07zm56.172-24.463h.004z" fill="#7d271d"/><path d="m394.72 218.911 66.938 13.42-6.328 32.987-66.133-28.476z" fill="#f22a4e"/><path d="M455.33 266.817a1.51 1.51 0 0 1-.593-.122l-66.133-28.476a1.5 1.5 0 0 1-.84-1.818l5.522-17.931a1.499 1.499 0 0 1 1.727-1.028l66.939 13.42a1.5 1.5 0 0 1 1.178 1.752l-6.328 32.986a1.502 1.502 0 0 1-1.472 1.217zm-64.304-30.819 63.184 27.206 5.697-29.695-64.153-12.861z" fill="#911027"/><path d="m419.296 276.784 36.034-11.466-66.133-28.476-20.568 12.837z" fill="#f22a4e"/><path d="M419.296 278.283c-.244 0-.487-.06-.707-.177L367.922 251a1.498 1.498 0 0 1-.087-2.593l20.568-12.837a1.5 1.5 0 0 1 1.386-.105l66.133 28.476a1.5 1.5 0 0 1-.138 2.805l-36.034 11.466a1.495 1.495 0 0 1-.454.071zm-47.676-28.704 47.825 25.584 31.605-10.056-61.725-26.578zM459.016 247.608c-.128 0-.258-.016-.388-.051l-47.488-12.686a1.498 1.498 0 1 1 .774-2.896l47.488 12.686a1.5 1.5 0 0 1-.386 2.947z" fill="#911027"/><path d="m394.72 218.911-21.793 17.855-4.298 12.913 20.568-12.837z" fill="#b51835"/><path d="M368.63 251.178a1.5 1.5 0 0 1-1.423-1.972l4.298-12.913c.089-.269.253-.506.472-.686l21.792-17.855a1.497 1.497 0 0 1 2.382 1.6l-5.522 17.931a1.496 1.496 0 0 1-.639.83l-20.568 12.836a1.485 1.485 0 0 1-.792.229zm5.583-13.527-2.847 8.554 16.564-10.338 3.895-12.645z" fill="#911027"/><g><path d="M352.676 236.938c-.8 0-1.599-.011-2.399-.035-2.062-.062-4.179-.328-5.695-1.844-1.422-1.422-1.266-2.837-1.046-3.554.43-1.402 1.907-3.57 9.733-6.187 4.196-1.403 8.537-2.37 9.855-2.624 8.358-1.61 16.778-1.699 25.026-.263a1.498 1.498 0 1 1-.515 2.953c-7.888-1.374-15.944-1.289-23.944.253-6.595 1.271-16.61 4.531-17.289 6.747-.017.054-.06.196.299.556.777.777 2.22.924 3.665.967 8.874.267 17.855-1.08 26.541-2.382a1.498 1.498 0 1 1 .444 2.964c-8.044 1.205-16.339 2.449-24.675 2.449z" fill="#911027"/></g><g><path d="M372.993 248.152a1.47 1.47 0 0 1-.197-.013 150.119 150.119 0 0 1-23.457-5.012c-4.748-1.42-5.395-3.925-5.359-5.292.044-1.648 1.18-3.223 2.893-4.012 1.299-.598 2.651-.696 4.038-.75 12.267-.473 24.447.934 35.226 4.073a1.499 1.499 0 0 1-.838 2.878c-10.473-3.05-22.324-4.419-34.272-3.955-1.113.043-2.1.109-2.9.477-.664.306-1.137.869-1.15 1.37-.034 1.267 2.457 2.111 3.221 2.339a147.27 147.27 0 0 0 22.988 4.912 1.498 1.498 0 0 1-.193 2.985z" fill="#911027"/></g><g><path d="m387.082 246.549 60.01 32.554-15.77 29.656-54.802-46.703z" fill="#fcd242"/><path d="M431.322 310.258c-.353 0-.699-.125-.972-.358l-54.802-46.703a1.499 1.499 0 0 1-.267-1.985l10.562-15.507a1.499 1.499 0 0 1 1.954-.474l60.009 32.553c.723.393.995 1.295.608 2.021l-15.769 29.656a1.5 1.5 0 0 1-1.323.797zm-52.806-48.47 52.359 44.62 14.196-26.697-57.512-31.199z" fill="#ff713e"/><path d="m393.509 309.094 37.813-.335-54.802-46.703-23.438 6.204z" fill="#fcd242"/><path d="M393.509 310.593a1.5 1.5 0 0 1-1.065-.444l-40.427-40.834a1.498 1.498 0 0 1 .682-2.503l23.438-6.204a1.499 1.499 0 0 1 1.356.308l54.802 46.703a1.5 1.5 0 0 1-.959 2.639l-37.813.335h-.014zm-37.54-41.547 38.16 38.544 33.165-.294-51.149-43.59z" fill="#ff713e"/><g><path d="M440.504 292.988c-.272 0-.548-.074-.795-.229l-41.64-26.119a1.499 1.499 0 0 1 1.593-2.539l41.64 26.119a1.499 1.499 0 0 1-.798 2.768z" fill="#ff713e"/></g><g><path d="m387.082 246.549-26.087 10.639-7.913 11.072 23.438-6.204z" fill="#e38f2d"/><path d="M353.082 269.759a1.498 1.498 0 0 1-1.219-2.37l7.913-11.072a1.5 1.5 0 0 1 .654-.516l26.087-10.638a1.499 1.499 0 0 1 1.804 2.231L377.759 262.9a1.499 1.499 0 0 1-.855.605l-23.438 6.204a1.54 1.54 0 0 1-.384.05zm8.881-11.347-5.242 7.335 18.875-4.996 7.449-10.936z" fill="#ff713e"/></g></g><g><path d="M354.966 268.653c-.437 0-.87-.19-1.167-.557-5.288-6.543-8.882-13.42-12.017-22.995-.681-2.08-1.269-4.739.24-6.854 1.172-1.643 3.405-2.447 5.685-2.049 1.894.33 3.468 1.337 4.794 2.255 9.358 6.478 15.706 14.598 21.845 22.45a1.499 1.499 0 0 1-2.362 1.846c-6.001-7.676-12.207-15.613-21.19-21.832-1.064-.737-2.307-1.541-3.602-1.767-1.117-.194-2.24.15-2.73.837-.729 1.021-.292 2.77.169 4.18 3.015 9.208 6.454 15.8 11.5 22.044a1.5 1.5 0 0 1-1.165 2.442z" fill="#ff713e"/></g><g><path d="M364.308 256.879c-.266 0-.535-.071-.779-.219-5.892-3.593-12.57-7.666-16.637-14.089-1.397-2.207-1.779-4.091-1.166-5.761.635-1.729 2.342-2.983 4.457-3.274 5.651-.779 12.186 2.281 16.958 4.514 5.913 2.767 10.457 5.679 14.745 9.445a1.499 1.499 0 0 1-1.978 2.252c-4.066-3.572-8.392-6.341-14.027-8.978-4.443-2.079-10.518-4.92-15.289-4.264-.818.112-1.769.569-2.051 1.337-.266.725.032 1.777.885 3.124 3.692 5.832 10.053 9.711 15.665 13.133a1.498 1.498 0 0 1-.783 2.78z" fill="#ff713e"/></g><g><path d="M343.79 225.234c8.709.947 12.858 8.403 8.93 12.704s-13.683 1.49-16.887-1.351z" fill="#a63c30"/><path d="M346.526 241.636c-4.481 0-9.361-1.865-11.688-3.928a1.5 1.5 0 0 1 1.989-2.243c2.933 2.601 11.629 4.92 14.786 1.462 1.128-1.235 1.396-2.848.756-4.543-.856-2.266-3.659-5.107-8.741-5.66a1.498 1.498 0 0 1-1.328-1.652 1.494 1.494 0 0 1 1.652-1.328c5.295.576 9.699 3.551 11.222 7.581 1.044 2.764.553 5.543-1.347 7.624-1.767 1.933-4.453 2.686-7.301 2.687z" fill="#7d271d"/></g></g><g><path d="M197.183 336.867c-4.741 24.468-13.464 61.815-13.464 61.815s-20.31 3.194-18.855 9.332c1.455 6.137 26.848 16.491 33.351 12.372 6.502-4.118 34.597-49.672 34.597-49.672z" fill="#a63c30"/><path d="M193.837 422.822c-4.644 0-10.71-1.73-15.823-3.812-3.137-1.278-13.463-5.822-14.608-10.65-.28-1.182-.042-2.383.689-3.473 2.999-4.47 14.665-6.857 18.391-7.517 1.402-6.038 8.969-38.816 13.226-60.788a1.498 1.498 0 0 1 2.503-.801l35.628 33.846c.514.488.616 1.27.243 1.874-2.894 4.693-28.467 45.969-35.071 50.152-1.296.821-3.094 1.169-5.178 1.169zm4.293-82.989c-4.785 24.188-12.867 58.829-12.951 59.19a1.5 1.5 0 0 1-1.227 1.14c-5.654.891-15.37 3.415-17.368 6.394-.344.512-.32.863-.261 1.111.425 1.795 5.063 5.406 12.821 8.566 8.05 3.278 15.733 4.492 18.269 2.886 4.471-2.831 22.219-29.953 33.484-48.158zm-14.411 58.849h.004z" fill="#7d271d"/></g><g><path d="M309.157 315.058c11.353 22.187 31.512 57.897 31.512 57.897s20.398-2.575 20.706 3.725-21.209 23.302-28.599 21.152c-7.391-2.149-47.037-38.102-47.037-38.102z" fill="#a63c30"/><path d="M334.197 399.513a6.593 6.593 0 0 1-1.84-.241c-7.506-2.183-43.541-34.727-47.625-38.431a1.499 1.499 0 0 1-.321-1.806l23.419-44.672a1.5 1.5 0 0 1 1.327-.803h.007a1.5 1.5 0 0 1 1.327.816c10.231 19.995 27.845 51.379 30.995 56.977 3.759-.402 15.633-1.352 19.758 2.11 1.005.844 1.568 1.931 1.627 3.145.242 4.956-8.413 12.19-11.072 14.289-5.532 4.367-12.716 8.616-17.602 8.616zm-46.593-40.115c15.879 14.358 40.504 35.516 45.589 36.995 2.884.84 9.926-2.463 16.749-7.85 6.574-5.19 10.025-9.948 9.935-11.79-.012-.255-.087-.598-.56-.995-2.748-2.307-12.783-2.032-18.461-1.316a1.497 1.497 0 0 1-1.493-.75c-.194-.344-18.8-33.325-30.219-55.383z" fill="#7d271d"/></g><path d="M313.853 331.324c-4.65 23.779-38.966 35.482-55.777 38.177-16.812 2.695-51.633 2.075-63.483-19.059-10.086-17.978-2.526-52.576 5.349-84.644 1.38-5.621 2.773-11.161 4.078-16.523l69.256-11.102c3.324 5.34 6.825 10.867 10.323 16.482 17.086 27.426 34.116 56.933 30.254 76.669z" fill="#e36254"/><path d="M283.599 254.656c-24.936 23.492-65.359 21.533-83.657 11.143 1.38-5.621 2.773-11.161 4.078-16.523l69.256-11.102c3.323 5.339 6.825 10.867 10.323 16.482z" fill="#a63c30"/><g><path d="M242.92 372.13c-17.854 0-40.364-4.419-49.635-20.954-10.175-18.136-3.01-52.298 5.201-85.735.588-2.395 1.178-4.775 1.763-7.133.788-3.176 1.565-6.311 2.314-9.387a1.5 1.5 0 0 1 1.219-1.126l69.256-11.103a1.5 1.5 0 0 1 1.51.688c1.679 2.698 3.404 5.443 5.15 8.224 1.71 2.723 3.442 5.48 5.173 8.258 17.583 28.222 34.418 57.475 30.453 77.749-2.107 10.777-10.432 20.466-24.073 28.019-11.379 6.3-24.476 9.994-32.938 11.351-4.216.677-9.557 1.149-15.393 1.149zm-37.68-121.532c-.676 2.769-1.375 5.585-2.081 8.432-.584 2.356-1.174 4.733-1.762 7.126-8.068 32.855-15.138 66.369-5.497 83.553 6.238 11.126 19.142 15.782 28.868 17.729 15.147 3.032 29.142 1.213 33.071.583 19.634-3.147 50.362-15.594 54.544-36.985 3.757-19.203-13.544-49.086-30.056-75.588a2578.713 2578.713 0 0 0-5.167-8.249 2653.63 2653.63 0 0 1-4.63-7.389z" fill="#7d271d"/></g><g><path d="M174.852 102.915c-11.627-8.073-18.172-11.312-30.809-18.111-6.934-3.731-15.098-7.965-23.662-6.583-3.609.583-5.933 4.015-2.338 6.448 1.47.995 3.391 1.269 5.23 1.512-2.697.392-4.426.896-6.822 2.106-2.396 1.211-4.49 3.022-5.578 5.281-.575 1.193-.81 2.691.109 3.662.721.762 1.982.97 3.096.776s2.123-.724 3.105-1.246c-5.615 23.181 4.13 63.789 16.596 73.709z" fill="#ffe8db"/><path d="M133.777 171.968a1.49 1.49 0 0 1-.932-.326c-12.756-10.15-21.964-48.762-17.727-72.341a7.294 7.294 0 0 1-.785.181c-1.741.302-3.441-.166-4.441-1.222-1.222-1.29-1.36-3.288-.371-5.343 1.153-2.394 3.374-4.514 6.253-5.968a26.5 26.5 0 0 1 1.772-.822 6.838 6.838 0 0 1-.343-.218c-1.903-1.288-2.763-3.069-2.362-4.887.469-2.125 2.6-3.846 5.301-4.282 9.292-1.501 18.147 3.264 24.611 6.743 1.572.846 3.05 1.637 4.456 2.389 9.784 5.236 16.248 8.695 26.498 15.811a1.499 1.499 0 0 1-1.71 2.462c-10.107-7.018-16.166-10.26-26.202-15.631-1.407-.753-2.887-1.545-4.461-2.392-6.087-3.275-14.424-7.76-22.714-6.423-1.627.263-2.683 1.211-2.851 1.97-.159.721.518 1.354 1.114 1.757 1.213.82 3.005 1.058 4.587 1.268a1.5 1.5 0 0 1 .019 2.969c-2.638.384-4.183.86-6.362 1.961-2.294 1.159-4.035 2.79-4.904 4.594-.316.655-.545 1.567-.153 1.981.299.315 1.034.454 1.75.329.893-.155 1.791-.632 2.66-1.093a1.498 1.498 0 0 1 2.159 1.677c-2.554 10.542-1.985 25.921 1.521 41.138 3.388 14.703 8.964 26.599 14.551 31.045a1.499 1.499 0 0 1-.934 2.673z" fill="#e0a58f"/><path d="M132.146 98.569c7.213-6.247 30.779 14.309 34.091 18.482 3.313 4.173-19.514 33.923-25.708 32.499s-14.754-45.464-8.383-50.981z" fill="#a63c30"/><path d="M140.925 151.09a3.24 3.24 0 0 1-.732-.08c-2.88-.662-5.657-6.287-8.252-16.717-2.97-11.938-5.808-32.501-.777-36.858 1.389-1.203 3.255-1.705 5.553-1.49 10.532.983 28.188 17.017 30.694 20.174.971 1.222 1.63 3.847-3.821 12.485-5.121 8.116-16.688 22.486-22.665 22.486zm-5.226-52.196c-1.102 0-1.948.266-2.572.807-2.846 2.465-2.127 17.942 1.54 33.122 2.667 11.042 5.328 15.053 6.198 15.266 1.134.264 5.474-2.34 12.311-10.42 3.443-4.069 6.701-8.59 8.941-12.405 2.822-4.808 3.07-6.884 2.924-7.31-2.878-3.591-19.692-18.192-28.601-19.024a8.043 8.043 0 0 0-.741-.036zm-3.553-.325h.004z" fill="#7d271d"/><path d="M232.023 87.343c5.927-12.854 9.926-18.965 17.369-31.234 4.084-6.731 8.973-14.521 17.055-17.673 3.406-1.328 7.15.451 5.285 4.372-.763 1.603-2.279 2.813-3.74 3.956 2.524-1.03 4.269-1.473 6.948-1.644 2.679-.172 5.403.328 7.486 1.723 1.1.737 2.063 1.909 1.763 3.211-.235 1.023-1.216 1.84-2.275 2.238s-2.197.452-3.308.501c16.595 17.131 28.789 57.073 23.076 71.944z" fill="#ffe8db"/><path d="M301.681 126.236a1.5 1.5 0 0 1-1.399-2.037c2.561-6.666 1.334-19.746-3.202-34.136-4.695-14.893-12.004-28.436-19.551-36.227a1.5 1.5 0 0 1 1.011-2.54c.983-.043 1.999-.088 2.847-.407.68-.255 1.244-.748 1.342-1.172.128-.555-.533-1.225-1.137-1.629-1.663-1.114-3.99-1.635-6.556-1.472-2.436.156-4.01.529-6.478 1.536a1.5 1.5 0 0 1-1.49-2.569c1.257-.983 2.681-2.096 3.31-3.419.309-.651.573-1.539.069-2.08-.529-.569-1.92-.85-3.456-.251-7.823 3.051-12.734 11.145-16.319 17.054-.927 1.528-1.8 2.96-2.63 4.322-5.927 9.72-9.505 15.586-14.658 26.762a1.499 1.499 0 1 1-2.723-1.255c5.226-11.333 9.043-17.592 14.821-27.067.829-1.36 1.702-2.79 2.627-4.316 3.807-6.276 9.022-14.872 17.793-18.292 2.549-.994 5.258-.591 6.74 1.002 1.268 1.363 1.43 3.335.443 5.41-.058.123-.12.244-.185.362a25.9 25.9 0 0 1 1.944-.19c3.217-.207 6.207.494 8.415 1.973 1.895 1.269 2.788 3.06 2.39 4.792-.326 1.418-1.556 2.684-3.208 3.306a7.558 7.558 0 0 1-.768.242c15.609 18.174 27.254 56.121 21.408 71.338-.23.594-.798.96-1.4.96z" fill="#e0a58f"/><path d="M266.626 61.94c-9.385-1.726-19.271 27.941-20.01 33.218s34.022 19.342 38.638 14.973-10.34-46.666-18.628-48.191z" fill="#a63c30"/><path d="M281.909 112.436c-7.234 0-20.139-5.047-27.151-8.662-9.08-4.681-9.843-7.277-9.626-8.824.559-3.992 7.646-26.765 16.224-32.953 1.869-1.349 3.732-1.864 5.541-1.532 6.546 1.204 14.529 20.367 18.022 32.162 3.053 10.304 3.512 16.56 1.365 18.591-.9.854-2.435 1.218-4.375 1.218zm-33.803-17.107c.09.441 1.356 2.105 6.227 4.818 3.865 2.152 8.966 4.396 13.997 6.157 9.991 3.498 15.052 3.536 15.894 2.738.642-.625.901-5.431-2.4-16.301-4.538-14.942-11.766-28.647-15.469-29.328-.986-.182-2.047.151-3.245 1.015-7.258 5.235-14.345 26.347-15.004 30.901z" fill="#7d271d"/><path d="M305.261 222.723c-20.347 15.067-45.437 26.734-59.986 29.813-14.162 4.745-41.88 7.417-67.144 4.689-3.493-.376-6.94-.857-10.301-1.451-17.283-3.046-32.206-9.066-38.989-19.255-1.827-2.733-3.064-5.774-3.598-9.135-2.143-13.441 16.02-96.099 22.504-108.291s27.57-21.561 53.394-28.595 51.766-10.473 63.536-3.254c11.771 7.22 66.323 70.072 71.292 82.743 6.797 17.333-9.342 36.913-30.708 52.736z" fill="#e36254"/><path d="M304.559 219.821c.263.967.496 1.933.702 2.902-20.347 15.067-45.437 26.734-59.986 29.813-14.162 4.745-41.88 7.417-67.144 4.689a49.367 49.367 0 0 1-.831-2.743c-8.359-30.691 13.352-63.332 48.493-72.904 35.141-9.57 70.406 7.552 78.766 38.243z" fill="#ffe8db"/><path d="m217.944 188.121 16.872-4.596c2.053-.559 3.825 1.534 2.934 3.466l-5.403 11.718a3.297 3.297 0 0 1-4.924 1.292l-10.288-7.432c-1.706-1.233-1.223-3.894.809-4.448z"/><path d="M195.951 132.501c1.577 2.862-1.478 7.571-6.825 10.518s-10.96 3.016-12.537.155c-1.577-2.862 1.479-7.571 6.826-10.518 5.345-2.948 10.959-3.017 12.536-.155z" fill="#ffe8db"/><path d="M181.31 146.774c-2.871 0-5.01-1.019-6.035-2.877-1.042-1.891-.733-4.294.872-6.766 1.421-2.19 3.745-4.245 6.543-5.788 6.164-3.398 12.566-3.207 14.573.434 2.007 3.642-1.25 9.156-7.415 12.554-2.798 1.542-5.777 2.41-8.387 2.442l-.151.001zm9.922-14.862c-1.965 0-4.517.636-7.095 2.057-2.339 1.289-4.335 3.037-5.476 4.794-.96 1.479-1.237 2.823-.761 3.688.477.864 1.763 1.36 3.524 1.326 2.095-.026 4.638-.78 6.977-2.07 4.79-2.64 7.243-6.655 6.236-8.482-.463-.844-1.718-1.313-3.405-1.313z" fill="#e0a58f"/><path d="M247.392 127.704c-.386 3.245-5.613 5.291-11.676 4.57s-10.665-3.936-10.279-7.18c.386-3.245 5.613-5.291 11.676-4.57 6.062.72 10.664 3.935 10.279 7.18z" fill="#ffe8db"/><path d="M238.127 133.917c-.848 0-1.715-.051-2.588-.155-3.173-.377-6.099-1.408-8.239-2.903-2.416-1.688-3.606-3.798-3.352-5.942.491-4.129 6.351-6.712 13.341-5.882 3.173.378 6.099 1.409 8.239 2.904 2.416 1.688 3.606 3.798 3.351 5.942-.255 2.144-1.907 3.917-4.651 4.991-1.761.689-3.868 1.045-6.101 1.045zm-3.383-12.037c-4.364 0-7.607 1.607-7.819 3.39-.117.98.646 2.121 2.091 3.131 1.717 1.2 4.224 2.069 6.876 2.384 2.653.315 5.293.059 7.243-.705 1.642-.643 2.651-1.573 2.767-2.553.117-.98-.646-2.121-2.091-3.131-1.717-1.2-4.224-2.069-6.876-2.384a18.505 18.505 0 0 0-2.191-.132z" fill="#e0a58f"/><path d="M160.455 206.246c-1.421 16.782 1.134 33.884 7.374 49.529-17.283-3.046-32.206-9.066-38.989-19.255a122.844 122.844 0 0 1 12.46-28.528c2.702-4.517 6.058-9.142 11.06-10.788 2.057-.676 4.517-.72 6.196.651 2.32 1.889 2.152 5.41 1.899 8.391zM294.824 169.648c9.735 13.744 16.207 29.779 18.762 46.428 13.35-11.39 23.16-24.146 23.839-36.368a122.838 122.838 0 0 0-25.206-18.269c-4.62-2.523-9.858-4.807-15.004-3.689-2.116.461-4.258 1.67-5.01 3.703-1.042 2.805.889 5.754 2.619 8.195z" fill="#ffe8db"/><g><path d="M199.289 259.827c-6.987 0-14.189-.341-21.319-1.111a155.72 155.72 0 0 1-10.401-1.465c-19.811-3.492-33.634-10.374-39.976-19.9a24.246 24.246 0 0 1-3.83-9.731c-2.188-13.721 15.971-96.652 22.661-109.23 6.001-11.283 24.278-21.153 54.323-29.337 18.037-4.913 50.429-11.847 64.714-3.085 12.532 7.686 66.964 70.877 71.904 83.474 6.148 15.676-4.936 35.026-31.211 54.485-21.379 15.83-46.582 27.091-60.483 30.057-9.931 3.31-27.352 5.843-46.382 5.843zm46.02-175.103c-11.295 0-26.153 2.422-43.775 7.222-29.216 7.958-46.868 17.329-52.465 27.853-6.345 11.931-24.408 94.43-22.347 107.351a21.26 21.26 0 0 0 3.363 8.538c5.879 8.83 19.02 15.266 38.003 18.612 3.262.576 6.694 1.059 10.202 1.436 26.176 2.826 53.271-.185 66.508-4.62a1.5 1.5 0 0 1 .166-.045c13.565-2.871 38.328-13.945 59.404-29.551 14.528-10.759 37.772-31.69 30.205-50.982-4.664-11.894-58.831-74.745-70.68-82.013-4.139-2.54-10.434-3.801-18.584-3.801zm59.952 137.999h.004z" fill="#a63c30"/></g><g><path d="M242.145 228.621c2.756-.05 5.481-.646 7.93-1.902 5.853-3.004 9.406-9.375 10.532-15.856.285-1.643.381-3.345.347-5.076-10.164 2.843-18.15 12.163-18.809 22.834z" fill="#f22a4e"/><path d="M242.145 230.12a1.5 1.5 0 0 1-1.496-1.591c.688-11.156 8.872-21.101 19.901-24.186a1.5 1.5 0 0 1 1.902 1.414c.038 1.958-.082 3.712-.369 5.362-1.328 7.646-5.562 13.976-11.325 16.933-2.561 1.315-5.45 2.01-8.586 2.068h-.027zm17.283-22.261c-8.288 3.097-14.421 10.607-15.616 19.157 2.02-.219 3.891-.765 5.578-1.631 4.931-2.53 8.572-8.055 9.74-14.779.152-.871.251-1.78.298-2.747z"/></g><g><path d="M258.718 190.511c-6.928 14.353-20.468 25.346-35.939 29.177 3.754 3.349 7.778 6.565 12.6 7.997a22.48 22.48 0 0 0 6.765.937c.659-10.671 8.644-19.992 18.809-22.834-.098-5.1-1.332-10.45-2.235-15.277z" fill="#821629"/><path d="M241.754 230.124c-2.273 0-4.558-.337-6.8-1.002-5.326-1.581-9.591-5.121-13.172-8.315a1.498 1.498 0 0 1 .638-2.573c15.115-3.743 28.18-14.35 34.949-28.374a1.498 1.498 0 0 1 2.823.377c.157.842.325 1.699.494 2.569.827 4.237 1.682 8.618 1.767 12.953a1.499 1.499 0 0 1-1.095 1.473c-9.821 2.747-17.106 11.581-17.717 21.483a1.498 1.498 0 0 1-1.469 1.406l-.418.003zm-15.878-9.736c3.311 2.769 6.406 4.814 9.93 5.86 1.643.488 3.31.774 4.972.855 1.22-10.187 8.649-19.137 18.637-22.414-.165-3.206-.744-6.502-1.366-9.737-7.079 12.111-18.739 21.349-32.173 25.436z"/></g><g><path d="M241.782 172.226h-.038a1.927 1.927 0 0 1-1.889-1.964c.169-8.736 6.322-17.037 14.632-19.738s18.168.395 23.441 7.363a1.928 1.928 0 0 1-3.074 2.326c-4.314-5.7-12.379-8.233-19.177-6.023s-11.832 9-11.97 16.147a1.927 1.927 0 0 1-1.925 1.889z"/></g><g><path d="M172.18 190.239h-.038a1.927 1.927 0 0 1-1.889-1.964c.169-8.736 6.322-17.037 14.632-19.738 8.309-2.701 18.168.395 23.441 7.363a1.928 1.928 0 0 1-3.073 2.326c-4.314-5.7-12.38-8.232-19.177-6.023-6.798 2.21-11.832 9.001-11.97 16.147a1.927 1.927 0 0 1-1.926 1.889z"/></g></g><g><path d="M240.461 284.572c-.35 7.28-.503 15.412 2.232 22.293.646 1.625 2.823 1.05 2.885-.591.276-7.326-.9-14.647-.59-22.008.123-2.92-4.388-2.575-4.527.306zM232.574 282.616c-1.683 5.584-3.228 12.722-1.278 18.431.474 1.388 2.617 1.267 2.887-.195.524-2.84.359-5.859.633-8.741.281-2.949.752-5.862 1.466-8.738.595-2.396-3.017-3.05-3.708-.757zM248.505 281.663a94.96 94.96 0 0 1 2.633 9.59c.699 3.165 1.156 6.466 2.082 9.569.365 1.225 2.26 1.061 2.481-.168.591-3.28.299-7.023-.228-10.289-.563-3.496-1.45-6.881-2.573-10.24-.947-2.84-5.347-1.311-4.395 1.538zM234.637 309.627c.331 3.962.89 8.032 2.709 11.621.612 1.207 2.311.323 2.299-.793-.038-3.695-.816-7.409-1.142-11.09-.22-2.479-4.074-2.229-3.866.262zM250.763 310.181c.372 3.252.221 6.68 1.095 9.845.311 1.124 2.236 1.333 2.65.166 1.165-3.285.833-6.887.481-10.296-.28-2.71-4.536-2.426-4.226.285zM244.292 321.467c.024 2.747.076 6.277 1.834 8.554.745.964 2.576.837 2.766-.553.369-2.689-.527-5.559-.615-8.27-.082-2.582-4.007-2.287-3.985.269z" fill="#f0857a"/></g><ellipse cx="256" cy="441.809" fill="#d6d6d6" rx="102.99" ry="14.988"/></svg>