<svg id="Capa_1" enable-background="new 0 0 512 512" viewBox="0 0 512 512" xmlns="http://www.w3.org/2000/svg"><g><g><g><g><g><g><path d="m207.5 219.005c8.303 0 15.786 3.571 21 9.256 5.214-5.685 12.697-9.256 21-9.256 2.761 0 5.429.402 7.955 1.138.354-1.826.545-3.709.545-5.638 0-16.292-13.208-29.5-29.5-29.5s-29.5 13.208-29.5 29.5c0 1.929.191 3.813.545 5.638 2.526-.736 5.194-1.138 7.955-1.138z" fill="#fd4755"/><path d="m329.363 259.448c.957-.829 1.891-1.697 2.801-2.606 14.672-14.672 18.865-35.848 12.595-54.246-18.398-6.27-39.574-2.077-54.246 12.595-12.073 12.073-17.044 28.548-14.936 44.257z" fill="#68ca44"/><path d="m287.906 259.448 56.853-56.853c-18.398-6.27-39.574-2.077-54.246 12.595-12.073 12.073-17.044 28.548-14.936 44.257h12.329z" fill="#80d261"/><g><path d="m276.474 259.448c1.62-3.652 2.526-7.691 2.526-11.943 0-16.292-13.208-29.5-29.5-29.5s-29.5 13.208-29.5 29.5c0 4.253.907 8.291 2.526 11.943z" fill="#fb2b3a"/><path d="m249.5 218.005c-3.511 0-6.877.616-10 1.742 11.37 4.097 19.5 14.977 19.5 27.758 0 4.253-.907 8.291-2.526 11.943h20c1.62-3.652 2.526-7.691 2.526-11.943 0-16.293-13.208-29.5-29.5-29.5z" fill="#e41f2d"/><path d="m234.474 259.448c1.62-3.652 2.526-7.691 2.526-11.943 0-16.292-13.208-29.5-29.5-29.5s-29.5 13.208-29.5 29.5c0 4.253.907 8.291 2.526 11.943z" fill="#fd8087"/><path d="m207.5 218.005c-4.08 0-7.966.829-11.5 2.326 10.579 4.482 18 14.961 18 27.174 0 4.253-.907 8.291-2.526 11.943h23c1.62-3.652 2.526-7.691 2.526-11.943 0-16.293-13.208-29.5-29.5-29.5z" fill="#fe646f"/></g><path d="m401.344 425.035-39.401-148.018c-2.915-10.949-12.828-18.569-24.159-18.569h-163.568c-11.33 0-21.244 7.62-24.159 18.569l-39.401 148.018z" fill="#ffd15b"/><path d="m401.344 425.035-39.401-148.018c-2.915-10.949-12.828-18.569-24.159-18.569h-163.568c-11.33 0-21.244 7.62-24.159 18.569l-39.401 148.018z" fill="#ffd15b"/><path d="m340.042 425.035-22.378-145.39c-1.877-12.195-12.37-21.197-24.709-21.197h-73.91c-12.339 0-22.832 9.002-24.709 21.197l-22.378 145.39z" fill="#ffe177"/><path d="m283.684 425.035-7.472-147.373c-.546-10.765-9.433-19.214-20.212-19.214s-19.667 8.448-20.212 19.214l-7.472 147.373z" fill="#ffd15b"/><path d="m401.344 427-15.498-58.222h-259.692l-15.498 58.222z" fill="#fff0ad"/><path d="m385.846 368.778h-54.463l2.723 12.848c2.006 9.465-5.213 18.374-14.888 18.374h-201.375l-7.187 27h290.688z" fill="#ffe177"/></g><g><path d="m498.499 123.566-69.296 69.296c-3.905 3.905-10.237 3.905-14.142 0l-86.535-86.535c-1.654-1.654-3.836-2.676-6.166-2.888l-16.876-1.534c-4.222-.384-6.08-5.517-3.083-8.515l82.961-82.961c3.905-3.905 10.237-3.905 14.142 0l98.995 98.995c3.905 3.905 3.905 10.237 0 14.142z" fill="#dff6fd"/><path d="m498.499 109.424-98.995-98.995c-3.905-3.905-10.237-3.905-14.142 0l-13.894 13.893 85.102 85.102c3.905 3.905 3.905 10.237 0 14.142l-55.403 55.403 13.893 13.893c3.905 3.905 10.237 3.905 14.142 0l69.296-69.296c3.906-3.905 3.906-10.237.001-14.142z" fill="#c8effe"/></g></g><g><path d="m72 461.07 21.758 32.375c4.644 6.91 12.424 11.055 20.749 11.055h282.985c8.326 0 16.105-4.145 20.749-11.055l21.759-32.375z" fill="#dff6fd"/><path d="m390 461.07-29.188 43.43h36.681c8.326 0 16.105-4.145 20.749-11.055l21.758-32.375z" fill="#c8effe"/><path d="m494.5 462.071h-477c-5.523 0-10-4.477-10-10v-18.036c0-5.523 4.477-10 10-10h477c5.523 0 10 4.477 10 10v18.036c0 5.522-4.477 10-10 10z" fill="#c8effe"/><path d="m494.5 424.035h-30.5v7.965c0 5.523-4.477 10-10 10h-446.5v10.07c0 5.523 4.477 10 10 10h477c5.523 0 10-4.477 10-10v-18.036c0-5.522-4.477-9.999-10-9.999z" fill="#99e6fc"/></g></g></g></g><g><path d="m278 146.434c4.143 0 7.5-3.358 7.5-7.5v-16.981c0-8.265 3.19-15.838 8.453-21.49.071.237.144.475.229.71 1.669 4.61 5.738 7.75 10.622 8.194l16.877 1.534c.58.053 1.127.309 1.539.722l86.536 86.535c3.305 3.306 7.699 5.126 12.374 5.126s9.069-1.821 12.375-5.126l69.295-69.296c3.306-3.305 5.127-7.7 5.127-12.375 0-4.674-1.821-9.069-5.126-12.374l-98.993-98.996c-6.824-6.823-17.926-6.823-24.75 0l-18.341 18.341c-2.929 2.929-2.929 7.678 0 10.606 2.93 2.929 7.678 2.929 10.607 0l18.341-18.341c.975-.975 2.561-.975 3.535 0l98.995 98.996c.638.637.732 1.381.732 1.767 0 .387-.095 1.13-.733 1.768l-69.296 69.296c-.637.637-1.381.732-1.768.732s-1.13-.095-1.767-.732l-86.536-86.535c-2.89-2.89-6.722-4.685-10.79-5.054l-11.561-1.051 6.392-6.392c.058-.058.117-.114.173-.173l29.533-29.532c2.929-2.929 2.929-7.678 0-10.606-2.929-2.929-7.677-2.929-10.607 0l-27.926 27.926c-22.155 3.819-38.541 23.047-38.541 45.819v16.981c0 4.143 3.357 7.501 7.5 7.501z"/><path d="m278 170.434c4.143 0 7.5-3.358 7.5-7.5v-3c0-4.142-3.357-7.5-7.5-7.5s-7.5 3.358-7.5 7.5v3c0 4.142 3.357 7.5 7.5 7.5z"/><path d="m278 192.434c4.143 0 7.5-3.358 7.5-7.5v-1c0-4.142-3.357-7.5-7.5-7.5s-7.5 3.358-7.5 7.5v1c0 4.142 3.357 7.5 7.5 7.5z"/><path d="m494.5 416.535h-87.657l-23.912-89.828c-1.065-4.002-5.174-6.381-9.178-5.318-4.002 1.065-6.384 5.174-5.318 9.177l7.653 28.748h-38.573l-12.438-80.81c-.71-4.611-2.352-8.849-4.703-12.556h17.411c7.92 0 14.874 5.345 16.911 12.999l4.737 17.797c1.065 4.003 5.181 6.384 9.177 5.318 4.003-1.065 6.385-5.174 5.319-9.177l-4.738-17.798c-3.085-11.592-12.246-20.33-23.498-23.16 9.751-15.213 12.186-34.086 6.165-51.752-.75-2.201-2.479-3.93-4.68-4.68-21.889-7.458-45.634-1.944-61.97 14.391-3.552 3.553-6.638 7.544-9.19 11.852-3.022-3.109-6.578-5.696-10.527-7.596-.196-20.235-16.71-36.638-36.991-36.638s-36.795 16.403-36.991 36.638c-12.418 5.976-21.009 18.684-21.009 33.362 0 1.221.062 2.436.182 3.642-13.205 1.444-24.396 10.879-27.873 23.941l-37.652 141.447h-32.157c-4.143 0-7.5 3.358-7.5 7.5s3.357 7.5 7.5 7.5h421.5c1.379 0 2.5 1.122 2.5 2.5v18.035c0 1.378-1.121 2.5-2.5 2.5h-477c-1.379 0-2.5-1.122-2.5-2.5v-18.035c0-1.378 1.121-2.5 2.5-2.5h20.5c4.143 0 7.5-3.358 7.5-7.5s-3.357-7.5-7.5-7.5h-20.5c-9.649 0-17.5 7.851-17.5 17.5v18.035c0 9.649 7.851 17.5 17.5 17.5h51.176l18.857 28.059c6.048 9 16.132 14.372 26.975 14.372h282.984c10.843 0 20.927-5.373 26.974-14.371l18.858-28.059h51.176c9.649 0 17.5-7.851 17.5-17.5v-18.035c0-9.649-7.851-17.5-17.5-17.5zm-167.087-165.587h-20.4l33.05-33.05c.495 12.12-3.928 24.018-12.65 33.05zm-31.599-30.454c9.098-9.097 21.259-13.708 33.642-13.203l-43.076 43.076c.073-.95.12-1.903.12-2.862 0-3.441-.482-6.769-1.365-9.932 2.225-6.405 5.879-12.278 10.679-17.079zm-2.859 45.454c8.699 0 15.973 6.24 17.296 14.838l12.087 78.528h-34.476l-4.159-82.032c-.207-4.082-1.29-7.918-3.057-11.334zm-21.455-18.443c0 1.16-.113 2.307-.294 3.443h-26.867c.106-1.141.161-2.289.161-3.443 0-7.089-2.008-13.717-5.479-19.351 3.179-1.729 6.756-2.649 10.479-2.649 12.131 0 22 9.869 22 22zm1.343 111.808h-33.686l4.12-81.272c.344-6.781 5.933-12.093 12.723-12.093s12.378 5.312 12.722 12.093zm-44.343-166.808c10.77 0 19.751 7.781 21.632 18.016-.211-.004-.42-.016-.632-.016-7.626 0-14.886 2.295-21.017 6.548-5.967-4.125-13.196-6.548-20.983-6.548-.212 0-.421.013-.632.016 1.881-10.235 10.862-18.016 21.632-18.016zm-21 33c12.131 0 22 9.869 22 22 0 1.159-.091 2.309-.271 3.443h-43.457c-.181-1.134-.271-2.284-.271-3.443-.001-12.131 9.868-22 21.999-22zm23.854 40.443c-1.766 3.416-2.85 7.252-3.057 11.334l-4.159 82.032h-34.476l12.087-78.528c1.323-8.598 8.597-14.838 17.296-14.838zm-74.05 12.999c2.038-7.654 8.992-12.999 16.912-12.999h17.4c-2.349 3.706-3.984 7.947-4.693 12.556l-12.438 80.81h-38.573zm-36.624 137.588 11.239-42.222h248.163l11.239 42.222zm291.337 72.727c-3.257 4.845-8.686 7.738-14.524 7.738h-282.985c-5.839 0-11.269-2.893-14.525-7.738l-13.234-19.692h338.502z"/></g></g><g/><g/><g/><g/><g/><g/><g/><g/><g/><g/><g/><g/><g/><g/><g/></svg>