<svg id="Layer_1" height="512" viewBox="0 0 150 150" width="512" xmlns="http://www.w3.org/2000/svg" data-name="Layer 1"><path d="m28.365 89.573c-3.4 2.87-4.043 8.1-2.487 12.265s4.9 7.414 8.468 10.065 7.471 4.863 10.823 7.785a33.221 33.221 0 0 1 10.183 16.312c-9.169-1.087-18.352-3.53-26.052-8.624s-13.785-13.1-15.1-22.24 2.834-19.213 10.968-23.581" fill="#f5d8af"/><path d="m55.352 137a.945.945 0 0 1 -.118-.007c-10.83-1.284-19.5-4.156-26.489-8.782-8.6-5.687-14.259-14.045-15.537-22.932-1.449-10.078 3.274-20.2 11.485-24.6a1 1 0 1 1 .946 1.761c-7.367 3.956-11.762 13.444-10.452 22.559 1.18 8.2 6.66 16.256 14.661 21.549 6.4 4.234 14.3 6.946 24.113 8.272a32.368 32.368 0 0 0 -9.449-14.374 65.424 65.424 0 0 0 -6.555-4.809c-1.391-.936-2.831-1.9-4.208-2.926-4.606-3.422-7.405-6.764-8.808-10.518-1.845-4.936-.7-10.438 2.778-13.379a1 1 0 0 1 1.291 1.528c-2.847 2.406-3.75 6.992-2.2 11.152 1.262 3.376 3.844 6.43 8.128 9.611 1.339.994 2.758 1.949 4.131 2.871a67.2 67.2 0 0 1 6.753 4.962 34.359 34.359 0 0 1 10.492 16.808 1 1 0 0 1 -.962 1.254z" fill="#4d4d4d"/><path d="m64.839 107.611s-23.439 13.058-38.839-15.068l-5.34-2.964-2.028-1.126s-18.081-34.415 10.715-58.188 70.568-21.429 93.752 6.7 14.4 56.586-4.353 71.318c0 0-17.076 14.4-37.166 14.4 0 0-5.921 8.371-12.168 7.032s-13.949-8.706-9.261-15.4a29.02 29.02 0 0 1 3.586-4.327 8.922 8.922 0 0 0 2.643-6.848 16.58 16.58 0 0 1 3.032-10.589 78.165 78.165 0 0 1 12.168-12.731" fill="#f5d8af"/><path d="m79.435 109.113c-1.168-.418-2.357.462-3.351 1.2a21.877 21.877 0 0 1 -9.575 4.058 25.027 25.027 0 0 0 -4.031.745 4.79 4.79 0 0 0 -3.043 2.56c-1.113 6.332 2.831 10.171 9.864 12.487a5.2 5.2 0 0 0 4.6-2.963 17.65 17.65 0 0 0 1.512-5.555 12.111 12.111 0 0 1 1.916-5.4c.6-.787 1.363-1.427 2.03-2.154a4.775 4.775 0 0 0 1.372-2.569 2.273 2.273 0 0 0 -1.294-2.409z" fill="#f2f2f2"/><path d="m70.8 130.851a7.567 7.567 0 0 1 -1.6-.169c-3.915-.839-9.046-4.2-10.846-8.779a8.359 8.359 0 0 1 .985-8.172 32.742 32.742 0 0 1 3.175-3.938 10.3 10.3 0 0 0 2.853-7.3 17.5 17.5 0 0 1 3.233-10.545 78.449 78.449 0 0 1 11.906-12.541c-.331-2.4-1.152-11.347 4.22-15.937a1 1 0 0 1 1.3 1.522c-5.227 4.466-3.478 14.544-3.459 14.644a1 1 0 0 1 -.355.956 78 78 0 0 0 -12 12.536 15.292 15.292 0 0 0 -2.849 9.35 12.282 12.282 0 0 1 -3.415 8.7 30.871 30.871 0 0 0 -2.975 3.7 6.358 6.358 0 0 0 -.761 6.294c1.544 3.928 6 6.825 9.4 7.555 3.288.7 6.587-1.731 8.779-3.9a11.851 11.851 0 0 1 7.214-3.34c17.71-1.676 32.35-13.852 32.5-13.975a46.238 46.238 0 0 0 17.671-30.992c1.413-13.078-3.239-26.538-13.452-38.925a61.816 61.816 0 0 0 -44.062-22.446 68.582 68.582 0 0 0 -48.285 15.889c-25.563 21.105-13.47 50.6-10.786 56.3a1 1 0 0 1 -1.81.852c-2.794-5.931-15.381-36.647 11.319-58.69a70.529 70.529 0 0 1 49.7-16.346 63.79 63.79 0 0 1 45.471 23.172c10.564 12.81 15.37 26.785 13.9 40.411a48.219 48.219 0 0 1 -18.4 32.328c-.587.5-15.222 12.679-33.571 14.414a9.854 9.854 0 0 0 -6 2.772c-2.211 2.188-5.456 4.6-9 4.6z" fill="#4d4d4d"/><path d="m52.1 111.645a26.5 26.5 0 0 1 -7.328-1.019c-7.841-2.249-14.43-8.131-19.584-17.484a1 1 0 0 1 1.752-.965c4.882 8.859 11.058 14.416 18.358 16.519 10.1 2.911 18.973-1.911 19.061-1.961a1 1 0 0 1 .973 1.747 29.374 29.374 0 0 1 -13.232 3.163z" fill="#4d4d4d"/><path d="m53.659 64.232s18.713 3.051 18.715 24.6" fill="#f5d8af"/><path d="m72.374 89.829a1 1 0 0 1 -1-1c0-20.459-17.7-23.582-17.877-23.611a1 1 0 0 1 .323-1.974c.2.032 19.551 3.445 19.554 25.585a1 1 0 0 1 -1 1z" fill="#4d4d4d"/><path d="m98.02 109.869s-5.954 3.994-5.1 7.574 2.89 2.659 2.58 5.442c-.118 1.065-1.1 1.746-2.263 2.179-1.351.5-1.9 4.158.895 4.811 3.27.765 8.489-1.814 10.68-4.206 3.865-4.218 8.977-14.718 6.04-18.274s-12.832 2.474-12.832 2.474z" fill="#f5d8af"/><path d="m95.43 131.015a6.672 6.672 0 0 1 -1.526-.166 3.462 3.462 0 0 1 -2.769-3.3c-.086-1.344.488-2.953 1.752-3.423.7-.261 1.547-.707 1.618-1.354a1.5 1.5 0 0 0 -.609-1.644 6.286 6.286 0 0 1 -1.95-3.456c-.986-4.135 4.848-8.187 5.517-8.635a.375.375 0 0 1 .036-.024c1.089-.663 10.732-6.364 14.122-2.257 3.436 4.161-2.055 15.2-6.073 19.587-1.99 2.173-6.463 4.672-10.118 4.672zm3.13-20.3c-1.41.954-5.23 4.147-4.669 6.5a4.376 4.376 0 0 0 1.4 2.487 3.4 3.4 0 0 1 1.2 3.3c-.1.915-.688 2.179-2.908 3.007a1.745 1.745 0 0 0 -.45 1.476 1.472 1.472 0 0 0 1.224 1.424c2.716.634 7.615-1.618 9.715-3.908 3.959-4.322 8.335-14.141 6-16.962-1.722-2.103-7.972.519-11.512 2.672z" fill="#4d4d4d"/><path d="m79.159 85.007a3.465 3.465 0 0 0 -.947-2.411c-1.179-1.051-3.029-.5-4.454.18-2.689 1.287-7.183.773-8.276 6.877a13.377 13.377 0 0 0 .051 6.408c.448 2.2 3.813.985 5.181-.023 3.959-2.918 8.825-5.287 8.445-11.031z" fill="#f5d8af"/><g fill="#4d4d4d"><path d="m67.239 98.3a3.268 3.268 0 0 1 -1.178-.2 2.4 2.4 0 0 1 -1.508-1.836 14.077 14.077 0 0 1 -.121-6.427l.065-.357c.95-5.3 4.378-6.252 6.881-6.949a12.529 12.529 0 0 0 1.948-.653c2.408-1.153 4.275-1.161 5.551-.025a4.359 4.359 0 0 1 1.281 3.091c.361 5.483-3.618 8.245-7.128 10.682-.58.4-1.161.8-1.723 1.219a7.683 7.683 0 0 1 -4.068 1.455zm9.282-15.29a5.913 5.913 0 0 0 -2.331.669 13.867 13.867 0 0 1 -2.276.777c-2.427.676-4.72 1.315-5.448 5.376l-.066.363a12.15 12.15 0 0 0 .113 5.669c.054.266.157.325.267.367.722.283 2.419-.317 3.341-1 .577-.426 1.172-.839 1.768-1.253 3.374-2.342 6.56-4.554 6.272-8.908a2.492 2.492 0 0 0 -.614-1.73 1.5 1.5 0 0 0 -1.026-.332z"/><path d="m68.486 120.236a3.988 3.988 0 1 0 -4.433 6.566 3.988 3.988 0 1 0 4.433-6.566z"/><path d="m66.725 128.637a5.789 5.789 0 0 1 -3.231-1 4.984 4.984 0 1 1 5.552-8.225 5.231 5.231 0 0 1 1.742 7.163 4.828 4.828 0 0 1 -4.063 2.062zm-.918-8.24a2.829 2.829 0 0 0 -2.4 1.191 3.493 3.493 0 1 0 4.518-.523 3.807 3.807 0 0 0 -2.118-.665z"/><path d="m76.4 103.51h-2.891a1 1 0 0 1 0-2h2.891a1 1 0 0 1 0 2z"/><path d="m85.375 110.636.833 2.981"/><path d="m86.206 114.617a1 1 0 0 1 -.962-.732l-.832-2.98a1 1 0 0 1 1.926-.537l.832 2.98a1 1 0 0 1 -.964 1.269z"/></g></svg>