<svg height="512" viewBox="0 0 311.495 311.495" width="512" xmlns="http://www.w3.org/2000/svg"><circle cx="160.196" cy="166.28" fill="#d0df92" r="134.02"/><g fill="#740806"><path d="M61.542 109.994c3.99-5.717-1.511-16.22-3.073-15.874-1.563.346-1.697 7.144-1.871 8.379-.177 1.238-.553 2.103-1.037 2.802-.556.795-1.293 1.399-2.2 1.884-.902.481-1.963.817-3.01 1.024-2.095.422-7.613 1.249-7.784 2.838-.172 1.59 14.985 4.664 18.975-1.053zM60.875 116.057c-6.22-3.149-15.848 3.771-15.286 5.269.561 1.499 7.311.679 8.558.677 1.251.001 2.16.252 2.92.633.865.439 1.567 1.084 2.174 1.914.603.825 1.084 1.829 1.436 2.836.711 2.015 2.305 7.362 3.901 7.309 1.6-.051 2.518-15.489-3.703-18.638zM63.861 114.93c3.123 6.234 14.977 6.406 15.419 4.868.441-1.538-5.47-4.898-6.473-5.64-1.004-.746-1.585-1.489-1.969-2.248-.433-.868-.613-1.804-.607-2.832.007-1.022.218-2.115.535-3.134.628-2.042 2.532-7.287 1.218-8.195-1.316-.909-11.246 10.947-8.123 17.181z"/></g><g fill="#740806"><path d="m218.054 67.454 42-30.6s.6-9.9-10.1-8.6l-34.7 36.3s-.7 3 2.8 2.9zM212.154 57.054l15.4-20.5s-1.1-4.7-6-2.6l-11.1 22c0 .1-.1 1.4 1.7 1.1zM227.254 75.854l23.9-7.9s1.8-4.5-3.4-5.6l-21.8 11.5s-.7 1.9 1.3 2z"/></g><path d="M158.176 240.827c1.275 3.974 1.288 8.106.417 11.923-.652 2.872-1.782 5.595-3.259 8.134-2.22 3.808-5.218 7.217-8.768 10.105a41.304 41.304 0 0 1-12.189 6.857c-4.512 1.602-9.442 2.438-14.541 2.173a35.286 35.286 0 0 1-11.542-2.583c-5.728-2.332-11.198-6.312-15.961-11.98-4.772-5.675-8.874-13.012-12.146-22.231-2.48-6.992-4.489-15.077-5.938-24.406-.644-4.146-1.556-7.735-2.646-10.807-1.47-4.142-3.259-7.338-5.144-9.751-2.842-3.62-5.843-5.509-8.718-6.398a13.215 13.215 0 0 0-8.352.174 13.916 13.916 0 0 0-6.099 4.315c-1.646 2.02-2.833 4.561-3.275 7.663a7 7 0 0 1-13.863-1.955c.785-5.592 3.042-10.595 6.303-14.573a27.919 27.919 0 0 1 12.252-8.645 27.19 27.19 0 0 1 11.299-1.483c5.84.46 11.75 2.889 16.767 7.278 5.032 4.386 9.169 10.64 12.024 18.693 1.415 3.987 2.523 8.425 3.286 13.34 1.335 8.602 3.159 15.846 5.298 21.873 2.508 7.068 5.447 12.453 8.51 16.458 2.299 3.007 4.663 5.243 7.011 6.895 3.527 2.47 7.02 3.671 10.504 4.052 3.479.371 6.981-.121 10.29-1.295a27.303 27.303 0 0 0 7.247-3.905c3.246-2.432 5.736-5.492 7.045-8.346.661-1.427 1.037-2.788 1.161-4.005.124-1.223.015-2.293-.306-3.306a6.999 6.999 0 0 1 4.535-8.799 6.998 6.998 0 0 1 8.798 4.535z" fill="#fbb807"/><path d="M26.15 202.06c.785-5.592 3.042-10.595 6.303-14.573a27.919 27.919 0 0 1 12.252-8.645 27.19 27.19 0 0 1 11.299-1.483c5.84.459 11.75 2.889 16.767 7.278l.083.078c-3.502 3.077-6.655 6.546-9.454 10.338-1.889-1.611-3.801-2.615-5.662-3.19a13.215 13.215 0 0 0-8.352.174 13.916 13.916 0 0 0-6.099 4.315c-1.646 2.02-2.833 4.561-3.275 7.663a7 7 0 0 1-13.862-1.955z" fill="#fffcc8"/><path d="M53.819 177.27c.726 0 1.455.029 2.186.089 5.84.459 11.75 2.889 16.767 7.278 5.032 4.386 9.169 10.64 12.024 18.693 1.415 3.987 2.523 8.425 3.286 13.34 1.335 8.602 3.159 15.846 5.298 21.873 2.508 7.068 5.447 12.453 8.51 16.458 2.299 3.007 4.663 5.243 7.011 6.895 3.527 2.47 7.02 3.671 10.504 4.052.766.081 1.533.121 2.299.121 2.713 0 5.411-.501 7.991-1.416a27.303 27.303 0 0 0 7.247-3.905c3.246-2.432 5.736-5.492 7.045-8.346.661-1.427 1.037-2.788 1.161-4.005.124-1.223.015-2.293-.306-3.306a6.999 6.999 0 0 1 4.535-8.799 6.991 6.991 0 0 1 2.134-.335 7.004 7.004 0 0 1 6.666 4.87c1.275 3.974 1.288 8.106.417 11.923-.652 2.872-1.782 5.595-3.259 8.134-2.22 3.808-5.218 7.217-8.768 10.105a41.304 41.304 0 0 1-12.189 6.857c-3.958 1.404-8.239 2.222-12.672 2.222a35.286 35.286 0 0 1-13.411-2.632c-5.728-2.332-11.198-6.312-15.961-11.98-4.772-5.675-8.874-13.012-12.146-22.231-2.48-6.992-4.489-15.077-5.938-24.406-.644-4.146-1.556-7.735-2.646-10.807-1.47-4.142-3.259-7.338-5.144-9.751-2.842-3.62-5.843-5.509-8.718-6.398a13.472 13.472 0 0 0-3.924-.593c-1.521 0-3.007.266-4.428.767a13.916 13.916 0 0 0-6.099 4.315c-1.646 2.02-2.833 4.561-3.275 7.663a7 7 0 0 1-13.863-1.955c.785-5.592 3.042-10.595 6.303-14.573a27.919 27.919 0 0 1 12.252-8.645 27.229 27.229 0 0 1 9.111-1.572m0-3c-3.452 0-6.855.588-10.117 1.746a30.895 30.895 0 0 0-13.57 9.571c-3.708 4.524-6.113 10.077-6.952 16.056-.77 5.458 3.046 10.527 8.506 11.297.465.065.938.099 1.405.099 4.949 0 9.202-3.699 9.894-8.604.339-2.379 1.224-4.462 2.63-6.186a10.901 10.901 0 0 1 4.777-3.385 10.281 10.281 0 0 1 3.424-.594c1.014 0 2.041.155 3.052.463 2.667.825 5.037 2.587 7.231 5.381 1.843 2.359 3.418 5.356 4.676 8.902 1.08 3.044 1.924 6.497 2.508 10.263 1.436 9.237 3.479 17.632 6.076 24.949 3.295 9.284 7.561 17.076 12.678 23.159 4.961 5.905 10.724 10.223 17.126 12.829a38.24 38.24 0 0 0 14.542 2.853c4.597 0 9.198-.806 13.676-2.395a44.166 44.166 0 0 0 13.077-7.355c3.914-3.186 7.098-6.859 9.468-10.924 1.693-2.909 2.901-5.931 3.593-8.981 1.046-4.583.878-9.253-.486-13.503a9.968 9.968 0 0 0-9.522-6.953c-1.032 0-2.058.16-3.047.478-5.252 1.679-8.159 7.318-6.479 12.57.202.634.259 1.301.18 2.09-.095.929-.406 1.982-.898 3.044-1.166 2.542-3.395 5.164-6.122 7.207a24.388 24.388 0 0 1-6.451 3.479c-2.327.825-4.678 1.243-6.989 1.243-.664 0-1.33-.035-1.98-.104-3.24-.354-6.22-1.507-9.103-3.525-2.241-1.577-4.378-3.684-6.348-6.26-3.116-4.074-5.83-9.336-8.066-15.639-2.181-6.146-3.917-13.322-5.16-21.33-.776-4.998-1.928-9.669-3.424-13.883-2.971-8.379-7.304-15.092-12.88-19.952-5.381-4.708-11.781-7.479-18.502-8.008-.8-.065-1.616-.098-2.423-.098z" fill="#740806"/><g><path d="M215.981 180.093c-1.6-6.89-4.49-14.18-9.79-19.98.28.5 4.77 8.67 7.19 20.78 0 .1.1.2.1.4.7 3.5 1.2 7.2 1.4 11.3.32 5.05.47 10.92.47 16.5 0 10.01-.46 19.1-1.17 20.9-3 17.1-7.2 42.1-7.2 42.1 33.5 1.8 25.7 27.2 25.7 27.8h-55.9v-41.4c6.39-1 13.07-3.19 18.76-7.38-.79.34-14.8 6.35-33.06 5.28 0 0-2.37-.27-5.56-.74-3.19-.46-7.19-1.11-10.44-1.86-5.9-1.75-10.17-4.65-12.97-7.11s-4.13-4.49-4.13-4.49c1 6.4 7.4 11 12.8 13.3l-22.4 44.4h-47.9s-5.7-26 27.8-27.8l13.4-50.5c-.4-3.3-1.1-11.6-.3-21.6h.1c.45-9.4 2.63-17.5 4.69-23.25s4.01-9.15 4.01-9.15c-6.5 7.1-9.4 16.6-10.7 24.8-9.8 2.6-24.7 6.6-23 7.2 2.5.8 7.3-1 3.1 14.5 0 0 4.5 7.1 2.7 12.6-1.4 4.2-14.7 12.3-25.8 12.3-3.4 0-6.5-.7-9.1-2.5-18.4-12.9-8.2-30.1-8.5-30.3 0 0-1.5-31.1 32.6-45.3 20.1-8.4 49.1-14.3 52.5-14.3h.2c1.6.3 2.5 1.5 2.9 3.3 7-4 15.9-6.5 27-6.5 1.6 0 3.3.1 5 .2 0 0 5.5.1 12.8 2.9 2-3.6 7.3-6.6 17.6-8.1 33.5-5 46.9-30.1 46.9-30.1-6.8-6.5-5.5-10.9-3.9-13.1h.2c.1 0 .45-.03.97-.05.53-.02 1.23-.05 2.03-.05 2.4 0 5.9.2 9 .9 1.5.4 3 .9 4.1 1.5s2 1.4 2.5 2.3c.8 1.4 1 2.5 1 3.3 0 .7-.2 1.2-.5 1.7-.5.6-1.3 1.1-2.1 1.4-.4.1-.7.2-1 .3-.1 0-.2 0-.3.1h-.1c-.74.09-1.31.79-1.31 1.52 0 .06 0 .12.01.18.1.8.9 1.4 1.7 1.3.1 0 1.6-.2 3.2-1 .6-.3 1.3-.8 1.9-1.5.3.2.8.4 1.4.6 1.1.4 2.5.8 4.2.9 1.1 0 2.4-.2 3.5-.8 1.2-.6 2.2-1.6 3-3 .4-.7.2-1.6-.6-2s-1.6-.2-2 .6c-.6 1-1.2 1.5-1.8 1.9-.7.3-1.4.5-2.1.5-1.1 0-2.3-.3-3.1-.6-.4-.2-.8-.3-1-.5 0 0-.1 0-.1-.1.1-.4.1-.8.1-1.3 0-1.4-.4-3-1.4-4.7-.8-1.5-2.1-2.6-3.6-3.5-1.2-.6-2.4-1.1-3.8-1.5.1-.4.2-1 .5-1.6.4-.9 1.2-1.9 2.8-2.6.7-.4 1.1-1.3.7-2s-1.3-1.1-2-.7c-1.1.5-1.97 1.15-2.66 1.85s-1.19 1.45-1.54 2.15c-.4.8-.6 1.6-.7 2.2-.3 0-.5-.1-.8-.1-2.6-.4-5.1-.5-7-.5h-2c-.4-1.5-.5-3.8 1.6-5.9 4.3-4.2 9.9-5.9 15.5-5.9 10 0 19.7 5.3 21.1 10.6 14.9 57.3-49.9 83.2-67.4 89z" fill="#fbb807"/><g fill="#f28a1c"><path d="M284.481 92.38a3.18 3.18 0 0 0-.235-.615c.204.954.341 1.932.385 2.931.338 7.555-5.709 14.129-12.825 15.726 14.71 33.693-51.888 60.854-51.888 60.854s-7.7-13.6-14.3-12.3c1 1.6 1.9 3.3 2.8 5 4.2 5.4 6.6 11.8 8.1 17.9 17.501-5.799 83.063-31.796 67.963-89.496zM183.784 260.894l7.5-7.2c-4.6 2.5-9.7 3.9-14.6 4.7v41.4h21.5c-1.1-3.9-14.4-38.9-14.4-38.9z"/><path d="M164.63 253.668c-27.4 0-42.546-24.873-43.746-51.273-.2-5.4 3.9-28.9 8.1-44-12.4 1.5-23.1 26.4-23.1 26.4l-30.2 14.9s9.4 0 12.1 3.1-.7 13-.7 13 3.4 3.9.6 9.3c-2.9 5.3-16.3 9-22.7 9-8.2 0-15.4-10.3-17.3-17.8-.2 5.9 1.305 14.234 10.505 20.734 2.6 1.8 5.986 2.733 9.386 2.733 11.1 0 25.333-8.038 26.733-12.238 1.8-5.5-3.424-13.729-3.424-13.729 4.3-15.5.236-13.416-2.264-14.216-1.7-.5 12.923-3.549 22.723-6.149 1.3-8.2 3.302-18.118 9.802-25.218 0 0-7.46 12.682-8.36 31.482h-.1c-.7 10 0 18.3.3 21.6l-13.3 50.7c-33.5 1.8-27.8 27.8-27.8 27.8h13.6c-8-21 12.5-24.2 12.5-24.2l19.6-.2-8.8-3.3 9.1-23.9 24.201 8.503 1.099-3.803c6 1.9 19 3.4 19 3.4 13 .8 23.778-1.183 29.178-2.983 0 0 7.322-3.348 8.822-6.149-7.601 4.801-26.655 6.506-35.555 6.506z"/></g><path d="M142.884 170.894c-.2-23.5 12.2-27.8 25.8-27.8 16.5 0 33.4 27.3 32.2 66.1-.7 21.7-12.1 34.5-31.1 34s-28-13.5-27.3-29.2z" fill="#fffcc8"/><path d="M286.081 89.893c-1.8-7-12.8-12.8-24-12.8-7 0-13.1 2.3-17.6 6.7-2.9 2.8-3 6.2-2.5 8.6-1 1.2-2.1 2.9-2.4 5.4-.4 3.4 1.1 7 4.3 10.6-3.8 5.7-17.3 22.8-43.6 26.7-9 1.3-15 3.8-18.3 7.5-6.2-2.1-10.9-2.3-11.5-2.3-1.7-.1-3.5-.2-5.2-.2-9.7 0-18.3 1.8-25.7 5.4-1.2-1.5-2.7-2-3.7-2.2-.2 0-.5-.1-.8-.1-3.9 0-33.5 6.2-53.6 14.6-18.6 7.7-27 20.4-30.7 29.6-3.5 8.6-3.8 15.9-3.7 18v.1c-5.4 13.1-1.9 24.9 9.8 33.2 2.9 2 6.5 3.1 10.8 3.1 11.8 0 26.6-8.3 28.7-14.3 1.8-5.4-.9-11.4-2.3-14 1.8-6.9 1.9-11 .5-13.6 3.3-1 8.4-2.4 15.5-4.3-1.3 11.4-.5 21.3-.1 25.7l-12.7 47.9c-11 1-19 4.7-23.9 11-6.8 9-4.6 19.8-4.5 20.3l.5 2.4h52l.8-1.6 22.5-44.6c7.1 2 14.8 3 22.3 3 2.2 0 4.4-.1 6.6-.3v43.5h61.7l.2-2.6c.54-2.38.81-4.71.81-6.95 0-5.19-1.45-9.91-4.31-13.75-4.3-5.7-11.6-9.2-21.7-10.3 1.2-7.3 4.4-25.3 6.7-38.7 1.4-5.4 1.7-35.6-.2-47.6 8.4-2.8 27.6-10.2 43.9-23.3 10.6-8.5 18.2-18.1 22.7-28.4 5.7-12.8 6.5-26.7 2.7-41.4zm-70.1 90.2c-1.6-6.89-4.49-14.18-9.79-19.98.28.5 4.77 8.67 7.19 20.78 0 .1.1.2.1.4.7 3.5 1.2 7.2 1.4 11.3.32 5.05.47 10.92.47 16.5 0 10.01-.46 19.1-1.17 20.9-3 17.1-7.2 42.1-7.2 42.1 33.5 1.8 25.7 27.2 25.7 27.8h-55.9v-41.4c6.39-1 13.07-3.19 18.76-7.38-.79.34-14.8 6.35-33.06 5.28 0 0-2.37-.27-5.56-.74-3.19-.46-7.19-1.11-10.44-1.86-5.9-1.75-10.17-4.65-12.97-7.11s-4.13-4.49-4.13-4.49c1 6.4 7.4 11 12.8 13.3l-22.4 44.4h-47.9s-5.7-26 27.8-27.8l13.4-50.5c-.4-3.3-1.1-11.6-.3-21.6h.1c.45-9.4 2.63-17.5 4.69-23.25s4.01-9.15 4.01-9.15c-6.5 7.1-9.4 16.6-10.7 24.8-9.8 2.6-24.7 6.6-23 7.2 2.5.8 7.3-1 3.1 14.5 0 0 4.5 7.1 2.7 12.6-1.4 4.2-14.7 12.3-25.8 12.3-3.4 0-6.5-.7-9.1-2.5-18.4-12.9-8.2-30.1-8.5-30.3 0 0-1.5-31.1 32.6-45.3 20.1-8.4 49.1-14.3 52.5-14.3h.2c1.6.3 2.5 1.5 2.9 3.3 7-4 15.9-6.5 27-6.5 1.6 0 3.3.1 5 .2 0 0 5.5.1 12.8 2.9 2-3.6 7.3-6.6 17.6-8.1 33.5-5 46.9-30.1 46.9-30.1-6.8-6.5-5.5-10.9-3.9-13.1h.2c.1 0 .45-.03.97-.05.53-.02 1.23-.05 2.03-.05 2.4 0 5.9.2 9 .9 1.5.4 3 .9 4.1 1.5s2 1.4 2.5 2.3c.8 1.4 1 2.5 1 3.3 0 .7-.2 1.2-.5 1.7-.5.6-1.3 1.1-2.1 1.4-.4.1-.7.2-1 .3-.1 0-.2 0-.3.1h-.1c-.74.09-1.31.79-1.31 1.52 0 .06 0 .12.01.18.1.8.9 1.4 1.7 1.3.1 0 1.6-.2 3.2-1 .6-.3 1.3-.8 1.9-1.5.3.2.8.4 1.4.6 1.1.4 2.5.8 4.2.9 1.1 0 2.4-.2 3.5-.8 1.2-.6 2.2-1.6 3-3 .4-.7.2-1.6-.6-2s-1.6-.2-2 .6c-.6 1-1.2 1.5-1.8 1.9-.7.3-1.4.5-2.1.5-1.1 0-2.3-.3-3.1-.6-.4-.2-.8-.3-1-.5 0 0-.1 0-.1-.1.1-.4.1-.8.1-1.3 0-1.4-.4-3-1.4-4.7-.8-1.5-2.1-2.6-3.6-3.5-1.2-.6-2.4-1.1-3.8-1.5.1-.4.2-1 .5-1.6.4-.9 1.2-1.9 2.8-2.6.7-.4 1.1-1.3.7-2s-1.3-1.1-2-.7c-1.1.5-1.97 1.15-2.66 1.85s-1.19 1.45-1.54 2.15c-.4.8-.6 1.6-.7 2.2-.3 0-.5-.1-.8-.1-2.6-.4-5.1-.5-7-.5h-2c-.4-1.5-.5-3.8 1.6-5.9 4.3-4.2 9.9-5.9 15.5-5.9 10 0 19.7 5.3 21.1 10.6 14.9 57.3-49.9 83.2-67.4 89z" fill="#740806"/></g><g><path d="M94.128 91.083c-30.896-18.38-18.832-47.985-18.832-47.985l37.899 10.187c18.881-14.133 37.454-15.857 51.417-13.986l27.608-28.702s25.704 19.202 8.539 50.993c11.083 13.468 25.543 31.988 25.207 36.554-.256 3.481-2.395 4.654-5.12 3.827 1.539 3.479 2.252 7.06.956 10.016-1.261 2.873-3.332 3.478-5.402 2.348-6.827 19.162-43.415 43.299-43.415 43.299s-47.375 2.785-65.257-12.389c-1.232 1.269-3.041 1.401-5.18-.109-2.637-1.863-3.873-5.299-4.351-9.072-1.907 2.114-4.344 2.214-6.36-.636-1.899-2.684.259-26.06 2.291-44.345z" fill="#fbb807"/><path d="M106.868 110.288c-4.294-37.207 9.118-53.9 9.118-53.9s2.779-2.1 6.308-4.817l20.939 10.007s-5.437-12.31-12.621-16.51a2.1 2.1 0 0 0 .049-.039c-5.407 2.2-10.964 5.267-16.566 9.457l-.584.437-37.257-10.015a34.688 34.688 0 0 0-.659 2.379 40.854 40.854 0 0 0-1.119 9.446c.001 4.901.915 10.657 3.902 16.429 2.992 5.772 8.055 11.594 16.516 16.631l.831.494-.107.961c-.739 6.646-1.494 13.963-2.063 20.703-.415 4.905-.729 9.501-.87 13.301 1.837-4.541 5.855-9.975 14.183-14.964zM91.836 135.427l-.005-.008.005.008c1.008 1.425 2.121 2.112 3.221 2.179-1.1-.067-2.213-.754-3.221-2.179z" fill="#f28a1c"/><path d="M172.236 89.276s-11.573-20.335-21.761-17.503-4.499 26.366-4.499 26.366c-18.556 2.765-30.914 7.241-39.108 12.149-17.645 10.57-15.954 23.145-15.117 24.981.028.061.055.113.08.15l.005.008c1.008 1.425 2.121 2.112 3.221 2.179.412.025.823-.037 1.225-.18.67-.239 1.318-.703 1.914-1.363.478 3.773 1.714 7.209 4.351 9.072 2.139 1.511 3.948 1.378 5.18.109 21.757 18.932 65.257 12.389 65.257 12.389s29.333-10.928 43.415-43.299c2.07 1.129 4.141.524 5.402-2.348 1.297-2.957.583-6.537-.956-10.016 2.725.827 4.864-.346 5.12-3.827.545-7.382-16.164-24.118-53.729-8.867z" fill="#fffcc8"/><path d="M104.459 111.822s-4.555 5.825-4.001 10.48c.78 6.548 7.136 1.716 7.136 1.716-4.089 17.23 6.852 14.003 6.852 14.003 24.139 20.296 56.955 15.244 56.955 15.244s23.371-9.086 44.293-37.39c-14.329 31.167-42.708 41.758-42.708 41.758s-43.5 6.543-65.257-12.389c-1.232 1.269-3.041 1.401-5.18-.109-2.637-1.863-3.873-5.299-4.351-9.072-1.907 2.114-4.344 2.214-6.361-.636-.743-1.049-3.013-13.008 12.622-23.605z" fill="#e5ba97"/><path d="M95.976 86.624s2.077-13.156 8.391-23.05L77.855 51.635s-4.395 23.86 18.121 34.989zM194.745 20.545c3.009 4.477 13.289 20.052 1.701 38.151 0 0-5.634-7.221-11.357-11.821z" fill="#fffcc8"/><path d="M153.721 58.385s7.396-12.322 4.125-19.983l-8.561.037c2.63 5.465 4.436 19.946 4.436 19.946z" fill="#f28a1c"/><path d="m224.453 97.777-.001-.012-.037-.207-.003-.012-.003-.012c-.108-.523-.409-1.34-.884-2.319-.474-.983-1.119-2.139-1.899-3.418-1.561-2.562-3.663-5.62-6.058-8.899-4.791-6.562-10.753-14.019-15.967-20.355l-.641-.779.479-.887c4.191-7.767 5.725-14.672 5.727-20.69 0-8.864-3.349-15.872-6.78-20.741-2.354-3.341-4.743-5.652-6.051-6.804l-27.169 28.246-.753-.101a68.132 68.132 0 0 0-9.047-.608c-7.53.004-15.92 1.278-24.706 4.852l-.049.039c7.185 4.199 12.621 16.51 12.621 16.51l-20.939-10.007c-3.529 2.717-6.308 4.817-6.308 4.817s-13.413 16.692-9.118 53.9c-8.328 4.989-12.346 10.423-14.182 14.965a106.426 106.426 0 0 0-.083 3.905c0 1.13.026 2.128.081 2.963.053.833.138 1.506.236 1.95.06.285.132.471.151.504.439.618.865 1.013 1.226 1.238.368.227.658.298.94.3.253-.001.519-.063.832-.227.311-.163.661-.434 1.015-.827l2.191-2.429.411 3.245c.225 1.784.63 3.45 1.247 4.829.619 1.384 1.432 2.465 2.481 3.206.891.63 1.587.825 2.054.822a1.49 1.49 0 0 0 .621-.127c.187-.083.373-.21.564-.406l1.036-1.067 1.076 1.027c5.572 5.331 13.41 8.636 21.743 10.569 8.327 1.937 17.117 2.509 24.506 2.508 9.186 0 16.191-.877 17.516-1.055a100.402 100.402 0 0 0 3.07-1.678 133.739 133.739 0 0 0 8.285-5.139c6.625-4.444 14.884-10.841 21.383-18.549 4.336-5.137 7.88-10.848 9.697-16.914l.531-1.772 1.624.886c.47.256.868.352 1.188.351.356-.006.644-.094 1.002-.372.352-.279.758-.787 1.12-1.613.373-.852.547-1.784.548-2.808.004-1.81-.569-3.897-1.502-5.999l-1.323-2.991 3.13.949c.436.132.823.189 1.145.189.316 0 .568-.052.775-.137.207-.086.375-.201.539-.377.32-.346.644-1.014.73-2.176l.001-.029c0-.041-.004-.118-.016-.216z" fill="none"/><path d="M227.434 97.445h.001l-.002-.011-.001-.013h-.001a4.764 4.764 0 0 0-.088-.51h.001l-.003-.013-.002-.011h-.001c-.198-.907-.582-1.877-1.111-2.978-.936-1.935-2.342-4.255-4.076-6.855-5.04-7.552-12.865-17.44-19.602-25.651 4.048-7.797 5.62-14.925 5.618-21.218 0-9.793-3.767-17.498-7.503-22.717-3.741-5.226-7.463-8.011-7.545-8.075l-1.061-.792-28.009 29.119a70.785 70.785 0 0 0-8.682-.544c-12.539-.006-27.445 3.425-42.467 14.475L74.407 41.305l-.5 1.226c-.043.114-2.427 5.966-2.431 14.202-.001 5.269.987 11.528 4.238 17.808 3.144 6.081 8.421 12.147 16.819 17.321-.707 6.409-1.421 13.374-1.967 19.837-.573 6.783-.962 12.994-.963 17.458 0 1.672.054 3.099.182 4.255.065.58.147 1.092.265 1.556.124.465.258.883.562 1.324.62.876 1.312 1.571 2.093 2.061.777.49 1.655.76 2.531.758a4.686 4.686 0 0 0 1.91-.425c.258 1.125.591 2.218 1.047 3.24.777 1.743 1.901 3.311 3.489 4.433 1.239.875 2.51 1.369 3.785 1.372a4.517 4.517 0 0 0 1.835-.383c.111-.049.208-.122.314-.179 6.05 5.356 13.99 8.567 22.212 10.481 8.651 2.01 17.642 2.584 25.185 2.585 10.463-.001 18.139-1.112 18.188-1.119l.24-.035.217-.109c.054-.029 9.079-4.556 19.105-12.306 5.013-3.877 10.278-8.561 14.797-13.916 4.172-4.948 7.697-10.48 9.774-16.494.32.065.643.111.972.111a4.566 4.566 0 0 0 2.872-1.026c.835-.667 1.491-1.601 1.998-2.754.563-1.283.801-2.647.801-4.014-.003-1.641-.339-3.29-.873-4.912a4.77 4.77 0 0 0 1.232-.299c.913-.367 1.701-1.058 2.222-1.946.527-.89.815-1.953.905-3.166v-.002l.009-.247a4.873 4.873 0 0 0-.038-.556zm-2.964.588c-.086 1.162-.409 1.831-.73 2.176a1.46 1.46 0 0 1-.539.377 2.053 2.053 0 0 1-.775.137c-.322 0-.709-.057-1.145-.189l-3.13-.949 1.323 2.991c.933 2.101 1.506 4.189 1.502 5.999-.001 1.024-.175 1.957-.548 2.808-.362.826-.768 1.334-1.12 1.613-.358.277-.646.366-1.002.372-.32 0-.718-.095-1.188-.351l-1.624-.886-.531 1.772c-1.817 6.066-5.361 11.777-9.697 16.914-6.499 7.708-14.758 14.105-21.383 18.549a134.229 134.229 0 0 1-8.285 5.139 100.402 100.402 0 0 1-3.07 1.678c-1.325.178-8.331 1.055-17.516 1.055-7.388.001-16.178-.571-24.506-2.508-8.333-1.933-16.171-5.238-21.743-10.569l-1.076-1.027-1.036 1.067a1.808 1.808 0 0 1-.564.406 1.506 1.506 0 0 1-.621.127c-.467.003-1.162-.192-2.054-.822-1.049-.741-1.862-1.822-2.481-3.206-.618-1.379-1.022-3.046-1.247-4.829l-.411-3.245-2.191 2.429c-.354.393-.704.664-1.015.827a1.766 1.766 0 0 1-.832.227c-.281-.002-.572-.073-.94-.3-.361-.225-.787-.62-1.226-1.238a2.483 2.483 0 0 1-.151-.504c-.097-.444-.182-1.117-.236-1.95a46.934 46.934 0 0 1-.081-2.963c0-1.168.03-2.485.083-3.905.141-3.8.455-8.396.87-13.301.57-6.74 1.325-14.058 2.063-20.703l.107-.961-.831-.494c-8.461-5.038-13.524-10.86-16.516-16.631-2.988-5.772-3.902-11.528-3.902-16.429 0-3.825.56-7.121 1.119-9.446.235-.981.468-1.776.659-2.379l37.257 10.014.584-.437c5.601-4.19 11.158-7.257 16.566-9.457 8.786-3.574 17.176-4.848 24.706-4.852 3.183 0 6.211.228 9.047.608l.753.101 27.169-28.246c1.308 1.152 3.697 3.463 6.051 6.804 3.431 4.869 6.78 11.877 6.78 20.741-.002 6.018-1.536 12.924-5.727 20.69l-.479.887.641.779c5.215 6.336 11.176 13.793 15.967 20.355 2.395 3.28 4.497 6.338 6.058 8.899.78 1.28 1.424 2.436 1.899 3.418.475.979.776 1.796.884 2.319l.003.012.003.012.037.207.001.012.001.011c.012.098.017.175.016.216z" fill="#740806"/><path d="M151.03 42.155s2.1-.486 3.587.429c1.329.817 2.939 4.466-1.105 5.998-5.184 1.963-16.833-.953-17.19-6.28.484-.508 15.092-18.063 19.844-12.039 1.657 2.101 1.309 5.129-.015 7.264-1.798 2.897-5.121 4.628-5.121 4.628z" fill="#fbb807"/><path d="M142.557 47.989c3.436 1.207 7.547 1.57 10.302.805.228-.063.445-.135.652-.213 4.044-1.531 2.434-5.181 1.105-5.998-1.487-.915-3.587-.429-3.587-.429s3.323-1.731 5.12-4.629c1.324-2.134 1.671-5.163.015-7.264-1.014-1.285-2.476-1.497-4.153-1.031-6.188 1.72-15.218 13.403-15.599 13.803 0 0-2.757.532-2.83-.549l-.08-1.204.832-.873.158-.183c4.692-5.397 11.412-12.144 16.785-13.638 3.914-1.088 6.092.771 7.043 1.976 2.56 3.245 1.925 7.566.162 10.409-.455.733-.978 1.4-1.525 1.997 1.153 1.155 2.038 3.028 1.844 5.059-.218 2.297-1.792 4.164-4.318 5.12-.282.107-.582.204-.89.29-3.58.995-11.214-2.519-11.036-3.448z" fill="#740806"/><path d="M174.683 55.467c5.674.854 11.279 6.622 13.607 14.676 2.289 7.923.712 15.651-3.471 19.473-1.069.977-2.301 1.712-3.692 2.114a9.028 9.028 0 0 1-1.288.272c-6.504.884-13.591-5.38-16.288-14.708a27.897 27.897 0 0 1-.391-1.55c-.639-2.813-.788-5.569-.522-8.104 4.104-3.972 8.14-8.009 12.045-12.173zM140.783 74.618c2.308 2.464 4.185 5.67 5.292 9.392.186.627.346 1.254.481 1.878 1.079 4.994.53 9.853-1.283 13.654-1.631 3.421-4.286 5.986-7.717 7.008-2.57.764-5.246.55-7.788-.426-5.097-1.955-9.647-7.025-11.661-13.797-2.08-6.993-.917-13.958 2.533-18.366 6.696.52 13.409.783 20.143.657z" fill="#fff"/><path d="m191.834 127.139-3.208-18.535s4.236-8.371 4.441-10.345a8.046 8.046 0 0 0-.348-3.374 8.12 8.12 0 0 0-1.14-2.195c3.175-1.245 5.802-3.027 4.871-3.805-5.75 2.3-10.121 2.689-12.121 2.728-1.068.021-1.421 1.461-.468 1.947.849.432 2.219.551 3.748.285l.084-.017.09.112c.76.709 1.189 1.404 1.426 2.103.189.573.252 1.175.186 1.839-.069.658-.275 1.388-.628 2.165-.706 1.555-2.025 3.294-3.858 4.995-1.999 1.871-4.602 3.694-7.596 5.313-8.318 3.087-9.594-6.643-11.739-6.116-2.28.559 3.451 11.042-9.982 12.582-4.114.472-8.042.565-11.284.189-2.165-.251-4.02-.704-5.401-1.317-.784-.351-2.708-2.096-2.888-2.62-.192-.605-.23-1.351.057-2.385.034-.118.053-.236.063-.355 1.365-.754 2.377-1.687 2.816-2.567.539-1.081-.75-2.152-1.735-1.452a30.273 30.273 0 0 1-3.493 2.115c-.172.056-.33.144-.478.247-2.21 1.117-5.156 2.335-8.87 3.311-.347 1.43 3.808 1.157 7.802-.053-.014.797.089 1.57.329 2.297.397 1.204 1.136 2.244 2.071 3.07.927.829 3.567.65 3.294 1.967-6.067 29.209 24.127 30.088 41.517 21.189 10.143-5.19 12.442-13.318 12.442-13.318z" fill="#740806"/><path d="M171.673 131.226a6.098 6.098 0 0 0-.996-.75c-2.901-1.77-9.063-.816-13.718 4.422-1.05-.084-2.405.108-3.809.601-2.766.968-4.668 2.722-4.25 3.917.374 1.067 2.473 1.326 4.888.68.071-.019.161-.043.267-.074l.21-.063.251-.082.148-.049.103-.038.037-.015c.193-.07.381-.144.565-.222.088-.036.177-.073.27-.114l.041-.019c1.129-.502 2.542-1.308 3.793-2.562.892.394 2.686 1.921 3.782 2.778.266.208.537.428.815.669 4.217 2.951 12.365-4.586 7.603-9.079z" fill="#e93e8f"/><path d="M125.805 91.744c-1.883-7.341.707-14.326 5.789-15.598 5.08-1.272 10.725 3.647 12.61 10.99.116.453.215.905.297 1.355.661 3.593.256 7.014-.967 9.627-1.101 2.352-2.863 4.049-5.121 4.615-1.69.423-3.441.147-5.098-.662-3.319-1.622-6.253-5.429-7.51-10.327z" fill="#bccf00"/><path d="M129.031 90.936c-1.223-4.767.459-9.302 3.759-10.127 3.298-.826 6.963 2.368 8.188 7.135.076.294.14.588.193.88.429 2.333.167 4.555-.628 6.251-.714 1.526-1.859 2.628-3.325 2.997-1.098.274-2.234.096-3.31-.43-2.156-1.054-4.061-3.526-4.877-6.706z" fill="#740806"/><path d="M132.508 80.864c.179.324.332.665.424 1.041a4.296 4.296 0 0 1-3.147 5.196 4.224 4.224 0 0 1-1.124.105 4.296 4.296 0 0 1-3.354-1.722 4.294 4.294 0 0 1 2.402-6.718l.026-.01c1.929-.472 3.858.448 4.773 2.108z" fill="#fff"/><path d="M168.11 79.794c-1.883-7.341.707-14.326 5.789-15.598 5.08-1.272 10.725 3.647 12.61 10.99.116.453.215.905.297 1.355.661 3.593.256 7.014-.967 9.627-1.101 2.352-2.863 4.049-5.121 4.615-1.69.423-3.441.147-5.097-.662-3.32-1.623-6.254-5.43-7.511-10.327z" fill="#bccf00"/><path d="M171.336 78.985c-1.223-4.766.459-9.302 3.759-10.127 3.298-.826 6.963 2.368 8.188 7.135.076.294.14.588.193.88.429 2.333.166 4.555-.628 6.251-.715 1.526-1.859 2.628-3.325 2.997-1.098.274-2.234.096-3.31-.43-2.155-1.054-4.061-3.526-4.877-6.706z" fill="#740806"/><path d="M174.813 68.913c.179.324.332.665.424 1.041a4.295 4.295 0 0 1-3.147 5.196 4.264 4.264 0 0 1-1.124.106 4.291 4.291 0 0 1-3.353-1.723 4.293 4.293 0 0 1 2.402-6.718l.025-.01c1.929-.472 3.858.449 4.773 2.108z" fill="#fff"/><path d="M144.128 77.599c.592-.174 1.043-.388 1.311-.651l.146-.14c2.518-3.458 1.67-10.463-.898-11.936-2.347-1.347-4.197 4.903-4.499 5.992l-.048.176s-16.615.397-24.036 1.312c-.822.102-1.537.209-2.098.323-5.627 1.146-1.516 3.674-1.516 3.674s.831.106 2.212.266l.305.035c-1.194 4.13-1.211 9.001.244 13.894 1.072 3.601 2.805 6.759 4.941 9.299 2.71 3.221 6.073 5.44 9.576 6.281-5.097-1.955-9.647-7.025-11.661-13.797-1.643-5.526-1.253-11.025.684-15.265 7.406.764 19.333 1.738 24.46.742a24.55 24.55 0 0 1 2.824 6.205c.186.627.346 1.254.481 1.878a26.746 26.746 0 0 0-2.428-8.288zM189.618 67.876c-1.835-6.346-5.566-11.357-9.83-13.937a342.067 342.067 0 0 0 2.534-3.263c.846-1.104 1.348-1.775 1.348-1.775s1.043-4.712-3.694-1.467a28.11 28.11 0 0 0-1.692 1.283c-5.819 4.695-17.661 16.355-17.661 16.355l-.16-.087c-.992-.541-6.769-3.559-7.434-.936-.728 2.87 3.715 8.352 7.951 8.948l.202-.008c.339-.009.755-.155 1.229-.407.175.98.399 1.969.685 2.961l.065.201a26.32 26.32 0 0 1-.524-3.291c3.584-2.086 10.277-9.929 15.154-16.001 4.519 2.097 8.6 7.12 10.5 13.691 2.289 7.923.712 15.651-3.471 19.473 2.024-1.415 3.583-3.593 4.593-6.26 1.628-4.297 1.836-9.84.205-15.48z" fill="#740806"/><path d="M163.306 94.392c29.057-8.077 10.665 10.337 3.432 12.348-7.232 2.01-32.489-4.271-3.432-12.348z" fill="#e93e8f"/><path d="M168.067 96.402c.586-.502 1.458-.954 2.482-1.239 1.32-.367 2.568-.364 3.366-.06.446.17.754.434.851.782.27.971-1.181 2.222-3.24 2.794-2.059.573-3.948.25-4.217-.721-.136-.489.165-1.048.758-1.556z" fill="#fff"/><g fill="#e93e8f"><path d="M112.182 110.198c-.558-1.692 3.028-4.396 8.01-6.041 4.983-1.644 9.475-1.604 10.033.088s-3.028 4.396-8.011 6.041c-4.983 1.643-9.474 1.603-10.032-.088zM186.49 86.277c-.558-1.692 3.028-4.396 8.01-6.04 4.983-1.644 9.475-1.604 10.033.088.558 1.691-3.028 4.396-8.012 6.04-4.981 1.643-9.473 1.603-10.031-.088z"/></g></g></svg>