<svg xmlns="http://www.w3.org/2000/svg" xml:space="preserve" width="512" height="512"><path fill="#2D2D39" d="M304.7 422.9c.8 3.6 3.4 6.3 7.1 7.5 1.1.3 25.3 7.8 51.8-7.5 34.1-20.1 30.7-41.2 27.8-59.8-1.6-9.8-3.1-19 .7-27.4.6-1.2 1.5-2.5 2.3-3.5 3.3-4 3.1-10-.3-14-4-4.5-10.9-4.9-15.4-1-13.7 10.9-11.4 27.4-9.1 43.2 1.9 13.2 3.7 25.5-4 33.5-22.6 22.7-46.3 15.9-47.3 15.7-3.8-1.3-7.4-.5-10.1 2-3 2.8-4.4 7.3-3.5 11.3zm2.8-.6c-.7-2.9.4-6.5 2.7-8.6.3-.3.7-.7 1.2-1 1.4-.8 3.4-1.3 6.1-.5 1.1.3 26.4 7.5 50.2-16.4 8.7-9 6.7-22.7 4.9-36-2.2-15-4.3-30.6 8.1-40.6 3.3-2.9 8.3-2.5 11.3.8 2.5 2.9 2.7 7.2.3 10.2-1 1.2-2 2.5-2.7 4.1-4.1 9.2-2.6 18.8-1 29.1 2.9 18.5 6 37.8-26.4 56.7-25.4 14.7-48.5 7.5-49.4 7.2-3.6-.8-4.9-3.1-5.3-5z"/><path fill="#9D706B" d="M392.4 319.6c-1.5-1.7-3.6-2.7-5.9-2.9-2.3-.2-4.5.6-6.1 2.1-12.8 10.3-10.4 26.7-8.3 41.1v.3c1.8 13.1 3.7 26.6-4.8 35.3-22.7 22.8-46.9 17-49.6 16.3-2.4-.8-4.6-.6-6.5.5-.4.2-.9.6-1.3 1-2.4 2.2-3.6 6-2.8 8.8.2 1.3 1.2 4.5 5.5 5.7.2.1 24 7.8 49.9-7.2 32.7-19.2 29.6-38.5 26.7-57.3-1.6-10.1-3.1-19.6 1-28.8.7-1.6 1.7-2.9 2.6-4 2.4-3.2 2.3-7.8-.4-10.9z"/><path fill="#FDE7CF" d="M339.7 245.6c-3-2.7-5-4.4-5.3-4.7l-159.27 13.251c-2 1.1-47.578 27.261-40.478 57.261 5.2 24.3 27.448 24.989 35.748 24.989.1 0-1.1 1.3-1 1.3-1 11.1-1.1 21.8.3 31.3 1.3 8.9 4.5 17.8 9 26.3l5.8 69.2c-2.6.3-5.3 1-7.4 2.3-6.8 4.2-8.2 10.8-8.3 15.2-.2 4.3 3.3 8.1 7.6 8.3 6.8.4 16.5.8 25.5.8 7.4 0 14.4-1.6 19-2.4 14.6-2.5 16.6-8.3 18.9-16.9 1.3-5 3.4-18.7 5.2-28.5 1.527.151 13.752 3.677 33.068.014L287.2 464.2c-13.8 3.3-18 11.9-18.2 17.9-.2 4.3 5 6.6 9.3 6.8 6.7.3 15 .9 24 .9 7.5 0 13.9-.1 18.5-.9 14.7-2.6 16.6-9.8 18.9-18.4 2.3-8.5.3-38.3.4-38.7l-.7-11.2c-1.9-35.8-7.8-75.8-8.5-81.6 4.4-.9 9.7-2 13-3 8.4-2.5 13.9-6 19-13.3 4.2-5.8 6.8-11.7 6.9-18.9.4-23.9-19.6-48.4-30.1-58.2z"/><path fill="#9D706B" d="m185.522 464.716-1.739-13.391-.209-3.453c9.4-2.5 16.627-3.371 23.727-3.471 5.5 18.4 5.3 38.6-17.4 45.1-8.8-.4-15.9-1.1-15.9-1.1s-6.5-4.3-2.5-12.7c3.799-8.501 14.021-10.985 14.021-10.985z"/><path fill="#FDE7CF" d="M191.3 410.1s.7 1 1.8 2.8c-.7-.9-1.2-1.9-1.8-2.8z"/><path fill="#8A5D58" d="M207.3 444.4c24.2-.6 35.4 9.9 35.4 9.9-1.7 9.5-1.8 16.4-3.5 21.3-4.6 12.7-11.6 12.1-21.2 13.6-6.9 1-21 1.6-30.5 1 22.6-6.4 25.3-27.4 19.8-45.8z"/><path fill="#9D706B" d="M270.8 295.6c20.8 2.3 30.3 3.4 30.3 3.4s.9 11.2 3.4 22.2c-11.8 2-26.8 2.1-46-.4 0 0 1.1 3.1 5.5 6.5-6.5-4.1-10.9-9.4-11-16.3.2-.2-3.1-17.7 17.8-15.4zM210.8 283.5c-7.5 1.3-22.6 9.4-35.4 8.2 0 0-6 12.9-8.2 25.1 19.503 1.188 49.095-18.147 58.127-24.453-3.302-11.558-14.131-8.91-14.527-8.847zM341.7 454.3c-.4 2.6-.8 5.1-1.1 7.3.1-2.5.1-5.3.1-8.2.7.6 1 .9 1 .9zM286.628 463.888 281.9 451.1l-1.03-2.819c12.6-3.4 24.03-4.381 32.53-3.781-2.6 19.8-7.7 36.3-16.6 45.2-12-.3-23.7-1.4-23.7-1.4s-6.4-4.3-2.5-12.7c3.8-8.4 16.028-11.712 16.028-11.712z"/><path fill="#8A5D58" d="M340.7 453.4c0 2.8 0 5.5-.1 8.2-.8 5.8-1.2 10.5-2.4 14-4.6 12.7-11.6 12.1-21.3 13.6-5.1.8-15.7.7-23.2.5 8.9-8.9 17-25.4 19.7-45.2 15.7 1 24.5 6.7 27.3 8.9z"/><path fill="#E0BCA2" d="M340.7 453.4c0-5.621-.386-52.055-9.004-114.162-5.3 1-12.322 1.926-19.522 1.826 3.1 32.6 5.326 72.836 1.226 103.436 15.6 1.1 24.4 6.7 27.3 8.9z"/><path fill="#FFFAF5" d="M227.8 323.2c24.9-5.2 51.1 19.5 56.4 45 5.3 25.5-10.5 50.3-35.4 55.4s-49.4-11.1-54.7-36.6c-5.2-25.4 8.9-58.7 33.7-63.8z"/><path fill="#2D2D39" d="M243.7 441.5c-.2 1-.4 2.1-.6 3.2-1.8 9.8-4.1 22.3-5.4 27.4-2.2 8-4.5 13.1-17.6 15.3-10.4 1.7-34.4.7-44.2.3-7.427-.512-5.453-10.276-1.936-15.052 3.874-5.262 10.847-7.848 18.436-7.848-10.417-1.603-17.216 1.32-20.911 6.514-5.221 7.338-4.706 18.572 4.211 18.987 6.8.4 16.5.8 25.5.8 7.5 0 14.7-.3 19.3-1.1 14.6-2.5 17.4-8.7 19.7-17.3 1.3-5 3.7-17.8 5.5-27.6.3-1.1.4-2.2.6-3.2-.8-.101-1.7-.201-2.6-.401zM341.1 428.5l-3.7-13c-.6 1.5 3 47.9.7 56.5-2.2 8.1-4.5 13.2-17.6 15.4-10.4 1.7-34.4.9-44.2.3-3-.2-5.3-2.6-5.2-5.6.846-16.506 21.4-19.102 21.4-19.102-2.061 0-22.976-.1-24.1 19.002-.2 4.3 3.3 8.1 7.6 8.3 6.8.4 16.5.8 25.5.8 7.5 0 14.7-.3 19.3-1.1 14.6-2.5 17.4-8.7 19.7-17.3 2.4-8.4.5-43.8.6-44.2z"/><path fill="#2D2D39" d="m187.4 464.8-3.5.9-6-71 3.3-.4zM288.5 463.8l-2.9.8-9.3-21.1 3.3-.8zM338 429l3.096-.353c-1.8-40.4-7.496-88.547-7.496-89.047l-2.9.3c0 .4 5.5 48.7 7.3 89.1zM320.2 300.2l-2.2-1.9c2.5-3 8.6-11 8.6-11 0 .5-3.5 9.5-6.4 12.9zM173.2 291.6c-2.9-3.3-6.4-12.5-6.5-12.8 0 0 6.2 8 8.6 11l-2.1 1.8z"/><path fill="#8A5D58" d="M304.6 321.1c1.9 7.9 4.5 15.8 8.4 18.6 0 0-31.4-1.8-48.7-12.6h-.1c-4.4-3.4-5.5-6.5-5.5-6.5 19 2.6 34.1 2.4 45.9.5z"/><path fill="#E0BCA2" d="M304.5 321.1c56.2-9.1 39.3-59.1 39.3-59.1l5-3.9c36.1 37.2 15.1 64.3 15.1 64.3-31 30.9-74.4 17.9-94.9 7.6-1.9-.9-3.3-1.9-4.6-2.9 17.3 10.8 48.7 12.6 48.7 12.6-4-2.9-6.8-10.6-8.6-18.6z"/><path fill="#2D2D39" d="M261.6 293.7c4-.9 18.1.9 31.7 2.5 9.4 1.1 18.3 2.2 21.5 2.1 7.4-.2 18.8-5.4 18.8-5.4-2.1 3.2-10.7 8-18.8 8.3-3.4.1-12-1-21.9-2.2-12.1-1.4-27.2-3.3-30.7-2.5-2.2.4-6.1 3.6-7.2 8.8-1.5 7.3 1.9 17.5 13.1 22.7 22.24 10.292 46.757 14.021 69.766 8.179 10.64-2.701 29.907-10.527 30.334-33.379.6-29-35.8-59.2-36.1-59.5l2.1-2.5c1.5 1.3 37.9 31.5 37.4 62-.34 24.502-22.052 33.27-33.254 36.195-31.912 8.334-58.662-2.818-70.785-8.359-10.648-4.867-14.275-13.956-14.391-14.224-2.182-5.035-1.661-9.238-1.071-12.013C253.5 298.7 258 294.6 261.6 293.7z"/><path fill="#8A5D58" d="M225.4 291.6c2 6.9.2 16.3-8.4 24.5-17.34 16.443-42.538 18.324-48.563 18.324-2.5-4.2-2.437-10.924-1.237-17.624 19.8 1.1 49.7-19.2 58.2-25.2z"/><path fill="#E0BCA2" d="M167.2 316.8c-1.2 6.7-1.177 13.424 1.323 17.624-1.952 0-13.281 2.159-23.828-6.904-4.3-3.6-7.624-11.026-9.024-17.326-2.4-11.2 4.228-22.394 12.328-31.394-4.494 10.489-.129 37.121 19.201 38z"/><path fill="#2D2D39" d="M226.9 291.1c-2.064-5.609-5.236-7.852-8.596-8.513-4.814-.947-7.187.685-30.343 5.931-3.996.905-9.618 2.906-25.761-1.918 1.055 1.155 9.427 8.387 26.542 4.564 18.902-4.222 24.077-7.095 28.778-6.135 2.669.545 5.121 2.404 6.88 6.971.254.508 4.455 10.219-10.2 24.2-9.774 9.189-22.269 14.959-34.513 17.076-4.167.721-23.138 3.677-34.487-6.076-4.3-3.7-7.5-10.6-8.8-17-2.4-11.2 3.8-22.3 11.8-31.3 11.5-13 27.2-22.2 27.4-22.3l-1.7-2.9c-1 .6-11.5 6.6-21.7 16.1-11.5 10.5-22.5 25.3-18.9 40.9 1.788 8.388 5.525 14.164 9.997 18.132 5.732 5.086 16.98 11.063 36.96 7.256 13.63-2.597 26.363-8.8 35.843-17.888 3.292-3.292 14.63-13.697 10.8-27.1z"/><path fill="#E0BCA2" d="m241.5 453.4 1.9-10.4c-11.8-3-38-11.5-50.6-30.2 3.3 5.4 10.6 18.1 14.5 31.6 20-.4 30.9 6.5 34.2 9z"/><g fill="#2D2D39"><path d="M177.67 289.913c4.9-18.6 10.13-32.813 10.53-34.113l3.1 1.1c-.1.3-5.185 14.418-10.185 33.118l-3.445-.105zM172 336.8c-1.2 11.1-1.4 22 .1 31.4 3.6 23.1 20.1 47.1 41.8 60.9 21.92 13.844 38.478 15.4 72.4 13.2-32.873 6.486-52.76 2.837-74.1-10.5-22.8-14.7-39.5-38.8-43.2-63.3-1.4-9.5-1.3-20.2-.3-31.3l3.3-.4z"/></g><g><path fill="#FDE7CF" d="M366.6 198.6c-.966-13.53-5.356-33.029-9.5-44.2-2.068-8.74-4.8-19.982-4.8-20.6 2.088-4.873 6.368-18.375 7.7-26.1 0-1.653 4.482-17.961.6-33.1-3.861-14.865-11.775-31.714-18.7-42.1-.1-.2-.2-.3-.2-.3-.155.155-.454.426-5.1 4.7-8.184 5.208-18.276 13.445-27.9 23.8-8.714 9.489-10.685 13.495-15.2 19.3-1.855-.428 2.029.339-31-6-33.199 2.418-29.664 2.162-31.6 2.3-19.9-34.801-31.813-43.845-42.3-52.9l-.1-.1c-.1.1-.628.928-1.2 1.5-7.919 9.586-17.077 24.717-22.4 38.3-3.869 10.005-4.126 22.159-3.3 32.9 0 6.689 4.439 26.586 4.701 26.801l-.029 2.502L159.1 142.6c-5.579 10.972-11.91 29.202-14.5 42.8-.191.668-1.563 8.486-2 14.6-.1.9-.1 1.9-.2 2.8-.883 20.026 4.017 38.149 20.9 49.1 19.1 12.5 37.7 19.9 52.8 24.4 18.7 5.6 32 6.5 34 6.6 2 .1 15.3.7 34.6-2.6 15.5-2.7 34.9-7.9 55.3-18.1 17.719-8.785 25.316-26.576 26.5-46.4 1.166-1.457.359-15.125.1-17.2z"/><path fill="#9D706B" d="M315.1 141.2c-13.5-6.8-29.4-6.8-41-5.4-5 .6-10 .8-15 .5s-10-1.1-14.9-2.3c-11.3-2.8-27.1-4.6-41.3.6-25.6 9.4-47.2 56.3-21.2 88.5 18.4 23 41.1 26.6 56.5 26.6 4.7 0 9.5.2 14.2.5s9.5.7 14.2 1.2c15.3 1.7 38.3.8 59.2-19.9 29.6-29 13.6-78-10.7-90.3z"/><path fill="#E0BCA2" d="m293.7 80.2 11.3 4.7c11.2-30.5 28.9-43.2 28.9-43.2l.7.1c-9.6-5.5-40.9 38.4-40.9 38.4z"/><path fill="#F6B0A6" d="m352.6 51.6-10.9-18.2-3.8 4.2-14 17.8S316 72 315.8 72.5c-.1.4-.7 11.2-.7 11.2l5.1 2.7 9.1-5 4.9 1.3-1 15.7s3.2 4.8 3.4 5c.4.3 5.159-3.691 5.159-3.691-1.8 19.2 15.541 19.491 15.541 19.491l4-17.1.2-21.5-8.9-29z"/><ellipse transform="rotate(-19.015 312.6 201.719)" fill="#F6B0A6" cx="312.589" cy="201.711" rx="16.499" ry="9.8"/><path fill="#2D2D39" d="m342.2 30-1.4.9c-35.7 24.2-48 48.1-48.5 49.1l3.3 1.7c.1-.2 12.1-23.4 45.9-46.7 5.6 7.9 31.9 49.4 9.8 95.8-.4.6-.7 1.4-1 2.2.3 1 .6 2.1.8 3.3l1.2.7c.2-.5.5-.9.7-1.3 28.6-54.8-9.2-103.7-9.7-104.2l-1.1-1.5z"/><path fill="#2D2D39" d="M335.772 100.273c-.486-2.028-.133-5.865.028-8.673.4-5.4.7-10.1-2.4-11.2-2-.7-4.4.3-7.2 1.6-4.4 1.8-7.3 2.8-8.9.6-3.2-4.7 6.5-27.7 25.9-48.9l-3.048-1.962C321.352 52.338 309 77.2 314.1 84.6c3.4 4.8 9.1 2.5 13.2.7 1.6-.7 3.7-1.6 4.6-1.4.5 1 .2 5 0 7.4-.4 5.2-.8 10.2 1.6 12.6 6.107 6.107 11.141-10.755 11.3-11.3-2.131 3.729-5.195 7.127-7.043 8.387-1.098.749-1.62.807-1.985-.714zM406.3 176.7c-19.9-.1-40.7 4.8-60.4 14.4 0 0 14.6-3.7 30.3-7.3 11.1-2.6 30.1-7.1 30.1-7.1zM415.1 197.3c-19.6-3.3-41-1.7-61.9 4.7 0 0 15-1.4 31-2.4 11.5-.8 30.9-2.3 30.9-2.3zM409.5 224c-18.1-8.1-39.3-11.9-61.1-11 0 0 14.9 2.4 30.7 5.4 11.2 2.2 30.4 5.6 30.4 5.6z"/><path fill="#FFFAF5" d="M211 82.9h.1c45.762-6.429 71.757-1.826 101.8 6-51.378-28.967-100.444-6.486-101.9-6z"/><path fill="#E0BCA2" d="M195 33.6h.7s16.1 14.7 23.7 46.3l11.8-3.3c-.1 0-26.1-47.3-36.2-43zM251.5 266.1c-48.555-2.255-86.715-25.455-107.3-43.1l-.1-.1c2.5 11.6 8.4 22 19.6 29.4 19.4 12.7 38.3 20.2 53.5 24.6h.1c18.3 5.3 31.3 6.3 33.3 6.4 2 .1 15 .7 33.8-2.5h.1c15.6-2.7 35.3-7.9 56-18.2 11.8-6 18.9-15.7 22.6-26.8-10.315 6.447-52.944 34.308-111.6 30.3z"/><path fill="#F6B0A6" d="m163.5 69.2-2.3 21.4 2 17.4s18.063 1.516 18.463-17.784c0 0 3.537 4.684 3.937 4.484.3-.2 4-4.6 4-4.6l.9-15.7 5-.7 8.5 6 5.4-2.1s.7-10.8.6-11.2c-.1-.5-6-17.9-6-17.9l-11.9-19.3-3.3-4.6-13 16.8-12.3 27.8z"/><ellipse transform="rotate(-64.304 198.179 195.006)" fill="#F6B0A6" cx="198.179" cy="195.004" rx="9.8" ry="16.5"/><path fill="#2D2D39" d="M187.5 22.4c-.5.5-43.7 44.6-21.7 102.4.1.4.4.9.6 1.4l1.3-.5c.4-1.2.8-2.2 1.2-3.2-.2-.8-.5-1.6-.8-2.3-16.6-48.7 14.4-86.8 20.9-94 30.9 27.1 40 51.6 40.1 51.8l3.4-1.3c-.4-1.1-9.9-26.3-42.6-54.5l-1.2-1.1-1.2 1.3z"/><path fill="#2D2D39" d="M178.8 82.9c.096.561 3.081 17.789 10 12.6 2.6-2.1 2.8-7.1 3.1-12.4.1-2.4.2-6.3.8-7.3.9 0 2.9 1.1 4.4 2 3.9 2.2 9.3 5.2 13.2.8 5.9-6.8-3.435-33.023-19.735-55.623L187.4 24.7c16.8 23.3 23.8 47.3 20 51.6-1.8 2-4.6.7-8.7-1.6-2.6-1.6-4.9-2.8-7-2.4-3.3.7-3.5 5.4-3.7 10.8-.082 2.869-.231 6.814-.999 8.749-.387.977-.647 1.247-1.696.533-2.376-1.617-5.59-7.468-6.505-9.482zM286.2 205.1c-2.359 11.323-7.387 17.779-15.8 17.4-5.5-.3-10.6-3.5-13.3-8.4-.2-.4-.4-.8-.6-1.1 5.8-2.4 12.9-5.9 14.2-9.5.3-.9.3-1.7-.1-2.5-1.7-3-9.1-4.5-15-4.9-5.9-.3-13.5.3-15.5 3.1-.5.7-.7 1.6-.4 2.5.9 3.9 8.4 8.5 13 11.1-.2.4-.5.7-.7 1.1-3.3 4.6-8.8 7.2-14.2 6.8-11.755-.84-13.069-13.952-13.7-19l-8.8 4 6 .2c.6 4.4 3.6 17.3 16.2 18.1h.1c6.5.3 13-2.8 16.8-8.1 3.3 5.7 9.3 9.6 15.8 10h.1c12.6.7 17.1-11.8 18.2-16.1l6 .5-8.3-5.2zM253.1 237c-4.4-.3-8.6-1.9-12.6-4.4 4.9 9.7 19.6 10.6 25.6 1.5-4.2 2-8.6 3-13 2.9zM312.9 88.9c-19.304-12.622-37.295-16.631-51.508-17.232-18.143-.766-34.003 3.676-50.492 11.332h.1c23.391-4.98 34.28-7.993 50.261-7.154 13.707.72 27.739 5.392 51.639 13.054zM108.1 159.3c19.7 2.2 39.9 9.5 58.3 21.4 0 0-14.1-5.4-29.2-10.8-10.8-3.9-29.1-10.6-29.1-10.6zM96.9 178.7c19.8-1 40.9 3.1 60.9 11.9 0 0-14.7-3.1-30.5-6-11.3-2.1-30.4-5.9-30.4-5.9zM99.4 205.9c19-5.9 40.4-7.2 62-3.8 0 0-15 .7-31.1 1.8-11.4.8-30.9 2-30.9 2z"/><path fill="#3D3D44" d="M266.9 200.5c0-.6-2.9-1.3-7.1-1.8-1.3-.2-2.8-.3-4.4-.4-1.5-.1-3-.1-4.4-.1-4.2 0-7.2.4-7.3 1-.1.9 5 1.9 11.5 2.3 6.5.3 11.7-.1 11.7-1z"/><path fill="#2D2D39" d="M353 135.4c-.6-1.6-1.1-3.2-1.7-4.7-2.6-6.9-4.6-11.4-5-12.4.2.7 1.7 6.1 4 14.4.3 1 .6 2.1.8 3.3 2.6 10 6 23.2 9 37 3.7 17 6.1 35.6 4 52.1-3.4 26-27.1 39.4-48.1 46-7.4 2.4-14.5 4.5-20.3 6.3-29.3 6.3-55.7 3.1-74.2-1.5-10.2-2.5-19.1-5.7-26.3-8.6-2.7-1.2-5.4-2.4-8.2-3.7-20.1-9-42.1-25-42.4-51.3-.3-16.6 4.3-34.8 10-51.2 4.7-13.4 9.5-26.1 13.3-35.7.4-1.2.8-2.2 1.2-3.2 3.2-8 5.4-13.2 5.6-13.9-.5.9-3 5.1-6.4 11.7-.8 1.4-1.5 2.9-2.3 4.4-10.1 20.5-25.5 56.6-25.1 87.9.4 25.3 19.1 41.5 38.2 51.5 7.1 4 21.6 11.1 41.3 16 8.9 2.2 19.5 4.1 31.2 4.8 20.7 1.2 45.3-1.3 71.2-11.9 20.5-7.6 41.7-21.6 45-47.1 3.9-31-7.2-68.6-14.8-90.2z"/><g><path fill="#EF8484" d="M297.6 156.5c6.1-7.9 22.2-3.2 20.9 11-1.4 14.1-22.9 22.9-22.9 22.9s-20.3-11.4-20-25.6c.2-14.2 16.8-17 22-8.3z"/><path fill="#E86969" d="M276 161.3c.1 1.7.6 3.3 1.3 4.8 6.6 16.2 30.7 17.9 39.4 2.8.8-1.4 1.5-3 1.9-4.6.1 1 .1 2 0 3.1-1.4 14.1-22.9 22.9-22.9 22.9s-20.3-11.4-20-25.6c-.1-1.1 0-2.3.3-3.4z"/><path fill="#F49A9A" d="M297.6 156.5c5.2-6.8 17.8-4.3 20.4 5.4-4.1-8.1-15.5-9.7-20.6-3.2-4.2-7.1-15.7-6.9-20.7.5 3.8-9.1 16.5-10.1 20.9-2.7z"/><path fill="#F49A9A" d="M311.5 154.8c1.7 1 2.5 2.7 1.8 3.8s-2.7 1.4-4.4.4-2.5-2.7-1.8-3.8c.7-1.2 2.7-1.3 4.4-.4zM292.1 153c1.7 1 2.5 2.7 1.8 3.8s-2.7 1.4-4.4.4c-1.7-1-2.5-2.7-1.8-3.8.8-1.2 2.7-1.4 4.4-.4z"/><g><path fill="#EF8484" d="M218.5 151.9c6.1-7.9 22.2-3.2 20.9 11-1.4 14.1-22.9 22.9-22.9 22.9s-20.3-11.4-20-25.6c.3-14.2 16.9-17 22-8.3z"/><path fill="#E86969" d="M196.9 156.7c.1 1.7.6 3.3 1.3 4.8 6.6 16.2 30.7 17.9 39.4 2.8.8-1.4 1.5-3 1.9-4.6.1 1 .1 2 0 3.1-1.4 14.1-22.9 22.9-22.9 22.9s-20.3-11.4-20-25.6c-.1-1.2.1-2.3.3-3.4z"/><path fill="#F49A9A" d="M218.5 151.9c5.2-6.8 17.8-4.3 20.4 5.4-4.1-8.1-15.5-9.7-20.6-3.2-4.2-7.1-15.7-6.9-20.7.5 3.8-9.1 16.5-10.1 20.9-2.7z"/><path fill="#F49A9A" d="M232.5 150.2c1.7 1 2.5 2.7 1.8 3.8s-2.7 1.4-4.4.4-2.5-2.7-1.8-3.8c.7-1.2 2.7-1.4 4.4-.4zM213.1 148.4c1.7 1 2.5 2.7 1.8 3.8s-2.7 1.4-4.4.4-2.5-2.7-1.8-3.8c.7-1.2 2.7-1.4 4.4-.4z"/><g fill="#2D2D39"><path d="M310.9 152.3c-4.8-1.9-10-1-13.2 2.1-2.9-3.6-7.9-5-13-3.7-4.9 1.4-10.2 5.8-10.4 14.2-.3 14.9 20.5 26.6 20.7 26.7l.6.3.5-.3h.1c3.7-1.6 22.2-10.2 23.5-24 .7-8.4-4.1-13.4-8.8-15.3zm6.1 15.1c-1.1 11.4-16.6 19.4-21.6 21.7l-.1-.1c-12.2-7.9-18.8-16.5-18.6-24.1.1-6.9 4.5-10.6 8.5-11.7 1.2-.3 2.5-.5 3.7-.4 3.2.2 5.9 1.7 7.4 4.3l.9 1.7 1.1-1.5c1.8-2.4 4.7-3.6 8-3.3 1 0 2 .3 3.5.8 4 1.6 7.9 5.7 7.2 12.6zM231.8 147.7c-4.8-1.9-10-1-13.2 2.1-2.9-3.6-7.9-5-13-3.7-4.9 1.4-10.2 5.8-10.4 14.2-.3 14.9 20.5 26.6 20.7 26.7l.6.3.5-.3h.1c3.7-1.6 22.2-10.2 23.5-24 .7-8.4-4-13.4-8.8-15.3zm6.2 15.1c-1.1 11.4-16.6 19.4-21.6 21.7l-.1-.1c-12.2-7.9-18.8-16.5-18.6-24.1.1-6.9 4.5-10.6 8.5-11.7 1.2-.3 2.5-.5 3.7-.4 3.2.2 5.9 1.7 7.4 4.3l.9 1.7 1.1-1.5c1.8-2.4 4.7-3.6 8-3.3 1 0 2 .3 3.5.8 3.9 1.6 7.8 5.7 7.2 12.6z"/></g></g></g></g></svg>