<svg xmlns="http://www.w3.org/2000/svg" xml:space="preserve" width="512" height="512"><path fill="#2D2D39" d="M168.4 423.3c-40.4-.3-48.2-20.6-55.1-38.6-3.6-9.4-7-18.2-14.6-23.8-1.2-.9-2.5-1.4-3.8-2-5-2-7.9-7.2-6.9-12.5 1.2-6 7.1-9.9 13-8.7 17.7 2.6 24 18.3 30.1 33.5 5 12.5 9.8 24.4 20.7 27.6 31.5 8.6 49.1-9.5 49.8-10.3 2.7-3.1 6.2-4.3 9.9-3.4 4.1.9 7.6 4.1 8.9 8.2 1.1 3.6.2 7.3-2.5 10.3-.7.6-18.2 19.7-49.5 19.7zm35.3-32.9c-.8.9-19.5 20.2-52.7 11.1-12.3-3.5-17.6-16.7-22.7-29.4-5.8-14.4-11.8-29.2-27.8-31.6-4.4-.9-8.7 2-9.6 6.4-.8 3.8 1.3 7.7 5 9.2 1.5.5 3.1 1.2 4.5 2.3 8.4 6.1 11.9 15.4 15.7 25.2 6.9 17.9 14 36.4 52.3 36.7 29.9 0 46.7-18.1 47.4-18.9 2.6-2.7 2.4-5.5 1.9-7.3-1-2.9-3.7-5.6-6.8-6.2-.4-.1-1-.2-1.6-.2-1.7 0-3.6.7-5.6 2.7z"/><path fill="#9D706B" d="M203.7 390.4c-.8.9-19.5 20.2-52.7 11.1-12.3-3.5-17.6-16.7-22.7-29.4-5.8-14.4-11.8-29.2-27.8-31.6-4.4-.9-8.7 2-9.6 6.4-.8 3.8 1.3 7.7 5 9.2 1.5.5 3.1 1.2 4.5 2.3 8.4 6.1 11.9 15.4 15.7 25.2 6.9 17.9 14 36.4 52.3 36.7 29.9 0 46.7-18.1 47.4-18.9 2.6-2.7 2.4-5.5 1.9-7.3-1-2.9-3.7-5.6-6.8-6.2-.4-.1-1-.2-1.6-.2-1.7 0-3.6.7-5.6 2.7z"/><g fill="#FDE7CF"><path d="M187.8 273.8c.9-.3 1.4-.4 1.4-.5h5.8c-.6 0-3.2.3-7.2.5zM335.3 315.8c-.006-.034-.015-.067-.022-.101.011.07.019.127.022.159v-.058z"/><path d="M335.9 466.6h-.1l.1-.5c.1-.6.2-1.2.3-1.9.9-5.9 4-26.1 5.2-37.4 1.7-16.3 1.8-34.2.4-53.1-.6-9.7-1.6-19.7-2.8-29.5l-.1-1.1c-1-8.1-2.1-16.1-3.3-23.7 0-.5-.1-1.1-.2-1.6-.1-.7-.2-1.4-.3-1.9-.4-1.7-.6-3.2-.8-4.4.196 1.174.676 2.637.978 4.199-.558-3.687-11.119-58.611-14.978-56.199l-125.1 14c-.1.1-11 10.6-14.3 30-1.9 10.5-3.5 34.2-5.7 50.9-.6 6.5-1.2 13.1-1.7 19.6-1.5 18.8-1.3 36.7.4 53.1 1.2 11.3 4.2 31.5 5.2 37.4.1.7.2 1.4.3 1.9v.5c-18.1 1.2-22.3 10.6-22.5 17.9-.1 3.2 2.4 5.9 5.6 6 5.9.4 16.6.8 26.6.8 7.6 0 14.9-.3 19.6-1.1 13.9-2.4 16.3-7.8 18.6-16.3 2.2-8.1 15.3-41.5 17.9-48l.1-.2h-.2c-3.5-.5-7-1.2-10.5-2.2-11.5-3.2-19.2-9.5-22.4-12.4 5.5 3.5 22.7 13.2 45 13.2h.8c22.3 0 39.5-9.7 45-13.2-3.2 2.9-10.9 9.2-22.4 12.4-3.4.9-7 1.7-10.5 2.2h-.2l.1.2c2.6 6.5 15.7 39.9 17.9 48 2.3 8.6 4.7 13.9 18.6 16.3 10.9 1.8 36 .8 46.3.3 3.2-.1 5.7-2.8 5.6-6-.3-7.6-4.4-17-22.5-18.2z"/><path d="M335.3 315.858v.042c.003.003.003-.013 0-.042z"/></g><path fill="#9D706B" d="M306.3 491c-13.9-2.4-16.3-7.7-18.6-16.3-1.9-6.9-11.6-32-16-43.4 27.3-10.1 63.2-8.3 69.8-7.9l-.3 3.6c-1.2 11.3-4.3 31.5-5.2 37.4-.1.7-.2 1.3-.3 1.9l-.1.5h.1c18.1 1.2 22.2 10.6 22.5 18.2.1 3.2-2.4 5.9-5.6 6-10.4.7-35.5 1.7-46.3 0zM208.3 491c13.9-2.4 16.3-7.7 18.6-16.3 1.9-6.9 11.6-32 16-43.4-27.3-10.1-63.2-8.3-69.8-7.9l.3 3.6c1.2 11.3 4.3 31.5 5.2 37.4.1.7.2 1.3.3 1.9l.1.5h-.1c-18.1 1.2-22.2 10.6-22.5 18.2-.1 3.2 2.4 5.9 5.6 6 10.3.7 35.4 1.7 46.3 0z"/><path fill="#E0BCA2" d="M257.5 418.3c-28.3.1-48.9-9.9-49.1-9.9 0 0 9.1 9.7 25 14 7 1.9 15 3.2 23.7 3.2h.8c8.9 0 16.8-1.3 23.7-3.2 15.9-4.3 25-14 25-14-.2.1-20.8 10-49.1 9.9z"/><path fill="#8A5D58" d="M206.6 481.8c-12.7 4.3-47.443 6.616-46.643-7.084-2.3 3.2-3.422 7.365-3.522 10.565-.1 3.2 2.757 6.219 5.957 6.319 10.3.5 35.809 1.1 46.709-.7 13.9-2.4 16.3-7.7 18.6-16.3 2.2-8.1 10.6-27.5 13.2-34.2l4.8-14.2c-.201.1-25.701 51.1-39.101 55.6zM308.8 481.8c12.7 4.3 47 7.2 46.2-6.5 2.3 3.2 3.1 6.7 3.2 9.9.1 3.2-2.4 5.9-5.6 6-10.3.5-35.4 1.5-46.3-.3-13.9-2.4-16.3-7.7-18.6-16.3-2.2-8.1-10.6-27.5-13.2-34.2l-4.8-14.2c.1.1 25.7 51.1 39.1 55.6z"/><path fill="#2D2D39" d="M341.3 373.7c1.3 16.5 1.5 34.8-.4 53.1-.838 7.995-2.603 20.514-4.016 29.828C336.381 459.949 335 468.685 335 469c.672-2.353 1.725-4.194 3.752-12.265.92-3.664 1.703-7.383 2.348-11.135 6.8-36 3.8-73.9-.2-100.9-.3-1.7-.5-3.5-.9-5.1-1.2-7.3-2.4-13.6-3.6-18.9-.4-1.9-.8-3.5-1.1-5-1.2-5.2-2.1-8.5-2.3-9.1.1.5.7 3.8 1.5 9.3.2 1.1.3 2.3.5 3.5 1 6.2 2.1 14.3 3.3 23.7 0 .3.1.8.1 1.1 1.1 8.9 2.1 19 2.9 29.5z"/><path fill="#2D2D39" d="M266.7 425.6c.2.4 16.2 40.8 18.6 49.7 2.4 8.9 5.3 15.5 20.6 18 4.9.9 12.3 1.1 20.2 1.1 9.5 0 19.5-.4 26.6-.8 4.6-.2 8.1-4.1 8-8.6-.577-20.482-24.525-20.7-24.964-20.7-.1 1.1-.336 2-.436 2.7 2.131 0 21.904.588 22.6 18 .1 3.1-2.3 5.7-5.3 5.8-10.3.5-35.4 1.5-46.2-.3-13.8-2.3-16.2-7.6-18.4-16-2.4-8.9-18-48.3-18.7-50l-2.6 1.1zM248.2 425.6c-.2.4-16.2 40.8-18.6 49.7-2.4 8.9-5.3 15.5-20.6 18-4.9.9-12.3 1.1-20.2 1.1-9.5 0-19.5-.4-26.6-.8-4.6-.2-8.1-4.1-8-8.6.577-20.482 24.561-20.7 25-20.7.1 1.1.3 2 .4 2.7-2.131 0-21.904.588-22.6 18-.1 3.1 2.3 5.7 5.3 5.8 10.3.5 35.4 1.5 46.2-.3 13.8-2.3 16.2-7.6 18.4-16 2.4-8.9 18-48.3 18.7-50l2.6 1.1z"/><path fill="#2D2D39" d="M257.5 424.6c-27 .2-46.8-14.2-47-14.4 0 0 8.7 9.7 24 14 8.945 2.575 25.829 5.72 46 0 15.3-4.3 24-14 24-14-.2.2-19.9 14.5-47 14.4zM173.7 373.7c-1.3 16.5-1.5 34.8.4 53.1 1.651 15.758 5.9 41.694 5.9 42.2-.495-1.731-3.671-9.268-6.1-23.4-6.8-36-3.8-73.9.2-100.9 5.498-31.154 7.789-37.768 7.9-38.1-1.085 5.426-5.4 36.095-5.4 37.6-1 8.9-2.1 19-2.9 29.5z"/><path fill="#FFFAF5" d="M204.7 365.3c0 25.3 23.7 45.8 52.8 45.8s52.8-20.5 52.8-45.8-23.7-54.2-52.8-54.2c-29.1 0-52.8 28.9-52.8 54.2z"/><path fill="#FDE7CF" d="m320.5 318.1 49.5 2.4 3.2-5-.5-10.1-10.4-25.8-14.8-18.6-7.2-6.8-19.6-12.3s-21.2-2.6-21.2-2.5l.9 11.7 27.5 39.7-7.4 27.3z"/><path fill="#2C2E39" d="m345.3 331.6-.2 2.7h1.2c5.9 0 17.9-2.8 24.1-12.4 6-9.2 4.8-21.6-3.5-36.7-21-38.4-49.2-45.4-50.4-45.7l-.7 2.6c.3.1 28.4 7.1 48.7 44.4 7.7 14.2 8.9 25.6 3.6 33.9-6 9.3-18.3 11.5-22.8 11.2zM415.3 322.2c2.2-.5 3.6-2.7 3.1-4.9s-2.7-3.6-4.9-3.1-3.6 2.7-3.1 4.9 2.7 3.6 4.9 3.1zM404.8 323.3c2.2-.5 3.6-2.7 3.1-4.9s-2.7-3.6-4.9-3.1-3.6 2.7-3.1 4.9 2.7 3.6 4.9 3.1zM407.652 288.619c2.319-.527 3.795-2.846 3.268-5.271-.527-2.319-2.846-3.795-5.271-3.268-2.425.527-3.795 2.846-3.268 5.271.527 2.32 2.846 3.795 5.271 3.268zM397.8 291.9c2.2-.5 3.6-2.7 3.1-5-.5-2.2-2.7-3.6-5-3.1-2.2.5-3.6 2.7-3.1 5 .5 2.2 2.7 3.6 5 3.1z"/><path fill="#5E84C2" d="m273.399 319.593 5.496 24.837 99.395-24.83-4.59-20.4z"/><path fill="#64A7E2" d="M378.29 319.6c0 .2 11.062-2.083 17.662.117 1.055.373 2.473.504 4.148.483 8.638-.11 23.5-4.6 23.5-4.6.6-11.3-2-22.7-7.3-32.6 0 0-21.7 3.5-26.7 8.3-4.9 4.8-15.96 7.9-15.96 7.9l4.65 20.4zM200.586 403.337a62.561 62.561 0 0 0 11.208-4.503c11.608-5.904 23.917-26.019 39.028-25.018 15.111 1.001 26.319-5.404 26.319-5.404 10.503-6.175 12.231-18.016 11.86-27.012-.252-6.106-1.864-15.326-5.1-23-3.498-8.296-10.161-18.238-22.371-19.337 0 0-12.809-1.001-26.119 6.304-13.209 7.405-33.023-5.504-46.033-5.904-2.802-.1-7.205 0-12.109.801-16.212 4.803-33.324 19.014-22.416 59.142 7.406 41.129 29.021 46.533 45.733 43.931z"/><g fill="#2D2D39"><path d="M423.8 298.8c-1.703-7.467-4.011-12.47-6.7-17.4-3.241.54-2.608.468-5.2.9-2.118-3.812-5.861-3.208-6.4-3.1-2.4.6-4.2 2.6-4.5 5-1.4-1.4-3.4-2.1-5.4-1.6-2.7.6-4.5 3-4.5 5.7-1.2.6-2.1 1.3-2.8 2-4.4 4.3-14.1 7.4-15 7.7l-88.7 18.5c-3.8-8.3-10.9-17.9-23.2-18.9-.6 0-13.5-1-27.1 6.6-7.8 4.3-18.2 1-28.4-2.2-6-1.9-11.7-3.7-16.7-3.9-2.9-.1-7.4 0-12.4.8h-.2c-9.8 2.9-17.1 8.3-21.7 15.9-5.9 9.8-7 23.3-3.3 40 .4 1.7.8 3.5 1.3 5.3.3 1.6.6 3.2 1 4.8 3.8 16.9 10.5 28.7 20.1 35.2 2.024 1.367 16.784 11.636 38.2.5 4.4-2.2 8.8-6.3 13.4-10.6 7.8-7.3 15.8-14.8 24.7-14.2 15.5 1 26.8-5.4 27.3-5.7 10.7-6.3 12.9-17.9 12.8-27.1l87.9-21.8c1-.1 11.1-1.5 16.8.5.9.3 2.1.5 3.5.6 1.2 2.2 3.7 3.4 6.3 2.9 2-.4 3.5-1.9 4.2-3.8 1.3 2 3.7 3.1 6.2 2.6 2.5-.6 4.3-2.7 4.5-5.2 2.307-.577 3.108-.846 5.441-1.511.117-2.969.624-9.595-1.441-18.489zm-124.551 16.36 9.018-1.904 5.08 22.064-8.941 2.233-5.157-22.393zm3.41 22.829-9.145 2.284-5.248-22.794 9.221-1.947 5.172 22.457zm7.369-25.105 9.338-1.971 4.987 21.659-9.26 2.312-5.065-22zm11.1-2.343 9.206-1.944 4.895 21.258-9.129 2.28-4.972-21.594zm10.967-2.316 9.142-1.93 4.803 20.86-9.064 2.263-4.881-21.193zm10.903-2.301 9.506-2.007 4.709 20.449-9.427 2.354-4.788-20.796zm11.268-2.379 8.985-1.897 4.711 20.033-9.003 2.248-4.693-20.384zM277.1 368.4s-11.2 6.4-26.3 5.4c-15.1-1-27.5 19.2-39 25-19.306 10.039-32.56 2.312-36.543-.392-8.104-5.502-15.22-15.868-19.257-34.108-.3-1.5-.7-3.1-1-4.8-.5-1.8-.9-3.6-1.3-5.3-8-36.1 8.3-49.2 23.7-53.8 4.9-.8 9.2-.9 12.1-.8 13 .3 32.8 13.2 46 5.9 13.2-7.4 26.1-6.3 26.1-6.3 12.1 1.1 18.8 11 22.3 19.2l2.605-.55 5.263 22.859-2.768.691c.4 9-1.4 20.8-11.9 27zm146.5-52.9s-2.3.8-5.4 1.6c.5 2.2-.9 4.3-3 4.8s-4.202-.926-4.702-3.026l-2.59.485c-.1 1.8-1.308 3.341-3.108 3.741-2.1.5-4.2-.8-4.7-2.9-1.6 0-3.1-.1-4.1-.5-6.5-2.3-17.7-.6-17.7-.6l-8.591 2.145-4.696-19.969 8.887-1.876s10.9-3.3 15.8-8.1c.8-.8 1.999-1.529 3.499-2.229 0-.1.001-.071-.099-.171-.5-2.2.9-4.3 3-4.8 1.9-.4 3.809.631 4.609 2.331.8-.2 1.558-.44 2.358-.64 0-.1-.068-.192-.068-.292-.5-2.2.9-4.3 3-4.8 2.2-.5 4.3.9 4.8 3v.3c3.2-.6 5.5-1 5.5-1 2.7 5 4.7 10.4 5.9 15.9C423.4 304.3 423.9 309.9 423.6 315.5z"/><circle cx="242.847" cy="339.666" r="16.427"/><path d="m191.9 336.9 5.9 26.3 3.6-.8-5.9-26.3z"/></g><g fill="#2D2D39"><path d="m397.3 299-.5-2.1-200.9 44.6h-.2l.4 2.1L397 299zM411.1 300.2l-.5-2.1-214.1 47.6-.2.1.4 2.1 214.1-47.7zM411.8 302.3 197.4 350l-.2.1.4 2.1L412 304.4h.2zM198.6 354.4h-.2l.4 2.1 201.1-44.7.3-.1-.5-2.1z"/></g><path fill="#FFF3ED" d="M411.8 304.5c.6-.1 1-.8.9-1.4s-.8-1-1.4-.9-1 .8-.9 1.4c.2.7.8 1.1 1.4.9zM399.9 311.8c.6-.1 1-.8.9-1.4s-.8-1-1.4-.9-1 .8-.9 1.4c.2.7.8 1.1 1.4.9zM397.1 299.1c.6-.1 1-.8.9-1.4s-.8-1-1.4-.9-1 .8-.9 1.4c.1.6.8 1 1.4.9zM410.9 300.3c.6-.1 1-.8.9-1.4s-.8-1-1.4-.9-1 .8-.9 1.4.7 1 1.4.9z"/><path fill="#FDE7CF" d="m183.9 292.3 11.9-12.9 7.7-20.2s-29.2-11.8-29.6-11.9c-.2-.1-11.2 6.5-11.2 6.5L147.3 266s-7.7 10.3-8 10.9-9.1 20.3-9.1 20.3l.5 19.4s8.3 15.5 8.3 16c.1.5 11.3 11.5 11.7 11.8.4.4 20.1 11 20.4 11.5s9.6 1.6 19.4 2.2c9.7.5 15.2-3.9 15.2-3.9l3.1-4.5 3.3-2.6-.4-2.8.4-5-2-6.5-6.8-6.3L189 321l-9.1-6 .839-10.501L183.9 292.3z"/><g><path fill="#9D706B" d="M375.7 326.5c-1.6-3.4-6.1-11.4-12.9-13.7-2.4-.8-4.9-.8-7.3.1l-1 .4.9.6c1.6 1.1 2.8 2.6 3.8 4-2.5-2.7-6.1-5.2-10.2-4.6-3.9.6-5.9 4.4-6.9 8.1.1-1 .3-1.9.5-2.7l.2-.8-.8.1c-1.5.2-6.5 1.2-9.5 8-2.3 5.4-1.8 12.2 1.3 16.6 2.3 3.3 5.7 5 9.9 5h.9c12.1-.6 31.5-5.7 32.1-16.5.1-1.3-.2-2.8-1-4.6z"/><path fill="#8A5D58" d="M344.6 347.1c12-.6 31-5.5 31.5-16 .1-1.4-.2-2.9-.9-4.4-.4-.9-1-2-1.7-3.4-34 23.1-38.7.1-38.8-.1-.6.9-1.1 1.9-1.6 3-2.2 5.2-1.7 11.8 1.2 16.1 2.3 3.3 5.9 5 10.3 4.8z"/><path fill="#2C2E39" d="M333 326.2c2.5-5.9 6.7-7.4 9-7.9-1.2 4.5-.5 9.6-.5 10 0 0 .2-13.6 7.5-14.7 7.5-1.1 13.3 9.4 13.3 9.4-.1-.4-2.2-6.5-6.7-9.7 2.4-.7 4.7-.9 7-.1 6.5 2.2 11 10.1 12.6 13.5.7 1.4 1 2.9.9 4.4-.6 10.5-19.7 15.3-31.5 16-4.4.2-8-1.4-10.3-4.7-2.9-4.4-3.6-11-1.3-16.2zm11.7 23c13.1-.6 32.9-6 33.5-18 .1-1.7-.2-3.6-1.1-5.4-1.7-3.6-6.5-12.1-13.8-14.6-3.2-1.1-6.7-.9-10.1.7-1.4-.5-2.9-.7-4.5-.4-3 .5-4.9 2.2-5.9 4.6-2.1.1-8.4 1.4-11.7 9.2-2.2 5.1-2 11.3.2 16.1.4.7.7 1.4 1.2 2.1 2 2.8 5.6 5.9 12.2 5.7z"/></g><g><path fill="#2C2E39" d="M185.8 290.7s-8.6 14-6.9 24l2.7.1c-1.2-10.8 4.1-23.9 4.2-24.1z"/></g><path fill="#9D706B" d="M204.7 328c-7.1-3.7-18.4-8.5-18.4-8.5s-1.7 25.4-16.6 35.4c0 0 28.2 7.2 35.6 0s7.3-9.2 7.3-9.2-1.1-7-1.1-7.5c0-.6.2-6.6-6.8-10.2z"/><path fill="#2C2E39" d="M174.8 307.2c2.611 14.15 21.899 16.486 29.14 22.293 13.263 10.637 9.802 31.137-24.64 26.507-20.2-2.8-50-26.4-48-51.9 1.4-20 14.7-34.6 22.5-41.4 11-9.8 24.6-16.5 33.6-16.5v-2.7c-18.6 0-56.3 25.5-58.9 60.3-1 12.2 4.8 25.2 16.2 36.3 9.9 9.8 23 16.9 34.2 18.4 36.835 4.722 42.26-18.107 27.119-30.694-7.525-6.255-24.703-9.147-31.219-20.606z"/><g><path fill="#FDE7CF" d="M135.8 224.4c-.59-4.836-.9-9.569-.9-14.6 0-8.272.578-14.899.6-15.1 1.4-16.8 4.8-29.5 4.8-29.5 3.472-24.174 3-20.523 3-20.8-.528-1.232-17.655-33.865-13.7-57.9 3.87-23.222 14.683-43.483 15-43.8.149.149-.468-.34 5.4 4.2 25.997 12.998 42.568 34.768 46.6 38.8.101 0 29.969-8.7 30.2-8.7 2.753 0 27.467-.5 31.5-.5.162-.323 13.543-33.109 33.2-50.8 4.332-6.109 3.9-5.457 3.9-5.6 32.93 32.928 33.3 57.14 33.3 69.7 0 15.245-1.973 25.286-2.2 27.1 0 .116-.596-1.2 8.8 19 0 0 7 11.2 13.2 26.8 3.373 7.589 7.661 22.146 8.7 31.5 2.68 19.95-.679 38.283-16.3 50.6-41.992 33.263-84.217 38.5-83.3 38.5.163 0-13.938 2.196-34.5.5-15.6-1.3-35.3-4.7-56.5-13-19.202-7.494-28.534-26-30.8-46.4z"/><path fill="#9D706B" d="M180.8 148.1c12.8-8 28.6-9.4 40.2-9 5 .2 10-.1 15-.8 4.9-.7 9.8-1.9 14.6-3.6 11-3.7 26.5-7 41-3.1 26.2 7 51.8 51.6 28.9 85.9-16.2 24.5-38.4 30-53.6 31.5-4.7.5-9.4 1.1-14 1.8-4.7.7-9.3 1.5-13.9 2.4-15 3.1-37.9 4.3-60.5-14.4-32.1-26.2-20.7-76.3 2.3-90.7z"/><path fill="#E0BCA2" d="m152.5 51.3.7-.1s18.6 11 32.5 40.3l10.8-5.6c0-.1-34.9-40.8-44-34.6z"/><path fill="#F6B0A6" d="m129.2 92.4 2.1 21.3 5.5 16.6s17.285-1.975 13.885-20.975c0 0 4.915 3.675 5.315 3.375.2-.3 2.9-5.3 2.9-5.3l-2.4-15.5 4.7-1.8 9.5 4.1 4.8-3.2s-1.5-10.6-1.7-11c-.2-.5-9.5-16.2-9.5-16.2l-15.5-16.4-4.1-3.9-9.2 19-6.3 29.9z"/><ellipse transform="rotate(-76.154 188.663 207.869)" fill="#F6B0A6" cx="188.654" cy="207.859" rx="9.8" ry="16.399"/><path fill="#2D2D39" d="M144 141.1c-26.1-44-3.7-87.5 1.1-95.9 35.6 20.1 49.5 42.1 49.7 42.2l3.1-2c-.6-1-15-23.6-52.6-44.3l-1.4-.8-.9 1.6c-.4.5-33.5 52.4-.2 104.2.2.4.6.8.8 1.2l.4-6.2z"/><path fill="#2D2D39" d="M146.8 102.6c.213.537 6.763 16.76 12.3 10.3 2.1-2.6 1.3-7.5.4-12.7-.4-2.3-1.1-6.2-.7-7.3.9-.2 3 .5 4.7 1 4.3 1.4 10.2 3.2 13.1-1.9 4.4-7.8-10.4-31.9-30.9-50.6l-2.5 2.7c21.1 19.2 32.8 41.2 30.1 46.2-1.4 2.4-4.4 1.6-8.8.2-2.9-1-5.3-1.8-7.3-.9-3.1 1.3-2.3 5.9-1.4 11.3.738 4.182 1.135 7.604.755 9.053-.225.858-.653 1.015-1.996.251-2.14-1.217-5.432-4.475-7.759-7.604zM93.6 191.5c19.7-1.9 40.8 1.1 61.1 8.9 0 0-14.8-2.4-30.6-4.5-11.3-1.6-30.5-4.4-30.5-4.4zM86.6 212.7c19.1-5 40.5-5.3 61.8-.9 0 0-15 0-31 .4-11.4.3-30.8.5-30.8.5zM94.7 238.7c17.2-9.6 37.9-15.3 59.6-16.4 0 0-14.5 3.8-29.9 8.1-11 3.2-29.7 8.3-29.7 8.3z"/><path fill="#FFFAF5" d="M178.3 96.1c41.425-27.616 72.296-22.027 100.4-15h-.1c-27.242-1.34-56.98-.96-100.3 15 0 0-.1 0 0 0z"/><path fill="#E0BCA2" d="m258.2 76.6 12 2.2c4.7-32 19.3-48 19.3-48l.7-.1c-10.4-3.3-32 45.9-32 45.9zM141.7 246.2c10.731 5.365 55.303 29.317 113.4 20 62.3-8.593 101.659-51.318 102.5-52.3l.1-.1c-1.4 11.7-6.3 22.6-16.8 30.9-18.1 14.3-36.2 23.4-50.8 29.2h-.1c-17.7 6.9-30.5 9-32.4 9.3-1.9.3-14.8 2-33.7.6h-.1c-15.7-1.2-35.7-4.7-57.2-13-12.4-4.9-20.3-13.9-25.1-24.6h.2z"/><path fill="#F6B0A6" d="m309.8 36.6-14.4-15.5-2.8 4.9-10 20.2s-4.3 17.8-4.4 18.3c0 .4 1.6 11 1.6 11l5.5 1.6 7.9-6.7 5 .3 2.3 15.5s4.1 4 4.4 4.2c.4.2 4.133-4.749 4.133-4.749 2.2 19.1 19.267 15.949 19.267 15.949l.4-17.5-4.2-21-14.7-26.5z"/><ellipse transform="rotate(-30.863 301.499 190.997)" fill="#F6B0A6" cx="301.497" cy="191.003" rx="16.4" ry="9.8"/><path fill="#2D2D39" d="m295.3 17.7-1.1 1.2c-29.9 30.9-37 56.7-37.3 57.8l3.5 1c.1-.2 7-25.3 35.2-54.9 7.1 6.6 41.2 41.6 29.1 91.3-.2.7-.4 1.5-.5 2.3.5.9 1 1.9 1.5 3.1l1.3.4c.1-.5.3-1 .4-1.4 16.7-59.3-30.2-99.1-30.7-99.5l-1.4-1.3z"/><path fill="#2D2D39" d="M303.218 87.433c-.865-1.899-1.323-5.647-1.718-8.333-.7-5.4-1.3-10-4.7-10.4-2.1-.2-4.3 1.2-6.7 3-3.9 2.7-6.5 4.2-8.5 2.4-4.1-3.9.7-28.3 15.2-52.9l-3.615-.897C279.085 44.203 272.4 70.5 278.9 76.7c4.3 4 9.4.6 13.1-2 1.4-1 3.3-2.3 4.2-2.4.7.9 1.2 4.9 1.5 7.2.7 5.2 1.3 10.1 4.1 12 7.293 4.558 8.756-12.749 8.8-13.3-.709 2.127-3.406 8.322-5.628 9.92-.844.608-1.212.503-1.754-.687zM215.2 208.9c.185.607 3.808 17.73 17.2 15.8 5.4-.7 10.2-4.4 12.5-9.5.2-.4.3-.8.4-1.2-6-1.8-13.3-4.7-14.9-8.1-.4-.9-.4-1.7-.1-2.5 1.4-3.1 8.6-5.3 14.4-6.2 5.8-.9 13.4-.9 15.6 1.7.6.7.8 1.5.7 2.4-.6 3.9-7.6 9.2-11.9 12.1.3.3.5.7.8 1 3.7 4.3 9.3 6.3 14.7 5.5 12.706-2.079 11.8-17.541 11.8-20.1l9.1 3.2-5.9.8c-.2 4.4-2 17.4-14.5 19.4h-.1c-6.4.9-13.1-1.6-17.4-6.5-2.7 6-8.4 10.3-14.7 11.3h-.1c-12.5 1.8-18-10.1-19.5-14.3l-5.9 1 7.8-5.8zM251.5 242.3c4.3-.7 8.4-2.6 12.1-5.5-4 10.1-18.5 12.2-25.2 3.8 4.3 1.6 8.8 2.3 13.1 1.7zM178.3 96.1c16.234-12.338 31.086-18.248 46.485-20.742 5.443-.881 25.896-4.786 53.915 5.842h-.1c-25.27-2.297-35.031-5.162-53.122-2.204-16.12 2.637-47.077 17.053-47.178 17.104 0 0-.1 0 0 0zM387.6 147.5c-19.4 3.9-38.7 13-55.9 26.4 0 0 13.5-6.6 28-13.3 10.4-4.8 27.9-13.1 27.9-13.1zM400.5 165.8c-19.7.8-40.3 6.8-59.3 17.2 0 0 14.3-4.4 29.7-8.7 10.9-3.1 29.6-8.5 29.6-8.5zM400.4 192.9c-19.3-4.2-40.7-3.6-61.8 1.8 0 0 15-.7 31-1 11.4-.2 30.8-.8 30.8-.8z"/><path fill="#3D3D44" d="M233.9 202.6c-.1-.6 2.8-1.6 6.9-2.5 1.3-.3 2.8-.5 4.3-.8 1.5-.2 3-.4 4.3-.5 4.2-.4 7.2-.3 7.3.3.2.9-4.8 2.3-11.2 3.3-6.4 1-11.6 1.1-11.6.2z"/><path fill="#2D2D39" d="M147.8 128.3c-.213 1.492-1.218 5.59-4.331 24.856-6.129 37.938-8.633 60.913-3.669 82.644 5.219 23.349 26.368 34.625 46.328 39.969 24.166 6.471 56.496 12.451 99.572-2.469 20.212-6.941 36.077-16.766 41.938-20.779 16.048-10.987 30.27-27.131 28.662-49.221-1.2-16.5-7.4-34.1-14.5-49.9-5.8-12.8-11.8-25-16.4-34.2-.5-1.1-1-2.1-1.5-3.1-3.9-7.6-6.5-12.6-6.8-13.2.6.8 3.5 4.8 7.4 11 .9 1.3 1.8 2.8 2.7 4.2 11.9 19.4 30.4 53.8 32.8 84.8 1.793 23.685-13.332 40.87-30.252 52.395-8.036 5.474-21.737 14.376-42.548 21.605-50.219 17.518-90.903 5.552-102.1 2.1-21-5.7-43.2-17.6-48.9-42.6-6.168-27.392-.489-61.448 4.874-84.035 3.177-13.382 6.327-22.868 6.726-24.065z"/><g><path fill="#2D2D39" d="m258 222.6-3.7-1.1-5.1-2.6-.9-1.5-1 .2-.4 1.7-4.1 4-3.2 2.1-2.4.5c.614.921 1.897 2.897 3.1 4.1 2.746 2.746 5.736 4.662 9.6 4l1-.2c3.857-.551 6.173-3.246 7.9-6.7 1.081-2.162 1.287-3.561 1.7-4.8l-2.5.3z"/><path fill="#F9A9A0" d="M258.9 226.5c-.3-.1-4.6-1-9.9-.4-5.2.9-9.1 3.1-9.3 3.3l.5.5 1 1.1 1.5 1.7 3.9 1.9 3.7.1 3.5-1.1 3.2-3 1-2.1.6-1.3.3-.7z"/><path fill="#2D2D39" d="m258.2 220.5-3-1-4.5-2.3-1.3-2.2-3.9.6-.6 2.5-3.6 3.5-2.6 1.8-4.7 1.1 1.2 2c8.454 14.583 19.454 8.167 19.806 7.967 3.6-2.048 6.244-6.192 7.594-11.967l.5-2.3-4.9.3zm-19.3 6 1.1-.2 3.3-2.3 4.6-4.3.2-.6.3.6 5.5 2.7 4 1.2 1.1-.1c-1.326 4.64-3.563 6.884-5.382 7.971-8.192 4.899-14.114-4.216-14.718-4.971z"/><path fill="#2D2D39" d="M259.3 226h-.1c-1.3-.3-5-1.2-10.1-.4-5.2.7-8.5 2.6-9.6 3.3 0 0-.1 0-.1.1-.2.1-.3.2-.3.2l.7 1s.2-.1.4-.3h.1c1.2-.7 4.3-2.3 8.9-3 4.7-.7 8.1 0 9.4.3h.1c.3.1.5.1.5.1l.4-1.2c-.1 0-.2-.1-.3-.1z"/></g><g><path fill="#2D2D39" d="M272.5 170.9c6.6-.3 13.3.4 19.7 2-8.8.9-18.1 1-26.8 2.7 3.9-11.3 16.4-18 27.9-14.9-4.7.6-9.4 1.7-13.5 4-2.8 1.7-5.3 3.7-7.3 6.2zM201.7 176.5c-4.6-1-9.4-.7-14.1.1 10.1-6.3 24-3.6 31.1 6.1-8.8.9-17.7 3.6-26.4 5.3 5.7-3.5 11.8-6 18.2-7.7-2.7-1.8-5.7-3.1-8.8-3.8z"/></g></g><g><path fill="#2D2D39" d="M332.5 307.4c-3.8-18.3-6.8-29.5-6.8-29.6 0 0 3.7 6 5.4 13.1 1.1 4.8 2 8.6 3.5 16l-2.1.5z"/></g></svg>