<svg id="Layer_1" height="512" viewBox="0 0 150 150" width="512" xmlns="http://www.w3.org/2000/svg" data-name="Layer 1"><path d="m46.948 135.545 7.774-61.695 56.574-.243 8.303 61.627" fill="#f5d8af"/><path d="m46.949 136.546a1.066 1.066 0 0 1 -.126-.008 1 1 0 0 1 -.867-1.117l7.774-61.7a1 1 0 0 1 .988-.875l56.575-.242a1 1 0 0 1 .991.866l8.3 61.627a1 1 0 1 1 -1.982.268l-8.185-60.757-54.817.235-7.66 60.828a1 1 0 0 1 -.991.875z" fill="#4d4d4d"/><path d="m118.962 50.71c-6.843-7.314-19.868-9.544-19.868-9.544l-5.284-.9-.15-.026-5.284-.905s-13.026-2.235-21.912 2.385-16.372 24.7-15.132 36.661 7.984 21.056 10.448 27.352-8.8 23.4 11.339 26.846l4.593.786.149.026 4.592.787c20.145 3.449 15.209-16.426 19.627-21.544s13.8-11.45 18.953-22.317 4.772-32.294-2.071-39.607z" fill="#f1d7ad"/><path d="m114.7 101.474-1.5-1.322a43.667 43.667 0 0 0 6.939-10.262c4.793-10.118 4.726-31.4-1.9-38.5a20.9 20.9 0 0 0 -3.766-3.145c-6.708-4.537-15.451-6.074-15.539-6.09l-10.722-1.839c-.085-.014-8.809-1.463-16.6.548a21.264 21.264 0 0 0 -4.676 1.736c-8.617 4.48-15.763 24.532-14.609 35.676a42.986 42.986 0 0 0 3.134 11.949l.3.724-.631.461-.577-.788h-.017l-.171 1-.7-.661-.046.019c-.014-.034-.028-.067-.041-.1l-.023-.022.006-.018a44.8 44.8 0 0 1 -3.213-12.36c-1.248-11.965 6.273-32.771 15.663-37.653a23.284 23.284 0 0 1 5.11-1.9c8.207-2.119 17.056-.646 17.428-.58l10.715 1.833c.375.064 9.26 1.627 16.313 6.4a22.888 22.888 0 0 1 4.115 3.442c7.227 7.74 7.4 29.862 2.251 40.725a45.616 45.616 0 0 1 -7.243 10.727z" fill="#4d4d4d"/><path d="m112.571 52.193a3.781 3.781 0 0 1 5.97-3.709 49.622 49.622 0 0 1 12.451 12.416c8.212 11.98 7.826 26.221-.246 32.26s-4.133 15.572-10.592 19.039-7.682-16.79-5.047-28.749c1.716-7.79-.667-22.177-2.536-31.257z" fill="#f5d8af"/><path d="m118.752 113.6a3.309 3.309 0 0 1 -2.014-.706c-4.546-3.437-4.713-20.1-2.607-29.655.689-3.13.75-7.7.185-13.584a1 1 0 1 1 1.99-.191c.586 6.092.512 10.871-.222 14.2-2.315 10.5-1.324 25.222 1.86 27.631a1.439 1.439 0 0 0 1.737.022c2.7-1.447 3.311-4.1 4.087-7.458.883-3.814 1.883-8.138 6.379-11.5 7.726-5.78 7.734-19.639.02-30.894a48.119 48.119 0 0 0 -12.2-12.163 5.447 5.447 0 0 0 -2.967-.902 1 1 0 1 1 -.381-1.963 7.108 7.108 0 0 1 4.5 1.233 50.153 50.153 0 0 1 12.7 12.671c8.453 12.334 8.246 27.1-.473 33.627-3.91 2.925-4.783 6.7-5.628 10.349-.819 3.545-1.594 6.894-5.089 8.77a3.945 3.945 0 0 1 -1.877.513z" fill="#4d4d4d"/><path d="m72 45.244a3.78 3.78 0 0 0 -4.4-5.483c-4.59 1.279-11.81-2.375-17.311 1.641-11.731 8.565-11.966 27.585-6.363 35.966s-3.985 16.524.952 21.942 12.832-13.277 14.327-25.431c.974-7.919 8.008-20.694 12.795-28.635z" fill="#f5d8af"/><path d="m46.787 101.274a3.514 3.514 0 0 1 -2.647-1.29c-2.716-2.98-1.649-6.662-.618-10.222 1.113-3.842 2.264-7.815-.427-11.838-5.881-8.8-5.7-28.347 6.605-37.329 3.706-2.707 8.015-2.236 11.82-1.822a16.776 16.776 0 0 0 5.813.025c1.085-.3 3.274-.507 4.531.23a1 1 0 1 1 -1.012 1.725 5.169 5.169 0 0 0 -2.982-.03 18 18 0 0 1 -6.567.039c-3.609-.394-7.343-.8-10.423 1.448-11.218 8.189-11.447 26.637-6.122 34.6 3.207 4.8 1.868 9.424.685 13.506-1 3.445-1.786 6.166.176 8.319a1.44 1.44 0 0 0 1.645.557c3.8-1.211 9.636-14.762 10.949-25.437.417-3.388 1.936-7.92 4.516-13.471a1 1 0 1 1 1.813.844c-2.492 5.362-3.953 9.692-4.342 12.872-1.2 9.712-6.9 25.37-12.327 27.1a3.552 3.552 0 0 1 -1.086.174z" fill="#4d4d4d"/><path d="m99.531 101.567c-.579-3.2-3.364-5.452-5.273-8.089a17.274 17.274 0 0 1 -3.065-9.807c.013-1.3 1.035-3.763.679-4.917-.389-1.265-2.007-1.527-3.324-1.805-.255-.054-2.775-.472-3.361-.536-1.089-.119-2.2-.11-2.809.715-.719.97-.576 3.636-1 4.862a17.26 17.26 0 0 1 -6.153 8.229c-2.677 1.852-6.052 3.045-7.663 5.874-1.622 2.846-.854 6.57 1.023 9.255s4.675 4.557 7.406 6.366a8.754 8.754 0 0 0 2.809 1.406 3.257 3.257 0 0 0 2.351-.314 3.253 3.253 0 0 0 2.112 1.079 8.773 8.773 0 0 0 3.117-.392c3.177-.8 6.439-1.631 9.1-3.539s4.633-5.163 4.051-8.387z" fill="#f2f2f2"/><path d="m86.177 93.851-3.151-.539c-4.014-.688-6.957 2.589-5.032 5.605l1.278 2a5.732 5.732 0 0 0 7.913 1.355l1.873-1.464c2.818-2.2 1.133-6.269-2.881-6.957z" fill="#4d4d4d"/><path d="m84 104.305a7.241 7.241 0 0 1 -1.22-.105 6.385 6.385 0 0 1 -4.355-2.742l-1.278-2a4.34 4.34 0 0 1 -.034-4.854 5.979 5.979 0 0 1 6.087-2.277l3.151.539a5.98 5.98 0 0 1 4.974 4.168 4.34 4.34 0 0 1 -1.647 4.565l-1.878 1.464a6.143 6.143 0 0 1 -3.8 1.242zm-2.041-10.084a3.729 3.729 0 0 0 -3.176 1.487 2.334 2.334 0 0 0 .054 2.671l1.278 2a4.74 4.74 0 0 0 6.454 1.1l1.872-1.464a2.335 2.335 0 0 0 .94-2.5 4 4 0 0 0 -3.373-2.685l-3.151-.53a5.323 5.323 0 0 0 -.898-.079z" fill="#4d4d4d"/><path d="m82.803 103.179-1.648 9.627" fill="#f8c7c1"/><path d="m81.156 113.806a1 1 0 0 1 -.986-1.168l1.648-9.628a1 1 0 1 1 1.971.337l-1.649 9.628a1 1 0 0 1 -.984.831z" fill="#4d4d4d"/><path d="m84.549 114.46a21.865 21.865 0 0 1 -13.607-5.029 1 1 0 1 1 1.228-1.578c6.078 4.731 12.411 5.818 19.359 3.327a1 1 0 0 1 .676 1.882 22.619 22.619 0 0 1 -7.656 1.398z" fill="#4d4d4d"/><path d="m110.35 135.28-53.356.228c.048-.982.25-2.016.4-3.016.654-4.19.921-10.2 6.223-11.122 3.771-.654 6.937 2.537 10.168 4.574a19.1 19.1 0 0 0 22.92-2.476c1.407-1.384 2.709-3.078 4.637-3.517 2.857-.667 5.521 1.82 6.824 4.45 1.669 3.352 2.082 7.107 2.184 10.879z" fill="#f2f2f2"/><g fill="#4d4d4d"><path d="m106.872 117.127a1 1 0 0 1 -.528-1.851c6.675-4.128 7.037-10.254 7.05-10.513a.97.97 0 0 1 1.043-.953 1 1 0 0 1 .955 1.037c-.011.3-.385 7.422-7.995 12.13a.991.991 0 0 1 -.525.15z"/><path d="m55.992 108.414a1 1 0 0 1 -.78-.373c-5.61-6.973-3.593-13.812-3.5-14.1a1 1 0 0 1 1.912.585c-.075.25-1.769 6.147 3.151 12.26a1 1 0 0 1 -.779 1.627z"/><path d="m20.348 69.273a1 1 0 0 1 -.483-1.876 20.707 20.707 0 0 0 8.168-28.124 1 1 0 0 1 1.753-.963 22.708 22.708 0 0 1 -8.957 30.839 1 1 0 0 1 -.481.124z"/><path d="m16.751 62.732a1 1 0 0 1 -.483-1.876 13.258 13.258 0 0 0 5.224-17.986 1 1 0 0 1 1.753-.963 15.26 15.26 0 0 1 -6.013 20.7 1 1 0 0 1 -.481.125z"/><path d="m12.979 55.872a1 1 0 0 1 -.479-1.872 5.422 5.422 0 0 0 2.135-7.354 1 1 0 0 1 1.753-.962 7.421 7.421 0 0 1 -2.928 10.064 1 1 0 0 1 -.481.124z"/><path d="m115.486 35.1a1 1 0 0 1 -.921-1.39l1.618-3.825a4.524 4.524 0 0 1 4.433-2.714 5.861 5.861 0 1 0 -5.119-8.138 1 1 0 0 1 -1.842-.779 7.86 7.86 0 1 1 6.867 10.915 2.548 2.548 0 0 0 -2.5 1.495l-1.618 3.825a1 1 0 0 1 -.918.611z"/><path d="m113.2 40.3a1.011 1.011 0 0 1 -.39-.079 1 1 0 0 1 -.531-1.311l.511-1.207a1 1 0 0 1 1.842.779l-.511 1.207a1 1 0 0 1 -.921.611z"/><path d="m99.627 32.1a1 1 0 0 1 -.99-.859l-.437-3.064a3.611 3.611 0 0 1 1.922-3.7 4.119 4.119 0 1 0 -6.031-3.048 1 1 0 1 1 -1.98.282 6.122 6.122 0 0 1 5.889-6.978 6.2 6.2 0 0 1 6.092 4.576 6.124 6.124 0 0 1 -3.02 6.93 1.63 1.63 0 0 0 -.891 1.655l.436 3.07a1 1 0 0 1 -.85 1.131 1.136 1.136 0 0 1 -.14.005z"/><path d="m100.164 36.308a1 1 0 0 1 -.99-.859l-.137-.968a1 1 0 1 1 1.98-.281l.138.968a1 1 0 0 1 -.85 1.131 1.124 1.124 0 0 1 -.141.009z"/><path d="m102.663 76.111c-.558 1.19-1.684.328-2.875-.229s-1.994-.6-1.436-1.79a2.38 2.38 0 1 1 4.311 2.019z"/><path d="m101.839 77.711a4.461 4.461 0 0 1 -1.941-.657c-.176-.09-.354-.182-.534-.267s-.369-.163-.533-.232a2.421 2.421 0 0 1 -1.554-1.238 2.08 2.08 0 0 1 .169-1.649 3.38 3.38 0 1 1 6.122 2.866 1.932 1.932 0 0 1 -1.126 1.077 1.851 1.851 0 0 1 -.603.1zm-2.6-3.157c.111.051.248.108.361.156.189.078.394.164.611.266s.4.2.6.3a5.8 5.8 0 0 0 .94.421l.005-.01a1.381 1.381 0 1 0 -2.5-1.171z"/><path d="m78.868 70.039c.117 1.309-1.29 1.131-2.6 1.248s-2.025.485-2.142-.825a2.38 2.38 0 0 1 4.742-.423z"/><path d="m74.959 72.424a1.744 1.744 0 0 1 -1.145-.362 2.088 2.088 0 0 1 -.683-1.51 3.38 3.38 0 1 1 6.733-.6 1.933 1.933 0 0 1 -.432 1.5 3.29 3.29 0 0 1 -2.478.8c-.2.01-.4.02-.6.038s-.4.044-.577.067a6.2 6.2 0 0 1 -.818.067zm1.541-3.554q-.063 0-.126.006a1.378 1.378 0 0 0 -1.252 1.5v.041c.122-.011.268-.03.39-.047.2-.026.423-.056.662-.077.223-.02.449-.032.67-.044a5.759 5.759 0 0 0 1.023-.109v-.01a1.38 1.38 0 0 0 -1.367-1.26z"/></g></svg>