<svg height="512" width="512" xmlns="http://www.w3.org/2000/svg"><path d="M395.782 320.109c9.616 6.621 20.527 9.819 31.504 9.942 4.435-6.51 8.018-13.717 9.644-21.363-.203.015-.407.034-.609.046-15.535 1.144-37.651-3.235-44.631-18.233a82.587 82.587 0 0 0-3.711 6.008c-1.391 2.469-2.691 4.991-3.985 7.516 1.654 6.429 6.389 11.729 11.788 16.084zM373.088 322.308a68.334 68.334 0 0 1-10.572 10.73c.81 7.959 5.127 15.594 10.651 21.793 3.976 4.163 9.046 6.836 14.494 8.245a97.154 97.154 0 0 0 19.962-12.105c-15.512-2.72-29.565-13.799-34.535-28.663zM348.377 342.028a71.604 71.604 0 0 1-14.001 5.046c-2.21 7.751-1.904 16.301 1.219 23.325a96.182 96.182 0 0 0 20.013.755c-6.52-7.851-9.208-18.973-7.231-29.126z" fill="#e36254"/><g fill="#a63c30"><path d="M334.376 347.074c-6.149 1.511-12.494 2.196-18.832 1.93-4.431-.186-9.749-.723-13.844.981-1.281.533-2.553 1.236-3.359 2.366s-1.13 3.787.045 4.525c11.263 7.073 24.046 11.648 37.21 13.524-3.124-7.025-3.43-15.576-1.22-23.326zM395.782 320.109c-5.399-4.354-10.135-9.655-11.787-16.084-2.436 4.755-4.849 9.521-7.791 13.974a64.8 64.8 0 0 1-3.116 4.31c4.971 14.864 19.023 25.943 34.535 28.663 7.08-5.553 13.391-12.081 18.615-19.412.355-.498.704-1.002 1.049-1.509-10.978-.124-21.889-3.322-31.505-9.942zM362.516 333.039a71.85 71.85 0 0 1-14.139 8.989c-1.978 10.153.71 21.275 7.232 29.125a92.478 92.478 0 0 0 11.73-1.545c6.999-1.386 13.821-3.6 20.322-6.533-5.449-1.409-10.518-4.082-14.494-8.245-5.524-6.197-9.841-13.832-10.651-21.791zM436.321 308.734c.202-.012.406-.031.609-.046.357-1.68.628-3.379.784-5.098.921-10.156-1.607-22.389-10.557-27.276-7.172-3.916-16.387-2.504-23.301 1.852-4.931 3.107-8.861 7.494-12.166 12.336 6.981 14.997 29.097 19.375 44.631 18.232z"/></g><path d="M348.77 373.242c-4.697 0-9.205-.338-13.464-1.012-.381-.06-38.212-6.847-39.725-17.059-.393-2.652 1.394-4.958 5.312-6.856.031-.015.063-.03.096-.043 3.976-1.655 8.754-1.414 12.972-1.201.565.028 1.12.056 1.662.079 16.118.662 32.783-5.003 45.723-15.55l.048-.038c10.448-7.956 16.607-19.846 22.564-31.345a723.732 723.732 0 0 1 2.384-4.574c7.151-14.346 22.181-26.804 37.037-22.777 3.229.874 6.232 2.626 8.684 5.067 14.641 14.573 6.073 41.259-4.336 54.731-16.733 23.444-43.646 38.523-71.998 40.338-2.361.16-4.682.24-6.959.24zm-46.31-21.565c-2.132 1.04-3.332 2.141-3.212 2.951.087.589 1.215 3.761 14.891 8.396 8.546 2.896 17.687 4.902 21.746 5.544 6.051.957 12.645 1.204 19.6.736 27.27-1.745 53.153-16.258 69.243-38.82l.043-.059c9.991-12.909 17.172-37.42 4.675-49.862-1.996-1.986-4.43-3.41-7.038-4.116-12.929-3.5-26.272 7.859-32.769 20.891a647.262 647.262 0 0 0-2.39 4.588c-6.141 11.854-12.49 24.11-23.586 32.571-13.63 11.098-31.197 17.061-48.196 16.361-.553-.023-1.119-.052-1.695-.081-3.804-.194-8.114-.411-11.312.9z" fill="#7d271d"/><path d="M335.597 372.254c-.71 0-1.388-.41-1.695-1.101-3.221-7.245-3.698-16.206-1.308-24.587a1.854 1.854 0 1 1 3.565 1.017c-2.155 7.558-1.743 15.6 1.131 22.063a1.854 1.854 0 0 1-1.693 2.608zM427.287 331.904h-.021c-11.719-.131-22.969-3.683-32.535-10.269a1.502 1.502 0 0 1-.113-.084c-6.818-5.499-10.881-11.081-12.419-17.066a1.853 1.853 0 1 1 3.591-.923c1.329 5.168 4.96 10.093 11.101 15.058 8.944 6.142 19.46 9.452 30.415 9.575a1.853 1.853 0 0 1 1.833 1.875 1.852 1.852 0 0 1-1.852 1.834zM407.625 352.826c-.106 0-.214-.009-.322-.029-16.761-2.939-30.882-14.676-35.973-29.901a1.854 1.854 0 1 1 3.516-1.176c4.594 13.738 17.895 24.76 33.097 27.425a1.854 1.854 0 0 1-.318 3.681zM355.61 373.007c-.532 0-1.06-.228-1.427-.669-6.795-8.179-9.717-19.929-7.625-30.664a1.854 1.854 0 1 1 3.639.709c-1.884 9.671.736 20.242 6.838 27.587a1.854 1.854 0 0 1-1.425 3.037zM387.662 364.931c-.154 0-.31-.019-.465-.059-6.085-1.573-11.401-4.602-15.371-8.76a.958.958 0 0 1-.043-.047c-4.525-5.078-10.126-13.161-11.111-22.838a1.854 1.854 0 1 1 3.689-.375c.689 6.771 4.3 14.13 10.169 20.723 3.539 3.697 8.114 6.29 13.595 7.708a1.855 1.855 0 0 1 1.331 2.259 1.856 1.856 0 0 1-1.794 1.389zM431.534 310.761c-7.371 0-14.927-1.165-21.331-3.334-9.848-3.337-16.831-8.919-20.194-16.144a1.854 1.854 0 0 1 3.361-1.565c6.281 13.497 26.599 18.357 42.814 17.166 1.016-.085 1.91.691 1.985 1.713a1.854 1.854 0 0 1-1.713 1.985c-1.62.12-3.267.179-4.922.179z" fill="#7d271d"/><g><path d="M123.707 141.44c.709-3.056 1.317-7.135 1.393-10.272.076-3.136-.528-6.371-2.264-8.984s-4.727-4.504-7.863-4.4c-3.135.104-6.192 2.515-6.545 5.632-1.329-3.163-4.384-5.589-7.795-5.964-3.41-.375-7.013 1.426-8.586 4.475s-.876 7.157 1.741 9.375c-2.483-1.074-5.583-.259-7.402 1.743s-2.437 5.026-1.604 7.599c2.53 7.819 8.845 9.756 12.484 11.881 3.229 10.071 15.202 51.83 18.431 61.901l44.916-14.64c-7.051-11.647-36.906-58.346-36.906-58.346z" fill="#a63c30"/><path d="M115.698 216.281a1.852 1.852 0 0 1-1.765-1.288c-1.621-5.056-5.487-18.238-9.226-30.986-3.574-12.185-7.264-24.766-8.984-30.221-.408-.221-.85-.448-1.308-.682-3.819-1.958-9.049-4.639-11.394-11.887-1.047-3.235-.263-6.931 1.996-9.417 1.32-1.453 3.135-2.385 5.021-2.699-.995-2.536-.93-5.514.364-8.023 1.902-3.685 6.194-5.929 10.436-5.468 2.784.306 5.387 1.73 7.267 3.857a8.955 8.955 0 0 1 6.808-3.535c3.619-.118 7.247 1.882 9.468 5.227 1.778 2.678 2.668 6.155 2.573 10.055-.068 2.79-.559 6.585-1.269 9.879 3.639 5.695 29.986 46.95 36.516 57.735a1.855 1.855 0 0 1-1.011 2.723l-44.916 14.64c-.189.06-.383.09-.576.09zm-24.264-83.597c-1.337 0-2.739.579-3.674 1.609-1.36 1.497-1.847 3.82-1.212 5.782 1.873 5.789 5.956 7.883 9.558 9.73.744.381 1.448.742 2.097 1.121.395.231.691.6.83 1.035 1.622 5.059 5.491 18.249 9.232 31.004 3.352 11.428 6.807 23.207 8.64 29.12l40.904-13.332c-8.656-14.06-35.38-55.87-35.663-56.313a1.85 1.85 0 0 1-.244-1.417c.75-3.233 1.278-7.118 1.346-9.898.054-2.188-.242-5.336-1.955-7.913-1.493-2.247-3.953-3.652-6.256-3.572-2.347.078-4.529 1.904-4.765 3.987a1.854 1.854 0 0 1-3.552.51c-1.094-2.601-3.62-4.546-6.288-4.839-2.711-.297-5.541 1.166-6.736 3.482-1.211 2.346-.643 5.47 1.292 7.11a1.854 1.854 0 0 1-1.934 3.116 4.047 4.047 0 0 0-1.62-.322z" fill="#7d271d"/><path d="M109.154 145.375c-4.501 1.457-9.131-.396-10.343-4.139-1.211-3.743 1.455-7.958 5.956-9.414 4.501-1.457 9.131.396 10.343 4.139s-1.455 7.958-5.956 9.414z" fill="#e36254"/></g><g><path d="M383.291 140.34c-.49-3.099-.806-7.211-.659-10.345s.98-6.317 2.897-8.8 5.036-4.156 8.156-3.829 5.998 2.949 6.128 6.084c1.551-3.06 4.771-5.263 8.199-5.394s6.893 1.922 8.246 5.075.365 7.201-2.404 9.227c2.553-.894 5.587.139 7.259 2.266 1.672 2.126 2.073 5.186 1.059 7.694-3.08 7.619-9.517 9.101-13.298 10.962-3.937 9.815-21.596 51.718-25.533 61.533l-36.182-19.057c7.865-11.116 36.132-55.416 36.132-55.416z" fill="#a63c30"/><path d="M383.342 216.667a1.85 1.85 0 0 1-.864-.214l-36.182-19.056a1.851 1.851 0 0 1-.65-2.711c7.259-10.262 32.337-49.48 35.708-54.758-.482-3.354-.706-7.211-.574-10.02.183-3.898 1.318-7.303 3.281-9.847 2.454-3.178 6.216-4.918 9.817-4.539a8.96 8.96 0 0 1 6.54 4.01c2.026-1.987 4.724-3.223 7.523-3.33 4.272-.175 8.386 2.386 10.021 6.197 1.113 2.595.965 5.57-.208 8.029 1.86.447 3.603 1.506 4.817 3.048 2.077 2.641 2.595 6.384 1.321 9.535-2.855 7.063-8.263 9.365-12.211 11.047-.475.202-.933.397-1.357.589-2.172 5.371-7.424 17.948-12.51 30.128-5.303 12.7-10.787 25.833-12.75 30.726a1.855 1.855 0 0 1-1.722 1.166zm-33.461-21.573 32.512 17.124c2.404-5.893 7.273-17.553 11.998-28.87 5.309-12.714 10.799-25.86 12.763-30.758.17-.425.492-.771.902-.973.674-.332 1.401-.641 2.171-.969 3.724-1.585 7.946-3.383 10.227-9.025.773-1.911.452-4.264-.798-5.854-1.223-1.555-3.455-2.271-5.189-1.661-.867.303-1.826-.074-2.254-.887s-.196-1.817.546-2.359c2.047-1.499 2.836-4.573 1.794-7-1.027-2.395-3.738-4.054-6.471-3.954-2.682.103-5.341 1.863-6.616 4.379a1.853 1.853 0 0 1-3.506-.761c-.087-2.094-2.133-4.071-4.468-4.316-2.298-.234-4.847.982-6.495 3.118-1.891 2.449-2.41 5.569-2.512 7.754-.13 2.777.12 6.69.638 9.969.071.447-.025.905-.268 1.286-.27.423-25.844 40.489-34.974 53.757z" fill="#7d271d"/><ellipse cx="400.205" cy="138.688" fill="#e36254" rx="7.123" ry="8.565" transform="rotate(-67.98 400.255 138.684)"/></g><g><path d="M173.89 361.486c5.029 30.416 10.98 77.481 10.98 77.481s-22.18 12.443-17.852 18.934c4.328 6.492 38.231 7.573 44.001 0 5.769-7.574 18.753-72.491 18.753-72.491z" fill="#a63c30"/><path d="M189.612 465.037c-.883 0-1.756-.014-2.615-.041-4.188-.132-18.117-.96-21.522-6.067-.834-1.25-1.074-2.746-.695-4.324 1.555-6.474 14.057-14.261 18.094-16.629-.973-7.606-6.298-48.875-10.814-76.187a1.854 1.854 0 0 1 2.559-2.007l55.881 23.925a1.854 1.854 0 0 1 1.088 2.068c-1.337 6.688-13.237 65.558-19.096 73.25-3.392 4.453-13.603 6.012-22.88 6.012zm-13.349-100.518c4.856 30.11 10.388 73.762 10.445 74.215a1.855 1.855 0 0 1-.932 1.85c-6.174 3.466-16.355 10.573-17.391 14.888-.178.742 0 1.138.174 1.4 1.266 1.898 8.198 4.092 18.554 4.418 10.745.338 20.18-1.559 22.429-4.513 3.966-5.207 12.881-44.296 18.113-70.255z" fill="#7d271d"/></g><g><path d="M324.817 361.486c-5.029 30.416-10.98 77.481-10.98 77.481s22.18 12.443 17.852 18.934-38.231 7.573-44.001 0c-5.769-7.574-18.752-72.491-18.752-72.491z" fill="#a63c30"/><path d="M309.094 465.037c-9.278 0-19.487-1.559-22.88-6.013-5.859-7.692-17.758-66.563-19.096-73.25a1.854 1.854 0 0 1 1.088-2.068l55.881-23.925a1.852 1.852 0 0 1 2.559 2.007c-4.516 27.312-9.841 68.582-10.814 76.187 4.038 2.368 16.539 10.155 18.094 16.629.379 1.578.139 3.074-.695 4.324-3.405 5.108-17.333 5.935-21.521 6.067a80.35 80.35 0 0 1-2.616.042zm-38.044-78.515c5.232 25.959 14.147 65.048 18.113 70.255 2.25 2.953 11.68 4.852 22.43 4.513 10.355-.327 17.287-2.52 18.553-4.418.175-.262.353-.659.175-1.401-1.038-4.321-11.218-11.425-17.391-14.888a1.854 1.854 0 0 1-.932-1.85c.057-.454 5.589-44.105 10.445-74.215z" fill="#7d271d"/></g><path d="M324.476 365.393c-10.335 28.133-54.538 35.707-75.599 35.707s-63.469-7.575-73.804-35.707c-6.759-18.381 1.118-46.704 12.342-75.901 3.385-8.814 7.077-17.708 10.764-26.432.964-2.288 1.934-4.561 2.887-6.817 1.812-4.254 3.602-8.454 5.329-12.565h86.76c1.727 4.11 3.512 8.306 5.318 12.565 1.351 3.168 2.707 6.367 4.063 9.588 3.734 8.873 7.437 17.888 10.79 26.798 10.572 28.078 17.665 55.04 11.15 72.764z" fill="#e36254"/><g><path d="M248.14 315.563c-1.04 8.956-1.907 18.979.893 27.698.662 2.06 3.396 1.532 3.609-.488.952-9.018.111-18.152 1.109-27.21.396-3.592-5.199-3.544-5.611 0zM238.569 312.491c-2.544 6.751-5.045 15.431-3.116 22.64.469 1.753 3.124 1.782 3.58 0 .884-3.461.932-7.201 1.511-10.734.593-3.616 1.417-7.172 2.538-10.661.934-2.908-3.468-4.017-4.513-1.245zM258.31 312.645a117.254 117.254 0 0 1 2.449 12.055c.598 3.964.887 8.077 1.771 11.983.349 1.542 2.701 1.498 3.077 0 1.003-3.999.955-8.643.578-12.717-.404-4.361-1.215-8.613-2.32-12.852-.934-3.585-6.492-2.065-5.555 1.531zM238.861 345.999c.077 4.918.428 9.987 2.373 14.568.654 1.541 2.825.592 2.904-.786.261-4.563-.389-9.212-.484-13.781-.065-3.08-4.841-3.092-4.793-.001zM258.716 348.028c.187 4.044-.285 8.262.529 12.241.289 1.413 2.648 1.832 3.256.426 1.712-3.956 1.603-8.429 1.453-12.667-.117-3.366-5.394-3.371-5.238 0zM249.789 361.417c-.199 3.393-.43 7.753 1.549 10.71.839 1.252 3.109 1.248 3.46-.452.68-3.287-.187-6.905-.068-10.257.113-3.193-4.756-3.158-4.941-.001z" fill="#f0857a"/></g><path d="M313.325 292.627c-42.615 22.836-96.21 14.106-125.911-3.136 3.385-8.814 7.077-17.708 10.764-26.432.964-2.288 1.934-4.561 2.887-6.817h97.407c1.351 3.168 2.707 6.367 4.063 9.588 3.735 8.872 7.437 17.887 10.79 26.797z" fill="#a63c30"/><g><path d="M248.877 402.953c-21.438 0-64.815-7.717-75.544-36.922-8.876-24.143 6.563-64.464 23.138-103.695 1.191-2.818 2.381-5.617 3.561-8.39 1.58-3.716 3.14-7.385 4.654-10.988a1.854 1.854 0 0 1 1.709-1.136h86.76c.746 0 1.42.447 1.709 1.136 1.522 3.622 3.091 7.312 4.679 11.05 1.556 3.662 3.132 7.369 4.702 11.101 15.951 37.915 30.786 76.938 21.972 100.922-4.684 12.751-16.748 22.954-34.887 29.508-15.132 5.467-31.852 7.414-42.453 7.414zM207.626 245.53c-1.365 3.242-2.766 6.535-4.182 9.867-1.178 2.771-2.368 5.568-3.557 8.383-16.286 38.548-31.483 78.097-23.073 100.972 5.44 14.81 20.288 23.023 31.786 27.306 17.907 6.669 35.356 7.188 40.278 7.188 24.596 0 64.563-9.186 73.859-34.493 8.349-22.718-6.931-62.603-21.909-98.205a3182.315 3182.315 0 0 0-4.697-11.089c-1.424-3.353-2.833-6.667-4.207-9.928z" fill="#7d271d"/></g><g><path d="M214.377 83.823c-11.252-13.414-18.011-19.408-30.882-31.631-7.062-6.706-15.43-14.414-26.1-15.548-4.496-.478-8.386 2.862-4.886 6.935 1.431 1.666 3.635 2.617 5.75 3.505-3.347-.409-5.574-.37-8.827.296-3.254.666-6.341 2.147-8.374 4.489-1.074 1.237-1.841 2.949-1.06 4.406.613 1.144 2.05 1.801 3.442 1.932 1.393.131 2.769-.174 4.111-.477-14.237 25.84-15.807 77.473-4.153 93.364z" fill="#ffe8db"/><path d="M143.398 152.949a1.85 1.85 0 0 1-1.497-.758c-11.925-16.26-10.362-65.336 2.359-92.099a9.05 9.05 0 0 1-.996-.039c-2.174-.204-4.053-1.316-4.903-2.902-1.038-1.937-.555-4.366 1.294-6.496 2.155-2.483 5.494-4.291 9.402-5.09a32.927 32.927 0 0 1 2.381-.405 9.23 9.23 0 0 1-.339-.372c-1.852-2.155-2.301-4.56-1.23-6.6 1.251-2.385 4.352-3.742 7.719-3.388 11.579 1.231 20.597 9.795 27.181 16.048 1.601 1.52 3.106 2.944 4.538 4.297 9.977 9.43 16.567 15.66 26.488 27.487a1.854 1.854 0 1 1-2.841 2.383c-9.783-11.662-15.96-17.501-26.194-27.175a2259.75 2259.75 0 0 1-4.544-4.302c-6.2-5.888-14.69-13.951-25.02-15.049-2.024-.215-3.596.573-4.043 1.424-.425.809.178 1.784.759 2.46 1.182 1.374 3.243 2.24 5.062 3.004a1.854 1.854 0 0 1-.943 3.55c-3.272-.4-5.272-.334-8.23.272-3.114.637-5.723 2.018-7.346 3.889-.59.679-1.16 1.693-.827 2.314.254.473 1.087.878 1.982.962 1.117.104 2.344-.171 3.529-.44a1.854 1.854 0 0 1 2.032 2.703c-6.475 11.752-10.795 30.29-11.557 49.592-.736 18.649 2.052 34.659 7.275 41.782a1.85 1.85 0 0 1-1.491 2.948z" fill="#e0a58f"/><path d="M164.821 64.754c10.64-5.111 32.082 27.082 34.679 33.14s-34.317 34.143-41.246 30.43c-6.929-3.714-2.829-59.057 6.567-63.57z" fill="#a63c30"/><path d="M159.788 130.481c-.931.001-1.742-.165-2.41-.523-3.223-1.727-4.708-9.343-4.414-22.635.336-15.213 3.634-40.676 11.055-44.241 2.049-.983 4.441-.975 7.111.027 12.249 4.596 28.11 29.471 30.075 34.054.761 1.775.695 5.122-8.621 13.66-8.17 7.489-24.817 19.656-32.796 19.658zm5.836-64.056c-4.198 2.016-8.371 20.722-8.929 40.029-.406 14.046 1.465 19.698 2.435 20.235 1.266.681 7.293-1.013 18.08-8.435 5.431-3.737 10.79-8.074 14.703-11.898 4.931-4.821 5.901-7.218 5.865-7.774-2.268-5.221-17.589-28.114-27.952-32.002-1.71-.641-3.085-.693-4.202-.155z" fill="#7d271d"/><path d="M287.671 83.823c11.252-13.414 18.011-19.408 30.882-31.631 7.062-6.706 15.43-14.414 26.1-15.548 4.497-.478 8.386 2.862 4.886 6.935-1.432 1.666-3.635 2.617-5.75 3.505 3.347-.409 5.573-.37 8.827.296s6.341 2.147 8.374 4.489c1.074 1.237 1.841 2.949 1.06 4.406-.613 1.144-2.05 1.801-3.442 1.932-1.393.131-2.769-.174-4.111-.477 14.237 25.84 15.807 77.473 4.153 93.364z" fill="#ffe8db"/><path d="M358.649 152.949a1.854 1.854 0 0 1-1.494-2.95c5.223-7.123 8.011-23.133 7.275-41.782-.762-19.301-5.082-37.84-11.557-49.592a1.854 1.854 0 0 1 2.033-2.703c1.186.268 2.412.545 3.529.44.895-.084 1.728-.489 1.982-.963.333-.621-.237-1.635-.827-2.314-1.623-1.871-4.232-3.251-7.346-3.889-2.959-.606-4.958-.672-8.23-.272a1.854 1.854 0 0 1-.943-3.55c1.819-.764 3.881-1.63 5.061-3.004.581-.676 1.184-1.651.759-2.46-.447-.851-2.014-1.637-4.043-1.424-10.328 1.098-18.82 9.162-25.02 15.049-1.604 1.523-3.113 2.949-4.547 4.305-10.233 9.672-16.409 15.51-26.191 27.172a1.855 1.855 0 0 1-2.841-2.383c9.919-11.826 16.509-18.055 26.485-27.484 1.433-1.354 2.94-2.779 4.541-4.3 6.585-6.253 15.603-14.817 27.181-16.048 3.365-.355 6.467 1.004 7.719 3.388 1.07 2.039.622 4.445-1.23 6.6a9.23 9.23 0 0 1-.339.372c.756.098 1.538.232 2.382.405 3.908.8 7.247 2.608 9.402 5.09 1.849 2.13 2.333 4.559 1.294 6.496-.85 1.586-2.729 2.698-4.903 2.902a9.04 9.04 0 0 1-.996.039c12.721 26.764 14.284 75.839 2.36 92.099a1.841 1.841 0 0 1-1.496.761z" fill="#e0a58f"/><path d="M337.226 64.754c-10.639-5.111-32.082 27.082-34.679 33.14s34.317 34.143 41.246 30.43c6.93-3.714 2.829-59.057-6.567-63.57z" fill="#a63c30"/><path d="M342.259 130.481c-7.978 0-24.626-12.169-32.796-19.658-9.314-8.538-9.38-11.885-8.619-13.66 1.965-4.582 17.824-29.458 30.075-34.054 2.669-1.001 5.062-1.01 7.111-.027 7.421 3.565 10.719 29.029 11.054 44.243.293 13.291-1.192 20.906-4.414 22.633-.669.357-1.481.523-2.411.523zm-37.99-31.899c-.036.556.934 2.953 5.865 7.773 3.912 3.824 9.271 8.161 14.702 11.898 10.787 7.423 16.815 9.116 18.081 8.436.969-.536 2.84-6.188 2.435-20.231-.558-19.308-4.73-38.015-8.929-40.034-1.117-.537-2.492-.486-4.203.156-10.363 3.89-25.683 26.781-27.951 32.002z" fill="#7d271d"/><path d="M331.07 269.203c-29.181 11.368-62.918 17.136-81.283 16.082-18.444 1.059-52.393-4.762-81.659-16.23a190.783 190.783 0 0 1-11.823-5.08c-19.636-9.254-35.49-21.289-40.273-35.654-1.292-3.856-1.78-7.887-1.324-12.072 1.812-16.739 50.359-109.485 62.06-121.927 11.701-12.443 39.913-16.771 73.02-16.771 33.106 0 65.185 4.328 76.887 16.771 11.701 12.443 56.376 105.189 58.188 121.927 2.478 22.894-23.149 41.015-53.793 52.954z" fill="#e36254"/><path d="M331.176 265.511c0 1.24-.037 2.468-.106 3.692-29.181 11.368-62.918 17.136-81.283 16.082-18.444 1.059-52.393-4.762-81.659-16.23a60.488 60.488 0 0 1-.101-3.544c0-39.346 36.523-71.245 81.574-71.245s81.575 31.899 81.575 71.245z" fill="#ffe8db"/><circle cx="294.462" cy="178.983" fill="#fff" r="23.385"/><path d="M294.462 204.222c-13.917 0-25.239-11.322-25.239-25.239s11.322-25.239 25.239-25.239 25.24 11.322 25.24 25.239c-.001 13.917-11.323 25.239-25.24 25.239zm0-46.77c-11.873 0-21.531 9.659-21.531 21.532 0 11.872 9.659 21.531 21.531 21.531s21.532-9.659 21.532-21.531c-.001-11.873-9.66-21.532-21.532-21.532z"/><path d="M304.707 180.064c0 7.736-6.273 14.01-14.01 14.01s-14.01-6.274-14.01-14.01c0-7.741 6.274-14.015 14.01-14.015 3.41 0 6.54 1.223 8.968 3.25a9.52 9.52 0 0 0-.609.36c-3.597 2.281-5.353 5.967-3.921 8.234 1.436 2.263 5.522 2.25 9.124-.031.085-.053.169-.107.249-.164.133.77.199 1.561.199 2.366z"/><circle cx="204.029" cy="178.983" fill="#fff" r="23.385"/><path d="M204.029 204.222c-13.917 0-25.239-11.322-25.239-25.239s11.322-25.239 25.239-25.239 25.239 11.322 25.239 25.239-11.322 25.239-25.239 25.239zm0-46.77c-11.873 0-21.531 9.659-21.531 21.532 0 11.872 9.659 21.531 21.531 21.531s21.531-9.659 21.531-21.531c0-11.873-9.659-21.532-21.531-21.532z"/><path d="M193.783 180.064c0 7.736 6.274 14.01 14.01 14.01s14.01-6.274 14.01-14.01c0-.805-.067-1.596-.2-2.365-.085.053-.169.111-.254.164-3.597 2.281-7.683 2.294-9.119.031-1.432-2.268.32-5.954 3.922-8.234.2-.129.405-.249.609-.36a13.954 13.954 0 0 0-8.968-3.25c-7.736-.001-14.01 6.273-14.01 14.014zM238.109 199.523h21.631c2.632 0 4.066 3.074 2.375 5.091l-10.257 12.229a4.077 4.077 0 0 1-6.296-.059l-9.863-12.214c-1.638-2.028-.195-5.047 2.41-5.047z"/><g><path d="M229.941 125.992c.952 3.928-4.226 8.555-11.565 10.334s-14.061.037-15.013-3.891 4.225-8.555 11.565-10.334c7.339-1.779 14.061-.037 15.013 3.891z" fill="#ffe8db"/><path d="M212.743 138.878c-1.684 0-3.285-.187-4.734-.563-3.529-.915-5.819-2.848-6.448-5.444s.521-5.363 3.24-7.792c2.408-2.152 5.85-3.849 9.691-4.78 8.461-2.053 16.04.257 17.252 5.255v.001c1.212 4.999-4.468 10.521-12.93 12.573-2.062.5-4.122.75-6.071.75zm7.757-15.611c-1.581 0-3.321.196-5.135.636-3.211.778-6.161 2.215-8.093 3.942-1.626 1.453-2.394 2.967-2.107 4.154.288 1.186 1.664 2.181 3.775 2.728 2.508.651 5.789.577 9-.202 6.575-1.594 10.808-5.589 10.2-8.096-.441-1.815-3.494-3.162-7.64-3.162z" fill="#e0a58f"/></g><g><path d="M292.893 136.988c-1.515 3.747-8.419 4.49-15.421 1.659-7.001-2.831-11.449-8.164-9.934-11.911s8.419-4.49 15.421-1.659 11.449 8.164 9.934 11.911z" fill="#ffe8db"/><path d="M285.594 142.209c-2.695 0-5.738-.598-8.816-1.843-8.072-3.264-12.885-9.556-10.957-14.325 1.001-2.476 3.549-4.055 7.173-4.445 3.212-.347 6.997.28 10.661 1.762 8.072 3.265 12.885 9.556 10.957 14.325v.001c-1.193 2.949-4.647 4.525-9.018 4.525zm-10.839-16.996c-.471 0-.927.023-1.365.07-2.169.233-3.675 1.017-4.133 2.148-.967 2.392 2.638 6.962 8.91 9.497 6.272 2.537 12.04 1.756 13.007-.635s-2.638-6.961-8.91-9.497c-2.542-1.028-5.204-1.583-7.509-1.583zm18.138 11.775h.005z" fill="#e0a58f"/></g><path d="M163.605 202.466c-7.151 19.567-9.662 40.808-7.299 61.509-19.636-9.254-35.49-21.289-40.273-35.654a151.962 151.962 0 0 1 24.144-29.997c4.693-4.513 10.202-8.941 16.707-9.28 2.675-.138 5.625.609 7.183 2.791 2.154 3.009.809 7.156-.462 10.631zM335.868 202.466c7.151 19.567 9.662 40.808 7.299 61.509 19.636-9.254 35.49-21.289 40.273-35.654a151.926 151.926 0 0 0-24.144-29.997c-4.693-4.513-10.202-8.941-16.707-9.28-2.675-.138-5.625.609-7.183 2.791-2.155 3.009-.809 7.156.462 10.631z" fill="#ffe8db"/><g><path d="M245.349 287.258c-18.521 0-49.548-5.368-77.897-16.477a193.692 193.692 0 0 1-11.938-5.129c-22.508-10.608-36.77-23.314-41.242-36.746-1.406-4.195-1.88-8.522-1.408-12.858 1.849-17.086 50.481-110.159 62.553-122.996 10.829-11.516 35.851-17.355 74.37-17.355 23.124 0 64.037 2.254 78.237 17.355 12.458 13.248 56.88 106.358 58.68 122.997 2.242 20.708-17.276 40.199-54.961 54.881-30.661 11.944-64.401 17.186-81.956 16.211a79.11 79.11 0 0 1-4.438.117zm4.438-207.853c-37.456 0-61.569 5.446-71.669 16.187-11.451 12.177-59.826 104.766-61.568 120.857-.414 3.8.003 7.596 1.239 11.283 4.145 12.45 17.736 24.402 39.306 34.566a189.586 189.586 0 0 0 11.709 5.031c30.322 11.881 63.637 17.092 80.877 16.105.071-.004.142-.004.213 0 17.121.976 50.275-4.183 80.504-15.959 20.837-8.118 55.381-25.543 52.621-51.027-1.7-15.711-45.915-108.33-57.695-120.857-9.817-10.437-36.642-16.186-75.537-16.186zm81.283 189.798h.005z" fill="#a63c30"/></g><g><path d="M231.822 251.87c1.666 1.74 3.598 3.219 5.751 4.318 7.787 3.978 17.909 2.818 24.6-2.813a23.611 23.611 0 0 0 3.43-3.578c-2.59-2.458-5.849-4.261-9.643-5.21-8.67-2.063-18.303.7-24.138 7.283z" fill="#f22a4e"/><path d="M247.59 260.387c-3.758 0-7.508-.834-10.861-2.547-2.284-1.167-4.386-2.744-6.247-4.687a1.853 1.853 0 0 1-.048-2.512c6.24-7.041 16.427-10.124 25.954-7.857 4.075 1.019 7.598 2.924 10.49 5.669.692.656.773 1.731.187 2.484a25.573 25.573 0 0 1-3.699 3.858c-4.368 3.676-10.081 5.592-15.776 5.592zm-13.142-8.563a19.23 19.23 0 0 0 3.968 2.713c7.143 3.649 16.421 2.588 22.562-2.58a21.191 21.191 0 0 0 2.029-1.955c-2.154-1.695-4.669-2.909-7.498-3.616-7.464-1.777-15.702.4-21.061 5.438z"/></g><g><path d="M254.655 235.212c-4.381-4.481-6.325-11.071-5.641-17.3h-.27c.683 6.229-1.261 12.819-5.641 17.3-4.386 4.481-11.246 6.568-17.247 4.762l-.143-.048c.802 4.458 2.975 8.671 6.109 11.944 5.836-6.584 15.468-9.346 24.137-7.282 3.795.949 7.053 2.752 9.643 5.21 2.176-2.794 3.767-6.041 4.913-9.479-5.647 1.128-11.807-.964-15.86-5.107z" fill="#821629"/><path d="M231.822 253.724c-.505 0-.989-.206-1.339-.572-3.394-3.545-5.736-8.125-6.595-12.897a1.855 1.855 0 0 1 2.416-2.085l.11.036c5.168 1.543 11.339-.178 15.363-4.291 3.313-3.389 5.194-8.221 5.248-13.281-.001-.154-.002-.308 0-.462a21.256 21.256 0 0 0-.124-2.058 1.853 1.853 0 0 1 1.843-2.057h.27a1.853 1.853 0 0 1 1.843 2.057 21.256 21.256 0 0 0-.124 2.058c.002.154.001.308 0 .462.054 5.06 1.935 9.892 5.248 13.281 3.686 3.768 9.249 5.571 14.171 4.585a1.855 1.855 0 0 1 2.122 2.404c-1.293 3.879-3.046 7.255-5.209 10.032a1.857 1.857 0 0 1-2.739.206c-2.423-2.299-5.389-3.899-8.817-4.756-8.067-1.922-17.037.775-22.3 6.713a1.852 1.852 0 0 1-1.352.624l-.035.001zm-3.591-11.377a21.79 21.79 0 0 0 3.66 6.788c6.296-5.964 15.68-8.448 24.497-6.351 3.351.838 6.328 2.275 8.888 4.285a29.212 29.212 0 0 0 2.445-4.601l-.261.001c-5.144 0-10.42-2.168-14.13-5.961v-.001c-1.887-1.93-3.388-4.242-4.451-6.781-1.063 2.538-2.563 4.85-4.45 6.781-4.242 4.334-10.454 6.505-16.198 5.84z"/></g><g><path d="M267.458 242.471c-5.139 0-10.417-2.169-14.128-5.962-1.887-1.93-3.388-4.243-4.451-6.781-1.063 2.538-2.564 4.85-4.451 6.781-4.971 5.079-12.65 7.185-19.107 5.242a1.943 1.943 0 0 1-.058-.019l-.143-.048c-6.871-2.146-11.813-8.752-11.713-15.694a1.855 1.855 0 0 1 1.853-1.827h.027a1.854 1.854 0 0 1 1.827 1.881c-.076 5.252 3.858 10.46 9.15 12.113l.149.049c5.168 1.543 11.339-.178 15.363-4.291 3.314-3.39 5.195-8.223 5.248-13.286a21.357 21.357 0 0 0-.124-2.516 1.853 1.853 0 0 1 1.843-2.057h.27a1.853 1.853 0 0 1 1.843 2.057 21.04 21.04 0 0 0-.124 2.516c.053 5.062 1.934 9.895 5.249 13.286 3.686 3.768 9.247 5.572 14.17 4.584.404-.078.809-.178 1.215-.301 5.367-1.615 9.352-6.841 9.271-12.154a1.854 1.854 0 0 1 1.825-1.882h.029c1.011 0 1.838.812 1.853 1.826.105 6.91-5.014 13.686-11.908 15.761a17.375 17.375 0 0 1-4.978.722z"/></g></g></svg>