<svg id="Capa_1" enable-background="new 0 0 512 512" viewBox="0 0 512 512" xmlns="http://www.w3.org/2000/svg"><g><g><g><path d="m407.129 357.447c28.596-6.135 52.979-21.2 70.854-41.647 19.676-22.507 8.881-57.841-20.038-65.417-14.904-3.905-30.967.56-41.156 12.116-6.753 7.659-15.931 13.3-26.681 15.606s-21.434.927-30.735-3.288c-13.675-6.197-29.61-4.571-41.295 4.856l-.742.598c-23.481 18.946-18.846 56.062 8.639 68.507 24.561 11.121 52.769 14.759 81.154 8.669z" fill="#80d261"/><path d="m457.945 250.383c-7.771-2.036-15.85-1.776-23.254.557 13.722 14.268 15.819 37.864 1.292 54.481-17.875 20.447-42.258 35.512-70.854 41.647-12.54 2.69-25.045 3.479-37.217 2.566 24.102 10.446 51.575 13.744 79.217 7.813 28.596-6.135 52.979-21.2 70.854-41.647 19.676-22.507 8.881-57.841-20.038-65.417z" fill="#68ca44"/><path d="m166.728 270.836c28.097 8.118 56.706 6.374 82.125-3.189 27.98-10.526 35.179-46.765 13.281-67.116-11.286-10.489-27.55-14.151-41.993-8.787-9.572 3.555-20.326 4.185-30.89 1.133-10.563-3.052-19.324-9.32-25.526-17.432-9.119-11.927-23.928-18.031-38.682-15.25l-.937.177c-29.649 5.589-43.118 40.485-24.786 64.448 16.384 21.413 39.518 37.958 67.408 46.016z" fill="#ffe177"/><path d="m262.134 200.531c-3.645-3.387-7.813-6.051-12.268-7.94 1.131 16.775-8.241 33.839-26.016 40.526-25.419 9.563-54.028 11.306-82.125 3.188-19.009-5.492-35.803-14.933-49.762-27.165 1.226 5.453 3.621 10.794 7.358 15.678 16.382 21.413 39.517 37.959 67.407 46.017 28.097 8.118 56.706 6.374 82.125-3.189 27.981-10.525 35.179-46.763 13.281-67.115z" fill="#ffd15b"/><g><path d="m414.589 103.573c-16.339-24.257-39.398-41.28-65.029-50.259-28.214-9.884-56.99 13.288-53.257 42.949 1.924 15.287 12.047 28.533 26.566 33.688 9.623 3.417 18.274 9.835 24.417 18.954s8.839 19.549 8.389 29.75c-.661 14.999 6.779 29.184 19.879 36.519l.831.466c26.325 14.741 59.049-3.377 60.368-33.519 1.178-26.934-5.946-54.47-22.164-78.548z" fill="#fe646f"/><g><path d="m414.589 103.573c-6.499-9.649-14.076-18.133-22.44-25.441 9.49 19.758 13.617 41.052 12.701 61.99-1.136 25.966-25.577 42.988-49.156 37.788-.007.249-.008.498-.018.746-.661 14.999 6.779 29.184 19.879 36.52l.831.466c26.325 14.741 59.049-3.377 60.368-33.52 1.177-26.935-5.947-54.471-22.165-78.549z" fill="#fd4755"/></g></g><g><path d="m28.712 381.16c7.779 28.193 24.231 51.663 45.677 68.325 23.608 18.341 58.258 5.519 64.148-23.79 3.036-15.105-2.351-30.882-14.478-40.386-8.037-6.299-14.2-15.134-17.124-25.733-2.925-10.599-2.165-21.345 1.504-30.874 5.395-14.011 2.85-29.825-7.238-40.945l-.64-.706c-20.273-22.346-57.059-15.571-67.892 12.589-9.68 25.163-11.679 53.535-3.957 81.52z" fill="#62dbfb"/><g><path d="m124.06 385.309c-2.475-1.94-4.771-4.122-6.851-6.521-.133 1.638-.344 3.276-.672 4.907-5.89 29.309-40.54 42.131-64.148 23.79-8.331-6.472-15.896-13.984-22.504-22.389 8.183 26.439 24.066 48.511 44.504 64.389 23.608 18.341 58.258 5.519 64.148-23.79 3.036-15.105-2.351-30.883-14.477-40.386z" fill="#01d0fb"/></g></g><path d="m254.699 67.001c21.815-21.815 6.621-59.322-24.229-59.5-21.716-.125-43.471 8.097-60.041 24.666s-24.791 38.324-24.666 60.041c.178 30.85 37.685 46.044 59.5 24.229z" fill="#fe9738"/><path d="m254.699 25.289-49.436 49.436c-17.611 17.611-45.437 11.095-55.606-8.298-2.63 8.378-3.944 17.08-3.894 25.781.178 30.85 37.685 46.044 59.5 24.229l49.436-49.436c13.361-13.361 12.822-32.596 3.324-45.548-.998 1.32-2.094 2.606-3.324 3.836z" fill="#fe860a"/><path d="m342.244 437.93c-26.623 15.588-21.41 55.718 8.392 63.693 20.978 5.614 44.106 3.162 64.327-8.678s33.678-30.808 39.05-51.85c7.631-29.892-24.814-54.078-51.437-38.491z" fill="#fe9738"/><path d="m434.139 400.709c.003 2.88-.352 5.853-1.127 8.887-5.371 21.042-18.829 40.01-39.05 51.85-20.221 11.839-43.349 14.292-64.327 8.678-1.624-.435-3.162-.981-4.639-1.598.234 14.473 9.175 28.692 25.639 33.098 20.978 5.614 44.106 3.162 64.327-8.678s33.678-30.808 39.05-51.85c4.605-18.035-5.381-33.988-19.873-40.387z" fill="#fe860a"/><path d="m230.686 442.725c21.815 21.815 59.322 6.621 59.5-24.229.125-21.716-8.097-43.471-24.666-60.041-16.569-16.569-38.324-24.791-60.041-24.666-30.85.178-46.044 37.685-24.229 59.5z" fill="#6e61b6"/><path d="m265.52 358.455c-2.55-2.55-5.236-4.878-8.013-7.033 2.399 9.355 3.578 18.958 3.523 28.556-.161 27.919-23.326 46.182-47.245 45.845l16.901 16.901c21.815 21.815 59.322 6.621 59.5-24.229.125-21.716-8.097-43.471-24.666-60.04z" fill="#6354b1"/></g></g><g><path d="m493.343 275.246c-4.884-15.896-17.407-27.902-33.498-32.118-17.752-4.649-36.862 1.007-48.682 14.412-5.96 6.76-13.786 11.336-22.629 13.234-8.843 1.897-17.857.934-26.066-2.787-16.529-7.491-35.343-5.249-49.099 5.85l-.743.599c-13.098 10.567-19.645 26.849-17.514 43.554 2.124 16.647 12.504 30.711 27.769 37.623 18.019 8.158 37.207 12.288 56.618 12.288 9.718 0 19.494-1.035 29.204-3.119 29.327-6.293 55.24-21.523 74.927-44.044 10.976-12.557 14.607-29.563 9.713-45.492zm-21.006 35.618c-17.544 20.069-40.636 33.641-66.78 39.25-25.943 5.566-52.393 2.742-76.488-8.168-10.485-4.747-17.616-14.413-19.076-25.855-1.467-11.5 3.039-22.708 12.052-29.981l.743-.599c5.639-4.55 12.562-6.888 19.664-6.888 4.636 0 9.348.997 13.826 3.026 11.156 5.055 23.397 6.367 35.404 3.791 12.006-2.576 22.634-8.793 30.733-17.979 8.107-9.194 21.308-13.051 33.63-9.821 11.03 2.889 19.613 11.119 22.96 22.013 3.357 10.926.864 22.594-6.668 31.211z"/><path d="m164.647 278.042c12.674 3.661 25.584 5.488 38.452 5.487 16.388 0 32.712-2.962 48.395-8.862 15.609-5.872 26.851-19.139 30.072-35.489 3.214-16.316-2.142-32.817-14.326-44.141-13.444-12.495-32.957-16.547-49.71-10.324-8.449 3.137-17.507 3.469-26.197.958-8.689-2.511-16.175-7.622-21.649-14.782-11.021-14.417-28.658-21.34-46.027-18.065l-.938.177c-16.538 3.117-30.006 14.367-36.028 30.093-6.001 15.672-3.506 32.974 6.675 46.282 18.034 23.576 42.683 40.403 71.281 48.666zm-63.95-89.583c4.146-10.827 13.417-18.572 24.797-20.717l.938-.177c1.911-.36 3.828-.536 5.731-.536 9.819 0 19.271 4.688 25.604 12.971 7.438 9.73 17.606 16.674 29.402 20.082 11.797 3.409 24.101 2.957 35.583-1.307 11.491-4.268 24.946-1.422 34.277 7.25 8.352 7.762 12.023 19.072 9.82 30.254-2.209 11.216-9.924 20.318-20.636 24.349-24.95 9.387-51.714 10.424-77.403 3.003-25.491-7.364-47.46-22.361-63.532-43.368-6.993-9.142-8.706-21.031-4.581-31.804z"/><path d="m320.359 137.02c8.493 3.016 15.653 8.575 20.706 16.076 5.053 7.502 7.514 16.226 7.117 25.23-.799 18.129 8.285 34.757 23.709 43.395l.83.464c7.355 4.119 15.428 6.178 23.504 6.178 8.047 0 16.097-2.045 23.439-6.136 14.66-8.167 23.85-23.038 24.582-39.778 1.297-29.654-6.807-58.378-23.436-83.066-5.924-8.795-12.887-16.927-20.696-24.171-3.037-2.817-7.782-2.638-10.599.398-2.817 3.037-2.639 7.782.398 10.599 6.965 6.461 13.175 13.713 18.456 21.554 14.824 22.007 22.048 47.607 20.892 74.031-.503 11.499-6.82 21.715-16.897 27.33-10.128 5.644-22.208 5.633-32.315-.027l-.83-.464c-10.449-5.851-16.599-17.211-16.051-29.645.54-12.235-2.801-24.086-9.661-34.271-6.86-10.184-16.586-17.733-28.127-21.832-11.552-4.103-20.044-14.919-21.634-27.558-1.424-11.312 3.019-22.342 11.884-29.504 8.893-7.185 20.651-9.214 31.451-5.43 5.148 1.804 10.326 4.032 15.39 6.624 3.686 1.887 8.206.429 10.093-3.259s.428-8.206-3.259-10.093c-5.667-2.9-11.476-5.399-17.264-7.427-15.74-5.515-32.875-2.553-45.837 7.918-12.936 10.45-19.418 26.542-17.341 43.045 2.29 18.208 14.654 33.838 31.496 39.819z"/><path d="m128.686 379.405c-7.093-5.559-12.115-13.106-14.521-21.825s-1.965-17.773 1.273-26.184c6.521-16.935 3.195-35.588-8.682-48.68l-.64-.706c-11.308-12.464-27.943-18.059-44.494-14.964-16.496 3.083-29.936 14.26-35.953 29.899-5.678 14.76-8.756 30.241-9.146 46.013-.103 4.141 3.171 7.581 7.312 7.683 4.156.133 7.582-3.171 7.683-7.312.348-14.051 3.09-27.845 8.151-40.999 4.132-10.742 13.37-18.421 24.708-20.54 11.399-2.128 22.847 1.72 30.629 10.298l.64.706c8.046 8.869 10.267 21.595 5.793 33.21-4.401 11.429-5.001 23.727-1.735 35.564 3.267 11.837 10.088 22.087 19.728 29.642 9.648 7.562 14.261 20.517 11.751 33.005-2.247 11.178-9.965 20.224-20.648 24.196-10.716 3.983-22.507 2.171-31.545-4.851-21.05-16.354-35.937-38.622-43.049-64.397-.269-.976-.521-1.952-.766-2.927-1.006-4.019-5.082-6.461-9.097-5.454-4.018 1.006-6.46 5.079-5.454 9.097.273 1.092.556 2.184.857 3.275 7.979 28.916 24.684 53.9 48.307 72.252 8.561 6.651 18.82 10.095 29.243 10.095 5.61 0 11.267-.998 16.732-3.03 15.587-5.796 26.849-18.992 30.126-35.3 3.617-17.991-3.136-36.741-17.203-47.766z"/><path d="m164.422 130.957c5.39 2.215 10.95 3.296 16.426 3.296 10.926 0 21.513-4.307 29.718-12.513l49.436-49.436c12.316-12.318 15.85-30 9.217-46.144-6.588-16.035-21.419-26.059-38.705-26.159-.183-.001-.364-.001-.547-.001-24.496 0-47.505 9.528-64.841 26.864-17.465 17.465-27.005 40.686-26.863 65.387.1 17.287 10.124 32.118 26.159 38.706zm11.311-93.487c14.502-14.501 33.745-22.47 54.237-22.47.151 0 .306 0 .457.001 13.297.077 21.59 8.759 24.918 16.859 3.363 8.186 3.566 20.322-5.949 29.837l-49.436 49.436c-9.516 9.515-21.652 9.311-29.838 5.949-8.1-3.328-16.782-11.622-16.859-24.918-.118-20.661 7.862-40.085 22.47-54.694z"/><path d="m445.762 398.857c-13.942-10.5-31.942-11.556-46.975-2.754l-20.988 12.289c-3.575 2.093-4.775 6.687-2.683 10.262 2.093 3.574 6.688 4.774 10.262 2.683l20.988-12.289c11.612-6.798 23.303-3.532 30.372 1.792 6.995 5.268 13.297 15.488 10.008 28.372-5.11 20.02-17.743 36.793-35.572 47.232-17.828 10.438-38.64 13.246-58.598 7.905-12.845-3.438-18.673-13.935-19.844-22.613-1.183-8.77 1.69-20.563 13.302-27.363l9.14-5.352c3.574-2.093 4.775-6.687 2.683-10.262-2.093-3.574-6.687-4.775-10.262-2.683l-9.14 5.352c-15.033 8.802-22.922 25.015-20.588 42.313 2.318 17.18 14.132 30.629 30.831 35.098 7.904 2.115 15.918 3.161 23.878 3.161 16.072 0 31.922-4.266 46.177-12.612 21.315-12.479 36.418-32.533 42.527-56.467 4.276-16.75-1.671-33.634-15.518-44.064z"/><path d="m205.436 326.289c-17.287.1-32.118 10.123-38.706 26.158-6.633 16.145-3.102 33.827 9.217 46.145l49.436 49.436c8.206 8.207 18.792 12.513 29.718 12.513 5.475 0 11.037-1.082 16.426-3.295 16.035-6.588 26.059-21.419 26.159-38.707.142-24.701-9.398-47.922-26.863-65.387-17.464-17.464-40.709-26.969-65.387-26.863zm60.39 117.081c-8.186 3.363-20.323 3.565-29.837-5.949l-49.436-49.436c-9.515-9.515-9.312-21.652-5.949-29.838 3.328-8.1 11.621-16.782 24.917-16.859.153-.001.303-.001.456-.001 20.491 0 39.738 7.97 54.239 22.471 14.608 14.608 22.588 34.032 22.469 54.694-.076 13.297-8.759 21.59-16.859 24.918z"/></g></g><g/><g/><g/><g/><g/><g/><g/><g/><g/><g/><g/><g/><g/><g/><g/></svg>