<svg height="512" width="512" xmlns="http://www.w3.org/2000/svg"><g fill="#e36254"><path d="M362.779 381.115c-10.204-.13-20.424-3.415-27.793-9.913-.22 4.922-.582 9.773-1.23 14.503a92.293 92.293 0 0 1-.766 4.804c6.159 6.656 14.634 9.283 23.445 10.21 2.246-4.121 3.944-8.578 5.1-13.096a57.221 57.221 0 0 0 1.244-6.508zM364.676 353.898c.672-4.832 1.882-9.53 4.229-13.993-5.681-2.419-10.924-6.258-15.576-10.727-6.003-5.984-9.86-13.623-12.011-21.554-3.479 9.71-4.839 20.075-5.435 30.619 5.546 9.43 17.211 14.633 28.793 15.655zM375.847 320.65a40.633 40.633 0 0 0 6.549 5.586c6.854-3.718 14.624-5.485 21.278-9.114a38.576 38.576 0 0 1-7.501-5.133c-11.214-9.652-18.768-25.968-14.509-40.455-6.88.824-13.463 3.527-19.234 7.489-2.378 14.865 2.495 30.24 13.417 41.627z"/></g><path d="M353.329 329.178c4.652 4.469 9.894 8.307 15.576 10.727a34.63 34.63 0 0 1 5.145-7.297c2.488-2.72 5.328-4.734 8.346-6.371a40.59 40.59 0 0 1-6.549-5.586c-10.923-11.388-15.795-26.762-13.417-41.627a50.915 50.915 0 0 0-10.678 9.875c-4.737 5.841-8.071 12.134-10.433 18.727 2.15 7.929 6.008 15.568 12.01 21.552z" fill="#a63c30"/><path d="M368.904 341.826c-.251 0-.507-.05-.752-.154-5.47-2.329-10.905-6.067-16.154-11.109a.295.295 0 0 1-.025-.025c-5.766-5.747-10.091-13.497-12.509-22.412a1.917 1.917 0 0 1 .046-1.151c2.606-7.273 6.122-13.583 10.75-19.289a52.647 52.647 0 0 1 11.082-10.248 1.922 1.922 0 0 1 2.985 1.887c-2.311 14.455 2.393 29.032 12.907 39.994a38.939 38.939 0 0 0 6.251 5.333 1.92 1.92 0 0 1-.173 3.272c-3.173 1.722-5.74 3.677-7.844 5.979a32.548 32.548 0 0 0-4.863 6.895 1.92 1.92 0 0 1-1.701 1.028zm-14.231-14.021c4.398 4.222 8.904 7.453 13.416 9.621a36.506 36.506 0 0 1 4.544-6.115c1.795-1.963 3.868-3.696 6.289-5.252a42.13 42.13 0 0 1-4.471-4.089c-10.25-10.687-15.383-24.589-14.432-38.718a49.06 49.06 0 0 0-6.774 6.856c-4.23 5.215-7.475 10.976-9.91 17.596 2.266 8.013 6.179 14.953 11.338 20.101z" fill="#7d271d"/><path d="M362.779 381.115c1.24-9.13.67-18.4 1.897-27.217-11.582-1.022-23.246-6.225-28.792-15.655-.621 10.97-.414 22.134-.897 32.959 7.368 6.498 17.588 9.783 27.792 9.913z" fill="#a63c30"/><path d="M362.78 383.037h-.025c-11.125-.141-21.709-3.93-29.039-10.393a1.921 1.921 0 0 1-.649-1.527c.219-4.903.296-9.985.372-14.899.091-5.934.185-12.07.526-18.082a1.922 1.922 0 0 1 3.574-.866c4.781 8.127 14.988 13.628 27.306 14.715a1.921 1.921 0 0 1 1.734 2.178c-.6 4.31-.759 8.672-.926 13.291-.166 4.552-.337 9.259-.97 13.92a1.92 1.92 0 0 1-1.903 1.663zm-25.834-12.686c6.236 5.185 14.905 8.337 24.141 8.79.439-3.93.584-7.936.726-11.827.141-3.858.285-7.828.715-11.714-10.357-1.307-19.256-5.582-24.969-11.875-.148 4.199-.213 8.424-.277 12.552-.071 4.63-.145 9.409-.336 14.074z" fill="#7d271d"/><path d="M327.296 403.594c-5.46 6.004-14.266 7.294-22.329 8.218-1.473 2.238-.339 4.887 2.094 6.01 10.455 4.827 23.174 4.971 33.326-.464 6.926-3.709 12.265-9.696 16.049-16.638-8.811-.927-17.286-3.555-23.445-10.21-.925 4.816-2.442 9.506-5.695 13.084z" fill="#a63c30"/><path d="M323.532 423.341c-5.865 0-11.82-1.255-17.277-3.774-1.815-.838-3.145-2.331-3.649-4.095-.458-1.604-.189-3.279.756-4.716a1.925 1.925 0 0 1 1.386-.853c8.362-.959 16.27-2.262 21.126-7.602 2.54-2.793 4.152-6.541 5.229-12.154a1.921 1.921 0 0 1 3.297-.943c5.012 5.416 12.286 8.557 22.236 9.604a1.922 1.922 0 0 1 1.486 2.83c-4.23 7.761-10.049 13.783-16.829 17.413-5.333 2.856-11.495 4.29-17.761 4.29zm-17.268-9.746c-.054.271-.041.546.038.822.193.677.778 1.298 1.564 1.661 10.216 4.716 22.328 4.558 31.614-.414 5.393-2.888 10.135-7.493 13.835-13.409-7.989-1.219-14.319-3.858-19.2-8.01-.919 3.449-2.478 7.43-5.398 10.641-5.525 6.077-13.734 7.666-22.453 8.709z" fill="#7d271d"/><path d="M385.535 271.27c-1.298.019-2.59.11-3.871.264-4.259 14.487 3.296 30.803 14.509 40.455a38.488 38.488 0 0 0 7.501 5.133c4.422-2.412 8.351-5.646 11.187-10.828 10.738-19.621-11.354-35.291-29.326-35.024z" fill="#a63c30"/><path d="M403.674 319.043a1.91 1.91 0 0 1-.892-.22 40.667 40.667 0 0 1-7.874-5.389c-10.589-9.114-19.835-26.291-15.088-42.443a1.923 1.923 0 0 1 1.615-1.366 39.14 39.14 0 0 1 4.071-.277c12.292-.184 25.342 6.489 30.993 15.864 2.891 4.796 5.245 12.505.047 22.003-2.699 4.933-6.497 8.617-11.952 11.593a1.91 1.91 0 0 1-.92.235zm-20.499-45.732c-3.453 14.159 4.831 29.113 14.252 37.222a36.83 36.83 0 0 0 6.229 4.394c4.299-2.513 7.339-5.569 9.52-9.555 3.421-6.251 3.432-12.536.033-18.175-4.846-8.039-16.486-14.009-27.219-14.009a34.795 34.795 0 0 0-2.815.123z" fill="#7d271d"/><g><path d="M323.532 423.341c-5.865 0-11.82-1.255-17.277-3.774-1.815-.838-3.145-2.331-3.649-4.095-.458-1.604-.189-3.279.756-4.716a1.925 1.925 0 0 1 1.386-.853c8.362-.959 16.27-2.262 21.126-7.602 3.988-4.387 5.141-10.733 5.979-16.857 1.281-9.356 1.435-19.457 1.583-29.226.365-23.942.741-48.7 16.824-68.531 9.157-11.291 22.333-18.146 35.246-18.338.165-.002.33-.004.495-.004 12.16 0 24.923 6.618 30.498 15.868 2.891 4.795 5.245 12.505.047 22.003-5.306 9.696-14.164 13.011-22.731 16.217-6.859 2.567-13.337 4.992-18.348 10.47-8.961 9.799-9.377 21.335-9.817 33.548-.244 6.771-.496 13.774-2.255 20.647-3.601 14.078-11.657 25.36-22.103 30.953-5.332 2.856-11.494 4.29-17.76 4.29zm-15.666-7.263c10.216 4.716 22.328 4.558 31.614-.414 9.499-5.086 16.859-15.48 20.194-28.517 1.655-6.473 1.9-13.265 2.137-19.833.446-12.37.907-25.162 10.821-36.003 5.634-6.16 12.854-8.862 19.837-11.476 8.273-3.096 16.086-6.021 20.706-14.463 3.421-6.251 3.432-12.536.033-18.175-4.846-8.039-16.485-14.009-27.219-14.009-.143 0-.284.001-.427.003-11.788.175-23.87 6.499-32.318 16.916-15.245 18.799-15.612 42.881-15.966 66.169-.151 9.884-.306 20.103-1.618 29.689-.88 6.428-2.215 13.72-6.943 18.921-5.525 6.076-13.734 7.666-22.453 8.708-.054.271-.041.546.038.822.192.678.777 1.298 1.564 1.662z" fill="#7d271d"/></g><g><path d="M217.409 395.92c-29.405 12.491-75.353 29.976-75.353 29.976s-17.947-19.301-23.428-13.357 1.707 40.353 10.743 44.315c9.036 3.961 87.042-1.164 87.042-1.164z" fill="#a63c30"/><path d="M150.505 460.274c-10.656 0-19.113-.437-21.906-1.661-5.82-2.552-10.139-14.184-12.239-24.22-.89-4.25-3.458-18.481.855-23.157 1.056-1.145 2.504-1.752 4.186-1.755h.013c6.901 0 17.784 10.677 21.152 14.163 7.423-2.836 47.686-18.276 74.092-29.492a1.924 1.924 0 0 1 2.673 1.801l-.998 59.769a1.921 1.921 0 0 1-1.795 1.885c-5.593.367-41.589 2.667-66.033 2.667zm-29.089-46.95h-.008c-.791.002-1.146.278-1.368.518-1.603 1.738-2.119 9.255.081 19.765 2.283 10.906 6.497 19.943 10.021 21.488 6.196 2.717 53.172.801 84.379-1.207l.918-55.048c-29.15 12.266-72.255 28.683-72.7 28.852a1.922 1.922 0 0 1-2.09-.487c-4.995-5.369-14.63-13.881-19.233-13.881z" fill="#7d271d"/></g><g><path d="M285.68 395.92c29.405 12.491 75.353 29.976 75.353 29.976s17.947-19.301 23.428-13.357-1.707 40.353-10.743 44.315c-9.036 3.961-87.042-1.164-87.042-1.164z" fill="#a63c30"/><path d="M352.584 460.274c-24.444 0-60.44-2.3-66.034-2.668a1.922 1.922 0 0 1-1.795-1.885l-.996-59.769a1.922 1.922 0 0 1 2.672-1.801c26.405 11.216 66.669 26.656 74.091 29.492 3.369-3.486 14.251-14.163 21.152-14.163h.013c1.682.003 3.13.611 4.186 1.756 4.313 4.676 1.745 18.907.855 23.157-2.1 10.036-6.419 21.668-12.239 24.22-2.791 1.224-11.252 1.661-21.905 1.661zm-64.016-6.387c31.208 2.008 78.184 3.923 84.379 1.207 3.524-1.545 7.738-10.581 10.021-21.488 2.2-10.509 1.684-18.027.081-19.764-.221-.24-.577-.517-1.368-.518h-.008c-4.608 0-14.24 8.512-19.232 13.88a1.92 1.92 0 0 1-2.091.487c-.446-.169-43.55-16.586-72.7-28.852z" fill="#7d271d"/></g><path d="M329.412 424.158c-10.71 29.154-56.519 37.004-78.345 37.004s-65.774-7.85-76.484-37.004c-8.794-23.923 6.324-64.078 22.188-101.883.587-1.394 1.169-2.783 1.757-4.166 2.887-6.834 5.775-13.564 8.514-20.086h89.911c2.624 6.241 5.38 12.675 8.141 19.207.527 1.246 1.054 2.498 1.581 3.749 16.062 38.18 31.63 78.982 22.737 103.179z" fill="#e36254"/><path d="M305.094 317.23c-36.982 19.707-83.17 17.11-108.322 5.045.587-1.394 1.169-2.783 1.757-4.166 2.887-6.834 5.775-13.564 8.514-20.086h89.911c2.623 6.241 5.379 12.675 8.14 19.207z" fill="#a63c30"/><g><path d="M251.068 463.083c-22.217 0-67.169-7.997-78.287-38.263-9.199-25.021 6.802-66.806 23.978-107.46 1.238-2.93 2.476-5.841 3.702-8.725 1.633-3.841 3.246-7.633 4.81-11.357.3-.713.998-1.177 1.771-1.177h89.911c.773 0 1.471.464 1.771 1.177 1.581 3.764 3.211 7.598 4.862 11.482 1.609 3.785 3.237 7.616 4.86 11.474 16.529 39.289 31.9 79.731 22.769 104.586-4.854 13.214-17.356 23.788-36.155 30.579-15.679 5.665-33.006 7.684-43.992 7.684zm-42.749-163.139c-1.411 3.35-2.858 6.753-4.322 10.195-1.225 2.881-2.462 5.789-3.699 8.717-16.878 39.947-32.627 80.932-23.911 104.639 5.638 15.348 21.025 23.859 32.941 28.297 18.556 6.911 36.64 7.449 41.74 7.449 25.489 0 66.907-9.52 76.541-35.745 8.652-23.542-7.183-64.876-22.705-101.771a3233.886 3233.886 0 0 0-4.854-11.461 3207.756 3207.756 0 0 1-4.372-10.319h-87.359z" fill="#7d271d"/></g><g><path d="M186.712 110.35c-13.99-11.554-22.005-16.391-37.421-26.426-8.459-5.506-18.436-11.787-29.524-10.936-4.672.359-8.008 4.495-3.675 7.987 1.772 1.428 4.197 1.983 6.519 2.491-3.487.213-5.749.671-8.94 1.962-3.19 1.291-6.059 3.381-7.689 6.15-.862 1.463-1.322 3.352-.252 4.689.84 1.051 2.428 1.45 3.872 1.322 1.444-.129 2.789-.698 4.1-1.259-9.649 29.012-1.536 81.926 13.329 95.929z" fill="#ffe8db"/><path d="M127.03 194.18c-.472 0-.946-.173-1.317-.523-15.211-14.328-22.85-64.635-14.92-94.303a9.594 9.594 0 0 1-1.022.148c-2.259.2-4.378-.579-5.542-2.035-1.423-1.778-1.387-4.344.097-6.864 1.728-2.935 4.791-5.406 8.624-6.957a33.58 33.58 0 0 1 2.351-.86c-.14-.101-.279-.206-.415-.315-2.293-1.848-3.202-4.215-2.495-6.494.827-2.665 3.732-4.636 7.229-4.904 12.04-.923 22.832 6.108 30.719 11.242 1.918 1.248 3.722 2.416 5.436 3.527 11.939 7.733 19.827 12.842 32.161 23.028a1.921 1.921 0 1 1-2.447 2.963C173.327 101.788 165.934 97 153.686 89.068a2665.226 2665.226 0 0 1-5.443-3.532c-7.84-5.103-17.588-11.453-28.329-10.63-2.107.162-3.557 1.26-3.853 2.211-.28.904.517 1.785 1.236 2.364 1.461 1.177 3.726 1.673 5.724 2.11a1.921 1.921 0 0 1-.294 3.795c-3.409.208-5.435.651-8.337 1.825-3.053 1.236-5.452 3.134-6.755 5.344-.473.803-.863 1.944-.407 2.514.348.435 1.269.692 2.201.608 1.157-.103 2.355-.616 3.514-1.112a1.922 1.922 0 0 1 2.579 2.373c-4.388 13.194-5.304 32.9-2.45 52.713 2.757 19.144 8.61 34.935 15.273 41.212a1.92 1.92 0 0 1-1.315 3.317z" fill="#e0a58f"/><path d="M132.623 100.238c9.881-7.21 37.789 21.565 41.575 27.25s-28.55 41.25-36.31 38.769-13.991-59.652-5.265-66.019z" fill="#a63c30"/><path d="M138.654 168.285a4.43 4.43 0 0 1-1.351-.197c-3.609-1.154-6.555-8.635-8.756-22.237-2.52-15.566-3.947-42.135 2.944-47.165 1.903-1.389 4.343-1.829 7.252-1.31 13.349 2.38 34.19 24.747 37.055 29.048 1.109 1.666 1.671 5.089-6.216 15.543-7.274 9.64-23.127 26.317-30.928 26.318zm-2.178-67.28c-1.104 0-2.001.26-2.721.785-3.9 2.845-4.633 22.697-1.569 42.482 2.229 14.385 5.198 19.792 6.287 20.156 1.414.45 7.239-2.402 16.837-11.996 4.832-4.83 9.478-10.258 12.746-14.892 4.119-5.84 4.657-8.467 4.516-9.026-3.293-4.894-23.212-25.342-34.505-27.355a8.993 8.993 0 0 0-1.591-.154zm-3.852-.767h.005z" fill="#7d271d"/><path d="M261.406 96.564c8.944-15.787 14.704-23.166 25.522-38.044 5.936-8.163 13.014-17.592 23.674-20.755 4.492-1.333 9.085 1.34 6.284 6.149-1.146 1.967-3.212 3.35-5.2 4.654 3.334-1.046 5.61-1.425 9.051-1.359 3.441.067 6.866.996 9.378 3 1.327 1.059 2.431 2.659 1.91 4.29-.41 1.281-1.75 2.221-3.145 2.617s-2.854.343-4.279.287c19.37 23.656 30.681 75.98 21.794 94.367z" fill="#ffe8db"/><path d="M346.394 153.692a1.921 1.921 0 0 1-1.729-2.758c3.984-8.242 3.813-25.082-.445-43.948-4.406-19.527-12.296-37.607-21.106-48.365a1.922 1.922 0 0 1 1.562-3.137c1.259.049 2.563.101 3.68-.216.896-.254 1.669-.823 1.838-1.353.223-.696-.549-1.622-1.277-2.204-2.006-1.6-4.924-2.517-8.217-2.581-3.127-.062-5.179.248-8.439 1.271a1.92 1.92 0 0 1-1.628-3.44c1.711-1.121 3.649-2.392 4.594-4.014.465-.798.896-1.905.311-2.649-.616-.783-2.362-1.292-4.389-.69-10.319 3.062-17.456 12.876-22.666 20.042a3790.84 3790.84 0 0 1-3.825 5.245c-8.608 11.781-13.804 18.893-21.58 32.616a1.922 1.922 0 1 1-3.343-1.894c7.885-13.917 13.428-21.504 21.82-32.989 1.206-1.65 2.474-3.386 3.82-5.237 5.534-7.611 13.113-18.034 24.681-21.467 3.364-.998 6.78-.193 8.504 2 1.474 1.877 1.47 4.413-.012 6.957-.088.15-.18.298-.275.443a34.483 34.483 0 0 1 2.503-.036c4.133.08 7.876 1.294 10.539 3.419 2.285 1.823 3.235 4.207 2.541 6.377-.568 1.776-2.273 3.263-4.451 3.88a9.26 9.26 0 0 1-1.007.226c17.999 24.882 28.822 74.601 19.728 93.415a1.922 1.922 0 0 1-1.732 1.087z" fill="#e0a58f"/><path d="M308.322 67.809c-11.804-3.207-27.601 33.634-29.108 40.296s41.395 28.341 47.758 23.253-8.226-60.716-18.65-63.549z" fill="#a63c30"/><path d="M323.859 134.007c-8.941.001-26.143-8.377-35.167-14.027-11.097-6.949-11.794-10.347-11.352-12.298 1.141-5.039 12.625-33.373 24.244-40.362 2.533-1.523 4.971-1.981 7.242-1.365 8.232 2.237 16.383 27.566 19.587 43.007 2.799 13.491 2.718 21.531-.241 23.897-.998.797-2.484 1.148-4.313 1.148zm-42.761-25.524c.068.574 1.508 2.834 7.44 6.819 4.707 3.161 10.984 6.573 17.221 9.36 12.39 5.536 18.851 6.124 20.013 5.196.887-.73 1.73-6.842-1.326-21.08-4.2-19.571-11.97-37.849-16.629-39.114-1.239-.336-2.631-.026-4.254.949-9.828 5.911-21.136 32.123-22.465 37.87z" fill="#7d271d"/><path d="M340.505 277.322c-27.601 17.073-60.897 29.298-79.811 31.678-18.597 4.549-54.29 5.002-86.272-1.18a197.799 197.799 0 0 1-13.004-2.953c-21.752-5.737-40.172-15.02-47.749-28.76-2.043-3.687-3.297-7.703-3.62-12.053-1.302-17.399 30.727-121.048 40.311-135.93 9.584-14.881 37.521-24.598 71.26-30.825s67.244-7.851 81.509 2.629 77.239 96.594 82.234 113.311c6.833 22.864-15.876 46.151-44.858 64.083z" fill="#e36254"/><circle cx="286.226" cy="192.264" fill="#fff" transform="rotate(-19.78 285.658 192.162)" r="24.235"/><path d="M286.215 218.423c-12.365 0-23.387-8.825-25.71-21.411-2.618-14.183 6.792-27.851 20.974-30.469 6.869-1.269 13.823.215 19.578 4.176 5.755 3.962 9.622 9.927 10.89 16.797 1.268 6.87-.215 13.823-4.177 19.579-3.962 5.755-9.927 9.622-16.797 10.89a26.09 26.09 0 0 1-4.758.438zm.059-48.478c-1.36 0-2.73.125-4.097.377-12.099 2.233-20.126 13.893-17.894 25.993 2.233 12.099 13.892 20.127 25.993 17.893a22.168 22.168 0 0 0 14.33-9.29c3.379-4.909 4.645-10.841 3.563-16.702s-4.382-10.95-9.291-14.329c-3.765-2.594-8.13-3.942-12.604-3.942z"/><path d="M296.871 191.439c1.455 7.884-3.758 15.458-11.643 16.913-7.884 1.455-15.458-3.758-16.913-11.643-1.456-7.889 3.757-15.462 11.642-16.918a14.46 14.46 0 0 1 9.751 1.626 9.532 9.532 0 0 0-.553.482c-3.237 3.001-4.333 7.088-2.448 9.129 1.889 2.036 6.051 1.254 9.292-1.748a5.66 5.66 0 0 0 .223-.214c.281.758.498 1.552.649 2.373z"/><circle cx="194.066" cy="209.275" fill="#fff" transform="rotate(-38.34 194.184 209.387)" r="24.235"/><path d="M194.055 235.433c-12.365 0-23.387-8.825-25.71-21.411-2.618-14.183 6.791-27.851 20.974-30.469 6.869-1.268 13.823.215 19.578 4.177s9.622 9.927 10.89 16.797-.215 13.824-4.176 19.578c-3.962 5.755-9.927 9.623-16.797 10.891-1.597.295-3.19.437-4.759.437zm-21.932-22.108c2.233 12.099 13.892 20.126 25.993 17.893a22.168 22.168 0 0 0 14.33-9.291c3.379-4.909 4.645-10.841 3.563-16.702s-4.382-10.95-9.291-14.33a22.165 22.165 0 0 0-16.701-3.563c-12.099 2.233-20.125 13.894-17.894 25.993z"/><path d="M183.828 212.303c1.455 7.884 9.029 13.098 16.913 11.643s13.098-9.029 11.643-16.913a14.285 14.285 0 0 0-.649-2.373c-.076.07-.151.145-.227.215-3.237 3.001-7.398 3.783-9.288 1.747-1.885-2.042-.794-6.128 2.448-9.129.18-.169.366-.33.553-.482a14.451 14.451 0 0 0-9.751-1.625c-7.885 1.455-13.098 9.028-11.642 16.917z"/><path d="M200.625 160.827c1.709 3.824-2.697 9.513-9.842 12.707s-14.323 2.683-16.032-1.141 2.697-9.513 9.842-12.707 14.322-2.683 16.032 1.141z" fill="#ffe8db"/><path d="M181.844 177.539c-4.218 0-7.568-1.499-8.847-4.362-2.175-4.866 2.575-11.563 10.812-15.245 8.238-3.682 16.395-2.755 18.571 2.111 2.175 4.866-2.575 11.563-10.812 15.245-3.393 1.516-6.772 2.251-9.724 2.251zm11.74-18.012c-2.348 0-5.235.584-8.207 1.913-6.401 2.861-9.963 7.729-8.873 10.169 1.091 2.441 7.093 3.033 13.494.171 6.401-2.861 9.963-7.729 8.873-10.169-.584-1.307-2.578-2.084-5.287-2.084z" fill="#e0a58f"/><g><path d="M280.264 150.724c.337 4.175-5.714 8.07-13.515 8.699s-14.398-2.246-14.735-6.421 5.714-8.07 13.515-8.699 14.398 2.246 14.735 6.421z" fill="#ffe8db"/><path d="M264.618 161.431c-3.249 0-6.312-.57-8.803-1.655-3.464-1.509-5.493-3.86-5.716-6.619-.429-5.313 6.281-10.043 15.275-10.768 8.992-.724 16.376 2.868 16.804 8.181.429 5.313-6.282 10.043-15.276 10.769-.767.061-1.531.092-2.284.092zm3.003-15.291c-.63 0-1.277.025-1.938.079-6.988.563-11.969 3.965-11.755 6.629.102 1.261 1.349 2.502 3.421 3.405 2.463 1.073 5.831 1.53 9.245 1.255 6.988-.563 11.969-3.965 11.755-6.629-.195-2.413-4.692-4.739-10.728-4.739z" fill="#e0a58f"/></g><path d="M157.287 240.81c-3.607 21.286-2.17 43.405 4.131 64.057-21.752-5.737-40.172-15.02-47.749-28.76a157.445 157.445 0 0 1 18.963-35.111c3.934-5.482 8.715-11.031 15.28-12.6 2.7-.643 5.848-.437 7.845 1.494 2.763 2.659 2.172 7.139 1.53 10.92zM332.841 208.407c10.968 18.596 17.522 39.771 19.008 61.311 18.271-13.124 32.164-28.371 34.336-43.911a157.489 157.489 0 0 0-30.247-26.029c-5.632-3.716-12.079-7.193-18.772-6.315-2.752.363-5.618 1.679-6.795 4.196-1.631 3.473.52 7.446 2.47 10.748z" fill="#ffe8db"/><g><path d="M218.131 220.161a109.171 109.171 0 0 0-47.682 6.383l2.118 13.468 30.607 2.353 16.632-14.297z" fill="#e36254"/><path d="M170.449 228.465a1.923 1.923 0 0 1-.67-3.723c15.391-5.725 32.172-7.972 48.525-6.496a1.921 1.921 0 1 1-.345 3.827c-15.79-1.426-31.984.743-46.839 6.27a1.905 1.905 0 0 1-.671.122z"/></g><g><path d="M268.058 211.573a109.164 109.164 0 0 1 47.028-10.134l2.566 13.39-28.003 12.574-20.49-7.823z" fill="#e36254"/><path d="M268.059 213.494a1.921 1.921 0 0 1-.811-3.663c14.888-6.925 31.418-10.483 47.858-10.314a1.921 1.921 0 0 1-.021 3.843h-.021c-15.865-.183-31.825 3.271-46.197 9.955a1.92 1.92 0 0 1-.808.179z"/></g><path d="M339.918 273.539a68.28 68.28 0 0 1 .587 3.782c-27.601 17.073-60.897 29.298-79.811 31.678-18.597 4.549-54.29 5.002-86.272-1.18a62.906 62.906 0 0 1-.769-3.592c-7.401-40.098 23.82-79.476 69.732-87.95s89.132 17.164 96.533 57.262z" fill="#ffe8db"/><path d="m232.661 223.796 22.044-4.069c2.682-.495 4.722 2.368 3.378 4.741l-8.153 14.391a4.225 4.225 0 0 1-6.427 1.124l-12.349-10.592c-2.051-1.757-1.148-5.105 1.507-5.595z"/><g><path d="M286.581 242.364c-.405-2.773-.93-5.524-1.507-8.216l-8.843 5.863-14.262 9.453c-12.428 8.24-24.862 16.479-37.289 24.719 6.889 5.182 13.63 10.869 22.013 12.889a39.4 39.4 0 0 0 6.942 1.023c-.683-19.763 14.622-38.583 32.946-45.731z" fill="#821629"/><path d="m253.634 290.017-.111-.003a41.487 41.487 0 0 1-7.28-1.073c-7.841-1.89-14.238-6.766-20.425-11.481a447.098 447.098 0 0 0-2.293-1.741 1.922 1.922 0 0 1 .093-3.136l60.394-40.034a1.921 1.921 0 0 1 2.94 1.199c.657 3.066 1.157 5.794 1.529 8.34a1.92 1.92 0 0 1-1.202 2.068c-18.698 7.294-32.337 26.156-31.725 43.875a1.92 1.92 0 0 1-1.92 1.986zm-25.636-15.729.15.115c6.14 4.68 11.941 9.101 18.994 10.801 1.493.359 3.02.626 4.558.799.203-9.08 3.618-18.464 9.741-26.655 5.969-7.985 14.095-14.4 23.01-18.191a119.41 119.41 0 0 0-.687-3.836z"/><path d="M253.634 288.095c6.315.363 12.7-.841 18.09-4.081 7.861-4.726 12.867-13.328 14.756-22.303 1.325-6.282 1.046-12.878.101-19.347-18.324 7.148-33.629 25.968-32.947 45.731z" fill="#f22a4e"/><path d="M255.809 290.079c-.756 0-1.517-.022-2.285-.066a1.922 1.922 0 0 1-1.81-1.852c-.336-9.739 3.119-19.971 9.728-28.813 6.288-8.411 14.968-15.079 24.441-18.774a1.92 1.92 0 0 1 2.599 1.512c1.129 7.73 1.089 14.279-.122 20.021-2.166 10.292-7.868 18.877-15.646 23.553-4.837 2.908-10.643 4.419-16.905 4.419zm-.269-3.843.269.001c5.565 0 10.689-1.323 14.925-3.87 6.865-4.128 11.919-11.801 13.866-21.052.988-4.682 1.122-10.003.404-16.206-16.903 7.608-29.15 24.674-29.464 41.127z"/><g><path d="M277.246 248.514c.016 2.574-.609 5.692-3.036 6.56-1.746.631-3.65-.236-5.27-1.147a72.156 72.156 0 0 1-6.972-4.463l14.262-9.453a38.513 38.513 0 0 1 1.016 8.503z" fill="#fff"/><path d="M272.934 257.218c-1.767 0-3.453-.782-4.936-1.616a73.874 73.874 0 0 1-7.157-4.582 1.92 1.92 0 0 1 .066-3.157l14.261-9.453a1.921 1.921 0 0 1 2.932 1.162 40.454 40.454 0 0 1 1.067 8.928v.002c.028 4.337-1.543 7.392-4.311 8.382a5.62 5.62 0 0 1-1.922.334zm-7.544-7.717a70.617 70.617 0 0 0 4.491 2.751c1.182.664 2.667 1.38 3.675 1.015 1.324-.473 1.78-2.757 1.768-4.738a36.493 36.493 0 0 0-.431-5.327z"/></g></g><g><path d="M223.905 314.359c-15.425 0-32.883-1.374-49.847-4.653a200.417 200.417 0 0 1-13.131-2.982c-24.933-6.576-41.857-16.843-48.941-29.69-2.222-4.011-3.519-8.332-3.854-12.839-1.329-17.761 30.725-121.759 40.612-137.112 8.869-13.772 33.271-24.429 72.526-31.675 23.566-4.349 65.684-9.748 82.996 2.97 15.188 11.158 77.972 97.691 82.937 114.31 6.18 20.682-10.046 44.216-45.689 66.268h-.001c-28.999 17.939-62.398 29.632-80.472 31.936-8.825 2.144-22.002 3.467-37.136 3.467zm44.444-220.124c-12.848 0-28.466 1.646-46.38 4.952-38.172 7.045-61.721 17.131-69.994 29.977-9.379 14.563-41.263 118.02-40.011 134.746.293 3.951 1.432 7.741 3.385 11.266 6.566 11.908 22.666 21.531 46.559 27.833a195.97 195.97 0 0 0 12.879 2.924c33.137 6.406 68.07 5.453 85.451 1.2.072-.017.144-.031.217-.04 17.636-2.219 50.448-13.719 79.04-31.406 19.707-12.193 51.634-36.448 44.028-61.9-4.688-15.691-67.169-101.763-81.53-112.313-6.559-4.817-18.064-7.239-33.644-7.239zm72.155 183.087h.005z" fill="#a63c30"/></g></g><g><path d="M211.261 433.479c-1.261 2.997-2.598 7.056-3.226 10.246-.629 3.19-.579 6.6.735 9.574s4.037 5.43 7.258 5.874 6.766-1.481 7.673-4.603c.803 3.464 3.497 6.478 6.914 7.459 3.417.982 7.413-.226 9.555-3.063 2.142-2.838 2.152-7.155-.132-9.881 2.347 1.533 5.656 1.245 7.866-.481 2.21-1.725 3.371-4.705 2.973-7.48-1.211-8.43-7.321-11.517-10.664-14.326-1.53-10.852-12.388-57.967-13.918-68.819 0 0-9.264-9.424-26.075.275-14.272 8.234-13.998 23.33-13.998 23.33 5.157 13.133 25.039 51.895 25.039 51.895z" fill="#a63c30"/><path d="M233.058 464.289c-.998 0-1.999-.135-2.974-.415-2.79-.801-5.199-2.713-6.745-5.215a9.294 9.294 0 0 1-7.574 2.416c-3.718-.513-7.072-3.195-8.753-7-1.347-3.047-1.645-6.755-.863-10.722.555-2.816 1.708-6.566 2.998-9.786-2.925-5.72-19.926-39.088-24.715-51.282a1.921 1.921 0 1 1 3.577-1.405c5.064 12.896 24.763 51.335 24.961 51.721.259.505.281 1.099.062 1.622-1.334 3.169-2.555 7.044-3.113 9.873-.439 2.224-.689 5.491.607 8.425 1.13 2.557 3.392 4.42 5.763 4.747 2.413.331 4.96-1.15 5.566-3.236a1.933 1.933 0 0 1 1.898-1.384 1.922 1.922 0 0 1 1.819 1.487c.66 2.849 2.899 5.279 5.572 6.046 2.715.779 5.864-.219 7.492-2.374 1.648-2.184 1.617-5.473-.072-7.489a1.921 1.921 0 0 1 2.522-2.843c1.595 1.041 4.017.876 5.633-.386 1.652-1.29 2.558-3.577 2.253-5.692-.897-6.242-4.699-9.096-8.053-11.615-.694-.521-1.349-1.012-1.945-1.514a1.919 1.919 0 0 1-.666-1.203c-.755-5.36-3.898-20.065-6.937-34.284-3.192-14.936-6.207-29.043-6.981-34.535a1.922 1.922 0 0 1 3.806-.537c.755 5.358 3.896 20.055 6.933 34.268 3.057 14.302 5.951 27.845 6.872 33.798.381.299.796.61 1.225.934 3.556 2.67 8.427 6.326 9.55 14.141.501 3.487-.948 7.125-3.692 9.267a8.961 8.961 0 0 1-5.603 1.874c.571 2.765-.018 5.796-1.78 8.131-1.995 2.644-5.291 4.167-8.643 4.167z" fill="#7d271d"/></g><g><path d="M290.687 433.479c1.261 2.997 2.598 7.056 3.226 10.246.629 3.19.579 6.6-.734 9.574-1.314 2.974-4.037 5.43-7.258 5.874s-6.766-1.481-7.673-4.603c-.802 3.464-3.497 6.478-6.914 7.459-3.417.982-7.413-.226-9.555-3.063-2.142-2.838-2.152-7.155.132-9.881-2.348 1.533-5.656 1.245-7.866-.481-2.21-1.725-3.371-4.705-2.973-7.48 1.212-8.43 7.321-11.517 10.664-14.326 1.53-10.852 12.388-57.967 13.918-68.819 0 0 9.264-9.424 26.075.275 14.272 8.234 13.998 23.33 13.998 23.33-5.158 13.133-25.04 51.895-25.04 51.895z" fill="#a63c30"/><path d="M268.891 464.289c-3.353 0-6.649-1.523-8.645-4.167-1.763-2.335-2.352-5.365-1.781-8.131h-.051c-1.966 0-3.961-.633-5.552-1.874-2.744-2.143-4.193-5.78-3.692-9.267 1.123-7.814 5.993-11.471 9.55-14.14.431-.323.845-.635 1.226-.934.922-5.951 3.814-19.488 6.869-33.783 3.038-14.219 6.181-28.923 6.936-34.283a1.922 1.922 0 0 1 3.805.537c-.774 5.494-3.791 19.607-6.983 34.55-3.038 14.214-6.179 28.911-6.934 34.27a1.916 1.916 0 0 1-.666 1.202c-.597.502-1.252.994-1.946 1.515-3.354 2.518-7.155 5.373-8.052 11.614-.304 2.115.602 4.403 2.253 5.692 1.616 1.262 4.038 1.428 5.633.386a1.92 1.92 0 0 1 2.522 2.843c-1.689 2.016-1.72 5.305-.071 7.489 1.627 2.155 4.776 3.153 7.491 2.375 2.673-.768 4.913-3.198 5.573-6.046a1.922 1.922 0 0 1 3.717-.103c.606 2.086 3.153 3.568 5.566 3.236 2.371-.327 4.633-2.19 5.763-4.747 1.296-2.933 1.045-6.201.607-8.425-.558-2.827-1.779-6.703-3.112-9.873a1.922 1.922 0 0 1 .062-1.622c.198-.387 19.897-38.826 24.961-51.721a1.921 1.921 0 1 1 3.577 1.405c-4.788 12.194-21.789 45.562-24.715 51.282 1.29 3.221 2.443 6.971 2.998 9.786.782 3.967.484 7.675-.862 10.722-1.681 3.806-5.035 6.488-8.753 7a9.282 9.282 0 0 1-7.574-2.416c-1.546 2.502-3.956 4.414-6.745 5.215-.976.279-1.978.413-2.975.413z" fill="#7d271d"/></g></svg>