<svg height="512" viewBox="0 0 318.149 318.149" width="512" xmlns="http://www.w3.org/2000/svg"><circle cx="159.074" cy="159.074" fill="#d0df92" r="134"/><path d="M148.369 211.034c3.164 2.721 5.335 6.238 6.587 9.947.946 2.789 1.405 5.702 1.473 8.638.097 4.406-.676 8.88-2.192 13.198a41.336 41.336 0 0 1-6.807 12.217c-3.01 3.724-6.775 7.015-11.26 9.453a35.325 35.325 0 0 1-11.19 3.831c-6.103 1.006-12.846.472-19.87-1.871-7.034-2.343-14.366-6.455-21.975-12.604-5.77-4.665-11.708-10.507-17.819-17.703-2.716-3.199-5.37-5.781-7.904-7.83-3.418-2.763-6.614-4.553-9.482-5.625-4.315-1.6-7.861-1.643-10.777-.898a13.218 13.218 0 0 0-7.029 4.514 13.904 13.904 0 0 0-2.944 6.867c-.348 2.582-.032 5.368 1.213 8.245a7 7 0 1 1-12.841 5.579c-2.254-5.177-2.944-10.622-2.244-15.719a27.91 27.91 0 0 1 5.927-13.774 27.21 27.21 0 0 1 8.857-7.171c5.219-2.661 11.528-3.679 18.098-2.559 6.583 1.109 13.378 4.278 20.022 9.652 3.29 2.66 6.554 5.864 9.775 9.655 5.634 6.635 10.975 11.858 15.949 15.878 5.833 4.716 11.153 7.77 15.857 9.583 3.532 1.361 6.715 2.033 9.58 2.213 4.298.262 7.903-.539 11.073-2.037 3.16-1.502 5.889-3.752 8.096-6.482a27.358 27.358 0 0 0 4.137-7.118c1.496-3.769 2.02-7.68 1.644-10.797-.182-1.562-.573-2.918-1.103-4.021-.534-1.107-1.186-1.962-1.989-2.658a7 7 0 1 1 9.138-10.603z" fill="#fbb807"/><path d="M15.55 246.993c-2.254-5.177-2.944-10.622-2.244-15.719a27.919 27.919 0 0 1 5.927-13.774 27.21 27.21 0 0 1 8.857-7.171c5.219-2.661 11.528-3.679 18.098-2.559.037.006.075.017.112.023-1.378 4.454-2.252 9.059-2.656 13.754-2.452-.386-4.607-.242-6.494.24a13.218 13.218 0 0 0-7.029 4.514 13.904 13.904 0 0 0-2.944 6.867c-.348 2.582-.032 5.368 1.213 8.245a7 7 0 0 1-12.84 5.58z" fill="#fffcc8"/><path d="M40.933 207.321c1.722 0 3.479.146 5.256.449 6.583 1.109 13.378 4.278 20.022 9.652 3.29 2.66 6.554 5.864 9.775 9.655 5.634 6.635 10.975 11.858 15.949 15.878 5.833 4.716 11.152 7.77 15.857 9.583 3.532 1.361 6.715 2.033 9.58 2.213.541.033 1.072.049 1.592.049 3.608 0 6.71-.777 9.48-2.086 3.16-1.502 5.889-3.752 8.096-6.482a27.358 27.358 0 0 0 4.137-7.118c1.496-3.769 2.02-7.68 1.644-10.797-.182-1.562-.573-2.918-1.103-4.021-.534-1.107-1.186-1.962-1.989-2.658a7 7 0 0 1 4.572-12.302c1.619 0 3.244.558 4.567 1.698 3.164 2.721 5.335 6.238 6.587 9.947.946 2.789 1.405 5.702 1.473 8.638.097 4.406-.676 8.88-2.192 13.198a41.317 41.317 0 0 1-6.808 12.217c-3.01 3.724-6.775 7.015-11.26 9.453a35.325 35.325 0 0 1-11.19 3.831c-1.939.32-3.944.484-6.002.484-4.416 0-9.077-.756-13.869-2.355-7.034-2.343-14.366-6.455-21.975-12.604-5.77-4.665-11.708-10.507-17.819-17.703-2.716-3.199-5.37-5.781-7.904-7.83-3.418-2.763-6.614-4.553-9.482-5.625-2.605-.966-4.93-1.364-7.005-1.364-1.362 0-2.616.172-3.772.467a13.218 13.218 0 0 0-7.029 4.514 13.904 13.904 0 0 0-2.944 6.867c-.348 2.582-.032 5.368 1.213 8.245a7 7 0 0 1-6.417 9.792 7.003 7.003 0 0 1-6.424-4.212c-2.254-5.177-2.944-10.622-2.244-15.719a27.919 27.919 0 0 1 5.927-13.774 27.21 27.21 0 0 1 8.857-7.171c3.81-1.942 8.198-3.009 12.844-3.009m0-3c-5.013 0-9.925 1.153-14.205 3.335a30.019 30.019 0 0 0-9.828 7.958 30.9 30.9 0 0 0-6.566 15.253c-.797 5.796.056 11.787 2.465 17.322a10 10 0 0 0 13.157 5.185 9.93 9.93 0 0 0 5.318-5.504 9.932 9.932 0 0 0-.132-7.653c-.955-2.205-1.289-4.443-.991-6.648a10.898 10.898 0 0 1 2.304-5.382c1.417-1.745 3.253-2.924 5.453-3.497a12.23 12.23 0 0 1 3.015-.37c1.85 0 3.856.396 5.962 1.177 2.805 1.048 5.714 2.78 8.64 5.145 2.512 2.031 5.036 4.533 7.503 7.438 6.052 7.125 12.182 13.213 18.22 18.094 7.662 6.192 15.371 10.605 22.913 13.117 4.989 1.665 9.974 2.509 14.816 2.509 2.197 0 4.381-.176 6.489-.524a38.248 38.248 0 0 0 12.136-4.156c4.632-2.518 8.723-5.951 12.16-10.203a44.136 44.136 0 0 0 7.304-13.106c1.672-4.761 2.466-9.558 2.362-14.261-.078-3.366-.627-6.573-1.631-9.535-1.504-4.454-4.088-8.348-7.472-11.258a10 10 0 0 0-14.101 1.049 9.936 9.936 0 0 0-2.398 7.268 9.937 9.937 0 0 0 3.444 6.835c.503.436.901.974 1.245 1.689.404.841.69 1.902.825 3.065.335 2.776-.195 6.177-1.452 9.343a24.409 24.409 0 0 1-3.681 6.338c-2.012 2.488-4.384 4.392-7.052 5.659-2.556 1.207-5.237 1.795-8.193 1.795-.461 0-.935-.015-1.41-.044-2.734-.173-5.658-.852-8.684-2.018-4.786-1.845-9.849-4.912-15.05-9.117-5.072-4.099-10.303-9.31-15.548-15.487-3.274-3.855-6.697-7.235-10.175-10.046-6.912-5.59-14.115-9.048-21.409-10.277a34.701 34.701 0 0 0-5.753-.488z" fill="#740806"/><path d="m291.876 211.828-29.5 33.2h-.8c-10 0-15.6-15.1-25.3-15.1-4.1 0-9 2.7-15.3 10.5-13.1 16.3-34.9 23.1-53.8 23.1-4.7 0-9.2-.4-13.3-1.2-2.4 3.7-13.9 21.1-15.4 23.4 19.5 5.5 14 23.5 13.9 24l-51 .1v-20.9l-.1-.3c4.3-5.6 7.4-13.1 9.5-21.1 3.9-21 2.6-42.5 2.6-42.5-.25-2.03-.62-5.98-.65-11.09l.05-.01c-.02-.46-.03-.91-.04-1.36 0-.76.01-1.54.04-2.34-.02.01-.05.02-.07.03.11-16.9 5.83-29.33 5.87-29.33-7.13 9.3-8.8 21.68-8.84 30.77-8.88 4.16-20 7.95-31.36 8.13h-.5c-15.98 0-26-12.54-30.38-25.41.18.24.37.48.58.71 1.3 1.4 3.2 2.3 5.6 2.5.6 0 1.3.1 1.8.1 2.5 0 4.5-.3 6.2-.9 2.5-.9 4.1-2.4 5-4.1.9-1.6 1.1-3.3 1.1-4.6v-.7c4.4-.9 3.7-5.1 3.7-5.1s-2.1 1.4-2.8 1.7c0 0-.1 0-.2.1-.4.2-1.4.5-2.4.5-.4 0-.8-.1-1.2-.2-.5-.2-1-.5-1.4-1.1s-.8-1.7-.9-3.4v-.2c0-.7.2-1.4.5-2.2.6-1.3 1.6-2.8 3-4.1 2-2 4.5-3.8 6.5-5.1 1-.6 1.9-1.2 2.5-1.5.07-.05.14-.09.2-.12.02.32 0 .52 0 .52s8 1.2 3.3 12.4c0 0 27.3-14.7 41-18.4 3.1-.8 6.1-1.3 8.7-1.3 7.6-7.5 19.1-13.2 36.5-13.2 1.9 0 3.8.1 5.9.2 0 0 5.5.1 12.8 2.9 2-3.6 7.3-6.6 17.6-8.1 33.5-5 46.9-30.1 46.9-30.1-6.8-6.5-5.5-10.9-3.9-13.1h.2c.2 0 1.4-.1 3-.1 2.4 0 5.9.2 9 .9 1.5.4 3 .9 4.1 1.5s2 1.4 2.5 2.3c.8 1.4 1 2.5 1 3.3 0 .7-.2 1.2-.5 1.7-.5.6-1.3 1.1-2.1 1.4-.4.1-.7.2-1 .3-.1 0-.2 0-.3.1h-.1c-.8.1-2.1.6-2.1.6s1.4 2.9 4.6 1.8c.3.5.6 1.1 1.1 1.7.6.8 1.5 1.6 2.6 2.2s2.5 1 4.1 1c2.6 0 5.8-1.1 9.5-3.7 1.2-.9 2.1-1.9 2.7-3s.9-2.3.9-3.5c0-1.9-.7-3.6-2-5-1.1-1.2-2.6-1.9-4.4-2.1.1-.4.3-.9.2-1.3-.7-4.7-4.3-4.8-4.3-4.8s1.2 3.5 1.2 3.8c0 .4-.1 1.7-.3 2-.2.5-.7.9-1 1.2-.2.2-.4.3-.5.3l-.1.1v.1l1.2 2.7 2.9-1.1c1.2.1 2.2.5 2.8 1.2.7.8 1.2 1.8 1.2 2.9 0 .7-.2 1.4-.5 2.1-.4.7-.9 1.4-1.8 2-3.4 2.4-6 3.2-7.8 3.2-1.1 0-2-.3-2.7-.7-1.1-.6-1.9-1.5-2.3-2.3-.1-.2-.2-.3-.3-.5.3-.2.5-.5.8-.8.7-.9 1.1-2.1 1.1-3.5s-.4-3-1.4-4.7c-.8-1.5-2.1-2.6-3.6-3.5-1.4-.8-3-1.3-4.6-1.7 0-.5.2-1.1.5-1.7.4-.9 1.2-1.9 2.8-2.6.7-.4-3.6-2.1-5.5 1.3-.5.9-.6 1.7-.7 2.4-2.6-.4-5.1-.5-6.9-.5h-2c-.4-1.5-.5-3.8 1.6-5.9 4.3-4.2 9.9-5.9 15.5-5.9 10 0 19.7 5.3 21.1 10.6 15.11 57.7-49.59 83.56-67.2 89.46-1.82-8.08-5.35-17.37-12.2-24.06 0 0 8.5 12.9 10.6 31.4.02-.02.05-.04.08-.07.04.38.08.77.12 1.17 8.1-2.5 15.3-4 20.8-4 1.9 0 3.6.2 5.1.6 8.6 2.2 15.8 8.2 20.1 19.8 0 0 6.9-3.6 15-3.6 5.4 0 11.3 1.6 16 6.8z" fill="#fbb807"/><g fill="#f28a1c"><path d="M213.973 185.127c12.9-4 84.2-30 69.9-89.6-1.1 7.9-3.5 15.5-7.3 22.7-12.163 36.489-44.727 48.879-58.947 52.806 0 0-7.253-13.526-16.698-17.803 12.297 18 13.045 31.897 13.045 31.897zM137.214 308.262c-1.3-7.4-23-15.8-23-15.8s11.8-25.3 11-44.2c0 0 9.7 7.4 11.4 7.1-28-26.9-14.9-81.9-14.9-81.9-16.6 4.2-15.2 30.6-15.2 30.6s-32.7 12.5-42.5 4.3c-4-3.4-6.8-7.7-8.6-12.3-.5.1-1 .2-1.6.2-4.7 0-6.3-4.8-4.9-8.1-.3.3-.8.5-1.2.7-.1 1.1-.6 2.2-1.3 3 3.8 13.9 14.3 29.4 31.7 29.1 12.7-.2 25.1-4.9 34.4-9.6-.1 6.9.4 11.3.6 13.8 0 0 1.3 21.5-2.6 42.5-2.1 8-5.1 15.5-9.5 21.1 0 .1.1.2.1.3v20.9s35.9-.2 36.2-.2c.1-.4 0-.9-.1-1.5zM264.973 229.627c-20.6-27.9-36.7-9.7-36.7-9.7l-6.1-10.7c-9.2 45.5-54.3 52.4-77 45.3 2.9 7.1 10.8 8 10.8 8 20.8 3.2 49.1-2.6 64.9-22.2 21.4-26.6 26.4 5.8 41.3 4.6l10.2-11.7c-2.3-1.1-5.7-1.3-7.4-3.6z"/></g><path d="M143.173 174.127c-.2-23.5 12.2-27.8 25.8-27.8 16.5 0 33.4 27.3 32.2 66.1-.7 21.7-12.1 34.5-31.1 34s-28-13.5-27.3-29.2z" fill="#fffcc8"/><path d="M294.076 209.328c-4.7-5.2-10.8-7.8-18.3-7.8-5.5 0-10.4 1.5-13.4 2.6-4.4-10-11.5-16.3-21-18.8-1.7-.4-3.6-.6-5.8-.6-4.8 0-11 1-18.2 3.1-.1-.6-.2-1.1-.2-1.7 8.4-2.8 27.6-10.2 43.9-23.3 10.6-8.5 18.2-18.1 22.7-28.4 5.6-12.7 6.4-26.6 2.6-41.3-1.8-7-12.8-12.8-24-12.8-7 0-13.1 2.3-17.6 6.7-2.9 2.8-3 6.2-2.5 8.6-1 1.2-2.1 2.9-2.4 5.4-.4 3.4 1.1 7 4.3 10.6-3.8 5.7-17.3 22.8-43.6 26.7-9 1.3-15 3.8-18.3 7.5-6.2-2.1-10.8-2.3-11.5-2.3-2-.1-4.1-.2-6-.2-15.7 0-28.4 4.4-37.8 13.2-2.6.1-5.4.6-8.3 1.4-10.1 2.8-26.9 11-35.8 15.6.1-2-.3-3.8-1.2-5.4-1-1.8-2.5-2.9-3.7-3.5-.5-2.2-1.8-4.8-5.1-6-2.9-1.1-5.9-1.7-8.8-1.7-10.7 0-19.2 7.6-21.3 15-2.5 8.9.1 25.2 8.9 36.8 6.7 8.9 15.7 13.6 26 13.6h.5c9.8-.1 20.3-2.8 31.4-7.8.1 4.7.4 8.3.6 10.3.1 1.4 1.1 21.9-2.5 41.6-2.2 8.5-5.2 15.2-8.9 20l-.9 1.2.4 1.3v23.5h56.8l.2-2.6c1.3-5.4.7-9.6.1-12.2-1.2-4.5-4.3-10.3-12.3-13.7 3.4-5.1 9.4-14.3 12.2-18.5 3.8.6 7.8.9 11.9.9 22.9 0 43.9-9 56.1-24.2 5-6.2 9.4-9.4 12.9-9.4 3.6 0 6.9 3.2 10.3 6.6 4.1 4 8.7 8.5 14.9 8.5h1.1l1.2-.1.8-.9 29.5-33.7 1.8-2zm-248.3-36.2c1.6-5.6 8.7-12.8 18.4-12.8 2.4 0 5 .4 7.7 1.5 1.33.53 2.14 1.35 2.64 2.19-1 .56-3.94 2.24-6.94 4.51-.4.3-.8.6-1.1.9-.2-.3-.5-.5-.8-.8-.6-.5-1.3-1.1-2.3-1.5-.9-.4-2.1-.7-3.4-.7-.4 0-.7 0-1.1.1-.8.1-3.7 2.7-2.9 2.6 0 0 4.2-.5 6.2.7.8.5 1.5.9 1.9 1.4.1.1.1.1.1.2-.6.6-1.3 1.3-1.8 2-.7.9-1.3 1.9-1.8 3-.4 1.1-.7 2.2-.7 3.3v.4c.1 1.4.3 2.5.7 3.5.6 1.5 1.5 2.6 2.6 3.2.6.4 1.3.6 1.9.7v.6c0 .6-.1 1.3-.3 2.1-.3 1.1-1 2.1-2.3 3s-3.4 1.5-6.8 1.5c-.5 0-1.1 0-1.7-.1-1.7-.1-2.8-.7-3.6-1.5s-1.2-1.9-1.2-2.9c0-1.3.6-2.5 1.8-3.4l3-.6c.8-.2 1.3-.9 1.2-1.7s-.8-1.3-1.6-1.3h-.1c-.3 0-1.2-.1-1.9-.4-.4-.2-.6-.4-.9-.7-.2-.3-.4-.7-.5-1.3-.1-.8 0-2.6 0-2.6s-4.5 2-1.9 5.7c.2.3.4.5.6.6-1.72 1.26-2.61 3.1-2.77 4.99-1.43-6.22-1.54-12.16-.33-16.39zm216.6 71.9h-.8c-10 0-15.6-15.1-25.3-15.1-4.1 0-9 2.7-15.3 10.5-13.1 16.3-34.9 23.1-53.8 23.1-4.7 0-9.2-.4-13.3-1.2-2.4 3.7-13.9 21.1-15.4 23.4 19.5 5.5 14 23.5 13.9 24l-51 .1v-20.9l-.1-.3c4.3-5.6 7.4-13.1 9.5-21.1 3.9-21 2.6-42.5 2.6-42.5-.25-2.03-.62-5.98-.65-11.09l.05-.01c-.02-.46-.03-.91-.04-1.36 0-.76.01-1.54.04-2.34-.02.01-.05.02-.07.03.11-16.9 5.83-29.33 5.87-29.33-7.13 9.3-8.8 21.68-8.84 30.77-8.88 4.16-20 7.95-31.36 8.13h-.5c-15.98 0-26-12.54-30.38-25.41.18.24.37.48.58.71 1.3 1.4 3.2 2.3 5.6 2.5.6 0 1.3.1 1.8.1 2.5 0 4.5-.3 6.2-.9 2.5-.9 4.1-2.4 5-4.1.9-1.6 1.1-3.3 1.1-4.6v-.7c4.4-.9 3.7-5.1 3.7-5.1s-2.1 1.4-2.8 1.7c0 0-.1 0-.2.1-.4.2-1.4.5-2.4.5-.4 0-.8-.1-1.2-.2-.5-.2-1-.5-1.4-1.1s-.8-1.7-.9-3.4v-.2c0-.7.2-1.4.5-2.2.6-1.3 1.6-2.8 3-4.1 2-2 4.5-3.8 6.5-5.1 1-.6 1.9-1.2 2.5-1.5.07-.05.14-.09.2-.12.02.32 0 .52 0 .52s8 1.2 3.3 12.4c0 0 27.3-14.7 41-18.4 3.1-.8 6.1-1.3 8.7-1.3 7.6-7.5 19.1-13.2 36.5-13.2 1.9 0 3.8.1 5.9.2 0 0 5.5.1 12.8 2.9 2-3.6 7.3-6.6 17.6-8.1 33.5-5 46.9-30.1 46.9-30.1-6.8-6.5-5.5-10.9-3.9-13.1h.2c.2 0 1.4-.1 3-.1 2.4 0 5.9.2 9 .9 1.5.4 3 .9 4.1 1.5s2 1.4 2.5 2.3c.8 1.4 1 2.5 1 3.3 0 .7-.2 1.2-.5 1.7-.5.6-1.3 1.1-2.1 1.4-.4.1-.7.2-1 .3-.1 0-.2 0-.3.1h-.1c-.8.1-2.1.6-2.1.6s1.4 2.9 4.6 1.8c.3.5.6 1.1 1.1 1.7.6.8 1.5 1.6 2.6 2.2s2.5 1 4.1 1c2.6 0 5.8-1.1 9.5-3.7 1.2-.9 2.1-1.9 2.7-3s.9-2.3.9-3.5c0-1.9-.7-3.6-2-5-1.1-1.2-2.6-1.9-4.4-2.1.1-.4.3-.9.2-1.3-.7-4.7-4.3-4.8-4.3-4.8s1.2 3.5 1.2 3.8c0 .4-.1 1.7-.3 2-.2.5-.7.9-1 1.2-.2.2-.4.3-.5.3l-.1.1v.1l1.2 2.7 2.9-1.1c1.2.1 2.2.5 2.8 1.2.7.8 1.2 1.8 1.2 2.9 0 .7-.2 1.4-.5 2.1-.4.7-.9 1.4-1.8 2-3.4 2.4-6 3.2-7.8 3.2-1.1 0-2-.3-2.7-.7-1.1-.6-1.9-1.5-2.3-2.3-.1-.2-.2-.3-.3-.5.3-.2.5-.5.8-.8.7-.9 1.1-2.1 1.1-3.5s-.4-3-1.4-4.7c-.8-1.5-2.1-2.6-3.6-3.5-1.4-.8-3-1.3-4.6-1.7 0-.5.2-1.1.5-1.7.4-.9 1.2-1.9 2.8-2.6.7-.4-3.6-2.1-5.5 1.3-.5.9-.6 1.7-.7 2.4-2.6-.4-5.1-.5-6.9-.5h-2c-.4-1.5-.5-3.8 1.6-5.9 4.3-4.2 9.9-5.9 15.5-5.9 10 0 19.7 5.3 21.1 10.6 15.11 57.7-49.59 83.56-67.2 89.46-1.82-8.08-5.35-17.37-12.2-24.06 0 0 8.5 12.9 10.6 31.4.02-.02.05-.04.08-.07.04.38.08.77.12 1.17 8.1-2.5 15.3-4 20.8-4 1.9 0 3.6.2 5.1.6 8.6 2.2 15.8 8.2 20.1 19.8 0 0 6.9-3.6 15-3.6 5.4 0 11.3 1.6 16 6.8z" fill="#740806"/><path d="M74.516 164.018c-1 .56-3.94 2.24-6.94 4.51-.4.3-.8.6-1.1.9-.2-.3-.5-.5-.8-.8-.6-.5-1.3-1.1-2.3-1.5-.9-.4-2.1-.7-3.4-.7-.4 0-.7 0-1.1.1-.8.1-3.7 2.7-2.9 2.6 0 0 4.2-.5 6.2.7.8.5 1.5.9 1.9 1.4.1.1.1.1.1.2-.6.6-1.3 1.3-1.8 2-.7.9-1.3 1.9-1.8 3-.4 1.1-.7 2.2-.7 3.3v.4c.1 1.4.3 2.5.7 3.5.6 1.5 1.5 2.6 2.6 3.2.6.4 1.3.6 1.9.7v.6c0 .6-.1 1.3-.3 2.1-.3 1.1-1 2.1-2.3 3s-3.4 1.5-6.8 1.5c-.5 0-1.1 0-1.7-.1-1.7-.1-2.8-.7-3.6-1.5s-1.2-1.9-1.2-2.9c0-1.3.6-2.5 1.8-3.4l3-.6c.8-.2 1.3-.9 1.2-1.7s-.8-1.3-1.6-1.3h-.1c-.3 0-1.2-.1-1.9-.4-.4-.2-.6-.4-.9-.7-.2-.3-.4-.7-.5-1.3-.1-.8 0-2.6 0-2.6s-4.5 2-1.9 5.7c.2.3.4.5.6.6-1.72 1.26-2.61 3.1-2.77 4.99-1.43-6.22-1.54-12.16-.33-16.39 1.6-5.6 8.7-12.8 18.4-12.8 2.4 0 5 .4 7.7 1.5 1.33.53 2.14 1.35 2.64 2.19z" fill="#f28a1c"/><g><path d="M80.14 94.376C48.687 76.966 59.826 47 59.826 47l38.198 9.003c18.432-14.713 36.941-17.014 50.957-15.579l26.701-29.547s26.289 18.393 10.121 50.702c11.496 13.117 26.525 31.179 26.331 35.752-.147 3.488-2.249 4.726-4.998 3.984 1.646 3.429 2.471 6.986 1.266 9.981-1.17 2.911-3.221 3.58-5.325 2.516-6.228 19.364-42.048 44.628-42.048 44.628s-47.265 4.257-65.61-10.353c-1.193 1.306-2.997 1.496-5.182.051-2.693-1.78-4.036-5.175-4.631-8.932-1.841 2.172-4.273 2.348-6.378-.438-1.98-2.621-.55-26.052.912-44.392z" fill="#fbb807"/><path d="M93.472 113.176c-5.45-37.056 7.437-54.157 7.437-54.157s12.359-9.958 17.805-14.847c-6.743 2.483-13.722 6.269-20.689 11.831L59.827 47S48.688 76.966 80.141 94.376c-1.438 18.038-2.843 40.987-1.005 44.233-.896-1.83-2.953-14.331 14.336-25.433z" fill="#f28a1c"/><path d="M212.134 97.332c.314-7.395-20.646-20.818-57.718-4.406 0 0-8.462-22.75-18.557-19.603-10.096 3.147-3.678 26.494-3.678 26.494-18.461 3.341-30.674 8.198-38.711 13.359-17.289 11.102-15.231 23.603-14.336 25.433.033.067.064.123.093.161 2.104 2.786 4.537 2.61 6.378.438.595 3.757 1.938 7.152 4.631 8.932 2.185 1.444 3.988 1.255 5.182-.051 22.335 18.246 65.61 10.353 65.61 10.353s28.979-11.835 42.048-44.628c2.104 1.064 4.155.395 5.325-2.516 1.205-2.995.38-6.552-1.266-9.981 2.75.741 4.852-.497 4.999-3.985z" fill="#fffcc8"/><path d="M91.111 114.784s-4.372 5.963-3.673 10.6c.982 6.52 7.186 1.493 7.186 1.493-8.849 21.349 9.221 11.722 9.221 11.722 15.626 22.843 57.434 14.465 57.434 14.465s21.108-8.747 41.141-37.688c-13.353 31.597-41.39 43.067-41.39 43.067s-43.275 7.893-65.61-10.353c-1.193 1.306-2.997 1.496-5.182.051-2.693-1.78-4.036-5.175-4.631-8.932-1.841 2.172-4.273 2.348-6.378-.438-.775-1.026-3.415-12.909 11.882-23.987z" fill="#e5ba97"/><path d="M81.849 89.862s1.667-13.214 7.67-23.299L62.648 55.454s-3.65 23.985 19.201 34.408zM178.514 20.744c3.147 4.381 13.906 19.628 2.887 38.08 0 0-5.856-7.042-11.719-11.463z" fill="#fffcc8"/><path d="M128.303 63.358s-6.418-13.4-14.246-16.653c-10.25 1.453-10.205 5.889-10.205 5.889zM138.687 59.841s7.01-12.546 3.502-20.102l-8.555.303c2.798 5.381 5.053 19.799 5.053 19.799z" fill="#f28a1c"/><g fill="#740806"><path d="m213.471 96.046.001.006.002.007z"/><path d="M213.58 96.589h.001l-.002-.009-.001-.009h-.001a5.243 5.243 0 0 0-.105-.519c-.225-.906-.641-1.868-1.208-2.959-.996-1.905-2.473-4.18-4.287-6.725-5.275-7.394-13.408-17.04-20.4-25.039 3.559-7.416 4.985-14.183 4.983-20.178.001-10.163-4.01-18.052-7.988-23.355-3.983-5.31-7.943-8.086-8.029-8.148l-1.085-.759-27.095 29.983a70.839 70.839 0 0 0-6.515-.315c-12.979-.008-28.64 3.638-44.169 15.823l-38.797-9.144-.461 1.241c-.038.109-2.006 5.41-2.009 12.946-.001 5.316.989 11.761 4.383 18.204 3.286 6.247 8.847 12.451 17.777 17.577-.923 11.705-1.812 25.249-1.813 34.212 0 2.499.068 4.641.231 6.328.082.845.187 1.576.333 2.208.157.636.307 1.165.71 1.722.631.834 1.323 1.494 2.094 1.958.767.464 1.624.72 2.479.718a4.667 4.667 0 0 0 2.033-.487c.292 1.117.66 2.199 1.148 3.207.831 1.718 2.004 3.25 3.625 4.322 1.216.803 2.447 1.254 3.675 1.256a4.538 4.538 0 0 0 1.906-.411c.14-.064.263-.157.394-.235 5.592 4.649 12.65 7.53 20.041 9.265 7.82 1.832 16.016 2.405 23.287 2.406 12.663-.001 22.522-1.745 22.577-1.754l.239-.042.214-.116c.053-.03 8.934-4.836 18.713-12.895 4.89-4.031 10.007-8.876 14.357-14.37 4.016-5.074 7.367-10.713 9.256-16.788.274.047.55.08.83.08a4.55 4.55 0 0 0 2.925-1.068c.842-.696 1.487-1.668 1.969-2.864.477-1.184.682-2.429.681-3.674-.004-1.758-.402-3.516-1.028-5.237a4.783 4.783 0 0 0 1.093-.291 4.574 4.574 0 0 0 2.252-2.005c.522-.918.788-2.013.842-3.255v-.007l.003-.131a4.947 4.947 0 0 0-.058-.667zm-2.944.68c-.051 1.192-.366 1.872-.684 2.223-.163.18-.333.298-.548.387a2.134 2.134 0 0 1-.817.143c-.303 0-.661-.047-1.06-.155l-3.157-.851 1.415 2.948c1.048 2.175 1.696 4.346 1.691 6.218-.001.92-.149 1.768-.465 2.555-.344.858-.744 1.382-1.094 1.668-.356.284-.644.376-1.017.383-.31 0-.695-.087-1.146-.315l-1.651-.834-.476 1.787c-1.627 6.12-4.992 11.938-9.166 17.207-6.256 7.906-14.312 14.557-20.796 19.205a134.132 134.132 0 0 1-8.121 5.394 100.562 100.562 0 0 1-2.384 1.415c-.276.158-.489.278-.632.357-1.494.249-10.538 1.668-21.815 1.667-7.111.001-15.101-.567-22.602-2.326-7.505-1.757-14.497-4.708-19.69-9.374l-1.107-.993-1.003 1.097c-.193.21-.382.345-.574.434a1.528 1.528 0 0 1-.653.137c-.464.002-1.147-.181-2.02-.759-1.072-.708-1.918-1.764-2.58-3.128-.66-1.359-1.117-3.012-1.397-4.788l-.512-3.231-2.114 2.495c-.352.416-.703.702-1.016.873-.315.172-.583.237-.843.238-.274-.002-.565-.071-.933-.289-.362-.217-.789-.594-1.235-1.181l-.02-.04c-.06-.128-.168-.48-.254-.965-.271-1.476-.408-4.139-.405-7.458-.001-9.02.931-23.048 1.878-34.921l.077-.964-.846-.468c-8.98-4.976-14.296-10.917-17.419-16.835-3.118-5.919-4.037-11.855-4.037-16.806 0-3.504.462-6.506.923-8.619.178-.816.355-1.496.504-2.024L98.39 57.63l.57-.455c15.18-12.109 30.297-15.61 42.887-15.618 2.428 0 4.762.132 6.981.359l.756.078 26.276-29.077c1.384 1.143 3.951 3.48 6.484 6.912 3.651 4.949 7.215 12.115 7.215 21.322-.002 5.757-1.389 12.341-5.098 19.757l-.451.902.665.758c5.409 6.171 11.6 13.439 16.593 19.849 2.496 3.204 4.692 6.195 6.332 8.707.82 1.255 1.5 2.39 2.004 3.357.506.964.831 1.771.956 2.291l.002.009.001.003c.026.1.04.173.046.217l.001.007.002.011c.018.118.024.207.024.238z"/></g><path d="M135.493 43.702s2.084-.551 3.599.317c1.354.775 3.077 4.373-.918 6.029-5.12 2.124-16.854-.429-17.378-5.743.469-.523 14.523-18.524 19.461-12.65 1.721 2.048 1.467 5.086.211 7.261-1.708 2.953-4.975 4.786-4.975 4.786z" fill="#fbb807"/><path d="M127.207 49.797c3.472 1.099 7.592 1.334 10.321.483.226-.07.44-.148.646-.233 3.995-1.656 2.271-5.254.918-6.029-1.515-.868-3.599-.317-3.599-.317s3.268-1.833 4.974-4.787c1.257-2.174 1.511-5.212-.21-7.261-1.054-1.252-2.521-1.419-4.184-.901-6.132 1.912-14.794 13.871-15.162 14.282 0 0-2.74.617-2.847-.461l-.117-1.201.804-.898.152-.188c4.521-5.541 11.028-12.493 16.353-14.153 3.879-1.209 6.113.582 7.102 1.755 2.659 3.164 2.159 7.503.485 10.399-.432.747-.934 1.43-1.462 2.043 1.188 1.119 2.131 2.963 2.001 4.999-.146 2.303-1.662 4.217-4.157 5.251a9.664 9.664 0 0 1-.88.317c-3.548 1.109-11.289-2.166-11.138-3.1z" fill="#740806"/><path d="M165.229 97.126c.434-.049.864-.13 1.293-.244 1.4-.371 2.648-1.079 3.738-2.032 4.267-3.729 6.013-11.42 3.899-19.392-2.656-10.007-10.383-16.642-17.253-14.818-6.516 1.729-9.917 10.438-7.994 19.865.106.518.218 1.037.356 1.558 2.492 9.385 9.439 15.803 15.961 15.063z" fill="#fff"/><path d="M119.427 65.573c-7.362-3.304-16.318-1.406-21.209 6.271a24.659 24.659 0 0 0-2.543 5.316c-.301.892-1.49.589-1.494-.379-.02-5.718 1.257-14.424 8.614-18.031 6.745-3.308 13.384 1.398 17.38 5.344.668.658.071 1.847-.748 1.479zM165.72 53.053a20.655 20.655 0 0 0-4.465-2.222c-7.186-2.527-13.641 1.183-16.266 7.566-.292.709-1.308.229-1.268-.596.239-4.941 1.656-11.881 7.552-13.387 6.432-1.644 12.001 3.611 15.141 7.542.532.667-.02 1.54-.694 1.097z" fill="#740806"/><path d="M100.689 94.248c-3.036-11.099 1.345-21.971 9.791-24.279 8.442-2.311 17.746 4.814 20.787 15.913.404 1.478.673 2.951.822 4.4a26.913 26.913 0 0 0-.439-1.889c-2.799-10.216-11.363-16.774-19.134-14.648-7.773 2.125-11.806 12.133-9.012 22.348 1.865 6.814 6.303 11.983 11.355 14.05-3.483-.917-6.797-3.21-9.436-6.49-2.079-2.586-3.742-5.782-4.734-9.405z" fill="#740806"/><path d="M103.505 96.093c-2.794-10.215 1.238-20.222 9.012-22.348 7.771-2.126 16.335 4.432 19.134 14.648.172.631.317 1.261.439 1.889.968 5.017.313 9.862-1.584 13.623-1.706 3.384-4.416 5.89-7.869 6.836-2.587.707-5.257.434-7.776-.597-5.054-2.067-9.491-7.236-11.356-14.051z" fill="#fff"/><g fill="#740806"><path d="M174.16 75.458c-2.656-10.007-10.383-16.642-17.253-14.818-6.516 1.729-9.917 10.438-7.994 19.865l-.061-.203c-2.847-10.729.818-21.013 8.187-22.969s15.65 5.159 18.498 15.888c1.506 5.675 1.176 11.211-.547 15.471-1.068 2.644-2.675 4.788-4.729 6.158 4.266-3.729 6.012-11.42 3.899-19.392zM129.428 88.632c.827.945-.101 2.342-1.329 2.082-4.033-.941-10.961-1.396-14.719 4.958-.651 1.103-2.28.798-2.421-.476-.29-3.197 1.061-7.63 6.7-9.795 5.73-2.237 10.952 2.205 11.769 3.231z"/><path d="M169.643 76.522c.735 1.018-.317 2.323-1.517 1.95-3.929-1.31-10.784-2.403-15.113 3.576-.751 1.038-2.345.584-2.367-.697.007-3.21 1.762-7.5 7.578-9.134 5.911-1.697 10.699 3.209 11.419 4.305zM159.231 144.202c27.61-8.439 15.306-33.025 16.652-34.878 1.295-1.787 2.184-3.682 2.432-5.65a8.051 8.051 0 0 0-.273-3.38 8.11 8.11 0 0 0-1.091-2.22c3.201-1.175 5.866-2.899 4.953-3.696-5.8 2.172-10.178 2.466-12.178 2.46-1.068-.003-1.454 1.43-.512 1.936.84.451 2.206.6 3.741.368l.085-.016.088.114c.743.726 1.158 1.43 1.379 2.134.177.577.226 1.18.146 1.842-.083.656-.306 1.381-.675 2.15-.74 1.54-2.098 3.249-3.967 4.909-2.04 1.827-2.369 2.401-5.398 3.953-8.384 2.903-10.317-5.352-12.474-4.873-2.293.509 5.817 9.651-11.697 12.05-4.103.562-8.053.388-11.286-.06-2.159-.298-4.003-.792-5.371-1.436-.776-.368-2.661-2.155-2.829-2.683-.18-.609-.201-1.355.108-2.384a1.75 1.75 0 0 0 .071-.354c1.381-.724 2.415-1.633 2.872-2.504.563-1.069-.702-2.168-1.702-1.49a30.488 30.488 0 0 1-3.538 2.038 1.85 1.85 0 0 0-.483.236c-2.234 1.069-5.206 2.222-8.94 3.116-.379 1.422 3.781 1.241 7.801.118a6.957 6.957 0 0 0 .278 2.304c.371 1.213 1.087 2.269 2.003 3.115.909.85 2.013 1.51 3.25 2.04 2.472 1.055 8.945 29.181 36.555 20.741z"/></g><path d="M172.005 91.549c-.521-1.704 3.124-4.329 8.141-5.862 5.019-1.534 9.508-1.396 10.029.309.521 1.704-3.125 4.329-8.143 5.862s-9.507 1.394-10.027-.309zM97.354 114.367c-.521-1.704 3.124-4.329 8.142-5.862 5.018-1.534 9.508-1.396 10.028.309.521 1.703-3.124 4.329-8.143 5.862-5.016 1.533-9.506 1.394-10.027-.309zM166.901 127.498a8.01 8.01 0 0 0-1.242-1.064c-3.652-2.556-11.799-1.813-18.323 4.664-1.367-.196-3.157-.055-5.036.474-3.7 1.041-6.335 3.181-5.885 4.781.401 1.428 3.129 1.938 6.344 1.29a12.677 12.677 0 0 0 .972-.227l.197-.051.139-.042.05-.015c.258-.076.511-.158.757-.244l.363-.128.055-.021c1.519-.564 3.436-1.503 5.176-3.042 1.137.589 3.359 2.735 4.724 3.948.332.294.668.604 1.013.943 5.276 4.207 16.562-4.993 10.696-11.266zM148.912 98.687c28.792-8.977 10.981 10 3.814 12.235-7.166 2.235-32.606-3.258-3.814-12.235z" fill="#e93e8f"/><path d="M153.733 100.548c.57-.52 1.428-.999 2.442-1.315 1.309-.408 2.556-.444 3.362-.165.452.156.768.41.875.755.3.961-1.111 2.257-3.151 2.894s-3.938.372-4.238-.59c-.15-.485.132-1.053.71-1.579z" fill="#fff"/></g><g><g fill="#740806"><path d="M267.372 35.146c.069-.14.141-.278.197-.427.19-.498.328-1.038.416-1.616.092.092.187.18.284.266 1.204 1.07 2.784 1.42 4.333.96a5.087 5.087 0 0 0 1.524-.74c.776-.555 1.36-1.306 1.738-2.231.387-.954.606-2.051.653-3.263a17.519 17.519 0 0 0-.232-3.415 36.84 36.84 0 0 0-.672-3.253 72.794 72.794 0 0 0-.773-2.82l-.169-.568-.414-1.395a42.692 42.692 0 0 0-.511-1.573 24.604 24.604 0 0 0-.899-2.238 42.368 42.368 0 0 0-1.12-2.265 12.525 12.525 0 0 0-1.651-2.41c-.691-.776-1.443-1.387-2.242-1.82a4.928 4.928 0 0 0-3.827-.404 7.137 7.137 0 0 0-2.605 1.412 9.339 9.339 0 0 0-1.492 1.593 7.478 7.478 0 0 0-1.533-.698 5.492 5.492 0 0 0-3.28-.035 7.32 7.32 0 0 0-2.187 1.077 10.252 10.252 0 0 0-1.85 1.742c-1.068-.365-2.244-.374-3.429-.023-.537.16-1.031.4-1.47.714a4.882 4.882 0 0 0-1.688 2.188c-.363.923-.553 1.977-.568 3.142-.012.998.082 2.065.281 3.174l.002.013a19.59 19.59 0 0 0-1.358-1.662 9.219 9.219 0 0 0-2.521-2.013 10.96 10.96 0 0 0-5.784-1.309c-.971.051-1.922.214-2.831.484-1.018.302-2.062.804-3.102 1.491a13.474 13.474 0 0 0-2.709 2.35 9.893 9.893 0 0 0-1.935 3.284 6.93 6.93 0 0 0-.108 4.35c.405 1.367 1.322 2.449 2.581 3.051.456.219.931.367 1.417.443-.449.684-.83 1.398-1.141 2.137-.751 1.79-.847 3.658-.284 5.553.321 1.081.877 2.097 1.654 3.021a10.17 10.17 0 0 0 2.526 2.162c.954.579 2 .992 3.1 1.221a7.536 7.536 0 0 0 3.721-.15 11.825 11.825 0 0 0 3.96-2.057c.092-.072.182-.144.271-.218 1.014.642 2.652 1.228 4.848.576a5.286 5.286 0 0 0 1.585-.766 4.926 4.926 0 0 0 1.75-2.307c.335-.902.5-1.883.493-2.921.608.76 1.272 1.374 1.98 1.83a4.917 4.917 0 0 0 4.125.593 5.761 5.761 0 0 0 1.723-.832 5.295 5.295 0 0 0 1.768-2.193l.178.164c1.255 1.121 2.895 1.493 4.498 1.017l.011-.004a4.72 4.72 0 0 1 1.478-1.726 5.627 5.627 0 0 1 1.29-.656zM242.595 23.24c.593.972 1.13 1.988 1.61 3.048.48 1.061.91 2.136 1.29 3.227a74.464 74.464 0 0 1 1.033 3.2c.136.457.294 1.061.475 1.808.18.748.285 1.499.314 2.251.03.752-.07 1.437-.301 2.059a1.895 1.895 0 0 1-.682.909c-.196.14-.427.25-.692.329-.941.279-1.756.189-2.446-.27-.689-.459-1.157-1.15-1.403-2.072a9.849 9.849 0 0 1-2.598 2.747 8.791 8.791 0 0 1-2.632 1.294 4.552 4.552 0 0 1-2.255.089 6.785 6.785 0 0 1-2.161-.852 7.15 7.15 0 0 1-1.781-1.525c-.512-.608-.87-1.256-1.074-1.942-.362-1.22-.304-2.398.174-3.537a10.798 10.798 0 0 1 2.068-3.164 16.78 16.78 0 0 1 3.03-2.58c1.12-.747 2.144-1.327 3.072-1.741a2.98 2.98 0 0 1-.083-.349 2.833 2.833 0 0 0-.083-.349c-.234-.788-.639-1.36-1.214-1.714-.576-.353-1.258-.415-2.045-.181-.502.149-.929.35-1.28.601a2.94 2.94 0 0 0-.264.211c-.392.351-.754.721-1.081 1.108-.328.389-.663.751-1.005 1.087a2.943 2.943 0 0 1-.331.279c-.275.197-.59.347-.945.453-.559.166-1.088.131-1.588-.11-.5-.239-.832-.637-.998-1.197-.249-.839-.228-1.674.064-2.508s.743-1.597 1.354-2.29a10.472 10.472 0 0 1 2.112-1.829c.798-.527 1.565-.899 2.302-1.119.686-.204 1.397-.325 2.132-.363s1.46.023 2.171.186c.713.162 1.39.417 2.032.766a6.21 6.21 0 0 1 1.716 1.378c.736.802 1.4 1.691 1.993 2.662zm21.145 11.418c-.611.182-1.161.054-1.649-.381-.488-.436-.915-.986-1.278-1.654a14.237 14.237 0 0 1-.931-2.088 35.522 35.522 0 0 1-.566-1.699 42.238 42.238 0 0 1-.354-1.264c-.108-.41-.227-.832-.355-1.264l-.26-.877a61.997 61.997 0 0 0-.42-1.347 39.735 39.735 0 0 0-.534-1.522 15.812 15.812 0 0 0-.608-1.417c-.208-.422-.429-.749-.665-.985-.236-.234-.455-.321-.658-.261a.824.824 0 0 0-.242.118c-.21.151-.372.411-.487.783a7.014 7.014 0 0 0-.284 1.703c-.033.632-.024 1.245.028 1.837.052.594.115 1.017.19 1.271l.068.23c.362 1.22.793 2.393 1.292 3.515a28.79 28.79 0 0 1 1.293 3.516c.212.712.177 1.435-.103 2.168a2.286 2.286 0 0 1-.811 1.067 2.769 2.769 0 0 1-.829.395 1.905 1.905 0 0 1-1.647-.238c-.513-.331-1.002-.815-1.469-1.452a13.886 13.886 0 0 1-1.286-2.17c-.392-.81-.737-1.62-1.033-2.432-.297-.81-.55-1.551-.763-2.22-.213-.67-.368-1.17-.466-1.501-.114-.38-.286-.938-.518-1.672a39.526 39.526 0 0 1-.674-2.414 40.83 40.83 0 0 1-.577-2.711 13.943 13.943 0 0 1-.235-2.607c.011-.805.13-1.498.359-2.078.144-.364.359-.648.644-.852.168-.12.36-.213.578-.277.66-.196 1.253-.178 1.779.053.525.232.893.704 1.104 1.414.045.152.084.307.117.463.032.157.055.302.067.436.159-.489.379-1.004.662-1.545.282-.54.607-1.052.976-1.534a7.29 7.29 0 0 1 1.257-1.286l.21-.158a4.31 4.31 0 0 1 1.295-.64 2.452 2.452 0 0 1 1.497.012c.489.159.95.402 1.379.732.429.329.817.705 1.164 1.126.347.423.623.839.827 1.249.118-.533.293-1.09.521-1.669a8.366 8.366 0 0 1 .833-1.596 6.302 6.302 0 0 1 1.17-1.301 4.106 4.106 0 0 1 1.519-.825c.534-.159 1.048-.103 1.542.165s.97.659 1.427 1.174a9.338 9.338 0 0 1 1.248 1.829c.376.704.721 1.404 1.039 2.097.315.694.579 1.35.79 1.964.21.616.369 1.101.474 1.456l.582 1.965c.245.826.493 1.727.741 2.705.249.977.455 1.974.618 2.989.164 1.017.229 1.959.196 2.826s-.178 1.615-.433 2.244a2.068 2.068 0 0 1-.705.924 2.091 2.091 0 0 1-.632.303c-.56.166-1.056.057-1.488-.327-.431-.383-.806-.874-1.121-1.472a11.455 11.455 0 0 1-.787-1.882 93.988 93.988 0 0 1-.483-1.557c-.34-1.144-.633-2.274-.881-3.389s-.543-2.245-.882-3.39l-.204-.686a6.777 6.777 0 0 0-.37-.969 3.632 3.632 0 0 0-.508-.804c-.19-.22-.399-.296-.628-.228a1.208 1.208 0 0 0-.366.177c-.255.182-.432.468-.53.856a7.143 7.143 0 0 0-.194 1.863c.011.689.072 1.355.179 2 .109.646.195 1.124.261 1.436.047.345.15.855.309 1.527.157.673.321 1.412.492 2.218.17.807.308 1.645.413 2.512.105.868.15 1.671.134 2.408-.017.738-.125 1.372-.328 1.903-.132.347-.326.612-.579.793a1.486 1.486 0 0 1-.453.219z"/><path d="M238.864 30.798c-.331.098-.719.304-1.165.616l-.055.039a6.723 6.723 0 0 0-1.171 1.072 5.845 5.845 0 0 0-.876 1.317c-.212.451-.262.866-.148 1.248.106.356.304.56.597.611.292.053.603.029.933-.069a4.09 4.09 0 0 0 1.211-.612c.151-.108.301-.227.451-.359a21.126 21.126 0 0 0 1.423-1.356l-.883-2.558-.158.026zM205.669 54.208a8.236 8.236 0 0 0 2.081-.222c.523-.123.949-.235 1.307-.341a25.77 25.77 0 0 0 1.795-.625 31.94 31.94 0 0 0 2.24-.963c.8-.379 1.598-.816 2.37-1.297.288-.18.564-.364.827-.552.516-.369.997-.765 1.429-1.176.793-.756 1.396-1.594 1.795-2.493a5.39 5.39 0 0 0 .235-3.76c-.292-.984-.79-1.804-1.481-2.437a5.649 5.649 0 0 0-2.112-1.22 6.272 6.272 0 0 0-1.112-.243 138 138 0 0 0-1.227-5.929 198.03 198.03 0 0 0-1.623-6.509 8.541 8.541 0 0 0 1.092-1.206 6.283 6.283 0 0 0 1.085-2.342 5.678 5.678 0 0 0-.107-2.923c-.434-1.463-1.457-2.545-2.881-3.047a8.259 8.259 0 0 0-2.661-.454 11.69 11.69 0 0 0-2.474.232c-.696.143-1.246.275-1.689.407-.747.222-1.654.558-2.773 1.028-1.175.493-2.31 1.1-3.374 1.803-.14.093-.277.187-.411.283a11.187 11.187 0 0 0-2.576 2.53c-1.098 1.52-1.416 3.319-.897 5.067.333 1.121 1 2.03 1.931 2.629a6.228 6.228 0 0 0 2.128.856 7.09 7.09 0 0 0 1.763.137l.376 1.457 1.122 4.339c.352 1.366.654 2.742.898 4.085.145.804.289 1.624.43 2.454a7.728 7.728 0 0 0-1.497 1.821 7.24 7.24 0 0 0-.89 2.35 6.203 6.203 0 0 0 .171 2.939c.367 1.236 1.181 2.212 2.293 2.751.75.36 1.56.55 2.417.571zm-1.833-4.176a3.21 3.21 0 0 1-.1-1.526c.091-.483.265-.943.524-1.38.258-.435.579-.821.964-1.157a6.942 6.942 0 0 1 1.216-.859c-.237-1.45-.484-2.891-.743-4.322s-.575-2.865-.945-4.305a5891.028 5891.028 0 0 1-2.23-8.631 9.212 9.212 0 0 1-.478.204 5.332 5.332 0 0 1-.414.144c-.357.106-.749.18-1.178.225-.43.044-.851.024-1.263-.061a3.23 3.23 0 0 1-1.106-.439c-.323-.209-.551-.528-.679-.961-.256-.863-.106-1.683.453-2.457.492-.682 1.121-1.297 1.889-1.847a17.485 17.485 0 0 1 3.201-1.759c1.008-.424 1.829-.729 2.465-.918.356-.106.833-.22 1.433-.343a8.695 8.695 0 0 1 1.837-.172 5.3 5.3 0 0 1 1.702.283c.509.18.844.537 1.002 1.072.144.483.163.946.061 1.392a3.284 3.284 0 0 1-.569 1.227 5.557 5.557 0 0 1-.984 1.017 7.505 7.505 0 0 1-.353.269 6.37 6.37 0 0 1-.793.487c.802 2.888 1.516 5.69 2.143 8.408s1.185 5.553 1.674 8.506l.23-.068a5.696 5.696 0 0 1 1.239-.223 3.24 3.24 0 0 1 1.204.14c.382.122.716.314 1 .574.286.262.496.621.632 1.079a2.378 2.378 0 0 1-.1 1.689c-.24.542-.615 1.054-1.12 1.536-.333.317-.702.62-1.108.91-.213.152-.436.301-.669.446a20.7 20.7 0 0 1-2.069 1.133 28.85 28.85 0 0 1-2.024.871c-.646.247-1.172.431-1.578.552-.305.09-.685.189-1.137.296a5.22 5.22 0 0 1-1.326.144 2.852 2.852 0 0 1-1.18-.271c-.353-.171-.595-.472-.723-.905zM295.39 38.943c-1.334-.794-2.803-.985-4.249-.556a5.232 5.232 0 0 0-1.561.753 4.653 4.653 0 0 0-1.242 1.318 6.092 6.092 0 0 0-.877 2.555 9.697 9.697 0 0 0 .025 2.343l.012.085a13.487 13.487 0 0 0-.971-1.66c-.555-.805-1.194-1.473-1.896-1.978a4.61 4.61 0 0 0-3.794-.766 5.18 5.18 0 0 0-1.878.832c-.816.584-1.42 1.382-1.798 2.37a8.46 8.46 0 0 0-.165.471 77.652 77.652 0 0 0-.862-3.137 35.064 35.064 0 0 0-.645-1.947 9.883 9.883 0 0 0-1.255-2.4 6.234 6.234 0 0 0-2.476-2.058c-1.193-.548-2.532-.607-3.983-.176-.142.042-.267.103-.401.154a5.543 5.543 0 0 0-1.289.657 4.719 4.719 0 0 0-1.478 1.726l-.086.16a6.908 6.908 0 0 0-.613 3.012c.01.825.108 1.678.29 2.532.147.691.283 1.297.408 1.81l.194.823a7.794 7.794 0 0 0-2.04.321 7.825 7.825 0 0 0-2.333 1.125 7.134 7.134 0 0 0-1.069.939 8.868 8.868 0 0 0-1.85 3.044 12.446 12.446 0 0 0-.695 3.297 21.82 21.82 0 0 0-.062 1.449 19.86 19.86 0 0 0-1.617-2.028 9.23 9.23 0 0 0-2.521-2.012 10.93 10.93 0 0 0-5.785-1.309c-.971.051-1.922.214-2.831.484-1.018.302-2.062.804-3.102 1.491a13.509 13.509 0 0 0-2.709 2.35 9.88 9.88 0 0 0-1.934 3.284c-.048.135-.091.27-.13.406a9.528 9.528 0 0 0-3.157-2.483 9.535 9.535 0 0 0-3.538-.923 10.427 10.427 0 0 0-3.662.414 10.408 10.408 0 0 0-3.109 1.496 9.372 9.372 0 0 0-2.015 1.962 13.552 13.552 0 0 0-1.904 3.481 14.811 14.811 0 0 0-1.438-2.772 11.925 11.925 0 0 0-3.121-3.222 10.468 10.468 0 0 0-4.284-1.726c-1.581-.264-3.261-.137-4.992.377-.719.213-1.603.609-2.781 1.244a31.536 31.536 0 0 0-3.216 2.01l-.087.063a23.885 23.885 0 0 0-2.881 2.411c-1.209 1.196-1.904 2.38-2.122 3.618-.123.617-.126 1.279-.009 2.019.067.429.149.885.244 1.36.106.53.231 1.033.37 1.503l.288.972c.335 1.13.696 2.273 1.073 3.399.348 1.039.684 2.102.999 3.164.34 1.147.655 2.298.936 3.423a87.026 87.026 0 0 0 1.005 3.677c.171.577.419 1.368.745 2.37a20.584 20.584 0 0 0 1.381 3.261c.653 1.228 1.47 2.254 2.429 3.051 1.436 1.194 3.219 1.558 5.022 1.022a5.148 5.148 0 0 0 1.539-.746c.969-.693 1.655-1.72 1.983-2.966.304-1.151.411-2.421.318-3.774l-.002-.02.049.061c.906 1.103 1.869 2.038 2.862 2.776 1.553 1.153 3.336 1.51 5.024 1.008a6.096 6.096 0 0 0 1.819-.871 4.971 4.971 0 0 0 1.94-2.807c.344-1.302.316-2.643-.083-3.987a10.645 10.645 0 0 0-.1-.32l.184.152a12.528 12.528 0 0 0 4.48 2.344c1.803.519 3.683.497 5.584-.067.946-.281 1.892-.757 2.812-1.415.216-.155.432-.32.65-.498a14.992 14.992 0 0 0 2.734-2.938c.457-.644.851-1.316 1.178-2.008.499.459 1.041.866 1.623 1.217a9.806 9.806 0 0 0 3.099 1.221 7.536 7.536 0 0 0 3.721-.151 11.816 11.816 0 0 0 3.961-2.056c.091-.071.181-.144.27-.217 1.014.642 2.651 1.227 4.849.575a5.333 5.333 0 0 0 1.585-.766 4.92 4.92 0 0 0 1.749-2.307c.367-.988.532-2.073.487-3.22a15.484 15.484 0 0 0-.083-1.071 13.132 13.132 0 0 0 3.267 2.387 7.343 7.343 0 0 0 5.525.51 8.235 8.235 0 0 0 2.462-1.2 8.66 8.66 0 0 0 1.716-1.635l.072-.09c1.109.41 2.298.442 3.495.086a5.119 5.119 0 0 0 1.537-.741 4.598 4.598 0 0 0 1.549-1.923 6.655 6.655 0 0 0 .522-2.855 11.198 11.198 0 0 0-.259-2.05c.427.419.877.8 1.347 1.139a9.279 9.279 0 0 0 3.42 1.548c1.346.306 2.772.242 4.233-.193a8.984 8.984 0 0 0 1.937-.824c-.01.371-.041.726-.092 1.061a3.19 3.19 0 0 1-.218.796 17.063 17.063 0 0 1-.838-.043 12.758 12.758 0 0 0-1.252-.07c-.6-.006-1.21.081-1.802.256a5.032 5.032 0 0 0-1.853 1.011c-.453.39-.843.846-1.16 1.356a5.26 5.26 0 0 0-.724 1.883 4.722 4.722 0 0 0 .114 2.195c.412 1.386 1.3 2.516 2.569 3.271a9.542 9.542 0 0 0 3.086 1.148c1.022.196 2.079.27 3.144.219 1.066-.049 2.033-.201 2.875-.452 1.19-.353 2.258-.864 3.173-1.519a9.126 9.126 0 0 0 1.621-1.485c1.097-1.289 1.901-2.807 2.393-4.513.447-1.547.686-3.233.712-5.008a32.867 32.867 0 0 0-.313-4.98 50.888 50.888 0 0 0-.857-4.599 72.085 72.085 0 0 0-1.01-3.838 50.49 50.49 0 0 0-1.714-4.738 37.53 37.53 0 0 0-1.407-2.991 18.866 18.866 0 0 0-1.845-2.882c-.786-.994-1.647-1.775-2.565-2.321zm-76.84 35.452-.175-.18a44.09 44.09 0 0 0-.215-.216c.063-.125.123-.251.182-.377.064.262.133.52.208.773zm-2.062-4.498c-.399 1.639-1.113 3.193-2.143 4.66.587.49 1.218 1.077 1.892 1.762a23.712 23.712 0 0 1 3.57 4.687c.484.839.839 1.639 1.065 2.401.242.814.261 1.603.059 2.368a1.981 1.981 0 0 1-.785 1.133 3.099 3.099 0 0 1-.927.434c-.788.234-1.582.054-2.379-.539s-1.576-1.35-2.334-2.273-1.484-1.876-2.176-2.86c-.693-.983-1.302-1.756-1.829-2.32l-.147.104c-.36.257-.704.526-1.034.807-.376.32-.766.636-1.171.95.14.567.324 1.349.552 2.346.226.997.375 2.012.446 3.041.071 1.03-.004 1.965-.225 2.805-.151.573-.427 1.003-.829 1.29a2.137 2.137 0 0 1-.646.31c-.839.249-1.589.098-2.25-.453s-1.227-1.268-1.697-2.152a17.397 17.397 0 0 1-1.178-2.782c-.315-.971-.556-1.737-.722-2.296a81.76 81.76 0 0 1-.971-3.55 86.389 86.389 0 0 0-.971-3.549 96.311 96.311 0 0 0-1.03-3.262 99.74 99.74 0 0 1-1.041-3.301l-.288-.972a14.247 14.247 0 0 1-.305-1.237 30.388 30.388 0 0 1-.223-1.241c-.063-.397-.065-.728-.005-.995.095-.609.523-1.288 1.282-2.04a20.737 20.737 0 0 1 2.518-2.105l.077-.055a28.344 28.344 0 0 1 2.904-1.817c.966-.521 1.703-.858 2.211-1.009 1.297-.385 2.513-.483 3.646-.293a7.42 7.42 0 0 1 3.062 1.228c.905.631 1.685 1.436 2.336 2.418s1.153 2.071 1.508 3.265c.515 1.755.577 3.453.178 5.092zm18.642-3.584c-.2 1.194-.605 2.296-1.218 3.307s-1.396 1.915-2.349 2.709c-.202.169-.409.329-.62.48a9.774 9.774 0 0 1-2.503 1.298c.32.708.777 1.153 1.371 1.335.594.183 1.235.173 1.92-.03.339-.101.655-.256.949-.466.148-.106.288-.224.425-.358.407-.397.793-.822 1.156-1.276.364-.453.728-.873 1.099-1.259.144-.15.294-.282.451-.395a2.65 2.65 0 0 1 .789-.389c.507-.15 1.015-.121 1.519.089s.836.581.994 1.116c.257.864.234 1.79-.066 2.778a9.82 9.82 0 0 1-1.404 2.823 11.926 11.926 0 0 1-2.185 2.349c-.167.136-.332.263-.497.381-.651.466-1.292.792-1.92.979-1.348.4-2.648.421-3.903.06s-2.393-.957-3.414-1.787c-1.021-.831-1.903-1.821-2.645-2.97s-1.29-2.321-1.645-3.515c-.377-1.27-.602-2.684-.677-4.238-.074-1.554.07-3.05.433-4.485a10.653 10.653 0 0 1 1.84-3.865 6.312 6.312 0 0 1 1.368-1.333 7.387 7.387 0 0 1 2.216-1.059 7.37 7.37 0 0 1 2.609-.297 6.506 6.506 0 0 1 2.427.627 6.514 6.514 0 0 1 1.977 1.488c.575.632.997 1.405 1.269 2.32a7.924 7.924 0 0 1 .234 3.583zm2.958.496c.077-.458.123-.917.141-1.376a5.122 5.122 0 0 0 1.908.713c-.449.684-.83 1.398-1.14 2.137l-.071.174a5.304 5.304 0 0 0-1.153-.254c.131-.454.236-.92.315-1.394zm16.805-8.124a27.861 27.861 0 0 1 1.61 3.049c.48 1.06.911 2.135 1.289 3.226.379 1.09.724 2.158 1.033 3.199.135.457.293 1.061.474 1.809.18.749.285 1.499.315 2.251.029.752-.071 1.438-.302 2.06a1.894 1.894 0 0 1-.681.909 2.293 2.293 0 0 1-.693.329c-.941.279-1.756.189-2.445-.27-.69-.459-1.158-1.15-1.403-2.073a9.839 9.839 0 0 1-2.599 2.747 8.812 8.812 0 0 1-2.633 1.295 4.552 4.552 0 0 1-2.255.089 6.823 6.823 0 0 1-2.162-.852 7.15 7.15 0 0 1-1.781-1.525c-.511-.608-.87-1.256-1.074-1.943-.362-1.219-.304-2.398.174-3.536a10.806 10.806 0 0 1 2.069-3.165 16.792 16.792 0 0 1 3.029-2.58c1.12-.747 2.144-1.327 3.072-1.741a2.747 2.747 0 0 1-.082-.35 3.015 3.015 0 0 0-.083-.348c-.234-.788-.639-1.361-1.214-1.715s-1.258-.415-2.045-.181c-.502.149-.929.35-1.28.601a2.89 2.89 0 0 0-.263.211c-.393.352-.754.721-1.081 1.108-.327.388-.663.751-1.005 1.087a2.856 2.856 0 0 1-.331.279c-.274.196-.59.347-.945.453-.559.166-1.087.13-1.588-.109-.5-.239-.832-.637-.998-1.198a3.97 3.97 0 0 1 .065-2.507 6.87 6.87 0 0 1 1.353-2.291 10.465 10.465 0 0 1 2.111-1.83c.797-.527 1.564-.899 2.302-1.118a9.155 9.155 0 0 1 2.133-.364 7.96 7.96 0 0 1 4.203.952 6.192 6.192 0 0 1 1.715 1.378 17.015 17.015 0 0 1 1.996 2.664zm21.227-5.077c.444 1.5.93 2.974 1.458 4.422a78.339 78.339 0 0 1 1.457 4.422c.12.406.253.9.397 1.479.145.578.226 1.157.245 1.732s-.075 1.101-.279 1.576a1.561 1.561 0 0 1-.539.669c-.18.129-.395.231-.644.305-.763.227-1.477.128-2.142-.297a4.127 4.127 0 0 1-1.505-1.649c-.212 1.058-.681 2.042-1.407 2.949-.337.42-.711.777-1.122 1.072a5.27 5.27 0 0 1-1.569.764 4.313 4.313 0 0 1-3.306-.306c-1.06-.542-2.029-1.291-2.907-2.248a16.207 16.207 0 0 1-2.261-3.146c-.63-1.14-1.076-2.156-1.341-3.047-.188-.635-.365-1.371-.53-2.207s-.277-1.701-.335-2.597c-.06-.895-.054-1.789.013-2.68s.241-1.724.523-2.499c.282-.774.69-1.45 1.225-2.023.188-.202.395-.383.621-.545a4.792 4.792 0 0 1 1.44-.689c.914-.271 1.871-.265 2.868.02.997.284 1.829.758 2.495 1.417l-1.456-6.165a59.694 59.694 0 0 1-.389-1.73 9.868 9.868 0 0 1-.225-1.945c-.009-.633.104-1.207.34-1.72.128-.279.323-.512.584-.699.219-.157.485-.282.798-.375.737-.219 1.361-.21 1.873.025.512.236.946.597 1.298 1.088.353.49.642 1.047.87 1.671.227.624.423 1.216.589 1.775a75.85 75.85 0 0 1 1.431 5.59 76.768 76.768 0 0 0 1.432 5.591zm21.024-8.065c.477.91.908 1.825 1.292 2.747a48.363 48.363 0 0 1 1.608 4.44c.317 1.067.639 2.293.967 3.675.327 1.383.596 2.824.806 4.324.21 1.501.305 3.006.285 4.521-.022 1.513-.219 2.921-.594 4.221-.375 1.301-.973 2.431-1.793 3.396a6.07 6.07 0 0 1-1.084.993c-.647.463-1.408.824-2.281 1.084-.61.181-1.331.292-2.164.331-.833.04-1.643-.018-2.435-.169a6.529 6.529 0 0 1-2.12-.781c-.621-.37-1.029-.884-1.225-1.546a1.76 1.76 0 0 1-.037-.818c.053-.292.157-.565.317-.82.158-.255.349-.478.569-.667l.146-.115c.183-.131.385-.23.605-.295.305-.09.617-.135.936-.132.318.001.649.021.992.057.367.029.725.047 1.073.055.348.007.7-.042 1.057-.148.284-.084.54-.207.766-.369.278-.199.511-.456.7-.771.341-.572.574-1.256.697-2.053.123-.798.16-1.651.111-2.564a27.62 27.62 0 0 0-.275-2.677 36.952 36.952 0 0 0-.455-2.438 131.88 131.88 0 0 0-.418-1.825c-.49 1.611-1.064 2.909-1.727 3.893a4.779 4.779 0 0 1-1.193 1.23 5.689 5.689 0 0 1-1.706.814c-.967.287-1.872.334-2.718.142a6.31 6.31 0 0 1-2.324-1.053 9.468 9.468 0 0 1-1.931-1.895 14.842 14.842 0 0 1-1.529-2.429 23.347 23.347 0 0 1-1.122-2.593 19.799 19.799 0 0 1-.719-2.421 29.24 29.24 0 0 1-.441-2.256c-.154-.935-.232-1.873-.234-2.813s.138-1.776.418-2.51c.165-.431.412-.765.742-1.002.229-.164.497-.28.806-.349.49-.118.946-.025 1.369.278.422.304.815.72 1.179 1.248.364.527.694 1.128.99 1.8.297.673.56 1.349.789 2.028.228.678.421 1.305.579 1.882.157.576.281 1.015.371 1.321.128.433.269.861.423 1.285.153.426.358.786.612 1.083.254.298.57.501.949.61.377.109.859.077 1.444-.097.356-.106.661-.248.912-.428.213-.152.387-.331.524-.537.295-.447.466-.947.509-1.5a6.086 6.086 0 0 0-.114-1.708 18.648 18.648 0 0 0-.404-1.643l-.385-1.296a66.152 66.152 0 0 1-.457-1.608 12.64 12.64 0 0 1-.34-1.703 6.62 6.62 0 0 1-.021-1.611 3.12 3.12 0 0 1 .44-1.314c.115-.183.264-.34.445-.469a2.23 2.23 0 0 1 .669-.317c.636-.189 1.257-.103 1.861.256.605.36 1.185.893 1.74 1.599a16.08 16.08 0 0 1 1.548 2.427z"/><path d="M251.162 66.243c-.331.099-.719.304-1.165.616l-.055.038a6.723 6.723 0 0 0-1.171 1.072 5.856 5.856 0 0 0-.876 1.317c-.211.451-.26.866-.148 1.248.106.356.306.56.597.61a2 2 0 0 0 .933-.069c.406-.12.81-.324 1.211-.611.15-.107.301-.227.451-.359.549-.48 1.022-.932 1.423-1.356l-.883-2.558-.159.025zM269.083 55.967a4.657 4.657 0 0 0-1.227-.569 2.167 2.167 0 0 0-1.246-.004c-.212.063-.396.15-.551.261-.181.13-.324.292-.43.486a2.59 2.59 0 0 0-.31 1.192c-.01.432.034.881.132 1.35s.195.869.294 1.199c.09.304.249.749.477 1.33.228.584.502 1.158.824 1.727.32.568.676 1.044 1.066 1.426s.8.508 1.233.38c.269-.08.525-.205.767-.378l.162-.126c.29-.236.548-.508.776-.811.228-.302.437-.626.624-.974.187-.346.35-.662.485-.953l-.091-.305a39.66 39.66 0 0 0-.547-1.704 19.472 19.472 0 0 1-.509-1.715c-.25-.284-.536-.594-.856-.929a6.267 6.267 0 0 0-1.073-.883zM228.596 63.731c-.305.09-.571.217-.799.379a2.099 2.099 0 0 0-.482.477 3.836 3.836 0 0 0-.626 1.389 6.493 6.493 0 0 0-.166 1.605c.012.55.068 1.045.171 1.484.333-.181.729-.409 1.187-.683a7.728 7.728 0 0 0 1.257-.934c.38-.348.68-.734.901-1.16.219-.424.262-.866.126-1.323-.097-.331-.29-.648-.572-.951-.284-.301-.616-.396-.997-.283zM206.865 65.99a4.975 4.975 0 0 0-1.464.725l-.024.017c-.459.328-.867.668-1.226 1.018a98.294 98.294 0 0 1 1.891 5.952l.115-.081c.443-.317.883-.681 1.321-1.092a7.735 7.735 0 0 0 1.238-1.488 5.89 5.89 0 0 0 .756-1.718c.154-.598.133-1.228-.063-1.889s-.497-1.118-.904-1.371c-.407-.251-.953-.277-1.64-.073z"/></g><path d="M270.908 16.04c-.21-.615-.474-1.27-.79-1.964-.317-.694-.663-1.393-1.038-2.098s-.792-1.314-1.248-1.829c-.457-.514-.933-.906-1.427-1.174s-1.009-.323-1.542-.165a4.15 4.15 0 0 0-1.519.825 6.269 6.269 0 0 0-1.169 1.301 8.253 8.253 0 0 0-.833 1.596c-.229.58-.403 1.136-.521 1.669a6.683 6.683 0 0 0-.827-1.249 7.088 7.088 0 0 0-1.164-1.127c-.43-.329-.89-.572-1.379-.731s-.989-.163-1.497-.012c-.534.158-1.035.424-1.505.799s-.889.803-1.257 1.286a10.56 10.56 0 0 0-.976 1.534c-.283.54-.503 1.055-.662 1.544-.012-.134-.035-.28-.067-.436s-.071-.311-.116-.464c-.211-.711-.579-1.183-1.104-1.414s-1.119-.249-1.779-.053c-.585.174-.992.55-1.221 1.13-.228.58-.348 1.273-.358 2.077-.009.806.068 1.674.235 2.606.166.933.359 1.836.577 2.712s.443 1.681.675 2.414c.232.734.405 1.291.518 1.672.098.33.253.831.466 1.501.212.67.466 1.41.763 2.22.296.812.64 1.622 1.032 2.432.392.811.822 1.534 1.287 2.17.466.637.955 1.12 1.469 1.452a1.903 1.903 0 0 0 1.646.238c.814-.241 1.36-.73 1.641-1.462.28-.733.315-1.455.103-2.168a28.79 28.79 0 0 0-1.293-3.516 28.89 28.89 0 0 1-1.292-3.516l-.068-.229c-.075-.254-.139-.677-.191-1.271-.052-.593-.06-1.206-.027-1.838s.128-1.2.283-1.703c.155-.502.397-.803.729-.901.203-.06.423.027.658.261.236.236.457.563.665.985.209.423.411.895.608 1.417.196.523.374 1.03.534 1.522.159.492.3.941.42 1.347l.26.877c.128.433.246.854.355 1.264.108.411.227.832.355 1.264.121.407.309.974.566 1.699.256.727.567 1.422.93 2.088.364.667.79 1.218 1.279 1.654.488.436 1.038.563 1.648.382.482-.143.825-.48 1.028-1.01.202-.531.312-1.164.328-1.902.016-.737-.029-1.54-.134-2.408a29.712 29.712 0 0 0-.413-2.512c-.171-.806-.335-1.546-.492-2.218a17.456 17.456 0 0 1-.309-1.527 43.458 43.458 0 0 1-.26-1.436c-.108-.645-.168-1.312-.179-2s.054-1.309.194-1.863c.14-.553.44-.898.896-1.033.229-.068.438.008.628.228.19.221.359.488.508.804.149.315.272.638.37.969l.204.686c.34 1.144.634 2.274.882 3.389s.542 2.245.882 3.389c.113.381.273.901.482 1.557.21.658.471 1.285.787 1.882.316.598.69 1.089 1.121 1.472s.928.493 1.487.327c.635-.188 1.081-.598 1.337-1.227.255-.629.4-1.377.433-2.244s-.033-1.809-.196-2.826c-.163-1.015-.369-2.012-.617-2.99s-.496-1.879-.741-2.705l-.583-1.964c-.106-.355-.264-.84-.475-1.456zm-32.266 18.621c-.549.481-1.103.804-1.662.97-.33.098-.641.122-.933.069-.292-.051-.491-.255-.597-.61-.113-.382-.063-.797.148-1.248a5.84 5.84 0 0 1 .875-1.317 6.69 6.69 0 0 1 1.226-1.111c.446-.312.834-.518 1.165-.616l.158-.027.158-.026.884 2.558c-.4.425-.873.878-1.422 1.358zm6.853-5.146a37.901 37.901 0 0 0-1.29-3.226 28.035 28.035 0 0 0-1.61-3.049 17.234 17.234 0 0 0-1.994-2.665 6.21 6.21 0 0 0-1.716-1.378 7.984 7.984 0 0 0-2.032-.766 7.86 7.86 0 0 0-2.171-.186 9.156 9.156 0 0 0-2.132.364c-.738.219-1.504.591-2.302 1.118s-1.502 1.138-2.112 1.83c-.611.694-1.062 1.456-1.354 2.29s-.313 1.669-.065 2.508c.166.56.498.958.998 1.197.5.24 1.029.275 1.588.109a3 3 0 0 0 1.276-.731c.342-.336.678-.698 1.006-1.087.327-.387.688-.756 1.081-1.108.394-.352.908-.623 1.544-.812.787-.234 1.47-.172 2.045.181.575.355.98.926 1.214 1.715.038.127.065.243.083.348.017.106.045.222.082.349-.928.414-1.952.994-3.072 1.741a16.874 16.874 0 0 0-3.03 2.58 10.826 10.826 0 0 0-2.069 3.165c-.478 1.138-.536 2.317-.174 3.536.204.687.562 1.335 1.074 1.943a7.15 7.15 0 0 0 1.781 1.525c.674.409 1.394.692 2.161.852s1.518.13 2.255-.089a8.885 8.885 0 0 0 2.965-1.543 9.853 9.853 0 0 0 2.267-2.498c.245.922.713 1.614 1.402 2.072.69.46 1.505.55 2.446.27.686-.204 1.144-.617 1.374-1.238.231-.622.331-1.307.301-2.06a11.511 11.511 0 0 0-.315-2.251 37.858 37.858 0 0 0-.475-1.809 70.235 70.235 0 0 0-1.03-3.197zm-35.109-9.762c-.51-.181-1.077-.275-1.702-.283s-1.237.049-1.837.171c-.6.123-1.078.237-1.433.343-.636.189-1.458.495-2.466.918a17.56 17.56 0 0 0-2.882 1.54c-.914.603-1.65 1.292-2.208 2.066-.559.774-.71 1.594-.453 2.457.128.433.356.752.679.961.325.208.693.355 1.105.439.412.085.834.105 1.263.061a6.534 6.534 0 0 0 1.178-.225c.127-.038.265-.085.414-.143s.308-.126.478-.204a7560.756 7560.756 0 0 0 2.23 8.631c.371 1.439.687 2.874.945 4.304.259 1.431.506 2.871.743 4.322a7.128 7.128 0 0 0-1.217.859 4.727 4.727 0 0 0-.964 1.157 4.237 4.237 0 0 0-.525 1.38c-.091.483-.058.992.1 1.526.128.433.371.733.725.905.355.171.748.261 1.18.271s.874-.038 1.326-.144c.452-.107.832-.205 1.137-.296a28.174 28.174 0 0 0 3.601-1.423c.703-.333 1.393-.711 2.07-1.133s1.269-.874 1.776-1.356c.506-.482.88-.994 1.12-1.536s.274-1.105.101-1.689c-.136-.458-.346-.817-.632-1.079a2.648 2.648 0 0 0-1-.574 3.26 3.26 0 0 0-1.204-.141c-.42.029-.833.103-1.24.223l-.229.068a139.32 139.32 0 0 0-1.674-8.506 196.647 196.647 0 0 0-2.143-8.408 6.68 6.68 0 0 0 1.145-.755c.38-.305.707-.645.985-1.018.277-.372.466-.782.569-1.227a2.695 2.695 0 0 0-.061-1.392c-.156-.533-.49-.89-1-1.07zM299.715 72.867c.82-.964 1.418-2.094 1.793-3.396.375-1.3.573-2.707.594-4.22.02-1.515-.074-3.021-.284-4.521s-.479-2.941-.806-4.324a70.042 70.042 0 0 0-.966-3.675 48.02 48.02 0 0 0-1.608-4.439 34.296 34.296 0 0 0-1.293-2.748 15.726 15.726 0 0 0-1.549-2.424c-.556-.706-1.136-1.24-1.74-1.599-.605-.359-1.225-.445-1.861-.257-.508.151-.88.413-1.114.787a3.12 3.12 0 0 0-.44 1.313 6.622 6.622 0 0 0 .022 1.611c.073.573.187 1.141.34 1.703.153.564.306 1.099.457 1.607l.385 1.297c.151.508.286 1.056.404 1.643.119.587.157 1.156.114 1.708a3.128 3.128 0 0 1-.509 1.5c-.296.447-.775.769-1.435.965-.585.174-1.066.206-1.444.097a1.915 1.915 0 0 1-.949-.61c-.254-.299-.458-.659-.612-1.084s-.294-.853-.422-1.286a61.766 61.766 0 0 1-.372-1.321 35.228 35.228 0 0 0-.579-1.882 24.918 24.918 0 0 0-.789-2.027 10.806 10.806 0 0 0-.991-1.8c-.364-.529-.757-.944-1.179-1.247s-.879-.396-1.368-.278c-.753.167-1.269.619-1.549 1.351-.281.733-.42 1.57-.417 2.51.002.94.081 1.878.234 2.813.153.938.299 1.689.441 2.255.167.753.407 1.56.719 2.421.311.862.685 1.726 1.122 2.593.436.866.947 1.676 1.53 2.429a9.42 9.42 0 0 0 1.932 1.895 6.278 6.278 0 0 0 2.324 1.053c.845.192 1.75.145 2.717-.142 1.27-.377 2.237-1.058 2.899-2.043s1.238-2.282 1.727-3.894c.11.464.249 1.074.418 1.826.168.753.32 1.565.454 2.437.134.873.225 1.765.275 2.677s.013 1.766-.11 2.564c-.123.796-.356 1.481-.698 2.053a2.474 2.474 0 0 1-1.466 1.14 3.443 3.443 0 0 1-1.056.147 20.229 20.229 0 0 1-1.073-.054 9.549 9.549 0 0 0-.992-.058c-.32-.003-.63.041-.936.132-.28.083-.53.219-.751.409-.22.19-.41.412-.569.667-.16.255-.265.528-.317.82s-.039.565.036.818c.196.661.604 1.176 1.226 1.545a6.523 6.523 0 0 0 2.119.781 10.26 10.26 0 0 0 2.436.169c.832-.039 1.553-.15 2.163-.331 1.42-.422 2.542-1.114 3.363-2.076zm-27.557-11.362c-.136.29-.298.607-.485.953a7.596 7.596 0 0 1-.624.974 4.699 4.699 0 0 1-.776.811 2.62 2.62 0 0 1-.929.504c-.433.128-.843.002-1.233-.381a6.284 6.284 0 0 1-1.066-1.426 13.384 13.384 0 0 1-.824-1.727 17.36 17.36 0 0 1-.477-1.33c-.098-.33-.196-.73-.294-1.199s-.142-.918-.132-1.35.113-.829.31-1.192c.197-.362.523-.612.981-.748.406-.121.822-.119 1.246.004s.833.313 1.227.569c.393.257.751.552 1.072.885.32.335.606.644.856.929.147.593.317 1.165.509 1.716.191.551.374 1.12.547 1.704zm.511-20.853a6.842 6.842 0 0 0-.87-1.671 3.27 3.27 0 0 0-1.298-1.088c-.512-.235-1.137-.243-1.874-.025-.686.204-1.147.562-1.383 1.074-.236.513-.349 1.087-.34 1.72.008.634.083 1.282.225 1.945.141.663.271 1.241.389 1.73l1.456 6.165c-.666-.659-1.497-1.132-2.495-1.417s-1.954-.291-2.868-.02c-.839.249-1.526.661-2.061 1.234s-.943 1.249-1.225 2.023c-.282.775-.456 1.608-.523 2.499s-.072 1.785-.013 2.68c.058.896.17 1.761.335 2.597.166.836.342 1.572.531 2.207.264.89.71 1.906 1.34 3.046a16.177 16.177 0 0 0 2.261 3.146c.878.957 1.847 1.706 2.907 2.248a4.313 4.313 0 0 0 3.306.305c1.068-.317 1.965-.93 2.691-1.836.726-.907 1.195-1.89 1.407-2.949.339.675.84 1.224 1.506 1.648.665.425 1.379.524 2.142.297.584-.173.979-.497 1.184-.974a3.66 3.66 0 0 0 .279-1.576 8.282 8.282 0 0 0-.245-1.731 37.019 37.019 0 0 0-.397-1.479 77.802 77.802 0 0 0-1.457-4.422 76.733 76.733 0 0 1-2.889-10.012 75.722 75.722 0 0 0-1.431-5.59 32.24 32.24 0 0 0-.59-1.774zm-21.73 29.454c-.549.481-1.103.804-1.662.97-.33.098-.641.122-.933.069-.292-.051-.491-.255-.597-.61-.113-.382-.063-.797.148-1.248a5.84 5.84 0 0 1 .875-1.317 6.69 6.69 0 0 1 1.226-1.111c.446-.312.834-.518 1.165-.616l.158-.027.158-.026.884 2.558c-.399.425-.873.877-1.422 1.358zm6.853-5.146a37.901 37.901 0 0 0-1.29-3.226 28.035 28.035 0 0 0-1.61-3.049 17.234 17.234 0 0 0-1.994-2.665 6.21 6.21 0 0 0-1.716-1.378 7.984 7.984 0 0 0-2.032-.766 7.86 7.86 0 0 0-2.171-.186 9.156 9.156 0 0 0-2.132.364c-.738.219-1.504.591-2.302 1.118s-1.502 1.138-2.112 1.83a6.866 6.866 0 0 0-1.353 2.29 3.98 3.98 0 0 0-.065 2.508c.166.56.498.958.998 1.197.5.24 1.029.275 1.588.109a3 3 0 0 0 1.276-.731c.342-.336.678-.698 1.006-1.087.327-.387.688-.756 1.081-1.108.394-.352.908-.623 1.544-.812.787-.234 1.47-.172 2.045.181.575.355.98.926 1.214 1.715.038.127.065.243.083.348.017.106.045.222.082.349-.928.414-1.952.994-3.072 1.741a16.874 16.874 0 0 0-3.03 2.58 10.826 10.826 0 0 0-2.069 3.165c-.478 1.138-.536 2.317-.174 3.536.204.687.562 1.335 1.074 1.943a7.15 7.15 0 0 0 1.781 1.525c.674.409 1.394.692 2.161.852s1.518.13 2.255-.089c1.067-.317 2.056-.831 2.965-1.543s1.663-1.545 2.267-2.498c.245.922.713 1.614 1.403 2.072.69.46 1.505.55 2.446.27.686-.204 1.144-.617 1.374-1.238.231-.622.331-1.307.301-2.06a11.586 11.586 0 0 0-.314-2.251 37.858 37.858 0 0 0-.475-1.809 73.43 73.43 0 0 0-1.033-3.197zm-27.752 1.329c-.22.425-.521.812-.901 1.16a7.833 7.833 0 0 1-1.258.934 33.22 33.22 0 0 1-1.188.684 7.215 7.215 0 0 1-.171-1.484 6.493 6.493 0 0 1 .166-1.605c.123-.52.331-.982.626-1.389.294-.405.721-.691 1.281-.857.381-.113.713-.018.997.285.283.303.474.62.572.951a1.7 1.7 0 0 1-.124 1.321zm8.08 5.07a2.216 2.216 0 0 0-1.52-.089 2.812 2.812 0 0 0-1.24.784c-.37.386-.736.806-1.099 1.259-.363.454-.749.879-1.156 1.276a3.293 3.293 0 0 1-1.373.823c-.686.204-1.327.214-1.92.03-.594-.182-1.051-.627-1.371-1.335a9.867 9.867 0 0 0 3.123-1.778 10.813 10.813 0 0 0 2.349-2.709 9.294 9.294 0 0 0 1.218-3.307 7.89 7.89 0 0 0-.234-3.582c-.271-.915-.694-1.688-1.269-2.32a6.502 6.502 0 0 0-1.977-1.488 6.516 6.516 0 0 0-2.426-.628 7.387 7.387 0 0 0-2.608.296c-1.526.453-2.72 1.251-3.585 2.392-.864 1.142-1.477 2.43-1.84 3.865s-.507 2.93-.432 4.484c.074 1.555.3 2.968.677 4.238.355 1.195.903 2.366 1.644 3.515.742 1.149 1.624 2.139 2.645 2.97s2.159 1.427 3.414 1.787c1.254.361 2.555.341 3.903-.059.787-.234 1.593-.687 2.417-1.36.823-.673 1.552-1.457 2.185-2.35s1.102-1.834 1.403-2.823c.301-.988.323-1.914.067-2.778a1.66 1.66 0 0 0-.995-1.113zm-28.648-2.036a5.899 5.899 0 0 1-.755 1.718 7.735 7.735 0 0 1-1.238 1.488c-.477.446-.954.837-1.437 1.173a99.006 99.006 0 0 0-1.891-5.952c.365-.357.781-.701 1.249-1.035a4.993 4.993 0 0 1 1.465-.725c.686-.204 1.233-.178 1.639.074.407.253.709.71.905 1.37s.218 1.291.063 1.889zm5.325-7.781a8.9 8.9 0 0 0-2.336-2.419 7.432 7.432 0 0 0-3.062-1.227c-1.134-.189-2.35-.091-3.646.294-.508.151-1.245.488-2.211 1.009a28.223 28.223 0 0 0-2.904 1.816 20.78 20.78 0 0 0-2.595 2.16c-.759.751-1.187 1.431-1.282 2.04-.059.267-.058.598.005.995.062.396.137.81.223 1.241.087.431.188.843.305 1.237l.288.972a99.74 99.74 0 0 0 1.042 3.301 95.6 95.6 0 0 1 1.03 3.262c.355 1.196.678 2.378.971 3.549a83.62 83.62 0 0 0 .971 3.55c.166.559.406 1.325.722 2.296s.709 1.898 1.178 2.782c.47.884 1.036 1.602 1.697 2.152s1.411.702 2.25.453c.763-.226 1.253-.76 1.475-1.6.221-.84.296-1.775.226-2.805a19.835 19.835 0 0 0-.446-3.041c-.228-.997-.411-1.78-.552-2.346.405-.314.795-.63 1.171-.95.375-.319.769-.622 1.181-.911.527.564 1.136 1.336 1.829 2.32.692.984 1.418 1.937 2.176 2.86s1.537 1.68 2.334 2.274c.798.592 1.591.773 2.38.539.941-.279 1.511-.802 1.713-1.567s.183-1.554-.059-2.368c-.226-.762-.582-1.562-1.065-2.401a23.567 23.567 0 0 0-3.57-4.687 26.642 26.642 0 0 0-1.892-1.762c1.03-1.467 1.745-3.021 2.144-4.66s.337-3.336-.183-5.09a12.083 12.083 0 0 0-1.508-3.268z" fill="#fffcc8"/></g></svg>