<svg id="Capa_1" enable-background="new 0 0 512 512" viewBox="0 0 512 512" xmlns="http://www.w3.org/2000/svg"><g><g><g><g><path d="m175.875 140.794c1.036-10.526 10.373-18.771 21.258-18.771h2.085c.456 0 .854-.309.968-.75s-.085-.904-.483-1.125c-5.815-3.216-9.163-9.549-8.53-16.133.689-7.152 6.205-12.967 13.202-14.529l-26.238-26.238c-5.858-5.858-15.355-5.858-21.213 0l-21.92 21.92c-5.858 5.858-5.858 15.355 0 21.213l41.367 41.367c-.549-2.251-.728-4.59-.496-6.954z" fill="#c96e59"/></g><path d="m199.702 120.148c-5.815-3.216-9.163-9.549-8.53-16.133.689-7.152 6.206-12.967 13.202-14.529l-18.444-18.444c.042.814.063 1.634.063 2.459 0 22.783-16.044 41.811-37.447 46.424l27.824 27.824c-.547-2.251-.726-4.59-.494-6.954 1.036-10.526 10.373-18.771 21.258-18.771h2.085c.456 0 .854-.309.968-.75.113-.442-.087-.905-.485-1.126z" fill="#bb5d4c"/><g><g><path d="m378.875 18.171-17.321-10c-2.391-1.381-5.449-.561-6.83 1.83l-54.361 94.157c.572 6.533-2.765 12.797-8.538 15.99-.398.221-.598.684-.483 1.125.113.441.512.75.968.75h2.084c10.036 0 18.74 7.015 20.851 16.359l65.46-113.381c1.381-2.392.561-5.45-1.83-6.83z" fill="#ffbd86"/></g><path d="m378.875 18.171-7.591-4.383-45.402 78.639c-4.274 7.402-13.739 9.938-21.141 5.665l-.657-.379-3.721 6.445c.572 6.533-2.765 12.797-8.538 15.99-.398.221-.598.684-.483 1.125.113.441.512.75.968.75h2.084c10.036 0 18.74 7.015 20.851 16.359l65.46-113.381c1.381-2.392.561-5.45-1.83-6.83z" fill="#f6a96c"/></g><g><path d="m239.754 387c-4.117 0-8.16-.319-12.109-.929v32.929h42.219v-32.929c-3.949.61-7.993.929-12.11.929z" fill="#dff6fd"/></g><g><path d="m257.754 387h-8.762v32h20.872v-32.929c-3.949.61-7.993.929-12.11.929z" fill="#c8effe"/></g><g><path d="m337.754 253.961v-90c0-5.523-4.477-10-10-10h-158c-5.523 0-10 4.477-10 10v90z" fill="#fd8087"/><g><path d="m327.754 153.961h-30.762v100h40.762v-90c0-5.523-4.477-10-10-10z" fill="#fe646f"/></g><path d="m334.595 329.226-.664.484c-4.757 3.461-10.385 5.291-16.274 5.291-7.606 0-14.701-3.021-19.976-8.507-.793-.825-1.855-1.279-2.991-1.279s-2.199.454-2.992 1.279c-5.274 5.486-12.369 8.508-19.976 8.508s-14.701-3.021-19.976-8.507c-.793-.825-1.855-1.279-2.991-1.279-1.137 0-2.199.454-2.992 1.279-5.274 5.486-12.369 8.507-19.976 8.507s-14.701-3.021-19.976-8.507c-.793-.825-1.856-1.279-2.992-1.279s-2.198.454-2.991 1.279c-5.274 5.486-12.369 8.507-19.976 8.507-5.89 0-11.518-1.83-16.274-5.291l-.798-.581-.134.179c9.33 33.835 40.307 58.692 77.108 58.692h18c36.753 0 67.697-24.794 77.071-58.561z" fill="#fdb4ba"/><path d="m334.595 329.226-.664.484c-4.757 3.461-10.385 5.291-16.274 5.291-7.606 0-14.701-3.021-19.976-8.507-.793-.825-1.855-1.279-2.991-1.279s-2.199.454-2.992 1.279c-2.644 2.75-5.746 4.88-9.139 6.322-14.466 20.66-38.43 34.184-65.567 34.184h-18c-5.02 0-9.923-.484-14.687-1.369 14.377 13.846 33.911 22.369 55.449 22.369h18c36.753 0 67.697-24.794 77.071-58.561z" fill="#fe99a0"/></g><path d="m159.754 308c0 7.822 1.143 15.373 3.235 22.518 4.734 3.445 10.559 5.482 16.862 5.482 8.132 0 15.473-3.381 20.696-8.814 1.247-1.297 3.296-1.297 4.542 0 5.223 5.433 12.565 8.814 20.696 8.814 8.132 0 15.473-3.381 20.696-8.814 1.247-1.297 3.296-1.297 4.542 0 5.223 5.433 12.565 8.814 20.696 8.814 8.132 0 15.473-3.381 20.696-8.814 1.247-1.297 3.296-1.297 4.542 0 5.223 5.433 12.565 8.814 20.696 8.814 6.303 0 12.128-2.037 16.862-5.482 2.093-7.145 3.235-14.696 3.235-22.518v-55.039h-178v55.039z" fill="#fe99a0"/><path d="m296.992 252.961v34.039c0 17.691-5.753 34.032-15.476 47.279 4.168-1.513 7.889-3.959 10.902-7.093 1.247-1.297 3.296-1.297 4.542 0 5.223 5.433 12.565 8.814 20.696 8.814 6.303 0 12.128-2.037 16.862-5.482 2.093-7.145 3.236-14.696 3.236-22.518v-55.039z" fill="#fd8087"/><path d="m330.677 475.054-57.927-24.079c-.166.005-.329.025-.496.025h-47c-.167 0-.33-.02-.496-.025l-57.926 24.079c-5.596 2.326-9.242 7.791-9.242 13.851v10.595c0 2.761 2.239 5 5 5h172.33c2.761 0 5-2.239 5-5v-10.595c-.001-6.06-3.647-11.525-9.243-13.851z" fill="#dff6fd"/><path d="m330.677 475.054-57.927-24.079c-.166.005-.329.025-.496.025h-47c-.167 0-.33-.02-.496-.025l-2.302.957 55.624 23.122c5.596 2.326 9.242 7.791 9.242 13.851v15.595h47.597c2.761 0 5-2.239 5-5v-10.595c0-6.06-3.646-11.525-9.242-13.851z" fill="#c8effe"/><path d="m272.254 452h-47c-9.389 0-17-7.611-17-17 0-9.389 7.611-17 17-17h47c9.389 0 17 7.611 17 17 0 9.389-7.611 17-17 17z" fill="#c8effe"/><path d="m272.254 418h-23.262v2c0 9.389-7.611 17-17 17h-23.61c.991 8.445 8.161 15 16.872 15h47c9.389 0 17-7.611 17-17s-7.611-17-17-17z" fill="#99e6fc"/><path d="m316.647 140.696c-1.109-11.266-10.934-19.673-22.254-19.673h-2.084c5.89-3.258 9.744-9.793 9.04-17.104-.874-9.082-8.805-15.861-17.93-15.861h-1.215c16.173-23.468-11.879-43.584-26.223-51.865-3.408-1.967-7.664.487-7.665 4.422v2.071c-.001 8.991-5.956 16.959-14.626 19.337-19.708 5.405-21.441 18.226-20.471 26.034h-5.113c-9.124 0-17.056 6.779-17.93 15.861-.703 7.311 3.15 13.846 9.04 17.104h-2.084c-11.32 0-21.145 8.407-22.253 19.673-.477 4.854.666 9.431 2.945 13.265h27.469c7.439 0 13.469 6.03 13.469 13.469v7.163c0 9.529 7.798 17.621 17.325 17.442 9.239-.173 16.675-7.717 16.675-16.997v-7.228c0-7.253 5.574-13.493 12.818-13.834 7.735-.364 14.12 5.799 14.12 13.454v30.345c0 9.302 7.476 16.877 16.777 16.999 9.475.124 17.223-7.523 17.223-16.999v-39.653c0-2.462.564-4.874 1.484-7.158 1.266-3.134 1.822-6.623 1.463-10.267z" fill="#fff3de"/><g fill="#ffe5c2"><path d="m244.801 153.976c-7.245.341-12.818 6.582-12.818 13.834v7.228c0 5.423-2.55 10.24-6.505 13.353 2.939 2.328 6.618 3.719 10.611 3.644 9.239-.173 16.675-7.717 16.675-16.997v-7.228c0-3.323 1.179-6.424 3.144-8.852-2.596-3.199-6.619-5.193-11.107-4.982z"/><path d="m316.647 140.696c-1.108-11.266-10.933-19.673-22.254-19.673h-2.084c5.89-3.258 9.744-9.793 9.04-17.104-.874-9.082-8.806-15.861-17.93-15.861h-1.215c16.173-23.468-11.879-43.584-26.223-51.865-3.408-1.967-7.664.487-7.665 4.422v2.071c0 .756-.057 1.5-.139 2.239 12.747 10.072 24.765 25.219 13.872 42.194-.26.406.019.939.501.939h.09c9.124 0 17.056 6.779 17.93 15.861.631 6.561-2.408 12.498-7.295 16.001-.484.347-.257 1.103.338 1.103 11.32 0 21.145 8.407 22.254 19.673.359 3.645-.197 7.133-1.461 10.268-.921 2.284-1.484 4.696-1.484 7.158v39.654c0 5.475-2.595 10.328-6.606 13.435 3.179 2.462 7.242 3.84 11.653 3.519 8.951-.652 15.734-8.401 15.734-17.376v-39.232c0-2.462.564-4.874 1.484-7.158 1.263-3.135 1.819-6.623 1.46-10.268z"/></g></g></g><path d="m388.449 19.27c-.864-3.226-2.933-5.921-5.824-7.59l-17.32-10c-2.891-1.669-6.259-2.112-9.485-1.249-3.225.864-5.92 2.933-7.59 5.824l-26.477 45.859c-.014.025-.029.049-.043.074l-20.521 35.544c-2.291-2.189-4.982-3.973-7.951-5.209 1.58-5.086 1.779-10.297.587-15.581-3.767-16.692-20.619-29.468-34.094-37.246-3.949-2.28-8.664-2.279-12.611-.001-3.946 2.279-6.302 6.36-6.302 10.918v2.07c-.001 5.657-3.746 10.634-9.109 12.105-19.044 5.223-24.613 16.648-25.869 25.554l-22.401-22.401c-4.25-4.25-9.899-6.59-15.909-6.59-6.011 0-11.66 2.341-15.91 6.59l-21.921 21.92c-8.771 8.773-8.771 23.047 0 31.82l35.42 35.42c-7.403 2.04-12.863 8.814-12.863 16.857v14.042c0 4.142 3.357 7.5 7.5 7.5s7.5-3.358 7.5-7.5v-14.039c0-1.378 1.121-2.5 2.5-2.5h35.539c3.292 0 5.97 2.678 5.97 5.969v7.163c0 6.684 2.754 13.22 7.555 17.933 4.729 4.642 10.921 7.129 17.411 7.009 13.253-.249 24.034-11.237 24.034-24.496v-7.229c0-3.35 2.544-6.195 5.671-6.342 1.66-.089 3.226.505 4.417 1.642 1.193 1.138 1.851 2.673 1.851 4.32v30.346c0 13.333 10.847 24.323 24.18 24.498.11.001.22.002.33.002 6.48 0 12.579-2.501 17.201-7.063 4.7-4.639 7.289-10.832 7.289-17.437v-36.315h6.553c1.379 0 2.5 1.122 2.5 2.5v81.5h-40.263c-4.143 0-7.5 3.358-7.5 7.5s3.357 7.5 7.5 7.5h40.263v47.539c0 6.126-.771 12.075-2.208 17.761-3.161 1.789-6.705 2.739-10.39 2.739-5.822 0-11.252-2.313-15.289-6.512-2-2.081-4.798-3.274-7.676-3.275-.001 0-.001 0-.002 0-2.878 0-5.676 1.193-7.679 3.274-4.036 4.2-9.466 6.512-15.289 6.512-5.822 0-11.252-2.313-15.289-6.512-2.001-2.082-4.799-3.275-7.678-3.275-2.88 0-5.678 1.193-7.678 3.274-4.038 4.2-9.468 6.513-15.29 6.513s-11.252-2.313-15.291-6.514c-2.001-2.08-4.799-3.272-7.677-3.272-.001 0-.001 0-.002 0-2.878 0-5.676 1.194-7.675 3.274-4.038 4.2-9.468 6.513-15.29 6.513-3.685 0-7.228-.951-10.389-2.739-1.438-5.686-2.209-11.635-2.209-17.761v-47.539h87.737c4.143 0 7.5-3.358 7.5-7.5s-3.357-7.5-7.5-7.5h-87.737v-32.461c0-4.142-3.357-7.5-7.5-7.5s-7.5 3.358-7.5 7.5v95c0 41.508 29.052 76.356 67.89 85.283v17.757c-11.065 2.357-19.391 12.203-19.391 23.96 0 5.885 2.087 11.292 5.559 15.521l-42.359 17.608c-8.422 3.501-13.863 11.656-13.863 20.776v10.595c0 6.893 5.607 12.5 12.5 12.5h32.402c4.143 0 7.5-3.358 7.5-7.5s-3.357-7.5-7.5-7.5h-29.904v-8.095c0-3.04 1.813-5.759 4.621-6.926l54.175-22.52h49.737l54.175 22.52c2.808 1.167 4.621 3.886 4.621 6.926v8.095h-102.427c-4.143 0-7.5 3.358-7.5 7.5s3.357 7.5 7.5 7.5h104.927c6.893 0 12.5-5.607 12.5-12.5v-10.595c0-9.12-5.441-17.275-13.863-20.776l-42.36-17.609c3.471-4.229 5.558-9.635 5.558-15.52 0-11.757-8.325-21.602-19.39-23.96v-17.757c38.838-8.926 67.891-43.775 67.891-85.283v-144.039c0-9.649-7.851-17.5-17.5-17.5h-3.738c.267-2.151.308-4.333.095-6.499-.052-.529-.129-1.05-.209-1.57l63.297-109.637c1.67-2.892 2.113-6.26 1.249-9.485zm-106.695 415.73c0 5.238-4.262 9.5-9.5 9.5h-47c-5.238 0-9.5-4.262-9.5-9.5s4.262-9.5 9.5-9.5h47c5.238 0 9.5 4.262 9.5 9.5zm-46.61-24.5v-15.121c1.527.08 3.064.121 4.61.121h18c1.546 0 3.083-.042 4.609-.121v15.121zm22.611-30h-18c-27.155 0-50.857-15.015-63.276-37.171 1.117.103 2.24.171 3.374.171 8.502 0 16.514-2.888 22.967-8.209 6.453 5.321 14.465 8.209 22.968 8.209 8.502 0 16.514-2.888 22.967-8.209 6.453 5.321 14.465 8.209 22.968 8.209 8.504 0 16.517-2.889 22.968-8.209 6.453 5.321 14.465 8.209 22.967 8.209 1.135 0 2.258-.068 3.375-.171-12.421 22.155-36.123 37.171-63.278 37.171zm-87.833-249.805-29.617-29.617c-2.925-2.924-2.925-7.683 0-10.607l21.921-21.92c1.416-1.417 3.299-2.197 5.303-2.197 2.003 0 3.887.78 5.303 2.197l18.388 18.388c-4.69 4.087-7.888 9.812-8.509 16.262-.433 4.5.362 8.921 2.174 12.864-6.622 2.897-11.962 8.095-14.963 14.63zm138.308 17.465c-1.346 3.338-2.028 6.69-2.028 9.963v39.653c0 2.561-1.004 4.962-2.826 6.761-1.793 1.769-4.156 2.739-6.67 2.739-.043 0-.086 0-.128-.001-5.17-.068-9.376-4.329-9.376-9.499v-30.346c0-5.705-2.368-11.235-6.496-15.173-3.94-3.759-9.039-5.796-14.454-5.796-.34 0-.681.008-1.022.024-11.195.527-19.966 9.894-19.966 21.326v7.229c0 5.141-4.179 9.402-9.315 9.499-2.408.043-4.792-.919-6.623-2.717-1.945-1.91-3.062-4.544-3.062-7.228v-7.163c0-11.562-9.407-20.969-20.97-20.969h-22.56c-.425-1.622-.559-3.317-.391-5.03.712-7.238 7.208-12.908 14.789-12.908h19.078c4.143 0 7.5-3.358 7.5-7.5s-3.357-7.5-7.5-7.5h-14.763c-2.67-2.114-4.137-5.443-3.806-8.886.489-5.091 5.086-9.079 10.464-9.079h5.114c2.15 0 4.197-.923 5.621-2.535 1.424-1.611 2.087-3.756 1.821-5.891-1.112-8.954 3.798-14.801 15.012-17.876 11.181-3.066 19.184-12.955 20.062-24.462 13.16 8.229 21.634 17.383 23.455 25.451.781 3.465.358 6.865-1.28 10.313h-9.239c-4.143 0-7.5 3.358-7.5 7.5s3.357 7.5 7.5 7.5h14.747c5.378 0 9.976 3.988 10.465 9.079.386 4.005-1.657 7.861-5.205 9.823-2.993 1.655-4.487 5.125-3.632 8.438.854 3.312 3.842 5.625 7.262 5.625h2.084c7.581 0 14.078 5.669 14.79 12.907.23 2.328-.09 4.592-.952 6.729zm7.601-25.79c-2.614-2.638-5.724-4.789-9.189-6.306 1.651-3.594 2.446-7.587 2.248-11.673l1.278-2.214 20.491-5.491zm25.436-44.055-20.491 5.491 12.393-21.465 20.49-5.491zm22.999-39.837-20.49 5.49 16.194-28.048 12.99 7.5z"/></g><g/><g/><g/><g/><g/><g/><g/><g/><g/><g/><g/><g/><g/><g/><g/></svg>