<svg xmlns="http://www.w3.org/2000/svg" xml:space="preserve" width="512" height="512"><path fill="#FDE7CF" d="M327.86 467.289h-.1l.1-.597c.1-.597.199-1.194.298-1.891.896-5.771 3.98-25.474 5.075-36.519 1.692-15.921 1.791-33.335.398-51.744-.697-9.553-1.692-19.205-2.786-28.758l-.1-1.094c-.995-7.861-1.99-15.623-3.184-23.086-.1-.498-.199-1.095-.299-1.592l-.128-.765-8.858-42.595-.069-.025H184.88l-9.354 44.977c-2.449 15.308-4.909 37.004-6.07 52.938-1.393 18.409-1.294 35.823.398 51.744 1.095 11.045 4.179 30.748 5.075 36.519.1.697.199 1.294.299 1.891l.1.597h-.1c-17.613 1.194-21.593 10.349-21.892 17.812-.099 3.085 2.289 5.771 5.373 5.871 10.05.498 34.529 1.493 45.077-.299 13.533-2.289 15.822-7.463 18.11-15.822 2.45-9.216 16.702-44.346 18.111-49.14 6.79.967 15.183 1.107 22.919.02 1.033 2.882 16.052 40.804 18.263 49.12 2.289 8.359 4.577 13.533 18.11 15.822 10.548 1.791 35.027.796 45.077.299 3.085-.1 5.473-2.786 5.373-5.871-.295-7.464-4.276-16.618-21.889-17.812z"/><path fill="#9D706B" d="M344.18 491.27c3.085-.1 6.692-1.389 6.592-4.474-.299-7.463-.299-18.191-17.911-19.386l-2.875-1.032-2.325.612c.1-.597.199-1.194.299-1.891.896-5.771 3.98-25.474 5.075-36.519.1-1.095.199-2.289.299-3.483-6.368-.498-41.296-2.289-67.964 7.662 4.378 11.145 13.832 35.624 15.623 42.291 2.289 8.359 4.577 13.533 18.11 15.822 10.548 1.791 35.027.796 45.077.398z"/><path fill="#8A5D58" d="m263.579 427.983 4.677 13.832c2.488 6.468 10.747 25.374 12.836 33.236 2.289 8.359 4.577 13.533 18.11 15.822 10.548 1.791 35.027.796 45.077.298 3.085-.1 5.473-2.786 5.373-5.871-.1-3.184-.896-6.567-3.085-9.652.896 13.334-32.638 10.448-44.977 6.368-13.134-4.379-38.011-54.033-38.011-54.033z"/><path fill="#2D2D39" d="M263.281 426.192c.597 1.592 15.722 39.903 18.11 48.659 2.189 8.16 4.478 13.334 17.911 15.623 10.548 1.791 34.927.796 44.977.299 2.886-.1 5.274-2.687 5.174-5.672-.299-7.463-4.279-16.419-21.693-17.613h-.299c.099-.697.299-1.592.398-2.587.199 0 .498.1.697.1 19.901 1.592 23.384 13.234 23.583 20.101.099 4.478-3.383 8.259-7.762 8.458-6.866.398-16.717.796-25.971.796-7.662 0-14.926-.299-19.702-1.095-14.926-2.587-17.712-8.956-20.101-17.613-2.289-8.558-17.812-47.963-18.011-48.361l2.689-1.095z"/><path fill="#2D2D39" d="M325.075 311.46c.017.101 2.539 13.685 5.799 40.927.888 7.424 1.695 15.678 2.362 24.351 1.194 16.12 1.493 33.932-.398 51.744-.995 10.15-3.781 28.061-5.075 36.519-.129 1.299-.697 4.024-.697 4.577.015-.044 1.281-4.075 1.393-4.577a163.259 163.259 0 0 0 4.378-18.309c6.251-33.436 4.028-68.403.367-94.434-1.895-13.476-3.086-25.204-8.129-40.798zM170.452 348.377c.299-1.692.498-3.383.796-4.975 1.167-14.624 6.767-31.942 6.767-31.942-.1.597-.697 3.781-1.493 9.055-.199 1.095-.299 2.189-.498 3.483-.896 5.97-2.09 13.931-3.184 23.086 0 .299-.1.697-.1 1.095-1.095 8.458-2.09 18.21-2.886 28.559-1.194 16.12-1.493 33.932.398 51.744.995 10.15 3.781 28.061 5.075 36.519.099.995.299 1.891.398 2.587.199 1.095.299 1.791.299 1.99-.199-.597-.398-1.294-.597-1.99-.299-.896-.597-1.692-.796-2.587a163.259 163.259 0 0 1-4.378-18.309c-6.568-35.128-3.782-71.945.199-98.315z"/><path fill="#9D706B" d="M203.986 490.872c13.533-2.289 15.822-7.463 18.11-15.822 1.791-6.667 11.244-31.146 15.623-42.291-26.668-9.951-61.595-8.16-67.964-7.662.1 1.194.199 2.388.299 3.483 1.095 11.045 4.179 30.748 5.075 36.519.1.697.199 1.294.299 1.891l.1.597-1.251-.951c-17.613 1.194-20.442 11.3-20.741 18.763-.1 3.085 2.289 5.771 5.373 5.871 10.05.398 34.529 1.393 45.077-.398z"/><path fill="#E0BCA2" d="M251.545 420.122c-27.56.098-47.658-9.553-47.857-9.652 1.02 1.092 9.779 9.704 24.38 13.633 25.048 6.629 44.669.605 46.953 0 14.601-3.929 23.356-12.539 24.38-13.633-.199.099-20.296 9.75-47.856 9.652z"/><path fill="#8A5D58" d="M201.498 482.016c-12.339 4.08-45.873 6.966-44.977-6.368-2.189 3.085-2.985 6.468-3.085 9.652-.1 3.085 2.289 5.771 5.373 5.871 10.05.498 34.529 1.493 45.077-.298 13.533-2.289 15.822-7.463 18.11-15.822 2.09-7.861 10.349-26.768 12.836-33.236l4.677-13.832c.001 0-24.876 49.654-38.011 54.033z"/><path fill="#2D2D39" d="M242.495 427.286c-.199.398-15.722 39.803-18.011 48.361-2.388 8.657-5.174 15.026-20.101 17.613-4.776.796-12.04 1.095-19.702 1.095-9.254 0-19.105-.398-25.971-.796-4.378-.199-7.861-3.98-7.762-8.458.199-6.866 3.682-18.508 23.583-20.101.235-.011.504-.039.703-.039.1.995.293 1.83.392 2.526h-.299c-17.414 1.194-21.394 10.15-21.693 17.613-.1 2.985 2.289 5.572 5.174 5.672 10.05.498 34.43 1.493 44.977-.299 13.434-2.289 15.722-7.463 17.911-15.623 2.388-8.757 17.513-47.067 18.11-48.659l2.689 1.095z"/><path fill="#2D2D39" d="M251.545 426.291c-25.958.097-44.971-13.404-45.747-14.011.181.206 8.579 9.473 23.363 13.613 3.174.876 6.558 1.642 10.16 2.179a78.374 78.374 0 0 0 12.216.906h.013c1.793 0 6.254.002 12.216-.906 3.602-.537 6.985-1.304 10.16-2.179 14.784-4.14 23.182-13.406 23.363-13.613-.773.608-19.786 14.109-45.744 14.011z"/><path fill="#FFFAF5" d="M302.984 368.478c0-24.674-22.979-52.829-51.432-52.838h-.014c-28.453.009-51.432 28.164-51.432 52.838s22.979 44.672 51.432 44.679h.014c28.452-.007 51.432-20.005 51.432-44.679z"/><path fill="#2D2D39" d="M178.015 311.46c-5.402 32.249-7.416 55.593-8.161 65.278-1.194 16.12-1.493 33.932.398 51.744.471 4.803 1.343 11.344 2.268 17.799 1.56 10.887 3.504 23.097 3.504 23.297-.069-.206-3.682-11.105-5.771-22.886-9.016-48.222-.215-110.564 7.762-135.232z"/><g><path fill="#FDE7CF" d="M374.248 209.002c-.075-4.421-.427-8.843-.961-13.168-.096-.79-.192-1.581-.31-2.36-.609-4.4-1.41-8.683-2.307-12.751-.214-1.025-.449-2.04-.684-3.033-4.101-17.333-9.665-30.106-9.665-30.106l-5.724-19.245-.587-1.954.032-.085c3.068-9.216 12.227-41.078 5.158-62.71-7.107-21.528-19.27-39.12-22.289-43.091-.16-.203-.235-.31-.235-.31l-.064.075-4.923 5.158s-1.153.79-3.151 2.339c-23.366 18.289-39.526 45.262-39.526 45.646-1.963-.263 2.759.363-33.007-4.377v-.002l-.005-.003-.007-.001v.002l-31.576 4.185-1.431.192v-.011c-2.788-3.939-6.013-10.423-14.803-21.221-12.389-15.175-24.704-24.582-27.873-26.753l-4.923-5.158-.064-.075c-1.442 2.057-14.72 19.77-22.524 43.401-7.666 23.468 3.857 58.919 5.19 62.795l-.587 1.954-5.724 19.245s-5.564 12.773-9.665 30.106c-.235.993-.47 2.008-.684 3.033a163.52 163.52 0 0 0-2.307 12.751c-.117.78-.214 1.57-.31 2.36-.534 4.325-.886 8.747-.961 13.168a94.905 94.905 0 0 0-.011 2.969c.064 7.123.854 14.193 2.713 20.836 3.353 11.993 10.146 22.587 22.288 29.54 20.847 11.94 40.903 18.647 57.061 22.427 20.046 4.688 34.079 4.859 36.183 4.87h.028c2.104-.011 16.137-.182 36.183-4.87 16.158-3.781 36.215-10.487 57.061-22.427 12.143-6.952 18.935-17.547 22.288-29.54 1.858-6.643 2.649-13.713 2.713-20.836.012-.979.012-1.972-.01-2.965z"/><path fill="#9D706B" d="M315.222 136.252c-14.642-6.344-31.377-5.351-43.434-3.151A88.218 88.218 0 0 1 256 134.564a88.218 88.218 0 0 1-15.788-1.463c-12.057-2.2-28.792-3.193-43.434 3.151-26.347 11.438-46.147 62.07-16.81 94.408 20.74 23.068 44.854 25.428 61.055 24.552 4.996-.245 9.981-.352 14.977-.352s9.981.107 14.977.352c16.201.876 40.316-1.484 61.055-24.552 29.337-32.338 9.537-82.97-16.81-94.408z"/><path fill="#E0BCA2" d="m289.001 73.508 12.183 4.202c9.917-32.775 27.709-47.234 27.709-47.234l.755.018c-10.409-5.096-40.647 43.014-40.647 43.014z"/><path fill="#F6B0A6" d="m349.22 39.72-12.615-18.458-3.707 4.686-13.668 19.588s-7.33 17.94-7.418 18.467c-.07.421-.023 11.798-.023 11.798l5.529 2.548 9.308-5.807 5.232 1.091-.06 16.556s3.632 4.83 3.913 5.093c.386.281 5.286-3.772 5.286-3.772-.694 20.348 17.478 19.163 17.478 19.163l3.151-18.205-1.096-22.597-11.31-30.151z"/><ellipse transform="rotate(-22.351 316.372 200.055)" fill="#F6B0A6" cx="316.348" cy="200.048" rx="17.407" ry="10.358"/><path fill="#2D2D39" d="M354.692 128.123c26.714-59.419-16.086-108.476-16.542-108.985l-1.157-1.493-1.37 1.07c-36.128 27.636-47.604 53.545-48.114 54.651l3.528 1.564c.141-.193 11.283-25.4 45.391-51.966 6.352 7.991 36.528 50.098 16.121 100.285l2.143 4.874z"/><path fill="#2D2D39" d="M335.414 93.176c-.228.07-.211-.035-.316-.053-1.316-1.194-1.173-6.584-1.101-10.254.09-5.724.163-10.692-3.26-11.589-2.177-.58-4.653.63-7.498 2.103-4.478 2.175-7.498 3.403-9.288 1.155-3.65-4.725 5.158-29.564 24.236-53.012l-3.054-2.459c-18.533 22.781-30.169 50.288-24.378 57.752 3.843 4.865 9.726 2.059 13.976-.046 1.651-.807 3.776-1.859 4.741-1.806.579 1.071.524 5.285.435 7.76-.055 5.513-.18 10.798 2.452 13.187.755.668 1.773 1.054 2.738 1.107.211.035.439-.035.773-.087 4.793-.823 7.802-13.638 7.802-13.638-2.392 4.58-6.362 9.547-8.258 9.88zM413.32 167.998c-20.886 1.065-42.535 7.593-62.606 18.878 0 0 15.124-4.798 31.37-9.537 11.577-3.377 31.236-9.341 31.236-9.341zM423.907 189.132c-20.792-2.252-43.2.77-64.804 8.74 0 0 15.693-2.346 32.484-4.456 11.965-1.504 32.32-4.284 32.32-4.284zM419.57 217.535c-19.563-7.393-42.013-10.087-64.925-7.789 0 0 15.78 1.664 32.563 3.831 11.96 1.545 32.362 3.958 32.362 3.958z"/><path fill="#FFFAF5" d="M309.744 81.412c-33.749-14.797-43.465-12.687-53.751-12.687-31.161 0-53.691 12.678-53.705 12.687 29.21-5.926 50.932-6.076 53.712-6.076 24.206 0 54.25 6.076 53.744 6.076z"/><path fill="#E0BCA2" d="m182.352 30.494.755-.018s17.792 14.459 27.709 47.234l12.183-4.202s-30.238-48.11-40.647-43.014zM371.546 232.807c-.812.587-1.634 1.164-2.446 1.73-40.15 28.18-79.051 37.344-113.094 36.941h-.014c-34.043.403-72.944-8.761-113.094-36.941a174.509 174.509 0 0 1-2.446-1.73c-.032-.032-.064-.053-.096-.075 3.311 12.015 10.178 22.662 22.406 29.721 21.156 12.121 41.512 18.849 57.787 22.598.032 0 .053.011.075.021 19.599 4.494 33.286 4.656 35.368 4.667H256.005c2.081-.011 15.769-.173 35.368-4.667a.15.15 0 0 1 .075-.021c16.276-3.749 36.631-10.477 57.787-22.598 12.228-7.059 19.095-17.707 22.406-29.721-.03.021-.062.043-.095.075z"/><path fill="#F6B0A6" d="m151.469 69.871-1.096 22.597 3.151 18.205s18.349.74 17.655-19.609c0 0 4.723 4.499 5.109 4.218.281-.263 3.913-5.093 3.913-5.093l-.06-16.556 5.232-1.091 9.308 5.807 5.529-2.548s.047-11.377-.023-11.798c-.088-.527-7.418-18.467-7.418-18.467l-13.668-19.588-3.707-4.686L162.78 39.72l-11.311 30.151z"/><ellipse transform="rotate(-67.649 195.596 200.037)" fill="#F6B0A6" cx="195.612" cy="200.046" rx="10.358" ry="17.407"/><path fill="#2D2D39" d="M159.44 123.232c-20.407-50.187 9.779-92.276 16.131-100.268 34.108 26.566 45.251 51.773 45.391 51.966l3.528-1.564c-.51-1.106-11.986-27.015-48.114-54.651l-1.37-1.07-1.157 1.493c-.456.509-43.256 49.566-16.542 108.985l2.133-4.891z"/><path fill="#2D2D39" d="M168.33 83.295c1.317 5.609 5.55 17.716 11.313 12.618 2.632-2.389 2.507-7.674 2.452-13.187-.089-2.476-.144-6.689.435-7.76.966-.053 3.091.999 4.741 1.806 4.25 2.105 10.133 4.911 13.976.046 5.79-7.464-5.554-34.612-24.087-57.393l-3.345 2.1c19.078 23.448 27.885 48.287 24.236 53.012-1.79 2.248-4.81 1.021-9.288-1.155-2.845-1.474-5.321-2.684-7.498-2.103-3.423.897-3.351 5.866-3.26 11.589.058 2.979.164 7.093-.503 9.175-.33 1.031-.686 1.6-2.212.511-2.701-1.927-6.319-8.03-6.96-9.259zM256 240.784c-4.601-.087-9.201-1.443-13.492-3.898 5.749 9.927 21.235 9.926 26.984 0-4.291 2.455-8.891 3.811-13.492 3.898zM309.744 81.412c-27.01-15.119-47.896-14.823-53.629-14.823-5.752 0-26.916-.258-53.858 14.823-.011 0-.011.011-.021.011 0 0 .021 0 .053-.011 33.479-9.001 39.16-10.957 53.655-10.957 14.728 0 21.307 2.229 53.767 10.957.032.011.053.011.053.011-.01 0-.01-.011-.02-.011zM98.68 167.998c20.886 1.065 42.535 7.593 62.606 18.878 0 0-15.124-4.798-31.37-9.537-11.577-3.377-31.236-9.341-31.236-9.341zM88.093 189.132c20.792-2.252 43.2.77 64.804 8.74 0 0-15.693-2.346-32.484-4.456-11.965-1.504-32.32-4.284-32.32-4.284zM92.43 217.535c19.563-7.393 42.013-10.087 64.925-7.789 0 0-15.78 1.664-32.563 3.831-11.96 1.545-32.362 3.958-32.362 3.958z"/><path fill="#3D3D44" d="M268.243 201.601c-.043-.662-3.151-1.228-7.604-1.495h-.032a117.832 117.832 0 0 0-4.6-.171h-.014c-1.629.032-3.183.085-4.6.171h-.032c-4.453.267-7.561.833-7.604 1.495-.053.971 5.386 1.665 12.236 1.709h.014c6.85-.044 12.289-.738 12.236-1.709z"/><path fill="#2D2D39" d="M354.728 127.913c-1.141-2.653-4.986-11.432-8.121-17.491.395 1.289 5.252 15.036 6.137 18.35 3.366 10.308 7.679 24.022 11.781 38.35 4.961 17.612 8.639 37.067 7.349 54.501-2.014 27.599-26.039 43.073-47.779 51.351a1433.07 1433.07 0 0 1-20.994 7.856c-30.473 8.443-58.369 6.631-78.136 2.927-19.354-3.627-31.791-8.761-37.059-10.783-21.74-8.277-45.765-23.752-47.779-51.351-1.29-17.434 2.389-36.889 7.349-54.501 4.102-14.329 8.415-28.043 11.781-38.35.88-3.295 5.749-17.09 6.137-18.35-3.092 5.969-6.985 14.844-8.121 17.491-9.401 22.144-23.358 61.075-21.008 93.923 1.944 26.582 22.654 42.476 43.334 51.781 7.747 3.742 23.433 10.357 44.415 14.308a179.56 179.56 0 0 0 33.153 3.108c21.878 0 47.514-4.093 74.102-16.907 21.05-9.231 42.49-25.221 44.469-52.29 2.349-32.849-11.609-71.779-21.01-93.923z"/><g><path fill="#2D2D39" d="M210.547 176.424c.737 8.838 6.208 15.677 12.1 15.151s10.101-8.102 9.259-17.045c-.737-8.838-6.208-15.677-12.1-15.151s-9.995 8.207-9.259 17.045z"/><path fill="#2D2D39" d="M200.657 169.269c2.104 7.049 10.732 8.207 16.413 4.629l-4.524-5.682c-2.735 4.42-8.417 5.052-11.889 1.053z"/><path fill="#F9FCF8" d="M221.174 174.951c0 3.788 1.789 6.839 4.209 6.839s4.419-2.946 4.419-6.734-1.789-6.839-4.209-6.839c-2.42-.105-4.314 2.946-4.419 6.734z"/><g fill="#2D2D39"><path d="M279.884 174.741c-.842 8.838 3.262 16.519 9.154 17.15s11.468-6.102 12.31-15.046c.842-8.838-3.262-16.519-9.154-17.15-5.892-.526-11.363 6.207-12.31 15.046z"/><path d="m299.454 168.533-4.524 5.682c5.682 3.683 14.204 2.525 16.413-4.419-3.577 3.998-9.259 3.261-11.889-1.263z"/></g><path fill="#F9FCF8" d="M290.3 174.951c0 3.788-1.789 6.839-4.209 6.839s-4.419-2.946-4.419-6.734 1.789-6.839 4.209-6.839c2.315-.105 4.314 2.946 4.419 6.734z"/><path fill="#9D706B" d="m225.488 156.223-18.728 5.366 25.356 5.366zM285.986 156.223l18.728 5.366-25.356 5.366z"/><path fill="#2D2D39" d="M228.013 168.322c-2.525-.21-5.05-.631-7.47-1.157-2.525-.526-4.84-1.263-7.26-2.104-2.42-.842-4.735-1.894-6.944-3.367 2.63-.421 5.156-.316 7.681-.105s5.05.631 7.47 1.157c2.525.526 4.84 1.263 7.26 2.104 2.42.842 4.735 1.894 6.944 3.367a37.696 37.696 0 0 1-7.681.105zM283.672 168.322c2.525-.21 5.05-.631 7.47-1.157 2.525-.526 4.84-1.263 7.26-2.104 2.42-.842 4.735-1.894 6.944-3.367-2.63-.421-5.156-.316-7.681-.105s-5.05.631-7.47 1.157c-2.525.526-4.84 1.263-7.26 2.104-2.42.842-4.735 1.894-6.944 3.367 2.63.316 5.155.316 7.681.105z"/></g><g><path fill="#2D2D39" d="M272.57 202.319c-1.16-1.87-4.85-3.13-9.38-3.76-8.98-1.26-21.24-.07-23.54 3.64-3.02 4.77 9.84 11.49 14.73 13.8.72.34 1.27.58 1.57.71v.11s0-.11.11-.11l.11.11v-.102c.26-.045.898-.397 1.45-.648 4.81-2.21 17.99-8.84 14.95-13.75z"/><path fill="#2D2D39" d="M257.62 218.269V210.239h-3.24V218.269c-10.04.37-16.98 6.72-17.29 7.04l6.934-2.306a37.891 37.891 0 0 1 23.858-.019l7.028 2.325c-.31-.32-7.25-6.67-17.29-7.04z"/><path fill="#3D3D44" d="M243 201.868c0 .893 5.803 1.786 12.946 1.786 7.142.112 12.946-.67 12.946-1.674 0-.893-5.803-1.786-12.946-1.786-7.254 0-13.057.782-12.946 1.674z"/></g></g><g><path fill="#FDE7CF" d="m262.311 287.974-8.3 17.2c-15.926 14.168-20.518 21.1-45.3 21.1-38.422 0-34.027-40.408-33.949-52.558l1.789-1.52s10.663 4.969 14.711 6.451c7.062 2.585 16.777 6.146 16.777 6.146s35.872-6.819 51.372-7.919 20.8 10.5 20.8 10.5l-17.9.6z"/><path fill="#FDE7CF" d="M325.411 276.074c3.147 13.038 4.207 27.556 1.887 38.679-5.388 25.826-32.653 19.614-35.772 18.582-8.089-2.676-19.604-9.881-38.114-27.061 0 0 9.2-18.3 9.7-18.2s18.9-.4 18.9-.4l7.9.4c22.1-4.6 34.7-11.3 34.7-11.3l.799-.7z"/><path fill="#2D2D39" d="M189.611 320.774c7.2 2.6 13.7 3.9 20.1 4.2 8.6.5 16.8-.9 24-4.4 20.4-10 27.9-33 28-33.2l.3-.8h16.7c-8.8-11.1-16.7-9.6-38-5.7-22.6 4.2-51.5 5.7-51.5 5.7.3 0 28.6-3.8 51.1-8 22.3-4.1 31.5-5.8 41.8 8.5l1.4 1.9h-19.6c-1.6 4.4-9.6 24.3-28.9 33.8-6.7 3.3-14.5 5.3-22.3 5.3-11.2 0-22.8-7.2-23.1-7.3z"/><path fill="#2D2D39" d="m294.311 290.674-13.3-1.7.3-2.4 36.2 6.3zM272.211 324.874c-11.2-8.1-19.9-18-20-18.1l1.8-1.6c.2.3 23.1 25.6 43 27.8 6.2.7 12.1.5 12.1.5-3.1 2-6.3 2.5-10.2 2.5-.738 0-1.496-.039-2.273-.116-7.007-.695-15.515-4.502-24.427-10.984z"/><path fill="#2D2D39" d="m296.638 335.858.373-2.684c10.5 1.3 18.4-1 23.5-6.8 13.3-15.4 3.8-50.6 3.7-51l2.8-.8c.4 1.5 10.1 37-4.3 53.6-8.872 10.193-26.073 7.684-26.073 7.684zM181.511 315.574c-12.9-16.1-8.2-41.4-8-42.5l2.8.5c-.1.2-4.6 25.1 7.4 40.1 5.9 7.2 14.7 11.1 26.3 11.4l.201 2.887c-12.5-.4-22.401-4.587-28.701-12.387z"/></g><path fill="#2D2D39" d="m176.798 270.774-.487 2.8-1.7 1.533-1.1-2.033.676-3.745z"/></svg>