<svg id="Layer_1" height="512" viewBox="0 0 150 150" width="512" xmlns="http://www.w3.org/2000/svg" data-name="Layer 1"><path d="m94.433 70.365-29.685 14.528s-31.5-4.547-42.1 2.923-9.39 13.315-9.39 13.315 2.424 5.522 11.208 4.547 11.51-5.555 19.385-4.239 32.713 4.355 32.713 4.355l17.872-9.209" fill="#f5d8af"/><g fill="#4d4d4d"><path d="m22.423 106.8c-7.679 0-9.981-5.029-10.083-5.261a.951.951 0 0 1 -.064-.2c-.055-.264-1.218-6.577 9.793-14.336 10.358-7.3 39.023-3.62 42.515-3.139l29.409-14.398a1 1 0 1 1 .879 1.8l-29.684 14.524a1 1 0 0 1 -.582.092c-.313-.047-31.23-4.406-41.384 2.751-9.062 6.385-9.057 11.433-9 12.207.388.734 2.822 4.651 10.127 3.844a29.527 29.527 0 0 0 8.627-2.447c3.23-1.326 6.28-2.577 11.033-1.784 7.293 1.218 29.492 3.958 32.364 4.31l17.6-9.067a1 1 0 1 1 .916 1.777l-17.872 9.209a1 1 0 0 1 -.579.1c-.249-.031-24.95-3.056-32.757-4.361-4.189-.7-6.729.343-9.943 1.662a31.625 31.625 0 0 1 -9.167 2.585 19.562 19.562 0 0 1 -2.148.132z"/><path d="m14.943 103.264a22.7 22.7 0 0 0 2.5-2.379"/><path d="m14.944 104.264a1 1 0 0 1 -.552-1.834 31.49 31.49 0 0 0 2.335-2.248 1 1 0 0 1 1.425 1.4 23.993 23.993 0 0 1 -2.722 2.552 1 1 0 0 1 -.486.13z"/></g><path d="m21.15 102.4a8.063 8.063 0 0 1 -2.8 2.782" fill="#f5d8af"/><path d="m18.353 106.186a1 1 0 0 1 -.46-1.889 7.085 7.085 0 0 0 2.392-2.395 1 1 0 0 1 1.731 1 9.052 9.052 0 0 1 -3.206 3.171.99.99 0 0 1 -.457.113z" fill="#4d4d4d"/><path d="m69.316 78.132 25.52-4.732c-.363-7.39-1.354-14.089-4.068-19.709-5.023-10.4-9.154-15.618-18.559-15.467-3.179.051-14.661 3.819-17.063 6.328-7.646 7.987-1.383 21.92 5.635 27.248 2.8 2.125 5.864 3.977 8.535 6.332z" fill="#f5d8af"/><path d="m69.316 79.132a1 1 0 0 1 -.661-.25 58.964 58.964 0 0 0 -5.255-3.971c-1.066-.746-2.168-1.515-3.222-2.315a26.048 26.048 0 0 1 -9.471-17.434 14.219 14.219 0 0 1 3.719-11.3c2.741-2.862 14.574-6.585 17.767-6.637 9.853-.184 14.279 5.275 19.475 16.032 2.448 5.068 3.733 11.265 4.167 20.1a1 1 0 0 1 -.816 1.032l-25.519 4.727a1.129 1.129 0 0 1 -.184.016zm3.28-39.91h-.371c-3.038.05-14.193 3.76-16.356 6.019a12.272 12.272 0 0 0 -3.169 9.759 24.275 24.275 0 0 0 8.686 16c1.023.777 2.108 1.536 3.158 2.269 1.695 1.184 3.443 2.4 5.064 3.79l24.184-4.483c-.459-8.085-1.678-13.8-3.924-18.452-4.863-10.061-8.721-14.902-17.268-14.902z" fill="#4d4d4d"/><path d="m136.783 36.138v58.919l-81.183 9.275s-23.02 2.777-28.17-8.342a10.3 10.3 0 0 1 -.9-3.024c-2.12-14.614 5.75-18.506 12.11-19.161s12.78-2.337 13.08-9.156c.14-3.088 1.83-7.238 5.05-11.377a40.812 40.812 0 0 1 18.27-12.985c15.15-5.511 33.57 1.7 33.57 1.7a63.9 63.9 0 0 1 28.173-5.849z" fill="#f5d8af"/><path d="m57.473 71.179c-1.7 6.626-8.81 8.62-13.29 12.845s-1.39 13.724-16.75 11.966a10.3 10.3 0 0 1 -.9-3.024c-2.12-14.614 5.75-18.506 12.11-19.161s12.78-2.337 13.08-9.156c.14-3.088 1.83-7.238 5.05-11.377.09.428 2.37 11.409.7 17.907z" fill="#f2f2f2"/><path d="m49.475 105.647a54.706 54.706 0 0 1 -7.756-.524c-9.648-1.4-15.243-5.551-16.181-12.01-.946-6.521-.035-11.611 2.709-15.126 2.888-3.7 7.193-4.858 10.3-5.175 8.32-.849 11.962-3.3 12.18-8.2.172-3.887 2.541-8.849 6.336-13.274a42.038 42.038 0 0 1 17.637-11.985c14.273-5.2 31.03.5 33.88 1.545 15.037-6.662 27.737-5.8 28.276-5.762a1 1 0 1 1 -.149 1.994 63.568 63.568 0 0 0 -27.685 5.761 1 1 0 0 1 -.774.02c-.181-.072-18.258-7-32.863-1.679-14.993 5.468-22.385 17.232-22.665 23.463-.344 7.728-7.649 9.461-13.974 10.107-2.716.278-6.468 1.268-8.922 4.414-2.4 3.071-3.171 7.649-2.306 13.61 1.958 13.493 27.71 10.549 27.969 10.517l74.513-8.52a1 1 0 1 1 .228 1.986l-74.508 8.521a57.055 57.055 0 0 1 -6.245.317z" fill="#4d4d4d"/><path d="m82.174 69c4.066 4.468 6.527 7.735 8.41 14.18 1.281 4.386.895 9.341 1.618 13.954s5.829 9.948 9.569 9.777c3.974-.183 8.575-1.364 10.154-10.311 2.668-15.122 6.078-28.8 3.035-39.938s-6.153-17.022-15.429-18.588c-3.131-.529-15.111 1.083-17.931 3.111-8.973 6.459-5.355 21.301.574 27.815z" fill="#f5d8af"/><g fill="#4d4d4d"><path d="m101.6 107.917c-4.2 0-9.574-5.458-10.384-10.625-.3-1.889-.412-3.84-.524-5.727a36.674 36.674 0 0 0 -1.067-8.1c-1.762-6.033-3.951-9.129-8.189-13.788a26.045 26.045 0 0 1 -6.136-18.869 14.217 14.217 0 0 1 5.717-10.435c3.22-2.316 15.539-3.813 18.681-3.285 9.7 1.638 13.077 7.789 16.226 19.313 2.664 9.749.479 21.491-1.834 33.923-.394 2.118-.8 4.27-1.18 6.453-1.676 9.5-6.809 10.939-11.094 11.136-.072.002-.145.004-.216.004zm-3.75-68.951c-4.281 0-13.45 1.434-15.665 3.034a12.267 12.267 0 0 0 -4.895 9.019 24.276 24.276 0 0 0 5.624 17.311c4.364 4.8 6.768 8.2 8.63 14.573a38.77 38.77 0 0 1 1.144 8.544c.108 1.839.221 3.741.5 5.535.652 4.153 5.323 9.056 8.535 8.932 3.949-.18 7.8-1.454 9.215-9.485.387-2.188.788-4.347 1.184-6.472 2.27-12.2 4.414-23.722 1.871-33.029-2.989-10.937-5.94-16.4-14.63-17.867a9.624 9.624 0 0 0 -1.514-.095z"/><path d="m36.03 74.084-1.9-.513c-7.572-.095-8.827 10.2-5.286 11.865 1.765.829 3.124-.745 4.766-2.235l2.054-1.864c3.092-2.805 4.236-6.207.366-7.253z"/><path d="m29.82 86.671a3.261 3.261 0 0 1 -1.4-.33c-2.022-.952-2.953-3.976-2.212-7.191.734-3.192 3.172-6.58 7.815-6.58a1.431 1.431 0 0 1 .369.035l1.9.513c2.167.586 2.885 1.8 3.106 2.713.436 1.81-.679 4.086-3.06 6.247l-2.583 2.351c-1.147 1.071-2.41 2.242-3.935 2.242zm4.175-12.1c-4.347.016-5.567 3.845-5.84 5.028-.513 2.231-.023 4.4 1.115 4.933.871.414 1.583-.134 3.121-1.566l2.6-2.368c1.742-1.581 2.708-3.267 2.46-4.3-.137-.565-.7-.986-1.683-1.251z"/></g><path d="m136.783 78.49-29.683 14.528s-31.5-4.547-42.1 2.923-9.39 13.316-9.39 13.316 2.424 5.521 11.208 4.547 11.51-5.556 19.385-4.24c5.43.908 18.922 2.634 26.779 3.618a19.273 19.273 0 0 0 11.232-1.993l12.573-6.479" fill="#f5d8af"/><g fill="#4d4d4d"><path d="m64.775 114.921c-7.68 0-9.982-5.029-10.084-5.261a1.083 1.083 0 0 1 -.064-.2c-.055-.265-1.218-6.578 9.793-14.337 10.356-7.3 39.022-3.619 42.515-3.138l29.409-14.393a1 1 0 0 1 .879 1.8l-29.684 14.524a.994.994 0 0 1 -.582.092c-.312-.046-31.23-4.405-41.385 2.75-9.061 6.385-9.055 11.433-9 12.207.388.735 2.821 4.657 10.126 3.845a29.517 29.517 0 0 0 8.627-2.447c3.23-1.326 6.278-2.578 11.034-1.785 5.434.909 19.085 2.653 26.738 3.612a18.222 18.222 0 0 0 10.649-1.89l12.575-6.478a1 1 0 1 1 .916 1.777l-12.575 6.479a20.209 20.209 0 0 1 -11.814 2.1c-7.668-.961-21.35-2.709-26.819-3.624-4.192-.7-6.73.342-9.944 1.662a31.593 31.593 0 0 1 -9.166 2.586 19.544 19.544 0 0 1 -2.144.119z"/><path d="m57.294 111.389a22.7 22.7 0 0 0 2.5-2.379"/><path d="m57.3 112.389a1 1 0 0 1 -.552-1.834 31.327 31.327 0 0 0 2.336-2.247 1 1 0 1 1 1.423 1.4 23.969 23.969 0 0 1 -2.721 2.551 1 1 0 0 1 -.486.13z"/></g><path d="m63.5 110.53a8.063 8.063 0 0 1 -2.8 2.782" fill="#f5d8af"/><g fill="#4d4d4d"><path d="m60.7 114.312a1 1 0 0 1 -.459-1.889 7.143 7.143 0 0 0 2.39-2.392 1 1 0 0 1 1.733 1 9.04 9.04 0 0 1 -3.204 3.169.987.987 0 0 1 -.46.112z"/><path d="m67.059 111.389s-.814 2.182-1.7 2.53"/><path d="m65.354 114.919a1 1 0 0 1 -.364-1.931 5.4 5.4 0 0 0 1.133-1.949 1 1 0 0 1 1.874.7c-.292.782-1.1 2.65-2.28 3.112a.985.985 0 0 1 -.363.068z"/><path d="m68.49 70.674a8.285 8.285 0 0 1 -7.822-4.543 1 1 0 1 1 1.811-.849c1.98 4.216 7.114 3.316 7.332 3.279a1 1 0 0 1 .372 1.965 9.205 9.205 0 0 1 -1.693.148z"/></g><path d="m39.878 103.8s3.374-1.342 5.362-6.373" fill="#f5d8af"/><path d="m39.879 104.8a1 1 0 0 1 -.376-1.926c.133-.055 3.025-1.3 4.807-5.814a1 1 0 0 1 1.86.734c-2.123 5.373-5.768 6.875-5.922 6.935a.983.983 0 0 1 -.369.071z" fill="#4d4d4d"/><ellipse cx="62.467" cy="75.39" fill="#4d4d4d" rx="1.429" ry="2.031" transform="matrix(.384 -.923 .923 .384 -31.13 104.119)"/><path d="m62.948 77.923a3.7 3.7 0 0 1 -1.414-.29 3.525 3.525 0 0 1 -1.627-1.328 2.149 2.149 0 0 1 1.4-3.376 3.508 3.508 0 0 1 2.088.217c1.569.654 2.389 2.15 1.867 3.407a2.253 2.253 0 0 1 -1.644 1.3 3.121 3.121 0 0 1 -.67.07zm-.96-3.067a1.157 1.157 0 0 0 -.241.025c-.153.034-.223.091-.232.113a.378.378 0 0 0 .083.244 1.536 1.536 0 0 0 .7.548 1.512 1.512 0 0 0 .885.112.374.374 0 0 0 .232-.112c.039-.1-.184-.541-.788-.793a1.7 1.7 0 0 0 -.639-.137z" fill="#4d4d4d"/></svg>