<svg xmlns="http://www.w3.org/2000/svg" xml:space="preserve" width="512" height="512"><g fill="#2D2D39"><path d="M448.109 184.9c1-2.6 11.4-6.4 19.7-9.5l1.1-.4c12.5-4.7 23.4-8.7 24.3-13.8.3-1.6-.2-3-1.6-4.5-9.3-8.5-35 13-45.6 22.7l2.1 5.5zm42-24.5c-.7 3.4-13.6 8.2-23 11.7l-.3.1c-5.5 2.1-10.5 3.9-14.3 5.7 7.6-6.5 22.4-18.4 31.6-19.9 2.4-.4 4.2 0 5.4 1.1.7.6.7 1 .6 1.3zM413.909 189.4c.3-2.8 9.7-9.8 16.6-14.9 10.6-7.9 20.6-15.2 20.1-20.5-.1-1.6-1.1-2.9-2.8-3.7-13.5-6.6-37.5 34.7-37.7 35.1l3.8 4zm33.6-35.2c.3 3.6-11.7 12.4-18.9 17.6-4.8 3.5-9.2 6.8-12.3 9.6 8.9-13.7 20.1-27.5 27.2-28.6 1.1-.2 2.1-.1 2.9.3.7.4 1.1.8 1.1 1.1z"/></g><path fill="#2D2D39" d="m385.009 459.5-4.5 10.8.6-11.7zM381.262 458.61l63.866-276.308 3.897.9-63.866 276.309z"/><path fill="#64A7E2" d="M369.109 455.6c.2-.8 5.3-.5 11.8.9.8-.7 1.9-1 2.9-.8 1.1.2 1.9 1 2.2 2 6.5 1.7 11.2 3.5 11 4.4-.2.8-5.3.5-11.8-.9-.8.7-1.9 1-2.9.8-1.1-.2-1.9-1-2.2-2-6.4-1.7-11.2-3.6-11-4.4zM437.009 195.5c.4-1.8 1.5-3.4 2.7-4.4-.8-1.5-.9-3.3-.5-5.2 1-4 4.6-6.5 8.3-5.7s5.8 4.8 5 8.8c-.4 1.8-1.5 3.4-2.7 4.4.8 1.5.9 3.3.5 5.2-.4 1.8-1.5 3.4-2.7 4.4.8 1.5.9 3.3.5 5.2-.4 1.8-1.5 3.4-2.7 4.4.8 1.5.9 3.3.5 5.2-1 4-4.6 6.5-8.3 5.7-3.7-.8-5.8-4.8-5-8.8.4-1.8 1.5-3.4 2.7-4.4-.8-1.5-.9-3.3-.5-5.2.4-1.8 1.5-3.4 2.7-4.4-.7-1.6-.9-3.4-.5-5.2z"/><path fill="#2D2D39" d="m430.109 470.7-1.4 11.6-2.6-11.4zM410.152 187.739l3.993-.223L429.97 470.65l-3.993.223z"/><path fill="#64A7E2" d="M413.709 471.3c0-.9 5-1.9 11.6-2.5.6-.9 1.5-1.6 2.6-1.5 1.1-.1 2.1.5 2.7 1.3 6.7-.2 11.8.2 11.8 1.1s-5 1.9-11.6 2.5c-.6.9-1.5 1.6-2.6 1.5-1.1.1-2.1-.5-2.7-1.3-6.7.3-11.8-.2-11.8-1.1zM406.309 202.6c-.1-1.9.4-3.6 1.4-5-1.1-1.2-1.9-2.9-2-4.8-.3-4.1 2.6-7.6 6.4-7.8 3.7-.2 7 2.9 7.2 7 .1 1.9-.4 3.6-1.4 5 1.1 1.2 1.9 2.9 2 4.8.1 1.9-.4 3.6-1.4 5 1.1 1.2 1.9 2.9 2 4.8.1 1.9-.4 3.6-1.4 5 1.1 1.2 1.9 2.9 2 4.8.3 4.1-2.6 7.6-6.4 7.8-3.7.2-7-2.9-7.2-7-.1-1.9.4-3.6 1.4-5-1.1-1.2-1.9-2.9-2-4.8-.1-1.9.4-3.6 1.4-5-1.2-1.3-1.9-2.9-2-4.8z"/><path fill="#2D2D39" d="M447.509 180.2c3.7.8 5.8 4.8 5 8.8-.4 1.8-1.5 3.4-2.7 4.4.8 1.5.9 3.3.5 5.2-.4 1.8-1.5 3.4-2.7 4.4.8 1.5.9 3.3.5 5.2-.4 1.8-1.5 3.4-2.7 4.4.8 1.5.9 3.3.5 5.2-.9 3.5-3.7 5.8-6.9 5.8-.5 0-.9 0-1.4-.1-3.7-.8-5.8-4.8-5-8.8.4-1.8 1.5-3.4 2.7-4.4-.8-1.5-.9-3.3-.5-5.2.4-1.8 1.5-3.4 2.7-4.4-.7-1.6-.9-3.4-.5-5.2s1.5-3.4 2.7-4.4c-.8-1.5-.9-3.3-.5-5.2.9-3.5 3.7-5.8 6.9-5.8.928 0 1.172.054 1.4.1zm-1.4-3.3c-7.383 0-11.501 7.595-10 13.6-1 1.3-1.8 2.9-2.1 4.5-.4 1.7-.4 3.4 0 5.1-1.1 1.3-1.8 2.9-2.2 4.5-.4 1.9-.4 3.6-.1 5.1-1 1.3-1.8 2.9-2.1 4.5-1.2 5.9 2.1 11.4 7.5 12.6.7.1 1.4.2 2.1.2 7.383 0 11.501-7.595 10-13.6 1-1.3 1.8-2.9 2.1-4.5.4-1.9.4-3.6.1-5.1 1-1.3 1.8-2.9 2.1-4.5.4-1.9.4-3.6.1-5.1 1-1.3 1.8-2.9 2.1-4.5 1.2-5.9-2.1-11.4-7.5-12.6-.7-.2-1.4-.2-2.1-.2zM412.409 185c3.6 0 6.7 3 6.9 7 .1 1.9-.4 3.6-1.4 5 1.1 1.2 1.9 2.9 2 4.8.1 1.9-.4 3.6-1.4 5 1.1 1.2 1.9 2.9 2 4.8s-.4 3.6-1.4 5c1.1 1.2 1.9 2.9 2 4.8.3 4.1-2.6 7.6-6.4 7.8h-.3c-3.6 0-6.7-3-6.9-7-.1-1.9.4-3.6 1.4-5-1.1-1.2-1.9-2.9-2-4.8-.1-1.9.4-3.6 1.4-5-1.2-1.3-1.9-2.9-2-4.8s.4-3.6 1.4-5c-1.1-1.2-1.9-2.9-2-4.8-.3-4.1 2.6-7.6 6.4-7.8h.3zm0-3.2h-.5c-2.6.1-5 1.3-6.8 3.3-1.9 2.1-2.8 5-2.6 7.9.1 1.7.6 3.4 1.4 4.8-.6 1.5-.9 3.2-.8 4.9.1 1.8.6 3.4 1.4 4.9-.6 1.5-.9 3.2-.8 4.9s.6 3.4 1.4 4.9c-.6 1.5-.9 3.2-.8 4.9.3 5.6 4.7 10 10.1 10h.5c2.6-.1 5-1.3 6.8-3.3 1.9-2.1 2.8-5 2.6-7.9-.1-1.7-.6-3.4-1.4-4.8.6-1.5.9-3.2.8-4.9s-.6-3.4-1.4-4.9c.6-1.5.9-3.2.8-4.9s-.6-3.4-1.4-4.9c.6-1.5.9-3.2.8-4.9-.3-5.6-4.7-10-10.1-10z"/><path fill="#FDE7CF" d="m333.809 251.9-29.9 16.3c22.616 53.627 18.143 42.857 23.2 55.5 29.228 7.192 51.561 14.407 83.3.3l15.3-12.8 5.7-11-1.9-10-14.4-4.5c-22.091-3.8-33.13-7.398-81.3-33.8z"/><path fill="#2D2D39" d="M300.409 306.3c-2.5-3.2-3.6-5.8-4.9-9.5l2.3-1.9c3.9 11.1 14 20.4 29.4 26.7 27 11.2 62 10.6 77.8 3 15.6-7.5 26.5-20 25-28.3-1.2-6.2-9.1-8.1-15.5-8.6-29.9-2.3-81.5-35.4-82.1-35.9l2.1-2.4c.1.1 51.5 32.9 80.2 35.1 13.7 1.1 17.6 6.7 18.5 11.3 1.9 9.9-9.6 23.6-26.7 31.8-16.4 7.9-52.6 8.6-80.4-2.9-11.4-4.8-20.1-11-25.7-18.4z"/><path fill="#9D706B" d="M432.909 291.8c-.3-4-2.9-7.7-6.8-8.9-2.8-.8-6.2-.5-9.4 3.5-6.9 8.9-10 30.1-7 33.8 3 3.7 12.1 11.3 18.3-4.5 4.3-11.1 5.3-18.7 4.9-23.9z"/><path fill="#2D2D39" d="M413.809 325.8c-2.8-1.5-4.8-3.8-5.4-4.5-3.6-4.5-.1-26.7 7-35.8 3.9-5 8.2-5 11.1-4.1 4.4 1.3 7.6 5.5 7.9 10.3.5 6.5-1.2 14.8-5.1 24.7-2.5 6.4-5.8 9.9-9.8 10.5-2 .3-4-.2-5.7-1.1zm13.1-40.8c-.4-.2-.8-.4-1.3-.5-2.9-.9-5.4.1-7.6 3-6.6 8.5-9.3 29-7.1 31.8 1.9 2.3 5.2 4.9 8.2 4.4 2.8-.4 5.3-3.4 7.3-8.5 3.7-9.4 5.3-17.2 4.8-23.3-.1-3-1.8-5.6-4.3-6.9z"/><path fill="#FDE7CF" d="m107.509 282.8-17.3 2.9-14.4 4.5-1.9 10 5.7 11 15.3 12.8c42.033 13.795 57.554 6.035 83.3-.3l3.8-9.5 19.4-46-30.539-16.648c-61.804 34.243-63.985 30.624-63.361 31.248z"/><path fill="#2D2D39" d="M179.209 324.7c-27.8 11.5-64 10.8-80.4 2.9-17.1-8.2-28.6-21.9-26.7-31.8.9-4.6 4.8-10.2 18.5-11.3 28.7-2.2 80.1-35 80.2-35.1l2.1 2.4c-.6.5-52.2 33.6-82.1 35.9-6.4.5-14.3 2.4-15.5 8.6-1.5 8.3 9.4 20.8 25 28.3 15.8 7.6 50.8 8.2 77.8-3 15.4-6.3 25.5-15.6 29.4-26.7l2.3 1.9c-1.3 3.7-2.4 6.3-4.9 9.5-5.6 7.4-14.3 13.6-25.7 18.4z"/><g><path fill="#FDE7CF" d="M330.209 455.3v-.6c.1-.6.2-1.2.3-1.9.9-5.8 4-25.5 5.1-36.5 1.7-15.9 1.8-33.3.4-51.7-2.266-31.074-6.5-55.087-6.5-55.4l-8.9-42.6h-133.5l-9.4 45c-2.605 16.281-4.99 37.771-6.1 53-1.4 18.4-1.3 35.8.4 51.7 1.1 11 4.2 30.7 5.1 36.5.1.7.2 1.3.3 1.9l.1.6h-.1c-17.6 1.2-21.6 10.3-21.9 17.8-.1 3.1 2.3 5.8 5.4 5.9 10.1.5 34.5 1.5 45.1-.3 13.5-2.3 15.8-7.5 18.1-15.8 2.1-7.9 14.9-40.4 17.4-46.8l.1-.2.873-2.146c6.696.932 15.086 1.074 22.862-.027l.665 2.373c2.5 6.4 15.3 38.9 17.4 46.8 2.3 8.4 4.6 13.5 18.1 15.8 10.5 1.8 35 .8 45.1.3 3.1-.1 5.5-2.8 5.4-5.9-.3-7.4-4.2-16.6-21.8-17.8z"/><path fill="#9D706B" d="M346.509 479.3c3.1-.1 6.7-1.4 6.6-4.5-.3-7.5-.3-18.2-17.9-19.4l-2.9-1-2.3.6c.1-.6.2-1.2.3-1.9.9-5.8 4-25.5 5.1-36.5.1-1.1.2-2.3.3-3.5-6.4-.5-41.3-2.3-68 7.7 4.4 11.1 13.8 35.6 15.6 42.3 2.3 8.4 4.6 13.5 18.1 15.8 10.5 1.8 35 .8 45.1.4z"/><path fill="#8A5D58" d="m265.909 416 4.7 13.8c2.5 6.5 10.7 25.4 12.8 33.2 2.3 8.4 4.6 13.5 18.1 15.8 10.5 1.8 35 .8 45.1.3 3.1-.1 5.5-2.8 5.4-5.9-.1-3.2-.9-6.6-3.1-9.7.9 13.3-32.6 10.4-45 6.4-13.2-4.2-38-53.9-38-53.9z"/><path fill="#2D2D39" d="M265.609 414.2c.6 1.6 15.7 39.9 18.1 48.7 2.2 8.2 4.5 13.3 17.9 15.6 10.5 1.8 34.9.8 45 .3 2.9-.1 5.3-2.7 5.2-5.7-.3-7.5-4.3-16.4-21.7-17.6h-.3c.1-.7.3-1.6.4-2.6.2 0 .5.1.7.1 19.9 1.6 23.4 13.2 23.6 20.1.1 4.5-3.4 8.3-7.8 8.5-6.9.4-16.7.8-26 .8-7.7 0-14.9-.3-19.7-1.1-14.9-2.6-17.7-9-20.1-17.6-2.3-8.6-17.8-48-18-48.4l2.7-1.1z"/><path fill="#2D2D39" d="M334.909 336.4c-.3-1.7-.5-3.4-.8-5-1.2-14.6-6.8-31.9-6.8-31.9.1.6.7 3.8 1.5 9.1.2 1.1.3 2.2.5 3.5.9 6 2.1 13.9 3.2 23.1 0 .3.1.7.1 1.1 1.1 8.5 2.1 18.2 2.9 28.6 1.2 16.1 1.5 33.9-.4 51.7-1 10.1-3.8 28.1-5.1 36.5-.1 1-.3 1.9-.4 2.6-.2 1.1-.3 1.8-.3 2 .2-.6.4-1.3.6-2 .3-.9.6-1.7.8-2.6 1.8-6 3.3-12.1 4.4-18.3 6.6-35.2 3.8-72-.2-98.4zM172.709 336.4c.3-1.7.5-3.4.8-5 1.2-14.6 6.8-31.9 6.8-31.9-.1.6-.7 3.8-1.5 9.1-.2 1.1-.3 2.2-.5 3.5-.9 6-2.1 13.9-3.2 23.1 0 .3-.1.7-.1 1.1-1.1 8.5-2.1 18.2-2.9 28.6-1.2 16.1-1.5 33.9.4 51.7 1 10.1 3.8 28.1 5.1 36.5.1 1 .3 1.9.4 2.6.2 1.1.3 1.8.3 2-.2-.6-.4-1.3-.6-2-.3-.9-.6-1.7-.8-2.6-1.8-6-3.3-12.1-4.4-18.3-6.5-35.2-3.7-72 .2-98.4z"/><path fill="#9D706B" d="M206.309 478.9c13.5-2.3 15.8-7.5 18.1-15.8 1.8-6.7 11.2-31.1 15.6-42.3-26.7-10-61.6-8.2-68-7.7.1 1.2.2 2.4.3 3.5 1.1 11 4.2 30.7 5.1 36.5.1.7.2 1.3.3 1.9l.1.6-1.3-1c-17.6 1.2-20.4 11.3-20.7 18.8-.1 3.1 2.3 5.8 5.4 5.9 10.1.4 34.5 1.4 45.1-.4z"/><path fill="#E0BCA2" d="M253.809 408.1c-27.6.1-47.7-9.6-47.9-9.7.602.662 2.797 2.6 2.9 2.6.4.3.9.7 1.4 1.1 4.1 3.1 10.9 7.4 20 9.8 21.942 5.808 49.426 3.82 67-9.8.5-.4 1-.8 1.4-1.1.101 0 2.507-2.207 2.9-2.6 0 .2-20.1 9.8-47.7 9.7z"/><path fill="#8A5D58" d="M203.809 470c-12.3 4.1-45.9 7-45-6.4-2.2 3.1-3 6.5-3.1 9.7-.1 3.1 2.3 5.8 5.4 5.9 10.1.5 34.5 1.5 45.1-.3 13.5-2.3 15.8-7.5 18.1-15.8 2.1-7.9 10.3-26.8 12.8-33.2l4.7-13.8c0-.1-24.9 49.6-38 53.9z"/><path fill="#2D2D39" d="M244.809 415.3c-.2.4-15.7 39.8-18 48.4-2.4 8.7-5.2 15-20.1 17.6-4.8.8-12 1.1-19.7 1.1-9.3 0-19.1-.4-26-.8-4.4-.2-7.9-4-7.8-8.5.2-6.9 3.7-18.5 23.6-20.1.2 0 .5-.1.7-.1.1 1 .3 1.9.4 2.6h-.3c-17.4 1.2-21.4 10.1-21.7 17.6-.1 3 2.3 5.6 5.2 5.7 10.1.5 34.4 1.5 45-.3 13.4-2.3 15.7-7.5 17.9-15.6 2.4-8.8 17.5-47.1 18.1-48.7l2.7 1.1z"/><path fill="#2D2D39" d="M253.809 414.431c-26 .1-45-13.4-45.7-14 6.664 6.664 15.173 11.225 23.3 13.5 10.865 3.056 19.084 3.1 22.4 3.1 3.391 0 11.472-.026 22.4-3.1 14.91-4.175 23.199-13.701 23.3-13.701-.7.6-19.7 14.301-45.7 14.201z"/><path fill="#FFFAF5" d="M305.309 356.5c0-24.7-23-52.8-51.4-52.8-28.5 0-51.4 28.2-51.4 52.8 0 24.7 23 44.7 51.4 44.7s51.4-20 51.4-44.7z"/><path fill="#2D2D39" d="M172.709 336.4c.3-1.7.5-3.4.8-5 1.2-14.6 6.8-31.9 6.8-31.9-.1.6-.7 3.8-1.5 9.1-.2 1.1-.3 2.2-.5 3.5-.9 6-2.1 13.9-3.2 23.1 0 .3-.1.7-.1 1.1-1.1 8.5-2.1 18.2-2.9 28.6-1.2 16.1-1.5 33.9.4 51.7 1 10.1 3.8 28.1 5.1 36.5.1 1 .3 1.9.4 2.6.2 1.1.3 1.8.3 2-.2-.6-.4-1.3-.6-2-.3-.9-.6-1.7-.8-2.6-1.8-6-3.3-12.1-4.4-18.3-6.5-35.2-3.7-72 .2-98.4z"/></g><g><path fill="#64A7E2" d="M92.227 141.567c-.207-11.267 8.801-24.546 19.983-24.546 11.078-.101 19.983 12.977 19.983 24.244l-4.97 333.882c0 2.917-3.21 5.332-7.04 5.332h-16.048c-3.831 0-7.04-2.314-7.04-5.332l-4.868-333.58z"/><path fill="#FFF" d="m130.909 186.2-.2 14-37.4-28.7-.2-14.3zM130.509 213.8l-.2 14-36.6-28.1-.2-14.3zM127.609 412.8l-.2 14-30.8-23.7-.2-14.2zM127.209 440.4l-.2 14-30-23.1-.2-14.3z"/><path fill="#2D2D39" d="M112.209 118c10.894 0 19.3 13.164 19.3 24.4l-.6 43.7-.2 14-.2 13.6-.2 14-2.7 185.1-.2 14-.2 13.6-.2 13.9-.3 19.7c0 2.9-3.1 5.3-6.8 5.3h-15.5c-3.7 0-6.8-2.4-6.8-5.3l-.6-42.8-.2-14.2-.2-13.9-.2-14.2-2.7-189.2-.2-14.3-.2-13.9-.2-14.3-.2-14.7c-.2-11.2 8.4-24.5 19.3-24.5zm0-3c-4.9 0-9.6 2.2-13.7 6.3-5.4 5.4-8.8 13.8-8.6 21.2l.2 14.7.2 14.3.2 13.9.2 14.3 2.7 189.2.2 14.3.2 13.9.2 14.3.6 42.8c.1 4.6 4.4 8.2 9.8 8.2h15.5c5.4 0 9.7-3.6 9.8-8.2l.3-19.7.2-13.9.2-13.6.2-14 2.7-185.1.2-14 .2-13.6.2-13.9.6-43.7c0-12.952-9.5-27.7-22.3-27.7z"/></g><g><path fill="#64A7E2" d="M55.551 148.683c-2.009-11.051 5.375-25.998 16.124-27.807 10.649-1.808 22.6 9.68 24.408 20.731l50.717 328.5c.402 2.913-3.079 7.136-6.696 7.739l-15.652 2.543c-3.717.603-8.454-1.956-8.957-4.87L55.551 148.683z"/><path fill="#FFF" d="m101.609 185.8 2.1 13.8-41.6-22.1-2.6-14.1zM105.809 213l2.1 13.8-40.7-21.6-2.6-14zM136.109 409.8l2.1 13.8-34.3-18.2-2.6-14.1zM140.309 437l2.1 13.8-33.4-17.7-2.6-14.1z"/><path fill="#2D2D39" d="m148.409 469.9-3-19.5-2.1-13.8-2.1-13.4-2.1-13.8-28.2-183-2.1-13.8-2.1-13.4-2.1-13.8-6.6-43.2c-2.1-12.5-14.3-25.6-26.7-23.5-4.8.8-9.1 3.7-12.4 8.5-4.4 6.3-6.3 15-5 22.3l2.7 14.5 2.6 14 2.5 13.7 2.6 14.1 34.1 186.1 2.6 14 2.5 13.7 2.6 14.1 7.7 42.1c.8 4.5 5.7 7.4 11 6.5l15.3-2.6c5.4-.9 9-5.2 8.3-9.8zm-8.8 6.6-15.3 2.6c-3.7.6-7.1-1.2-7.6-4.1l-7.7-42.1-2.6-13.9-2.5-13.7-2.6-14-34.1-186.1-2.6-14.1-2.5-13.7-2.6-14-2.7-14.4c-2-11.1 4.4-25.5 15-27.3 10.6-1.8 21.3 9.9 23.2 20.9l6.6 43.2 2.1 13.8 2.1 13.4 2.1 13.8 28.2 182.9 2.1 13.8 2.1 13.4 2.1 13.8 3 19.5c.4 2.9-2.2 5.7-5.8 6.3z"/></g><path fill="#9D706B" d="M77.309 315.7c6.2 15.8 15.3 8.2 18.3 4.5 3-3.7-.1-24.9-7-33.8-3.2-4-6.6-4.3-9.4-3.5-3.9 1.2-6.5 4.9-6.8 8.9-.4 5.2.6 12.8 4.9 23.9z"/><path fill="#2D2D39" d="M85.809 326.9c-4-.6-7.3-4.1-9.8-10.5-3.9-9.9-5.6-18.2-5.1-24.7.3-4.8 3.5-9 7.9-10.3 2.9-.9 7.2-.9 11.1 4.1 7.1 9.1 10.6 31.3 7 35.8-.6.7-2.6 3-5.4 4.5-1.7.9-3.7 1.4-5.7 1.1zm-11.7-35c-.5 6.1 1.1 13.9 4.8 23.3 2 5.1 4.5 8.1 7.3 8.5 3 .5 6.3-2.1 8.2-4.4 2.2-2.8-.5-23.3-7.1-31.8-2.2-2.9-4.7-3.9-7.6-3-.5.1-.9.3-1.3.5-2.5 1.3-4.2 3.9-4.3 6.9z"/><g><path fill="#FDE7CF" d="M173.209 241.5c-24.218-13.839-24.863-46.148-18.1-73.2 3.6-15 8.4-26.1 8.4-26.1 5.837-19.496 5.5-18.327 5.5-18.5-.41-1.437-2.417-7.088-4.3-16.5-2.388-11.462-3.743-26.712-.1-37.8 5.787-17.361 17.029-34.829 19.4-37.2.24-.48-.325-.854 4.6 4.3 22.069 15.448 33.644 37.059 36.9 41.4.103 0 28.118-3.8 28.5-3.8.486 0 28.397 3.8 28.5 3.8 2.796-3.727 15.014-26.08 36.9-41.4 4.36-4.563 4.245-4.445 4.4-4.6 2.786 2.786 13.824 20.82 19.5 37.6 5.08 15.461.212 39.663-4.726 54.477 0 .138.032-1.084 5.726 18.323 5.686 13.148 12 36.916 12 53.1 0 19.343-4.803 36.384-21.7 46.2-35.34 20.111-91.252 40.206-161.4-.1z"/><path fill="#9D706B" d="M202.609 132.3c12.7-5.5 27.2-4.6 37.6-2.7 4.5.8 9.1 1.3 13.7 1.3s9.2-.4 13.7-1.3c10.4-1.9 24.9-2.7 37.6 2.8 22.8 9.9 39.9 53.8 14.5 81.8-18 20-38.9 22-52.9 21.2-4.3-.2-8.6-.3-13-.3-4.3 0-8.6.1-13 .3-14 .7-34.9-1.3-52.8-21.3-25.4-28-8.2-71.9 14.6-81.8z"/><path fill="#E0BCA2" d="M190.209 40.8h.7s15.4 12.5 24 40.9l10.5-3.7s-26.2-41.6-35.2-37.2z"/><path fill="#F6B0A6" d="m163.409 74.8-1 19.6 2.7 15.8s15.7 1 15.1-16.6c0 0 4.2 3.5 4.6 3.3.2-.2 3.4-4.4 3.4-4.4V78.2l4.5-.9 8.1 5 4.8-2.2s.1-9.9 0-10.2c-.1-.5-6.4-16-6.4-16l-11.8-17-3.2-4.1-10.9 16-9.9 26z"/><ellipse transform="rotate(-67.592 201.703 187.545)" fill="#F6B0A6" cx="201.702" cy="187.547" rx="9" ry="15.1"/><path fill="#2D2D39" d="M170.625 122.234s-.116-.734-.416-1.334c-17.6-43.5 8.6-79.8 14.1-86.7 29.5 23 39.1 44.9 39.3 45l3.1-1.4c-.4-1-10.4-23.4-41.6-47.4l-1.2-.9-1.1 1.4c-.4.4-37.5 42.9-14.4 94.4l2.216-3.066z"/><path fill="#2D2D39" d="M178.009 86.5c1.514 6.464 4.284 11.9 7.4 11.9.8 0 1.7-.4 2.4-1 2.3-2.1 2.2-6.6 2.1-11.4-.1-2.1-.1-5.8.4-6.7.8 0 2.7.9 4.1 1.6 3.7 1.8 8.8 4.3 12.1.1 5-6.5-5-30.3-21.1-50l-2.6 2.1c16.5 20.3 24.1 41.8 20.9 45.9-1.6 1.9-4.2.9-8-1-2.5-1.3-4.6-2.3-6.5-1.8-3 .8-2.9 5.1-2.8 10 .1 3.2.2 7.8-1 8.9-2.152 0-6.285-6.529-7.4-8.6zM117.609 159.8c18.1.9 36.8 6.6 54.2 16.4 0 0-13.1-4.2-27.2-8.3-9.9-3-27-8.1-27-8.1zM108.509 178c18-1.9 37.4.7 56.1 7.6 0 0-13.6-2-28.1-3.9-10.4-1.2-28-3.7-28-3.7zM112.209 202.6c16.9-6.4 36.4-8.7 56.2-6.7 0 0-13.7 1.4-28.2 3.3-10.3 1.4-28 3.4-28 3.4z"/><path fill="#FFFAF5" d="M207.409 84.9c20.709-6.903 20.401-10.9 46.5-10.9 27.059 0 32.523 6.341 46.5 11-23.273-4.697-41.926-5.3-46.6-5.3-4.67 0-23.418.604-46.4 5.2z"/><path fill="#E0BCA2" d="m282.509 78.1 10.5 3.6c8.6-28.4 24-40.9 24-40.9h.7c-9-4.3-35.2 37.3-35.2 37.3zM153.809 215.9l2.1 1.5c34.7 24.4 68.4 32.4 97.9 32.1 29.5.4 63.2-7.5 98-31.9l2.1-1.5s.1 0 .1-.1c-2.9 10.4-8.8 19.6-19.4 25.7-18.3 10.5-36 16.3-50.1 19.5h-.1c-17 3.9-28.8 4-30.6 4-1.8 0-13.7-.2-30.6-4.1h-.1c-14.1-3.3-31.7-9.1-50-19.6-10.6-6-16.6-15.3-19.3-25.6-.1 0-.1 0 0 0z"/><path fill="#F6B0A6" d="m334.709 48.9-10.9-16-3.2 4.1-11.9 17s-6.4 15.5-6.4 16c-.1.4 0 10.2 0 10.2l4.8 2.2 8.1-5 4.5.9-.1 14.3s3.1 4.2 3.4 4.4c.3.2 4.6-3.3 4.6-3.3-.6 17.6 15.1 16.6 15.1 16.6l2.7-15.8-1-19.5-9.7-26.1z"/><ellipse transform="rotate(-22.301 306.107 187.704)" fill="#F6B0A6" cx="306.105" cy="187.71" rx="15.1" ry="9"/><path fill="#2D2D39" d="M339.309 125.5c23.2-51.5-13.8-94-14.2-94.5l-1-1.2-1.2.9c-31.3 23.9-41.2 46.3-41.7 47.3l3.1 1.4c.1-.2 9.8-22 39.3-45 5.5 6.9 31.6 43.3 13.9 86.7l1.8 4.4z"/><path fill="#2D2D39" d="M322.409 95.2c-1.1-1-1-5.7-.9-8.9.1-5 .1-9.3-2.8-10-1.9-.5-4 .5-6.5 1.8-3.9 1.9-6.5 2.9-8 1-3.2-4.1 4.5-25.6 21-45.9l-2.6-2.1c-16.1 19.7-26.2 43.5-21.2 50 3.3 4.2 8.4 1.8 12.1 0 1.4-.7 3.3-1.6 4.1-1.6.5.9.4 4.6.4 6.7-.1 4.8-.2 9.3 2.1 11.4.7.6 1.5.9 2.4 1 3.144 0 5.967-5.356 7.5-11.9-1.578 2.798-5.539 8.5-7.6 8.5zM225.409 192.1l.4 2.2v.3l.1.6c.4 2.2 2.7 13.4 12.9 13.5 5 .1 9.8-2.6 12.6-6.9.2-.3.4-.7.6-1-5.2-2.5-11.4-6.1-12.4-9.4-.2-.8-.2-1.6.3-2.3 1.7-2.7 8.5-3.6 13.9-3.6s12.2 1 13.9 3.6c.4.7.5 1.5.3 2.3-1 3.5-8.1 7.3-12.4 9.4.2.3.4.7.6 1 2.8 4.4 7.6 7 12.6 7 10.2-.1 12.6-11.3 13-13.5l.1-.6v-.3l.4-2.2 7.8 4.1-5.5-.1c-.8 4-4.2 15.5-15.8 15.6h-.1c-6-.1-11.7-3.2-14.9-8.3-3.3 5.1-9 8.2-14.9 8.3h-.1c-11.5-.1-14.9-11.6-15.7-15.6l-5.5.1 7.8-4.2zM253.809 227.3c4-.1 8-1.2 11.7-3.4-5 8.6-18.4 8.6-23.4 0 3.7 2.2 7.7 3.3 11.7 3.4zM207.409 84.9c7.601-4.256 14.867-7.111 21.314-9.022 22.562-6.688 38.755-3.03 45.64-1.322 8.714 2.162 17.993 5.688 26.147 10.445-12.043-3.613-20.902-5.916-27.526-7.366-15.148-3.314-23.807-3.463-43.573 1.256-5.875 1.402-13.104 3.34-22.002 6.009zM390.109 160c-18.1.9-36.8 6.5-54.2 16.3 0 0 13.1-4.1 27.2-8.2 9.9-3 27-8.1 27-8.1zM399.209 178.3c-18-2-37.4.6-56.1 7.5 0 0 13.6-2 28.1-3.8 10.4-1.3 28-3.7 28-3.7zM395.409 202.9c-16.9-6.4-36.4-8.8-56.2-6.8 0 0 13.7 1.5 28.2 3.3 10.4 1.4 28 3.5 28 3.5z"/><path fill="#3D3D44" d="M243.209 189c0-.6 2.7-1.1 6.6-1.3 1.2-.1 2.6-.1 4-.1s2.8.1 4 .2c3.9.2 6.5.7 6.6 1.3 0 .8-4.7 1.4-10.6 1.5-5.9-.2-10.6-.8-10.6-1.6z"/><path fill="#2D2D39" d="M168.409 125.1c.6-1.4 1.2-2.8 1.8-4.1 2.7-6.2 4.8-10.2 5.2-11-.2.6-1.9 5.5-4.4 12.9-.3.9-.6 1.9-.9 3-2.9 8.9-6.7 20.8-10.2 33.2-4.3 15.2-7.5 32.1-6.4 47.2 1.7 23.9 22.5 37.3 41.3 44.5 6.6 2.5 13 4.9 18.2 6.8 26.4 7.3 50.5 5.8 67.7 2.6 9.4-1.8 17.7-4.1 24.4-6.4 2.5-.9 5.1-1.9 7.7-2.9 18.8-7.1 39.6-20.5 41.4-44.4 1.1-15.1-2-31.9-6.3-47.2-3.5-12.4-7.3-24.3-10.2-33.2-.3-1.1-.6-2.1-.9-3-2.5-7.5-4.2-12.3-4.4-12.9.4.8 2.5 4.8 5.2 11 .6 1.3 1.2 2.7 1.8 4.2 8.1 19.2 20.2 52.9 18.1 81.3-1.7 23-19.6 36.8-37.6 44.8-6.7 3.2-20.3 8.9-38.5 12.4-8.2 1.5-17.9 2.7-28.7 2.7-18.9 0-41.1-3.6-64.2-14.7-18.2-8-36.8-21.9-38.5-45.3-1.9-28.6 10.2-62.3 18.4-81.5z"/><g><path fill="#2D2D39" d="M262.809 208.5c-3.276-1.638-1.816-.743-6.4-4l-.9-2.2h-3.6l-.9 2.2c-4.569 3.246-3.135 2.367-6.4 4l-4.4.3.8 2c2.7 6.8 7 10.5 12.2 10.6h.9c5.2 0 9.6-3.7 12.2-10.5l.8-2-4.3-.4z"/><path fill="#F9A9A0" d="M253.909 213c-3.532 0-6.232.672-7.702 1.19 4.159 5.655 11.023 5.766 15.273-.008a24.473 24.473 0 0 0-7.571-1.182z"/></g><g><path fill="#2D2D39" d="M282.609 165.5c6 .7 12 2.2 17.6 4.5-8.1-.4-16.5-1.6-24.6-1.2 5.1-9.8 17.3-14 27.3-9.7-4.4-.1-8.8.2-12.8 1.8-2.8 1.1-5.4 2.6-7.5 4.6zM217.609 160.9c-4-1.5-8.4-1.9-12.8-1.8 10-4.3 22.2 0 27.3 9.7-8.1-.4-16.6.8-24.6 1.2 5.6-2.4 11.5-3.9 17.6-4.5-2.2-2-4.7-3.5-7.5-4.6z"/></g></g><g><path fill="#D21F26" d="M254.909 278.8s-13.4 40.1-13 39.8 34 9.8 34.5 9.7c.4-.1 15.4-45.4 15.4-45.4l-36.9-4.1z"/><path fill="#C61825" d="m254.109 281 25.7 11.3-3.6-11-21.2-4z"/><path fill="#EF4B57" d="m243.809 315.1 33.7 10s-2.3 3.8-2.7 3.8c-.3 0-32.4-10.8-32.4-10.8l1.4-3z"/><path fill="#2D2D39" d="m277.309 330.6-37.5-11.1 14.5-43.3 3 .9-13.4 40.2 31.4 9.3 14.9-44.1 3 1z"/><path fill="#D21F26" d="M276.009 279.7s8.2 41.1 8.5 40.7 34.5-9.5 34.8-9.8-9.2-46.6-9.2-46.6l-34.1 15.7z"/><path fill="#EF4B57" d="m284.409 316.5 34.1-9.2.8 3.2-34.2 8.4z"/><path fill="#C61825" d="M275.809 281.9s17.4 12.7 40.3 11.6l-3-8-37.3-3.6z"/><path fill="#2D2D39" d="m321.209 311.8-38 10.4-9.1-44.5 3.2-.8 8.3 41.2 31.9-8.6-9-45.3 3.1-.8z"/></g><g><path fill="#D21F26" d="m339.409 237.9-28.5 6.2c-4.603.948 2.977.342-46.9 3.2-12.128-.6-7.487-.629-20.2 0-53.452-3.062-35.408-.7-75.4-9.4-.796.265-.332.124-2 .6.37 3.412 2.339 8.517 5.5 11.8.283 11.764.329 30.288 57.2 30.9 53.698.814 64.964-.536 72.151-1.504 20.787-2.798 27.202-8.853 31.079-14.241 2.782-3.866 2.812-8.86 3.67-15.155 3.154-3.275 4.922-7.323 5.5-11.8-1.8-.48-1.344-.348-2.1-.6z"/><path fill="#C61825" d="M253.909 264.3c-34.4.7-61.1-5.4-69.1-7.2-1.5-.3-2.4-.5-2.5-.5 0 0 2 1.2 5.9 3 19.622 9.042 44.364 13.6 65.8 13.6 28.792 0 56.281-7.789 71.7-16.6-2.129 0-31.464 8.638-71.8 7.7z"/><path fill="#EF4B57" d="M341.609 237.9c-2.048 0-26.29 5.8-27.1 5.8-1.302 0-35.648 4.327-37 4.5l-23.7-.8-23.7.8c-16.399-1.977-35.582-4.5-37-4.5-.607 0-26.787-6.113-27.1-5.8-.5.1.3 3.6.3 3.6.1 0 .4.1.9.2.3.1.6.1.9.2 26.812 6.859 56.462 10.528 85.6 9.8 30.632.766 59.163-3.141 87.4-10.2.2 0 .9-3.5.5-3.6z"/><g fill="#EF4B57"><path d="M218.709 250.3c-.1 1.3-4.3 2.1-9.2 1.6-5-.4-8.9-1.9-8.8-3.1s4.3-2.1 9.2-1.6c5 .4 8.9 1.8 8.8 3.1zM231.109 251.8c0 .8-2.4 1.2-5.4.9-2.8-.2-5.2-1-5.1-1.9 0-.8 2.4-1.2 5.4-.9s5.2 1.1 5.1 1.9z"/></g><g fill="#2D2D39"><path d="m342.709 236-1.7.5c-.2 0-20.3 6.5-51.2 9-10.2.8-61.7.8-71.9 0-26.985-2.183-45.13-7.215-52.9-9.5-.044.799-.656 5.807 2.7 11.4 5.453 9.996 21.636 12.347 21.9 12.4-1.339-.701-14.639-8.133-17.7-11.5-3.831-4.406-4.122-8.229-4.2-8.7 23.953 6.844 49.219 8.527 49.8 8.6 12.1 1 60.4 1 72.5 0 .101-.013 26.149-1.843 49.8-8.6-.147.881-.6 4.758-4.2 8.7-3.033 3.336-15.118 10.024-17.7 11.5.423-.085 16.516-2.529 21.9-12.4 2.875-4.792 2.761-8.903 2.9-11.4z"/><path d="M337.409 250.8c0-.5-.1-.7-.1-.8l-1.4.3-1.3.3s.2 1 .2 2.6c0 2.8-.6 7.6-3.8 12.1-4.8 6.6-13.5 10.6-26 12-8.6 1-17.5 1.7-26.3 2.1-6.4.3-12.8.4-19.1.4h-.2c-1.9 0-3.7 0-5.6-.1-1.9 0-3.7.1-5.6.1h-.1c-6.3 0-12.7-.1-19.1-.4-8.8-.4-17.7-1.1-26.3-2.1-12.5-1.4-21.2-5.5-26-12-3.3-4.5-3.8-9.3-3.8-12.1 0-1.6.2-2.5.2-2.6l-1.3-.3-1.4-.3c0 .1-.1.3-.1.8-.3 2.3-.6 9.4 4.2 16 5.2 7.2 14.6 11.7 28 13.2 16.8 1.9 34.7 2.7 51.3 2.4 16.6.4 34.5-.4 51.3-2.4 13.4-1.6 22.8-6 28-13.2 4.9-6.6 4.6-13.6 4.3-16z"/></g></g></svg>