<svg xmlns="http://www.w3.org/2000/svg" xml:space="preserve" width="512" height="512"><path fill="#64A7E2" d="M33.952 425.918h443.996l-53.727-149.853H87.679z"/><path fill="#5E84C2" d="M34.052 425.896h443.896v6.327H34.052z"/><path fill="#2D2D39" d="M425.457 274.204H86.66l-.464 1.156L32.37 425.461l-.036 8.768h447.333v-8.559l-54.21-151.466zm-2.372 3.846 53.144 148.223v3.987H35.671v-3.987L88.815 278.05h334.27z"/><path fill="#5E84C2" d="M396.066 361.441s-29.648 29.648-53.59 22.701c0 0-7.195-3.846-5.954-10.792 0 0-29.152 7.443-81.501 10.668-78.896 4.962-190.293 4.218-173.794-16.499 27.291-34.362 238.796-21.957 238.796-21.957l76.043 15.879z"/><path fill="#2D2D39" d="M115.037 316.37c-32.544-15.41-31.193-34.839-30.02-51.918.676-8.906 1.201-17.45-2.85-24.725-.658-1.17-1.458-2.101-2.382-3.042-3.343-3.488-3.691-8.74-.783-12.625 3.193-4.361 9.49-5.375 13.851-2.183 13.262 8.845 12.496 23.84 11.768 38.34-.664 12.017-1.281 23.416 6.423 30.097 22.329 18.864 43.224 10.747 44.118 10.442 3.338-1.364 6.678-1.11 9.382.961 2.942 2.214 4.621 6.322 4.091 10.014-.501 3.321-2.572 6.025-5.911 7.389-1.017.296-22.453 8.994-47.687-2.75zm40.937-13.189c-.903.429-23.32 8.928-46.821-10.896-8.637-7.498-7.935-20.01-7.253-32.275.672-13.758 1.514-28.125-10.567-36.134-3.18-2.356-7.832-1.714-10.198 1.589-2.081 2.828-1.877 6.7.542 9.247 1.038 1.074 2.076 2.148 2.839 3.575 4.489 8.054 3.822 16.836 3.232 26.247-1.173 17.079-2.383 34.653 28.477 49.313 24.149 11.289 44.567 2.887 45.461 2.582 3.081-1.259 4.002-3.553 4.257-5.275.33-2.712-.929-5.793-3.157-7.58-.352-.276-.705-.551-1.19-.712-1.456-.484-3.302-.749-5.622.319z"/><path fill="#9D706B" d="M155.974 303.181c-.903.429-23.32 8.928-46.821-10.896-8.637-7.498-7.935-20.01-7.253-32.275.672-13.758 1.514-28.125-10.567-36.134-3.18-2.356-7.832-1.714-10.198 1.589-2.081 2.828-1.877 6.7.542 9.247 1.038 1.074 2.076 2.148 2.839 3.575 4.489 8.054 3.822 16.836 3.232 26.247-1.173 17.079-2.383 34.653 28.477 49.313 24.149 11.289 44.567 2.887 45.461 2.582 3.081-1.259 4.002-3.553 4.257-5.275.33-2.712-.929-5.793-3.157-7.58-.352-.276-.705-.551-1.19-.712-1.456-.484-3.302-.749-5.622.319z"/><path fill="#FDE7CF" d="M240.011 254.347s-27.291-8.311-48.38 3.721l-.868-3.225s1.116-34.114-18.483-45.154c0 0-15.754-5.458-19.352 12.405s-2.109 46.643-3.473 51.109c-1.24 4.466-9.924 33.742-18.732 39.944 0 0-12.033 12.033-12.157 12.033-.124.124-23.197 5.086-23.197 5.086l-14.886 4.838-7.195 6.327-1.861 9.304 4.342 11.785 6.451 4.714 49.62 2.481 75.298-.62 83.61-2.109 43.542-.124 13.025-.124s-4.094 9.304 7.815 10.544c12.033 1.241 22.701-2.357 22.701-2.357l16.995-10.668 9.056-13.521-.992-11.164-5.83-10.42s-8.187-8.559-17.863-11.289c-9.678-2.359-139.186-63.516-139.186-63.516z"/><path fill="#9D706B" d="M150.322 256.704c.248-10.668.62-24.314 2.729-34.486.62-3.101 1.613-5.582 2.853-7.443l1.742-.235s2.486-4.953 4.594 11.67c1.24 9.18 2.843 20.942-1.251 35.084 10.544-1.365 18.111-5.086 23.073-8.435 1.737-13.77 2.712-14.427 2.712-14.427.62.744-1.843-11.871-1.347-11.003l-1.613-5.706s-4.838-13.397-21.089-11.909c-13.147.992-13.023 33.989-12.403 46.89z"/><path fill="#8A5D58" d="m191.011 246.656-.248-.868c0 .372 0 .744.124 1.116l.124-.248z"/><path fill="#E0BCA2" d="m185.428 227.304 5.334 18.483c-.496-5.954-1.86-12.777-5.334-18.483zM177.613 271.218l13.149-12.901s.62-4.962.124-11.537c-.62.744-2.853 3.349-6.823 6.078-.867 6.947-2.852 13.646-6.45 18.36z"/><path fill="#2D2D39" d="M177.613 271.218c9.676-9.067 14.089-12.617 22.127-15.717 16.109-6.213 33.502-1.898 33.819-1.898l.744-2.481c-.217-.109-18.369-4.796-35.381 1.747-11.845 4.556-18.13 12.849-21.309 18.349z"/><path fill="#F9FCF8" d="M347.314 304.711s1.241 40.192-43.666 53.59c-36.843 11.04-138.936 9.552-154.566-13.397s3.473-58.055 39.2-62.645c35.85-4.714 60.785 30.02 116.235 15.01 55.45-15.135 42.797 7.442 42.797 7.442z"/><path fill="#E0BCA2" d="M118.69 325.18c.868 0 3.047-1.182 4.039-1.43 15.258-4.466 30.074-34.173 38.262-62.456-3.225.372-6.575.496-10.296.372 0 0-.124-1.861-.248-4.962-.124 8.063-.248 14.514-.744 16.375-1.365 4.466-9.924 33.742-18.732 39.944-.249.124-11.537 11.412-12.281 12.157z"/><path fill="#9D706B" d="M368.402 340.934s14.638.496 30.268 18.111c0 0-16.995 21.585-38.456 19.352s-9.676-18.608-9.676-18.608l17.864-18.855z"/><path fill="#E0BCA2" d="M369.643 339.694s-51.109 28.407-94.03 28.159l71.577-1.737c.124 0 14.142-19.972 22.453-26.422z"/><path fill="#2D2D39" d="M155.781 370.706c72.941 0 173.918-2.357 190.789-2.853l.744-2.357c-87.174 2.098-212.581 3.841-253.27 1.629-8.161-.444-11.552-.288-15.512-3.594-2.765-2.308-5.15-6.253-5.731-12.99-.53-6.145 2.311-12.447 12.519-15.561 13.521-3.97 20.096-5.458 27.167-6.947 4.342-.992 14.39-6.078 14.39-6.078-6.203 1.613-10.668 2.605-15.01 3.473-7.071 1.489-13.646 2.977-27.291 6.947-11.456 3.369-14.952 10.872-14.403 18.212.542 7.244 3.056 11.649 6.054 14.332 4.56 4.081 9.047 4.098 17.165 4.612 13.732.87 36.255 1.175 62.389 1.175z"/><path fill="#2D2D39" d="M361.456 379.762c12.901 0 26.299-7.071 34.362-14.886 7.443-7.195 10.792-15.134 9.304-21.709-5.086-22.825-34.176-29.636-34.3-29.76l-5.046 1.476c.744.124 32.151 7.816 36.865 28.78 1.241 5.706-1.861 12.777-8.559 19.228-9.18 8.932-25.678 16.871-39.82 13.273-3.473-.868-5.458-2.481-5.954-4.59-1.737-8.187 21.461-32.005 21.461-32.005-2.729 2.109-26.299 21.213-23.942 32.501.744 3.225 3.349 5.458 7.815 6.575 2.479.869 5.209 1.117 7.814 1.117z"/><path fill="#8A5D58" d="M184.064 252.858c3.97-2.729 6.202-5.334 6.823-6.078 0-.372 0-.744-.124-1.116l-5.334-18.483a17.653 17.653 0 0 0-1.737-2.481c0 .123 2.109 14.389.372 28.158zM150.322 256.704v.124c.124 3.101.248 4.962.248 4.962 3.721.124 7.195-.124 10.42-.496 4.094-14.018 6.078-27.539 4.838-36.719-2.233-16.623-9.078-10.837-9.078-10.837l-.846 1.037c-1.24 1.861-2.233 4.342-2.853 7.443-2.108 10.048-2.605 23.694-2.729 34.486z"/><path fill="#2D2D39" d="M191.709 256.82c.744-10.544-.079-30.63-13.849-44.648-2.977-3.101-7.195-4.838-11.537-4.838h-.124c-4.094 0-7.939 1.613-10.792 4.59-.248.248-.62.62-.868.992-5.086 6.078-5.334 23.942-5.582 39.696-.124 7.815-.248 15.134-.992 19.476-2.108 13.644-17.367 47.758-34.113 53.092l1.116 1.613c18.483-5.83 33.494-40.812 35.726-54.21.744-4.59.868-12.033.992-19.972.248-14.638.496-32.749 4.962-38.083.248-.248.496-.62.744-.868 2.357-2.357 5.458-3.722 8.932-3.722 3.597 0 7.195 1.489 9.676 4.094 14.018 14.39 13.844 35.308 12.851 44.736l2.858-1.948z"/><path fill="#FDE7CF" d="M270.638 279.721s-4.411 5.274-4.411 12.221c-.124 6.947-3.709 26.281-3.709 26.281l-4.962 13.894-7.071 5.582-8.187-1.613-6.451-8.684-3.97-11.289-2.357-22.701-2.853-16.375-2.977-10.172 46.948 12.856z"/><path fill="#9D706B" d="M240.313 335.467c-.248-.124-.496-.372-.744-.62l.124.248s.248.124.62.372zM234.855 299.12c-2.131 4.714-.372 8.196 0 11.545 2.233 21.957 18.608 23.189 24.314 15.25 0 0-.248 4.59-2.853 8.187a30.765 30.765 0 0 1 1.365-.744l2.853-9.056 4.962-21.089c0 .001-11.413-10.047-30.641-4.093zM229.273 301.229l1.116 5.086a166.648 166.648 0 0 1-.372-5.458l-.744.372z"/><path fill="#E0BCA2" d="M243.663 337.327c-.124 0-2.357-1.241-3.349-1.861 1.365 1.116 2.977 1.861 4.714 2.233 5.83 1.24 9.304-.868 11.289-3.597-2.109 1.116-5.83 3.225-5.954 3.225h-6.7zM234.235 323.806l-3.846-17.367c.124 1.489.124 2.357.124 2.357s.744 18.608 9.056 26.051l-5.334-11.041zM224.527 269.368c1.737 3.846 4.87 21.937 5.49 31.489.952-.408 1.945-.283 2.822-.596.724-.258 1.343-.973 2.016-1.141-3.615-23.878-10.328-29.752-10.328-29.752z"/><path fill="#8A5D58" d="M230.017 300.857c.124 2.233.248 4.094.372 5.458l3.846 17.367 5.334 11.04c.248.248.496.372.744.62 1.116.62 3.225 1.737 3.349 1.861h6.575c.124 0 3.97-2.109 5.954-3.225 2.605-3.473 2.853-8.187 2.853-8.187-5.83 7.939-20.716 4.838-22.825-17.119-.372-3.473-.868-6.575-1.365-9.552-1.488.62-3.1.992-4.837 1.737z"/><path fill="#2D2D39" d="M266.426 289.16s-2.419 18.272-5.645 31.421c-1.391 5.564-3.43 10.588-6.507 13.506-4.858 4.606-10.529 2.306-12.845.263-8.559-7.443-10.172-30.02-11.04-42.177-1.99-19.91-5.102-20.894-6.575-23.817 3.199 8.58 3.96 23.963 3.97 24.065.868 13.397 2.481 35.85 11.909 43.914 4.947 3.958 11.571 4.285 16.405-.55 11.208-11.207 10.433-45.047 10.328-46.625z"/><g><path fill="#FDE7CF" d="M235.352 236.056c2.103-16.618 9.902-37.427 17.454-50.621l6.619-15.736c1.6-3.774.065 1.574-1.83-18.25-1.041-11.775-.925-26.165 3.932-36.902 5.88-12.888 13.647-23.903 23.053-34.598.073.107-.235-.299 3.731 4.884 9.091 7.811 22.125 24.022 30.339 42.015.329.893 1.304 2.352 1.289 2.489 23.739-.58 28.302-.529 28.302-.647.778.176 27.405 6.732 27.505 6.757.011-.1-.272.291 1.263-1.441 11.899-15.866 28.174-29.236 39.247-35.164 4.993-4.203 4.604-3.872 4.699-3.961 19.136 35.017 17.306 51.287 12.998 68.25-.952 4.23-4.216 14.481-8.14 23.04-.054.1-.214-.943 3.338 18.57 3.116 10.008 6.057 26.213 6.45 39.958.933 23.141-5.169 46.754-26.422 56.014-18.724 8.162-36.296 11.975-50.303 13.675-12.309 1.493-27.698 1.511-31.056.765-20.415-2.344-50.663-13.051-76.282-31.7-15.148-11.023-18.627-28.827-16.186-47.397z"/><path fill="#9D706B" d="M291.972 180.031c12.962-4.007 27.014-1.618 37.002 1.357a75.104 75.104 0 0 0 13.209 2.698c4.467.48 8.979.554 13.479.225 10.394-.744 24.63-.034 36.418 6.682 21.209 12.105 33.258 56.731 5.471 81.348-19.664 17.577-40.264 17.341-53.876 15.101-4.2-.67-8.403-1.221-12.625-1.684a259.788 259.788 0 0 0-12.691-1.088c-13.774-.759-33.937-4.986-49.331-26.402-21.802-30.046-.382-71.008 22.944-78.237z"/><path fill="#E0BCA2" d="m289.567 89.31.64.055s13.7 13.867 19.048 42.486l10.686-2.424s-21.105-43.461-30.374-40.117z"/><path fill="#F6B0A6" d="m259.821 119.734-3.017 18.997.978 15.679s15.53 2.243 16.827-15.02c0 0 3.486 4.32 3.838 4.119.262-.197 3.779-3.943 3.779-3.943l1.481-13.999 4.523-.438 7.33 5.77 4.909-1.642s1.093-9.611 1.072-9.974c-.026-.453-4.56-16.294-4.56-16.294l-9.74-17.82-2.699-4.304-12.37 14.433-12.351 24.436z"/><ellipse transform="rotate(-61.399 285.097 233.812)" fill="#F6B0A6" cx="285.096" cy="233.819" rx="8.808" ry="14.801"/><path fill="#2D2D39" d="M299.479 214.621c-.108 7.737 3.979 14.054 9.076 14.129s9.382-6.17 9.49-13.907-3.979-14.054-9.076-14.129c-5.188-.07-9.478 6.085-9.49 13.907z"/><path fill="#2D2D39" d="M291.524 207.432c1.17 6.209 8.455 7.98 13.676 5.41l-3.39-5.265c-2.712 3.519-7.708 3.62-10.286-.145z"/><path fill="#F9FCF8" d="M307.514 210.346c.633 3.147 2.766 5.482 4.745 5.097 1.984-.294 3.18-3.272 2.547-6.42-.633-3.147-2.766-5.482-4.745-5.097s-3.18 3.273-2.547 6.42z"/><path fill="#2D2D39" d="M261.652 165.754c-12.603-44.306 16.772-77.267 22.88-83.434 26.369 25.61 33.454 47.946 33.555 48.122l3.127-.996c-.328-.982-7.631-23.942-35.608-50.643l-1.059-1.031-1.116 1.154c-.433.388-41.146 37.89-24.067 90.582l2.288-3.754z"/><path fill="#2D2D39" d="M272.829 132.639c.736 6.028 3.519 14.033 8.394 11.712 2.446-1.776 2.829-6.254 3.293-10.918.154-2.101.498-5.667 1.086-6.519.821.044 2.52 1.131 3.84 1.965 3.397 2.172 8.11 5.089 11.808 1.332 5.585-5.773-1.414-29.647-14.97-50.616l-3.099 1.345c13.954 21.583 19.1 43.392 15.578 47.048-1.721 1.734-4.16.417-7.743-1.835-2.268-1.509-4.249-2.761-6.142-2.472-2.976.441-3.375 4.647-3.828 9.493-.412 4.594-.907 6.758-1.32 7.764-.276.671-.537 1.465-2.016-.014-1.585-1.585-3.631-5.079-4.881-8.285zM206.123 197.784c17.554 2.833 35.247 10.353 51.167 21.749 0 0-12.339-5.455-25.631-10.964-9.472-3.925-25.536-10.785-25.536-10.785zM195.219 214.667c17.781.021 36.441 4.649 53.963 13.384 0 0-13.046-3.435-27.042-6.772-9.974-2.379-26.921-6.612-26.921-6.612zM196.256 239.074c17.219-4.438 36.443-4.637 55.595-.575 0 0-13.491-.054-27.877.225-10.25.198-27.718.35-27.718.35z"/><path fill="#FFFAF5" d="M392.525 144.138c-11.223-6.446-37.742-24.835-90.865-9.939 0 0 .018.002.046-.004 53.856-4.919 90.919 9.955 90.819 9.943z"/><path fill="#E0BCA2" d="m375.725 135.535 9.908 4.679c11.415-26.783 27.791-37.357 27.791-37.357l.636.085c-8.325-5.271-38.335 32.593-38.335 32.593zM430.749 277.813c-15.763 8.968-53.104 27.839-101.231 21.992l-.006-.001-.006-.001c-48.153-4.697-80.506-31.098-94.074-43.377a.426.426 0 0 0-.076-.072c1.687 10.461 6.505 20.096 16.187 27.194 16.759 12.203 33.341 19.774 46.75 24.448a.13.13 0 0 1 .061.025c16.15 5.613 27.703 7.016 29.461 7.218h.003l.006.001h.003c1.76.184 13.343 1.314 30.324-.671.019-.007.038-.014.065-.011 14.103-1.662 31.93-5.465 50.933-13.752 10.989-4.835 17.778-13.199 21.688-23.047-.029.015-.058.03-.088.054z"/><path fill="#F6B0A6" d="m429.749 112.551-8.954-16.768-3.567 3.618-13.365 15.29s-7.855 14.484-7.978 14.921c-.099.35-1.111 9.97-1.111 9.97l4.438 2.666 8.404-4.047 4.321 1.406-1.583 13.988s2.623 4.418 2.836 4.667c.3.273 4.658-3.106 4.658-3.106-2.47 17.134 13.158 18.221 13.158 18.221l4.348-15.095 1.165-19.2-6.77-26.531z"/><ellipse transform="rotate(-16.104 387.148 245.018)" fill="#F6B0A6" cx="387.124" cy="245.01" rx="14.8" ry="8.808"/><path fill="#2D2D39" d="M371.01 207.508c-4.993-1.03-10.349 4.253-11.918 11.83s1.263 14.601 6.256 15.631 10.349-4.253 11.918-11.83c1.681-7.64-1.175-14.577-6.256-15.631z"/><path fill="#2D2D39" d="m376.516 215.757-4.449 4.407c4.541 3.638 12.036 3.486 14.522-2.323-3.331 3.118-8.187 1.938-10.073-2.084z"/><path fill="#F9FCF8" d="M369.25 210.408c-1.849-.804-4.437 1.014-5.736 3.95-1.299 2.936-.776 6.102 1.097 6.819 1.849.804 4.437-1.014 5.736-3.95s.752-6.015-1.097-6.819z"/><path fill="#2D2D39" d="m421.457 92.762-1.257.778c-33.092 20.014-45.19 40.85-45.723 41.738l2.837 1.649c.137-.15 11.887-20.424 43.174-39.721 4.629 7.342 26.296 45.617 4.404 86.146-.347.563-.719 1.212-1.003 1.887.215.91.406 1.907.572 2.991l1.038.67c.211-.412.508-.8.694-1.125 28.077-47.748-3.557-93.171-3.895-93.644l-.841-1.369z"/><path fill="#2D2D39" d="M412.535 155.661c-.218-.992-.274-3.194.354-8.05.606-4.829 1.127-9.022-1.683-10.097-1.786-.692-3.991.102-6.532 1.084-3.986 1.424-6.653 2.182-7.957.116-2.647-4.331 7.095-24.51 25.39-42.562l-2.678-1.909c-17.772 17.539-29.827 39.259-25.624 46.103 2.798 4.468 8.03 2.64 11.816 1.254 1.47-.529 3.363-1.222 4.174-1.088.39.959-.046 4.515-.35 6.599-.568 4.746-1.745 12.807 3.725 12.559 4.128-.252 7.856-10.805 7.856-10.805-1.957 2.922-4.79 5.959-6.681 7.11-1.409.857-1.64.459-1.81-.314zM307.923 240.807l.119 2.166c0 .001.006.172.014.267l.041.637c.124 2.228 1.246 13.404 11.197 14.596 4.854.584 9.843-1.491 13.04-5.447.222-.298.445-.612.66-.925-4.801-2.973-10.508-7.144-11.126-10.485-.153-.834.016-1.579.508-2.22 1.91-2.422 8.717-2.621 13.98-2.055 5.248.584 11.852 2.252 13.193 5.033.34.728.345 1.493.014 2.274-1.389 3.28-8.682 6.272-13.131 7.828.142.353.291.706.438 1.035 2.27 4.566 6.68 7.656 11.559 8.152 9.971.99 13.487-9.678 14.09-11.829l.179-.619c.027-.083.07-.249.072-.255l.584-2.083 7.175 4.863-5.337-.675c-1.219 3.805-5.732 14.722-17.041 13.537l-.061-.014c-5.806-.691-11.038-4.407-13.664-9.671-3.738 4.583-9.635 7.065-15.408 6.486l-.125-.003c-11.265-1.289-13.308-12.923-13.674-16.902l-5.357-.495 8.061-3.196zM331.88 278.177c3.896.353 7.91-.368 11.764-2.046-5.778 7.858-18.866 6.425-22.807-2.497 3.4 2.472 7.163 4.044 11.043 4.543zM301.678 134.188c23.912-10.144 41.403-7.794 46.213-7.298 25.667 2.648 44.707 17.29 44.607 17.244-27.375-10.678-32.299-12.723-45.063-13.982-12.113-1.195-17.72-.287-45.73 4.041-.028.006-.046.004-.046.004.009-.001.01-.01.019-.009zM472.054 226.903c-17.751-1.033-36.653 2.481-54.661 10.162 0 0 13.227-2.656 27.396-5.158 10.097-1.783 27.265-5.004 27.265-5.004zM479.046 245.744c-17.365-3.827-36.584-3.347-55.58 1.389 0 0 13.481-.53 27.867-.76 10.252-.163 27.713-.629 27.713-.629zM472.752 269.349c-15.85-8.059-34.576-12.413-54.153-12.591 0 0 13.183 2.867 27.168 6.252 9.965 2.411 26.985 6.339 26.985 6.339z"/><path fill="#3D3D44" d="M325.632 239.611c.097-.556 2.776-.746 6.565-.56l.027.003c1.205.059 2.524.158 3.903.282l.006.001h.006c1.374.178 2.683.367 3.872.57l.027.003c3.739.638 6.314 1.404 6.288 1.967-.045.826-4.706.909-10.5.312l-.006-.001-.006-.001c-5.784-.67-10.317-1.76-10.182-2.576z"/><path fill="#2D2D39" d="M259.354 169.327c1.205-2.13 5.316-9.273 8.482-14.032-.44 1.019-5.826 12.212-6.885 14.942-3.799 8.4-8.713 19.592-13.506 31.323-5.823 14.427-10.732 30.529-11.255 45.383-1.493 41.189 64.185 70.254 118.416 66.11 31.787-2.426 71.618-12.928 77.456-44.662 2.703-14.615 1.395-31.399-1.168-46.744-2.141-12.49-4.517-24.48-6.408-33.503a38.027 38.027 0 0 0-.572-2.991c-1.649-7.54-2.802-12.488-2.916-13.086.327.847 1.901 4.97 3.895 11.286.466 1.358.908 2.803 1.35 4.248 5.896 19.586 14.09 53.781 9.064 81.327-8.056 43.758-78.536 47.601-80.281 47.736-55.16 4.256-123.692-26.339-122.12-69.898 1.054-27.981 16.453-59.594 26.448-77.439z"/><g><path fill="#2D2D39" d="m342.082 262.504-2.921-1.817-3.869-3.419-.455-1.547-.493-.054-.493-.054-.779 1.412-4.517 2.5-3.245 1.142-2.233-.12.096.26c.205.634.558 1.746 1.145 2.996.164.33.327.66.514 1.005.209.372.429.758.687 1.136 1.408 2.188 3.553 4.245 6.698 4.589l.493.054.493.054c3.145.344 5.685-1.199 7.532-3.031.334-.313.632-.642.916-.96.257-.296.488-.583.719-.87.843-1.093 1.428-2.102 1.766-2.677l.15-.233-2.204-.366z"/><path fill="#F9A9A0" d="M341.582 266.614c-.012-.001-.011-.014-.023-.015-1.072-.579-3.929-1.953-8.148-2.402-4.216-.474-7.303.249-8.475.582-.012-.001-.014.011-.026.01h-.001l.001.003.61 1.152.947 1.838 2.963 2.571 3.208.9 3.327-.185 3.449-1.869 1.322-1.59.845-.993.001-.002z"/><path fill="#2D2D39" d="m336.944 256.139-.627-2.254-3.512-.385c-1.385 2.6-.304 1.615-5.076 4.311-3.319 1.229-1.762 1.007-7.007.823l.573 2.038c3.355 12.411 16.927 17.574 24.706 2.704l1-1.866c-5.337-.985-4.371-.259-10.057-5.371zm-12.477 5.484c1.36.068.465.246 4.426-1.147 5.726-3.057 4.874-2.457 5.274-3.181.233.791-.461.028 4.353 4.168 3.7 2.314 2.838 1.928 4.181 2.156-6.112 9.619-15.024 6.934-18.234-1.996z"/></g><g><path fill="#64A7E2" d="M425.75 190.177c-48.992-18.749-114.444-25.952-166.473-18.228-3.854 9.184-1.585 3.784-7.602 18.136 55.785-5.264 123.817 2.094 177.571 19.444-3.45-19.108-1.694-9.4-3.496-19.352z"/><path fill="#FFF" d="M255.139 184.45c29.011-3.849 59.745-2.459 86.903.926 27.247 2.572 57.522 7.855 85.013 17.891l-1.376-7.924c-27.223-9.632-56.565-14.8-82.833-17.315-26.19-3.229-56.161-4.515-84.823-1.002l-2.884 7.424z"/><path fill="#2D2D39" d="M426.707 189.407c-6.221-1.971-34.077-13.943-83.015-19.111-49.788-5.644-81.025.324-85.184.694-4.934 11.864.577-1.389-8.475 20.412 55.874-5.723 127.163 2.073 180.53 19.767-.018-.104-3.421-19.316-3.856-21.762zm-173.142-.613c4.222-10.168 2.847-6.812 6.605-15.875 50.199-7.306 115.581-.55 164.499 18.012 1.877 10.615.978 5.44 3.013 16.928-52.046-16.532-118.974-24.011-174.117-19.065z"/></g></g></svg>