<svg id="Layer_1" height="512" viewBox="0 0 150 150" width="512" xmlns="http://www.w3.org/2000/svg" data-name="Layer 1"><path d="m29.479 80.876s2.361 4.813 4.423 5.183c0 0 .022-5.653 2.191-6.589" fill="#f2f2f2"/><path d="m33.9 87.059a.952.952 0 0 1 -.176-.016c-2.438-.437-4.713-4.846-5.145-5.726a1 1 0 1 1 1.8-.881 16.45 16.45 0 0 0 2.618 3.9c.2-2 .81-4.968 2.7-5.785a1 1 0 1 1 .793 1.836c-1.019.44-1.576 3.578-1.587 5.675a1 1 0 0 1 -1 1z" fill="#4d4d4d"/><path d="m48.378 107.911s-1.578-5.172-.485-7.561c0 0 3.572 5.077 5.712 3.74" fill="#f2f2f2"/><path d="m48.377 108.911a1 1 0 0 1 -.955-.708c-.173-.567-1.654-5.611-.438-8.269a1 1 0 0 1 1.726-.16c1.433 2.032 3.607 3.94 4.364 3.468a1 1 0 1 1 1.061 1.695c-1.9 1.188-4.156-.632-5.624-2.231a19.641 19.641 0 0 0 .824 4.913 1 1 0 0 1 -.666 1.248.985.985 0 0 1 -.292.044z" fill="#4d4d4d"/><path d="m27.805 81.213s26.575-4.9 27.141 5.849-2.788 18.257-6.769 21.385 31.66-8.374 31.66-8.374l-4.337-38.28-52.273 9.907z" fill="#f8c7c1"/><path d="m48.254 109.971c-.924 0-1.08-.294-1.259-.629s-.331-.977.564-1.68c3.308-2.6 6.966-9.543 6.387-20.547a4.458 4.458 0 0 0 -1.812-3.422c-6.036-4.765-23.969-1.53-24.148-1.5a1 1 0 0 1 -1.083-.55l-4.577-9.508a1 1 0 0 1 .715-1.416l52.273-9.911a1 1 0 0 1 1.179.87l4.337 38.282a1 1 0 0 1 -.685 1.064c-.079.025-7.919 2.554-15.743 4.891-10.559 3.156-14.53 4.056-16.148 4.056zm-8.1-30.871c4.983 0 10.228.667 13.217 3.026a6.436 6.436 0 0 1 2.573 4.887c.531 10.084-2.268 16.987-5.511 20.662 5-1.078 17.15-4.708 28.318-8.3l-4.123-36.4-49.935 9.47 3.686 7.655a77.209 77.209 0 0 1 11.775-1z" fill="#4d4d4d"/><path d="m136.719 78.327-33.956 43.441-15.2-24.347s-23.452 13.379-30.509 16.246-11.493-3.131-8.872-5.219 13.058-8.883 15.929-16.711a13.4 13.4 0 0 0 -7.579-17.245c-5.264-1.974-17.154 3.143-25.039 5.752-3.04 1.01-5.479 1.646-6.716 1.351-4.436-1.056-7.045-7.84-3.653-13.07 1.876-2.87 7.851-4.325 12.854-5.049 3.823-.544 14.431-14.147 16.087-17.641a19.457 19.457 0 0 1 1.509-2.621c5.2-7.7 17.165-15.168 33.7-13.648 22.719 2.099 51.445 48.761 51.445 48.761z" fill="#f5d8af"/><path d="m50.055 54.986c-2.735 6.047-7.536 6.64-10.27 10.815s.986 5.326-8.292 14.443c-3.04 1.01-5.479 1.646-6.716 1.351-4.436-1.056-7.045-7.84-3.653-13.07 1.876-2.87 7.851-4.325 12.854-5.049 3.823-.544 14.431-14.147 16.087-17.641a19.457 19.457 0 0 1 1.509-2.621 20.836 20.836 0 0 1 -1.519 11.772z" fill="#f2f2f2"/><path d="m102.766 122.768a1 1 0 0 1 -.85-.471l-14.7-23.536c-4.3 2.446-23.421 13.245-29.781 15.836-4.748 1.936-8.825.235-10.4-2.445a3.327 3.327 0 0 1 .515-4.486c.378-.3.916-.7 1.57-1.184 3.793-2.809 11.686-8.651 14.049-15.095a12.41 12.41 0 0 0 -6.985-15.957c-3.943-1.481-12.634 1.614-19.617 4.1-6.137 2.188-10 3.5-12.016 3.03a7.839 7.839 0 0 1 -5.232-4.909 10.554 10.554 0 0 1 .965-9.669c1.684-2.589 6.243-4.438 13.553-5.494 3.134-.453 13.512-13.267 15.326-17.085 4.418-9.3 17.631-18.536 36.194-16.831 9.7.891 21.446 9.474 34.924 25.511a226.725 226.725 0 0 1 17.295 23.717 1 1 0 1 1 -1.7 1.049c-.285-.462-28.734-46.262-50.7-48.28-12.736-1.169-28.576 3.843-34.206 15.694-1.438 3.027-12.326 17.554-16.847 18.206-6.525.945-10.845 2.58-12.161 4.606a8.552 8.552 0 0 0 -.786 7.834 5.853 5.853 0 0 0 3.834 3.707c1.535.368 6.293-1.33 10.886-2.967 7.669-2.733 16.362-5.83 20.991-4.092a14.418 14.418 0 0 1 8.161 18.52c-2.568 7-10.786 13.088-14.735 16.012-.63.466-1.148.849-1.511 1.14-.734.586-.216 1.61-.039 1.91.919 1.568 3.786 3.287 7.918 1.607 6.91-2.816 30.145-16.064 30.379-16.2a1 1 0 0 1 1.344.339l15.209 24.351a1 1 0 0 1 -.847 1.529z" fill="#4d4d4d"/><path d="m73.807 62.133c4.764 4.884 10.61 9.045 12.816 16.088 1.5 4.793 1.048 10.207 1.9 15.249s3.867 10.279 8.249 10.092c4.657-.2 10.048-1.491 11.9-11.268 3.127-16.525 7.121-31.472 3.556-43.643s-7.21-18.6-18.078-20.315c-3.673-.579-17.706 1.182-21.008 3.4-10.521 7.058-6.283 23.276.665 30.397z" fill="#f5d8af"/><g fill="#4d4d4d"><path d="m96.531 104.567c-4.916 0-8.1-5.616-9-10.931a61.628 61.628 0 0 1 -.612-6.255 37.6 37.6 0 0 0 -1.251-8.861c-1.651-5.272-5.393-8.81-9.354-12.557-1.072-1.013-2.179-2.061-3.224-3.131a27.273 27.273 0 0 1 -7.185-20.414 15.251 15.251 0 0 1 6.672-11.512c3.739-2.512 18.065-4.131 21.722-3.559 11.275 1.776 15.2 8.474 18.882 21.023 3.119 10.649.558 23.48-2.152 37.065-.462 2.313-.93 4.663-1.381 7.045-1.95 10.3-7.885 11.869-12.838 12.081-.093.004-.186.006-.279.006zm-22.008-43.132c1.016 1.042 2.109 2.075 3.167 3.075 3.972 3.758 8.081 7.644 9.887 13.412a39.563 39.563 0 0 1 1.339 9.332 59.6 59.6 0 0 0 .589 6.05c.794 4.721 3.535 9.454 7.22 9.259 4.7-.2 9.285-1.606 10.959-10.454.452-2.39.922-4.746 1.384-7.066 2.662-13.336 5.175-25.933 2.194-36.111-3.514-12-7-17.99-17.273-19.608-3.539-.558-17.294 1.225-20.3 3.242a13.308 13.308 0 0 0 -5.8 10.058c-.74 7.132 2.774 14.862 6.627 18.811z"/><path d="m25.32 63.705-1.959.031c-7.335 1.879-6.056 11.477-2.233 12.058 1.905.289 2.836-1.482 4.061-3.25l1.533-2.211c2.307-3.333 2.591-6.691-1.402-6.628z"/><path d="m21.545 76.827a3.748 3.748 0 0 1 -.567-.045c-2.153-.327-3.762-2.685-3.914-5.733a7.865 7.865 0 0 1 6.048-8.282 1.021 1.021 0 0 1 .233-.031l1.959-.031c2.251-.051 3.281.924 3.714 1.737.831 1.556.293 3.911-1.474 6.46l-1.926 2.789c-.996 1.477-2.118 3.136-4.073 3.136zm1.955-12.093a5.851 5.851 0 0 0 -4.437 6.215c.1 2.021 1.054 3.679 2.217 3.856.968.139 1.56-.567 2.682-2.232l1.94-2.81c1.44-2.078 1.717-3.7 1.354-4.379-.311-.581-1.2-.714-1.919-.679z"/></g><path d="m55.579 57.357c1.787-.143 3.634.117 5.592 0" fill="#f5d8af"/><path d="m60.045 58.388c-.579 0-1.143-.019-1.7-.039a23.656 23.656 0 0 0 -2.692.005 1 1 0 0 1 -.153-1.994 26.335 26.335 0 0 1 2.919-.01c.878.031 1.787.063 2.692.009a.986.986 0 0 1 1.058.938 1 1 0 0 1 -.938 1.058c-.403.024-.798.033-1.186.033z" fill="#4d4d4d"/><path d="m22.864 98.611h-9.014a1 1 0 1 1 0-2h9.014a1 1 0 1 1 0 2z" fill="#4d4d4d"/><path d="m23.438 105.133-10.163 4.504" fill="#f5d8af"/><path d="m13.276 110.636a1 1 0 0 1 -.406-1.914l10.162-4.5a1 1 0 1 1 .811 1.828l-10.162 4.5a.99.99 0 0 1 -.405.086z" fill="#4d4d4d"/><path d="m27.82 111.272-4.814 7.889" fill="#f5d8af"/><path d="m23.005 120.161a.989.989 0 0 1 -.52-.147 1 1 0 0 1 -.333-1.374l4.814-7.889a1 1 0 1 1 1.707 1.041l-4.814 7.889a1 1 0 0 1 -.854.48z" fill="#4d4d4d"/></svg>