<svg id="Layer_1" height="512" viewBox="0 0 150 150" width="512" xmlns="http://www.w3.org/2000/svg" data-name="Layer 1"><path d="m14.968 78.114 6.387 9.521-5.234 1.835 10.47 2.273a24.775 24.775 0 0 0 -10.786 6.827l10.451-1.113a24.87 24.87 0 0 0 -6.144 6.91 10.775 10.775 0 0 1 8.288 1.933 14.862 14.862 0 0 0 -9.253 3.978c6.859.562 9.894-.2 17.572 4.74-.021 2.594-1.661 3.005-2.854 5.309 4.916-.853 13.836-2.583 18.752-3.436a8.843 8.843 0 0 0 3.485-1.121c2.381-1.6 2.635-5 2.182-7.83a27.321 27.321 0 0 0 -15.897-20.24c-3.964-1.726-8.221-1.588-12.376-2.621a43.816 43.816 0 0 1 -15.043-6.965z" fill="#94ca81"/><path d="m33.864 121.329a1 1 0 0 1 -.888-1.46 11.049 11.049 0 0 1 1.535-2.181 3.88 3.88 0 0 0 1.172-2.141c-5.82-3.651-8.7-3.807-13.392-4.063-.992-.054-2.054-.111-3.226-.207a1 1 0 0 1 -.6-1.726 15.979 15.979 0 0 1 6.866-3.769 9.766 9.766 0 0 0 -5.034-.431 1 1 0 0 1 -1.04-1.5 25.683 25.683 0 0 1 3.967-5.068l-7.308.779a1 1 0 0 1 -.842-1.672 25.678 25.678 0 0 1 8.054-5.88l-7.216-1.566a1 1 0 0 1 -.118-1.921l4.015-1.407-5.672-8.446a1 1 0 0 1 1.416-1.37 43.08 43.08 0 0 0 14.7 6.805 45.664 45.664 0 0 0 4.7.822 29.265 29.265 0 0 1 7.836 1.852 28.441 28.441 0 0 1 16.483 21c.65 4.055-.3 7.269-2.612 8.818a9.655 9.655 0 0 1 -3.871 1.276c-2.455.426-5.91 1.071-9.364 1.716s-6.927 1.293-9.388 1.72a1 1 0 0 1 -.173.02zm-12.031-11.872.567.03c4.8.262 8.259.45 14.858 4.692a1 1 0 0 1 .46.849 5.476 5.476 0 0 1 -1.627 3.889c2.088-.378 4.526-.834 6.965-1.29 3.464-.646 6.927-1.293 9.389-1.719a8.06 8.06 0 0 0 3.1-.966c2.321-1.557 2-5.3 1.751-6.842a26.4 26.4 0 0 0 -15.308-19.484 27.261 27.261 0 0 0 -7.313-1.7 46.975 46.975 0 0 1 -4.9-.862 45.229 45.229 0 0 1 -11.3-4.507l3.713 5.537a1 1 0 0 1 -.5 1.5l-1.894.664 7.006 1.517a1 1 0 0 1 .086 1.933 23.644 23.644 0 0 0 -8.286 4.569l7.548-.8a1 1 0 0 1 .716 1.787 24.053 24.053 0 0 0 -4.789 4.951 11.847 11.847 0 0 1 6.925 2.295 1 1 0 0 1 -.541 1.8 13.937 13.937 0 0 0 -6.626 2.157z" fill="#4d4d4d"/><path d="m77.452 39.491-10.439-3.91a18.446 18.446 0 0 1 6.026 6.1 24.359 24.359 0 0 0 -16.666 1.589 25.144 25.144 0 0 1 15.885 16.13c3.088 9.9 9.924-4.9 10.829-8.982 1.515-6.834-4.029-12.884-6.768-18.7a13.549 13.549 0 0 0 1.133 7.773z" fill="#94ca81"/><path d="m75.021 63.747c-1.628 0-2.878-1.363-3.717-4.053a24.085 24.085 0 0 0 -15.243-15.474 1 1 0 0 1 -.123-1.85 25.546 25.546 0 0 1 14.823-2.185 17.444 17.444 0 0 0 -4.276-3.754 1 1 0 0 1 .878-1.786l8.389 3.142a13.849 13.849 0 0 1 -.418-6.248 1 1 0 0 1 1.89-.252c.7 1.48 1.576 2.967 2.506 4.543 2.722 4.606 5.537 9.37 4.332 14.8-.482 2.181-4.5 12.927-8.916 13.114zm-15.969-20.511a26.176 26.176 0 0 1 14.161 15.864c.533 1.71 1.2 2.708 1.849 2.648 2.257-.095 6.257-7.978 7.048-11.548 1.033-4.66-1.577-9.078-4.1-13.351q-.342-.577-.685-1.164a13.6 13.6 0 0 0 1.038 3.393 1 1 0 0 1 -1.263 1.349l-5.145-1.927a19.231 19.231 0 0 1 1.939 2.663 1 1 0 0 1 -1.112 1.484 23.516 23.516 0 0 0 -13.73.589z" fill="#4d4d4d"/><path d="m106.694 104.715a19.723 19.723 0 0 1 16.264 1.212 19.986 19.986 0 0 0 -9.356 1.61 6.485 6.485 0 0 1 4.955 4.28l-7.724-.045a11.79 11.79 0 0 0 4.807 9.034 72.02 72.02 0 0 0 -9.988-2.856l5.184 7.91a14.527 14.527 0 0 0 -9.159-2.728 44.508 44.508 0 0 0 8.66 11.846 38.561 38.561 0 0 0 -18.582-6.478l2.273 2.357a43.482 43.482 0 0 1 -9.825-1.208l2.409 7.5a25.49 25.49 0 0 1 -9.466-10.629 7.619 7.619 0 0 1 -.923-4.82 8.928 8.928 0 0 1 2.642-3.982 63.852 63.852 0 0 1 10.283-9.216c3.842-2.551 8.4-4.276 13-3.976" fill="#94ca81"/><path d="m86.612 138.152a1 1 0 0 1 -.53-.152 26.642 26.642 0 0 1 -9.84-11.048 8.549 8.549 0 0 1 -1-5.467 9.815 9.815 0 0 1 2.9-4.458 64.758 64.758 0 0 1 10.449-9.356c3.147-2.088 8.051-4.5 13.617-4.139a1 1 0 0 1 -.131 2c-4.985-.312-9.489 1.892-12.379 3.809a63.23 63.23 0 0 0 -10.116 9.079 8.174 8.174 0 0 0 -2.386 3.506 6.78 6.78 0 0 0 .85 4.173 24.663 24.663 0 0 0 6.688 8.488l-1.486-4.628a1 1 0 0 1 .219-.987.991.991 0 0 1 .967-.291 42.429 42.429 0 0 0 7.15 1.089l-.551-.571a1 1 0 0 1 .8-1.692 39.4 39.4 0 0 1 13.706 3.6 45.264 45.264 0 0 1 -4.753-7.526 1 1 0 0 1 .844-1.448 15.52 15.52 0 0 1 6.217.988l-3.03-4.623a1 1 0 0 1 1.042-1.527c2.095.439 4.182.973 6.239 1.6a12.794 12.794 0 0 1 -2.263-6.763 1 1 0 0 1 1-1.032h.006l6.109.035a5.488 5.488 0 0 0 -3.515-2.285 1 1 0 0 1 -.23-1.9 20.98 20.98 0 0 1 5.12-1.489 18.7 18.7 0 0 0 -11.278.52 1 1 0 0 1 -.7-1.873 20.7 20.7 0 0 1 17.1 1.274 1 1 0 0 1 .472 1.159.982.982 0 0 1 -1.028.712 19.026 19.026 0 0 0 -6.469.668 7.489 7.489 0 0 1 3.088 3.914 1 1 0 0 1 -.142.9 1.139 1.139 0 0 1 -.814.411l-6.631-.039a10.857 10.857 0 0 0 4.303 7.217 1 1 0 0 1 -.929 1.75 71.045 71.045 0 0 0 -7.45-2.27l3.825 5.837a1 1 0 0 1 -1.424 1.357 13.444 13.444 0 0 0 -6.905-2.518 43.283 43.283 0 0 0 7.692 10.111 1 1 0 0 1 -1.259 1.544 37.409 37.409 0 0 0 -15.372-6l.344.357a1 1 0 0 1 .2 1.088.938.938 0 0 1 -.927.606 44.6 44.6 0 0 1 -8.334-.862l1.877 5.846a1 1 0 0 1 -.952 1.306z" fill="#4d4d4d"/><path d="m121.95 78.325a21.16 21.16 0 0 1 12.083-8.889l-11.145 1.321a44.777 44.777 0 0 1 7.242-8.7c-3.32.436-12.774 4.652-15.172 6.99-1.933.014 1.279 6.313-1.185 16.979 6.119-2.666 15.14-6.063 21.259-8.729z" fill="#94ca81"/><path d="m130.084 32.471c-.977-4.992-5.985-9.461-5.985-9.461l-4.121-3.677s-5.008-4.468-10.079-4.872-13.699 6.227-16.389 11.711a40.194 40.194 0 0 0 -3.769 12.262c-.2 1.09-6.508 6.472-7.677 7.816l20.755 11.235c1.2-1.314 8.789.4 9.849.067 3.281-1.014 2.5-4.176 7.641-7.469s10.752-12.62 9.775-17.612z" fill="#f1d7ad"/><path d="m110.5 97.366c-8.8 17.158-13.982 34.693-47.493 28.368 0 0-16.275 22.429-39.863 3.565 0 0-7.22-9.542 1.467-15.913 0 0 2.107 14.929 13.332 14.457a12.725 12.725 0 0 0 12.585-10.659l4.512-4.144c-.431.279-6.788 4.046-12.319-5.847 0 0-3.739 6.571-8.539 2.014a8.642 8.642 0 0 1 -2.585-6.476c.124-6.292.607-20.92 2.522-25.269 2.46-5.582 11.74-3.062 11.623 2.652s-.377 8.7-.377 8.7 9.069-14.446 15.79 3.759c-.687-3.29-.116-8.753 10.606-9.658l-.254-10.175s-4.71 1.573-5.055-11.965c-.015-.464-.026-.949-.031-1.465-.085 1.292-1.362 18.894-8.8 17.084-7.736-1.869-1.322-18.826.351-23.9s7.723-9.94 14.416-2.873l1.823 6.1a120.4 120.4 0 0 1 10.256-11.8l.03.4 26.1 12.254 5.732 3.315s2.982 20.32-5.829 37.476z" fill="#f5d8af"/><path d="m100.913 57.938-.1-.02s-1.922.316-4.4 2.879a11.3 11.3 0 0 0 -2.613 5.053c.761 2.811-2.26 7.149-2.121 10.061s1.38 9.024 1.765 9.1c1.184.236-6.195 3.041-7.369 3.334-3.017.773-7.6 4.513-8.71 7.435a20.259 20.259 0 0 1 -4.581 7.775c-2.618 3.137-6.762 11.231-5 14.918 1.45 3.012 6.287-1.94 5.771 1.358-.3 1.945-2.166 3.344-4.09 3.745-2.349.477-4.8-.2-7.115-.644a9.745 9.745 0 0 1 -3.808-1.545c-4.523-3.181-.82-6.922-1.73-10.342-.891-3.34-5.226-4.084-8-6.168a8.326 8.326 0 0 1 4.8-14.962c1.636 1.108 2.084 3.278 3.089 4.968s3.64 2.889 4.822 1.312a2.38 2.38 0 0 0 .438-1.179v-.02-.01c.074-.64-1.054-3.261-1.011-3.907.157-2.843.938-5.07 3.3-6.67s7.576-1.809 7.576-1.809c.1-.488.034-10.559.034-10.559-.94 2.555-3.779-.5-4.192-2.793-.443-2.469-.862-5.991-1.216-8.474-.264-1.8 2.946-1.334 1.383-2.267s-2.991-3.028-1.817-4.4c1-1.173 5.7-3.8 6.876-2.794s-.13 3.681 1.349 4.114a12.159 12.159 0 0 0 2.119-2.444c1.081-1.608 3.579-3.386 4.319-5.169.724-1.755 1.762-1.951 3.334-3.708 17.592-5.573 18.447 1.29 18.554 8.708a2.716 2.716 0 0 1 -1.656 5.124z" fill="#f2f2f2"/><g fill="#4d4d4d"><path d="m58.677 77.527a5.458 5.458 0 0 1 -1.291-.161 5.211 5.211 0 0 1 -3.467-2.646c-2.813-5.113.9-16.026 2.677-21.27.163-.478.307-.9.427-1.268 1.171-3.523 3.908-6.239 6.973-6.921 2.126-.471 5.434-.219 9.119 3.673a.993.993 0 0 1 .232.4l1.267 4.239c2.683-3.4 9.43-11.658 15.758-17.034a1 1 0 1 1 1.3 1.523c-7.927 6.732-16.572 18.147-16.662 18.262a1 1 0 0 1 -1.756-.317l-1.754-5.867c-2.357-2.42-4.8-3.427-7.07-2.927-2.722.606-4.727 3.247-5.508 5.6-.121.367-.268.8-.432 1.282-1.558 4.585-5.207 15.323-2.818 19.663a3.239 3.239 0 0 0 2.185 1.666 2.957 2.957 0 0 0 2.585-.509c3.277-2.406 4.673-10.981 4.981-15.668a1 1 0 0 1 2 .13c-.149 2.263-1.128 13.725-5.794 17.15a4.893 4.893 0 0 1 -2.952 1z"/><path d="m61.989 96.064a1 1 0 0 1 -.89-.541 11.045 11.045 0 0 1 -.927-2.759 7.927 7.927 0 0 1 1.218-6.533c1.7-2.284 4.844-3.7 9.346-4.221l-.2-8.26a3.557 3.557 0 0 1 -1.441-.61c-2.246-1.575-3.47-5.726-3.639-12.34-.015-.464-.026-.956-.031-1.48a.887.887 0 0 1 .007-.126.943.943 0 0 1 .022-.18 1 1 0 0 1 1.971.13.972.972 0 0 1 0 .247c.005.475.015.922.029 1.352.2 7.668 1.787 10 2.719 10.709a1.311 1.311 0 0 0 1.053.329 1.041 1.041 0 0 1 .869.169 1.009 1.009 0 0 1 .414.765l.252 10.174a1 1 0 0 1 -.915 1.021c-4.41.372-7.388 1.555-8.849 3.516a6.091 6.091 0 0 0 -.862 4.941 9.231 9.231 0 0 0 .744 2.238 1 1 0 0 1 -.887 1.459z"/><path d="m51.563 114.975a7.925 7.925 0 0 1 -1.924-.236c-2.613-.648-4.96-2.571-6.993-5.724a7.326 7.326 0 0 1 -4.306 2.749 5.726 5.726 0 0 1 -4.849-1.831 9.651 9.651 0 0 1 -2.9-7.223c.152-7.713.693-21.3 2.607-25.652 1.277-2.9 4.31-4.283 7.728-3.524 2.85.63 5.884 2.965 5.81 6.6-.052 2.322-.123 4.189-.19 5.593 1.647-1.718 4.158-3.6 7.013-3.32 3.384.351 6.253 3.654 8.528 9.817.3.815.577 1.653.838 2.5a1 1 0 0 1 -1.764.924 1.094 1.094 0 0 1 -.1-.187.941.941 0 0 1 -.037-.1c-.255-.83-.53-1.652-.819-2.445-1.958-5.3-4.328-8.252-6.852-8.517-3.737-.375-7.117 4.9-7.152 4.948a1 1 0 0 1 -1.842-.615c0-.03.249-3.029.373-8.638.051-2.507-2.163-4.145-4.242-4.6-1.857-.409-4.4-.035-5.466 2.379-1.84 4.177-2.318 18.8-2.437 24.885a7.643 7.643 0 0 0 2.273 5.732 3.807 3.807 0 0 0 3.173 1.305c2.2-.321 3.8-3.062 3.811-3.089a1 1 0 0 1 .867-.5h.006a1 1 0 0 1 .868.511c1.926 3.447 4.123 5.5 6.527 6.091a5.874 5.874 0 0 0 4.374-.595 1 1 0 1 1 1.088 1.677 7.769 7.769 0 0 1 -4.011 1.085z"/><path d="m41.922 137.851c-6.433 0-12.945-2.6-19.4-7.77a.971.971 0 0 1 -.173-.178c-.151-.2-3.678-4.932-2.909-10.192a10.653 10.653 0 0 1 4.582-7.131 1 1 0 0 1 1.581.666 24.78 24.78 0 0 0 2.375 7.124c2.364 4.473 5.7 6.652 9.925 6.474 10.231-.419 11.583-9.411 11.636-9.794a1 1 0 0 1 .315-.6l4.512-4.144a1.01 1.01 0 0 1 1.521.173.989.989 0 0 1 -.218 1.345l-4.2 3.861c-.672 3.9-4.227 10.78-13.479 11.159-9.565.419-13.018-9.546-14.013-13.617a8.2 8.2 0 0 0 -2.552 4.764c-.6 4.058 2 7.964 2.455 8.614 7.045 5.6 14.1 7.969 20.955 7.054 10.643-1.429 17.3-10.42 17.369-10.511a1 1 0 0 1 .994-.395c29.859 5.637 36.5-7.805 44.18-23.368.732-1.483 1.472-2.979 2.238-4.472 5.759-11.222 6.271-28.926 6.064-38.481-.074-2.844-.185-4.917-.267-6.189a1.019 1.019 0 0 1 -.021-.158c-.032-.656-.074-1.215-.108-1.67l-.045-.619a1 1 0 0 1 .935-1.061 1.014 1.014 0 0 1 1.061.934l.043.595c.033.438.073.967.105 1.584a.872.872 0 0 1 .016.125c.085 1.278.2 3.426.28 6.411.259 11.907-.622 28.41-6.284 39.442-.761 1.483-1.5 2.97-2.223 4.444-6.519 13.2-12.736 25.782-33.439 25.784a68.991 68.991 0 0 1 -12.3-1.223c-1.635 2.039-8.2 9.441-18.309 10.806a23.884 23.884 0 0 1 -3.202.214z"/><path d="m70.891 120.723a5.26 5.26 0 0 1 -3.142-.92c-1.609-1.178-2.52-3.761-.249-7.47 1.086-1.776 2.306-4.267 3.6-6.905 4.327-8.834 9.23-18.862 15.608-17.579 2.71.538 4.463 1.678 5.21 3.388a5.454 5.454 0 0 1 .063 3.837c2.87.23 4.887 1.326 6.009 3.265 3.523 6.091-3.753 18.342-4.065 18.861a1 1 0 0 1 -1.715-1.03c1.953-3.253 6.485-12.62 4.048-16.831-.919-1.588-2.851-2.388-5.76-2.309a1.035 1.035 0 0 1 -.887-.5 1 1 0 0 1 .016-1.02c.01-.015 1.142-1.922.455-3.477-.472-1.07-1.739-1.817-3.764-2.219-4.857-.938-9.811 9.127-13.422 16.5-1.313 2.681-2.553 5.213-3.688 7.067-1.327 2.169-1.43 3.969-.275 4.815 1.633 1.194 5.9.538 9.674-3.806a1 1 0 0 1 1.51 1.313c-3.017 3.463-6.492 5.02-9.226 5.02z"/><path d="m95.676 87.027a3.917 3.917 0 0 1 -2.248-.725c-2.331-1.616-3.9-6.135-2.149-12.59.393-1.45.735-2.816 1.054-4.094 1.667-6.658 2.867-11.466 8.081-13.07a5.762 5.762 0 0 1 5.6 1.076c2.886 2.387 3.986 7.186 3.586 10.692-.587 5.176-4.8 15.788-4.979 16.237a1 1 0 1 1 -1.858-.74c.043-.107 4.293-10.813 4.85-15.722.333-2.94-.65-7.084-2.873-8.928a3.791 3.791 0 0 0 -3.74-.7c-4.138 1.272-5.113 5.175-6.728 11.642-.322 1.291-.667 2.67-1.064 4.134-1.488 5.483-.338 9.246 1.358 10.423a1.981 1.981 0 0 0 2.439-.109c2.348-1.69 5.09-12.366 6.266-18.7a1 1 0 0 1 1.967.365c-.326 1.757-3.3 17.244-7.065 19.956a4.264 4.264 0 0 1 -2.497.853z"/><path d="m82.421 111.084a1 1 0 0 1 -.83-1.555c3.02-4.518 7.951-13.871 8-13.965a1 1 0 1 1 1.77.932c-.2.387-5.03 9.54-8.109 14.144a1 1 0 0 1 -.831.444z"/><path d="m36.7 78.417h-.008a1 1 0 0 1 -.992-1.008l.019-2.585a1 1 0 0 1 1-.992h.007a1 1 0 0 1 .993 1.007l-.019 2.585a1 1 0 0 1 -1 .993z"/><path d="m39.767 78.1h-.053a1 1 0 0 1 -.946-1.051l.142-2.727a.981.981 0 0 1 1.05-.948 1 1 0 0 1 .947 1.051l-.142 2.728a1 1 0 0 1 -.998.947z"/><path d="m42.924 79.114a.932.932 0 0 1 -.2-.02 1 1 0 0 1 -.786-1.176l.48-2.416a1 1 0 0 1 1.962.391l-.48 2.416a1 1 0 0 1 -.976.805z"/><path d="m82.435 93.6a.985.985 0 0 1 -.322-.054 1 1 0 0 1 -.624-1.269l1.155-3.385a1 1 0 0 1 1.893.647l-1.155 3.384a1 1 0 0 1 -.947.677z"/><path d="m86.549 92.954a.988.988 0 0 1 -.356-.066 1 1 0 0 1 -.579-1.29l1.008-2.646a1 1 0 1 1 1.869.711l-1.008 2.646a1 1 0 0 1 -.934.645z"/><path d="m88.974 94.9a1 1 0 0 1 -.825-1.564l1.817-2.662a1 1 0 0 1 1.652 1.126l-1.818 2.664a.994.994 0 0 1 -.826.436z"/><path d="m106.137 55.589a1 1 0 0 1 -.3-1.955 34.733 34.733 0 0 1 3.476-.793c3.1-.6 6.949-1.357 10.452-3.6 5.118-3.277 10.177-12.263 9.332-16.578-.9-4.6-5.622-8.866-5.67-8.908l-4.12-3.676c-.047-.042-4.825-4.25-9.492-4.622-4.373-.333-12.738 5.7-15.412 11.155-1.83 3.735-2.141 7.65-2.39 10.8a34.943 34.943 0 0 1 -.393 3.54 1 1 0 1 1 -1.965-.369c.172-.918.261-2.036.364-3.33.263-3.314.59-7.44 2.588-11.518 2.811-5.736 11.734-12.7 17.367-12.268 5.344.426 10.45 4.932 10.665 5.123l4.121 3.677c.214.192 5.271 4.753 6.3 10.015 1.084 5.542-4.837 15.2-10.217 18.646-3.824 2.449-7.884 3.242-11.147 3.879-1.274.249-2.375.464-3.268.74a.985.985 0 0 1 -.291.042z"/></g><path d="m126.933 31.388a1.92 1.92 0 0 1 3.569.011 25.2 25.2 0 0 1 2.017 8.7c.31 7.371-3.692 13.4-8.794 13.825s-5.973 5.593-9.688 5.346 1.214-9.3 5.569-13.739c2.837-2.893 5.686-9.731 7.327-14.143z" fill="#f5d8af"/><path d="m114.3 60.279c-.108 0-.217 0-.329-.011a2.219 2.219 0 0 1 -2.051-1.445c-1.154-3.026 3.358-10.308 6.972-13.992a23.291 23.291 0 0 0 3.649-5.674 1 1 0 1 1 1.79.892 25.115 25.115 0 0 1 -4.011 6.182c-3.951 4.028-7.131 10.308-6.531 11.88.029.077.055.144.314.161 1.27.088 2.072-.653 3.388-1.968 1.395-1.391 3.13-3.124 6.151-3.376 4.624-.386 8.158-6.123 7.878-12.787a23.967 23.967 0 0 0 -1.939-8.351 2.455 2.455 0 0 0 -.767-.928 1.03 1.03 0 0 1 -.521-1.311.971.971 0 0 1 1.247-.551 4.092 4.092 0 0 1 1.883 2.01 25.96 25.96 0 0 1 2.095 9.048c.331 7.852-3.935 14.381-9.709 14.863-2.293.193-3.621 1.518-4.905 2.8-1.261 1.258-2.563 2.558-4.604 2.558z" fill="#4d4d4d"/><path d="m111.332 17.469a1.92 1.92 0 0 0 -.415-3.545 25.213 25.213 0 0 0 -8.873-1.016c-7.358.529-12.893 5.189-12.738 10.306s-4.878 6.57-4.211 10.233 9.1-2.262 13.018-7.093c2.552-3.148 9.021-6.754 13.219-8.885z" fill="#f5d8af"/><g fill="#4d4d4d"><path d="m86.473 35.582a2.8 2.8 0 0 1 -.694-.082 2.221 2.221 0 0 1 -1.668-1.875c-.4-2.2.8-3.72 1.972-5.191 1.127-1.421 2.293-2.891 2.224-5.189-.176-5.792 5.826-10.771 13.665-11.334a25.9 25.9 0 0 1 9.228 1.054 3.919 3.919 0 0 1 2.186 1.564 1 1 0 0 1 -1.769.933 2.427 2.427 0 0 0 -.984-.579 24 24 0 0 0 -8.518-.978c-6.652.478-11.95 4.641-11.809 9.279.092 3.029-1.432 4.95-2.657 6.493-1.155 1.456-1.8 2.341-1.57 3.591.046.256.116.274.2.294 1.624.4 7.506-3.453 11.061-7.838a25.062 25.062 0 0 1 5.686-4.686 1 1 0 1 1 1.091 1.675 23.307 23.307 0 0 0 -5.223 4.271c-3.032 3.733-9.073 8.597-12.421 8.598z"/><path d="m116.561 40.982a1 1 0 0 1 -.778-.371 9.925 9.925 0 0 0 -2.345-2.312 1.006 1.006 0 0 1 -.414-1.344.991.991 0 0 1 1.324-.436 10.741 10.741 0 0 1 2.99 2.834 1 1 0 0 1 -.777 1.629z"/><path d="m106.826 32.1a1 1 0 0 1 -.83-.44 10.017 10.017 0 0 0 -2.561-2.067 1 1 0 1 1 1.074-1.687 10.636 10.636 0 0 1 3.155 2.649 1 1 0 0 1 -.838 1.545z"/></g><path d="m108.02 49.137c.614-1.535.02-3.254-.092-4.9a8.777 8.777 0 0 1 1.322-5.049c.354-.554 1.459-1.341 1.616-1.934.173-.65-.453-1.2-.945-1.672-.1-.092-1.068-.951-1.3-1.136a1.472 1.472 0 0 0 -1.4-.449c-.571.224-1.227 1.41-1.738 1.826a8.773 8.773 0 0 1 -4.866 1.886c-1.652.076-3.426-.319-4.882.465a4.532 4.532 0 0 0 -2.052 4.261 13.33 13.33 0 0 0 1.475 4.736 4.451 4.451 0 0 0 .831 1.362 1.653 1.653 0 0 0 1.1.5 1.648 1.648 0 0 0 .619 1.033 4.452 4.452 0 0 0 1.447.671 13.35 13.35 0 0 0 4.873.927 4.532 4.532 0 0 0 3.992-2.527z" fill="#f2f2f2"/><path d="m93.961 40.75c-.015 1.339-.194 5.817-1.875 7.848-1.987 2.4-3.028 4.389-.47 6.671s4.412 1.022 6.574-1.225c1.828-1.9 6.256-2.586 7.584-2.753-3.469.347-11.764-7.055-11.813-10.541z" fill="#f8c7c1"/><g fill="#4d4d4d"><path d="m94.234 57.471a4.923 4.923 0 0 1 -3.284-1.456c-3.621-3.232-1.028-6.369.366-8.055 1.168-1.412 1.616-4.656 1.645-7.221a1 1 0 0 1 1-.989 1 1 0 0 1 1 .987c.018 1.28 1.782 3.738 4.29 5.975s5.16 3.72 6.424 3.583a1 1 0 0 1 .224 1.988c-2.545.32-5.718 1.133-6.989 2.454-1.019 1.063-2.629 2.734-4.676 2.734zm.392-12.83a10.09 10.09 0 0 1 -1.769 4.595c-2.167 2.62-2.291 3.757-.575 5.287s2.83 1.279 5.187-1.173a10.07 10.07 0 0 1 4.364-2.278 25.215 25.215 0 0 1 -7.207-6.431z"/><path d="m104.348 42.218-1.212-1.081c-1.543-1.377-3.693-.758-3.676 1.058l.011 1.208a2.911 2.911 0 0 0 3.042 2.714l1.2-.126c1.808-.191 2.178-2.391.635-3.773z"/><path d="m102.278 47.129a3.8 3.8 0 0 1 -2.506-1 3.734 3.734 0 0 1 -1.3-2.715l-.011-1.206a2.686 2.686 0 0 1 1.581-2.553 3.533 3.533 0 0 1 3.761.738l1.212 1.081a3.528 3.528 0 0 1 1.16 3.653 2.686 2.686 0 0 1 -2.356 1.86l-1.2.126a2.967 2.967 0 0 1 -.341.016zm-.977-5.74a1.044 1.044 0 0 0 -.433.086.7.7 0 0 0 -.408.712l.011 1.206a1.763 1.763 0 0 0 .632 1.242 1.787 1.787 0 0 0 1.306.488l1.2-.126a.7.7 0 0 0 .661-.487 1.552 1.552 0 0 0 -.587-1.546l-1.212-1.081a1.793 1.793 0 0 0 -1.171-.494z"/><path d="m116.675 86.3a1 1 0 0 1 -.4-1.917l12.9-5.622-7.148.56a1 1 0 0 1 -.92-1.537 22.1 22.1 0 0 1 6.608-6.593l-4.711.558a1 1 0 0 1 -.961-1.531 45.937 45.937 0 0 1 4.9-6.371c-3.5 1.077-7.944 2.983-9.536 4.535a1 1 0 1 1 -1.4-1.431c2.6-2.535 10.439-5.416 13.987-5.882a1 1 0 0 1 .811 1.723 43.846 43.846 0 0 0 -5.876 6.714l8.981-1.064a1 1 0 0 1 .39 1.958 20.222 20.222 0 0 0 -10.277 6.76l10.933-.857a1 1 0 0 1 .478 1.914l-18.358 8a.988.988 0 0 1 -.401.083z"/></g><path d="m32.194 60.124-8.463-4.918a21.914 21.914 0 0 1 9.968.981l-7.226-10.837 8.595 4.395.186-9.266a57.238 57.238 0 0 0 6.016 13.1" fill="#94ca81"/><path d="m32.193 61.124a.994.994 0 0 1 -.5-.136l-8.465-4.918a1 1 0 0 1 .37-1.856 22.976 22.976 0 0 1 7.783.3l-5.74-8.607a1 1 0 0 1 1.287-1.446l7.172 3.665.154-7.668a1 1 0 0 1 1.954-.279 56.192 56.192 0 0 0 5.911 12.87 1 1 0 0 1 -1.7 1.057 58.17 58.17 0 0 1 -4.274-8.274l-.079 3.933a1 1 0 0 1 -1.455.87l-5.18-2.648 5.1 7.645a1 1 0 0 1 -1.156 1.5 20.92 20.92 0 0 0 -6.253-1.113l5.578 3.24a1 1 0 0 1 -.5 1.865z" fill="#4d4d4d"/></svg>