<svg height="512" viewBox="0 0 321 321" width="512" xmlns="http://www.w3.org/2000/svg"><circle cx="157.452" cy="160.5" fill="#d0df92" r="150.2"/><g fill="#740806"><path d="m231.227 95.357 47.589-21.098s2.678-9.548-8.087-10.483l-41.582 28.187c-.101.011-1.31 2.759 2.08 3.394zM222.154 86.014l19.388-16.807s-.135-4.914-5.338-3.742l-15.505 19.199s-.367 1.247 1.455 1.35z"/><g><path d="m75.734 119.318-51.92 3.565s-6.823-7.201 2.287-13.126l49.895 5.509c-.001 0 2.415 1.848-.262 4.052zM73.546 107.586l-24.981-5.819s-2.19-4.388 2.981-5.859l22.599 9.801c.001.001.905.908-.599 1.877z"/></g></g><path d="M152.088 251.92a7 7 0 0 0-4.535 8.8c.322 1.013.43 2.082.307 3.305-.125 1.217-.5 2.578-1.162 4.005-1.309 2.855-3.799 5.915-7.045 8.346a27.316 27.316 0 0 1-7.246 3.906c-3.31 1.174-6.812 1.666-10.291 1.294-3.484-.38-6.977-1.581-10.504-4.051-2.349-1.653-4.712-3.889-7.011-6.895-3.064-4.006-6.002-9.39-8.51-16.459-2.14-6.026-3.963-13.271-5.298-21.872-.764-4.915-1.871-9.352-3.286-13.34-2.855-8.053-6.992-14.307-12.024-18.693-5.017-4.389-10.927-6.819-16.767-7.278-3.893-.315-7.74.22-11.299 1.484a27.908 27.908 0 0 0-12.253 8.645c-3.261 3.978-5.519 8.981-6.304 14.573a7.001 7.001 0 0 0 13.863 1.955c.442-3.103 1.629-5.644 3.275-7.663a13.91 13.91 0 0 1 6.1-4.316c2.625-.925 5.472-1.049 8.352-.174 2.876.889 5.876 2.778 8.719 6.398 1.885 2.413 3.674 5.608 5.144 9.751 1.089 3.072 2.002 6.661 2.646 10.807 1.449 9.329 3.457 17.413 5.938 24.406 3.273 9.218 7.374 16.556 12.146 22.23 4.764 5.669 10.233 9.649 15.962 11.981a35.312 35.312 0 0 0 11.542 2.583c5.099.265 10.028-.572 14.541-2.174a41.302 41.302 0 0 0 12.189-6.856c3.55-2.889 6.547-6.298 8.768-10.106 1.477-2.538 2.608-5.262 3.259-8.134.871-3.817.858-7.949-.417-11.923a7 7 0 0 0-8.799-4.535z" fill="#fbb807"/><path d="M34.816 225.596a7 7 0 0 0 7.909-5.954c.442-3.103 1.629-5.644 3.275-7.663a13.91 13.91 0 0 1 6.1-4.316c2.625-.925 5.472-1.049 8.352-.174 1.86.575 3.773 1.58 5.662 3.19 2.799-3.792 5.951-7.26 9.454-10.337l-.084-.078c-5.017-4.389-10.927-6.819-16.767-7.278-3.893-.315-7.74.22-11.299 1.484a27.908 27.908 0 0 0-12.253 8.645c-3.261 3.978-5.519 8.981-6.304 14.573a7 7 0 0 0 5.955 7.908z" fill="#fffcc8"/><path d="M56.529 192.898c.727 0 1.456.029 2.187.088 5.84.459 11.75 2.889 16.767 7.278 5.032 4.386 9.169 10.639 12.024 18.693 1.415 3.987 2.522 8.425 3.286 13.34 1.335 8.601 3.158 15.846 5.298 21.872 2.508 7.069 5.447 12.453 8.51 16.459 2.299 3.006 4.663 5.243 7.011 6.895 3.527 2.47 7.02 3.671 10.504 4.051.767.082 1.534.122 2.3.122 2.713 0 5.41-.501 7.991-1.416a27.316 27.316 0 0 0 7.246-3.906c3.246-2.431 5.736-5.492 7.045-8.346.662-1.427 1.037-2.788 1.162-4.005.123-1.223.014-2.292-.307-3.305a7 7 0 0 1 6.669-9.134 6.999 6.999 0 0 1 6.665 4.869c1.275 3.974 1.288 8.107.417 11.923-.652 2.872-1.782 5.596-3.259 8.134-2.221 3.807-5.218 7.216-8.768 10.106a41.299 41.299 0 0 1-12.189 6.856c-3.959 1.406-8.239 2.223-12.673 2.223a35.312 35.312 0 0 1-13.41-2.632c-5.729-2.332-11.198-6.311-15.962-11.981-4.773-5.673-8.874-13.011-12.146-22.23-2.481-6.993-4.489-15.077-5.938-24.406-.643-4.147-1.556-7.736-2.646-10.807-1.47-4.142-3.259-7.338-5.144-9.751-2.843-3.619-5.843-5.509-8.719-6.398a13.438 13.438 0 0 0-3.924-.593c-1.522 0-3.007.267-4.428.767a13.9 13.9 0 0 0-6.1 4.316c-1.645 2.019-2.833 4.559-3.275 7.663a7.002 7.002 0 0 1-7.909 5.954 7.001 7.001 0 0 1-5.954-7.909c.785-5.592 3.043-10.594 6.304-14.573a27.9 27.9 0 0 1 12.253-8.645 27.239 27.239 0 0 1 9.112-1.572m-10.12-1.255a30.909 30.909 0 0 0-13.569 9.57c-3.71 4.527-6.115 10.079-6.954 16.056-.769 5.46 3.046 10.528 8.506 11.299.466.066.938.099 1.405.099 4.95 0 9.203-3.7 9.894-8.601.339-2.383 1.224-4.466 2.627-6.187a10.892 10.892 0 0 1 4.774-3.386 10.325 10.325 0 0 1 3.431-.596c1.014 0 2.041.156 3.038.459 2.68.829 5.051 2.59 7.24 5.379 1.848 2.366 3.423 5.363 4.681 8.908 1.08 3.044 1.925 6.497 2.509 10.264 1.435 9.237 3.479 17.632 6.076 24.949 3.295 9.284 7.561 17.075 12.676 23.157 4.963 5.907 10.726 10.224 17.124 12.829a38.288 38.288 0 0 0 14.545 2.855c4.598 0 9.198-.806 13.677-2.396a44.121 44.121 0 0 0 13.079-7.357c3.911-3.183 7.096-6.858 9.467-10.924 1.692-2.908 2.9-5.928 3.591-8.976 1.047-4.586.879-9.257-.484-13.503a9.965 9.965 0 0 0-9.523-6.956c-1.032 0-2.057.161-3.047.477-5.252 1.679-8.158 7.318-6.481 12.564.204.641.262 1.307.183 2.092-.095.933-.407 1.988-.904 3.061-1.16 2.529-3.39 5.152-6.123 7.199a24.417 24.417 0 0 1-6.444 3.476c-2.326.825-4.677 1.243-6.988 1.243-.663 0-1.33-.035-1.974-.104-3.247-.353-6.226-1.507-9.104-3.522-2.247-1.58-4.384-3.688-6.354-6.264-3.116-4.075-5.829-9.335-8.065-15.639-2.181-6.145-3.918-13.321-5.16-21.33-.777-4.997-1.929-9.668-3.424-13.882-2.971-8.38-7.305-15.093-12.876-19.949-5.386-4.712-11.785-7.483-18.5-8.011a30.19 30.19 0 0 0-12.549 1.647z" fill="#740806"/><g><path d="M311.265 150.655c-.3-20.6-16.4-27.1-23.3-28.9l-.1.1-1.4 1.4c-1.1 1.1-2.4 2.7-3.9 4.6 1.3 2.3 2 4.9 2 7.4 0 3.9-1.6 7.8-4.7 10.7-1 1-2.2 1.8-3.6 2.5.3 2.6 1.2 5.1 3.1 7.6 2.2 2.6 5.6 5.1 10.8 7.2.8.3-5.4 2.9-13.1-5.3-2.3-2.4-3.3-5.4-3.7-8.3-2.1.7-4.4 1.1-6.9 1-5.4-.2-7.8-4.1-7-3.9 2.6.6 4.9.9 7 .9 5.1 0 8.8-1.6 11.3-3.9s3.7-5.4 3.7-8.5-1.2-6.3-3.9-8.9c-2.6-2.6-6.6-4.6-12.2-5.1 0 0 7.3-2.7 14.3 3 .4.3.7.7 1 1 3-3.7 5.5-6.1 5.6-6.1l.2.2c5.4-5.7 20.5-23.8-3-24.4h-.6c-22.4 0-34.1 30.6-36.9 39-1.7 8 1.1 15.9 1.1 15.9-3.6-4.2-4.3-9.5-4-13.5-11.5 1.3-63 7.7-68.3 20.8-2.1-.3-3.4-.4-3.4-.4-1.7-.1-3.4-.2-5-.2-10.6 0-19.2 2.2-26 5.9-1.3-2.1-3.5-3.5-6.9-3.8h-4.3c-90.8 0-77.8 67.2-58.2 74.7 2.4.9 5.7 1.7 9.2 1.7 6 0 12.6-2.3 16.7-10 1.8-3.5-1-6-1-6s5-5.8-5.4-11h.2l-.4-.1c3.9-9.1-2-19.1-2-19.1 8.9 6.5 6.8 16.4 5.9 19.1 3.7-.2 10.1-1.1 17.7-4.1 1.5-7.8 4.6-16.4 10.7-22.9 0 0-8 13.5-9.1 32.3-1 13 .5 23.1.5 23.1v.1c-10.1 13.5-22.8 30.4-22.8 30.4-6.1-3.2-13.6-5.3-20.4-5.3-9.2 0-17.1 3.8-18.6 14-2.1 13.7 41.6 28.6 41.6 28.6l44-37.5c-4.8-2.4-9.4-6.1-12.7-12.9 0 0 9.3 11 26.1 14.4 5.4 1.2 11.1 1.8 16.8 1.8 10.8 0 21.5-2.3 30.2-7.2 2-1.2 3.8-2.4 5.5-3.7.2-.2.4-.3.7-.5 7.1-5.8 10.4-11.6 10.4-11.6-1.6 5.9-4.4 9.9-7.6 13l53.8 25.8s38.4-25.6 32.9-38.3c-3-7-8.5-9.7-14.8-9.7-8.5 0-18.3 5-25.1 11.3 0 0-22.6-17.9-36.1-28.6-.1-8.3-1-15.4-2.5-21.7-4.5-18.3-14.8-30.1-14.8-30.1 5.5 4 9.4 9.6 12.3 15.2 7.6 1 19.7 2.3 32.9 2.3 29.4.1 64-6.2 65.5-35.5z" fill="#fbb807"/><g fill="#f28a1c"><path d="M70.965 233.355c2.4.9 5.7 1.7 9.2 1.7 6 0 12.6-2.3 16.7-10 .8-1.5.7-2.9.3-4-3.7 4-9 6.6-14.4 6.6-10.8 0-18.2-8.9-19.3-19.3-4.9-47.1 59.2-43.9 59.2-43.9s5.4.5 6.2-.9c.5-.9 3.3-6.9 1.4-2.2.4-1 .9-1.9 1.4-2.8h-2.5c-90.9.1-77.8 67.3-58.2 74.8z"/><path d="M293.865 247.555c-1.5-3.5-3.7-5.9-6.2-7.5 9 6.7-6.7 23.4-27.4 32.9l-43.2-27.1s1.3-20.1 2.2-24.2c-.5-.4-.9-.8-1.4-1.1-.1-8.3-1-15.4-2.5-21.7-1-4-2.3-7.7-3.6-11 .2 1.8.4 3.6.5 5.4.5 11.6 13.9 69.3-40.2 69.4-62.7.2-52.2-57.4-52.7-69.4-.1-1.8 0-3.7.3-5.6-2.4 5.7-5.4 14.9-6 25.9-1 13 .5 23.1.5 23.1v.1c-10.1 13.5-22.8 30.4-22.8 30.4-6.1-3.2-13.6-5.3-20.4-5.3-9.2 0-17.1 3.8-18.6 14-.6 3.8 2.4 7.7 6.9 11.4-1.5-10.2 8.9-18.6 19.8-18.3s24.7 10.6 24.7 10.6l-4.9-7.5 20.7-22.8s6.8 8.2 7.9 8.8c-.8-1.2-1.6-2.5-2.3-3.9 0 0 9.3 11 26.1 14.4 5.4 1.2 11.1 1.8 16.8 1.8 10.8 0 21.5-2.3 30.2-7.2 2-1.2 3.8-2.4 5.5-3.7.2-.2.4-.3.7-.5 7.1-5.8 10.4-11.6 10.4-11.6-1.6 5.9-4.4 9.9-7.6 13l53.8 25.8c-.1-.4 38.3-25.9 32.8-38.6zM215.265 179.055s-9.6-7.4-13.5-8.9c1.2 2.4 10.3 12.1 11.2 13.9 7.6 1 19.7 2.3 32.9 2.3 26 0 56-4.9 63.7-26.2-24.7 27.2-94.3 18.9-94.3 18.9z"/></g><path d="M314.265 150.655c-.2-15-8.2-23-14.8-27.1-3.2-2-6.4-3.2-8.9-4 4.5-5.1 10.6-13.7 8.1-20.3-1.7-4.5-6.8-6.9-15.1-7.1h-.7c-22.2 0-34.3 26.3-38.6 37.9s-.1.2-.1.4c-.4 1.2-.8 2.2-1 3-4.9.5-18 2.1-31.4 4.8-21.4 4.3-34.1 9.5-38.6 15.8-.9-.1-1.4-.1-1.7-.1-1.7-.1-3.5-.2-5.2-.2-9.5 0-18 1.7-25.2 5.1-1.6-1.5-3.9-2.8-7.4-3.1H129.065c-23.2 0-41.6 4.3-54.7 12.8-13.7 9-18.4 20.6-20 28.8-3.4 18.1 5.4 35 15.4 38.8 1.9.7 5.7 1.9 10.3 1.9 8.5 0 15.4-4.1 19.4-11.6 1.6-3 1-5.8-.1-7.6.5-1.2.9-2.9.5-4.9-.2-1.2-.7-2.3-1.5-3.4 3.4-.5 7.8-1.4 12.7-3.1-1.7 13.3-.6 24.6-.1 28.3-7.9 10.5-17.1 22.7-20.6 27.4-6.3-2.9-13.2-4.5-19.5-4.5-12.1 0-20 6-21.6 16.5-1.1 7.2 6 14.6 21.6 22.6 10.7 5.5 21.5 9.2 21.9 9.4l1.6.6 1.3-1.1 44.8-38.1c8.6 3.1 18 4.7 27.4 4.7 9.1 0 17.5-1.5 24.8-4.4 4.4-1.7 8.4-3.9 11.9-6.6l54.9 26.4 1.5.7 1.4-.9c.4-.3 9.9-6.6 18.8-14.6 13.1-11.7 18-20.6 15.2-27.3-3.2-7.4-9.4-11.5-17.5-11.5-7.8 0-17.5 4-25.2 10.4-5.6-4.4-21.9-17.3-33-26.1-.3-12.1-2.3-22.7-5.9-31.7 7.6.9 18.8 2 30.8 2 43.5 0 67.2-13.3 68.5-38.5zm-113.7 18.1s10.3 11.8 14.8 30.1c1.5 6.3 2.3 13.4 2.5 21.7 13.5 10.7 36.1 28.6 36.1 28.6 6.8-6.3 16.7-11.3 25.1-11.3 6.3 0 11.8 2.7 14.8 9.7 5.5 12.7-32.9 38.3-32.9 38.3l-53.7-25.9c3.2-3 6-7.1 7.6-13 0 0-3.3 5.9-10.4 11.6-.2.2-.4.3-.7.5-1.6 1.3-3.4 2.5-5.5 3.7-8.7 5-19.4 7.2-30.2 7.2-5.6 0-11.3-.6-16.8-1.8-16.8-3.3-26.1-14.4-26.1-14.4 3.4 6.8 7.9 10.5 12.7 12.9l-44 37.5s-43.6-15-41.6-28.6c1.5-10.1 9.4-14 18.6-14 6.8 0 14.3 2.1 20.4 5.3 0 0 12.7-16.9 22.8-30.4v-.1s-1.5-10.1-.5-23.1c1.1-18.8 9.1-32.3 9.1-32.3-6.1 6.5-9.2 15.2-10.7 22.9-7.7 2.9-14 3.8-17.7 4.1.8-2.7 3-12.6-5.9-19.1 0 0 5.9 10 2 19.1l.4.1h-.2c10.4 5.1 5.4 11 5.4 11s2.8 2.6 1 6c-4.1 7.7-10.7 10-16.7 10-3.5 0-6.8-.8-9.2-1.7-19.6-7.5-32.7-74.7 58.2-74.7h4.3c3.4.3 5.6 1.7 6.9 3.8 6.9-3.7 15.4-5.9 26-5.9 1.6 0 3.3.1 5 .2 0 0 1.3 0 3.4.4 5.3-13.2 56.8-19.6 68.3-20.8-.2 4.1.4 9.3 4 13.5 0 0-2.8-7.9-1.1-15.9 2.8-8.3 14.5-39 36.9-39h.6c23.5.6 8.4 18.6 3 24.4l-.2-.2s-2.6 2.4-5.6 6.1c-.3-.4-.6-.7-1-1-7-5.7-14.3-3-14.3-3 5.6.5 9.6 2.5 12.2 5.1s3.8 5.8 3.9 8.9c0 3.1-1.2 6.2-3.7 8.5s-6.2 3.9-11.3 3.9c-2.1 0-4.4-.3-7-.9-.8-.2 1.5 3.7 7 3.9 2.5.1 4.9-.4 6.9-1 .4 2.9 1.4 5.8 3.7 8.3 7.7 8.3 13.9 5.7 13.1 5.3-5.2-2.1-8.7-4.6-10.8-7.2-2-2.4-2.9-4.9-3.1-7.6 1.3-.7 2.5-1.5 3.6-2.5 3.1-2.9 4.7-6.8 4.7-10.7 0-2.5-.7-5.1-2-7.4 1.5-1.9 2.9-3.5 3.9-4.6l1.4-1.4.1-.1c7 1.8 23 8.2 23.3 28.9-1.5 29.3-36.1 35.6-65.5 35.6-13.1 0-25.3-1.3-32.9-2.3-3-5.6-6.9-11.2-12.4-15.2z" fill="#740806"/><path d="M143.765 184.355c-.2-23.5 12.2-27.8 25.8-27.8 16.5 0 33.4 27.3 32.2 66.1-.7 21.7-12.1 34.5-31.1 34s-28-13.5-27.3-29.2z" fill="#fffcc8"/></g><g><path d="M86.305 142.895c1.718 3.039 4.153 3.185 6.264 1.274.094 3.803.977 7.346 3.413 9.465 1.976 1.72 3.789 1.77 5.143.633 16.26 16.9 63.674 18.91 63.674 18.91s38.837-20.322 47.563-38.697c1.946 1.333 4.067.939 5.611-1.791 1.589-2.811 1.24-6.446.061-10.062 2.627 1.097 4.874.147 5.48-3.291.795-4.508-11.722-24.393-21.39-38.913 20.285-29.896-3.35-51.594-3.35-51.594l-30.363 25.77c-13.703-3.27-32.355-3.429-52.565 8.727L79.167 49.367s-14.99 28.237 13.894 49.641c-3.867 17.988-8.373 41.026-6.756 43.887z" fill="#fbb807"/><path d="M93.061 99.009c-3.803 17.689-8.219 40.25-6.826 43.713-.647-1.935-1.035-14.595 17.563-23.32-.518-37.451 14.51-52.705 14.51-52.705s2.977-1.809 6.762-4.156l19.822 12.067s-4.167-12.796-10.891-17.699a185.04 185.04 0 0 0 3.914-2.584 69.636 69.636 0 0 0-7.01 1.982c-5.652.414-7.699 2.281-8.43 3.449a80.91 80.91 0 0 0-6.629 3.571L79.167 49.368s-14.99 28.236 13.894 49.641z" fill="#f28a1c"/><path d="M86.234 142.722c.024.071.048.132.071.173 1.718 3.039 4.153 3.185 6.264 1.274.094 3.803.977 7.346 3.413 9.465 1.976 1.72 3.789 1.77 5.143.633 19.736 21.03 63.674 18.91 63.674 18.91s30.286-7.912 47.563-38.697c1.946 1.333 4.067.939 5.611-1.791 1.589-2.811 1.24-6.446.061-10.062 2.627 1.097 4.874.147 5.48-3.291 1.286-7.289-17.722-23.358-56.634-11.975 0 0-5.389-23.667-15.811-21.878s-7.137 25.777-7.137 25.777c-18.74.879-31.487 4.085-40.134 8.141-18.598 8.725-18.21 21.385-17.564 23.321z" fill="#fffcc8"/><path d="M86.305 142.893c1.718 3.039 4.153 3.185 6.264 1.274.094 3.803.977 7.346 3.413 9.465 1.976 1.72 3.789 1.77 5.143.633 19.736 21.03 63.674 18.91 63.674 18.91s29.304-7.674 46.704-37.235c-23.671 26.048-45.749 31.937-45.749 31.937s-42.547 2.794-55.025-21.909c0 0-19.18 7.161-7.595-12.835 0 0-6.812 4.166-6.927-2.427-.081-4.687 5.039-10.022 5.039-10.022-16.624 8.965-15.573 21.092-14.941 22.209z" fill="#e5ba97"/><path d="m80.85 58.12 25.173 14.554c-7.279 9.206-10.674 22.085-10.674 22.085C74.072 81.415 80.851 58.12 80.85 58.12zM188.018 64.205c5.23 5.154 10.106 12.907 10.106 12.907 13.356-16.838 4.7-33.37 2.158-38.128z" fill="#fffcc8"/><path d="m153.25 52.198 8.52.828c2.481 7.952-6.121 19.465-6.121 19.465s-.335-14.589-2.399-20.293z" fill="#f28a1c"/><path d="M91.396 99.626c-2.435 11.37-5.073 24.532-6.272 33.414-.41 3.048-.654 5.584-.656 7.454 0 .629.027 1.185.096 1.689.075.506.165.956.436 1.451.574 1.014 1.255 1.826 2.065 2.403.805.577 1.756.894 2.702.89.511 0 1.013-.09 1.493-.248.143 1.143.364 2.262.714 3.324.598 1.813 1.558 3.486 3.024 4.762 1.284 1.118 2.673 1.768 4.101 1.771a4.434 4.434 0 0 0 1.741-.363c3.82 4.14 8.656 7.345 13.942 9.825 5.684 2.666 11.884 4.513 17.926 5.803 12.083 2.576 23.544 2.923 28.939 2.924 2.029 0 3.198-.05 3.217-.051l.243-.01.227-.086c.042-.016 5.361-2.043 12.555-5.88 7.194-3.839 16.265-9.48 23.82-16.787 4.65-4.501 8.715-9.649 11.388-15.423.458.143.93.231 1.417.231.946.004 1.896-.313 2.701-.89.81-.577 1.491-1.389 2.065-2.403.907-1.605 1.266-3.396 1.265-5.203-.001-1.216-.173-2.447-.443-3.674 1.167-.018 2.341-.468 3.195-1.342.888-.898 1.433-2.133 1.694-3.611v-.001c.045-.258.055-.486.055-.702l-.001-.1v-.024h-.001a4.752 4.752 0 0 0-.035-.519h.001l-.001-.009-.001-.008h-.001c-.105-.924-.389-1.93-.806-3.082-.42-1.155-.981-2.447-1.657-3.861-1.352-2.825-3.168-6.135-5.246-9.686-3.992-6.819-8.943-14.508-13.376-21.184 5.812-8.87 7.931-17.138 7.926-24.343-.001-8.666-3.014-15.743-6.006-20.639-2.997-4.899-5.981-7.645-6.052-7.712l-.975-.896-30.803 26.144a69.886 69.886 0 0 0-15.522-1.768c-10.989-.003-23.586 2.684-36.777 10.467l-37.25-14.177-.621 1.169c-.06.126-4.055 7.637-4.064 18.044-.001 5.009.94 10.696 3.725 16.48 2.681 5.575 7.079 11.22 13.893 16.437zM80.204 81.89c-2.563-5.328-3.427-10.54-3.428-15.18-.006-7.229 2.121-13.044 3.158-15.443l36.058 13.723.625-.376c12.962-7.793 25.194-10.405 35.87-10.408 5.678 0 10.916.743 15.574 1.855l.739.176 29.88-25.359c.224.242.479.524.765.855a40.135 40.135 0 0 1 3.833 5.272c2.794 4.571 5.567 11.118 5.566 19.074-.004 6.832-2.023 14.743-7.963 23.506l-.566.834.559.839c5.969 8.962 13.028 19.986 17.31 28.068 1.426 2.689 2.542 5.055 3.195 6.852.374 1.022.59 1.866.645 2.397l.001.008.001.009c.012.098.017.17.017.214v.024l.001.064c0 .104-.008.173-.01.182-.187 1.063-.538 1.69-.868 2.018-.336.324-.651.454-1.18.466-.369.001-.838-.092-1.377-.317l-3.018-1.26 1.014 3.109c.588 1.797.939 3.562.937 5.132-.001 1.42-.277 2.665-.877 3.726-.41.726-.83 1.179-1.19 1.433-.364.253-.652.332-.964.336-.352.001-.786-.124-1.303-.477l-1.526-1.045-.707 1.709c-2.344 5.669-6.267 10.842-10.903 15.409-4.634 4.567-9.972 8.523-15.089 11.78-9.951 6.337-19.035 10.019-20.492 10.592-.133.004-.312.01-.551.015-.527.012-1.304.024-2.294.024a147.76 147.76 0 0 1-19.668-1.352c-8.383-1.156-17.814-3.284-25.923-7.091-5.408-2.536-10.218-5.81-13.789-9.991l-.966-1.13-1.139.956c-.374.304-.683.413-1.063.419-.477.002-1.201-.227-2.131-1.035-.969-.843-1.668-2.001-2.145-3.44-.475-1.434-.709-3.133-.753-4.93l-.081-3.27-2.425 2.195a3.906 3.906 0 0 1-.998.68c-.304.137-.564.19-.798.19-.312-.004-.6-.082-.965-.336-.357-.253-.775-.704-1.182-1.421l-.019-.061a2.595 2.595 0 0 1-.065-.336 9.902 9.902 0 0 1-.068-1.28c-.002-1.612.226-4.077.629-7.053.402-2.979.975-6.485 1.652-10.258 1.354-7.547 3.125-16.165 4.779-23.858l.203-.945-.777-.576c-6.913-5.125-11.182-10.588-13.75-15.913z" fill="#740806"/><path d="M160.171 51.982c1.533-1.99 2.185-4.968.748-7.225-4.12-6.473-20.425 9.518-20.958 9.975-.182 5.337 11.114 9.413 16.469 7.983 4.178-1.115 2.944-4.908 1.705-5.855-1.386-1.059-3.525-.788-3.525-.788s3.48-1.386 5.561-4.09z" fill="#fbb807"/><path d="M156.227 65.567c.315-.054.622-.121.914-.199 2.61-.697 4.364-2.395 4.813-4.658.398-2.001-.293-3.954-1.324-5.22a13.575 13.575 0 0 0 1.719-1.833c2.04-2.651 3.108-6.887.889-10.373-.825-1.294-2.804-3.364-6.808-2.676-5.497.944-12.864 6.978-18.076 11.874l-.175.167-.916.785-.042 1.206c-.037 1.083 2.76.832 2.76.832.42-.36 10.583-11.072 16.913-12.159 1.715-.294 3.149.065 4.028 1.445 1.436 2.258.784 5.236-.748 7.226-2.081 2.702-5.562 4.089-5.562 4.089s2.138-.272 3.525.788c1.239.947 2.473 4.74-1.705 5.855a7.613 7.613 0 0 1-.671.146c-2.818.484-6.871-.293-10.168-1.84-.272.906 6.968 5.173 10.634 4.545z" fill="#740806"/><path d="M177.046 112.949c.435.008.873-.015 1.313-.071 1.436-.184 2.767-.721 3.973-1.522 4.721-3.134 7.465-10.528 6.421-18.708-1.314-10.27-8.098-17.865-15.149-16.963-6.686.856-11.206 9.04-10.542 18.638.037.528.079 1.057.148 1.592 1.232 9.63 7.272 16.909 13.836 17.034z" fill="#fff"/><path d="M136.739 74.268c-3.441-4.439-9.402-9.979-16.524-7.589-7.769 2.607-10.182 11.069-10.916 16.739-.125.961 1.015 1.417 1.431.573a24.52 24.52 0 0 1 3.221-4.935c5.859-6.965 14.988-7.666 21.85-3.421.763.472 1.512-.627.938-1.367zM184.174 68.329c-2.594-4.31-7.423-10.253-14.014-9.472-6.043.716-8.362 7.409-9.251 12.275-.148.813.795 1.423 1.178.758 3.444-5.981 10.332-8.808 17.122-5.356a20.663 20.663 0 0 1 4.133 2.792c.608.528 1.271-.265.832-.997z" fill="#740806"/><path d="M116.9 111.538c2.184 3.599 5.165 6.308 8.498 7.677-4.736-2.715-8.454-8.423-9.404-15.424-1.424-10.494 3.892-19.882 11.878-20.965 7.984-1.083 15.609 6.546 17.036 17.042.088.648.149 1.292.187 1.93a27.153 27.153 0 0 0-.235-4.471c-1.55-11.402-9.835-19.691-18.508-18.514-8.676 1.174-14.451 11.375-12.905 22.777.506 3.722 1.733 7.109 3.453 9.948z" fill="#740806"/><path d="M125.4 119.214c2.361 1.354 4.972 1.977 7.629 1.617 3.548-.483 6.564-2.61 8.702-5.739 2.376-3.478 3.664-8.194 3.365-13.295a25.69 25.69 0 0 0-.187-1.93c-1.427-10.496-9.053-18.125-17.036-17.042-7.985 1.083-13.301 10.471-11.878 20.965.95 7.001 4.668 12.709 9.405 15.424z" fill="#fff"/><g fill="#740806"><path d="M182.333 111.357c2.217-1.087 4.092-3 5.5-5.48 2.269-3.996 3.326-9.44 2.581-15.264-1.409-11.011-8.68-19.155-16.243-18.188-7.561.967-12.551 10.678-11.143 21.689l.034.209c-.664-9.598 3.855-17.783 10.542-18.638 7.05-.903 13.835 6.693 15.149 16.963 1.045 8.18-1.7 15.575-6.42 18.709zM131.437 95.058c-5.876 1.403-7.8 5.619-7.934 8.827-.029 1.281 1.546 1.798 2.337.79 4.562-5.803 11.369-4.439 15.243-2.975 1.184.419 2.288-.843 1.593-1.889-.676-1.125-5.266-6.216-11.239-4.753z"/><path d="M173.384 87.334c-5.981.853-8.285 4.873-8.716 8.055-.146 1.273 1.374 1.933 2.255 1.003 5.079-5.355 11.731-3.368 15.453-1.552 1.139.528 2.356-.627 1.76-1.733-.569-1.182-4.669-6.676-10.752-5.773zM164.895 158.825c28.482-4.726 19.525-30.72 21.104-32.379 1.519-1.6 2.651-3.361 3.156-5.28a8.055 8.055 0 0 0 .174-3.387 8.14 8.14 0 0 0-.789-2.344c3.328-.743 6.197-2.101 5.397-3.012-6.036 1.389-10.414 1.103-12.396.833-1.058-.144-1.629 1.226-.762 1.852.773.558 2.108.885 3.66.858l.086-.004.072.124c.641.817.96 1.57 1.086 2.297a4.391 4.391 0 0 1-.099 1.845c-.169.64-.486 1.33-.953 2.043-.936 1.428-2.508 2.944-4.58 4.343-2.262 1.541-2.665 2.068-5.872 3.207-8.694 1.773-9.522-6.666-11.723-6.475-2.34.202 4.494 10.334-13.184 10.404-4.14.016-8.033-.677-11.179-1.547-2.101-.58-3.864-1.313-5.135-2.131-.721-.468-2.353-2.487-2.451-3.032-.097-.628-.02-1.37.422-2.349a1.79 1.79 0 0 0 .118-.341c1.464-.536 2.608-1.301 3.177-2.104.699-.985-.41-2.242-1.491-1.701a30.48 30.48 0 0 1-3.776 1.553 1.845 1.845 0 0 0-.51.17c-2.356.765-5.453 1.516-9.273 1.91-.563 1.36 3.585 1.729 7.717 1.146a6.933 6.933 0 0 0-.028 2.32c.207 1.251.778 2.393 1.575 3.352.789.962 1.796 1.762 2.953 2.45 2.312 1.371 5.021 30.105 33.504 25.379z"/></g><path d="M194.395 109.942c5.177-.859 9.136-2.981 8.844-4.738-.292-1.758-4.724-2.487-9.901-1.628-5.176.859-9.135 2.98-8.843 4.738.292 1.757 4.725 2.486 9.9 1.628zM117.388 122.721c5.177-.859 9.136-2.981 8.844-4.738-.291-1.758-4.724-2.487-9.9-1.628-5.175.859-9.135 2.98-8.843 4.738s4.724 2.487 9.899 1.628zM162.611 153.032a27.491 27.491 0 0 0-.879-1.068c-1.193-1.382-3.114-3.803-4.162-4.536-1.928 1.296-3.952 1.975-5.532 2.334l-.057.013a18.49 18.49 0 0 1-1.159.222l-.051.009-.143.023-.203.024a20.439 20.439 0 0 1-.632.07c-.144.012-.266.022-.362.027-3.272.219-5.909-.646-6.119-2.115-.236-1.646 2.658-3.419 6.464-3.963 1.932-.276 3.725-.181 5.055.194 7.321-5.56 15.494-5.223 18.778-2.207a7.9 7.9 0 0 1 1.091 1.218c4.987 6.992-7.413 14.623-12.089 9.755zM162.833 124.977c7.398-1.27 27.555-17.735-2.169-12.631s-5.23 13.902 2.169 12.631z" fill="#e93e8f"/><path d="M164.287 116.298c.17.993 2.017 1.505 4.123 1.143s3.675-1.46 3.505-2.453c-.061-.357-.341-.65-.768-.864-.763-.383-2.004-.512-3.355-.28-1.047.18-1.96.542-2.594.982-.642.446-.998.972-.911 1.472z" fill="#fff"/></g></svg>