<svg id="Capa_1" enable-background="new 0 0 512 512" viewBox="0 0 512 512" xmlns="http://www.w3.org/2000/svg"><g><g><g><g><g><path d="m59.264 7.5h85.667v130h-95.667v-120c0-5.523 4.477-10 10-10z" fill="#c96e59"/><path d="m77.264 35.5h39.667v74h-39.667z" fill="#eb9c8d"/><path d="m144.93 7.5h85.667c5.523 0 10 4.477 10 10v120h-95.667z" fill="#bb5d4c"/><path d="m172.931 35.5h39.666v74h-39.666z" fill="#d78878"/><path d="m49.264 137.5h95.667v130h-95.667z" fill="#bb5d4c"/><path d="m77.264 165.5h39.667v74h-39.667z" fill="#d78878"/><path d="m144.93 137.5h95.667v130h-95.667z" fill="#c96e59"/><path d="m144.93 137.5 28.001 28h39.666l28-28z" fill="#d78878"/><path d="m144.93 267.5 28.001-28h39.666l28 28z" fill="#d78878"/><path d="m172.931 165.5h39.666v74h-39.666z" fill="#eb9c8d"/><path d="m240.597 137.5h85.667c5.523 0 10 4.477 10 10v120h-95.667z" fill="#bb5d4c"/><g fill="#c96e59"><path d="m308.263 165.5 25.071-25.071c-1.81-1.81-4.31-2.929-7.071-2.929h-85.667l28 28z"/><path d="m240.597 267.5 28-28h39.666l28.001 28z"/><path d="m49.264 137.5 28 28h39.666l28-28z"/><path d="m212.597 35.5 25.071-25.071c-1.81-1.81-4.31-2.929-7.071-2.929h-85.667l28 28z"/></g><path d="m77.264 35.5h39.666l28-28h-85.666c-2.761 0-5.261 1.119-7.071 2.929z" fill="#d78878"/><path d="m49.264 267.5 28-28h39.666l28 28z" fill="#c96e59"/><path d="m144.93 137.5 28.001-28h39.666l28 28z" fill="#c96e59"/><path d="m49.264 137.5 28-28h39.666l28 28z" fill="#d78878"/><path d="m268.597 165.5h39.667v74h-39.667z" fill="#d78878"/><g><path d="m246.72 308.338c-.783-.354-1.615-.534-2.475-.534-1.358 0-2.689.467-3.75 1.316l-32.822 26.282c-.717.575-1.581.878-2.499.878-1.069 0-2.074-.416-2.83-1.171l-16.547-16.547c-1.133-1.133-2.64-1.757-4.242-1.757s-3.109.624-4.242 1.757l-11.195 11.195c-.756.755-1.761 1.171-2.829 1.171s-2.072-.416-2.828-1.171l-26.438-26.437c-1.133-1.133-2.641-1.758-4.244-1.758-1.029 0-2.049.268-2.946.774l-77.568 43.769v148.395c0 5.523 4.477 10 10 10h267c5.523 0 10-4.477 10-10v-145.616z" fill="#ffe177"/></g><g><path d="m287 326.577v137.423c0 5.523-4.477 10-10 10h-227.736v20.5c0 5.523 4.477 10 10 10h267c5.523 0 10-4.477 10-10v-145.616z" fill="#ffd15b"/></g><path d="m49.264 494.5c0 5.523 4.477 10 10 10h267c5.523 0 10-4.477 10-10v-49.5h-287z" fill="#fe646f"/><path d="m336.264 494.5v-49.5h-49.264v19c0 5.523-4.477 10-10 10h-227.736v20.5c0 5.523 4.477 10 10 10h267c5.522 0 10-4.477 10-10z" fill="#fd4755"/></g><path d="m341.764 267.5h-298c-5.523 0-10 4.477-10 10v69.938c0 3.827 4.124 6.235 7.457 4.355l86.102-48.584c1.955-1.103 4.405-.768 5.993.819l26.437 26.437c1.953 1.953 5.118 1.953 7.071 0l11.195-11.195c1.953-1.953 5.118-1.953 7.071 0l16.547 16.547c1.802 1.802 4.671 1.96 6.661.367l32.822-26.282c1.469-1.176 3.474-1.428 5.188-.652l98.394 44.553c3.31 1.499 7.062-.922 7.062-4.555v-71.748c0-5.523-4.478-10-10-10z" fill="#dff6fd"/><path d="m344.701 353.802c3.31 1.499 7.062-.922 7.062-4.555v-71.747c0-5.523-4.477-10-10-10h-54.763v60.175z" fill="#c8effe"/><path d="m287.764 409h-190c-2.761 0-5-2.239-5-5v-31c0-2.761 2.239-5 5-5h190c2.761 0 5 2.239 5 5v31c0 2.761-2.239 5-5 5z" fill="#fff"/><path d="m287.764 368h-25.764v16c0 2.761-2.239 5-5 5h-164.236v15c0 2.761 2.239 5 5 5h190c2.761 0 5-2.239 5-5v-31c0-2.761-2.239-5-5-5z" fill="#f2fbff"/></g><g><path d="m329.879 63.933 53.504-53.504c3.905-3.905 10.237-3.905 14.142 0l77.782 77.782c3.905 3.905 3.905 10.237 0 14.142l-53.504 53.504c-3.905 3.905-10.237 3.905-14.142 0l-77.782-77.782c-3.905-3.905-3.905-10.236 0-14.142z" fill="#bb5d4c"/><path d="m382.76 46.143h39.667v74h-39.667z" fill="#d78878" transform="matrix(.707 -.707 .707 .707 59.126 309.028)"/><g fill="#c96e59"><path d="m383.384 10.429-53.504 53.504c-1.952 1.952-2.929 4.512-2.929 7.071h35.456l28.048-28.048v-35.456c-2.56 0-5.119.976-7.071 2.929z"/><path d="m442.78 95.282-28.048 28.048v35.456c2.559 0 5.118-.976 7.071-2.929l53.504-53.504c1.953-1.953 2.929-4.512 2.929-7.071z"/></g></g></g></g><g><path d="m280.2 109.5h2c4.143 0 7.5-3.358 7.5-7.5s-3.357-7.5-7.5-7.5h-2c-4.143 0-7.5 3.358-7.5 7.5s3.358 7.5 7.5 7.5z"/><path d="m294.493 61.207c1.919 0 3.839-.732 5.304-2.197l1.414-1.414c2.929-2.929 2.929-7.678 0-10.606-2.93-2.929-7.678-2.929-10.607 0l-1.414 1.414c-2.929 2.929-2.929 7.678 0 10.606 1.464 1.465 3.384 2.197 5.303 2.197z"/><path d="m373.604 181.99-1.414 1.414c-2.929 2.929-2.929 7.678 0 10.606 1.465 1.464 3.385 2.197 5.304 2.197s3.839-.732 5.304-2.197l1.414-1.414c2.929-2.929 2.929-7.678 0-10.606-2.931-2.929-7.679-2.929-10.608 0z"/><path d="m300.264 404v-31c0-6.893-5.607-12.5-12.5-12.5h-190c-6.893 0-12.5 5.607-12.5 12.5v31c0 6.893 5.607 12.5 12.5 12.5h190c6.892 0 12.5-5.607 12.5-12.5zm-15-2.5h-185v-26h185z"/><path d="m343.764 260.123v-112.623c0-9.649-7.851-17.5-17.5-17.5h-78.167v-112.5c0-9.649-7.851-17.5-17.5-17.5h-171.333c-9.649 0-17.5 7.851-17.5 17.5v242.623c-8.71.997-15.5 8.405-15.5 17.377v69.938c0 4.493 2.316 8.528 6.196 10.794 2.882 1.683 6.189 2.129 9.304 1.346v134.922c0 9.649 7.851 17.5 17.5 17.5h267c9.649 0 17.5-7.851 17.5-17.5v-133.131c.992.247 2 .385 3.007.385 2.362 0 4.709-.674 6.768-2.002 3.585-2.312 5.726-6.239 5.726-10.505v-71.747c-.001-8.972-6.792-16.38-15.501-17.377zm-287-234.516 13 13v67.786l-13 13zm272 223.786-13-13v-67.786l13-13zm-251.5-38.893c-4.143 0-7.5 3.358-7.5 7.5v18.393l-13 13v-93.786l13 13v14.393c0 4.142 3.357 7.5 7.5 7.5s7.5-3.358 7.5-7.5v-10h24.667v59h-24.667v-14c0-4.142-3.358-7.5-7.5-7.5zm132.226-52.5h-33.453l-13-13h59.453zm-95.667 0h-33.453l-13-13h59.453zm-29.059-115h24.667v59h-24.667zm39.667-4.394 13-13v93.788l-13-13zm80.666 63.394h-24.666v-59h24.666zm-39.666 4.393-13 13v-93.786l13 13zm-2.394 23.607 13-13h33.453l13 13zm46.453-102h-33.453l-13-13h59.453zm-95.667 0h-33.453l-13-13h59.453zm-33.453 89h33.453l13 13h-59.453zm44.061 51.606 13-13v93.788l-13-13zm28-12.999 13 13v67.786l-13 13zm28 17.393h24.666v59h-24.666zm39.666-4.393 13-13v93.786l-13-13zm28-13.001 13 13v67.79l-13 13zm28 17.394h24.667v59h-24.667zm42.06-28-13 13h-33.453l-13-13zm-85.06-25.607-13-13v-67.786l13-13zm-152.727 127.607h33.453l13 13h-59.453zm95.667 0h33.453l13 13h-59.453zm95.667 0h33.453l13 13h-59.453zm54.56 250h-267c-1.379 0-2.5-1.122-2.5-2.5v-42h183.236c4.143 0 7.5-3.358 7.5-7.5s-3.357-7.5-7.5-7.5h-183.236v-85.866l72.591-40.96 25.095 25.094c2.36 2.361 5.5 3.662 8.839 3.662s6.478-1.3 8.84-3.661l9.427-9.427 14.779 14.78c4.514 4.512 11.672 4.906 16.651.917l31.626-25.323 84.152 38.104v82.68h-53.764c-4.143 0-7.5 3.358-7.5 7.5s3.357 7.5 7.5 7.5h53.764v42c0 1.378-1.121 2.5-2.5 2.5zm18-151.629-94.864-42.954c-1.662-.752-3.422-1.122-5.17-1.122-2.781 0-5.531.936-7.798 2.751l-31.075 24.883-14.964-14.963c-2.36-2.361-5.5-3.662-8.839-3.662s-6.479 1.3-8.839 3.661l-9.428 9.428-24.669-24.668c-3.952-3.954-10.112-4.797-14.981-2.049l-77.939 43.978c-.01.005-.02.011-.03.017l-4.406 2.486v-65.657c0-1.378 1.121-2.5 2.5-2.5h298c1.379 0 2.5 1.122 2.5 2.5v67.871z"/><path d="m480.611 82.908-77.782-77.782c-6.823-6.823-17.926-6.824-24.749 0l-53.505 53.504c-6.823 6.823-6.823 17.925 0 24.749l77.782 77.782c3.306 3.305 7.7 5.125 12.375 5.125 4.674 0 9.068-1.82 12.374-5.125l53.505-53.504c3.305-3.305 5.125-7.7 5.125-12.375s-1.82-9.069-5.125-12.374zm-34.724 4.874-12.459-12.46c-2.929-2.929-7.678-2.929-10.606 0-2.93 2.929-2.93 7.677-.001 10.606l9.353 9.353-17.442 17.443-41.719-41.719 17.442-17.442 7.616 7.617c2.929 2.929 7.678 2.93 10.606 0 2.93-2.929 2.93-7.677.001-10.606l-10.725-10.725v-18.383l66.317 66.316zm-62.932-66.317v18.384l-23.655 23.655h-18.385zm-42.041 57.039h18.384l47.934 47.935v18.383zm81.318 66.317v-18.384l23.655-23.655h18.385z"/></g></g><g/><g/><g/><g/><g/><g/><g/><g/><g/><g/><g/><g/><g/><g/><g/></svg>