<svg id="Capa_1" enable-background="new 0 0 511.994 511.994" height="512" viewBox="0 0 511.994 511.994" width="512" xmlns="http://www.w3.org/2000/svg"><g><path d="m475.039 136.061-20.965-11.463-13.024 8.852-69.165 126.495c-2.334 4.268-6.811 6.923-11.676 6.923h-104.212-104.212c-4.865 0-9.342-2.655-11.676-6.923l-69.165-126.495-13.024-8.852-20.965 11.463.433 15.736c-.142.078-.289.138-.433.209l94.374 172.6c4.815 8.807 7.339 18.683 7.339 28.721v24.298 35.201 69.559c0 12.21 9.898 22.108 22.108 22.108h95.221 95.221c12.21 0 22.108-9.898 22.108-22.108v-69.559-35.201-24.298c0-10.037 2.524-19.914 7.339-28.721l94.374-172.6c-.144-.072-.291-.131-.433-.209z" fill="#544f57"/><g><path d="m475.039 136.061-20.965-11.463-13.024 8.852-9.256 16.928 4.062 2.846c6.977 4.888 9.163 14.241 5.076 21.715l-81.834 149.667c-4.815 8.807-7.339 18.683-7.339 28.721v24.298 35.201 69.559c0 12.21-9.898 22.108-22.108 22.108h21.568c12.21 0 22.108-9.898 22.108-22.108v-69.559-35.201-24.298c0-10.037 2.524-19.914 7.339-28.721l94.374-172.6c-.144-.072-.291-.131-.433-.209z" fill="#454045"/></g><path d="m140.109 259.945-69.165-126.495-13.024-8.852-12.142 6.639-8.823 4.824.433 15.736c-.142.078-.289.138-.433.209l15.415 28.192c.92-.319 1.814-.76 2.651-1.346l2.452-1.718c5.958-4.174 14.221-2.243 17.711 4.14l43.015 78.67c2.334 4.268 6.811 6.923 11.676 6.923h21.909c-4.864.002-9.341-2.653-11.675-6.922z" fill="#454045"/><path d="m502.554 132.496-16.702 23.838c-3.4 4.853-10.09 6.03-14.943 2.63l-35.641-24.972c-4.853-3.4-6.03-10.09-2.63-14.943l16.702-23.838c3.4-4.853 10.09-6.03 14.943-2.63l35.641 24.972c4.853 3.4 6.03 10.09 2.63 14.943z" fill="#f1d0a5"/><path d="m9.44 132.496 16.702 23.838c3.4 4.853 10.09 6.03 14.943 2.63l35.641-24.972c4.853-3.4 6.03-10.09 2.63-14.943l-16.701-23.838c-3.4-4.853-10.09-6.03-14.943-2.63l-35.642 24.972c-4.852 3.4-6.03 10.09-2.63 14.943z" fill="#f1d0a5"/><path d="m255.998 457.547 69.732-190.031h-139.464z" fill="#61a2f9"/><path d="m255.997 334.351c-17.19 0-31.125-13.935-31.125-31.125v-38.14h62.249v38.14c.001 17.19-13.934 31.125-31.124 31.125z" fill="#f1b986"/><path d="m175.543 158.136v86.799c0 18.572 15.056 33.628 33.628 33.628h93.652c18.572 0 33.628-15.056 33.628-33.628v-86.799l-19.646-20h-126.257z" fill="#f1d0a5"/><path d="m313.868 158.136h-138.326v15.906h110.53c15.351 0 27.795 12.444 27.795 27.795v43.098c0 18.572-15.056 33.628-33.628 33.628h22.584c18.572 0 33.628-15.056 33.628-33.628v-70.893-15.906z" fill="#f1b986"/><path d="m175.542 81.027h160.909v77.108h-160.909z" fill="#756e78"/><path d="m317.694 81.027h-142.152v31.013l78.818 32.947c1.047.438 2.226.438 3.273 0l45.916-19.193c6.725-2.811 14.145 2.129 14.145 9.418v22.923h18.757v-46.095-31.013z" fill="#665e66"/><path d="m254.361 129.743-136.469-57.046c-3.475-1.453-3.475-6.376 0-7.829l136.469-57.046c1.047-.438 2.226-.438 3.273 0l136.468 57.046c3.475 1.453 3.475 6.376 0 7.829l-136.468 57.046c-1.048.437-2.226.437-3.273 0z" fill="#544f57"/><path d="m394.102 64.868-136.469-57.046c-1.047-.438-2.226-.438-3.273 0l-17.459 7.298 119.01 49.748c3.475 1.452 3.475 6.376 0 7.829l-119.01 49.748 17.459 7.298c1.047.438 2.226.438 3.273 0l136.468-57.045c3.476-1.454 3.476-6.378.001-7.83z" fill="#454045"/><g><path d="m504.227 111.41-35.642-24.973c-8.229-5.767-19.62-3.761-25.389 4.47l-16.702 23.839c-5.403 7.711-3.983 18.194 2.985 24.229l-64.175 117.372c-1.02 1.863-2.972 3.021-5.096 3.021h-18.879c1.69-4.494 2.621-9.356 2.621-14.434 0-4.854 0-135.629 0-143.146l19.857-8.3v60.088c0 4.143 3.357 7.5 7.5 7.5s7.5-3.357 7.5-7.5v-66.357l18.185-7.602c4.383-1.833 7.215-6.086 7.214-10.836 0-4.75-2.832-9.002-7.214-10.833l-48.292-20.187c-3.819-1.599-8.215.206-9.813 4.027s.206 8.215 4.027 9.813l41.104 17.182-15.599 6.521c-.019.008-.037.015-.056.023l-112.368 46.971-128.021-53.516 128.023-53.515 58.876 24.611c3.821 1.594 8.215-.205 9.813-4.027 1.598-3.821-.206-8.215-4.027-9.813l-60.134-25.136c-2.878-1.203-6.179-1.203-9.057 0l-136.467 57.046c-4.382 1.831-7.214 6.083-7.214 10.833-.001 4.75 2.83 9.003 7.213 10.836l53.043 22.172v85.473c0 4.143 3.357 7.5 7.5 7.5s7.5-3.357 7.5-7.5v-21.627h145.909v79.3c0 14.407-11.722 26.128-26.129 26.128h-93.652c-14.407 0-26.128-11.721-26.128-26.128v-27.685c0-4.143-3.357-7.5-7.5-7.5s-7.5 3.357-7.5 7.5v27.686c0 5.077.931 9.939 2.621 14.434h-18.879c-2.124 0-4.076-1.158-5.096-3.021l-64.177-117.374c3.163-2.733 5.276-6.438 6.01-10.61.845-4.796-.229-9.633-3.023-13.62l-16.702-23.838c-5.767-8.23-17.157-10.236-25.389-4.47l-35.642 24.974c-8.231 5.768-10.235 17.157-4.469 25.389l16.703 23.837c3.998 5.706 10.674 8.468 17.29 7.614l87.459 159.956c4.199 7.68 6.419 16.367 6.419 25.122v57.944c0 4.143 3.357 7.5 7.5 7.5s7.5-3.357 7.5-7.5v-57.944c0-11.263-2.855-22.438-8.259-32.318l-87.26-159.59 19.551-13.699 63.329 115.822c3.65 6.677 10.646 10.825 18.256 10.825h28.701c.155.151.313.3.47.448l68.001 185.313c1.084 2.953 3.896 4.916 7.041 4.916s5.957-1.963 7.041-4.916l68.002-185.315c.157-.148.314-.296.468-.446h28.701c7.609 0 14.605-4.148 18.256-10.826l63.328-115.821 19.551 13.699-87.259 159.588c-5.403 9.882-8.26 21.058-8.26 32.319v129.058c0 8.055-6.553 14.608-14.607 14.608h-190.443c-8.055 0-14.608-6.554-14.608-14.608v-41.126c0-4.143-3.357-7.5-7.5-7.5s-7.5 3.357-7.5 7.5v41.126c0 16.326 13.282 29.608 29.608 29.608h190.442c16.325 0 29.607-13.282 29.607-29.608v-129.058c0-8.754 2.22-17.441 6.42-25.123l87.46-159.955c6.757.873 13.372-2.023 17.289-7.614l16.702-23.837s0-.001.001-.001c5.767-8.232 3.761-19.621-4.47-25.388zm-471.942 40.619-16.702-23.837c-1.021-1.458-.667-3.476.791-4.497l35.641-24.973c1.461-1.021 3.477-.667 4.498.792l16.701 23.838c1.022 1.458.667 3.476-.791 4.497l-35.641 24.972c-1.459 1.022-3.478.665-4.497-.792zm150.758-1.393v-42.576l68.421 28.601c2.878 1.205 6.179 1.208 9.063.002l68.426-28.603v42.576zm49.33 135.427h47.249v17.162c0 13.027-10.598 23.625-23.625 23.625-13.026 0-23.624-10.598-23.624-23.625zm23.625 149.712-55.257-150.584c2.722.569 5.541.872 8.429.872h8.202v17.162c0 21.298 17.326 38.625 38.624 38.625s38.625-17.327 38.625-38.625v-17.162h8.201c2.89 0 5.709-.303 8.432-.873zm240.414-307.583-16.702 23.837c-1.02 1.456-3.032 1.82-4.497.792l-35.641-24.972c-1.458-1.021-1.813-3.039-.792-4.497l16.701-23.838c1.027-1.464 3.048-1.809 4.498-.792l35.641 24.973c1.458 1.022 1.813 3.038.792 4.497z"/><path d="m232.373 203.971v-11.429c0-4.143-3.357-7.5-7.5-7.5s-7.5 3.357-7.5 7.5v11.429c0 4.143 3.357 7.5 7.5 7.5s7.5-3.358 7.5-7.5z"/><path d="m294.622 203.971v-11.429c0-4.143-3.357-7.5-7.5-7.5s-7.5 3.357-7.5 7.5v11.429c0 4.143 3.357 7.5 7.5 7.5s7.5-3.358 7.5-7.5z"/></g></g></svg>