<svg height="512" viewBox="0 0 350.069 350.069" width="512" xmlns="http://www.w3.org/2000/svg"><circle cx="175.985" cy="175.035" fill="#d0df92" r="134.02"/><g fill="#740806"><path d="m27.264 131.633-19.056-4.04 8.348-11.388zM29.513 196.705l-6.003 18.532-10.456-9.489z"/><path d="M35.652 115.405c5.228 19.842 3.802 30.178-20.302 31.607 11.274 12.599 19.067 24.96 3.24 39.818 18.325-3.271 27.205.731 22.682 18.728 0 0 3.106-5.041 3.659-10.606.685-6.895-2.285-14.024-14.146-15.212 5.446-10.574 2.119-22.574-6.871-29.515 14.812-.188 22.297-11.832 19.089-24.901 6.891 6.416 25.545 5.347 27.623-10.525-.002 0-10.499 20.092-34.974.606z"/><path d="m54.792 116.609-1.271-19.438 10.748 4.034z"/></g><path d="M201.159 240.317c-2.219 3.534-3.253 7.536-3.354 11.449-.079 2.944.342 5.862 1.145 8.688 1.209 4.238 3.27 8.283 5.994 11.961a41.333 41.333 0 0 0 10.113 9.66c3.976 2.668 8.545 4.7 13.551 5.704 3.75.754 7.741.92 11.822.354 6.127-.842 12.412-3.344 18.43-7.658 6.028-4.316 11.818-10.411 17.27-18.533 4.134-6.161 8.081-13.497 11.794-22.177 1.65-3.858 3.422-7.109 5.238-9.815 2.449-3.65 4.973-6.303 7.397-8.175 3.65-2.804 7.025-3.892 10.031-4.042 3.007-.135 5.734.69 8.049 2.236a13.9 13.9 0 0 1 4.841 5.691c1.095 2.364 1.617 5.119 1.277 8.235a7 7 0 0 0 6.19 7.726 7 7 0 0 0 7.726-6.19c.623-5.612-.326-11.018-2.501-15.68a27.902 27.902 0 0 0-9.732-11.408 27.207 27.207 0 0 0-10.581-4.234c-5.772-1-12.1-.109-18.046 2.902-5.961 3.004-11.516 8.04-16.276 15.136-2.358 3.513-4.53 7.538-6.486 12.112-3.422 8.003-6.982 14.571-10.546 19.881-4.179 6.228-8.359 10.718-12.318 13.84-2.972 2.344-5.815 3.926-8.499 4.945-4.029 1.52-7.71 1.82-11.18 1.326-3.463-.501-6.734-1.845-9.65-3.801a27.346 27.346 0 0 1-6.055-5.578c-2.543-3.158-4.199-6.74-4.76-9.83-.288-1.546-.314-2.958-.134-4.168.183-1.215.553-2.225 1.115-3.127a7 7 0 1 0-11.865-7.43z" fill="#fbb807"/><path d="M338.673 235.429c.623-5.612-.326-11.018-2.501-15.68a27.902 27.902 0 0 0-9.732-11.408 27.207 27.207 0 0 0-10.581-4.234c-5.772-1-12.1-.109-18.046 2.903-.034.017-.066.038-.1.055 2.632 3.848 4.828 7.989 6.602 12.356 2.228-1.093 4.33-1.593 6.275-1.69 3.007-.135 5.734.69 8.049 2.236a13.9 13.9 0 0 1 4.841 5.691c1.095 2.364 1.617 5.119 1.277 8.235a7.001 7.001 0 0 0 13.916 1.536z" fill="#fffcc8"/><path d="M311.256 203.716a27.208 27.208 0 0 1 15.184 4.626 27.901 27.901 0 0 1 9.732 11.408c2.175 4.661 3.124 10.067 2.5 15.68a7.001 7.001 0 0 1-7.725 6.189 7 7 0 0 1-6.189-7.727c.34-3.116-.182-5.871-1.277-8.235a13.906 13.906 0 0 0-4.842-5.69 13.179 13.179 0 0 0-7.411-2.25c-.211 0-.424.005-.638.015-3.006.149-6.381 1.237-10.03 4.041-2.424 1.872-4.948 4.525-7.397 8.176-1.816 2.706-3.589 5.957-5.238 9.815-3.713 8.68-7.659 16.016-11.793 22.177-5.453 8.123-11.242 14.218-17.271 18.534-6.019 4.314-12.303 6.816-18.431 7.658a35.285 35.285 0 0 1-11.822-.353c-5.005-1.005-9.574-3.036-13.551-5.705a41.31 41.31 0 0 1-10.112-9.66c-2.725-3.678-4.785-7.723-5.994-11.961-.803-2.825-1.225-5.744-1.145-8.688.101-3.913 1.136-7.915 3.354-11.449a6.993 6.993 0 0 1 9.647-2.217 7 7 0 0 1 2.217 9.648c-.563.902-.932 1.911-1.115 3.127-.18 1.21-.153 2.621.135 4.167.562 3.09 2.217 6.671 4.76 9.83a27.324 27.324 0 0 0 6.055 5.578c2.916 1.955 6.188 3.3 9.65 3.8 1.002.144 2.022.22 3.063.22 2.563 0 5.252-.464 8.116-1.545 2.684-1.02 5.527-2.602 8.499-4.945 3.959-3.122 8.14-7.611 12.318-13.84 3.564-5.311 7.124-11.878 10.546-19.881 1.956-4.574 4.128-8.599 6.485-12.112 4.76-7.097 10.315-12.132 16.276-15.136 4.4-2.228 9.008-3.296 13.444-3.295m0-3.001c-5.006 0-10.123 1.251-14.799 3.619-6.6 3.326-12.46 8.758-17.412 16.142-2.491 3.713-4.764 7.953-6.753 12.604-3.186 7.451-6.644 13.974-10.278 19.389-3.727 5.554-7.657 9.98-11.685 13.156-2.547 2.009-5.14 3.521-7.706 4.496-2.404.907-4.713 1.35-7.052 1.35-.87 0-1.759-.063-2.641-.189-2.916-.422-5.745-1.54-8.401-3.321a24.456 24.456 0 0 1-5.385-4.962c-2.142-2.66-3.652-5.753-4.15-8.491-.217-1.163-.257-2.262-.118-3.189.117-.779.338-1.411.693-1.981 2.924-4.668 1.503-10.851-3.17-13.777a9.99 9.99 0 0 0-5.302-1.526 9.95 9.95 0 0 0-8.481 4.693c-2.371 3.776-3.689 8.261-3.811 12.964-.085 3.123.339 6.349 1.258 9.584 1.291 4.527 3.467 8.875 6.469 12.928a44.136 44.136 0 0 0 10.852 10.365c4.54 3.047 9.463 5.117 14.633 6.155a38.371 38.371 0 0 0 12.824.384c6.845-.94 13.496-3.697 19.767-8.192 6.461-4.626 12.522-11.12 18.013-19.299 4.327-6.448 8.385-14.075 12.062-22.67 1.498-3.505 3.171-6.642 4.971-9.323 2.097-3.124 4.363-5.639 6.739-7.473 2.812-2.16 5.544-3.28 8.347-3.42.154-.007.322-.011.488-.011 2.079 0 4.012.587 5.745 1.745a10.893 10.893 0 0 1 3.788 4.462c.934 2.014 1.275 4.251 1.015 6.644a9.927 9.927 0 0 0 2.136 7.346 9.933 9.933 0 0 0 6.707 3.688 9.985 9.985 0 0 0 11.037-8.841c.666-5.998-.289-11.974-2.764-17.277a30.904 30.904 0 0 0-10.779-12.631 30.01 30.01 0 0 0-11.747-4.7 29.5 29.5 0 0 0-5.11-.441z" fill="#740806"/><g><path d="m287.142 247.451-40.073-29.789a122.32 122.32 0 0 0-3.879-12.635c11.416-.958 37.025-2.631 38.64 1.476.282.717 5.763 2.11 8.258 11.2 0 0 6.238.891 9.09-4.99 2.851-5.882-.847-8.789-4.634-13.188-2.232-2.593 1.239-4.453 5.703-5.703 5.94-1.663 12.475 3.09 19.723-5.108 7.247-8.198-1.426-13.545-1.426-13.545s-17.94 7.01-19.931 4.43c-.338-.438-.563-.976-.891-1.465 3.895-3.491 16.96-8.668 11.791-16.271-5.097-7.5-11.644-5.228-11.644-5.228s-7.496 15.521-9.029 14.554c-.539-.339-2.139-1.069-2.139-1.069s5.644-13.128 0-16.336-9.624 2.257-9.624 2.257l1.782 13.723s-.95 8.495-4.396 7.069c-15.451-6.393-52.634-19.723-68.031-15.749-.171.044-.328.097-.495.144-10.326-3.583-22.995-3.486-38.47 3.004 0 0-5.167 1.915-11.079 6.906-3.713-3.132-7.628-4.403-7.628-4.403s-25.188 15.921-53.299-8.438c.759-9.811-26.186-33.978-44.528-13.243-7.867 6.652-12.311 27.741-4.113 34.87 8.198 7.128 20.819 8.564 29.749 4.677 0 0 27.701 32.329 62.686 24.748-.181 10.836 2.245 24.046 8.925 40.071 1.864 4.47 4.197 8.237 6.888 11.394 3.611 16.504 8.12 37.2 8.12 37.2-33.392 3.271-24.467 28.317-24.399 28.935l55.801-2.485-2.216-50.807c14.598-1.604 29.564-8.479 40.423-17.734l56.011 25.76 37.412-29.769c-.001-.004-11.75-23.931-39.078-4.463z" fill="#fbb807"/><path d="M144.326 185.217c-6.08 2.151-13.262 15.568-13.262 15.568s-24.475 9.822-45.861-17.386c0 0-.399-9.91-1.636-11.756-8.344 18.172-23.588 12.585-33.132 10.885 7.988 4.805 18.431 5.424 26.134 2.07 0 0 27.534 32.129 62.369 24.811-.068-8.573 1.728-16.637 5.388-24.192zM321.435 255.716l4.784-3.806s-11.749-23.927-39.077-4.459l-40.073-29.789a122.32 122.32 0 0 0-3.879-12.635c11.416-.958 37.025-2.631 38.64 1.476.282.717 5.763 2.11 8.258 11.2 0 0 3.514.501 6.473-1.735-4.98-17.124-21.376-20.332-21.376-20.332l-28.158 1.069s-15.179-20.968-23.881-21.208c20.405 26.973 11.715 68.305 1.069 78.951-9.164 9.164-27.327 19.723-48 14.02.813 2.011 9.162 56.403 9.162 56.403l9.214-.41-2.216-50.807c14.598-1.604 29.564-8.479 40.423-17.734l1.018.468c10.122-4.791 18.438-20.949 18.438-20.949l25.663 17.109.475 6.891c0-.001 24.595-24.239 43.043-3.723z" fill="#f28a1c"/><path d="M202.575 181.172c-7.526-22.289-20.723-22.212-33.506-17.751-15.612 5.449-22.515 36.799-8.63 72.977 7.784 20.284 22.795 28.538 40.587 21.826 17.791-6.713 22.011-22.027 16.17-36.6z" fill="#fffcc8"/><path d="M328.913 250.588c-.276-.563-6.934-13.768-21.879-13.768-6.194 0-12.854 2.335-19.822 6.943l-37.494-27.871a124.038 124.038 0 0 0-2.414-8.182c5.825-.436 13.002-.846 19.347-.846 9.357 0 12.006.921 12.634 1.231.456.753 1.142 1.18 1.759 1.564 1.459.909 4.495 2.8 6.152 8.836l.521 1.897 1.948.278c.129.019.604.078 1.315.078 2.295 0 7.952-.656 10.897-6.729 3.389-6.99-.408-11.235-3.758-14.98-.265-.296-.534-.597-.806-.904.605-.35 1.73-.863 3.742-1.426.674-.189 1.436-.277 2.398-.277.827 0 1.704.064 2.634.132 1.039.076 2.114.154 3.25.154 3.519 0 8.162-.685 12.879-6.021 2.841-3.213 4.03-6.533 3.535-9.868-.752-5.074-5.137-7.91-5.634-8.217l-1.273-.784-1.393.544c-3.057 1.193-7.785 2.838-11.662 3.857 3.491-2.396 6.957-5.329 7.752-9.251.47-2.314-.051-4.604-1.547-6.806-4.06-5.973-9.109-6.864-11.759-6.865-1.847 0-3.114.408-3.35.49l-1.176.408-.542 1.121a165.118 165.118 0 0 1-3.016 5.926c.358-3.974-.362-8.031-3.969-10.081-1.636-.93-3.331-1.401-5.04-1.401-5.067 0-8.156 4.04-8.491 4.5l-.704.967.154 1.186 1.732 13.342c-.204 1.476-.645 3.086-1.058 3.95-6.857-2.795-41.198-16.362-61.579-16.362-2.721 0-5.131.247-7.172.736-4.58-1.481-9.428-2.232-14.425-2.232-7.903 0-16.397 1.878-25.247 5.584-.623.239-4.884 1.953-10.014 5.882-3.419-2.378-6.5-3.396-6.653-3.446l-1.339-.435-1.19.752c-.067.042-7.582 4.646-18.604 4.646-10.476 0-20.609-4.027-30.135-11.973-.374-3.367-2.534-7.365-6.121-11.241-5.25-5.673-14.437-11.735-24.475-11.737h-.004c-7.146 0-13.708 3.115-18.992 9.013a18.313 18.313 0 0 0-1.839 1.854l-.037-.022c-.048.078-.087.154-.134.232-4.019 4.772-6.624 12.198-6.674 19.51-.045 6.499 2.001 11.88 5.761 15.149a41.772 41.772 0 0 0 6.425 4.588s.602.427.935.526c5.125 2.799 10.619 4.375 15.661 4.375 2.386 0 4.66-.337 6.788-1.004 5.49 5.801 26.01 25.384 52.791 25.384 2.601 0 5.206-.189 7.783-.566.158 4.609.76 9.424 1.788 14.422.743 3.96 1.514 6.443 1.514 6.443l.019-.007c1.462 5.407 3.395 11.008 5.803 16.784 1.808 4.337 4.122 8.236 6.883 11.6 2.713 12.405 5.884 26.944 7.263 33.269-10.022 1.527-17.146 5.295-21.201 11.223-3.826 5.594-4.726 12.981-2.534 20.801l.006.022.282 2.583 2.81-.126 55.801-2.485 2.994-.134-.131-2.994-2.096-48.062c3.461-.531 6.96-1.351 10.434-2.416a52.55 52.55 0 0 0 3.422-1.138c8.605-3.065 16.916-7.634 23.911-13.28l54.296 24.971 1.678.771 1.444-1.149 37.412-29.769 1.89-1.503zM57.066 182.329c-.817 0-1.708-.118-2.67-.379a39.141 39.141 0 0 1-6.524-4.586c-5.178-4.503-5.729-13.553-3.452-21.287a12.637 12.637 0 0 0 1.602 4.031c1.736 2.836 4.42 4.947 7.293 6.377 2.882 1.425 5.961 2.181 8.665 2.186.174-.001.34-.018.511-.025.895.483 1.526 1.165 1.971 2.026.441.859.673 1.905.673 3.027.006 2.017-.767 4.243-2.162 5.885a7.755 7.755 0 0 1-2.519 1.985c-.98.478-2.097.759-3.388.76zm231.741 99.349-54.638-25.128c3.1-4.262 5.157-9.622 4.778-16.279 0 0-.147 12.56-15.829 22.597a80.758 80.758 0 0 1-6.486 3.552c-.696.324-1.413.644-2.153.957.013.009.024.022.037.031a77.73 77.73 0 0 1-13.339 4.654c-17.545 3.556-26.087-4.78-26.087-4.78 5.103 5.742 11.334 7.925 17.367 8.295l2.132 48.883-55.801 2.486c-.067-.618-8.993-25.664 24.399-28.936 0 0-4.509-20.696-8.12-37.2-2.69-3.156-5.024-6.923-6.888-11.394-2.45-5.876-4.322-11.37-5.709-16.511h.007c-.054-.181-.101-.36-.153-.541-1.153-4.362-1.952-8.466-2.446-12.324-1.875-16.937 2.433-30.017 2.433-30.017-3.655 6.137-5.133 13.171-5.497 19.781a50.684 50.684 0 0 1-8.31.692c-24.555 0-43.951-17.641-49.975-23.799 1.913-1.39 3.988-3.906 3.382-8.147 0 0-1.786 5.294-7.932 6.863l.055.036a19.928 19.928 0 0 1-5.109.666c-2.717 0-5.512-.497-8.26-1.392.381-.134.751-.287 1.105-.461 2.075-1.015 3.666-2.653 4.732-4.521 1.067-1.871 1.628-3.98 1.63-6.044 0-1.022-.154-2.031-.452-2.995a13.244 13.244 0 0 0 2.88 1.605 15.584 15.584 0 0 0 5.788 1.108c2.901.001 5.923-.813 8.484-2.719 2.563-1.901 4.605-4.893 5.578-8.996a1.5 1.5 0 1 0-2.918-.696c-.847 3.522-2.481 5.812-4.451 7.286-1.972 1.469-4.342 2.125-6.693 2.125a12.609 12.609 0 0 1-4.668-.892c-1.413-.567-2.613-1.381-3.445-2.311-.655-.732-1.08-1.421-1.345-2.064a4.773 4.773 0 0 1-.373-1.837c-.001-1.099.392-2.214 1.068-3.303 1.005-1.631 2.63-3.128 4.002-4.173a25.06 25.06 0 0 1 1.748-1.222c.221-.141.398-.247.518-.318l.133-.077.031-.017.005-.003c.665-.368.95-1.18.661-1.883a1.502 1.502 0 0 0-1.789-.873v-.001a6.996 6.996 0 0 1-1.652.192c-.73.002-1.559-.121-2.26-.471-.703-.358-1.316-.887-1.796-1.965a1.5 1.5 0 0 0-2.75 1.198c.732 1.702 1.95 2.841 3.218 3.456a7.16 7.16 0 0 0 1.097.423c-.2.169-.4.338-.602.521-1.106 1.004-2.232 2.214-3.113 3.63-.876 1.413-1.517 3.062-1.519 4.884a7.675 7.675 0 0 0 .315 2.165 8.193 8.193 0 0 1-1.855.192c-1.421.001-3.107-.279-4.803-.837-2.549-.833-5.116-2.292-6.977-4.217-1.866-1.937-3.035-4.264-3.041-7.065.001-1.977.602-4.251 2.115-6.84a15.205 15.205 0 0 1 1.659-1.66c5.213-5.894 11.119-8.159 16.889-8.158 14.53.002 28.183 14.379 27.64 21.401 12.186 10.559 23.819 13.549 33.092 13.549 12.12 0 20.207-5.11 20.207-5.11s3.916 1.271 7.628 4.403c5.912-4.991 11.079-6.906 11.079-6.906 8.955-3.756 16.969-5.37 24.134-5.37 5.217 0 9.985.856 14.336 2.366.167-.047.324-.1.495-.144 1.939-.501 4.223-.727 6.766-.727 17.65 0 47.76 10.888 61.266 16.476.267.111.518.162.756.162 2.83 0 3.64-7.23 3.64-7.23l-1.782-13.724s2.379-3.267 6.066-3.267c1.082 0 2.277.281 3.558 1.01 5.644 3.208 0 16.336 0 16.336s1.6.73 2.139 1.069l.154.044c1.825 0 8.875-14.598 8.875-14.598s.932-.324 2.366-.323c2.367 0 6.104.881 9.277 5.551 5.169 7.604-7.896 12.78-11.791 16.271.327.489.553 1.027.891 1.465.31.401 1.003.57 1.957.57 5.178 0 17.974-5 17.974-5s8.673 5.347 1.426 13.545c-3.728 4.216-7.266 5.007-10.632 5.007-2.022 0-3.982-.286-5.884-.286-1.088 0-2.157.094-3.207.388-4.464 1.25-7.936 3.11-5.703 5.703 3.787 4.399 7.484 7.307 4.634 13.188-2.188 4.514-6.371 5.038-8.198 5.038-.554 0-.892-.048-.892-.048-2.495-9.09-7.976-10.483-8.258-11.2-.791-2.014-7.352-2.638-15.18-2.638-6.856 0-14.675.478-20.45.921-3.281-8.456-9.123-19.209-18.921-25.283 0 0 9.847 9.624 15.984 25.518l-.073.006a125.94 125.94 0 0 1 2.839 8.727c.315 1.269.605 2.563.855 3.888a.576.576 0 0 1 .159-.083l.026.104 40.073 29.789c7.902-5.63 14.502-7.631 19.892-7.631 13.249 0 19.186 12.09 19.186 12.09z" fill="#740806"/></g><g><path d="M243.121 130.686c-1.172 3.289-3.545 3.85-5.953 2.329.559 3.763.296 7.405-1.741 9.91-1.652 2.033-3.429 2.393-4.959 1.505-13.124 19.436-59.493 29.539-59.493 29.539s-41.745-13.37-53.489-29.978c-1.689 1.646-3.845 1.622-5.835-.804-2.047-2.496-2.325-6.138-1.783-9.902-2.4 1.531-4.776.979-5.963-2.305-1.557-4.305 7.37-26.04 14.407-42-25.107-25.979-5.538-51.405-5.538-51.405l34.329 20.188c12.94-5.569 31.289-8.921 53.283-.408l33.744-20.036s19.606 25.251-5.184 51.287c6.893 17.059 15.279 38.985 14.175 42.08z" fill="#fbb807"/><path d="M239.556 121.121c-2.756-8.598-7.673-21.242-12.001-31.952l-.362-.896.667-.7c6.9-7.253 10.202-14.338 11.479-20.788 1.275-6.45.513-12.298-.873-17.022a40.923 40.923 0 0 0-3.566-8.46c-.462-.82-.874-1.48-1.203-1.981l-33.172 19.697-.681-.263c-6.527-2.524-12.71-3.981-18.513-4.639l.068.029c-5.784 5.981-7.697 19.302-7.697 19.302l17.46-15.286a954.9 954.9 0 0 0 7.375 2.937s17.42 12.454 23.325 49.44c9.365 2.554 14.701 6.702 17.694 10.582z" fill="#f28a1c"/><path d="M103.906 130.982c1.187 3.285 3.563 3.836 5.963 2.305-.542 3.764-.264 7.405 1.783 9.902 1.99 2.426 4.146 2.45 5.835.804 22.296 27.37 53.489 29.978 53.489 29.978s43.652-5.44 59.493-29.539c1.53.888 3.308.528 4.959-1.505 2.037-2.505 2.301-6.147 1.741-9.91 2.408 1.52 4.781.959 5.953-2.329a.949.949 0 0 0 .04-.182c.305-2.014-1.477-14.557-21.299-19.968-9.215-2.515-22.322-3.49-40.936-1.145 0 0-.874-24.197-11.447-24.173-10.575.022-11.83 24.262-11.83 24.262-40.287-4.549-56.261 14.538-53.744 21.5z" fill="#fffcc8"/><path d="M243.12 130.685c-1.172 3.289-3.545 3.85-5.953 2.329.559 3.763.296 7.405-1.741 9.91-1.652 2.033-3.429 2.393-4.959 1.505-15.84 24.099-59.493 29.539-59.493 29.539s-30.185-2.542-52.392-28.685c27.783 21.609 52.739 24.051 52.739 24.051s32.962-3.991 50.729-30.048c0 0 11.406.154 2.818-15.333 0 0 7.425 2.938 6.409-3.578-.723-4.631-6.682-9.011-6.682-9.011 17.915 5.985 18.957 18.112 18.525 19.321z" fill="#e5ba97"/><g fill="#740806"><path d="M182.507 76.765c2.659-4.947 7.618-11.398 15.038-10.222 8.094 1.281 11.877 9.226 13.541 14.696.282.927-.766 1.566-1.316.802a24.591 24.591 0 0 0-3.995-4.331c-6.933-5.898-16.051-5.075-22.114.249-.674.592-1.595-.369-1.154-1.194zM134.749 79.776c1.843-4.681 5.62-11.342 12.249-11.665 6.079-.296 9.475 5.919 11.158 10.571.281.776-.548 1.534-1.037.942-4.388-5.329-11.649-6.974-17.772-2.444a20.67 20.67 0 0 0-3.614 3.438c-.512.622-1.298-.049-.984-.842zM193.832 136.728c1.418-.753 2.684-1.58 3.762-2.491 1.028-.87 1.888-1.827 2.506-2.906.626-1.079 1.001-2.299.998-3.567a6.915 6.915 0 0 0-.413-2.283c4.171-.111 8.201-1.162 7.422-2.41-3.833.245-7.012.018-9.462-.346a1.88 1.88 0 0 0-.531-.083c-1.75-.286-3.096-.633-3.981-.905-1.155-.354-2.041 1.069-1.189 1.925.693.697 1.948 1.262 3.482 1.548.047.11.103.217.173.318.599.891.798 1.611.806 2.246-.006.554-1.282 2.816-1.915 3.397-1.119 1.017-2.736 2.032-4.711 2.952-2.958 1.38-6.658 2.878-10.768 3.379-8.932 1.089-8.91-3.37-8.91-3.37s-1.526-8.478-2.276-8.418c-.764.062-1.692 8.357-1.692 8.357s-.955 4.797-9.775 4.144c-3.394-.252-6.397-1.502-8.883-2.647-2.275-1.035-4.075-2.27-5.235-3.523-.58-.627-1.006-1.254-1.279-1.857a4.388 4.388 0 0 1-.404-1.804c.004-.738.194-1.533.691-2.446l.05-.134.086-.01c1.535-.231 2.797-.775 3.467-1.453.751-.761-.039-2.018-1.059-1.7-1.91.594-6.181 1.603-12.363 1.233-.637 1.031 2.416 1.894 5.822 2.075a8.163 8.163 0 0 0-.39 2.442 8.026 8.026 0 0 0 .734 3.312c.816 1.808 2.223 3.356 3.988 4.683 1.831 1.375 4.081 2.527 6.626 3.47l3.721 1.136 1.367 11.741-3.324 1.621s5.075 7.375 22.649 7.338 21.145-10.767 21.145-10.767z"/><path d="M207.624 109.81c-1.488 3.737-3.868 6.762-6.79 8.58 4.032-3.309 6.632-9.276 6.417-16.022-.321-10.113-6.817-18.116-14.513-17.872-7.693.244-13.669 8.64-13.351 18.756.02.625.064 1.24.13 1.848a25.934 25.934 0 0 1-.487-4.25c-.346-10.988 6.146-20.111 14.505-20.376 8.361-.269 15.419 8.427 15.767 19.416.113 3.587-.507 6.972-1.678 9.92z"/></g><path d="M200.833 118.39c-2.012 1.65-4.373 2.65-6.932 2.732-3.419.106-6.598-1.42-9.109-4.03-2.79-2.901-4.749-7.14-5.277-11.993a24.344 24.344 0 0 1-.13-1.848c-.318-10.116 5.658-18.512 13.351-18.756 7.696-.246 14.193 7.758 14.513 17.872.215 6.746-2.384 12.714-6.416 16.023z" fill="#fff"/><path d="M197.838 114.966c-1.308 1.18-2.842 1.895-4.506 1.954-2.222.075-4.289-1.017-5.921-2.886-1.813-2.076-3.087-5.11-3.431-8.584a19.64 19.64 0 0 1-.085-1.323c-.209-7.239 3.674-13.248 8.675-13.422 5.002-.174 9.226 5.554 9.435 12.793.142 4.829-1.547 9.1-4.167 11.468z" fill="#bccf00"/><path d="M196.123 111.053c-.848.768-1.845 1.232-2.925 1.27-1.443.048-2.785-.66-3.844-1.874-1.177-1.348-2.005-3.319-2.227-5.574a12.64 12.64 0 0 1-.056-.859c-.135-4.699 2.387-8.602 5.633-8.713 3.247-.114 5.99 3.606 6.126 8.306.091 3.135-1.006 5.907-2.707 7.444z" fill="#740806"/><path d="m196.802 92.082.026.002a4.102 4.102 0 0 1 3.981 5.533 4.105 4.105 0 0 1-2.624 2.468 4.12 4.12 0 0 1-1.06.2 4.103 4.103 0 0 1-4.261-3.939c-.015-.37.036-.723.114-1.067.402-1.766 1.929-3.12 3.824-3.197zM159.993 102.502a26.722 26.722 0 0 0-.118-1.594c-.936-9.575-6.751-16.898-13.487-16.633-7.103.28-12.535 8.896-12.127 19.241.326 8.24 4.259 15.077 9.435 17.384 1.323.589 2.723.898 4.17.842a8.727 8.727 0 0 0 1.308-.148c6.451-1.212 11.201-9.39 10.819-19.092z" fill="#fff"/><path d="M143.698 120.899c-2.368-.704-4.534-2.28-6.334-4.493-2.899-3.564-4.845-8.758-5.076-14.624-.436-11.091 5.383-20.328 13.003-20.629 7.616-.299 14.146 8.45 14.584 19.541l.001.212c-.936-9.575-6.751-16.898-13.487-16.633-7.103.28-12.535 8.896-12.127 19.241.326 8.241 4.258 15.079 9.436 17.385z" fill="#740806"/><path d="M154.05 115.838c-1.368 1.236-2.974 1.986-4.716 2.046-2.327.08-4.49-1.065-6.197-3.02-1.898-2.173-3.233-5.35-3.591-8.985a20.256 20.256 0 0 1-.089-1.385c-.218-7.577 3.847-13.867 9.08-14.047 5.235-.183 9.656 5.813 9.876 13.389.145 5.054-1.622 9.523-4.363 12.002z" fill="#bccf00"/><path d="M152.256 111.745c-.889.802-1.931 1.288-3.062 1.328-1.511.052-2.916-.692-4.024-1.961-1.232-1.411-2.098-3.474-2.333-5.834a13.175 13.175 0 0 1-.058-.899c-.141-4.919 2.498-9.003 5.897-9.121 3.399-.119 6.269 3.774 6.411 8.693.096 3.281-1.051 6.184-2.831 7.794z" fill="#740806"/><path d="m152.966 91.889.027.002a4.294 4.294 0 0 1 4.166 5.792 4.29 4.29 0 0 1-2.746 2.582 4.237 4.237 0 0 1-1.109.209 4.296 4.296 0 0 1-4.461-4.123 4.261 4.261 0 0 1 .12-1.118c.419-1.849 2.02-3.267 4.003-3.344z" fill="#fff"/><path d="M133.706 121.976c-5.248.01-9.504-1.425-9.508-3.206-.003-1.782 4.246-3.236 9.494-3.247 5.245-.011 9.502 1.424 9.506 3.206s-4.247 3.236-9.492 3.247zM208.913 121.817c-5.247.01-9.503-1.425-9.507-3.207s4.246-3.235 9.493-3.246c5.247-.01 9.503 1.425 9.507 3.207.003 1.781-4.248 3.235-9.493 3.246zM168.817 127.27c-7.506.016-30.186-12.753-.027-12.816s7.533 12.8.027 12.816z" fill="#e93e8f"/><path d="M165.898 118.967c.002 1.007-1.729 1.828-3.866 1.832s-3.871-.808-3.873-1.817c-.002-.361.223-.698.608-.982.687-.508 1.887-.848 3.257-.85 1.062-.002 2.025.198 2.725.523.707.331 1.147.787 1.149 1.294z" fill="#fff"/><path d="M184.624 149.049c-11.667-1.585-22.737 5.917-22.737 5.917 9.422 8.199 21.446 2.364 25.166-1.142 0 0 3.393-3.984-2.429-4.775z" fill="#e93e8f"/><path d="m233.972 46.23-22.308 18.651c8.749 7.823 14.3 19.93 14.3 19.93 18.678-16.791 8.008-38.581 8.008-38.581zM129.431 70.584c-4.268 5.974-7.745 14.448-7.745 14.448-16.042-14.3-10.347-32.072-8.658-37.194z" fill="#fffcc8"/><path d="m161.629 52.799-8.252 2.275c-1.081 8.26 9.365 18.129 9.365 18.129s-2.17-14.432-1.113-20.404z" fill="#f28a1c"/><path d="M105.265 130.223c.017.11.036.193.046.228l.007.019c.4 1.105.897 1.662 1.301 1.905.207.125.401.189.627.213.225.022.487.002.798-.089a4.06 4.06 0 0 0 1.018-.481l2.757-1.759-.466 3.237c-.337 2.32-.318 4.526.204 6.285.278.942.687 1.758 1.255 2.452.577.704 1.109 1.084 1.526 1.256.422.168.724.173 1.073.077.303-.088.655-.287 1.029-.652l1.325-1.291.989 1.563c3.386 5.351 8.34 9.893 13.901 13.67 8.338 5.668 18.017 9.599 25.595 12.09a134.127 134.127 0 0 0 9.364 2.712c1.155.288 2.072.498 2.698.636.312.069.55.119.711.152 1.394-.196 9.195-1.363 18.833-4.194 7.005-2.055 14.969-4.989 22.109-9.03 7.146-4.039 13.438-9.181 17.212-15.559l.759-1.278 1.285.746c.241.139.458.211.663.24.206.028.408.016.644-.053.448-.128 1.057-.505 1.734-1.34.811-.997 1.302-2.257 1.525-3.757.223-1.494.163-3.208-.103-4.986l-.48-3.235 2.765 1.747c.453.287.867.453 1.213.526.348.072.622.057.867-.014.267-.081.526-.229.816-.548.285-.315.585-.806.838-1.513a2.897 2.897 0 0 0 0-.645c-.042-.541-.176-1.333-.395-2.293a57.96 57.96 0 0 0-.895-3.367 117.08 117.08 0 0 0-.857-2.773c-2.993-3.878-8.329-8.026-17.694-10.583-5.906-36.986-23.325-49.44-23.325-49.44s-3.243-1.272-7.375-2.937l-17.46 15.286s1.912-13.32 7.697-19.302l-.068-.029a65.185 65.185 0 0 0-25.877 2.226 68.312 68.312 0 0 0-7.759 2.801l-.699.301-33.783-19.867c-.96 1.479-2.666 4.4-4.04 8.324-1.995 5.693-3.297 13.445-.763 22.079 1.668 5.676 4.994 11.766 10.978 17.961l.701.725-.407.923c-3.311 7.508-7.04 16.297-9.882 23.908-1.421 3.804-2.62 7.316-3.432 10.204-.406 1.443-.714 2.73-.906 3.804-.193 1.071-.262 1.938-.225 2.471v.007l.001.009c.006.097.013.171.022.223l.002.01z" fill="none"/><path d="m102.432 131.299.059.185.002.007c.418 1.153.989 2.107 1.747 2.823.752.717 1.711 1.165 2.698 1.261a4.79 4.79 0 0 0 1.214-.048c-.078 1.756.053 3.482.526 5.103.37 1.264.957 2.463 1.814 3.508.806.983 1.699 1.709 2.694 2.124a4.56 4.56 0 0 0 3.07.186c.297-.088.578-.212.851-.353 3.623 5.23 8.51 9.606 13.863 13.244 5.797 3.938 12.13 7.027 18.004 9.407 11.745 4.758 21.657 6.682 21.717 6.694l.239.047.241-.031c.052-.008 8.628-1.124 19.533-4.324 7.154-2.101 15.313-5.096 22.741-9.298 7.042-3.988 13.427-9.082 17.626-15.59.136.032.267.08.406.1a4.518 4.518 0 0 0 1.898-.146c1.205-.356 2.275-1.168 3.217-2.326 1.227-1.508 1.886-3.322 2.164-5.21.164-1.107.19-2.25.134-3.403a4.666 4.666 0 0 0 2.006-.121c.833-.243 1.594-.741 2.2-1.419.61-.679 1.083-1.528 1.439-2.528.19-.558.196-1.035.179-1.573a13.386 13.386 0 0 0-.221-1.779c-.24-1.316-.651-2.925-1.199-4.791-2.494-8.49-7.849-22.333-12.599-34.122 6.804-7.372 10.251-14.762 11.59-21.561 1.386-7.019.553-13.373-.938-18.449-2.246-7.637-5.959-12.421-6.03-12.517l-.812-1.046-34.273 20.35c-17.847-6.737-33.423-5.83-45.622-2.242a70.953 70.953 0 0 0-7.389 2.63L112.392 35.61l-.808 1.049c-.063.084-2.94 3.829-5.139 9.957-2.196 6.119-3.711 14.67-.912 24.206 1.738 5.928 5.153 12.207 11.006 18.463-4.272 9.725-9.137 21.357-11.953 29.989-.968 2.972-1.696 5.585-2.075 7.701-.214 1.207-.321 2.246-.266 3.176h-.001c.001.003.002.006.001.008v.008h.001c.009.16.023.335.055.528.03.191.068.388.131.604zm2.877-.844a1.994 1.994 0 0 1-.046-.228l-.001-.002-.002-.01a2.244 2.244 0 0 1-.022-.223l-.001-.009v-.007c-.037-.532.032-1.401.225-2.471.192-1.075.5-2.361.906-3.804.812-2.887 2.011-6.4 3.432-10.204 2.842-7.612 6.571-16.4 9.882-23.908l.407-.923-.701-.725c-5.984-6.195-9.31-12.285-10.978-17.961-2.533-8.633-1.231-16.385.763-22.079 1.374-3.924 3.08-6.845 4.04-8.324l33.783 19.867.699-.301a68.382 68.382 0 0 1 7.759-2.801 65.2 65.2 0 0 1 25.877-2.226c5.803.658 11.986 2.116 18.513 4.639l.681.263 33.172-19.697c.33.501.741 1.162 1.203 1.981a40.923 40.923 0 0 1 3.566 8.46c1.386 4.724 2.147 10.572.873 17.022-1.278 6.45-4.579 13.535-11.479 20.788l-.667.7.362.896c4.329 10.71 9.245 23.355 12.001 31.952.312.975.604 1.911.857 2.773a57.96 57.96 0 0 1 .895 3.367c.219.96.353 1.752.395 2.293.031.351.012.599 0 .645-.253.706-.553 1.198-.838 1.513-.29.319-.549.468-.816.548a1.747 1.747 0 0 1-.867.014c-.346-.072-.76-.24-1.213-.526L235.204 130l.481 3.236c.265 1.777.324 3.491.103 4.986-.223 1.499-.714 2.759-1.525 3.757-.678.834-1.286 1.21-1.734 1.34-.236.068-.438.08-.644.053a1.794 1.794 0 0 1-.663-.24l-1.285-.746-.759 1.278c-3.774 6.378-10.067 11.521-17.212 15.559-7.14 4.04-15.104 6.975-22.109 9.03-9.638 2.829-17.439 3.998-18.833 4.194-.161-.033-.4-.084-.711-.152-.625-.138-1.542-.348-2.698-.636a133.889 133.889 0 0 1-9.364-2.712c-7.578-2.492-17.257-6.422-25.595-12.09-5.561-3.777-10.515-8.319-13.901-13.67l-.989-1.563-1.325 1.291c-.375.364-.726.563-1.029.652-.349.096-.651.091-1.073-.077-.416-.172-.949-.552-1.526-1.256-.568-.694-.978-1.51-1.255-2.452-.522-1.759-.541-3.965-.204-6.285l.466-3.237-2.757 1.759a4.06 4.06 0 0 1-1.018.481c-.311.091-.572.113-.798.089s-.421-.088-.627-.213c-.404-.243-.901-.8-1.301-1.905zM102.302 130.701l-.001-.006-.001-.006z" fill="#740806"/><path d="M154.773 53.772c-1.85-1.699-3.003-4.521-1.975-6.991 2.95-7.084 21.754 5.879 22.357 6.237 1.093 5.227-9.338 11.178-14.858 10.687-4.307-.383-3.742-4.332-2.682-5.477 1.184-1.281 3.338-1.38 3.338-1.38s-3.667-.769-6.18-3.076z" fill="#fbb807"/><path d="M160.992 66.477c-.32 0-.635-.013-.936-.039-2.689-.239-4.709-1.611-5.539-3.764-.735-1.903-.389-3.945.41-5.369a13.528 13.528 0 0 1-2.007-1.512c-2.466-2.261-4.243-6.251-2.654-10.066.59-1.417 2.187-3.795 6.249-3.803 5.577-.011 13.868 4.672 19.842 8.602l.201.134 1.037.617.246 1.18c.222 1.061-2.576 1.293-2.576 1.293-.476-.282-12.323-9.095-18.746-9.082-1.741.004-3.092.602-3.722 2.113-1.027 2.47.125 5.293 1.975 6.991 2.512 2.307 6.18 3.076 6.18 3.076s-2.153.099-3.338 1.38c-1.059 1.146-1.625 5.094 2.682 5.477.22.02.449.03.685.029 2.86-.006 6.72-1.465 9.704-3.554.424.847-5.979 6.291-9.693 6.297z" fill="#740806"/></g><g><path d="M317.612 139.771c.158-.425.292-.866.403-1.322s.202-.911.273-1.367.12-.885.145-1.291c.115-1.193.225-2.382.334-3.565a69.99 69.99 0 0 0 .232-3.591 17.573 17.573 0 0 0 2.639-.802 20.011 20.011 0 0 0 2.715-1.286c.879-.499 1.687-1.064 2.425-1.693s1.348-1.316 1.83-2.059c.326-.501.463-.987.411-1.456-.052-.47-.347-.878-.885-1.229-.501-.325-1.117-.414-1.845-.267-.729.148-1.47.393-2.22.737a25.59 25.59 0 0 0-2.206 1.142c-.72.417-1.315.724-1.785.921-.775.341-1.606.633-2.489.878-.886.244-1.741.414-2.569.51a87.761 87.761 0 0 0 2.361-3.456c.265-.408.601-.916 1.009-1.523.407-.606.742-1.234 1.004-1.882s.382-1.27.359-1.865-.322-1.08-.898-1.454c-.372-.241-.74-.375-1.106-.4a2.486 2.486 0 0 0-1.071.156c-.349.13-.672.323-.969.578a5.07 5.07 0 0 0-.8.867 205.176 205.176 0 0 0-3.08 4.257 424.974 424.974 0 0 0-2.997 4.312 53.514 53.514 0 0 1-2.397 3.175 36.182 36.182 0 0 0-2.324 3.184l-.145.223a6.217 6.217 0 0 0-.593 1.159 3.38 3.38 0 0 0-.239 1.191c-.005.393.075.768.239 1.125.164.358.459.675.887.952.464.3.939.424 1.423.369s.944-.213 1.376-.473c.433-.26.832-.581 1.199-.964.367-.381.689-.746.967-1.094.387-.515.792-1.016 1.216-1.507.424-.49.801-1.011 1.133-1.562l2.34.055c-.147 1.04-.283 2.073-.409 3.1s-.247 2.058-.362 3.091c-.057.412-.108.907-.153 1.485s-.038 1.157.022 1.736a6.13 6.13 0 0 0 .379 1.613c.194.494.503.88.931 1.158.538.349 1.043.446 1.514.289.471-.156.875-.494 1.213-1.014a5.72 5.72 0 0 0 .563-1.141zm-5.948-24.113a9.187 9.187 0 0 0 .702-2.79c.08-.938-.038-1.833-.355-2.686s-.932-1.574-1.841-2.165c-.929-.603-1.911-.95-2.947-1.042s-2.078-.002-3.124.269a12.885 12.885 0 0 0-3.103 1.272c-1.022.578-1.986 1.24-2.891 1.985s-1.735 1.533-2.485 2.365a19.595 19.595 0 0 0-1.887 2.418 20.196 20.196 0 0 0-1.911 3.768c-.515 1.343-.795 2.679-.84 4.008-.045 1.331.2 2.599.737 3.805s1.474 2.244 2.811 3.112c.52.337 1.173.603 1.958.796a8.43 8.43 0 0 0 2.38.238 7.093 7.093 0 0 0 2.256-.456c.703-.269 1.247-.701 1.633-1.296a2.13 2.13 0 0 0 .332-1.427c-.055-.524-.296-.926-.724-1.203a5.213 5.213 0 0 0-1.191-.574c-.422-.143-.85-.268-1.28-.376a17.48 17.48 0 0 1-1.266-.367 5.002 5.002 0 0 1-1.177-.566c-.557-.361-.873-.81-.947-1.347s-.026-1.099.145-1.687c.17-.588.417-1.161.739-1.718s.609-1.03.862-1.42c.192-.297.461-.671.806-1.121.345-.449.73-.912 1.158-1.387.427-.475.885-.936 1.374-1.384.489-.449.974-.82 1.456-1.115.481-.294.95-.486 1.402-.574a1.613 1.613 0 0 1 1.237.229c.334.217.477.475.428.773-.049.299-.178.63-.389.995-.211.364-.441.75-.69 1.155-.25.406-.425.827-.523 1.264-.099.437-.066.874.099 1.312.164.437.572.866 1.223 1.288.427.278.861.401 1.303.371a3.13 3.13 0 0 0 1.267-.366c.402-.213.772-.489 1.109-.824s.619-.679.848-1.032c.483-.744.918-1.578 1.306-2.5zm-20.991-10.239c.036.472-.025.993-.183 1.563-.16.57-.387 1.155-.684 1.754-.296.599-.608 1.15-.933 1.652-.265.409-.62.903-1.064 1.487a13.383 13.383 0 0 1-1.436 1.602c-.513.485-1.023.853-1.529 1.106-.507.252-.965.245-1.373-.021-.353-.229-.552-.582-.598-1.061-.046-.478.016-1.032.187-1.661.17-.628.424-1.295.763-1.999s.718-1.381 1.141-2.031c.373-.576.781-1.123 1.223-1.641.441-.519.894-.95 1.357-1.298.462-.346.909-.577 1.341-.693s.824-.059 1.177.17c.37.242.574.599.611 1.071zm-7.369 15.41c1.255-.004 2.496-.308 3.72-.912s2.398-1.459 3.524-2.563 2.159-2.38 3.099-3.828c.844-1.3 1.581-2.67 2.212-4.108.63-1.439 1.039-2.843 1.228-4.211.189-1.369.084-2.651-.314-3.847-.399-1.195-1.21-2.191-2.436-2.987-1.263-.82-2.572-1.181-3.928-1.085-1.357.097-2.681.491-3.975 1.182s-2.518 1.612-3.674 2.762-2.156 2.377-2.999 3.676a22.702 22.702 0 0 0-2.182 4.246c-.551 1.438-.863 2.812-.935 4.125s.125 2.522.593 3.631 1.268 2.031 2.401 2.767c1.187.771 2.41 1.155 3.666 1.152zm-2.709-20.684c.343-.57.688-1.203 1.036-1.901.347-.698.676-1.428.987-2.191.309-.762.531-1.49.664-2.182.132-.692.146-1.323.042-1.894-.106-.569-.391-1.006-.855-1.307a1.568 1.568 0 0 0-1.26-.223c-.451.103-.906.317-1.365.638s-.911.722-1.353 1.201c-.443.478-.859.967-1.249 1.466s-.741.978-1.051 1.437a80.835 80.835 0 0 0-1.88 2.896c-.389.619-.773 1.241-1.152 1.866l-.398.613-.208.32a3.695 3.695 0 0 0-.168.288 7.816 7.816 0 0 1-.319.524c.069-.351.138-.662.209-.933.058-.252.114-.481.167-.684.052-.203.081-.329.087-.378.3-1.073.582-2.137.845-3.193.263-1.057.521-2.124.771-3.202.122-.554.28-1.245.472-2.069.192-.826.312-1.66.356-2.501a8.704 8.704 0 0 0-.181-2.375c-.167-.741-.537-1.298-1.113-1.672-.594-.386-1.293-.449-2.093-.191-.802.259-1.641.717-2.517 1.376a21.18 21.18 0 0 0-2.637 2.386c-.883.933-1.71 1.86-2.481 2.785a44.157 44.157 0 0 0-2.018 2.591 54.763 54.763 0 0 0-1.277 1.844c-.18.278-.412.656-.695 1.132a22.926 22.926 0 0 0-1.667 3.451 9.081 9.081 0 0 0-.507 1.849c-.091.588-.082 1.122.029 1.603.109.481.379.859.806 1.137l.083.054c.191.071.362.144.514.215.151.072.34.116.568.131.406.026.811-.08 1.218-.319a6.042 6.042 0 0 0 1.145-.88c.357-.348.696-.716 1.013-1.103s.597-.728.84-1.02a21.634 21.634 0 0 0 1.709-2.237c.522-.783 1.042-1.574 1.56-2.372l.506-.78a79.19 79.19 0 0 0-.703 3.523 318.837 318.837 0 0 1-.647 3.56 23.61 23.61 0 0 0-.262 1.928c-.071.72-.074 1.436-.01 2.151s.222 1.386.476 2.012.658 1.121 1.216 1.482c.594.386 1.265.471 2.012.256.746-.215 1.515-.606 2.307-1.175s1.584-1.262 2.379-2.079a40.287 40.287 0 0 0 2.222-2.478 47.165 47.165 0 0 0 1.818-2.343 46.18 46.18 0 0 0 1.186-1.705c.206-.317.479-.76.823-1.328zm-24.439-.262c.158-.425.292-.866.404-1.322.111-.456.202-.912.273-1.367.071-.456.119-.885.145-1.292.115-1.193.225-2.381.334-3.564.108-1.183.185-2.38.232-3.591.827-.176 1.707-.443 2.639-.802s1.837-.787 2.715-1.286a15.594 15.594 0 0 0 2.425-1.692 9.521 9.521 0 0 0 1.831-2.059c.325-.502.462-.987.411-1.456-.052-.469-.348-.878-.886-1.228-.501-.325-1.117-.414-1.845-.267-.729.147-1.469.392-2.22.736s-1.486.724-2.206 1.142c-.72.417-1.316.725-1.785.921-.776.341-1.606.633-2.49.878a17.07 17.07 0 0 1-2.569.51 88.511 88.511 0 0 0 2.361-3.456c.266-.409.602-.916 1.009-1.523s.742-1.234 1.004-1.882c.262-.647.382-1.269.36-1.865-.024-.596-.322-1.08-.898-1.454-.372-.241-.741-.375-1.106-.4a2.5 2.5 0 0 0-1.071.155c-.349.13-.672.323-.97.578a5.064 5.064 0 0 0-.8.866 214.663 214.663 0 0 0-3.08 4.257 414.05 414.05 0 0 0-2.997 4.312 52.765 52.765 0 0 1-2.397 3.175 36.112 36.112 0 0 0-2.324 3.183l-.144.223c-.242.372-.44.758-.594 1.159a3.38 3.38 0 0 0-.239 1.191 2.57 2.57 0 0 0 .24 1.125c.164.358.459.674.886.952.464.301.939.424 1.424.369a3.367 3.367 0 0 0 1.375-.472c.433-.26.832-.581 1.2-.964.366-.382.688-.747.967-1.094.386-.515.791-1.017 1.215-1.507.424-.491.801-1.011 1.133-1.563l2.34.055a160.963 160.963 0 0 0-.408 3.1 303.491 303.491 0 0 0-.363 3.09c-.056.413-.108.907-.153 1.485s-.038 1.157.022 1.736c.059.58.185 1.118.379 1.612.193.495.503.881.931 1.159.538.349 1.043.446 1.514.289.471-.156.876-.494 1.213-1.014.219-.333.406-.712.563-1.138z" fill="#fffcc8"/><g fill="#740806"><path d="M290.061 104.348a1.363 1.363 0 0 0-.756-.229c-.136 0-.276.02-.421.059-.432.116-.879.347-1.341.693a8.477 8.477 0 0 0-1.356 1.298 15.645 15.645 0 0 0-1.224 1.641c-.422.65-.802 1.327-1.141 2.031s-.593 1.371-.763 1.999c-.171.628-.233 1.183-.188 1.661.046.479.245.833.599 1.061.209.136.432.205.667.205.224 0 .459-.062.706-.184.506-.252 1.016-.621 1.528-1.105.514-.486.992-1.02 1.437-1.603.444-.583.8-1.078 1.064-1.487.325-.502.637-1.053.933-1.652.297-.599.524-1.184.684-1.754.158-.57.22-1.092.184-1.563-.037-.472-.241-.829-.612-1.071z"/><path d="M332.001 121.007c-.087-.784-.492-2.278-2.23-3.409a5.11 5.11 0 0 0-2.834-.821 6.34 6.34 0 0 0-1.239.127 13.22 13.22 0 0 0-2.88.951c-.192.088-.385.179-.577.272.375-.986.547-1.973.51-2.937-.062-1.579-.865-2.948-2.263-3.855-.801-.52-1.653-.815-2.531-.876a5.513 5.513 0 0 0-2.669.477 9.016 9.016 0 0 0-.466-1.799c-.545-1.465-1.561-2.688-3.018-3.635-1.342-.871-2.794-1.379-4.317-1.515a11.923 11.923 0 0 0-1.052-.046c-1.025 0-2.064.134-3.088.399-1.11.288-2.214.715-3.289 1.273.25-1.821.102-3.57-.44-5.2-.618-1.853-1.846-3.385-3.648-4.556-1.621-1.051-3.349-1.584-5.137-1.584-.212 0-.424.007-.638.022a12.683 12.683 0 0 0-4.176 1.043c.082-.306.151-.607.208-.903.201-1.059.217-2.067.046-3-.261-1.397-1.012-2.529-2.174-3.282a4.595 4.595 0 0 0-3.569-.628c-.819.188-1.633.56-2.409 1.104l-.145.104a11.651 11.651 0 0 0-.257-3.025c-.339-1.509-1.17-2.729-2.405-3.532a5.156 5.156 0 0 0-2.813-.831c-.6 0-1.217.101-1.834.299l-.092.031c.001-.2-.01-.384-.028-.549-.15-1.365-.944-2.578-2.234-3.416a5.112 5.112 0 0 0-2.832-.82c-.401 0-.818.043-1.238.127-.955.192-1.923.512-2.879.95-.193.089-.387.18-.579.273.375-.983.547-1.969.511-2.934-.063-1.584-.866-2.953-2.263-3.858-.801-.52-1.652-.815-2.53-.876a5.52 5.52 0 0 0-2.331.338 6.21 6.21 0 0 0-1.87 1.109 8.141 8.141 0 0 0-1.271 1.375 212.408 212.408 0 0 0-3.11 4.299 407.194 407.194 0 0 0-3.019 4.344 49.93 49.93 0 0 1-2.248 2.976 39.362 39.362 0 0 0-2.515 3.445l-.146.227a9.295 9.295 0 0 0-.876 1.713 6.343 6.343 0 0 0-.438 2.237c-.01.838.164 1.652.518 2.416.398.87 1.064 1.616 1.974 2.208.887.575 1.839.866 2.833.866.188 0 .378-.011.568-.033a6.37 6.37 0 0 0 2.576-.88 8.758 8.758 0 0 0 1.48-1.123c-.03.288-.058.596-.083.921a12.63 12.63 0 0 0 .029 2.276c.086.847.278 1.656.57 2.4a5.392 5.392 0 0 0 2.089 2.579c.865.562 1.773.846 2.701.846a4.4 4.4 0 0 0 1.197-.166 4.777 4.777 0 0 0 1.858 2.224l.077.051.281.183.313.117c.106.04.202.08.286.12a4.53 4.53 0 0 0 1.639.408c.114.007.218.011.322.011.904 0 1.785-.248 2.617-.737.201-.118.399-.246.593-.382.009.279.025.558.051.834a9.99 9.99 0 0 0 .684 2.869 6.073 6.073 0 0 0 2.364 2.873 5.26 5.26 0 0 0 2.87.854 5.82 5.82 0 0 0 1.603-.232c.995-.287 1.998-.775 2.987-1.453-.013.144-.022.287-.03.43-.099 1.767.179 3.437.824 4.965.703 1.666 1.892 3.051 3.531 4.116 1.674 1.086 3.453 1.637 5.289 1.637 1.604-.005 3.179-.358 4.698-1.051l-.007.181a11.514 11.514 0 0 0 .995 5.127c.774 1.739 2.093 3.222 3.918 4.407.8.519 1.767.919 2.875 1.192a11.434 11.434 0 0 0 3.224.322c.437-.019.866-.063 1.286-.133a5.7 5.7 0 0 0 .366 1.059c.4.875 1.066 1.621 1.977 2.212.89.576 1.842.866 2.834.866.188 0 .375-.011.563-.032a6.398 6.398 0 0 0 2.581-.881 8.798 8.798 0 0 0 1.479-1.122c-.029.284-.058.589-.083.922-.059.753-.049 1.518.028 2.272.086.845.277 1.652.568 2.399a5.4 5.4 0 0 0 2.094 2.583c.863.561 1.771.845 2.7.845.473 0 .941-.076 1.392-.226 1.112-.368 2.075-1.138 2.783-2.226a8.766 8.766 0 0 0 .859-1.735c.195-.527.365-1.083.504-1.651.132-.546.24-1.089.323-1.617.082-.529.14-1.038.172-1.513.113-1.181.223-2.358.331-3.53.047-.515.088-1.037.124-1.564a23.203 23.203 0 0 0 3.956-1.781 18.89 18.89 0 0 0 2.889-2.018 12.59 12.59 0 0 0 2.402-2.71c.892-1.365.97-2.615.88-3.423zm-74.457-32.26a69.955 69.955 0 0 1-.231 3.59 1009.94 1009.94 0 0 1-.335 3.564c-.025.407-.073.836-.145 1.292a17.03 17.03 0 0 1-.273 1.367c-.112.456-.245.897-.403 1.322a5.764 5.764 0 0 1-.562 1.14c-.338.52-.742.858-1.213 1.014a1.423 1.423 0 0 1-.447.072c-.339 0-.695-.121-1.066-.362a2.375 2.375 0 0 1-.932-1.159c-.193-.495-.319-1.033-.379-1.612s-.066-1.159-.021-1.736.096-1.072.152-1.485c.116-1.033.236-2.063.363-3.09.125-1.027.261-2.061.407-3.1l-2.34-.055a11.284 11.284 0 0 1-1.133 1.563c-.424.49-.829.992-1.215 1.507-.279.348-.602.712-.968 1.094a5.873 5.873 0 0 1-1.2.964c-.433.26-.891.417-1.375.472l-.226.013c-.407 0-.807-.127-1.198-.382-.428-.278-.723-.594-.886-.952a2.57 2.57 0 0 1-.24-1.125c.004-.394.084-.791.238-1.191.154-.401.353-.787.595-1.16l.144-.223a36.02 36.02 0 0 1 2.324-3.183 53.106 53.106 0 0 0 2.397-3.176c.989-1.443 1.988-2.88 2.996-4.312 1.008-1.43 2.035-2.85 3.08-4.257.235-.322.502-.61.8-.866.298-.255.621-.448.97-.578.289-.108.583-.162.884-.162l.188.007c.365.025.733.158 1.105.4.576.374.874.858.898 1.454.021.596-.099 1.217-.36 1.865a10.356 10.356 0 0 1-1.004 1.882c-.407.607-.743 1.115-1.009 1.523a89.632 89.632 0 0 1-2.361 3.456 17.034 17.034 0 0 0 2.568-.51 18.481 18.481 0 0 0 2.49-.878c.47-.196 1.065-.503 1.785-.921s1.454-.797 2.206-1.142a10.153 10.153 0 0 1 2.22-.736c.228-.045.443-.068.647-.068.454 0 .854.112 1.198.336.538.349.834.759.886 1.228.052.47-.085.955-.41 1.457a9.571 9.571 0 0 1-1.831 2.059 15.642 15.642 0 0 1-2.425 1.692c-.879.499-1.784.928-2.716 1.286s-1.81.626-2.637.802zm14.624 21.33c-.792.569-1.562.96-2.307 1.175a2.792 2.792 0 0 1-.773.115c-.444 0-.857-.124-1.238-.371-.558-.362-.962-.856-1.216-1.482s-.412-1.297-.476-2.012a11.285 11.285 0 0 1 .01-2.151c.07-.719.158-1.363.262-1.928.226-1.201.44-2.387.647-3.56s.44-2.347.703-3.523l-.507.78a249.95 249.95 0 0 1-1.56 2.372 21.741 21.741 0 0 1-1.709 2.237c-.243.292-.523.631-.84 1.02-.317.388-.656.755-1.014 1.104s-.74.642-1.145.88c-.367.215-.732.323-1.098.323l-.12-.004a1.568 1.568 0 0 1-.567-.131 6.862 6.862 0 0 0-.514-.215l-.084-.054a1.792 1.792 0 0 1-.806-1.137c-.111-.481-.121-1.014-.029-1.603a8.97 8.97 0 0 1 .507-1.849 22.926 22.926 0 0 1 1.667-3.452c.282-.476.514-.854.694-1.132.277-.427.702-1.042 1.276-1.844a43.451 43.451 0 0 1 2.019-2.591 59.74 59.74 0 0 1 2.48-2.784 21.119 21.119 0 0 1 2.638-2.387c.876-.659 1.715-1.117 2.517-1.375.321-.104.626-.155.914-.155.43 0 .822.115 1.179.346.575.375.946.931 1.112 1.672s.226 1.533.181 2.375a14.34 14.34 0 0 1-.356 2.501c-.192.825-.35 1.515-.472 2.069a218.045 218.045 0 0 1-.771 3.202 115.74 115.74 0 0 1-.845 3.193 4.409 4.409 0 0 1-.087.378c-.053.203-.108.432-.167.684-.071.271-.14.582-.209.933.156-.241.263-.416.319-.523.057-.109.113-.205.168-.288l.207-.32.398-.613a148.223 148.223 0 0 1 2.312-3.685c.169-.26.408-.619.719-1.077s.661-.938 1.052-1.437c.39-.499.805-.988 1.248-1.466.443-.479.895-.879 1.354-1.201s.914-.535 1.365-.638a1.573 1.573 0 0 1 1.26.224c.464.301.749.738.854 1.307.105.571.091 1.201-.041 1.894-.133.692-.354 1.42-.664 2.183-.312.762-.64 1.492-.986 2.19a27.404 27.404 0 0 1-1.036 1.901 52.889 52.889 0 0 1-.822 1.327 46.18 46.18 0 0 1-1.186 1.705 47.774 47.774 0 0 1-1.818 2.343 40.288 40.288 0 0 1-2.223 2.479 18.058 18.058 0 0 1-2.376 2.076zm14.856 9.84c-1.224.604-2.465.909-3.72.913h-.012c-1.252 0-2.471-.384-3.655-1.153-1.133-.736-1.934-1.658-2.401-2.767-.469-1.109-.666-2.319-.593-3.631.073-1.313.384-2.687.936-4.125a22.612 22.612 0 0 1 2.182-4.246 22.391 22.391 0 0 1 2.999-3.676c1.155-1.15 2.38-2.071 3.674-2.762 1.293-.691 2.617-1.085 3.975-1.182.143-.01.284-.015.426-.015 1.205 0 2.372.367 3.503 1.1 1.226.796 2.037 1.792 2.436 2.987.398 1.196.503 2.479.314 3.848-.189 1.368-.599 2.772-1.229 4.211a28.815 28.815 0 0 1-2.211 4.107 22.427 22.427 0 0 1-3.1 3.829c-1.126 1.103-2.301 1.958-3.524 2.562zm15.733 9.341c-.387.595-.93 1.026-1.633 1.296s-1.456.422-2.256.456a8.418 8.418 0 0 1-2.381-.238c-.784-.193-1.438-.458-1.957-.795-1.338-.868-2.274-1.906-2.812-3.112s-.782-2.474-.737-3.805c.045-1.33.325-2.666.84-4.008s1.151-2.598 1.911-3.769a19.425 19.425 0 0 1 1.887-2.418c.75-.832 1.58-1.621 2.485-2.365a20.178 20.178 0 0 1 2.892-1.985 12.844 12.844 0 0 1 3.103-1.272 9.307 9.307 0 0 1 2.337-.303c.263 0 .525.012.787.035 1.036.092 2.018.439 2.947 1.042.909.591 1.523 1.313 1.841 2.165.317.854.436 1.748.355 2.686a9.251 9.251 0 0 1-.702 2.791 16.005 16.005 0 0 1-1.306 2.499c-.229.353-.512.697-.849 1.032s-.707.611-1.108.824a3.13 3.13 0 0 1-1.268.366l-.128.004c-.397 0-.789-.125-1.175-.376-.651-.422-1.059-.851-1.223-1.288a2.242 2.242 0 0 1-.1-1.312c.099-.438.273-.858.523-1.265.249-.404.479-.791.69-1.155.211-.365.34-.697.389-.996.048-.298-.095-.556-.429-.773a1.584 1.584 0 0 0-.88-.264c-.116 0-.235.012-.357.036-.453.088-.922.28-1.402.574a9.555 9.555 0 0 0-1.456 1.115 20.59 20.59 0 0 0-1.374 1.384c-.427.475-.813.938-1.157 1.386-.345.45-.613.823-.806 1.121-.254.39-.541.863-.862 1.42-.322.557-.568 1.13-.739 1.718s-.219 1.15-.145 1.687c.073.537.39.985.946 1.347.371.241.764.43 1.178.566.412.137.835.259 1.266.367s.858.233 1.28.376c.423.141.819.333 1.191.574.428.277.669.679.724 1.203a2.115 2.115 0 0 1-.33 1.429zm2.722-6.116a48.87 48.87 0 0 1-1.013 1.314 4.651 4.651 0 0 0-.469-.346 8.238 8.238 0 0 0-1.871-.902 19.466 19.466 0 0 0-1.499-.44c-.366-.091-.72-.194-1.056-.305l-.015-.005c.102-.325.245-.648.428-.964.298-.516.561-.948.78-1.286.106-.164.306-.453.672-.931l.153-.197c.054.236.125.469.212.699.397 1.059 1.183 1.958 2.397 2.746.413.268.84.474 1.281.617zm23.13-.346c-.481.744-1.092 1.43-1.83 2.059s-1.546 1.193-2.425 1.693c-.878.499-1.784.928-2.716 1.286-.933.359-1.812.626-2.639.802a71.03 71.03 0 0 1-.231 3.59c-.109 1.184-.22 2.373-.335 3.565a16.118 16.118 0 0 1-.419 2.658c-.11.456-.245.897-.402 1.322a5.737 5.737 0 0 1-.562 1.14c-.338.52-.742.858-1.213 1.014a1.394 1.394 0 0 1-.446.073c-.34 0-.696-.121-1.067-.362a2.377 2.377 0 0 1-.932-1.158 6.13 6.13 0 0 1-.379-1.613 9.58 9.58 0 0 1-.021-1.735 26.4 26.4 0 0 1 .152-1.485c.116-1.033.236-2.064.362-3.091s.262-2.06.409-3.1l-2.34-.054a11.335 11.335 0 0 1-1.133 1.562c-.425.49-.829.992-1.217 1.507a16.1 16.1 0 0 1-.967 1.094c-.367.383-.767.704-1.2.964s-.892.417-1.376.472l-.224.013c-.407 0-.807-.127-1.199-.382-.428-.277-.723-.595-.887-.952s-.244-.732-.239-1.125c.004-.394.084-.791.238-1.191.154-.401.353-.787.594-1.159l.145-.223a35.979 35.979 0 0 1 2.324-3.184 52.64 52.64 0 0 0 2.397-3.174c.989-1.444 1.988-2.88 2.996-4.313a202.468 202.468 0 0 1 3.08-4.256c.235-.322.502-.611.8-.867.298-.255.62-.447.97-.578.288-.108.583-.163.885-.163l.186.007c.366.025.734.159 1.106.4.575.374.874.859.897 1.454.022.596-.097 1.217-.359 1.866a10.32 10.32 0 0 1-1.004 1.881 139.08 139.08 0 0 0-1.009 1.523 88.863 88.863 0 0 1-2.361 3.456 17.034 17.034 0 0 0 2.568-.51 18.33 18.33 0 0 0 2.489-.878c.471-.197 1.066-.503 1.786-.92s1.454-.798 2.206-1.142a10.147 10.147 0 0 1 2.221-.737c.227-.045.442-.068.647-.068.453 0 .853.112 1.197.336.538.35.834.759.886 1.229.055.467-.083.953-.409 1.454z"/></g><g><path d="M306.265 89.216c.158-.425.292-.866.403-1.322s.202-.911.273-1.367.12-.885.145-1.291c.115-1.193.225-2.382.334-3.565a69.99 69.99 0 0 0 .232-3.591 17.573 17.573 0 0 0 2.639-.802 20.011 20.011 0 0 0 2.715-1.286c.879-.499 1.687-1.064 2.425-1.693s1.348-1.316 1.83-2.059c.326-.501.463-.987.411-1.456-.052-.47-.347-.878-.885-1.229-.501-.325-1.117-.414-1.845-.267-.729.148-1.47.393-2.22.737-.752.344-1.486.724-2.206 1.142s-1.315.724-1.785.921c-.775.341-1.606.633-2.489.878-.886.244-1.741.414-2.569.51a87.761 87.761 0 0 0 2.361-3.456c.265-.408.601-.916 1.009-1.523.407-.606.742-1.234 1.004-1.882s.382-1.27.359-1.865-.322-1.08-.898-1.454c-.372-.241-.74-.375-1.106-.4a2.486 2.486 0 0 0-1.071.156c-.349.13-.672.323-.969.578a5.07 5.07 0 0 0-.8.867 205.176 205.176 0 0 0-3.08 4.257 424.974 424.974 0 0 0-2.997 4.312 53.514 53.514 0 0 1-2.397 3.175 36.182 36.182 0 0 0-2.324 3.184l-.145.223a6.217 6.217 0 0 0-.593 1.159 3.38 3.38 0 0 0-.239 1.191c-.005.393.075.768.239 1.125.164.358.459.675.887.952.464.3.939.424 1.423.369s.944-.213 1.376-.473c.433-.26.832-.581 1.199-.964.367-.381.689-.746.967-1.094.387-.515.792-1.017 1.216-1.507s.801-1.011 1.133-1.562l2.34.055c-.147 1.04-.283 2.073-.409 3.1s-.247 2.058-.362 3.091c-.057.412-.108.907-.153 1.485s-.038 1.157.021 1.736a6.13 6.13 0 0 0 .379 1.613c.194.494.503.88.931 1.158.538.349 1.043.446 1.514.289.471-.156.875-.494 1.213-1.014.22-.335.406-.715.564-1.141zm-5.948-24.113a9.218 9.218 0 0 0 .703-2.79c.08-.938-.038-1.833-.355-2.686s-.932-1.574-1.841-2.165c-.929-.603-1.912-.95-2.947-1.042s-2.078-.002-3.124.269a12.885 12.885 0 0 0-3.103 1.272 20.143 20.143 0 0 0-2.891 1.985 23.028 23.028 0 0 0-2.485 2.365 19.595 19.595 0 0 0-1.887 2.418 20.196 20.196 0 0 0-1.911 3.768c-.515 1.343-.795 2.679-.84 4.008-.045 1.331.2 2.599.737 3.805s1.474 2.244 2.811 3.112c.52.337 1.173.603 1.958.796a8.43 8.43 0 0 0 2.38.238 7.093 7.093 0 0 0 2.256-.456c.703-.269 1.247-.701 1.633-1.296a2.13 2.13 0 0 0 .332-1.427c-.055-.524-.296-.926-.724-1.203a5.213 5.213 0 0 0-1.191-.574c-.422-.143-.85-.268-1.28-.376a17.48 17.48 0 0 1-1.266-.367 5.002 5.002 0 0 1-1.177-.566c-.557-.361-.873-.81-.947-1.347s-.026-1.099.145-1.687c.17-.588.417-1.161.739-1.718s.609-1.03.862-1.42c.192-.297.461-.671.806-1.121.345-.449.73-.912 1.158-1.387.427-.475.885-.936 1.374-1.384.489-.449.974-.82 1.456-1.115.481-.294.95-.486 1.402-.574a1.613 1.613 0 0 1 1.237.229c.334.217.477.475.428.773-.049.299-.178.63-.389.995-.211.364-.441.75-.69 1.155-.25.406-.425.827-.523 1.264-.099.437-.066.874.099 1.312.164.437.572.866 1.223 1.288.427.278.861.401 1.303.371a3.13 3.13 0 0 0 1.267-.366c.402-.213.772-.489 1.109-.824s.619-.679.848-1.032a15.97 15.97 0 0 0 1.305-2.5zm-20.991-10.238c.036.472-.025.993-.183 1.563-.16.57-.387 1.155-.684 1.754-.296.599-.608 1.15-.933 1.652-.265.409-.62.903-1.064 1.487a13.383 13.383 0 0 1-1.436 1.602c-.513.485-1.023.853-1.529 1.106-.507.252-.965.245-1.373-.021-.353-.229-.552-.582-.598-1.061-.046-.478.016-1.032.187-1.661.17-.628.424-1.295.763-1.999s.718-1.381 1.141-2.031c.373-.576.781-1.123 1.223-1.641.441-.519.894-.95 1.357-1.298.462-.346.909-.577 1.341-.693s.824-.059 1.177.17c.37.241.574.598.611 1.071zm-7.369 15.41c1.255-.004 2.496-.308 3.72-.912s2.398-1.459 3.524-2.563a22.501 22.501 0 0 0 3.099-3.828c.844-1.3 1.581-2.67 2.212-4.108.63-1.439 1.039-2.843 1.228-4.211.189-1.369.084-2.651-.314-3.847-.399-1.195-1.21-2.191-2.436-2.987-1.263-.82-2.572-1.181-3.928-1.085-1.357.097-2.681.491-3.975 1.182s-2.518 1.612-3.674 2.762-2.156 2.377-2.999 3.676a22.702 22.702 0 0 0-2.182 4.246c-.551 1.438-.863 2.812-.935 4.125s.125 2.522.593 3.631 1.268 2.031 2.401 2.767c1.188.77 2.41 1.154 3.666 1.152zm-2.709-20.685c.343-.57.688-1.203 1.036-1.901.347-.698.676-1.428.987-2.191.309-.762.531-1.49.664-2.182.132-.692.146-1.323.042-1.894-.106-.569-.391-1.006-.855-1.307a1.568 1.568 0 0 0-1.26-.223c-.451.103-.906.317-1.365.638s-.911.722-1.353 1.201c-.443.478-.859.967-1.249 1.466s-.741.978-1.051 1.437c-.311.458-.55.817-.719 1.077a138.26 138.26 0 0 0-2.313 3.685l-.398.613-.208.32a3.695 3.695 0 0 0-.168.288 7.816 7.816 0 0 1-.319.524c.069-.351.138-.662.209-.933.058-.252.114-.481.167-.684.052-.203.081-.329.087-.378.3-1.073.582-2.137.845-3.193.263-1.057.521-2.124.771-3.202.122-.554.28-1.245.472-2.069.192-.826.312-1.66.356-2.501a8.704 8.704 0 0 0-.181-2.375c-.167-.741-.537-1.298-1.113-1.672-.594-.386-1.293-.449-2.093-.191-.802.259-1.641.717-2.517 1.376a21.18 21.18 0 0 0-2.637 2.386c-.883.933-1.71 1.86-2.481 2.785a44.157 44.157 0 0 0-2.018 2.591 54.763 54.763 0 0 0-1.277 1.844c-.18.278-.412.656-.695 1.132a22.926 22.926 0 0 0-1.667 3.451 9.081 9.081 0 0 0-.507 1.849c-.091.588-.082 1.122.029 1.603.109.481.379.859.806 1.137l.083.054c.191.071.362.144.514.215.151.072.34.116.568.131.406.026.811-.08 1.218-.319a6.042 6.042 0 0 0 1.145-.88c.357-.348.696-.716 1.013-1.103.317-.388.597-.728.84-1.02a21.634 21.634 0 0 0 1.709-2.237c.522-.783 1.042-1.574 1.56-2.372l.506-.78a79.19 79.19 0 0 0-.703 3.523 318.837 318.837 0 0 1-.647 3.56 23.61 23.61 0 0 0-.262 1.928c-.071.72-.074 1.436-.01 2.151s.222 1.386.476 2.012.658 1.121 1.216 1.482c.594.386 1.265.471 2.012.256.746-.215 1.515-.606 2.307-1.175s1.584-1.262 2.379-2.079a40.287 40.287 0 0 0 2.222-2.478 47.165 47.165 0 0 0 1.818-2.343 46.18 46.18 0 0 0 1.186-1.705c.206-.316.48-.76.823-1.328zm-24.438-.262c.158-.425.292-.866.404-1.322.111-.456.202-.912.273-1.367.071-.456.119-.885.145-1.292.115-1.193.225-2.381.334-3.564.108-1.183.185-2.38.232-3.591a17.538 17.538 0 0 0 2.639-.802 20.011 20.011 0 0 0 2.715-1.286 15.594 15.594 0 0 0 2.425-1.692 9.521 9.521 0 0 0 1.831-2.059c.325-.502.462-.987.411-1.456-.052-.469-.348-.878-.886-1.228-.501-.325-1.117-.414-1.845-.267-.729.147-1.469.392-2.22.736s-1.486.724-2.206 1.142c-.72.417-1.316.725-1.785.921-.776.341-1.606.633-2.49.878a17.07 17.07 0 0 1-2.569.51 88.511 88.511 0 0 0 2.361-3.456c.266-.409.602-.916 1.009-1.523s.742-1.234 1.004-1.882c.262-.647.382-1.269.36-1.865-.024-.596-.322-1.08-.898-1.454-.372-.241-.741-.375-1.106-.4a2.5 2.5 0 0 0-1.071.155c-.349.13-.672.323-.97.578a5.064 5.064 0 0 0-.8.866 214.663 214.663 0 0 0-3.08 4.257 414.05 414.05 0 0 0-2.997 4.312 52.765 52.765 0 0 1-2.397 3.175 36.112 36.112 0 0 0-2.324 3.183l-.144.223c-.242.372-.44.758-.594 1.159a3.38 3.38 0 0 0-.239 1.191 2.57 2.57 0 0 0 .24 1.125c.164.358.459.674.886.952.464.301.939.424 1.424.369a3.367 3.367 0 0 0 1.375-.472c.433-.26.832-.581 1.2-.964.366-.382.688-.747.967-1.094.386-.515.791-1.017 1.215-1.507.424-.491.801-1.011 1.133-1.563l2.34.055a160.963 160.963 0 0 0-.408 3.1 303.491 303.491 0 0 0-.363 3.09c-.056.413-.108.907-.153 1.485s-.038 1.157.022 1.736c.059.58.185 1.118.379 1.612.193.495.503.881.931 1.159.538.349 1.043.446 1.514.289.471-.156.876-.494 1.213-1.014.219-.332.405-.712.563-1.138z" fill="#fffcc8"/><g fill="#740806"><path d="M278.714 53.794a1.363 1.363 0 0 0-.756-.229c-.136 0-.276.02-.421.059-.432.116-.879.347-1.341.693a8.477 8.477 0 0 0-1.356 1.298 15.645 15.645 0 0 0-1.224 1.641c-.422.65-.802 1.327-1.141 2.031s-.593 1.371-.763 1.999c-.171.628-.233 1.183-.188 1.661.046.479.245.833.599 1.061.209.136.432.205.667.205.224 0 .459-.062.706-.184.506-.252 1.016-.621 1.528-1.105.514-.486.992-1.02 1.437-1.603.444-.583.8-1.078 1.064-1.487.325-.502.637-1.053.933-1.652.297-.599.524-1.184.684-1.754.158-.57.22-1.092.184-1.563-.036-.473-.241-.83-.612-1.071z"/><path d="M320.655 70.452c-.087-.784-.492-2.278-2.23-3.409a5.11 5.11 0 0 0-2.834-.821 6.34 6.34 0 0 0-1.239.127 13.22 13.22 0 0 0-2.88.951c-.192.088-.385.179-.577.272.375-.986.547-1.973.51-2.937-.062-1.579-.865-2.948-2.263-3.855-.801-.52-1.653-.815-2.531-.876a5.513 5.513 0 0 0-2.669.477 9.016 9.016 0 0 0-.466-1.799c-.545-1.465-1.561-2.688-3.018-3.635-1.342-.871-2.794-1.379-4.317-1.515a11.923 11.923 0 0 0-1.052-.046c-1.025 0-2.064.134-3.088.399-1.11.288-2.214.715-3.289 1.273.25-1.821.102-3.57-.44-5.2-.618-1.853-1.846-3.385-3.648-4.556-1.621-1.051-3.349-1.584-5.137-1.584-.212 0-.424.007-.638.022a12.683 12.683 0 0 0-4.176 1.043c.082-.306.151-.607.208-.903.201-1.059.217-2.067.046-3-.261-1.397-1.012-2.529-2.174-3.282a4.595 4.595 0 0 0-3.569-.628c-.819.188-1.633.56-2.409 1.104l-.145.104a11.651 11.651 0 0 0-.257-3.025c-.339-1.509-1.17-2.729-2.405-3.532a5.156 5.156 0 0 0-2.813-.831c-.6 0-1.217.101-1.834.299l-.092.031c.001-.2-.01-.384-.028-.549-.15-1.365-.944-2.578-2.234-3.416a5.112 5.112 0 0 0-2.832-.82c-.401 0-.818.043-1.238.127-.955.192-1.923.512-2.879.95-.193.089-.387.18-.579.273.375-.983.547-1.969.511-2.934-.063-1.584-.866-2.953-2.263-3.858-.801-.52-1.652-.815-2.53-.876a5.52 5.52 0 0 0-2.331.338 6.21 6.21 0 0 0-1.87 1.109 8.141 8.141 0 0 0-1.271 1.375 212.408 212.408 0 0 0-3.11 4.299 407.194 407.194 0 0 0-3.019 4.344 49.93 49.93 0 0 1-2.248 2.976 39.362 39.362 0 0 0-2.515 3.445l-.146.227a9.295 9.295 0 0 0-.876 1.713 6.343 6.343 0 0 0-.438 2.237c-.01.838.164 1.652.518 2.416.398.87 1.064 1.616 1.974 2.208.887.575 1.839.866 2.833.866.188 0 .378-.011.568-.033a6.37 6.37 0 0 0 2.576-.88 8.758 8.758 0 0 0 1.48-1.123c-.03.288-.058.596-.083.921a12.63 12.63 0 0 0 .029 2.276c.086.847.278 1.656.57 2.4a5.392 5.392 0 0 0 2.089 2.579c.865.562 1.773.846 2.701.846a4.4 4.4 0 0 0 1.197-.166 4.777 4.777 0 0 0 1.858 2.224l.077.051.281.183.313.117c.106.04.202.08.286.12a4.53 4.53 0 0 0 1.639.408c.114.007.218.011.322.011.904 0 1.785-.248 2.617-.737.201-.118.399-.246.593-.382.009.279.025.558.051.834a9.99 9.99 0 0 0 .684 2.869 6.073 6.073 0 0 0 2.364 2.873 5.26 5.26 0 0 0 2.87.854 5.82 5.82 0 0 0 1.603-.232c.995-.287 1.998-.775 2.987-1.453-.013.144-.022.287-.03.43-.099 1.767.179 3.437.824 4.965.703 1.666 1.892 3.051 3.531 4.116 1.674 1.086 3.453 1.637 5.289 1.637 1.604-.005 3.179-.358 4.698-1.051l-.007.181a11.514 11.514 0 0 0 .995 5.127c.774 1.739 2.093 3.222 3.918 4.407.8.519 1.767.919 2.875 1.192a11.434 11.434 0 0 0 3.224.322c.437-.019.866-.063 1.286-.133a5.7 5.7 0 0 0 .366 1.059c.4.875 1.066 1.621 1.977 2.212.89.576 1.842.866 2.834.866.188 0 .375-.011.563-.032a6.398 6.398 0 0 0 2.581-.881 8.798 8.798 0 0 0 1.479-1.122c-.029.284-.058.589-.083.922-.059.753-.049 1.518.028 2.272.086.845.277 1.652.568 2.399a5.4 5.4 0 0 0 2.094 2.583c.863.561 1.771.845 2.7.845.473 0 .941-.076 1.392-.226 1.112-.368 2.075-1.138 2.783-2.226a8.766 8.766 0 0 0 .859-1.735c.195-.527.365-1.083.504-1.651.132-.546.24-1.089.323-1.617.082-.529.14-1.038.172-1.513.113-1.181.223-2.358.331-3.53.047-.515.088-1.037.124-1.564a23.203 23.203 0 0 0 3.956-1.781 18.89 18.89 0 0 0 2.889-2.018 12.59 12.59 0 0 0 2.402-2.71c.892-1.364.97-2.615.88-3.423zm-74.457-32.26a69.955 69.955 0 0 1-.231 3.59 1009.94 1009.94 0 0 1-.335 3.564c-.025.407-.073.836-.145 1.292a17.03 17.03 0 0 1-.273 1.367c-.112.456-.245.897-.403 1.322a5.764 5.764 0 0 1-.562 1.14c-.338.52-.742.858-1.213 1.014a1.423 1.423 0 0 1-.447.072c-.339 0-.695-.121-1.066-.362a2.375 2.375 0 0 1-.932-1.159c-.193-.495-.319-1.033-.379-1.612s-.066-1.159-.021-1.736.096-1.072.152-1.485c.116-1.033.236-2.063.363-3.09.125-1.027.261-2.061.407-3.1l-2.34-.055a11.284 11.284 0 0 1-1.133 1.563c-.424.49-.829.992-1.215 1.507-.279.348-.602.712-.968 1.094a5.873 5.873 0 0 1-1.2.964c-.433.26-.891.417-1.375.472l-.226.013c-.407 0-.807-.127-1.198-.382-.428-.278-.723-.594-.886-.952a2.57 2.57 0 0 1-.24-1.125c.004-.394.084-.791.238-1.191.154-.401.353-.787.595-1.16l.144-.223a36.02 36.02 0 0 1 2.324-3.183 53.106 53.106 0 0 0 2.397-3.176c.989-1.443 1.988-2.88 2.996-4.312 1.008-1.43 2.035-2.85 3.08-4.257.235-.322.502-.61.8-.866.298-.255.621-.448.97-.578.289-.108.583-.162.884-.162l.188.007c.365.025.733.158 1.105.4.576.374.874.858.898 1.454.021.596-.099 1.217-.36 1.865a10.356 10.356 0 0 1-1.004 1.882c-.407.607-.743 1.115-1.009 1.523a89.632 89.632 0 0 1-2.361 3.456 17.034 17.034 0 0 0 2.568-.51 18.481 18.481 0 0 0 2.49-.878c.47-.196 1.065-.503 1.785-.921s1.454-.797 2.206-1.142a10.153 10.153 0 0 1 2.22-.736c.228-.045.443-.068.647-.068.454 0 .854.112 1.198.336.538.349.834.759.886 1.228.052.47-.085.955-.41 1.457a9.571 9.571 0 0 1-1.831 2.059 15.642 15.642 0 0 1-2.425 1.692c-.879.499-1.784.928-2.716 1.286s-1.81.627-2.637.802zm14.624 21.331c-.792.569-1.562.96-2.307 1.175a2.792 2.792 0 0 1-.773.115c-.444 0-.857-.124-1.238-.371-.558-.362-.962-.856-1.216-1.482s-.412-1.297-.476-2.012a11.285 11.285 0 0 1 .01-2.151c.07-.719.158-1.363.262-1.928.226-1.201.44-2.387.647-3.56s.44-2.347.703-3.523l-.507.78a249.95 249.95 0 0 1-1.56 2.372 21.741 21.741 0 0 1-1.709 2.237c-.243.292-.523.631-.84 1.02-.317.388-.656.755-1.014 1.104s-.74.642-1.145.88c-.367.215-.732.323-1.098.323l-.12-.004a1.568 1.568 0 0 1-.567-.131 6.862 6.862 0 0 0-.514-.215l-.084-.054a1.792 1.792 0 0 1-.806-1.137c-.111-.481-.121-1.014-.029-1.603a8.97 8.97 0 0 1 .507-1.849 22.926 22.926 0 0 1 1.667-3.452c.282-.476.514-.854.694-1.132.277-.427.702-1.042 1.276-1.844a43.451 43.451 0 0 1 2.019-2.591 59.74 59.74 0 0 1 2.48-2.784 21.119 21.119 0 0 1 2.638-2.387c.876-.659 1.715-1.117 2.517-1.375.321-.104.626-.155.914-.155.43 0 .822.115 1.179.346.575.375.946.931 1.112 1.672s.226 1.533.181 2.375a14.34 14.34 0 0 1-.356 2.501c-.192.825-.35 1.515-.472 2.069a218.045 218.045 0 0 1-.771 3.202 115.74 115.74 0 0 1-.845 3.193 4.409 4.409 0 0 1-.087.378c-.053.203-.108.432-.167.684-.071.271-.14.582-.209.933.156-.241.263-.416.319-.523.057-.109.113-.205.168-.288l.207-.32.398-.613a148.223 148.223 0 0 1 2.312-3.685c.169-.26.408-.619.719-1.077s.661-.938 1.052-1.437c.39-.499.805-.988 1.248-1.466.443-.479.895-.879 1.354-1.201s.914-.535 1.365-.638a1.573 1.573 0 0 1 1.26.224c.464.301.749.738.854 1.307.105.571.091 1.201-.041 1.894-.133.692-.354 1.42-.664 2.183-.312.762-.64 1.492-.986 2.19a27.404 27.404 0 0 1-1.036 1.901 52.889 52.889 0 0 1-.822 1.327 46.18 46.18 0 0 1-1.186 1.705 47.774 47.774 0 0 1-1.818 2.343 40.288 40.288 0 0 1-2.223 2.479 18.058 18.058 0 0 1-2.376 2.076zm14.855 9.839c-1.224.604-2.465.909-3.72.913h-.012c-1.252 0-2.471-.384-3.655-1.153-1.133-.736-1.934-1.658-2.401-2.767-.469-1.109-.666-2.319-.593-3.631.073-1.313.384-2.687.936-4.125a22.612 22.612 0 0 1 2.182-4.246 22.391 22.391 0 0 1 2.999-3.676c1.155-1.15 2.38-2.071 3.674-2.762 1.293-.691 2.617-1.085 3.975-1.182.143-.01.284-.015.426-.015 1.205 0 2.372.367 3.503 1.1 1.226.796 2.037 1.792 2.436 2.987.398 1.196.503 2.479.314 3.848-.189 1.368-.599 2.772-1.229 4.211a28.815 28.815 0 0 1-2.211 4.107 22.427 22.427 0 0 1-3.1 3.829c-1.125 1.103-2.3 1.958-3.524 2.562zm15.734 9.342c-.387.595-.93 1.026-1.633 1.296s-1.456.422-2.256.456a8.418 8.418 0 0 1-2.381-.238c-.784-.193-1.438-.458-1.957-.795-1.338-.868-2.274-1.906-2.812-3.112s-.782-2.474-.737-3.805c.045-1.33.325-2.666.84-4.008s1.151-2.598 1.911-3.769a19.425 19.425 0 0 1 1.887-2.418c.75-.832 1.58-1.621 2.485-2.365a20.178 20.178 0 0 1 2.892-1.985 12.844 12.844 0 0 1 3.103-1.272 9.307 9.307 0 0 1 2.337-.303c.263 0 .525.012.787.035 1.036.092 2.018.439 2.947 1.042.909.591 1.523 1.313 1.841 2.165.317.854.436 1.748.355 2.686a9.251 9.251 0 0 1-.702 2.791 16.005 16.005 0 0 1-1.306 2.499c-.229.353-.512.697-.849 1.032s-.707.611-1.108.824a3.13 3.13 0 0 1-1.268.366l-.128.004c-.397 0-.789-.125-1.175-.376-.651-.422-1.059-.851-1.223-1.288a2.242 2.242 0 0 1-.1-1.312c.099-.438.273-.858.523-1.265.249-.404.479-.791.69-1.155.211-.365.34-.697.389-.996.048-.298-.095-.556-.429-.773a1.584 1.584 0 0 0-.88-.264c-.116 0-.235.012-.357.036-.453.088-.922.28-1.402.574a9.555 9.555 0 0 0-1.456 1.115 20.59 20.59 0 0 0-1.374 1.384c-.427.475-.813.938-1.157 1.386-.345.45-.613.823-.806 1.121-.254.39-.541.863-.862 1.42-.322.557-.568 1.13-.739 1.718s-.219 1.15-.145 1.687c.073.537.39.985.946 1.347.371.241.764.43 1.178.566.412.137.835.259 1.266.367s.858.233 1.28.376c.423.141.819.333 1.191.574.428.277.669.679.724 1.203a2.127 2.127 0 0 1-.33 1.429zm2.721-6.116a48.87 48.87 0 0 1-1.013 1.314 4.651 4.651 0 0 0-.469-.346 8.238 8.238 0 0 0-1.871-.902 19.466 19.466 0 0 0-1.499-.44c-.366-.091-.72-.194-1.056-.305l-.015-.005c.102-.325.245-.648.428-.964.298-.516.561-.948.78-1.286.106-.164.306-.453.672-.931l.153-.197c.054.236.125.469.212.699.397 1.059 1.183 1.958 2.397 2.746.413.268.841.474 1.281.617zm23.13-.347c-.481.744-1.092 1.43-1.83 2.059s-1.546 1.193-2.425 1.693c-.878.499-1.784.928-2.716 1.286-.933.359-1.812.626-2.639.802a71.03 71.03 0 0 1-.231 3.59c-.109 1.184-.22 2.373-.335 3.565a16.118 16.118 0 0 1-.419 2.658c-.11.456-.245.897-.402 1.322a5.737 5.737 0 0 1-.562 1.14c-.338.52-.742.858-1.213 1.014a1.394 1.394 0 0 1-.446.073c-.34 0-.696-.121-1.067-.362a2.377 2.377 0 0 1-.932-1.158 6.13 6.13 0 0 1-.379-1.613 9.58 9.58 0 0 1-.021-1.735 26.4 26.4 0 0 1 .152-1.485c.116-1.033.236-2.064.362-3.091s.262-2.06.409-3.1l-2.34-.054a11.335 11.335 0 0 1-1.133 1.562c-.425.49-.829.992-1.217 1.507a16.1 16.1 0 0 1-.967 1.094c-.367.383-.767.704-1.2.964s-.892.417-1.376.472l-.224.013c-.407 0-.807-.127-1.199-.382-.428-.277-.723-.595-.887-.952s-.244-.732-.239-1.125c.004-.394.084-.791.238-1.191.154-.401.353-.787.594-1.159l.145-.223a35.979 35.979 0 0 1 2.324-3.184 52.64 52.64 0 0 0 2.397-3.174c.989-1.444 1.988-2.88 2.996-4.313a202.468 202.468 0 0 1 3.08-4.256c.235-.322.502-.611.8-.867.298-.255.62-.447.97-.578.288-.108.583-.163.885-.163l.186.007c.366.025.734.159 1.106.4.575.374.874.859.897 1.454.022.596-.097 1.217-.359 1.866a10.32 10.32 0 0 1-1.004 1.881 139.08 139.08 0 0 0-1.009 1.523 88.863 88.863 0 0 1-2.361 3.456 17.034 17.034 0 0 0 2.568-.51 18.33 18.33 0 0 0 2.489-.878c.471-.197 1.066-.503 1.786-.92s1.454-.798 2.206-1.142a10.147 10.147 0 0 1 2.221-.737c.227-.045.442-.068.647-.068.453 0 .853.112 1.197.336.538.35.834.759.886 1.229.055.468-.083.953-.409 1.454z"/></g></g></g></svg>