<svg xmlns="http://www.w3.org/2000/svg" xml:space="preserve" width="512" height="512"><path fill="#FDE7CF" d="M314.9 205.6c-5.701-18.857-18.984-42.35-30.7-56.8-12.756-20.363-12-19.116-12-19.3 0-.102.486-10.769-.3-20.2-.974-14.125-3.971-31.357-11.8-43.1-14.395-21.293-33.827-36.6-34.2-36.6 0 .143.377-.609-3.4 6.5-19.859 24.273-27.452 55.119-28.9 59.1.101 0-34.034 4.8-33.8 4.8.135 0-31.505 13.4-31.4 13.4-1.037-.922-.863-.763-1-.9.14 0-18.539-18.509-45.4-31.1-2.205-.992-6.48-2.937-8.8-3.6-7-4.092-6.451-3.8-6.6-3.8 0 .255-.582 1.725-.7 2-2.927 8.247-5.3 17.418-5.3 18-7.136 30.328-5.78 45.34 7.7 72.3 1.566 2.871 4.462 8.793 10.2 17.4.181.181.169-1.36-.3 22.8-3.595 25.344-1.633 64.606 12.3 87.2 6.6 10.9 16.2 19.5 30.1 23 55.857 14.023 99.224 1.3 99.6 1.3 3.404 0 47.68-15.253 84.6-52.6 15.974-16.132 16.546-38.315 10.1-59.8z"/><path fill="#9D706B" d="M236.6 150c-16.2-2.2-32.4 3.4-43.7 8.8-4.9 2.4-10 4.3-15.2 5.8-5.2 1.4-10.6 2.4-16 2.9-12.5 1.1-29.3 4.8-42 15.1-22.9 18.5-28.5 74 9.4 97.8 26.8 17.1 51.3 12.8 67 7.4 4.9-1.6 9.8-3.1 14.7-4.5s9.9-2.6 14.9-3.8c16.2-3.6 39.4-12.6 53.5-41 20.1-39.9-13.4-84.4-42.6-88.5z"/><path fill="#E0BCA2" d="m193.5 95.3 13.2.8C207.5 61 221 41.9 221 41.9l.8-.2c-11.7-2.2-28.3 53.6-28.3 53.6z"/><path fill="#F6B0A6" d="m243.6 45.4-17.5-14.7-2.4 5.6-8.1 23.1s-2.3 19.7-2.2 20.3c0 .4 3.2 11.7 3.2 11.7l6.2 1 7.6-8.3 5.5-.4 4.5 16.4s4.9 3.8 5.3 4c.5.2 3.353-5.731 3.353-5.731C253.953 118.669 272.4 113 272.4 113l-1.9-18.8-7.3-22-19.6-26.8z"/><ellipse transform="rotate(-37.929 255.315 212.721)" fill="#F6B0A6" cx="255.323" cy="212.728" rx="17.801" ry="10.6"/><path fill="#2D2D39" d="m225.5 27-1.1 1.4c-28.1 37.2-32.3 66-32.5 67.2l3.9.6c.1-.2 4.1-28.2 30.5-63.8 8.5 6.1 49.9 39.3 43.5 94.4-.1.8-.3 1.7-.3 2.6.6.9 1.3 2 2 3.1l1.5.3c.1-.6.2-1.1.3-1.6 10-66-45.7-102.6-46.3-103l-1.5-1.2z"/><path fill="#2D2D39" d="M243.109 100.384c-1.054-2.07-1.961-5.593-2.609-8.184-1.5-5.7-2.8-10.6-6.4-10.5-2.3 0-4.4 1.9-6.8 4.1-3.8 3.4-6.5 5.4-8.9 3.7-4.9-3.7-3-30.6 9.3-59l-3.7-1.6c-12 27.6-15.9 57.9-8.2 63.7 5.1 3.7 10.2-.6 13.8-3.9 1.4-1.3 3.2-2.9 4.2-3.1.9.9 2 5.1 2.6 7.5 2.047 7.505 3.777 14.275 9.7 12.3 4.5-2.1 3.9-15.6 3.9-15.6-.702 4.136-2.607 9.178-4.256 11.246-1.049 1.315-1.63 1.313-2.635-.662zM342.2 154.4c-20.3 6.8-39.9 19.2-56.6 35.9 0 0 13.6-8.9 28.3-18 10.6-6.6 28.3-17.9 28.3-17.9zM358.5 172.3c-21.1 3.5-42.4 12.6-61.6 26.5 0 0 14.8-6.6 30.8-13.3 11.5-4.8 30.8-13.2 30.8-13.2zM362 201.6c-21.3-1.9-44.2 1.6-66.2 10.2 0 0 16-2.7 33.2-5.2 12.2-1.8 33-5 33-5z"/><path fill="#FFFAF5" d="M110.3 126.9c34.033-17.305 62.217-26.216 105.9-29.5-71.461-9.119-104.236 28.391-105.9 29.5z"/><path fill="#E0BCA2" d="m76.4 82.2.7-.2s21.5 9.4 40.3 39l10.9-7.5c.1 0-43-39.2-51.9-31.3zM318.8 229.8c-17.635 23.515-53.171 56.586-103.4 70-62.088 18.163-112.578-2.664-124.7-6.3h-.1c6.6 10.9 16.3 19.6 30.3 23.2 24.2 6.1 46.2 7.2 63.3 6.4h.1c20.6-1 34.1-4.6 36.2-5.1 2.1-.6 15.5-4.5 33.6-14.3h.1c15-8.2 33.3-20.4 50.8-38.2 10.1-10.3 14-22.7 13.9-35.5 0-.2-.1-.2-.1-.2z"/><path fill="#F6B0A6" d="m56.7 129.6 5.1 22.6 8.1 17.1s18.528-4.25 12.228-24.15c0 0 5.772 3.15 6.072 2.75.2-.3 2.5-6.1 2.5-6.1l-4.6-16.3L91 123l10.8 3.2 4.8-4s-3.1-11.2-3.3-11.6c-.2-.5-12.4-16.2-12.4-16.2l-19-15.8L67 75l-7.4 21.7-2.9 32.9z"/><ellipse transform="rotate(-83.22 136.136 245.855)" fill="#F6B0A6" cx="136.137" cy="245.852" rx="10.6" ry="17.8"/><path fill="#2D2D39" d="M64.9 73.3c-.3.6-29.1 60.8 13.7 112.1.3.4.7.8 1 1.2l1.1-1c0-1.3 0-2.5.1-3.7-.5-.7-1-1.4-1.6-2C45.3 136 63.6 86.3 67.6 76.6c41 16.8 58.9 38.7 59.1 38.8l3.1-2.5c-.8-1-19.3-23.4-62.5-40.7l-1.6-.7-.8 1.8z"/><path fill="#2D2D39" d="M77.1 138.2c1.36 2.468 9.531 16.293 14.7 9.4 1.9-3.1.4-8.3-1.2-13.7-.8-2.4-2-6.6-1.7-7.8.9-.3 3.3.1 5.2.5 4.8.9 11.4 2.1 13.8-3.8 3.7-9-15.4-32.9-40-50.3l-2.3 3.3c25.3 17.9 40.8 40 38.5 45.7-1.1 2.7-4.5 2.3-9.5 1.4-3.2-.7-6-1.2-8 0-3.1 1.8-1.7 6.7 0 12.3 1.641 5.372 2.036 7.996 1.997 9.277-.044 1.456-.618 1.481-2.032.933-2.486-.964-6.538-4.12-9.465-7.21zM229.7 225.5l.3 2.5v.3l.1.8c.3 2.7 1.1 16.3-10.5 19.6-5.6 1.7-12.1.2-16.7-4l-1-1c4.3-3.7 11.1-10.4 11.2-14.6 0-1-.3-1.8-1-2.5-2.7-2.5-10.8-1.4-16.9.3-6.1 1.7-13.6 5-14.6 8.5-.3.9-.1 1.8.4 2.6 2.3 3.6 11.6 5.7 17.2 6.7-.1.5-.2 1-.3 1.4-1.8 5.8-6.4 10.4-12 12-.1 0-.1 0-.2.1-11.7 3.1-18-8.9-19.2-11.4l-.3-.7c0-.1-.1-.3-.1-.3l-1-2.2-7.2 6.8 5.9-1.8c2.1 4.2 9.6 16.4 22.8 12.8h.1c6.8-2 12.3-7.4 14.3-14.2 5.3 4.8 12.8 6.6 19.6 4.8h.1c13.1-3.7 13.2-18 12.9-22.8l6-1.6-9.9-2.1zM207 269.5c-4.6 1.2-9.5 1.1-14.4-.1 8.4 8.2 23.7 4 26.6-7.4-3.6 3.6-7.7 6.2-12.2 7.5zM216.2 97.4c-14.429-3.498-36.141-5.392-58.943 1.304-5.44 1.598-25.378 6.616-47.057 28.296 1.1-.6 18-10.5 24.6-14.5 8.441-5.217 16.064-7.759 23.33-9.958 13.234-4.005 20.782-5.142 58.07-5.142zM31.6 241c20.9-4.7 44.1-4.2 67 1.4 0 0-16.2-.6-33.6-.8-12.3-.2-33.4-.6-33.4-.6zM27 264.7c19.9-7.9 42.9-11.1 66.4-9.2 0 0-16.1 2-33.3 4.5-12.2 1.9-33.1 4.7-33.1 4.7zM39.1 291.6c17.3-12.7 38.7-21.5 61.9-25.6 0 0-15.1 6-31.1 12.7-11.3 4.9-30.8 12.9-30.8 12.9z"/><path fill="#3D3D44" d="M208.3 227.5c-.2-.6-3.4-.3-7.9.6-1.4.3-3 .7-4.6 1.1-1.6.5-3.1 1-4.5 1.4-4.3 1.5-7.2 2.9-7.1 3.6.2 1 5.8.2 12.5-1.7s11.9-4.1 11.6-5z"/><path fill="#2D2D39" d="M269.9 126.8c-5.1-6.2-8.7-10.1-9.4-10.9.4.6 3.9 5.6 9.1 13.3.6.9 1.3 2 2 3.1 6.2 9.2 14.2 21.6 22.2 34.6 9.7 16 18.7 34.2 22.2 51.8 5.6 27.8-13.9 49.7-33 63.8-16.1 12-31 22.3-31 22.3.8-.3 78.9-32.5 67.9-87-6.7-33.1-31.2-67.7-46.6-86.9-1.1-1.4-2.2-2.8-3.4-4.1z"/><path fill="#2D2D39" d="M293.7 273.7c-36 34.4-77.7 44.4-105.6 46.8-32.676 2.912-86.949.755-100.9-37.9-6.1-16.9-7.8-37.1-7.7-55.8.1-15.3.6-30 1.1-41.1 0-1.3 0-2.5.1-3.7.5-9.3.9-15.4.9-16.1-.2 1.1-1.3 6.3-2.4 14.2-.3 1.6-.5 3.4-.8 5.2-3.2 24.4-6.3 66.7 5.1 98.5 17.592 48.938 97.291 41.754 104.8 41.1 21.049-1.914 66.743-9.128 107.5-48.2l-2.1-3z"/><g fill="#2D2D39"><path d="M213.9 201.7c4.3-14.9 24.9-19.1 36.6-10.2-13.2 0-26 1.6-36.6 10.2zM129.4 225.3c4.3-14.9 24.9-19.1 36.6-10.2-13.2-.1-26 1.6-36.6 10.2z"/></g><path fill="#FDE7CF" d="m158 443.5-13.1 8.7-4.9 9s8.9 7.9 9.3 8.3c.5.5 14.9 4.5 15.2 4.5.5 0 18.8-.1 18.8-.1l12.5-3.1 11.5-6s10.7-11.1 14.4-17.4c3.8-6.3 5.7-37.7 5.7-37.7l26.4 3.8 1.5 29s-10.8 8.3-11.3 8.7c-.5.2-2.3 7.9-2.3 7.9l4.8 7.1 15.8 3.7 12.8-1.3 5.1 6.9 18.6 7.2h17.6l15.5-7.6 9.2-11.9 8.4-18.6 3-30.9H367s8.7 10.7 10.2 15.8c1.5 5.2-5.5 23.9-5.5 23.9l-.8 12 7.4 7.1s19.6 5.1 40.8 3.1c21.3-2 27.7-24.9 27.7-24.9l1.1-96.1.8-13.2 1.1-29.2-3.1-12.6-10.8-25.7-22.1-28.9-14.2-10.2s-22.6-17.9-68.7-15.7c-46.3 2.2-89.5 41.9-89.5 41.9l-15.6 15.4s-19.1 18.7-31.6 29.1-19.9 25.8-19.9 25.8c-8.2 12-9.9 39.2-9.9 39.2s.2 17.4.2 17.8c0 .5-2.6 30.7-2.6 30.7l-4 24.5z"/><path fill="#9D706B" d="M163.6 403.4s39.5-6.2 63.1 10.2c0 0 6.2 52.4-42 59.8 0 0-36.9 5.9-44.6-12.2 0 0 4.3-10.5 18-17.6l5.5-40.2zM269.4 408.3s23.5-12.9 84.2 7c0 0 1.5 47.4-24 60.7s-47.2.8-47.2.8l-7-8 3.8-12.5s-1.1-21 0-22c1.1-.9-9.8-26-9.8-26z"/><path fill="#FFFAF5" d="m227.2 388.6-.6 21.2 45.3 7.8-7-26.5c-10 1.3-37.7-2.5-37.7-2.5z"/><path fill="#8A5D58" d="M176.6 475.1s25.7-3.9 35.2-13.8c9.6-9.8 13.3-23.1 13.3-23.1s4.4-37.5 3.2-56c0 0-2.6 37-19 60.6-13.1 19-36.4 28.7-63 9.8 0 0-10 1.6-2.5 13.4s32.8 9.1 32.8 9.1z"/><g><path fill="#2D2D39" d="M168.5 439.2s-25.9 7.2-29 19c-.7 2.6 0 5.3 2 7.8 4.2 5.3 13.2 9.1 25 10.5 2.1.2 4.4.4 6.7.4 16.2 0 36.5-6.4 48.3-25.2 5.1-8.1 7.8-22.2 8.1-41.6.2-16.5-1.5-30.9-1.5-31.1 0 0-2 14.9-2.1 31-.2 18.6-2.9 32.4-7.6 40-12.6 20.1-35.4 25-51.1 23.2-10.6-1.3-18.9-4.6-22.4-9-1.4-1.7-1.9-3.5-1.4-5.2 1-5.2 20.1-17.2 25-19.8z"/></g><path fill="#8A5D58" d="m244.8 465.3 19.6 5.2s11.8-1.8 11.8-2.3 3-20 3-20l-2-20.5-5.5-10.6-17.7-3.5 1 30-13.3 12 3.1 9.7z"/><path fill="#8A5D58" d="m314 481.8 15.6-5.9s9-8.7 9.6-9.3c.6-.6 8.2-16 8.2-16s7.5-39.6 5.2-51c0 0-11.7 62.1-30.6 70-15.2 6.3-33.7 4.2-43-13.4 0 0-10.5 13.3 3.3 20.6 13.9 7.2 31.7 5 31.7 5z"/><g><path fill="#2D2D39" d="M259 440.8c-6.89 3.242-11.668 6.116-14.722 8.931-8.026 7.398-2.659 13.706-1.078 15.569 4.4 5.2 14.4 6.2 22.1 6.2 5.5 0 9.8-.5 10.2-.6l-.6-3.3c-6.3.8-23.7 1.6-28.8-4.3-4.434-5.321-1.933-8.074.72-11.022C251.276 447.327 259 440.8 259 440.8z"/></g><g><path fill="#2D2D39" d="m227.2 411.4.8-3.3 44.9 7.6-.7 3.3z"/></g><g><path fill="#2D2D39" d="M256.4 414.4h-3.7l.7 30.2 3.8-2.5z"/></g><path fill="#8A5D58" d="m368.9 413.7 30.6-10.6 23.5-16.8 19.5-25.6 6.2-13.8-1.3 75.2-.5 31.4s-10.3 24.6-36.9 23.3c-26.4-1.3-31.4-4.3-31.4-4.3l-3.4-3.5-4.4-9.7s2.9-13.5 4.3-14.6c1.4-1.2 1.2-15.8 1.2-15.8l-7.4-15.2z"/><path fill="#7F504C" d="M411.4 461.6c-25 4.1-37.9-8.645-37.9-8.645S354.3 476.3 408.1 476.8c15.509.144 28.926-7.977 34.378-15.91 8.426-12.261 5.739-46.188 5.739-46.188L449.3 352.6l-14 19c-.1-.1 13.9 83.7-23.9 90z"/><g><path fill="#2D2D39" d="M375.3 450.4c3.8-9.5 8.6-21.2-6.3-38l-3 2c13.6 15.3 9.4 25.8 5.7 34.8-3.762 8.277-4.352 14.149-.6 19.2 4.3 5.4 13.7 8.6 29.5 9.9 33.461 1.859 46.818-19.231 47.9-26.3 1.7-10.3 1.2-102.9 1.2-106.9h-3.8c0 1 .5 96.2-1.2 106.3-1.5 9.1-18.3 25.7-43.9 23.4-14.5-1.3-23.2-4-26.8-8.6-3.936-4.92-.849-10.785 1.3-15.8z"/></g><path fill="#E0BCA2" d="m353.2 391.7-.1 22.7s21.9-1.9 22.7-2.4c.8-.5 21.3-7.1 21.3-7.1l21.6-14.5s18.2-21 18.6-21.1c.4-.2 11.9-24.9 11.9-24.9s1.8-15.9 1.7-16.4c-.1-.4-3.8-26.2-3.8-26.2l-8.1-22.4-18.3-26.4-9.3-9.7-18.2-11.4-35.2-11.2s-36.3-7.6-53.4 4.6c0 0 74.8 9.3 98.5 63.2 23.6 54-49.9 103.2-49.9 103.2z"/><path fill="#FFFAF5" d="M408.1 343.8c-17.8 46.1-54.5 52.9-54.5 52.9l-1 17c72.9-1.1 93.6-58.6 96.8-80 3.2-21.5-23.6-36.1-41.3 10.1z"/><g><path fill="#2D2D39" d="M276.5 421.6c-9.3-18.8-16.9-49.1-16.9-49.1.1 1.3 3.9 31.3 13.4 50.5 7.6 15.4 2.9 33.4.7 41-.5 1.7-.8 3-1 3.8-.2 2.5 3.2 6.7 8.4 10.2 3.8 2.5 12.2 7.1 24.1 7.1 5.4 0 11.4-1 18.1-3.4 35.4-13 31.6-72 29.7-89.9 0 0-1.4 26.5-4 43.9-2.7 18.5-10.1 36.6-27 42.9-17.8 6.5-30.8 1.4-37-2.3-5.9-3.5-8.4-7.3-8.4-8.1.1-.6.4-1.8.8-3.4 2.2-8.1 7.3-26.8-.9-43.2z"/></g><g><path fill="#2D2D39" d="M415.7 390.2c-18.9 15.4-42.5 23.8-61.6 21.6l-.5 3.3c34.286 3.429 64.029-22.035 64.6-22.5 22.7-18.6 35.2-43.8 34.1-69.4-1.8-41.5-26.8-69.2-39-79.8-.7-.6-2.9.4-2.3 1 5.6 6.2 15.3 17.3 23.5 31.5 7.3 12.6 13.2 28.5 14 47.5 1.1 24.5-10.8 48.9-32.8 66.8z"/></g><path fill="#9D706B" d="M406.4 251.9s-4.9 19.5 13.2 23.2l15.1-8s17.1-14.6 17.5-15.1c.4-.4 18.5-26.8 18.5-26.8l7.7-18.7 3.9-17.9 1.1-18.5s-4.7-14.8-4.9-15.3c-.3-.4-8.4-13.9-8.5-14.6s-14.8-17.7-14.8-17.7l-14.9-16.9s-8.3-15.3-8.4-16.2c0-.8-1.9-9.7-1.9-9.7l.2-10s-4.6-12.5-13.5-10-13.1 12.6-13.1 12.6l-1.4 12.2 5.8 18.1 10.5 16 7.8 9.1 20.4 25.2 8.2 15.5 1.4 14.3-5.4 21.7-8.5 17.3-14.4 16.7c.1.2-8 8.3-21.6 13.5z"/><g><path fill="#2D2D39" d="M415.1 277.8s7.3-3.7 22.1-14.7c11-8.2 23-20.6 32.2-38.7 26.9-54.5 5.8-77.7-14.6-100.2-11.5-12.7-22.5-24.7-25.2-41.6-.4-3-.3-5.8-.1-8.4.5-5.6-3.1-10.8-8.5-12.3-6.1-1.7-12.7 1.9-14.4 8.2-8 24.2 8.8 43.2 25 61.7 14.8 16.8 30 34.1 26 55.1-5.3 26.2-17.7 42.9-29.3 53.4-12.9 11.6-26.8 12.8-26.8 12.8 1.7-.5 42.2-13.1 53.2-66.8 3.7-19.5-11.1-36.3-25.4-52.6-16.8-19.1-34.1-38.7-25.6-64.4 2.2-7.7 10.2-12.2 17.9-10.1 6.8 1.9 11.2 8.3 10.7 15.4-.2 2.5-.5 5.1 0 7.8 2.5 16 13.2 27.7 24.4 40 21.1 23.2 42.9 47.2 15.1 103.4-21.9 43.6-55 51.6-56.7 52z"/></g><path fill="#FDE7CF" d="m182.3 327.6 5.3-19.8 28.3-29.9s9.8-11.6 11.2-12 19.5-14.2 20.1-14 19.3-9.2 19.3-9.2l-7.9 11.5-76.3 73.4z"/><path fill="#2D2D39" d="M192.659 298.982c-20.94 26.03-26.479 46.989-27.459 50.418l.038.003c-2.051 7.378-3.264 15.641-3.038 24.797 1.1 43.5-6.2 69.7-6.2 70l4.2-1.2c.1-.2 7-24.8 5.8-68.8a89.847 89.847 0 0 1 2.948-25.315c.193-.625 6.381-21.71 27.702-48.171 35.45-43.995 81.95-65.258 99.835-71.631 14.857-5.294 30.92-8.698 47.21-8.237 37.372 1.058 62.735 19.809 69.804 26.753l3.3-2c-12.218-8.569-36.523-27.275-72.973-28.439-16.459-.526-33.017 2.937-48.734 8.617-24.592 8.89-70.702 33.76-102.433 73.205z"/></svg>