<svg height="512" width="512" xmlns="http://www.w3.org/2000/svg"><path d="M149.128 348.432c-7.166 7.758-16.158 12.754-25.82 15.049-5.21-4.862-9.808-10.507-12.766-16.93.182-.027.366-.051.547-.081 13.936-2.085 32.58-10.354 35.752-24.98a74.817 74.817 0 0 1 4.471 4.562c1.72 1.902 3.369 3.868 5.014 5.839-.178 6.002-3.301 11.623-7.198 16.541zM169.593 345.852a61.803 61.803 0 0 0 11.467 7.363c.871 7.185-1.418 14.782-5.058 21.352-2.679 4.466-6.62 7.835-11.148 10.163a87.826 87.826 0 0 1-20.027-6.706c13.147-5.489 23.34-18.065 24.766-32.172zM195.327 358.331a64.83 64.83 0 0 0 13.36 1.664c3.494 6.399 4.927 14.005 3.57 20.826a86.988 86.988 0 0 1-17.51 4.653c4.191-8.227 4.347-18.578.58-27.143z" fill="#e36254"/><g fill="#a63c30"><path d="M208.687 359.995c5.727.108 11.463-.552 17.003-2.048 3.873-1.046 8.459-2.58 12.412-1.892 1.237.215 2.499.582 3.435 1.418.937.836 1.752 3.117.862 4.002-8.53 8.485-18.899 15.068-30.141 19.346 1.356-6.821-.077-14.427-3.571-20.826zM149.128 348.432c3.897-4.918 7.02-10.538 7.198-16.542 3.097 3.71 6.175 7.436 9.659 10.779a58.478 58.478 0 0 0 3.608 3.182c-1.425 14.107-11.619 26.683-24.766 32.173-7.354-3.49-14.223-7.994-20.293-13.422a81.008 81.008 0 0 1-1.226-1.122c9.662-2.295 18.653-7.29 25.82-15.048zM181.059 353.215a64.996 64.996 0 0 0 14.267 5.116c3.768 8.565 3.611 18.916-.58 27.142-3.527.55-7.088.879-10.659.974-6.452.171-12.913-.423-19.234-1.716 4.527-2.328 8.469-5.697 11.148-10.163 3.64-6.571 5.929-14.168 5.058-21.353zM111.088 346.47c-.181.03-.365.054-.547.081a39.132 39.132 0 0 1-1.707-4.343c-2.836-8.778-3.042-20.077 3.882-26.172 5.549-4.885 13.962-5.474 20.931-3.008 4.97 1.759 9.312 4.848 13.193 8.462-3.171 14.625-21.815 22.894-35.752 24.98z"/></g><path d="M181.843 388.167c-21.195.001-42.306-7.919-58.403-22.292-11.869-9.815-24.745-31.657-14.728-47.433 1.677-2.642 3.978-4.786 6.654-6.202 12.307-6.509 28.052 1.487 37.245 12.751.983 1.149 1.985 2.339 2.99 3.532 7.547 8.961 15.351 18.226 26.156 23.166l.05.024c13.52 6.73 29.355 8.411 43.446 4.614.474-.128.959-.264 1.453-.402 3.677-1.027 7.845-2.19 11.683-1.524l.093.019c3.835.894 5.871 2.573 6.053 4.991.699 9.313-31.333 22.838-31.657 22.967-5.381 2.143-11.395 3.741-17.873 4.751a83.515 83.515 0 0 1-13.162 1.038zm-70.3-67.927c-8.552 13.47 2.669 33.668 14.058 43.07l.05.043c18.694 16.704 44.423 24.357 68.831 20.464 6.236-.973 12.006-2.504 17.155-4.555 3.454-1.375 11.12-4.967 18.085-9.225 11.145-6.814 11.508-9.838 11.468-10.375-.055-.738-1.333-1.471-3.422-1.965-3.08-.519-6.84.531-10.159 1.458-.503.14-.998.279-1.482.409-14.865 4.006-31.552 2.243-45.79-4.837-11.477-5.255-19.521-14.807-27.301-24.044a599.475 599.475 0 0 0-2.999-3.543c-8.355-10.234-22.39-17.601-33.103-11.936-2.161 1.145-4.025 2.886-5.391 5.036z" fill="#7d271d"/><path d="M212.259 382.498a1.678 1.678 0 0 1-1.647-2.005c1.249-6.276.01-13.454-3.398-19.695a1.677 1.677 0 1 1 2.944-1.608c3.779 6.919 5.143 14.923 3.743 21.957a1.675 1.675 0 0 1-1.642 1.351zM123.306 365.158a1.677 1.677 0 0 1-.386-3.309c9.643-2.291 18.264-7.307 24.933-14.508 4.43-5.605 6.653-10.675 6.796-15.5.028-.926.815-1.668 1.726-1.627.926.027 1.654.8 1.627 1.726-.166 5.587-2.638 11.323-7.56 17.534a1.501 1.501 0 0 1-.083.096c-7.129 7.718-16.35 13.092-26.664 15.543-.13.03-.261.045-.389.045zM144.828 379.703a1.677 1.677 0 0 1-.647-3.225c12.884-5.381 22.425-17.755 23.743-30.794a1.677 1.677 0 1 1 3.337.337c-1.46 14.45-11.583 27.62-25.788 33.552-.211.088-.43.13-.645.13zM194.745 387.151a1.677 1.677 0 0 1-1.493-2.439c3.922-7.697 4.128-17.546.539-25.705a1.678 1.678 0 0 1 3.07-1.351c3.984 9.057 3.746 20.007-.621 28.579a1.675 1.675 0 0 1-1.495.916zM164.855 386.408a1.677 1.677 0 0 1-.769-3.169c4.556-2.343 8.075-5.543 10.462-9.51 3.866-6.988 5.586-14.201 4.846-20.313a1.678 1.678 0 0 1 3.33-.404c1.059 8.734-2.273 16.984-5.255 22.367l-.029.05c-2.675 4.459-6.762 8.19-11.819 10.791a1.654 1.654 0 0 1-.766.188zM111.086 348.147a1.678 1.678 0 0 1-.247-3.336c14.548-2.176 31.507-10.514 34.362-23.677a1.68 1.68 0 0 1 1.994-1.284 1.678 1.678 0 0 1 1.284 1.995c-1.528 7.045-6.578 13.362-14.604 18.268-6.391 3.907-14.606 6.828-22.539 8.015a1.619 1.619 0 0 1-.25.019z" fill="#7d271d"/><g><path d="M359.491 264.039c1.431-2.451 3.563-5.513 5.46-7.624s4.303-3.865 7.067-4.507c2.765-.642 5.907-.029 7.905 1.986s2.513 5.499.81 7.769c2.838-1.256 6.355-.956 8.831.915 2.477 1.871 3.729 5.292 2.871 8.275-.857 2.983-3.866 5.253-6.966 5.088 2.3.835 3.834 3.295 3.788 5.742s-1.516 4.82-3.662 5.996c-6.519 3.574-11.876.928-15.59.068-8.377 4.622-58.512 23.809-66.889 28.431l-12.272-36.57c11.874-3.286 68.647-15.569 68.647-15.569z" fill="#a63c30"/><path d="M303.118 317.856a1.68 1.68 0 0 1-1.591-1.144l-12.272-36.571a1.68 1.68 0 0 1 1.143-2.15c11.201-3.101 61.133-13.944 68.025-15.438 1.574-2.598 3.598-5.387 5.28-7.26 2.359-2.626 5.103-4.362 7.936-5.02 3.537-.821 7.168.113 9.475 2.439a8.106 8.106 0 0 1 2.285 6.553c2.556-.236 5.154.447 7.176 1.973 3.081 2.327 4.509 6.471 3.473 10.077-.706 2.454-2.513 4.454-4.742 5.506 1.047 1.378 1.663 3.117 1.629 4.893-.057 3.038-1.836 5.957-4.533 7.436-6.043 3.313-11.149 1.831-14.877.748-.454-.132-.89-.258-1.3-.367-4.883 2.531-18.573 8.102-33.032 13.985-14.338 5.834-29.165 11.867-33.266 14.13-.25.14-.529.21-.809.21zm-10.114-37.087 11.085 33.032c5.671-2.742 18.425-7.932 31.841-13.391 14.338-5.834 29.165-11.867 33.266-14.13.363-.2.786-.259 1.189-.165.662.153 1.349.353 2.076.564 3.516 1.021 7.502 2.177 12.329-.469 1.636-.897 2.757-2.728 2.792-4.557.034-1.789-1.12-3.567-2.684-4.134a1.677 1.677 0 0 1 .662-3.252c2.298.122 4.604-1.581 5.265-3.877.651-2.265-.304-4.988-2.271-6.473-1.937-1.463-4.807-1.753-7.142-.719a1.678 1.678 0 0 1-2.02-2.541c1.138-1.517.836-4.073-.66-5.582-1.471-1.483-3.957-2.086-6.334-1.533-2.727.633-4.876 2.521-6.199 3.994-1.682 1.872-3.746 4.757-5.259 7.349a1.68 1.68 0 0 1-1.094.794c-.543.117-52.211 11.303-66.842 15.09zm66.487-16.73h.005z" fill="#7d271d"/><path d="M366.624 275.663c2.057 3.753 6.254 5.408 9.375 3.697s3.983-6.14 1.926-9.892c-2.057-3.753-6.255-5.408-9.375-3.697-3.121 1.711-3.983 6.139-1.926 9.892z" fill="#e36254"/></g><g><path d="M142.445 269.789c-1.431-2.451-3.563-5.513-5.46-7.624s-4.303-3.865-7.067-4.507c-2.765-.642-5.907-.029-7.905 1.986-1.999 2.015-2.514 5.499-.81 7.769-2.838-1.256-6.355-.956-8.831.915-2.477 1.871-3.729 5.292-2.871 8.275.857 2.983 3.866 5.253 6.966 5.088-2.3.835-3.834 3.295-3.788 5.742s1.516 4.82 3.662 5.996c6.519 3.574 11.876.928 15.59.068 8.377 4.622 58.512 23.808 66.889 28.431l12.272-36.57c-11.874-3.286-68.647-15.569-68.647-15.569z" fill="#a63c30"/><path d="M198.818 323.607c-.28 0-.559-.07-.81-.209-4.102-2.263-18.928-8.296-33.266-14.13-14.459-5.883-28.149-11.454-33.032-13.985-.41.109-.847.236-1.3.367-3.729 1.082-8.834 2.564-14.877-.748-2.697-1.479-4.476-4.397-4.533-7.436-.033-1.775.582-3.515 1.629-4.893-2.229-1.051-4.036-3.051-4.742-5.506-1.036-3.606.391-7.749 3.472-10.077 2.022-1.526 4.621-2.207 7.176-1.973a8.105 8.105 0 0 1 2.285-6.553c2.307-2.326 5.938-3.26 9.475-2.439 2.832.658 5.576 2.393 7.935 5.019 1.682 1.872 3.706 4.66 5.281 7.26 6.891 1.493 56.823 12.337 68.025 15.438a1.678 1.678 0 0 1 1.143 2.15l-12.272 36.57a1.678 1.678 0 0 1-1.589 1.145zm-66.889-31.786c.281 0 .56.071.81.209 4.102 2.263 18.928 8.296 33.266 14.13 13.416 5.459 26.17 10.649 31.841 13.391l11.085-33.032c-14.63-3.787-66.298-14.973-66.842-15.09-.46-.1-.857-.387-1.094-.794-1.513-2.592-3.577-5.477-5.259-7.349-1.323-1.472-3.472-3.36-6.199-3.994-2.377-.551-4.864.05-6.335 1.534-1.496 1.508-1.798 4.064-.659 5.581a1.678 1.678 0 0 1-2.02 2.541c-2.335-1.034-5.205-.744-7.142.719-1.967 1.485-2.922 4.208-2.27 6.473.66 2.296 2.976 4 5.264 3.877a1.687 1.687 0 0 1 1.733 1.341 1.678 1.678 0 0 1-1.071 1.911c-1.564.567-2.717 2.344-2.684 4.134.034 1.829 1.156 3.66 2.791 4.557 4.827 2.647 8.813 1.489 12.329.469a40.61 40.61 0 0 1 2.076-.564c.126-.029.254-.044.38-.044z" fill="#7d271d"/><path d="M135.312 281.413c-2.057 3.753-6.255 5.408-9.375 3.697-3.121-1.711-3.983-6.139-1.926-9.892s6.255-5.408 9.375-3.697c3.121 1.711 3.983 6.14 1.926 9.892z" fill="#e36254"/></g><g><path d="M187.866 367.4c4.55 27.516 9.933 70.093 9.933 70.093s-20.065 11.256-16.15 17.129 34.586 6.851 39.805 0c5.219-6.852 16.964-65.579 16.964-65.579z" fill="#a63c30"/><path d="M202.09 461.078a76.68 76.68 0 0 1-2.366-.037c-3.789-.12-16.39-.868-19.47-5.489-.754-1.131-.971-2.484-.628-3.912 1.407-5.857 12.716-12.901 16.369-15.044-.88-6.88-5.697-44.215-9.783-68.923a1.677 1.677 0 0 1 2.315-1.815l50.553 21.643a1.677 1.677 0 0 1 .984 1.871c-1.21 6.05-11.975 59.307-17.275 66.266-3.07 4.029-12.307 5.44-20.699 5.44zm-12.077-90.935c4.393 27.239 9.397 66.729 9.449 67.139a1.676 1.676 0 0 1-.843 1.673c-5.585 3.135-14.796 9.564-15.733 13.469-.161.671 0 1.029.158 1.267 1.145 1.717 7.417 3.702 16.785 3.996 9.72.307 18.256-1.411 20.291-4.083 3.588-4.71 11.653-40.072 16.386-63.556z" fill="#7d271d"/></g><g><path d="M324.645 364.436c-4.55 27.516-10.175 73.057-10.175 73.057s20.065 11.256 16.15 17.129-34.586 6.851-39.805 0c-5.219-6.852-16.965-65.579-16.965-65.579z" fill="#a63c30"/><path d="M310.179 461.078c-8.393 0-17.629-1.41-20.698-5.44-5.3-6.959-16.065-60.216-17.275-66.266a1.677 1.677 0 0 1 .913-1.838l50.795-24.607a1.675 1.675 0 0 1 2.386 1.783c-4.1 24.796-9.137 64.753-10.028 71.885 3.649 2.14 14.965 9.187 16.372 15.046.343 1.428.126 2.781-.628 3.912-3.08 4.621-15.682 5.369-19.47 5.489-.778.023-1.569.036-2.367.036zm-34.429-71.091c4.732 23.483 12.807 58.904 16.399 63.618 2.035 2.672 10.567 4.396 20.291 4.083 9.368-.295 15.64-2.279 16.785-3.996.158-.237.319-.596.158-1.267-.937-3.904-10.148-10.333-15.733-13.469a1.679 1.679 0 0 1-.844-1.668c.054-.439 5.261-42.492 9.665-69.935z" fill="#7d271d"/></g><g><path d="M324.968 364.6c-6.986 26.198-46.183 36.673-65.156 38.412-18.973 1.74-57.803-1.582-69.437-26.072-9.903-20.833 1.15-58.89 12.363-94.098 1.965-6.171 3.939-12.252 5.8-18.139l78.16-7.166c3.307 6.212 6.799 12.648 10.281 19.181 17.006 31.91 33.791 66.139 27.989 87.882z" fill="#e36254"/><path d="M296.979 276.719c-29.614 24.345-74.597 19.105-94.241 6.124 1.965-6.171 3.939-12.252 5.8-18.139l78.16-7.166c3.308 6.212 6.8 12.648 10.281 19.181z" fill="#a63c30"/><path d="M250.785 405.078c-20.712 0-51.538-5.553-61.924-27.418-9.99-21.017.588-58.616 12.28-95.326.839-2.633 1.679-5.25 2.511-7.842 1.118-3.482 2.221-6.919 3.288-10.293a1.678 1.678 0 0 1 1.446-1.165l78.16-7.166a1.678 1.678 0 0 1 1.633.882c1.669 3.135 3.385 6.327 5.124 9.56 1.706 3.173 3.432 6.385 5.157 9.621 17.5 32.836 34.086 66.767 28.13 89.102-3.166 11.874-13.192 22.062-28.992 29.464-13.18 6.175-28.081 9.31-37.632 10.186a101.57 101.57 0 0 1-9.181.395zm-40.984-138.806c-.963 3.037-1.954 6.123-2.956 9.245-.831 2.59-1.671 5.204-2.508 7.835-11.488 36.071-21.912 72.955-12.446 92.868 6.124 12.893 20.179 19.066 30.891 21.974 16.682 4.529 32.445 3.554 36.878 3.148 22.158-2.031 57.404-13.607 63.689-37.174 5.645-21.156-11.415-55.824-27.849-86.66-1.722-3.233-3.447-6.441-5.151-9.61-1.559-2.9-3.1-5.766-4.605-8.589z" fill="#7d271d"/></g><g><path d="M226.66 86.803c-8.831-13.149-14.334-19.191-24.736-31.424-5.707-6.712-12.493-14.45-21.982-16.497-3.999-.863-7.819 1.768-5.063 5.768 1.127 1.636 3.018 2.703 4.835 3.706-2.971-.69-4.978-.869-7.969-.583s-5.911 1.322-7.965 3.233c-1.085 1.01-1.94 2.475-1.378 3.861.442 1.088 1.67 1.817 2.911 2.069 1.24.252 2.507.11 3.744-.034-15.293 21.874-21.673 68.168-12.719 83.583z" fill="#ffe8db"/><path d="M156.34 142.164a1.676 1.676 0 0 1-1.452-.835c-9.162-15.774-3.034-59.768 10.984-82.618a8.493 8.493 0 0 1-.892-.131c-1.936-.393-3.519-1.574-4.131-3.083-.748-1.843-.079-3.981 1.79-5.719 2.177-2.026 5.354-3.331 8.947-3.674.776-.074 1.492-.12 2.181-.135a8.231 8.231 0 0 1-.269-.367c-1.459-2.117-1.63-4.324-.471-6.056 1.355-2.023 4.277-2.951 7.269-2.304 10.297 2.221 17.585 10.792 22.906 17.05 1.295 1.523 2.514 2.951 3.673 4.307 8.065 9.44 13.393 15.677 21.177 27.268a1.676 1.676 0 1 1-2.785 1.87c-7.676-11.43-12.669-17.275-20.942-26.959-1.161-1.359-2.382-2.788-3.678-4.313-5.01-5.893-11.873-13.963-21.058-15.945-1.804-.389-3.29.169-3.774.892-.46.687-.011 1.622.446 2.286.929 1.349 2.701 2.327 4.264 3.19a1.678 1.678 0 0 1-1.189 3.102c-2.905-.674-4.71-.807-7.43-.547-2.862.273-5.342 1.264-6.982 2.791-.596.554-1.206 1.411-.966 2.002.183.451.893.895 1.69 1.057.993.202 2.124.07 3.217-.056a1.677 1.677 0 0 1 1.567 2.627c-6.955 9.948-12.625 26.208-15.168 43.497-2.457 16.704-1.489 31.374 2.524 38.283a1.678 1.678 0 0 1-1.448 2.52z" fill="#e0a58f"/><path d="M183.918 64.882c10.062-3.574 26.252 27.448 28.006 33.147 1.753 5.699-34.154 27.411-40.03 23.403-5.876-4.007 3.138-53.394 12.024-56.55z" fill="#a63c30"/><path d="M173.946 123.565c-1.221 0-2.242-.232-2.997-.747-2.732-1.863-3.336-8.857-1.793-20.786 1.766-13.651 7.183-36.236 14.2-38.731 1.937-.689 4.089-.45 6.394.708 10.576 5.313 22.45 29.215 23.776 33.526.514 1.67.133 4.674-9.067 11.457-7.755 5.72-22.969 14.573-30.513 14.573zm11.668-57.293c-.4 0-.777.064-1.135.191-3.97 1.41-9.523 17.834-11.883 35.147-1.717 12.597-.578 17.862.243 18.438 1.073.733 6.656-.209 17.073-5.847 5.246-2.839 10.484-6.225 14.371-9.289 4.9-3.862 6.004-5.925 6.025-6.429-1.538-4.915-13.116-26.981-22.063-31.476-.977-.491-1.848-.735-2.631-.735zm-1.696-1.39h.005z" fill="#7d271d"/><path d="M292.589 93.856c11.412-10.983 18.068-15.725 30.823-25.481 6.998-5.353 15.267-11.481 24.974-11.475 4.091.003 7.268 3.382 3.728 6.709-1.448 1.36-3.521 2.004-5.509 2.6 3.05-.046 5.049.204 7.912 1.116s5.497 2.542 7.101 4.844c.847 1.216 1.372 2.83.53 4.065-.662.97-2.017 1.423-3.282 1.407s-2.474-.423-3.652-.825c10.32 24.614 6.764 71.21-5.247 84.383z" fill="#ffe8db"/><path d="M349.963 162.875a1.677 1.677 0 0 1-1.239-2.807c5.384-5.904 9.432-20.037 10.564-36.883 1.172-17.435-.931-34.527-5.624-45.721a1.676 1.676 0 0 1 2.088-2.236c1.042.355 2.12.722 3.132.735.813.012 1.602-.273 1.876-.674.359-.527-.056-1.494-.521-2.162-1.28-1.838-3.494-3.331-6.233-4.205-2.602-.829-4.399-1.081-7.377-1.037a1.67 1.67 0 0 1-1.683-1.422 1.676 1.676 0 0 1 1.176-1.862c1.71-.512 3.648-1.093 4.842-2.215.587-.552 1.223-1.371.919-2.139-.32-.809-1.655-1.668-3.5-1.67h-.013c-9.391 0-17.799 6.432-23.941 11.13-1.588 1.215-3.082 2.352-4.502 3.433-10.136 7.717-16.255 12.375-26.176 21.924a1.678 1.678 0 0 1-2.327-2.416c10.062-9.684 16.589-14.654 26.47-22.176 1.418-1.08 2.91-2.215 4.496-3.429 6.522-4.989 15.453-11.82 25.978-11.82h.015c3.062.002 5.721 1.525 6.617 3.79.767 1.937.132 4.058-1.742 5.818a8.832 8.832 0 0 1-.34.302c.671.16 1.361.357 2.103.593 3.439 1.096 6.269 3.044 7.968 5.484 1.458 2.095 1.66 4.326.539 5.968-.917 1.345-2.72 2.178-4.69 2.139a8.532 8.532 0 0 1-.899-.061c8.868 25.299 5.551 69.593-6.739 83.072a1.66 1.66 0 0 1-1.237.547z" fill="#e0a58f"/><path d="M339 81.471c-9.079-5.621-31.464 21.274-34.383 26.473s27.583 34.015 34.174 31.341c6.59-2.674 8.227-52.85.209-57.814z" fill="#a63c30"/><path d="M337.868 141.115c-6.955.001-21.436-13.114-28.276-20.877-7.556-8.575-7.293-11.591-6.438-13.115 2.208-3.933 18.867-24.782 30.329-27.738 2.498-.643 4.652-.422 6.399.66 6.332 3.92 6.849 27.141 5.687 40.857-1.015 11.986-3.084 18.694-6.149 19.938-.46.187-.981.275-1.552.275zm-31.769-32.386c-.086.497.556 2.747 4.528 7.557 3.151 3.817 7.554 8.233 12.081 12.117 8.989 7.715 14.251 9.814 15.452 9.327.924-.389 3.15-5.293 4.137-17.965 1.356-17.422-.597-34.651-4.18-36.869-.953-.59-2.194-.676-3.796-.264-9.696 2.502-25.679 21.619-28.222 26.097z" fill="#7d271d"/><path d="M313.791 264.785c-27.343 7.417-58.245 9.36-74.663 6.645-16.693-.822-46.67-9.325-71.892-22.456a172.723 172.723 0 0 1-10.146-5.707c-16.773-10.214-29.876-22.564-32.796-35.947-.791-3.593-.842-7.266-.03-10.986 3.24-14.882 55.833-93.638 67.556-103.704 11.723-10.067 37.516-11.245 67.296-8.059s58.219 10.165 67.547 22.483c9.328 12.319 40.59 100.044 40.609 115.275.027 20.83-24.768 34.665-53.481 42.456z" fill="#e36254"/><path d="M314.241 261.474a58.834 58.834 0 0 1-.451 3.311c-27.343 7.417-58.245 9.36-74.663 6.645-16.693-.822-46.67-9.325-71.892-22.456a54.79 54.79 0 0 1 .25-3.197c3.786-35.393 39.708-60.572 80.233-56.237 40.525 4.333 70.309 36.541 66.523 71.934z" fill="#ffe8db"/><circle cx="289.541" cy="180.108" fill="#fff" transform="rotate(-68.28 289.65 180.112)" r="21.156"/><path d="M289.585 202.943c-.82 0-1.645-.044-2.473-.132-12.519-1.339-21.614-12.614-20.275-25.132a22.683 22.683 0 0 1 8.367-15.343c4.747-3.829 10.699-5.582 16.765-4.932 6.064.649 11.513 3.62 15.342 8.367s5.581 10.7 4.932 16.765a22.687 22.687 0 0 1-8.367 15.343c-4.097 3.307-9.097 5.064-14.291 5.064zm-.081-42.316c-4.431 0-8.695 1.499-12.193 4.321a19.352 19.352 0 0 0-7.138 13.089c-1.142 10.68 6.617 20.297 17.296 21.439 5.172.557 10.253-.94 14.302-4.207s6.584-7.915 7.138-13.089c.553-5.173-.941-10.253-4.208-14.302s-7.915-6.584-13.088-7.137a19.435 19.435 0 0 0-2.109-.114z"/><path d="M298.653 182.065c-.744 6.959-6.991 11.999-13.95 11.254-6.959-.744-11.999-6.991-11.254-13.95.745-6.963 6.992-12.003 13.951-11.258a12.613 12.613 0 0 1 7.754 3.787c-.195.08-.39.169-.583.265-3.455 1.706-5.389 4.852-4.32 7.03 1.074 2.174 4.751 2.555 8.21.85.081-.04.162-.08.24-.124.046.704.03 1.423-.048 2.146z"/><circle cx="208.195" cy="171.406" fill="#fff" transform="rotate(-21.25 207.993 171.435)" r="21.156"/><path d="M208.212 194.24c-.808 0-1.624-.043-2.445-.131-12.519-1.339-21.614-12.613-20.275-25.132a22.683 22.683 0 0 1 8.367-15.342c4.747-3.83 10.7-5.58 16.765-4.932 6.064.649 11.513 3.62 15.342 8.367s5.581 10.7 4.932 16.765c-1.251 11.697-11.176 20.405-22.686 20.405zm-19.385-24.906c-1.142 10.68 6.617 20.298 17.297 21.44 10.676 1.14 20.298-6.617 21.44-17.296.553-5.173-.941-10.253-4.208-14.302s-7.915-6.584-13.088-7.137a19.336 19.336 0 0 0-14.302 4.208 19.345 19.345 0 0 0-7.139 13.087z"/><path d="M198.875 171.392c-.744 6.959 4.295 13.206 11.254 13.95s13.206-4.295 13.95-11.254c.077-.724.094-1.442.048-2.147-.081.04-.163.084-.244.124-3.455 1.706-7.132 1.324-8.206-.849-1.07-2.178.861-5.325 4.32-7.03a8.18 8.18 0 0 1 .583-.265 12.623 12.623 0 0 0-7.754-3.786c-6.959-.745-13.206 4.294-13.951 11.257zM236.875 193.161l19.457 2.081c2.368.253 3.362 3.156 1.646 4.808l-10.403 10.013a3.688 3.688 0 0 1-5.658-.659l-7.697-11.936c-1.277-1.98.311-4.558 2.655-4.307z"/><g><path d="M236.602 126.233c.479 3.625-4.624 7.289-11.397 8.183s-12.652-1.319-13.131-4.944 4.624-7.289 11.397-8.183c6.774-.895 12.653 1.319 13.131 4.944z" fill="#ffe8db"/><path d="M222.229 136.292c-2.388 0-4.639-.367-6.541-1.084-3.086-1.162-4.96-3.121-5.276-5.517s.985-4.774 3.664-6.697c2.373-1.704 5.632-2.9 9.177-3.368 3.544-.469 7.002-.159 9.736.871 3.086 1.162 4.96 3.121 5.276 5.517s-.985 4.774-3.664 6.698c-2.373 1.704-5.632 2.9-9.177 3.368a24.71 24.71 0 0 1-3.195.212zm4.195-13.522c-.895 0-1.813.06-2.733.181-2.963.391-5.755 1.4-7.66 2.767-1.603 1.151-2.439 2.439-2.295 3.534.145 1.095 1.286 2.121 3.133 2.817 2.194.826 5.151 1.075 8.115.685 2.963-.391 5.755-1.4 7.659-2.767 1.603-1.151 2.439-2.439 2.295-3.534-.145-1.095-1.286-2.121-3.133-2.817-1.512-.571-3.389-.866-5.381-.866z" fill="#e0a58f"/></g><g><path d="M292.171 142.181c-1.724 3.225-8.005 3.229-14.031.008-6.025-3.22-9.513-8.445-7.789-11.67s8.005-3.229 14.031-.008c6.025 3.221 9.513 8.446 7.789 11.67z" fill="#ffe8db"/><path d="M286.712 146.264c-2.813 0-6.111-.857-9.362-2.594-6.947-3.713-10.671-9.836-8.478-13.94s9.353-4.41 16.3-.697 10.671 9.837 8.478 13.94c-1.167 2.182-3.74 3.291-6.938 3.291zm-10.955-16.472c-1.956 0-3.407.546-3.927 1.519-1.1 2.058 1.703 6.516 7.101 9.401s10.661 2.739 11.761.68c1.1-2.058-1.703-6.516-7.101-9.401-2.845-1.521-5.654-2.199-7.834-2.199z" fill="#e0a58f"/></g><path d="M169.573 188.64c-8.315 16.913-12.617 35.778-12.484 54.626-16.773-10.214-29.876-22.564-32.796-35.947a137.438 137.438 0 0 1 24.604-24.66c4.656-3.608 10.037-7.061 15.921-6.74 2.419.133 5.002 1.089 6.192 3.202 1.651 2.914.041 6.516-1.437 9.519zM324.527 205.215c4.55 18.289 4.764 37.638.648 56.031 18.553-6.435 33.972-15.735 39.657-28.197A137.44 137.44 0 0 0 346 203.743c-3.787-4.511-8.317-9.025-14.135-9.956-2.393-.381-5.119.007-6.73 1.82-2.228 2.5-1.417 6.36-.608 9.608z" fill="#ffe8db"/><g><path d="M256.254 274.26c-6.783 0-12.697-.406-17.305-1.161-15.991-.813-45.983-8.839-72.488-22.639a174.34 174.34 0 0 1-10.244-5.762c-19.226-11.708-30.832-24.509-33.562-37.022-.861-3.909-.871-7.847-.03-11.702 3.307-15.192 56.008-94.233 68.102-104.619 10.849-9.316 33.919-12.16 68.567-8.455 20.801 2.225 57.386 8.19 68.706 23.139 9.932 13.115 40.931 101.144 40.949 116.285.024 18.842-19.409 34.496-54.72 44.078-20.294 5.507-41.651 7.858-57.975 7.858zm-23.876-189.6c-19.074 0-32.301 3.089-39.466 9.241-11.472 9.851-63.895 88.483-67.01 102.789-.738 3.379-.728 6.834.029 10.269 2.531 11.598 13.607 23.656 32.03 34.875a170.938 170.938 0 0 0 10.048 5.651c26.131 13.606 55.598 21.502 71.201 22.27.064.003.128.01.191.021 15.31 2.532 45.627 1.075 73.95-6.609 19.524-5.298 52.274-17.648 52.244-40.837-.018-14.296-30.878-101.863-40.269-114.264-7.825-10.334-31.403-18.086-66.389-21.828-9.836-1.053-18.695-1.578-26.559-1.578zm81.413 180.125h.005z" fill="#a63c30"/></g><g><path d="M220.191 218.645c1.569 3.994 3.004 8.048 5.551 11.717a24.62 24.62 0 0 0 2.245 2.792c4.057 4.333 10.418 7.84 17.622 8.167 5.791.263 11.357-1.581 15.7-4.445 1.701-1.122 3.214-2.4 4.48-3.77 4.498-4.868 6.493-9.803 7.822-15.585-11.728 5.834-37.628 4.98-53.42 1.124z" fill="#fff"/><path d="M246.706 243.023c-.392 0-.783-.009-1.174-.027-6.951-.316-13.968-3.566-18.771-8.697a26.12 26.12 0 0 1-2.398-2.981c-2.377-3.424-3.82-7.139-5.216-10.731-.172-.444-.344-.887-.518-1.329a1.678 1.678 0 0 1 1.959-2.243c15.95 3.894 41.341 4.442 52.275-.996a1.68 1.68 0 0 1 2.382 1.877c-1.126 4.9-2.984 10.675-8.225 16.347a26.05 26.05 0 0 1-4.788 4.032c-4.671 3.082-10.142 4.748-15.526 4.748zm-23.807-22.052c1.175 2.978 2.394 5.805 4.22 8.435a22.757 22.757 0 0 0 2.091 2.602c4.218 4.506 10.377 7.361 16.474 7.638 5.055.23 10.276-1.251 14.7-4.17a22.625 22.625 0 0 0 4.171-3.508c3.125-3.382 5.134-6.89 6.57-11.61-11.964 4.121-32.922 3.76-48.226.613z"/><g><path d="M252.797 232.922a1.676 1.676 0 0 1-.019-3.354 45.272 45.272 0 0 0 15.987-3.112 1.677 1.677 0 1 1 1.221 3.124 48.61 48.61 0 0 1-17.167 3.342h-.022z"/></g></g></g><g><path d="M246.559 306.861c-.941 8.102-1.725 17.169.808 25.057.599 1.863 3.072 1.385 3.265-.442.861-8.159.101-16.421 1.003-24.615.359-3.249-4.703-3.206-5.076 0zM237.901 304.082c-2.301 6.107-4.564 13.96-2.818 20.481.424 1.585 2.826 1.612 3.238 0 .799-3.131.843-6.515 1.367-9.711.536-3.272 1.282-6.488 2.296-9.645.845-2.629-3.138-3.633-4.083-1.125zM255.759 304.221a105.961 105.961 0 0 1 2.216 10.906c.541 3.586.803 7.307 1.602 10.84.316 1.395 2.443 1.355 2.783 0 .908-3.618.864-7.819.523-11.505-.365-3.945-1.099-7.791-2.099-11.627-.845-3.242-5.872-1.867-5.025 1.386zM238.165 334.395c.07 4.449.387 9.035 2.147 13.179.592 1.394 2.555.535 2.626-.711.236-4.128-.351-8.333-.438-12.467-.058-2.786-4.379-2.798-4.335-.001zM256.127 336.23c.169 3.659-.258 7.474.479 11.074.262 1.278 2.395 1.657 2.946.385 1.548-3.579 1.45-7.626 1.315-11.459-.108-3.045-4.882-3.049-4.74 0zM248.051 348.343c-.18 3.069-.389 7.014 1.401 9.688.759 1.133 2.812 1.129 3.131-.409.615-2.974-.169-6.246-.062-9.279.102-2.888-4.303-2.856-4.47 0z" fill="#f0857a"/></g><g><path d="M251.477 311.586c-10.533 0-21.234-.772-31.894-2.302a235.29 235.29 0 0 1-10.016-1.661c-13.491-2.529-27.099-6.3-40.444-11.206a261.198 261.198 0 0 1-11.472-4.518c-12.14-5.104-24.139-11.201-35.663-18.121a291.06 291.06 0 0 1-16.527-10.695 1.678 1.678 0 0 1 1.917-2.753 287.79 287.79 0 0 0 16.336 10.571c11.389 6.839 23.244 12.863 35.239 17.906a258.357 258.357 0 0 0 11.327 4.461c13.172 4.842 26.598 8.563 39.908 11.058 3.193.603 6.515 1.153 9.873 1.637 12.476 1.791 25.009 2.526 37.25 2.187a181.08 181.08 0 0 0 5.373-.223 187.07 187.07 0 0 0 7.805-.585 201.955 201.955 0 0 0 40.919-8.165 197.291 197.291 0 0 0 16.222-5.816c12.905-5.27 25.075-11.858 36.172-19.581 12.869-8.954 24.267-19.413 33.878-31.086a1.678 1.678 0 0 1 2.59 2.132c-9.806 11.911-21.431 22.579-34.552 31.708-11.299 7.863-23.687 14.57-36.82 19.933a200.626 200.626 0 0 1-16.497 5.915 205.333 205.333 0 0 1-41.594 8.3c-2.538.246-5.136.441-7.937.595-1.871.104-3.711.181-5.467.227-1.97.054-3.946.082-5.926.082z" fill="#7d271d"/><path d="M158.301 290.352c-7.399 7.135-14.793 14.266-22.192 21.396-2.635 2.544-6.196 5.295-9.594 3.92-1.768-.714-2.966-2.444-3.512-4.274-.541-1.831-.527-3.771-.508-5.679.12-11.127.235-22.249.355-33.376 11.372 6.829 23.232 12.876 35.451 18.013z" fill="#3f9e53"/><path d="M128.423 317.721c-.832 0-1.68-.151-2.536-.498-2.091-.844-3.728-2.794-4.491-5.349-.619-2.093-.597-4.262-.578-6.175l.355-33.377a1.678 1.678 0 0 1 2.541-1.42c11.386 6.837 23.241 12.862 35.238 17.905a1.68 1.68 0 0 1 .515 2.753l-1.257 1.212c-6.98 6.731-13.955 13.458-20.935 20.185-2.241 2.161-5.406 4.764-8.852 4.764zm-3.926-42.454-.324 30.467c-.018 1.759-.036 3.578.439 5.185.461 1.545 1.408 2.741 2.532 3.195 1.972.799 4.45-.337 7.801-3.572a62530.17 62530.17 0 0 0 20.369-19.639 281.452 281.452 0 0 1-30.817-15.636z" fill="#30753e"/><path d="M209.877 305.974c-8.132 8.932-16.269 17.874-24.396 26.806-2.473 2.712-5.842 5.688-9.321 4.538-1.816-.594-3.124-2.247-3.786-4.035-.661-1.792-.771-3.733-.877-5.635l-1.797-32.806c13.088 4.812 26.53 8.573 40.177 11.132z" fill="#fcd242"/><path d="M177.75 339.255c-.69 0-1.396-.107-2.115-.344-2.142-.701-3.905-2.541-4.832-5.045-.752-2.038-.872-4.209-.979-6.124l-1.797-32.808a1.676 1.676 0 0 1 2.254-1.666c13.168 4.842 26.594 8.562 39.906 11.058a1.676 1.676 0 0 1 .931 2.778c-8.132 8.932-16.269 17.874-24.396 26.806-2.19 2.401-5.352 5.345-8.972 5.345zm-6.235-41.972 1.658 30.274c.098 1.76.199 3.582.776 5.146.561 1.515 1.583 2.645 2.734 3.022 2.019.665 4.418-.629 7.559-4.075 7.457-8.196 14.923-16.4 22.386-24.598-11.723-2.351-23.509-5.63-35.113-9.769z" fill="#ff713e"/><path d="M262.776 309.602a77827.376 77827.376 0 0 1-16.211 33.016c-1.615 3.292-4.021 7.087-7.686 6.953-1.907-.072-3.623-1.294-4.758-2.827-1.131-1.534-1.778-3.364-2.41-5.166-3.963-11.319-7.921-22.637-11.889-33.956 12.411 1.783 24.957 2.554 37.536 2.204 1.805-.047 3.611-.124 5.418-.224z" fill="#f22a4e"/><path d="M239.076 351.253c-.086 0-.172-.002-.259-.005-2.256-.086-4.458-1.363-6.045-3.506-1.291-1.751-2.01-3.8-2.645-5.609l-3.962-11.32c-2.641-7.546-5.282-15.091-7.927-22.637a1.677 1.677 0 0 1 1.821-2.215c12.476 1.793 25.008 2.527 37.251 2.188 1.741-.046 3.548-.121 5.373-.223a1.678 1.678 0 0 1 1.599 2.413c-5.4 11.007-10.806 22.014-16.211 33.017-1.672 3.407-4.411 7.897-8.995 7.897zm-16.765-41.595c2.342 6.683 4.681 13.366 7.02 20.048l3.962 11.319c.583 1.662 1.187 3.382 2.177 4.725.961 1.297 2.26 2.101 3.472 2.147 2.118.072 4.066-1.834 6.117-6.016 4.988-10.153 9.976-20.309 14.959-30.465-.885.036-1.759.066-2.617.089-11.538.321-23.329-.302-35.09-1.847z" fill="#911027"/><g><path d="M311.903 300.78c-2.53 11.597-5.065 23.188-7.595 34.78-.786 3.584-2.214 7.844-5.803 8.592-1.869.388-3.829-.388-5.295-1.605-1.471-1.222-2.535-2.846-3.58-4.442-6.325-9.699-12.656-19.393-18.981-29.092a203.628 203.628 0 0 0 41.254-8.233z" fill="#3f9e53"/><path d="M297.504 345.93c-1.826 0-3.721-.729-5.365-2.093-1.667-1.385-2.808-3.128-3.912-4.814l-9.448-14.48-9.535-14.614a1.677 1.677 0 0 1 1.249-2.586 202.063 202.063 0 0 0 40.913-8.165 1.678 1.678 0 0 1 2.136 1.959c-1.373 6.295-2.748 12.588-4.123 18.88l-3.472 15.9c-.829 3.778-2.466 8.911-7.1 9.876a6.56 6.56 0 0 1-1.343.137zm-23.944-35.525 8.028 12.304 9.447 14.479c1.011 1.545 1.968 3.006 3.247 4.068 1.243 1.032 2.695 1.501 3.882 1.253 2.076-.432 3.508-2.755 4.506-7.309l3.472-15.898 3.514-16.091a205.39 205.39 0 0 1-36.096 7.194z" fill="#30753e"/></g><g><path d="M367.782 317.911c-1.596 1.045-3.699 1.045-5.516.446-1.811-.594-3.397-1.716-4.955-2.823-9.68-6.872-19.364-13.743-29.049-20.62 12.871-5.257 25.148-11.86 36.496-19.757l5.276 32.633c.585 3.623.815 8.108-2.252 10.121z" fill="#fcd242"/><path d="M364.709 320.443a9.478 9.478 0 0 1-2.968-.494c-2.066-.678-3.838-1.937-5.401-3.048l-29.048-20.62a1.677 1.677 0 0 1 .337-2.92c12.906-5.271 25.076-11.859 36.172-19.582.473-.328 1.082-.392 1.613-.167s.909.707 1 1.276l5.276 32.634c.616 3.816.976 9.189-2.988 11.79l-.001.001c-1.143.749-2.522 1.13-3.992 1.13zm3.073-2.532h.005zM331.7 295.297l26.583 18.87c1.437 1.021 2.922 2.076 4.507 2.596 1.535.506 3.057.41 4.074-.255 1.776-1.167 2.257-3.852 1.515-8.45l-4.854-30.022c-9.885 6.666-20.567 12.46-31.825 17.261z" fill="#ff713e"/></g></g><g><path d="M242.919 458.905a1.677 1.677 0 0 1-.731-3.188c9.683-4.678 19.247-10.181 28.425-16.356 10.973-7.372 21.617-15.852 31.64-25.203a278.845 278.845 0 0 0 13.613-13.618c9.525-10.22 18.486-21.362 26.635-33.116l.387-.559a320.618 320.618 0 0 0 10.768-16.702c6.654-11.03 12.901-22.875 18.57-35.208l.032-.074a392.3 392.3 0 0 0 7.482-17.368c5.06-12.557 9.689-25.856 13.759-39.529a498.738 498.738 0 0 0 4.198-14.94 1.679 1.679 0 0 1 3.243.859 500.706 500.706 0 0 1-4.227 15.04c-4.099 13.772-8.763 27.171-13.862 39.825a395.732 395.732 0 0 1-7.514 17.448c-.01.024-.02.049-.031.072-5.729 12.472-12.047 24.452-18.777 35.608a323.855 323.855 0 0 1-10.881 16.878l-.389.562c-8.242 11.888-17.305 23.156-26.94 33.494a282.936 282.936 0 0 1-13.778 13.783c-10.152 9.473-20.937 18.063-32.056 25.535-9.309 6.263-19.012 11.846-28.838 16.593-.235.11-.483.164-.728.164z" fill="#7d271d"/><path d="M423.465 296.189c-.786 1.74-2.564 2.866-4.413 3.335-1.85.465-3.79.369-5.698.273-10.686-.556-21.377-1.107-32.058-1.658 5.233-12.986 9.814-26.25 13.811-39.677 8.28 9.325 16.556 18.655 24.837 27.98 2.433 2.741 5.035 6.407 3.521 9.747z" fill="#f22a4e"/><path d="M415.709 301.553c-.841 0-1.661-.042-2.439-.081-10.625-.552-21.251-1.1-31.869-1.648l-.191-.01a1.677 1.677 0 0 1-1.469-2.302c5.06-12.556 9.689-25.856 13.759-39.529a1.678 1.678 0 0 1 2.862-.635l11.957 13.471c4.293 4.837 8.585 9.674 12.879 14.509 2.567 2.891 5.754 7.233 3.795 11.553-.93 2.057-2.945 3.613-5.528 4.268-1.252.315-2.526.404-3.756.404zm-31.986-4.968c9.902.511 19.812 1.022 29.718 1.537 1.762.088 3.587.181 5.202-.225 1.562-.396 2.794-1.293 3.294-2.399l.001-.002c.877-1.935-.155-4.457-3.249-7.94l-12.88-14.51-9.963-11.224c-3.647 11.975-7.716 23.645-12.123 34.763z" fill="#911027"/><path d="M396.012 353.405c-.968 1.644-2.861 2.573-4.749 2.842-1.888.268-3.81-.034-5.693-.335-10.159-1.629-20.318-3.254-30.477-4.883 6.9-11.439 13.106-23.289 18.689-35.441 6.594 9.248 13.178 18.497 19.767 27.75 2.127 2.984 4.322 6.909 2.463 10.067z" fill="#3f9e53"/><path d="M389.717 358.027c-1.543 0-3.044-.24-4.412-.46l-30.477-4.883a1.678 1.678 0 0 1-1.171-2.522c6.665-11.048 12.923-22.916 18.601-35.275a1.675 1.675 0 0 1 2.889-.274c5.647 7.921 11.288 15.842 16.93 23.766l2.838 3.985c2.243 3.148 4.948 7.806 2.542 11.892-1.145 1.944-3.317 3.275-5.957 3.651-.598.085-1.194.12-1.783.12zm-31.913-8.264 28.032 4.492c1.737.278 3.533.566 5.191.331 1.601-.228 2.924-.987 3.539-2.032 1.077-1.83.32-4.449-2.384-8.244l-2.838-3.986c-5.084-7.14-10.167-14.279-15.255-21.416-5.034 10.745-10.501 21.102-16.285 30.855zm38.208 3.642h.005z" fill="#30753e"/><g><path d="M361.859 410.99c-1.184 1.495-3.182 2.161-5.089 2.166-1.912.01-3.771-.551-5.597-1.107-11.357-3.455-22.719-6.915-34.081-10.365 9.723-10.432 18.674-21.602 26.787-33.304l16.911 32.298c1.702 3.249 3.341 7.432 1.069 10.312z" fill="#fcd242"/><path d="M356.72 414.833c-2.16 0-4.218-.627-6.035-1.18l-9.859-3c-8.072-2.456-16.147-4.913-24.22-7.365a1.675 1.675 0 0 1-.74-2.748c9.526-10.22 18.487-21.362 26.636-33.116a1.68 1.68 0 0 1 2.864.178l16.911 32.298c1.793 3.423 3.836 8.406.9 12.129l-.002.002c-1.405 1.774-3.737 2.795-6.4 2.802h-.055zm-36.58-13.976c7.222 2.193 14.443 4.391 21.663 6.588l9.859 3c1.671.509 3.398 1.035 5.062 1.035h.039c1.614-.004 3.026-.576 3.782-1.529 1.315-1.67.921-4.369-1.239-8.494l-15.632-29.855c-7.287 10.307-15.186 20.127-23.534 29.255zm41.719 10.133h.005z" fill="#ff713e"/></g><g><path d="M307.078 460.649c-1.591 1.054-3.699 1.064-5.516.474-1.811-.585-3.407-1.696-4.969-2.794a76244.354 76244.354 0 0 1-25.043-17.577c11.261-7.567 21.899-16.087 31.848-25.369 1.96 11.717 3.92 23.423 5.875 35.135.603 3.614.862 8.104-2.195 10.131z" fill="#f22a4e"/><path d="M303.973 463.198c-.951 0-1.94-.159-2.929-.48-2.077-.67-3.851-1.917-5.416-3.017a82933.386 82933.386 0 0 1-25.042-17.576 1.675 1.675 0 0 1 .029-2.765c10.97-7.371 21.615-15.85 31.639-25.203a1.676 1.676 0 0 1 2.798.95l1.098 6.56c1.594 9.527 3.187 19.049 4.777 28.575.637 3.813 1.027 9.185-2.922 11.803-1.151.765-2.544 1.153-4.032 1.153zm-29.472-22.422c7.685 5.396 15.37 10.79 23.055 16.181 1.438 1.011 2.925 2.055 4.521 2.57 1.539.499 3.06.396 4.074-.276 1.769-1.173 2.235-3.859 1.467-8.455-1.59-9.526-3.184-19.048-4.777-28.574l-.586-3.502c-8.86 8.076-18.176 15.479-27.754 22.056z" fill="#911027"/></g></g></svg>