<svg id="Icons" height="512" viewBox="0 0 60 60" width="512" xmlns="http://www.w3.org/2000/svg"><path d="m28.921 59.445a.5.5 0 0 1 -.273-.919l12.081-7.851-14.607 8.432a.5.5 0 0 1 -.517-.855l9.538-6-11.193 6.46a.5.5 0 0 1 -.515-.857l11.873-7.455-13.452 7.761a.5.5 0 0 1 -.516-.855l14.844-9.343-16.418 9.478a.5.5 0 0 1 -.511-.859l4.386-2.677-5.179 2.995a.5.5 0 0 1 -.518-.855l20.361-12.913-21.995 12.698a.5.5 0 0 1 -.511-.859l8.866-5.42-9.609 5.549a.5.5 0 0 1 -.513-.859l14.815-9.141-15.707 9.07a.5.5 0 0 1 -.511-.858l14.6-8.977-15.379 8.876a.5.5 0 0 1 -.511-.858l15.77-9.7-16.5 9.528a.5.5 0 0 1 -.508-.862l.084-.049-.351.2a.5.5 0 0 1 -.514-.858l21.574-13.412-22.394 12.926a.5.5 0 0 1 -.511-.859l14.222-8.691-14.667 8.468a.5.5 0 0 1 -.513-.858l19.188-11.827-19.712 11.381a.5.5 0 0 1 -.515-.856l24.08-15.02-24.683 14.252a.5.5 0 0 1 -.511-.858l18.158-11.158-18.47 10.664a.5.5 0 0 1 -.512-.859l17.78-10.915-18.007 10.396a.5.5 0 0 1 -.513-.859l19.769-12.19-19.967 11.527a.5.5 0 0 1 -.514-.857l21.078-13.05-21.216 12.249a.5.5 0 0 1 -.514-.857l20.492-12.686-20.523 11.849a.5.5 0 0 1 -.514-.858l20.377-12.634-20.314 11.728a.5.5 0 0 1 -.516-.856l22.937-14.379-22.807 13.169a.5.5 0 0 1 -.515-.857l20.722-12.947-20.426 11.792a.5.5 0 0 1 -.517-.856l21.623-13.632-21.2 12.239a.5.5 0 0 1 -.514-.857l17.059-10.649-16.469 9.508a.5.5 0 0 1 -.513-.858l14.057-8.745-13.359 7.713a.5.5 0 0 1 -.515-.856l12.8-7.979-11.95 6.902a.5.5 0 0 1 -.511-.86l1.551-.947-.721.416a.5.5 0 0 1 -.51-.859l1.249-.765-.332.191a.5.5 0 0 1 -.523-.851l15.21-9.9-13.606 7.852a.5.5 0 0 1 -.514-.857l1.134-.7a.493.493 0 0 1 -.528-.225.5.5 0 0 1 .148-.68l10.612-7.074-8.188 4.726a.5.5 0 0 1 -.527-.849l4.8-3.184-2.03 1.166a.5.5 0 0 1 -.54-.84l4.083-2.9a.494.494 0 0 1 -.2-.189.5.5 0 0 1 .183-.683l6.596-3.808a.5.5 0 0 1 .54.84l-2.032 1.446 6.735-3.888a.5.5 0 0 1 .526.849l-4.8 3.189 7.836-4.525a.5.5 0 0 1 .527.849l-10.614 7.073 13.813-7.974a.5.5 0 0 1 .514.857l-.442.274 1.7-.983a.5.5 0 0 1 .522.852l-15.2 9.9 17.737-10.246a.5.5 0 0 1 .511.859l-1.264.774 2.2-1.272a.5.5 0 0 1 .511.86l-1.532.935 2.386-1.377a.5.5 0 0 1 .514.857l-12.8 7.98 14.128-8.154a.5.5 0 0 1 .513.857l-14.054 8.743 15.279-8.821a.5.5 0 0 1 .514.857l-17.061 10.65 18.3-10.566a.5.5 0 0 1 .516.855l-21.623 13.635 23.019-13.289a.5.5 0 0 1 .515.856l-20.722 12.948 21.828-12.6a.5.5 0 0 1 .516.856l-22.938 14.375 24.024-13.869a.5.5 0 0 1 .513.858l-20.367 12.629 21.149-12.211a.5.5 0 0 1 .513.857l-20.5 12.688 21.181-12.225a.5.5 0 0 1 .513.857l-21.088 13.057 21.692-12.523a.5.5 0 0 1 .513.858l-19.768 12.19 20.218-11.677a.5.5 0 0 1 .512.859l-17.759 10.9 18.072-10.427a.5.5 0 0 1 .512.858l-18.166 11.161 18.417-10.633a.5.5 0 0 1 .514.857l-24.09 15.025 24.422-14.1a.5.5 0 0 1 .513.858l-19.179 11.82 19.285-11.132a.5.5 0 0 1 .51.859l-14.2 8.68 14.153-8.171a.5.5 0 0 1 .513.857l-21.598 13.429 21.573-12.457a.5.5 0 0 1 .508.861l-.225.135a.5.5 0 0 1 .458.886l-15.768 9.7 15.524-8.963a.5.5 0 0 1 .512.858l-14.598 8.98 14.267-8.237a.5.5 0 0 1 .513.858l-14.818 9.14 14.4-8.314a.5.5 0 0 1 .511.859l-8.884 5.43 8.38-4.837a.5.5 0 0 1 .518.855l-20.35 12.9 19.683-11.363a.5.5 0 0 1 .51.859l-4.4 2.684 3.705-2.139a.5.5 0 0 1 .517.856l-14.84 9.34 13.91-8.031a.5.5 0 0 1 .515.857l-11.875 7.466 10.8-6.232a.5.5 0 0 1 .516.855l-9.532 6 8.272-4.775a.5.5 0 0 1 .523.852l-12.091 7.851 10.276-5.934a.5.5 0 0 1 .523.851l-7.571 4.914 5.5-3.178a.5.5 0 0 1 .535.843l-7.578 5.273 3.973-2.293a.5.5 0 1 1 .5.865l-14.246 8.225a.5.5 0 0 1 -.535-.843l7.577-5.273-11.85 6.847a.5.5 0 0 1 -.522-.852l7.581-4.92-10.08 5.819a.494.494 0 0 1 -.25.067z" fill="#f9d438"/><g fill="#262626"><path d="m59.724 29.806c-4.047-50.128-78.367-28.533-54.946 15.915 14.663 24.595 55.775 12.746 54.946-15.915zm-20.092 27.259c-46.974 12.421-51.687-62.165-3.383-54.953 27.022 6.051 29.585 45.723 3.383 54.953z"/><path d="m22.276 25.194c4.967.268-3.35-11.624-10.443-4.1-1.117.879-2.722 5.707-.108 3.716-.036-7.49 10.68-6.716 10.551.384z"/><path d="m45.427 18.881c-7.307-3.093-11.693 9-7.695 6.055a5.314 5.314 0 0 1 5.177-5.436 5.624 5.624 0 0 1 5.36 5.568c3.636 2.148-.142-6.305-2.842-6.187z"/><path d="m41.27 35.069c-.213 15.131-22.282 14.767-22.54-.139-.009-.7-1.468-.44-1.46.139-.116 16.323 25.56 15.973 25.46-.139.01-.697-1.452-.444-1.46.139z"/></g></svg>