<svg id="Layer_3" enable-background="new 0 0 1000 1000" height="1000" viewBox="0 0 1000 1000" width="1000" xmlns="http://www.w3.org/2000/svg"><g><path d="m872.1 798.2c-11.3 30-28 59.5-49.7 87.6-36.9 47.8-76 75.5-76.4 75.8-.3.2-.7.3-1 .3-.5 0-1-.2-1.3-.6-.6-.7-.6-1.7 0-2.4 60.8-69.1 50.5-141.3 50-144.3-.1-.5.1-1.1.4-1.5 0 0 .1-.1.1-.1 3.3-3.3 17.6-32.7 25.6-74.2 6.8-35.4 10.2-86.8-12.7-130.4-11.1-21.2-13.6-39.8-6.8-51 3.6-5.9 9.5-9.2 16.7-9.2 23.6 0 64 36.8 71.9 135.6 3 38.4-2.6 76.9-16.8 114.4z" fill="#fea142"/><path d="m772 354s-109.6-8.8-120.5-12.3l1.3-37.1 16.8-6.6c83 20.9 102.4 56 102.4 56zm-601.6-134.7c26.3 8.7 51.6 16.2 51.6 16.2l17.6-33.8s-118.1-32-127.5-6.1l113.8 313.3s0 0 21.6-17.3 81.5-12.2 84.5 16.8-73.7 43.6-73.7 43.6c6.7 21.8 29.5 43.9 29.5 43.9 136.7 69 365.1-17.8 365.1-17.8 34.6-44.8 119.1-224.1 119.1-224.1-249.6-9.8-493.4-92.9-601.6-134.7z" fill="#fff"/><path d="m651.5 341.7s-246.3-24.5-429.6-106.2c47.4-109.7 135-128.1 212.9-117.8-64.2-17.1-129 17-129 17 2.9-36 106.9-124.2 106.9-124.2 18.8 26 25.6 100.3 26.2 107.8 81.5 11.8 151.2 54 151.2 54 143.1-3.1 136.5 19.9 136.5 19.9-7.1 61.6-73.8 112.5-73.8 112.5zm143.9 472.6s-33.7-121.2-115.8-161.5c0 0-33.6-46.6-35.2-71.2 0 0-220.6 78.3-356.7 14.2l-29.4-43.8s78.2-20.2 72.7-39.6c-5.4-19.4-6.5-43.2-71.3-23.8-64.7 19.5-89.2 122.4-89.2 122.4s-20.9 72.7 33.8 89.3 50.6 14.7 50.6 14.7l19.6-4.4c-.5 93 9.9 265 94 259.7 0 0 13 17.3 33.1 19.4 20.2 2.2 64.8 9.4 95.1-21.6 0 0 35.3 2.2 61.2-4.3 0 0 5 31 171.4 10.8 0 .1 74.6-57.1 66.1-160.3z" fill="#fec55a"/><path d="m649.7 276.5c-9.7-50.8-35.3-81-35.3-81s74.9 2.5 79.2 16.2-43.9 64.8-43.9 64.8zm-374.1 433.9c-2.9 278.7 92.9 260 92.9 260-.7-26.6 49.7-47.5 61.9-69.9 12.2-22.3 48.2-196.6 48.2-196.6-101.8-140-203 6.5-203 6.5zm221.1 257.8c24.6 2.6 61.2-4.3 61.2-4.3-7.4-19.5 29.5-46.8 29.5-46.8-5.3-26.1 5.3-64.1 7.9-76.8 2.5-12.7-2-29-2-29-12.3 46.3-96.6 156.9-96.6 156.9z" fill="#f9eba5"/><path d="m652.8 620.8 16 27.2c-3.8 51.7-18.6 48.1-21.1 46.3s-7.4-9.4 2.5-30.6 2.6-42.9 2.6-42.9zm72.9 75.7s-8.9 23.4-17.8 31.8-2.5 15 2.3 16.6c5.7 1.8 24.2-9.7 26.5-36.9zm-314.7-579.8s-15.8 3.6-22 13.7c-6.1 10.1-7.7 16.2-4 19.8 11 10.5 26.6-20.5 41.7-29.6 16.3-9.7-15.7-3.9-15.7-3.9zm30.5 45.3c-15 12.2-8.4 17.6-3.1 19.1 10.9 3 53-39.7 64.3-43.4-7.4-2-25.9-8.2-25.9-8.2s-20.3 20.3-35.3 32.5zm63.4-24.4c-.5-.3-1.2-.2-2.1.1 2.7.7 3.9.9 2.1-.1zm8.3 30.2c-5.8 8.6-4.1 13-1.5 16.4 2.4 3.2 7.9 2.7 14.9-7.6s24.1-20.9 24.1-20.9l-14-7.4c-.1.1-17.9 11-23.5 19.5z" fill="#dc8b4a"/><path d="m892.5 683.6c-3.1-39-11.9-72.8-25.3-97.6-11.4-21-25.7-35.1-40.4-39.8-11.1-3.5-21-1.2-27.4 6.4-9.9 11.8-8.2 33.3 4.5 57.6 22.3 42.5 19.1 92.8 12.4 127.5-5.1 26.8-13 48.8-18.7 61.5-12.7-51.6-51-102-114.2-150.3-22.9-27.8-28.8-39.1-33-64.1 2.7-1 4.2-1.5 4.3-1.6.9-.4 1.8-1 2.4-1.8 34.5-44.7 116-217.1 119.7-225 .1-.3.2-.6.3-.8 0-.1 0-.1.1-.2.1-.3.1-.6.1-.9 0 0 0 0 0-.1 0-.3 0-.6 0-.9 0-.1 0-.2 0-.2 0-.3-.1-.6-.2-.9 0-.1 0-.1-.1-.2-.1-.3-.2-.5-.4-.8v-.1c-.9-1.6-22.8-37.8-101.3-59.3 20.8-20.4 51.7-57 56.6-99 .2-1.5.3-4.4-2.3-7.7-10.7-13.9-57.2-20.1-138.1-18.5-7-4.1-39.5-22.5-83.9-37.4-18.4-6.2-40.2-12.1-63.7-15.8-1.8-18.2-9-81.7-26.9-106.3-.9-1.2-2.3-2-3.8-2.2s-3 .3-4.2 1.3c-.3.2-26.5 22.5-52.7 48.9-36.2 36.5-54.6 62.2-56.1 78.7-25 14.3-46.1 34.8-63.4 61.4-9.1-2.3-32.8-8.1-56.9-11.9-44.4-6.9-67.6-3.8-73 9.7v.1c0 .1 0 .1-.1.2 0 .1-.1.2-.1.3s-.1.2-.1.2c0 .1-.1.2-.1.3s0 .2-.1.3v.2.1.3.2.1.2.2.1.2.1.1.1.2c0 .1 0 .2.1.3v.1c0 .1.1.2.1.3l112.9 310.7c-47 47.2-72.1 132.7-49.8 170.5.1.1.1.2.2.4 20.7 29.6 56.5 40.1 82.1 40.1 6.2 0 11.9-.6 16.5-1.7 0 18.4.4 39.4 1.8 61.2 5.4 90.1 22.5 150.2 50.7 178.6 12.2 12.3 26.6 18.7 42.7 18.8 1.1 2.6 3.2 5.5 6.9 8 11.7 8.1 36.1 11 59.3 11 21.6 0 42.2-2.5 50.9-5.8 4.4-1.7 10.6-6.9 18.1-15 3.9.5 10.6 1.2 18.9 1.2 10.3 0 23.1-1 36.1-4.7 4.5 5.9 14.6 9.8 31 12.2 12.1 1.7 27.7 2.6 46.6 2.6 4.2 0 8.6 0 13.2-.1 42.1-.8 84.2-5.1 84.6-5.2 1-.1 2-.5 2.9-1.2.4-.3 6.3-5.2 14.6-13.9.3-.1.5-.3.8-.5 1.6-1.1 39.9-28.3 77.2-76.6 21.9-28.4 38.8-58.2 50.3-88.5 14.8-38 20.5-77 17.4-115.9zm-243-110.1c-9.3 3.4-62.6 22.3-129 34-66.5 11.7-160.1 18.4-229.2-16-3.3-4-17-21.3-25.7-37.4 5.4-1 11.4-2.4 17.6-4 27.8-7.4 44.9-17.7 51-30.5 4.3-9.2 3-19.1-3.9-29.6-.4-.7-1-1.2-1.7-1.7-32.7-19.9-67.8-15.7-99.9 11.7l-107-294.6c26.8 11.3 97.8 40.1 193.2 69.5 110.8 34.2 277.9 76.2 448.7 84.1-16.3 34-83.8 174.1-114.1 214.5zm-303.4-300.4c4.9-2.4 11-5.4 17.4-8.2 26.3-11.6 32.6-10.2 33.3-9.9 5.3 4.5 15.5 23.3 22.8 38.4-26.1-6.8-50.7-13.6-73.5-20.3zm280.1-71.5c6.6.4 15.3 1.1 24.2 2.1 32.9 3.9 37.6 9 38.1 9.7.1.8.3 7.7-19.6 32.7-5.9 7.4-11.9 14.3-16.3 19.3-4.5-20.8-12.3-44-26.4-63.8zm133.8 146.4c-34.6-1.7-69-4.8-102.8-8.9.4-5.3 1-16.6.4-31.3 1.7-1.3 4.6-3.7 8.4-7.1 54.9 13.9 82.3 35.4 94 47.3zm-348.5-329.3c13.2 24.1 19.4 74.5 21.4 93.3-32-3.9-66.4-3.2-99 7.2-7.1 2.3-14 5-20.6 8 11.7-29.3 69.8-83.8 98.2-108.5zm-74.3 111c32.4-10.4 67-10.6 98.9-6.3 1 .6 2.2 1 3.4.9.4 0 .8-.1 1.1-.2 23.4 3.5 45.1 9.5 63.4 15.6 48.2 16.1 83 37 83.4 37.3.9.5 1.9.8 2.9.8 49.7-1.1 86.6.9 109.7 5.8 16.7 3.5 20.5 7.5 21.2 8.5-5.6 46.5-47.5 87.4-64.5 102.3-.2-2.1-.4-4.2-.6-6.3-.3-2.9-.7-5.9-1.2-9 3.4-3.6 13.1-14.3 22.7-26.3 22-27.7 22.9-37.3 21.3-42.6-1.9-5.9-8.7-12.5-45.8-17-19.3-2.3-37.7-3-38.5-3-2.2-.1-4.2 1.2-5.1 3.1-.9 2-.6 4.3.9 5.9 40 45.2 37.2 121.6 36 138.6-35.1-4.5-69.4-10.2-102.6-16.5-9-14.8-45.1-29.6-49.3-31.3-2.8-1.1-6 .2-7.1 3s.2 6 3 7.1c9.7 3.9 23.7 10.6 33.6 17.3-31.6-6.4-62-13.3-90.6-20.5-2.9-6.3-19.6-42.2-29.7-50.4-4.3-3.5-12.7-5.3-43.1 7.9-13.5 5.9-25.9 12.3-29.5 14.3-4.3-1.3-8.6-2.6-12.8-3.9-9.5-2.9-18.8-5.9-27.8-8.8 7.8.3 13.9 1 16 2.4.9.6 1.9.9 3 .9 1.8 0 3.5-.9 4.6-2.5 1.6-2.5.9-5.9-1.6-7.5-9.5-6.1-41-4.2-50.5-3.4-.5 0-.9.1-1.3.3-11.3-3.8-22.1-7.5-32.3-11.2 1.7-3.8 3.4-7.5 5.2-11.1 26.2-.4 69.5 2.5 78.3 11.8 1.1 1.1 2.5 1.7 4 1.7 1.3 0 2.7-.5 3.8-1.5 2.2-2.1 2.3-5.5.2-7.7-6.9-7.2-23.4-11.8-50.7-14-11.8-.9-22.9-1.2-29.8-1.2 1.5-2.7 3.1-5.4 4.7-8 .2-.2.3-.5.5-.8 23.1-37.3 54.2-62.3 92.6-74.5zm-158.7 64.5c21.2 3.3 42.1 8.2 52.7 10.9-4.7 8.2-9.1 16.9-13.2 26.1-48.1-17.3-82.1-31.4-96.3-37.5 6.2-2.7 21.1-5 56.8.5zm329.6 769.8c12.5-15.2 27.3-36.3 42.8-61.2 10.1-16.2 24.7-40.9 40.6-71.8-7.5 22.1-11.8 49.5-9.8 83-8.6 5.3-31.8 22-30.5 46.1-16.5 4.7-32.9 4.6-43.1 3.9zm219 5.4c-8.2.8-45.1 4.2-82 4.9-64.8 1.2-78.7-6.9-81.7-10.1 0-.7 0-1.4-.3-2.1-.2-.6-.5-1.1-.8-1.6-1.9-22.6 27.4-38.5 27.7-38.7 1.9-1 3-3.1 2.9-5.2-9-126 72.9-160.1 76.9-161.7 1.9-.4 3.5-1.7 4.2-3.6 1-2.9-.6-5.9-3.4-6.9-1.5-.5-2.9-1-11.5 3.5-4.1 2.1-10.5 5.8-17.8 11.5-9.2 7.1-20.6 17.9-30.9 33.4 10.7-23.1 21.5-48.4 31.4-75.4 1-2.8-.4-6-3.2-7s-6 .4-7 3.2c-42.9 117-105.1 212.8-136.8 249.5-1.5.6-2.7 1.9-3.2 3.6-6.3 6.9-11.1 11.1-14 12.2-17.2 6.5-82.3 8.4-100.2-4-3.3-2.3-3.3-4-3.3-4.6 0-14.9 9-21.5 27.7-33.8 5.1-3.3 10.8-7.1 16.8-11.5 4.5-3.3 18.2-13.3 47.4-128.8 14.2-56.3 25.2-110.9 25.4-111.4.6-3-1.3-5.8-4.3-6.4s-5.8 1.3-6.4 4.3c-.1.5-11.1 54.9-25.2 110.9-25.4 100.8-38.7 119.4-43.2 122.7-5.8 4.2-11.4 7.9-16.4 11.2-16.6 10.9-30.1 19.8-32.3 37.5-12.9-.3-24.2-5.4-34.2-15.6-63.1-63.6-47.6-293.9-47.4-296.3.2-3-2-5.6-5.1-5.8-3-.2-5.6 2-5.8 5.1 0 .4-1.5 22-1.8 53.6-18.8 6.3-65.9.6-89.7-33.1-9.1-15.6-8.9-43.5.6-74.6 9.8-32.3 27.5-62.7 48.6-83.5 21.2-20.9 54.4-40.7 93.1-17.8 4.2 6.8 5 12.6 2.5 17.9-9.5 20-61.6 29.6-80.9 31.6-3 .3-5.2 3-4.9 6s3 5.2 6 4.9c.3 0 4-.4 9.8-1.3 10.1 20.1 28.5 42.3 29.3 43.3.2.2.4.5.7.7 0 0 .1.1.1.1.1.1.2.2.3.2 0 0 .1.1.1.1.1.1.2.1.4.2h.1.1s.1 0 .1.1c31.8 16 71.1 25 116.7 26.8 5.6.2 11.2.3 17 .3 31.8 0 66.5-3.3 103.2-9.8 51.8-9.1 95.7-22.6 117.5-29.9 4.5 26.1 11.4 38.8 35.4 67.9l.9.9c75.5 57.4 114.2 117.4 115.1 178.3.6 41.7-17.1 76.1-32.1 97.6-13.9 20-28.1 33-32.2 36.5zm89.8-88.3c-13.7 17.8-27.7 32.7-39.8 44.4 13.3-22.6 25.8-53.7 25.3-90.2-.1-6.4-.6-12.8-1.4-19.2 6.2-9 18.9-39.1 26-75.9 7.1-36.6 10.5-89.7-13.4-135.2-12.5-23.8-11.2-39.1-5.8-45.5 4.6-5.5 11.8-4.2 15.7-3 18.3 5.9 51.2 39.4 58.2 127.9 6.6 84.4-31.6 153.6-64.8 196.7zm-350-644.4c0-3 2.4-5.5 5.4-5.5 8.5-.1 83.3-.8 103.4 15.8 2.3 1.9 2.6 5.4.7 7.7-1.1 1.3-2.6 2-4.2 2-1.2 0-2.5-.4-3.5-1.3-14.4-11.9-74.4-13.6-96.2-13.3h-.1c-3.1 0-5.5-2.4-5.5-5.4zm25.5 32.7c3.3.4 82.3 11.1 123.3 36.4 2.6 1.6 3.4 4.9 1.8 7.5-1 1.7-2.8 2.6-4.6 2.6-1 0-2-.3-2.9-.8-39-24-118.3-34.8-119-34.9-3-.4-5.1-3.1-4.7-6.1s3.1-5.1 6.1-4.7zm-101.6-55c.1 0 10.8 1.4 21.9 3.3 23.8 4 26.2 6.1 27.6 7.4 2.1 1.9 2.9 4.6 1.9 7.1-1.1 3-4 5.4-15 7.7-5.6 1.2-12 2.1-15.2 2.1-1.4 0-2.3-.1-3.2-.5-2.4-.9-20.9-12.1-23.8-19.7-.7-1.8-.4-3.8.8-5.4 1.2-1.5 3.1-2.2 5-2zm-59.2-60.9c1.7-2.5 5.1-3.1 7.6-1.4 4.9 3.4 48.5 33.9 56.1 48 1.4 2.6.4 6-2.2 7.4-.8.4-1.7.7-2.6.7-1.9 0-3.8-1-4.8-2.9-4.8-8.9-34.9-31.8-52.7-44.2-2.5-1.7-3.1-5.1-1.4-7.6z" fill="#89191a"/></g></svg>