<svg height="512" width="512" xmlns="http://www.w3.org/2000/svg"><path d="M349.095 233.091c7.053 26.196 27.308 55.141 27.308 55.141s21.094 11.833 16.978 18.007-36.359 7.203-41.846 0-17.834-68.941-17.834-68.941z" fill="#a63c30"/><path d="M371.891 313.026c-8.823 0-18.533-1.482-21.76-5.719-5.572-7.316-16.889-63.304-18.161-69.664a1.764 1.764 0 0 1 1.264-2.047l15.395-4.206a1.767 1.767 0 0 1 2.168 1.242c6.494 24.12 24.604 51.02 26.827 54.265 2.819 1.612 16.302 9.623 17.884 16.207.361 1.501.132 2.923-.661 4.112-3.238 4.858-16.486 5.645-20.469 5.77-.816.026-1.647.04-2.487.04zm-36.138-74.462c4.982 24.689 13.423 61.668 17.184 66.606 2.139 2.809 11.109 4.616 21.331 4.292 9.849-.31 16.442-2.396 17.645-4.201.166-.25.336-.626.166-1.332-.985-4.104-10.668-10.863-16.54-14.159a1.77 1.77 0 0 1-.582-.527c-.816-1.166-19.67-28.286-27.09-53.988z" fill="#7d271d"/><path d="M162.905 233.091c-7.053 26.196-27.308 55.141-27.308 55.141s-21.094 11.833-16.978 18.007 36.359 7.203 41.846 0 17.834-68.941 17.834-68.941z" fill="#a63c30"/><path d="M140.109 313.026c-.839 0-1.67-.014-2.487-.039-3.983-.125-17.231-.912-20.469-5.77-.793-1.189-1.021-2.611-.661-4.112 1.582-6.584 15.065-14.595 17.884-16.207 2.223-3.244 20.333-30.144 26.827-54.265a1.761 1.761 0 0 1 2.168-1.242l15.395 4.206a1.762 1.762 0 0 1 1.264 2.047c-1.272 6.36-12.589 62.348-18.161 69.664-3.227 4.235-12.937 5.717-21.76 5.718zm24.023-77.772c-7.42 25.702-26.274 52.822-27.09 53.988a1.77 1.77 0 0 1-.582.527c-5.872 3.296-15.555 10.055-16.54 14.159-.17.706 0 1.083.166 1.332 1.204 1.805 7.797 3.891 17.646 4.201 10.221.321 19.191-1.483 21.33-4.292 3.762-4.938 12.203-41.917 17.184-66.606zm-28.534 52.978h.005z" fill="#7d271d"/><path d="M182.972 195.403c9.828-26.755 51.868-33.959 71.898-33.959s60.361 7.204 70.19 33.959c6.428 17.481-1.063 44.417-11.738 72.185-3.219 8.383-6.73 16.841-10.237 25.138-.917 2.176-1.839 4.337-2.746 6.483-1.723 4.045-3.426 8.04-5.068 11.949H212.76c-1.642-3.909-3.34-7.899-5.058-11.949a2137.12 2137.12 0 0 1-3.864-9.118c-3.552-8.438-7.073-17.012-10.262-25.486-10.055-26.704-16.8-52.346-10.604-69.202z" fill="#e36254"/><path d="M193.576 228.461c40.528-21.717 91.5-13.415 119.746 2.982-3.219 8.383-6.73 16.841-10.237 25.138-.917 2.176-1.839 4.337-2.746 6.483h-92.638a2137.12 2137.12 0 0 1-3.864-9.118c-3.551-8.437-7.072-17.011-10.261-25.485z" fill="#a63c30"/><path d="M295.271 312.923h-82.512c-.71 0-1.35-.426-1.625-1.08a2724.301 2724.301 0 0 0-4.445-10.496c-1.482-3.487-2.982-7.016-4.477-10.571-15.169-36.055-29.276-73.17-20.896-95.98 4.455-12.126 15.928-21.831 33.179-28.063 14.39-5.199 30.291-7.051 40.374-7.051 20.388 0 61.642 7.339 71.845 35.114 8.441 22.961-6.242 61.308-22.005 98.617-1.132 2.68-2.264 5.342-3.386 7.979a2495.325 2495.325 0 0 0-4.426 10.451 1.764 1.764 0 0 1-1.626 1.08zm-81.341-3.527h80.17c1.298-3.084 2.63-6.216 3.978-9.384 1.12-2.635 2.251-5.294 3.382-7.971 15.489-36.66 29.942-74.273 21.944-96.028-5.174-14.085-19.295-21.896-30.23-25.969-17.03-6.342-33.625-6.835-38.305-6.835-23.392 0-61.401 8.736-70.243 32.804-7.94 21.605 6.592 59.538 20.836 93.396 1.493 3.551 2.992 7.076 4.472 10.559a3024.81 3024.81 0 0 1 3.996 9.428zm-30.959-113.992h.005z" fill="#7d271d"/><g><path d="M222.871 240.647c-10.701-12.757-17.129-18.458-29.37-30.082-6.716-6.378-14.675-13.708-24.822-14.787-4.276-.455-7.976 2.722-4.647 6.596 1.361 1.584 3.457 2.488 5.468 3.333-3.183-.389-5.301-.352-8.395.282-3.094.633-6.031 2.042-7.964 4.27-1.021 1.177-1.751 2.805-1.009 4.19.583 1.088 1.949 1.713 3.274 1.838s2.633-.166 3.91-.454c-13.54 24.575-15.033 73.68-3.95 88.793z" fill="#ffe8db"/><path d="M155.367 306.389a1.76 1.76 0 0 1-1.423-.721c-11.341-15.465-9.854-62.137 2.244-87.59a8.408 8.408 0 0 1-.947-.036c-2.067-.194-3.854-1.252-4.663-2.76-.988-1.843-.528-4.152 1.231-6.178 2.049-2.361 5.225-4.081 8.942-4.841a31.539 31.539 0 0 1 2.265-.385 7.721 7.721 0 0 1-.322-.354c-1.761-2.049-2.188-4.337-1.17-6.277 1.19-2.267 4.141-3.561 7.34-3.222 11.011 1.171 19.588 9.315 25.85 15.262 1.522 1.446 2.955 2.8 4.317 4.087 9.487 8.968 15.755 14.892 25.19 26.14a1.763 1.763 0 1 1-2.702 2.266c-9.304-11.092-15.178-16.644-24.91-25.844a2475.774 2475.774 0 0 1-4.323-4.093c-5.897-5.599-13.972-13.268-23.795-14.312-1.926-.206-3.42.544-3.845 1.354-.404.769.169 1.697.722 2.339 1.123 1.306 3.084 2.13 4.814 2.857a1.762 1.762 0 0 1-.897 3.376c-3.112-.38-5.014-.317-7.828.259-2.961.606-5.442 1.92-6.986 3.698-.561.646-1.103 1.61-.786 2.201.241.45 1.034.835 1.885.915 1.06.101 2.228-.163 3.356-.418a1.763 1.763 0 0 1 1.933 2.571c-6.158 11.176-10.267 28.808-10.991 47.164-.7 17.736 1.951 32.962 6.919 39.736a1.764 1.764 0 0 1-1.42 2.806z" fill="#e0a58f"/><path d="M175.742 222.512c10.119-4.861 30.511 25.757 32.981 31.518s-32.637 32.472-39.227 28.94c-6.59-3.533-2.691-56.166 6.246-60.458z" fill="#a63c30"/><path d="M170.956 285.021c-.885 0-1.657-.157-2.292-.498-3.065-1.642-4.477-8.884-4.198-21.525.319-14.469 3.456-38.686 10.513-42.076 1.949-.936 4.224-.927 6.763.025 11.65 4.372 26.734 28.029 28.602 32.387.724 1.688.661 4.87-8.197 12.99-7.771 7.123-23.603 18.695-31.191 18.697zm7.163-61.27a3.67 3.67 0 0 0-1.614.35c-3.993 1.918-7.961 19.708-8.492 38.071-.386 13.357 1.393 18.732 2.315 19.242 1.205.647 6.937-.964 17.197-8.023 5.165-3.554 10.261-7.678 13.982-11.315 4.689-4.584 5.612-6.864 5.578-7.392-2.157-4.965-16.727-26.736-26.583-30.435-.884-.331-1.675-.498-2.383-.498zm-2.377-1.239h.005z" fill="#7d271d"/><path d="M292.576 240.647c10.701-12.757 17.129-18.458 29.37-30.082 6.716-6.378 14.675-13.708 24.822-14.787 4.276-.455 7.976 2.722 4.647 6.596-1.361 1.584-3.457 2.488-5.468 3.333 3.183-.389 5.301-.352 8.395.282 3.094.633 6.031 2.042 7.964 4.27 1.021 1.177 1.751 2.805 1.009 4.19-.583 1.088-1.949 1.713-3.274 1.838s-2.633-.166-3.91-.454c13.54 24.575 15.033 73.68 3.95 88.793z" fill="#ffe8db"/><path d="M360.079 306.389a1.764 1.764 0 0 1-1.42-2.806c4.967-6.774 7.619-22 6.919-39.736-.724-18.356-4.833-35.987-10.991-47.164a1.762 1.762 0 0 1 1.933-2.571c1.129.255 2.296.52 3.357.418.851-.08 1.643-.465 1.885-.915.317-.591-.225-1.555-.786-2.201-1.543-1.779-4.025-3.092-6.986-3.698-2.814-.576-4.716-.638-7.828-.259a1.763 1.763 0 0 1-.897-3.376c1.73-.727 3.691-1.55 4.814-2.857.552-.643 1.126-1.57.722-2.339-.425-.809-1.917-1.559-3.845-1.354-9.823 1.044-17.898 8.713-23.795 14.312a2150.815 2150.815 0 0 1-4.322 4.091c-9.733 9.2-15.608 14.753-24.912 25.845a1.764 1.764 0 0 1-2.702-2.266c9.435-11.248 15.703-17.173 25.191-26.141 1.362-1.287 2.794-2.641 4.316-4.086 6.262-5.947 14.839-14.091 25.85-15.262 3.201-.341 6.15.954 7.341 3.222 1.018 1.939.591 4.227-1.17 6.277a9.008 9.008 0 0 1-.322.354c.719.093 1.462.221 2.265.385 3.717.761 6.893 2.48 8.942 4.841 1.759 2.026 2.219 4.336 1.231 6.178-.808 1.508-2.595 2.565-4.663 2.76-.32.03-.637.042-.947.036 12.099 25.453 13.585 72.126 2.244 87.59a1.758 1.758 0 0 1-1.424.722z" fill="#e0a58f"/><path d="M339.705 222.512c-10.119-4.861-30.511 25.757-32.981 31.518s32.636 32.472 39.227 28.94c6.59-3.533 2.691-56.166-6.246-60.458z" fill="#a63c30"/><path d="M344.491 285.021c-7.588 0-23.421-11.574-31.191-18.696-8.858-8.119-8.92-11.302-8.197-12.99 1.868-4.358 16.952-28.016 28.602-32.387 2.539-.953 4.814-.961 6.763-.025 7.057 3.39 10.194 27.607 10.513 42.076.279 12.641-1.133 19.883-4.198 21.525-.634.339-1.407.497-2.292.497zm-36.129-30.337c-.034.529.888 2.808 5.577 7.392 3.72 3.637 8.816 7.761 13.981 11.315 10.261 7.061 15.995 8.669 17.198 8.024.922-.51 2.702-5.887 2.315-19.246-.531-18.361-4.499-36.15-8.491-38.067-1.062-.511-2.37-.462-3.997.148-9.855 3.697-24.426 25.469-26.583 30.434z" fill="#7d271d"/><path d="M381.638 382.947c-6.081 11.39-19.461 21.068-35.611 28.76a178.728 178.728 0 0 1-12.176 5.244c-.851.332-1.708.66-2.564.977-27.143 10.166-57.807 15.289-74.739 14.317-16.997.977-47.838-4.191-75.056-14.433-.872-.332-1.738-.665-2.605-1.002a181.017 181.017 0 0 1-11.244-4.831c-.227-.106-.454-.212-.675-.317-16.146-7.703-29.511-17.395-35.556-28.795a31.496 31.496 0 0 1-2.07-4.796c-1.229-3.668-1.693-7.501-1.259-11.481 1.723-15.919 47.893-104.124 59.021-115.957 11.128-11.834 37.959-15.949 69.445-15.949s61.994 4.116 73.122 15.949 53.616 100.038 55.339 115.957c.623 5.783-.636 11.243-3.372 16.357z" fill="#e36254"/><circle cx="299.035" cy="353.314" fill="#fff" r="22.24"/><path d="M299.035 377.318c-13.236 0-24.003-10.768-24.003-24.004 0-13.235 10.768-24.004 24.003-24.004s24.004 10.768 24.004 24.004c-.001 13.236-10.769 24.004-24.004 24.004zm0-44.481c-11.291 0-20.477 9.186-20.477 20.477 0 11.292 9.186 20.477 20.477 20.477s20.477-9.186 20.477-20.477-9.186-20.477-20.477-20.477z"/><path d="M308.779 354.342c0 7.358-5.966 13.324-13.324 13.324s-13.324-5.967-13.324-13.324c0-7.362 5.966-13.328 13.324-13.328a13.27 13.27 0 0 1 8.529 3.091 9.24 9.24 0 0 0-.579.342c-3.421 2.169-5.091 5.675-3.73 7.831 1.366 2.152 5.252 2.14 8.677-.03.08-.051.161-.102.237-.157.126.733.19 1.485.19 2.251z"/><circle cx="213.03" cy="353.314" fill="#fff" transform="rotate(-13.41 212.998 353.25)" r="22.24"/><path d="M213.03 377.317c-13.236 0-24.004-10.768-24.004-24.003s10.768-24.004 24.004-24.004 24.004 10.768 24.004 24.004c-.001 13.235-10.769 24.003-24.004 24.003zm0-44.48c-11.291 0-20.477 9.186-20.477 20.477s9.186 20.477 20.477 20.477 20.477-9.186 20.477-20.477-9.186-20.477-20.477-20.477z"/><path d="M203.286 354.342c0 7.358 5.967 13.324 13.324 13.324 7.358 0 13.324-5.967 13.324-13.324 0-.765-.063-1.518-.19-2.25l-.241.157c-3.421 2.169-7.307 2.182-8.673.03-1.361-2.157.305-5.662 3.73-7.831a8.6 8.6 0 0 1 .579-.342 13.27 13.27 0 0 0-8.529-3.091c-7.358-.002-13.324 5.965-13.324 13.327z"/><path d="M276.696 367.388a100.192 100.192 0 0 1 44.148.054l-.302 12.508-27.56 5.833-16.855-11z" fill="#e36254"/><path d="M320.846 369.206c-.13 0-.262-.015-.394-.045-14.182-3.235-29.178-3.254-43.368-.054a1.763 1.763 0 0 1-.776-3.439c14.701-3.316 30.237-3.297 44.929.056a1.764 1.764 0 0 1-.391 3.482z"/><g><path d="M191.559 367.388a100.192 100.192 0 0 1 44.148.054l-.302 12.508-27.56 5.833-16.855-11z" fill="#e36254"/><path d="M235.709 369.206c-.13 0-.262-.015-.394-.045-14.182-3.235-29.178-3.254-43.368-.054a1.763 1.763 0 0 1-.776-3.439c14.701-3.316 30.237-3.297 44.929.056a1.762 1.762 0 0 1-.391 3.482z"/></g><path d="M331.287 417.928c-27.143 10.166-57.807 15.289-74.739 14.317-16.997.977-47.838-4.191-75.056-14.433 8.952-28.79 39.087-49.964 74.88-49.964 35.842.001 66.008 21.23 74.915 50.08z" fill="#ffe8db"/><path d="M245.441 372.848h20.572c2.503 0 3.867 2.924 2.258 4.842l-9.755 11.63a3.878 3.878 0 0 1-5.988-.056l-9.38-11.616c-1.557-1.929-.185-4.8 2.293-4.8z"/><g><path d="M237.673 302.917c.906 3.736-4.019 8.136-10.999 9.828s-13.373.035-14.278-3.701c-.906-3.736 4.019-8.136 10.999-9.828 6.98-1.691 13.372-.034 14.278 3.701z" fill="#ffe8db"/><path d="M221.317 315.173c-1.601 0-3.124-.178-4.502-.535-3.356-.87-5.534-2.708-6.133-5.177-.598-2.469.496-5.101 3.081-7.411 2.29-2.046 5.563-3.661 9.216-4.547 3.654-.886 7.302-.949 10.275-.179 3.356.87 5.534 2.708 6.133 5.177.598 2.469-.496 5.101-3.081 7.411-2.29 2.046-5.563 3.661-9.216 4.547a24.68 24.68 0 0 1-5.773.714zm7.443-14.853c-1.582 0-3.276.204-4.95.61-3.054.74-5.859 2.107-7.697 3.749-1.547 1.382-2.277 2.822-2.004 3.95.274 1.128 1.582 2.074 3.59 2.594 2.385.618 5.505.548 8.559-.192s5.859-2.107 7.697-3.749c1.547-1.382 2.277-2.822 2.003-3.95-.273-1.128-1.582-2.074-3.59-2.594-1.076-.279-2.304-.418-3.608-.418z" fill="#e0a58f"/></g><g><path d="M297.543 313.375c-1.441 3.564-8.007 4.27-14.666 1.578-6.659-2.693-10.888-7.764-9.447-11.328s8.007-4.27 14.666-1.578c6.658 2.693 10.888 7.765 9.447 11.328z" fill="#ffe8db"/><path d="M290.66 318.351c-2.648 0-5.585-.608-8.444-1.764-7.677-3.104-12.254-9.088-10.421-13.623 1.834-4.535 9.283-5.656 16.961-2.551 3.485 1.409 6.487 3.484 8.454 5.842 2.22 2.663 2.919 5.426 1.967 7.781s-3.375 3.856-6.822 4.227a15.86 15.86 0 0 1-1.695.088zm-10.328-16.16c-2.735 0-4.743.798-5.267 2.095-.919 2.274 2.509 6.62 8.474 9.032 2.913 1.178 5.992 1.702 8.44 1.439 2.063-.222 3.495-.966 3.93-2.043.435-1.076-.077-2.607-1.406-4.2-1.578-1.893-4.155-3.654-7.068-4.832-2.564-1.037-5.041-1.491-7.103-1.491z" fill="#e0a58f"/></g><path d="M174.585 361.542c-5.839 15.979-8.423 33.128-7.617 50.12-16.146-7.703-29.511-17.395-35.556-28.795a144.103 144.103 0 0 1 20.891-25.264c4.463-4.292 9.703-8.504 15.889-8.826 2.544-.131 5.35.579 6.831 2.655 2.05 2.86.77 6.805-.438 10.11zM381.638 382.947c-6.081 11.39-19.461 21.068-35.611 28.76.816-17.007-1.768-34.176-7.612-50.165-1.209-3.305-2.489-7.249-.438-10.111 1.481-2.075 4.287-2.786 6.831-2.655 6.186.322 11.425 4.534 15.889 8.826a144.122 144.122 0 0 1 20.941 25.345z" fill="#ffe8db"/><g><path d="M252.327 434.122c-17.614 0-47.122-5.105-74.084-15.67a184.083 184.083 0 0 1-11.353-4.878c-21.406-10.089-34.969-22.173-39.222-34.947-1.337-3.99-1.788-8.106-1.339-12.229 1.758-16.25 48.009-104.765 59.49-116.974 10.299-10.952 34.096-16.505 70.729-16.505 21.992 0 60.902 2.144 74.406 16.505 11.848 12.599 54.095 101.15 55.807 116.975 2.133 19.694-16.431 38.231-52.27 52.195v.001c-29.16 11.358-61.249 16.345-77.943 15.417a76.46 76.46 0 0 1-4.221.11zm4.221-197.676c-35.622 0-58.554 5.179-68.16 15.394-10.89 11.581-56.897 99.637-58.553 114.939-.394 3.614.003 7.224 1.178 10.731 3.942 11.84 16.868 23.207 37.381 32.874a180.596 180.596 0 0 0 11.135 4.784c28.838 11.299 60.523 16.255 76.917 15.317.067-.004.135-.004.202 0 16.28.929 47.815-3.979 76.562-15.176 19.816-7.721 52.669-24.293 50.045-48.53-1.617-14.942-43.667-103.026-54.871-114.939-9.334-9.927-34.846-15.394-71.836-15.394zm77.303 180.505h.005z" fill="#a63c30"/></g><g><path d="M273.353 413.693c-4.887 0-9.907-2.062-13.436-5.67-1.795-1.836-3.222-4.035-4.233-6.45-1.011 2.414-2.438 4.613-4.233 6.449-4.727 4.831-12.03 6.834-18.172 4.985l-.169-.056c-6.556-2.049-11.257-8.331-11.161-14.932a1.764 1.764 0 0 1 1.762-1.738h.026a1.762 1.762 0 0 1 1.737 1.789c-.072 4.995 3.669 9.947 8.702 11.52l.054.018.102.034c4.882 1.467 10.762-.168 14.596-4.086 3.152-3.224 4.94-7.821 4.991-12.635a19.913 19.913 0 0 0-.118-2.393 1.76 1.76 0 0 1 1.753-1.955h.257a1.763 1.763 0 0 1 1.753 1.955 19.895 19.895 0 0 0-.118 2.393c.051 4.813 1.84 9.411 4.992 12.635 3.506 3.583 8.795 5.297 13.477 4.359.389-.075.773-.17 1.154-.286 5.106-1.537 8.896-6.506 8.819-11.56a1.763 1.763 0 0 1 1.736-1.79h.027c.961 0 1.748.772 1.762 1.737.1 6.572-4.769 13.016-11.325 14.989-.493.15-.997.275-1.494.37a16.324 16.324 0 0 1-3.241.318z"/></g></g><g><path d="M195.023 446.742c1.335 2.668 3.364 6.025 5.21 8.369 1.847 2.344 4.251 4.346 7.108 5.207s6.195.431 8.428-1.547 3.01-5.598 1.377-8.096c2.892 1.51 6.602 1.434 9.327-.361 2.725-1.794 4.271-5.299 3.574-8.486-.697-3.188-3.7-5.773-6.962-5.81 2.47-.72 4.246-3.197 4.364-5.767s-1.264-5.159-3.435-6.539c-6.596-4.192-12.396-1.78-16.351-1.129-8.474-5.418-42.765-28.457-51.051-34.158-25.145-17.301-49.326 24.511-24.017 37.97 11.434 6.08 62.428 20.347 62.428 20.347z" fill="#a63c30"/><path d="M210.222 462.51c-1.121 0-2.265-.165-3.389-.504-2.926-.883-5.687-2.89-7.984-5.805-1.637-2.077-3.57-5.138-5.045-7.971-6.582-1.853-51.189-14.511-62.036-20.28-7.546-4.012-11.687-10.768-11.661-19.021.03-9.66 5.959-19.501 14.417-23.931 7.405-3.878 15.604-3.177 23.089 1.972 8.175 5.625 40.985 27.675 50.418 33.751.433-.086.895-.188 1.374-.294 3.985-.883 9.442-2.09 15.556 1.795 2.729 1.734 4.397 4.917 4.251 8.108-.086 1.865-.849 3.648-2.041 5.022 2.267 1.255 4.027 3.475 4.6 6.097.843 3.853-.937 8.103-4.327 10.336-2.225 1.464-4.997 1.999-7.662 1.584a8.524 8.524 0 0 1-2.842 6.72c-1.787 1.583-4.193 2.421-6.718 2.421zm-65.937-76.435c-2.773 0-5.513.679-8.126 2.048-7.349 3.85-12.501 12.411-12.527 20.819-.021 6.882 3.455 12.527 9.79 15.896 11.135 5.921 61.567 20.064 62.075 20.206.479.134.879.464 1.102.909 1.412 2.822 3.382 5.989 5.019 8.066 1.288 1.634 3.415 3.761 6.232 4.611 2.456.739 5.106.277 6.749-1.18 1.672-1.48 2.162-4.141 1.071-5.81a1.763 1.763 0 0 1 2.291-2.528c2.379 1.241 5.41 1.133 7.541-.27 2.164-1.425 3.351-4.217 2.821-6.637-.537-2.454-2.847-4.397-5.26-4.424a1.763 1.763 0 0 1-.473-3.456c1.679-.489 3.01-2.275 3.096-4.155.088-1.921-.965-3.918-2.62-4.97-4.883-3.103-9.143-2.161-12.901-1.329-.778.172-1.512.335-2.218.451-.43.072-.869-.02-1.236-.254-8.597-5.496-42.735-28.435-51.1-34.191-3.671-2.527-7.529-3.802-11.326-3.802z" fill="#7d271d"/></g><g><path d="M311.213 448.253c-1.335 2.669-3.364 6.025-5.211 8.369-1.846 2.344-4.251 4.346-7.108 5.207s-6.195.431-8.428-1.547c-2.233-1.979-3.01-5.598-1.377-8.096-2.893 1.51-6.602 1.434-9.327-.361s-4.271-5.299-3.574-8.486c.697-3.188 3.699-5.773 6.962-5.81-2.47-.72-4.246-3.197-4.364-5.767s1.264-5.159 3.435-6.539c6.597-4.192 12.396-1.78 16.351-1.129 8.474-5.418 42.765-28.457 51.051-34.158 9.43-6.488 18.723-4.663 25.323.862 2.09 1.75 3.91 3.871 5.378 6.216 6.258 9.999 6.129 24.078-6.683 30.892-11.434 6.081-62.428 20.347-62.428 20.347z" fill="#a63c30"/><path d="M296.014 464.022c-2.525 0-4.931-.838-6.716-2.42a8.518 8.518 0 0 1-2.842-6.72c-2.666.418-5.438-.118-7.662-1.584-3.39-2.232-5.169-6.483-4.327-10.336.573-2.623 2.333-4.843 4.6-6.097-1.192-1.375-1.955-3.157-2.041-5.022-.147-3.191 1.522-6.374 4.251-8.108 6.115-3.885 11.571-2.678 15.555-1.795.479.106.941.208 1.374.294 9.436-6.078 42.245-28.127 50.418-33.751 9.041-6.22 19.305-5.86 27.454.963 2.215 1.855 4.146 4.086 5.741 6.632 3.993 6.379 5.296 13.725 3.577 20.154-1.514 5.659-5.292 10.234-10.926 13.23-10.848 5.769-55.455 18.427-62.036 20.28-1.476 2.834-3.409 5.895-5.045 7.971-2.297 2.915-5.058 4.922-7.984 5.804-1.126.339-2.27.505-3.391.505zm-6.925-13.599a1.763 1.763 0 0 1 1.476 2.728c-1.091 1.669-.601 4.33 1.071 5.81 1.644 1.457 4.293 1.92 6.75 1.179 2.817-.849 4.944-2.976 6.232-4.61 1.636-2.077 3.606-5.243 5.018-8.067a1.764 1.764 0 0 1 1.102-.909c.508-.142 50.939-14.285 62.075-20.206 4.748-2.525 7.921-6.339 9.175-11.028 1.446-5.407.265-11.901-3.159-17.372-1.397-2.232-3.085-4.184-5.015-5.8-6.966-5.832-15.419-6.111-23.191-.762-8.364 5.754-42.5 28.693-51.1 34.191a1.778 1.778 0 0 1-1.236.254c-.706-.116-1.44-.279-2.218-.451-3.758-.832-8.018-1.775-12.901 1.329-1.655 1.052-2.708 3.049-2.62 4.97.086 1.879 1.417 3.666 3.096 4.155a1.765 1.765 0 0 1-.473 3.456c-2.413.027-4.723 1.97-5.259 4.424-.53 2.42.657 5.212 2.821 6.637 2.132 1.403 5.162 1.512 7.541.27a1.79 1.79 0 0 1 .815-.198z" fill="#7d271d"/></g><g><g fill="#e36254"><path d="M282.059 132.144c-9.22 2.7-19.312 2.631-27.711-1.045 1.14 4.384 2.133 8.745 2.836 13.08.236 1.458.457 2.942.616 4.431 7.354 4.148 15.696 4.12 23.879 2.505.901-4.239 1.218-8.623 1.03-12.911a51.877 51.877 0 0 0-.65-6.06zM276.367 107.712c-.709-4.43-.897-8.89.003-13.458-5.772-.559-11.534-2.485-16.936-5.128-7.03-3.601-12.579-9.249-16.67-15.622-.492 9.489 1.102 18.969 3.431 28.396 7.555 6.753 19.469 8.108 30.172 5.812zM277.384 75.425a38.157 38.157 0 0 0 7.414 3.101c5.158-5.156 11.673-8.85 16.675-13.873a36.467 36.467 0 0 1-8.147-2.441c-12.717-5.387-23.953-17.637-24.057-31.537-5.969 2.621-11.16 6.81-15.277 11.882 1.9 13.714 10.465 25.877 23.392 32.868z"/></g><path d="M259.434 89.125c5.402 2.643 11.164 4.57 16.936 5.128a31.717 31.717 0 0 1 2.647-7.829c1.5-3.076 3.509-5.628 5.78-7.898a38.183 38.183 0 0 1-7.414-3.101c-12.927-6.992-21.492-19.154-23.393-32.868a47.345 47.345 0 0 0-6.927 11.618c-2.676 6.437-3.966 12.884-4.3 19.327 4.092 6.375 9.641 12.022 16.671 15.623z" fill="#a63c30"/><path d="M276.371 96.017c-.057 0-.114-.003-.171-.008-5.55-.537-11.451-2.321-17.541-5.3l-.029-.014c-6.751-3.459-12.75-9.074-17.35-16.239a1.764 1.764 0 0 1-.277-1.044c.368-7.11 1.818-13.623 4.433-19.913a48.874 48.874 0 0 1 7.186-12.053 1.766 1.766 0 0 1 3.116.869c1.848 13.327 10.043 24.83 22.486 31.56a36.638 36.638 0 0 0 7.085 2.964 1.761 1.761 0 0 1 .736 2.935c-2.392 2.39-4.172 4.819-5.442 7.424a29.776 29.776 0 0 0-2.502 7.397 1.765 1.765 0 0 1-1.73 1.422zm-16.148-8.468c5.134 2.51 10.095 4.111 14.772 4.767a33.462 33.462 0 0 1 2.438-6.664c1.079-2.213 2.469-4.301 4.218-6.33a39.413 39.413 0 0 1-5.117-2.351c-12.155-6.574-20.564-17.404-23.536-30.115a45.466 45.466 0 0 0-4.305 7.998c-2.388 5.744-3.743 11.694-4.136 18.174 4.217 6.407 9.624 11.421 15.666 14.521z" fill="#7d271d"/><path d="M282.059 132.144c-1.366-8.362-4.399-16.348-5.692-24.432-10.703 2.296-22.617.941-30.172-5.813 2.423 9.808 5.645 19.558 8.152 29.2 8.399 3.676 18.491 3.745 27.712 1.045z" fill="#a63c30"/><path d="M269.187 135.779c-5.554 0-10.893-1.028-15.547-3.065a1.764 1.764 0 0 1-.999-1.172c-1.136-4.368-2.447-8.855-3.716-13.194-1.531-5.237-3.114-10.653-4.442-16.027a1.762 1.762 0 0 1 2.887-1.737c6.424 5.743 17.393 7.813 28.627 5.404a1.763 1.763 0 0 1 2.111 1.445c.632 3.949 1.674 7.823 2.778 11.925 1.089 4.046 2.215 8.23 2.913 12.501a1.762 1.762 0 0 1-1.245 1.976c-4.435 1.3-8.968 1.944-13.367 1.944zm-13.355-5.968c7.048 2.846 15.744 3.222 24.211 1.057-.673-3.574-1.632-7.135-2.563-10.594-.922-3.427-1.872-6.954-2.54-10.487-9.728 1.723-18.948.402-25.813-3.601 1.013 3.753 2.111 7.507 3.182 11.173 1.195 4.087 2.428 8.304 3.523 12.452z" fill="#7d271d"/><path d="M256.23 161.674c-2.865 5.918-9.001 9.383-15.175 12.187-2.841 1.29-2.328 5.446.754 5.881l.075.01c10.723 1.358 22.211-2.023 29.871-9.597 5.227-5.168 8.405-11.899 9.923-19.041-8.183 1.615-16.525 1.643-23.879-2.505.478 4.487.387 9.025-1.569 13.065z" fill="#a63c30"/><path d="M246.528 181.807c-1.622 0-3.248-.1-4.865-.305l-.096-.013c-2.177-.307-3.782-1.9-4.093-4.059-.314-2.177.833-4.256 2.852-5.174 5.873-2.668 11.673-5.89 14.316-11.35 1.526-3.152 1.959-6.887 1.403-12.11a1.763 1.763 0 0 1 2.62-1.722c5.996 3.382 13.411 4.137 22.671 2.311a1.76 1.76 0 0 1 2.066 2.096c-1.697 7.983-5.296 14.874-10.407 19.928-6.687 6.612-16.503 10.398-26.467 10.398zm11.289-19.364c-3.14 6.486-9.866 10.224-16.032 13.025-.898.408-.855 1.221-.82 1.46.041.281.228.947 1.091 1.069l.051.007c10.502 1.329 21.386-2.158 28.408-9.101 4.07-4.025 7.087-9.375 8.81-15.587-7.562 1.143-14.004.56-19.544-1.772.117 3.296-.197 7.25-1.964 10.899z" fill="#7d271d"/><g><path d="M272.68 29.376a35.842 35.842 0 0 0-3.413 1.299c.105 13.9 11.34 26.15 24.057 31.537a36.498 36.498 0 0 0 8.147 2.441c3.325-3.338 5.982-7.263 7.126-12.597 4.332-20.196-19.812-27.869-35.917-22.68z" fill="#a63c30"/><path d="M301.472 66.417c-.102 0-.205-.009-.308-.027a38.352 38.352 0 0 1-8.54-2.56c-6.734-2.852-12.928-7.502-17.43-13.088-4.978-6.176-7.637-13.111-7.689-20.054a1.765 1.765 0 0 1 1.054-1.628 37.843 37.843 0 0 1 3.58-1.363c11.193-3.607 24.828-1.24 32.424 5.628 3.766 3.405 7.822 9.483 5.76 19.101-1.089 5.077-3.504 9.358-7.601 13.471-.334.336-.785.52-1.25.52zm-30.404-34.585c.737 13.382 12.26 24.231 22.945 28.757a34.767 34.767 0 0 0 6.855 2.155c3.207-3.405 5.124-6.94 6.006-11.056 1.353-6.311-.264-11.755-4.677-15.746-6.612-5.979-19.069-8.08-28.977-4.887-.713.229-1.433.49-2.152.777zm1.612-2.456h.005z" fill="#7d271d"/></g><g><path d="M246.528 181.806c-1.622 0-3.248-.1-4.865-.305h-.001l-.094-.012c-2.161-.305-3.757-1.904-4.069-4.074-.313-2.175.813-4.243 2.802-5.146 5.886-2.672 11.697-5.897 14.342-11.362 2.396-4.95 1.709-10.838.799-16.445-1.39-8.569-3.997-17.484-6.519-26.106-6.183-21.138-12.575-42.995-3.488-64.856 5.168-12.433 15.151-22.078 26.703-25.801 11.193-3.608 24.828-1.24 32.424 5.628 3.766 3.405 7.822 9.483 5.76 19.101-2.139 9.976-9.205 15.326-16.039 20.5-5.481 4.15-10.658 8.07-13.682 14.271-5.4 11.074-2.64 21.318.283 32.163 1.622 6.018 3.299 12.24 3.585 18.766.586 13.362-3.596 25.493-11.475 33.283-6.686 6.61-16.502 10.395-26.466 10.395zm-4.421-3.803c10.5 1.328 21.386-2.158 28.408-9.101 7.172-7.091 10.973-18.252 10.431-30.621-.269-6.138-1.895-12.17-3.467-18.003-2.963-10.995-6.027-22.365-.047-34.626 3.393-6.958 9.153-11.319 14.723-15.536 6.611-5.005 12.855-9.733 14.719-18.428 1.353-6.311-.264-11.755-4.677-15.746-6.612-5.979-19.069-8.081-28.977-4.887-10.582 3.41-19.752 12.306-24.528 23.798-8.61 20.712-2.395 41.962 3.616 62.513 2.552 8.725 5.19 17.747 6.615 26.531.956 5.893 1.737 12.672-1.107 18.546-3.134 6.473-9.57 10.091-16.059 13.036-.85.386-.804 1.194-.77 1.433.042.287.228.966 1.067 1.085z" fill="#7d271d"/></g></g></svg>