<svg id="Icons" height="512" viewBox="0 0 60 60" width="512" xmlns="http://www.w3.org/2000/svg"><path d="m29.619 59.464a.5.5 0 0 1 -.273-.919l13.879-9.071-16.925 9.769a.5.5 0 0 1 -.519-.854l13.127-8.348-15.41 8.9a.5.5 0 0 1 -.516-.857l12.128-7.6-13.931 8.046a.5.5 0 0 1 -.513-.858l8.576-5.288-9.913 5.723a.5.5 0 0 1 -.512-.858l9.588-5.9-10.843 6.257a.5.5 0 0 1 -.509-.859l4.4-2.681-5.3 3.06a.5.5 0 0 1 -.511-.859l9.156-5.6-10.145 5.857a.5.5 0 0 1 -.515-.856l21.221-13.336-22.82 13.175a.5.5 0 0 1 -.512-.86l13.157-8.062-14.048 8.109a.5.5 0 0 1 -.511-.859l11.65-7.111-12.375 7.146a.5.5 0 0 1 -.512-.858l18.286-11.286-19.161 11.062a.5.5 0 0 1 -.513-.857l20.618-12.772-21.456 12.387a.5.5 0 0 1 -.513-.858l19.218-11.847-19.841 11.459a.5.5 0 0 1 -.512-.858l20.642-12.762-21.184 12.23a.5.5 0 0 1 -.51-.86l10.083-6.117-10.257 5.921a.5.5 0 0 1 -.512-.854l19-11.692-19.271 11.119a.5.5 0 0 1 -.514-.858l21.474-13.3-21.677 12.514a.5.5 0 0 1 -.513-.858l18.842-11.61-18.866 10.892a.5.5 0 0 1 -.515-.856l23.39-14.616-23.366 13.491a.5.5 0 0 1 -.51-.86l11.152-6.8-10.873 6.281a.5.5 0 0 1 -.515-.857l22.36-14.011-22.048 12.729a.5.5 0 0 1 -.514-.857l18.382-11.427-17.906 10.338a.5.5 0 0 1 -.514-.862l15.5-9.6-14.917 8.616a.5.5 0 0 1 -.512-.857l13.155-8.133-12.485 7.207a.5.5 0 0 1 -.515-.855l18.67-11.837-17.783 10.265a.5.5 0 0 1 -.518-.854l16.324-10.365-15.253 8.806a.5.5 0 0 1 -.514-.856l9.054-5.649-7.961 4.6a.5.5 0 0 1 -.514-.858l5.513-3.43-4.332 2.5a.5.5 0 0 1 -.523-.852l11.994-7.8-10.173 5.876a.5.5 0 0 1 -.517-.855l3.485-2.206-1.8 1.037a.5.5 0 0 1 -.528-.848l6.972-4.68-4.153 2.4a.5.5 0 0 1 -.547-.835l4.68-3.445a.5.5 0 0 1 -.14-.921l6.464-3.736a.5.5 0 0 1 .547.835l-3.719 2.739 9.175-5.3a.5.5 0 0 1 .529.847l-6.977 4.684 10.256-5.916a.5.5 0 0 1 .518.855l-3.478 2.2 5.289-3.052a.5.5 0 0 1 .522.852l-11.99 7.794 14.468-8.352a.5.5 0 0 1 .514.857l-5.522 3.433 6.847-3.952a.5.5 0 0 1 .515.856l-9.066 5.656 10.443-6.03a.5.5 0 0 1 .518.855l-16.317 10.36 18.085-10.441a.5.5 0 0 1 .517.854l-18.674 11.838 20.337-11.739a.5.5 0 0 1 .513.857l-13.15 8.132 14.165-8.179a.5.5 0 0 1 .513.858l-15.5 9.6 16.5-9.527a.5.5 0 0 1 .514.857l-18.385 11.434 19.412-11.211a.5.5 0 0 1 .516.857l-22.348 14 23.452-13.54a.5.5 0 0 1 .51.86l-11.182 6.817 11.683-6.745a.5.5 0 0 1 .515.857l-23.387 14.612 24.275-14.014a.5.5 0 0 1 .512.859l-18.84 11.608 19.406-11.2a.5.5 0 0 1 .513.857l-21.466 13.3 22.036-12.729a.5.5 0 0 1 .511.859l-18.993 11.691 19.383-11.19a.5.5 0 0 1 .51.86l-10.089 6.12 10.227-5.9a.5.5 0 0 1 .513.858l-20.657 12.762 20.954-12.1a.5.5 0 0 1 .513.859l-19.221 11.851 19.4-11.2a.5.5 0 0 1 .514.858l-20.588 12.753 20.734-11.969a.5.5 0 0 1 .512.858l-18.297 11.289 18.318-10.575a.5.5 0 0 1 .511.859l-11.678 7.127 11.543-6.658a.5.5 0 0 1 .512.86l-13.146 8.048 12.97-7.487a.5.5 0 0 1 .515.857l-21.219 13.336 21.07-12.164a.5.5 0 0 1 .511.86l-9.152 5.6 8.817-5.089a.5.5 0 0 1 .509.859l-4.4 2.681 4.006-2.313a.5.5 0 0 1 .512.858l-9.588 5.9 9.149-5.282a.5.5 0 0 1 .513.858l-8.6 5.3 8.1-4.674a.5.5 0 0 1 .516.856l-12.118 7.587 11.517-6.651a.5.5 0 0 1 .518.854l-13.128 8.352 12.359-7.135a.5.5 0 0 1 .523.852l-13.875 9.068 12.788-7.383a.5.5 0 0 1 .516.857l-2.47 1.546 1.451-.837a.5.5 0 0 1 .527.848l-8.949 5.978 7.2-4.153a.5.5 0 0 1 .528.847l-4.316 2.886 2.158-1.245a.5.5 0 0 1 .546.836l-3.604 2.647a.493.493 0 0 1 .251.216.5.5 0 0 1 -.182.683l-6.056 3.5a.5.5 0 0 1 -.546-.836l2.226-1.635-7.245 4.183a.5.5 0 0 1 -.529-.848l4.319-2.894-7.578 4.369a.5.5 0 0 1 -.528-.849l8.946-5.971-12.35 7.13a.5.5 0 0 1 -.516-.856l2.457-1.538-4.2 2.424a.5.5 0 0 1 -.25.068z" fill="#f4bc2f"/><path d="m21.424 31.439a.5.5 0 0 1 -.344-.863l.16-.151-1.246.719a.5.5 0 0 1 -.606-.784l2.606-2.644-3.642 2.1a.5.5 0 0 1 -.573-.816l2.187-1.845-2.322 1.345a.5.5 0 0 1 -.564-.822l1.542-1.24-1.292.746a.5.5 0 0 1 -.57-.817l1.5-1.247-.923.532a.5.5 0 0 1 -.637-.752l1.7-2.028a.5.5 0 0 1 -.371-.918l2.293-1.324a.5.5 0 0 1 .633.754l-1.667 1.986 3.529-2.037a.5.5 0 0 1 .571.817l-1.5 1.247 1.856-1.072a.5.5 0 0 1 .563.823l-1.539 1.237 1.574-.908a.5.5 0 0 1 .572.814l-2.191 1.848 1.971-1.139a.5.5 0 0 1 .607.783l-2.608 2.646 1.732-1a.5.5 0 0 1 .594.8l-1.026.969a.491.491 0 0 1 .156.167.5.5 0 0 1 -.182.683l-2.293 1.324a.489.489 0 0 1 -.25.067z" fill="#845728"/><path d="m39.424 31.439a.5.5 0 0 1 -.363-.843l1.042-1.1-2.513 1.45a.5.5 0 0 1 -.564-.822l.538-.432-.892.515a.5.5 0 0 1 -.564-.822l1.323-1.063-1.487.858a.5.5 0 0 1 -.578-.81l2.587-2.248-2.562 1.478a.5.5 0 0 1 -.584-.8l2.408-2.159-1.891 1.091a.5.5 0 0 1 -.635-.751l1.749-2.115a.5.5 0 0 1 -.405-.908l2.293-1.324a.5.5 0 0 1 .635.751l-1.731 2.086 3.644-2.1a.5.5 0 0 1 .584.8l-2.405 2.156 2.905-1.677a.5.5 0 0 1 .578.81l-2.588 2.249 2.614-1.509a.5.5 0 0 1 .563.822l-1.325 1.067.918-.53a.5.5 0 0 1 .563.822l-.607.487a.5.5 0 0 1 .5.824l-1.356 1.435a.5.5 0 0 1 .144.921l-2.293 1.324a.489.489 0 0 1 -.245.067z" fill="#845728"/><path d="m20.955 43.031a.5.5 0 0 1 -.312-.89l2.944-2.353-4.972 2.87a.5.5 0 0 1 -.573-.814l2.775-2.352-2.477 1.43a.5.5 0 0 1 -.63-.757l.906-1.062h-.006a.5.5 0 0 1 -.5-.865l2.525-1.457a.5.5 0 0 1 .63.757l-.907 1.062 4.772-2.754a.5.5 0 0 1 .573.814l-2.775 2.352 5.9-3.406a.5.5 0 0 1 .563.824l-2.945 2.352 5.436-3.138a.5.5 0 0 1 .569.818l-3.236 2.688 5.622-3.245a.5.5 0 0 1 .567.82l-2.814 2.306 4.666-2.693a.5.5 0 0 1 .565.82l-2.212 1.8 3.576-2.058a.5.5 0 0 1 .581.807l-2.147 1.9 3.293-1.9a.5.5 0 0 1 .648.129.5.5 0 0 1 -.045.659l-1.68 1.665 1.854-1.07a.5.5 0 0 1 .672.7l-.811 1.281a.5.5 0 0 1 .471.88l-1.733 1a.5.5 0 0 1 -.672-.7l.812-1.279-3.436 1.982a.5.5 0 0 1 -.6-.788l1.678-1.664-4.254 2.456a.5.5 0 0 1 -.581-.807l2.147-1.9-4.693 2.709a.5.5 0 0 1 -.565-.82l2.212-1.8-4.546 2.617a.5.5 0 0 1 -.567-.819l2.816-2.309-5.424 3.131a.5.5 0 0 1 -.569-.817l3.234-2.686-6.075 3.507a.491.491 0 0 1 -.25.067z" fill="#fff"/><path d="m29.027 53.419a.5.5 0 0 1 -.288-.908l2.984-2.106-4.423 2.555a.5.5 0 0 1 -.531-.846l3.247-2.214-4.26 2.459a.5.5 0 0 1 -.526-.849l1-.659-1.566.9a.5.5 0 0 1 -.525-.851l.146-.095-.537.309a.5.5 0 0 1 -.536-.843l3.52-2.453-4.071 2.351a.5.5 0 0 1 -.546-.836l4.255-3.119-4.794 2.767a.5.5 0 0 1 -.54-.84l1.948-1.386-2.133 1.231a.5.5 0 0 1 -.576-.812l3.465-2.959-3.8 2.2a.5.5 0 0 1 -.558-.827l.426-.332-.315.181a.5.5 0 0 1 -.6-.79l.636-.621-.462.267a.5.5 0 0 1 -.719-.607l.139-.377a.5.5 0 0 1 -.226-.934l.884-.51a.5.5 0 0 1 .718.608l-.1.261 2.713-1.565a.5.5 0 0 1 .6.79l-.635.62 3.111-1.8a.5.5 0 0 1 .557.827l-.427.333 2.27-1.31a.5.5 0 0 1 .575.812l-3.467 2.965 6.53-3.77a.5.5 0 0 1 .54.84l-1.948 1.386 3.618-2.091a.5.5 0 0 1 .546.836l-4.258 3.122 6.329-3.654a.5.5 0 0 1 .536.843l-3.52 2.453 5.076-2.931a.5.5 0 0 1 .525.851l-.147.1 1.076-.621a.5.5 0 0 1 .525.849l-.991.656 1.781-1.028a.5.5 0 0 1 .531.846l-3.249 2.207 2.17-1.253a.5.5 0 0 1 .539.841l-2.98 2.1 1.462-.844a.5.5 0 0 1 .557.828l-2.363 1.835a.5.5 0 0 1 .331.926l-5.968 3.447a.5.5 0 0 1 -.557-.828l2.179-1.692-4.653 2.686a.5.5 0 0 1 -.25.073z" fill="#845728"/><path d="m50.162 27.47a.5.5 0 0 1 -.372-.834l1.71-1.906-4 2.312a.5.5 0 0 1 -.587-.8l1.627-1.479-1.255.723a.5.5 0 0 1 -.626-.762l.659-.749-.033.018a.5.5 0 0 1 -.724-.589l.215-.655a.485.485 0 0 1 -.173-.178.5.5 0 0 1 .182-.682l.5-.291a.5.5 0 0 1 .725.589l-.094.286 1.531-.884a.5.5 0 0 1 .626.763l-.658.748 2.638-1.523a.5.5 0 0 1 .587.8l-1.63 1.481 2.71-1.558a.5.5 0 0 1 .622.767l-1.71 1.9 1.088-.628a.5.5 0 0 1 .687.674l-.435.79a.5.5 0 0 1 .2.929l-1.16.67a.5.5 0 0 1 -.688-.673l.345-.626-2.252 1.3a.49.49 0 0 1 -.255.067z" fill="#e9f1f9"/><path d="m50.35 31.458a.5.5 0 0 1 -.38-.824l.487-.571-1.188.685a.5.5 0 0 1 -.678-.692l.995-1.639-.982.566a.5.5 0 0 1 -.747-.494l.09-.723a.5.5 0 0 1 -.106-.912l.452-.261a.51.51 0 0 1 .526.016.5.5 0 0 1 .22.479l-.065.527 1.8-1.04a.5.5 0 0 1 .678.693l-1 1.639 2.017-1.164a.5.5 0 0 1 .629.757l-.709.832a.493.493 0 0 1 .35.243.5.5 0 0 1 -.183.683l-1.956 1.133a.491.491 0 0 1 -.25.067z" fill="#d4dfea"/><path d="m49.27 22.489a.5.5 0 0 1 -.329-.878l2.9-2.52-4.6 2.655a.5.5 0 0 1 -.542-.839l2.81-2.015-2.522 1.455a.5.5 0 0 1 -.534-.844l1.714-1.183-1.549.894a.5.5 0 0 1 -.548-.834l5.658-4.206-5.891 3.4a.5.5 0 0 1 -.529-.847l1-.668-1.038.6a.5.5 0 0 1 -.539-.842l4.352-3.06-4.726 2.727a.5.5 0 0 1 -.539-.84l5-3.542-5.373 3.1a.5.5 0 0 1 -.546-.835l6.412-4.738-6.635 3.83a.5.5 0 0 1 -.542-.838l5.016-3.621-4.825 2.785a.5.5 0 0 1 -.546-.836l4.421-3.249-3.853 2.227a.5.5 0 0 1 -.547-.827l3.27-2.479-2.231 1.288a.5.5 0 0 1 -.589-.8l2.417-2.221a.549.549 0 0 1 -.453-.25.5.5 0 0 1 .182-.683l3.504-2.022a.5.5 0 0 1 .589.8l-2.226 2.045 5.318-3.07a.5.5 0 0 1 .552.832l-3.275 2.473 4.724-2.727a.5.5 0 0 1 .546.836l-4.428 3.25 5.5-3.172a.5.5 0 0 1 .542.838l-5.02 3.621 5.754-3.321a.5.5 0 0 1 .546.835l-6.41 4.737 6.988-4.039a.5.5 0 0 1 .54.841l-5 3.542 5.1-2.947a.5.5 0 0 1 .538.841l-4.354 3.064 4.194-2.412a.5.5 0 0 1 .528.848l-.99.665.561-.324a.5.5 0 0 1 .548.834l-5.658 4.205 4.827-2.786a.5.5 0 0 1 .534.844l-1.719 1.187.515-.3a.5.5 0 0 1 .67.161.5.5 0 0 1 -.128.678l-2.806 2.015.358-.206a.5.5 0 0 1 .579.811l-2.9 2.521.785-.453a.5.5 0 0 1 .607.783l-.717.731a.491.491 0 0 1 .353.243.5.5 0 0 1 -.183.682l-2.551 1.473a.5.5 0 0 1 -.606-.783l.422-.431-2.127 1.224a.5.5 0 0 1 -.25.067z" fill="#ef912a"/><g fill="#262626"><path d="m17.315 22.844c-4.9 7.912 7.931 12.712 8.451 3.017.334-4.741-5.791-7.127-8.451-3.017zm4.319-1.244c3.364 1.4 3.642 7.211.447 8.93-5.302 1.337-5.923-10.044-.447-8.93z"/><path d="m34.317 26.249c.486 9.39 12.708 4.364 8.781-3.154-2.438-4.836-9.22-1.677-8.781 3.154zm3.619-4.567c5.328-1.551 6.031 9.781.55 8.811-3.377-1.299-3.667-7.075-.55-8.811z"/><path d="m17.374 39.543c-.89 13.733 18.463 19.222 23.911 6.035.92-1.954 2.7-6.389.293-7.877-6.21-2.574-19.694-3.758-24.204 1.842zm19.715 10.24c-6.222 6.528-16.191.992-17.781-6.846a41.655 41.655 0 0 1 21.6.085 15.4 15.4 0 0 1 -3.819 6.761zm-9.963-13.343c4.276.152 15.077-1.321 14.065 5.432a43.65 43.65 0 0 0 -22.13.011c-1.941-5.048 4.708-5.102 8.065-5.443z"/><path d="m8.174 53.173c25.274 17.27 65.752-1.273 47.189-34.179 12.368-13.869-5.963-26.794-13.609-11.974-27.165-12.691-56.332 25.109-33.58 46.153zm43.026-22.545c-.037.03-.15.1-.158.105-1.743.077-1.9-2.057-2.17-3.371h3.418c-.336 1.08-.196 2.46-1.09 3.266zm2.119-6.066c-.077.714.19 1.544-.175 2.187-4.218-.047-6.028 1.065-5.376-4.2h5.551zm-8.284-20.735c4.705-5.07 13.462-.883 13.275 5.8.172 4.665-4.909 7.276-4.961 11.943h-5.613a10.1 10.1 0 0 0 -.676-3.021.054.054 0 0 0 -.023-.068c-2.823-4.429-6.795-9.933-2.002-14.654zm-36.706 12.091a27.485 27.485 0 0 1 33.154-7.878c-.956 3.569 1.408 6.612 3.376 9.341-1.326-.4-3.435-2.536-4.5-1.085l5.264 2.632c1.711 2.43-.751 6.839 1.712 8.4-.019 5.636 6.337 5.1 6.379-.176 2.095-1.054.583-4.172 1.128-6.061 23.708 55.45-81.272 46.478-46.513-5.173z"/><path d="m49.49 5.587a.275.275 0 0 0 .067-.02c-.022.008-.046.013-.067.02z"/><path d="m46.464 7.693c1.519.429 1.645-1.883 3.026-2.106h-.013c.029-.008.1-.034.08-.022.067-.027.425-.105.164-.05.518.094 2.369-.5 1.1-.866-1.685-.02-4.493 1.262-4.357 3.044z"/><path d="m13.339 19.4 6-3c2.842-2.832-10.688 3.827-6 3z"/></g></svg>