<svg xmlns="http://www.w3.org/2000/svg" xml:space="preserve" width="512" height="512"><path fill="#FDE7CF" d="m368.25 357.607-1.187-.564c9.167-12.113 23.489-34.195 20.654-49.197-4.2-21.3-59.617-39.646-60.217-39.846h-143c-.5.2-55 18.5-59.2 39.7-3.039 15.436 11.406 37.675 20.882 50.162l-.782.338c-1.7.6-7.3 3-8.3 6.4-.5 1.8 0 3.8 1.8 6.1 7.68 9.674 21.426 7.996 27.1 5.625.7-10.8 1.3-22.925 3-33.725-1.206-6.03-7.646-12.033-8.5-13.036 5.138-5.284 6.195-6.582 9.163-9.652 2.06-2.13 3.766-3.828 5.199-5.258-3.18 20.369-5.178 37.955-6.762 58.346-1.5 19.8-1.4 38.4.4 55.5 1.027 10.189 5.117 37.7 5.8 41.8h-.1c-18.9 1.3-23.2 11.1-23.5 19.1-.1 3.3 2.5 6.2 5.8 6.3 10.8.5 37.1 1.6 48.4-.3 14.5-2.5 17-8 19.4-17 2.095-8 16.734-44.646 19.635-51.315 8.229 1.119 16.879.986 23.848.022 5.589 14.323 17.745 42.994 20.017 51.293 2.5 9 4.9 14.5 19.4 17 11.3 1.9 37.6.9 48.4.3 3.3-.1 5.9-3 5.8-6.3-.3-8-4.6-17.8-23.5-19.1-.16 0-.127.392.3-2.6 5.771-35.781 8.54-58.72 5.8-94.7-1.169-17.194-4.15-42.356-6.82-58.724 5.032 4.667 4.243 4.18 14.793 14.776l-.973.968c-2.5 2.1-7.813 6.913-8.813 11.913 2.409 15.302 2.304 25.242 3.375 34.01l.873 1.164c3.1 1 19.558 4.218 27.258-5.482 1.8-2.2 2.787-5.468 2.187-7.268-1.1-3.4-5.93-6.05-7.63-6.75z"/><path fill="#9D706B" d="M355.4 496.2c3.3-.1 7.2-1.5 7.1-4.8-.3-8-.3-19.5-19.2-20.8l-3.1-1.1-2.5.7c.1-.6.2-1.3.3-2 1-6.2 4.3-27.3 5.4-39.2.1-1.2.2-2.5.3-3.7-6.8-.5-44.3-2.5-72.9 8.2 4.7 12 14.8 38.2 16.8 45.4 2.5 9 4.9 14.5 19.4 17 11.4 1.8 37.6.8 48.4.3z"/><path fill="#8A5D58" d="m268.9 428.3 5 14.8c2.7 6.9 11.5 27.2 13.8 35.7 2.5 9 4.9 14.5 19.4 17 11.3 1.9 37.6.9 48.4.3 3.3-.1 5.9-3 5.8-6.3-.1-3.4-1-7-3.3-10.4 1 14.3-35 11.2-48.3 6.8-14.1-4.6-40.8-57.9-40.8-57.9z"/><path fill="#E0BCA2" d="m336.7 313.9 23.2 22.3-25-33.1z"/><path fill="#9D706B" d="m367.7 356.9 9 7.5-2.7 7-6.8 5-12.1 2.2-9.9-1.4s-2.7-17.7-3-30.7c-.3-12.9 4.6-11.4 4.6-11.4 14.7 10.6 32.4 6.6 32.4 6.6l-11.5 15.2z"/><path fill="#8A5D58" d="M367.8 356.9s9 6.7 9 7.5-2 5-2 5-2.4 6.3-5.6 7.3c-3.2.9-7.3.6-7.3.6s6.8-4.2 7.3-9.6c.4-5.3-7.7-4.9-7.7-4.9l6.3-5.9z"/><path fill="#2D2D39" d="M338.273 467.971c21.4 1.7 25.427 14.229 25.627 21.629.1 4.8-3.6 8.9-8.3 9.1-7.4.4-17.9.9-27.9.9-8.2 0-16-.3-21.1-1.2-16-2.8-19-9.6-21.6-18.9-2.5-9.2-19.1-51.5-19.3-51.9l2.9-1.2c.6 1.7 16.9 42.8 19.4 52.2 2.3 8.8 4.8 14.3 19.2 16.8 11.3 1.9 37.5.9 48.3.3 3.1-.1 5.7-2.9 5.6-6.1-.3-8-4.889-17.64-23.589-18.94l.762-2.689zM337.3 312.7c2.4 2.5 22 22.9 22.6 23.5-7.2-4.4-16.4-13.4-21.5-18.3l-1.1-5.2z"/><path fill="#2D2D39" d="M361.5 362.7c.1-.1 4.5-5.2 9.5-12.6 8-11.7 17.8-29.4 15.3-42.2-4.2-21-58.5-39.3-59.1-39.5l.9-2.8c.6.2 58.4 18.5 61.1 41.8 3.7 32.2-27.6 55.4-27.7 55.3z"/><path fill="#2D2D39" d="m344.8 378 1-2.7c.2.1 18.4 6.5 26.9-4.3 1.7-2.2 2.4-4.3 1.8-6-1.2-3.8-8.4-6.4-8.5-6.4l1.9-2.2c.3.1 7.8 2.5 9.4 7.8.9 2.7.1 5.6-2.2 8.5-4.6 5.9-11.3 7.5-17.3 7.5-6.8 0-12.4-2-13-2.2zM340.5 341.3c.4-1.2.635-2.321 1.435-3.421 3.1-5.3 8.865-10.079 9.265-10.279l1.8 2.2c-.1 0-8.92 7.378-10.12 13.378l-2.38-1.878z"/><path fill="#2D2D39" d="M343 342.9c-1.274-7.643-2.23-21.093-8.2-39.6 3.818 22.905 5.655 39.754 6.013 42.649.545 4.407 1.492 12.606 2.687 27.351 3.115 41.454-1.289 63.881-5.392 91.884-.7 4.775-.466 3.736-1.108 7.716 12.319-36.954 12.959-84.201 6-130zM169 342.9c.3-1.8.5-3.6.9-5.3 1.3-15.7 7.3-34.3 7.3-34.3-.1.6-.7 4.1-1.6 9.7-.2 1.2-.3 2.4-.5 3.7-1 6.4-2.2 15-3.4 24.8 0 .3-.1.7-.1 1.2-1.2 9.1-2.2 19.5-3.1 30.6-1.3 17.3-1.6 36.4.4 55.5 1.1 10.9 4.1 30.1 5.4 39.2.1 1.1.3 2 .4 2.8.2 1.2.3 1.9.3 2.1-.2-.6-.4-1.4-.6-2.1-.3-1-.6-1.8-.9-2.8-1.9-6.4-3.5-13-4.7-19.7-7.1-37.6-4.1-77.1.2-105.4z"/><path fill="#9D706B" d="M205 495.8c14.5-2.5 17-8 19.4-17 1.9-7.2 12.1-33.4 16.8-45.4-28.6-10.7-66.1-8.8-72.9-8.2.1 1.3.2 2.6.3 3.7 1.2 11.9 4.5 33 5.4 39.2.1.7.2 1.4.3 2l.1.6-1.3-1c-18.9 1.3-21.9 12.1-22.3 20.1-.1 3.3 2.5 6.2 5.8 6.3 10.8.6 37 1.6 48.4-.3z"/><path fill="#E0BCA2" d="M256 419.9c-29.6.1-50.989-10.35-51.288-10.45 10.838 10.839 25.86 14.687 26.089 14.75 7.3 1.9 15.6 3.3 24.7 3.3 15.326 0 33.047-2.964 47.2-13.9.051-.041 3.49-2.686 4.821-4.15-.301.1-21.922 10.55-51.522 10.45z"/><path fill="#8A5D58" d="M202.3 486.3c-13.2 4.4-49.2 7.5-48.3-6.8-2.4 3.3-3.2 6.9-3.3 10.4-.1 3.3 2.5 6.2 5.8 6.3 10.8.5 37.1 1.6 48.4-.3 14.5-2.5 17-8 19.4-17 2.2-8.4 11.1-28.7 13.8-35.7l5-14.8c0-.1-26.7 53.2-40.8 57.9z"/><path fill="#E0BCA2" d="m177.2 303.3-25.1 33 23.2-22.4z"/><path fill="#9D706B" d="M132.9 341.8s17.6 4 32.4-6.6c0 0 4.9-1.5 4.6 11.4-.3 12.9-3 30.7-3 30.7l-9.9 1.4-12.1-2.2-6.8-5-2.7-7 9-7.5-11.5-15.2z"/><path fill="#8A5D58" d="M150.5 362.7s-8.1-.4-7.7 4.9c.4 5.4 7.3 9.6 7.3 9.6s-4.1.2-7.3-.6c-3.2-1-5.6-7.3-5.6-7.3s-2-4.3-2-5 9-7.5 9-7.5l6.3 5.9z"/><path fill="#2D2D39" d="M174.361 470.684c-18.7 1.3-23.161 10.916-23.461 18.916-.1 3.2 2.5 6 5.6 6.1 10.8.5 37 1.6 48.3-.3 14.4-2.5 16.9-8 19.2-16.8 2.6-9.4 18.8-50.5 19.4-52.2l2.9 1.2c-.2.4-16.9 42.7-19.3 51.9-2.6 9.3-5.6 16.1-21.6 18.9-5.1.9-12.9 1.2-21.1 1.2-9.9 0-20.5-.4-27.9-.9-4.7-.2-8.4-4.3-8.3-9.1.2-7.4 4.253-19.931 25.553-21.631l.708 2.715zM173.6 318c-5 4.9-14.3 13.9-21.5 18.3.6-.6 20.3-21 22.6-23.5l-1.1 5.2z"/><path fill="#2D2D39" d="M122.8 307.4c2.7-23.3 60.4-41.5 61.1-41.8l.9 2.8c-.5.2-54.9 18.5-59.1 39.5-2.6 12.8 7.3 30.4 15.3 42.2 5 7.4 9.4 12.5 9.5 12.6-.1.1-31.4-23.1-27.7-55.3z"/><path fill="#2D2D39" d="M154.2 380.2c-6 0-12.7-1.6-17.3-7.5-2.4-3-3.1-5.9-2.2-8.5 1.6-5.3 9.1-7.7 9.4-7.8l1.9 2.2c-.1 0-7.4 2.6-8.5 6.4-.5 1.7.1 3.7 1.8 6 8.5 10.8 26.7 4.4 26.9 4.3l1 2.7c-.6.2-6.2 2.2-13 2.2zM171.5 341.4c0 .3-.1.7-.1 1.2l-2.5.5c-1.3-6.1-9.8-13.2-9.9-13.2l1.8-2.2c.3.2 5.9 4.8 9 10.1.8 1 1.3 2.3 1.7 3.6zM256 426.5c-27.9.1-48.3-14.4-49.1-15 9.333 9.333 19.546 13.145 25.2 14.7 2.873.76 12.001 3.3 24 3.3 8.961 0 16.778-1.388 24-3.3a57.336 57.336 0 0 0 25.2-14.7c-1 .6-21.4 15.1-49.3 15z"/><path fill="#FFFAF5" d="M311.2 364.4c0-26.5-24.7-56.7-55.2-56.7-30.5 0-55.2 30.2-55.2 56.7s24.7 47.9 55.2 48c30.5 0 55.2-21.5 55.2-48z"/><path fill="#2D2D39" d="M169 342.9c1.274-7.641 2.23-21.093 8.2-39.6-3.542 21.252-5.6 38.871-5.6 39.4-1.2 9.1-2.2 19.5-3.1 30.6-1.3 17.3-1.6 36.4.4 55.5 1.063 10.537 3.902 28.831 5.265 38.258.818 5.661.835 5.575.835 5.842-.016-.047-1.43-4.654-1.73-5.68a181.872 181.872 0 0 1-4.47-18.92c-7.1-37.6-4.1-77.1.2-105.4z"/><g><path fill="#FDE7CF" d="M360.2 150.5c-6.805-22.921-6.3-21.165-6.3-21.3 4.188-11.168 11.646-42.307 5.1-62.7-8.147-24.753-22.4-43.101-22.4-43.4-.155.155-.671.706-5 5.3-20.878 13.918-40.082 43.3-42.991 48.359-13.104-1.747-32.749-5.764-32.621-5.764.191 0-33.318 5.405-32.988 5.405-2.129-3.042-15.919-28.595-42.6-48-4.329-4.594-4.845-5.145-5-5.3-.675.675-14.936 20.722-22.4 43.4-4.458 13.718-2.435 29.507.1 43.7.589 3.534 3.601 15.736 5 19 0 .116.505-1.62-6.3 21.3-7.268 16.612-13.556 41.543-14 61.5 0 22.069 5.346 42.184 25 53.3 31.115 17.802 68.766 27.3 93.3 27.3 24.574 0 61.738-9.329 93.3-27.3 18.298-10.586 24.701-29.106 25-50.3-.2-2.202-.29-32.706-14.2-64.5z"/><path fill="#9D706B" d="M315.2 139.2c-14.6-6.3-31.4-5.4-43.4-3.1-5.2 1-10.5 1.5-15.8 1.5-5.3 0-10.6-.5-15.8-1.5-12.1-2.2-28.8-3.2-43.4 3.1-26.3 11.4-46.1 62.1-16.8 94.4 20.7 23.1 44.9 25.4 61.1 24.6 5-.2 10-.4 15-.4s10 .1 15 .4c16.2.9 40.3-1.5 61.1-24.6 29.2-32.3 9.4-82.9-17-94.4z"/><path fill="#E0BCA2" d="m289 76.5 12.2 4.2c8.832-29.263 24.336-44.54 27.579-47.497C317.545 31.039 289 76.5 289 76.5z"/><path fill="#F6B0A6" d="m349.2 42.7-12.6-18.5-3.7 4.7-13.7 19.6s-7.3 17.9-7.4 18.5c-.1.4 0 11.8 0 11.8l5.5 2.5 9.3-5.8 5.2 1.1-.1 16.6s3.6 4.8 3.9 5.1c.4.3 4.792-4.357 4.792-4.357-.7 20.3 18.008 19.757 18.008 19.757l3.2-18.2-1.1-22.6-11.3-30.2z"/><ellipse transform="rotate(-22.351 316.3 203.028)" fill="#F6B0A6" cx="316.31" cy="203.035" rx="17.401" ry="10.4"/><path fill="#2D2D39" d="M292.7 161.2c-6-.6-11.6 6.3-12.4 15.4-.9 9.1 3.3 16.9 9.3 17.5s11.6-6.3 12.4-15.4c1-9.2-3.2-16.9-9.3-17.5z"/><path fill="#2D2D39" d="m300.2 170.2-4.6 5.7c5.8 3.7 14.5 2.5 16.7-4.6-3.6 4.1-9.4 3.3-12.1-1.1z"/><path fill="#F9FCF8" d="M291 164.8c-2.3-.7-5.1 1.8-6.2 5.4s-.1 7.2 2.2 7.8c2.3.7 5.1-1.8 6.2-5.4 1.1-3.5.1-7.1-2.2-7.8z"/><path fill="#2D2D39" d="m337 20.6-1.4 1.1c-36.1 27.6-47.6 53.5-48.1 54.7L291 78c.1-.2 11.3-25.4 45.4-52 6.4 8 36.6 50 16.2 100.2-.3.7-.7 1.5-.9 2.3.4 1 .7 2.2 1.1 3.4l1.3.6c.2-.5.5-1 .7-1.4 26.7-59.4-16.1-108.5-16.5-109l-1.3-1.5z"/><path fill="#2D2D39" d="M334.319 94.196c-.465-2.22-.392-5.807-.319-8.496.1-5.7.2-10.7-3.3-11.6-2.2-.6-4.7.6-7.5 2.1-4.5 2.2-7.5 3.4-9.3 1.2-3.6-4.7 5.2-29.6 24.2-53l-3.1-2.5c-18.5 22.8-30.2 50.3-24.4 57.8 3.8 4.9 9.7 2.1 14 0 1.7-.8 3.8-1.9 4.7-1.8.6 1.1.5 5.3.4 7.8-.056 3.063-.867 14.3 5.2 14.3 5.009 0 8.03-11.269 8.6-13.7-2.01 4.111-5.047 7.858-6.911 9.244-1.061.789-1.767 1.055-2.27-1.348zM413.3 171c-20.9 1.1-42.5 7.6-62.6 18.9 0 0 15.1-4.8 31.4-9.5 11.6-3.5 31.2-9.4 31.2-9.4zM423.9 192.1c-20.8-2.3-43.2.8-64.8 8.7 0 0 15.7-2.3 32.5-4.5 12-1.4 32.3-4.2 32.3-4.2zM419.6 220.5c-19.6-7.4-42-10.1-64.9-7.8 0 0 15.8 1.7 32.6 3.8 11.9 1.6 32.3 4 32.3 4z"/><path fill="#FFFAF5" d="M202.2 84.4c27.323-5.638 59.75-9.853 107.5 0-13.32-6.496-30.888-12.833-53.069-12.99-28.5-.203-54.331 12.923-54.431 12.99z"/><path fill="#E0BCA2" d="M183.597 33.159C187.152 36.518 202.211 52 210.9 80.7l12.2-4.2c-.096 0-28.168-44.702-39.503-43.341zM256 274.4c-50.854.598-92.489-21.34-115.5-38.6l-.1-.1c3.3 12 10.2 22.7 22.4 29.7 21.2 12.1 41.5 18.8 57.8 22.6h.1c19.6 4.5 33.3 4.7 35.4 4.7 2.1 0 15.8-.2 35.4-4.7h.1c16.3-3.7 36.6-10.5 57.8-22.6 12.1-7 18.9-17.7 22.1-29.6-23.262 17.448-64.366 39.202-115.5 38.6z"/><path fill="#F6B0A6" d="m151.5 72.8-1.1 22.6 3.2 18.2s18.513.516 17.813-19.884c0 0 4.587 4.784 4.987 4.484.3-.3 3.9-5.1 3.9-5.1l-.1-16.6 5.2-1.1 9.3 5.8 5.5-2.5V66.9c-.1-.5-7.4-18.5-7.4-18.5l-13.7-19.6-3.7-4.7-12.6 18.5-11.3 30.2z"/><ellipse transform="rotate(-67.649 195.6 202.995)" fill="#F6B0A6" cx="195.606" cy="203.002" rx="10.4" ry="17.401"/><path fill="#2D2D39" d="M210 178.7c.9 9.1 6.5 15.9 12.4 15.4 6-.6 10.2-8.4 9.3-17.5s-6.5-15.9-12.4-15.4c-6.1.6-10.3 8.3-9.3 17.5z"/><path fill="#2D2D39" d="M199.8 171.3c2.2 7.1 10.9 8.2 16.7 4.6l-4.6-5.7c-2.8 4.4-8.6 5.2-12.1 1.1z"/><path fill="#F9FCF8" d="M218.8 172.7c1.1 3.6 3.9 6.1 6.2 5.4 2.3-.6 3.3-4.2 2.2-7.8s-3.9-6.1-6.2-5.4c-2.3.6-3.3 4.2-2.2 7.8z"/><path fill="#2D2D39" d="M173.8 22.1c-.5.5-43.3 49.6-16.5 109 .2.4.5.9.7 1.4l1.3-.6c.3-1.2.7-2.4 1.1-3.4-.2-.8-.6-1.6-.9-2.3C139.1 76 169.3 34 175.7 26c34.1 26.6 45.3 51.8 45.4 52l3.5-1.6c-.5-1.1-12-27-48.1-54.7l-1.4-1.1-1.3 1.5z"/><path fill="#2D2D39" d="M168.3 86.3c.485 2.068 2.871 10.149 6.696 12.618 1.748 1.128 5.185 1.591 6.478-3.551.668-2.656.626-6.12.626-9.667-.1-2.5-.1-6.7.4-7.8 1-.1 3.1 1 4.7 1.8 4.2 2.1 10.1 4.9 14 0 5.8-7.5-5.491-34.38-24.091-57.18L173.7 24.4c19.1 23.4 27.9 48.3 24.2 53-1.8 2.2-4.8 1-9.3-1.2-2.8-1.5-5.3-2.7-7.5-2.1-3.4.9-3.4 5.9-3.3 11.6.117 4.343-.029 7.214-.392 8.819-.447 1.973-1.058 1.948-2.563.635-1.961-1.71-4.717-5.427-6.545-8.854zM288.8 208.2c-1.293 8.081-4.288 19.004-15.6 19.1-5.8.1-11.3-3-14.5-8-.2-.4-.4-.8-.7-1.2 6-2.9 13.2-7 14.4-10.8.3-1 .2-1.8-.3-2.7-1.9-3.1-9.9-4.2-16.1-4.2-6.2 0-14.1 1.1-16.1 4.2-.5.8-.6 1.7-.3 2.7 1.2 4 9.3 8.4 14.4 10.8l-.6 1.2c-3.2 5-8.8 8.1-14.6 8.1-13.279-.113-15.098-15.961-15.6-19.1l-9 4.8 6.3-.1c.9 4.6 4.8 17.9 18.2 18h.1c6.9-.1 13.5-3.7 17.2-9.6 3.8 5.8 10.4 9.5 17.2 9.6h.1c13.3-.1 17.2-13.4 18.1-18l6.3.1-8.9-4.9zM256 243.7c-4.6-.1-9.2-1.4-13.5-3.9 5.7 9.9 21.2 9.9 27 0-4.3 2.5-8.9 3.9-13.5 3.9zM256.025 69.995c-17.089 0-34.449 3.715-53.825 14.405 27.623-6.907 36.035-10.554 53.675-10.554 13.962 0 21.036 1.61 53.825 10.554-22.024-12.152-39.639-14.405-53.675-14.405zM98.7 171c20.9 1.1 42.5 7.6 62.6 18.9 0 0-15.1-4.8-31.4-9.5-11.6-3.5-31.2-9.4-31.2-9.4zM88.1 192.1c20.8-2.3 43.2.8 64.8 8.7 0 0-15.7-2.3-32.5-4.5-12-1.4-32.3-4.2-32.3-4.2zM92.4 220.5c19.6-7.4 42-10.1 64.9-7.8 0 0-15.8 1.7-32.6 3.8-11.9 1.6-32.3 4-32.3 4z"/><path fill="#3D3D44" d="M268.2 204.6c0-.7-3.2-1.2-7.6-1.5-1.4-.1-3-.1-4.6-.2-1.6 0-3.2.1-4.6.2-4.5.3-7.6.8-7.6 1.5-.1 1 5.4 1.7 12.2 1.7 6.9-.1 12.3-.8 12.2-1.7z"/><path fill="#2D2D39" d="M354.7 130.9c-.7-1.6-1.4-3.3-2.1-4.8-3.1-7.1-5.5-11.7-6-12.7.2.7 2.2 6.3 5.1 14.9.4 1 .7 2.2 1.1 3.4 3.4 10.3 7.7 24 11.8 38.3 5 17.6 8.6 37.1 7.3 54.5-2 27.6-26 43.1-47.8 51.4-7.6 2.9-15 5.7-21 7.9-30.5 8.4-58.4 6.6-78.1 2.9-10.9-2-20.5-4.8-28.2-7.4-2.9-1.1-5.8-2.2-8.9-3.4-21.7-8.3-45.8-23.8-47.8-51.4-1.3-17.4 2.4-36.9 7.3-54.5 4.1-14.3 8.4-28 11.8-38.4.3-1.2.7-2.4 1.1-3.4 2.9-8.6 4.9-14.2 5.1-14.9-.5.9-2.9 5.6-6 12.7-.7 1.5-1.4 3.2-2.1 4.8-9.4 22.1-23.4 61.1-21 93.9 1.9 26.6 22.7 42.5 43.3 51.8 7.7 3.7 23.4 10.4 44.4 14.3 9.5 1.8 20.7 3.1 33.2 3.1 21.9 0 47.5-4.1 74.1-16.9 21-9.2 42.5-25.2 44.5-52.3 2.3-32.8-11.7-71.7-21.1-93.8z"/></g></svg>