<svg height="512" viewBox="0 0 311.495 311.495" width="512" xmlns="http://www.w3.org/2000/svg"><circle cx="149.553" cy="153.047" fill="#d0df92" r="134.02"/><path d="M137.439 222.945c-2.219 3.534-3.253 7.536-3.354 11.449-.079 2.944.342 5.862 1.145 8.688 1.209 4.238 3.27 8.283 5.994 11.961a41.333 41.333 0 0 0 10.113 9.66c3.976 2.668 8.545 4.7 13.551 5.704 3.75.754 7.741.92 11.822.354 6.127-.842 12.412-3.344 18.43-7.658 6.028-4.316 11.818-10.411 17.27-18.533 4.134-6.161 8.081-13.497 11.794-22.177 1.65-3.858 3.422-7.109 5.238-9.815 2.449-3.65 4.973-6.303 7.397-8.175 3.65-2.804 7.025-3.892 10.031-4.042 3.007-.135 5.734.69 8.049 2.236a13.9 13.9 0 0 1 4.841 5.691c1.095 2.364 1.617 5.119 1.277 8.235a7 7 0 1 0 13.916 1.536c.623-5.612-.326-11.018-2.501-15.68a27.902 27.902 0 0 0-9.732-11.408 27.207 27.207 0 0 0-10.581-4.234c-5.772-1-12.1-.109-18.046 2.903-5.961 3.004-11.516 8.04-16.276 15.136-2.358 3.513-4.53 7.538-6.486 12.112-3.422 8.003-6.982 14.571-10.546 19.881-4.179 6.228-8.359 10.718-12.318 13.84-2.972 2.344-5.815 3.926-8.499 4.945-4.029 1.52-7.71 1.82-11.18 1.326-3.463-.501-6.734-1.845-9.65-3.801a27.346 27.346 0 0 1-6.055-5.578c-2.543-3.158-4.199-6.74-4.76-9.83-.288-1.546-.314-2.958-.134-4.168.183-1.215.553-2.225 1.115-3.127a7 7 0 1 0-11.865-7.431z" fill="#fbb807"/><path d="M274.953 218.058c.623-5.612-.326-11.018-2.501-15.68a27.902 27.902 0 0 0-9.732-11.408 27.207 27.207 0 0 0-10.581-4.234c-5.772-1-12.1-.109-18.046 2.902-.034.017-.067.038-.1.055 2.632 3.848 4.828 7.989 6.602 12.356 2.228-1.093 4.33-1.593 6.275-1.69 3.007-.135 5.734.69 8.049 2.236a13.9 13.9 0 0 1 4.841 5.691c1.095 2.364 1.617 5.119 1.277 8.235a7 7 0 0 0 13.916 1.537z" fill="#fffcc8"/><path d="M247.536 186.344a27.208 27.208 0 0 1 15.184 4.626 27.901 27.901 0 0 1 9.732 11.408c2.175 4.661 3.124 10.067 2.5 15.68a7.001 7.001 0 0 1-7.725 6.189 7 7 0 0 1-6.189-7.727c.34-3.116-.182-5.871-1.277-8.235a13.906 13.906 0 0 0-4.842-5.69 13.179 13.179 0 0 0-7.411-2.25c-.211 0-.424.005-.638.015-3.006.149-6.381 1.237-10.03 4.041-2.424 1.872-4.948 4.525-7.397 8.176-1.816 2.706-3.589 5.957-5.238 9.815-3.713 8.68-7.659 16.016-11.793 22.177-5.453 8.123-11.242 14.218-17.271 18.534-6.019 4.314-12.303 6.816-18.431 7.658a35.285 35.285 0 0 1-11.822-.353c-5.005-1.005-9.574-3.036-13.551-5.705a41.31 41.31 0 0 1-10.112-9.66c-2.725-3.678-4.785-7.723-5.994-11.961-.803-2.825-1.225-5.744-1.145-8.688.101-3.913 1.136-7.915 3.354-11.449a6.993 6.993 0 0 1 9.647-2.217 7 7 0 0 1 2.217 9.648c-.563.902-.932 1.911-1.115 3.127-.18 1.21-.153 2.621.135 4.167.562 3.09 2.217 6.671 4.76 9.83a27.324 27.324 0 0 0 6.055 5.578c2.916 1.955 6.188 3.3 9.65 3.8 1.002.144 2.022.22 3.063.22 2.563 0 5.252-.464 8.116-1.545 2.684-1.02 5.527-2.602 8.499-4.945 3.959-3.122 8.14-7.611 12.318-13.84 3.564-5.311 7.124-11.878 10.546-19.881 1.956-4.574 4.128-8.599 6.485-12.112 4.76-7.097 10.315-12.132 16.276-15.136 4.4-2.228 9.008-3.296 13.444-3.295m0-3c-5.006 0-10.123 1.251-14.799 3.619-6.6 3.326-12.46 8.758-17.412 16.142-2.491 3.713-4.764 7.953-6.753 12.604-3.186 7.451-6.644 13.974-10.278 19.389-3.727 5.554-7.657 9.98-11.685 13.156-2.547 2.009-5.14 3.521-7.706 4.496-2.404.907-4.713 1.35-7.052 1.35-.87 0-1.759-.063-2.641-.189-2.916-.422-5.745-1.54-8.401-3.321a24.456 24.456 0 0 1-5.385-4.962c-2.142-2.66-3.652-5.753-4.15-8.491-.217-1.163-.257-2.262-.118-3.189.117-.779.338-1.411.693-1.981 2.924-4.668 1.503-10.851-3.17-13.777a9.99 9.99 0 0 0-5.302-1.526 9.95 9.95 0 0 0-8.481 4.693c-2.371 3.776-3.689 8.261-3.811 12.964-.085 3.123.339 6.349 1.258 9.584 1.291 4.527 3.467 8.875 6.469 12.928a44.136 44.136 0 0 0 10.852 10.365c4.54 3.047 9.463 5.117 14.633 6.155a38.371 38.371 0 0 0 12.824.384c6.845-.94 13.496-3.697 19.767-8.192 6.461-4.626 12.522-11.12 18.013-19.299 4.327-6.448 8.385-14.075 12.062-22.67 1.498-3.505 3.171-6.642 4.971-9.323 2.097-3.124 4.363-5.639 6.739-7.473 2.812-2.16 5.544-3.28 8.347-3.42.154-.007.322-.011.488-.011 2.079 0 4.012.587 5.745 1.745a10.893 10.893 0 0 1 3.788 4.462c.934 2.014 1.275 4.251 1.015 6.644a9.927 9.927 0 0 0 2.136 7.346 9.933 9.933 0 0 0 6.707 3.688 9.985 9.985 0 0 0 11.037-8.841c.666-5.998-.289-11.974-2.764-17.277a30.904 30.904 0 0 0-10.779-12.631 30.01 30.01 0 0 0-11.747-4.7 29.508 29.508 0 0 0-5.11-.441z" fill="#740806"/><g><path d="M292.102 83.102c-.932-1.713-1.89-3.239-2.998-4.248a6.008 6.008 0 0 0-1.804-1.169c-.668-.271-1.427-.432-2.375-.434-1.046 0-2.323.206-3.88.722-1.555.516-3.384 1.342-5.512 2.552l-20.515 11.659a1.788 1.788 0 0 1-2.084-.227 1.788 1.788 0 0 1-.443-2.049l9.964-22.815.027-.059c1.067-2.223 1.541-4.269 1.54-6.017-.003-1.711-.439-3.13-1.224-4.277-.79-1.146-1.944-2.055-3.559-2.653-1.678-.619-3.311-.931-4.817-.931-1.931.004-3.644.494-5.132 1.521-1.485 1.03-2.786 2.628-3.751 5.022l-11.501 28.494s-15.75 1.631-18.978 9.136c-2.595 6.032-.747 12.96-.747 12.96l-62.637 32.113c-5.812-1.445-12.492-2.051-20.175-1.578 0 0-5.338.103-12.396 2.741-31.84-1.396-67.396 19.88-64.949 39.694.048.388-.03.771-.03 1.141 0 4.319 1.16 8.359 2.95 12.04 1.78 3.67 4.19 6.97 6.63 9.729a57.151 57.151 0 0 0 3.508 3.624s-5.786 7.364-.822 18c4.615 9.891 16.086 8.803 22.684 7.209 2.766 16.039 5.93 34.477 5.93 34.477-33.505 1.782-25.703 27.2-25.663 27.82h55.856l.041-43.838c11.103 1.443 22.956.265 33.382-3.021l23.662 46.858h47.812s5.703-26.038-27.802-27.82l-13.398-50.479c.532-4.735 1.798-19.993-1.668-35.804l47.927-51.467a1.79 1.79 0 0 1 2.103-.378l.001-.001.084.038c.409.184 2.262.924 4.838.921 2.084-.003 4.637-.464 7.432-2.098 5.297-3.102 8.766-5.715 10.169-8.299 3.576-6.585 1.204-11.207 1.65-11.482l24.331-14.951.016-.01c2.654-1.594 4.477-3.242 5.603-4.803 1.128-1.566 1.576-3.013 1.58-4.378-.001-1.069-.282-2.124-.86-3.185z" fill="#fbb807"/><path d="M290.341 90.591c-7.579 3.325-30.589 12.383-30.589 12.383s-4.815-7.238-9.03-6.178c.047.435 4.418 9.181 4.438 9.624.475 10.61-9.37 19.646-19.646 19.646-1.165 0-2.289-.121-3.385-.314-8.163 6.138-16.484 12.016-24.704 18.065-3.077 2.553-6.117 5.152-9.261 7.625-5.025 3.953-10.471 8.607-16.156 11.948 0 0-6.375-8.853-13.147-11.704 0 0 12.854 12.356 10.931 49.188-.659 12.627-4.749 28.036-13.545 36.832-9.196 9.196-25.255 12.832-38.257 12.832-7.821 0-15.615-3.671-22.301-6.955 4.504 8.003 12.678 14.321 12.678 14.321l-13.404 39.397h20.239l.041-43.838c11.103 1.443 22.956.265 33.382-3.021l23.662-2.518 14.02 20.198-10.931 7.781c38.257-5.168 31.842 21.397 31.842 21.397h12.881s5.703-26.038-27.802-27.82l-13.398-50.479c.532-4.735 1.798-19.993-1.668-35.804l47.927-51.467a1.79 1.79 0 0 1 2.103-.378l.001-.001.084.038c.409.184 2.262.924 4.838.921 2.084-.003 4.637-.464 7.432-2.098 5.297-3.102 8.766-5.715 10.169-8.299 3.576-6.585 1.204-11.207 1.65-11.482l24.331-14.951.016-.01c2.654-1.594 4.477-3.242 5.603-4.803.23-.32.425-.633.6-.943-.525.325-1.072.616-1.644.867z" fill="#f28a1c"/><path d="M159.068 168.389c.237-23.525-12.247-27.801-25.786-27.801-16.536 0-33.382 27.325-32.194 66.058.666 21.717 12.119 34.456 31.129 33.98s28.039-13.545 27.326-29.228z" fill="#fffcc8"/><path d="M294.736 81.667c-.928-1.705-2.083-3.639-3.613-5.031a8.91 8.91 0 0 0-2.687-1.727c-1.088-.441-2.231-.654-3.505-.657-1.456 0-3.079.294-4.829.874-1.816.603-3.853 1.542-6.052 2.792l-17.356 9.864 8.5-19.461.004-.01c1.212-2.53 1.826-4.984 1.825-7.293-.004-2.271-.592-4.278-1.748-5.969-1.183-1.716-2.859-2.982-4.991-3.772-2.012-.743-3.981-1.118-5.86-1.118h-.007c-2.564.005-4.862.695-6.828 2.051-2.087 1.448-3.709 3.589-4.831 6.371l-10.845 26.871c-4.707.723-16.4 3.241-19.606 10.695-1.993 4.634-1.751 9.619-1.35 12.497l-59.662 30.587c-4.567-1.036-9.528-1.562-14.765-1.562-1.677 0-3.414.054-5.161.16-.714.022-5.935.269-12.737 2.718a72.826 72.826 0 0 0-2.524-.044h-.005c-21.64 0-45.26 9.622-57.442 23.399-5.673 6.417-8.261 13.215-7.487 19.664l-.013.176a8.233 8.233 0 0 0-.032.661c0 4.423 1.094 8.915 3.252 13.352 1.708 3.521 4.09 7.023 7.08 10.405.63.713 1.292 1.425 1.98 2.129-1.68 3.392-3.771 10.195.234 18.776 3.047 6.529 9.037 9.979 17.322 9.979 1.798 0 3.687-.162 5.642-.483.158.938.321 1.881.496 2.837 1.755 10.191 3.499 20.336 4.361 25.355-10.08 1.078-17.364 4.525-21.679 10.268-4.071 5.418-5.299 12.758-3.457 20.667l.005.023.167 2.592h61.667l.002-2.997.038-40.505c2.159.181 4.355.271 6.564.271a83.704 83.704 0 0 0 22.272-3.039l22.533 44.622.832 1.647h52.072l.517-2.358c.1-.455 2.366-11.267-4.482-20.256-4.854-6.372-12.888-10.084-23.9-11.049l-12.706-47.866c.513-4.876 1.547-18.904-1.287-33.765a35.491 35.491 0 0 0-.131-.942l46.27-49.688c.195.066.438.142.702.219.343.109.558.159.558.159l.005-.004c1.097.285 2.549.56 4.113.56 3.109-.004 6.118-.848 8.957-2.508 6.326-3.704 9.702-6.532 11.291-9.457 2.67-4.915 2.518-9.061 2.204-11.353l22.712-13.957c2.842-1.707 5.025-3.597 6.48-5.613 1.42-1.972 2.142-4.032 2.147-6.125-.002-1.589-.415-3.143-1.226-4.632zm-3.354 9.002c-1.126 1.561-2.948 3.209-5.603 4.803l-.016.01-24.331 14.951c-.446.275 1.926 4.897-1.65 11.482-1.403 2.583-4.872 5.197-10.169 8.299-2.795 1.634-5.348 2.095-7.432 2.098h-.012c-2.229 0-4.278-.718-4.786-.91-4.543-2.016-8.897-6.686-8.897-6.686.988 4.223 3.411 6.737 5.571 8.195l-44.237 47.505c-1.253-5.465-4.151-14.182-10.575-20.186-.541.536 5.132 8.357 8.28 24.397h.003c3.089 15.293 1.884 29.783 1.368 34.375l13.398 50.479c33.505 1.782 27.802 27.82 27.802 27.82h-47.809l-22.584-44.724c7.591-3.227 15.671-9.301 17.469-20.689 0 0-3.342 14.617-25.484 20.37a80.766 80.766 0 0 1-16.884 1.812c-2.42 0-4.834-.113-7.221-.343-20.38-2.619-25.758-15.208-25.758-15.208 4.203 12.051 14.823 16.321 23.415 17.741l-.038 41.041H69.346c-.04-.62-7.842-26.038 25.663-27.82 0 0-2.08-12.12-4.341-25.255l.058-.012a183.87 183.87 0 0 1-.636-3.349l-.689-4.002c-1.444-8.947-2.086-17.083-2.14-24.398-.131-17.559 3.043-30.467 6.227-38.97 1.592-4.25 3.187-7.399 4.374-9.473a37.358 37.358 0 0 1 1.424-2.308c.169-.252.3-.437.386-.556l.095-.129.021-.027.002-.003c0 .001-5.505 2.229-8.655 10.255-3.454 8.8-7.017 22.471-6.874 41.232.052 6.989.623 14.688 1.897 23.097-1.617.266-3.36.458-5.158.458-5.611 0-11.579-1.768-14.603-8.248-4.964-10.636.822-18 .822-18a57.429 57.429 0 0 1-3.508-3.624c-2.44-2.76-4.85-6.06-6.63-9.73-1.79-3.68-2.95-7.72-2.95-12.039 0-.37.078-.753.03-1.141-2.371-19.195 30.917-39.762 61.949-39.76 1.001 0 2.005.021 3 .065 7.058-2.639 12.396-2.741 12.396-2.741 1.726-.106 3.4-.158 5.027-.158 5.613 0 10.642.616 15.148 1.736l60.289-30.909c.147.122.318.218.511.278.029.009 2.984.927 7.181 1.848 4.2.919 9.629 1.847 14.677 1.85 3.336-.006 6.515-.393 9.136-1.585 1.307-.598 2.479-1.415 3.388-2.51.91-1.092 1.529-2.458 1.764-4.017.146-.956.216-1.853.216-2.696.003-2.396-.578-4.371-1.55-5.906a9.244 9.244 0 0 0-2.648-2.717c-1.491-1.01-3.111-1.544-4.541-1.841a17.47 17.47 0 0 0-3.463-.352c-.504 0-.812.024-.846.027a1.5 1.5 0 0 0 .242 2.99c.028-.002.248-.017.604-.017 1.126-.008 3.602.175 5.593 1.24 1 .53 1.877 1.25 2.522 2.271.642 1.023 1.084 2.376 1.087 4.305 0 .677-.056 1.422-.182 2.243-.167 1.069-.545 1.871-1.108 2.554-.839 1.017-2.18 1.786-3.959 2.289-1.771.503-3.939.723-6.256.721-4.683.002-9.961-.885-14.034-1.78a103.069 103.069 0 0 1-6.234-1.575c-.398-2.231-.951-7.26.995-11.785 3.228-7.505 18.978-9.136 18.978-9.136l11.501-28.494c.965-2.395 2.266-3.992 3.751-5.022 1.488-1.026 3.201-1.517 5.132-1.521 1.507 0 3.14.312 4.817.931 1.614.599 2.769 1.508 3.559 2.653.784 1.147 1.221 2.566 1.224 4.277.001 1.748-.473 3.794-1.54 6.017l-.027.059-9.964 22.815a1.788 1.788 0 0 0 .443 2.049 1.79 1.79 0 0 0 2.084.227l20.515-11.659c2.128-1.21 3.957-2.036 5.512-2.552 1.557-.516 2.834-.722 3.88-.722.948.002 1.707.163 2.375.434.666.272 1.249.66 1.804 1.169 1.108 1.009 2.066 2.535 2.998 4.248.578 1.061.858 2.115.86 3.188-.008 1.368-.457 2.814-1.585 4.381z" fill="#740806"/></g><g><path d="M203.313 106.525c-1.172 3.289-3.545 3.85-5.953 2.329.559 3.763.296 7.405-1.741 9.91-1.652 2.033-3.429 2.393-4.959 1.505-13.124 19.436-59.493 29.539-59.493 29.539s-41.745-13.37-53.489-29.978c-1.689 1.646-3.845 1.622-5.835-.804-2.047-2.496-2.325-6.138-1.783-9.902-2.4 1.531-4.776.979-5.963-2.305-1.557-4.305 7.37-26.04 14.407-42-25.107-25.979-5.538-51.405-5.538-51.405l34.329 20.188c12.94-5.569 31.289-8.921 53.283-.408l33.744-20.036s19.606 25.251-5.184 51.287c6.893 17.059 15.28 38.985 14.175 42.08z" fill="#fbb807"/><path d="M199.748 96.96c-2.756-8.598-7.673-21.242-12.001-31.952l-.362-.896.667-.7c6.9-7.253 10.202-14.338 11.479-20.788 1.275-6.45.513-12.298-.873-17.022a40.923 40.923 0 0 0-3.566-8.46c-.462-.82-.874-1.48-1.203-1.981l-33.172 19.697-.681-.263c-6.527-2.524-12.71-3.981-18.513-4.639l.068.029c-5.784 5.981-7.697 19.302-7.697 19.302l17.46-15.286a954.9 954.9 0 0 0 7.375 2.937s17.42 12.454 23.325 49.44c9.366 2.554 14.701 6.703 17.694 10.582z" fill="#f28a1c"/><path d="M64.098 106.821c1.187 3.285 3.563 3.836 5.963 2.305-.542 3.764-.264 7.405 1.783 9.902 1.99 2.426 4.146 2.45 5.835.804 22.296 27.37 53.489 29.978 53.489 29.978s43.652-5.44 59.493-29.539c1.53.888 3.308.528 4.959-1.505 2.037-2.505 2.301-6.147 1.741-9.91 2.408 1.52 4.781.959 5.953-2.329a.949.949 0 0 0 .04-.182c.305-2.014-1.477-14.557-21.299-19.968-9.215-2.515-22.322-3.49-40.936-1.145 0 0-.874-24.197-11.447-24.173-10.575.022-11.83 24.262-11.83 24.262-40.287-4.549-56.261 14.538-53.744 21.5z" fill="#fffcc8"/><path d="M203.312 106.524c-1.172 3.289-3.545 3.85-5.953 2.329.559 3.763.296 7.405-1.741 9.91-1.652 2.033-3.429 2.393-4.959 1.505-15.84 24.099-59.493 29.539-59.493 29.539s-30.185-2.542-52.392-28.685c27.783 21.609 52.739 24.051 52.739 24.051s32.962-3.991 50.729-30.048c0 0 11.406.154 2.818-15.333 0 0 7.425 2.938 6.409-3.578-.723-4.631-6.682-9.011-6.682-9.011 17.915 5.985 18.957 18.112 18.525 19.321z" fill="#e5ba97"/><g fill="#740806"><path d="M142.7 52.604c2.659-4.947 7.618-11.398 15.038-10.222 8.094 1.281 11.877 9.226 13.541 14.696.282.927-.766 1.566-1.316.802a24.591 24.591 0 0 0-3.995-4.331c-6.933-5.898-16.051-5.075-22.114.249-.675.592-1.596-.369-1.154-1.194zM94.941 55.615c1.843-4.681 5.62-11.342 12.249-11.665 6.079-.296 9.475 5.919 11.158 10.571.281.776-.548 1.534-1.037.942-4.388-5.329-11.649-6.974-17.772-2.444a20.67 20.67 0 0 0-3.614 3.438c-.511.623-1.297-.049-.984-.842zM154.025 112.567c1.418-.753 2.684-1.58 3.762-2.491 1.028-.87 1.888-1.827 2.506-2.906.626-1.079 1.001-2.299.998-3.567a6.915 6.915 0 0 0-.413-2.283c4.171-.111 8.201-1.162 7.422-2.41-3.833.245-7.012.018-9.462-.346a1.88 1.88 0 0 0-.531-.083c-1.75-.286-3.096-.633-3.981-.905-1.155-.354-2.041 1.069-1.189 1.925.693.697 1.948 1.262 3.482 1.548.047.11.103.217.173.318.599.891.798 1.611.806 2.246-.006.554-1.282 2.816-1.915 3.397-1.119 1.017-2.736 2.032-4.711 2.952-2.958 1.38-6.658 2.878-10.768 3.379-8.932 1.089-8.91-3.37-8.91-3.37s-1.526-8.478-2.276-8.418c-.764.062-1.692 8.357-1.692 8.357s-.955 4.797-9.775 4.144c-3.394-.252-6.397-1.502-8.883-2.647-2.275-1.035-4.075-2.27-5.235-3.523-.58-.627-1.006-1.254-1.279-1.857a4.388 4.388 0 0 1-.404-1.804c.004-.738.194-1.533.691-2.446l.05-.134.086-.01c1.535-.231 2.797-.775 3.467-1.453.751-.761-.039-2.018-1.059-1.7-1.91.594-6.181 1.603-12.363 1.233-.637 1.031 2.416 1.894 5.822 2.075a8.163 8.163 0 0 0-.39 2.442 8.026 8.026 0 0 0 .734 3.312c.816 1.808 2.223 3.356 3.988 4.683 1.831 1.375 4.081 2.527 6.626 3.47l3.721 1.136 1.367 11.741-3.324 1.621s5.075 7.375 22.649 7.338 21.145-10.767 21.145-10.767z"/><path d="M167.816 85.649c-1.488 3.737-3.868 6.762-6.79 8.58 4.032-3.309 6.632-9.276 6.417-16.022-.321-10.113-6.817-18.116-14.513-17.872-7.693.244-13.669 8.64-13.351 18.756.02.625.064 1.24.13 1.848a25.934 25.934 0 0 1-.487-4.25c-.346-10.988 6.146-20.111 14.505-20.376 8.361-.269 15.419 8.427 15.767 19.416.113 3.587-.507 6.973-1.678 9.92z"/></g><path d="M161.025 94.229c-2.012 1.65-4.373 2.65-6.932 2.732-3.419.106-6.598-1.42-9.109-4.03-2.79-2.901-4.749-7.14-5.277-11.993a24.344 24.344 0 0 1-.13-1.848c-.318-10.116 5.658-18.512 13.351-18.756 7.696-.246 14.193 7.758 14.513 17.872.216 6.747-2.384 12.714-6.416 16.023z" fill="#fff"/><path d="M158.03 90.805c-1.308 1.18-2.842 1.895-4.506 1.954-2.222.075-4.289-1.017-5.921-2.886-1.813-2.076-3.087-5.11-3.431-8.584a19.64 19.64 0 0 1-.085-1.323c-.209-7.239 3.674-13.248 8.675-13.422 5.002-.174 9.226 5.554 9.435 12.793.142 4.83-1.547 9.1-4.167 11.468z" fill="#bccf00"/><path d="M156.316 86.893c-.848.768-1.845 1.232-2.925 1.27-1.443.048-2.785-.66-3.844-1.874-1.177-1.348-2.005-3.319-2.227-5.574a12.64 12.64 0 0 1-.056-.859c-.135-4.699 2.387-8.602 5.633-8.713 3.247-.114 5.99 3.606 6.126 8.306.09 3.134-1.006 5.906-2.707 7.444z" fill="#740806"/><path d="m156.995 67.921.026.002a4.102 4.102 0 0 1 3.981 5.533 4.105 4.105 0 0 1-2.624 2.468 4.12 4.12 0 0 1-1.06.2 4.103 4.103 0 0 1-4.261-3.939c-.015-.37.036-.723.114-1.067a4.096 4.096 0 0 1 3.824-3.197zM120.185 78.341a26.722 26.722 0 0 0-.118-1.594c-.936-9.575-6.751-16.898-13.487-16.633-7.103.28-12.535 8.896-12.127 19.241.326 8.24 4.259 15.077 9.435 17.384 1.323.589 2.723.898 4.17.842a8.727 8.727 0 0 0 1.308-.148c6.452-1.212 11.202-9.39 10.819-19.092z" fill="#fff"/><path d="M103.891 96.739c-2.368-.704-4.534-2.28-6.334-4.493-2.899-3.564-4.845-8.758-5.076-14.624-.436-11.091 5.383-20.328 13.003-20.629 7.616-.299 14.146 8.45 14.584 19.541l.001.212c-.936-9.575-6.751-16.898-13.487-16.633-7.103.28-12.535 8.896-12.127 19.241.325 8.241 4.257 15.078 9.436 17.385z" fill="#740806"/><path d="M114.242 91.677c-1.368 1.236-2.974 1.986-4.716 2.046-2.327.08-4.49-1.065-6.197-3.02-1.898-2.173-3.233-5.35-3.591-8.985a20.256 20.256 0 0 1-.089-1.385c-.218-7.577 3.847-13.867 9.08-14.047 5.235-.183 9.656 5.813 9.876 13.389.145 5.054-1.622 9.524-4.363 12.002z" fill="#bccf00"/><path d="M112.449 87.584c-.889.802-1.931 1.288-3.062 1.328-1.511.052-2.916-.692-4.024-1.961-1.232-1.411-2.098-3.474-2.333-5.834a13.175 13.175 0 0 1-.058-.899c-.141-4.919 2.498-9.003 5.897-9.121 3.399-.119 6.269 3.774 6.411 8.693.095 3.281-1.052 6.184-2.831 7.794z" fill="#740806"/><path d="m113.159 67.729.027.002a4.295 4.295 0 0 1 4.166 5.792 4.29 4.29 0 0 1-2.746 2.582 4.237 4.237 0 0 1-1.109.209 4.296 4.296 0 0 1-4.461-4.123 4.261 4.261 0 0 1 .12-1.118c.419-1.849 2.019-3.268 4.003-3.344z" fill="#fff"/><path d="M93.898 97.815c-5.248.01-9.504-1.425-9.508-3.206-.003-1.782 4.246-3.236 9.494-3.247 5.245-.011 9.502 1.424 9.506 3.206s-4.247 3.236-9.492 3.247zM169.105 97.656c-5.247.01-9.503-1.425-9.507-3.207s4.246-3.235 9.493-3.246c5.247-.01 9.503 1.425 9.507 3.207.003 1.781-4.247 3.235-9.493 3.246zM129.009 103.11c-7.506.016-30.186-12.753-.027-12.816 30.159-.064 7.533 12.8.027 12.816z" fill="#e93e8f"/><path d="M126.09 94.807c.002 1.007-1.729 1.828-3.866 1.832s-3.871-.808-3.873-1.817c-.002-.361.223-.698.608-.982.687-.508 1.887-.848 3.257-.85 1.062-.002 2.025.198 2.725.523.708.33 1.147.787 1.149 1.294z" fill="#fff"/><path d="M144.816 124.888c-11.667-1.585-22.737 5.917-22.737 5.917 9.422 8.199 21.446 2.364 25.166-1.142.001 0 3.394-3.984-2.429-4.775z" fill="#e93e8f"/><path d="M194.165 22.069 171.857 40.72c8.749 7.823 14.3 19.93 14.3 19.93 18.677-16.791 8.008-38.581 8.008-38.581zM89.624 46.423c-4.268 5.974-7.745 14.448-7.745 14.448-16.042-14.3-10.347-32.072-8.658-37.194z" fill="#fffcc8"/><path d="m121.822 28.638-8.252 2.275c-1.081 8.26 9.365 18.129 9.365 18.129s-2.171-14.432-1.113-20.404z" fill="#f28a1c"/><path d="M65.458 106.062c.017.11.036.193.046.228l.007.019c.4 1.105.897 1.662 1.301 1.905.207.125.401.189.627.213.225.022.487.002.798-.089a4.06 4.06 0 0 0 1.018-.481l2.757-1.759-.466 3.237c-.337 2.32-.318 4.526.204 6.285.278.942.687 1.758 1.255 2.452.577.704 1.109 1.084 1.526 1.256.422.168.724.173 1.073.077.303-.088.655-.287 1.029-.652l1.325-1.291.989 1.563c3.386 5.351 8.34 9.893 13.901 13.67 8.338 5.668 18.017 9.599 25.595 12.09a134.127 134.127 0 0 0 9.364 2.712c1.155.288 2.072.498 2.698.636.312.069.55.119.711.152 1.394-.196 9.195-1.363 18.833-4.194 7.005-2.055 14.969-4.989 22.109-9.03 7.146-4.039 13.438-9.181 17.212-15.559l.759-1.278 1.285.746c.241.139.458.211.663.24.206.028.408.016.644-.053.448-.128 1.057-.505 1.734-1.34.811-.997 1.302-2.257 1.525-3.757.223-1.494.163-3.208-.103-4.986l-.481-3.236 2.765 1.747c.453.287.867.453 1.213.526.348.072.622.057.867-.014.267-.081.526-.229.816-.548.285-.315.585-.806.838-1.513a2.897 2.897 0 0 0 0-.645c-.042-.541-.176-1.333-.395-2.293a57.96 57.96 0 0 0-.895-3.367 117.08 117.08 0 0 0-.857-2.773c-2.993-3.878-8.329-8.026-17.694-10.583-5.906-36.986-23.325-49.44-23.325-49.44s-3.243-1.272-7.375-2.937l-17.46 15.286s1.912-13.32 7.697-19.302l-.068-.029a65.185 65.185 0 0 0-25.877 2.226 68.312 68.312 0 0 0-7.759 2.801l-.699.301-33.781-19.867c-.96 1.479-2.666 4.4-4.04 8.324-1.995 5.693-3.297 13.445-.763 22.079 1.668 5.676 4.994 11.766 10.978 17.961l.701.725-.407.923c-3.311 7.508-7.04 16.297-9.882 23.908-1.421 3.804-2.62 7.316-3.432 10.204-.406 1.443-.714 2.73-.906 3.804-.193 1.071-.262 1.938-.225 2.471v.007l.001.009c.006.097.013.171.022.223l.002.01z" fill="none"/><path d="m62.624 107.138.059.185.002.007c.418 1.153.989 2.107 1.747 2.823.752.717 1.711 1.165 2.698 1.261a4.79 4.79 0 0 0 1.214-.048c-.078 1.756.053 3.482.526 5.103.37 1.264.957 2.463 1.814 3.508.806.983 1.699 1.709 2.694 2.124a4.56 4.56 0 0 0 3.07.186c.297-.088.578-.212.851-.353 3.623 5.23 8.51 9.606 13.863 13.244 5.797 3.938 12.13 7.027 18.004 9.407 11.745 4.758 21.657 6.682 21.717 6.694l.239.047.241-.031c.052-.008 8.628-1.124 19.533-4.324 7.154-2.101 15.313-5.096 22.741-9.298 7.042-3.988 13.427-9.082 17.626-15.59.136.032.267.08.406.1a4.518 4.518 0 0 0 1.898-.146c1.205-.356 2.275-1.168 3.217-2.326 1.227-1.508 1.886-3.322 2.164-5.21.164-1.107.19-2.25.134-3.403a4.666 4.666 0 0 0 2.006-.121c.833-.243 1.594-.741 2.2-1.419.61-.679 1.082-1.528 1.439-2.528.19-.558.196-1.035.179-1.573a13.386 13.386 0 0 0-.221-1.779c-.24-1.316-.651-2.925-1.199-4.791-2.494-8.49-7.849-22.333-12.599-34.122 6.804-7.372 10.251-14.762 11.59-21.561 1.386-7.019.553-13.373-.938-18.449-2.246-7.637-5.959-12.421-6.03-12.517l-.812-1.046-34.273 20.35c-17.847-6.737-33.423-5.83-45.622-2.242a70.953 70.953 0 0 0-7.389 2.63L72.584 11.449l-.808 1.049c-.063.084-2.94 3.829-5.139 9.957-2.196 6.119-3.711 14.67-.912 24.206 1.738 5.928 5.153 12.207 11.006 18.463-4.272 9.725-9.137 21.357-11.953 29.989-.968 2.972-1.696 5.585-2.075 7.701-.214 1.207-.321 2.246-.266 3.176h-.001c.001.003.002.006.001.008v.008h.001c.009.16.023.335.055.528a4.9 4.9 0 0 0 .131.604zm2.878-.844a1.946 1.946 0 0 1-.046-.228l-.001-.002-.002-.01a2.244 2.244 0 0 1-.022-.223l-.001-.009v-.007c-.037-.532.032-1.401.225-2.471.192-1.075.5-2.361.906-3.804.812-2.887 2.011-6.399 3.432-10.204 2.842-7.612 6.571-16.4 9.882-23.908l.407-.923-.701-.725c-5.984-6.195-9.31-12.285-10.978-17.961-2.533-8.633-1.231-16.385.763-22.079 1.374-3.924 3.08-6.845 4.04-8.324l33.783 19.867.699-.301a68.382 68.382 0 0 1 7.759-2.801 65.2 65.2 0 0 1 25.877-2.226c5.803.658 11.986 2.116 18.513 4.639l.681.263L193.89 15.16c.33.501.741 1.162 1.203 1.981a40.923 40.923 0 0 1 3.566 8.46c1.386 4.724 2.147 10.572.873 17.022-1.278 6.45-4.579 13.535-11.479 20.788l-.667.7.362.896c4.329 10.71 9.245 23.355 12.001 31.952.312.975.604 1.911.857 2.773a57.96 57.96 0 0 1 .895 3.367c.219.96.353 1.752.395 2.293.031.351.012.599 0 .645-.253.706-.553 1.198-.838 1.513-.29.319-.55.468-.816.548a1.747 1.747 0 0 1-.867.014c-.346-.072-.76-.24-1.213-.526l-2.765-1.747.481 3.236c.265 1.777.324 3.491.103 4.986-.223 1.499-.714 2.759-1.525 3.757-.678.834-1.286 1.21-1.734 1.34-.236.068-.438.08-.644.053a1.794 1.794 0 0 1-.663-.24l-1.285-.746-.759 1.278c-3.774 6.378-10.067 11.521-17.212 15.559-7.14 4.04-15.104 6.975-22.109 9.03-9.638 2.829-17.439 3.998-18.833 4.194-.161-.033-.4-.084-.711-.152-.625-.138-1.542-.348-2.698-.636a133.889 133.889 0 0 1-9.364-2.712c-7.578-2.492-17.257-6.422-25.595-12.09-5.561-3.777-10.515-8.319-13.901-13.67l-.989-1.563-1.325 1.291c-.375.364-.726.563-1.029.652-.349.096-.651.091-1.073-.077-.416-.172-.949-.552-1.526-1.256-.568-.694-.978-1.51-1.255-2.452-.522-1.759-.541-3.965-.204-6.285l.466-3.237-2.757 1.759a4.06 4.06 0 0 1-1.018.481c-.311.091-.572.113-.798.089s-.421-.088-.627-.213c-.404-.243-.901-.8-1.301-1.905z" fill="#740806"/><path d="M62.494 106.54v-.006l-.002-.005z" fill="#740806"/><path d="M114.965 29.611c-1.85-1.699-3.003-4.521-1.975-6.991 2.95-7.084 21.754 5.879 22.357 6.237 1.093 5.227-9.338 11.178-14.858 10.687-4.307-.383-3.742-4.332-2.682-5.477 1.184-1.281 3.338-1.38 3.338-1.38s-3.666-.769-6.18-3.076z" fill="#fbb807"/><path d="M121.185 42.316c-.32 0-.635-.013-.936-.039-2.689-.239-4.709-1.611-5.539-3.764-.735-1.903-.389-3.945.41-5.369a13.528 13.528 0 0 1-2.007-1.512c-2.466-2.261-4.243-6.251-2.654-10.066.59-1.417 2.187-3.795 6.249-3.803 5.577-.011 13.868 4.672 19.842 8.602l.201.134 1.037.617.246 1.18c.222 1.061-2.576 1.293-2.576 1.293-.476-.282-12.323-9.095-18.746-9.082-1.741.004-3.092.602-3.722 2.113-1.027 2.47.125 5.293 1.975 6.991 2.512 2.307 6.18 3.076 6.18 3.076s-2.153.099-3.338 1.38c-1.059 1.146-1.625 5.094 2.682 5.477.22.02.449.03.685.029 2.86-.006 6.72-1.465 9.704-3.554.423.847-5.98 6.291-9.693 6.297z" fill="#740806"/></g></svg>