<svg id="Capa_1" enable-background="new 0 0 512 512" viewBox="0 0 512 512" xmlns="http://www.w3.org/2000/svg"><g><g><path d="m311.611 157.132.92-1.067c5.796-6.728 14.196-10.586 23.047-10.586.991 0 1.969.051 2.936.144.438-2.088.681-4.247.681-6.465 0-17.354-14.068-31.422-31.422-31.422-7.767 0-14.868 2.828-20.351 7.498z" fill="#8379c1"/><path d="m317.539 167.008c2.651 4.591 2.651 10.072 0 14.663-2.65 4.591-7.397 7.333-12.698 7.333-.445 0-.805.361-.805.805 0 .445.36.805.805.805h58.502c2.331-4.39 3.657-9.396 3.657-14.713 0-17.354-14.068-31.422-31.422-31.422-9.828 0-18.599 4.514-24.36 11.579z" fill="#6e61b6"/><path d="m362.562 159.802c-2.578 4.61-7.463 7.925-13.499 7.925h-31.139c2.254 4.436 2.129 9.59-.385 13.943-2.65 4.591-7.397 7.333-12.698 7.333-.445 0-.805.361-.805.805 0 .445.36.805.805.805h58.502c2.331-4.39 3.657-9.396 3.657-14.713 0-5.884-1.622-11.389-4.438-16.098z" fill="#6354b1"/><path d="m441.434 244.547v.805c0 10.218-8.313 18.531-18.531 18.531-.163 0-.327-.002-.491-.006-9.948-.256-18.041-8.762-18.041-18.96v-8.643c0-9.324-7.586-16.91-16.91-16.91h-116.682c-9.324 0-16.91 7.586-16.91 16.91v25.469c0 10.219-8.314 18.532-18.532 18.532s-18.532-8.313-18.532-18.532v-25.469c0-9.324-7.586-16.91-16.91-16.91h-10.331c-9.324 0-16.91 7.586-16.91 16.91v9.079c0 10.218-8.313 18.531-18.531 18.531-.163 0-.327-.002-.491-.006-9.948-.256-18.041-8.762-18.041-18.96v-8.643c0-9.324-7.586-16.91-16.91-16.91h-20.061v112.483c0 9.581 7.767 17.348 17.348 17.348h323.37l3.108-1.084v-103.565z" fill="#fff3de"/><path d="m441.434 244.547v.805c0 10.218-8.313 18.531-18.531 18.531-.163 0-.327-.002-.491-.006-4.888-.126-9.326-2.247-12.578-5.578v49.317c0 11.118-9.013 20.131-20.131 20.131h-291.083v4.1c0 9.581 7.767 17.348 17.348 17.348h323.37l3.108-1.084v-103.564z" fill="#ffe5c2"/><path d="m155.749 101.806 45.561 26.305 14.178-3.799c.248-.066.459-.229.587-.451l.666-1.153c.128-.222.163-.486.097-.734l-4.191-15.641c-3.285-5.705-8.064-10.651-14.176-14.18-14.093-8.137-31.168-6.406-43.245 3.039-2.224 1.739-1.922 5.203.523 6.614z" fill="#80d261"/><path d="m216.259 123.545 20.647-35.762c-.206-2.081-.577-4.172-1.136-6.257-4.212-15.719-17.509-26.569-32.728-28.43-2.803-.343-5.039 2.32-4.308 5.047z" fill="#68ca44"/><path d="m216.559 123.025-65.402 17.525c-2.727.731-3.915 3.999-2.217 6.254 9.221 12.249 25.266 18.34 40.985 14.128 2.086-.559 4.083-1.283 5.987-2.145z" fill="#68ca44"/><path d="m218.848 189.809 1.782.805h81.741l2.467-.805c11.908 0 19.351-12.891 13.397-23.204l-42.995-74.47c-9.325-16.152-32.639-16.152-41.964 0l-35.41 61.332c-9.325 16.152 2.332 36.342 20.982 36.342z" fill="#fb2b3a"/><path d="m218.848 189.809 1.782.805h81.741l2.467-.805c11.908 0 19.351-12.891 13.397-23.204l-42.995-74.47c-9.325-16.152-32.639-16.152-41.964 0l-35.41 61.332c-9.325 16.152 2.332 36.342 20.982 36.342z" fill="#fb2b3a"/><path d="m194.691 167.728c1.084 11.776 10.833 22.082 24.158 22.082h85.991c11.48 0 18.805-11.98 13.983-22.082z" fill="#e41f2d"/><path d="m430.368 189.809h-331.54v30.359h20.061c8.895 0 16.105 7.21 16.105 16.105v8.643c0 10.555 8.275 19.493 18.826 19.765 10.913.281 19.847-8.481 19.847-19.33v-9.079c0-8.895 7.21-16.105 16.105-16.105h10.331c8.895 0 16.105 7.21 16.105 16.105v25.469c0 10.679 8.657 19.337 19.337 19.337 10.679 0 19.337-8.657 19.337-19.337v-25.469c0-8.895 7.21-16.105 16.105-16.105h116.682c8.895 0 16.105 7.21 16.105 16.105v8.643c0 10.555 8.275 19.493 18.826 19.765 10.913.281 19.847-8.481 19.847-19.33v-43.464c0-6.669-5.408-12.077-12.079-12.077z" fill="#fb2b3a"/><path d="m430.368 189.809h-20.326v69.652c3.31 3.122 7.69 5.095 12.558 5.22 10.913.281 19.847-8.481 19.847-19.33v-43.464c0-6.67-5.408-12.078-12.079-12.078z" fill="#e41f2d"/><path d="m116.176 348.111c-8.982 0-16.264-7.282-16.264-16.264v-142.705c0-16.43-13.319-29.749-29.749-29.749h-.047c-14.77 0-27.255 11.58-27.66 26.345-.368 13.422 9.024 24.719 21.596 27.31 3.203.66 5.5 3.481 5.5 6.752v115.3c0 23.953 19.418 43.37 43.37 43.37h329.523v-30.359z" fill="#ffe5c2"/><path d="m116.176 348.111c-8.982 0-16.264-7.282-16.264-16.264v-4.1h-30.359v7.353c0 23.953 19.417 43.37 43.37 43.37h329.523v-30.359z" fill="#fed2a4"/><g><path d="m72 415.505 21.758 32.375c4.644 6.91 12.424 11.055 20.749 11.055h282.985c8.326 0 16.105-4.145 20.749-11.055l21.759-32.375z" fill="#dff6fd"/><path d="m390 415.505-29.188 43.43h36.681c8.326 0 16.105-4.145 20.749-11.055l21.758-32.375z" fill="#c8effe"/><path d="m494.5 416.505h-477c-5.523 0-10-4.477-10-10v-18.035c0-5.523 4.477-10 10-10h477c5.523 0 10 4.477 10 10v18.036c0 5.522-4.477 9.999-10 9.999z" fill="#c8effe"/><path d="m494.5 378.47h-30.5v7.965c0 5.523-4.477 10-10 10h-446.5v10.07c0 5.523 4.477 10 10 10h477c5.523 0 10-4.477 10-10v-18.035c0-5.523-4.477-10-10-10z" fill="#99e6fc"/></g></g><g><path d="m221.693 166.803 1.839 1.062c1.182.682 2.471 1.006 3.743 1.006 2.592 0 5.113-1.346 6.502-3.752 2.071-3.587.842-8.174-2.745-10.245l-1.839-1.062c-3.589-2.07-8.175-.842-10.245 2.746-2.071 3.588-.842 8.174 2.745 10.245z"/><path d="m235.466 142.948 1.839 1.062c1.182.682 2.471 1.006 3.743 1.006 2.592 0 5.113-1.346 6.502-3.752 2.071-3.587.842-8.174-2.745-10.245l-1.839-1.062c-3.589-2.071-8.175-.842-10.245 2.746-2.072 3.587-.842 8.174 2.745 10.245z"/><path d="m249.239 119.092 1.839 1.062c1.182.682 2.471 1.006 3.743 1.006 2.592 0 5.113-1.346 6.502-3.752 2.071-3.587.842-8.174-2.745-10.245l-1.839-1.062c-3.59-2.07-8.175-.842-10.245 2.746-2.071 3.588-.842 8.175 2.745 10.245z"/><path d="m254.332 161.084c-2.071 3.587-.842 8.174 2.745 10.245l1.839 1.062c1.182.682 2.471 1.006 3.743 1.006 2.592 0 5.113-1.346 6.502-3.752 2.071-3.587.842-8.174-2.745-10.245l-1.839-1.062c-3.59-2.071-8.175-.842-10.245 2.746z"/><path d="m270.85 147.472 1.838 1.062c1.182.682 2.471 1.007 3.744 1.007 2.591 0 5.112-1.345 6.501-3.75 2.072-3.587.844-8.174-2.743-10.246l-1.838-1.062c-3.586-2.07-8.174-.844-10.245 2.744-2.073 3.587-.844 8.173 2.743 10.245z"/><path d="m494.5 370.97h-44.553v-169.082c0-10.796-8.783-19.579-19.579-19.579h-56.401c.35-2.102.533-4.24.533-6.408 0-17.604-11.751-32.508-27.819-37.3-.3-21.205-17.632-38.365-38.908-38.365-5.878 0-11.682 1.362-16.939 3.906l-9.098-15.758c-5.735-9.934-16.008-15.864-27.479-15.863-4.479 0-8.77.916-12.685 2.61-6.043-15.991-20.362-27.369-37.62-29.48-3.771-.465-7.519.983-10.021 3.863-2.524 2.906-3.438 6.858-2.441 10.57l6.242 23.296c-15.509-6.862-33.525-4.735-47.125 5.902-2.994 2.341-4.622 6.01-4.355 9.815.269 3.84 2.417 7.28 5.747 9.204l28.697 16.568-31.48 8.435c-3.714.995-6.68 3.762-7.935 7.402-1.242 3.606-.619 7.572 1.666 10.607 8.907 11.831 22.566 18.459 36.846 18.458 2.486 0 4.991-.226 7.494-.636.489 4.243 1.841 8.423 4.084 12.307.171.296.359.577.538.866h-85.135c-3.219-17.286-18.41-30.416-36.656-30.416-18.877 0-34.648 15.09-35.157 33.639-.457 16.645 10.909 31.182 27.093 34.757v42.183c0 4.142 3.357 7.5 7.5 7.5s7.5-3.358 7.5-7.5v-42.672c0-6.797-4.831-12.727-11.486-14.098-9.308-1.918-15.874-10.229-15.612-19.759.288-10.504 9.334-19.05 20.21-19.05 12.268 0 22.248 9.98 22.248 22.249v142.705c0 13.104 10.66 23.764 23.764 23.764h318.771v15.359h-322.025c-19.779 0-35.871-16.091-35.871-35.87v-44.444c0-4.142-3.357-7.5-7.5-7.5s-7.5 3.358-7.5 7.5v44.445c0 13.983 5.673 26.665 14.837 35.87h-59.39c-9.649 0-17.5 7.851-17.5 17.5v18.036c0 9.649 7.851 17.5 17.5 17.5h51.177l18.857 28.058c6.048 8.999 16.132 14.371 26.975 14.371h202.491c4.143 0 7.5-3.358 7.5-7.5s-3.357-7.5-7.5-7.5h-202.492c-5.839 0-11.269-2.893-14.525-7.738l-13.233-19.691h338.501l-13.234 19.691c-3.257 4.845-8.686 7.738-14.524 7.738h-45.493c-4.143 0-7.5 3.358-7.5 7.5s3.357 7.5 7.5 7.5h45.492c10.843 0 20.927-5.373 26.974-14.371l18.858-28.058h51.176c9.649 0 17.5-7.851 17.5-17.5v-18.036c0-9.65-7.851-17.5-17.5-17.5zm-135-195.069c0 2.19-.301 4.332-.883 6.408h-32.237c2.386-6.365 1.845-13.402-1.649-19.454l-3.507-6.075c4.109-3.091 9.132-4.801 14.354-4.801 13.191.001 23.922 10.732 23.922 23.922zm-51.727-60.665c12.527 0 22.828 9.68 23.834 21.952-6.453.662-12.601 2.926-17.915 6.548l-15.334-26.561c2.945-1.27 6.121-1.939 9.415-1.939zm-68.002-19.351c3.023-5.237 8.439-8.364 14.486-8.364 6.048 0 11.464 3.126 14.488 8.364l42.995 74.47c2.076 3.597.691 6.771 0 7.969s-2.748 3.984-6.898 3.985h-85.996c-6.048 0-11.463-3.128-14.486-8.365-3.022-5.237-3.022-11.49.001-16.727zm-11.246-12.419c.148.554.266 1.13.384 1.704-.762 1.021-1.478 2.088-2.128 3.215l-8.318 14.408-11.023-41.138c10.235 3.089 18.245 11.213 21.085 21.811zm-64.136 14.668c9.421-5.052 20.83-4.973 30.333.514 3.665 2.115 6.791 4.903 9.321 8.281l2.921 10.901-5.778 1.548zm26.982 51.583c-.65 1.126-1.217 2.28-1.72 3.45-.557.184-1.114.37-1.668.519-10.602 2.842-21.64-.036-29.432-7.354l41.138-11.023zm-75.195 190.893c-4.832 0-8.764-3.931-8.764-8.764v-104.177h11.478c4.744 0 8.604 3.86 8.604 8.605v8.644c0 14.661 11.724 26.891 26.133 27.263 7.314.196 14.207-2.514 19.434-7.607 5.229-5.095 8.107-11.921 8.107-19.22v-9.079c0-4.745 3.86-8.605 8.604-8.605h10.331c4.744 0 8.604 3.86 8.604 8.605v25.469c0 14.798 12.039 26.836 26.837 26.836s26.837-12.039 26.837-26.836v-25.469c0-4.745 3.86-8.605 8.604-8.605h77.856c4.143 0 7.5-3.358 7.5-7.5s-3.357-7.5-7.5-7.5h-77.856c-13.016 0-23.604 10.589-23.604 23.605v25.469c0 6.526-5.31 11.836-11.837 11.836s-11.837-5.31-11.837-11.836v-25.469c0-13.016-10.589-23.605-23.604-23.605h-10.331c-13.016 0-23.604 10.589-23.604 23.605v9.079c0 3.219-1.271 6.23-3.576 8.478-2.306 2.247-5.345 3.438-8.578 3.355-6.352-.164-11.52-5.667-11.52-12.268v-8.644c0-13.016-10.589-23.605-23.604-23.605h-11.478v-15.359h322.956c2.524 0 4.579 2.054 4.579 4.579v43.464c0 3.219-1.271 6.23-3.576 8.478-2.305 2.247-5.33 3.438-8.578 3.355-6.352-.164-11.52-5.667-11.52-12.268v-8.644c0-13.016-10.589-23.605-23.604-23.605h-10.643c-4.143 0-7.5 3.358-7.5 7.5s3.357 7.5 7.5 7.5h10.643c4.744 0 8.604 3.86 8.604 8.605v8.644c0 14.661 11.724 26.891 26.133 27.263 4.415.119 8.691-.835 12.541-2.733v71.163h-318.771zm380.824 65.895c0 1.378-1.121 2.5-2.5 2.5h-477c-1.379 0-2.5-1.122-2.5-2.5v-18.035c0-1.378 1.121-2.5 2.5-2.5h477c1.379 0 2.5 1.122 2.5 2.5z"/></g></g><g/><g/><g/><g/><g/><g/><g/><g/><g/><g/><g/><g/><g/><g/><g/></svg>