<svg id="Layer_1" height="512" viewBox="0 0 150 150" width="512" xmlns="http://www.w3.org/2000/svg" data-name="Layer 1"><path d="m101.316 34.817s-17.65-1.36-28.74 0-13.12 13.8-13.12 13.8a88.55 88.55 0 0 0 -2.92 10.88c-.75 3.91-1.03 7.78.21 9.49 2.94 4.07 4.52 6.33 4.52 6.33s-5.32 12.45-5.37 17.42c-.03 2.56 3.66 3.27 7.97 2.95a30.073 30.073 0 0 0 11.2-2.95c5.21-2.94 9.05-13.8 9.05-13.8s-.456 9.5-2.481 14.4a.773.773 0 0 0 1.11.966c3.967-2.37 11.075-7.57 12.691-15.133 0 0 4.75 1.36 14.7-3.4z" fill="#f5d8af"/><path d="m63.866 95.687c-4.31.32-8-.39-7.97-2.95.029-2.905 1.858-8.364 3.374-12.4a10.27 10.27 0 0 0 -1.27-9.608q-.579-.806-1.255-1.742c-1.24-1.71-1.451-2.4-.7-6.306 0 0 5.071 1.456 7.651 5.536a16.267 16.267 0 0 1 2.6 10.27 18.387 18.387 0 0 0 .467 6.89c.943 3.523 1.396 8.541-2.897 10.31z" fill="#f2f2f2"/><path d="m17.8 120.488 18.06-13.35 17.09-3.31 10.73-.12a5.989 5.989 0 0 1 -5.04 8.06l-2.42.23-4.78 1.49 11.27 4.61 18.49-9.29a7.035 7.035 0 0 1 8.38 1.57l.6.67-26.98 16.67a9 9 0 0 1 -6.76 1.11l-19.08-4.39-8.57 8.12" fill="#f5d8af"/><path d="m28.8 133.559a1 1 0 0 1 -.688-1.726l8.569-8.12a1.007 1.007 0 0 1 .913-.249l19.08 4.39a7.944 7.944 0 0 0 6.01-.987l25.951-16.037a6.053 6.053 0 0 0 -6.982-1.128l-18.49 9.289a1 1 0 0 1 -.827.033l-11.27-4.61a1 1 0 0 1 .081-1.881l4.779-1.49a1.023 1.023 0 0 1 .2-.04l2.42-.229a4.993 4.993 0 0 0 4.4-6.057l-9.889.11-16.779 3.249-17.878 13.216a1 1 0 1 1 -1.189-1.607l18.06-13.351a1 1 0 0 1 .4-.178l17.089-3.309a.98.98 0 0 1 .179-.019l10.73-.12h.011a1 1 0 0 1 .937.65 6.988 6.988 0 0 1 -5.883 9.406l-2.315.22-2.026.631 8.279 3.385 18.083-9.085a8.053 8.053 0 0 1 9.571 1.793l.6.672a1 1 0 0 1 -.219 1.519l-26.98 16.67a9.931 9.931 0 0 1 -7.512 1.233l-18.555-4.269-8.18 7.751a1 1 0 0 1 -.68.275z" fill="#4d4d4d"/><path d="m132.196 66.9-30.596 4.713-29.02-36.796 32.225-17.376" fill="#f5d8af"/><g fill="#4d4d4d"><path d="m101.6 72.613a1 1 0 0 1 -.785-.381l-29.015-36.795a1 1 0 0 1 .31-1.5l32.22-17.375a1 1 0 0 1 .95 1.76l-31.18 16.811 27.922 35.4 30.019-4.624a1 1 0 0 1 .305 1.977l-30.6 4.713a.973.973 0 0 1 -.146.014z"/><path d="m58.942 87.445h-1.2c-2.456 0-4.4 3.028-3.535 5.9a3.935 3.935 0 0 0 3 2.348 2.965 2.965 0 0 0 3.193-1.293l.964-1.505c1.45-2.262.036-5.45-2.422-5.45z"/><path d="m57.9 96.758a4.65 4.65 0 0 1 -.875-.084 4.933 4.933 0 0 1 -3.763-3 5.983 5.983 0 0 1 .9-5.3 4.5 4.5 0 0 1 3.58-1.929h1.2a3.9 3.9 0 0 1 3.419 2.124 4.775 4.775 0 0 1 -.156 4.868l-.964 1.5a3.879 3.879 0 0 1 -3.341 1.821zm-.157-8.312a2.531 2.531 0 0 0 -1.976 1.124 4.013 4.013 0 0 0 -.6 3.487 2.968 2.968 0 0 0 2.23 1.652 1.974 1.974 0 0 0 2.167-.845l.964-1.5a2.813 2.813 0 0 0 .085-2.83 1.947 1.947 0 0 0 -1.664-1.084z"/><path d="m62.075 96.765a11.071 11.071 0 0 1 -5.417-1.08 3.269 3.269 0 0 1 -1.765-2.956c.029-2.429 1.17-6.672 3.392-12.612a9.525 9.525 0 0 0 -1.177-8.917l-1.177-1.634c-3.115-4.313 1.855-19.175 2.556-21.2.229-1.2 2.8-13.171 13.971-14.539 11.06-1.355 28.756-.018 28.934 0a1 1 0 1 1 -.154 1.994c-.175-.014-17.677-1.335-28.537 0a12.99 12.99 0 0 0 -9.944 6.864 20.3 20.3 0 0 0 -2.314 6.108.961.961 0 0 1 -.042.166c-2.12 6.109-4.768 16.792-2.849 19.449l1.179 1.637a11.523 11.523 0 0 1 1.427 10.785c-2.081 5.56-3.24 9.8-3.265 11.933a1.3 1.3 0 0 0 .783 1.211c3.052 1.806 12.679.293 16.9-2.093 4.817-2.722 8.564-13.16 8.6-13.265a1 1 0 0 1 1.941.382c-.017.369-.45 9-2.315 14.109 3.8-2.361 10.186-7.251 11.65-14.14a1 1 0 0 1 1.253-.754c.037.012 4.616 1.147 14-3.334a1 1 0 0 1 .862 1.805c-7.682 3.668-12.432 3.8-14.383 3.618-1.981 7.227-8.618 12.226-12.5 14.613a1.935 1.935 0 0 1 -2.817-2.338 37.054 37.054 0 0 0 1.672-7.577c-1.684 3.255-4.112 6.991-6.978 8.611-3.01 1.701-8.814 3.154-13.486 3.154z"/></g><path d="m79.27 56.607c4.512 3.03 9.858 5.455 12.446 10.234 1.761 3.252 1.945 7.113 3.184 10.6s4.321 6.917 7.983 6.4c3.893-.549 8.287-1.933 8.822-9 .9-11.94 2.7-22.841-1.566-31.12s-8-12.5-17.308-12.757c-3.146-.087-14.753 2.387-17.3 4.241-8.095 5.906-2.841 16.984 3.739 21.402z" fill="#f5d8af"/><g fill="#4d4d4d"><path d="m102.128 84.894c-3.867 0-6.907-3.568-8.171-7.12a38.038 38.038 0 0 1 -1.179-4.406 23.176 23.176 0 0 0 -1.941-6.05c-1.9-3.512-5.391-5.667-9.085-7.95-1.007-.622-2.048-1.265-3.04-1.931-4.783-3.212-8.193-9.011-8.291-14.1a10.437 10.437 0 0 1 4.525-8.937c2.893-2.111 14.8-4.5 17.913-4.434 9.7.266 13.732 4.688 18.169 13.3 3.782 7.34 2.964 16.678 2.1 26.562-.146 1.673-.3 3.371-.426 5.091-.579 7.657-5.476 9.32-9.678 9.912a6.37 6.37 0 0 1 -.896.063zm-9.482-52.931c-3.243 0-14.256 2.4-16.522 4.052a8.416 8.416 0 0 0 -3.7 7.281c.1 4.993 3.8 10.058 7.407 12.481.96.644 1.986 1.278 2.977 1.89 3.754 2.32 7.636 4.718 9.791 8.7a24.994 24.994 0 0 1 2.134 6.564 36.31 36.31 0 0 0 1.109 4.169c1.131 3.179 3.862 6.17 6.9 5.746 4.461-.629 7.523-2.244 7.964-8.082.131-1.729.281-3.435.427-5.114.877-10.006 1.633-18.647-1.884-25.473-4.165-8.077-7.688-11.972-16.449-12.211-.046-.002-.1-.003-.154-.003z"/><path d="m71.419 65.417 2.676-2.275"/><path d="m71.419 66.417a1 1 0 0 1 -.648-1.761l2.676-2.276a1 1 0 0 1 1.3 1.524l-2.676 2.275a1 1 0 0 1 -.652.238z"/></g></svg>