<svg id="Layer_1" height="512" viewBox="0 0 128 128" width="512" xmlns="http://www.w3.org/2000/svg" data-name="Layer 1"><path d="m89.355 61.077 3.234 14.972 2.68 19.959 10.382-1.148.349-23.486a174.511 174.511 0 0 0 -1.412-34.989c-1.432-9.385-6.65-16.985-11.283-22.105a21.534 21.534 0 0 0 -7.891-7.2l-.009-.006c-11.905-5.174-31.032-4.995-42.805-.003l-.009.006a21.534 21.534 0 0 0 -7.891 7.2c-4.638 5.123-9.856 12.723-11.287 22.108a174.511 174.511 0 0 0 -1.413 34.989l.348 23.486 10.382 1.148 2.68-19.959 2.65-13.673" fill="#f5d8af"/><g fill="#4d4d4d"><path d="m105.651 95.86h-.015a1 1 0 0 1 -.986-1.015l.35-23.486a175.189 175.189 0 0 0 -1.4-34.823c-1.425-9.346-6.787-16.9-11.035-21.584a1 1 0 0 1 -.111-.15 20.62 20.62 0 0 0 -7.531-6.855c-11.889-5.757-32.293-4.724-41.883.021l-.014.006a20.672 20.672 0 0 0 -7.478 6.826 1 1 0 0 1 -.111.15c-4.248 4.69-9.61 12.24-11.037 21.586a174.864 174.864 0 0 0 -1.4 34.764l.352 23.547a1 1 0 0 1 -.986 1.015h-.015a1 1 0 0 1 -1-.985l-.351-23.488a176.953 176.953 0 0 1 1.425-35.155c1.493-9.792 7.046-17.66 11.467-22.556a22.669 22.669 0 0 1 8.2-7.471c10.263-5.082 31.116-6.155 43.748-.036a.972.972 0 0 1 .133.076 22.527 22.527 0 0 1 8.136 7.43c4.421 4.9 9.974 12.764 11.467 22.556a177.145 177.145 0 0 1 1.424 35.217l-.347 23.425a1 1 0 0 1 -1.002.985z"/><path d="m95.268 97.008a1 1 0 0 1 -.99-.867l-2.678-19.958-3.221-14.9a1 1 0 0 1 1.956-.422l3.234 14.972 2.694 20.037a1 1 0 0 1 -.863 1.13 1.043 1.043 0 0 1 -.132.008z"/><path d="m32.732 97.008a1.043 1.043 0 0 1 -.132-.008 1 1 0 0 1 -.858-1.124l2.68-19.959 2.66-13.73a1 1 0 1 1 1.963.38l-2.652 13.673-2.671 19.9a1 1 0 0 1 -.99.868z"/></g><path d="m36.809 100.66-3.079 14.916c0 5.205 13.859 9.424 30.955 9.424s30.954-4.219 30.954-9.424l-3.112-15.167" fill="#eb6750"/><path d="m64.685 126c-15.491 0-31.955-3.653-31.955-10.424l.021-.2 3.079-14.916 1.959.4-3.057 14.805c.188 3.963 12.436 8.335 29.953 8.335s29.766-4.373 29.952-8.333l-3.089-15.057 1.959-.4 3.132 15.368c0 6.769-16.464 10.422-31.954 10.422z" fill="#4d4d4d"/><ellipse cx="64.685" cy="100.87" fill="#f2f2f2" rx="27.884" ry="8.489"/><path d="m64.685 110.359c-14 0-28.885-3.325-28.885-9.489s14.882-9.49 28.885-9.49 28.884 3.326 28.884 9.49-14.882 9.489-28.884 9.489zm0-16.979c-15.844 0-26.885 3.948-26.885 7.49s11.041 7.489 26.885 7.489 26.884-3.946 26.884-7.489-11.041-7.49-26.884-7.49z" fill="#4d4d4d"/><path d="m90.878 103.783c-3.908 3.259-14.167 5.574-26.194 5.574-12.444 0-22.981-2.482-26.573-5.9 3.9-3.25 14.157-5.574 26.2-5.574 12.447.002 22.983 2.483 26.567 5.9z" fill="#80d1ee"/><path d="m64.684 110.357c-12.423 0-23.379-2.481-27.262-6.173l-.814-.774.863-.719c4.23-3.527 14.766-5.806 26.843-5.806 12.428 0 23.38 2.481 27.253 6.174l.812.774-.861.718c-4.228 3.527-14.761 5.806-26.834 5.806zm-24.925-6.857c4.216 2.895 14.1 4.856 24.925 4.856 10.564 0 20.121-1.827 24.547-4.617-4.207-2.895-14.085-4.855-24.917-4.855-10.567.001-20.126 1.827-24.555 4.616z" fill="#4d4d4d"/><path d="m71.913 93.169c0 5.989-3.5 9.267-7.49 9.267s-6.968-3.278-6.968-9.267 3.237-10.844 7.229-10.844 7.229 4.855 7.229 10.844z" fill="#f8c7c1"/><path d="m64.422 103.436c-4.839 0-7.966-4.03-7.966-10.267 0-6.531 3.691-11.844 8.228-11.844s8.229 5.313 8.229 11.844c0 7.054-4.401 10.267-8.491 10.267zm.262-20.111c-3.434 0-6.228 4.416-6.228 9.844 0 5.1 2.286 8.267 5.966 8.267 3.231 0 6.491-2.556 6.491-8.267 0-5.428-2.794-9.844-6.229-9.844z" fill="#4d4d4d"/><path d="m85.011 22.373c-6.011-4.56-15.966-4.56-15.966-4.56h-8.193s-9.956 0-15.967 4.56-9.016 20.427-6.574 29.148 8.606 14.619 11.236 18.979-3.563 18.5 11.834 18.5h7.135c15.4 0 9.2-14.13 11.834-18.492s8.794-10.258 11.236-18.982-.564-24.592-6.575-29.153z" fill="#f1d7ad"/><path d="m60.95 48.522c.432 17.842-7.289 24.915-8.072 27.6-1.416 4.859 1.128 10.673 6 12.034a5.136 5.136 0 0 0 4.681-.649 3.99 3.99 0 0 0 1.123-1.672 3.99 3.99 0 0 0 1.123 1.672 5.136 5.136 0 0 0 4.681.649c4.875-1.361 7.549-7.069 6.133-11.928-.782-2.685-8.836-9.984-8.2-27.705z" fill="#f2f2f2"/><path d="m68.516 90h-7.135c-11.909 0-11.981-8.3-12.03-13.79-.019-2.137-.037-4.156-.661-5.191a50.129 50.129 0 0 0 -2.913-4.087c-2.958-3.9-6.638-8.744-8.429-15.142-2.968-10.6 1.39-26.008 6.933-30.213 6.208-4.71 16.151-4.764 16.571-4.764h8.192c.421 0 10.364.054 16.572 4.764 5.543 4.2 9.9 19.611 6.933 30.213-1.791 6.4-5.472 11.247-8.429 15.142a49.994 49.994 0 0 0 -2.914 4.087c-.624 1.035-.642 3.054-.661 5.191-.045 5.49-.12 13.79-12.029 13.79zm-7.664-71.187c-.1 0-9.7.058-15.362 4.357-5.761 4.37-8.472 20.021-6.216 28.081 1.688 6.032 5.241 10.711 8.1 14.472a51.467 51.467 0 0 1 3.026 4.263c.907 1.5.926 3.683.948 6.206.051 5.8.1 11.8 10.03 11.8h7.135c9.926 0 9.979-6 10.03-11.8.022-2.523.041-4.7.947-6.206a51.333 51.333 0 0 1 3.034-4.263c2.855-3.761 6.408-8.441 8.1-14.472 2.256-8.06-.456-23.711-6.216-28.081-5.666-4.3-15.267-4.357-15.363-4.357z" fill="#4d4d4d"/><path d="m80.454 24.287a2.849 2.849 0 0 1 3.962-3.513 37.384 37.384 0 0 1 10.824 7.638c7.622 7.851 9.146 18.475 3.92 23.986s-1.089 12.089-5.444 15.484-7.84-11.49-7.4-20.706c.284-6.004-3.316-16.384-5.862-22.889z" fill="#f5d8af"/><path d="m92.443 69.375a2.781 2.781 0 0 1 -1.289-.325c-4.035-2.091-6.188-14.578-5.841-21.921a34.981 34.981 0 0 0 -1.581-10.029 1 1 0 0 1 1.93-.524 36.794 36.794 0 0 1 1.649 10.653c-.379 8.02 2.158 18.7 4.763 20.05.23.12.521.214 1.027-.18 1.731-1.349 1.846-3.348 1.992-5.878.173-2.987.368-6.372 3.341-9.506 4.913-5.18 3.158-15.319-3.912-22.6a36.022 36.022 0 0 0 -10.533-7.43 3.064 3.064 0 0 0 -1.928.119 1 1 0 1 1 -.707-1.871 4.938 4.938 0 0 1 3.489-.056 38.048 38.048 0 0 1 11.115 7.845c7.938 8.179 9.664 19.323 3.927 25.371-2.469 2.6-2.635 5.472-2.8 8.246-.154 2.671-.314 5.433-2.759 7.339a3.065 3.065 0 0 1 -1.883.697z" fill="#4d4d4d"/><path d="m49.442 24.287a2.848 2.848 0 0 0 -3.961-3.513 37.371 37.371 0 0 0 -10.824 7.638c-7.622 7.851-9.146 18.475-3.92 23.986s1.089 12.089 5.444 15.484 7.839-11.49 7.4-20.706c-.281-6.004 3.319-16.384 5.861-22.889z" fill="#f5d8af"/><g fill="#4d4d4d"><path d="m37.453 69.375a3.061 3.061 0 0 1 -1.887-.7c-2.445-1.906-2.605-4.668-2.759-7.339-.161-2.774-.326-5.642-2.8-8.246-5.732-6.052-4.007-17.197 3.932-25.375a38.048 38.048 0 0 1 11.115-7.845 4.939 4.939 0 0 1 3.489.056 1 1 0 1 1 -.707 1.871 3.085 3.085 0 0 0 -1.928-.119 36.022 36.022 0 0 0 -10.533 7.43c-7.07 7.283-8.825 17.422-3.913 22.6 2.973 3.135 3.169 6.52 3.342 9.506.146 2.531.261 4.529 1.991 5.878.507.394.8.3 1.028.179 2.6-1.348 5.142-12.029 4.762-20.049a36.838 36.838 0 0 1 1.65-10.654 1 1 0 0 1 1.93.526 35.005 35.005 0 0 0 -1.582 10.033c.347 7.343-1.8 19.83-5.84 21.921a2.785 2.785 0 0 1 -1.29.327z"/><path d="m66.228 79.8h-3.007c-3.832 0-6.039 3.505-3.776 6l1.5 1.655a5.392 5.392 0 0 0 7.552 0l1.503-1.655c2.266-2.492.059-6-3.772-6z"/><path d="m64.724 90a6.068 6.068 0 0 1 -4.516-1.871l-1.5-1.654a4.138 4.138 0 0 1 -.812-4.558 5.683 5.683 0 0 1 5.328-3.11h3.007a5.684 5.684 0 0 1 5.328 3.11 4.142 4.142 0 0 1 -.812 4.558l-1.5 1.654a6.065 6.065 0 0 1 -4.523 1.871zm-1.5-9.193a3.7 3.7 0 0 0 -3.5 1.919 2.138 2.138 0 0 0 .463 2.4l1.5 1.654a4.4 4.4 0 0 0 6.072 0l1.5-1.654a2.14 2.14 0 0 0 .464-2.4 3.7 3.7 0 0 0 -3.5-1.919z"/><path d="m73.964 56.491 4.251-2.126"/><path d="m73.965 57.491a1 1 0 0 1 -.448-1.9l4.251-2.125a1 1 0 1 1 .895 1.789l-4.251 2.125a1 1 0 0 1 -.447.111z"/><path d="m55.484 56.491-4.251-2.126"/><path d="m55.483 57.491a.991.991 0 0 1 -.446-.106l-4.251-2.125a1 1 0 1 1 .894-1.789l4.251 2.129a1 1 0 0 1 -.448 1.9z"/></g></svg>